<?xml version="1.0" encoding="utf-8"?>
<!-- Generator: Adobe Illustrator 26.5.3, SVG Export Plug-In . SVG Version: 6.00 Build 0)  -->
<svg version="1.1" id="Layer_1" xmlns="http://www.w3.org/2000/svg" xmlns:xlink="http://www.w3.org/1999/xlink" x="0px" y="0px"
	 viewBox="0 0 620 202" style="enable-background:new 0 0 620 202;" xml:space="preserve">
<style type="text/css">
	.st0{fill:#00D15F;}
	.st1{opacity:0.25;fill:#FFFFFF;enable-background:new    ;}
	.st2{fill:#FFFFFF;}
</style>
<g>
	<path class="st0" d="M60.477,10.833c-5.347,0-10.492,2.131-14.271,5.909L15.614,47.334c-3.779,3.779-5.909,8.924-5.909,14.271
		v129.402l549.167-0.322c5.347,0,10.492-2.131,14.271-5.909l30.25-30.25c3.779-3.779,5.909-8.924,5.909-14.271l0.02-129.423
		L60.477,10.833z"/>
	<path class="st1" d="M9.707,74.743L9.77,190.957l204.856-0.122c0,0,22.773,1.045,40.481-2.874
		c32.542-7.196,51.918-20.984,76.138-45.204c40.863-40.863,132.376-132.095,132.376-132.095l-200.358,0.023l-138.02,137.457
		c0,0-8.819,9.86-20.741,9.866c-8.919,0.004-14.019-3.598-20.663-9.742C81.888,146.462,9.707,74.794,9.707,74.743z"/>
	<g>
		<g>
			<path class="st2" d="M96.629,144.646l-41.426-86.51h18.673c0,0,29.607,61.927,30.331,65.063h0.362
				c0.744-3.136,30.331-65.063,30.331-65.063h18.854l-41.426,86.51H96.629z"/>
			<path class="st2" d="M233.991,108.024h-67.093c2.412,14.05,12.743,22.914,26.069,22.914c10.914,0,18.11-4.261,21.808-12.201
				h17.366c-5.186,16.442-20.14,27.718-39.195,27.718c-25.145,0-43.617-18.291-43.617-45.104c0-26.612,18.11-45.104,43.617-45.104
				c22.733,0,41.406,19.416,41.406,45.104C234.353,103.943,234.353,105.431,233.991,108.024z M167.079,93.974h49.727
				c-1.105-11.839-10.713-22.17-23.838-22.17C179.642,71.784,169.652,80.487,167.079,93.974z"/>
			<path class="st2" d="M326.028,108.024h-67.093c2.412,14.05,12.743,22.914,26.069,22.914c10.914,0,18.11-4.261,21.808-12.201
				h17.366c-5.186,16.442-20.14,27.718-39.195,27.718c-25.145,0-43.617-18.291-43.617-45.104c0-26.612,18.11-45.104,43.617-45.104
				c22.733,0,41.406,19.416,41.406,45.104C326.39,103.943,326.39,105.431,326.028,108.024z M259.116,93.974h49.727
				c-1.105-11.839-10.713-22.17-23.838-22.17C271.679,71.784,261.709,80.487,259.116,93.974z"/>
			<path class="st2" d="M420.116,101.371v43.255h-14.974l-1.487-13.487c-6.653,9.99-18.291,15.336-28.843,15.336
				c-23.657,0-41.587-18.854-41.587-45.104c0-25.868,19.215-45.104,43.797-45.104C399.594,56.267,420.116,72.527,420.116,101.371z
				 M403.091,101.371c0-19.035-12.562-29.567-26.069-29.567c-14.793,0-26.793,11.839-26.793,29.567
				c0,17.748,11.095,29.567,26.793,29.567C390.348,130.938,403.091,119.842,403.091,101.371z"/>
			<path class="st2" d="M431.573,144.625V93.431c0-21.627,13.869-37.144,35.496-37.144c17.366,0,26.612,11.638,27.919,15.718h0.362
				c1.286-4.06,10.532-15.718,27.919-15.718c21.627,0,35.496,15.517,35.496,37.144v51.194H541.76V94.718
				c0-14.05-6.291-22.552-19.034-22.552c-12.763,0-19.035,8.502-19.035,22.914v49.727h-17.004V95.079
				c0-14.412-6.291-22.914-19.035-22.914c-12.743,0-19.035,8.502-19.035,22.552v49.908H431.573z"/>
		</g>
	</g>
</g>
</svg>
