<?xml version="1.0" encoding="UTF-8"?>
<svg id="_圖層_2" data-name="圖層 2" xmlns="http://www.w3.org/2000/svg" viewBox="0 0 31.17 31.17">
  <defs>
    <style>
      .cls-1 {
        fill: #fff;
      }

      .cls-2 {
        fill: none;
        stroke: #fff;
        stroke-miterlimit: 10;
      }

      .cls-3 {
        fill: #83c025;
      }

      .cls-4 {
        opacity: .41;
      }
    </style>
  </defs>
  <g id="_圖層_1-2" data-name="圖層 1">
    <g>
      <g class="cls-4">
        <path class="cls-3" d="M30.67,15.58c0,8.33-6.75,15.08-15.08,15.08S.5,23.91.5,15.58,7.25.5,15.58.5s15.08,6.75,15.08,15.08"/>
      </g>
      <path class="cls-1" d="M11.39,24.03c1.21-.01,2.22-.44,3.06-1.28,1.01-1.01,2.03-2.03,3.04-3.04,1.56-1.56,3.12-3.12,4.68-4.68.26-.26.35-.56.22-.9-.04-.12-.13-.23-.22-.32-.6-.6-1.2-1.2-1.8-1.8-.03-.03-.06-.06-.1-.1-.12-.13-.12-.26,0-.37.11-.1.24-.1.36,0,.02.02.04.04.06.06.62.62,1.24,1.23,1.85,1.85.56.56.56,1.36,0,1.92-2.58,2.58-5.16,5.17-7.74,7.74-1.99,1.98-5.21,1.86-7.03-.29-.85-1-1.18-2.19-1.07-3.49.11-1.19.62-2.19,1.47-3.03,2.55-2.54,5.09-5.09,7.64-7.63.45-.45,1.03-.56,1.55-.3.13.07.25.16.35.26.64.63,1.27,1.26,1.9,1.9.06.07.12.19.11.28-.03.2-.27.26-.42.12-.16-.15-.31-.31-.47-.47-.48-.48-.96-.96-1.44-1.44-.37-.37-.83-.37-1.2,0-2.58,2.58-5.16,5.15-7.73,7.73-1.67,1.67-1.7,4.29-.06,6,.82.85,1.85,1.26,3,1.27"/>
      <path class="cls-1" d="M13.5,20.36c-2,0-3.3-2.15-2.35-3.91.07-.13.16-.22.32-.19.17.04.24.22.14.41-.19.37-.28.76-.25,1.18.08,1.13,1.01,2,2.14,1.99,1.19,0,2.15-.96,2.15-2.15,0-1.56-1.63-2.6-3.05-1.94-.04.02-.07.04-.11.05-.16.07-.28.02-.35-.13-.06-.14-.02-.25.13-.33.42-.22.86-.31,1.33-.3,1.18.04,2.21.89,2.48,2.04.4,1.68-.86,3.27-2.59,3.28"/>
      <path class="cls-1" d="M24.09,11.12v.05c0,.22-.09.32-.26.32-.17,0-.25-.11-.25-.31-.02-.74-.23-1.43-.67-2.03-.71-.97-1.68-1.47-2.88-1.52-.12,0-.23-.02-.28-.14-.09-.2.04-.37.26-.37.74,0,1.43.2,2.07.58,1.2.71,2,2.06,2.02,3.42"/>
      <path class="cls-1" d="M13.51,16.43c.71,0,1.27.57,1.26,1.28,0,.7-.58,1.26-1.27,1.26-.7,0-1.28-.58-1.27-1.28,0-.71.57-1.27,1.28-1.27M13.5,16.94c-.42,0-.77.35-.77.77,0,.41.35.76.76.76.42,0,.76-.35.76-.77,0-.42-.34-.75-.76-.75"/>
      <path class="cls-1" d="M19.79,8.57c1.38.05,2.6,1.14,2.81,2.5.02.15.03.3.04.45,0,.19-.08.28-.24.28-.16,0-.25-.08-.27-.26-.02-.19-.03-.38-.07-.57-.26-1.09-1.2-1.85-2.32-1.89-.12,0-.24,0-.31-.14-.09-.17.01-.36.21-.38.05,0,.1,0,.15,0"/>
      <path class="cls-1" d="M19.1,13.08c0,.54-.44.97-.97.96-.53,0-.96-.44-.96-.97,0-.54.43-.97.97-.97.54,0,.97.43.96.97M18.14,12.62c-.26,0-.46.19-.46.44,0,.25.19.46.44.46.25,0,.46-.2.46-.45,0-.26-.19-.45-.44-.46"/>
      <path class="cls-1" d="M18.84,14.74c0-.54.43-.96.97-.96.53,0,.96.43.96.96,0,.53-.43.98-.97.98-.53,0-.97-.43-.97-.97M19.36,14.75c0,.25.2.45.45.45s.45-.2.45-.45c0-.26-.2-.46-.46-.46-.25,0-.44.2-.44.46"/>
      <path class="cls-1" d="M16.44,13.81c.54,0,.96.43.96.98,0,.53-.44.96-.96.96-.53,0-.98-.45-.97-.98,0-.54.44-.96.98-.96M16.88,14.79c0-.26-.18-.46-.43-.47-.26,0-.47.19-.48.44,0,.24.2.46.44.47.24,0,.46-.19.46-.44"/>
      <path class="cls-1" d="M16.44,12.36c-.53-.01-.96-.45-.95-.97,0-.54.45-.96.99-.95.56.01.97.45.95,1.02-.01.51-.46.92-.99.91M16.47,11.85c.25,0,.45-.19.45-.45s-.19-.45-.45-.45c-.26,0-.47.21-.46.46,0,.25.21.44.46.44"/>
      <path class="cls-1" d="M15.72,13.1c0,.54-.44.97-.97.97-.53,0-.97-.44-.97-.98,0-.53.43-.95.96-.96.54,0,.97.42.97.96M15.21,13.1c0-.25-.2-.45-.46-.45-.25,0-.46.2-.46.45,0,.25.21.46.47.46.25,0,.45-.21.45-.46"/>
      <path class="cls-1" d="M19.07,16.45c0,.54-.43.97-.97.97-.53,0-.97-.45-.97-.98,0-.53.44-.96.96-.96.54,0,.97.42.97.97M18.55,16.45c0-.25-.19-.45-.44-.46-.25,0-.45.2-.46.45,0,.26.2.47.46.47.25,0,.45-.2.45-.46"/>
      <path class="cls-2" d="M30.67,15.58c0,8.33-6.75,15.08-15.08,15.08S.5,23.91.5,15.58,7.25.5,15.58.5s15.08,6.75,15.08,15.08Z"/>
    </g>
  </g>
</svg>