<?xml version="1.0" encoding="UTF-8"?>
<svg id="_圖層_2" data-name="圖層 2" xmlns="http://www.w3.org/2000/svg" viewBox="0 0 10.77 10.77">
  <defs>
    <style>
      .cls-1 {
        fill: #231815;
      }
    </style>
  </defs>
  <g id="_圖層_1-2" data-name="圖層 1">
    <g>
      <path class="cls-1" d="M5.38,10.77C2.41,10.77,0,8.35,0,5.38S2.42,0,5.39,0c2.97,0,5.39,2.43,5.38,5.4,0,2.97-2.42,5.37-5.39,5.37M10,5.4c.01-2.52-2.03-4.61-4.6-4.63-2.53-.01-4.62,2.03-4.63,4.6-.01,2.53,2.04,4.62,4.59,4.63,2.52.01,4.63-2.03,4.63-4.6"/>
      <path class="cls-1" d="M7.8,2.55c.3.01.48.26.39.51-.01.04-.04.08-.06.12-.52,1.04-1.04,2.08-1.56,3.11-.06.12-.15.21-.28.28-1.04.52-2.09,1.04-3.14,1.56-.08.04-.19.07-.28.06-.26-.02-.4-.27-.31-.51.01-.04.03-.08.05-.11.52-1.03,1.03-2.06,1.55-3.1.07-.13.16-.23.29-.3,1.04-.52,2.08-1.04,3.13-1.56.07-.04.16-.06.2-.07M6.1,5.54c.28-.57.57-1.14.85-1.7l-.02-.02c-.57.28-1.13.57-1.7.85.29.29.58.58.87.87M5.54,6.1c-.29-.29-.58-.58-.87-.87-.28.57-.57,1.13-.85,1.7,0,0,.02.01.02.02.57-.28,1.13-.57,1.7-.85"/>
    </g>
  </g>
</svg>