<?xml version="1.0" encoding="UTF-8"?>
<svg id="_圖層_2" data-name="圖層 2" xmlns="http://www.w3.org/2000/svg" viewBox="0 0 45.35 45.35">
  <defs>
    <style>
      .cls-1 {
        fill: #fff;
      }

      .cls-2 {
        fill: none;
      }

      .cls-3 {
        opacity: .1;
      }
    </style>
  </defs>
  <g id="_圖層_1-2" data-name="圖層 1">
    <g>
      <path class="cls-1" d="M17.86,11.88c0-.34,0-.64,0-.94,0-.46.31-.76.76-.76.37,0,.73,0,1.1,0,.02,0,.03,0,.09-.01,0-.23,0-.47,0-.71,0-.54.29-.83.82-.83,1.24,0,2.48,0,3.72,0,.52,0,.81.29.81.81,0,.24,0,.47,0,.74.25,0,.49.01.73,0,1-.06,1.29.21,1.22,1.24,0,.14,0,.29,0,.47h.27c1.26,0,2.52,0,3.77,0,.54,0,.83.29.83.82,0,1.9,0,3.8,0,5.7v.3c.07-.06.12-.09.16-.13.29-.29.58-.59.88-.88.33-.31.74-.32,1.07,0,.91.9,1.82,1.81,2.72,2.72.34.34.32.76-.04,1.12-1.54,1.54-3.07,3.08-4.62,4.61-.12.12-.18.24-.18.42,0,2.04,0,4.09,0,6.14,0,.57-.28.85-.85.85-5.77,0-11.54,0-17.31,0-.55,0-.84-.29-.84-.84,0-6.66,0-13.33,0-19.99,0-.56.28-.84.86-.84,1.24,0,2.48,0,3.73,0h.29ZM30.51,27.85s-.04-.03-.05-.04c-.22.23-.45.46-.66.7-.2.23-.45.36-.73.46-1.25.41-2.51.82-3.76,1.25-.33.11-.62.11-.88-.15-.25-.25-.24-.55-.14-.86.44-1.3.87-2.61,1.31-3.91.06-.18.18-.35.31-.48,1.47-1.49,2.96-2.97,4.44-4.44.12-.12.17-.23.17-.4,0-2.12,0-4.24,0-6.36v-.26h-3.38s-.02.04-.02.05c0,.28,0,.57,0,.85,0,.48-.31.79-.79.79-2.56,0-5.12,0-7.67,0-.49,0-.79-.3-.79-.79,0-.3,0-.6,0-.9h-3.39v18.72h16.04v-4.22ZM29.09,27.1c2.05-2.05,4.1-4.1,6.14-6.14-.56-.55-1.13-1.12-1.68-1.66-2.03,2.03-4.08,4.09-6.13,6.13.54.55,1.1,1.11,1.66,1.67M19.33,13.56h6.31v-1.93c-.4,0-.79,0-1.17,0-.45,0-.76-.31-.76-.77,0-.26,0-.51,0-.77h-2.43c0,.21-.01.41,0,.6.06.64-.35.99-.93.95-.33-.03-.67,0-1.01,0v1.93ZM26.11,28.4c.56-.19,1.07-.36,1.57-.53-.36-.36-.7-.7-1.05-1.05-.17.5-.34,1.01-.53,1.57"/>
      <path class="cls-1" d="M20.31,19.01c.51-.51,1.01-1.01,1.52-1.51.11-.11.23-.23.34-.34.34-.33.79-.34,1.08-.04.29.3.28.74-.04,1.07-.51.52-1.03,1.03-1.55,1.55-.26.26-.52.53-.79.79-.38.37-.78.37-1.15,0-.37-.36-.74-.73-1.1-1.1-.34-.35-.36-.8-.05-1.1.31-.3.74-.27,1.08.06.2.2.4.4.61.6,0,0,.01,0,.05.03"/>
      <path class="cls-1" d="M20.28,28.53c.61-.61,1.19-1.19,1.77-1.77.07-.07.13-.14.21-.2.31-.25.73-.23.99.05.26.27.28.67.04.98-.1.13-.22.24-.34.35-.68.68-1.35,1.35-2.03,2.03-.44.43-.82.43-1.26,0-.35-.35-.7-.7-1.05-1.05-.34-.35-.36-.8-.05-1.1.31-.3.74-.28,1.08.06.21.21.4.42.63.65"/>
      <path class="cls-1" d="M20.29,23.78c.64-.64,1.25-1.26,1.87-1.86.12-.11.27-.21.43-.26.33-.09.63.07.78.35.16.3.13.62-.12.87-.4.41-.8.8-1.2,1.21-.4.39-.79.79-1.19,1.19-.35.35-.77.35-1.12,0-.38-.38-.76-.75-1.14-1.13-.33-.34-.34-.78-.03-1.08.29-.29.74-.27,1.06.04.21.21.42.43.66.67"/>
      <path class="cls-1" d="M17.37,19.82c0,.4-.34.72-.73.72-.4,0-.74-.35-.73-.75.01-.39.35-.72.75-.71.39,0,.72.34.72.74"/>
      <path class="cls-1" d="M16.64,30.04c-.39,0-.72-.34-.72-.73,0-.4.34-.74.75-.73.4,0,.72.35.71.74,0,.4-.34.72-.74.72"/>
      <path class="cls-1" d="M17.37,24.57c0,.4-.33.72-.73.72-.41,0-.74-.34-.73-.75.01-.4.34-.71.75-.71.4,0,.72.33.72.73"/>
      <g class="cls-3">
        <rect class="cls-2" width="45.35" height="45.35"/>
      </g>
    </g>
  </g>
</svg>