<?xml version="1.0" encoding="UTF-8"?>
<svg id="_圖層_2" data-name="圖層 2" xmlns="http://www.w3.org/2000/svg" viewBox="0 0 45.35 45.35">
  <defs>
    <style>
      .cls-1 {
        fill: #fff;
      }

      .cls-2 {
        fill: none;
      }

      .cls-3 {
        opacity: .1;
      }
    </style>
  </defs>
  <g id="_圖層_1-2" data-name="圖層 1">
    <g>
      <g class="cls-3">
        <rect class="cls-2" width="45.35" height="45.35"/>
      </g>
      <path class="cls-1" d="M19.03,21.35c-.31-.34-.62-.63-.89-.96-.76-.96-1.14-2.07-1.15-3.29,0-1.08,0-2.17,0-3.25.01-2.72,2.07-5.02,4.78-5.33,1.5-.17,2.92.03,4.18.93,1.46,1.04,2.26,2.46,2.31,4.25.04,1.26.04,2.53-.02,3.79-.07,1.5-.75,2.73-1.88,3.71-.04.03-.08.07-.16.14.39.07.74.13,1.08.2,1.14.24,2.29.46,3.42.72,1.4.32,2.37,1.56,2.38,2.99.01,2.97,0,5.94,0,8.91,0,.48-.28.75-.75.75-6.45,0-12.9,0-19.36,0-.47,0-.75-.27-.75-.75,0-2.95,0-5.9,0-8.86,0-1.53,1.03-2.78,2.52-3.09,1.13-.24,2.27-.48,3.4-.71.28-.06.56-.09.86-.14M31.7,33.5c0-.05.01-.09.01-.12,0-2.71,0-5.42,0-8.13,0-.79-.56-1.48-1.34-1.65-.85-.19-1.71-.35-2.57-.54-.21-.05-.3-.01-.37.2-1.21,3.33-2.43,6.65-3.65,9.98-.03.08-.05.17-.08.26h4.14v-.3c0-.96,0-1.93,0-2.89,0-.46.27-.75.7-.74.43,0,.69.29.69.75,0,.92,0,1.84,0,2.76v.42h2.46ZM21.66,33.5c-.08-.22-.15-.42-.22-.62-1.17-3.21-2.35-6.43-3.52-9.64-.05-.13-.08-.25-.28-.2-.85.19-1.7.35-2.54.54-.95.21-1.45.85-1.45,1.82,0,2.61,0,5.21,0,7.82v.28h2.48c0-1.07,0-2.12,0-3.16,0-.48.25-.76.68-.76.44,0,.71.28.72.76,0,.96,0,1.93,0,2.89v.28h4.15ZM22.71,21.08c.23-.01.51,0,.79-.05,2.13-.4,3.48-2.11,3.4-4.29,0-.16-.06-.2-.21-.22-.34-.04-.68-.07-1.02-.15-1.22-.26-2.34-.77-3.39-1.45-.08-.05-.24-.1-.31-.06-1.07.65-2.22,1.08-3.42,1.39-.06.02-.15.1-.16.15-.03.78,0,1.55.34,2.27.79,1.62,2.1,2.41,3.96,2.39M26.86,15.12c.37-1.78-.36-3.63-1.77-4.59-1.3-.9-3.66-.91-4.98.06-1.54,1.13-1.86,2.69-1.68,4.26,1.08-.3,2.12-.7,3.05-1.34.47-.32.87-.7,1.15-1.2.22-.4.61-.52.98-.31.37.21.47.59.24,1-.18.3-.39.58-.59.88.73.61,2.78,1.33,3.6,1.25M22.65,32.1s.04,0,.06,0c.4-1.09.8-2.17,1.19-3.26.03-.08,0-.19-.02-.27-.22-.78-.45-1.56-.68-2.35-.15-.52-.15-.51-.69-.51-.16,0-.22.05-.26.2-.16.58-.28,1.17-.51,1.72-.31.76-.26,1.45.07,2.19.33.74.57,1.52.85,2.28M25.22,22.58c-.3.8-.59,1.58-.88,2.36-.02.05-.02.11-.01.15.12.45.25.9.38,1.34.02,0,.04,0,.06,0,.45-1.22.9-2.45,1.35-3.69-.32-.06-.59-.11-.9-.16M19.22,22.73c.46,1.25.91,2.48,1.36,3.71.14-.3.2-.6.31-.88.15-.36.11-.68-.04-1.03-.27-.64-.49-1.29-.74-1.95-.3.05-.59.1-.89.16M21.61,22.51s0,.06,0,.08c.14.39.29.77.43,1.16q.24.63.91.57c.06,0,.14-.04.16-.09.22-.56.43-1.13.65-1.72h-2.16Z"/>
    </g>
  </g>
</svg>