<?xml version="1.0" encoding="UTF-8"?>
<svg id="_圖層_2" data-name="圖層 2" xmlns="http://www.w3.org/2000/svg" viewBox="0 0 8.27 8.27">
  <defs>
    <style>
      .cls-1 {
        fill: #fff;
      }
    </style>
  </defs>
  <g id="_圖層_1-2" data-name="圖層 1">
    <path class="cls-1" d="M8.27,4.14c0,.97-.3,1.84-.91,2.59-.83,1.01-1.92,1.53-3.23,1.55-.89,0-1.71-.26-2.42-.79C.6,6.65.02,5.53,0,4.14c-.01-.83.22-1.59.69-2.28C1.52.65,2.68.03,4.14,0c.55-.01,1.09.1,1.6.32.66.28,1.23.71,1.67,1.28.57.75.87,1.59.87,2.54M4.16,4.7s-.05-.04-.06-.05c-.09-.09-.18-.18-.28-.28-.07-.07-.15-.15-.22-.22-.07-.07-.14-.15-.21-.22-.09-.09-.18-.17-.27-.26-.07-.07-.13-.15-.2-.22-.09-.08-.18-.16-.26-.25-.06-.07-.14-.1-.22-.1-.15-.01-.24.06-.32.18-.05.07-.06.25-.01.31.08.1.17.19.25.28.14.14.28.27.42.41.14.14.27.28.4.42.08.08.16.15.24.23.09.09.17.18.26.27.07.07.15.14.21.21.12.13.38.13.5-.01.08-.09.16-.17.24-.25l.23-.23c.09-.09.17-.17.26-.26.07-.07.15-.14.22-.21.08-.08.16-.17.24-.25.07-.07.15-.14.22-.21.09-.09.16-.18.26-.27.12-.11.17-.24.12-.39-.03-.11-.11-.19-.23-.23-.11-.03-.22-.02-.31.06-.12.11-.23.23-.34.34-.14.14-.28.27-.42.4-.08.08-.15.17-.23.25-.14.14-.28.27-.42.41-.03.03-.06.08-.08.12"/>
  </g>
</svg>