<?xml version="1.0" encoding="UTF-8"?>
<svg id="_圖層_2" data-name="圖層 2" xmlns="http://www.w3.org/2000/svg" viewBox="0 0 26.34 26.34">
  <defs>
    <style>
      .cls-1 {
        fill: #d65719;
      }
    </style>
  </defs>
  <g id="_圖層_1-2" data-name="圖層 1">
    <g>
      <path class="cls-1" d="M10.15,16.38c-.11,0-.23.01-.34.02-1.1.07-2.14.39-3.17.73q-.4.13-.39.55c0,.46.22.61.66.48.65-.18,1.31-.37,1.97-.5,1.39-.28,2.73-.13,3.98.58.23.13.42.13.65,0,.94-.54,1.97-.76,3.04-.7.94.05,1.84.28,2.73.56.69.22.84.1.83-.63,0-.16-.04-.23-.2-.28-.85-.23-1.68-.52-2.54-.7-1.39-.28-2.73-.09-3.94.72-.19.12-.34.13-.52,0-.83-.57-1.77-.82-2.77-.84M20.09,16.73c0-.06.01-.11.01-.16,0-2.77,0-5.55,0-8.32,0-.29-.16-.46-.42-.52-.86-.22-1.71-.48-2.58-.64-1.21-.22-2.36,0-3.44.59-.18.1-.25.22-.25.43,0,2.74,0,5.48,0,8.22v.28c.44-.17.84-.35,1.26-.48,1.28-.38,2.54-.22,3.8.12.54.15,1.06.32,1.61.49M20.59,9.33v.34c0,2.68,0,5.36,0,8.04,0,.58-.27.94-.78,1-.2.02-.41-.04-.61-.1-1.06-.33-2.13-.61-3.26-.56-.75.03-1.46.21-2.1.58-.46.27-.87.27-1.33,0-.99-.57-2.08-.72-3.19-.53-.75.13-1.51.3-2.23.54-.79.26-1.36-.28-1.35-.98.03-2.68.01-5.36.01-8.04v-.3c-.29.06-.44.22-.49.47-.01.07,0,.14,0,.21v9.09s0,.07,0,.11c.02.43.31.64.73.52.85-.26,1.69-.54,2.55-.77.88-.23,1.77-.34,2.67-.15.51.11.97.34,1.36.69.42.38.82.38,1.23.01.61-.55,1.37-.74,2.15-.75.58,0,1.16.11,1.74.18.19.02.39.08.33.33-.06.25-.27.19-.43.15-.64-.15-1.28-.2-1.93-.15-.6.05-1.14.23-1.59.65-.48.44-1.24.49-1.7.06-.83-.79-1.8-.88-2.86-.74-1.16.16-2.25.57-3.34.94-.77.26-1.4-.19-1.4-1,0-3.06,0-6.11,0-9.17,0-.57.24-.94.75-1.13.2-.08.27-.18.25-.39-.01-.11,0-.23,0-.34,0-.43.23-.71.61-.86.36-.13.73-.24,1.09-.35.16-.05.29,0,.34.16.05.16-.03.27-.19.32-.32.1-.65.2-.97.3-.26.08-.41.24-.4.53,0,2.77,0,5.53,0,8.3,0,.05,0,.1.01.17.53-.16,1.05-.33,1.58-.48,1-.28,2.02-.43,3.06-.3.62.08,1.21.26,1.77.54.08.04.15.08.27.13v-.31c0-2.74,0-5.48,0-8.22,0-.21-.07-.33-.25-.43-1.08-.6-2.23-.78-3.45-.59-.2.03-.4.09-.59.08-.11,0-.27-.09-.32-.18-.07-.15.06-.28.2-.3.65-.06,1.3-.16,1.95-.15.92.02,1.78.31,2.58.78.07.04.22,0,.3-.04.97-.56,2.01-.81,3.11-.77,1.23.05,2.41.39,3.56.81.35.13.55.42.56.81,0,.05.01.11,0,.16-.05.33.04.52.4.65.43.15.59.54.59.99,0,2.25,0,4.5,0,6.75,0,.84,0,1.68,0,2.52,0,.76-.64,1.23-1.35,1-.47-.15-.94-.31-1.42-.46-.17-.05-.33-.13-.26-.35.07-.22.24-.18.41-.13.46.15.93.3,1.39.45.43.14.74-.07.74-.53,0-3.09,0-6.18,0-9.27,0-.32-.15-.49-.5-.58"/>
      <path class="cls-1" d="M9.58,14.08c.18-.18.39-.38.57-.56-.18-.18-.39-.39-.56-.57-.19.19-.4.4-.57.57.18.18.38.38.56.56M10.94,13.51c-.12.14-.2.29-.31.34-.32.16-.54.38-.7.7-.16.33-.53.33-.69,0-.16-.32-.38-.54-.7-.7-.32-.16-.32-.54,0-.7.32-.16.54-.38.7-.7.16-.33.53-.33.69,0,.16.32.38.54.7.7.11.06.18.2.31.35"/>
      <path class="cls-1" d="M13.17,4.17c-.19.19-.39.39-.57.56.18.18.39.38.57.56.18-.18.38-.38.57-.56-.18-.18-.38-.38-.57-.56M13.17,6.07c-.14-.12-.3-.18-.35-.3-.15-.33-.38-.54-.7-.7-.33-.16-.32-.53,0-.7.31-.16.53-.36.68-.68.16-.33.55-.34.72,0,.16.31.37.52.68.68.33.17.33.53.01.7-.32.16-.55.37-.7.7-.05.11-.21.18-.35.3"/>
      <path class="cls-1" d="M12.1,8.38c0,.27-.18.34-.41.28-.39-.11-.78-.26-1.18-.31-1.01-.12-1.97.15-2.92.45-.18.06-.42.19-.51-.1-.09-.28.17-.31.36-.37.9-.28,1.81-.52,2.76-.51.57,0,1.13.12,1.65.36.11.05.19.15.25.2"/>
      <path class="cls-1" d="M11.89,9.91c-.19-.08-.34-.14-.48-.19-.89-.31-1.79-.25-2.68-.04-.43.1-.86.23-1.28.35-.17.05-.3.03-.36-.14-.06-.18.04-.28.21-.33,1.02-.31,2.04-.63,3.12-.53.5.05,1,.22,1.49.37.09.02.17.19.18.29,0,.07-.12.15-.19.22"/>
      <path class="cls-1" d="M10.06,10.21c.65,0,1.25.1,1.82.36.16.07.28.17.19.36-.08.17-.22.17-.38.1-1.01-.45-2.04-.39-3.08-.14-.38.09-.75.23-1.13.31-.12.03-.32-.01-.38-.1-.1-.13-.03-.29.15-.34.93-.29,1.86-.56,2.8-.55"/>
      <path class="cls-1" d="M16.2,9.77c.19.19.39.39.56.57.18-.18.38-.39.56-.57-.18-.19-.39-.39-.56-.57-.18.18-.39.39-.56.57M18.13,9.77c-.15.16-.24.31-.37.37-.29.14-.48.34-.63.62-.06.12-.24.25-.37.25-.13,0-.31-.13-.37-.25-.14-.29-.35-.48-.63-.62-.38-.2-.38-.55,0-.75.28-.14.48-.34.63-.62.06-.12.24-.26.37-.26s.31.13.37.26c.14.29.35.48.63.62.13.07.22.21.37.37"/>
      <path class="cls-1" d="M16.2,12.6c-.51-.03-1.03.08-1.53.31-.16.07-.31.1-.4-.09-.1-.2.04-.3.21-.38.82-.35,1.67-.46,2.54-.3.67.12,1.32.31,1.98.47.19.05.35.15.26.37-.08.2-.25.15-.42.1-.84-.25-1.69-.51-2.63-.49"/>
      <path class="cls-1" d="M16.27,13.28c.97,0,1.89.26,2.81.55.16.05.24.16.18.32-.06.17-.18.19-.36.14-.61-.16-1.23-.33-1.85-.45-.81-.16-1.61-.08-2.38.25-.15.07-.32.11-.4-.09-.09-.2.04-.3.21-.37.57-.25,1.16-.36,1.78-.36"/>
      <path class="cls-1" d="M16.17,14.47c1.05,0,1.96.26,2.86.54.18.06.28.15.22.34-.06.19-.23.17-.37.13-.48-.12-.95-.28-1.44-.39-.94-.21-1.87-.21-2.77.18-.15.07-.32.11-.4-.09-.09-.21.05-.3.22-.37.57-.25,1.16-.36,1.69-.35"/>
      <path class="cls-1" d="M13.17,26.34C5.91,26.34,0,20.43,0,13.17S5.91,0,13.17,0s13.17,5.91,13.17,13.17-5.91,13.17-13.17,13.17ZM13.17,1.04C6.48,1.04,1.04,6.48,1.04,13.17s5.44,12.13,12.13,12.13,12.13-5.44,12.13-12.13S19.86,1.04,13.17,1.04Z"/>
    </g>
  </g>
</svg>