<?xml version="1.0" encoding="UTF-8"?>
<svg id="_圖層_2" data-name="圖層 2" xmlns="http://www.w3.org/2000/svg" xmlns:xlink="http://www.w3.org/1999/xlink" viewBox="0 0 100 100">
  <defs>
    <style>
      .cls-1 {
        clip-path: url(#clippath);
      }

      .cls-2 {
        fill: none;
      }

      .cls-2, .cls-3 {
        stroke-width: 0px;
      }

      .cls-3 {
        fill: #5cce60;
      }
    </style>
    <clipPath id="clippath">
      <rect class="cls-2" x="19.57" y="25" width="60.85" height="50"/>
    </clipPath>
  </defs>
  <g id="_圖層_2-2" data-name="圖層 2">
    <g>
      <rect class="cls-2" width="100" height="100"/>
      <g class="cls-1">
        <g>
          <path class="cls-3" d="m48.65,51.55c7.32,0,13.28-5.96,13.28-13.28s-5.96-13.28-13.28-13.28-13.28,5.96-13.28,13.28,5.96,13.28,13.28,13.28Zm0-21.82c4.71,0,8.55,3.83,8.55,8.55s-3.83,8.55-8.55,8.55-8.55-3.83-8.55-8.55,3.83-8.55,8.55-8.55Z"/>
          <path class="cls-3" d="m55.57,36.22l-3.34-3.34-4.87,4.87-1.97-1.98-3.35,3.35,5.32,5.32,8.21-8.22Z"/>
          <path class="cls-3" d="m72.74,59.99h-1.09c-.47-3.69-3.63-6.56-7.44-6.56-3.17,0-5.89,1.98-6.99,4.77l-1.62-1.62c-.87-.87-2.05-1.36-3.29-1.36h-7.16c-1.23,0-2.42.49-3.29,1.36l-2.25,2.25c-.91-3.11-3.79-5.4-7.2-5.4-3.92,0-7.15,3.02-7.48,6.87-3.18.95-5.49,3.96-5.36,7.47.15,4.07,3.63,7.22,7.7,7.22h13.87c4.23,0,7.66-3.53,7.5-7.79-.11-2.88-1.89-5.3-4.36-6.46l3.96-3.96c.13-.13.31-.2.49-.2s.35.07.49.2l4.9,4.9c-1.75,1.43-2.85,3.64-2.76,6.09.15,4.07,3.63,7.22,7.7,7.22h13.87c4.23,0,7.66-3.53,7.5-7.79-.15-4.06-3.62-7.22-7.68-7.22h0Zm-28.74,7.88c-.18,1.45-1.49,2.5-2.96,2.5h-14.24c-1.39,0-2.58-1.11-2.57-2.5,0-1.96,1.12-2.74,2-3.05.88-.31,1.66-.86,2.32-1.51l.03-.03c.62-.62.96-1.46.96-2.33,0-1.8,1.65-3.21,3.52-2.81,1.34.29,2.25,1.54,2.25,2.91,0,.81.32,1.59.89,2.16l.45.45c.62.62,1.46.96,2.33.96h2.16c1.71,0,3.08,1.5,2.86,3.26Zm31.78,0c-.18,1.45-1.49,2.5-2.96,2.5h-14.24c-1.39,0-2.58-1.11-2.57-2.5,0-1.96,1.12-2.74,2-3.05.88-.31,1.66-.86,2.32-1.51l.03-.03c.62-.62.96-1.46.96-2.33,0-1.8,1.65-3.21,3.52-2.81,1.34.29,2.25,1.54,2.25,2.91,0,.81.32,1.59.89,2.16l.45.45c.62.62,1.46.96,2.33.96h2.16c1.71,0,3.08,1.5,2.86,3.26Z"/>
        </g>
      </g>
    </g>
  </g>
</svg>