<?xml version="1.0" encoding="UTF-8"?>
<svg id="_圖層_2" data-name="圖層 2" xmlns="http://www.w3.org/2000/svg" xmlns:xlink="http://www.w3.org/1999/xlink" viewBox="0 0 100 100">
  <defs>
    <style>
      .cls-1 {
        clip-path: url(#clippath);
      }

      .cls-2 {
        fill: none;
      }

      .cls-2, .cls-3 {
        stroke-width: 0px;
      }

      .cls-3 {
        fill: #5cce60;
      }
    </style>
    <clipPath id="clippath">
      <rect class="cls-2" x="25" y="25" width="50" height="50"/>
    </clipPath>
  </defs>
  <g id="_圖層_2-2" data-name="圖層 2">
    <g>
      <rect class="cls-2" width="100" height="100"/>
      <g class="cls-1">
        <path class="cls-3" d="m75,36.67v4.65h-5.53l-.05-9.91c0-.23-.09-.44-.24-.58s-.36-.24-.58-.24l-38.03-.03.03,38.03c0,.23.09.44.24.58s.36.24.58.24h11.9v5.59h-6.64c-1.48,0-2.9-.59-3.95-1.64l-6.09-6.08c-1.05-1.05-1.64-2.47-1.64-3.95V25h38.89v.03c1.28.13,2.48.69,3.39,1.61l6.09,6.08c1.05,1.05,1.64,2.47,1.64,3.95h0Zm-11.11-.56h-27.78v5.55h27.78v-5.55Zm-13.89,11.11h-13.89v5.55h13.89v-5.55Zm13.89,3.21v-5.22l-7.48,7.71,7.48,7.71v-5.28c3.36.65,5.9,3.61,5.9,7.16,0,4.02-3.27,7.29-7.29,7.29s-7.29-3.27-7.29-7.29h-4.86c0,6.7,5.45,12.15,12.15,12.15s12.15-5.45,12.15-12.15c0-6.23-4.72-11.38-10.76-12.07Z"/>
      </g>
    </g>
  </g>
</svg>