<?xml version="1.0" encoding="UTF-8"?>
<svg id="_圖層_2" data-name="圖層 2" xmlns="http://www.w3.org/2000/svg" viewBox="0 0 100 100">
  <defs>
    <style>
      .cls-1 {
        fill: none;
      }

      .cls-1, .cls-2 {
        stroke-width: 0px;
      }

      .cls-2 {
        fill: #5cce60;
      }
    </style>
  </defs>
  <g id="_圖層_2-2" data-name="圖層 2">
    <g>
      <rect class="cls-1" width="100" height="100"/>
      <path class="cls-2" d="m46.19,57.86l3.58,3.58-10.79-.19-.14-10.79,3.4,3.44,11.58-11.53-3.58-3.58,10.79.19.14,10.79-3.4-3.44-11.58,11.53Zm27.91-26.33v24.14c0,6.42-10.37,16.23-10.37,16.23l-4.79,4.47c-1.12,1.07-2.7,1.63-4.28,1.63h-9.3c-1.63,0-3.16-.6-4.28-1.63l-3.58-3.3s-11.58-10.98-11.58-17.4v-24.14l24.09-9.53,24.09,9.53Zm-5.53,3.67l-18.56-7.16-18.51,7.16v20.47c0,.6.32,2.88,4.7,8,1.62,1.88,3.35,3.66,5.16,5.35l2.74,2.65,5.3,4.47c.19.14.42.23.65.23s.47-.09.65-.23l9.63-8.42c3.53-3.35,8.28-9.07,8.28-12.05v-20.46h-.05Z"/>
    </g>
  </g>
</svg>