<?xml version="1.0" encoding="utf-8"?>
<!-- Generator: Adobe Illustrator 27.4.1, SVG Export Plug-In . SVG Version: 6.00 Build 0)  -->
<svg version="1.1" id="圖層_1" xmlns:v="https://vecta.io/nano"
	 xmlns="http://www.w3.org/2000/svg" xmlns:xlink="http://www.w3.org/1999/xlink" x="0px" y="0px" viewBox="0 0 220 220"
	 style="enable-background:new 0 0 220 220;" xml:space="preserve">
<style type="text/css">
	.st0{fill:url(#SVGID_1_);}
	.st1{clip-path:url(#SVGID_00000136407422331568811450000008976314086080324487_);}
	.st2{fill:none;stroke:#FFFFFF;stroke-width:3;stroke-linecap:round;stroke-linejoin:round;}
	.st3{fill:none;stroke:#FFFFFF;stroke-width:3;stroke-linejoin:round;}
	.st4{fill:none;stroke:url(#SVGID_00000094595564281005858610000016734048751350784959_);stroke-width:13;}
</style>
<g>
	
		<linearGradient id="SVGID_1_" gradientUnits="userSpaceOnUse" x1="49.4635" y1="184.2532" x2="173.4635" y2="36.2532" gradientTransform="matrix(1 0 0 -1 0 222)">
		<stop  offset="0" style="stop-color:#6537EA"/>
		<stop  offset="1" style="stop-color:#764DEC"/>
	</linearGradient>
	<path class="st0" d="M110,15L110,15c52.5,0,95,42.5,95,95l0,0c0,52.5-42.5,95-95,95l0,0c-52.5,0-95-42.5-95-95l0,0
		C15,57.5,57.5,15,110,15z"/>
	<g>
		<defs>
			<rect id="SVGID_00000181051976536404154710000011536366788727817653_" x="64" y="69.5" width="92" height="80.9"/>
		</defs>
		<clipPath id="SVGID_00000013886831516979314800000001926417841685662382_">
			<use xlink:href="#SVGID_00000181051976536404154710000011536366788727817653_"  style="overflow:visible;"/>
		</clipPath>
		<g style="clip-path:url(#SVGID_00000013886831516979314800000001926417841685662382_);">
			<path class="st2" d="M94,139.1l9.1-10.5"/>
			<path class="st2" d="M126,139.1l-9.8-10.5"/>
			<path class="st2" d="M102.4,113.5l6.4,7.2l15.1-13.4"/>
			<path class="st2" d="M122,118.4c-1.2,6.1-6.6,10.5-12.8,10.5c-7.2,0-13.1-5.9-13.1-13.1c0-7.2,5.9-13.1,13.1-13.1
				c2.9,0,5.7,0.9,7.9,2.7"/>
			<path class="st2" d="M110,102.7v-9.5"/>
			<path class="st3" d="M119.8,92.3c0.9,0,1.8-0.2,2.6-0.5s1.6-0.8,2.2-1.5c0.6-0.6,1.1-1.4,1.5-2.2s0.5-1.7,0.5-2.6
				s-0.2-1.8-0.5-2.6s-0.9-1.6-1.5-2.2s-1.4-1.1-2.2-1.5s-1.7-0.5-2.6-0.5c-0.3,0-0.6,0-0.9,0.1c0.1-0.4,0.1-0.8,0.1-1.2
				c0-1.6-0.7-3.2-1.8-4.4c-1.1-1.2-2.7-1.9-4.3-2c-1.6-0.1-3.3,0.4-4.5,1.4c-1.3,1-2.2,2.5-2.4,4.1c-1-0.8-2.3-1.2-3.6-1.1
				s-2.5,0.7-3.3,1.7c-0.6,0.7-1,1.6-1.1,2.6c-0.1,1,0.1,1.9,0.5,2.8h-0.1c-0.6,0-1.3,0.1-1.9,0.3s-1.1,0.6-1.6,1s-0.8,1-1.1,1.6
				s-0.4,1.2-0.4,1.9c0,0.6,0.1,1.3,0.3,1.9s0.6,1.1,1,1.6s1,0.8,1.6,1.1c0.6,0.2,1.2,0.4,1.9,0.4L119.8,92.3L119.8,92.3L119.8,92.3
				z"/>
			<path class="st3" d="M147.5,148.8c0.9,0,1.8-0.2,2.6-0.5s1.6-0.8,2.2-1.5c0.6-0.6,1.1-1.4,1.5-2.2s0.5-1.7,0.5-2.6
				c0-0.9-0.2-1.8-0.5-2.6c-0.3-0.8-0.9-1.6-1.5-2.2s-1.4-1.1-2.2-1.5c-0.8-0.3-1.7-0.5-2.6-0.5c-0.3,0-0.6,0-0.9,0.1
				c0.1-0.4,0.1-0.8,0.1-1.2c0-1.6-0.7-3.2-1.8-4.4c-1.1-1.2-2.7-1.9-4.3-2c-1.6-0.1-3.3,0.4-4.5,1.4s-2.2,2.5-2.4,4.1
				c-1-0.8-2.3-1.2-3.6-1.1s-2.5,0.7-3.3,1.7c-0.6,0.7-1,1.6-1.1,2.6c-0.1,1,0.1,1.9,0.5,2.8H126c-0.6,0-1.3,0.1-1.9,0.3
				c-0.6,0.2-1.1,0.6-1.6,1c-0.5,0.4-0.8,1-1.1,1.6s-0.4,1.2-0.4,1.9c0,0.6,0.1,1.3,0.3,1.9s0.6,1.1,1,1.6c0.4,0.5,1,0.8,1.6,1.1
				c0.6,0.3,1.2,0.4,1.9,0.4L147.5,148.8L147.5,148.8L147.5,148.8z"/>
			<path class="st3" d="M94.2,148.8c0.6,0,1.3-0.2,1.9-0.4c0.6-0.3,1.1-0.6,1.6-1.1c0.4-0.5,0.8-1,1-1.6s0.3-1.2,0.3-1.9
				s-0.2-1.3-0.4-1.9c-0.3-0.6-0.6-1.1-1.1-1.6c-0.5-0.4-1-0.8-1.6-1c-0.6-0.2-1.2-0.3-1.9-0.3h-0.1c0.5-0.8,0.7-1.8,0.5-2.8
				c-0.1-1-0.5-1.9-1.1-2.6c-0.8-1-2-1.6-3.3-1.7c-1.3-0.1-2.6,0.3-3.6,1.1c-0.3-1.6-1.2-3.1-2.4-4.1s-2.9-1.5-4.5-1.4
				c-1.6,0.1-3.2,0.9-4.3,2c-1.1,1.2-1.8,2.8-1.8,4.4c0,0.4,0.1,0.8,0.1,1.2c-0.3-0.1-0.6-0.1-0.9-0.1c-0.9,0-1.8,0.2-2.6,0.5
				s-1.6,0.8-2.2,1.5c-0.6,0.6-1.1,1.4-1.5,2.2c-0.4,0.8-0.5,1.7-0.5,2.6c0,0.9,0.2,1.8,0.5,2.6s0.9,1.6,1.5,2.2s1.4,1.1,2.2,1.5
				c0.8,0.3,1.7,0.5,2.6,0.5L94.2,148.8L94.2,148.8L94.2,148.8z"/>
		</g>
	</g>
	
		<linearGradient id="SVGID_00000085955115149185941550000013599645986016166328_" gradientUnits="userSpaceOnUse" x1="110" y1="207" x2="110" y2="17" gradientTransform="matrix(1 0 0 -1 0 222)">
		<stop  offset="0" style="stop-color:#E9E9E9"/>
		<stop  offset="1" style="stop-color:#FFFFFF"/>
	</linearGradient>
	<path style="fill:none;stroke:url(#SVGID_00000085955115149185941550000013599645986016166328_);stroke-width:13;" d="M110,8.5
		L110,8.5c56.1,0,101.5,45.4,101.5,101.5l0,0c0,56.1-45.4,101.5-101.5,101.5l0,0C53.9,211.5,8.5,166.1,8.5,110l0,0
		C8.5,53.9,53.9,8.5,110,8.5z"/>
</g>
</svg>
