<?xml version="1.0" encoding="utf-8"?>
<!-- Generator: Adobe Illustrator 27.4.1, SVG Export Plug-In . SVG Version: 6.00 Build 0)  -->
<svg version="1.1" id="圖層_1" xmlns:v="https://vecta.io/nano"
	 xmlns="http://www.w3.org/2000/svg" xmlns:xlink="http://www.w3.org/1999/xlink" x="0px" y="0px" viewBox="0 0 220 220"
	 style="enable-background:new 0 0 220 220;" xml:space="preserve">
<style type="text/css">
	.st0{fill:#35B746;}
	.st1{fill:none;stroke:#FFFFFF;stroke-width:3;stroke-linecap:round;stroke-linejoin:round;stroke-miterlimit:10;}
	.st2{fill:none;stroke:url(#SVGID_1_);stroke-width:13;}
</style>
<g>
	<path class="st0" d="M110,15L110,15c52.5,0,95,42.5,95,95l0,0c0,52.5-42.5,95-95,95l0,0c-52.5,0-95-42.5-95-95l0,0
		C15,57.5,57.5,15,110,15z"/>
	<path class="st1" d="M94.1,112c-0.3-1.4-0.5-2.8-0.5-4.3c0-9.8,7.9-17.7,17.7-17.7c9.8,0,17.7,7.9,17.7,17.7
		c0,9.6-7.7,17.5-17.3,17.7 M87.2,107.3l7.1,6l5.7-6.7 M70.1,75.2l41-8.2l38.7,8.2v32.3c0,22-22.6,42.7-39.9,45.2
		c-17.3-2.5-39.9-23.2-39.9-45.2V75.2z"/>
	
		<linearGradient id="SVGID_1_" gradientUnits="userSpaceOnUse" x1="110" y1="11" x2="110" y2="220.5" gradientTransform="matrix(1 0 0 -1 0 222)">
		<stop  offset="0" style="stop-color:#FFFFFF"/>
		<stop  offset="1" style="stop-color:#E9E9E9"/>
	</linearGradient>
	<path class="st2" d="M110,8.5L110,8.5c56.1,0,101.5,45.4,101.5,101.5l0,0c0,56.1-45.4,101.5-101.5,101.5l0,0
		C53.9,211.5,8.5,166.1,8.5,110l0,0C8.5,53.9,53.9,8.5,110,8.5z"/>
</g>
</svg>
