<svg width="67" height="71" viewBox="0 0 67 71" fill="none" xmlns="http://www.w3.org/2000/svg">
<path d="M61.7501 39.4H35.5801C34.3374 39.4 33.3301 40.4074 33.3301 41.65V67.82C33.3301 69.0626 34.3374 70.07 35.5801 70.07H61.7501C62.9927 70.07 64.0001 69.0626 64.0001 67.82V41.65C64.0001 40.4074 62.9927 39.4 61.7501 39.4Z" fill="white"/>
<path d="M29.2498 37.57C29.2498 36.33 30.2598 35.32 31.4998 35.32H65.8298C65.9298 35.32 66.0298 35.34 66.1298 35.35V3.53003C63.1598 1.46003 59.5497 0.22998 55.6597 0.22998C46.1197 0.22998 38.2897 7.52001 37.4097 16.82C34.9697 14.69 31.7897 13.39 28.2897 13.39C20.6197 13.39 14.3998 19.61 14.3998 27.28C14.3998 29.6 14.9797 31.79 15.9797 33.71C15.4597 33.65 14.9298 33.61 14.3998 33.61C6.72978 33.61 0.509766 39.83 0.509766 47.5C0.509766 55.17 6.72978 61.39 14.3998 61.39H29.2397V37.56L29.2498 37.57Z" fill="white"/>
</svg>
