<?xml version="1.0" encoding="utf-8"?>
<!-- Generator: Adobe Illustrator 27.4.1, SVG Export Plug-In . SVG Version: 6.00 Build 0)  -->
<svg version="1.1" id="圖層_1" xmlns:v="https://vecta.io/nano"
	 xmlns="http://www.w3.org/2000/svg" xmlns:xlink="http://www.w3.org/1999/xlink" x="0px" y="0px" viewBox="0 0 220 220"
	 style="enable-background:new 0 0 220 220;" xml:space="preserve">
<style type="text/css">
	.st0{fill:url(#SVGID_1_);}
	.st1{fill:none;stroke:#FFFFFF;stroke-width:3;stroke-linecap:round;stroke-linejoin:round;stroke-miterlimit:10;}
	.st2{fill:none;stroke:url(#SVGID_00000039821505790216344120000007174201945715015611_);stroke-width:13;}
</style>
<g>
	
		<linearGradient id="SVGID_1_" gradientUnits="userSpaceOnUse" x1="45.8463" y1="184.3002" x2="171.9525" y2="42.1805" gradientTransform="matrix(1 0 0 -1 0 222)">
		<stop  offset="0" style="stop-color:#2285F5"/>
		<stop  offset="1" style="stop-color:#2AA8FC"/>
	</linearGradient>
	<path class="st0" d="M110,15L110,15c52.5,0,95,42.5,95,95l0,0c0,52.5-42.5,95-95,95l0,0c-52.5,0-95-42.5-95-95l0,0
		C15,57.5,57.5,15,110,15z"/>
	<path class="st1" d="M103.9,146.8H83.9c-6,0-10.7-4.8-10.7-10.7V83.9c0-6,4.8-10.7,10.7-10.7h52.1c6,0,10.7,4.8,10.7,10.7v15.3
		 M86.2,91.6h5.8 M92.5,99.3h5.8 M86.4,106.9h6 M96.4,91.6h1.2 M86.2,99.3h1.2 M103.3,99.3h1.2 M96.4,106.9h1.2 M120,102.9
		c1.7-0.5,3.5-0.6,5.4-0.6c12.3,0,22.2,10,22.2,22.2s-9.8,22.2-22.1,22.2c-12.1,0-21.9-9.7-22.2-21.8 M125.9,94.2l-7.5,8.9l8.4,7.2"
		/>
	
		<linearGradient id="SVGID_00000041273879011414460760000009401046318535404184_" gradientUnits="userSpaceOnUse" x1="110" y1="207" x2="110" y2="17" gradientTransform="matrix(1 0 0 -1 0 222)">
		<stop  offset="0" style="stop-color:#E9E9E9"/>
		<stop  offset="1" style="stop-color:#FFFFFF"/>
	</linearGradient>
	<path style="fill:none;stroke:url(#SVGID_00000041273879011414460760000009401046318535404184_);stroke-width:13;" d="M110,8.5
		L110,8.5c56.1,0,101.5,45.4,101.5,101.5l0,0c0,56.1-45.4,101.5-101.5,101.5l0,0C53.9,211.5,8.5,166.1,8.5,110l0,0
		C8.5,53.9,53.9,8.5,110,8.5z"/>
</g>
</svg>
