<svg width="56" height="67" viewBox="0 0 56 67" fill="none" xmlns="http://www.w3.org/2000/svg">
<path d="M26.2003 36.57H5.69035C3.02282 36.57 0.860352 38.7325 0.860352 41.4V61.91C0.860352 64.5775 3.02282 66.74 5.69035 66.74H26.2003C28.8679 66.74 31.0303 64.5775 31.0303 61.91V41.4C31.0303 38.7325 28.8679 36.57 26.2003 36.57Z" fill="white"/>
<path d="M26.2003 0.570007H5.69035C3.02282 0.570007 0.860352 2.73249 0.860352 5.40002V25.91C0.860352 28.5775 3.02282 30.74 5.69035 30.74H26.2003C28.8679 30.74 31.0303 28.5775 31.0303 25.91V5.40002C31.0303 2.73249 28.8679 0.570007 26.2003 0.570007Z" fill="white"/>
<path d="M55.2804 0.570007H41.6904C39.0204 0.570007 36.8604 2.73002 36.8604 5.40002V25.9C36.8604 28.57 39.0204 30.73 41.6904 30.73H55.2804V0.559998V0.570007Z" fill="white"/>
<path d="M55.2804 36.57H41.6904C39.0204 36.57 36.8604 38.73 36.8604 41.4V61.9C36.8604 64.57 39.0204 66.73 41.6904 66.73H55.2804V36.56V36.57Z" fill="white"/>
</svg>
