<svg width="21" height="20" viewBox="0 0 21 20" fill="none" xmlns="http://www.w3.org/2000/svg">
<path d="M7.79978 10.2C7.89978 10.2 7.89979 10.1 7.99979 10.1C8.09979 9.90004 8.09979 9.70004 7.99979 9.60004L6.29978 8.10004C5.79978 8.90004 5.59981 9.90002 5.69981 10.9L7.79978 10.2Z" fill="#606060"/>
<path d="M9.00037 8.60004C9.20037 8.60004 9.40039 8.40001 9.40039 8.20001L9.50037 5.90002C9.30037 5.90002 9.20037 5.9 9.00037 6C8.20037 6.2 7.50039 6.60001 6.90039 7.20001L8.70038 8.5C8.90038 8.6 9.00037 8.60004 9.00037 8.60004Z" fill="#606060"/>
<path d="M9.50037 10.9L10.1003 11.2L10.7004 10.9L10.9004 10.2L10.5004 9.70001H9.80035L9.40039 10.2L9.50037 10.9Z" fill="#606060"/>
<path d="M8.20038 11.5L5.90039 11.9C6.20039 12.8 6.90038 13.6 7.70038 14.1L8.60034 12V11.9C8.60034 11.7 8.40038 11.5 8.20038 11.5Z" fill="#606060"/>
<path d="M10.8 8.5C10.9 8.7 11.2 8.70004 11.3 8.60004L13.1 7.29999C12.4 6.59999 11.5 6.20004 10.5 6.10004L10.6 8.40002C10.8 8.30002 10.8 8.4 10.8 8.5Z" fill="#606060"/>
<path d="M13.8999 8.10004L12.1999 9.60004C12.0999 9.60004 12.0998 9.69999 12.0998 9.79999C11.9998 9.99999 12.1999 10.2 12.3999 10.3L14.5998 10.9C14.5998 9.90002 14.3999 8.90004 13.8999 8.10004Z" fill="#606060"/>
<path d="M20.0995 11.9L18.4996 4.90005C18.3996 4.30005 17.9996 3.80002 17.3996 3.50002L10.9996 0.400049C10.3996 0.100049 9.79958 0.100049 9.19958 0.400049L2.79955 3.50002C2.19955 3.80002 1.79958 4.30005 1.69958 4.90005L0.0995411 11.9C-0.000458896 12.5 0.0995655 13.1001 0.499566 13.6001L4.89959 19.2C5.29959 19.7 5.89957 20 6.49957 20H13.5995C14.1995 20 14.7996 19.7 15.1996 19.2L19.5995 13.6001C20.0995 13.1001 20.1995 12.5 20.0995 11.9ZM17.5995 12.2C17.4995 12.4 17.2995 12.5 17.0995 12.5H16.9996C16.8996 12.5 16.6995 12.4 16.5995 12.3C16.3995 12.2 16.0996 12.1001 15.7996 12.1001C15.6996 12.1001 15.5995 12.1 15.5995 12.2H15.3996C14.9996 13.5 14.0996 14.6 12.8996 15.3C12.8996 15.4 12.8996 15.4 12.9996 15.5C12.9996 15.6 12.8996 15.7 12.9996 15.8C13.0996 16 13.1996 16.3 13.3996 16.5C13.4996 16.6 13.5995 16.7 13.5995 16.8L13.6996 16.9C13.7996 17 13.7996 17.2 13.6996 17.4C13.5996 17.5 13.5996 17.5001 13.4996 17.6001C13.2996 17.7001 12.9996 17.6 12.8996 17.3L12.7996 17.2C12.6996 17.1 12.6996 16.9 12.6996 16.8C12.5996 16.6 12.4996 16.3001 12.3996 16.1001C12.2996 16.0001 12.2996 16 12.1996 16L12.0995 15.8C10.7995 16.3 9.39954 16.3 8.09954 15.8L7.99957 16C7.89957 16 7.89955 16.0001 7.79955 16.1001C7.59955 16.3001 7.59957 16.6 7.49957 16.9C7.49957 17 7.39959 17.2 7.39959 17.3L7.29955 17.4C7.19955 17.6 7.09959 17.7 6.89959 17.7C6.79959 17.7 6.69954 17.7001 6.59954 17.6001C6.39954 17.5001 6.29959 17.2 6.39959 17L6.49957 16.9C6.59957 16.8 6.59958 16.7001 6.69958 16.6001C6.89958 16.4001 6.99954 16.1 7.09954 15.9C7.09954 15.8 7.09954 15.7 7.09954 15.7L7.19958 15.5C5.99958 14.8 5.09958 13.7 4.69958 12.4H4.49957C4.39957 12.3 4.29955 12.3 4.29955 12.3C3.99955 12.3 3.79957 12.4 3.49957 12.5C3.39957 12.6 3.19954 12.6001 3.09954 12.6001H2.99957C2.79957 12.7001 2.69954 12.6 2.59954 12.5C2.49954 12.4 2.49957 12.3 2.49957 12.3C2.49957 12.1 2.59959 11.8 2.89959 11.8H2.99957C3.09957 11.8 3.29959 11.8 3.39959 11.8C3.69959 11.8 3.89958 11.7 4.19958 11.7C4.29958 11.7 4.29959 11.6 4.39959 11.5L4.59954 11.4C4.39954 10 4.69957 8.70002 5.49957 7.50002L5.39959 7.40005C5.39959 7.30005 5.39955 7.20004 5.29955 7.20004C5.09955 7.00004 4.89958 6.90001 4.69958 6.80001C4.59958 6.70001 4.49955 6.70006 4.29955 6.60006L4.19958 6.50002C3.99958 6.40002 3.89954 6.10005 4.09954 5.90005C4.19954 5.80005 4.29959 5.70004 4.39959 5.70004C4.49959 5.70004 4.59958 5.70001 4.69958 5.80001L4.79955 5.90005C4.89955 6.00005 4.99954 6.10004 5.09954 6.20004C5.29954 6.40004 5.49958 6.60004 5.69958 6.70004C5.79958 6.70004 5.89957 6.80004 5.99957 6.70004L6.19958 6.80001C6.99958 6.00001 7.89957 5.40004 8.99957 5.20004C9.29957 5.10004 9.49955 5.10006 9.79955 5.10006V4.90005C9.89955 4.80005 9.89959 4.80004 9.89959 4.70004C9.89959 4.40004 9.89959 4.20005 9.89959 3.90005C9.89959 3.80005 9.89955 3.60002 9.79955 3.50002V3.40005C9.79955 3.20005 9.99958 2.90005 10.1996 2.90005C10.3996 2.90005 10.5995 3.10005 10.5995 3.40005V3.50002C10.5995 3.60002 10.5996 3.80005 10.4996 3.90005C10.4996 4.20005 10.3996 4.40004 10.3996 4.70004C10.3996 4.80004 10.4996 4.90005 10.4996 4.90005C10.4996 4.90005 10.4996 5.00006 10.4996 5.10006C11.8996 5.20006 13.0995 5.80001 14.0995 6.80001L14.2996 6.70004C14.3996 6.70004 14.4995 6.70004 14.5995 6.70004C14.7995 6.50004 14.9996 6.40004 15.1996 6.20004C15.2996 6.10004 15.3996 6.00005 15.4996 5.90005L15.5995 5.80001C15.6995 5.70001 15.8995 5.60004 16.0995 5.70004C16.1995 5.70004 16.2996 5.80005 16.2996 5.90005C16.3996 6.10005 16.3996 6.40002 16.1996 6.50002L16.0995 6.60006C15.9995 6.70006 15.8996 6.70001 15.6996 6.80001C15.4996 6.90001 15.2995 7.10001 15.0995 7.30001C14.9995 7.40001 14.9996 7.50002 14.9996 7.50002L14.7996 7.60006C15.5996 8.70006 15.8996 10.1 15.6996 11.5L15.8996 11.6001C15.8996 11.7001 15.9995 11.7 16.0995 11.8C16.3995 11.9 16.5996 11.9 16.8996 11.9C16.9996 11.9 17.1996 11.9 17.2996 11.9H17.3996C17.5996 11.9 17.6996 12 17.7996 12.2C17.6996 12 17.6995 12.1 17.5995 12.2Z" fill="#606060"/>
<path d="M12.0003 11.5H11.9004C11.7004 11.6 11.6004 11.8 11.7004 12L12.6003 14.1C13.4003 13.6 14.1004 12.8 14.4004 11.8L12.0003 11.5Z" fill="#606060"/>
<path d="M10.4002 12.7C10.3002 12.6 10.2002 12.5 10.1002 12.5C10.0002 12.5 9.80017 12.6 9.80017 12.7L8.7002 14.7C9.5002 15 10.3002 15 11.1002 14.8C11.2002 14.8 11.4002 14.7 11.5002 14.7L10.4002 12.7Z" fill="#606060"/>
</svg>
