<svg width="22" height="17" viewBox="0 0 22 17" fill="none" xmlns="http://www.w3.org/2000/svg">
<path fill-rule="evenodd" clip-rule="evenodd" d="M14.6002 9.5C16.0002 9.5 18.1002 9.2 18.1002 7.5C18.1002 7.4 18.1002 7.20004 18.1002 7.10004L17.3002 3.40002C17.1002 2.60002 16.9002 2.2 15.5002 1.5C14.4002 0.9 12.0002 0 11.3002 0C10.6002 0 10.4002 0.900024 9.7002 0.900024C8.9002 0.900024 8.4002 0.299988 7.7002 0.299988C7.0002 0.299988 6.6002 0.800012 6.2002 1.70001C6.2002 1.70001 5.20016 4.39999 5.10016 4.79999C5.10016 4.89999 5.10016 4.9 5.10016 5C4.90016 6 9.10016 9.5 14.6002 9.5ZM18.3002 8.20001C18.5002 9.10001 18.5002 9.20002 18.5002 9.40002C18.5002 11 16.7002 11.9 14.4002 11.9C9.10021 11.9 4.40021 8.80001 4.40021 6.70001C4.40021 6.40001 4.50016 6.10002 4.60016 5.90002C2.70016 6.00002 0.200195 6.3 0.200195 8.5C0.200195 12.1 8.70021 16.5 15.4002 16.5C20.5002 16.5 21.8002 14.2 21.8002 12.3C21.8002 10.8 20.5002 9.10001 18.3002 8.20001Z" fill="#606060"/>
</svg>
