<svg width="18" height="21" viewBox="0 0 18 21" fill="none" xmlns="http://www.w3.org/2000/svg">
<path d="M16.2001 16.1C16.1001 16 16.0001 15.7 16.0001 15.4C15.9001 15.1 15.8001 14.7 15.5001 14.4C15.4001 14.3 15.4 14.3 15.3 14.3C15.6 13.4 15.5 12.3 15.1 11.3C14.7 10.4 14.1 9.40002 13.3 8.40002C12.7 7.60002 12.1 6.80001 12.1 5.70001V5.5C12.1 4.2 12.1 2.30001 11.1 1.20001C10.6 0.700012 9.90006 0.400024 9.00006 0.400024C8.90006 0.400024 8.70004 0.400024 8.60003 0.400024C5.50003 0.600024 5.70005 3.5 5.80005 5C5.80005 5.3 5.80005 5.59999 5.80005 5.79999C5.70005 6.59999 5.60006 7.40001 5.00006 8.20001C4.40006 9.00001 3.20007 10.4 2.70007 12C2.50007 12.7 2.40008 13.4 2.40008 14.1C2.30008 14.2 2.20003 14.4 2.10003 14.5C2.00003 14.6 1.90008 14.7 1.90008 14.8C1.80008 14.9 1.60008 15 1.40008 15H1.30005C1.00005 15.1 0.700059 15.3 0.500059 15.6C0.400059 15.8 0.400083 15.9 0.400083 16.1C0.400083 16.3 0.400083 16.4 0.400083 16.6C0.400083 16.9 0.500083 17.1 0.400083 17.3C0.200083 17.9 0.200047 18.3 0.300047 18.7C0.500047 19.1 0.900071 19.2 1.20007 19.3C1.40007 19.3 1.70008 19.4 1.90008 19.4C2.40008 19.5 3.00006 19.5 3.50006 19.8L3.60003 19.9C4.40003 20.3 5.10007 20.4 5.70007 20.2C6.20007 20.1 6.60005 19.8 6.80005 19.4C7.00005 19.4 7.20006 19.3 7.50006 19.3C7.80006 19.2 8.20003 19.2 8.60003 19.1C8.90003 19.1 9.20006 19.1 9.50006 19.2C9.80006 19.2 10.2 19.3 10.6 19.3C10.6 19.4 10.6001 19.4 10.7001 19.5C11.0001 20.1 11.6 20.5 12.3 20.5C12.3 20.5 12.4001 20.5 12.5001 20.5C13.2001 20.4 13.8001 20.1 14.4001 19.5L14.5001 19.4C14.9001 19 15.4001 18.7 15.9001 18.5C16.1001 18.4 16.3001 18.3 16.5001 18.2C16.8001 18 17.1 17.8 17.1 17.4C16.9 17 16.7001 16.6 16.2001 16.1ZM8.30005 4.5C8.30005 4.3 8.30008 4.09999 8.40008 3.79999C8.50008 3.59999 8.60005 3.39999 8.80005 3.29999C9.00005 3.19999 9.10005 3.10004 9.30005 3.10004C9.50005 3.10004 9.70005 3.19999 9.80005 3.29999C10 3.39999 10.1001 3.59999 10.2001 3.79999C10.3001 3.99999 10.3 4.20002 10.3 4.40002C10.3 4.60002 10.3001 4.80004 10.2001 5.10004C10.1001 5.20004 10.1001 5.30002 10.0001 5.40002C10.0001 5.40002 10.0001 5.40002 9.90008 5.40002C9.80008 5.40002 9.70007 5.29999 9.70007 5.29999C9.60007 5.29999 9.60006 5.30001 9.50006 5.20001H9.40008C9.40008 5.20001 9.40006 5.20004 9.50006 5.10004L9.60003 5C9.60003 4.9 9.70007 4.80001 9.70007 4.70001C9.70007 4.60001 9.70007 4.50002 9.70007 4.40002C9.70007 4.30002 9.60003 4.20001 9.60003 4.20001C9.50003 4.10001 9.50008 4.10004 9.40008 4.10004C9.30008 4.10004 9.30007 4.10001 9.20007 4.20001C9.10007 4.30001 9.10006 4.30002 9.00006 4.40002C9.00006 4.50002 8.90008 4.60001 8.90008 4.70001C8.90008 4.80001 8.90008 4.80002 8.90008 4.90002V5H8.80005C8.60005 4.9 8.40005 4.89999 8.30005 4.79999C8.30005 4.69999 8.30005 4.6 8.30005 4.5ZM8.00006 5C8.30006 5 8.60008 5.09999 8.90008 5.29999C9.10008 5.39999 9.20008 5.5 9.40008 5.5C9.50008 5.5 9.70005 5.60001 9.80005 5.70001C10 5.80001 10.1 5.90002 10.1 5.90002C10.1 6.00002 10.1 6.10001 10.1 6.20001C10 6.40001 9.70005 6.69999 9.30005 6.79999C9.10005 6.89999 9.00005 7 8.80005 7C8.70005 7 8.70004 7.10004 8.60003 7.10004C8.40003 7.20004 8.20005 7.29999 7.80005 7.29999C7.70005 7.29999 7.60006 7.30001 7.50006 7.20001C7.40006 7.20001 7.40005 7.10004 7.30005 7.10004C7.20005 7.10004 7.20003 7 7.10003 7C7.00003 6.9 6.90007 6.80001 6.70007 6.70001C6.40007 6.50001 6.30007 6.40001 6.20007 6.20001C6.20007 6.10001 6.20005 6.00002 6.30005 5.90002C6.50005 5.80002 6.60007 5.70004 6.70007 5.60004H6.80005C6.90005 5.60004 6.90008 5.5 6.90008 5.5C7.00008 5.4 7.20006 5.20004 7.50006 5.10004C7.80006 5.00004 7.90006 5 8.00006 5ZM6.20007 4C6.30007 3.8 6.30008 3.70004 6.40008 3.60004C6.50008 3.50004 6.60005 3.40002 6.80005 3.40002C6.90005 3.40002 7.10007 3.4 7.20007 3.5C7.30007 3.6 7.40006 3.70002 7.50006 3.90002C7.60006 4.10002 7.60003 4.3 7.60003 4.5C7.60003 4.6 7.60003 4.70001 7.60003 4.70001C7.60003 4.70001 7.60006 4.70001 7.50006 4.70001C7.40006 4.70001 7.30007 4.80002 7.20007 4.90002H7.10003V4.79999C7.10003 4.69999 7.10003 4.70004 7.10003 4.60004C7.10003 4.50004 7.10006 4.39999 7.00006 4.29999C6.90006 4.19999 6.90008 4.20004 6.90008 4.10004L6.80005 4C6.80005 4 6.70007 4.00004 6.70007 4.10004C6.70007 4.20004 6.60003 4.19999 6.60003 4.29999C6.60003 4.39999 6.60003 4.50004 6.60003 4.60004C6.60003 4.70004 6.60007 4.80002 6.70007 4.90002C6.70007 5.00002 6.80005 5.00004 6.80005 5.10004L6.70007 5.20001C6.70007 5.20001 6.60003 5.19999 6.60003 5.29999C6.60003 5.29999 6.50006 5.30002 6.50006 5.40002C6.40006 5.30002 6.30005 5.2 6.30005 5C6.20005 4.8 6.20007 4.60002 6.20007 4.40002C6.10007 4.40002 6.20007 4.2 6.20007 4ZM6.30005 18.8C6.30005 19.3 6.00006 19.6 5.50006 19.7C5.00006 19.8 4.30003 19.7 3.60003 19.3C3.00003 19 2.30005 18.9 1.80005 18.9C1.60005 18.9 1.40007 18.9 1.20007 18.8C0.900071 18.7 0.800071 18.7 0.700071 18.5C0.600071 18.4 0.600047 18.1 0.800047 17.6C0.900047 17.3 0.800047 17 0.800047 16.7V16.6C0.800047 16.3 0.700047 16.1 0.800047 15.9C0.900047 15.7 1.00005 15.6 1.30005 15.5H1.40008C1.60008 15.4 1.90003 15.3 2.10003 15.1C2.20003 15 2.30008 14.8 2.40008 14.7C2.50008 14.6 2.60003 14.5 2.60003 14.4C2.80003 14.2 2.90006 14.2 3.00006 14.2H3.10003C3.40003 14.2 3.60005 14.4 3.80005 14.7L4.60003 16.1C4.80003 16.4 5.00005 16.8 5.30005 17.1C5.40005 17.2 5.50003 17.4 5.60003 17.5C6.20003 18.1 6.40005 18.5 6.30005 18.8ZM10.8 17.4C9.70005 18.2 8.00003 18.7 6.60003 17.7C6.50003 17.5 6.40005 17.4 6.30005 17.2C6.30005 17.2 6.30007 17.1 6.20007 17.1C6.30007 17.1 6.30008 17.1 6.40008 17C6.60008 16.9 6.70007 16.8 6.70007 16.6C6.80007 16.3 6.70008 15.9 6.40008 15.5C6.10008 15.1 5.60008 14.6 4.90008 14.2C4.70008 13.9 4.70003 13.8 4.60003 13.5C4.60003 12.7 4.80003 11.9 5.10003 11.2C5.20003 11 5.30008 10.8 5.40008 10.6C5.90008 9.60004 6.50003 8.2 6.60003 7C6.70003 7.1 6.80008 7.10001 6.90008 7.20001C7.00008 7.30001 7.00003 7.30002 7.10003 7.40002C7.30003 7.50002 7.50008 7.70001 7.90008 7.70001C8.40008 7.70001 8.70008 7.60002 8.90008 7.40002C9.00008 7.40002 9.10003 7.29999 9.10003 7.29999C9.20004 7.19999 9.30008 7.10004 9.40008 7.10004C9.70008 7.00004 10 6.90001 10.1 6.70001C10.4 7.90001 11.1001 9.40001 11.5001 10.2C11.9001 11 12.2001 11.8 12.4001 12.6C12.3001 12.7 12.0001 13 11.9001 13.5C11.9001 13.5 11.8 13.5 11.8 13.6C11.4 13.8 11.2 14.2 11.1 14.7C11 15.1 11.0001 15.7 10.9001 16.3C11.0001 16.7 10.9 17 10.8 17.4ZM16.0001 17.7C15.9001 17.8 15.7001 17.9 15.5001 18C15.0001 18.2 14.4001 18.5 13.9001 19.1C13.4001 19.7 12.9 20 12.3 20C11.8 20 11.4 19.8 11.1 19.3C11 19.1 11.0001 18.6 11.2001 18C11.2001 17.8 11.3 17.7 11.3 17.5C11.4 17.1 11.5 16.7 11.6 16.4C11.6 15.8 11.7 15.3 11.8 14.9C11.9 14.6 12 14.4 12.1 14.3C12.2 14.8 12.5001 15.2 12.9001 15.3C13.4001 15.4 14.2001 15 14.5001 14.7H14.6C14.9 14.7 15.0001 14.7 15.2001 14.9C15.3001 15 15.4001 15.3 15.5001 15.5V15.6C15.6001 15.9 15.6 16.2 15.8 16.4C16.2 16.9 16.3 17.1 16.3 17.2C16.3 17.5 16.2001 17.6 16.0001 17.7Z" fill="#606060"/>
</svg>
