<svg width="21" height="18" viewBox="0 0 21 18" fill="none" xmlns="http://www.w3.org/2000/svg">
<path d="M1.00037 13V15H3.30029V13H3.90039V17.7H3.30029V15.5H1.00037V17.7H0.400391V13H1.00037Z" fill="#606060"/>
<path d="M4.00024 17.8H3.10022V15.6H1.10022V17.8H0.200195V12.9H1.10022V14.9H3.10022V12.9H4.00024V17.8ZM3.40027 17.5H3.7002V13.1H3.40027V15.1H0.900269V13.1H0.60022V17.5H0.900269V15.3H3.40027V17.5Z" fill="#606060"/>
<path d="M5.69958 16.2L5.19958 17.7H4.59961L6.19958 13H6.89966L8.49963 17.7H7.89966L7.39966 16.2H5.69958ZM7.19958 15.7L6.69958 14.4C6.59958 14.1 6.49963 13.8 6.49963 13.5C6.39963 13.8 6.39956 14.1 6.29956 14.3L5.79956 15.6L7.19958 15.7Z" fill="#606060"/>
<path d="M8.70032 17.8H7.80029L7.30029 16.3H5.80029L5.30029 17.8H4.40039L6.10034 12.9H7.00037L8.70032 17.8ZM7.90039 17.5H8.30029L6.80029 13.1H6.30029L4.80029 17.5H5.10034L5.60034 16H7.40039L7.90039 17.5ZM7.40039 15.9H5.60034L6.10034 14.4C6.20034 14.2 6.30029 13.9 6.30029 13.6V13.5H6.50037L6.60034 13.6C6.70034 13.9 6.70029 14.1 6.80029 14.4L7.40039 15.9ZM6.00037 15.6H7.00037L6.60034 14.4C6.60034 14.3 6.50037 14.1 6.50037 14C6.50037 14.1 6.40039 14.3 6.40039 14.4L6.00037 15.6Z" fill="#606060"/>
<path d="M9.2002 17.7V13H9.90027L11.4003 15.4C11.7003 15.9 12.0002 16.4 12.2002 16.9C12.1002 16.3 12.1002 15.7 12.1002 15V13H12.7002V17.7H12.1002L10.6002 15.3C10.3002 14.8 10.0002 14.3 9.7002 13.7C9.7002 14.3 9.80017 14.8 9.80017 15.6V17.6H9.2002V17.7Z" fill="#606060"/>
<path d="M12.7996 17.8H11.9996L10.4996 15.4C10.1996 15 9.99966 14.6 9.89966 14.3C9.89966 14.7 9.89966 15.1 9.89966 15.7V17.8H9.09961V12.9H9.99963L11.4996 15.3C11.6996 15.6 11.8996 16 12.0996 16.3C12.0996 15.9 12.0996 15.5 12.0996 15V12.9H12.8997V17.8H12.7996ZM12.0996 17.5H12.4996V13.1H12.1996V14.9C12.1996 15.6 12.1996 16.2 12.2996 16.8V16.9L12.0996 17L11.9996 16.9C11.7996 16.4 11.4996 15.9 11.1996 15.4L9.69958 13.1H9.19958V17.5H9.49963V15.6C9.49963 14.8 9.49966 14.3 9.39966 13.7V13.6L9.59961 13.5L9.69958 13.6C9.89958 14 10.1996 14.5 10.5996 15.1L12.0996 17.5Z" fill="#606060"/>
<path d="M14.5004 16.2L14.0004 17.7H13.4004L15.0004 13H15.7003L17.3003 17.7H16.7003L16.2003 16.2H14.5004ZM16.0004 15.7L15.5004 14.4C15.4004 14.1 15.3003 13.8 15.3003 13.5C15.2003 13.8 15.2003 14.1 15.1003 14.3L14.6003 15.6L16.0004 15.7Z" fill="#606060"/>
<path d="M17.5002 17.8H16.6002L16.1002 16.3H14.6002L14.1002 17.8H13.2002L14.9003 12.9H15.8002L17.5002 17.8ZM16.7002 17.5H17.1002L15.6002 13.1H15.1002L13.6002 17.5H13.9003L14.4003 16H16.2002L16.7002 17.5ZM16.2002 15.9H14.4003L14.9003 14.4C15.0003 14.2 15.1002 13.9 15.1002 13.6V13.5H15.3002L15.4003 13.6C15.5003 13.9 15.5002 14.1 15.6002 14.4L16.2002 15.9ZM14.8002 15.6H15.8002L15.4003 14.4C15.4003 14.3 15.3002 14.1 15.3002 14C15.3002 14.1 15.2002 14.3 15.2002 14.4L14.8002 15.6Z" fill="#606060"/>
<path fill-rule="evenodd" clip-rule="evenodd" d="M0 0.700012V10.7H10.2L20.2 0.700012H0ZM12.2999 6.79999H11.7V8.70001H8.79993L8.5 7.79999C8.2 7.89999 7.8 8 7.5 8C7.2 8 6.80002 7.89999 6.40002 7.79999L6.09998 8.70001H4.29993L4.5 8.20001C4.5 8.20001 4.50002 8.19999 4.40002 8.29999C4.00002 8.69999 3.39995 8.90002 2.69995 8.90002H2.59998C1.79998 8.90002 0.999927 8.69999 0.299927 8.29999L0.900024 7.10004C1.60002 7.50004 2 7.60004 2.5 7.60004C2.8 7.60004 2.99998 7.50002 3.09998 7.40002C3.19998 7.30002 3.19995 7.20004 3.19995 7.10004C3.19995 6.80004 2.79995 6.6 2.19995 6.5C1.79995 6.4 1.19993 6.20002 0.799927 5.90002C0.299927 5.60002 0.0999756 5.1 0.0999756 4.5C0.0999756 4.1 0.299976 3.69999 0.599976 3.29999C0.999976 2.79999 1.69998 2.60004 2.59998 2.60004C3.29998 2.60004 4.20002 2.80004 4.90002 3.10004L4.19995 4.29999C3.49995 3.99999 3.09995 3.90002 2.69995 3.90002C2.09995 3.90002 1.79993 4.09999 1.79993 4.29999C1.79993 4.59999 2.40002 4.8 2.90002 5C3.70002 5.3 4.70002 5.60004 4.90002 6.60004L6.40002 2.60004H8.09998L9.79993 7.29999V2.60004H11.7999C13.6999 2.60004 14.6 3.29999 14.6 4.79999C14.7 5.99999 13.7999 6.79999 12.2999 6.79999Z" fill="#606060"/>
<path fill-rule="evenodd" clip-rule="evenodd" d="M12.1002 3.90002H11.7002V5.5H12.1002C12.7002 5.5 13.1002 5.30001 13.1002 4.70001C13.1002 4.10001 12.7002 3.90002 12.1002 3.90002Z" fill="#606060"/>
<path fill-rule="evenodd" clip-rule="evenodd" d="M7.3999 4.5L6.7998 6.5C6.9998 6.6 7.1999 6.60004 7.3999 6.60004C7.5999 6.60004 7.79988 6.6 7.99988 6.5L7.3999 4.5Z" fill="#606060"/>
</svg>
