<svg width="19" height="20" viewBox="0 0 19 20" fill="none" xmlns="http://www.w3.org/2000/svg">
<path d="M8.69983 13.6C8.69983 13.5 8.7998 13.5 8.7998 13.4C8.7998 13.3 8.7998 13.3 8.7998 13.2C8.7998 13 8.59988 12.9 8.49988 12.8C8.29988 12.7 8.29985 12.7 8.09985 12.9C7.99985 13 7.8998 13.2 7.7998 13.3C7.3998 13.8 7.29983 13.9 6.19983 14.1C6.09983 14.1 5.8998 14.2 5.7998 14.2C5.8998 14.3 6.09983 14.3 6.19983 14.4C6.89983 14.7 7.99983 14.7 8.69983 13.6Z" fill="#606060"/>
<path d="M8.29994 6.69998C8.29994 6.29998 7.99999 6 7.59999 5.9C6.79999 5.7 5.60004 6.29997 5.40004 6.49997V6.69998C5.50004 7.59998 5.39994 8.39996 5.29994 9.29996C5.19994 10.1 5.40001 10.8 6.00001 11.4C6.40001 11.8 6.90001 12.1 7.50001 12.1C7.60001 11.8 7.69994 11.5 7.79994 11.3V11.2C7.89994 11.1 7.90001 10.9 8.00001 10.7C8.40001 9.99998 8.79994 8.99998 8.29994 6.69998ZM7.50001 6.99997C7.30001 6.99997 7.10001 6.89998 7.00001 6.69998C6.90001 6.59998 6.90004 6.59997 6.90004 6.49997C6.90004 6.49997 6.90001 6.4 7.00001 6.4C7.20001 6.3 7.30001 6.29996 7.50001 6.29996C7.70001 6.29996 7.80001 6.39997 8.00001 6.49997V6.60001C7.90001 6.80001 7.70001 6.99997 7.50001 6.99997Z" fill="#606060"/>
<path d="M5.59986 11.9C4.89986 11.2 4.59981 10.3 4.79981 9.29997C4.89981 8.49997 4.89991 7.69997 4.89991 6.79997V6.49999C4.89991 6.39999 4.79986 3.4 6.59986 1.7C5.59986 1.4 2.99991 0.699973 1.39991 1.79997C0.39991 2.49997 -0.000138938 3.70002 0.0998611 5.60002C0.199861 6.90002 1.59991 13.8 3.39991 14.3C3.49991 14.3 3.79981 14.4 4.29981 13.9C4.99981 13.1 5.59991 12.4 5.89991 12.1C5.69991 12 5.59986 11.9 5.59986 11.9Z" fill="#606060"/>
<path d="M9.60022 18.5C9.80022 19 10.2002 20 11.7002 19.7C13.0002 19.4 13.4002 19 13.6002 17.8L14.1002 13.7C14.1002 12.6 14.7002 12.4 15.0002 12.3C15.0002 12.2 14.9002 12.2 14.8002 12.1C14.5002 11.8 14.3002 11.4 14.1002 11C14.1002 10.9 14.0003 10.8 13.9003 10.6C13.3003 9.50004 12.0002 7.20001 12.8002 6.00001C13.2002 5.50001 13.9002 5.2 15.0002 5.3C14.6002 4.3 13.1003 1.20002 9.40027 1.20002C8.40027 1.10002 7.4002 1.50002 6.7002 2.20002C5.6002 3.30002 5.3002 5.00003 5.2002 5.90003C5.7002 5.60003 6.20017 5.50003 6.80017 5.40003C7.80017 5.30003 8.5002 5.70002 8.7002 6.70002C9.2002 9.20002 8.70027 10.2 8.40027 11C8.30027 11.1 8.3002 11.3 8.2002 11.4V11.5C8.1002 11.8 8.00027 12 7.90027 12.3C8.10027 12.3 8.30024 12.3 8.50024 12.4C8.80024 12.5 9.1002 12.8 9.2002 13.2C9.2002 13.3 9.2002 13.4 9.2002 13.4C9.3002 15.8 9.40022 18.1 9.60022 18.5Z" fill="#606060"/>
<path d="M17.2002 13.4C17.5002 13.3 17.8002 13.1 18.0002 12.9C16.8002 13.2 15.9003 13.1 15.4003 12.8L15.3002 12.7H15.2002C14.9002 12.8 14.7002 12.8 14.7002 13.5C15.0002 13.8 16.4002 13.8 17.2002 13.4Z" fill="#606060"/>
<path d="M12.0996 1.10002C14.7996 2.30002 15.7997 5.09998 15.8997 5.49998C15.8997 5.59998 15.8997 5.59999 15.8997 5.69999C15.8997 6.09999 15.8996 6.39997 15.7996 6.79997C15.6996 7.09997 15.6996 7.39999 15.6996 7.69999C15.6996 7.99999 15.6996 8.39999 15.7996 8.69999C15.8996 9.59999 15.9997 10.6 15.3997 11.6C15.3997 11.6 15.3996 11.7 15.4996 11.7C17.8996 7.99999 18.6997 3.69997 17.8997 2.79997C16.0997 0.599968 13.3996 0.800016 12.0996 1.10002Z" fill="#606060"/>
<path d="M13.4006 6.3C12.8006 7.2 14.0005 9.3 14.5005 10.3C14.6005 10.5 14.7005 10.6 14.8005 10.8C14.8005 10.9 14.9005 11.0001 15.0005 11.1001C15.3005 10.4001 15.3005 9.60004 15.2005 8.90004C15.1005 8.50004 15.1005 8.2 15.1005 7.8C15.1005 7.5 15.1005 7.1 15.2005 6.8C15.2005 6.5 15.3005 6.20002 15.3005 6.00002C14.5005 5.80002 13.7006 5.8 13.4006 6.3ZM14.7005 6.3C14.7005 6.4 14.5005 6.70003 14.2005 6.70003H14.1005C14.0005 6.70003 13.9005 6.70005 13.8005 6.60005C13.7005 6.60005 13.7005 6.50004 13.7005 6.40004C13.7005 6.30004 13.9005 6.10005 14.2005 6.10005C14.3005 6.10005 14.5005 6.1 14.7005 6.3Z" fill="#606060"/>
</svg>
