<svg id="book" xmlns="http://www.w3.org/2000/svg" viewBox="0 0 96 96"><defs><style>.cls-1{fill:#004f50;}</style></defs><title>ic_whb</title><path class="cls-1" d="M22.51,4.87A11.76,11.76,0,0,0,10.75,16.63V79.37A11.76,11.76,0,0,0,22.51,91.13H85.25V4.87Zm54.9,78.42H22.51a3.92,3.92,0,0,1,0-7.84h54.9Zm0-15.69H22.51a11.62,11.62,0,0,0-3.92.69V16.63a3.93,3.93,0,0,1,3.92-3.92h54.9Zm-15.83-45a2.38,2.38,0,0,0-2.22,2.21A2.39,2.39,0,0,0,61.58,27a2.22,2.22,0,1,0,0-4.43ZM48,22.61a2.38,2.38,0,0,0-2.22,2.21,2.22,2.22,0,0,0,4.44,0A2.18,2.18,0,0,0,48,22.61Zm-13.58,0a2.38,2.38,0,0,0-2.22,2.21A2.39,2.39,0,0,0,34.42,27a2.22,2.22,0,1,0,0-4.43Z"/></svg>