<?xml version="1.0" encoding="utf-8"?>
<!-- Generator: Adobe Illustrator 24.2.1, SVG Export Plug-In . SVG Version: 6.00 Build 0)  -->
<svg version="1.1" id="圖層_1" xmlns="http://www.w3.org/2000/svg" xmlns:xlink="http://www.w3.org/1999/xlink" x="0px" y="0px"
	 viewBox="0 0 300 60" style="enable-background:new 0 0 300 60;" xml:space="preserve">
<style type="text/css">
	.st0{fill-rule:evenodd;clip-rule:evenodd;fill:#FFFFFF;}
	.st1{fill:#FFFFFF;}
</style>
<g id="圖層_2_1_">
	<path class="st0" d="M71.7,26.2c0.9-7,5.9-13.3,14.2-13.3s13.6,6.1,14.4,13.3c0,0.3-0.1,0.5-0.4,0.5H72.2
		C71.9,26.7,71.7,26.5,71.7,26.2z M72.2,35.2h32.1c3.1,0,5.6-2.5,5.6-5.6c0-0.1,0-0.2,0-0.3C109.8,15.9,99.2,5,86,5
		C72.7,5.1,62,16,62.1,29.3v1.3c0,15.3,10.1,23.6,23.5,24.3c0.6,0.1,1.3,0.1,1.9,0.1c5.1,0,10-1.4,14.3-4.2c1.7-1,3.1-2.4,4.3-3.9
		c1.6-1.9,1.6-4.8,0-6.3c-2.4-2.2-4.9-1-7.1,0.9l-0.1,0.1c-3.4,2.8-6.1,5-13,5c-6.6,0-12.7-3.7-14.2-10.9
		C71.7,35.4,71.9,35.2,72.2,35.2L72.2,35.2z"/>
	<path class="st1" d="M284.7,5.5c-3.1,0-5.9,1.8-7.3,4.5c-4.3,8.5-17,34-17,34l0,0c-0.1,0.2-0.4,0.7-0.9,0.7s-0.8-0.5-0.9-0.7
		c-3.1-6.3-8.5-17-12.8-25.7l0,0l-4-8c-1.3-3-4.3-4.9-7.5-4.9c-4.6,0-8.5,3.9-8.5,9v35c-0.1,2.1,1.2,4,3.1,4.7
		c3.1,1,5.8-1.7,5.8-4.8l-0.7-34c0-0.2,0.1-0.3,0.3-0.3c0.1,0,0.2,0.1,0.3,0.2l17.2,34c1.6,3.3,4.4,5.2,7.4,5.2s5.9-1.9,7.4-5.2
		l17.3-34c0.1-0.3,0.6-0.2,0.6,0.2L284,49.5c-0.1,2.5,1.9,4.7,4.4,4.8c0.1,0,0.1,0,0.2,0c2.6-0.2,4.5-2.4,4.4-5V14.5
		c0.3-4.7-3.2-8.7-7.9-9C285,5.5,284.9,5.5,284.7,5.5z"/>
	<path class="st1" d="M59.3,6C57,4.8,54.2,5.8,53,8.1L36,43.5c-0.4,0.7-0.8,1.3-1.6,1.3s-1.2-0.5-1.6-1.3L15.9,8.1
		C14.8,5.8,12,4.9,9.7,5.9C9.6,6,9.6,6,9.5,6.1c-2.3,1.3-3.2,4.1-2,6.5L24,45.3l2,3.7c2.3,4.7,7.9,6.6,12.5,4.4
		c1.9-0.9,3.5-2.5,4.4-4.4l1.9-3.7l16.5-32.8C62.5,10.1,61.6,7.3,59.3,6z"/>
	<path class="st1" d="M201,10.7l19,36.5c1.1,1.9,0.6,4.3-1.1,5.8l-0.3,0.3c-0.1,0-0.2,0.1-0.2,0.1c0,0,0,0-0.1,0c0,0,0,0-0.1,0
		c0,0.1-0.1,0.1-0.1,0.1c0,0,0,0-0.1,0s0,0-0.1,0c0,0,0,0.1-0.1,0.1l0,0c0,0,0,0-0.1,0c0,0,0,0-0.1,0l-0.4,0.2
		c0,0.1-0.1,0.1-0.1,0.1c-0.5,0.2-1,0.3-1.6,0.3c-1.7,0-3.4-1-4.2-2.5l-17.3-35l-0.2-0.4c-0.3-0.6-0.6-1.2-1.2-1.4
		c-0.3-0.1-0.7-0.1-1,0c-0.6,0.2-0.9,0.9-1.1,1.3l-0.1,0.2c0,0-0.1,0-0.1,0.1v0.1l-7.2,14l-1,2c-0.1,0.2,0,0.4,0.1,0.5
		c0.1,0,0.1,0,0.2,0H196c2.4,0,4.4,2,4.4,4.4c0,2.4-2,4.4-4.4,4.4h-17.7c-0.2,0-0.4,0.1-0.5,0.3l-4,8.1l-0.7,1.5
		c-0.2,0.4-0.5,0.8-0.9,1.2l-0.3,0.3c-0.1,0.1-0.2,0.1-0.3,0.2c0,0,0,0.1,0,0.1c0,0,0,0,0,0c-1.5,1-3.4,1.1-4.9,0.2
		c-0.5-0.3-0.9-0.6-1.2-1.1c0,0,0,0,0-0.1c0,0,0,0,0-0.1c0,0,0,0,0-0.1s0,0,0-0.1c-1.1-1.5-1.2-3.5-0.3-5.1v-0.1c0,0,0,0,0-0.1
		c0,0,0,0,0-0.1l19-36.3c1.6-3.2,4.9-5.3,8.5-5.3C196.2,5.3,199.5,7.4,201,10.7z"/>
	<path class="st0" d="M139.2,13c-8.3,0-13.3,6.2-14.2,13.3c-0.1,0.3,0.1,0.5,0.4,0.5h27.8c0.3,0,0.4-0.3,0.4-0.5
		C152.8,19.1,147.6,13,139.2,13z M157.4,35.2h-32.1c-0.2,0-0.4,0.2-0.4,0.5c0,0,0,0,0,0.1c1.5,7.2,7.6,10.9,14.2,10.9
		c6.9,0,9.6-2.2,13-5l0.1-0.1c2.2-1.8,4.7-3,7.1-0.9c1.6,1.5,1.6,4.4,0,6.3c-1.2,1.5-2.6,2.9-4.3,3.9c-4.3,2.7-9.2,4.2-14.3,4.1
		c-0.6,0-1.3,0-1.9-0.1c-13.4-0.7-23.6-9-23.6-24.3v-1.3c0-13.4,10.7-24.3,23.8-24.3s23.8,10.9,23.8,24.3c0.1,3.1-2.2,5.7-5.3,5.8
		C157.6,35.2,157.5,35.2,157.4,35.2L157.4,35.2z"/>
</g>
</svg>
