<?xml version="1.0" encoding="utf-8"?>
<!-- Generator: Adobe Illustrator 24.0.2, SVG Export Plug-In . SVG Version: 6.00 Build 0)  -->
<svg version="1.1" id="Capa_1" xmlns="http://www.w3.org/2000/svg" xmlns:xlink="http://www.w3.org/1999/xlink" x="0px" y="0px"
	 viewBox="0 0 512 512" style="enable-background:new 0 0 512 512;" xml:space="preserve">
<style type="text/css">
	.st0{fill:#007250;}
	.st1{opacity:0.1;enable-background:new    ;}
</style>
<path class="st0" d="M279.3,448c-17.6,0-32-14.4-32-32v-74.7H72.7c-23.6,0-42.7-19.1-42.7-42.6v-85.3c0-23.5,19.1-42.7,42.7-42.7
	h174.7V96c0-17.6,14.4-32,32-32c7.9,0,15.6,3,21.5,8.6l13.8,12.7c45.3,41.9,121.2,112.1,160,151c4.7,4.8,7.4,11.8,7.4,19.7
	c0,7.9-2.6,14.9-7.4,19.7c-38.8,38.9-114.7,109.1-160,151l-13.8,12.7C294.9,445,287.3,448,279.3,448z"/>
<path class="st1" d="M30,298.7c0,23.5,19.1,42.6,42.7,42.6h174.6V416c0,17.6,14.4,32,32,32c8,0,15.6-3,21.6-8.6l13.8-12.7
	c45.3-41.9,121.2-112.1,160-151c4.8-4.8,7.4-11.8,7.4-19.7H30V298.7z"/>
</svg>
