<svg id="圖層_1" data-name="圖層 1" xmlns="http://www.w3.org/2000/svg" xmlns:xlink="http://www.w3.org/1999/xlink" viewBox="0 0 300 200"><defs><style>.cls-1{fill:none;}.cls-2{clip-path:url(#clip-path);}.cls-3{fill:#231815;}</style><clipPath id="clip-path"><rect class="cls-1" y="77" width="300" height="46"/></clipPath></defs><g id="圖層_4" data-name="圖層 4"><g id="DIGITIMES_CMYK" data-name="DIGITIMES CMYK"><g class="cls-2"><g class="cls-2"><path class="cls-3" d="M283.82,114.42a51.5,51.5,0,0,1-12.71-1.85c-.12.51-1.65,7.61-1.74,8a39.06,39.06,0,0,0,14.26,2.68c13.84,0,16.48-4.57,16.48-12.83,0-7.32-.6-10-11.87-12-6.84-1.22-7.54-1.65-7.54-4.57,0-2.61,1.27-3,4.86-3a62.44,62.44,0,0,1,12.19,1.36c0-.52,1.15-8.08,1.21-8.53A59.89,59.89,0,0,0,285.49,82c-11.15,0-15.69,3.34-15.69,11.52,0,6.87.76,11.18,11.39,12.9,7.34,1.17,8,1.83,8,4.57s-1.2,3.44-5.39,3.44M173.22,82.71H162.3v39.77h10.92ZM87.29,123.26a63.27,63.27,0,0,0,16.08-2.12V101.52H93.53v12.19h-.24a48.21,48.21,0,0,1-6,.38c-4,0-5.71-1.52-5.71-5v-13c0-3.4,1.66-4.78,5.71-4.78a139.17,139.17,0,0,1,13.95,1.07c0-.52,1-8.6,1-9.14a86.37,86.37,0,0,0-15-1.36c-11.2,0-16.63,4-16.63,12.37v16.52c0,8.38,5.43,12.45,16.63,12.45M62.45,82.71h-11v39.77h11Zm75,40.14h10.34V86.19h11.09V77.05H126.29v9.14H137.4Zm-136-18c.66.13,7,1,7,1l.79,4.89h8.62v-9.14H1.37c-.46,0-1,.31-1,1.62s.3,1.52,1,1.69m7.77,18H28.33c11.27,0,15.49-5.76,15.49-11.88v-22c0-6.2-4.2-11.91-15.49-11.91h-27c-.46,0-1,.31-1,1.62s.3,1.52,1,1.7,7,1,7,1l.79,4.84H27.08c5.16,0,6.41,2,6.41,5.57v16.39c0,3.58-1.25,5.58-6.41,5.58H1.37c-.46,0-1,.3-1,1.61s.3,1.53,1,1.71,7,1,7,1ZM8.35,93.56l.79,4.92h8.62V89.34H1.37c-.46,0-1,.21-1,1.52s.3,1.52,1,1.72,7,1,7,1m207.93,9.49.76,19.51h10.52c0-.57-2-39.25-2.05-39.77H214.84c-.13.35-10.18,24-10.18,24s-10.06-23.67-10.19-24H183.8c0,.52-2,39.2-2.07,39.77h10.54c0-.52.76-19.42.76-19.42l.54-.11s6.23,14.24,6.36,14.58h9.42c.13-.34,6.36-14.66,6.36-14.66ZM263.49,114H245.78v-7.31h16.3V98h-16.3V91.3h17.71V82.71H234.87v39.77h28.62ZM122.26,82.71H111.35v39.77h10.91Z"/></g></g></g></g></svg>