<?xml version="1.0" encoding="UTF-8"?>
<svg id="_圖層_2" data-name="圖層_2" xmlns="http://www.w3.org/2000/svg" xmlns:xlink="http://www.w3.org/1999/xlink" viewBox="0 0 26.63 26.63">
  <defs>
    <style>
      .cls-1 {
        fill: none;
      }

      .cls-2 {
        fill: #fff;
      }

      .cls-3 {
        fill: url(#_未命名漸層_3);
      }

      .cls-4 {
        clip-path: url(#clippath);
      }
    </style>
    <clipPath id="clippath">
      <rect class="cls-1" y="0" width="26.63" height="26.63" rx="4.01" ry="4.01"/>
    </clipPath>
    <linearGradient id="_未命名漸層_3" data-name="未命名漸層 3" x1="-672.93" y1="390.84" x2="-672.12" y2="390.84" gradientTransform="translate(31708.43 -54521.73) rotate(-90) scale(81.1 -81.1)" gradientUnits="userSpaceOnUse">
      <stop offset="0" stop-color="#7f1084"/>
      <stop offset="1" stop-color="#a50082"/>
    </linearGradient>
  </defs>
  <g id="_圖層_1-2" data-name="圖層_1">
    <g>
      <g class="cls-4">
        <rect class="cls-3" width="26.63" height="26.63"/>
      </g>
      <g>
        <path class="cls-2" d="M4.01,1.94c-1.14,0-2.06.93-2.06,2.06v18.61c0,1.14.93,2.06,2.06,2.06h18.61c1.14,0,2.06-.93,2.06-2.06V4.01c0-1.14-.93-2.06-2.06-2.06H4.01ZM22.62,25.57H4.01c-1.62,0-2.95-1.32-2.95-2.95V4.01c0-1.62,1.32-2.95,2.95-2.95h18.61c1.62,0,2.95,1.32,2.95,2.95v18.61c0,1.62-1.32,2.95-2.95,2.95"/>
        <path class="cls-2" d="M10.59,8.5s.1,0,.15-.02c.06-.02.12-.06.17-.07.06-.01.19-.07.3-.05,0,0,0,.02.03.03.04,0,.08.05.12.07.05.08.03.23-.02.37,0,.02-.01.05-.03.07,0,.02-.04.03-.05.05-.02.03-.01.05-.02.07,0,.01-.02,0-.03.03,0,0,0,.02,0,.02-.02.03-.07.07-.1.1-.03.04-.05.07-.07.1-.07.08-.12.16-.17.2,0,0-.04,0-.05,0-.03.03-.04.04-.1.07-.02,0-.04.04-.05.05-.03.01-.05.01-.07.02-.25.13-.66.22-1.06.2-.1-.38-.12-.9,0-1.23,0,0,.02,0,.02-.02,0-.04.06-.12.15-.2.02-.01.05-.05.07-.05.04,0,.04-.05.07-.07.03-.02.11-.03.15-.05.02,0,.04-.04.05-.05,0,0,.04,0,.05,0,.03-.03.23-.07.32-.07.17,0,.32.06.47.12-.05.14-.16.23-.27.32h-.02Z"/>
        <path class="cls-2" d="M17.29,14.79c-.03.19-.34.04-.44.1,0-.05.13-.07.2-.1,0,0,.04,0,.05,0,.02-.02.13-.05.2,0"/>
      </g>
      <rect class="cls-2" x="13.99" y="16.24" width=".05" height=".05"/>
      <rect class="cls-2" x="13.84" y="16.34" width=".05" height=".05"/>
      <rect class="cls-2" x="18.2" y="16.64" width=".05" height=".05"/>
      <g>
        <path class="cls-2" d="M13.2,17.25c-.06,0-.14-.03-.17.02.03,0,.07,0,.07.03.06,0,.09-.04.17-.03,0-.07.14.02.1-.07-.05,0-.11.04-.17.05M13.3,16.86h.3c.03.07.04.18-.03.22.07.09.06.23-.02.3-.03,0-.07,0-.07.02-.07,0-.08-.06-.15-.07-.17,0-.22.03-.37,0,0-.02.03-.02.05-.02,0-.04-.03-.05-.02-.1-.04,0-.05-.02-.05-.05.11-.01.18-.07.27-.1.04-.03.03-.07.05-.1,0-.01.02,0,.02-.03,0-.02.04-.04.03-.07"/>
        <path class="cls-2" d="M14.97,16.91s0-.02.02-.02c.11.01.27-.03.35.02-.01.06-.03.11-.07.15.05.09,0,.15,0,.27-.1,0-.22-.04-.35-.02-.03,0-.06,0-.07.02,0,0,0,.03,0,.03-.03,0-.09-.02-.1-.05-.05.01-.05.07-.12.05v-.22c.08.03.18-.07.25-.07.03,0,.03-.04.05-.05.04-.03.05,0,.07-.05.01-.02-.01-.05-.02-.05"/>
        <path class="cls-2" d="M11.97,17.01c.01.05-.05.03-.05.07,0,.01-.04.06-.05.1,0,.07.05.1.05.17-.08,0-.11.06-.17.07-.04,0-.04-.02-.07-.02-.05,0-.09.05-.15.02-.04-.1.11,0,.1-.07,0-.03-.14.02-.22,0-.03,0-.02.06-.03.1-.05.02-.08-.07-.07.02-.05,0-.03-.04-.05-.07,0,0-.05-.06-.05-.05,0-.05.07-.04.05-.1.12-.02.18-.1.27-.15,0-.08.05-.11.07-.17.15.03.35-.11.37.07"/>
        <path class="cls-2" d="M20.4,16.98h.07s-.02.04-.02.07h-.05v-.07Z"/>
        <path class="cls-2" d="M5.34,17.06h.07s-.02.04-.03.07h-.05v-.07Z"/>
        <path class="cls-2" d="M21.38,17.38s-.06-.1-.07-.02c-.09-.07.12-.12.07.02"/>
        <path class="cls-2" d="M12.26,17.38c-.07.09-.08-.08,0,0"/>
      </g>
      <rect class="cls-2" x="21.24" y="17.38" width=".05" height=".05"/>
      <g>
        <path class="cls-2" d="M21.19,17.45c.11-.02.13.05.12.15h-.12v-.15Z"/>
        <path class="cls-2" d="M10.12,17.5s0,.11-.07.1c.01-.05,0-.11.07-.1"/>
        <path class="cls-2" d="M20.2,17.62c.09,0,.14.04.2.07-.04.13.04.25-.1.3,0,.15-.07.24-.22.25,0-.06-.04-.07-.02-.15.05-.01.07.02.1.02.04-.03-.01-.06,0-.1,0-.02.07-.02.07-.07,0-.05-.08-.02-.1-.05,0-.04,0-.07-.02-.07,0-.03.03-.05.05-.07.04-.05.03-.05.05-.12"/>
      </g>
      <rect class="cls-2" x="20.99" y="17.62" width=".05" height=".05"/>
      <g>
        <path class="cls-2" d="M21.24,17.65c.06,0,.09.05.12.07.01.05-.03.05-.07.05,0,.03.11.05.03.07.01.07.12.05.17.07-.02.03-.07.05-.1.05-.04,0-.04-.02-.05-.02-.03,0-.07.05-.15.02,0-.05-.07-.03-.05-.1h.1s-.1-.12.03-.1c0-.02-.03-.02-.05-.02-.01-.05.02-.07.02-.1"/>
        <path class="cls-2" d="M21.56,17.75c-.08.09-.08-.07,0,0"/>
        <path class="cls-2" d="M19.81,17.82c.08-.01.12.03.07.07-.05,0-.08-.02-.07-.07"/>
        <path class="cls-2" d="M19.9,17.99c-.1,0-.1,0-.07.07-.04,0-.05-.02-.05-.05-.02.02-.04.03-.05,0-.04.01,0,.03,0,.07-.07,0-.06-.05-.07-.1.05-.02.15,0,.12-.1.06.02.12.03.12.1"/>
        <path class="cls-2" d="M22.05,17.92c.09,0,.16.02.15.12-.1,0-.16-.03-.15-.12"/>
        <path class="cls-2" d="M20.08,17.99s-.05.05-.1.05c-.02-.07.05-.04.1-.05"/>
        <path class="cls-2" d="M21.56,18.02c0-.06.24,0,.22.07-.1,0-.14-.05-.22-.07"/>
        <path class="cls-2" d="M7.38,18.02c-.04.1-.1.16-.2.2-.1-.08.03-.23.2-.2"/>
        <path class="cls-2" d="M22.02,18.04c.06,0,.1.04.1.1-.05.01-.04-.05-.07-.05-.02,0-.02-.03-.03-.05"/>
        <path class="cls-2" d="M22.52,18.56c-.08,0-.09-.08-.15-.12-.04-.03-.13,0-.12-.1-.08.04.05.06.02.12h-.12c0-.06.01-.1.05-.12-.03-.12-.28-.04-.27-.2.1-.06.21.04.25.12.03.02.07,0,.1.03,0,0,0,.04,0,.05,0,0,.02,0,.02,0,.02.02.06.02.07.07.1,0,.21.07.15.15"/>
        <path class="cls-2" d="M22.49,18.21s.08,0,.07.05h-.07v-.05Z"/>
        <path class="cls-2" d="M21.83,18.24h.1c.03.07-.05.04-.1.05v-.05Z"/>
        <path class="cls-2" d="M22.71,18.29c.11-.03.08.09.15.1-.04.05-.16-.02-.15-.1"/>
      </g>
      <rect class="cls-2" x="21.8" y="18.34" width=".05" height=".05"/>
      <g>
        <path class="cls-2" d="M21.75,18.41c.08,0,.11.05.17.07,0,.03-.05.02-.05,0-.05,0-.03.07-.1.05-.02-.03-.03-.07-.03-.12"/>
        <path class="cls-2" d="M21.65,18.46s.05.06.05.12c-.07,0-.08-.1-.05-.12"/>
      </g>
      <rect class="cls-2" x="21.31" y="18.51" width=".05" height=".05"/>
      <g>
        <path class="cls-2" d="M22.71,18.53s.07.03.12.02c.01.05-.05.04-.05.07.01.04.03,0,.07,0-.02.02-.03.04,0,.05,0,.06-.11-.01-.07.07-.06-.02-.13-.02-.17-.05,0-.07.03-.08.1-.07-.04-.05,0-.03,0-.1"/>
        <path class="cls-2" d="M21.78,18.58c.11.01-.03.14,0,0"/>
        <path class="cls-2" d="M21.61,18.63h.07s-.02.04-.02.07c-.03-.01-.05-.03-.05-.07"/>
        <path class="cls-2" d="M20.27,16.69s-.17-.09-.22-.02c.09-.02.19.07.22.02M12.04,16.64s.13.03.12-.02c-.04-.04-.1-.02-.12.02M11.01,16.49c.05.08-.06.05-.07.07-.03.04-.03.11-.07.15.07,0,.08-.05.12-.05.03,0,.01-.02.02-.03.05-.02.12-.02.15-.07-.05,0-.02-.09-.07-.1,0,.03-.04.03-.07.02M12.88,16.36s.07.06.12.07c0-.05.09-.15.05-.17-.03.06-.13.05-.17.1M14.16,16.29c-.06-.01-.13-.02-.12-.1-.05-.06-.07.02-.12,0,.01,0-.03-.03-.02-.02-.05-.05-.09,0-.15,0-.06,0-.12,0-.2,0,0-.05-.07-.05-.1-.07-.03-.02-.04-.1-.12-.07-.04.02,0,.07.02.1,0,0,0,.02,0,.02,0,0,.04,0,.05,0,0,0,0,.04,0,.05,0,0,.04.02.05.02.05.03.06.07.1.1-.04.08-.12.08-.07.2.06-.02.12.02.17.02.03,0,.03-.02.05-.02,0,0,.02.02.03.02.09.02.2.06.25-.02-.03,0-.06,0-.05-.05.03.02.09.02.12.05-.02-.07.05-.05.07-.07-.06.06-.02.07-.05.12.08.02.09-.02.12-.05.02.07.05-.02.1,0,0,.03-.01.05-.02.07.25-.06.53-.09.52-.42-.13.01-.23-.02-.3-.07,0,.06,0,.12-.02.15.05.02.05.09.05.17h-.27s-.06-.07-.07-.12M17.61,15.92s.06.05.07.07c.05.05.1.13.15.17,0,0,.04,0,.05,0,0,0,.01.04.02.05.03.01.08.02.1.02.1.03.11.01.17-.02.03-.02.06-.02.07-.05-.08-.07,0-.17-.07-.22-.08-.02-.09.03-.15.02-.02-.08-.07-.13-.15-.15-.15.01-.24-.04-.39-.02,0-.01-.02-.03-.02,0,.05.02.15.08.15.12M16.06,15.75c-.11,0-.21.01-.22.12.07-.02.13.04.2.05.09,0,.17-.02.25-.05,0-.07-.13-.12-.22-.12M16.65,15.8c-.07.03-.17.03-.27.02,0,.03-.07.03-.03.05.03,0,.03-.02.05-.02h.1c.08.01.13.09.22.1.13.02.23-.05.35-.07.02-.09-.04-.11-.03-.2-.13,0-.19-.05-.32-.05,0,.09-.02.15-.07.17M7.58,15.63s-.01.04-.02.05c-.02.02-.05,0-.07.03-.03.02-.05.07-.07.1-.12.11-.24.21-.35.35.07,0,.08-.05.1-.07,0,0,.04,0,.05,0,.03-.02.07-.07.1-.1.11-.11.18-.21.3-.3.05-.04.11-.06.17-.1,0-.03.04-.06,0-.07-.06.05-.13.07-.2.12M12.14,15.03c.07,0,.17.02.17-.05-.06,0-.14.01-.17.05M8.37,14.27s.07-.03.1-.05c0,0,.02-.05.02-.05.01,0,.04,0,.05,0,.02-.02.05-.06.07-.07.02-.01.03-.01.05-.02,0,0,.07-.02.07-.02.04-.05.1-.08.17-.12.01,0,0-.02.02-.02.03,0,.03-.04.05-.05.01,0,.04,0,.05,0,.03-.02.05-.06.07-.07.03-.02.07,0,.1-.02.02-.01.05-.06.07-.07,0,0,.04,0,.05,0,0,0,.02-.04.02-.05,0,0,.04,0,.05,0,.02-.02.02-.03.05-.05,0,0,.02-.05.02-.05.01,0,.04,0,.05,0,0,0,.02-.05.03-.05.05-.02.08-.02.12-.05.05,0,.05-.07.07-.1.14-.04.27-.13.39-.2.02-.01.06-.05.1-.05.01,0,.04-.02.05-.02.03-.01.06-.05.1-.05.02,0,.07-.03.1-.05.04-.02.13-.04.2-.07.01,0,0-.02.03-.02.01,0,.04-.02.05-.02.05-.03.15-.06.22-.1.04-.01,0-.03-.02-.03,0-.02.02-.02.02-.05.05.01.07-.02.1-.02.03,0,.02.05.05.05.03-.03.09-.03.12-.05,0,0,.07-.02.07-.03,0,0-.05-.06,0-.05.29-.02.46-.16.74-.2,0-.06-.11.01-.07-.07.03-.02.05-.05.07-.07.02-.01.03-.02.05-.02,0,0,.04,0,.05,0,0,0,0-.02,0-.03.07-.01.13,0,.2-.02.04,0,.06-.04.1-.05.04-.01.09-.01.12-.02.07-.02.14-.06.22-.05-.02.08-.17.03-.2.1.08-.02.14.04.02.02.03.05.11,0,.12,0,.05-.02.09-.07.12-.12.01-.02.06-.1.1-.12,0,0,.04,0,.05,0,0,0,0-.02,0-.03,0,0,.04,0,.05,0,.03-.03.12-.02.2-.05,0,0,0-.02.03-.02.05,0,.07-.03.12-.05.05-.04.06-.11.1-.15.02-.02.08,0,.1-.02.03-.04.23-.04.32-.07.09-.04.11-.08.17-.15,0,0,.04-.04.05-.05.03-.02.1-.03.17-.05,0,0,0-.02.02-.02.02,0,.03,0,.05,0,.04,0,.04-.02.07-.02.13-.02.28,0,.42-.02,0,0,0-.02.02-.02.04,0,.09,0,.12,0,.14-.03.38-.09.54-.15.05-.02.12-.02.17-.05.02,0,.03-.04.05-.05.06-.03.18-.02.32-.02.12,0,.23-.04.35-.03.08,0,.16.04.25.07,0,0,.04,0,.05,0,0,0,0,.02,0,.02,0,0,.04,0,.05,0,0,0,0,.02,0,.03,0,0,.04,0,.05,0,0,0,0,.02,0,.02,0,0,.04,0,.05,0,0,0,0,.02,0,.03,0,0,.04,0,.05,0,0,0,0,.02,0,.02,0,0,.04,0,.05,0,0,0,0,.02,0,.03.03.02.07.03.1.05.04.02.04.05.07.07,0,0,.04,0,.05,0,.03.03.06.08.1.12.01.01.04.04.05.05.01.02.03.14.05.17,0,.01.02,0,.02.03,0,.05.07.19.07.22.02.13,0,.3-.02.39-.02.05-.04.1-.07.15-.08.1-.21.22-.37.25-.2.04-.5.01-.74,0-.1,0-.31-.03-.47-.03-.04,0-.05.03-.07.03-.02,0-.02-.03-.05-.03-.02,0-.04.02-.07.03-.06,0-.11,0-.17.02-.05.01-.05,0-.07.03.01-.01-.29-.01-.35-.03-.05-.01-.02-.02-.1,0,0,0-.04,0-.05,0-.04.05-.28.07-.39.1-.3.07-.56.15-.89.22,0,0,0,.02-.02.02-.08,0-.09,0-.17.03,0,0-.04,0-.05,0-.03.03-.06,0-.15.02,0,0,0,.02-.02.03-.12,0-.23.04-.35.07-.32.09-.7.2-1.01.32,0,0-.04,0-.05,0-.02.02-.06.03-.12.05-.05.02-.11.05-.17.07,0,0-.04,0-.05,0,0,0,0,.02,0,.02-.04.02-.08,0-.12.03-.01,0,0,.02-.02.02-.04,0-.12.05-.17.07-.04.02-.08.03-.12.05,0,0-.04,0-.05,0,0,0,0,.02,0,.02,0,0-.04,0-.05,0-.02.02-.04.04-.07.05,0,0-.04,0-.05,0,0,0,0,.02,0,.02,0,0-.04,0-.05,0,0,0,0,.02,0,.02,0,0-.04,0-.05,0-.03.03-.15.09-.22.12,0,0-.04,0-.05,0,0,0,0,.02,0,.02,0,0-.04,0-.05,0,0,0,0,.02,0,.03,0,0-.04,0-.05,0,0,0,0,.02,0,.02,0,0-.04,0-.05,0-.01.01-.07.05-.12.07,0,0-.04,0-.05,0,0,0,0,.02,0,.02,0,0-.04,0-.05,0-.01.02-.07.05-.12.07-.01,0,0,.02-.02.02,0,0-.06.02-.07.03-.02,0-.04.04-.05.05,0,0-.04,0-.05,0,0,0,0,.02,0,.02,0,0-.04,0-.05,0,0,0,0,.02,0,.03,0,0-.04,0-.05,0,0,0,0,.02,0,.02,0,0-.04,0-.05,0,0,0,0,.02,0,.02,0,0-.04,0-.05,0,0,0,0,.02,0,.02,0,0-.04,0-.05,0,0,0,0,.02,0,.03,0,0-.04,0-.05,0,0,0,0,.02,0,.02-.04.02-.11.07-.15.07,0,0-.06.02-.07.03-.02,0-.03.04-.05.05-.02.02-.06.02-.1.05-.01,0,0,.02-.02.02-.02,0-.05.04-.07.05-.03.02-.06.02-.1.05-.01,0,0,.02-.02.03-.03,0-.03.04-.05.05,0,0-.04,0-.05,0,0,0,0,.02,0,.02,0,0-.04,0-.05,0,0,0,0,.02,0,.03,0,0-.04,0-.05,0-.02.02-.02.02-.05.02,0,0-.07.02-.07.03,0,0,0,.02,0,.02,0,0-.04,0-.05,0,0,0,0,.02,0,.02,0,0-.04,0-.05,0,0,0,0,.02,0,.02,0,0-.04,0-.05,0-.04.04-.08.06-.15.1-.02,0-.03.04-.05.05,0,0-.04,0-.05,0,0,0,0,.02,0,.03-.08.05-.18.1-.25.2.18-.02.35-.07.49-.12.01,0,0-.02.02-.02.06,0,.04-.05.1-.05,0,0,.06-.02.07-.03.07-.03.13-.06.17-.12.03,0,.07,0,.07.02.03,0,.03-.06.05-.07.02-.02.07,0,.1-.02.04-.03.07-.09.1-.12.06.02.1-.02.15-.05.04-.02.09-.03.12-.05.02,0,.03-.04.05-.05,0,0,.04,0,.05,0,.02-.02.04-.04.07-.05,0,0,.04,0,.05,0,.06-.07.28-.12.39-.17,0,0,0-.02.02-.02.05-.01.07-.04.12-.05.01,0,.04,0,.05,0,.01,0,.04-.04.05-.05.01,0,.03,0,.05,0,0,0,.07-.02.07-.02.04-.04.14-.05.22-.07,0,0,0-.02.02-.02.05,0,.18-.05.25-.07,0,0,.04,0,.05,0,.03-.03.18-.05.25-.12.07,0,.17,0,.22-.02,0,0,.04,0,.05,0,.02-.02.02-.03.05-.05,0,0,.03-.03.02-.02.04-.02.11,0,.17-.03,0,0,.01-.02.03-.02.1-.02.26-.06.39-.07.02,0,.05,0,.07,0,.02,0,.02.02.05.03.04,0,.04-.02.07-.03.03,0,.07,0,.1,0,.09-.01.21,0,.35-.02.29-.04.55-.2.81-.22.05,0,.09.02.15.03.08,0,.17-.04.25,0,.08.01.06-.07.12-.07.22,0,.39,0,.62-.02.05,0,.1-.03.15-.03.05,0,.12.03.17.03.08,0,.16-.03.25-.05.08-.01.17-.01.25-.03,0,0,0-.02.02-.02.03,0,.07,0,.1,0,.07,0,.13,0,.25-.02.15-.02.46-.04.64,0,.02,0,.04.02.07.02.07,0,.13.03.2.05.02,0,.05,0,.07,0,.02,0,.02.02.05.02.07,0,.13,0,.2,0,.14,0,.28.03.42.05.1.01.2.03.3.05.02,0,.03,0,.05,0,.12.03.35.07.49.12.03.01.05.02.07.02.06.02.15,0,.2.02.01,0,.04.05.05.05.07.02.1,0,.15.05.01.01.03.02.03.05-.02.02-.11-.02-.12,0-.03.03-.08.02-.17.02-.06,0-.11.04-.2.03,0,0-.08-.05-.1-.03,0,0,0,.02,0,.03,0,0-.04,0-.05,0-.02.03-.03.01-.07.02-.07.02-.25.06-.39.05-.1,0-.17-.02-.32,0-.02,0-.06.02-.1.02-.08.01-.15,0-.27.02-.04,0-.05.02-.1.02-.07,0-.15-.01-.22,0-.05,0-.04.03-.07.05-.05.03-.04-.05-.05-.05,0,0-.05.02-.07.02-.02,0-.25-.02-.27,0,0,0,0,.05,0,.05-.01,0-.05-.02-.07-.02-.11-.01-.28.01-.39.02-.04,0-.08,0-.12,0,0,0,0,.02-.02.03-.03,0-.07,0-.1,0,0,0,0,.02-.03.02-.08,0-.15.03-.22.07-.1-.01-.16-.07-.3-.05-.04,0-.04.02-.07.02-.05,0-.06-.02-.1-.02,0,0-.01.02-.02.02-.13,0-.3.04-.44.07-.04.01-.07.02-.1.02-.02,0-.06,0-.07,0,0,0-.04-.02-.03-.02-.11.02-.18.08-.27.1-.07.02-.03.04-.03.1-.15.01-.24.09-.37.12-.06,0,.02.03.02.02-.02.07-.04-.02-.1.05-.27,0-.5.07-.74.12-.04,0-.1-.02-.1.02,0,.02.09,0,.17,0,.2,0,.57-.02.76.03.02,0,.02.02.02.02.05.02.12,0,.15.05.06,0-.1-.11,0-.15.09-.01.08.07.07.15.09-.06.1-.2.17-.27.08,0,.14-.06.2,0,.11,0,.09.14.17.17.52-.03,1.1-.22,1.6-.05.08-.02.16-.08.27-.1.11-.02.25.03.32-.05.03,0,.02.05.02.07.12-.07.23.05.32.1.08.02.13.07.15.15-.01.11-.16.08-.22.15-.02.02-.02.04-.05.05.08.22.29,0,.47.02.02,0,.06,0,.07,0,.02.01.03.1.12.07.12.02.11-.09.22-.07v-.22c.07.02.15,0,.2.02.01,0,.02.05.02.05.01,0,.04,0,.05,0,.09.06.12.19.17.27,0,.01.02,0,.02.02,0,.05.12.19.2.2.07,0,.11-.04.17-.1.05-.04.13-.07.1-.17-.04-.13-.15-.01-.25,0,0-.08-.07-.08-.05-.17.08.02.27.11.3-.02.03.02.05.05.05.1.02.02.07.01.07.05.16.02.25-.03.39-.03.02.14-.09.14-.12.22-.05.01-.05-.03-.07-.05-.02-.02-.06-.02-.07-.05-.1-.01-.14.02-.2.05.03.04.08.03.12.05.02,0,.04.04.05.05,0,0,.04,0,.05,0,.01.02.07.05.12.07.02,0,.03.04.05.05,0,0,.04,0,.05,0,0,0,0,.02,0,.03.04.02.09.03.12.05.02.01.03.04.05.05.02.01.03.01.05.02.02.01.03.04.05.05,0,0,.04,0,.05,0,0,0,0,.02,0,.02.06.03.12.02.2.05,0,0,0,.02.02.02.03,0,.1.03.15.05.09.03.18.04.27.07.08.03.17.06.25.1.06.03.12.09.2.12.02.08.09.1.1.2.23.09.46.22.67.35.01,0,0,.02.02.02.06,0,.07.06.12.1,0,0,.04,0,.05,0,0,0,.02.04.02.05,0,0,.04,0,.05,0,0,.01.01.04.03.05.06.05.12.07.17.15.01.02.06.05.05.12-.34-.22-.74-.4-1.16-.54-.08.03.07,0,.02.07-.03.03-.07.04-.1.07-.17,0-.28-.1-.37-.2-.03-.03-.09-.04-.07-.1-.2-.03-.4-.08-.62-.12-.02,0-.03,0-.05,0-.01,0-.03-.02-.02-.02-.07,0-.1.06-.15,0-.01-.02,0-.02-.02-.02-.05-.02-.14-.02-.2-.02-.28-.04-.69-.04-1.04-.05,0,.03.04.01.05.02.04.06,0,.21.02.3-.09-.01-.11-.03-.25-.02-.01-.02-.02-.03-.02-.05,0,0,0-.04,0-.05,0,0-.02,0-.02,0-.03-.08-.03-.09-.1-.15-.02-.02-.04-.04-.07-.05-.08-.02-.21,0-.32,0-.07,0-.13-.04-.2-.02-.08.03.07,0,.02.07-.04.01,0,.03,0,.07-.08,0-.04.11-.15.07-.03,0,0,.06-.02.07-.02.02-.06,0-.07.02-.04.04-.03.07-.07.1-.12-.03-.27-.02-.44,0-.1.01-.2.06-.27.02-.01.06.05.04.05.07,0,.03.06.03.05.12-.04,0,0,.07-.02.1-.01.01-.06,0-.07.02-.03.01,0,.05-.02.07-.01.02-.04.02-.05.05-.09.03-.07-.06-.15-.05-.08-.02-.09.03-.15.03-.03-.06-.07-.09-.15-.1,0-.06.08-.05.15-.05-.02-.02-.04-.07,0-.07.02-.08-.08-.03-.07-.1-.04-.02-.04-.06-.07-.1,0,0-.04,0-.05,0-.02-.03-.06-.05-.1-.1-.1.01-.16-.02-.22-.05-.01-.06.05-.05.02-.12.1-.08.19.01.3.02.13.02.29.01.42.05.04.04.05.12.1.15.03-.02,0-.05.02-.12.07.03.1-.06.17-.05,0,0,.02.03.05.02.04,0,.05-.04.1-.05.05-.01.07-.01.12-.05.05-.04.14-.1.15-.2.01-.07-.13.02-.12-.05-.05.02.03.04.02.07,0,0-.02,0-.02.02,0,.02-.03.04-.02.07-.01,0-.06-.01-.07,0,0,0,0,.04,0,.05-.02.02-.06,0-.05.05-.03,0-.02-.05-.05-.05,0,.03-.05.02-.05,0-.05.01.04.07-.07.05-.08.03-.02-.06-.07-.07-.07-.02-.07-.05-.12-.12-.01-.02-.04-.03-.05-.05,0,0-.02-.04-.02-.05,0,0-.04,0-.05,0-.03-.04-.11-.1-.22-.1.01-.08-.05-.08,0-.12-.18-.07-.49-.1-.71-.05-.01.04-.01.1-.05.12.02.07.08-.05.12.02.08.02.05-.07.12-.05.08,0,.08.06.1.12.03.04.1.03.1.1,0,.1-.07.15-.15.17-.03.03-.04.07-.07.1,0,.06-.07.03-.07.07-.22.01-.43.04-.62.1-.07,0-.09-.05-.12-.07.03.11.1.18.17.25-.02.07-.07.09-.1.15-.04.03-.04.11-.07.15h-.1s.03.04,0,.05c-.02-.07-.02.07-.1.03-.02-.11.04-.03.05-.07.02-.07-.1,0-.1,0-.02-.03,0-.03-.02-.05-.03-.02-.04-.04-.07-.05.01-.04-.03-.14.02-.15-.02-.05-.07-.02-.02-.07,0-.04-.07,0-.07-.05,0-.05-.07-.02-.07-.07,0-.02-.03-.02-.05-.02,0,0-.07-.02-.07-.02-.02-.03-.05-.02-.1-.02-.02,0-.04-.03-.07-.02-.07,0-.13.06-.2.07-.23.03-.48-.05-.62.02-.08,0-.09-.07-.2-.05-.03,0,0,.03.03.05.03.03.06.06.1.1.02.02.05.02.05.05.04,0,0,.07.05.07-.02.06-.09.08-.12.12,0,.07-.08.05-.07.15-.11-.01-.1,0-.22-.02-.05-.04-.01-.1-.05-.17,0-.01-.04-.01-.05-.02,0,0,0-.04,0-.05,0,0-.02,0-.02,0,0,0,0-.04,0-.05,0,0-.06-.06-.07-.07-.02-.01-.06,0-.07,0,0,0-.02-.05-.02-.05-.02,0-.08.01-.1,0-.02-.02-.02-.02-.05-.02-.02,0-.02-.02-.02-.02-.03,0-.15.04-.15-.05-.03.01-.03.05-.05.07-.02.02-.04.02-.05.05-.22.07-.54.06-.79.02-.06-.06.04-.05.03-.12-.02.02-.06.03-.1.02-.05.05.03.09.07.12.03.05.07.09.12.12.1-.02.17-.06.3-.05.02.03.07.05.1.07,0,.06.04.09,0,.15,0,.01-.01.06-.03.07-.01.01-.06.02-.07.03-.01,0,0,.02-.03.02-.04,0-.14.04-.2.05-.06,0-.07,0-.12.03,0,0-.04,0-.05,0-.04.05-.02,0-.1,0-.06,0-.12.02-.17.02-.08,0-.14,0-.2,0-.06-.01-.13-.02-.12-.1-.07-.01-.02.06-.02.07-.01.03-.04,0-.05.02,0,.01,0,.04,0,.05,0,0-.08-.06-.05.05-.07,0-.08-.05-.12-.07-.1,0-.22-.02-.25.05-.06-.02-.08-.06-.12-.1-.17,0-.27-.09-.42-.12.03.12.09.2.12.32-.16,0-.28.05-.42,0-.04-.04-.03-.14-.07-.17-.02-.11.06.03.07-.05-.07-.16-.15.03-.27.03-.02-.03-.07-.04-.1-.05-.04-.02-.06-.04-.1-.05,0,0,0-.02-.03-.03-.05,0-.1-.04-.2-.02-.05,0,.03.06,0,.12-.04.01-.06.04-.07.07-.13.06-.28.08-.42.15-.03.01-.04.05-.07.05-.03,0-.03.04-.05.05-.01,0-.04,0-.05,0-.03.02-.06.03-.1.05,0,0-.04,0-.05,0,0,0-.02.05-.02.05-.03.01-.09.01-.12.02-.03.01-.1.03-.15.05-.01,0,0,.02-.02.02,0,0-.06.02-.07.02-.02,0-.02.02-.03.02-.04.02-.07,0-.12.03,0,0,0,.02-.02.02,0,0-.02,0-.02,0-.03.01-.08.03-.15.05-.04,0-.11.02-.15.05-.05.03-.07.06-.1.1-.01.01-.04.04-.05.05-.01.02,0,.05-.02.05,0,.04.04.06.1.05-.07.11-.25.01-.37.05-.12.04-.13.07-.17.17.14-.02.36-.06.49,0-.03.05-.04.11-.1.15,0,0-.04,0-.05,0-.06.08-.29.13-.44.15,0,0-.05,0-.05,0-.02.03-.06.02-.15.02-.16.01-.46.04-.69.03-.07,0-.17-.01-.3-.03-.23-.02-.43-.08-.59-.15-.05-.08-.05-.2-.05-.3,0-.04.02-.04.02-.07.01-.06,0-.1.02-.17,0-.01.05-.02.05-.02.01-.03,0-.07.05-.1.03-.02.08-.04.12-.07.01,0,0-.02.03-.02.02,0,.17-.14.2-.17.02-.02.01-.05.02-.07,0-.02.04-.04.05-.05.02-.04.02-.09.05-.12.01-.01.05-.05.07-.07,0,0,.04,0,.05,0,0,0,.02-.05.02-.05,0,0,.04,0,.05,0,0,0,0-.02,0-.02,0,0,.04,0,.05,0,.01-.01.05-.03.1-.05.14-.05.28-.06.39-.12.04-.01,0-.03,0-.07.08-.02.09.03.15.02.07-.02.09-.07.15-.1.07-.01-.03-.03-.02-.07,0,0,.04,0,.02-.03.09.05.08,0,.15-.07.03-.03.07-.05.1-.07.09-.08.16-.14.27-.22.02-.01.03-.04.05-.05,0,0,.04,0,.05,0,.03-.04.11-.07.17-.1,0,0,.04,0,.05,0,.04-.05.17,0,.25-.05.02,0,.03-.04.05-.05.03-.02.05,0,.07-.02,0,0,.01-.04.02-.05.02-.02.05,0,.07-.02,0,0,.01-.04.03-.05.02-.02.05-.01.07-.02.01,0,.02-.03.05-.02,0-.08.05-.1.07-.15-.14.03-.15.19-.32.2,0-.05.04-.08.07-.12.11-.14.28-.3.42-.44.11-.11.23-.21.37-.32.04-.03.09-.08.15-.12.02-.01.08-.1.12-.1.04,0,.05-.07.1-.07.04,0,.05-.07.1-.07.03,0,.06-.08.12-.07.04-.07-.02-.09.05-.15.15-.1.3-.2.44-.3.15-.1.29-.2.44-.3,0-.03-.02,0-.05,0-.01,0-.02.02-.03.02-.04,0-.04-.04-.1,0-.02.01-.03.04-.05.05-.03.02-.05.01-.07.03-.02,0-.04.04-.05.05-.03.02-.05,0-.07.02-.01,0-.04.04-.05.05-.04.02-.08.03-.12.05-.02,0-.04.04-.05.05-.03.02-.05,0-.07.03-.02.01-.03.04-.05.05-.07.05-.2.11-.27.17-.05.03-.09-.01-.17.02-.01,0,0,.02-.02.03-.06,0-.04.05-.1.05-.04,0-.08.07-.12.07,0,0-.04.02-.05.03,0,0-.02.05-.02.05-.01,0-.04,0-.05,0-.03.02-.04.1-.1.1-.04,0-.13.11-.17.15-.2.16-.4.34-.54.49-.02.02-.06.03-.1.02-.21.28-.48.49-.67.79-.05-.03,0-.1.02-.12.01-.02.04-.03.05-.05.02-.03.06-.1.1-.15.04-.05.08-.08.12-.15.02-.04.08-.07.12-.12.05-.06.09-.14.15-.2.22-.24.5-.44.71-.67-.08-.03-.15.06-.17,0-.03-.06.04-.05.07-.07.02-.02.03-.06.05-.07.02-.02.07-.03.1-.05,0,0,.02-.05.03-.05.01,0,.04,0,.05,0,.03-.03.04-.06.07-.1.03-.03.08-.05.1-.07,0,0,0-.04,0-.05,0,0,.05-.02.05-.02.02-.03,0-.06.02-.1,0-.01.02,0,.02-.02,0-.02.04-.08.05-.12,0-.07-.03-.15-.02-.25.07-.09.16-.17.27-.22-.04-.3.19-.33.17-.62.03-.01.07-.05.1-.07.02-.01.05,0,.07-.02.01,0,.01-.04.02-.05.02-.02.05-.01.07-.02.01,0,0-.02.02-.02.03,0,.06-.09.12-.07,0-.04.01-.08.02-.12.02-.05.05-.14.07-.2.01-.04.03-.1.05-.15,0-.01.02,0,.02-.02,0-.03.01-.05.03-.07,0,0,.02-.02.02-.03.02-.03,0-.06.03-.1,0-.01.05-.02.05-.02.01-.03,0-.07.02-.1,0-.01.04-.01.05-.02,0,0,0-.04,0-.05.08-.07.18-.22.27-.32.07-.09.16-.17.25-.27.22-.25.52-.54.79-.79.04-.04.08-.09.12-.12.05-.04.1-.08.15-.12.04-.04.09-.08.15-.12.03-.02.07-.03.1-.05,0,0,.02-.05.02-.05.01,0,.04,0,.05,0,.02-.02.03-.06.05-.07,0,0,.04,0,.05,0,0,0,.02-.04.02-.05,0,0,.04,0,.05,0,.02-.02.03-.07.07-.07,0,0,.04-.02.05-.03,0,0,.02-.05.03-.05.01,0,.04,0,.05,0,.02-.02.03-.06.05-.07,0,0,.04,0,.05,0,.03-.04.07-.06.12-.1.01-.01,0-.02.03-.03.05,0,.05-.07.1-.1,0,0,.04,0,.05,0,.05-.07.17-.14.27-.2.28-.18.66-.44,1.06-.49-.04.04-.08.09-.12.12,0,0-.04,0-.05,0-.04.04.03.06-.05.07-.03.08.08.02.05.1-.1.04-.18.1-.22.2-.05-.01-.05.04-.07.05,0,0-.04,0-.05,0,0,0-.02.04-.03.05,0,0-.04,0-.05,0-.03.03-.05.04-.1.07,0,0-.02.05-.02.05-.03.02-.06.02-.1.05-.03.02-.05.03-.07.05-.02.01-.03.04-.05.05,0,0-.04,0-.05,0-.03.03-.05.04-.1.07-.01,0,0,.02-.02.02,0,0-.04.02-.05.03-.02.01-.03.04-.05.05-.09.06-.18.11-.27.17-.35.24-.69.49-1.01.76-.24.2-.46.41-.69.64-.07.07-.15.15-.22.22-.07.08-.13.16-.2.25-.02.02-.06.03-.07.05-.02.02,0,.05-.02.07-.02.02-.06.03-.07.05-.02.02,0,.05-.03.07-.02.02-.06.03-.07.05-.02.02,0,.05-.03.07-.02.02-.06.03-.07.05-.02.02,0,.05-.02.07,0,0-.05.02-.05.02-.02.03-.02.06-.05.1,0,.01-.02,0-.02.03,0,.02-.05.07-.07.1.02.06.07-.05.1-.07.1-.09.21-.21.32-.32.14-.14.29-.26.44-.39.02-.02.03-.06.05-.07.02-.02.05,0,.07-.02.03-.03.06-.07.1-.1,0,0,.02-.05.03-.05.03-.01.06-.02.1-.05.03-.03.06-.07.1-.1,0,0,.02-.05.03-.05.03-.01.06-.02.1-.05.03-.03.06-.07.1-.1.04-.03.08-.06.12-.1.03-.03.07-.07.1-.1.04-.04.08-.06.12-.1.02-.01.03-.04.05-.05.02-.01.05,0,.07-.02.04-.03.06-.09.1-.12.02-.02.06,0,.07-.02.02-.01.03-.03.05-.05.03-.03.09-.07.12-.1.02-.01.03-.04.05-.05.02-.01.05,0,.07-.03.02-.02.03-.06.05-.07.02-.02.05,0,.07-.03.03-.03.06-.07.1-.1.02-.01.03-.01.05-.02.01,0,.02-.02.02-.02.04-.02.08-.04.12-.07.02-.01.04-.04.05-.05,0,0,.04,0,.05,0,.04-.05.15-.1.22-.15.18-.1.36-.2.54-.3.03-.01.05-.03.05-.07.02-.02.07-.02.07-.05.11,0,.19-.05.3-.07.09-.02.05-.1.07-.15.05-.02.1-.02.15-.05.02,0,.03-.04.05-.05,0,0,.04,0,.05,0,.02-.02.06-.05.12-.07.04-.02.08-.03.12-.05.02,0,.04-.04.05-.05.03-.02.05-.01.07-.03.03-.02.08-.03.12-.05.02,0,.03-.04.05-.05,0,0,.04,0,.05,0,.02-.02.02-.02.05-.02,0,0,.07-.02.07-.02.02-.02.12-.08.17-.1.04,0,.06,0,.1-.02.02,0,.03-.04.05-.05,0,0,.04,0,.05,0,.04-.05.16-.08.25-.12.04-.02.09-.04.12-.05.08-.03.14-.02.22-.05.09-.03.32-.04.49,0,0,.06-.01.06-.07.07-.03,0-.09.07-.17.05,0,.03.05.02.07.02,0,.06-.02.11-.07.12-.04.02-.08.04-.07.1,0,.03.04.02.07.02,0,.04-.17.06-.05.07-.02.07-.12.06-.17.1.02.15.22.11.32.17.01.05-.02.09-.05.12,0,0-.04.04-.05.05,0,0-.04,0-.05,0-.03.03-.13.11-.22.12,0,.03.06.02.1.03.01.06-.05.07-.07.1-.08.07-.2.15-.3.22-.25.18-.52.36-.81.52-.04.02-.08.03-.12.05-.02,0-.04.04-.05.05,0,0-.04,0-.05,0,0,0,0,.02,0,.03-.03.02-.09.03-.12.05-.01,0,0,.02-.02.02,0,0-.06.02-.07.02-.02,0-.03.04-.05.05,0,0-.04,0-.05,0,0,0,0,.02,0,.02-.04.02-.09.03-.12.05-.02,0-.04.04-.05.05,0,0-.04,0-.05,0-.02.02-.05.04-.1.07-.14.08-.28.16-.42.25-.02,0-.06.01-.07.02-.01,0-.01.04-.02.05-.03.02-.05.01-.07.03-.01,0,0,.02-.02.02-.04,0-.08.05-.12.07-.03.02-.07.03-.1.05-.02.01-.03.04-.05.05-.02.01-.03.01-.05.02-.02.01-.05.01-.07.02-.01,0-.01.04-.02.05-.02.02-.05.01-.07.03-.01,0,0,.02-.03.02,0,0-.02,0-.02,0-.03.02-.05.06-.07.07-.02.01-.05,0-.07.02-.01,0-.01.04-.02.05-.03.02-.05.01-.07.03-.01,0,0,.02-.02.02-.02,0-.05.04-.07.05-.02,0-.03.01-.05.03-.03.02-.05.06-.07.07-.02.02-.05.01-.07.02-.01,0,0,.02-.02.02-.02,0-.05.04-.07.05-.03.02-.05.05-.1.07-.02,0-.03.01-.05.02-.03.02-.05.06-.07.07-.02.01-.05,0-.07.02-.01,0-.01.04-.02.05-.02.02-.05,0-.07.02,0,0-.01.04-.02.05-.02.02-.05.01-.07.02-.01,0,0,.02-.02.02-.02,0-.06.05-.1.07-.1.07-.18.14-.3.22-.02.01-.05.05-.07.05-.04,0-.05.07-.1.07-.04,0-.05.07-.1.07-.04,0-.06.07-.1.1,0,0-.04,0-.05,0-.05.07-.15.13-.25.2-.02.01-.03.04-.05.05-.02.01-.03.01-.05.03-.03.02-.05.05-.07.07-.02.01-.03.04-.05.05,0,0-.04,0-.05,0-.04.04-.13.12-.2.17-.03.02-.04.05-.07.07-.02.02-.05,0-.07.02-.01,0-.01.04-.02.05-.02.02-.05,0-.07.02-.01.01-.01.04-.02.05-.02.01-.05,0-.07.03-.01,0-.01.04-.02.05-.03.02-.07.03-.1.05-.03.02-.04.05-.07.07-.06.05-.13.08-.17.15"/>
        <path class="cls-2" d="M20.94,17.72c-.09.03-.08-.05-.12-.07,0,.07.1.17.12.07M20.62,17.62c0-.05-.16-.12-.1-.07.02.03.07.05.1.07M18.65,16.91c-.05-.05-.08.04-.1.1-.06,0-.08-.05-.07.05-.15,0-.17-.02-.3,0,0-.04-.05,0-.07-.03-.01,0,0-.06-.02-.05-.06,0-.11.03-.12.07-.08-.03-.07,0-.17,0-.03-.04-.08-.05-.07-.12.05.03.12-.04.05-.05,0-.05.05,0,.05,0,.05,0,.06-.05.1-.05.05,0,.08.04.17.02.11-.01.13-.09.22-.12,0-.07.06-.08.05-.15.04,0,.07,0,.07.02.04-.02.08-.04.07-.1.04,0,.07,0,.07-.02.04.02.02.06-.02.05.02,0,.03.04.05.05.02,0,.06.01.07.02.01.01,0,.07.05.05,0,.09,0,.26-.07.2-.02.09.12.03.12.1.06,0,.11.03.12.07.03,0,.07,0,.07.03.15-.03.21.04.32.05,0,.1.11.11.1.22.05,0,.03-.07.1-.05.02-.07-.03-.06-.02-.12.15,0,.24.04.37.05.03-.01.05-.03.05-.07.04,0,.05-.02.05-.05.05-.01.07.02.1.02.05,0,0-.06,0-.05.03-.06.09,0,.1-.07.08,0,.07.08.17.05.02,0,.02-.03.03-.05.07.02,0,.1,0,.15-.1.02-.08-.08-.2-.05,0,.06.14-.02.1.07.08.02.09-.04.17-.02.03-.02.03-.06.07-.05.02.06-.05.05-.07.07,0,0,0,.04,0,.05-.02.02-.06,0-.07.03.01.02.15.06.02.07.03.07.12.02.22.05,0,.07,0,.14.02.17.04-.05.22,0,.15.05.08.02.03-.1.12-.07,0,.02,0,.05,0,.07.03.05.06,0,.07.07.02.08.14.05.15.15-.04,0-.04-.02-.07-.03-.07.02.07.05.03.12-.05-.01-.03.06-.05.07,0,0-.06-.04-.07,0,.02.09.06,0,.15.02-.03.06-.02.15-.05.2-.01.02-.02.02-.05.02-.02-.02-.03-.15.05-.15,0-.05-.1,0-.15-.02.04-.14-.03-.16-.1-.25-.05,0,.04.07-.05.07,0,.07.1-.07.07.05-.09,0-.14-.03-.2-.05.05-.05-.01-.04,0-.12,0-.03-.04-.04-.05-.07-.13,0-.17-.07-.27-.1.03-.02,0-.09.07-.07,0-.03,0-.07.03-.07,0-.06-.27-.01-.12,0,0,.06-.09,0-.1-.02-.06,0,.04.05-.02.1-.1-.01-.2-.03-.22-.12-.04.01-.06.04-.1.05-.04,0-.04-.02-.07-.02-.02,0-.13.05-.22.02,0-.06-.11.01-.07-.07-.07.03.03.1.05.12-.01.05,0,.11-.07.1.02.02.03.06.02.1-.05.01-.11,0-.1.07-.12-.05-.18.06-.3,0-.02-.13.09-.28-.07-.3-.02-.04.04-.05.02-.07-.02-.04-.07-.02-.1-.05-.02-.02,0-.06-.02-.07,0,0-.04,0-.05,0,0,0,0-.02,0-.02,0,0-.04,0-.05,0,0,0,0-.02,0-.03,0,0-.04,0-.05,0-.02-.02-.07-.09-.15-.07,0-.1.05-.11.07-.22"/>
        <path class="cls-2" d="M18.35,17.52c-.07,0-.08-.06-.15-.05-.01.06.14.08.15.05M18.08,17.67c-.02-.08.04-.07.03-.15-.01-.05-.1-.02-.07-.1.14,0,.25-.01.35-.05.05-.04.09-.09.12-.15.11-.02.14.06.25.05-.03.09-.06.18-.07.3-.07-.03-.04.05-.05.1-.04,0-.04-.02-.07-.03-.06.02.09.08-.02.1-.09,0-.06-.06-.05-.12-.13,0-.11.04-.2.02,0,0,.03-.04.02-.05-.01-.02-.11.01-.15,0,0,.05,0,.08.05.07-.02.07-.06-.03-.12,0"/>
        <path class="cls-2" d="M20.87,18.19c-.07.02-.06-.03-.12-.03-.07.02.02.05,0,.1-.03.03-.12.03-.15,0v-.1s.05-.02.05-.05c.04,0,.05.02.05.05.07-.02.03-.04.02-.1.04,0,.05.02.05.05.05,0,.08-.02.1-.05.05,0-.03.06,0,.12"/>
        <path class="cls-2" d="M21.53,18.53s.03-.02.05-.02c0,.02,0,.02.03.02-.01.02-.11.08-.05.1,0,.02,0,.02-.02.02h-.05s.02-.05.05-.05c0-.04.04-.06,0-.07"/>
        <path class="cls-2" d="M22.54,18.78c.02.11-.04.17-.03.02-.03,0-.04,0-.05-.02-.04.02-.09.05-.07.12-.02,0-.02,0-.02-.02h-.05c-.03-.08.08-.02.05-.1.03,0,.04,0,.05-.03.06,0,.05.05.12.03"/>
        <path class="cls-2" d="M19.39,16.71c.12-.05-.04-.04-.03-.12.05,0,.11,0,.1.07.06-.04.07.04.1.05.03.01.09.01.12.02.02,0,.05.03.1.02,0,.05,0,.08-.05.07-.01.06.05.05.02.12,0,.09-.07.06-.02.15-.13.02-.19-.04-.27-.07,0-.13-.05-.21-.17-.22.03-.13-.15-.06-.15-.17.03,0,.07,0,.07-.03.06.03.17.01.17.1"/>
        <path class="cls-2" d="M17.05,17.03c.01.09,0,.16-.05.2,0,.07.03.08.02.12,0,.02-.08.03-.02.1-.07,0-.08.06-.15.05-.02-.02-.01-.07-.05-.07-.08-.02-.03.1-.12.07-.03-.18-.23-.04-.39-.07.02-.1.1-.08.05-.2.11-.02.21-.05.32-.07.07-.04.1-.12.15-.17.08.02.16.04.25.05"/>
        <path class="cls-2" d="M17.56,16.83s.03.05.02.1c.02.06.07.07.12.1,0,.03,0,.04.02.05-.02.1.02.14.03.22-.04.03-.08.07-.17.05,0,.03.05.02.07.03-.02.11-.15,0-.2,0-.02,0-.09-.04-.12-.07-.03-.05.04-.04.05-.05,0-.03-.05-.06-.03-.12,0-.03-.06-.03-.07-.05-.02-.02,0-.06-.03-.07,0,0-.04,0-.05,0,0,0,0-.02,0-.02,0,0-.04,0-.05,0-.02-.02-.07-.03-.12-.05-.01,0,0-.02-.02-.02-.06,0-.11-.03-.17-.07.03-.05.03-.14.07-.17.06-.01.16.03.22.05.04.02.14.03.22.05,0,0,0,.02.03.03.06.01.1.03.17.05"/>
        <path class="cls-2" d="M8.66,17.6v.15c-.3.17-.69.25-1.11.3,0-.04.01-.05.02-.07,0-.01.01-.06.03-.07.05-.06.14-.07.22-.12.02-.01.03-.03.05-.05.02-.02.05,0,.07-.02.03-.02.05-.08.1-.07.04,0,.01-.05.02-.07,0-.01.04-.01.05-.02.02-.04.03-.09.05-.12.04-.01.14.03.15-.02.04,0,.04.02.07.02v.1s.05.02.05.05c.06.03.17.01.22.05"/>
      </g>
    </g>
  </g>
</svg>