<?xml version="1.0" encoding="UTF-8"?>
<svg id="_圖層_2" data-name="圖層_2" xmlns="http://www.w3.org/2000/svg" xmlns:xlink="http://www.w3.org/1999/xlink" viewBox="0 0 26.63 26.63">
  <defs>
    <style>
      .cls-1 {
        fill: none;
      }

      .cls-2 {
        fill: #fff;
      }

      .cls-3 {
        fill: url(#_未命名漸層_4);
      }

      .cls-4 {
        clip-path: url(#clippath);
      }
    </style>
    <clipPath id="clippath">
      <rect class="cls-1" width="26.63" height="26.63" rx="4.01" ry="4.01"/>
    </clipPath>
    <linearGradient id="_未命名漸層_4" data-name="未命名漸層 4" x1="-846.57" y1="450.94" x2="-845.76" y2="450.94" gradientTransform="translate(31180.37 -58473.73) rotate(-90) scale(69.12 -69.12)" gradientUnits="userSpaceOnUse">
      <stop offset="0" stop-color="#009794"/>
      <stop offset="1" stop-color="#00ada9"/>
    </linearGradient>
  </defs>
  <g id="_圖層_1-2" data-name="圖層_1">
    <g>
      <g>
        <path class="cls-2" d="M4.92,10.87s.05-.1.08-.06c-.03.02-.05.08-.08.06"/>
        <path class="cls-2" d="M9.3,9.63s.04.09-.02.07c-.02-.03,0-.05.02-.07"/>
      </g>
      <polygon class="cls-2" points="8.92 9.62 8.94 9.62 8.95 9.6 8.93 9.6 8.92 9.62"/>
      <polygon class="cls-2" points="19.17 10.01 19.17 10.04 19.19 10.04 19.19 10.01 19.17 10.01"/>
      <g>
        <path class="cls-2" d="M18.31,10.08s0,.04.03.03c0,.02-.02.01-.04.02v-.05Z"/>
        <path class="cls-2" d="M18.77,10.1h-.04c-.01-.05.05-.06.04,0"/>
        <path class="cls-2" d="M19.33,10.04h.03s-.02.06-.05.05c0-.02.03-.02.02-.05"/>
        <path class="cls-2" d="M17.78,10.18s.04.03,0,0"/>
        <path class="cls-2" d="M19.5,10.07v.06s-.03.03-.06.02h0s-.02-.04-.02-.04c0-.04.05-.04.08-.05"/>
        <path class="cls-2" d="M18.63,10.11s.03.01.03.05h-.04s0-.05,0-.05Z"/>
        <path class="cls-2" d="M20.73,10.27s-.03-.02-.05-.02c-.04,0-.09,0-.11-.02,0-.02.03,0,.05,0,0,0,.02-.02.03-.02.04,0,.11,0,.09.07"/>
        <path class="cls-2" d="M15.15,10.8s.04-.03.03,0h-.02s0,0-.01,0"/>
        <path class="cls-2" d="M15.34,10.75s.03,0,.04.02h-.03s0-.02,0-.02Z"/>
        <path class="cls-2" d="M15.45,10.74s.08-.02.09.03c-.04.01-.08.02-.09-.03"/>
        <path class="cls-2" d="M14.82,10.97s.02-.01.04-.01c.02,0,.03-.02.04.01l-.05.02s-.01-.02-.03-.02"/>
        <path class="cls-2" d="M15.71,10.72h.05s0,0-.02,0c0,.02.02.02.02.05h-.1c0-.07.08.04.05-.05"/>
        <path class="cls-2" d="M14.9,10.97c.01-.05.07,0,0,0"/>
      </g>
      <polygon class="cls-2" points="15.06 10.96 15.08 10.97 15.08 10.94 15.06 10.94 15.06 10.96"/>
      <g>
        <path class="cls-2" d="M15.8,10.75s.03,0,.03.02h-.03s0-.02,0-.02Z"/>
        <path class="cls-2" d="M15.37,10.95s.08,0,.11,0c0,.02-.03.01-.02.03-.04-.03-.06.02-.09-.04"/>
        <path class="cls-2" d="M15.59,10.98s-.05,0-.08,0v-.04s.07-.02.08.03"/>
        <path class="cls-2" d="M15.02,11.09v.04s.07,0,.09,0c0,0,0,.02-.02.02h-.03s-.01-.01-.01-.01l-.02.02s-.04-.02-.06-.02c0-.03.02-.03.04-.04"/>
        <path class="cls-2" d="M15.15,11.12s.04,0,.04.03c-.02.01-.04,0-.04-.03"/>
        <path class="cls-2" d="M15.5,11.11s.02.05.04.05c0,.02-.02,0-.03,0-.01,0-.03.04-.04,0-.03.01-.06.02-.09.01,0-.04-.04,0-.04-.05l.02-.02s.08-.01.1.02c.02,0,.01-.03.04-.02"/>
        <path class="cls-2" d="M16.19,11.2s.05.03.03.07c-.02,0-.05-.02-.04.02-.02-.02-.03-.02-.06,0-.03-.03-.02-.03-.03-.08-.03,0-.02.05-.06.05,0-.06-.07,0-.07-.06-.03,0-.05,0-.06,0-.03.04-.1,0-.13.05-.03-.03-.07-.05-.11-.06,0-.05.03-.01.05,0,.01,0,0-.02,0-.04.02-.02.03.01.04.01.01,0,.04-.02.04.01.02,0,0-.04.04-.04.02.05.11.06.13,0,.03,0,.04.04.07.05.05,0,.03-.04.07-.04.03,0,.04.03.07.02.01,0,0-.02,0-.04,0,0,.01.01.01.02.04-.02.05.03.08.03,0,.04-.05-.02-.04.03-.02,0-.02-.03-.04-.01"/>
      </g>
      <g>
        <g class="cls-4">
          <rect class="cls-3" width="26.63" height="26.63"/>
        </g>
        <g>
          <path class="cls-2" d="M4.01,1.95c-1.14,0-2.06.92-2.06,2.06v18.61c0,1.14.93,2.06,2.06,2.06h18.61c1.14,0,2.06-.93,2.06-2.06V4.01c0-1.14-.93-2.06-2.06-2.06H4.01ZM22.62,25.57H4.01c-1.62,0-2.95-1.32-2.95-2.95V4.01c0-1.62,1.32-2.95,2.95-2.95h18.61c1.62,0,2.95,1.32,2.95,2.95v18.61c0,1.62-1.32,2.95-2.95,2.95"/>
          <path class="cls-2" d="M5.1,10.37s.06-.04.1-.09c.05.04-.01.1-.07.16-.02-.02-.02-.05-.03-.08"/>
          <path class="cls-2" d="M5.42,10.13c.04.05-.06.06-.08.11-.02-.01,0-.03.02-.05.01-.03.01-.06.05-.06"/>
          <path class="cls-2" d="M4.64,11.28s-.01-.03,0-.04c.04-.04.02.12,0,.04"/>
          <path class="cls-2" d="M7.29,9.44s0,.08-.06.07c0-.02.01-.04.02-.05,0-.01.01-.03.04-.03"/>
          <path class="cls-2" d="M6.44,14.15s-.07-.02-.06-.05c.04,0,.07-.02.11,0-.02.03-.06.01-.06.06"/>
          <path class="cls-2" d="M7.39,9.5s-.03,0-.05,0c0-.03.05-.03.05,0"/>
          <path class="cls-2" d="M5.94,13.96l-.04-.02.02-.03s.04.03.02.05"/>
          <path class="cls-2" d="M5.43,13.62s.02.02.06.04c0,.04-.1-.03-.06-.04"/>
          <path class="cls-2" d="M5.7,10s.03,0,.04.01h-.03s-.01-.01-.01-.01Z"/>
          <path class="cls-2" d="M4.62,12.22s.04.02.05.07c-.03,0-.06-.04-.05-.07"/>
          <path class="cls-2" d="M5.99,9.95c.05-.01,0-.06.05-.08,0,.01.01.02.02.02.03.02-.02.02-.02.05,0,0,.04.03.03.05,0,.01-.03.02-.04.03-.02,0-.02-.02-.03-.03-.03-.02-.07,0-.09-.05.04,0,.03-.08.07-.06.02-.01,0-.04.04-.04.02.04-.07.06-.04.11"/>
          <path class="cls-2" d="M4.64,11.73c.09,0-.02.17.06.18-.04.08-.12-.07-.06-.18"/>
          <path class="cls-2" d="M8.56,9.55s-.04.03-.05,0c0-.03.04-.03.05,0"/>
        </g>
        <polygon class="cls-2" points="5.94 13.89 5.97 13.9 5.98 13.88 5.96 13.87 5.94 13.89"/>
        <g>
          <path class="cls-2" d="M7.02,14.19s0-.04-.02-.04c0-.02.02,0,.04,0l-.02.05Z"/>
          <path class="cls-2" d="M6.5,14.03h.05c0,.07-.08.05-.05,0"/>
          <path class="cls-2" d="M5.78,13.77l-.03-.02s0-.01,0-.02c.02-.01.05-.02.08,0-.01.02-.04,0-.05.03"/>
          <path class="cls-2" d="M7.48,14.22s-.02-.04,0,0"/>
          <path class="cls-2" d="M5.59,13.62l.03-.05s.05,0,.09.03h0s.01.04.01.04c-.02.03-.08,0-.13-.02"/>
          <path class="cls-2" d="M6.67,14.07s-.04-.03-.03-.06h.05s-.02.03-.02.06"/>
          <path class="cls-2" d="M4.78,11.89s-.01.04-.01.08c0,.07.03.14.02.19-.02,0-.01-.05-.02-.07,0,0-.03-.03-.03-.04-.02-.08-.02-.17.04-.16"/>
          <path class="cls-2" d="M9.9,14.55s-.04.01-.03-.02h.02s0,.02,0,.02Z"/>
          <path class="cls-2" d="M9.72,14.51s-.03,0-.02-.03h.03s0,.03,0,.03Z"/>
          <path class="cls-2" d="M9.63,14.48s-.07-.01-.06-.06c.04,0,.07.01.06.06"/>
          <path class="cls-2" d="M10.23,14.54s-.02,0-.04,0c-.01,0-.03,0-.02-.03h.04s0,.03.01.03"/>
          <path class="cls-2" d="M9.41,14.4h-.04s.01-.01.02-.02v-.05s.08.04.08.04c-.02.07-.05-.06-.06.03"/>
          <path class="cls-2" d="M10.16,14.5s-.05-.04,0,0"/>
        </g>
        <polygon class="cls-2" points="10.01 14.45 10.02 14.47 10.04 14.44 10.02 14.43 10.01 14.45"/>
        <g>
          <path class="cls-2" d="M9.34,14.34s-.03,0-.02-.03h.03s0,.03,0,.03Z"/>
          <path class="cls-2" d="M9.78,14.33l-.09-.05s.03,0,.03-.02c.02.04.06,0,.06.07"/>
          <path class="cls-2" d="M9.61,14.22s.03.03.07.02v.03s-.08-.01-.07-.06"/>
          <path class="cls-2" d="M10.12,14.35v-.03s-.04-.02-.06-.04h.02s.02,0,.02,0h0s.02,0,.02,0c.02.01.02.04.04.04,0,.03-.03.02-.05.02"/>
          <path class="cls-2" d="M10.03,14.28s-.03,0-.02-.04c.02,0,.03.01.02.04"/>
          <path class="cls-2" d="M9.73,14.14s0-.05-.02-.06c0-.02.02,0,.03,0,.01,0,.05-.02.03.02.03,0,.06.01.08.02-.01.04.03.02.02.06h-.02s-.07-.01-.07-.05c-.02,0-.02.02-.05,0"/>
          <path class="cls-2" d="M9.18,13.8s-.03-.05,0-.07c.02,0,.03.03.05,0,.02.02.02.03.05.02.01.04,0,.04,0,.08.03,0,.04-.03.07-.02-.02.06.06.02.04.08.03,0,.05.01.05.03.05-.02.08.03.13,0,.02.03.04.07.07.09-.01.04-.03,0-.04-.02-.01,0-.01.02-.01.03-.02.01-.02-.02-.03-.03-.01,0-.04,0-.03-.03-.02,0-.02.03-.05.02,0-.05-.08-.09-.11-.05-.03,0-.02-.05-.04-.07-.04-.02-.04.03-.08.01-.03,0-.02-.04-.06-.05-.01,0-.01.02-.01.03,0,0,0-.02,0-.03-.04,0-.03-.04-.05-.06.02-.03.04.03.05-.02.02,0,0,.03.03.03"/>
        </g>
        <polygon class="cls-2" points="7.79 12.84 7.8 12.84 7.81 12.82 7.79 12.81 7.79 12.84"/>
        <path class="cls-2" d="M7.19,12.54s-.04,0-.03-.04c.02,0,.05,0,.03.04"/>
        <rect class="cls-2" x="6.56" y="11.93" width=".02" height="0" transform="translate(-5.52 5.65) rotate(-33.69)"/>
        <g>
          <path class="cls-2" d="M8.88,13.77s0-.04.02-.08c.03.04.07,0,.11,0,.02.04-.02.06-.03.09-.04-.01-.08.01-.11-.02M6.76,9.78s.04.02.04.05c-.04,0-.04-.02-.04-.05M4.81,11.28s.02,0,.03.01c-.02.03-.02,0-.03-.01M4.72,11.1c0-.06.07-.03.03.01h-.03ZM8.02,9.53s0-.01,0,0v.02s-.03.03-.03.03c-.01.01-.02.05-.04.05-.01-.04,0-.03,0-.06-.03-.01-.02.03-.05.02.02-.08-.09-.02-.09-.09.04-.02.07.02.08-.03-.06,0-.1,0-.18,0,0-.03,0-.04-.02-.05,0,.03-.05,0-.07.01l-.09-.02-.05.03s.03.06,0,.07c-.05.01.02-.05-.04-.03-.03,0,.02.02,0,.05,0,.02-.03,0-.04.01-.01.01,0,.06-.04.05-.02-.03,0-.04-.02-.07-.06,0-.04.05-.08.05h-.03s-.01-.04-.05-.03c-.02,0,0,.01,0,.02l-.02.03c-.07,0-.1.04-.14.03,0,.05.05.04.04.1l-.03.03s-.04.03-.06,0c.02-.06-.03-.08-.06-.1-.01,0-.01-.02-.03-.02-.01,0-.01,0-.02,0-.02,0-.04.02-.08.03-.04,0-.05,0-.08.02,0,0,0,.02-.02.02-.04-.02-.06-.07-.07-.12h-.05s-.02-.04-.07-.03c0,.02.02.04,0,.05-.03.01-.03-.04-.07-.02,0,.02,0,.05-.02.07-.03.02-.05-.01-.03.03.02.03.08-.02.07.05-.05.02-.1.05-.12.01-.02-.03,0-.05-.02-.08-.01,0-.03.01-.03,0-.05,0,0,.04-.04.05-.04.02-.05.04-.1.05,0,.05.05-.01.05.02,0,.04-.03.01-.04.04,0,.02.02.04,0,.05-.06-.02,0,.06-.05.07.03.05.05.02.05.08-.05.02-.07.05-.1.05,0,0-.02-.03-.03,0,.03.04.02.03.05.08.02,0,.05,0,.07.02v.06s-.04,0-.06,0c0-.04-.04,0-.06-.02,0-.02-.03-.01-.03-.03.02-.01.03-.03.04-.04,0-.02-.02-.03-.03-.04.02,0,.04-.02.02-.04-.04-.04-.1.08-.13,0,.02-.02.03,0,.05-.02-.02-.09-.11,0-.16,0,.01.03.01.06,0,.09-.03-.03-.09,0-.14.04-.01-.04-.04-.02-.07-.01.04.04-.02.08-.06.12,0,0-.02,0-.03,0-.02-.04-.05-.04-.08-.03.02.04-.04.05-.06.07-.02.02,0,.05-.04.06-.05.05-.08.03-.13.09-.02.05,0,.09-.07.15.01.03-.02.07.03.09.06-.06-.04,0,0-.05.03-.06.06-.03.09-.06-.01-.03.04-.1.08-.09.03.02,0,.06,0,.09,0,.03,0,.06-.04.1-.03,0,0-.04-.04-.05-.03.04,0,.07-.06.12,0,.02.01.04.04.05-.05.07.04.09-.02.16-.02.04-.05,0-.07.02-.03.01-.05.06-.01.07.02.02.03-.07.05-.04,0,.05.08.05.06.1-.02.01-.03-.01-.05,0,0,0-.01.02-.02.03,0,0-.03,0-.03,0-.02,0-.04-.02-.07-.02-.02,0-.02.04-.05.02,0-.03.01-.06.03-.09-.03-.02.03-.08-.03-.09-.01.02-.03,0-.04.02.01,0-.04.08-.06.09-.04-.04-.07-.02-.1-.07-.05.08-.05-.02-.1.04.01,0,0,.03-.01.06.02,0,.04,0,.04.04-.01.02,0,.04,0,.06-.02.07-.02.08-.04.11v.04c-.04.08-.04.1-.02.14,0,0,0,.03,0,.04,0,.06,0,.11,0,.14,0,.02.03.01.04.03.03,0,.03-.07.06-.07,0,.06.07,0,.07.08h-.07s-.01.1-.01.1c.01.03.04,0,.06.02,0,0,0,.06.02.04.03-.05-.02-.11.01-.14,0,.03.01.05.02.07,0,.05,0,.07,0,.09.02.04,0,.07.03.12-.02.02-.04.04-.04.09,0,.04.03.02.03.07-.02,0-.02.05-.04.06-.02-.02-.04-.05-.07-.05,0,.03.01.07,0,.08-.03-.01-.07-.15-.09-.04.01.03.05,0,.05.03-.02.05,0,.09.01.15,0,.04-.02.05-.02.08.04-.02.06.03.09.07,0,.05.04.12-.02.12l-.03-.09c-.06-.03-.04.07-.1.01.03.11.08.17.14.13.02.05.08.07.07.11.05-.02-.05-.08,0-.1l.08.16s0-.05,0-.06c0-.02.04-.03,0-.06-.03.03-.04-.06-.06-.09.04-.02,0-.08.04-.09.01.03-.02.03,0,.07.07.03.11.14.18.21,0,.03,0,.07.01.11.04-.02.07.07.1.11-.03.02-.03.05-.02.08.03.01.05.01.08.04,0,.01,0,.03,0,.05-.03.06-.08.01-.11.03,0,.04.04.03.07.07,0,.01,0,.03,0,.05-.06,0-.02.07-.03.1l.09.09c.06-.02-.05-.12,0-.11,0,.03.04.07.09.11.03,0,.06-.04.05-.06.01.04.06.04.08.03-.02-.01,0-.03,0-.04-.02-.01-.06-.03-.03-.05.04.03.02,0,.06.04.05-.03.06,0,.1.03h.04s.06.03.06.03c0,.01.02.02.01.03.02.01-.01.03,0,.05.03,0,.06-.03.1,0,.02.05.11.04.12.08-.05.03-.03.08-.08.12.03.03.04.03.1.07-.04.06.05.04.04.09-.07,0-.1-.06-.14,0,.04.02.07,0,.11.02.04.03.09.02.09.01h.03s0,0,0,0h.03s.02-.02.04-.02c.05.03.06,0,.09-.01,0,.04.05,0,.09.02.02-.05-.09-.07-.12-.06,0-.02-.05-.02-.04-.05.03.05.02-.04.05-.03l.07.02s0,.07.04.08c.03.01.02-.04.05-.03.05,0,.13.02.16.04.02-.02.05-.02.08,0,0,.03-.01.04-.03.05.05,0,.09.05.05.07.03,0,.08.03.09,0-.03-.02-.06-.05-.04-.1.09.02.11.02.15.02,0,.02,0,.04.01.05.01-.03.03,0,.05,0,.01,0,.02-.03.04-.02.03.02.08.05.11.02,0,.02.02.02.02.03-.01.03.01.03.01.05.03,0,.03-.06.07-.04v.02s-.06.02-.07.07c.03,0,.05-.02.08-.02,0,.03-.02.03,0,.06h.04s0-.04.02-.04c.03,0,.03-.02.06,0,0-.02,0-.03,0-.03.02,0,.04,0,.06,0,0,.03,0,.05.02.05,0-.02,0-.04.02-.03.02,0,0,.03,0,.04,0,.01.05,0,.06.02.02,0,0-.07.03-.07.04,0,.11,0,.13.03-.01,0-.03,0-.03.02v.04s.03,0,.04,0v-.03c.05-.03.06-.05.1-.02,0-.03.01-.04.03-.03,0,.07-.06.06-.07.12.04.04.08-.04.11-.07,0,.02,0,.02.02.03,0,.02-.02.07.02.07.02,0,.02-.04.03-.07.04.02.05-.02.08-.02.01.04.07.04.1.05,0,.02,0,.04.02.05.01-.02.03-.04.05-.04.03,0,.06.04.08.02v.03s.02-.02.04-.02l.03.02h.04s0,.05.02.05c.01,0,0-.03.02-.03.04.02.05-.02.08-.02.02.02.04.04.03.08h.03s0,.02,0,.02c.01,0,.06-.01.07-.01.03,0,.02-.02.04-.03,0,.02,0,.05.03.05.02,0,.03-.02.04-.03.02.02.02.07.07.06.01,0,.01-.02.02-.02.02,0,.05,0,.06,0,.01,0,.01-.05.03-.03,0,.06-.05.02-.06.06.05.03.09-.03.15-.02.01,0,0,.03.02.03h.14s0,0,0,.05c.03.02.02-.03.05-.02,0,.02-.02.06.01.05-.01-.05.03-.05.06-.05.01,0,0,.03.01.04h.04s.02.02.02.05c.04,0,.06-.03.09-.06-.01,0-.02-.01-.03-.02,0,0,0,0,0-.01-.02-.01-.06-.02-.04-.04-.03,0-.03.02-.06.01-.02-.03-.06-.06-.1-.04v-.04s-.03.03-.07.01c-.02-.02-.02-.05-.05-.06-.06.03-.1-.04-.16-.05,0,.03,0,.04-.03.04,0-.07-.05,0-.08-.04v-.07s.08-.02.11,0c.01,0,.01.03.03.03.03,0,.06.01.08.01h.03s0,.03.02.02c.02,0,.01-.04.03-.03.01,0,.03,0,.04,0-.03-.02-.06-.02-.1-.04-.02,0-.02.03-.05.02,0,0,0-.02,0-.02,0,0,0-.01,0-.01h-.04s-.01-.03-.01-.03c-.02-.02-.06-.03-.07-.01,0-.04-.03,0-.05-.03-.01,0-.01.04-.03.03-.01-.02-.01-.05-.05-.04-.01-.02,0-.06-.04-.07,0,.04-.02.05-.04.05,0-.04-.03-.06-.02-.1-.07,0-.11-.06-.16-.05v-.04s-.03.02-.05.02c-.02-.05-.09-.04-.15-.06l-.02-.02h-.04s-.03-.03-.04-.05c-.03,0-.05-.02-.06-.02,0,0-.02.03-.03.02,0-.05-.1-.01-.11-.06,0-.04.02-.06.04-.07.01.02,0,.05.03.05.03.02.01-.04.04-.02.04,0,.04.05.07.06.05,0,.05.05.09.03v.03s.02-.02.03-.02c0,0,.01.01.03.02h.01s.05,0,.05,0c0,.02.02,0,.03.02v.03s.03,0,.03,0l.03.02h.03s.04,0,.04,0c.02-.02.02-.05.04-.07,0,.02-.01.06.02.06.03,0,.04-.02.06-.03.03.06.11.06.17.1.03.01.02-.03.05-.02,0,.02.02,0,.03.02,0,0,.01.03.02.03,0,0,.03-.04.05-.02,0,0,.02.02.01.04.03,0,.04-.04.08-.03,0,.03,0,.05-.03.05,0,0-.02-.03-.02,0,.02.02.05.02.08.01.02.02.03.04.05.04.01,0,.02-.02.03-.02,0,0,0,.04.01.03.03-.02.02-.07.01-.08v-.02s-.02-.03-.02-.03v-.02s-.02,0-.01-.01c-.03,0-.03.05-.07.04-.03-.01-.06-.03-.04-.09,0-.02-.04-.02-.05-.03v-.03s-.05-.01-.05-.03c0-.02-.02-.01-.02-.03,0-.04.02-.06.04-.07.02.01.03.04.06.03,0-.04.03-.02.03-.05l-.04-.07s-.06-.03-.08-.05c-.02-.02-.03-.01-.05,0,0-.03-.02-.02-.03-.03,0,0,0-.04-.03-.03-.02,0-.01.03-.02.03,0-.04-.04-.04-.04-.08-.05.01-.05-.05-.08-.03,0-.01,0-.03,0-.04,0,.02-.02.02-.04.02.01-.04-.04-.02-.05-.06-.04,0-.04,0-.08,0,0-.01.02-.02,0-.03,0-.01.01-.01.01-.03-.02,0-.03-.02-.03-.05-.02,0-.04.01-.06,0,.01-.04-.02-.03-.02-.04-.01-.03-.04-.02-.04-.02-.03,0-.02-.02-.04-.02,0,0,0,.03-.01.02v-.05s-.04-.02-.07-.04h-.04s-.01.03-.03.03c0-.01,0-.06-.02-.03v.03s0,0-.04-.02c0-.02,0-.02,0-.05l-.03-.04v-.05s-.04-.02-.04-.02c-.01,0-.01.02-.02.02,0-.02,0,0-.02,0-.02,0-.05,0-.07-.01h0s-.02-.01-.02-.01h0s-.02-.01-.02-.01v-.03s-.02,0-.02,0v-.03s-.02.02-.04.03h-.04s-.02.02-.04.01c0-.03-.02-.04-.03-.06-.03,0-.03.03-.05.03v-.06s-.05-.03-.05-.03c0-.04-.03-.06-.05-.07,0,0,0,0-.01.01h-.03s-.03-.03-.05-.01c0-.02-.02-.03-.02-.05h-.04s-.03-.06-.04-.06h0s-.02-.01-.02-.02c-.01,0-.03,0-.03-.02-.03.04.04.05,0,.06-.03-.01-.05-.04-.08-.02,0-.03.03-.05,0-.06,0,.03-.02.02-.03.03,0,.02,0,.06-.02.06h-.02s-.02-.03-.04-.03c-.02.03-.06.03-.08.01,0-.02,0-.04,0-.05,0,.02-.01,0,0-.02-.03-.01-.04.02-.06,0v-.06s-.02.01-.03,0c0-.03,0-.04-.01-.04h-.02s0,.03-.02.03c0-.03,0-.01,0-.05-.02,0-.02-.02-.03-.03-.02.03-.05.04-.08.05,0-.03.02-.05.01-.07-.02,0-.03.03-.05.01,0-.03.04-.04.01-.05,0-.03-.02.01-.04,0-.01.03-.03.05-.05.05-.01-.01-.01-.03,0-.07-.03,0-.05.05-.07.06-.02.03,0,.03-.01.06-.01,0,0-.03-.03-.02,0-.03-.02-.03,0-.07l-.03-.03s0-.03,0-.04c0-.02-.02,0,0-.03.01-.04.04-.09.02-.1,0,0-.02.03-.03.01-.02,0-.01.03-.02.03,0,0,0-.03.01-.05-.01-.01-.03.03-.04,0,.01-.02.04-.03.03-.05-.01.01-.06,0-.02-.03-.01-.02-.02,0-.03-.01-.01,0,.02-.03,0-.03-.04.03-.02,0-.03,0,0,0-.03.02-.03,0h.02s0-.03.02-.04c0-.01-.04.03-.02,0-.03.02-.03.03-.05.05.03-.04-.04,0-.03-.03,0-.01.06-.04.05-.04-.04.02-.04,0-.02-.01l.05-.03s-.1,0,0-.03c0,0-.03,0-.04,0-.01,0,0,0,.04-.01-.02,0-.01,0-.03,0,0,0-.02,0-.02,0,0,0-.02-.01,0-.02.02,0,.02,0,.03,0,0,0,.03,0,.04,0h0s.05,0,.04,0c.01,0-.03,0-.04,0-.01,0-.03,0-.02-.01,0,0,.03,0,.05,0,.02,0-.02-.01-.02-.01,0,0,.03,0,.02,0,0,0-.03-.01-.02-.01l-.03-.02s-.03-.02-.03-.03h0s-.02-.02-.02-.02c0,0,.02,0,.02,0h.02s0,0,0,0c-.02-.01,0,0,0-.01h0s0-.02,0-.03h.01s.04.02.07.04c0,0,.03,0,.05,0-.01,0-.02-.02-.02-.02.02,0,.01-.01,0-.03.03,0,.03,0,.05,0h.01s.01.01.01.01c.02,0,.01-.06.05-.04-.02-.04,0-.02,0-.02v-.02s.02,0,.02,0c-.02-.04,0-.01,0-.02h0s.05-.02.05-.02v-.02s.04,0,.06,0h0s.03-.01.03-.01v-.02s.05,0,.06-.02l.03.03s0-.02.02-.02c.02-.01.03-.02.03-.03v-.03s.03,0,.03-.03c.02,0,.03.04.05.04.03,0,.03-.02.05-.03,0,.04.04.01.05.01h.01s0,.02,0,.02c.01,0,.02-.01.03,0,.01-.04.03-.03.06-.03.01,0,.01-.01.03-.01.04,0,.09.02.14.02h.02s.04-.01.04-.01c0,.02.03,0,.02.03.02-.01.05-.02.07-.02,0,0,.01.01,0,.01.02,0,.02-.03.04-.03,0,.03.09.03.11.03.02,0,.02,0,.02,0,0,0,.03,0,.04,0,.04,0,.05.01.08.02h.02s.04,0,.04,0h0s.04,0,.04,0h.02s0,0,0,0c.04-.01.06.02.07,0h.02s.02,0,.02,0c0,0,.07,0,.07,0,.02,0,.02,0,.02,0h.02s.03,0,.05,0c.04,0,.07.02.08.02h.03s.02,0,.02,0h.03s0,0,0,0c.04.02.08,0,.1,0,.05,0,.1.02.13.03h.04s0,0,0,0h.02s.05.02.07.02c.04,0,.05-.01.06,0,0,0,.03,0,.03,0,.01,0,.01.01.03.02h.04s.03,0,.03,0h0s.03,0,.03,0l.02.02h0s.06,0,.08.01c.04,0,.08-.01.08.03.04,0,.08-.01.1,0,.02,0,.05,0,.05,0h0s.04,0,.04,0h.06s.02.03.03.01c0,0,.02,0,.03,0,.05.03.11.04.19.05v.03s.04,0,.04,0c.02,0,.01-.04.04-.03.02,0,0,.04.04.04l.07-.03s.02,0,.02.02c0,0,0,.03.02.03.08-.02.14.02.21.02.02.04.08.04.12.07.02,0,.03-.02.05-.02,0,.02,0,.05.03.05.03.01.04-.01.05-.02.03,0,.02,0,.04-.02,0,.02.06,0,.03.05.03.01.03-.04.05-.04.02,0,.01.04.02.05,0,0,.02,0,.02.02.06,0,.11,0,.17.03l.05-.03s.03.02.06.03l.02.02h.01s.04,0,.07,0h.03s0,.03,0,.05c.03.02.04,0,.07,0,.03.06.12.04.18.07l.02.02h.04s.02.01.02.01c.03.01.06.02.07.03.03.01.05,0,.07,0l.08.04s.05.02.07.03h.04s.01.01.03.02h.03s.01.01.03.02c.03,0,.05-.01.04.01,0,.02.02.02.03.02.02,0,.02-.04.04-.03.01,0,0,.02,0,.03.01,0,.02-.01.04,0l.02.03s.07.04.1.02c0,.02,0,.03,0,.04,0,0,.01-.01,0,0,.02-.01.02,0,.04.01.03,0,.02,0,.03,0h.02s.02.03.02.03l.06.02s.01.02.03.02h.04s.01.02.04.02c.01-.05.04-.04.07-.04.03.02.02.08.06.1,0,0,.01-.01.02,0,0-.01,0-.03.02-.03.02.01.03.03.03.06.04,0,.06.05.1.03.01.03.03.02.04.05.01-.04.03-.05.05-.06l.04.04s.02-.02.04-.01c0,.02-.02.06,0,.06,0-.02.02,0,.01.02.04,0,.06.03.1.04h.05s.03.03.03.03h.03s.03,0,.03,0c.01.05.04.03.07.04,0-.02.02-.03.03-.04.02,0,.05.04.09.02l.02.05s.01,0,.01,0c.01-.02.03,0,.04,0,0,.04.05.03.08.03.02.02.03.04.07.06.02.01.06,0,.07.02,0,0,0,.02,0,.02.02.01.04,0,.05.01.01,0,0,.02.02.02l.04.02s.03.01.07.03c.05.03.13.05.15.08.02-.01.05,0,.07,0l.04.04h0s.08.03.07.03c0,0,0,0,.01,0h.02c.09.03.21.1.29.12.02,0,.05-.02.06,0,0-.01,0-.03.02-.03.02,0,0,.03.03.03.02,0,.05-.02.08-.01.09.07.22.04.29.09.01,0,.01-.02.03-.02,0,.05.08.04.12.06,0-.01.02,0,.03,0,0-.01.02-.02.03-.01.02,0,.04.01.06.02h.05s.03.02.03.02c.04.01.06.01.08.01.04,0,.03,0,.05.01.03.02.05,0,.07,0,.07,0,.19.04.24.04.04,0,.04,0,.06.01h.04s.01,0,.01,0c.01,0,0,.02.03.02h.01s.02,0,.02,0h.04s0,.01.03.02h.02s.04,0,.06-.02c.01,0,.01.02.03,0,0,0,.03,0,.04,0h.04s.01.02.03,0h.02s.04,0,.06,0l.09.02s.02,0,.04,0l.05.02h.03s.11.02.11.02h.07s.09,0,.09,0c.01-.03.03-.01.03-.03,0-.02.02-.01.03-.02l.05-.05s.01.03.03.03c.02-.03.05-.01.08-.02l.02-.02s.05-.05.09-.06l.04-.05.05-.03.02-.03.04-.03s0-.02.01-.02v-.08c.05-.02,0-.02.12-.05-.14,0-.07-.02-.1-.06,0-.03.04-.01.05-.04-.04,0-.02-.04-.06-.03v-.04c-.05,0-.08-.03-.08-.08-.04,0-.07-.03-.12-.03-.03,0-.03,0-.06-.01-.04-.01-.07-.02-.09-.03h-.05s-.03-.03-.03-.03c-.05-.01-.08-.02-.11-.03-.06-.03-.15-.07-.21-.09h-.05s-.02-.04-.02-.04l-.02-.02s-.03-.01-.03-.03c-.07,0-.15-.05-.23-.08-.01,0-.01.02-.02.02l-.03-.04s-.02,0-.03,0h0s0-.02,0-.02l-.06-.03-.13-.06s-.04-.02-.05-.04c0,0-.02,0-.03,0h0s-.03-.02-.03-.02l-.05-.03s-.03,0-.03,0c0,0,0-.02,0-.02h-.03s0-.02,0-.02h0s0-.02,0-.02c-.03-.02-.08-.02-.11-.04h0s0-.02,0-.02h0s-.06-.04-.07-.05h-.03s0-.02,0-.02h-.04s-.04-.02-.03-.05c-.04.01-.06-.04-.11-.02,0-.02,0-.04-.02-.05-.03,0-.06-.03-.08-.01-.01-.05-.07-.07-.13-.09l-.02-.03s-.04-.02-.04-.04c0,0-.02,0-.02,0h0s-.04-.03-.04-.03l-.02-.02-.04-.02-.05-.06s-.01,0-.02,0h0s-.02-.02-.02-.02c-.02-.02-.05-.02-.08-.03-.02-.01-.02-.04-.04-.05-.01,0-.03,0-.04,0-.02,0,0-.02-.02-.01,0,0-.02-.01-.03,0,0-.02-.01-.03-.02-.05-.01,0-.02.04-.04.02-.03,0-.02-.03-.06-.04,0-.07-.04-.05-.09-.08-.03-.02-.05-.04-.08-.04-.02-.02-.03-.05-.05-.07h0s0,0,0,0l-.05-.02s0-.03-.03-.04c0,0,0,0-.01,0h0s-.04-.02-.04-.02c-.02-.04-.07-.05-.12-.07v-.02s-.02.01-.04,0c0,0,0-.01,0-.01-.01-.02-.03-.01-.05-.02-.05-.02-.08-.02-.11,0,.03-.05-.02-.03-.03-.05,0,0,0-.03,0-.04-.02-.02-.03.02-.05,0-.02,0-.02-.04-.02-.05,0,0-.01,0-.01,0-.01,0-.01-.03-.01-.04-.02,0-.04-.02-.07-.02-.02,0-.03,0-.04,0-.01,0,0-.04-.03-.03l-.04.04s-.04-.04-.08-.04l-.03-.07h-.04c.02-.06-.03-.03-.06-.04l-.03-.02h-.03s-.06-.02-.06-.02c-.02,0-.03.03-.04.01v-.06s-.08,0-.08,0v-.03s-.01-.01-.02-.01c0,0-.04,0-.05-.02-.01,0-.01-.02-.03-.02-.03,0-.05,0-.07,0,0-.01-.02-.03-.03-.03l-.04-.02s-.01.02-.02.02c-.01,0,0-.03,0-.03-.02,0-.05,0-.07,0-.01,0,0-.02-.01-.03,0-.03-.07-.01-.07-.02,0-.03,0-.04-.01-.05-.07.04-.11-.02-.16-.04-.03-.01-.03.03-.04,0-.01-.03-.06-.02-.08-.05-.01,0-.01.03-.03.02-.03,0-.02-.03-.05-.04-.04.01-.05-.02-.08-.01,0-.01,0-.03,0-.04l-.04.03s-.02.02-.04.01c-.02-.03.03-.05.01-.08-.02,0-.04-.01-.06,0,0-.03-.05-.02-.06-.05-.04,0-.04,0-.08,0-.03-.04-.05-.02-.11-.04,0,.02,0,.06-.02.06.02-.05-.02-.04,0-.09-.05,0-.08-.02-.13,0-.02-.05-.11-.09-.16-.06-.02-.02-.03-.03-.06-.03v-.03s-.08-.01-.13-.02c-.02,0,0-.04-.04-.04-.02.03-.03-.01-.06-.01-.02,0-.03.02-.04.02,0,0,0-.04-.01-.03,0,.01-.02,0-.03,0-.01,0-.01.02-.02.02-.01,0-.01-.02-.03-.02-.02,0-.02.03-.04.02,0-.01,0,0-.02,0v-.04s-.02,0-.05,0c-.03.02-.05.04-.08.05-.02,0-.01-.04-.04-.03,0-.02,0-.06-.02-.06,0,.02-.04,0-.05.01,0-.03,0-.04,0-.06-.02,0-.03.02-.04.03h-.07s0-.03,0-.03c-.05,0-.11-.01-.13-.05,0,.03-.03.03-.04.04,0,.01,0,.05-.02.04-.01-.02,0-.05-.02-.08-.03-.03-.05.04-.05,0,.02,0,.02-.07,0-.06-.03.01.01.04-.02.05-.02-.03-.03,0-.04,0-.02,0,0-.02-.02,0-.01.02-.03-.04-.05-.02v-.05s-.01,0-.01.02c0,.02-.02.01-.03.02,0-.01,0-.03,0-.06-.02-.01-.02.02-.04.02,0,.02,0,.06-.03.04-.01-.01.01-.05,0-.07,0,0-.02,0-.02-.01-.04,0-.06.03-.11,0,0,.02-.02.04-.05.03v-.06s-.02.02-.05,0c0-.03,0-.04-.02-.04-.01,0-.01.02-.02.02-.01-.03-.04-.03-.08-.04,0,.04-.04.03-.06.05-.01-.02,0-.06,0-.07,0,0-.02,0-.02-.01l-.13-.02s-.02,0-.03,0c0,0-.01.03-.03.02,0-.02.01-.02,0-.03-.03,0-.05,0-.08-.01-.02.02-.03.05-.06.05,0-.02-.01-.03-.04-.03-.01.03-.03.05-.06.05-.04-.02-.06,0-.09.01l-.02-.04s.04-.05,0-.05c-.02.02-.02.06-.06.04v-.05s-.03-.04-.06-.04c-.02,0-.05,0-.08,0-.02.02-.02.05-.04.05h-.05s-.03-.07-.01-.09c-.03.01-.04-.03-.06-.03,0,0,0,.01-.01.01-.03,0-.04-.03-.07-.02,0,.05.03.04.02.07l-.03.02s-.03-.05-.04-.08l-.07.08s-.09-.04-.13,0c0-.02-.02-.03-.04-.03.01-.04,0-.03,0-.06-.03,0-.03.03-.06.02,0,.02-.02.04-.04.05,0-.01-.01,0-.02,0,0-.02-.04,0-.05-.03,0,.02-.01,0-.02.01l-.02.02s-.06,0-.05-.04c.02-.02.05-.01.04-.07-.03.02-.04-.03-.04-.02-.02,0-.04.01-.07.02,0,0,0-.02,0-.02,0,.03,0,.04-.02.05,0,.03.02.05-.01.06-.02,0-.03-.03-.05-.05"/>
          <path class="cls-2" d="M9.63,14.64s.01-.04.03-.04c.03,0,.04.03.03.07-.03,0-.1,0-.1-.06l.04.04Z"/>
          <path class="cls-2" d="M10.35,14.16c-.09.51-.07.13-.1.22,0,0-.02,0-.02,0-.02-.01-.03-.04-.06-.05,0-.01.02,0,.02,0h.04s.02.02.02.02c0,0,.02,0,.01-.01.03-.1-.02.28.1-.2"/>
          <path class="cls-2" d="M9.35,14.15s0-.01,0-.01c0-.02,0-.04-.01-.04,0-.04.06-.04.05,0,.03,0,.03-.03.06-.01v.06s.04.02.07,0c0,.03.02.03.04.03l.02.04s-.03.04-.06.03c0-.05-.04-.06-.06-.08-.03-.01-.02.05-.05.03,0-.02,0-.03,0-.05-.02.03-.05-.03-.06,0"/>
          <path class="cls-2" d="M10,14.25h-.04s-.02-.03-.03-.04c0,0,.01-.02.02-.02.01,0,0,.02.01.03.01,0,.06,0,.04.03"/>
          <path class="cls-2" d="M9.66,14.06s.02-.03.04,0c0,.05-.04.03-.05,0,0-.01.01,0,0,0"/>
          <path class="cls-2" d="M15.09,17.42s-.04,0-.06.02c-.04-.05,0-.07.03-.09l.02.07Z"/>
          <path class="cls-2" d="M14.91,17.48c-.03-.06.03-.03.04-.06.02.02,0,.03,0,.03,0,.02,0,.05-.03.03"/>
          <path class="cls-2" d="M15.43,17.12s0,.02,0,.02c-.03,0,0-.07,0-.02"/>
          <path class="cls-2" d="M13.86,17.91s-.02-.09.02-.09c0,.01,0,.04,0,.05,0,.01,0,.04-.02.03"/>
          <path class="cls-2" d="M16.47,16.27s-.02.02-.04-.01c.01-.02,0-.05.01-.06.02.03,0,.03.03.07"/>
          <path class="cls-2" d="M13.77,17.87s.02,0,.03,0c0,.03-.03.04-.03,0"/>
          <path class="cls-2" d="M16.3,16.38h-.01s-.02-.02-.02-.02c0,0,.02,0,.04.02"/>
          <path class="cls-2" d="M16.11,16.5s.01,0,.02-.02c.03.02,0,.05-.02.02"/>
          <path class="cls-2" d="M14.74,17.5s-.02,0-.03-.02h.02s.01.02.01.02Z"/>
          <path class="cls-2" d="M15.7,16.84s-.02-.04,0-.05c.02.03.02.06,0,.05"/>
          <path class="cls-2" d="M14.56,17.47s.01.06-.02.06c0-.01-.01-.02-.02-.02-.02-.03,0-.02,0-.04,0,0-.03-.04-.03-.06l.02-.02s.01.02.02.03c.02.02.05.02.07.06-.03,0,0,.07-.04.04,0,.01.01.04-.02.04-.02-.05.03-.05,0-.1"/>
          <path class="cls-2" d="M15.52,16.95c-.06-.07.06-.04.01-.1.05,0,.05.12-.01.1"/>
          <path class="cls-2" d="M12.95,18.04s.02-.03.03-.02c0,.03-.02.03-.03.02"/>
        </g>
        <polygon class="cls-2" points="16.24 16.32 16.26 16.34 16.26 16.33 16.25 16.31 16.24 16.32"/>
        <g>
          <path class="cls-2" d="M15.2,17.16s-.04.04-.05,0c.02,0,.04-.02.05,0"/>
          <path class="cls-2" d="M12.39,18.12s-.04-.08,0-.07c.02.02,0,.06,0,.07"/>
        </g>
        <rect class="cls-2" x="12.65" y="18.05" width=".02" height=".02" transform="translate(-2.25 1.81) rotate(-7.5)"/>
        <g>
          <path class="cls-2" d="M16.61,16.05s-.02-.03-.03-.02c0-.02,0-.02.01-.02l.02.04Z"/>
          <path class="cls-2" d="M16.39,16.14h.02s.01.06-.02,0"/>
          <path class="cls-2" d="M16.18,16.36h0s0,0-.01,0c0-.02-.02-.04,0-.05.01.02,0,.02.02.05"/>
          <path class="cls-2" d="M16.82,15.88s-.03-.02,0,0"/>
          <path class="cls-2" d="M16.09,16.39l-.04-.05s0-.03.01-.04h0s.02.02.02.02c.02.03,0,.05,0,.07"/>
          <path class="cls-2" d="M16.45,16.1s-.02,0-.04-.03h.02s.02.03.02.03Z"/>
          <path class="cls-2" d="M15.47,16.78s.03,0,.04-.01c.03-.02.03-.05.06-.05.01.02-.01.02-.02.03,0,0,0,.03,0,.03-.02.03-.05.06-.09,0"/>
          <path class="cls-2" d="M17.62,15.32s0,.03,0,.02h0s0-.02,0-.02Z"/>
          <path class="cls-2" d="M17.57,15.48s0,.03,0,.02v-.02Z"/>
          <path class="cls-2" d="M17.56,15.52s0,0,0-.05c0,0,0,0,0,.05"/>
          <path class="cls-2" d="M17.83,14.98s-.05.07-.06.07c-.02.02-.03.04-.03.03l.05-.06s.01-.02.04-.05"/>
          <path class="cls-2" d="M17.54,15.47h0s0,0,0-.01c0-.02,0-.03,0-.05l.02.02c0,.07-.01-.05-.01.04"/>
          <path class="cls-2" d="M17.74,15.09s-.05.08,0,0"/>
        </g>
        <polygon class="cls-2" points="17.65 15.24 17.65 15.25 17.65 15.24 17.66 15.23 17.65 15.24"/>
        <g>
          <path class="cls-2" d="M17.52,15.42s0,0,0-.03h0s0,.03,0,.03Z"/>
          <path class="cls-2" d="M17.61,15.34v-.04s0,0,0-.02c0,.04,0,0,0,.06"/>
          <path class="cls-2" d="M17.59,15.25s0,.02.01.01v.04s-.02,0-.01-.05"/>
          <path class="cls-2" d="M17.69,15.17h0s-.03.05-.03.07v-.02s.02-.02.02-.02h0s0-.02,0-.02l.03-.04s-.01.02-.03.04"/>
          <path class="cls-2" d="M17.65,15.25s0,0,.01-.03c0,0,0,0-.01.03"/>
          <path class="cls-2" d="M17.63,15.15s0-.05,0-.06c0-.02,0,0,0,0,0,0,.02-.03,0,.01,0,0,.01,0,.02.02-.01.04,0,.02-.01.06h0s-.01,0,0-.04c0,0,0,.02-.01.01"/>
          <path class="cls-2" d="M17.37,14.9s-.03-.04-.02-.07c.01,0,.03.02.02-.02.01.02.02.02.03,0,.01.03.01.04.01.08.02,0,.01-.04.03-.04,0,.06.04,0,.03.07.01,0,.02,0,.03.03.02-.03.04.02.06-.01l.03.09s-.01,0-.02-.02c0,0,0,.02,0,.04,0,.02,0-.02-.01-.02,0,0-.02,0-.02-.02,0,0,0,.04-.02.03,0-.06-.04-.08-.05-.04-.02,0-.02-.05-.03-.06-.02-.01-.01.04-.03.03-.02,0-.02-.04-.04-.03,0,0,0,.02,0,.04,0,0,0-.01,0-.02-.02.01-.03-.04-.04-.04,0-.04.03.02.02-.03,0,0,.01.03.02.02"/>
        </g>
        <polygon class="cls-2" points="16.13 14.55 16.14 14.57 16.15 14.56 16.14 14.54 16.13 14.55"/>
        <path class="cls-2" d="M15.62,14.64s-.03.01-.04-.02c.01-.01.03-.02.04.02"/>
        <polygon class="cls-2" points="14.35 15.27 14.36 15.29 14.37 15.29 14.35 15.27 14.35 15.27"/>
        <g>
          <path class="cls-2" d="M17.21,14.95s-.01-.04-.02-.08c.03.03.04-.02.06-.03.02.03.01.06.02.1-.03,0-.03.04-.06.01M14.1,17.55s-.03-.02-.04-.05c.03,0,.03.02.04.05M15.32,17s-.01-.02-.02-.03c.02,0,.01.02.02.03M15.36,17.16s-.05-.03-.02-.03l.02.03ZM13.34,17.96s0,.01,0,0c0,0-.01,0-.01-.02l.02-.04s0-.05.02-.06c.02.04,0,.03.02.06.02,0,0-.04.03-.03,0,.09.07,0,.09.06-.02.02-.06,0-.05.05.05-.01.07-.01.12-.03,0,.03.01.04.03.04,0-.03.03-.01.04-.02h.07s.03-.03.03-.03c0-.04-.04-.05-.02-.07.03-.02,0,.05.03.03.02,0-.02-.02-.02-.05,0-.02.02,0,.03-.02,0-.01-.01-.06.01-.06.02.03,0,.04.03.07.04,0,.01-.06.04-.07h.02s.02.03.04.02c0,0,0-.01,0-.02v-.03s.05-.04.09-.03c-.01-.05-.04-.04-.05-.1v-.03s.03-.03.05,0c0,.06.04.08.06.1,0,0,.01.02.02.02h.01s.02-.01.04-.02c.02,0,.03,0,.04-.02v-.02s.06.07.08.12h.03s.02.03.04.03c0-.02-.02-.04-.01-.05.02,0,.03.04.05.03,0-.02-.01-.05,0-.07.01-.01.04.02.02-.02-.02-.03-.05,0-.06-.05.03-.02.06-.03.08,0,.02.03,0,.05.03.08,0,0,.01,0,.02,0,.03,0,0-.04.01-.05.02,0,.02-.03.05-.04,0-.04-.03,0-.04-.02-.01-.04.02,0,.02-.04,0-.02-.02-.04-.01-.05.05.03-.02-.06.02-.06-.03-.05-.04-.03-.05-.09.03,0,.04-.04.06-.03,0,0,.02.03.02.02-.03-.04-.02-.04-.04-.09-.02-.01-.03,0-.05-.03v-.05s.02.01.03,0c.01.04.03,0,.04.03,0,.02.02.02.03.04l-.02.02.03.04s-.02.01,0,.03c.03.04.05-.05.09.04-.01,0-.02,0-.03,0,.03.08.07.04.11.05-.01-.03-.02-.06-.01-.08.03.04.05.02.08,0,.01.04.03.03.04.03-.03-.05,0-.06.03-.08,0,0,.01,0,.02,0,.02.04.04.05.06.05-.02-.04.02-.02.04-.03.01-.01,0-.04.02-.04.03-.01.05.02.08,0,0-.03,0-.07.03-.08,0-.03,0-.05-.03-.09-.04.01.03.02,0,.04-.02.03-.04-.01-.06,0,0,.03-.02.05-.05.03-.02-.03,0-.05,0-.07,0-.02,0-.05.02-.06.02.03,0,.03.03.06.02-.02,0-.05.04-.06,0-.02,0-.03-.03-.06.03-.02-.02-.08.02-.1.01-.02.03.03.05.03.02,0,.04,0,.01-.04-.01-.03-.02.03-.04,0,0-.03-.05-.08-.04-.11.01,0,.02.03.03.04h.01s.02,0,.02,0l.05.06s.02,0,.03.02c0,.02-.01.03-.03.04.02.03-.02.04.02.08,0,0,.02.01.03.01-.01,0,.03-.03.05-.02.02.05.05.06.06.11.04-.01.03.05.07.04,0-.01,0-.02.01-.02,0-.02-.03-.04-.02-.05.01,0,0-.02.01-.02.02-.03.03-.02.04-.03h.01s.03-.04.03-.06h.01s.03-.04.03-.06c0-.01-.02-.03-.02-.04-.02-.02-.03,0-.05-.02.02-.02-.05-.06-.03-.09l.04.06.04-.03s-.03-.04-.03-.05c0,0,.02-.01,0-.03-.03-.01-.02.05-.05.04.01,0,0-.03,0-.04,0-.02.02-.02.02-.03,0-.03.03-.03.03-.05.02.01.04.03.06.01.01,0-.01-.03,0-.04.02.02.03,0,.05.02,0,.02,0,.04.02.06.01,0,.02-.02.03-.01.01.03-.02.08.04.08,0-.01-.03-.04-.02-.05.03.01.04,0,.06-.03.02,0,.03.02.05,0-.03-.03-.02-.05-.01-.07.02,0,.03-.02.07.02l-.02.02s.05.04.06.08c.03-.02.03-.04-.02-.1.01-.01,0-.05.01-.04-.04-.04-.01.03-.05-.02l.04-.04s-.03-.01-.04-.02c-.01,0-.04-.03-.04-.02.03.03,0,.03-.01.04-.03-.03-.04,0-.07-.04,0,0,.03.02.03,0-.02-.05,0-.08.02-.12l.06.02s.01-.04.02-.05c.02.03.04.03.05.04,0-.02-.01-.04,0-.05l.03.02s.03.06.06.1c.02.01,0-.02.03-.02l.03.02s.05.04.08.07l.03-.03c-.03-.05-.06-.02-.07-.05.02.01.04,0,.05,0,0-.02-.04-.06-.05-.07.02.01.02-.02.01-.04,0,0-.02-.02-.03-.02,0,0-.01.03-.03,0,0-.02,0-.01.02-.02-.03-.05,0-.03.02-.04v-.02s.02-.02.02-.02c0,.01.01,0,.02.01,0,0,.02.02.03.02,0-.03-.02-.05-.01-.07.03.02.03-.04.05-.02.02.05.06.07.08.12.02,0,.02,0,.04-.02.04.06.03,0,.06.03,0,.04-.03.02,0,.08.01-.01,0-.04,0-.05.02,0,.01-.04.01-.04h0s0-.02,0-.02h0s-.02-.04-.01-.04c.03,0,0-.03,0-.05.03.02,0-.03.03-.02-.03-.04-.06,0-.06.01-.02-.02-.02.01-.04-.02.04.02-.02-.04-.02-.05l.03-.02s.05.05.07.04c.02,0-.02-.04-.02-.05,0-.03.03-.05.06-.04,0-.02,0-.03.01-.04.02.02.03.04.03.05.01-.01.05,0,.06.04,0-.01.04,0,.02-.03-.02,0-.04-.02-.07-.07.03-.02.04-.03.06-.05.01.02.03.03.04.03-.01-.03.01-.01.02-.03,0,0,0-.03,0-.03.02,0,.06,0,.05-.04.01.01.02,0,.03.01.01.03.02.02.03.04.02-.01-.02-.06,0-.06l.02.02s-.01.05.01.09c0-.02,0-.04.02-.06.02.03.01.04.03.05v-.02s0-.03,0-.04c.02,0,0-.03.02-.03,0-.02-.02-.02-.02-.03.01,0,.02,0,.02-.03.02.03.03.05.04.04,0-.02-.02-.04,0-.04,0,0,.02.03.02.03.01,0,.02-.01.04,0,0-.01-.03-.06-.03-.07.02-.01.04-.05.07-.03,0,0-.02,0,0,.03l.03.03s0,0,0-.02v-.04s-.02-.06,0-.05c-.02-.03-.02-.04,0-.04.04.07.01.08.04.13.04.02,0-.06,0-.1,0,.01.02.02.02.02.01.02.03.07.04.06,0,0,0-.04-.02-.07.02,0,0-.04.02-.05.02.03.04,0,.06.01.01.01.02.04.03.04,0-.02-.01-.05,0-.06.01-.01.04.02.04,0v.03s.02-.03.02-.03h.01s.02,0,.02,0c0,0,.02.04.02.03,0,0,0-.03,0-.04.02,0,0-.03.02-.05.01.02.03.03.04.06h.01s0,0,0,0c0,0,.01-.03.01-.03v-.04s.02.05.03.04c0,0,0-.03,0-.04.01.01.03.06.04.04,0,0,0-.02,0-.03,0-.01.02,0,.02-.02,0,0,0-.05,0-.04.01.06,0,.03,0,.08.02.02.01-.05.03-.05,0,0,0,.03,0,.02l.03-.04s0,.02,0,.06c0,.02,0-.03,0-.02,0,.02,0,.06,0,.05,0-.05,0-.05,0-.06,0,0,0,.03,0,.04h0s0,.01,0,.04c0-.01,0-.04,0-.07,0,0,0-.01,0-.01h0s0-.02,0-.05c0,0,0,.03,0,.02,0-.03-.01-.05-.02-.02v-.04s0,.04-.01.03c0-.01-.01-.05-.02-.05-.01.04-.03-.02-.05-.02,0,.03,0,.05,0,.05-.02-.07-.02.01-.03-.02l-.02-.07s.02-.04.03-.03c0,0,.01.03.02.02h.03s0-.02,0-.02c0,0,0,.03.01.02,0,0,0-.04,0-.04,0,0,.01,0,.01-.01-.01-.01-.02,0-.04-.02,0,0,0,.04-.01.03,0,0,0-.02,0-.02h0s-.01-.01-.01-.01c0,0,0-.02-.01-.02,0-.02-.03-.01-.03,0-.01-.04-.01,0-.03-.02,0,.01,0,.04,0,.04,0-.01-.02-.04-.03-.03-.01-.02-.02-.06-.03-.05.01.04,0,.05,0,.06-.01-.04-.03-.05-.04-.09-.03.02-.07-.02-.09,0l-.02-.03s0,.03-.01.03c-.03-.04-.06,0-.09,0h-.02s-.01.01-.01.01c-.01-.03-.03-.02-.04-.03,0,.02-.04,0-.04,0,0,0,0,.04,0,.03-.03-.04-.05.03-.08-.02-.02-.04-.02-.06-.02-.07.01,0,.03.04.04.04.02,0-.01-.04,0-.03.02-.01.04.03.06.02.02-.03.05.03.05-.01v.03s.02-.02.02-.03c0,0,.01,0,.02,0h0s.02-.02.03-.02c0,.02.01,0,.02,0v.02s.03,0,.03,0h.02s0-.01,0-.01h.02s0-.08,0-.08c.01.02.02.06.03.05.01,0,0-.04.02-.04.03.05.07.03.11.05.02,0,0-.03.02-.03,0,.02.01,0,.02,0,0,0,.01.02.02.02,0,0,0-.05.02-.03,0,0,.01.01.01.04.01,0,0-.05.02-.05.01.03,0,.05,0,.06,0,0-.01-.02,0,.01.01.01.03.01.03,0,.01.01.02.03.03.03,0,0,0-.03,0-.03,0,0,0,.04,0,.02,0-.03,0-.08,0-.09v-.03s-.02-.02-.02-.02v-.02s-.01,0-.01-.01c-.02,0,0,.06-.02.05-.02,0-.03-.01-.04-.08,0-.02-.02-.01-.03-.02v-.02s-.03,0-.04-.02c0-.02-.02,0-.02-.02-.01-.04,0-.06,0-.08.01,0,.02.03.04.02-.01-.04,0-.02,0-.06l-.04-.06s-.04,0-.06-.03c-.02-.01-.02,0-.03,0,0-.03-.02-.01-.03-.02,0,0-.02-.04-.03-.02,0,0,0,.03,0,.04-.01-.04-.04-.02-.05-.06-.02.03-.05-.04-.06,0,0-.01,0-.03-.02-.03,0,.02,0,.03-.02.03-.01-.05-.04,0-.05-.03-.02.02-.03,0-.05.03,0-.01,0-.03-.01-.02v-.04s-.04,0-.05-.04c-.01,0-.02.03-.04.03,0-.04-.03-.02-.03-.03-.02-.02-.03,0-.03,0-.02.02-.02-.01-.03,0,0,0,.01.03,0,.03l-.02-.05s-.04,0-.06,0h-.02s.01.05,0,.05c0,0-.04-.05-.03-.01l.02.02s-.02,0-.04,0c0-.01-.02-.02-.03-.04l-.04-.02s-.02-.02-.03-.04c-.01,0-.02,0-.03,0,0,0,0,.02,0,.03-.01-.02,0,0-.01,0,0,0-.03.02-.05.02h0s-.01,0-.01,0h0s-.01,0-.01,0l-.02-.02h-.01s-.02-.03-.02-.03c-.02,0,0,.03-.01.05h-.02s0,.05-.01.05c-.02-.02-.03-.02-.05-.04-.02,0,0,.04-.01.05l-.04-.05h-.04s-.05-.04-.07-.03c0,0,0,.01,0,.01h-.02s-.04,0-.03.03c-.01-.02-.03-.01-.04-.03h-.02s-.05-.02-.05,0h0s-.03,0-.03,0c-.01,0-.02.02-.03,0,.01.05.05.02.04.04-.02,0-.05,0-.06.02-.01-.03-.02-.05-.04-.05.02.03,0,.03,0,.04,0,.02.04.05.03.05v.02s-.04-.02-.05-.01c.01.03-.01.06-.04.05-.01-.02-.02-.04-.03-.04,0,.02,0,0-.02-.02-.02,0,0,.03-.03.04-.01-.03-.03-.04-.04-.05-.02,0,0,.02-.02.03-.01-.02-.03-.03-.04-.02v.02s.01.03,0,.03c-.02-.01,0-.01-.03-.04-.01.02-.03,0-.04,0,.01.04,0,.07,0,.1-.02-.02-.03-.05-.05-.06-.02.01,0,.04-.02.05-.02-.02,0-.06-.03-.04-.03-.02,0,.03-.03.02.02.03.02.05,0,.07-.02,0-.04-.01-.06-.05-.02.02.02.07.01.1.02.03.03,0,.05.04-.01,0-.03,0-.03.02-.02-.02-.04,0-.06-.03-.02.01-.03.02-.05.02,0,0-.03-.02-.03-.02-.02,0-.02.03-.04,0-.03-.03-.07-.07-.1-.05,0,.01.02.03,0,.04,0,.02.03.02.02.03-.01,0-.03-.02-.05-.03-.02,0,.01.04-.02.05-.02-.01-.02-.05-.04-.05,0,.02-.03.06-.05.01-.03.01-.02.03-.04.05,0,.02-.03-.02-.04,0,.02.04,0,.03-.02.05,0,0,.01.03,0,.04-.01-.01,0-.02,0-.03,0-.01-.02,0-.03-.02-.03,0,.02.05-.02.04.02.03.03.03.05.05-.05-.01-.02.06-.06.07-.02,0-.05-.06-.06-.04.02.04-.03.05-.05.06l-.05-.04s-.04.15-.11.07c-.02,0,.01.04.01.05-.01.03-.03.02-.06,0,0,.01,0,.01,0,.03,0,0,0,.02,0,.03-.02.02-.02.03-.04.03,0-.01-.02,0-.02-.01l-.03-.02h-.01s-.03-.03-.03-.01c-.02,0,0,.03,0,.05,0,.02,0,.03,0,.04,0,0-.03-.02-.04-.03-.02,0,0,.03,0,.03,0,0-.02-.02-.02-.01,0,0,.02.03,0,.03v.04s.01.04,0,.05h0s.01.03,0,.03l-.02-.02h-.02s0,0,0,0c.01.02,0,.01,0,.02h0s-.02.02-.01.03h-.02s-.04-.03-.06-.07c-.02.01-.04,0-.06,0,0,.01.01.03,0,.03-.02,0-.03.01-.04.03-.02-.02-.03,0-.05,0h0s-.02-.01-.02-.01c-.03,0-.03.07-.07.04.02.04,0,.02-.02.02v.02s-.03,0-.03,0c.01.04,0,.01-.01.02h0s-.05.02-.05.02v.02s-.04,0-.05,0v.02s-.03,0-.03,0v.02s-.04,0-.05.02l-.03-.03s0,.02-.01.02c-.02.01-.02.02-.03.03v.03s-.03.01-.03.04c-.02,0-.03-.03-.05-.03-.03,0-.03.03-.04.04-.02-.04-.04,0-.05,0h-.01s0-.02,0-.02c-.01,0-.02.01-.03,0,0,.04-.03.03-.04.04l-.02.02s-.07,0-.1,0v.02s-.04,0-.04,0c0-.02-.02,0-.03-.03-.01.01-.03.03-.05.03h0s0,.02-.02.02c-.02-.03-.06-.01-.08,0,0,0,0,.01-.01,0,0,0-.02,0-.03,0-.03,0-.04,0-.05,0v.02s-.04,0-.04,0h0s-.02,0-.02,0h-.02s0,0,0,0c-.02.02-.04-.01-.05,0h0s-.01.01-.02,0c0,0-.05.01-.05.01,0,0,0,.01-.02,0h-.01s-.02.01-.03.02c-.02.01-.04,0-.05,0l-.02.02h-.02s-.01,0-.01,0h0s-.05,0-.06.01c-.03,0-.06,0-.08,0l-.03.02h0s-.01-.01-.01-.01c-.02,0-.03,0-.04,0-.02,0-.03.02-.04,0h-.02s-.02,0-.02,0h-.02s-.02.02-.02.02h0s-.02,0-.02,0h-.02s0,0,0,0c-.02.02-.04,0-.05,0-.03,0-.04.03-.05,0-.02,0-.04.02-.06.03-.01,0-.03,0-.03,0h0s-.03,0-.03,0h-.04s-.02-.01-.02,0c0,0-.01,0-.02.01-.03-.03-.08-.02-.12-.02v-.04h-.03s0,.05-.02.04c-.01,0-.01-.04-.03-.04l-.04.05s-.01,0-.02-.01c0,0,0-.03-.02-.02-.05.03-.09,0-.13.02-.02-.04-.05-.03-.08-.05-.01,0-.01.03-.03.02,0-.02,0-.06-.02-.05-.02,0-.02.02-.03.02-.02.01-.01,0-.02.02,0-.02-.03,0-.02-.05-.02,0-.02.05-.03.05-.01,0,0-.04-.01-.05,0,0-.01,0,0-.01-.03,0-.07,0-.1-.01l-.03.03s-.02-.02-.04-.02h-.01s0,0,0,0c-.02.01-.03,0-.04,0h-.02s0-.03,0-.04c-.02-.01-.03.01-.04,0-.02-.05-.07-.02-.11-.04h-.01s-.02,0-.02,0h-.01s-.04-.03-.04-.03c-.02,0-.03.01-.04,0l-.04-.03-.04-.02h-.02s-.02,0-.02,0h-.02s-.02,0-.02,0c-.02,0-.03.02-.02,0,0-.02,0-.01-.02-.02-.01,0-.02.05-.03.03,0,0,0-.03,0-.03,0,0-.02.01-.02,0v-.03s-.05-.03-.07,0c0-.02,0-.03,0-.04,0,0,0,.01,0,0-.01.01-.01,0-.02,0-.02,0-.01,0-.02,0h-.01s-.01-.02-.01-.02h-.03s-.01-.03-.01-.03l-.03.02s0-.04-.02-.03c-.01.05-.03.05-.05.05-.02-.02,0-.07-.02-.09h-.01s-.01.04-.02.04c-.01,0-.01-.03,0-.05-.03,0-.02-.04-.05-.02,0-.03-.01-.01-.01-.05-.02.04-.03.06-.04.06v-.03s-.03.02-.04.02c0-.02.02-.06.01-.06,0,.02-.02,0,0-.01-.03.01-.03-.02-.04-.03h-.02s-.01-.02-.01-.02h-.02s-.01,0-.01,0c0-.04-.02-.02-.03-.03-.01.02-.02.04-.03.04-.01,0-.01-.03-.04,0v-.04s0,0,0,0c-.01.02-.01,0-.03.01.01-.03-.01-.02-.03-.02v-.03s-.02,0-.02,0h0s-.01,0-.01,0h0s0-.02,0-.02c-.01,0,0,0,0,0,0,0,0,0,.01,0-.01.01,0,.01-.02.02,0,0,.02-.01.02-.01h0s.03.02.03.02h0s0,.01,0,.01c0,.02.06.08.06.13,0,.02-.03.04,0,.04-.01,0-.03,0-.03.02,0,.02.04,0,.04.03-.01.02-.02.04-.02.07.04.09-.02.19-.01.26,0,.01-.02,0-.03.01.04.03,0,.06,0,.09-.01,0-.02,0-.02.01-.02,0-.03,0-.03,0-.02,0,0,.02-.02.03,0,0-.02,0-.02.01h0s-.02.02-.02.02c-.01,0,0,0,0,0,0,.01-.02,0-.03,0-.03,0,0-.01,0-.02,0-.01,0,0,0,0h0s0-.01,0-.01h.01s0,0,0,0h0s0-.02,0-.02c0,0,.01.01.01,0h0s.01-.02,0-.04c0,0,.01.01,0,0h0s0-.02,0-.02c0,0,.02.02,0,0h0s0-.03,0-.03l.03-.02v-.02s.04,0,.04,0v-.02s.05-.02.05-.02l.02-.04.04-.02s0-.02,0-.04c0-.01,0-.02,0-.03v-.06s.01.02.02.02c0-.03.02-.03.02-.05v-.03s0-.06.01-.08v-.06s0-.04,0-.04v-.04s0-.04,0-.04v-.03s-.03-.08-.03-.08c0-.02.02-.03,0-.07-.02,0-.03,0-.04-.04-.01-.03.02-.03,0-.06-.02.02-.03-.03-.05,0l-.02-.03s-.06,0-.08-.05c-.03,0-.06,0-.08.02-.02.01-.02.01-.04.02h-.06s-.03.02-.03.02h-.02s-.05.02-.07.02c-.05,0-.11.02-.15.02l-.03.02h-.03s-.02-.01-.02-.01c-.01,0-.02,0-.03,0-.03.04-.1.05-.15.07,0,0,0,.02,0,.03l-.04-.02s0,.02-.02.02h0s-.01,0-.01,0l-.04.02-.09.05s-.03.01-.05,0c0,0-.01.01-.01.01h-.01s-.02.02-.02.02l-.03.02v.02s-.02-.01-.02-.01l-.02.02h-.01s0,0,0,0h-.01s-.04.05-.06.08h-.01s0,0,0,0h-.01s-.03.05-.04.06v.02s-.02,0-.02,0c0,.01,0,.02,0,.04-.03,0-.01.04-.04.03.02.04-.03.07,0,.11-.02,0-.04.01-.04.03,0,.03,0,.07.02.08-.04.03-.04.11-.02.17v.03s0,.04-.01.06v.03s0,.01,0,.01l.02.04v.03s.03.04.03.04v.08s.03,0,.03,0h-.01s.01.02.01.02c0,.03.04.04.05.07,0,.02,0,.05.01.07l.04.02s0,.02.02.02c0,0,.02.02.03,0-.02.02,0,.03,0,.05.01,0,.03-.03.04,0,.03.02.01.04.04.05-.03.07.03.06.06.09.02.02.03.05.06.05.01.02,0,.06.02.08h0s0,0,0,0l.04.02v.04s.03,0,.03,0h0s.03.02.03.02c0,.04.04.05.08.08v.02s.02-.01.03,0c0,0,0,.01,0,.01,0,.02.02.01.04.02.04.01.06.02.09,0-.04.05,0,.03.02.05,0,0,0,.03,0,.04.02.02.03-.02.04,0,.01,0,0,.04.01.05,0,0,.01,0,.01,0,.01,0,0,.04,0,.04.02,0,.03.02.05.02.01,0,.02,0,.03,0,.01,0,0,.04.02.03l.04-.04s.03.04.06.04v.07h.04c-.02.06.02.03.04.04l.02.02h.03s.05.01.05.01c.01,0,.03-.03.04-.01v.06s.06,0,.06,0c0,.01,0,.02,0,.03h0s.03.02.04.03c0,0,0,.02.02.02.02,0,.04,0,.06-.01,0,.01.01.03.02.03l.03.02s.01-.02.02-.02c0,0,0,.03,0,.03.02,0,.04,0,.05,0v.03s.06,0,.06.01c0,.03,0,.04,0,.05.05-.05.09.02.12.03.03,0,.02-.03.03,0,0,.03.05.01.06.04.01,0,.01-.03.03-.02.02,0,.02.03.04.03.03-.02.04.01.07,0,0,.01,0,.03,0,.04l.03-.03s.02-.02.03-.02c.01.03-.02.06,0,.09.02,0,.03,0,.04,0,0,.03.04.01.04.04.03-.01.03,0,.07,0,.03.03.04.02.08.03,0-.02,0-.06.02-.06-.02.05.02.04,0,.09.04,0,.06.02.1-.02.01.05.09.08.13.04.02.02.03.03.05.02v.04s.07,0,.11,0c.02,0,0,.04.03.04.01-.03.03,0,.04,0,.01,0,.02-.03.03-.02,0,0,0,.04.01.03,0-.01.01-.01.02-.01,0,0,0-.02.02-.02,0,0,.01.02.03.01.01,0,.01-.03.03-.02,0,.02,0,0,.01,0v.04s.02,0,.04,0c.02-.02.03-.05.05-.06.01,0,.01.04.03.03,0,.02,0,.06.02.06,0-.03.03,0,.04-.02,0,.03,0,.05,0,.06.02,0,.02-.03.03-.04l.05-.02v.05s.08,0,.1.02c0-.03.02-.03.02-.05,0-.02,0-.05,0-.05.01.02.01.06.02.07.02.02.03-.05.04-.01-.02,0,0,.08.01.06.02-.02-.01-.04,0-.05.02.03.02,0,.03-.01.01,0,0,.02.01,0,0-.02.03.03.04.01v.05s.02,0,.02-.02c0-.02.02-.01.02-.03,0,.01,0,.03,0,.06.02,0,.01-.02.03-.02,0-.02,0-.06.01-.05.01.01,0,.05,0,.07,0,0,.01,0,.02.01.03,0,.04-.04.08-.03,0-.03,0-.05.04-.04v.06s.02-.02.05-.01c0,.03,0,.04.02.04,0,0,0-.02.01-.02.01.02.04.03.07.02,0-.04.03-.04.04-.06.01.02,0,.06.02.07,0,0,.01,0,.02.01h.1s.01-.02.02-.02c0,0,0-.03.02-.03,0,.02,0,.02,0,.04.02-.02.04-.02.06,0,0-.03.01-.05.03-.06,0,.02.02.03.03.02,0-.03.01-.05.03-.06.03,0,.04-.02.06-.03l.02.03s-.02.06.01.05c0-.02,0-.07.04-.05v.05s.04.03.06.03c.02,0,.03-.02.06-.02,0-.02,0-.05.02-.07h.04s.04.05.03.08c.02-.02.04.02.05.02h0s.04,0,.05,0c0-.05-.03-.03-.03-.07l.02-.03s.03.05.05.07l.04-.09s.08.02.09-.02c0,.02.02.03.03.02,0,.04,0,.03.02.06.02,0,.02-.03.04-.03,0-.03,0-.04.02-.05,0,.01,0,0,.01,0,0,.03.03,0,.04.02,0-.02,0,0,.01-.02v-.03s.05-.02.05.03c0,.02-.04.02-.01.08.02-.03.04.02.03.02.02,0,.03-.02.05-.04,0,0,0,.02.01.02,0-.03,0-.05,0-.05,0-.03-.03-.05,0-.06.02,0,.03.02.05.04"/>
          <path class="cls-2" d="M17.56,15.55s0,0,0-.02c0-.03,0-.04,0-.05,0,.03-.02.1-.02.11v-.05Z"/>
          <path class="cls-2" d="M17.51,15.22s0,.02,0,.03l.02.02h0s0,0,0,0h0c-.34.35.47-.47.38-.39h0s0,0,0,0h-.01s-.07.08-.09.11c-.03.03-.03.03-.03.03-.03.03-.04.05-.06.08,0,0,.02-.02.02-.02l.04-.05.02-.02s.03-.04.02-.02l.06-.07.04-.04h0s0,0,0,0h0c-.17.17.37-.38-.37.37h0s-.01-.01-.01-.01l-.02-.03Z"/>
          <path class="cls-2" d="M17.51,15.22h0s0-.05,0-.05c0-.04.02-.05.02,0,0,0,0-.04.02-.03v.06s.02,0,.03-.01c0,.03,0,.02.01.02v.04s0,.04-.01.04c0-.05-.01-.05-.02-.07,0,0,0,.05-.01.04,0-.03,0-.03,0-.05,0,.04-.02-.03-.02.01"/>
          <path class="cls-2" d="M17.66,15.22h0s0-.02,0-.03c0,0,0-.02,0-.02,0,0,0,.02,0,.02,0,0,0-.01,0,.02"/>
          <path class="cls-2" d="M17.61,15.08s.01-.04.01-.01c0,.05-.01.03-.02,0,0-.01,0,0,0,0"/>
          <path class="cls-2" d="M21.77,10.23s.04.03.08.04c-.02.06-.07.04-.13.02l.05-.06Z"/>
          <path class="cls-2" d="M22.05,10.38c-.03.06-.07-.02-.11,0,0-.03.03-.01.05,0,.02,0,.05-.02.06.02"/>
          <path class="cls-2" d="M21.12,10.1s.02-.02.03,0c.02.03-.07.04-.03,0"/>
          <path class="cls-2" d="M23.59,11.61c-.01.06-.08.04-.11-.03,0-.01.04,0,.06,0,.02,0,.04,0,.05.03"/>
          <path class="cls-2" d="M18.78,9.95s.06,0,.05.03c-.03,0-.04.04-.08.04,0-.03.04-.03.03-.08"/>
          <path class="cls-2" d="M23.61,11.75s-.02-.04-.02-.05c.03-.02.06.04.02.05"/>
          <path class="cls-2" d="M19.17,9.95h.03s0,.04,0,.04c-.02,0-.03,0-.03-.04"/>
          <path class="cls-2" d="M19.6,9.98s-.03,0-.05,0c-.02-.04.07-.04.05,0"/>
          <path class="cls-2" d="M22.24,10.53s.01.03,0,.05l-.02-.02v-.02Z"/>
          <path class="cls-2" d="M20.57,10.06s-.02.04-.05.03c0-.03.03-.05.05-.03"/>
          <path class="cls-2" d="M22.41,10.76s.05-.04.09,0c0,.01,0,.02,0,.03,0,.04-.03,0-.05.01,0,0,0,.05-.03.05-.01,0-.03-.01-.05-.02,0-.01,0-.02,0-.04,0-.03-.03-.06,0-.1.03.03.09-.02.09.02.02,0,.03-.03.06,0-.03.04-.09-.02-.11.03"/>
          <path class="cls-2" d="M20.85,10.13c-.01.09-.1-.02-.11.06-.05-.04.07-.12.11-.06"/>
          <path class="cls-2" d="M24.15,13.16s-.04-.04-.03-.06c.03,0,.04.04.03.06"/>
        </g>
        <g>
          <path class="cls-2" d="M21.39,10.27s.08.01.05.05c-.02-.02-.06-.02-.05-.05"/>
          <path class="cls-2" d="M24.25,14.09c0,.06-.09.06-.07-.01.03-.03.05,0,.07.01"/>
        </g>
        <polygon class="cls-2" points="24.19 13.63 24.19 13.66 24.21 13.65 24.21 13.63 24.19 13.63"/>
        <polygon class="cls-2" points="17.86 11.66 17.87 11.68 17.89 11.68 17.88 11.65 17.86 11.66"/>
        <path class="cls-2" d="M18.54,11.79s.04,0,.04.03c-.02,0-.04,0-.04-.03"/>
        <polygon class="cls-2" points="20.33 12.11 20.35 12.11 20.35 12.09 20.34 12.08 20.33 12.11"/>
        <g>
          <path class="cls-2" d="M16.49,11.11s.01.04,0,.09c-.04-.03-.07.03-.11.04-.03-.03,0-.06-.01-.1.05,0,.07-.04.11-.02M22.98,11.31s0,.05-.02.06c-.03-.04,0-.05.02-.06M21.12,10.26s0,.02,0,.04c-.02-.01,0-.02,0-.04M21.23,10.14s.02.06,0,.04v-.04ZM23.96,12.48s0-.02,0-.01c0,.01,0,.02-.02.02l-.05-.04s-.05,0-.06-.03c.03-.03.03,0,.05-.04,0-.04-.04-.01-.05-.05.09-.02-.04-.12.02-.15.04.04.02.09.08.08-.04-.09-.05-.11-.11-.2.03,0,.04-.02.03-.05-.03.01-.03-.05-.05-.07,0-.04-.02-.07-.04-.11-.02-.01-.04-.04-.06-.05-.04,0-.03.07-.06.04-.05-.05.06,0,0-.06-.02-.03,0,.03-.04.03-.02,0-.02-.03-.04-.04-.02,0-.06.02-.07-.02.01-.04.03-.02.05-.05-.03-.06-.07-.01-.11-.06l-.03-.03s.03-.04,0-.07c-.01-.01-.02,0-.02.02-.01,0-.02,0-.04,0-.04-.06-.09-.06-.1-.11-.04.03,0,.07-.06.09-.02-.01-.03,0-.05-.01.01-.03-.05-.02-.04-.06.06-.02.06-.07.05-.11,0-.01,0-.02,0-.04,0-.01,0-.01,0-.02,0-.02-.04-.02-.07-.05-.03-.03-.02-.05-.06-.06,0,0-.02,0-.03,0,0-.04.03-.09.06-.13-.01-.01,0-.03-.02-.05-.03-.03,0-.03-.02-.06-.01.01-.02.04-.04.03-.03-.02.01-.05-.01-.07-.03,0-.05.03-.07.02-.03-.01-.01-.05-.04-.02-.02.03.06.06,0,.09-.05-.03-.09-.07-.08-.1.02-.04.05-.02.06-.06,0,0-.02-.02-.02-.03-.03-.04-.04.02-.07,0-.03-.03-.06-.02-.1-.05-.04.03.04.03.01.05-.03.03-.03-.02-.06,0-.01.01-.02.04-.04.03-.02-.06-.05.04-.09,0-.03.05,0,.05-.04.09-.04-.03-.08-.03-.1-.06,0,0,.02-.03,0-.03-.02.05-.02.04-.05.08,0,.02.04.04.02.07l-.06.02s-.01-.03-.04-.03c.03-.03-.03-.03,0-.06.01-.02,0-.03.01-.05.02.01.04.02.05.01.01-.02.02-.03.01-.05.02,0,.04.02.05,0,0-.05-.11-.04-.05-.12.02,0,.02.03.04.04.06-.07-.04-.1-.06-.14-.02.03-.04.04-.07.05.01-.04-.04-.07-.08-.09.03-.03,0-.04-.01-.06-.02.06-.07.03-.12.01,0-.01,0-.02-.02-.02.02-.04.01-.06,0-.08-.03.04-.05-.01-.08-.02-.03,0-.04.02-.07,0-.04-.02-.04-.06-.09-.07-.04,0-.07.04-.12.01-.02.02-.06.02-.06.07.05.03,0-.04.03-.03.05,0,.03.04.06.06.02-.02.08,0,.08.03,0,.03-.04.03-.07.04-.02,0-.04.03-.08.01,0-.04.03-.03.03-.05-.04,0-.05.02-.1,0-.01.01-.02.03-.03.06-.06-.02-.06.07-.12.04-.03,0,0-.05-.02-.06-.01-.02-.05-.03-.05.01-.02.03.05,0,.04.03-.03.01-.03.09-.07.1-.01-.01,0-.03,0-.05h-.02s0-.03,0-.03c0-.02.01-.05,0-.07,0-.02-.03-.02-.01-.04.02-.01.04,0,.07,0,.01-.03.06,0,.06-.06-.02,0,0-.02-.02-.03,0,.01-.06-.01-.06-.03.03-.05.02-.07.04-.12-.05-.02.01-.06-.03-.08,0,.01-.02,0-.04,0,0,.02,0,.05-.02.05-.02,0-.03,0-.04,0-.05,0-.05,0-.07-.02h-.02c-.05-.02-.07-.02-.09,0h-.02s-.06-.01-.08,0c-.01,0-.01.04-.02.05,0,.03.04.02.03.06-.04,0,0,.07-.06.08v-.07s-.05-.01-.05-.01c-.02.01-.01.04-.02.06,0,0-.03,0-.03.02.03.03.07-.02.09.01-.02,0-.03.01-.05.02-.03,0-.04,0-.06,0-.02.02-.05,0-.08.01,0-.02-.01-.05-.05-.06-.02,0-.02.03-.05.02,0-.03-.03-.03-.02-.05.02-.02.04-.02.04-.06-.02,0-.04,0-.04-.02.01-.03.1-.04.05-.08-.02,0,0,.05-.03.04-.02-.04-.05-.03-.09-.02-.02,0-.02-.04-.04-.04,0,.05-.03.05-.06.06-.03-.02-.07-.01-.06-.07h.05s-.02-.06.02-.09c-.07-.01-.11,0-.11.07-.03,0-.06.04-.08.02,0,.06.06-.01.05.06h-.11s.02.02.03.03c0,.01,0,.05.03.04,0-.05.04-.01.07-.02,0,.04.04.03.04.08-.02,0-.01-.03-.04-.03-.04.05-.11.04-.18.06l-.06-.05s-.06.02-.1.02c0-.04-.01-.05-.03-.06-.02.01-.03.03-.05.03l-.02-.04c-.01-.07.03-.06.04-.11-.02-.02-.03,0-.06,0l-.02-.04s-.02-.07-.03-.1h-.08c-.02.05.07.06.04.08-.02-.02-.04-.03-.09-.03-.02.02-.02.07,0,.09-.02-.02-.05,0-.06.02.02,0,.01.03.02.04.02,0,.05-.01.04.03-.03,0-.02,0-.05,0-.02.05-.04.02-.07.02h-.03s-.04.02-.04.02c0-.02-.02-.01-.02-.03-.02,0,0-.03-.02-.04-.02.02-.03.06-.06.06-.03-.04-.08.01-.11-.01.02-.05,0-.09,0-.15-.02,0-.03,0-.08,0,0-.07-.05-.01-.05-.06.04-.03.08,0,.08-.08-.03,0-.05.03-.07.04-.03,0-.06.02-.06.03h-.02s-.02.01-.02.01c0,0,0,.03-.02.04-.04-.01-.05.02-.06.04-.02-.04-.04.02-.07,0,0,.05.08.04.11.02,0,.02.05,0,.04.04-.04-.04,0,.05-.03.05h-.06s-.02-.06-.05-.07c-.03,0,0,.05-.03.05-.03.02-.1.02-.13,0,0,.02-.03.03-.06.03,0-.03,0-.05,0-.06-.04,0-.08-.02-.06-.06-.02,0-.07,0-.07.02.03.02.05.04.05.09-.07,0-.09.02-.14.02,0-.02,0-.04-.02-.05,0,.03-.03,0-.05.02-.02,0-.02.04-.04.03-.04,0-.11-.03-.12.01,0-.02-.02-.01-.03-.02,0-.03-.02-.02-.03-.05-.04,0-.01.07-.07.06v-.02s.05-.04.05-.09c-.03.02-.05.04-.09.05,0-.03.01-.04,0-.06l-.04.02s0,.03-.02.04c-.03,0-.03.03-.07.02,0,.02.02.03,0,.04-.03,0-.05,0-.06.02,0-.03-.01-.05-.04-.04,0,.02,0,.04-.02.04-.02,0,0-.03-.02-.04-.01-.01-.05,0-.07,0-.02.01.01.07-.01.08-.04,0-.11.04-.15,0,.02,0,.03,0,.03-.03l-.03-.03s-.02,0-.03.02v.04s-.04.06-.09.05c.01.03,0,.04-.02.04-.02-.07.04-.08.04-.14-.06-.03-.07.07-.1.1,0-.01-.02-.02-.03-.02-.02-.02,0-.08-.04-.07-.03,0-.01.04,0,.08-.05,0-.04.04-.07.05-.03-.03-.08-.01-.13-.02-.01-.01-.02-.04-.04-.04,0,.02-.01.05-.04.06-.04.01-.07-.02-.09,0v-.04s-.03.03-.05.03h-.03s-.05,0-.05,0c-.01,0-.01-.04-.04-.03-.02,0,0,.03-.01.04-.05,0-.04.04-.07.05-.02-.02-.05-.02-.06-.06h-.03s-.01,0-.01,0c-.02,0-.06.04-.06.04-.03.02,0,.03-.03.04-.02-.02-.02-.05-.05-.04-.02,0-.02.03-.03.04-.03-.01-.05-.05-.1-.03-.01,0,0,.02-.01.03-.02.02-.05.01-.07.03,0,0,0,.05-.02.04-.02-.06.04-.04.03-.08-.06-.01-.08.07-.14.08-.02,0-.01-.03-.03-.02l-.14.07s0-.02-.02-.06c-.04,0-.01.04-.04.04,0-.02,0-.06-.03-.04.04.04,0,.06-.04.07-.01,0-.02-.02-.03-.03l-.04.02c0-.05-.03-.02-.04-.04-.04.02-.05.06-.07.09.01,0,.02,0,.03,0h.01s.06,0,.06.03c.03,0,.02-.03.05-.04.03.02.09.03.12,0l.02.03s.02-.04.06-.04c.03,0,.04.04.08.03.05-.06.12,0,.18-.02,0-.03,0-.05,0-.05.03.07.05-.02.09,0l.02.07s-.06.05-.1.05c-.02,0-.03-.03-.04-.01-.03,0-.07.01-.09.02l-.03.02s-.02-.03-.03-.02c-.02,0,0,.04-.02.04-.01,0-.04,0-.04.02.03,0,.07,0,.12,0,.02,0,0-.04.04-.04,0,0,0,.02.02.02h.01s.04,0,.04,0l.02.02s.07,0,.08-.02c.02.04.03,0,.06.01,0-.01,0-.04.02-.04.02.01.03.04.07.02.02.01.03.06.06.05-.01-.04,0-.05.02-.07.02.04.05.04.06.09.07-.03.13.02.18-.01l.03.03s.01-.03.03-.03c.04.04.11,0,.17,0h.03s.04-.01.04-.01c0,.03.04.02.06.04.03-.02.06,0,.07,0,0,0,0-.04.03-.03.02.05.11-.02.13.03.01.04,0,.06-.02.08-.02-.01-.02-.05-.05-.04-.03,0,0,.04-.03.03-.04,0-.06-.03-.09-.03-.05.02-.06-.03-.1,0v-.04s-.03.02-.04.03c0,0-.02,0-.03,0h0s-.04.02-.06.03c0-.02-.02,0-.03,0v-.02s-.04,0-.04,0h-.03s-.03.01-.03.01h-.04s0,.07-.01.09c-.01-.02-.01-.06-.04-.05-.03,0-.03.04-.05.05-.05-.05-.14-.02-.21-.03-.03,0-.01.04-.04.03,0-.02-.03,0-.04,0-.01,0-.02-.02-.03-.02,0,0-.02.05-.04.04-.01,0-.02-.01-.03-.03-.04.01-.02.06-.06.07-.02-.03-.01-.05,0-.06,0,0,.03.02.02-.02-.03,0-.06,0-.09.02-.03,0-.04-.02-.07-.02-.01,0-.01.03-.02.03,0,0-.01-.04-.03-.02-.02.03,0,.08.02.08v.02s.04.02.04.02v.02s.03,0,.03,0c.04,0,.01-.06.05-.06.04,0,.07,0,.08.07.02.02.04,0,.06.01l.02.02s.04,0,.04.02c0,.02.03,0,.03.02.01.04,0,.06-.01.08-.02,0-.04-.02-.07,0,.02.04-.02.03,0,.06.02.02.05.04.06.05.02.03.06,0,.09.02.02.01.04,0,.06-.01,0,.03.03.01.04.02.01,0,.02.04.04.02.02,0,0-.03.01-.04.01.04.06.02.07.06.04-.03.07.03.09,0,0,.01,0,.03.02.03,0-.02,0-.03.03-.03,0,.05.05,0,.07.04.03-.02.04,0,.08-.03,0,.02,0,.03.01.02,0,.02,0,.02,0,.04.02,0,.04,0,.05.04.02,0,.03-.03.06-.03,0,.04.03.03.03.03.02.02.04,0,.05,0,.03-.02.03.02.05,0,0,0,0-.03,0-.03v.05s.06,0,.1,0h.04s0-.05.02-.05c0,.01.03.06.03.02l-.02-.02s.02,0,.06,0c0,.02.02.02.02.05l.04.03s.02.03.02.05c.02,0,.02.01.04,0,.01,0,0-.02.01-.03,0,.02,0,0,.02,0,.02,0,.05-.01.07-.01h0s.02,0,.02,0h0s.02,0,.02,0v.02s.03,0,.03,0v.04s.03-.03.05-.04h.04s.01-.04.03-.04c0,.03.03.03.04.06.03,0,.02-.04.04-.04l.03.06.05.02s.04.05.07.05c.01,0,0-.01,0-.01h.03s.04.01.05,0c0,.02.03.02.03.05h.04s.04.05.05.04h0s.03,0,.03,0c.01,0,.03,0,.04,0,.01-.05-.05-.04-.02-.06.03,0,.06.02.08,0,0,.03-.01.05.02.06,0-.03.02-.03.02-.04,0-.02-.02-.06,0-.06h.02s.03.02.05.02c.01-.04.05-.04.08-.03,0,.02,0,.05.01.05,0-.02.01,0,.01.02.03,0,.03-.02.06-.02,0,.03,0,.05.01.06.03,0,.02-.02.04-.02,0,.03.01.04.03.03h.02s0-.04.02-.04c.02.02,0,.02,0,.05.03-.01.03.02.05.02.01-.04.05-.06.08-.08,0,.03,0,.06.01.07.03,0,.02-.04.06-.03.01.03-.04.05,0,.05,0,.03.03-.02.05,0,0-.04.02-.06.04-.06.02,0,.03.03.03.07.04,0,.03-.06.06-.09,0-.04-.02-.02-.02-.06.02,0,.03.02.04,0,0,.03.05.02.05.06.03,0,.05,0,.07.01,0,0,.01.03.02.04.01.01.04,0,.03.02.01.04.02.1.06.1.01,0,0-.04.03-.02.02-.02-.01-.03,0-.04.02,0,.02.03.03.05.03,0,.02-.04.05-.02,0,.02-.03.05,0,.06,0-.02.08-.03.06.03.03,0,.05-.01.08-.01.03,0,.01.03.04.03.01-.05.03-.02.05-.02.02,0,.02-.03.03-.02,0,.02-.02.01-.02.02,0,.02,0,.02,0,.04.03.01.03-.05.05,0,0-.04,0-.05,0-.07.04.04.07-.03.12,0,.01.02,0,.07.02.08.01-.04.07-.01.09,0v.06c.06,0,.17-.08.18.03.03,0,.03-.03.05-.04.05,0,.05.01.07.05,0-.02.02,0,.02-.02.01,0,.01-.02.02-.02.05,0,.05,0,.09.01,0,.02,0,.02.01.03,0,0,0,.03,0,.04h.02s0,.05.02.04c.02.02.03-.02.05-.03.02,0,.03-.02.05-.01.01,0,0,.04.01.05.02.03.03-.02.04-.01,0,0,0,.03,0,.03,0,0,.02-.03.03-.02l.02-.03s.04-.02.05-.02h.02s.01-.02.02-.02c0,0,0,.02,0,.03l.02.02s.01,0,.02,0c0-.02.02,0,.03,0h0s.03,0,.04-.01v.02s.02.05.01.09c.03,0,.03.04.06.06,0-.01.01-.03.02-.02.02.02.05.02.07.01,0,.03.03.03.04.05,0,0,0,.02,0,.01v.02s.1,0,.11.05c.02-.04.02,0,.04,0,0,0,.01,0,.02,0l.02.02s.01,0,.03,0h0s.05.03.05.03h.02s.02.03.03.04c0,0,.01,0,.02,0l.02.02h.02s.02.04.04.03v.04s.01,0,.02,0c.02.01.03.01.04.02.02,0,.02,0,.03,0,.02,0,.02.01.05,0,0,.02-.01.05,0,.07.01.03.04.02.06.02-.03.03.01.04.02.05v.02s0,.01,0,.01c0,.01.02.01.01.03.04-.01.03.02.05.03h.02s.02.08.04.1h.02s.02.04.02.04c-.02.01,0,.02-.02.03.02.01.04.02.04.04h0s.03.01.03.02c-.02.03,0,.07.02.08,0,0,.01,0,0,.02,0,0,0,.02,0,.03,0,.03,0,.04,0,.06h.02s.01.04.01.04h0s.02.03.02.03v.02s0,0,0,0c.03.02-.01.05.01.06h0s.01.03,0,.03c0,0,.01.06.01.06,0,.01.01.01,0,.02h0s.01.03.02.05c.02.03,0,.05,0,.06v.03s0,.02,0,.02v.02s0,0,0,0c-.01.04.02.07.02.08,0,.04,0,.08,0,.11l.02.03h-.01s0,.02,0,.02c0,.03-.01.04-.01.06,0,.03.02.04,0,.05v.03s-.01.03-.01.03v.03s.01.03.01.03h-.01s.01.03.01.03v.02s0,0,0,0c.01.03-.01.05-.01.07,0,.04.01.06-.02.07,0,.03.01.06.01.08,0,.01,0,.04,0,.04h-.01s0,.04,0,.04v.05s-.03.02-.01.03c0,0,0,.02,0,.02-.03.04-.04.09-.05.15h-.04s0,.03,0,.03c0,.02.05.02.03.04,0,.02-.04,0-.04.03l.04.06s-.01.01-.02.02c0,0-.03,0-.03.01,0,.06-.03.1-.04.15-.04,0-.05.05-.08.07,0,.01.02.03.01.04-.02,0-.05-.02-.05,0-.01.02.01.03.01.04,0,.02,0,.02.01.03-.02,0,0,.04-.05,0-.02.02.04.03.03.05,0,.01-.04,0-.05,0,0,0,0,.01-.02,0-.01.03-.03.06-.07.09v.04s-.01.01-.02.03h-.02s0,.02,0,.02c0,.03-.01.03-.03.04v.02s-.04,0-.05-.01c-.02.01,0,.03-.01.05-.05,0-.06.06-.1.08h-.02s0,.03,0,.03h-.02s-.04.02-.05.03c-.02,0-.01.03-.03.04l-.06.02-.04.03v.03s-.03,0-.03,0v.02s-.04,0-.04,0c-.02,0-.01.04-.03.01-.01-.01-.02,0-.03,0,0,0,.02.04,0,.04,0,.01-.02-.02-.02-.02-.01,0,0,.02-.01.02h-.03s-.06,0-.05.04c-.01-.02-.02-.02-.03-.03,0,0,0,.01,0,0,0,.02-.02,0-.02.02-.02.01,0,.01-.02.01h-.02s-.02,0-.02,0c-.01,0-.02.02-.04.02-.01,0-.02-.01-.03,0v.03s-.04-.03-.06,0c.02.05,0,.06-.02.07-.03,0-.06-.05-.1-.04v.02s0,.03,0,.04c-.02,0-.04,0-.05-.03-.03.02-.06,0-.08.03-.03-.02-.03,0-.05-.02.02.04.01.07,0,.08h-.05s0,.02-.02.02c-.01-.01-.02-.06-.04-.05,0,.02-.01.02-.02,0-.03.03-.06,0-.09,0l-.04.02h-.04s-.02.01-.02.01h-.03s-.05,0-.08.01c0,.02,0,.04,0,.05,0,.02-.06,0-.08.03l-.04-.03s0,0-.02,0c0,.02-.03,0-.03.03-.03-.03-.06,0-.09.01h-.09s-.04,0-.05,0h0s-.04,0-.04,0h-.02s-.03,0-.03,0c-.03,0-.02,0-.05,0-.05,0-.1.01-.13,0,0,.02-.03.01-.05.03l-.04-.02h0s-.07,0-.06,0h0s-.02.01-.02.01c-.08,0-.18,0-.24,0-.02,0-.03.03-.05.01,0,.01,0,.03,0,.04-.02,0,0-.03-.03-.03-.02.02-.03.03-.06.03-.08-.04-.18.03-.25,0-.01,0,0,.02-.02.02,0-.05-.07-.02-.11-.03,0,.01-.01.01-.03.01,0,.01-.01.02-.03.02-.02.01-.03,0-.05,0h-.04s-.02,0-.02,0c-.03,0-.05,0-.07,0-.03,0-.03,0-.04,0-.02-.01-.04.02-.06.02-.06.02-.16,0-.21,0-.03,0-.04,0-.05,0h-.03s0,0,0,0l-.02-.02h0s-.02,0-.02,0h-.04s-.02,0-.02,0h-.02s-.04,0-.05.03c-.01,0-.01-.02-.03,0h-.03s-.04,0-.04,0c-.01,0-.01-.02-.03,0h-.02s-.03,0-.05,0h-.08s-.04,0-.04,0l-.05-.02h-.03s-.1,0-.1,0h-.06s-.08,0-.08,0c-.01.03-.03.01-.03.03,0,.02-.02.01-.03.02l-.05.05s0-.03-.03-.03c-.02.03-.05.01-.08.02l-.02.02s-.05.05-.08.06l-.04.05-.05.03-.03.03-.04.03s0,.02-.01.02l-.02.08s-.04.02-.06.05c.03,0,.03.02.03.06,0,.03-.04,0-.05.04.04,0,0,.05.05.04v.04s.07.04.07.09c.04.01.07.04.11.04.04,0,.03,0,.06.01.04.01.07.02.09.03h.05s.03.03.03.03c.05.02.08.02.11.03.06.03.15.06.21.09h.06s.02.04.02.04l.03.02s.03.01.03.03c.07-.01.16.04.24.06.01,0,.01-.02.02-.02l.03.04s.02,0,.04,0h0s0,.01,0,.01l.06.02.14.04s.05.02.05.03c0,0,.02,0,.03,0h0s.04.02.04.02c.02,0,.03.02.06.02h.03s0,.01,0,.01h.04s0,.02,0,.02h0s0,.01,0,.01c.04.02.09,0,.12.02h0s0,.01,0,.01h0s.07.03.09.03h.03s0,.01,0,.01h.04s.04,0,.05.03c.04-.03.08.02.12,0,0,.02.01.04.04.04.03,0,.07.01.09,0,.03.05.1.05.16.05l.03.03s.05,0,.06.03c0,0,.03,0,.03,0h0s.05,0,.05,0h.03s.05,0,.05,0l.08.03s0-.01.02-.01h0s.02.01.02.01c.03.01.06,0,.1,0,.02,0,.04.03.07.03.02,0,.03-.01.05-.01.02,0,.02.02.03,0,0,0,.03,0,.03-.01,0,.03.03.02.04.03,0-.01,0-.05.03-.04.04-.01.04.02.08,0,.03.07.08.02.13.02.04,0,.07,0,.1-.01.03,0,.05.03.09.04h0s.01,0,.01,0h.06s.04.01.04.01h0s.01,0,.01,0l.04-.02s.09.01.15,0h.02s0,0,.02,0c0,0,.01,0,.01,0,.03.01.03,0,.06-.01.06-.02.08-.03.1-.06,0,.06.04.02.06.02,0,0,.02.03.03.03.03,0,.01-.04.05-.04.02,0,.04.02.05.03.01,0,0-.01,0-.01.01,0,.03.02.04.03.02-.02.05,0,.08-.02l.04-.02s.03.03.05.01l.02-.05s.06,0,.1-.02l.07.04.04-.03c.02.06.05,0,.08,0h.05s.03-.03.03-.03c.02-.01.06-.02.07-.03.02-.01.01-.04.03-.04l.04.05.07-.06s.02.02.03.01h.02s.04-.01.06-.02c.02,0,.02,0,.05,0,.03-.01.04-.04.06-.06.01,0,.04,0,.05,0l.06-.02s0-.02,0-.03c0-.01.02.02.02.02l.06-.05s.02,0,.03,0c.03.01.07-.05.08-.05.01.03.03.02.06.02.02-.09.12-.08.17-.11.04-.02,0-.04.03-.03.04,0,.07-.04.1-.04.01-.01-.01-.03.01-.04.02-.03.04,0,.07-.03.02-.05.06-.05.07-.08.01,0,.02.03.03.02v-.05s0-.04.02-.05c.04,0,.03.06.07.06.02-.02.04-.04.05-.06.03,0,.06-.04.09-.03.02-.05.04-.04.07-.09.06-.02.06-.05.12-.09,0-.02-.06-.03-.04-.05.03.05.06,0,.09.03.03-.06.07-.09.06-.16.06,0,.15-.1.15-.17.03-.02.05-.03.06-.07l.03.02c.05-.06.06-.11.09-.16.02-.02.05,0,.07-.03-.02-.03.03-.04.04-.06,0-.02,0-.04,0-.06,0,0,.04.02.03-.01-.01,0,0-.02,0-.04,0-.01-.01-.02-.01-.03,0-.01.02-.01.03-.04,0-.02-.02-.03,0-.06.01,0,.01,0,0-.02h.04s0-.02.02-.05c-.01-.03-.03-.07-.02-.1.01-.02.04,0,.04-.05.02,0,.06.02.07-.01-.02-.01.02-.05,0-.07.03.01.04.01.06,0,.01-.03-.01-.04-.02-.06v-.09s.05.02.05.02c.02-.06.04-.13.08-.16-.03,0-.02-.04-.03-.05-.01-.01-.05,0-.04-.02.02-.02.06,0,.08-.02.03-.03-.04-.06,0-.06,0,.03.07.03.06,0-.01-.03-.04.01-.05-.02.04-.02,0-.03,0-.05,0-.02.02,0,0-.02-.02-.02.04-.03.02-.06h.05s0-.02-.02-.02c-.02,0,0-.03-.02-.04.02,0,.03,0,.06,0,.01-.03-.02-.03-.02-.05-.02,0-.06,0-.04-.03.02-.02.05.02.07,0,0,0,0-.02.02-.02,0-.05-.03-.07,0-.13-.02-.01-.04-.03-.03-.06h.06s-.02-.03,0-.06c.03,0,.04,0,.04-.03,0-.02-.02-.01-.02-.03.03-.02.04-.06.04-.1-.04,0-.03-.05-.05-.08.02-.01.06,0,.08-.02,0,0,0-.02.02-.02v-.16s0-.02,0-.04c0,0-.03-.01-.02-.04.02,0,.02.02.04,0-.01-.03-.01-.06,0-.09-.02-.02-.05-.03-.06-.06.02,0,.03-.02.02-.05-.03,0-.05-.03-.06-.06.01-.05-.02-.07-.02-.1l.04-.02s.05.03.05-.01c-.02-.02-.06-.01-.05-.07h.05s.03-.05.03-.09c0-.03-.02-.05-.02-.1-.02-.02-.05-.02-.07-.04v-.06s.05-.05.08-.03c-.02-.04.02-.06.02-.08,0,0-.01,0-.01-.01-.01-.04.02-.06,0-.09-.05,0-.03.05-.07.05l-.03-.03s.05-.05.06-.07l-.1-.07c-.01-.05,0-.12-.03-.16.02,0,.02-.03.01-.06.04,0,.03,0,.06-.03,0-.04-.04-.03-.04-.07-.03,0-.05-.01-.06-.04.01,0,0-.02,0-.02.02,0,0-.06,0-.07-.02,0-.01-.01-.02-.02l-.03-.02s-.03-.07.01-.07c.03.02.04.06.09.03-.03-.03,0-.06,0-.06,0-.03-.03-.05-.05-.08,0,0,.02,0,.02-.02-.03.01-.04.01-.05,0-.03.01-.04.05-.06,0,0-.03.01-.06.02-.08"/>
          <path class="cls-2" d="M15.38,10.59s0,.04,0,.05c-.03,0-.05,0-.06-.05.03-.02.11-.04.13.02-.02-.01-.04,0-.06-.02"/>
          <path class="cls-2" d="M14.8,11.15s.05-.02.07-.02c.01,0,.02-.02.02-.02.03,0,.05.02.08.01,0,.02-.02.02-.02,0-.01,0-.03.02-.04.01,0,0-.01-.01-.02,0,0,0-.01.02,0,.01-.02,0-.04-.03-.08,0"/>
          <path class="cls-2" d="M15.87,10.93s0,.01,0,.01c0,.02.01.04.03.03,0,.04-.04.06-.06.01-.03,0-.01.04-.05.04l-.03-.05s-.04,0-.06.03c0-.03-.03-.02-.05-.01l-.04-.03s.01-.05.05-.05c.02.05.06.04.09.05.03,0,0-.05.04-.05,0,.03.01.03.02.05,0-.04.06,0,.06-.03"/>
          <path class="cls-2" d="M15.19,11.13h.05s.03,0,.04,0v.03s-.03-.02-.04-.02c-.01,0-.05.03-.05,0"/>
          <path class="cls-2" d="M15.61,11.15s0,.04-.03.02c-.02-.05.03-.04.04-.02,0,.01,0,0,0,0"/>
          <path class="cls-2" d="M17.34,22.82s0-.02-.02-.02c.02-.03.04-.02.05,0l-.04.03Z"/>
          <path class="cls-2" d="M17.28,22.74s.02,0,.04,0c0,.02-.01,0-.02,0,0,0-.03.01-.02,0"/>
          <path class="cls-2" d="M17.54,22.93h-.01s.04-.01.01,0"/>
          <path class="cls-2" d="M16.83,22.36s.04-.04.05-.02l-.03.02s-.02.01-.02,0"/>
          <path class="cls-2" d="M18.23,23.46s-.02-.01,0-.03c.01,0,.03,0,.04,0-.01.01-.02,0-.04.03"/>
          <path class="cls-2" d="M16.83,22.3v.02s-.02,0,0-.02"/>
          <path class="cls-2" d="M18.11,23.36h0s.02-.03.02-.03c0,0,0,.01,0,.03"/>
          <path class="cls-2" d="M18,23.24s0,0,.02.01c-.01.02-.04,0-.02-.01"/>
          <path class="cls-2" d="M17.24,22.66s0-.01,0-.02h0s-.01.02-.01.02Z"/>
          <path class="cls-2" d="M17.71,23.02s.02-.02.03,0c-.01.02-.03.02-.03,0"/>
          <path class="cls-2" d="M17.23,22.55s-.03.02-.04,0v-.02s.02,0,.03-.01c0,0,.01-.03.03-.03h.02s-.01.02-.01.02c0,.02,0,.03-.02.05,0-.01-.04.02-.03,0,0,0-.02.02-.02,0,.02-.03.03,0,.05-.03"/>
          <path class="cls-2" d="M17.64,22.94s.02.03.06-.01c0,.03-.06.05-.06.01"/>
          <path class="cls-2" d="M16.49,22s.02,0,.02,0c-.01.02-.02,0-.02,0"/>
        </g>
        <polygon class="cls-2" points="18.13 23.32 18.14 23.33 18.15 23.32 18.14 23.31 18.13 23.32"/>
        <g>
          <path class="cls-2" d="M17.5,22.81s-.03-.01,0-.03c0,.01.02.01,0,.03"/>
          <path class="cls-2" d="M16.24,21.8s.02-.06.03-.03c0,.02-.02.03-.03.03"/>
        </g>
        <polygon class="cls-2" points="16.36 21.89 16.37 21.89 16.38 21.88 16.37 21.87 16.36 21.89"/>
        <g>
          <path class="cls-2" d="M18.42,23.53s.02-.02,0-.03c0,0,.01,0,.02,0l-.02.02Z"/>
          <path class="cls-2" d="M18.29,23.39h.01s-.04.03-.01,0"/>
          <path class="cls-2" d="M18.1,23.28h0s0-.01,0-.01c.01,0,.02-.02.03,0-.01.01-.02,0-.03.02"/>
          <path class="cls-2" d="M18.6,23.65s0-.03,0,0"/>
          <path class="cls-2" d="M18.07,23.22l.03-.03s.02,0,.03,0h0s0,.02,0,.02c-.01.02-.03,0-.05,0"/>
          <path class="cls-2" d="M18.34,23.42s0-.02.01-.03h.01s-.02.03-.02.03Z"/>
          <path class="cls-2" d="M17.74,22.88v.02s.04,0,.04.02c0,0-.01,0-.02,0h-.02s-.03-.01,0-.04"/>
          <path class="cls-2" d="M19.49,24.31s-.02,0,0-.01h0s0,.01,0,.01Z"/>
          <path class="cls-2" d="M19.43,24.25s0,0,0-.02h0s-.01.02-.01.02Z"/>
          <path class="cls-2" d="M19.4,24.22s-.03-.02,0-.05c.02,0,.03.02,0,.05"/>
          <path class="cls-2" d="M19.63,24.37s-.01,0-.01-.01c0,0-.01,0,0-.02h.02s0,.03,0,.03"/>
          <path class="cls-2" d="M19.34,24.13h-.02s.01-.01.01-.01l.02-.03.02.04s0-.04-.03,0"/>
          <path class="cls-2" d="M19.62,24.33s0-.03,0,0"/>
        </g>
        <polygon class="cls-2" points="19.57 24.27 19.57 24.29 19.58 24.28 19.58 24.26 19.57 24.27"/>
        <g>
          <path class="cls-2" d="M19.33,24.08s0,0,0-.02h0s-.01.02-.01.02Z"/>
          <path class="cls-2" d="M19.52,24.16l-.02-.05s.01,0,.02,0c0,.03.02.02,0,.05"/>
          <path class="cls-2" d="M19.49,24.06s0,.02.02.03l-.02.02s-.02-.02,0-.05"/>
          <path class="cls-2" d="M19.65,24.24l.02-.02s-.01-.02-.02-.03h.01s0,.01,0,.01h0s.01,0,.01,0v.03s-.02,0-.03,0"/>
          <path class="cls-2" d="M19.64,24.18s-.01-.01,0-.03c.01,0,0,.01,0,.03"/>
          <path class="cls-2" d="M19.56,24.04s.02-.03.02-.04c.01-.01,0,0,0,0,0,0,.03,0,0,.02l.02.03s0,.02-.02.04h-.01s-.02-.02,0-.05c0,0-.02,0-.02,0"/>
          <path class="cls-2" d="M19.46,23.74s0-.03.03-.04c0,0,0,.02.02,0,0,.02,0,.02.01.02,0,.02-.01.02-.03.05.01,0,.03-.01.04,0-.03.03.02.02-.01.05.01,0,.02.01,0,.03.03,0,.02.03.05.03v.07s-.02,0-.02-.02c0,0-.01,0-.02.02-.02,0,0-.02,0-.02,0,0-.02,0,0-.02,0,0-.02.01-.03,0,.02-.03,0-.07-.03-.05,0-.01.01-.03,0-.05,0-.02-.03,0-.04,0-.01,0,0-.03,0-.04,0,0-.01,0-.02.02h0s0-.05,0-.06c.02-.02,0,.03.03,0,0,0,0,.02,0,.02"/>
        </g>
        <polygon class="cls-2" points="19.23 22.92 19.24 22.93 19.25 22.91 19.24 22.91 19.23 22.92"/>
        <path class="cls-2" d="M19.09,22.64s-.01-.01,0-.03c0,0,.02.01,0,.03"/>
        <polygon class="cls-2" points="18.52 21.95 18.52 21.96 18.53 21.95 18.53 21.94 18.52 21.95"/>
        <g>
          <path class="cls-2" d="M19.35,23.66s.02-.02.04-.04c0,.03.03.01.04.02,0,.03-.03.03-.04.05-.01-.01-.04,0-.04-.03M17.08,22.34s0-.02.02-.04c0,.01,0,.02-.02.04M17.59,22.84s0-.01.01-.02c0,0,0,.01-.01.02M17.51,22.89s.01-.04.02-.02l-.02.02ZM16.66,22.13s0,0,0,0h0s.03-.02.03-.02c0,0,.03-.02.03-.01-.01.02-.01.02-.02.03,0,.01.02-.01.03,0-.04.04.02.03,0,.07-.02,0-.01-.03-.04,0,.02.02.03.03.05.04-.01.01-.02.02-.01.03.01-.01.02,0,.02,0l.02.03h.03s.02-.04.03-.04c.02,0-.03.02,0,.03,0,0,0-.01.02-.02,0,0,0,0,.02,0,0,0,.03-.03.03-.01,0,.02-.02.02-.03.04.01.02.03-.02.05,0h0s-.02.03,0,.04h0s.02-.02.02-.02c.01.02.03,0,.03.03.02-.02,0-.03.04-.06h.02s.02,0,.01.01c-.03.02-.03.05-.04.06v.02s0,0,0,0h.02s0,.03.02.02h.01s-.03.05-.05.08v.02s0,.02,0,.03c0,0,.02-.02.02-.02,0,0-.02.03,0,.03.01,0,.02-.02.03-.02.01,0,0,.03.01,0,.01-.02-.01-.02.02-.05.01,0,.03.02.01.04-.01.02-.02.02-.04.04h0s.02,0,.03,0c0,0,.02,0,.03.01.02-.02,0-.01,0-.03.02-.02,0,0,.02,0,0,0,.02-.02.02-.02,0,.03.03-.03.04,0,.02-.03,0-.03.04-.05.01.01.03,0,.03.02,0,0-.02.02,0,.02.02-.03.02-.02.04-.05,0-.01,0-.02,0-.03l.03-.02v.02s.01.02,0,.03l-.02.03h-.02s-.02.02-.02.02c0,0-.01,0-.02,0-.02.03.03.01,0,.06v-.02s-.02.05-.02.07l.04-.03s0,.04,0,.05c-.02.02-.01.02-.01.03.02-.03.04-.02.05-.01h0s-.02.05-.02.06c.02-.02.02,0,.02,0,0,0,.02-.01.03,0,.01.01,0,.03.01.04.02,0,.04-.02.05,0,.02-.01.03,0,.04-.04-.01-.02,0,.02-.02.01-.02,0,0-.02,0-.03-.02.01-.03,0-.02-.02.01-.02.03-.02.04-.02.01,0,.03-.02.03,0-.01.02-.02.01-.03.03.01,0,.03,0,.04,0l.03-.03s.04-.03.06-.01c.01,0-.02.03-.01.03,0,.01,0,.02.02,0,.02-.01-.02,0,0-.02.02,0,.04-.05.06-.05l-.02.03h0s0,.02,0,.02l-.03.04s0,.01,0,.02c0,0-.02,0-.02,0-.02.02-.02,0-.04.03v.02s.02.01.01.02c-.03.02-.03.04-.05.06.01.02-.02.03-.02.05,0,0,.01,0,.01,0,0,0,.02-.02.02-.02h.01s.02,0,.02.02h0s.02.02.03.01h0s.02.02.03.01l.02-.02s0-.02,0-.03c.02,0,.03-.04.05-.03l-.03.04.02.02.03-.03s0,0,.02,0c0-.02-.03,0-.03-.02,0,0,.02,0,.02,0,.02,0,.01.01.02,0,.02,0,.02.01.03,0,0,.01-.01.03,0,.04,0,0,.02-.01.02,0v.03s-.03,0-.05.02c0,0,.01,0,0,.02-.01.01-.05,0-.04.04,0,0,.02-.02.03-.02,0,.02,0,.02.02.03v.03s.03-.02.04-.02c0,.01.02.02,0,.05h-.02s-.02.03-.04.03c.02.02.04.02.06-.02.01,0,.04-.01.03,0,.02-.03-.02,0,0-.04l.03.03s0-.02,0-.03c0,0,.02-.03,0-.03-.02.02-.02,0-.03,0,.02-.02,0-.03.02-.05,0,0,0,.02,0,.02.03-.02.05,0,.08,0v.04s.03,0,.04.01c-.02.02-.02.03-.02.04.01,0,.02-.01.03,0v.02s-.04.03-.06.05c0,.02.01,0,.02.02v.02s-.03.04-.04.06l.02.02s0-.05.02-.05c0,.02,0,.03.02.03.01,0,.03-.03.03-.04,0,.02.02.01.03,0v-.02s-.01,0,0-.02c.01,0,0,0,.02.01.03-.02.02,0,.03,0h.01s.02,0,.02,0v.02s-.02.02-.01.02c.02,0,.03-.02.04-.02,0,.03.03.01.03.03-.03.02-.03.05-.06.07,0,.01,0,.01.02.03-.03.04,0,.02,0,.04-.02,0-.02-.02-.06.02h.04s.03,0,.03,0h0s0,0,0,0h0s.02,0,.02,0c0,.02.02,0,.03,0,0,.02.02,0,.02.02.02-.03,0-.04-.02-.04,0-.01-.01-.01,0-.03,0,.03.02-.02.03-.02l.02.02s-.02.04-.01.05c0,0,.02-.02.03-.02.02,0,.04.02.04.03.01,0,.02,0,.03,0l-.03.03s.01.03,0,.04c0,0,.01.02.03.01,0-.02,0-.03.03-.06.02.02.03.02.05.03v.03s0,0,0,0c0,0,.02-.01.02,0,0,.02.02.04.04.03v.02s0,.02-.01.03c.01,0,.03-.03.04,0v.02s-.04,0-.06.02h.04s-.02.04-.02.04h.02s.02-.01.02,0c0,.01.02,0,.03.01,0,0,0-.02.02-.02,0,0,.01.01.02,0-.01.02-.02.03-.01.03,0,0,.02-.02.02-.01,0,0-.01.02-.01.02,0,0,.02.01.02.02,0,0,.03-.04.04-.03.02,0,.05.02.04.04,0,0,0,0-.02,0v.02s0,0,0,0l.02-.02s.04-.02.04,0c.01-.02.02-.02.02-.01-.03.04-.05.02-.07.05,0,.03.05,0,.07-.02v.02s-.03.04-.02.04c0,0,.02-.02.04-.03.01.02.03,0,.04,0,0,.02.01.03.02.05,0,.01-.02.03-.01.03.01,0,.03-.02.04-.01.01,0,0,.04.02.03v.02s.01,0,.01,0h0s.02.03.02.03c0,0-.02.02,0,.03,0,0,.02-.02.02-.01.01.02.03,0,.04,0,0,.02,0,.03-.01.05h0s0,.02,0,.02c0,0,.03,0,.03,0h.03s-.02.02,0,.03h.03s-.02.03,0,.04h.02s.03,0,.03,0c0,0,.02-.02.02-.01-.02.03-.03,0-.05.02,0,.03.05,0,.07.02,0,0,0,.02,0,.02l.06.02s0,.01-.02.03c0,.02.02-.01.03,0,0,.01-.03.03-.01.03.01-.03.03-.02.04-.02v.02s0,0,0,0c-.02.02,0,.02,0,.03.02,0,.04,0,.06-.01h0s0-.02,0-.02c0-.01-.02-.02,0-.03,0,0-.02,0-.03,0,0-.02,0-.05-.03-.04v-.02s-.01.01-.02,0c0-.01,0-.03,0-.04-.04,0-.03-.04-.05-.06-.01.01-.02.02-.03.02.03-.04-.02-.01-.02-.04l.03-.04s.04,0,.05.02c0,0,0,.02,0,.02l.03.02h.01s-.01.02,0,.02c0,0,.02-.02.03-.01,0,0,0,.01.02,0l-.03-.04s-.02.01-.03,0h0s0-.02,0-.02h-.01s0-.03,0-.03c0-.01-.01-.03-.03-.02.01-.02,0,0,0-.03,0,0-.02.02-.02.01,0-.01.01-.03,0-.03,0-.01.02-.04,0-.04-.01.02-.02.02-.03.02.01-.02,0-.04.03-.06-.03-.01-.02-.06-.05-.06v-.02s0,0-.01,0c0-.03-.02-.04-.04-.06h0s-.02-.02-.02-.02c.01-.02,0-.02,0-.04-.02,0-.01-.02-.02-.02,0,0-.02.01-.02,0,.02-.03-.04-.03-.02-.06.02-.02.03-.03.04-.03,0,.01-.02.03,0,.04,0,.02.02-.02.02,0,.01.01,0,.03,0,.05.02,0,0,.04.03.03v.02s0,0,0,0h0s0,.01,0,.01l.02.02s0,0,0,.01v.02s0,0,0,0h0s.01.02.01.02h.01s.04-.02.04-.02c0,.01-.03.03-.02.04,0,0,.02,0,.03,0,0,.04.02.06.03.09,0,.01.02-.01.03,0,0,.01,0,.01,0,.02v.02s.03-.02.03,0v.02s.02-.02.04,0c0,.02-.02.03-.03.03,0,0,0-.02-.01,0,0,.02.01.02.03.02v.03s.02,0,.02,0c0,0-.02.02,0,.02.02,0,.03-.04.04-.04h0s0-.03,0-.03h0s0-.02,0-.02c-.01-.01-.03.02-.04,0,0-.01-.02-.03.02-.06,0-.01,0-.02,0-.03v-.02s0-.01,0-.02c0-.01,0-.01,0-.02.02-.02.03-.03.04-.03,0,.01,0,.02.01.03.01-.02.02,0,.03-.03v-.04s0-.03,0-.04c0-.01,0-.01-.02-.02.01-.02,0-.02,0-.02,0,0,.01-.02,0-.02,0,0-.02.02-.02.01.02-.02,0-.03.01-.05-.02,0,0-.04-.02-.03,0,0,.02-.02.01-.02,0,.01-.02,0-.02,0,.02-.02,0-.02,0-.04-.02,0-.01-.01-.03-.02,0,0,.02,0,0-.02l.02-.02s0-.02,0-.03c0,0-.02,0-.03-.01.02-.02,0-.02,0-.03,0-.02,0-.02-.01-.02-.01,0,0-.02-.01-.02,0,0-.01.02-.01,0l.02-.03s0-.02-.02-.04h-.01s-.02,0-.02,0c0,0,.02-.04,0-.02v.02s-.01,0-.02-.02l.02-.03v-.03s.02-.03.02-.03v-.02s-.02,0-.02,0c0-.01,0,0,0,0l-.03-.02h0s0-.01,0-.01h0s0-.01,0-.01v-.02s0,0,0,0v-.02s0,0-.02,0h-.01s-.02,0-.02,0v-.04s0,0-.02,0l.02-.04v-.03s0-.04,0-.05h0s0,0,0,0c0,0,0-.02-.02-.01v-.03s0-.01,0-.01c0-.01,0-.04,0-.04h0s0-.01,0-.01c0,0-.01,0,0-.02-.03.02,0,.04-.02.04,0-.01,0-.03-.02-.03.01-.01.03-.02.02-.03-.01.02-.02,0-.02.01,0,0-.02.03-.03.03h-.01s0-.02,0-.03c-.02.01-.04,0-.04-.01,0,0,.02-.02.02-.03,0,0,0,0,0-.02,0-.01-.02,0-.03-.01l.02-.03s-.02,0-.02,0c.01-.01.01-.02,0-.03h-.01s-.01.02-.02,0c0-.02,0,0,.02-.02-.01,0,0-.02,0-.03-.02.02-.04.01-.06.01.01-.02.02-.03.03-.04,0,0-.02.01-.03,0,0-.02.03-.01.02-.02.01-.02-.02,0-.02-.02-.02.02-.03.02-.04.02,0-.01,0-.02.02-.05-.02-.01-.04.02-.06.03-.02.02,0,.02-.02.04,0,0,0-.02-.02-.01,0-.02,0-.02,0-.04l-.02-.03v-.02s0,0,0-.02c.01-.03.03-.06.02-.07,0,0-.02.02-.02,0-.01,0,0,.02-.02.02,0,0,0-.02.01-.03,0-.01-.02.01-.03,0,0-.01.03-.02.03-.03-.01,0-.04,0-.01-.03,0-.01-.02,0-.03-.02-.01,0,0-.02,0-.03-.02.02-.02,0-.03,0,0,0-.02.01-.02,0h.02s.01-.03.01-.03c0-.02-.03.02-.02,0-.02.02-.02.03-.03.04,0-.03-.04,0-.05-.03,0-.01.03-.04.02-.05-.02.02-.04-.01-.04-.02l.02-.04s-.1,0-.06-.06c0-.01-.02.01-.04.01-.02,0-.02-.02-.02-.04h-.02s-.02.01-.02.01c-.02-.01-.02-.01-.03-.03v-.02s.01-.02.01-.02h0s.02-.04,0-.03c0-.02-.02,0-.03,0-.01,0-.02,0-.03,0,0,0,0-.02.01-.03,0-.02-.02,0-.03,0v-.02s-.01.02-.02,0h-.02s-.03.02-.03.02h0s-.02,0-.02,0h0s0-.03,0-.03c0,0,0,0,0,0,0,.01-.01,0-.02,0h0s-.01,0-.02,0h0s0-.05.02-.07c-.02-.01,0-.03-.02-.04,0,0-.01.01-.02,0,0-.02-.02-.02-.04-.02,0-.02-.01-.02-.02-.03h0s0-.02,0-.02c-.01-.02-.06,0-.05-.04-.02.02-.01,0-.02,0h-.02s0-.02,0-.02c-.02.02,0,0-.02,0h0s-.03-.03-.03-.03h-.01s0-.02-.01-.03h-.01s0-.02,0-.02h-.01s-.01-.03-.03-.03v-.03s0,0-.01,0h-.03s-.02,0-.02,0c-.01,0-.02,0-.03,0,0-.01,0-.03,0-.04-.01-.02-.03,0-.04-.01.02-.02-.01-.03-.02-.04h0s0-.02,0-.02c0,0-.02,0-.01-.02-.03.01-.03,0-.05-.02h-.02s-.05-.06-.05-.06h-.01s-.02-.02-.02-.02c0-.01,0-.01,0-.03-.01,0-.03,0-.04-.02h0s-.03,0-.03,0c0-.02-.02-.04-.04-.05h0s-.02-.02-.02-.02c-.02-.01-.02-.02-.03-.03h-.01s-.02-.01-.02-.01h0s-.02-.02-.02-.02h0s0,0,0,0c-.02,0-.01-.03-.03-.02h0s0-.01,0-.01c0,0-.03-.02-.03-.02h0s0-.01,0-.01c0-.01-.02,0-.03,0-.02,0-.02-.03-.03-.03h-.02s0-.02,0-.02h-.01s0-.01,0-.01c0-.02-.04-.02-.04-.03-.02-.01-.03-.03-.04-.04h-.02s0-.02,0-.02h0s-.02-.03-.02-.03c-.01-.01-.03,0-.02-.02h-.01s0-.03,0-.03h-.02s-.01-.01-.01-.01h0s-.01,0-.01,0h0s0-.01,0-.01c-.02,0-.02-.02-.02-.03-.02-.01-.04-.01-.03-.03l-.05-.02-.02-.02h0s-.02-.02-.02-.02l-.02-.02s0-.02-.01-.01h-.01s-.03-.05-.06-.07l.02-.02h-.02s-.02,0-.03,0c0,0,.01-.03,0-.03h-.04s0,0,0,0c0,0,.01-.02,0-.02-.04,0-.05-.04-.09-.05,0-.03-.02-.04-.03-.06,0,0-.02,0-.03,0,0-.01.02-.03,0-.03,0-.01-.02,0-.03,0-.01,0-.01,0-.02,0,0-.01-.02-.01,0-.04,0-.01-.03.02-.04.01,0,0,0-.03.01-.03,0,0,0,0,0-.01-.02-.01-.04-.03-.06-.05h-.03s0-.01-.02-.02h0s0,0,0,0c-.02,0-.02-.01-.03-.02h-.01s0-.03,0-.03c0-.01-.02,0-.03-.01,0-.04-.04-.04-.06-.07h0s-.02-.02-.02-.02h0s-.02-.04-.02-.04h-.03s-.02-.05-.02-.05l-.02-.03h-.02s0-.02,0-.02h-.01s0-.02,0-.02c0,0-.03,0-.02-.01,0,0,0-.01,0-.02,0,0-.02.02-.03,0,0,0,0-.02,0-.02h-.02s0-.02,0-.02c0-.02-.02-.03-.04-.03v-.02s0,0,0,0c-.01,0,0,0-.02-.01-.01,0,0,0-.01-.01h0s0-.02,0-.02l-.02-.02v-.02s-.03,0-.03,0c0-.01,0-.02,0-.03-.02.03-.03.02-.05.01,0-.02.01-.05,0-.07h-.01s-.01.02-.02.02c0,0,0-.02,0-.04-.02,0-.02-.04-.04-.03,0-.02,0-.01,0-.04-.02.02-.03.03-.04.03v-.03s-.03,0-.03,0c0-.01.02-.03.02-.04,0,0-.01,0,0-.01-.02,0-.02-.03-.04-.04h-.02s-.01-.03-.01-.03h-.01s-.01-.01-.01-.01c0-.03-.02-.02-.03-.03l-.03.02s-.02-.03-.04-.02v-.03s0,0,0,0c-.01.01-.02,0-.03,0,0-.03-.02-.03-.04-.03l-.02-.04h-.03s0-.02,0-.02h-.02s0-.02,0-.02h-.01s-.01-.02-.02-.03c-.02-.02-.05-.03-.05-.05-.01,0-.02,0-.03,0v-.03s-.01,0-.01,0c-.01,0-.02-.03-.02-.03h0s0,0,0,0c-.03-.02-.07-.06-.1-.08,0,0-.03,0-.02,0,0,0-.01.02-.02.02,0,0,0-.02,0-.02h-.04s-.08-.04-.1-.08h-.02s-.02-.02-.03-.04c0,0-.01,0-.01,0h-.02s-.01,0-.02-.01h-.02s0-.02,0-.02h-.03s-.01-.02-.02-.03c0-.01-.02,0-.03,0-.03,0-.07-.04-.09-.05-.02,0-.02,0-.02-.02h-.01s0,0,0,0h0s0-.01,0-.01h0s-.02,0-.02,0h0s-.01-.01-.01-.01c-.02,0-.01-.01-.03,0,0,0,0-.01,0,0h-.01s-.02-.01-.02-.01c0,0,0-.01,0,0h0s-.02-.01-.02-.01l-.03-.02h-.02s-.01-.03-.01-.03h-.01s-.04-.03-.04-.03h-.03s-.03-.03-.03-.03c-.02.01-.02,0-.02.01h-.02s-.04.03-.04.03c0-.01,0-.02,0-.02-.02.01-.03,0-.04,0h-.02s-.06.02-.06.02l-.03.02h-.03s-.02.02-.02.02h-.03s-.01.02-.01.02l-.04.04s-.03,0-.04.02c.01,0,0,.02,0,.04-.01.02-.02,0-.03.01.02,0,0,.03.01.03v.02s0,.03-.01.06l.04.04s.01,0,.02.02l.03.03.02.02h0s.03.05.03.05l.06.09.02.02v.02h0s0,.04,0,.04c.03,0,.05.05.07.08h.02s0,.02,0,.02c.01,0,0,0,.01.01h0s0,.01,0,.01l.02.02.04.05v.03s.02,0,.02,0h0s.01.02.01.02v.02s.03,0,.03,0h0s.01.02.01.02h0s0,.01,0,.01h0s.04.05.04.05h0s0,.01,0,.01h0s.02.04.02.04h0s0,.02,0,.02h.02s.01.02,0,.04c.02,0,.02.03.04.02,0,.01-.01.02,0,.03.01,0,.02.02.03.02,0,.03.01.05.03.07v.02s.01.01,0,.03h0s0,.02,0,.02h.02s0,.03,0,.03h.02s.01.05.01.05h.01s0,0,0,0h0s.02.02.03.03v.04s.03,0,.03,0c0,0,0,.01,0,0h.01s0,.02,0,.03c0,0,.02-.02.02-.01.02,0,0,.02.02.03-.02.04.01.03.03.05.01.01.02.03.03.03v.05s.01,0,.01,0h0s.02.02.02.02v.02s.01,0,.01,0h0s.02.01.02.01c0,.02.02.03.03.05h0s.01.01.01.01h0s0,.02.02.02c.02.01.03.02.05,0-.03.03,0,.02,0,.03v.02s.01-.01.02,0c0,0,0,.02,0,.03h0s0,.02,0,.02c.01,0,.01.01.03.02h.02s0,.03,0,.03l.03-.02s0,.03.02.03v.04s0,0,0,0c-.02.03,0,.02.01.03v.02s.02,0,.02,0l.02.02s.02-.01.02,0l-.02.04h.04s0,.03,0,.03h0s.02.02.02.02v.02s.04,0,.04,0v.02s.01.02.01.02h.02s0,0,0,0h.03s0,.03,0,.03c0,.02.03.02.03.02-.01.02-.01.02-.01.03.04-.02.04.03.05.04,0,.01.02-.01.02,0,0,.02.02.02.02.04,0,0,.02-.01.02,0,.01,0,0,.02,0,.03.02,0,.02.02.03.02,0,0-.01.02-.01.02h.03s.02-.02.02-.01c0,.02-.03.03-.03.05,0,0,.01.01.02,0,0,.02.02.02,0,.04.02,0,.02.01.03.02,0,.03.02.02.03.04,0,0,.02-.03.03-.03-.03.02,0,.03-.03.05.02.01.03.03.06.01,0,.03.01.07.05.06,0,.01,0,.02.02.02v.02s.02.02.04.03c0,0-.01.03,0,.03.02-.01.01.01.02.02h.02s-.02.02,0,.02c0,0,.01,0,.01,0h.02s0,0,0,0c0,0,.02-.01.02,0,0,0,0,0,0,0v.02s0,0,0,.01h.05s0,0,0,.01c0,.01-.02.03-.02.04.01-.01.02,0,.03,0l-.02.03s.02,0,.03,0h.03s-.02.03-.02.03c.02.01.04.03.03.05,0-.02.02-.01.03-.02,0,0,.02-.03.02-.02l-.02.05s.03-.01.02,0c-.01,0-.03.04-.02.04.01,0,0-.02.02-.02,0,.02.01,0,.02,0,0,0,0,.01,0,0,.01,0,0,.03.01.02l-.02.02s0,0,.02,0h.02s-.02.03-.02.03c0,.01.02,0,.02,0,0-.01.02-.03.03-.02,0,.01-.02.02-.03.04h0s.03,0,.05.03c.01-.01.02-.02.03,0l-.03.03s.02,0,.02,0c-.01.01-.01.02,0,.03h.02s0,.02.02.03c.02-.02.03,0,.04-.02l-.02.04h0s.04.05.04.05c0-.01,0,0,.01,0,0,0,.02-.01.02,0l-.02.02s.02,0,.03.02c.01,0,.03-.02.04-.02,0,.01,0,.02,0,.02.02-.01.03-.02.04-.02,0,.02.03,0,.04.01v.02s-.04.02-.03.03c.01,0,.03-.03.04,0l-.02.03s0,.03,0,.04h.03s.03,0,.04,0h.02s-.01.05-.03.06c.02,0,0,.02,0,.03h0s0,.02.02.02c.02-.02,0-.03.02-.05h.02s0,.03-.01.05l.06-.03s.02.04.04.03c0,.01,0,.02,0,.02-.02.02-.01.02-.02.03,0,0,.02,0,.03,0h.03s0,0,0,0c0,.01.01.01,0,.03,0,0,0,0,.01,0h.02s.02,0,0,.02c-.01,0-.02,0-.04.03.02,0,0,.03,0,.02,0,0,.02,0,.03,0v.02s.01-.02.02-.02c.01-.02.01-.03.03-.03v.04Z"/>
          <path class="cls-2" d="M19.34,24.31s.02-.02.03-.02c0,0,0,.02,0,.04-.01,0-.04-.02-.02-.06v.03Z"/>
          <path class="cls-2" d="M19.72,24.3s-.02,0-.02-.02h-.01s0-.04,0-.04c0,0,.01,0,0,0h.01s0,.02,0,.02h0s0,.03.01.03"/>
          <path class="cls-2" d="M19.4,23.98h0s.02-.03,0-.03c.02-.02.04-.01.02.02,0,.01.02-.01.03,0l-.02.04s0,.02.03.01c-.01.01,0,.02,0,.03v.03s-.03.02-.04,0c.02-.03,0-.04,0-.06,0-.01-.02.02-.03,0l.02-.03s0-.03-.03-.01"/>
          <path class="cls-2" d="M19.64,24.16h-.02s0-.03,0-.04h.02s0,.01,0,.01c0,0,.03,0,0,.03"/>
          <path class="cls-2" d="M19.57,23.98s.02-.01.02,0c-.02.03-.02,0-.02,0,0,0,0,0,0,0"/>
          <path class="cls-2" d="M3.61,9.76h-.01s.02-.04.03-.04l-.02.04Z"/>
          <path class="cls-2" d="M3.57,9.72s.01,0,.03-.01c0,.01,0,.01-.01,0,0,0-.02.02-.01,0"/>
          <path class="cls-2" d="M3.73,9.79h0s.02-.02,0,0"/>
          <path class="cls-2" d="M3.29,9.56s.03-.05.03-.03l-.02.02s-.01.02-.01,0"/>
          <path class="cls-2" d="M4.16,9.99s-.01,0,0-.03c0,0,.02-.02.03-.01,0,.02-.01.01-.03.04"/>
          <path class="cls-2" d="M3.28,9.52h0s-.02.02,0,0"/>
        </g>
      </g>
      <polygon class="cls-2" points="4.09 9.94 4.09 9.95 4.1 9.92 4.09 9.94"/>
      <g>
        <path class="cls-2" d="M4.02,9.89s0,0,.01,0c0,.02-.02.01-.01,0"/>
        <path class="cls-2" d="M3.54,9.67s0-.01,0-.02h0s0,.02,0,.02Z"/>
        <path class="cls-2" d="M3.84,9.8s.01-.02.02-.02c0,.02-.02.03-.02.02"/>
        <path class="cls-2" d="M3.54,9.59s-.02.03-.02.02h0s0-.02.02-.03c0,0,0-.03.02-.03h.01s0,.02,0,.02c0,.02,0,.03-.02.05,0,0-.03.03-.02,0,0,0-.01.02-.01,0,.01-.03.02,0,.04-.04"/>
        <path class="cls-2" d="M3.8,9.76c.02-.05.01.01.04-.03,0,.02-.04.06-.04.03"/>
        <path class="cls-2" d="M3.07,9.39s.02-.01.01,0c0,.02-.02.01-.01,0"/>
      </g>
      <rect class="cls-2" x="4.1" y="9.9" width=".01" height="0" transform="translate(-6.61 10.04) rotate(-68.2)"/>
      <g>
        <path class="cls-2" d="M3.7,9.71s-.02,0,0-.02c0,0,.01,0,0,.02"/>
        <path class="cls-2" d="M2.92,9.31s.01-.05.02-.04l-.02.04Z"/>
      </g>
      <rect class="cls-2" x="2.99" y="9.33" width=".01" height="0" transform="translate(-6.55 7.1) rotate(-59.04)"/>
      <g>
        <path class="cls-2" d="M4.28,9.98s0-.02,0-.02c0,0,0,0,.01,0l-.02.02Z"/>
        <path class="cls-2" d="M4.21,9.91h0s-.03.03,0,0"/>
        <path class="cls-2" d="M4.09,9.88h0s0,0,0,0c0-.01.01-.02.02-.01,0,.01,0,0-.02.02"/>
        <path class="cls-2" d="M4.4,10.02s0-.02,0,0"/>
        <path class="cls-2" d="M4.06,9.85l.02-.03s.01-.01.02,0h0s0,.02,0,.02c0,.02-.02.01-.03.02"/>
        <path class="cls-2" d="M4.23,9.93s0-.01,0-.03h0s-.02.03-.02.03Z"/>
        <path class="cls-2" d="M3.86,9.69h0s.02,0,.02.02c0,.01,0,0-.01,0h-.01s-.02,0,0-.02"/>
        <path class="cls-2" d="M4.96,10.26s-.01,0,0,0h0s0,0,0,0Z"/>
      </g>
      <polygon class="cls-2" points="4.92 10.23 4.93 10.22 4.92 10.22 4.92 10.23"/>
      <g>
        <path class="cls-2" d="M4.9,10.21s-.02,0,0-.03c0,0,.02,0,0,.03"/>
        <path class="cls-2" d="M5.05,10.26s0,0,0,0c0,0,0,0,0-.02h0s0,.02,0,.02Z"/>
        <path class="cls-2" d="M4.86,10.16h0s0,0,0,0v-.03s.02.02.02.02c-.02.04,0-.03-.02.01"/>
        <path class="cls-2" d="M5.04,10.23s0-.02,0,0"/>
      </g>
      <polygon class="cls-2" points="5.01 10.2 5.01 10.21 5.02 10.2 5.02 10.19 5.01 10.2"/>
      <polygon class="cls-2" points="4.86 10.13 4.86 10.11 4.86 10.11 4.86 10.13"/>
      <g>
        <path class="cls-2" d="M4.98,10.13v-.03s0,0,0,0c0,.02.01,0,0,.04"/>
        <path class="cls-2" d="M4.96,10.06h.01s0,.03,0,.03c0,0-.02,0,0-.03"/>
        <path class="cls-2" d="M5.06,10.15v-.02s0-.01,0-.02h0s0,0,0,0h0s0,0,0,0v.02s-.01.01-.02,0"/>
        <path class="cls-2" d="M5.06,10.1s0,0,0-.02c0,0,0,0,0,.02"/>
        <path class="cls-2" d="M5.01,10.02s.01-.03.01-.04c0-.01,0,0,0,0,0,0,.02-.01,0,.01v.02s.02.01,0,.04h0s-.01,0,0-.03c0,0,0,0-.01,0"/>
        <path class="cls-2" d="M4.95,9.82s0-.03.02-.04c0,0,0,.02.01,0,0,.01,0,.02,0,.01,0,.02,0,.02-.02.05,0,0,.02-.02.02-.01-.02.03.01.01,0,.05v.02s.02.02.04,0v.05s-.01,0-.01-.01v.02s-.01-.01-.01-.02c0,0-.01,0,0-.02,0,0-.01.02-.02,0,.01-.03,0-.05-.02-.03,0,0,0-.03,0-.04,0-.01-.02.01-.02,0,0,0,0-.02,0-.03v.02s0-.01,0-.01c-.01,0,0-.03,0-.03.01-.02,0,.02.02,0,0,0,0,.02,0,.02"/>
      </g>
      <rect class="cls-2" x="4.81" y="9.23" width=".01" height="0" transform="translate(-5.55 10.28) rotate(-68.2)"/>
      <path class="cls-2" d="M4.73,9.06s0,0,0-.02c0,0,.01,0,0,.02"/>
      <rect class="cls-2" x="4.37" y="8.7" width=".01" height="0" transform="translate(-5.34 8.08) rotate(-59.66)"/>
      <g>
        <path class="cls-2" d="M4.88,9.79s.01-.02.02-.05c0,.02.02,0,.03,0l-.03.05s-.02,0-.02-.01M3.45,9.47s0-.02.01-.03c0,0,0,.02-.01.03M3.77,9.7v-.02s0,.02,0,.02ZM3.71,9.77s0-.03,0-.02v.02ZM3.18,9.44s0,0,0,0h0s.02-.03.02-.03c0,0,.02-.03.02-.02,0,.02,0,.02-.01.03,0,0,.01-.02.02,0-.03.04.01.02,0,.06-.01,0,0-.02-.03.01l.03.02v.03s0,0,0,0v.02s.03,0,.03,0c.01-.02.01-.04.02-.04.01,0-.02.02,0,.02,0,0,0-.01.01-.03,0,0,0,0,.01,0,0,0,.02-.03.02-.02,0,.02-.01.02-.02.04,0,.01.02-.02.03-.02h0s-.01.03,0,.03h0s.01-.02.01-.02c0,.01.02,0,.02.01.01-.03,0-.03.03-.06h.01s.01-.02,0,0c-.02.03-.02.05-.02.06v.02s0,0,0,0h.02s0,.01.01,0h0s-.02.04-.03.07v.04s0-.02.01-.02c0,0,0,.03,0,.03l.02-.03s0,.02,0,0c0-.02,0-.01.01-.04,0,0,.02,0,0,.03,0,.02-.02.02-.03.05h0s.01-.01.02,0c0,0,.01,0,.02,0,.01-.02,0,0,0-.02.01-.02,0,0,.01,0,0,0,.01-.03.02-.03,0,.03.02-.03.02-.02.02-.03,0-.02.02-.05,0,0,.02,0,.02,0,0,0-.01.02,0,.02.01-.03.01-.02.03-.05,0-.01,0-.01,0-.03l.02-.02h0s0,.02,0,.04v.03s-.02,0-.02,0v.03s-.02,0-.02,0c-.01.03.02,0,0,.05h0s0,.03,0,.05l.03-.04s0,.03,0,.03c-.01.02,0,.02,0,.03.02-.03.02-.03.03-.02h0s-.02.04-.01.05c.01-.03.01,0,.02,0,0,0,.02-.02.02,0,0,0,0,.03,0,.03.01,0,.02-.03.03-.02,0-.01.02-.01.03-.04,0-.01,0,.02-.01.02-.01,0,0-.02,0-.03-.01.02-.02.01-.01,0,0-.02.02-.02.02-.03,0,0,.02-.02.02-.01,0,.02-.01.02-.02.03,0,0,.02-.02.02,0l.02-.03s.03-.04.04-.03c0,0,0,.03,0,.03,0,.01,0,.01.01,0,.01-.02-.01,0,0-.02.01,0,.03-.05.04-.06v.03s0,0,0,0h0s-.02.05-.02.05c0,.01,0,0,0,.02h-.02s-.01,0-.03.04v.02s0,0,0,.01l-.03.06s-.02.03-.01.04h0s.01-.03.02-.03h0s.01,0,.01,0h0s.01,0,.02,0h0s.02,0,.02,0l.02-.02s0-.01,0-.03c0,0,.02-.04.03-.04l-.02.04h.01s.02-.03.02-.03c0,0,0,0,.01-.01,0-.02-.02,0-.02,0,0,0,.01,0,.01,0h.01s.01,0,.02,0c0,.01,0,.03,0,.03,0,0,.01-.02.01,0v.03s-.02.01-.03.03h0s-.03.03-.03.05c0,0,.01-.03.02-.02,0,.02,0,.01.01.01v.02s.02-.02.02-.03c0,0,.01,0,0,.04h-.01s-.01.03-.03.05c.01.01.02,0,.04-.04,0,0,.02-.02.02,0,.02-.03-.02,0,0-.03h.02s0,0,0-.01c0,0,.01-.03,0-.02,0,.02-.01,0-.02,0,.01-.02,0-.02.01-.04,0,0,0,.02,0,.02.02-.03.04-.02.05-.02v.03s.02,0,.02,0c-.01.02-.01.03-.01.04,0,0,.01-.02.02-.01v.02s-.03.03-.04.06c0,.01,0,0,.01,0v.02s-.02.04-.03.05h.01s0-.03.02-.04v.02s.03-.04.03-.05c0,.01,0,0,.02,0v-.02s0,0,0-.02h0s.01,0,.02,0h0s.01,0,.01,0v.02s0,.02,0,.02c0-.01.02-.03.03-.03,0,.02.02,0,.02.02l-.04.08h.01c-.02.05,0,.03,0,.05-.02.01-.01,0-.04.03h.02s.02-.02.02-.02h0s0,0,0,0h0s.01-.02.01-.02c0,.01.01,0,.02-.01,0,.02.01,0,.01,0,.01-.03,0-.03-.01-.02,0-.01,0,0,0-.02,0,.03.01-.02.02-.02h.01s-.01.04,0,.05c0,0,.01-.02.02-.02.01,0,.02,0,.03.01,0-.01.01-.01.02,0l-.02.03s0,.02,0,.04c0,0,0,.01.02,0,0-.01,0-.03.02-.06h.03s0,.04,0,.04c0-.01,0,0,.01,0,0,0,.01-.02.01,0,0,0,.01.03.02.01v.02s0,.02,0,.03c0,0,.02-.03.03-.02h0s-.02.02-.04.05h.03s-.02.02-.02.02h.01s.01-.02.01-.02c0,0,.01,0,.02,0v-.02h.03s-.01.03,0,.03c0-.01.01-.02.01-.02,0,0,0,.02,0,.02h.01s.02-.02.02-.02c0,0,.03,0,.03.02,0,0,0,0-.01.01v.02s0,0,0,0v-.02s.04-.03.04-.01c0-.02.01-.02.02-.02-.02.04-.03.03-.05.07,0,.03.03-.02.05-.03v.02s-.02.04-.01.04c0,0,.02-.02.02-.04,0,0,.02-.01.03-.01,0,.02,0,.02.01.03v.03s.01-.02.02-.02c0,0,0,.03.02.02v.02s0,0,0,0h0s.01.01.01.01c0,0-.01.02,0,.02,0,0,.01-.02.01-.02,0,.01.02-.01.03-.01,0,.01,0,.02-.01.04h0s0,.01,0,.01h.02s.02-.02.02-.02c0,.01-.01.03,0,.03l.02-.02s-.01.04,0,.04h.01s.02-.01.02-.01c0,0,.01-.03.02-.02-.01.03-.02,0-.03.03,0,.02.03-.02.05,0,0,0,0,.02,0,.02h.04s0,0-.01.03c0,.01.01-.02.02,0,0,.01-.02.03,0,.03,0-.03.02-.03.03-.03v.02s0,0,0,0c-.02.02,0,.02,0,.03.01,0,.02-.02.04-.03h0s0-.02,0-.02c0,0-.01-.01,0-.02,0,0-.01.01-.02,0,0-.02,0-.03-.02-.03v-.02s0,.02-.01,0c0-.01,0-.03,0-.03-.02.02-.02-.02-.03-.03,0,.02-.01.02-.02.02.02-.04-.01,0-.01-.02l.02-.04s.02-.01.03,0c0,0,0,.02,0,.02h.02s0,0,0,0c0,0,0,.02,0,.02,0,0,.01-.02.02-.02,0,0,0,0,.01,0l-.02-.03s-.01.02-.02,0h0s0-.02,0-.02h0s0-.02,0-.02c0-.01,0-.02-.02,0,0-.02,0,0,0-.02,0,0-.01.02-.02.02,0-.01,0-.03,0-.03,0-.01.01-.04,0-.04,0,.02-.02.03-.02.03l.02-.06s-.01-.04-.03-.03v-.02s0,.01,0,0c0-.03-.01-.03-.02-.04h0s-.01,0-.01,0c0-.02,0-.02,0-.03,0,0,0-.01-.01-.01,0,0-.01.02-.01,0,.01-.03-.02-.01-.01-.04.01-.02.02-.03.03-.04,0,0-.01.03,0,.03,0,.01.01-.02.01,0,0,0,0,.03,0,.03.01,0,0,.03.02.02v.02s0,0,0,0h0s0,0,0,0h.01s0,.01,0,.02h0s0,.02,0,.02h0s0,0,0,0h0s.03-.03.03-.03c0,.01-.02.03-.01.04,0,0,.02-.01.02-.01,0,.03.02.04.02.06,0,0,.01-.02.02,0,0,.01,0,0,0,.01v.02s.02-.02.02,0v.02s.02-.02.02-.02c0,.02-.01.03-.02.03,0,0,0-.02,0,0,0,.01,0,.01.02,0v.03s.01,0,.01,0c0,0-.01.02,0,.02.01-.01.02-.04.02-.05h0v-.03h0s0-.02,0-.02c0,0-.02.03-.03.02,0,0,0-.02.01-.05v-.02s0-.02,0-.02v-.02s0-.02,0-.02c.01-.02.02-.03.03-.04,0,0,0,.02,0,.02,0-.02.01,0,.02-.03v-.04s0-.02,0-.03c0-.01,0,0-.01,0,0-.02,0-.01,0-.02,0,0,0-.02,0-.02,0,0-.01.02-.01.02.01-.03,0-.02,0-.05-.02,0,0-.03-.02-.02v-.02s0,.01,0,0c.01-.03,0-.02,0-.03h-.02s0-.01,0-.02v-.02s0-.01.02-.03c0,0-.01,0-.02,0,.01-.02,0-.02,0-.02,0-.02,0-.01,0-.01,0,0,0-.01,0-.01,0,0,0,.02,0,.01v-.03s0-.01,0-.02h0s-.01.02-.02.01c0,0,.01-.03,0-.02h0s0,0,0,0v-.03s.01-.02.01-.02v-.03s0-.01,0-.01h-.01s0,0,0,0h-.02s0-.01,0-.01h0s0,0,0,0h0s0-.02,0-.02h0s0-.02,0-.02c0,0-.01.01-.02.01h0s-.01.01-.02,0v-.04s0,.02-.01.01v-.03s0-.02,0-.02c.01-.02,0-.03,0-.04h0s0,0,0,0c0,0,0-.02-.01,0v-.03s0,0,0,0c0-.01,0-.03,0-.03h0s0,0,0,0h0s0,.02-.01.02c0,0,0-.02-.01-.02,0-.02.02-.03.01-.03,0,.02-.01.01-.02.02,0,0-.01.03-.02.03h0s0-.02,0-.02c-.01.02-.02.01-.03,0v-.03s0,0,.02-.01c0,0-.01,0-.02,0v-.03s0,0,0,0v-.02s0,0,0,0c0,0,0,.01-.01.01,0-.01,0,0,.01-.03,0,0,0-.01,0-.02-.01.02-.03.02-.04.03l.02-.04s-.02.02-.02,0c0-.02.02-.02.01-.03,0-.02-.01,0-.01,0,0,.02-.02.03-.03.03,0,0,0-.02.01-.04,0,0-.03.03-.04.04-.01.02,0,.02-.01.03,0,0,0-.02,0,0,0-.02,0-.02,0-.04h-.01s0-.04,0-.04c0,0-.01,0,0-.02,0-.02.02-.05.01-.06,0,0-.01.02-.01,0v.02s0-.03,0-.03c0,0-.01.02-.02,0,0-.01.02-.02.02-.03,0,0-.03,0,0-.02,0,0-.01,0-.02,0,0,0,0-.02,0-.02-.02.02-.01,0-.02,0,0,0-.01.02-.01,0h.01s0-.03,0-.03c0-.01-.02.02-.02,0l-.02.04s-.02.01-.03,0c0,0,.02-.04.01-.04-.01.02-.02,0-.03,0v-.03s-.05.03-.03-.03c0,0-.02.02-.02.02-.02,0-.01,0-.01-.03h-.01s-.01.02-.01.02h-.02s0-.03,0-.03v-.02s0,0,0,0c0,0,.01-.03,0-.02,0-.01-.01.01-.02.01h-.02s0-.02,0-.02c0-.01-.01.01-.02,0v-.02s0,.02,0,0v.02s-.03.01-.04.01h0s-.01,0-.01,0h0s0-.02,0-.02c0,0,0,0,0,0,0,.01,0,0-.01,0h0s-.01,0-.01,0h0s0-.04.01-.06v-.03s-.02.02-.02.01c0-.01-.01,0-.02,0,0-.02,0-.01,0-.02h0s0-.02,0-.02c0,0-.04.01-.03-.02-.01.02,0,0-.01,0h0s0,0,0,0c-.01.02,0,0-.01,0h0s-.02,0-.02-.01h0s0-.01,0-.02h0s0,0,0,0h0s0-.01-.02,0v-.02s0,0,0,0h-.02s-.01,0-.01,0c0,0,0,0-.02,0v-.03s-.02,0-.03,0c.01-.02,0-.02-.01-.02h0s0-.02,0-.02c0,0,0,0,0-.01-.02.02-.02,0-.03,0h-.01s-.03-.03-.03-.03h0s-.01,0-.01,0c0-.01,0,0,0-.02,0,0-.02,0-.02,0h0s-.02,0-.02,0c0-.02-.01-.03-.02-.03h0s0,0,0,0l-.02-.02h0s-.01,0-.01,0h0s-.01,0-.01,0h0s0,0,0,0c-.01,0,0-.02-.02,0h0s0,0,0,0c0,0-.02,0-.02,0h0s0,0,0,0h-.02l-.02-.02h-.01s0,0,0,0h0s0,0,0,0c0-.01-.02,0-.03,0l-.03-.02h-.01s0,0,0,0h0s-.01-.02-.01-.02c0,0-.02,0-.01,0h0s0-.01,0-.01h-.01s0,0,0,0h0s0,0,0,0h0s0,0,0,0c-.01,0-.01-.01-.02-.02,0,0-.02,0-.02-.02h-.03s-.01,0-.01,0h0s-.01,0-.01,0h-.01s0-.02,0-.01h0s-.02-.02-.04-.03v-.02s0,0,0,0c0,0-.01.02-.02.02,0,0,0-.02,0-.02l-.03.02s0,0,0,0c0,0,0-.02,0-.02-.03,0-.03-.01-.05-.01,0-.02-.01-.03-.02-.04h-.02s.01-.02,0-.02c0,0-.01,0-.02,0h-.01s-.02,0,0-.02c0,0-.02.02-.02.02v-.03s0,0,0,0l-.04-.02h-.02s0,0-.01,0h0s0,0,0,0c-.01,0-.01,0-.02,0h0s0-.03,0-.03c0,0-.01,0-.02,0,0-.03-.02-.02-.04-.04h0s-.01,0-.01,0h0s-.01-.02-.01-.02h-.02s-.01-.03-.01-.03v-.02s-.03,0-.03,0h0s0,0,0,0h0s-.02,0-.01-.02h0s-.01.01-.02,0c0,0,0-.01,0-.01h-.01s0-.01,0-.01c0-.02-.01-.02-.03,0v-.02s0,0,0,0c0,0,0,0,0,0h0s0,0,0,0h0s-.01-.02-.01-.02h0s-.01,0-.01,0c0,0,0-.02,0-.02-.01.03-.02.03-.03.03,0-.01,0-.04,0-.05h0s-.01.02-.01.02v-.03s0-.02-.03-.01c0-.02,0,0,0-.03-.01.02-.02.03-.03.04v-.02s-.02.01-.02,0c0,0,.02-.03.01-.04,0,0,0,0,0,0-.01,0-.01-.01-.02-.02h-.02s0-.01,0-.01h0s0,0,0,0c0-.03,0-.01-.02-.02l-.02.02s-.01-.02-.03,0v-.03s0,0,0,0c0,.01,0,0-.02,0,0-.02-.01-.01-.02-.01l-.02-.02h-.02,0s-.01,0-.01,0h0s0-.01,0-.01h-.01s-.03-.01-.03-.03c0,0-.01,0-.02,0v-.02s0,0,0,0c0,0-.01-.01-.01-.01h0s0,0,0,0c-.02,0-.04-.03-.06-.03,0,0-.02.01-.02,0v.02s0-.02-.01-.02h-.02s-.05,0-.06-.02h-.01s-.01,0-.02-.02h0s-.01.01-.01.01c0,0,0,0-.01,0h-.01s0,0,0,0h-.02s0,0,0,0c0,0-.02,0-.02,0-.02,0-.04-.01-.06-.01h-.01s0,0,0,0h0s0,0,0,0h0s0,0,0,0h-.01s0,0,0,0h0s0,0-.02.01c0,0,0,0,0,0h0s-.01,0-.01,0c0,0,0-.01,0,0h0s-.02,0-.02,0h-.02s-.01,0-.01,0h0s0,0,0,0h-.02s-.02,0-.02,0h-.02s0,0-.02,0h-.01s-.02.04-.02.04v-.02s-.02,0-.03.01h-.01s-.04.04-.04.04l-.02.03h-.02s-.01.03-.01.03l-.02.02h0s-.02.06-.02.06c0,0-.02,0-.03.03,0,0,0,.01,0,.03,0,.02-.01,0-.02.02.01,0,0,.02,0,.02v.02s0,.02,0,.05l.02.02h.01s.02.02.02.02h.01s0,.02,0,.02l.02.02.03.05h.01s0,.02,0,.02h0s0,.03,0,.03c.02,0,.03.03.05.04h.01s0,.01,0,.01h0s0,0,0,0h0s.01.02.01.02l.02.03v.02s.01,0,.01,0h0s0,.01,0,.01h0s0,0,0,0h0s0,.02,0,.02h0s0,0,0,0h0s.02.03.02.03h0s0,0,0,0h0s.01.02.01.02h0s0,.01,0,.01h.01s0,0,0,.02c.01-.01.01.02.03,0v.02s.01.01.02,0c0,.03,0,.04.02.04v.02s0,.02,0,.02h0s0,.01,0,.01h0s0,.01,0,.01h0s0,.03,0,.03h0s0,0,0,0h0s.01,0,.02.01v.03s.02,0,.02,0c0,0,0,.01,0,0h0s0,.02,0,.02c0,0,.01-.02.02-.02v.02s.02.02.03.03c0,0,0,.02.02.01v.03s0,0,0,0h0s.01.01.01.01v.02s0,0,0,0h0s.01,0,.01,0c0,.02.01.02.02.03h0s0,0,0,0h0s0,.01.01.01c.01,0,.02,0,.03,0-.02.03,0,.02,0,.02v.02s0-.02.01,0v.02s0,0,0,0c0,0,0,.02,0,.02,0,0,0,0,.02,0h.01s0,.02,0,.01l.02-.02s0,.02.02.02v.04s0,0,0,0c-.02.03,0,.02,0,.02h0s0,0,0,0h.01s.01,0,.01,0v.03s0,0,0,0v.02s0,0,0,0h.01s0,.02,0,.02h.02s0,.01,0,.01h0s.01,0,.01,0c0,0,0,.01,0,.01h.02v.02s.01,0,.01,0v.03s.02,0,.03.02c0,0,.01-.02.01,0,0,.02.01,0,.01.02,0,0,0-.02.01,0v.02s.02,0,.03,0v.02s0-.02,0-.02c0,0,.01-.01.01,0l-.02.05h.02s.01.01,0,.03h.02s0,.01.02.02c0,0,.01-.03.02-.03-.02.03,0,.03-.02.05.01,0,.02.01.04,0,0,.03,0,.05.03.03,0,.01,0,.02.01.01v.02s.01,0,.02,0c0,0,0,.03,0,.03.01-.01,0,0,.01,0h.01s-.01.01,0,0h0s.01-.01.01-.01h0s.01,0,.01,0c0,0,0,0,0,0v.02s0,0,0,0l.03-.03s0,.02,0,.02c0,0-.02.03-.01.04,0-.01,0,0,.02,0v.03s0-.01,0-.02h.02s-.01.02-.01.02c.01,0,.03,0,.02.03,0-.02.01-.02.02-.02,0,0,.01-.03.02-.02v.04s0-.02,0,0c0,0-.02.04-.01.03l.02-.03s0,0,.01,0c0,0,0,0,0,0,0,0,0,.02,0,.01v.03s0,0,0-.01h.01s-.01.02-.01.02c0,0,.01-.01.01,0,0-.01.01-.03.02-.02l-.02.04h0s.02,0,.03,0c0-.01.02-.02.02-.01l-.02.03s.01,0,.02,0v.02s0-.01,0-.01c0,.01,0,.02.01.02.01-.02.02-.02.03-.03l-.02.04h0s.03.02.03.02c0-.01,0,0,0,0,0,0,.01-.02.01,0v.02s0,0,0,0c0-.01.02-.03.03-.03v.02s.02-.02.03-.03c0,.01.02,0,.03,0v.02s-.03.03-.02.03c0,0,.02-.03.03-.02v.03s-.01.02,0,.03h.02s.02-.03.02-.03h.01s-.02.05-.02.05c.01,0,0,.02,0,.02h0s0,.01.01,0c.01-.03,0-.02.01-.04h.01s0,.03,0,.03l.04-.04s.01.03.03.01v.02s0,.02-.01.03c0,0,.01-.01.02,0l.02-.02s0,0,0,0c0,.01,0,0,0,.02,0,0,0,0,0,0h.01s.01,0,0,.01c0,0-.02,0-.03.03.01,0,0,.02,0,.02,0,0,.01,0,.02,0h0s.01-.01.02-.01c0-.02,0-.03.02-.03v.03Z"/>
        <path class="cls-2" d="M4.86,10.3s.01-.02.02-.02c0,0,0,.02,0,.04,0,0-.02,0-.01-.04v.03Z"/>
        <path class="cls-2" d="M5.1,10.18s-.01,0-.01,0h0s0-.02,0-.02c0,0,0,0,0,0h0s0,.01,0,.01h0s0,.02,0,.01"/>
        <path class="cls-2" d="M4.91,10.02h0s0-.03,0-.03c.01-.02.03-.02.01,0,0,0,.01-.02.02,0v.03s0,0,0,0c0,.01,0,.02,0,.02v.02s-.02.02-.03.01c.01-.03,0-.03,0-.05,0,0-.02.02-.02.01v-.03s0-.02,0,0"/>
        <path class="cls-2" d="M5.06,10.09h0s0-.02,0-.02h.01s0,0,0,0c0,0,.02,0,0,.02"/>
        <path class="cls-2" d="M5.01,9.97s.01-.02.01,0c-.01.03-.02.01-.01,0,0,0,0,0,0,0"/>
      </g>
    </g>
  </g>
</svg>