<?xml version="1.0" encoding="utf-8"?>
<!-- Generator: Adobe Illustrator 25.0.1, SVG Export Plug-In . SVG Version: 6.00 Build 0)  -->
<svg version="1.1" id="Capa_1" xmlns="http://www.w3.org/2000/svg" xmlns:xlink="http://www.w3.org/1999/xlink" x="0px" y="0px"
	 viewBox="0 0 512 512" style="enable-background:new 0 0 512 512;" xml:space="preserve">
<style type="text/css">
	.st0{fill:#FFFFFF;}
	.st1{opacity:0.1;enable-background:new    ;}
</style>
<g>
	<path class="st0" d="M448,279.3c0-17.6-14.4-32-32-32h-74.7V72.7c0-23.6-19.1-42.7-42.6-42.7h-85.3c-23.5,0-42.7,19.1-42.7,42.7
		v174.7H96c-17.6,0-32,14.4-32,32c0,7.9,3,15.6,8.6,21.5l12.7,13.8c41.9,45.3,112.1,121.2,151,160c4.8,4.7,11.8,7.4,19.7,7.4
		c7.9,0,14.9-2.6,19.7-7.4c38.9-38.8,109.1-114.7,151-160l12.7-13.8C445,294.9,448,287.3,448,279.3z"/>
	<path class="st1" d="M298.7,30c23.5,0,42.6,19.1,42.6,42.7v174.6H416c17.6,0,32,14.4,32,32c0,8-3,15.6-8.6,21.6l-12.7,13.8
		c-41.9,45.3-112.1,121.2-151,160c-4.8,4.8-11.8,7.4-19.7,7.4V30H298.7z"/>
</g>
</svg>
