<?xml version="1.0" encoding="utf-8"?>
<!-- Generator: Adobe Illustrator 26.5.0, SVG Export Plug-In . SVG Version: 6.00 Build 0)  -->
<svg version="1.1" id="圖層_1" xmlns="http://www.w3.org/2000/svg" xmlns:xlink="http://www.w3.org/1999/xlink" x="0px" y="0px"
	 viewBox="0 0 260 100" style="enable-background:new 0 0 260 100;" xml:space="preserve">
<style type="text/css">
	.st0{fill:#0DA642;}
	.st1{fill:#FFFFFF;}
</style>
<g id="圖層_3">
	<path class="st0" d="M11.3,0h237.4c6.2,0,11.3,5.1,11.3,11.3v77.4c0,6.2-5.1,11.3-11.3,11.3H11.3C5.1,100,0,94.9,0,88.7V11.3
		C0,5.1,5.1,0,11.3,0z"/>
	<path class="st1" d="M64.1,31.5c-1.6-0.9-3.6-0.3-4.5,1.3c0,0,0,0,0,0L59.5,33L47.3,59.5c-0.3,0.6-0.5,1-1.2,1s-0.9-0.4-1.2-1
		L32.6,33c-0.8-1.7-2.8-2.4-4.4-1.6c0,0,0,0,0,0L28,31.5c-1.7,1-2.3,3.1-1.5,4.8l12,24.5l1.4,2.8c1.6,3.4,5.6,4.9,9,3.3
		c1.5-0.7,2.7-1.9,3.3-3.3l1.4-2.8l12-24.5C66.4,34.6,65.8,32.5,64.1,31.5"/>
	<path class="st1" d="M227.1,31.1c-2.3,0-4.3,1.4-5.3,3.4c-3.1,6.4-12.3,25.3-12.3,25.4s-0.3,0.6-0.6,0.6s-0.6-0.4-0.6-0.6
		c-3-6.3-9-18.7-12.2-25.1c-0.9-2.2-3.1-3.6-5.4-3.7l0,0c-3.4,0-6.1,2.8-6.1,6.7v26c-0.1,1.5,0.9,2.9,2.3,3.5
		c2.3,0.8,4.2-1.2,4.2-3.6l-0.5-25.4c0-0.1,0.1-0.2,0.2-0.2c0,0,0,0,0,0c0.1,0,0.2,0,0.2,0.1l12.5,25.4c1,3,4.2,4.6,7.2,3.6
		c1.7-0.6,3-1.9,3.6-3.6l12.5-25.4c0.1-0.1,0.2-0.2,0.3-0.1c0,0,0,0,0,0c0.1,0,0.1,0.1,0.1,0.2l-0.5,25.5c-0.1,1.9,1.3,3.5,3.2,3.6
		c0,0,0,0,0,0h0.1c1.9-0.2,3.3-1.9,3.2-3.7v-26C233.3,33.8,230.5,31,227.1,31.1"/>
	<path class="st1" d="M180.2,62.2L166.4,35c-1.1-2.4-3.5-3.9-6.1-3.9c-1.6,0-3.1,0.6-4.4,1.6c-0.7,0.6-1.4,1.4-1.8,2.3l-13.7,27.1
		v0.1l0,0c-0.6,1.2-0.5,2.7,0.3,3.8l0.1,0.1l0.1,0.1c1.1,1.4,3,1.7,4.5,0.7l0,0l0.2-0.2l0.2-0.2l0.1-0.1c0.3-0.3,0.5-0.6,0.6-0.9
		l0.5-1.1l2.9-6c0.1-0.1,0.2-0.2,0.4-0.2h12.7c1.8-0.1,3.2-1.6,3.1-3.4c-0.1-1.7-1.4-3-3.1-3.1h-9.5c-0.2,0-0.3-0.2-0.3-0.3
		c0,0,0,0,0,0c0,0,0-0.1,0-0.1l0.7-1.5l5.2-10.4l0,0v-0.1l0,0c0.1-0.2,0.4-0.9,0.9-1.1c0.2-0.1,0.5-0.1,0.8,0c0.5,0.2,0.8,0.8,1,1.3
		l0,0l12.6,26.1c0.6,1.2,1.7,1.9,3,1.9c0.4,0,0.8-0.1,1.1-0.2h0.1l0.3-0.1h0.1h0.1h0.1l0.1-0.1l0.1-0.1l0.1-0.1
		c0.1-0.1,0.1-0.2,0.2-0.2l0,0c1.2-1.1,1.4-2.9,0.7-4.3"/>
	<path class="st1" d="M73.1,46.5c0.6-5.2,4.3-9.9,10.3-9.9s9.8,4.5,10.4,9.9c0,0.2-0.1,0.3-0.2,0.4c0,0,0,0,0,0H73.4
		C73.3,46.9,73.1,46.8,73.1,46.5C73.1,46.6,73.1,46.6,73.1,46.5C73.1,46.6,73.1,46.6,73.1,46.5 M73.4,53.2h23.2
		c2.3,0,4.1-1.9,4.1-4.1c0,0,0,0,0,0c0-0.1,0-0.2,0-0.2c0-10-7.7-18.2-17.2-18.2s-17.2,8.1-17.2,18.2v1c0,11.4,7.3,17.6,17,18.2
		c0.5,0,0.9,0.1,1.4,0.1c3.7,0,7.3-1.1,10.4-3.1c1.2-0.8,2.3-1.8,3.1-3c1.1-1.4,1.2-3.6,0-4.7c-1.8-1.6-3.5-0.7-5.2,0.6
		c-2.5,2.1-4.5,3.8-9.5,3.8c-4.7,0-9.2-2.7-10.3-8.1C73.1,53.4,73.2,53.3,73.4,53.2C73.3,53.2,73.3,53.2,73.4,53.2L73.4,53.2"/>
	<path class="st1" d="M111.4,46.5c0.6-5.2,4.2-9.9,10.3-9.9s9.8,4.5,10.4,9.9c0,0.2-0.1,0.3-0.2,0.4h-20.2
		C111.5,46.9,111.3,46.8,111.4,46.5C111.3,46.6,111.3,46.6,111.4,46.5C111.4,46.6,111.4,46.6,111.4,46.5 M111.6,53.2h23.2
		c2.3,0,4.1-1.9,4.1-4.1c0,0,0,0,0,0c0-0.1,0-0.2,0-0.2c0-10-7.7-18.2-17.2-18.2s-17.2,8.1-17.2,18.2v1c0,11.4,7.3,17.6,17.1,18.2
		c0.5,0,0.9,0.1,1.4,0.1c3.7,0,7.3-1.1,10.3-3.1c1.2-0.8,2.3-1.8,3.1-3c1.1-1.4,1.2-3.6,0-4.7c-1.7-1.6-3.5-0.7-5.1,0.6
		c-2.5,2.1-4.5,3.8-9.5,3.8c-4.7,0-9.2-2.7-10.3-8.1C111.4,53.4,111.4,53.3,111.6,53.2L111.6,53.2"/>
</g>
</svg>
