<svg xmlns="http://www.w3.org/2000/svg" viewBox="0 0 300 60"><defs><style>.cls-1,.cls-2{fill:#003a3f;}.cls-1{fill-rule:evenodd;}</style></defs><title>logo</title><g id="圖層_2" data-name="圖層 2"><path class="cls-1" d="M71.74,26.22c.89-7,5.87-13.26,14.19-13.26s13.58,6.1,14.4,13.26c0,.27-.13.53-.41.53H72.15A.5.5,0,0,1,71.74,26.22Zm.41,9h32.07a5.58,5.58,0,0,0,5.6-5.83C109.82,15.94,99.17,5,86,5A24.15,24.15,0,0,0,62.12,29.34V30.6c0,15.32,10.1,23.6,23.54,24.33a17.42,17.42,0,0,0,1.91.07,26.32,26.32,0,0,0,14.26-4.18,16.59,16.59,0,0,0,4.3-3.91c1.57-1.92,1.64-4.77,0-6.3-2.39-2.19-4.91-1-7.09.86l-.14.11c-3.41,2.8-6.09,5-13,5-6.55,0-12.69-3.65-14.19-10.88C71.74,35.44,71.87,35.17,72.15,35.17Z"/><path class="cls-2" d="M284.73,5.46A8.22,8.22,0,0,0,277.42,10c-4.3,8.55-17,34-17,34v0c-.08.17-.36.71-.88.71s-.81-.53-.88-.73c-3.09-6.25-8.46-17-12.79-25.67h0l-4-8a8.34,8.34,0,0,0-7.51-4.91c-4.64,0-8.46,3.85-8.46,9v35A4.84,4.84,0,0,0,229,54.14c3.14,1,5.8-1.66,5.8-4.78l-.68-34a.33.33,0,0,1,.61-.19l17.2,34c1.64,3.25,4.37,5.17,7.44,5.17s5.87-1.92,7.44-5.17l17.26-34c.14-.33.62-.2.62.2L284,49.5a4.61,4.61,0,0,0,4.64,4.77,4.82,4.82,0,0,0,4.37-5V14.48A8.46,8.46,0,0,0,284.73,5.46Z"/><path class="cls-2" d="M59.32,6A4.73,4.73,0,0,0,53,8.05L36.05,43.53c-.41.73-.75,1.26-1.64,1.26s-1.23-.53-1.64-1.26L15.85,8.12A4.6,4.6,0,0,0,9.5,6.06a4.9,4.9,0,0,0-2,6.5L24,45.32,26,49a9.39,9.39,0,0,0,16.92,0l1.91-3.71L61.3,12.49A4.83,4.83,0,0,0,59.32,6Z"/><path class="cls-2" d="M201,10.7l19,36.54A4.64,4.64,0,0,1,218.94,53l-.27.27a.35.35,0,0,0-.21.13.15.15,0,0,0-.07,0,.06.06,0,0,1-.06,0,.15.15,0,0,1-.14.14.08.08,0,0,0-.07,0,.08.08,0,0,1-.07,0,.07.07,0,0,1-.07.07.09.09,0,0,0-.06,0,.1.1,0,0,1-.07,0l-.41.2c0,.06-.07.06-.07.06a4.09,4.09,0,0,1-1.57.27,4.67,4.67,0,0,1-4.16-2.52l-17.34-35-.17-.35c-.27-.58-.57-1.21-1.19-1.37a1.4,1.4,0,0,0-1,0c-.58.17-.91.92-1.08,1.3l-.08.16a.06.06,0,0,0-.06.06v.07l-7.17,14-1,2a.36.36,0,0,0,.34.53H196a4.38,4.38,0,0,1,0,8.76H178.33a.6.6,0,0,0-.54.33l-4,8.09-.68,1.46a5.86,5.86,0,0,1-.89,1.19l-.27.27a1,1,0,0,1-.28.19.06.06,0,0,1-.06.07,4.54,4.54,0,0,1-4.92.2,5,5,0,0,1-1.23-1.06.09.09,0,0,0,0-.07.06.06,0,0,1,0-.06s0,0,0-.07,0,0,0-.07a4.87,4.87,0,0,1-.34-5.1v-.07a.06.06,0,0,1,0-.06.1.1,0,0,0,0-.07l19-36.34a9.47,9.47,0,0,1,8.46-5.31A9.47,9.47,0,0,1,201,10.7Z"/><path class="cls-1" d="M139.23,13c-8.32,0-13.31,6.23-14.19,13.26-.07.27.13.46.41.53h27.77c.27,0,.41-.26.41-.53C152.81,19.06,147.56,13,139.23,13Zm18.22,22.21H125.38a.42.42,0,0,0-.34.53c1.5,7.23,7.64,10.88,14.19,10.88,6.87,0,9.55-2.2,13-5l.13-.11c2.19-1.85,4.71-3,7.1-.86,1.64,1.53,1.57,4.38,0,6.3a16.59,16.59,0,0,1-4.3,3.91A26.35,26.35,0,0,1,140.87,55a17.33,17.33,0,0,1-1.91-.07c-13.45-.73-23.55-9-23.55-24.33V29.34C115.41,15.94,126.13,5,139.23,5S163,15.94,163.05,29.34A5.58,5.58,0,0,1,157.45,35.17Z"/></g></svg>