<?xml version="1.0" encoding="utf-8"?>
<!-- Generator: Adobe Illustrator 28.0.0, SVG Export Plug-In . SVG Version: 6.00 Build 0)  -->
<svg version="1.1" id="Capa_1" xmlns="http://www.w3.org/2000/svg" xmlns:xlink="http://www.w3.org/1999/xlink" x="0px" y="0px"
	 viewBox="0 0 512 512" style="enable-background:new 0 0 512 512;" xml:space="preserve">
<style type="text/css">
	.st0{fill:#83448F;}
	.st1{fill:#F0F0F0;}
	.st2{fill:#D4D4D4;}
	.st3{fill:#EF487D;}
	.st4{fill:#FF668C;}
	.st5{fill:#F2AE5A;}
	.st6{fill:#F9DF73;}
	.st7{fill:#484B7F;}
</style>
<g>
	
		<image style="overflow:visible;opacity:0.19;" width="530" height="526" xlink:href="DFBFB4B69D2EEA4B.png"  transform="matrix(1 0 0 1 -9 -8)">
	</image>
	<g>
		<g>
			<path class="st0" d="M512,254c0,50.5-14.9,97.6-40.5,137.1C426,461.5,346.5,508,256,508S86,461.5,40.5,391.1
				C14.9,351.6,0,304.5,0,254s14.9-97.6,40.5-137.1c28.5-44,70.2-78.7,119.6-98.4C189.7,6.5,222.1,0,256,0s66.3,6.5,95.9,18.5
				c49.4,19.8,91.2,54.5,119.6,98.4C497.1,156.4,512,203.5,512,254z"/>
			<g>
				<path class="st1" d="M471.5,73.7v317.4C426,461.5,346.5,508,256,508c-45.6,0-88.4-11.8-125.4-32.5
					c-18.9-10.5-36.2-23.3-51.7-38.1c-14.5-13.8-27.4-29.3-38.3-46.1V73.7c0-21.9,16.8-39.8,37.6-39.8H434
					C454.7,33.9,471.5,51.8,471.5,73.7z"/>
				<rect x="40.5" y="140.2" class="st2" width="431" height="35.9"/>
				<path class="st3" d="M471.5,71.2v79.7h-431V71.2c0-20.6,16.8-37.3,37.6-37.3h355.8C454.7,33.9,471.5,50.7,471.5,71.2z"/>
				<path class="st4" d="M471.5,89.9v61h-431v-61c0-20.5,16.8-37.3,37.6-37.3h355.8C454.7,52.6,471.5,69.4,471.5,89.9z"/>
				<path class="st5" d="M171.4,22.8v39.3c0,9.5-5.9,17.7-14.3,21.1c-2.7,1.1-5.6,1.7-8.7,1.7c-12.7,0-23-10.2-23-22.8V22.8
					c0-12.6,10.3-22.8,23-22.8c3.1,0,6,0.6,8.7,1.7c2.9,1.2,5.4,2.9,7.6,5C168.8,10.8,171.4,16.5,171.4,22.8z"/>
				<path class="st6" d="M171.4,22.8v39.3c0,9.5-5.9,17.7-14.3,21.1c-8.4-3.4-14.3-11.6-14.3-21.1V22.8c0-9.5,5.9-17.7,14.3-21.1
					c2.9,1.2,5.4,2.9,7.6,5C168.8,10.8,171.4,16.5,171.4,22.8z"/>
				<path class="st5" d="M386.6,22.8v39.3c0,9.5-5.9,17.7-14.3,21.1c-2.7,1.1-5.6,1.7-8.7,1.7c-12.7,0-23-10.2-23-22.8V22.8
					c0-12.6,10.3-22.8,23-22.8c3.1,0,6,0.6,8.7,1.7c2.9,1.2,5.4,2.9,7.6,5C384,10.8,386.6,16.5,386.6,22.8z"/>
				<path class="st6" d="M386.6,22.8v39.3c0,9.5-5.9,17.7-14.3,21.1c-8.4-3.4-14.3-11.6-14.3-21.1V22.8c0-9.5,5.9-17.7,14.3-21.1
					c2.9,1.2,5.4,2.9,7.6,5C384,10.8,386.6,16.5,386.6,22.8z"/>
				<g>
					<path class="st7" d="M268,262.6h-24c-8.9,0-16.1-7.1-16.1-16v-23.7c0-8.8,7.2-16,16.1-16h24c8.9,0,16.1,7.1,16.1,16v23.7
						C284.1,255.5,276.9,262.6,268,262.6z"/>
					<path class="st7" d="M342.8,262.6h-23.9c-8.9,0-16.1-7.1-16.1-16v-23.7c0-8.8,7.2-16,16.1-16h23.9c8.9,0,16.1,7.1,16.1,16v23.7
						C358.9,255.5,351.7,262.6,342.8,262.6z"/>
				</g>
				<path class="st3" d="M417.6,262.6h-23.9c-8.9,0-16.1-7.1-16.1-16v-23.7c0-8.8,7.2-16,16.1-16h23.9c8.9,0,16.1,7.1,16.1,16v23.7
					C433.7,255.5,426.5,262.6,417.6,262.6z"/>
				<g>
					<path class="st7" d="M118.4,335.5h-24c-8.9,0-16.1-7.1-16.1-16v-23.8c0-8.8,7.2-16,16.1-16h23.9c8.9,0,16.1,7.1,16.1,16v23.7
						C134.5,328.2,127.3,335.5,118.4,335.5z"/>
					<path class="st7" d="M193.2,335.5h-23.9c-8.9,0-16.1-7.1-16.1-16v-23.8c0-8.8,7.2-16,16.1-16h23.9c8.9,0,16.1,7.1,16.1,16v23.7
						C209.3,328.2,202.1,335.5,193.2,335.5z"/>
					<path class="st7" d="M268,335.5h-24c-8.9,0-16.1-7.1-16.1-16v-23.8c0-8.8,7.2-16,16.1-16h24c8.9,0,16.1,7.1,16.1,16v23.7
						C284.1,328.2,276.9,335.5,268,335.5z"/>
					<path class="st7" d="M342.8,335.5h-23.9c-8.9,0-16.1-7.1-16.1-16v-23.8c0-8.8,7.2-16,16.1-16h23.9c8.9,0,16.1,7.1,16.1,16v23.7
						C358.9,328.2,351.7,335.5,342.8,335.5z"/>
				</g>
				<path class="st3" d="M417.6,335.5h-23.9c-8.9,0-16.1-7.1-16.1-16v-23.8c0-8.8,7.2-16,16.1-16h23.9c8.9,0,16.1,7.1,16.1,16v23.7
					C433.7,328.2,426.5,335.5,417.6,335.5z"/>
				<g>
					<path class="st7" d="M118.4,408.2h-24c-8.9,0-16.1-7.1-16.1-16v-23.7c0-8.8,7.2-16,16.1-16h23.9c8.9,0,16.1,7.1,16.1,16v23.7
						C134.5,401,127.3,408.2,118.4,408.2z"/>
					<path class="st7" d="M193.2,408.2h-23.9c-8.9,0-16.1-7.1-16.1-16v-23.7c0-8.8,7.2-16,16.1-16h23.9c8.9,0,16.1,7.1,16.1,16v23.7
						C209.3,401,202.1,408.2,193.2,408.2z"/>
					<path class="st7" d="M268,408.2h-24c-8.9,0-16.1-7.1-16.1-16v-23.7c0-8.8,7.2-16,16.1-16h24c8.9,0,16.1,7.1,16.1,16v23.7
						C284.1,401,276.9,408.2,268,408.2z"/>
					<path class="st7" d="M342.8,408.2h-23.9c-8.9,0-16.1-7.1-16.1-16v-23.7c0-8.8,7.2-16,16.1-16h23.9c8.9,0,16.1,7.1,16.1,16v23.7
						C358.9,401,351.7,408.2,342.8,408.2z"/>
				</g>
				<path class="st3" d="M417.6,408.2h-23.9c-8.9,0-16.1-7.1-16.1-16v-23.7c0-8.8,7.2-16,16.1-16h23.9c8.9,0,16.1,7.1,16.1,16v23.7
					C433.7,401,426.5,408.2,417.6,408.2z"/>
				<g>
					<path class="st7" d="M134.5,441.2v23.7c0,4-1.5,7.6-3.9,10.4c-18.9-10.5-36.2-23.3-51.7-38.1c1.8-6.9,8.1-12,15.6-12h23.9
						C127.3,425.3,134.5,432.4,134.5,441.2z"/>
					<path class="st7" d="M193.2,481h-23.9c-8.9,0-16.1-7.1-16.1-16v-23.7c0-8.8,7.2-16,16.1-16h23.9c8.9,0,16.1,7.1,16.1,16V465
						C209.3,473.9,202.1,481,193.2,481z"/>
					<path class="st7" d="M268,481h-24c-8.9,0-16.1-7.1-16.1-16v-23.7c0-8.8,7.2-16,16.1-16h24c8.9,0,16.1,7.1,16.1,16V465
						C284.1,473.9,276.9,481,268,481z"/>
				</g>
			</g>
		</g>
	</g>
</g>
</svg>
