<?xml version="1.0" encoding="UTF-8"?>
<svg xmlns="http://www.w3.org/2000/svg" xmlns:xlink="http://www.w3.org/1999/xlink" version="1.1" viewBox="0 0 168 60">
  <defs>
    <style>
      .cls-1 {
        fill: url(#_未命名漸層);
      }

      .cls-2 {
        fill: #fff;
      }
    </style>
    <linearGradient id="_未命名漸層" data-name="未命名漸層" x1="-2980.4" y1="-88.8" x2="-2812.4" y2="-88.8" gradientTransform="translate(-2812.4 -58.8) rotate(-180)" gradientUnits="userSpaceOnUse">
      <stop offset="0" stop-color="#6d8ed1"/>
      <stop offset=".3" stop-color="#6283c5"/>
      <stop offset=".9" stop-color="#4665a4"/>
      <stop offset="1" stop-color="#3f5d9b"/>
    </linearGradient>
  </defs>
  <!-- Generator: Adobe Illustrator 28.6.0, SVG Export Plug-In . SVG Version: 1.2.0 Build 709)  -->
  <g>
    <g id="_圖層_1" data-name="圖層_1">
      <g id="DESIGNED_BY_FREEPIK">
        <g>
          <path class="cls-1" d="M0,55.9c0,2.2,2.4,4.1,5.4,4.1h157.2c3,0,5.4-1.8,5.4-4.1V4.1c0-2.2-2.4-4.1-5.4-4.1H5.4C2.4.1,0,1.9,0,4.1v51.7Z"/>
          <g>
            <g>
              <path class="cls-2" d="M67.1,34.2c.1,1.2.3,2.2.8,3,1,1.4,2.5,2.1,4.9,2.1s2-.1,2.9-.4c1.7-.6,2.4-1.7,2.4-3.2s-.3-2-1.1-2.4c-.7-.5-1.8-.8-3.3-1.3l-2.8-.6c-1.8-.4-3.1-.8-3.8-1.4-1.3-.8-1.9-2.2-1.9-3.9s.6-3.5,1.9-4.7c1.3-1.3,3.1-1.8,5.4-1.8s4,.5,5.5,1.6c1.5,1.1,2.2,2.8,2.2,5.2h-2.7c-.1-1.2-.4-2-.8-2.7-.8-1.1-2.2-1.7-4.2-1.7s-2.8.3-3.5,1.1c-.7.7-1.1,1.6-1.1,2.4s.4,1.8,1.3,2.3c.5.3,1.8.7,3.7,1.2l2.9.6c1.4.3,2.4.7,3.2,1.4,1.3,1,1.9,2.4,1.9,4.3s-.8,4-2.5,5.1-3.6,1.5-5.8,1.5-4.6-.6-6-2c-1.5-1.4-2.1-3.2-2.1-5.4h2.7v-.3Z"/>
              <path class="cls-2" d="M84.6,19.8h2.7v8c.6-.7,1.2-1.4,1.7-1.7.8-.5,1.9-.8,3.2-.8,2.2,0,3.8.7,4.6,2.3.4.8.6,2,.6,3.6v10h-2.7v-9.8c0-1.2-.1-2-.4-2.5-.4-.8-1.4-1.3-2.7-1.3s-2,.3-3,1.1c-.8.7-1.3,2.1-1.3,4.2v8.2h-2.7v-21.2h-.1Z"/>
              <path class="cls-2" d="M109.3,31.7c.6-.1,1-.3,1.2-.7s.2-.5.2-1c0-.8-.3-1.5-1-1.9s-1.5-.6-2.7-.6-2.3.3-2.9,1.1c-.3.4-.5,1.1-.6,1.8h-2.4c0-1.9.6-3.3,1.8-4,1.2-.7,2.5-1.2,4.1-1.2s3.3.3,4.5,1.1,1.7,1.8,1.7,3.3v8.9c0,.3.1.5.2.6.1.2.3.2.7.2h.4c.1,0,.3,0,.4-.1v1.9c-.4.1-.7.2-1,.2h-.8c-.8,0-1.6-.3-1.9-1-.2-.3-.3-.8-.4-1.4-.5.7-1.3,1.3-2.3,1.8-1,.5-2.1.7-3.3.7s-2.7-.4-3.5-1.3c-1-.8-1.4-1.9-1.4-3.3s.4-2.5,1.4-3.3c.8-.7,2.1-1.3,3.5-1.5l4-.4ZM103.9,38.8c.5.4,1.2.6,1.9.6s1.8-.2,2.7-.6c1.5-.7,2.1-1.8,2.1-3.5v-2.1c-.3.2-.7.4-1.3.5s-1,.2-1.5.3l-1.6.2c-1,.1-1.7.3-2.1.6-.8.4-1.2,1.2-1.2,2.1.1.7.4,1.4,1,1.8Z"/>
              <path class="cls-2" d="M117.6,25.7h2.4v2.7c.2-.5.7-1.2,1.5-1.9.7-.7,1.7-1.2,2.8-1.2h.2c.1,0,.3,0,.6.1v2.8c-.1,0-.3,0-.4-.1h-.4c-1.3,0-2.3.4-3,1.3-.7.8-1.1,1.8-1.1,2.9v8.9h-2.7s0-15.4,0-15.4Z"/>
              <path class="cls-2" d="M136.9,26.1c1.1.5,1.8,1.2,2.3,2,.5.7.8,1.7,1.1,2.8.1.7.2,1.8.2,3.4h-11.2c0,1.6.4,2.9,1.1,3.8.6,1,1.8,1.4,3.2,1.4s2.4-.4,3.2-1.4c.4-.5.7-1.2,1-1.8h2.5c-.1.5-.3,1.2-.6,1.9-.4.7-.8,1.3-1.3,1.7-.7.7-1.8,1.3-2.9,1.6-.6.1-1.3.2-2.1.2-1.9,0-3.5-.7-4.9-2.1-1.4-1.4-2-3.4-2-5.9s.6-4.5,2-6,3.1-2.3,5.3-2.3c1.2.1,2.2.3,3.2.8ZM137.8,32.1c-.1-1.2-.3-2-.7-2.7-.7-1.3-1.9-1.9-3.5-1.9s-2.2.4-3,1.3c-.8.8-1.3,1.9-1.3,3.3h8.5Z"/>
            </g>
            <path class="cls-2" d="M42.7,16.1h5.3v-7.1h-7c-2.4,0-4.8.6-6.7,3-2,2.5-2,5-2,8.3v4h-5.3v7.3h5.3v19.3h7.8v-19.3h7.5v-7.3h-7.5v-6c0-1.2.6-2.1,2.5-2.1Z"/>
          </g>
        </g>
      </g>
    </g>
  </g>
</svg>