<?xml version="1.0" encoding="UTF-8"?>
<svg xmlns="http://www.w3.org/2000/svg" version="1.1" viewBox="0 0 168 60">
  <defs>
    <style>
      .cls-1 {
        fill: #fff;
      }

      .cls-2 {
        fill: #3aae36;
      }
    </style>
  </defs>
  <!-- Generator: Adobe Illustrator 28.6.0, SVG Export Plug-In . SVG Version: 1.2.0 Build 709)  -->
  <g>
    <g id="_圖層_1" data-name="圖層_1">
      <g>
        <path class="cls-2" d="M0,55.9c0,2.2,2.5,4.1,5.4,4.1h157c3,0,5.4-1.8,5.4-4.1V4.1c0-2.2-2.5-4.1-5.4-4.1H5.5C2.4,0,0,1.8,0,4.1v51.9Z"/>
        <g>
          <path class="cls-1" d="M72.8,34.3c.1,1.2.3,2.1.9,2.9,1,1.4,2.6,2.1,4.9,2.1s2-.1,2.9-.4c1.6-.6,2.5-1.7,2.5-3.2s-.3-2-1.1-2.5c-.7-.5-1.8-.9-3.3-1.3l-2.8-.6c-1.8-.4-3.1-.9-3.8-1.4-1.3-.9-1.9-2.2-1.9-4s.6-3.5,1.9-4.7c1.3-1.2,3.1-1.8,5.4-1.8s4.1.5,5.6,1.6c1.5,1.1,2.2,2.8,2.2,5.1h-2.9c-.1-1.2-.4-2-.9-2.7-.9-1.1-2.2-1.7-4.3-1.7s-2.8.3-3.5,1.1c-.7.7-1.1,1.5-1.1,2.5s.4,1.8,1.3,2.2c.5.3,1.8.7,3.7,1.2l2.9.6c1.4.3,2.5.7,3.2,1.4,1.3,1,1.9,2.5,1.9,4.3s-.9,4.1-2.5,5c-1.7,1-3.6,1.5-5.8,1.5s-4.6-.6-6.1-2c-1.5-1.4-2.1-3.2-2.1-5.4h2.7v.2Z"/>
          <path class="cls-1" d="M90.4,19.8h2.6v7.9c.6-.7,1.2-1.3,1.7-1.6.9-.5,1.9-.9,3.1-.9,2.2,0,3.7.7,4.6,2.3.4.9.6,2,.6,3.5v9.9h-2.7v-9.7c0-1.2-.1-1.9-.4-2.5-.4-.9-1.4-1.3-2.7-1.3s-2,.3-2.9,1.1c-.9.7-1.3,2.1-1.3,4.2v8.2h-2.6v-21.2h-.1Z"/>
          <path class="cls-1" d="M115.1,31.7c.6-.1,1-.3,1.2-.7s.2-.5.2-1c0-.9-.3-1.5-1-1.9s-1.5-.6-2.7-.6-2.3.3-2.9,1.1c-.3.4-.5,1-.6,1.8h-2.5c0-1.9.6-3.2,1.8-4s2.6-1.2,4.2-1.2,3.3.3,4.5,1.1,1.7,1.8,1.7,3.2v9c0,.3.1.5.2.6.1.2.3.2.7.2h.4c.1,0,.3,0,.4-.1v1.9c-.4.1-.7.2-1,.2h-.9c-.9,0-1.5-.3-1.9-1-.2-.3-.3-.9-.4-1.4-.5.7-1.3,1.3-2.2,1.8s-2.1.7-3.3.7-2.6-.4-3.5-1.3-1.4-1.9-1.4-3.3.4-2.6,1.4-3.3c.9-.7,2-1.3,3.5-1.5l4-.4ZM109.7,38.8c.5.4,1.2.6,1.9.6s1.8-.2,2.7-.6c1.5-.7,2.1-1.8,2.1-3.4v-2.1c-.3.2-.7.3-1.2.5-.5.1-1,.2-1.5.3l-1.6.2c-1,.1-1.6.3-2.1.6-.9.4-1.2,1.2-1.2,2.1s.2,1.3.9,1.7Z"/>
          <path class="cls-1" d="M123.3,25.6h2.5v2.7c.2-.5.7-1.2,1.5-1.9.7-.7,1.7-1.2,2.8-1.2h.2c.1,0,.3,0,.6.1v2.8c-.1,0-.3,0-.4-.1h-.4c-1.3,0-2.3.4-3,1.3-.7.9-1.1,1.8-1.1,2.9v8.9h-2.6v-15.4h-.1Z"/>
          <path class="cls-1" d="M142.7,26c1.1.5,1.8,1.2,2.3,2,.5.7.9,1.7,1.1,2.8.1.7.2,1.8.2,3.4h-11.3c0,1.6.4,2.9,1.1,3.8.6,1,1.7,1.4,3.2,1.4s2.5-.4,3.2-1.4c.4-.5.7-1.2,1-1.8h2.6c-.1.5-.3,1.2-.6,1.9-.4.7-.9,1.3-1.3,1.7-.7.7-1.7,1.3-2.9,1.6-.6.1-1.3.2-2.1.2-1.9,0-3.5-.7-4.9-2.1-1.3-1.4-2-3.4-2-5.9s.6-4.5,2-6.1c1.4-1.6,3.1-2.3,5.2-2.3,1.3,0,2.3.2,3.3.7ZM143.6,32.1c-.1-1.2-.3-2-.7-2.7-.7-1.3-1.9-1.9-3.5-1.9s-2.1.4-3,1.3c-.9.9-1.3,1.9-1.3,3.3h8.5Z"/>
        </g>
        <g id="TYPE_A">
          <g>
            <path class="cls-1" d="M57.8,27.9c0-9-9-16.2-20.1-16.2s-20.1,7.3-20.1,16.2,7.2,14.7,16.8,16c.6.1,1.5.4,1.8,1,.2.5.1,1.3.1,1.8,0,0-.2,1.4-.3,1.7-.1.5-.4,2,1.7,1.1,2.1-.9,11.5-6.8,15.7-11.6h0c3-3.2,4.4-6.4,4.4-9.9"/>
            <g>
              <path class="cls-2" d="M33.7,23.5h-1.4c-.2,0-.4.2-.4.4v8.8c0,.2.2.4.4.4h1.4c.2,0,.4-.2.4-.4v-8.8c0-.2-.2-.4-.4-.4"/>
              <path class="cls-2" d="M43.3,23.5h-1.4c-.2,0-.4.2-.4.4v5.2l-4-5.4h-1.4c-.2,0-.4.2-.4.4v8.8c0,.2.2.4.4.4h1.4c.2,0,.4-.2.4-.4v-5.2l4.1,5.4h.1c0,.1.1.1.1.1h1.4c.2,0,.4-.2.4-.4v-8.8c-.3-.3-.5-.5-.7-.5"/>
              <path class="cls-2" d="M30.2,30.9h-3.8v-6.9c0-.2-.2-.4-.4-.4h-1.4c-.2,0-.4.2-.4.4v8.8h0c0,.1,0,.2.1.3h6.1c.2,0,.4-.2.4-.4v-1.4c-.1-.2-.3-.3-.5-.3"/>
              <path class="cls-2" d="M51.1,25.6c.2,0,.4-.2.4-.4v-1.4c0-.2-.2-.4-.4-.4h-5.7c-.1,0-.2,0-.3.1h0c-.1.1-.1.2-.1.3h0v8.8h0c0,.1,0,.2.1.3h0c.1.1.2.1.3.1h5.7c.2,0,.4-.2.4-.4v-1.4c0-.2-.2-.4-.4-.4h-3.8v-1.5h3.8c.2,0,.4-.2.4-.4v-1.4c0-.2-.2-.4-.4-.4h-3.8v-1.5h3.8Z"/>
            </g>
          </g>
        </g>
      </g>
    </g>
  </g>
</svg>