<?xml version="1.0" encoding="UTF-8"?><svg id="_標" xmlns="http://www.w3.org/2000/svg" viewBox="0 0 250 40"><defs><style>.cls-1{fill:#009fa8;}</style></defs><path class="cls-1" d="M3.78,37.92v-7.34c4.18,1.32,7.87,1.97,11.09,1.97,4.44,0,6.66-1.17,6.66-3.52,0-.87-.32-1.61-.97-2.2-.66-.63-2.36-1.51-5.08-2.63-4.89-2.01-8.08-3.72-9.56-5.14-1.92-1.87-2.88-4.23-2.88-7.09,0-3.67,1.4-6.47,4.2-8.4C9.99,1.68,13.59,.73,18.04,.73c2.45,0,5.99,.45,10.63,1.35v7.06c-3.45-1.38-6.65-2.07-9.61-2.07-4.17,0-6.25,1.14-6.25,3.44,0,.86,.42,1.56,1.26,2.1,.7,.44,2.62,1.37,5.77,2.78,4.53,2.01,7.55,3.76,9.05,5.25,1.79,1.77,2.68,4.05,2.68,6.85,0,4.03-1.75,7.1-5.25,9.21-2.84,1.72-6.51,2.57-11.03,2.57-3.81,0-7.65-.45-11.52-1.35"/><polygon class="cls-1" points="37.44 1.37 37.44 1.37 47.81 1.37 47.81 38.52 37.44 38.52 37.44 1.37"/><polygon class="cls-1" points="57.33 38.52 57.33 1.37 83.95 1.37 83.95 8.09 67.33 8.09 67.33 16.48 81.79 16.48 81.79 22.61 67.33 22.61 67.33 31.43 84.38 31.43 84.38 38.52 57.33 38.52"/><polygon class="cls-1" points="91.15 38.52 91.15 1.37 104.61 1.37 113.95 25.11 123.54 1.37 136.32 1.37 136.32 38.52 126.48 38.52 126.48 12.22 115.58 38.9 109.15 38.9 98.46 12.22 98.46 38.52 91.15 38.52"/><polygon class="cls-1" points="145.84 38.52 145.84 1.37 172.45 1.37 172.45 8.09 155.84 8.09 155.84 16.48 170.3 16.48 170.3 22.61 155.84 22.61 155.84 31.43 172.88 31.43 172.88 38.52 145.84 38.52"/><polygon class="cls-1" points="179.71 38.52 179.71 1.37 191.74 1.37 204.5 26.24 204.5 1.37 211.81 1.37 211.81 38.52 200.12 38.52 187.02 13.32 187.02 38.52 179.71 38.52"/><path class="cls-1" d="M219.18,37.92v-7.34c4.14,1.32,7.84,1.97,11.09,1.97,4.44,0,6.65-1.17,6.65-3.52,0-.87-.31-1.61-.94-2.2-.66-.63-2.37-1.51-5.11-2.63-4.87-1.99-8.07-3.71-9.56-5.14-1.92-1.86-2.88-4.23-2.88-7.11,0-3.66,1.4-6.45,4.2-8.37,2.76-1.91,6.37-2.86,10.82-2.86,2.5,0,5.74,.4,9.71,1.19l.92,.16v7.06c-3.45-1.38-6.66-2.07-9.64-2.07-4.15,0-6.22,1.14-6.22,3.44,0,.86,.42,1.56,1.26,2.1,.67,.42,2.6,1.35,5.8,2.78,4.5,2.01,7.51,3.76,9.03,5.25,1.79,1.77,2.68,4.05,2.68,6.85,0,4.03-1.74,7.1-5.22,9.21-2.85,1.72-6.54,2.57-11.05,2.57-3.82,0-7.66-.45-11.52-1.35"/></svg>