<svg id="圖層_1" data-name="圖層 1" xmlns="http://www.w3.org/2000/svg" viewBox="0 0 222 40"><defs><style>.cls-1{fill:#93ee21;}</style></defs><path class="cls-1" d="M40.64.83a3.63,3.63,0,0,0-4.93,1.64L22.58,30.8h0c-.32.58-.58,1-1.27,1s-.95-.43-1.27-1h0L6.91,2.53A3.53,3.53,0,0,0,2,.88,4,4,0,0,0,.39,6.07L13.26,32.23l1.48,3a7.22,7.22,0,0,0,13.14,0l1.48-3L42.17,6A3.91,3.91,0,0,0,40.64.83Z"/><path class="cls-1" d="M215.54.41a6.35,6.35,0,0,0-5.67,3.65c-3.33,6.83-13.18,27.11-13.18,27.17s-.27.58-.69.58-.64-.43-.69-.58h0c-3.23-6.73-9.69-20-13-26.9A6.44,6.44,0,0,0,176.46.41h0c-3.6,0-6.57,3.07-6.57,7.2v27.9a3.86,3.86,0,0,0,2.44,3.76c2.43.8,4.5-1.32,4.5-3.81L176.3,8.3a.26.26,0,0,1,.48-.16l13.34,27.11c1.27,2.59,3.39,4.13,5.77,4.13a6.53,6.53,0,0,0,5.77-4.13l13.4-27.16c.11-.27.48-.16.48.15L215,35.57a3.62,3.62,0,0,0,3.6,3.81,3.81,3.81,0,0,0,3.39-4V7.61C222.1,3.43,219.14.46,215.54.41Z"/><path class="cls-1" d="M165.34,33.77,150.57,4.59A7.35,7.35,0,0,0,144,.41a7,7,0,0,0-4.66,1.75,7.49,7.49,0,0,0-1.91,2.48l-14.72,29c0,.05,0,.05,0,.11v0a4,4,0,0,0,.26,4.08c0,.05.06.05.06.1s0,.06,0,.11a3.86,3.86,0,0,0,1,.85,3.46,3.46,0,0,0,3.82-.16.05.05,0,0,0,0-.06.76.76,0,0,0,.21-.15l.16-.16.05-.06a4.08,4.08,0,0,0,.69-.95l.53-1.16,3.07-6.46a.48.48,0,0,1,.43-.27H146.7A3.38,3.38,0,0,0,150,26a3.42,3.42,0,0,0-3.28-3.5H136.53a.28.28,0,0,1-.26-.42l.74-1.59,5.56-11.17V9.3a0,0,0,0,1,.05-.05h0c.11-.21.37-1,.9-1.16a1,1,0,0,1,.8,0c.58.15.79.84,1.06,1.37h0l13.45,28a3.6,3.6,0,0,0,3.23,2,3.06,3.06,0,0,0,1.21-.21s.06,0,.06,0l.31-.16c.06,0,.06,0,.11,0a.05.05,0,0,0,.05-.06c.06,0,.06,0,.11,0a.12.12,0,0,0,.11-.11s0-.05.1-.05a.28.28,0,0,1,.16-.1l.16-.16.05-.06A3.77,3.77,0,0,0,165.34,33.77Z"/><path class="cls-1" d="M50.59,24.13H75.48a4.38,4.38,0,0,0,4.34-4.66C79.82,8.77,71.56,0,61.34,0S42.81,8.77,42.81,19.47v1c0,12.23,7.84,18.85,18.27,19.43a14.54,14.54,0,0,0,1.48.05,20.1,20.1,0,0,0,11.07-3.33A13.14,13.14,0,0,0,77,33.5a3.85,3.85,0,0,0,0-5c-1.85-1.75-3.81-.79-5.5.69-2.71,2.28-4.77,4.08-10.17,4.08-5.08,0-9.85-2.91-11-8.69C50.27,24.34,50.38,24.13,50.59,24.13ZM50.27,17c.69-5.61,4.56-10.59,11-10.59S71.83,11.26,72.46,17c0,.21-.1.43-.32.43H50.59A.42.42,0,0,1,50.27,17Z"/><path class="cls-1" d="M91.89,24.13h24.89a4.38,4.38,0,0,0,4.34-4.66C121.07,8.77,112.81,0,102.64,0S84.16,8.77,84.16,19.47v1c0,12.23,7.84,18.85,18.27,19.43a14.74,14.74,0,0,0,1.48.05A20,20,0,0,0,115,36.63a13.1,13.1,0,0,0,3.34-3.13,3.85,3.85,0,0,0,0-5c-1.86-1.75-3.81-.79-5.51.69-2.7,2.28-4.76,4.08-10.17,4.08-5.08,0-9.85-2.91-11-8.69A.34.34,0,0,1,91.89,24.13ZM91.63,17c.69-5.61,4.55-10.59,11-10.59S113.18,11.26,113.82,17c0,.21-.11.43-.32.43H92C91.74,17.35,91.58,17.19,91.63,17Z"/></svg>