<?xml version="1.0" encoding="UTF-8"?>
<svg id="_圖層_2" data-name="圖層 2" xmlns="http://www.w3.org/2000/svg" viewBox="0 0 599.62 180.18">
  <defs>
    <style>
      .cls-1 {
        fill: #3fb150;
        stroke-width: 0px;
      }
    </style>
  </defs>
  <g id="_圖層_1-2" data-name="圖層 1">
    <g>
      <path class="cls-1" d="m183.26,60.97c-13.33-.02-23.32,8.68-25.89,22.17h49.73c-1.1-11.84-10.71-22.17-23.84-22.17h0Z"/>
      <path class="cls-1" d="m275.3,60.97c-13.33-.02-23.3,8.68-25.89,22.17h49.73c-1.11-11.84-10.71-22.17-23.84-22.17h0Z"/>
      <path class="cls-1" d="m549.06,133.79h-17.01v-49.91c0-14.05-6.29-22.55-19.03-22.55s-19.04,8.5-19.04,22.91v49.73h-17v-49.73c0-14.41-6.29-22.91-19.04-22.91s-19.04,8.5-19.04,22.55v49.91h-17.04v-51.19c0-21.63,13.87-37.14,35.5-37.14,17.37,0,26.61,11.64,27.92,15.72h.36c1.29-4.06,10.53-15.72,27.92-15.72,21.63,0,35.5,15.52,35.5,37.14v51.19h0Zm-138.65,0h-14.97l-1.49-13.49c-6.65,9.99-18.29,15.34-28.84,15.34-23.66,0-41.59-18.85-41.59-45.1s19.22-45.1,43.8-45.1c22.57,0,43.09,16.26,43.09,45.1v43.26h0Zm-94.09-36.6h-67.09c2.41,14.05,12.74,22.91,26.07,22.91,10.91,0,18.11-4.26,21.81-12.2h17.37c-5.19,16.44-20.14,27.72-39.19,27.72-25.15,0-43.62-18.29-43.62-45.1s18.11-45.1,43.62-45.1c22.73,0,41.41,19.42,41.41,45.1,0,2.59,0,4.08-.36,6.67h0Zm-92.04,0h-67.09c2.41,14.05,12.74,22.91,26.07,22.91,10.91,0,18.11-4.26,21.81-12.2h17.37c-5.19,16.44-20.14,27.72-39.19,27.72-25.15,0-43.62-18.29-43.62-45.1s18.11-45.1,43.62-45.1c22.73,0,41.41,19.42,41.41,45.1,0,2.59,0,4.08-.36,6.67h0Zm-137.36,36.62L45.5,47.3h18.67s29.61,61.93,30.33,65.06h.36c.74-3.14,30.33-65.06,30.33-65.06h18.85l-41.43,86.51h-15.7ZM50.77,0C45.42,0,40.28,2.13,36.5,5.91L5.91,36.5c-3.78,3.78-5.91,8.92-5.91,14.27v129.4l549.17-.32c5.35,0,10.49-2.13,14.27-5.91l30.25-30.25c3.78-3.78,5.91-8.92,5.91-14.27L599.62,0H50.77Z"/>
      <path class="cls-1" d="m367.32,60.97c-14.79,0-26.79,11.84-26.79,29.57s11.1,29.57,26.79,29.57c13.33,0,26.07-11.1,26.07-29.57s-12.56-29.57-26.07-29.57h0Z"/>
    </g>
  </g>
</svg>