<?xml version="1.0" encoding="UTF-8"?>
<svg id="_圖層_2" data-name="圖層 2" xmlns="http://www.w3.org/2000/svg" viewBox="0 0 265 79.7">
  <defs>
    <style>
      .cls-1, .cls-2, .cls-3 {
        stroke-width: 0px;
      }

      .cls-1, .cls-3 {
        fill: #fff;
      }

      .cls-2 {
        fill: #00d15f;
      }

      .cls-3 {
        isolation: isolate;
        opacity: .25;
      }
    </style>
  </defs>
  <g id="_圖層_1-2" data-name="圖層 1">
    <g>
      <path class="cls-2" d="m22.44.08c-2.36,0-4.64.94-6.31,2.61L2.61,16.21c-1.67,1.67-2.61,3.94-2.61,6.31v57.19l242.7-.14c2.36,0,4.64-.94,6.31-2.61l13.37-13.37c1.67-1.67,2.61-3.94,2.61-6.31V.08s-242.55,0-242.55,0Z"/>
      <path class="cls-3" d="m0,28.32l.03,51.36,90.54-.05s10.06.46,17.89-1.27c14.38-3.18,22.95-9.27,33.65-19.98C160.16,40.32,200.61,0,200.61,0h-88.55s-61,60.76-61,60.76c0,0-3.9,4.36-9.17,4.36-3.94,0-6.2-1.59-9.13-4.31C31.9,60.02,0,28.34,0,28.32Z"/>
      <g>
        <path class="cls-1" d="m38.42,59.21L20.11,20.98h8.25s13.08,27.37,13.4,28.75h.16c.33-1.39,13.4-28.75,13.4-28.75h8.33l-18.31,38.23h-6.94Z"/>
        <path class="cls-1" d="m99.12,43.03h-29.65c1.07,6.21,5.63,10.13,11.52,10.13,4.82,0,8-1.88,9.64-5.39h7.67c-2.29,7.27-8.9,12.25-17.32,12.25-11.11,0-19.28-8.08-19.28-19.93s8-19.93,19.28-19.93c10.05,0,18.3,8.58,18.3,19.93,0,1.15,0,1.8-.16,2.95Zm-29.57-6.21h21.98c-.49-5.23-4.73-9.8-10.54-9.8-5.89,0-10.3,3.84-11.44,9.8Z"/>
        <path class="cls-1" d="m139.8,43.03h-29.65c1.07,6.21,5.63,10.13,11.52,10.13,4.82,0,8-1.88,9.64-5.39h7.67c-2.29,7.27-8.9,12.25-17.32,12.25-11.11,0-19.28-8.08-19.28-19.93s8-19.93,19.28-19.93c10.05,0,18.3,8.58,18.3,19.93,0,1.15,0,1.8-.16,2.95Zm-29.57-6.21h21.98c-.49-5.23-4.73-9.8-10.54-9.8-5.89,0-10.3,3.84-11.44,9.8Z"/>
        <path class="cls-1" d="m181.38,40.09v19.12h-6.62l-.66-5.96c-2.94,4.42-8.08,6.78-12.75,6.78-10.46,0-18.38-8.33-18.38-19.93s8.49-19.93,19.36-19.93c9.98,0,19.05,7.19,19.05,19.93Zm-7.52,0c0-8.41-5.55-13.07-11.52-13.07-6.54,0-11.84,5.23-11.84,13.07s4.9,13.07,11.84,13.07c5.89,0,11.52-4.9,11.52-13.07Z"/>
        <path class="cls-1" d="m186.44,59.2v-22.63c0-9.56,6.13-16.42,15.69-16.42,7.67,0,11.76,5.14,12.34,6.95h.16c.57-1.79,4.65-6.95,12.34-6.95,9.56,0,15.69,6.86,15.69,16.42v22.63h-7.52v-22.06c0-6.21-2.78-9.97-8.41-9.97s-8.41,3.76-8.41,10.13v21.98h-7.51v-21.98c0-6.37-2.78-10.13-8.41-10.13s-8.41,3.76-8.41,9.97v22.06h-7.53Z"/>
      </g>
    </g>
  </g>
</svg>