<?xml version="1.0" encoding="UTF-8"?>
<svg id="_圖層_2" data-name="圖層_2" xmlns="http://www.w3.org/2000/svg" xmlns:xlink="http://www.w3.org/1999/xlink" viewBox="0 0 158.92 192.23">
  <defs>
    <style>
      .cls-1 {
        fill: none;
      }

      .cls-2 {
        fill: #a6abab;
      }

      .cls-3 {
        clip-path: url(#clippath-1);
      }

      .cls-4 {
        clip-path: url(#clippath-3);
      }

      .cls-5 {
        clip-path: url(#clippath-2);
      }

      .cls-6 {
        fill: #7d7d7d;
      }

      .cls-7 {
        fill: #fff;
      }

      .cls-8 {
        fill: #d48bb9;
      }

      .cls-9 {
        clip-path: url(#clippath);
      }
    </style>
    <clipPath id="clippath">
      <rect class="cls-1" x="0" y="0" width="158.92" height="192.23"/>
    </clipPath>
    <clipPath id="clippath-1">
      <rect class="cls-1" x="0" y="0" width="158.92" height="192.23"/>
    </clipPath>
    <clipPath id="clippath-2">
      <rect class="cls-1" x="0" y="0" width="158.92" height="192.23"/>
    </clipPath>
    <clipPath id="clippath-3">
      <rect class="cls-1" x="0" y="0" width="158.92" height="192.23"/>
    </clipPath>
  </defs>
  <g id="_圖層_1-2" data-name="圖層_1">
    <polygon class="cls-7" points="128.46 54.21 128.2 55.18 126.45 56.48 123.62 56.27 117.92 54.09 116.95 54.8 116.3 56.74 114.76 57.31 114.15 59.53 111.06 61.51 112.47 62.89 110.04 63.47 109.65 64.28 108.06 64.71 108.18 66.36 110.53 67.28 110.36 69.29 107.57 71.21 107.66 72.78 106.43 74.95 107.41 75.71 107.67 79.01 106.83 79.94 106.63 81.33 105.43 82.81 105.23 84.51 103.68 86 103.39 87.44 104.48 88.21 104.34 89.69 105.49 90.25 104.48 93.49 104.68 94.8 103.14 97.09 100.33 97.69 99.87 100.64 98.94 102.02 97.03 101.66 94.88 102.08 93.07 103.72 94.4 105.2 91.42 106.47 91.42 108.23 90.26 109.14 90.18 110.55 92.36 111.05 94.02 112.31 92.94 114.1 94.09 114.31 94.71 117.38 97.98 117.7 98.27 118.77 102.37 119.22 103.36 122.62 107.34 124.51 109.23 123.88 109.8 120.43 110.99 119.32 113.08 115.22 112.33 113.94 115.43 110.73 114.32 108.83 114.32 107.33 117.56 105.43 119.21 105.43 120.24 106.96 120.42 106.37 121.36 102.87 120.88 102.05 122.58 97.5 122.84 95.35 123.43 93.38 123.83 90.62 125.22 87.85 125.05 85.63 125.65 84.95 127.07 80.92 127.21 76.98 127.83 75.22 129.48 74.16 129.51 73.33 128.63 72.49 127.75 70.78 127.95 69.54 128.52 68.63 130.31 67.32 130.62 65.22 130.19 64.28 131.16 62.64 133.46 61.31 134.02 60.27 134.93 60.08 135.84 59.02 136.13 57.74 136.78 57.07 128.46 54.21"/>
    <polygon class="cls-7" points="118.82 106.01 117.77 106.01 115 107.64 115 108.69 116.22 110.81 113.13 114.02 113.83 115.2 111.57 119.64 110.44 120.68 109.85 124.29 107.29 125.15 102.77 123.01 101.83 119.74 97.71 119.29 97.42 118.23 94.13 117.9 93.49 114.79 92.43 114.6 89.43 114.99 87.75 116.74 85.74 117.28 85.22 120.53 82.92 122.29 82.92 123.93 83.55 124.51 83.4 129.07 80.02 131.73 80.07 135.01 80.69 136.65 82.59 137.86 81.56 139.39 82.11 140.43 84.88 141.55 84.54 143.61 83.92 144.22 83.72 146.82 81.09 147.13 79.42 147.88 78.53 147.88 77.46 148.93 77.79 149.6 75.74 152.27 74.63 156.11 76.28 159.1 75.43 160.79 77.78 163.65 76.45 164.46 75.04 164.86 75 166.43 76.02 167.06 77.82 167.57 77.64 169.26 77.2 169.63 78.17 171.04 78.43 172.33 79.85 172.56 81.56 174.06 83.54 174.06 83.62 168.47 84.99 165.5 86.97 161.21 88.93 155.65 90.38 154.32 90.89 153.65 91 152.34 91.46 151.04 93.17 149.45 97.65 147.08 99.92 145.68 101.23 143.87 102.17 142.54 102.22 141.52 101.82 140.44 101.77 139.88 102.17 139.23 105.4 137.61 107.76 133.77 109.46 132.42 109.92 130.85 111.11 128.95 111.96 126.22 112.99 125.42 114.8 124.89 115.03 121.65 114.6 120.42 114.6 119.53 115.71 118.25 115.71 117.77 115.94 116.56 117.35 113.92 118.29 113.3 118.66 111.97 119.98 107.76 118.82 106.01"/>
    <polygon class="cls-7" points="37.57 100.67 37.5 101.91 40.18 101.47 41.78 101.97 44 101.71 44.44 101.34 43.6 100.37 45.77 98.86 46.6 100.23 49.76 98.27 50.11 97.3 52.72 96.19 54.14 95.16 55.93 95.71 58.63 94.62 60.6 94.62 61.89 96.61 63.99 97.29 68.03 97.38 70.42 98.56 73.68 98.16 73.23 95.81 71.1 96.54 67.74 94.93 68.37 92.67 68.12 89.84 69.03 88.9 69.31 87.99 68.42 86.47 60.44 86.11 57.1 84.43 51.82 84.15 48.32 84.68 43.74 84.03 41.97 85.84 40.44 88.65 40.18 91.69 39.3 91.16 38.39 92.07 36.94 95.55 36.97 97.94 37.57 100.67"/>
    <path class="cls-7" d="M63.1,111.74l-1.27,2.08,1.12,2.9-1.23.62,1.26.83h1.75l.93-.96,2.6.29-1.17-3.39,1.4-.91,1.98,1.26,2.92-1.09,1.89-2.45,1.7.09,2.55-1.97,1.46-2.78,1.93-.04,2.23-1.62-.85-.49-2.68.64-2.29-.39.05-2.6-1.77-2.88.47-1.19-1.44-1.01-2.6-.21.42,2.19-4.19.51-2.44-1.2-3.98-.08-2.44-.8-1.22-1.86h-1.41l-2.81,1.13-1.68-.53-1.19.86-2.42,1.03-.33.92-3.99,2.48-.81-1.34-1.02.71.8.93-1.02.86-2.6.31-1.57-.5-2.4.39.69.84-.71.46.06.41.51,1.35-.77.55v1.76l.65.63-.14.37h-.94l-.23,1.35-.17,2.38,1.34-.1,2.34,1.45,1.41.03,2.93-1.98.74-1.45,5.24-2.93h.09l6.29-.29,3.35.83-.41,1.49,3.08,2.12ZM59.75,105.45l-1.57-.47-.8,1.25-1.12-.19-1-1.21-1.96-.05-.89-2.67,2.49-.32.65-.98,2.44.05.82,1.44,1.76.93.74.86-1.56,1.35Z"/>
    <polygon class="cls-7" points="38.22 132.2 39.36 135.27 39.5 135.81 42.78 135.38 44.11 136.08 46.97 136.05 48.42 136.46 51.11 136.54 53.26 135.15 54.29 135.04 57.39 130.5 60.13 128.99 61.26 126.8 62.65 127.02 64.37 125.48 67.41 120.64 68.19 119.86 68.38 118.09 65.95 117.82 65.05 118.75 62.75 118.75 60.53 117.28 62.12 116.44 61.09 113.75 62.24 111.88 59.24 109.86 59.61 108.55 56.98 107.9 50.89 108.18 45.98 110.93 45.26 112.35 42.01 114.56 40.13 114.51 37.83 113.08 36.47 113.18 35.75 114.1 35.69 115.23 35.1 116.41 36.12 118.1 34.47 118.37 34.19 119.55 33.11 121.17 33.28 122.3 34.28 123.73 32.83 124.55 32.66 127.45 33.79 127.35 32.43 128.27 32.6 128.58 34.05 129.06 35.53 130.15 38.22 132.2"/>
    <path class="cls-7" d="M119.93,16.82l-.96-1.49,1.59-1.41.14-1.37-1.15-.69-1.3-.3-.25-1.66,1.79-2.15,1.69-.27.48-1.36,1.21-.14.54-1.24,2.1,1.12-.2,1.43,1.41.87.24,1.15-.42,1.2.74.2.82,1.35-.37,1.49,1.53,1.66-.7.74-1.74.48-.14,1.59,1.04.85-2.5.99-1.76-.48-.52-1.43-1.17-1.04-.24-.74-.61.82-1.29-.16ZM121.93,0l-3.15,2.1-1.31.24-.77,2.03-.91.6-.65,2.41-1.54,1.12-3.15,1.08-1.99.22-.77.06.65.71,2.76,2.04,3.21,1.24.48,2.47-1.88,2.37-2.38.35.12,3.72,1.45.89-.22,2.28,4.4.41,1.25,2.06-.99,2.35.21,2.02,2.41,1.16.03,1.53,1.32.04,2.89-1.86,2.09-.74.07-3.11,2.18-2.01,4.02-.81,1.49-1.88,3.53-.34,1.39-2.44,2.39-.38-.21-1.35.74-.81.24-.82,2.55-.15,3.59-1.98,2.2,1.06,2.01-1.67-.99-.48-3.41-.53-.09-1.12-.45-.74-.26-3.69-2.21.26-3.27-.4-1.79.64-.7.44-.83.09-1.3.75.52,1.84-1.42,1.05-1.08-.03-3.35-.97-.3-.93-1.09-.31-.72-2.04-1.01-.72,1.08-1.12h1.98l1.93-1.64.35-1.28-.06-1.04-1.97,1.04-1.93-1.62-.25-1.35-1.16-1.23-1.78-1.06h-4.2Z"/>
    <polygon class="cls-7" points="147.5 17.49 144.11 19.35 141.88 19.48 141.72 20.02 141.07 20.73 141.32 22.38 138.62 22.83 137.22 25.3 133.63 25.64 132.19 27.49 128.1 28.31 126.24 30.03 126.17 33.3 123.74 34.15 120.72 36.05 118.94 36 117.67 36.62 117.32 38.46 115.32 40.35 115.76 41.57 114.82 41.84 114.89 44.11 114.07 44.41 113.3 45.45 111.14 46.86 109.67 48.75 109.69 49.19 110.68 49.75 110.81 51.27 113.28 52.57 116.35 52.06 118.06 53.51 123.79 55.7 126.22 55.88 127.59 54.87 127.98 53.42 137.24 56.6 137.43 56.41 137.43 54.6 137.91 53.68 138.25 52.42 138.45 50.35 140.02 48.49 140.3 47.96 142.46 46.51 141.46 45.42 141.55 44.5 143.48 43.9 143.39 42.16 143.45 39.31 142.37 38.54 140.58 33.61 140.81 32.82 140.21 31.35 140.24 28.81 140.78 26.27 141.21 24.75 143.37 22.58 143.85 21.98 146.91 18.93 148.99 18.21 147.5 17.49"/>
    <polygon class="cls-7" points="85.89 32.57 85.98 33.84 86.46 33.9 86.71 32.87 88.7 30.59 90.55 29.88 91.76 29.97 92 28.85 90.51 27.74 88.22 27.51 88.14 27.38 86.52 25.04 86.43 25.55 84.87 26.71 84.96 28.06 84.45 29.97 83.36 31.67 85.89 32.57"/>
    <polygon class="cls-7" points="61.89 65.2 63.02 67 67.75 69.16 68.42 71.92 70.94 72.56 71.48 73.71 73.9 73.36 74.89 73.88 77.47 73.11 78.45 70.37 80.17 70.09 80.26 68.15 81.36 66.7 83.35 67.72 83.47 68.07 84.2 67.38 85.36 67.94 87.7 66.49 88.98 67.24 90.17 66.69 90.83 64.78 93.88 64.9 95.96 62.89 99.55 61.88 100.34 60.71 102.22 61.17 104.9 60.86 106.37 59.7 107.37 60.6 110.13 60.6 110.62 61.07 113.54 59.19 114.18 56.9 115.73 56.32 116.35 54.47 117.36 53.74 116.12 52.69 113.15 53.18 110.16 51.61 110.03 50.07 109.03 49.51 109.01 49.15 107.51 49.87 105.87 49.79 105.33 50.43 105.13 52.47 103.59 52.87 102.64 52.02 93.71 57.75 92.27 57.35 91.07 55.79 87.78 55.14 86.23 55.34 85.58 57.2 84.38 57.93 80.53 57.89 78.1 56.31 76.15 56.1 74.87 55.1 70.14 51.96 67.54 48.5 64.57 51.96 64.18 53.05 62.56 55.56 62.16 57.3 61.17 57.86 60.8 59.74 59.01 62.26 61.89 65.2"/>
    <polygon class="cls-7" points="70.65 51.56 75.31 54.66 76.45 55.55 78.36 55.76 80.76 57.31 84.16 57.34 84.99 56.84 85.7 54.83 87.81 54.55 91.49 55.28 92.71 56.86 93.58 57.11 102.72 51.25 103.8 52.21 104.49 52.03 104.67 50.22 105.36 49.4 105.34 48.25 103.26 45.42 97.93 45.32 96.51 46.05 94.63 46.12 94.04 44.42 94.81 43.62 93.3 42.79 95.19 41.51 94.95 39.46 94.27 38.92 91.59 38.08 91.17 37.04 89.79 36.87 88.71 35.33 88.4 34.07 87.76 34.17 87.02 34.54 87.02 34.54 85.36 34.35 85.25 32.97 82.4 31.96 81.38 33.25 81.21 35.69 81.21 36.15 80.59 36.17 79.74 36.27 79.76 35.81 77.12 35.96 75.45 37.14 75.42 39.05 72.95 39.12 71.87 40.64 71.67 41.44 70.9 42.74 70.57 44.12 69.77 45.95 69.09 46.75 68.75 47.45 68.03 48.07 70.65 51.56"/>
    <g class="cls-9">
      <path class="cls-7" d="M109.53,62.99l1.73-.41-1.43-1.42h-2.74l-.74-.66-1.14.89-3.03.35-1.51-.37-.65.97-3.66,1.06-2.18,2.1-2.85-.12-.59,1.7-1.8.84-1.23-.73-2.3,1.43-1.07-.51-1.2,1.12-.37-1.13-1.19-.61-.64.85-.1,2.25-1.86.3-.96,2.68-3.22.96-1.04-.55-2.71.39-.02-.04-2.23-.13.52,1.49-.95,1.7-.37,3.94-.8.83,1.04,1.92,2.5.32,1.12,1.02-2.08,1.15-.57-.03.84,1.43-.37,1.23-.83.86.23,2.68-.56,1.9,2.63,1.26,2.6-.91.17.87,2.96.24s.04.01.06.02l1.92,1.35-.51,1.35,1.71,2.79-.04,2.26,1.58.27,2.83-.67,1.42.82,3.45.37,1.84,1.29,2.23-.95-1.18-1.31,2.35-2.14,2.5-.48,1.57.29.62-.92.5-3.22,2.98-.64,1.28-1.9-.19-1.24.92-2.92-1.07-.51.15-1.55-1.11-.79.39-1.93,1.54-1.49.19-1.67,1.21-1.49.19-1.41.8-.88-.22-2.86-1.14-.85,1.38-2.43-.1-1.72,2.82-1.95.12-1.36-2.29-.89-.17-2.45,1.79-.48.39-.83Z"/>
    </g>
    <polygon class="cls-7" points="119.84 11.32 121.4 12.26 121.21 14.17 119.81 15.42 120.37 16.29 120.88 16.35 122.07 14.71 122.68 16.61 123.84 17.62 124.31 18.9 125.48 19.21 126.83 18.67 126.28 18.22 126.47 15.97 128.46 15.43 128.68 15.2 127.3 13.69 127.67 12.14 127.09 11.17 125.98 10.87 126.54 9.25 126.38 8.47 124.87 7.54 125.07 6.14 124.05 5.61 123.66 6.51 122.48 6.65 122.01 7.97 120.19 8.26 118.71 10.05 118.87 11.1 119.84 11.32"/>
    <polygon class="cls-7" points="133.33 7.03 131.29 8.77 129.35 8.77 128.9 9.23 129.55 9.7 130.22 11.61 131.32 11.89 131.63 12.83 134.53 13.67 135.24 13.69 136.15 13.03 135.61 11.15 137.43 10.09 138.26 10.01 138.88 9.64 139.84 9.29 136.98 7.66 135.47 8.84 135.36 8.04 134.76 7.56 133.57 7.27 133.33 7.03"/>
    <polygon class="cls-7" points="58.3 102.71 57.57 101.44 55.95 101.41 55.35 102.32 53.29 102.58 53.84 104.2 55.65 104.24 56.69 105.5 57.03 105.56 57.87 104.25 59.58 104.77 60.43 104.05 60.11 103.67 58.3 102.71"/>
    <polygon class="cls-7" points="94.46 20.37 94.69 22.53 97.42 22.69 98.35 23.8 100.72 24.05 100.09 26.02 103.97 28.02 106.1 28.05 107.72 30.28 109.33 30.31 108.96 32.05 109.73 32.77 109.3 34.21 111.4 35 112.55 36.85 112.62 39.18 113.17 40.04 114.78 40 116.68 38.2 117.05 36.26 118.52 35.54 118.49 34.24 116.11 33.09 115.86 30.64 116.79 28.41 115.85 26.85 111.15 26.42 111.4 23.9 109.99 23.03 109.84 18.54 112.51 18.16 114.08 16.18 113.7 14.24 110.74 13.1 107.85 10.96 106.89 9.93 104.75 10.09 98.87 12.51 95.89 13.38 92.48 15.07 91.43 16.69 90.86 18.67 89.23 20.25 94.46 20.37"/>
    <g class="cls-3">
      <path class="cls-7" d="M88.64,26.96l2.16.22,1.95,1.44-.42,1.98-1.65-.13-1.53.59-1.78,2.06-.16.67.32-.16,1.41-.23.4,1.73.85,1.22,1.49.18.45,1.12,2.5.79.97.77.3,2.58-1.44.98,1.35.74-1.02,1.06.34.96,1.18-.04,1.44-.74,5.89.11,2.37,3.23.03,1.14,1.32.07,1.73-.83,1.55-1.99,2.16-1.41.82-1.12.58-.21-.07-2.3.79-.23-.23-.62-1.91.06-.84-1.29-.07-2.35-.97-1.54-2.41-.91.49-1.61-.74-.69.29-1.36-1.18-.02-1.62-2.23-1.93-.03-4.48-2.3.56-1.76-1.91-.19-.93-1.09-2.98-.18-.23-2.14-5.13-.11-.11,1.61-1.27.31-.56,1.49c.62.88,1.3,1.89,1.88,2.73"/>
    </g>
    <polygon class="cls-7" points="54.22 158 56.25 154.15 55.11 152.58 55.82 149.48 56.63 147.39 56.63 142.82 57.95 139.33 62.69 140.21 64.84 138.92 66.42 137.06 69.75 137.33 70.72 138.27 72.21 137.15 74.05 137.24 76.41 138.77 77.13 139.76 78.6 138.4 80.12 138.25 81.08 138.93 81.7 138.01 80.11 137.01 79.39 135.11 79.34 131.48 82.73 128.81 82.86 124.73 82.24 124.16 82.24 122.03 84.58 120.25 85.12 116.84 87.36 116.24 89.07 114.45 92.21 114.04 93.17 112.44 92.03 111.57 89.47 110.99 89.59 108.87 90.74 107.97 90.74 106.43 89.01 105.21 85.82 104.87 83.19 106.78 81.45 106.82 80.1 109.38 77.24 111.6 75.65 111.52 73.87 113.84 70.4 115.13 68.52 113.93 67.89 114.33 69.08 117.74 69.1 117.74 69.09 117.78 69.23 118.19 69.05 118.16 68.85 120.09 67.98 120.96 64.93 125.82 62.88 127.65 61.66 127.45 60.67 129.38 57.9 130.91 54.71 135.57 53.52 135.71 51.33 137.12 48.31 137.03 46.86 136.63 43.92 136.67 42.64 135.98 39.65 136.37 39.84 137.08 40.89 140.13 42.85 144.52 45.01 147.46 44.16 149.61 43.93 151.01 45.58 153.93 50.75 159.03 52.76 159.08 54.03 159.7 54.22 158"/>
    <polygon class="cls-7" points="65.33 139.34 62.84 140.84 58.4 140 57.31 142.91 57.31 147.47 56.47 149.64 55.83 152.47 57.01 154.11 54.88 158.15 54.68 160.02 56.03 160.67 56.19 161.91 57.05 162.82 64.03 165.94 64.68 166.68 65.22 167.87 66.05 168.45 67.75 170.14 68.26 171.95 68.61 173.23 69.03 173.52 70.19 174.87 70.48 175.93 71.58 179.46 71.79 179.97 71.96 181.08 71.39 184.07 70.73 185.18 70.76 186.61 72.13 188.18 72.21 191.03 73.77 191.82 74.31 191.39 74.43 190.3 75.5 189.6 81.21 192.23 81.64 192.23 80.53 189.91 80.53 188.3 83.2 186 83.51 185.3 83.43 182.11 83.53 174.64 81.28 174.64 79.51 173.1 77.84 172.83 77.52 171.24 76.36 169.53 76.98 169 77.09 167.97 75.7 167.58 74.31 166.72 74.37 164.44 76.14 163.94 76.84 163.51 74.65 160.86 75.54 159.11 73.91 156.17 75.11 152.04 77.02 149.54 76.68 148.81 78.22 147.3 79.26 147.3 80.88 146.57 83.08 146.31 83.26 143.99 83.9 143.36 84.14 141.89 81.6 140.87 80.9 139.56 79.91 138.85 78.93 138.95 77.01 140.72 75.89 139.16 73.8 137.81 72.45 137.74 70.66 139.08 69.41 137.89 66.75 137.66 65.33 139.34"/>
    <polygon class="cls-7" points="58.64 62.78 58.85 62.99 58.64 62.78 58.64 62.78"/>
    <polygon class="cls-7" points="44.28 83.52 48.31 84.1 51.78 83.57 57.31 83.86 60.65 85.54 69.58 85.95 70.79 85.28 70.38 84.91 67.75 84.57 66.38 82.04 67.32 81.07 67.7 77.21 68.59 75.61 67.85 73.55 70.75 73.72 70.43 73.04 67.84 72.37 67.15 69.54 62.51 67.42 61.32 65.52 59.19 63.34 58.44 63.41 56.08 65.71 55.4 67.42 55.32 68.7 53.55 70.78 51.14 72.47 48.56 76.84 46.17 81.06 44.92 82 44.98 82.9 44.28 83.52"/>
    <polygon class="cls-7" points="118.52 176.61 117.73 176.19 118.13 175.77 119.64 176 124.75 175.77 124.75 176.19 124.62 176.81 125.09 177.85 124.95 178.22 124.41 178.44 124.37 179.03 124.46 179.69 127.73 181.64 126.86 183.24 124.86 183.12 123.05 181.16 121.34 181.07 118.61 178.99 118.52 176.61"/>
    <polygon class="cls-7" points="113.77 149.71 113.77 149.19 115.62 148.94 117.96 149.71 118.15 150.92 117.15 152.06 117.27 152.7 116.93 152.8 115.78 152.09 114.6 151.44 114.26 150.01 113.77 149.71"/>
    <g class="cls-5">
      <path class="cls-7" d="M19.05,119.69c-.38-.4-.58-.94-.58-1.49,0-.92.16-1.66-.41-1.97-.33-.18-.69-.3-1.07-.33-.11-.27-.37-.44-.65-.43-.46.03-.2.37-.77.43s-.51.03-.82-.3-.61-.28-.87-.44c-.26-.15.51-.37-.33-.51-.41-.1-.84-.1-1.25,0l-.14.43s-.03,0,.37.56c.4.56.44,1.25.37,1.25-.41-.04-.82-.06-1.22-.05-.49.03-.84.11-.92.29-.11.33-.19.67-.26,1.02.05.34-.12.67-.43.82-.54.37-1,.77-.97.84.42.65.93,1.23,1.51,1.74.56.37,1.61.97,1.61.97.58-.33,1.13-.72,1.64-1.15.37-.41.69-1.79,1.35-1.99.67-.2,1.05-.54,1.49-.25.63.3,1.28.54,1.94.71.14.06.42-.15.42-.15"/>
      <path class="cls-7" d="M17.46,112.05c.44-.05.51.72.51.72.05.24-.11.46-.34.51-.06.01-.11.01-.17,0-.52-.03-1.04-.03-1.56,0,0,0-.15.74-.37.69-.22-.06-.59-.03-.79-.2-.2-.18-.03-.67.18-.94.2-.28.44-.9.9-.95.55.01,1.11.07,1.65.18"/>
      <path class="cls-7" d="M12.11,111.13c.69.06,1.25-.15,1.56.44.27.49.37,1.06.28,1.61-.1.3-.23.59-.71.37-.46-.26-.98-.39-1.51-.37-.49.07-1-.02-1.43-.26-.27-.15-.56-.25-.87-.28-.26-.07-.14-.71.28-1,.42-.28.87-.65,2.41-.51"/>
      <path class="cls-7" d="M7.41,112.72c.95.23.51.53,1.25.59.74.05.83.16.63.67s-.68.92-1.04,1.53c-.36.61-.62.49-.62,1.44s.23,1.49-.37,1.97c-.6.48-.9.64-1.69.51-.79-.13-1.35.06-1.82.04s-.37-.91-.28-1.17c.09-.26.41-.41,1.1-.67.69-.26,1.2-.64,1.18-1.02s-.2-.54-.15-.89c.08-.27.14-.54.18-.82.1-.74,0-1.38.28-1.64.28-.26.75-.69,1.35-.55"/>
      <path class="cls-7" d="M7.56,121.81c.53,0,1.05.14,1.51.41.44.26.74.41.64.85-.11.44-.25.69-.64.59s-.81-.28-1.11-.18c-.27.12-.57.19-.87.2-.37,0-.91-.37-.68-.71.24-.34.49-1.19,1.15-1.15"/>
      <path class="cls-7" d="M14.25,105.35c.41,0,.59.72.72,1.38.13.66.05.97-.35,1.35s-1.16.2-1.75.23c-.59.03-.71-.37-.33-.97s.33-1.02.77-1.2c.44-.18.43-.8.95-.8"/>
      <path class="cls-7" d="M3.7,134.26c.2.66-.77.71-.87,1.33-.1.61-.1,1.58-.82,1.33-.71-.26-1.94-1.11-1.99-1.79-.05-.67,0-1.69,1.12-1.53.87.15,1.73.37,2.57.67"/>
      <path class="cls-7" d="M9.07,135.95c1,.24.97.24.92,1.02-.05.78-.51,1.18-1.18.98-.67-.2-.72-.32-1.18-.98-.46-.65.56-1.22,1.43-1.02"/>
      <path class="cls-7" d="M16.43,137.58c-.12,1.03-.16,1.49.46,1.49s.41,0,1.02-.79c.61-.79,1.12-1.89.51-1.84-.6.05-.12.82-.9.87-.79.05-1.01-.45-1.09.27"/>
      <path class="cls-7" d="M29.36,37.77c.72,0,.51-.67,1.33-.67s1.44-.15,1.74-.87c.3-.71-.26-1.07-1.23-1.07s-.82.81-1.38.86c-.56.05-1.07.2-1.11.82-.07.43.23.84.66.92"/>
      <path class="cls-7" d="M29.05,38.33c.6.07.26.77.26,1.58s-.15,1.18.41,1.18.31.31,0,.57-1.43-.09-1.43.57c0,.65-.56,1.27,0,1.37.32.06.65.06.97,0,0,0,0,.1-.57.56-.57.46-.43.46-.65,1.23-.22.77-.04,1.38,0,2.15.04.77.82,1.75.25,1.75s-.92.47-1.49,0-1.23-.42-1.94-.42-1.12,0-.92-.37,1.02-.66,1.12-1.49c.09-.82.31-1.23.1-1.89-.2-.67-.77-1.21-.41-1.22.46.05.92.05,1.38,0,.61-.11,1.18-.72,1.18-1.18s-.28-.87-.35-1.64-.55-1.33,0-1.58c.55-.26,1.02.05,1.32-.37s-.04-.88.77-.78"/>
      <path class="cls-8" d="M115.37,84.47l.29.97s.37.81.29,1.05c-.08.24-.29,1.45-.29,1.45-.54.02-.99.43-1.07.97-.11.93.11,1.09-.22,1.54-.33.45-1.06,1.11-1.49,2.23s-.66,2.26-.91,2.86c-.26.6-1.58,3.56-1.76,4.44-.18.89-.4,1.3-.4,1.86s0,.16-.51,1.09c-.43.67-.78,1.39-1.07,2.14-.26.77-.18,1.17-.55,1.61-.36.44-1.14,1.41-1.14,1.41l-.62,1.81c-.05.6-.16,1.2-.33,1.78-.29,1.05-.37,1.09-1.17,2.14-.8,1.05-2.38,2.74-2.53,3.83-.15,1.09.08,2.91-.26,4.36-.33,1.45-.77,1.61-.77,2.62s.4,3.51,0,4.72c-.4,1.21-1.21,2.74-1.49,3.63-.28.89-.37,1.29-.59,1.21-.22-.08-.18-1.28-.62-1.65-.44-.37-1.14-1.12-1.8-1.41-.66-.3-1.83-.12-2.09-.08-.26.04-.51-.16-.51-1.25s-.26-3.31,0-4c.47-.99,1-1.94,1.58-2.87.33-.57.07-.64-.77-.97-.8-.37-1.58-.8-2.31-1.29-.35-.21-.74-.36-1.14-.45,0,0-.14-2.02.22-2.18,0,0,.4-.52,1.21,0,.81.52.99.97,2.05,1.05.86.1,1.73-.03,2.53-.37.77-.32,1.54-1.41,1.86-2.26.32-.85.11-1.25.29-2.87s0-2.38.29-2.83.59-1.53,1.49-2.1c.9-.57,2.6-2.98,3.01-3.79.4-.82.69-2.42.84-3.43s-.15-2.5.4-2.97c.55-.47,2.02-3.39,2.46-4.09.44-.7,1.32-2.02,1.86-3.03.54-1.01-.18-1.17.81-2.06.99-.89,1.54-1.17,1.8-1.86.26-.69-.07-1.49-.11-2.02s-1.14-2.18-1.18-2.67c-.04-.49.04-.24,1.03-.28s1.32-.08,1.32.69-.14,1.41.37,1.61c.52.2,1.68-.32,1.68-.32"/>
      <path class="cls-2" d="M102.19,137.98s.03-.09.05-.13c0-.09-.02-.18-.05-.26v.39Z"/>
      <path class="cls-7" d="M55.19,170.05c1.12,0,.61.61.61,1.12s.05,1.33-.61,1.33-1.69-.2-2.66-.16.1-.77.92-1.07c.82-.31-.11-.82.58-1.02.38-.11.77-.18,1.16-.2"/>
      <path class="cls-8" d="M144.18,78v-2.07c0-.2.07-.23.22-.25.22-.02.66-.03.94-.04-.02.34-.03.88-.03,1.63v2.91c0,.63.02.93.03,1.11-.18.05-.76.07-.96.07-.13,0-.19-.03-.19-.17v-2.47c-.18.02-.48.03-1.03.03h-1.38v2.33c0,.19-.07.23-.28.24-.24.03-.68.05-.87.04.02-.36.03-.89.03-1.65v-2.84c0-.61,0-.98-.03-1.15.23-.05.77-.07.96-.07.16,0,.19.08.19.49v1.87h2.4Z"/>
      <path class="cls-8" d="M148.12,77.86c-.33,0-.69.32-.73.99.37.03,1.06.02,1.28,0,.06,0,.12-.09.12-.19,0-.44-.2-.8-.66-.8h-.01ZM149.63,80.41c0,.4-.31.77-.47.84-.14.06-.52.16-.84.16-1.31,0-2.03-.72-2.03-2.04,0-1.09.71-2.13,1.93-2.13,1.14,0,1.59.83,1.59,1.55,0,.13,0,.23-.03.3-.03.14-.39.26-.76.35-.22.05-1.16.06-1.66.04.05.79.62,1.12,1.23,1.12.43,0,.85-.13,1.01-.21l.02.02Z"/>
      <path class="cls-8" d="M150.44,77.7c.07-.21.41-.47.66-.47.4,0,.56.38.57.94.26-.61.64-.94,1.12-.94.17,0,.34.08.42.15.04.1.04.36-.06.53-.03.19-.22.41-.35.42-.18-.07-.28-.09-.43-.09-.14,0-.4.11-.55.49-.05.14-.08.24-.08.44v1.88c0,.15-.02.22-.2.25-.32.04-.59.05-.92.05.02-.48.03-1.03.03-1.64v-1.52c0-.21-.05-.37-.21-.46v-.03Z"/>
      <path class="cls-8" d="M155.33,77.86c-.33,0-.69.32-.73.99.37.03,1.06.02,1.28,0,.06,0,.12-.09.12-.19,0-.44-.2-.8-.66-.8h-.01ZM156.84,80.41c0,.4-.31.77-.47.84-.14.06-.52.16-.84.16-1.32,0-2.03-.72-2.03-2.04,0-1.09.71-2.13,1.93-2.13,1.14,0,1.59.83,1.59,1.55,0,.13,0,.23-.03.3-.03.14-.39.26-.76.35-.22.05-1.16.06-1.66.04.05.79.62,1.12,1.23,1.12.43,0,.86-.13,1.01-.21l.02.02Z"/>
      <path class="cls-8" d="M158.73,75.84c.13,0,.19.02.19.24,0,.53-.22,2.67-.27,3.05-.03.16-.13.2-.21.23-.22.05-.4.1-.45.1-.05-.38-.27-2.82-.28-3.39.04-.1.72-.23,1.01-.23h0ZM158.31,80.11c.35,0,.59.29.59.63,0,.4-.25.66-.66.66-.29,0-.61-.2-.61-.63,0-.36.22-.66.68-.66h0Z"/>
    </g>
    <rect class="cls-8" x="98.31" y="96.76" width="53.63" height=".5" transform="translate(-32.61 83.34) rotate(-32.83)"/>
    <g class="cls-4">
      <path class="cls-6" d="M115.96,68.98v.35h.82v.26h-.82v.33h-.27v-.33h-.46v-.26h.46v-.35h.27ZM115.5,72.41c-.23,0-.35-.12-.35-.36v-2.01h.28v.77l1.27-.08v.26l-1.27.07v.93c0,.11.05.16.15.16h.71c.09,0,.16-.03.2-.08.05-.06.09-.24.1-.55l.26.08c-.03.38-.09.61-.17.69-.07.07-.19.11-.35.11h-.84ZM114.32,69.33v-.35h.27v.35h.45v.26h-.45v.33h-.27v-.33h-.82v-.26h.82ZM113.51,71.53l-.08-.27c.44-.37.76-.79.97-1.27l.25.11c-.08.19-.18.37-.3.54v1.84h-.28v-1.47c-.16.18-.35.36-.56.52"/>
      <path class="cls-6" d="M120.14,70.91h-.54v.25h.54v-.25ZM119.61,70.72h.54v-.25h-.54v.25ZM119.36,70.91h-.53v.25h.53v-.25ZM119.36,70.47h-.53v.25h.53v-.25ZM119.35,69.84v-.2h.17v-.19h-.46v-.24h.46v-.22h.26v.22h.82v.24h-.82v.24h-.17v.15h.92v.22h-.92v.2h.77v1.1h-.77v.2h.97v.23h-.97v.26h-.26v-.26h-.96v-.23h.96v-.2h-.77v-1.1h.77v-.2h-.92v-.22h.92ZM118.14,70.08l-.17.18c-.13-.14-.3-.29-.51-.45l.17-.17c.2.15.38.3.51.44M118.15,70.4v.2c-.1.17-.2.34-.32.5h.43v.18c-.05.23-.12.43-.19.58.02.02.05.03.08.05.11.09.22.15.33.2.11.03.27.05.47.06.19,0,.41,0,.66,0,.27,0,.63,0,1.07-.02l-.06.25h-.98c-.27,0-.5,0-.71-.01-.24,0-.43-.03-.55-.08-.15-.05-.28-.14-.4-.24-.03-.02-.05-.03-.08-.03-.08,0-.2.15-.36.43l-.19-.18c.17-.28.33-.44.48-.48.08-.15.14-.31.18-.5h-.49v-.2c.14-.17.25-.33.35-.49h-.5v-.24h.78ZM118.15,69.21v-.23h.26v.23h.45v.24h-.45v.25h-.26v-.25h-.82v-.24h.82Z"/>
      <path class="cls-6" d="M124.52,72.12l-.2.14c-.1-.22-.23-.46-.39-.73l.2-.12c.18.27.31.51.4.71M123.26,72.41l-.06-.24c.08,0,.15.02.22.02s.11-.04.11-.12v-.88c-.19.01-.39.03-.59.04l-.05-.23.1-.02c.17-.1.39-.28.63-.55-.21.02-.43.04-.66.06l-.05-.22.09-.02c.19-.12.46-.43.79-.9l.24.09c-.27.36-.52.64-.73.83.17-.01.34-.03.5-.05.11-.13.21-.26.33-.4l.25.1c-.4.49-.75.85-1.04,1.08.25-.02.51-.05.75-.08-.05-.09-.09-.18-.14-.26l.21-.1c.12.2.23.43.33.68l-.21.11-.09-.22c-.14.01-.27.03-.41.04v.96c0,.19-.09.29-.27.29h-.25ZM123.79,69c-.28.4-.58.71-.9.92l-.16-.19c.32-.2.59-.47.81-.79l.26.06ZM123.32,71.53c-.12.28-.26.53-.42.74l-.2-.14c.16-.2.29-.43.41-.71l.21.1ZM122.69,71.97l-.22.1c-.06-.24-.13-.46-.21-.65l.21-.07c.08.19.15.4.21.62M122.34,70.71h-.77v.25h.77v-.25ZM122.34,70.25h-.77v.26h.77v-.26ZM122.34,69.8h-.77v.25h.77v-.25ZM122.34,69.34h-.77v.25h.77v-.25ZM122.59,70.96h.2v.24h-.71v1.21h-.26v-1.21h-.68v-.24h.19v-1.83h1.27v1.83ZM121.62,71.4c-.08.35-.21.66-.36.91l-.2-.13c.16-.25.28-.52.35-.83l.22.05Z"/>
      <path class="cls-6" d="M114.98,74.55v-.92c0-.08.02-.09.08-.1.07-.01.2-.01.28-.01,0,.14-.01.37-.01.69v1.23c0,.27,0,.39.01.47-.07.01-.24.03-.3.03-.04,0-.06-.01-.06-.07v-1.08c-.08,0-.2.01-.53.01h-.69v1.01c0,.08-.02.09-.1.1-.1.02-.17.02-.26.02,0-.15.01-.38.01-.7v-1.2c0-.25,0-.41-.01-.48.07-.02.23-.03.29-.03.05,0,.07.03.07.2v.83h1.22Z"/>
      <path class="cls-6" d="M115.9,74.69c0-.23,0-.35-.01-.43.06-.02.22-.04.29-.04.04,0,.05.02.05.24,0,.25,0,.52,0,.77,0,.39.2.44.37.44s.33-.11.4-.19v-1.1c0-.1.01-.11.06-.13.11-.01.2-.02.28-.02,0,.08-.01.35-.01.68v.6c0,.18.05.22.15.24v.02c0,.08-.1.19-.18.19-.16,0-.25-.11-.27-.27-.12.13-.24.19-.32.22-.08.03-.16.05-.25.05-.39,0-.57-.25-.57-.63v-.63Z"/>
      <path class="cls-6" d="M118.11,75.48c0,.14.11.22.24.22.16,0,.27-.09.33-.18.02-.03.03-.07.03-.13v-.27c-.31.04-.6.15-.6.36h0ZM119.24,75.71c0,.16-.09.24-.25.24s-.25-.11-.27-.24c-.1.11-.28.24-.48.24-.26,0-.45-.2-.45-.44,0-.41.52-.52.73-.57.07-.01.15-.03.2-.04v-.1c0-.17-.1-.34-.33-.34-.13,0-.27.06-.37.13-.11.05-.17-.03-.19-.14.12-.11.37-.25.63-.25.39,0,.57.28.57.64,0,.16-.01.52,0,.75,0,.07.05.12.13.12.02,0,.06,0,.08-.01h0Z"/>
      <path class="cls-6" d="M119.61,73.81c0-.23,0-.34-.02-.42.08-.03.24-.05.29-.05.04,0,.06.02.06.25v1.83c0,.19,0,.39.01.5-.07.02-.25.03-.3.03-.03,0-.05-.01-.05-.05v-2.08Z"/>
      <path class="cls-6" d="M120.85,75.82c0,.07-.02.09-.08.09-.05.01-.15.01-.26.02,0-.15.01-.37.01-.59v-.64c0-.23,0-.35-.02-.43.07-.02.24-.04.29-.04.04,0,.06.02.06.24v1.36ZM120.68,73.41c.11,0,.18.08.18.19s-.07.2-.19.2c-.1,0-.19-.07-.19-.19,0-.14.11-.2.19-.2h0Z"/>
      <path class="cls-6" d="M122.01,74.42c-.19,0-.37.17-.4.47.27,0,.6,0,.67,0,.05,0,.08-.03.08-.08,0-.23-.11-.4-.35-.4h0ZM122.62,75.6c0,.12-.09.24-.16.27-.06.03-.22.08-.38.08-.53,0-.82-.31-.82-.85,0-.48.29-.9.8-.9.44,0,.63.33.63.64,0,.04,0,.09,0,.12-.01.06-.2.11-.33.14-.1.01-.48.02-.76.01,0,.37.24.58.57.58.17,0,.36-.07.43-.1h.01Z"/>
      <path class="cls-6" d="M124.2,74.91c0-.29-.13-.44-.35-.44-.19,0-.34.12-.43.22v1.13c0,.08-.01.09-.08.09-.09.01-.18.01-.27.01,0-.14.01-.36.01-.7v-.64c0-.14-.02-.21-.07-.24h0c.03-.07.15-.14.22-.14.12,0,.16.19.16.28.16-.16.37-.28.58-.28.44,0,.56.34.56.7v.52c0,.22,0,.38.02.48-.08.01-.19.03-.29.03-.04,0-.06-.02-.06-.06v-.97Z"/>
      <path class="cls-6" d="M115.48,79.6c-.02.1-.06.19-.12.24-.08.06-.29.12-.55.12-.86,0-1.31-.49-1.31-1.23,0-.77.58-1.26,1.33-1.26.35,0,.63.12.69.19,0,.14-.1.21-.19.18-.11-.06-.3-.11-.51-.11-.51,0-.94.33-.94.98,0,.57.36.99,1.02.99.24,0,.46-.07.57-.12l.02.02Z"/>
      <path class="cls-6" d="M116.56,78.43c-.25,0-.47.22-.47.63,0,.45.23.68.51.68.22,0,.46-.19.46-.64,0-.32-.14-.66-.49-.66h0ZM116.59,78.21c.53,0,.82.36.82.86s-.33.89-.84.89c-.56,0-.84-.41-.84-.86,0-.5.35-.89.85-.89h0Z"/>
      <path class="cls-6" d="M117.83,78.7c0-.24,0-.35-.01-.43.06-.02.22-.04.29-.04.04,0,.05.02.05.24,0,.25,0,.52,0,.77,0,.39.2.44.37.44s.33-.11.39-.19v-1.11c0-.09.01-.11.06-.13.11-.01.2-.02.28-.02,0,.08-.01.35-.01.68v.6c0,.18.05.22.15.24v.02c0,.08-.1.19-.18.19-.16,0-.25-.11-.27-.27-.12.13-.24.19-.32.22-.08.03-.16.05-.25.05-.39,0-.57-.26-.57-.63v-.63Z"/>
      <path class="cls-6" d="M120.99,78.91c0-.29-.13-.44-.35-.44-.19,0-.34.12-.43.22v1.13c0,.08-.02.09-.08.09-.09.01-.18.01-.27.01,0-.14.01-.36.01-.7v-.64c0-.14-.02-.21-.07-.24v-.02c.03-.06.15-.13.22-.13.12,0,.16.19.16.28.16-.16.37-.28.58-.28.45,0,.56.34.56.7v.52c0,.22,0,.38.02.48-.08.01-.19.03-.29.03-.04,0-.06-.02-.06-.06v-.97Z"/>
      <path class="cls-6" d="M122.8,79.63c.02.08,0,.17-.07.23-.08.06-.22.1-.36.1-.34,0-.47-.21-.47-.5v-.97c-.13,0-.19-.05-.19-.09.04-.08.28-.3.34-.34.05-.05.11-.08.2-.1,0,.12-.02.21-.02.29h.6c-.04.2-.12.22-.19.22-.13,0-.15.01-.42.01-.02.38-.02.78,0,.94.02.22.14.28.27.28.11,0,.22-.04.29-.08h.01Z"/>
      <path class="cls-6" d="M123.16,80.6c.13-.16.35-.47.51-.79-.02-.03-.05-.1-.08-.16-.06-.15-.37-1-.54-1.36.07-.04.21-.09.28-.09.05,0,.06.03.08.07.11.28.34.94.43,1.2.15-.35.35-.96.42-1.27.06,0,.15.01.21.04.06.03.07.05.05.14-.11.41-.26.84-.47,1.28-.22.49-.58,1.05-.65,1.05-.09,0-.2-.06-.24-.1v-.02Z"/>
      <path class="cls-6" d="M89.57,135.71h-1.98v.87h1.98v-.87ZM89.84,137.03h-.28v-.19h-1.98v.19h-.28v-1.58h2.54v1.58ZM86.98,134.8c.33-.11.75-.53,1.24-1.26l.28.09c-.34.49-.69.87-1.03,1.16.73-.03,1.42-.08,2.07-.14-.14-.2-.29-.4-.44-.57l.25-.12c.33.38.63.8.91,1.26l-.27.13c-.1-.16-.19-.31-.28-.45-.8.07-1.7.12-2.68.16l-.05-.26Z"/>
      <path class="cls-6" d="M92.53,135.64h.95v-.35h-.95v.35ZM93.48,134.72h-.95v.35h.95v-.35ZM91.3,135.64h.96v-.35h-.96v.35ZM92.26,134.72h-.96v.35h.96v-.35ZM92.26,133.88v-.35h.27v.35h1.52v.26h-1.52v.35h1.22v1.4h-.95c.28.34.73.59,1.33.78l-.12.25c-.68-.26-1.17-.61-1.45-1.03h-.03v1.17h-.27v-1.17h-.03c-.24.41-.71.76-1.4,1.05l-.15-.24c.65-.24,1.09-.51,1.32-.81h-.97v-1.4h1.23v-.35h-1.52v-.26h1.52Z"/>
      <path class="cls-6" d="M97.96,136.68l-.2.14c-.1-.22-.23-.46-.4-.73l.2-.12c.18.27.31.51.4.71M96.69,136.98l-.06-.24c.08,0,.15.02.22.02s.11-.04.11-.12v-.88c-.19.01-.39.03-.59.04l-.05-.23.1-.02c.18-.1.39-.28.64-.55-.21.02-.43.04-.66.06l-.05-.22.09-.02c.19-.12.46-.43.79-.9l.24.09c-.27.36-.52.64-.73.83.17-.01.34-.03.5-.05.11-.13.21-.26.33-.4l.25.1c-.4.49-.75.85-1.05,1.08.26-.02.51-.05.75-.08-.05-.09-.09-.18-.14-.26l.21-.1c.12.2.23.43.33.68l-.21.11-.09-.22c-.14.01-.27.03-.41.04v.96c0,.19-.09.29-.27.29h-.25ZM97.23,133.56c-.28.4-.58.71-.9.92l-.16-.19c.32-.2.59-.47.81-.79l.26.06ZM96.75,136.1c-.12.28-.26.53-.42.74l-.2-.14c.16-.2.29-.43.41-.71l.21.1ZM96.12,136.53l-.22.1c-.06-.24-.13-.46-.21-.65l.21-.07c.08.19.15.4.21.62M95.77,135.27h-.77v.25h.77v-.25ZM95.77,134.82h-.77v.26h.77v-.26ZM95.77,134.36h-.77v.25h.77v-.25ZM95.77,133.91h-.77v.25h.77v-.25ZM96.02,135.52h.2v.24h-.71v1.21h-.26v-1.21h-.68v-.24h.19v-1.83h1.27v1.83ZM95.05,135.96c-.08.35-.21.66-.36.91l-.21-.13c.16-.25.28-.52.35-.83l.22.05Z"/>
      <path class="cls-6" d="M87.57,138.35h-.73c-.06,0-.09-.03-.07-.09.04-.09.08-.15.11-.18.05.01.14.02.56.02h1.29c0,.12-.09.23-.14.25h-.69v1.65c0,.26,0,.39.01.46-.09.02-.2.03-.3.03-.04,0-.06-.01-.06-.07v-2.08Z"/>
      <path class="cls-6" d="M88.95,140.04c0,.14.11.22.24.22.16,0,.27-.09.33-.18.02-.03.03-.07.03-.13v-.27c-.31.04-.6.15-.6.36h0ZM90.08,140.27c0,.16-.09.24-.25.24s-.25-.11-.27-.24c-.1.11-.28.24-.48.24-.26,0-.45-.2-.45-.44,0-.41.52-.52.73-.57.07-.01.15-.03.2-.04v-.1c0-.17-.1-.34-.33-.34-.13,0-.27.06-.37.13-.11.05-.17-.03-.19-.14.12-.11.37-.25.63-.25.39,0,.57.28.57.64,0,.16-.01.52,0,.75,0,.07.05.12.13.12.02,0,.06,0,.08-.01h0Z"/>
      <path class="cls-6" d="M90.79,140.38c0,.07-.02.09-.08.09-.05.01-.15.01-.26.02,0-.15.01-.37.01-.59v-.64c0-.23,0-.35-.02-.43.07-.02.24-.04.29-.04.04,0,.06.02.06.24v1.36ZM90.63,137.97c.11,0,.18.08.18.19s-.07.2-.19.2c-.1,0-.19-.07-.19-.19,0-.14.11-.2.19-.2h0Z"/>
      <path class="cls-6" d="M92.28,140.19c.02.08,0,.17-.07.23-.08.06-.22.1-.36.1-.34,0-.47-.21-.47-.5v-.97c-.13,0-.19-.05-.19-.09.04-.08.28-.3.34-.35.05-.05.11-.08.2-.09,0,.12-.02.21-.02.29h.6c-.04.2-.12.22-.19.22-.13,0-.15.01-.42.01-.02.38-.02.78,0,.94.02.22.14.28.27.28.11,0,.22-.04.29-.08h.01Z"/>
      <path class="cls-6" d="M92.59,139.26c0-.23,0-.35-.01-.43.06-.02.22-.04.29-.04.04,0,.05.02.05.24,0,.25,0,.52,0,.77,0,.39.2.44.37.44s.33-.11.39-.19v-1.1c0-.1.01-.11.06-.13.11-.01.2-.02.28-.02,0,.08-.01.35-.01.68v.6c0,.18.05.22.16.24v.02c0,.08-.1.19-.18.19-.16,0-.25-.11-.27-.27-.12.13-.24.19-.32.22-.08.03-.16.05-.25.05-.39,0-.57-.25-.57-.63v-.63Z"/>
      <path class="cls-6" d="M95.74,139.47c0-.29-.13-.44-.35-.44-.19,0-.34.12-.43.22v1.13c0,.08-.01.09-.08.1-.09.01-.18.01-.27.01,0-.14.01-.36.01-.7v-.64c0-.14-.02-.21-.07-.24h0c.03-.07.15-.14.22-.14.12,0,.16.19.16.28.16-.16.37-.29.58-.29.45,0,.56.34.56.7v.52c0,.22,0,.38.02.48-.08.01-.19.03-.29.03-.04,0-.06-.02-.06-.06v-.97Z"/>
      <path class="cls-6" d="M97.2,138.97c-.19,0-.33.15-.33.39s.14.38.34.38c.21,0,.32-.18.32-.38s-.1-.38-.33-.38h0ZM96.77,140.75c0,.21.25.32.49.32.29,0,.5-.13.5-.34,0-.12-.06-.22-.27-.25-.11-.02-.25-.02-.34-.02-.08,0-.15.01-.19.04-.1.06-.19.14-.19.25h0ZM97.21,138.77c.09,0,.2.02.29.04.11.03.22.05.32.05s.19-.01.25-.03c0,.02.02.05.02.08,0,.11-.08.17-.21.18-.03,0-.08,0-.11,0,.05.09.06.18.06.27,0,.4-.3.58-.63.58-.08,0-.11,0-.16-.02-.05.04-.11.1-.11.12,0,.06.05.11.22.12.18.01.33.02.47.03.3.03.44.2.44.44,0,.41-.41.67-.88.67s-.72-.24-.72-.5c0-.16.19-.31.36-.4-.12-.05-.23-.16-.23-.3,0-.02,0-.03.03-.04.08-.05.18-.12.23-.19-.19-.08-.31-.26-.31-.49,0-.35.28-.61.66-.61h0Z"/>
      <path class="cls-6" d="M88.91,144.17c-.02.1-.06.19-.12.24-.08.06-.29.12-.55.12-.86,0-1.31-.49-1.31-1.23,0-.77.58-1.26,1.33-1.26.35,0,.63.12.69.19,0,.14-.1.21-.19.18-.11-.06-.3-.11-.51-.11-.51,0-.94.33-.94.98,0,.57.36.99,1.02.99.23,0,.46-.07.57-.12l.02.02Z"/>
      <path class="cls-6" d="M89.99,142.99c-.25,0-.47.22-.47.63,0,.45.23.67.51.67.23,0,.46-.19.46-.64,0-.32-.14-.66-.49-.66h0ZM90.02,142.77c.53,0,.82.36.82.86s-.33.89-.84.89c-.56,0-.84-.41-.84-.86,0-.5.35-.89.85-.89h0Z"/>
      <path class="cls-6" d="M91.27,143.26c0-.24,0-.35-.01-.43.06-.02.22-.04.29-.04.04,0,.05.02.05.24,0,.25,0,.52,0,.77,0,.39.2.44.37.44s.33-.11.39-.19v-1.11c0-.09.01-.11.06-.13.11-.01.2-.02.28-.02,0,.08-.01.35-.01.68v.6c0,.18.05.22.16.24v.02c0,.08-.1.19-.18.19-.16,0-.25-.11-.27-.27-.12.13-.24.19-.32.22-.08.03-.16.05-.25.05-.39,0-.57-.26-.57-.63v-.63Z"/>
      <path class="cls-6" d="M94.42,143.48c0-.29-.13-.44-.35-.44-.19,0-.34.12-.43.22v1.13c0,.08-.01.09-.08.09-.09.01-.18.01-.27.01,0-.14.01-.36.01-.7v-.64c0-.14-.02-.21-.07-.24v-.02c.03-.06.15-.13.22-.13.12,0,.16.19.16.28.16-.16.37-.28.58-.28.44,0,.56.34.56.7v.52c0,.22,0,.38.02.48-.08.01-.19.03-.29.03-.04,0-.06-.02-.06-.06v-.97Z"/>
      <path class="cls-6" d="M96.23,144.19c.02.08,0,.17-.07.23-.08.06-.22.1-.36.1-.34,0-.48-.21-.48-.5v-.97c-.13,0-.19-.05-.19-.09.04-.08.28-.3.34-.34.05-.05.11-.08.2-.1,0,.12-.01.21-.01.29h.6c-.04.2-.12.22-.19.22-.13,0-.15.01-.42.01-.02.38-.02.78,0,.94.02.22.14.28.27.28.11,0,.22-.04.29-.08h.01Z"/>
      <path class="cls-6" d="M96.59,145.17c.13-.16.35-.47.51-.79-.02-.03-.05-.1-.08-.16-.06-.15-.37-1-.54-1.36.07-.04.21-.09.28-.09.05,0,.07.03.08.07.11.28.34.94.43,1.2.15-.35.35-.96.42-1.27.06,0,.16.01.21.04.06.03.07.05.05.14-.11.41-.26.84-.47,1.28-.23.49-.58,1.05-.65,1.05-.09,0-.21-.06-.24-.1v-.02Z"/>
    </g>
  </g>
</svg>