<?xml version="1.0" encoding="UTF-8"?>
<svg id="_圖層_2" data-name="圖層_2" xmlns="http://www.w3.org/2000/svg" xmlns:xlink="http://www.w3.org/1999/xlink" viewBox="0 0 148.27 192.23">
  <defs>
    <style>
      .cls-1 {
        fill: none;
      }

      .cls-2 {
        fill: #a6abab;
      }

      .cls-3 {
        clip-path: url(#clippath-1);
      }

      .cls-4 {
        clip-path: url(#clippath-2);
      }

      .cls-5 {
        fill: #7d7d7d;
      }

      .cls-6 {
        fill: #fff;
      }

      .cls-7 {
        clip-path: url(#clippath);
      }

      .cls-8 {
        fill: #90a6d5;
      }
    </style>
    <clipPath id="clippath">
      <rect class="cls-1" y="0" width="148.27" height="192.23"/>
    </clipPath>
    <clipPath id="clippath-1">
      <rect class="cls-1" y="0" width="148.27" height="192.23"/>
    </clipPath>
    <clipPath id="clippath-2">
      <rect class="cls-1" y="0" width="148.27" height="192.23"/>
    </clipPath>
  </defs>
  <g id="_圖層_1-2" data-name="圖層_1">
    <g>
      <polygon class="cls-6" points="125.06 54.21 124.79 55.18 123.04 56.48 120.21 56.27 114.51 54.09 113.54 54.8 112.89 56.74 111.35 57.31 110.74 59.53 107.65 61.51 109.06 62.89 106.63 63.47 106.24 64.28 104.65 64.71 104.77 66.36 107.12 67.28 106.95 69.29 104.16 71.21 104.25 72.78 103.02 74.95 104 75.71 104.26 79.01 103.42 79.94 103.22 81.33 102.02 82.81 101.82 84.51 100.27 86 99.98 87.44 101.07 88.21 100.93 89.69 102.08 90.25 101.07 93.49 101.27 94.8 99.74 97.09 96.92 97.69 96.46 100.64 95.53 102.02 93.62 101.66 91.48 102.08 89.66 103.72 91 105.2 88.01 106.47 88.01 108.23 86.85 109.14 86.77 110.55 88.95 111.05 90.61 112.31 89.53 114.1 90.68 114.31 91.3 117.38 94.57 117.7 94.86 118.77 98.97 119.22 99.96 122.62 103.93 124.51 105.82 123.88 106.39 120.43 107.58 119.32 109.67 115.22 108.92 113.94 112.02 110.73 110.92 108.83 110.92 107.33 114.15 105.43 115.8 105.43 116.83 106.96 117.01 106.37 117.95 102.87 117.47 102.05 119.17 97.5 119.43 95.35 120.02 93.38 120.42 90.62 121.81 87.85 121.64 85.63 122.24 84.95 123.66 80.92 123.8 76.98 124.42 75.22 126.07 74.16 126.1 73.33 125.22 72.49 124.34 70.78 124.54 69.54 125.11 68.63 126.9 67.32 127.21 65.22 126.78 64.28 127.75 62.64 130.05 61.31 130.62 60.27 131.52 60.08 132.43 59.02 132.72 57.74 133.37 57.07 125.06 54.21"/>
      <polygon class="cls-6" points="115.41 106.01 114.36 106.01 111.6 107.64 111.6 108.69 112.82 110.81 109.73 114.02 110.42 115.2 108.16 119.64 107.04 120.68 106.45 124.29 103.89 125.15 99.36 123.01 98.42 119.74 94.31 119.29 94.02 118.23 90.72 117.9 90.09 114.79 89.02 114.6 86.02 114.99 84.35 116.74 82.33 117.28 81.81 120.53 79.51 122.29 79.51 123.93 80.14 124.51 79.99 129.07 76.61 131.73 76.66 135.01 77.28 136.65 79.18 137.86 78.15 139.39 78.7 140.43 81.48 141.55 81.14 143.61 80.52 144.22 80.31 146.82 77.68 147.13 76.02 147.88 75.12 147.88 74.06 148.93 74.38 149.6 72.33 152.27 71.22 156.11 72.87 159.1 72.02 160.79 74.38 163.65 73.04 164.46 71.63 164.86 71.59 166.43 72.61 167.06 74.41 167.57 74.23 169.26 73.8 169.63 74.76 171.04 75.02 172.33 76.44 172.56 78.15 174.06 80.14 174.06 80.21 168.47 81.58 165.5 83.57 161.21 85.53 155.65 86.98 154.32 87.49 153.65 87.6 152.34 88.05 151.04 89.76 149.45 94.24 147.08 96.52 145.68 97.82 143.87 98.76 142.54 98.81 141.52 98.42 140.44 98.36 139.88 98.76 139.23 101.99 137.61 104.35 133.77 106.05 132.42 106.51 130.85 107.7 128.95 108.55 126.22 109.58 125.42 111.39 124.89 111.62 121.65 111.19 120.42 111.19 119.53 112.3 118.25 112.3 117.77 112.53 116.56 113.95 113.92 114.88 113.3 115.25 111.97 116.58 107.76 115.41 106.01"/>
      <polygon class="cls-6" points="34.16 100.67 34.09 101.91 36.77 101.47 38.37 101.97 40.59 101.71 41.03 101.34 40.19 100.37 42.36 98.86 43.19 100.23 46.36 98.27 46.71 97.3 49.31 96.19 50.73 95.16 52.53 95.71 55.22 94.62 57.19 94.62 58.48 96.61 60.58 97.29 64.62 97.38 67.01 98.56 70.27 98.16 69.82 95.81 67.69 96.54 64.33 94.93 64.96 92.67 64.71 89.84 65.62 88.9 65.91 87.99 65.01 86.47 57.03 86.11 53.7 84.43 48.41 84.15 44.91 84.68 40.33 84.03 38.56 85.84 37.03 88.65 36.78 91.69 35.89 91.16 34.99 92.07 33.54 95.55 33.57 97.94 34.16 100.67"/>
      <path class="cls-6" d="M59.69,111.74l-1.27,2.08,1.12,2.9-1.23.62,1.26.83h1.76l.93-.96,2.6.29-1.18-3.39,1.4-.91,1.98,1.26,2.92-1.09,1.89-2.45,1.7.09,2.55-1.98,1.46-2.78,1.93-.04,2.23-1.62-.85-.49-2.68.64-2.29-.39.05-2.6-1.77-2.88.47-1.19-1.44-1.01-2.6-.21.42,2.19-4.19.51-2.44-1.2-3.98-.08-2.44-.8-1.22-1.86h-1.41l-2.81,1.13-1.68-.53-1.19.86-2.42,1.03-.33.92-3.99,2.48-.81-1.34-1.02.71.8.93-1.01.86-2.6.31-1.57-.49-2.4.39.69.84-.71.46.06.41.51,1.35-.77.55v1.76l.66.63-.15.37h-.94l-.23,1.35-.17,2.38,1.34-.1,2.34,1.45,1.41.03,2.93-1.98.74-1.45,5.24-2.93h.09l6.29-.29,3.35.83-.41,1.49,3.08,2.12ZM56.35,105.45l-1.57-.47-.8,1.25-1.12-.19-1-1.21-1.96-.04-.89-2.67,2.49-.32.65-.98,2.44.05.82,1.44,1.76.93.74.86-1.56,1.35Z"/>
      <polygon class="cls-6" points="34.81 132.2 35.95 135.27 36.09 135.81 39.37 135.38 40.7 136.08 43.56 136.05 45.02 136.46 47.7 136.54 49.85 135.15 50.88 135.04 53.98 130.5 56.72 128.99 57.85 126.8 59.24 127.02 60.96 125.48 64 120.64 64.78 119.86 64.97 118.09 62.54 117.82 61.64 118.75 59.34 118.75 57.12 117.28 58.71 116.44 57.68 113.75 58.83 111.88 55.84 109.86 56.2 108.55 53.57 107.9 47.48 108.18 42.57 110.93 41.85 112.35 38.6 114.56 36.72 114.51 34.42 113.08 33.06 113.18 32.35 114.1 32.29 115.23 31.69 116.41 32.71 118.1 31.07 118.37 30.78 119.55 29.7 121.17 29.87 122.3 30.87 123.73 29.42 124.55 29.25 127.45 30.38 127.35 29.02 128.27 29.19 128.58 30.64 129.06 32.12 130.15 34.81 132.2"/>
      <path class="cls-6" d="M116.52,16.82l-.96-1.49,1.59-1.41.14-1.37-1.15-.69-1.3-.3-.25-1.66,1.79-2.15,1.69-.27.48-1.36,1.21-.14.54-1.24,2.1,1.12-.2,1.43,1.41.87.24,1.15-.42,1.2.74.2.82,1.36-.37,1.49,1.53,1.66-.7.74-1.74.48-.14,1.59,1.04.85-2.5.99-1.75-.48-.52-1.43-1.17-1.04-.24-.74-.61.82-1.29-.16ZM118.52,0l-3.15,2.1-1.3.24-.77,2.03-.91.6-.65,2.41-1.54,1.12-3.15,1.08-1.99.22-.77.06.65.71,2.76,2.04,3.21,1.24.48,2.47-1.88,2.37-2.38.34.12,3.72,1.45.89-.22,2.28,4.4.41,1.25,2.06-.99,2.35.21,2.02,2.41,1.16.03,1.53,1.32.04,2.89-1.86,2.09-.75.07-3.11,2.18-2.01,4.02-.81,1.49-1.88,3.53-.34,1.39-2.44,2.39-.38-.21-1.35.74-.81.24-.82,2.55-.15,3.59-1.98,2.2,1.06,2.01-1.67-.99-.48-3.41-.53-.09-1.12-.45-.74-.26-3.69-2.21.26-3.27-.4-1.79.64-.7.44-.83.09-1.3.75.52,1.84-1.42,1.05-1.08-.03-3.35-.97-.3-.93-1.09-.31-.72-2.04-1.01-.72,1.08-1.11h1.98l1.93-1.64.35-1.28-.06-1.04-1.97,1.04-1.93-1.62-.25-1.35-1.16-1.23-1.78-1.06h-4.2Z"/>
      <polygon class="cls-6" points="144.09 17.49 140.7 19.35 138.47 19.48 138.31 20.02 137.66 20.73 137.92 22.38 135.21 22.83 133.81 25.3 130.23 25.64 128.78 27.49 124.7 28.31 122.83 30.03 122.76 33.3 120.34 34.15 117.32 36.05 115.54 36 114.26 36.62 113.91 38.46 111.91 40.35 112.35 41.57 111.41 41.84 111.48 44.11 110.67 44.41 109.89 45.45 107.73 46.86 106.26 48.75 106.28 49.19 107.27 49.75 107.41 51.27 109.87 52.57 112.94 52.06 114.65 53.51 120.38 55.7 122.81 55.88 124.18 54.87 124.58 53.42 133.83 56.6 134.02 56.41 134.02 54.6 134.51 53.68 134.84 52.42 135.05 50.35 136.61 48.49 136.89 47.96 139.05 46.51 138.05 45.42 138.14 44.5 140.07 43.9 139.98 42.16 140.04 39.31 138.96 38.54 137.17 33.61 137.4 32.82 136.8 31.35 136.83 28.81 137.37 26.27 137.8 24.75 139.96 22.58 140.44 21.98 143.51 18.93 145.58 18.21 144.09 17.49"/>
      <polygon class="cls-6" points="82.48 32.57 82.58 33.84 83.06 33.9 83.3 32.87 85.29 30.59 87.15 29.88 88.35 29.97 88.59 28.85 87.11 27.74 84.82 27.51 84.73 27.38 83.11 25.04 83.02 25.55 81.46 26.71 81.55 28.06 81.04 29.97 79.95 31.67 82.48 32.57"/>
      <polygon class="cls-6" points="58.48 65.2 59.61 67 64.34 69.16 65.01 71.92 67.54 72.56 68.07 73.71 70.49 73.36 71.48 73.88 74.06 73.11 75.04 70.37 76.76 70.09 76.85 68.15 77.95 66.7 79.94 67.72 80.06 68.07 80.79 67.38 81.95 67.94 84.29 66.49 85.57 67.24 86.76 66.69 87.43 64.78 90.48 64.9 92.55 62.89 96.14 61.88 96.94 60.71 98.81 61.17 101.49 60.86 102.96 59.7 103.96 60.6 106.72 60.6 107.21 61.07 110.13 59.19 110.77 56.9 112.32 56.32 112.94 54.47 113.95 53.74 112.71 52.69 109.74 53.18 106.75 51.61 106.62 50.07 105.62 49.51 105.6 49.15 104.1 49.87 102.46 49.79 101.92 50.43 101.72 52.47 100.19 52.87 99.23 52.02 90.3 57.75 88.86 57.35 87.66 55.79 84.38 55.14 82.82 55.34 82.17 57.2 80.97 57.93 77.12 57.89 74.69 56.31 72.74 56.1 71.46 55.1 66.74 51.96 64.13 48.5 61.16 51.96 60.77 53.05 59.15 55.56 58.75 57.3 57.76 57.86 57.39 59.74 55.6 62.26 58.48 65.2"/>
      <polygon class="cls-6" points="67.25 51.56 71.9 54.66 73.04 55.55 74.95 55.76 77.35 57.31 80.75 57.35 81.58 56.84 82.29 54.83 84.4 54.55 88.08 55.29 89.3 56.86 90.17 57.11 99.31 51.25 100.39 52.21 101.08 52.03 101.26 50.22 101.96 49.4 101.93 48.25 99.85 45.43 94.52 45.32 93.1 46.05 91.22 46.12 90.63 44.43 91.4 43.63 89.89 42.79 91.78 41.51 91.54 39.46 90.86 38.92 88.18 38.08 87.76 37.04 86.38 36.88 85.3 35.33 84.99 34.07 84.35 34.17 83.61 34.54 83.61 34.54 81.95 34.35 81.84 32.97 78.99 31.96 77.97 33.25 77.8 35.69 77.8 36.15 77.18 36.17 76.33 36.27 76.35 35.81 73.71 35.96 72.04 37.14 72.01 39.05 69.54 39.12 68.46 40.64 68.26 41.44 67.49 42.74 67.16 44.12 66.36 45.95 65.68 46.75 65.34 47.45 64.62 48.07 67.25 51.56"/>
      <g class="cls-7">
        <path class="cls-6" d="M106.12,62.99l1.73-.41-1.43-1.42h-2.74l-.74-.66-1.14.89-3.03.35-1.51-.37-.65.97-3.66,1.06-2.18,2.1-2.85-.12-.59,1.7-1.8.84-1.23-.73-2.3,1.43-1.07-.51-1.2,1.12-.37-1.13-1.19-.61-.64.85-.11,2.25-1.86.3-.96,2.68-3.22.96-1.04-.55-2.71.39-.02-.04-2.23-.13.52,1.49-.95,1.7-.37,3.94-.8.83,1.04,1.92,2.5.32,1.12,1.02-2.08,1.15-.57-.03.84,1.43-.37,1.23-.83.86.23,2.68-.56,1.9,2.63,1.27,2.6-.91.17.87,2.96.24s.04.01.06.02l1.92,1.35-.51,1.35,1.71,2.79-.05,2.26,1.58.27,2.83-.67,1.42.82,3.45.37,1.84,1.29,2.23-.95-1.18-1.31,2.35-2.14,2.49-.48,1.57.29.62-.92.5-3.22,2.98-.64,1.28-1.9-.19-1.24.92-2.92-1.07-.51.15-1.55-1.12-.79.39-1.93,1.54-1.49.19-1.67,1.21-1.49.19-1.41.8-.88-.22-2.86-1.14-.85,1.38-2.43-.1-1.72,2.82-1.95.12-1.36-2.29-.89-.17-2.45,1.79-.48.39-.83Z"/>
      </g>
      <polygon class="cls-6" points="116.43 11.32 118 12.26 117.8 14.17 116.4 15.42 116.96 16.29 117.47 16.35 118.66 14.71 119.28 16.61 120.43 17.62 120.9 18.9 122.07 19.21 123.42 18.67 122.87 18.22 123.07 15.97 125.05 15.43 125.28 15.2 123.89 13.69 124.26 12.14 123.68 11.17 122.57 10.87 123.14 9.25 122.98 8.47 121.47 7.54 121.66 6.14 120.64 5.61 120.25 6.51 119.07 6.65 118.61 7.97 116.78 8.26 115.3 10.05 115.46 11.1 116.43 11.32"/>
      <polygon class="cls-6" points="129.92 7.03 127.88 8.77 125.94 8.77 125.49 9.23 126.14 9.7 126.82 11.61 127.92 11.89 128.22 12.83 131.12 13.67 131.84 13.69 132.74 13.03 132.2 11.15 134.03 10.09 134.85 10.01 135.48 9.64 136.44 9.29 133.57 7.66 132.06 8.84 131.95 8.04 131.35 7.56 130.16 7.27 129.92 7.03"/>
      <polygon class="cls-6" points="54.89 102.72 54.17 101.44 52.54 101.41 51.94 102.32 49.88 102.59 50.43 104.2 52.24 104.24 53.28 105.5 53.62 105.56 54.46 104.26 56.17 104.77 57.03 104.05 56.71 103.68 54.89 102.72"/>
      <polygon class="cls-6" points="91.05 20.37 91.28 22.53 94.01 22.69 94.95 23.8 97.32 24.05 96.68 26.02 100.57 28.02 102.69 28.05 104.31 30.28 105.92 30.31 105.55 32.06 106.33 32.77 105.89 34.21 107.99 35 109.15 36.85 109.21 39.18 109.77 40.04 111.37 40 113.27 38.2 113.65 36.26 115.11 35.54 115.08 34.24 112.7 33.09 112.45 30.64 113.39 28.41 112.44 26.85 107.74 26.42 107.99 23.9 106.58 23.03 106.43 18.54 109.1 18.16 110.67 16.18 110.29 14.24 107.33 13.1 104.44 10.96 103.49 9.93 101.34 10.09 95.46 12.51 92.48 13.38 89.07 15.07 88.02 16.69 87.46 18.67 85.83 20.26 91.05 20.37"/>
      <g class="cls-3">
        <path class="cls-6" d="M85.23,26.96l2.16.22,1.95,1.44-.42,1.97-1.65-.13-1.53.59-1.78,2.06-.16.67.32-.16,1.41-.23.41,1.73.85,1.22,1.49.17.45,1.12,2.5.79.97.77.3,2.58-1.44.98,1.35.74-1.02,1.06.34.96,1.18-.04,1.44-.74,5.9.11,2.37,3.22.03,1.14,1.32.07,1.73-.83,1.55-1.99,2.16-1.41.82-1.12.58-.21-.07-2.3.79-.23-.23-.62-1.91.06-.84-1.29-.07-2.35-.97-1.54-2.41-.91.49-1.61-.74-.69.29-1.36-1.18-.02-1.62-2.23-1.93-.03-4.48-2.3.56-1.76-1.91-.19-.93-1.09-2.97-.17-.23-2.14-5.13-.11-.11,1.61-1.27.31-.56,1.49c.62.88,1.3,1.89,1.88,2.73"/>
      </g>
      <polygon class="cls-6" points="50.81 158 52.84 154.15 51.7 152.58 52.41 149.48 53.22 147.39 53.22 142.82 54.54 139.33 59.28 140.21 61.43 138.92 63.01 137.06 66.34 137.33 67.31 138.27 68.8 137.15 70.65 137.24 73 138.77 73.72 139.76 75.19 138.4 76.71 138.25 77.67 138.93 78.29 138.01 76.7 137.01 75.98 135.11 75.93 131.48 79.32 128.81 79.46 124.73 78.83 124.16 78.83 122.03 81.17 120.25 81.71 116.84 83.95 116.24 85.66 114.45 88.81 114.04 89.77 112.44 88.62 111.57 86.06 110.99 86.18 108.87 87.34 107.97 87.34 106.43 85.6 105.21 82.42 104.87 79.78 106.78 78.04 106.82 76.7 109.38 73.83 111.6 72.24 111.52 70.46 113.84 67 115.13 65.11 113.93 64.49 114.33 65.67 117.74 65.69 117.74 65.68 117.78 65.83 118.19 65.64 118.16 65.44 120.09 64.57 120.96 61.52 125.82 59.48 127.65 58.26 127.45 57.26 129.38 54.49 130.91 51.31 135.57 50.12 135.71 47.92 137.12 44.9 137.03 43.45 136.63 40.51 136.67 39.23 135.98 36.24 136.37 36.43 137.08 37.49 140.13 39.44 144.52 41.6 147.46 40.75 149.61 40.52 151.01 42.17 153.93 47.34 159.03 49.35 159.08 50.63 159.7 50.81 158"/>
      <polygon class="cls-6" points="61.92 139.34 59.43 140.84 55 140 53.9 142.91 53.9 147.48 53.07 149.64 52.42 152.47 53.6 154.11 51.48 158.15 51.28 160.02 52.62 160.67 52.79 161.91 53.64 162.82 60.63 165.94 61.28 166.68 61.82 167.87 62.64 168.45 64.35 170.14 64.85 171.95 65.2 173.23 65.62 173.52 66.78 174.87 67.07 175.93 68.18 179.46 68.38 179.97 68.55 181.08 67.98 184.07 67.32 185.18 67.35 186.61 68.72 188.18 68.8 191.03 70.36 191.82 70.9 191.39 71.02 190.3 72.1 189.6 77.8 192.23 78.23 192.23 77.12 189.91 77.12 188.3 79.79 186.01 80.1 185.3 80.02 182.11 80.12 174.64 77.87 174.64 76.1 173.1 74.43 172.83 74.11 171.24 72.95 169.53 73.58 169 73.68 167.97 72.3 167.58 70.9 166.72 70.96 164.44 72.73 163.94 73.43 163.51 71.24 160.86 72.13 159.11 70.5 156.17 71.7 152.04 73.62 149.54 73.27 148.81 74.81 147.3 75.85 147.3 77.47 146.57 79.67 146.32 79.85 143.99 80.49 143.36 80.73 141.89 78.19 140.87 77.49 139.56 76.5 138.85 75.52 138.95 73.61 140.72 72.49 139.16 70.4 137.81 69.05 137.74 67.25 139.08 66 137.89 63.34 137.66 61.92 139.34"/>
      <polygon class="cls-6" points="55.23 62.78 55.45 62.99 55.23 62.78 55.23 62.78"/>
      <polygon class="cls-6" points="40.87 83.52 44.9 84.1 48.37 83.57 53.9 83.86 57.24 85.54 66.17 85.95 67.38 85.28 66.97 84.91 64.34 84.57 62.97 82.04 63.91 81.07 64.29 77.21 65.18 75.61 64.45 73.55 67.35 73.72 67.03 73.04 64.43 72.37 63.74 69.54 59.1 67.42 57.91 65.52 55.78 63.34 55.03 63.41 52.67 65.71 51.99 67.42 51.91 68.7 50.15 70.78 47.73 72.47 45.15 76.84 42.77 81.06 41.52 82 41.57 82.9 40.87 83.52"/>
      <polygon class="cls-6" points="115.11 176.61 114.33 176.19 114.72 175.77 116.23 176 121.34 175.77 121.34 176.19 121.21 176.81 121.68 177.85 121.54 178.22 121.01 178.44 120.96 179.03 121.05 179.69 124.32 181.64 123.45 183.24 121.46 183.12 119.64 181.16 117.93 181.07 115.2 178.99 115.11 176.61"/>
      <polygon class="cls-6" points="110.37 149.71 110.37 149.19 112.21 148.94 114.55 149.71 114.74 150.92 113.74 152.06 113.87 152.7 113.53 152.8 112.37 152.09 111.19 151.44 110.86 150.01 110.37 149.71"/>
      <g class="cls-4">
        <path class="cls-6" d="M15.65,119.69c-.38-.4-.58-.94-.58-1.49,0-.92.16-1.66-.41-1.97-.33-.18-.7-.3-1.07-.33-.11-.26-.37-.44-.65-.43-.46.03-.2.37-.77.44s-.51.03-.82-.31-.61-.28-.87-.43c-.26-.15.51-.37-.33-.51-.41-.1-.84-.1-1.25,0l-.14.43s-.03,0,.37.56c.4.56.44,1.25.37,1.25-.41-.04-.81-.06-1.22-.05-.49.03-.84.11-.92.29-.11.33-.19.67-.26,1.02.05.34-.12.67-.43.82-.54.37-1,.77-.97.84.42.65.93,1.23,1.51,1.74.56.37,1.61.97,1.61.97.58-.33,1.13-.72,1.64-1.15.37-.4.69-1.79,1.35-1.99.66-.2,1.05-.54,1.49-.25.63.3,1.28.54,1.94.71.14.06.42-.15.42-.15"/>
        <path class="cls-6" d="M14.05,112.05c.44-.05.51.72.51.72.05.24-.11.46-.34.51-.06.01-.11.01-.17,0-.52-.03-1.04-.03-1.56,0,0,0-.15.74-.37.69-.22-.05-.59-.03-.79-.2-.2-.18-.03-.67.18-.94s.44-.9.9-.95c.55.01,1.11.07,1.65.18"/>
        <path class="cls-6" d="M8.7,111.13c.69.06,1.25-.15,1.56.44.27.49.37,1.06.28,1.61-.1.3-.23.59-.71.37-.46-.26-.98-.39-1.51-.37-.49.07-1-.02-1.43-.26-.27-.15-.56-.25-.87-.28-.26-.07-.14-.71.28-1,.42-.28.87-.65,2.41-.51"/>
        <path class="cls-6" d="M4.01,112.72c.95.23.51.53,1.25.59.74.05.83.16.63.66s-.68.92-1.04,1.53c-.36.61-.62.49-.62,1.44s.23,1.49-.37,1.97c-.6.48-.9.64-1.69.51-.79-.13-1.35.06-1.82.04s-.37-.91-.28-1.17c.09-.26.41-.41,1.1-.66.69-.26,1.2-.64,1.18-1.02s-.2-.54-.15-.89c.08-.27.14-.54.18-.82.1-.74,0-1.38.28-1.64.28-.26.75-.69,1.35-.55"/>
        <path class="cls-6" d="M4.15,121.81c.53,0,1.05.14,1.51.41.44.26.74.41.64.85-.11.44-.25.69-.64.59-.38-.1-.81-.28-1.11-.18-.27.12-.57.19-.87.2-.37,0-.91-.37-.68-.71.24-.34.49-1.19,1.15-1.15"/>
        <path class="cls-6" d="M5.66,135.95c1,.24.97.24.92,1.02-.05.78-.51,1.18-1.18.98-.67-.2-.72-.32-1.18-.98-.46-.65.56-1.22,1.43-1.02"/>
        <path class="cls-6" d="M13.02,137.58c-.12,1.03-.16,1.49.46,1.49s.41,0,1.02-.79c.61-.79,1.12-1.89.51-1.84-.6.05-.11.82-.9.87-.79.05-1.01-.45-1.09.27"/>
        <path class="cls-6" d="M25.95,37.77c.72,0,.51-.67,1.33-.67s1.44-.15,1.74-.87c.3-.71-.26-1.07-1.23-1.07s-.82.81-1.38.86c-.56.05-1.07.2-1.12.82-.07.43.23.84.66.92"/>
        <path class="cls-6" d="M25.64,38.33c.6.07.26.77.26,1.58s-.15,1.18.41,1.18.31.31,0,.57-1.43-.09-1.43.57c0,.65-.56,1.27,0,1.37.32.06.65.06.97,0,0,0,0,.1-.56.56s-.44.46-.65,1.23c-.22.77-.04,1.38,0,2.15.04.77.82,1.75.25,1.75s-.92.47-1.49,0-1.23-.42-1.94-.42-1.12,0-.92-.37,1.02-.66,1.12-1.49c.09-.83.31-1.23.1-1.89-.2-.66-.77-1.21-.41-1.22.46.05.92.05,1.38,0,.61-.11,1.18-.72,1.18-1.18s-.28-.87-.35-1.64-.55-1.33,0-1.58c.55-.26,1.02.05,1.32-.37s-.04-.88.77-.78"/>
        <path class="cls-8" d="M76.16,119.12s.28.61-.19.87c-.47.26-.8-.15-1.08.77-.28.92-.28-.2-.28,1.28s.14,1.53-.33,2.6c-.47,1.07-.14,1.22-.98,2.23-.85,1.01-1.08.05-1.08,1.28s.05,2.86.94,3.68c.89.82.89,1.08,1.49,1.38.36.2.53.62.42,1.02,0,0,.37,2.4.05,3.33-.32.92-.94,1.89-1.08,2.35-.09.59-.12,1.19-.09,1.79,0,0,.37,1.38.14,1.63-.23.25-.71.16-1.46.97-.54.64-1.02,1.32-1.45,2.04-.37.51-.05.05-1.22.05s-.74-.1-2.02-.41c-1.27-.31-1.49-.2-2.49-.31-1-.1-1.69.56-2.02-.1-.33-.67.19-.71-.28-1.43-.32-.52-.59-1.06-.8-1.63.09-.34.39-.58.74-.61.8-.11,1.55-.49,2.11-1.08.64-.71,1.21-1.48,1.69-2.3,0,0,.56-.16.56-1.54.01-.91.12-1.82.33-2.71,0,0,1.26-.46,1.49-.92.23-.46-.15-1.23,0-2.45.14-1.23-.24-3.37,0-4.14s.94-.46,1.27-1.08c.33-.61.37-2.45.37-2.45,0,0-.52-2.04-.05-2.5s1.46-.77,1.86-1.08c.35-.23.72-.42,1.12-.56l2.32.02Z"/>
        <path class="cls-2" d="M98.78,137.98s.03-.09.05-.13c0-.09-.02-.18-.05-.26v.39Z"/>
        <path class="cls-6" d="M51.79,170.05c1.12,0,.61.61.61,1.12s.05,1.33-.61,1.33-1.69-.2-2.66-.16.1-.77.92-1.07c.82-.31-.11-.82.58-1.02.38-.12.77-.18,1.16-.2"/>
        <path class="cls-8" d="M16.46,74.12v-2.07c0-.2.07-.23.22-.25.22-.02.66-.03.94-.04-.02.34-.03.88-.03,1.63v2.91c0,.63.02.93.03,1.11-.18.05-.76.07-.96.07-.13,0-.19-.03-.19-.17v-2.47c-.18.02-.48.03-1.03.03h-1.38v2.33c0,.19-.07.23-.28.24-.24.03-.68.05-.87.04.02-.36.03-.89.03-1.65v-2.84c0-.61,0-.98-.03-1.15.23-.05.77-.07.96-.07.16,0,.19.08.19.49v1.87h2.4Z"/>
        <path class="cls-8" d="M20.4,73.98c-.33,0-.69.32-.73.99.37.03,1.06.02,1.28,0,.06,0,.12-.09.12-.19,0-.44-.2-.8-.66-.8h0ZM21.91,76.53c0,.4-.32.77-.47.84-.14.06-.52.16-.84.16-1.32,0-2.03-.72-2.03-2.04,0-1.09.71-2.13,1.93-2.13,1.14,0,1.59.83,1.59,1.55,0,.13,0,.23-.03.3-.03.13-.39.26-.76.35-.22.05-1.16.06-1.66.05.05.79.62,1.12,1.23,1.12.43,0,.86-.13,1.01-.21l.02.02Z"/>
        <path class="cls-8" d="M22.72,73.82c.07-.21.41-.47.66-.47.4,0,.56.38.57.94.26-.61.64-.94,1.12-.94.17,0,.34.08.42.15.05.1.04.36-.06.53-.03.19-.22.4-.35.42-.18-.07-.28-.09-.43-.09-.14,0-.41.11-.55.49-.05.14-.08.24-.08.44v1.88c0,.15-.02.22-.2.25-.31.04-.59.05-.92.05.02-.48.03-1.03.03-1.64v-1.52c0-.21-.05-.37-.21-.46v-.04Z"/>
        <path class="cls-8" d="M27.61,73.98c-.33,0-.69.32-.73.99.37.03,1.06.02,1.28,0,.06,0,.12-.09.12-.19,0-.44-.2-.8-.66-.8h0ZM29.12,76.53c0,.4-.32.77-.47.84-.14.06-.52.16-.84.16-1.31,0-2.03-.72-2.03-2.04,0-1.09.71-2.13,1.93-2.13,1.14,0,1.58.83,1.59,1.55,0,.13,0,.23-.03.3-.03.13-.39.26-.76.35-.23.05-1.16.06-1.66.05.05.79.62,1.12,1.23,1.12.43,0,.86-.13,1.01-.21l.02.02Z"/>
        <path class="cls-8" d="M31.01,71.96c.14,0,.19.02.19.24,0,.53-.22,2.67-.27,3.05-.03.16-.13.2-.21.23-.22.05-.4.1-.45.1-.05-.38-.27-2.82-.28-3.39.04-.1.72-.23,1.01-.23h0ZM30.59,76.23c.35,0,.59.29.59.63,0,.4-.25.66-.66.66-.29,0-.61-.2-.61-.63,0-.36.23-.66.68-.66h0Z"/>
        <path class="cls-5" d="M58.37,155.22v.19c0,.1-.01.2-.02.29h.69v-.48h-.67ZM58.31,155.94c-.04.14-.08.26-.14.36-.12.21-.32.37-.6.49l-.14-.23c.26-.11.43-.25.53-.43.03-.06.05-.13.07-.19h-.64v-.24h.69c.01-.09.02-.19.02-.29v-.19h-.58v-.24h.58c-.07-.12-.14-.22-.2-.32l.22-.1c.09.13.17.27.25.42h.56c.1-.14.2-.28.28-.44l.25.09c-.08.13-.16.25-.25.36h.59v.24h-.52v.48h.66v.24h-.66v.81h-.25v-.81h-.73ZM57.33,154.21h2.18v-.37h-2.18v.37ZM57.33,154.8c0,.76-.13,1.42-.39,1.97l-.22-.19c.24-.46.36-1.05.36-1.78v-1.2h2.69v.86h-2.43v.34Z"/>
        <path class="cls-5" d="M62.09,155.45h.9v-.33h-.9v.33ZM62.99,154.59h-.9v.33h.9v-.33ZM60.93,155.45h.91v-.33h-.91v.33ZM61.84,154.59h-.91v.33h.91v-.33ZM61.84,153.79v-.33h.25v.33h1.44v.25h-1.44v.33h1.16v1.33h-.9c.27.32.69.56,1.26.74l-.11.24c-.65-.25-1.1-.58-1.37-.98h-.02v1.11h-.25v-1.11h-.03c-.23.39-.67.72-1.33,1l-.14-.23c.61-.23,1.03-.48,1.25-.77h-.91v-1.33h1.16v-.33h-1.44v-.25h1.44Z"/>
        <path class="cls-5" d="M67.23,156.45l-.19.13c-.09-.21-.22-.44-.38-.69l.19-.12c.17.26.29.48.38.68M66.03,156.72l-.06-.23c.07,0,.15.01.21.01s.1-.04.1-.12v-.83c-.18.02-.37.03-.56.04l-.05-.21.09-.02c.17-.09.37-.27.6-.52-.2.02-.41.04-.62.05l-.05-.2.09-.02c.18-.12.43-.4.75-.86l.23.09c-.26.35-.49.61-.69.78.16-.01.32-.03.47-.05.1-.12.2-.24.31-.38l.23.09c-.38.46-.71.8-.99,1.03.24-.02.48-.05.71-.08-.04-.09-.09-.17-.13-.25l.2-.09c.11.19.22.41.31.64l-.2.1-.08-.2c-.13.01-.26.03-.39.04v.91c0,.18-.09.27-.25.27h-.24ZM66.54,153.49c-.27.38-.55.67-.86.87l-.16-.18c.3-.19.56-.44.76-.75l.25.06ZM66.09,155.89c-.11.27-.24.5-.4.7l-.19-.13c.15-.19.28-.41.39-.67l.2.1ZM65.49,156.3l-.2.09c-.06-.23-.13-.44-.2-.62l.2-.07c.08.18.14.38.2.59M65.16,155.11h-.73v.23h.73v-.23ZM65.16,154.68h-.73v.25h.73v-.25ZM65.16,154.25h-.73v.24h.73v-.24ZM65.16,153.82h-.73v.24h.73v-.24ZM65.4,155.34h.19v.23h-.67v1.15h-.24v-1.15h-.65v-.23h.18v-1.74h1.2v1.74ZM64.48,155.76c-.08.33-.2.62-.35.87l-.19-.13c.15-.24.26-.5.33-.78l.21.04Z"/>
        <path class="cls-5" d="M50.02,158.5c0-.18,0-.32-.01-.49.09-.02.32-.04.54-.04.51,0,.88.2.88.71,0,.47-.39.7-.68.7-.09,0-.16-.01-.2-.04-.04-.02-.09-.11-.08-.19.04.02.13.02.18.02.17,0,.44-.09.44-.49s-.31-.49-.53-.49c-.07,0-.13,0-.19.01v1.6c0,.25,0,.36.01.43-.05.02-.2.03-.28.03-.04,0-.06-.01-.06-.07v-1.7Z"/>
        <path class="cls-5" d="M52.12,160.16c0,.07-.02.08-.08.09-.05.01-.14.01-.25.02,0-.14.01-.35.01-.57v-.61c0-.22,0-.33-.01-.41.06-.02.22-.04.28-.04.04,0,.05.02.05.22v1.29ZM51.96,157.88c.1,0,.17.07.17.18s-.07.19-.18.19c-.1,0-.18-.06-.18-.18,0-.13.1-.19.18-.19h0Z"/>
        <path class="cls-5" d="M53.72,159.3c0-.27-.12-.41-.34-.41-.18,0-.32.11-.41.21v1.07c0,.07-.01.08-.07.09-.08.01-.17.01-.25.01,0-.13.01-.35.01-.66v-.61c0-.13-.02-.19-.06-.23v-.02c.03-.05.14-.12.21-.12.11,0,.15.18.15.27.15-.15.35-.27.55-.27.42,0,.53.32.53.66v.49c0,.21,0,.36.01.45-.08.01-.18.03-.28.03-.04,0-.06-.02-.06-.05v-.92Z"/>
        <path class="cls-5" d="M55.1,158.82c-.18,0-.31.14-.31.37s.13.36.32.36c.2,0,.31-.17.31-.36s-.09-.36-.31-.36h0ZM54.69,160.51c0,.2.24.3.47.3.27,0,.47-.13.47-.32,0-.11-.05-.21-.26-.24-.11-.02-.23-.02-.32-.02-.08,0-.14.01-.18.04-.09.05-.18.14-.18.24h0ZM55.11,158.63c.09,0,.19.02.28.04.1.03.21.05.3.05s.18-.01.24-.03c0,.02.01.05.01.07,0,.11-.07.16-.2.17-.03,0-.07,0-.1,0,.05.09.06.17.06.25,0,.38-.28.55-.6.55-.08,0-.1,0-.15-.02-.04.04-.1.09-.1.11,0,.06.05.1.21.11.17.01.31.02.44.03.29.03.42.2.42.42,0,.38-.39.64-.83.64s-.68-.23-.68-.48c0-.15.18-.29.34-.38-.12-.05-.22-.15-.22-.28,0-.02,0-.03.03-.04.07-.05.17-.12.22-.18-.18-.08-.3-.25-.3-.47,0-.33.27-.58.63-.58h0Z"/>
        <path class="cls-5" d="M57.17,159.98c.02.07,0,.16-.07.21-.07.06-.21.1-.34.1-.32,0-.45-.2-.45-.48v-.91c-.13,0-.18-.04-.18-.08.04-.07.27-.28.32-.33.05-.04.11-.08.19-.09,0,.11-.02.2-.02.28h.57c-.04.19-.11.2-.18.21-.12,0-.14.01-.4.01-.02.36-.02.73,0,.89.02.21.13.26.26.26.11,0,.21-.04.27-.08h.01Z"/>
        <path class="cls-5" d="M57.46,159.09c0-.22,0-.33-.02-.41.06-.02.21-.04.28-.04.04,0,.05.02.05.22,0,.24,0,.49,0,.73,0,.37.19.42.35.42.17,0,.31-.11.38-.18v-1.05c0-.09.01-.1.06-.12.1-.01.19-.02.27-.02,0,.08-.01.33-.01.64v.57c0,.17.05.21.15.23v.02c0,.07-.09.18-.17.18-.15,0-.24-.1-.26-.26-.11.12-.23.18-.3.21-.07.03-.15.05-.23.05-.37,0-.54-.24-.54-.6v-.6Z"/>
        <path class="cls-5" d="M60.45,159.3c0-.27-.12-.41-.34-.41-.18,0-.32.11-.41.21v1.07c0,.07-.01.08-.08.09-.08.01-.17.01-.25.01,0-.13.01-.35.01-.66v-.61c0-.13-.02-.19-.06-.23v-.02c.03-.05.14-.12.21-.12.11,0,.15.18.15.27.15-.15.35-.27.55-.27.42,0,.53.32.53.66v.49c0,.21,0,.36.01.45-.08.01-.18.03-.28.03-.04,0-.06-.02-.06-.05v-.92Z"/>
        <path class="cls-5" d="M61.83,158.82c-.18,0-.31.14-.31.37s.13.36.32.36c.2,0,.31-.17.31-.36s-.09-.36-.31-.36h0ZM61.42,160.51c0,.2.24.3.47.3.27,0,.47-.13.47-.32,0-.11-.05-.21-.26-.24-.11-.02-.23-.02-.32-.02-.07,0-.14.01-.18.04-.09.05-.18.14-.18.24h0ZM61.84,158.63c.09,0,.19.02.28.04.1.03.21.05.3.05s.18-.01.24-.03c0,.02.02.05.02.07,0,.11-.07.16-.2.17-.03,0-.08,0-.11,0,.05.09.06.17.06.25,0,.38-.28.55-.6.55-.08,0-.1,0-.15-.02-.04.04-.1.09-.1.11,0,.06.05.1.21.11.17.01.31.02.44.03.29.03.42.2.42.42,0,.38-.39.64-.83.64s-.68-.23-.68-.48c0-.15.18-.29.34-.38-.12-.05-.21-.15-.22-.28,0-.02,0-.03.03-.04.07-.05.17-.12.22-.18-.18-.08-.3-.25-.3-.47,0-.33.27-.58.63-.58h0Z"/>
        <path class="cls-5" d="M65.57,159.95c-.01.1-.05.18-.12.23-.08.05-.27.12-.52.12-.81,0-1.24-.47-1.24-1.16,0-.73.55-1.2,1.26-1.2.33,0,.59.11.65.18,0,.13-.1.2-.18.17-.11-.05-.28-.11-.49-.11-.48,0-.89.31-.89.93,0,.54.34.94.97.94.22,0,.43-.07.54-.11h.01Z"/>
        <path class="cls-5" d="M66.6,158.84c-.23,0-.45.21-.45.59,0,.43.22.64.49.64.21,0,.43-.18.43-.61,0-.31-.13-.63-.47-.63h0ZM66.62,158.63c.5,0,.78.35.78.81s-.31.85-.8.85c-.53,0-.79-.39-.79-.81,0-.48.33-.85.81-.85h0Z"/>
        <path class="cls-5" d="M67.8,159.09c0-.22,0-.33-.02-.41.06-.02.21-.04.28-.04.04,0,.05.02.05.22,0,.24,0,.49,0,.73,0,.37.19.42.35.42.17,0,.31-.11.38-.18v-1.05c0-.09.01-.1.06-.12.1-.01.19-.02.27-.02,0,.08-.01.33-.01.64v.57c0,.17.05.21.15.23v.02c0,.07-.09.18-.17.18-.15,0-.24-.1-.26-.26-.11.12-.23.18-.3.21-.07.03-.15.05-.23.05-.37,0-.54-.24-.54-.6v-.6Z"/>
        <path class="cls-5" d="M70.79,159.3c0-.27-.12-.41-.34-.41-.18,0-.32.11-.41.21v1.07c0,.07-.01.08-.07.09-.08.01-.17.01-.25.01,0-.13.01-.35.01-.66v-.61c0-.13-.02-.19-.07-.23v-.02c.03-.05.14-.12.21-.12.11,0,.15.18.15.27.15-.15.35-.27.55-.27.42,0,.53.32.53.66v.49c0,.21,0,.36.01.45-.08.01-.18.03-.28.03-.04,0-.06-.02-.06-.05v-.92Z"/>
        <path class="cls-5" d="M72.51,159.98c.01.07,0,.16-.07.21-.07.06-.21.1-.34.1-.32,0-.45-.2-.45-.48v-.91c-.13,0-.18-.04-.18-.08.04-.07.27-.28.32-.33.05-.04.11-.08.19-.09,0,.11-.02.2-.02.28h.57c-.04.19-.11.2-.18.21-.12,0-.14.01-.4.01-.02.36-.02.73,0,.89.02.21.13.26.26.26.11,0,.21-.04.27-.08h.01Z"/>
        <path class="cls-5" d="M72.85,160.9c.12-.15.33-.45.48-.74-.02-.03-.05-.09-.08-.15-.05-.14-.35-.95-.51-1.29.07-.04.2-.08.26-.08.05,0,.06.03.08.07.1.26.32.89.41,1.14.14-.33.33-.91.4-1.21.05,0,.15.01.2.04.06.03.07.05.04.13-.11.39-.25.79-.44,1.21-.21.47-.55,1-.62,1-.09,0-.19-.05-.23-.09v-.02Z"/>
        <path class="cls-5" d="M39.12,142.74h-.95v.33h.95v-.33ZM39.35,143.26h-1.41v-.72h1.41v.72ZM39.4,141.37h-1.51v.3h1.51v-.3ZM39.65,141.87h-2.01v-.7h2.01v.7ZM39.35,143.69l-.06-.23h.29c.15.01.22-.05.22-.16v-.98h-2.32v1.39h-.25v-1.61h2.82v1.26c0,.23-.13.34-.4.34h-.3ZM38.81,140.7h1.43v.24h-3.18v-.24h1.48c-.04-.1-.08-.19-.12-.27l.28-.05c.04.1.08.2.12.32"/>
        <path class="cls-5" d="M42.51,143.26h.53v-.55h-.53v.55ZM42.51,142.48h.53v-.49h-.53v.49ZM42.51,141.74h.53v-.49h-.53v.49ZM42.51,143.69h-.24v-2.1c-.08.16-.17.31-.27.46l-.09-.28c.23-.41.4-.86.5-1.34l.24.04c-.04.19-.09.36-.15.54h.6c-.06-.19-.13-.38-.21-.56l.25-.07c.09.22.15.41.19.59l-.1.04h.6v.24h-.55v.49h.46v.24h-.46v.49h.48v.23h-.48v.55h.6v.24h-1.38v.19ZM42.15,143.53l-.22.05c-.02-.1-.04-.2-.06-.3-.36.1-.7.17-1.03.21l-.07-.23s.09-.04.11-.07c.17-.25.39-.75.67-1.52l.23.08c-.27.71-.49,1.2-.65,1.47.23-.04.46-.09.69-.15-.05-.2-.1-.39-.16-.57l.21-.07c.11.32.21.68.29,1.09M41.5,140.44c0,.18-.02.36-.05.52h.59v.23h-.63c-.11.54-.32,1.03-.63,1.47l-.18-.16c.26-.41.45-.85.56-1.31h-.49v-.23h.53c.03-.18.05-.37.06-.55l.23.03Z"/>
        <path class="cls-5" d="M45.74,140.81c-.06-.15-.12-.28-.19-.41l.28-.04c.06.13.11.28.17.45h1.47v.25h-1.46v.47h1.17v1.31c0,.22-.11.33-.33.33h-.36l-.06-.25h.34c.1.01.15-.04.15-.14v-1h-.91v1.91h-.27v-1.91h-.87v1.41h-.26v-1.66h1.12v-.47h-1.46v-.25h1.45Z"/>
        <path class="cls-5" d="M31.66,145.39c0-.24,0-.39-.01-.46.06-.01.23-.03.28-.03.05,0,.06.02.06.17v.95c.29-.3.76-.8,1.08-1.15.05,0,.11,0,.18.02.1.02.1.06.02.15-.22.23-.67.69-.92.95.23.27.79.89,1.08,1.13h0s-.16.06-.28.06c-.07,0-.13-.03-.21-.11-.18-.19-.83-.88-.94-1.02v.65c0,.25,0,.37,0,.44-.05.01-.22.03-.28.03-.05,0-.06-.01-.06-.06v-1.74Z"/>
        <path class="cls-5" d="M33.93,146.76c0,.13.1.21.23.21.15,0,.26-.09.31-.17.02-.03.02-.06.02-.13v-.25c-.3.04-.56.14-.56.34h0ZM35,146.98c0,.16-.08.23-.24.23s-.23-.11-.26-.22c-.09.1-.26.22-.46.22-.25,0-.43-.19-.43-.41,0-.38.49-.49.69-.54.07-.01.14-.03.19-.04v-.09c0-.16-.09-.32-.31-.32-.12,0-.25.06-.35.12-.11.05-.16-.02-.18-.13.11-.1.35-.24.6-.24.37,0,.54.26.54.61,0,.15-.01.49,0,.71,0,.07.05.11.12.11.02,0,.05,0,.08-.01h0Z"/>
        <path class="cls-5" d="M36.01,145.77c-.23,0-.45.21-.45.59,0,.43.22.64.49.64.21,0,.43-.18.43-.61,0-.31-.13-.63-.47-.63h0ZM36.04,145.55c.5,0,.78.35.78.81s-.31.85-.8.85c-.53,0-.79-.39-.79-.81,0-.48.33-.85.81-.85h0Z"/>
        <path class="cls-5" d="M37.55,145.79c.14-.11.32-.24.54-.24.4,0,.53.32.53.67v.49c0,.22,0,.37,0,.46-.07.01-.17.03-.27.03-.04,0-.05-.02-.05-.06v-.89c0-.32-.15-.43-.35-.43-.17,0-.33.11-.4.18v1.1c0,.06-.02.08-.07.09-.09.01-.18.01-.26.01,0-.13.01-.35.01-.66v-1.35c0-.22,0-.33-.01-.4.09-.03.22-.05.28-.05.04,0,.05.02.05.23v.83Z"/>
        <path class="cls-5" d="M39.58,145.55c.14,0,.29.04.38.13,0,.08-.04.18-.14.17-.07-.04-.17-.07-.26-.07-.13,0-.23.08-.23.19,0,.1.06.16.14.2.09.05.23.11.33.17.16.09.24.22.24.37,0,.35-.3.5-.59.5-.16,0-.31-.05-.39-.11-.04-.03-.06-.07-.06-.11,0-.06.03-.11.07-.14.11.08.27.13.4.13.17,0,.27-.08.27-.21,0-.09-.05-.15-.17-.21-.1-.05-.19-.1-.28-.15-.15-.08-.25-.21-.25-.39,0-.29.26-.47.55-.47h0Z"/>
        <path class="cls-5" d="M40.73,147.08c0,.07-.02.08-.08.09-.05.01-.14.01-.25.02,0-.14.01-.35.01-.57v-.61c0-.22,0-.33-.02-.41.07-.02.22-.04.28-.04.04,0,.05.02.05.22v1.29ZM40.57,144.8c.1,0,.17.07.17.18s-.07.19-.18.19c-.1,0-.18-.06-.18-.18,0-.13.1-.19.18-.19h0Z"/>
        <path class="cls-5" d="M41.25,146.02c0-.22,0-.33-.01-.41.06-.02.21-.04.28-.04.04,0,.05.02.05.22,0,.24,0,.49,0,.73,0,.37.19.42.35.42.17,0,.31-.11.38-.18v-1.05c0-.09.01-.1.06-.12.1-.01.19-.02.27-.02,0,.08-.01.33-.01.64v.57c0,.17.05.21.15.23v.02c0,.07-.09.18-.17.18-.15,0-.24-.1-.26-.26-.11.12-.23.18-.3.21-.07.03-.15.05-.23.05-.37,0-.54-.24-.54-.6v-.6Z"/>
        <path class="cls-5" d="M44.23,146.22c0-.27-.12-.41-.34-.41-.18,0-.32.11-.41.21v1.07c0,.07-.01.08-.07.09-.08.02-.17.01-.25.02,0-.13.01-.35.01-.66v-.61c0-.13-.02-.19-.07-.23h0c.03-.07.14-.14.21-.14.11,0,.15.18.15.27.15-.15.35-.27.55-.27.42,0,.53.32.53.66v.49c0,.21,0,.36.01.45-.08.01-.18.03-.28.03-.04,0-.06-.02-.06-.05v-.91Z"/>
        <path class="cls-5" d="M45.61,145.74c-.18,0-.31.14-.31.37s.13.36.32.36c.2,0,.31-.17.31-.36s-.09-.36-.31-.36h0ZM45.2,147.43c0,.2.24.3.47.3.27,0,.47-.13.47-.32,0-.11-.05-.21-.26-.24-.11-.02-.24-.02-.32-.02-.08,0-.14.01-.18.04-.09.05-.18.14-.18.24h0ZM45.62,145.55c.09,0,.19.02.28.04.1.02.21.05.3.05s.18-.01.24-.03c0,.02.01.05.01.07,0,.11-.07.16-.2.17-.03,0-.08,0-.1,0,.05.09.06.17.06.25,0,.38-.28.55-.6.55-.08,0-.1,0-.15-.02-.04.04-.11.09-.11.11,0,.06.05.1.21.11.17.01.31.02.44.03.29.03.42.2.42.42,0,.38-.39.64-.83.64s-.68-.23-.68-.48c0-.15.18-.29.34-.38-.12-.05-.22-.15-.22-.28,0-.02,0-.03.03-.04.07-.05.17-.12.22-.18-.18-.08-.29-.25-.29-.47,0-.33.27-.58.63-.58h0Z"/>
        <path class="cls-5" d="M49.34,146.88c-.01.1-.05.18-.11.23-.08.05-.27.12-.52.12-.81,0-1.24-.47-1.24-1.16,0-.73.55-1.2,1.26-1.2.33,0,.6.11.65.18,0,.13-.1.2-.18.17-.11-.05-.28-.11-.49-.11-.48,0-.89.31-.89.93,0,.54.34.94.97.94.22,0,.44-.07.54-.11h.01Z"/>
        <path class="cls-5" d="M50.04,147.08c0,.07-.02.08-.08.09-.05.01-.14.01-.25.02,0-.14.01-.35.01-.57v-.61c0-.22,0-.33-.01-.41.06-.02.22-.04.28-.04.04,0,.05.02.05.22v1.29ZM49.88,144.8c.1,0,.17.07.17.18s-.07.19-.18.19c-.1,0-.18-.06-.18-.18,0-.13.11-.19.18-.19h0Z"/>
        <path class="cls-5" d="M51.44,146.9c.02.07,0,.16-.07.21-.07.06-.21.1-.34.1-.32,0-.45-.2-.45-.48v-.91c-.13,0-.18-.04-.18-.08.04-.07.27-.28.32-.33.05-.04.11-.08.19-.09,0,.11-.01.2-.01.28h.57c-.04.19-.11.2-.18.21-.12,0-.14.01-.4.01-.02.36-.01.73,0,.89.02.21.13.26.26.26.11,0,.21-.04.27-.08h.01Z"/>
        <path class="cls-5" d="M51.77,147.82c.12-.15.33-.45.48-.74-.02-.03-.05-.09-.08-.16-.05-.14-.35-.95-.51-1.29.07-.04.2-.08.26-.08.05,0,.06.03.08.07.1.26.32.89.41,1.14.14-.33.33-.91.4-1.21.06,0,.15.01.2.04.06.03.07.05.04.13-.11.39-.25.79-.44,1.21-.21.47-.55,1-.62,1-.09,0-.2-.05-.23-.09v-.02Z"/>
      </g>
      <polygon class="cls-8" points="69.93 139.07 20.67 80.48 21.02 80.12 70.27 138.71 69.93 139.07"/>
    </g>
  </g>
</svg>