<?xml version="1.0" encoding="UTF-8"?>
<svg id="_圖層_2" data-name="圖層_2" xmlns="http://www.w3.org/2000/svg" xmlns:xlink="http://www.w3.org/1999/xlink" viewBox="0 0 178.64 192.23">
  <defs>
    <style>
      .cls-1 {
        fill: none;
      }

      .cls-2 {
        fill: #a6abab;
      }

      .cls-3 {
        fill: #81cbce;
      }

      .cls-4 {
        clip-path: url(#clippath-1);
      }

      .cls-5 {
        clip-path: url(#clippath-3);
      }

      .cls-6 {
        clip-path: url(#clippath-2);
      }

      .cls-7 {
        fill: #fff;
      }

      .cls-8 {
        clip-path: url(#clippath);
      }
    </style>
    <clipPath id="clippath">
      <rect class="cls-1" y="0" width="178.64" height="192.23"/>
    </clipPath>
    <clipPath id="clippath-1">
      <rect class="cls-1" y="0" width="178.64" height="192.23"/>
    </clipPath>
    <clipPath id="clippath-2">
      <rect class="cls-1" y="0" width="178.64" height="192.23"/>
    </clipPath>
    <clipPath id="clippath-3">
      <rect class="cls-1" y="0" width="178.64" height="192.23"/>
    </clipPath>
  </defs>
  <g id="_圖層_1-2" data-name="圖層_1">
    <polygon class="cls-7" points="155.42 54.21 155.16 55.18 153.41 56.48 150.58 56.27 144.88 54.09 143.91 54.8 143.26 56.74 141.72 57.31 141.11 59.53 138.02 61.51 139.43 62.89 137 63.47 136.61 64.28 135.02 64.71 135.14 66.36 137.49 67.28 137.32 69.29 134.53 71.21 134.62 72.78 133.39 74.95 134.37 75.71 134.63 79.01 133.79 79.94 133.59 81.33 132.39 82.81 132.19 84.51 130.64 86 130.35 87.44 131.44 88.21 131.3 89.69 132.45 90.25 131.44 93.49 131.64 94.8 130.1 97.09 127.29 97.69 126.83 100.64 125.9 102.02 123.99 101.66 121.84 102.08 120.03 103.72 121.36 105.2 118.38 106.47 118.38 108.23 117.22 109.14 117.14 110.55 119.32 111.05 120.98 112.31 119.9 114.1 121.05 114.31 121.67 117.38 124.94 117.7 125.23 118.77 129.33 119.22 130.32 122.62 134.3 124.51 136.19 123.88 136.76 120.43 137.95 119.32 140.04 115.22 139.29 113.94 142.39 110.73 141.28 108.83 141.28 107.33 144.52 105.43 146.17 105.43 147.2 106.96 147.38 106.37 148.32 102.87 147.84 102.05 149.54 97.5 149.8 95.35 150.39 93.38 150.79 90.62 152.18 87.85 152.01 85.63 152.61 84.95 154.03 80.92 154.17 76.98 154.79 75.22 156.44 74.16 156.47 73.33 155.59 72.49 154.71 70.78 154.91 69.54 155.48 68.63 157.27 67.32 157.58 65.22 157.15 64.28 158.12 62.64 160.42 61.31 160.98 60.27 161.89 60.08 162.8 59.02 163.09 57.74 163.74 57.07 155.42 54.21"/>
    <polygon class="cls-7" points="145.78 106.01 144.73 106.01 141.96 107.64 141.96 108.69 143.18 110.81 140.09 114.02 140.79 115.2 138.53 119.64 137.4 120.68 136.81 124.29 134.25 125.15 129.73 123.01 128.79 119.74 124.67 119.29 124.38 118.23 121.09 117.9 120.45 114.79 119.39 114.6 116.39 114.99 114.71 116.74 112.7 117.28 112.18 120.53 109.88 122.29 109.88 123.93 110.51 124.51 110.36 129.07 106.98 131.73 107.03 135.01 107.65 136.65 109.55 137.86 108.52 139.39 109.07 140.43 111.84 141.55 111.5 143.61 110.88 144.22 110.68 146.82 108.05 147.13 106.38 147.88 105.49 147.88 104.42 148.93 104.75 149.6 102.7 152.27 101.59 156.11 103.24 159.1 102.39 160.79 104.74 163.65 103.41 164.46 102 164.86 101.96 166.43 102.98 167.06 104.78 167.57 104.6 169.26 104.16 169.63 105.13 171.04 105.39 172.33 106.81 172.56 108.52 174.06 110.5 174.06 110.58 168.47 111.95 165.5 113.93 161.21 115.89 155.65 117.34 154.32 117.85 153.65 117.96 152.34 118.42 151.04 120.13 149.45 124.61 147.08 126.88 145.68 128.19 143.87 129.13 142.54 129.18 141.52 128.78 140.44 128.73 139.88 129.13 139.23 132.36 137.61 134.72 133.77 136.42 132.42 136.88 130.85 138.07 128.95 138.92 126.22 139.95 125.42 141.76 124.89 141.99 121.65 141.56 120.42 141.56 119.53 142.67 118.25 142.67 117.77 142.9 116.56 144.31 113.92 145.25 113.3 145.62 111.97 146.94 107.76 145.78 106.01"/>
    <polygon class="cls-7" points="64.53 100.67 64.46 101.91 67.14 101.47 68.74 101.97 70.96 101.71 71.4 101.34 70.56 100.37 72.73 98.86 73.56 100.23 76.72 98.27 77.07 97.3 79.68 96.19 81.1 95.16 82.89 95.71 85.59 94.62 87.56 94.62 88.85 96.61 90.95 97.29 94.99 97.38 97.38 98.56 100.64 98.16 100.19 95.81 98.06 96.54 94.7 94.93 95.33 92.67 95.08 89.84 95.99 88.9 96.28 87.99 95.38 86.47 87.4 86.11 84.07 84.43 78.78 84.15 75.28 84.68 70.7 84.03 68.93 85.84 67.4 88.65 67.14 91.69 66.26 91.16 65.36 92.07 63.9 95.55 63.93 97.94 64.53 100.67"/>
    <path class="cls-7" d="M90.06,111.74l-1.27,2.07,1.12,2.9-1.23.62,1.26.83h1.76l.93-.96,2.6.29-1.18-3.39,1.41-.91,1.98,1.26,2.92-1.09,1.89-2.45,1.7.09,2.55-1.98,1.46-2.78,1.93-.04,2.23-1.62-.85-.49-2.68.64-2.29-.39.05-2.6-1.77-2.88.47-1.19-1.44-1.01-2.6-.21.42,2.19-4.19.51-2.44-1.2-3.98-.08-2.44-.8-1.22-1.86h-1.41l-2.81,1.13-1.68-.53-1.19.86-2.42,1.03-.33.92-3.99,2.48-.81-1.34-1.02.71.8.93-1.02.86-2.6.31-1.57-.49-2.39.39.69.84-.71.46.06.41.51,1.35-.77.55v1.76l.65.63-.14.37h-.94l-.23,1.35-.17,2.38,1.34-.1,2.34,1.45,1.41.03,2.93-1.98.74-1.45,5.24-2.93h.09l6.29-.29,3.35.83-.41,1.49,3.08,2.12ZM86.71,105.45l-1.57-.47-.8,1.25-1.12-.19-1-1.21-1.96-.05-.89-2.67,2.49-.32.65-.97,2.44.05.82,1.44,1.76.93.74.86-1.56,1.35Z"/>
    <polygon class="cls-7" points="65.18 132.2 66.32 135.27 66.46 135.81 69.74 135.38 71.07 136.08 73.93 136.05 75.38 136.46 78.07 136.54 80.22 135.15 81.25 135.04 84.35 130.5 87.09 128.99 88.22 126.8 89.61 127.02 91.33 125.48 94.37 120.64 95.15 119.86 95.34 118.09 92.91 117.82 92.01 118.75 89.71 118.75 87.49 117.28 89.08 116.44 88.05 113.75 89.2 111.88 86.2 109.86 86.57 108.55 83.94 107.9 77.85 108.18 72.94 110.93 72.22 112.35 68.97 114.56 67.09 114.51 64.79 113.08 63.43 113.18 62.71 114.1 62.65 115.23 62.06 116.41 63.08 118.1 61.43 118.37 61.15 119.55 60.07 121.17 60.24 122.3 61.24 123.73 59.79 124.55 59.62 127.45 60.75 127.35 59.39 128.27 59.56 128.58 61.01 129.06 62.49 130.15 65.18 132.2"/>
    <path class="cls-7" d="M146.89,16.82l-.96-1.49,1.59-1.41.14-1.37-1.15-.69-1.3-.3-.24-1.66,1.79-2.15,1.69-.27.48-1.36,1.21-.14.54-1.24,2.1,1.12-.2,1.43,1.41.87.24,1.15-.42,1.2.74.2.82,1.35-.37,1.49,1.53,1.66-.7.74-1.74.48-.14,1.59,1.04.85-2.5.99-1.76-.48-.52-1.43-1.17-1.04-.24-.74-.61.83-1.29-.16ZM148.89,0l-3.15,2.1-1.31.24-.77,2.03-.91.6-.65,2.41-1.54,1.12-3.15,1.09-1.99.22-.77.06.65.71,2.76,2.04,3.21,1.23.48,2.47-1.88,2.37-2.38.34.12,3.72,1.45.89-.22,2.28,4.4.41,1.25,2.06-.99,2.35.21,2.02,2.41,1.16.03,1.53,1.32.04,2.89-1.86,2.09-.74.07-3.11,2.18-2.01,4.02-.81,1.49-1.88,3.53-.34,1.39-2.44,2.39-.38-.21-1.35.74-.81.24-.82,2.55-.15,3.59-1.98,2.2,1.06,2.01-1.67-.99-.48-3.41-.53-.09-1.12-.45-.74-.26-3.69-2.21.26-3.27-.4-1.79.64-.7.43-.83.09-1.3.74.52,1.84-1.42,1.05-1.08-.03-3.35-.97-.3-.93-1.09-.31-.72-2.04-1.01-.72,1.08-1.11h1.98l1.93-1.64.35-1.28-.06-1.04-1.97,1.04-1.93-1.62-.25-1.35-1.16-1.23-1.78-1.06h-4.2Z"/>
    <polygon class="cls-7" points="174.46 17.49 171.07 19.35 168.84 19.48 168.68 20.02 168.03 20.73 168.28 22.38 165.58 22.83 164.18 25.3 160.59 25.64 159.15 27.49 155.06 28.31 153.2 30.03 153.13 33.3 150.7 34.15 147.68 36.05 145.9 36 144.63 36.62 144.28 38.46 142.28 40.35 142.72 41.57 141.78 41.84 141.85 44.11 141.03 44.41 140.26 45.45 138.1 46.86 136.63 48.75 136.65 49.19 137.64 49.75 137.77 51.27 140.24 52.57 143.31 52.06 145.02 53.51 150.75 55.7 153.18 55.88 154.55 54.87 154.94 53.42 164.2 56.6 164.39 56.41 164.39 54.6 164.87 53.68 165.21 52.42 165.41 50.35 166.98 48.49 167.26 47.96 169.42 46.51 168.42 45.42 168.51 44.5 170.44 43.9 170.35 42.16 170.41 39.31 169.33 38.54 167.54 33.61 167.77 32.82 167.17 31.35 167.2 28.81 167.74 26.27 168.17 24.75 170.33 22.58 170.81 21.98 173.87 18.93 175.95 18.21 174.46 17.49"/>
    <polygon class="cls-7" points="112.85 32.57 112.94 33.84 113.42 33.9 113.67 32.87 115.66 30.59 117.51 29.88 118.72 29.97 118.96 28.85 117.47 27.74 115.18 27.51 115.1 27.38 113.48 25.04 113.39 25.55 111.83 26.71 111.92 28.06 111.41 29.97 110.32 31.67 112.85 32.57"/>
    <polygon class="cls-7" points="88.85 65.2 89.98 67 94.71 69.16 95.38 71.92 97.9 72.56 98.44 73.71 100.86 73.36 101.85 73.88 104.43 73.11 105.41 70.37 107.13 70.09 107.22 68.15 108.32 66.7 110.31 67.72 110.43 68.07 111.16 67.38 112.32 67.94 114.66 66.49 115.94 67.24 117.13 66.69 117.79 64.78 120.84 64.9 122.92 62.89 126.51 61.88 127.3 60.71 129.18 61.17 131.86 60.86 133.33 59.7 134.33 60.6 137.09 60.6 137.58 61.07 140.5 59.19 141.14 56.9 142.69 56.32 143.31 54.47 144.32 53.74 143.08 52.69 140.11 53.18 137.12 51.61 136.99 50.07 135.99 49.51 135.97 49.15 134.47 49.87 132.83 49.79 132.29 50.43 132.09 52.47 130.55 52.87 129.6 52.02 120.67 57.75 119.23 57.35 118.03 55.79 114.74 55.14 113.19 55.34 112.54 57.2 111.34 57.93 107.49 57.89 105.06 56.31 103.11 56.1 101.83 55.1 97.1 51.96 94.5 48.5 91.53 51.96 91.14 53.05 89.52 55.56 89.12 57.3 88.13 57.86 87.76 59.74 85.97 62.26 88.85 65.2"/>
    <polygon class="cls-7" points="97.61 51.56 102.27 54.66 103.41 55.55 105.32 55.76 107.72 57.31 111.12 57.34 111.95 56.84 112.66 54.83 114.77 54.55 118.45 55.28 119.67 56.86 120.54 57.11 129.68 51.25 130.76 52.21 131.45 52.03 131.63 50.22 132.32 49.4 132.3 48.25 130.22 45.42 124.89 45.32 123.47 46.05 121.59 46.12 121 44.42 121.77 43.62 120.26 42.79 122.15 41.51 121.91 39.46 121.23 38.92 118.55 38.08 118.13 37.04 116.75 36.87 115.67 35.33 115.36 34.07 114.72 34.17 113.98 34.54 113.98 34.54 112.32 34.35 112.21 32.97 109.36 31.96 108.34 33.25 108.17 35.69 108.17 36.15 107.55 36.17 106.7 36.27 106.72 35.81 104.08 35.96 102.41 37.14 102.38 39.05 99.91 39.12 98.83 40.64 98.63 41.44 97.86 42.74 97.53 44.12 96.73 45.95 96.05 46.75 95.71 47.45 94.99 48.07 97.61 51.56"/>
    <g class="cls-8">
      <path class="cls-7" d="M136.49,62.99l1.73-.41-1.43-1.42h-2.74l-.74-.66-1.14.89-3.03.35-1.51-.37-.65.97-3.66,1.06-2.18,2.1-2.85-.12-.59,1.7-1.8.85-1.23-.73-2.3,1.43-1.07-.51-1.2,1.12-.37-1.13-1.19-.61-.64.85-.1,2.25-1.86.3-.96,2.68-3.22.96-1.04-.55-2.71.39-.02-.04-2.23-.13.52,1.49-.95,1.7-.37,3.94-.8.83,1.04,1.92,2.5.32,1.12,1.02-2.08,1.15-.57-.03.84,1.43-.37,1.23-.83.86.23,2.68-.56,1.9,2.63,1.26,2.6-.91.17.87,2.96.24s.04.01.06.02l1.92,1.35-.51,1.35,1.72,2.79-.05,2.26,1.58.27,2.83-.67,1.42.82,3.45.37,1.84,1.29,2.23-.95-1.18-1.31,2.35-2.14,2.5-.48,1.57.29.62-.91.5-3.22,2.98-.64,1.27-1.9-.19-1.24.92-2.92-1.07-.51.15-1.55-1.11-.79.39-1.93,1.54-1.49.19-1.67,1.21-1.49.19-1.41.8-.88-.22-2.86-1.14-.85,1.38-2.43-.1-1.72,2.82-1.94.12-1.36-2.29-.89-.17-2.45,1.79-.48.39-.83Z"/>
    </g>
    <polygon class="cls-7" points="146.8 11.32 148.37 12.26 148.17 14.17 146.77 15.42 147.33 16.29 147.84 16.35 149.03 14.71 149.65 16.61 150.8 17.62 151.27 18.9 152.44 19.21 153.79 18.67 153.24 18.22 153.44 15.97 155.42 15.43 155.64 15.2 154.26 13.69 154.63 12.14 154.05 11.17 152.94 10.87 153.51 9.25 153.35 8.47 151.84 7.54 152.03 6.14 151.01 5.61 150.62 6.51 149.44 6.65 148.98 7.97 147.15 8.26 145.67 10.05 145.83 11.1 146.8 11.32"/>
    <polygon class="cls-7" points="160.29 7.03 158.25 8.77 156.31 8.77 155.86 9.23 156.51 9.7 157.18 11.61 158.28 11.89 158.59 12.83 161.49 13.67 162.2 13.69 163.11 13.03 162.57 11.15 164.4 10.09 165.22 10.01 165.85 9.64 166.81 9.29 163.94 7.66 162.43 8.84 162.32 8.04 161.72 7.56 160.53 7.27 160.29 7.03"/>
    <polygon class="cls-7" points="85.26 102.71 84.53 101.44 82.91 101.41 82.31 102.32 80.25 102.58 80.8 104.2 82.61 104.24 83.65 105.5 83.99 105.56 84.83 104.25 86.54 104.77 87.39 104.05 87.07 103.67 85.26 102.71"/>
    <polygon class="cls-7" points="121.42 20.37 121.65 22.53 124.38 22.69 125.31 23.8 127.68 24.05 127.05 26.02 130.93 28.02 133.06 28.05 134.68 30.28 136.29 30.31 135.92 32.05 136.69 32.77 136.26 34.21 138.36 35 139.51 36.85 139.58 39.18 140.13 40.04 141.74 40 143.64 38.2 144.01 36.26 145.48 35.54 145.45 34.24 143.07 33.09 142.82 30.64 143.75 28.41 142.81 26.85 138.11 26.42 138.36 23.9 136.95 23.03 136.8 18.54 139.47 18.16 141.04 16.18 140.66 14.24 137.7 13.1 134.81 10.96 133.85 9.93 131.71 10.09 125.83 12.51 122.85 13.38 119.44 15.07 118.39 16.69 117.82 18.67 116.19 20.25 121.42 20.37"/>
    <g class="cls-4">
      <path class="cls-7" d="M115.6,26.96l2.16.22,1.95,1.44-.42,1.98-1.65-.13-1.53.59-1.78,2.06-.16.67.32-.16,1.41-.23.4,1.73.85,1.22,1.49.17.45,1.12,2.5.79.97.77.3,2.58-1.44.98,1.35.74-1.02,1.06.34.96,1.18-.04,1.44-.74,5.9.11,2.37,3.22.03,1.14,1.32.07,1.73-.83,1.55-1.99,2.16-1.41.82-1.12.58-.21-.07-2.3.79-.23-.23-.62-1.91.06-.84-1.29-.07-2.35-.97-1.54-2.41-.91.49-1.61-.74-.69.29-1.36-1.18-.02-1.62-2.23-1.93-.03-4.48-2.3.56-1.76-1.91-.19-.93-1.09-2.97-.17-.23-2.14-5.13-.11-.11,1.61-1.27.31-.56,1.49c.62.88,1.3,1.89,1.88,2.73"/>
    </g>
    <polygon class="cls-7" points="81.18 158 83.21 154.15 82.07 152.58 82.78 149.48 83.59 147.39 83.59 142.82 84.91 139.33 89.65 140.21 91.8 138.92 93.38 137.06 96.71 137.33 97.68 138.27 99.17 137.15 101.01 137.24 103.37 138.77 104.09 139.76 105.56 138.4 107.08 138.25 108.04 138.93 108.66 138.01 107.07 137.01 106.35 135.11 106.3 131.48 109.69 128.81 109.82 124.73 109.2 124.16 109.2 122.03 111.54 120.25 112.08 116.84 114.32 116.24 116.03 114.45 119.17 114.04 120.13 112.44 118.99 111.57 116.43 110.99 116.55 108.87 117.7 107.97 117.7 106.43 115.97 105.21 112.78 104.87 110.15 106.78 108.41 106.82 107.06 109.38 104.2 111.6 102.61 111.52 100.83 113.84 97.36 115.13 95.48 113.93 94.85 114.33 96.04 117.74 96.06 117.74 96.05 117.78 96.19 118.19 96.01 118.16 95.81 120.09 94.94 120.96 91.89 125.82 89.85 127.65 88.62 127.45 87.63 129.38 84.86 130.91 81.67 135.57 80.48 135.71 78.29 137.12 75.27 137.03 73.82 136.63 70.88 136.67 69.6 135.98 66.61 136.37 66.8 137.08 67.85 140.13 69.81 144.52 71.97 147.46 71.12 149.61 70.89 151.01 72.54 153.93 77.71 159.03 79.72 159.08 80.99 159.7 81.18 158"/>
    <polygon class="cls-7" points="92.29 139.34 89.8 140.84 85.36 140 84.27 142.91 84.27 147.47 83.43 149.64 82.79 152.47 83.97 154.11 81.84 158.15 81.64 160.02 82.99 160.67 83.15 161.91 84.01 162.82 90.99 165.94 91.65 166.68 92.18 167.87 93.01 168.45 94.71 170.14 95.22 171.95 95.57 173.23 95.99 173.52 97.15 174.87 97.44 175.93 98.54 179.46 98.75 179.97 98.92 181.08 98.35 184.07 97.69 185.18 97.72 186.61 99.09 188.18 99.17 191.03 100.73 191.82 101.27 191.39 101.39 190.3 102.46 189.6 108.17 192.23 108.6 192.23 107.49 189.91 107.49 188.3 110.16 186 110.47 185.3 110.39 182.11 110.49 174.64 108.24 174.64 106.47 173.1 104.79 172.83 104.48 171.24 103.32 169.53 103.94 169 104.05 167.97 102.66 167.58 101.27 166.72 101.33 164.44 103.1 163.94 103.8 163.51 101.61 160.86 102.5 159.11 100.87 156.17 102.07 152.04 103.98 149.54 103.64 148.81 105.18 147.3 106.22 147.3 107.84 146.57 110.04 146.31 110.22 143.99 110.86 143.36 111.1 141.89 108.56 140.87 107.86 139.56 106.87 138.85 105.89 138.95 103.97 140.72 102.85 139.16 100.76 137.81 99.41 137.74 97.62 139.08 96.37 137.89 93.71 137.66 92.29 139.34"/>
    <polygon class="cls-7" points="85.6 62.78 85.81 62.99 85.6 62.78 85.6 62.78"/>
    <polygon class="cls-7" points="71.24 83.52 75.27 84.1 78.74 83.57 84.27 83.86 87.61 85.54 96.54 85.95 97.75 85.28 97.34 84.91 94.71 84.57 93.34 82.04 94.28 81.07 94.66 77.21 95.55 75.61 94.81 73.55 97.72 73.72 97.4 73.04 94.8 72.37 94.11 69.54 89.47 67.42 88.28 65.52 86.15 63.34 85.4 63.41 83.04 65.71 82.36 67.42 82.28 68.7 80.51 70.78 78.1 72.47 75.52 76.84 73.14 81.06 71.89 82 71.94 82.9 71.24 83.52"/>
    <polygon class="cls-7" points="145.48 176.61 144.69 176.19 145.09 175.77 146.6 176 151.71 175.77 151.71 176.19 151.58 176.81 152.05 177.85 151.91 178.22 151.37 178.44 151.33 179.03 151.42 179.69 154.69 181.64 153.82 183.24 151.82 183.12 150.01 181.16 148.3 181.07 145.57 178.99 145.48 176.61"/>
    <polygon class="cls-7" points="140.73 149.71 140.73 149.19 142.58 148.94 144.92 149.71 145.11 150.92 144.11 152.06 144.23 152.7 143.89 152.8 142.74 152.09 141.56 151.44 141.22 150.01 140.73 149.71"/>
    <g class="cls-6">
      <path class="cls-3" d="M46.02,119.69c-.38-.4-.58-.94-.58-1.49,0-.92.16-1.66-.41-1.97-.33-.18-.69-.3-1.07-.33-.11-.26-.37-.44-.65-.43-.46.03-.2.37-.77.43s-.51.03-.82-.31-.61-.28-.87-.43c-.26-.15.51-.37-.33-.51-.41-.1-.84-.1-1.25,0l-.14.43s-.03,0,.37.56c.4.56.43,1.25.37,1.25-.41-.04-.81-.06-1.22-.05-.49.03-.84.11-.92.29-.11.33-.19.67-.26,1.02.05.34-.12.67-.43.82-.54.37-1,.77-.97.84.42.65.93,1.23,1.51,1.74.56.37,1.61.97,1.61.97.58-.33,1.13-.72,1.64-1.15.37-.41.69-1.79,1.35-1.99.67-.2,1.05-.54,1.49-.25.63.3,1.28.54,1.94.71.14.06.42-.15.42-.15"/>
      <path class="cls-3" d="M44.42,112.05c.43-.05.51.72.51.72.05.24-.11.46-.34.51-.06.01-.11.01-.17,0-.52-.03-1.04-.03-1.56,0,0,0-.15.74-.37.69-.22-.06-.59-.03-.79-.2-.2-.18-.03-.67.18-.94.2-.28.43-.9.9-.95.55.01,1.11.07,1.65.18"/>
      <path class="cls-3" d="M39.07,111.13c.69.06,1.25-.15,1.56.43.27.49.37,1.06.28,1.61-.1.3-.23.59-.71.37-.46-.26-.98-.39-1.51-.37-.49.07-1-.02-1.43-.26-.27-.15-.56-.25-.87-.28-.26-.07-.14-.71.28-1,.42-.28.87-.65,2.41-.51"/>
      <path class="cls-3" d="M34.37,112.72c.94.23.51.53,1.25.59.74.05.83.16.63.66s-.68.92-1.04,1.53c-.36.61-.62.49-.62,1.44s.23,1.49-.37,1.97c-.6.48-.9.64-1.69.51-.79-.13-1.35.06-1.81.04s-.37-.91-.28-1.17c.09-.26.41-.41,1.1-.67.69-.26,1.2-.64,1.17-1.02s-.2-.54-.15-.89c.08-.27.14-.54.18-.82.1-.74,0-1.38.28-1.64.28-.26.75-.69,1.35-.55"/>
      <path class="cls-3" d="M34.52,121.81c.53,0,1.05.14,1.51.41.44.26.74.41.64.85-.11.44-.25.69-.64.59s-.81-.28-1.11-.18c-.27.12-.57.19-.87.2-.37,0-.91-.37-.68-.71.24-.34.49-1.19,1.15-1.15"/>
      <path class="cls-3" d="M41.21,105.35c.41,0,.59.72.72,1.38.13.67.05.97-.35,1.35s-1.16.2-1.75.23c-.59.03-.71-.37-.33-.97s.33-1.02.77-1.2c.44-.18.43-.8.95-.8"/>
      <path class="cls-3" d="M30.66,134.26c.2.66-.77.71-.87,1.33-.1.61-.1,1.58-.82,1.33-.71-.26-1.94-1.11-1.99-1.79-.05-.67,0-1.68,1.12-1.53.87.15,1.73.37,2.57.67"/>
      <path class="cls-3" d="M36.03,135.95c1,.24.97.24.92,1.01-.05.78-.51,1.18-1.18.98-.67-.2-.72-.32-1.18-.98-.46-.65.56-1.22,1.43-1.01"/>
      <path class="cls-3" d="M43.39,137.58c-.12,1.03-.16,1.49.46,1.49s.41,0,1.02-.79c.61-.79,1.12-1.89.51-1.84-.6.05-.12.82-.9.87-.79.05-1.01-.45-1.09.27"/>
      <path class="cls-7" d="M56.32,37.77c.72,0,.51-.67,1.33-.67s1.44-.15,1.74-.87c.3-.71-.26-1.07-1.23-1.07s-.82.81-1.38.86c-.56.05-1.07.2-1.11.82-.07.43.23.84.66.92"/>
      <path class="cls-7" d="M56.01,38.33c.6.07.26.77.26,1.58s-.15,1.18.41,1.18.3.31,0,.57-1.43-.09-1.43.57c0,.65-.56,1.27,0,1.37.32.06.65.06.97,0,0,0,0,.1-.57.56-.56.46-.44.46-.65,1.23-.22.77-.04,1.38,0,2.15.04.77.82,1.75.25,1.75s-.92.47-1.49,0-1.23-.42-1.94-.42-1.12,0-.92-.37,1.02-.66,1.12-1.49c.09-.83.31-1.23.1-1.89-.2-.66-.77-1.21-.41-1.22.46.05.92.05,1.38,0,.61-.11,1.18-.72,1.18-1.18s-.28-.87-.35-1.64-.55-1.33,0-1.58c.55-.26,1.02.05,1.32-.37s-.04-.88.77-.78"/>
      <path class="cls-2" d="M129.15,137.98s.03-.09.05-.13c0-.09-.02-.18-.05-.26v.39Z"/>
      <path class="cls-7" d="M82.15,170.05c1.12,0,.61.61.61,1.12s.05,1.33-.61,1.33-1.69-.2-2.66-.16.1-.77.92-1.07c.82-.31-.11-.82.58-1.02.38-.11.77-.18,1.16-.2"/>
      <path class="cls-3" d="M34.67,77.7v-2.07c0-.2.07-.23.22-.25.22-.02.66-.03.94-.04-.02.34-.03.88-.03,1.63v2.91c0,.63.02.93.03,1.11-.18.05-.76.07-.96.07-.13,0-.19-.03-.19-.17v-2.47c-.18.02-.48.03-1.03.03h-1.38v2.33c0,.19-.07.23-.28.24-.24.03-.68.05-.87.04.02-.36.03-.89.03-1.65v-2.85c0-.61,0-.98-.03-1.15.23-.05.77-.07.96-.07.16,0,.19.08.19.49v1.87h2.4Z"/>
      <path class="cls-3" d="M38.61,77.57c-.33,0-.69.32-.73.99.37.03,1.06.02,1.28,0,.06,0,.12-.09.12-.19,0-.44-.2-.8-.66-.8h0ZM40.13,80.12c0,.4-.32.77-.47.84-.14.06-.52.16-.84.16-1.31,0-2.03-.72-2.03-2.04,0-1.09.71-2.13,1.93-2.13,1.14,0,1.58.83,1.59,1.55,0,.13,0,.23-.03.3-.03.14-.39.26-.76.35-.23.05-1.16.06-1.66.05.05.79.62,1.12,1.23,1.12.43,0,.86-.13,1.01-.21l.02.02Z"/>
      <path class="cls-3" d="M40.93,77.41c.07-.21.41-.47.66-.47.4,0,.56.38.57.94.26-.61.64-.94,1.12-.94.17,0,.34.08.42.15.05.1.04.36-.05.53-.04.19-.22.4-.35.42-.18-.07-.28-.09-.43-.09-.14,0-.4.11-.55.49-.05.14-.08.24-.08.44v1.88c0,.14-.02.22-.2.25-.31.04-.59.05-.92.05.02-.48.03-1.03.03-1.64v-1.52c0-.21-.05-.37-.21-.46v-.04Z"/>
      <path class="cls-3" d="M45.82,77.57c-.33,0-.69.32-.73.99.37.03,1.06.02,1.28,0,.06,0,.12-.09.12-.19,0-.44-.2-.8-.66-.8h0ZM47.33,80.12c0,.4-.32.77-.47.84-.14.06-.52.16-.84.16-1.31,0-2.03-.72-2.03-2.04,0-1.09.71-2.13,1.93-2.13,1.14,0,1.59.83,1.59,1.55,0,.13,0,.23-.03.3-.03.14-.39.26-.76.35-.23.05-1.16.06-1.66.05.05.79.62,1.12,1.23,1.12.43,0,.85-.13,1.01-.21l.02.02Z"/>
      <path class="cls-3" d="M49.22,75.54c.14,0,.19.02.19.24,0,.53-.22,2.67-.27,3.05-.03.16-.13.2-.21.23-.22.05-.4.1-.45.1-.05-.38-.27-2.82-.28-3.39.04-.1.72-.23,1.01-.23h0ZM48.8,79.82c.35,0,.59.29.59.63,0,.4-.25.66-.66.66-.29,0-.61-.2-.61-.63,0-.36.23-.66.68-.66h0Z"/>
    </g>
    <rect class="cls-3" x="40.58" y="84.98" width=".5" height="23.19"/>
    <g class="cls-5">
      <path class="cls-7" d="M9.23,112.46c-.24.33-.54.61-.9.82l-.12-.25c.34-.2.62-.46.84-.78l.18.21ZM9.29,113.5c-.27.35-.59.64-.98.87l-.12-.25c.37-.21.68-.48.93-.83l.18.21ZM9.39,114.49c-.32.5-.72.92-1.2,1.25l-.12-.25c.46-.31.84-.7,1.14-1.2l.18.2ZM7.8,113.87h-.64v.45h.64v-.45ZM8.05,114.55h-1.13v-.89h1.13v.89ZM7.3,115.13l-.19.08c-.08-.19-.16-.36-.25-.5l.2-.08c.09.16.18.32.25.5M7.36,112.59v-.33h.25v.33h.58v.24h-.58v.35h.51v.24h-1.3v-.24h.53v-.35h-.59v-.24h.59ZM8.1,114.7c-.08.18-.17.34-.26.48.13-.03.25-.06.36-.09v.24c-.43.12-.9.21-1.44.28l-.03-.25c.3-.04.58-.08.84-.12.12-.19.23-.4.31-.61l.22.08ZM6.69,112.88l-.18.17c-.14-.16-.33-.34-.59-.52l.17-.17c.23.17.43.35.59.52M6.66,113.76l-.19.19c-.13-.17-.32-.35-.55-.54l.18-.18c.22.18.41.35.56.53M6.7,114.44c-.16.44-.34.85-.54,1.24l-.26-.11c.21-.4.4-.81.55-1.22l.24.09Z"/>
      <path class="cls-7" d="M12.81,112.63h-.57v.64c.2.03.39.08.57.14v-.78ZM12.24,114.21s0,.05,0,.08c.21-.04.41-.08.58-.12v-.52c-.19-.06-.38-.11-.57-.15v.71ZM11.85,115.7l-.2-.17c.22-.34.33-.78.33-1.31v-1.85h1.08v3.04c0,.2-.1.3-.31.3h-.3l-.07-.24c.1,0,.2.02.29.02s.13-.05.13-.16v-.9c-.19.05-.38.09-.59.13-.04.46-.16.85-.37,1.16M11.48,114.21h-.56v.83h.56v-.83ZM11.73,115.27h-.8v.22h-.25v-1.52h.4v-.72h-.49v-.25h.49v-.66h.26v.66h.49v.25h-.49v.72h.38v1.3ZM10.59,112.84l-.19.19c-.15-.17-.35-.35-.61-.54l.19-.18c.24.17.45.35.62.53M10.53,114.31c-.16.48-.33.93-.51,1.36l-.25-.11c.2-.44.38-.89.52-1.35l.24.1ZM10.53,113.76l-.19.19c-.15-.17-.36-.36-.62-.57l.19-.18c.25.19.46.37.62.56"/>
      <path class="cls-7" d="M17.02,115.37l-.2.14c-.1-.22-.23-.46-.4-.73l.2-.12c.18.27.31.51.4.71M15.76,115.67l-.06-.24c.08,0,.15.02.22.02s.11-.04.11-.12v-.88c-.19.01-.39.03-.59.04l-.05-.23.09-.02c.18-.1.39-.28.64-.55-.21.02-.43.04-.66.06l-.05-.22.09-.02c.19-.12.46-.43.79-.91l.24.1c-.27.36-.52.64-.73.83.17-.01.34-.03.5-.05.11-.13.21-.26.33-.4l.25.1c-.4.49-.75.85-1.04,1.08.25-.02.51-.05.75-.08-.05-.09-.09-.18-.14-.26l.21-.1c.12.2.23.43.33.68l-.21.11-.09-.22c-.14.01-.27.03-.41.04v.96c0,.19-.09.29-.27.29h-.25ZM16.29,112.25c-.28.4-.58.71-.9.92l-.16-.19c.32-.2.58-.47.81-.79l.26.06ZM15.82,114.78c-.12.28-.26.53-.42.74l-.2-.14c.16-.2.29-.43.41-.71l.21.1ZM15.19,115.22l-.22.1c-.06-.24-.13-.46-.21-.65l.21-.07c.08.19.15.4.21.62M14.84,113.96h-.77v.25h.77v-.25ZM14.84,113.5h-.77v.26h.77v-.26ZM14.84,113.05h-.77v.25h.77v-.25ZM14.84,112.6h-.77v.25h.77v-.25ZM15.09,114.21h.2v.24h-.71v1.21h-.26v-1.21h-.68v-.24h.19v-1.83h1.27v1.83ZM14.12,114.65c-.08.35-.21.66-.36.91l-.2-.13c.16-.25.28-.52.35-.83l.22.05Z"/>
      <path class="cls-7" d="M.02,117.32c0-.19,0-.34-.01-.52.1-.02.34-.04.57-.04.53,0,.93.21.93.75,0,.5-.41.74-.72.74-.1,0-.17-.01-.21-.04-.04-.02-.1-.12-.09-.2.05.02.13.02.19.02.18,0,.47-.09.47-.51s-.33-.52-.56-.52c-.07,0-.13,0-.2.01v1.69c0,.27,0,.38.01.46-.06.02-.21.03-.29.03-.04,0-.07-.01-.07-.07v-1.79Z"/>
      <path class="cls-7" d="M2.46,117.67c-.19,0-.37.17-.4.47.27,0,.6,0,.67,0,.05,0,.08-.03.08-.08,0-.23-.11-.4-.35-.4h0ZM3.07,118.85c0,.12-.09.24-.16.27-.06.03-.22.08-.38.08-.53,0-.82-.31-.82-.85,0-.47.29-.9.8-.9.44,0,.63.33.63.64,0,.04,0,.09,0,.12-.01.06-.2.11-.33.14-.1.01-.48.02-.76.01,0,.37.24.59.57.59.17,0,.36-.07.43-.1h.01Z"/>
      <path class="cls-7" d="M4.65,118.16c0-.29-.13-.44-.35-.44-.19,0-.34.12-.43.22v1.13c0,.08-.01.09-.08.09-.09.01-.17.01-.27.01,0-.14.01-.36.01-.7v-.64c0-.14-.02-.21-.07-.24v-.02c.03-.06.15-.13.22-.13.12,0,.16.19.16.28.16-.16.37-.28.58-.28.45,0,.56.34.56.7v.52c0,.22,0,.38.02.48-.08.01-.19.03-.29.03-.04,0-.06-.02-.06-.06v-.97Z"/>
      <path class="cls-7" d="M6.1,117.66c-.19,0-.33.15-.33.39s.14.38.34.38c.21,0,.32-.18.32-.38s-.1-.38-.33-.38h0ZM5.67,119.44c0,.21.25.32.49.32.29,0,.5-.13.5-.34,0-.12-.06-.22-.27-.25-.11-.02-.25-.02-.34-.02-.08,0-.15.01-.19.04-.1.06-.19.14-.19.25h0ZM6.11,117.46c.09,0,.2.02.29.04.11.03.22.05.32.05s.19-.02.25-.03c0,.02.02.05.02.08,0,.11-.08.17-.21.18-.03,0-.08,0-.11,0,.05.09.06.18.06.27,0,.4-.3.58-.63.58-.08,0-.11,0-.16-.02-.05.04-.11.1-.11.12,0,.06.05.11.22.12.18.01.33.02.47.03.3.03.44.2.44.44,0,.41-.41.67-.88.67s-.72-.24-.72-.5c0-.16.19-.31.36-.4-.12-.05-.23-.16-.24-.3,0-.02,0-.03.03-.04.08-.05.17-.12.23-.19-.19-.08-.31-.26-.31-.49,0-.35.28-.61.66-.61h0Z"/>
      <path class="cls-7" d="M7.62,117.71c.15-.12.33-.25.57-.25.43,0,.56.34.56.7v.51c0,.23,0,.39,0,.48-.08.02-.18.03-.29.03-.04,0-.05-.02-.05-.07v-.93c0-.33-.16-.46-.37-.46-.18,0-.35.12-.42.19v1.16c0,.07-.01.09-.07.09-.09.02-.19.02-.27.02,0-.14.01-.36.01-.7v-1.42c0-.23,0-.35-.02-.42.1-.03.23-.05.29-.05.04,0,.06.02.06.25v.87Z"/>
      <path class="cls-7" d="M9.3,117.95c0-.24,0-.35-.02-.43.06-.02.22-.04.29-.04.04,0,.05.02.05.24,0,.25,0,.52,0,.77,0,.39.2.44.37.44s.33-.11.4-.19v-1.1c0-.09.01-.11.06-.13.11-.01.2-.02.28-.02,0,.08-.01.35-.01.68v.6c0,.18.05.22.15.24v.02c0,.08-.1.19-.18.19-.16,0-.25-.11-.27-.27-.12.13-.24.19-.32.22-.08.03-.16.05-.25.05-.39,0-.57-.25-.57-.63v-.63Z"/>
      <path class="cls-7" d="M14.08,118.85c-.01.1-.06.19-.12.24-.08.06-.29.12-.55.12-.86,0-1.31-.49-1.31-1.23,0-.77.58-1.26,1.33-1.26.34,0,.63.12.69.19,0,.14-.1.21-.19.18-.11-.06-.3-.11-.51-.11-.51,0-.94.33-.94.98,0,.57.36.99,1.02.99.23,0,.46-.07.57-.12v.02Z"/>
      <path class="cls-7" d="M15.15,117.68c-.25,0-.47.22-.47.63,0,.45.23.67.51.67.23,0,.46-.19.46-.64,0-.32-.14-.66-.49-.66h0ZM15.18,117.46c.53,0,.82.37.82.86s-.33.89-.84.89c-.56,0-.84-.41-.84-.86,0-.5.35-.89.85-.89h0Z"/>
      <path class="cls-7" d="M16.42,117.95c0-.24,0-.35-.01-.43.06-.02.22-.04.29-.04.04,0,.05.02.05.24,0,.25,0,.52,0,.77,0,.39.2.44.37.44s.33-.11.39-.19v-1.1c0-.09.01-.11.06-.13.11-.01.2-.02.28-.02,0,.08-.01.35-.01.68v.6c0,.18.05.22.15.24v.02c0,.08-.1.19-.18.19-.16,0-.25-.11-.27-.27-.12.13-.24.19-.32.22-.08.03-.16.05-.25.05-.39,0-.57-.25-.57-.63v-.63Z"/>
      <path class="cls-7" d="M19.57,118.16c0-.29-.13-.44-.35-.44-.19,0-.34.12-.43.22v1.13c0,.08-.01.09-.08.09-.09.01-.18.01-.27.01,0-.14.01-.36.01-.7v-.64c0-.14-.02-.21-.07-.24v-.02c.03-.06.15-.13.22-.13.12,0,.16.19.16.28.16-.16.37-.28.58-.28.45,0,.56.34.56.7v.52c0,.22,0,.38.02.48-.08.01-.19.03-.29.03-.04,0-.06-.02-.06-.06v-.97Z"/>
      <path class="cls-7" d="M21.38,118.88c.02.08,0,.17-.07.23-.08.06-.22.1-.36.1-.34,0-.48-.21-.48-.5v-.97c-.13,0-.19-.05-.19-.09.04-.08.28-.3.34-.35.05-.05.11-.08.2-.09,0,.12-.02.21-.02.29h.6c-.04.2-.12.22-.19.22-.13,0-.15.01-.42.01-.02.38-.02.78,0,.94.02.22.14.28.27.28.11,0,.22-.04.29-.08h.01Z"/>
      <path class="cls-7" d="M21.73,119.85c.13-.16.35-.47.5-.79-.02-.03-.05-.1-.08-.16-.06-.15-.37-1-.54-1.36.07-.04.21-.09.28-.09.05,0,.07.03.08.07.11.28.34.94.43,1.2.15-.35.35-.96.42-1.27.06,0,.15.02.21.04.06.03.07.05.05.14-.11.41-.26.84-.47,1.28-.23.49-.58,1.05-.65,1.05-.09,0-.2-.06-.24-.1v-.02Z"/>
    </g>
  </g>
</svg>