<?xml version="1.0" encoding="UTF-8"?>
<svg id="_圖層_2" data-name="圖層_2" xmlns="http://www.w3.org/2000/svg" xmlns:xlink="http://www.w3.org/1999/xlink" viewBox="0 0 151.68 192.23">
  <defs>
    <style>
      .cls-1, .cls-2 {
        fill: none;
      }

      .cls-3 {
        clip-path: url(#clippath-1);
      }

      .cls-4 {
        clip-path: url(#clippath-3);
      }

      .cls-5 {
        clip-path: url(#clippath-4);
      }

      .cls-6 {
        clip-path: url(#clippath-2);
      }

      .cls-7 {
        clip-path: url(#clippath-7);
      }

      .cls-8 {
        clip-path: url(#clippath-6);
      }

      .cls-9 {
        clip-path: url(#clippath-8);
      }

      .cls-10 {
        clip-path: url(#clippath-5);
      }

      .cls-11 {
        fill: #7d7d7d;
      }

      .cls-12 {
        fill: #fff;
      }

      .cls-2 {
        stroke: #c0dd9b;
        stroke-miterlimit: 10;
        stroke-width: .6px;
      }

      .cls-13 {
        clip-path: url(#clippath);
      }

      .cls-14 {
        fill: #c0dd9b;
      }
    </style>
    <clipPath id="clippath">
      <rect class="cls-1" x="0" y="0" width="151.68" height="192.23"/>
    </clipPath>
    <clipPath id="clippath-1">
      <rect class="cls-1" x="0" y="0" width="151.68" height="192.23"/>
    </clipPath>
    <clipPath id="clippath-2">
      <rect class="cls-1" x="0" y="0" width="151.68" height="192.23"/>
    </clipPath>
    <clipPath id="clippath-3">
      <rect class="cls-1" x="0" y="0" width="151.68" height="191.34"/>
    </clipPath>
    <clipPath id="clippath-4">
      <rect class="cls-1" x="0" y="0" width="151.68" height="192.23"/>
    </clipPath>
    <clipPath id="clippath-5">
      <path class="cls-1" d="M54.03,170.25c-.7.2.24.72-.58,1.02-.82.31-1.89,1.12-.92,1.07.97-.05,2,.16,2.66.16s.61-.83.61-1.33.51-1.12-.61-1.12c-.39.01-.78.08-1.16.2"/>
    </clipPath>
    <clipPath id="clippath-6">
      <rect class="cls-1" x="0" y="0" width="151.68" height="192.23"/>
    </clipPath>
    <clipPath id="clippath-7">
      <rect class="cls-1" x="0" y="0" width="151.68" height="192.23"/>
    </clipPath>
    <clipPath id="clippath-8">
      <path class="cls-1" d="M60.4,160.65c-.13.37-.3.74-1.15.57-1.72-.35-4.42-.1-2.71.85,1.71.95,3.24,2.4,4.37,3.1s1.93-.76,2.46-1.62c.54-.86,2.05-1.37.15-2.55-.69-.39-1.42-.7-2.19-.9-.13-.04-.25-.05-.34-.05-.4,0-.48.31-.59.61"/>
    </clipPath>
  </defs>
  <g id="_圖層_1-2" data-name="圖層_1">
    <g>
      <polygon class="cls-12" points="128.46 54.21 128.2 55.18 126.44 56.48 123.62 56.27 117.92 54.09 116.95 54.8 116.3 56.74 114.76 57.31 114.15 59.53 111.06 61.51 112.47 62.89 110.04 63.47 109.65 64.28 108.06 64.71 108.18 66.36 110.53 67.28 110.36 69.29 107.57 71.21 107.66 72.78 106.43 74.95 107.41 75.71 107.67 79.01 106.83 79.94 106.63 81.33 105.43 82.81 105.23 84.51 103.68 86 103.39 87.44 104.48 88.21 104.34 89.69 105.49 90.25 104.48 93.49 104.68 94.8 103.14 97.09 100.33 97.69 99.87 100.64 98.94 102.02 97.03 101.66 94.88 102.08 93.07 103.72 94.4 105.2 91.42 106.47 91.42 108.23 90.26 109.14 90.18 110.55 92.36 111.05 94.02 112.31 92.94 114.1 94.08 114.31 94.71 117.38 97.98 117.7 98.27 118.77 102.37 119.22 103.36 122.62 107.34 124.51 109.23 123.88 109.8 120.43 110.99 119.32 113.08 115.22 112.33 113.94 115.43 110.73 114.32 108.83 114.32 107.33 117.56 105.43 119.21 105.43 120.24 106.96 120.42 106.37 121.36 102.87 120.88 102.05 122.58 97.5 122.84 95.35 123.43 93.38 123.83 90.62 125.22 87.85 125.05 85.63 125.65 84.95 127.07 80.92 127.21 76.98 127.83 75.22 129.48 74.16 129.51 73.33 128.63 72.49 127.75 70.78 127.95 69.54 128.52 68.63 130.31 67.32 130.62 65.22 130.19 64.28 131.16 62.64 133.46 61.31 134.02 60.27 134.93 60.08 135.84 59.02 136.13 57.74 136.78 57.07 128.46 54.21"/>
      <polygon class="cls-12" points="118.82 106.01 117.77 106.01 115 107.64 115 108.69 116.22 110.81 113.13 114.02 113.83 115.2 111.57 119.64 110.44 120.68 109.85 124.29 107.29 125.15 102.77 123.01 101.83 119.74 97.71 119.29 97.42 118.23 94.13 117.9 93.49 114.79 92.43 114.6 89.43 114.99 87.75 116.74 85.73 117.28 85.22 120.53 82.92 122.29 82.92 123.93 83.55 124.51 83.4 129.07 80.02 131.73 80.07 135.01 80.69 136.65 82.59 137.86 81.56 139.39 82.11 140.43 84.88 141.55 84.54 143.61 83.92 144.22 83.72 146.82 81.09 147.13 79.42 147.88 78.53 147.88 77.46 148.93 77.79 149.6 75.74 152.27 74.63 156.11 76.28 159.1 75.43 160.79 77.78 163.65 76.45 164.46 75.03 164.86 75 166.43 76.02 167.06 77.82 167.57 77.64 169.26 77.2 169.63 78.17 171.04 78.43 172.33 79.85 172.56 81.56 174.06 83.54 174.06 83.62 168.47 84.99 165.5 86.97 161.21 88.93 155.65 90.38 154.32 90.89 153.65 91 152.34 91.46 151.04 93.17 149.45 97.65 147.08 99.92 145.68 101.23 143.87 102.17 142.54 102.22 141.52 101.82 140.44 101.77 139.88 102.17 139.23 105.4 137.61 107.76 133.77 109.46 132.42 109.92 130.85 111.11 128.95 111.96 126.22 112.98 125.42 114.8 124.89 115.03 121.65 114.6 120.42 114.6 119.53 115.71 118.25 115.71 117.77 115.94 116.56 117.35 113.92 118.29 113.3 118.66 111.97 119.98 107.76 118.82 106.01"/>
      <polygon class="cls-12" points="37.57 100.67 37.5 101.91 40.18 101.47 41.78 101.97 44 101.71 44.44 101.34 43.6 100.37 45.77 98.86 46.6 100.23 49.76 98.27 50.11 97.3 52.72 96.19 54.14 95.16 55.93 95.71 58.63 94.62 60.6 94.62 61.89 96.61 63.99 97.29 68.03 97.38 70.42 98.56 73.68 98.16 73.23 95.81 71.1 96.54 67.74 94.93 68.37 92.67 68.12 89.84 69.03 88.9 69.31 87.99 68.42 86.47 60.44 86.11 57.1 84.43 51.82 84.15 48.32 84.68 43.74 84.03 41.97 85.84 40.44 88.65 40.18 91.69 39.3 91.16 38.39 92.07 36.94 95.55 36.97 97.94 37.57 100.67"/>
      <path class="cls-12" d="M63.1,111.74l-1.27,2.07,1.12,2.9-1.23.62,1.26.83h1.75l.93-.96,2.6.29-1.18-3.38,1.4-.91,1.98,1.26,2.92-1.09,1.89-2.45,1.7.09,2.55-1.98,1.46-2.78,1.93-.04,2.23-1.62-.85-.49-2.68.64-2.29-.39.05-2.6-1.77-2.88.47-1.19-1.44-1.01-2.6-.21.42,2.19-4.19.51-2.44-1.2-3.98-.08-2.44-.8-1.22-1.86h-1.41l-2.81,1.13-1.68-.53-1.19.86-2.42,1.03-.33.92-3.99,2.48-.81-1.34-1.02.71.8.93-1.02.86-2.6.31-1.57-.49-2.4.39.69.84-.71.46.06.41.51,1.35-.77.55v1.76l.65.63-.15.37h-.94l-.23,1.35-.17,2.38,1.34-.1,2.34,1.45,1.41.03,2.93-1.98.74-1.45,5.24-2.93h.09l6.29-.29,3.35.83-.41,1.49,3.08,2.12ZM59.75,105.45l-1.57-.47-.8,1.25-1.12-.19-1-1.21-1.96-.05-.89-2.67,2.49-.32.65-.98,2.44.05.82,1.44,1.76.93.74.86-1.56,1.35Z"/>
      <polygon class="cls-12" points="38.22 132.2 39.36 135.27 39.5 135.81 42.78 135.38 44.11 136.08 46.97 136.05 48.43 136.46 51.11 136.54 53.26 135.15 54.29 135.04 57.39 130.5 60.13 128.99 61.26 126.8 62.65 127.02 64.37 125.48 67.41 120.64 68.19 119.86 68.38 118.09 65.95 117.82 65.05 118.75 62.75 118.75 60.53 117.28 62.12 116.44 61.09 113.75 62.24 111.88 59.24 109.86 59.61 108.55 56.98 107.9 50.89 108.18 45.98 110.93 45.26 112.35 42.01 114.56 40.13 114.51 37.83 113.08 36.47 113.18 35.75 114.1 35.69 115.23 35.1 116.41 36.12 118.1 34.47 118.37 34.19 119.55 33.11 121.17 33.28 122.3 34.28 123.73 32.83 124.55 32.66 127.45 33.79 127.35 32.43 128.27 32.6 128.58 34.05 129.06 35.53 130.15 38.22 132.2"/>
      <path class="cls-12" d="M119.93,16.82l-.96-1.49,1.59-1.41.14-1.37-1.15-.69-1.3-.3-.25-1.66,1.79-2.15,1.69-.27.48-1.36,1.21-.14.54-1.24,2.1,1.12-.2,1.43,1.41.87.24,1.15-.42,1.2.74.2.82,1.35-.37,1.49,1.53,1.66-.7.74-1.74.48-.14,1.59,1.04.85-2.5.99-1.76-.48-.52-1.43-1.17-1.04-.24-.74-.61.83-1.29-.16ZM121.93,0l-3.15,2.1-1.31.24-.77,2.03-.91.6-.65,2.41-1.54,1.12-3.15,1.09-1.99.22-.77.06.65.71,2.76,2.04,3.21,1.23.48,2.47-1.88,2.37-2.38.34.12,3.72,1.45.89-.22,2.28,4.4.41,1.25,2.06-.99,2.35.21,2.02,2.41,1.16.03,1.53,1.32.04,2.89-1.86,2.09-.75.07-3.11,2.18-2.01,4.02-.81,1.49-1.88,3.53-.34,1.39-2.44,2.39-.38-.21-1.35.74-.81.24-.82,2.55-.15,3.59-1.98,2.2,1.06,2.01-1.67-.99-.48-3.41-.53-.09-1.11-.45-.74-.26-3.69-2.21.26-3.27-.4-1.79.64-.7.43-.83.09-1.3.74.52,1.84-1.42,1.05-1.08-.03-3.35-.97-.3-.93-1.09-.31-.72-2.04-1.01-.72,1.08-1.11h1.98l1.93-1.64.35-1.28-.06-1.04-1.97,1.04-1.93-1.62-.25-1.35-1.16-1.23-1.78-1.06h-4.2Z"/>
      <polygon class="cls-12" points="147.5 17.49 144.11 19.35 141.88 19.48 141.72 20.02 141.07 20.73 141.32 22.38 138.62 22.83 137.22 25.3 133.63 25.64 132.19 27.49 128.1 28.31 126.24 30.03 126.17 33.3 123.74 34.15 120.72 36.05 118.94 36 117.67 36.62 117.32 38.46 115.32 40.35 115.76 41.57 114.82 41.84 114.89 44.11 114.07 44.41 113.3 45.45 111.14 46.86 109.67 48.75 109.69 49.19 110.68 49.75 110.81 51.27 113.28 52.57 116.35 52.06 118.06 53.51 123.79 55.7 126.22 55.88 127.59 54.87 127.98 53.42 137.24 56.6 137.43 56.41 137.43 54.6 137.91 53.68 138.25 52.42 138.45 50.35 140.02 48.49 140.3 47.96 142.46 46.51 141.46 45.42 141.55 44.5 143.48 43.9 143.39 42.16 143.45 39.31 142.37 38.54 140.58 33.61 140.81 32.82 140.21 31.35 140.24 28.81 140.78 26.27 141.21 24.75 143.37 22.58 143.85 21.98 146.91 18.93 148.99 18.21 147.5 17.49"/>
      <polygon class="cls-12" points="85.89 32.57 85.98 33.84 86.46 33.9 86.71 32.87 88.7 30.59 90.55 29.88 91.76 29.97 92 28.85 90.51 27.74 88.22 27.51 88.14 27.38 86.52 25.04 86.43 25.55 84.87 26.71 84.96 28.06 84.45 29.97 83.36 31.67 85.89 32.57"/>
      <polygon class="cls-12" points="61.89 65.2 63.02 67 67.75 69.16 68.42 71.92 70.94 72.56 71.48 73.71 73.9 73.36 74.89 73.88 77.47 73.11 78.45 70.37 80.17 70.09 80.26 68.15 81.36 66.7 83.35 67.72 83.47 68.07 84.2 67.38 85.36 67.94 87.7 66.49 88.98 67.24 90.17 66.69 90.83 64.78 93.88 64.9 95.96 62.89 99.55 61.88 100.34 60.71 102.22 61.17 104.9 60.86 106.37 59.7 107.37 60.6 110.13 60.6 110.62 61.07 113.54 59.19 114.18 56.9 115.73 56.32 116.35 54.47 117.36 53.74 116.12 52.69 113.15 53.18 110.16 51.61 110.03 50.07 109.03 49.51 109.01 49.15 107.51 49.87 105.87 49.79 105.33 50.43 105.13 52.47 103.59 52.87 102.64 52.02 93.71 57.75 92.27 57.35 91.07 55.79 87.78 55.14 86.23 55.34 85.58 57.2 84.38 57.93 80.53 57.89 78.1 56.31 76.15 56.1 74.87 55.1 70.15 51.96 67.54 48.5 64.57 51.96 64.18 53.05 62.56 55.56 62.16 57.3 61.17 57.86 60.8 59.74 59.01 62.26 61.89 65.2"/>
      <polygon class="cls-12" points="70.65 51.56 75.31 54.66 76.45 55.55 78.36 55.76 80.76 57.31 84.16 57.34 84.99 56.84 85.7 54.83 87.81 54.55 91.49 55.28 92.71 56.86 93.58 57.11 102.72 51.25 103.8 52.21 104.49 52.03 104.67 50.22 105.37 49.4 105.34 48.25 103.26 45.42 97.93 45.32 96.51 46.05 94.63 46.12 94.04 44.42 94.81 43.62 93.3 42.79 95.19 41.51 94.95 39.46 94.27 38.92 91.59 38.08 91.17 37.04 89.79 36.87 88.71 35.33 88.4 34.07 87.76 34.17 87.02 34.54 87.02 34.54 85.36 34.35 85.25 32.97 82.4 31.96 81.38 33.25 81.21 35.69 81.21 36.15 80.59 36.17 79.74 36.27 79.76 35.81 77.12 35.96 75.45 37.14 75.42 39.05 72.95 39.12 71.87 40.64 71.67 41.44 70.9 42.74 70.57 44.12 69.77 45.95 69.09 46.75 68.75 47.45 68.03 48.07 70.65 51.56"/>
      <g class="cls-13">
        <path class="cls-12" d="M109.53,62.99l1.73-.41-1.43-1.42h-2.74l-.74-.66-1.14.89-3.03.35-1.51-.37-.65.97-3.66,1.06-2.18,2.1-2.84-.12-.59,1.7-1.8.85-1.23-.73-2.3,1.43-1.07-.51-1.2,1.12-.37-1.13-1.19-.61-.64.85-.1,2.25-1.86.3-.96,2.68-3.22.96-1.04-.55-2.71.39-.02-.04-2.23-.13.53,1.49-.95,1.7-.37,3.94-.8.83,1.04,1.92,2.5.32,1.12,1.02-2.08,1.15-.57-.03.84,1.43-.37,1.23-.83.86.23,2.68-.56,1.9,2.63,1.27,2.6-.91.17.87,2.96.24s.04.01.06.02l1.92,1.35-.51,1.35,1.72,2.79-.05,2.26,1.58.27,2.83-.67,1.42.82,3.45.37,1.84,1.29,2.23-.95-1.18-1.31,2.35-2.14,2.5-.48,1.57.29.62-.91.5-3.22,2.98-.64,1.27-1.9-.19-1.24.92-2.92-1.07-.51.15-1.55-1.12-.79.39-1.93,1.54-1.49.19-1.67,1.21-1.49.19-1.41.8-.88-.22-2.86-1.14-.85,1.38-2.43-.1-1.72,2.82-1.94.12-1.36-2.29-.89-.17-2.45,1.79-.48.39-.83Z"/>
      </g>
      <polygon class="cls-12" points="119.84 11.32 121.4 12.26 121.21 14.17 119.81 15.42 120.37 16.29 120.88 16.35 122.07 14.71 122.68 16.61 123.84 17.62 124.31 18.9 125.48 19.21 126.83 18.67 126.28 18.22 126.47 15.97 128.46 15.43 128.68 15.2 127.3 13.69 127.67 12.14 127.09 11.17 125.98 10.87 126.54 9.25 126.38 8.47 124.87 7.54 125.07 6.14 124.05 5.61 123.65 6.51 122.48 6.65 122.01 7.97 120.19 8.26 118.71 10.05 118.87 11.1 119.84 11.32"/>
      <polygon class="cls-12" points="133.33 7.03 131.29 8.77 129.35 8.77 128.9 9.23 129.55 9.7 130.22 11.61 131.32 11.89 131.63 12.83 134.53 13.67 135.24 13.69 136.15 13.03 135.61 11.15 137.43 10.09 138.26 10.01 138.88 9.64 139.84 9.29 136.98 7.66 135.47 8.84 135.36 8.04 134.76 7.56 133.57 7.27 133.33 7.03"/>
      <polygon class="cls-12" points="58.3 102.71 57.57 101.44 55.95 101.41 55.35 102.32 53.29 102.58 53.84 104.2 55.65 104.24 56.69 105.5 57.03 105.56 57.87 104.25 59.58 104.77 60.43 104.05 60.11 103.67 58.3 102.71"/>
      <polygon class="cls-12" points="94.46 20.37 94.69 22.53 97.42 22.69 98.35 23.8 100.72 24.05 100.09 26.02 103.97 28.02 106.1 28.05 107.72 30.28 109.33 30.31 108.96 32.05 109.73 32.77 109.3 34.21 111.4 35 112.55 36.85 112.62 39.18 113.17 40.04 114.78 40 116.68 38.2 117.05 36.26 118.52 35.54 118.49 34.24 116.11 33.09 115.86 30.64 116.79 28.41 115.85 26.85 111.15 26.42 111.4 23.9 109.99 23.03 109.84 18.54 112.51 18.16 114.08 16.18 113.7 14.24 110.74 13.1 107.85 10.96 106.89 9.93 104.75 10.09 98.87 12.51 95.89 13.38 92.48 15.07 91.43 16.69 90.86 18.67 89.23 20.25 94.46 20.37"/>
      <g class="cls-3">
        <path class="cls-12" d="M88.64,26.96l2.16.22,1.95,1.44-.42,1.98-1.65-.13-1.53.59-1.78,2.06-.16.67.32-.16,1.41-.23.41,1.73.85,1.22,1.49.17.45,1.12,2.5.79.97.77.3,2.58-1.44.98,1.35.74-1.02,1.06.34.96,1.18-.04,1.44-.74,5.9.12,2.37,3.22.03,1.14,1.32.07,1.73-.83,1.55-1.99,2.16-1.41.82-1.12.58-.21-.07-2.3.79-.23-.23-.62-1.91.06-.84-1.29-.07-2.35-.97-1.54-2.41-.91.49-1.61-.74-.69.29-1.37-1.18-.02-1.62-2.23-1.93-.03-4.48-2.3.56-1.76-1.91-.19-.93-1.09-2.97-.17-.23-2.14-5.13-.11-.11,1.61-1.27.31-.56,1.49c.62.88,1.3,1.89,1.88,2.73"/>
      </g>
      <polygon class="cls-12" points="54.22 158 56.25 154.15 55.11 152.58 55.82 149.48 56.63 147.39 56.63 142.82 57.95 139.33 62.69 140.21 64.84 138.92 66.42 137.06 69.75 137.33 70.72 138.27 72.21 137.15 74.05 137.24 76.41 138.77 77.13 139.76 78.6 138.4 80.12 138.25 81.08 138.93 81.7 138.01 80.11 137.01 79.39 135.11 79.34 131.48 82.73 128.81 82.86 124.73 82.24 124.16 82.24 122.03 84.58 120.25 85.12 116.84 87.36 116.24 89.07 114.45 92.21 114.04 93.17 112.44 92.03 111.57 89.47 110.99 89.59 108.87 90.74 107.97 90.74 106.43 89.01 105.21 85.82 104.87 83.19 106.78 81.45 106.82 80.1 109.38 77.24 111.6 75.65 111.52 73.87 113.84 70.4 115.13 68.52 113.93 67.89 114.33 69.08 117.74 69.1 117.74 69.09 117.78 69.23 118.19 69.05 118.16 68.85 120.09 67.98 120.96 64.93 125.82 62.88 127.65 61.66 127.45 60.67 129.38 57.9 130.91 54.71 135.57 53.52 135.71 51.33 137.12 48.31 137.03 46.86 136.63 43.92 136.67 42.64 135.98 39.65 136.37 39.84 137.08 40.89 140.13 42.85 144.52 45.01 147.46 44.16 149.61 43.93 151.01 45.58 153.93 50.75 159.03 52.76 159.08 54.03 159.7 54.22 158"/>
      <polygon class="cls-12" points="65.33 139.34 62.84 140.84 58.4 140 57.31 142.91 57.31 147.47 56.47 149.64 55.83 152.47 57.01 154.11 54.88 158.15 54.68 160.02 56.03 160.67 56.19 161.91 57.05 162.82 64.03 165.94 64.68 166.68 65.22 167.87 66.05 168.45 67.75 170.14 68.26 171.95 68.61 173.23 69.03 173.52 70.19 174.87 70.48 175.93 71.58 179.46 71.79 179.96 71.96 181.08 71.39 184.07 70.73 185.18 70.76 186.61 72.13 188.18 72.21 191.03 73.77 191.82 74.31 191.39 74.43 190.3 75.5 189.6 81.21 192.23 81.64 192.23 80.53 189.91 80.53 188.3 83.2 186 83.51 185.3 83.43 182.11 83.53 174.64 81.28 174.64 79.51 173.1 77.84 172.83 77.52 171.24 76.36 169.53 76.98 169 77.09 167.97 75.7 167.58 74.31 166.72 74.37 164.44 76.14 163.94 76.84 163.51 74.65 160.86 75.54 159.11 73.91 156.17 75.11 152.04 77.02 149.53 76.68 148.81 78.22 147.3 79.26 147.3 80.88 146.57 83.08 146.31 83.26 143.99 83.9 143.36 84.14 141.89 81.6 140.87 80.9 139.56 79.91 138.85 78.93 138.95 77.01 140.72 75.89 139.16 73.8 137.81 72.45 137.74 70.66 139.08 69.41 137.89 66.75 137.66 65.33 139.34"/>
      <polygon class="cls-12" points="58.64 62.78 58.85 62.99 58.64 62.78 58.64 62.78"/>
      <polygon class="cls-12" points="44.28 83.52 48.31 84.1 51.78 83.57 57.31 83.86 60.65 85.54 69.58 85.95 70.79 85.28 70.38 84.91 67.75 84.57 66.38 82.04 67.32 81.07 67.7 77.21 68.59 75.61 67.85 73.55 70.75 73.72 70.43 73.04 67.84 72.37 67.15 69.54 62.51 67.42 61.32 65.52 59.19 63.34 58.44 63.41 56.08 65.71 55.4 67.42 55.32 68.7 53.55 70.78 51.14 72.47 48.56 76.84 46.17 81.06 44.92 82 44.98 82.9 44.28 83.52"/>
      <polygon class="cls-12" points="118.52 176.61 117.73 176.19 118.13 175.77 119.64 176 124.75 175.77 124.75 176.19 124.62 176.81 125.09 177.85 124.95 178.22 124.41 178.44 124.37 179.03 124.46 179.69 127.73 181.64 126.86 183.24 124.86 183.12 123.05 181.16 121.34 181.07 118.61 178.99 118.52 176.61"/>
      <polygon class="cls-12" points="113.77 149.71 113.77 149.19 115.62 148.94 117.96 149.71 118.15 150.92 117.15 152.06 117.27 152.7 116.93 152.8 115.78 152.09 114.6 151.44 114.26 150.01 113.77 149.71"/>
      <g class="cls-6">
        <path class="cls-12" d="M19.05,119.69c-.38-.4-.58-.94-.58-1.49,0-.92.16-1.66-.41-1.97-.33-.18-.7-.3-1.07-.33-.11-.26-.37-.44-.65-.43-.46.03-.2.37-.77.43s-.51.03-.82-.31-.61-.28-.87-.43c-.26-.15.51-.37-.33-.51-.41-.1-.84-.1-1.25,0l-.14.43s-.03,0,.37.56c.4.56.44,1.25.37,1.25-.41-.04-.81-.06-1.22-.05-.49.03-.84.11-.92.29-.11.33-.2.67-.26,1.02.05.34-.12.67-.43.82-.54.37-1,.77-.97.84.42.65.93,1.23,1.51,1.74.56.37,1.61.97,1.61.97.58-.33,1.13-.72,1.64-1.15.37-.4.69-1.79,1.35-1.99.66-.2,1.05-.54,1.49-.25.63.3,1.28.54,1.94.71.14.06.42-.15.42-.15"/>
        <path class="cls-12" d="M17.46,112.05c.44-.05.51.72.51.72.05.24-.11.46-.34.51-.06.01-.11.01-.17,0-.52-.03-1.04-.03-1.56,0,0,0-.15.74-.37.69-.22-.06-.59-.03-.79-.2-.2-.18-.03-.67.18-.94.2-.28.44-.9.9-.95.55.01,1.1.07,1.65.18"/>
        <path class="cls-12" d="M12.11,111.13c.69.06,1.25-.15,1.56.43.27.49.37,1.06.28,1.61-.1.3-.23.59-.71.37-.46-.26-.98-.39-1.51-.37-.49.07-1-.02-1.43-.26-.27-.15-.56-.25-.87-.28-.26-.07-.14-.71.28-1,.42-.28.87-.65,2.41-.51"/>
        <path class="cls-12" d="M7.41,112.72c.94.23.51.53,1.25.59.74.05.83.16.63.66s-.68.92-1.04,1.53c-.36.61-.62.49-.62,1.44s.23,1.49-.37,1.97c-.6.48-.9.64-1.69.51-.79-.13-1.35.06-1.81.04s-.37-.91-.28-1.17c.09-.26.41-.41,1.1-.66.69-.26,1.2-.64,1.18-1.02s-.2-.54-.15-.89c.08-.27.14-.54.18-.82.1-.74,0-1.38.28-1.64.28-.26.75-.69,1.35-.55"/>
        <path class="cls-12" d="M7.56,121.81c.53,0,1.05.14,1.51.41.43.26.74.41.64.85-.11.44-.25.69-.64.59s-.81-.28-1.11-.18c-.27.12-.57.19-.87.2-.37,0-.91-.37-.68-.71.24-.34.49-1.19,1.15-1.15"/>
      </g>
      <g class="cls-4">
        <path class="cls-12" d="M14.25,105.35c.41,0,.59.72.72,1.38.13.67.05.97-.35,1.35s-1.16.21-1.75.23c-.59.03-.71-.37-.33-.97s.33-1.02.77-1.2c.43-.18.43-.8.94-.8"/>
        <path class="cls-12" d="M3.7,134.26c.2.66-.77.71-.87,1.33-.1.61-.1,1.58-.82,1.33-.71-.26-1.94-1.11-1.99-1.79-.05-.67,0-1.68,1.12-1.53.87.15,1.73.37,2.57.67"/>
      </g>
      <g class="cls-5">
        <path class="cls-12" d="M9.07,135.94c1,.24.97.24.92,1.01-.05.78-.51,1.18-1.17.98-.67-.2-.72-.32-1.18-.98-.46-.65.56-1.22,1.43-1.01"/>
        <path class="cls-12" d="M16.43,137.58c-.12,1.03-.16,1.49.46,1.49s.41,0,1.02-.79c.61-.79,1.12-1.89.51-1.84-.6.05-.11.82-.9.87-.79.05-1.01-.45-1.09.27"/>
        <path class="cls-12" d="M29.36,37.77c.72,0,.51-.67,1.33-.67s1.44-.15,1.74-.87c.3-.71-.26-1.07-1.23-1.07s-.82.81-1.38.86c-.56.05-1.07.2-1.11.82-.07.43.23.84.66.92"/>
        <path class="cls-12" d="M29.05,38.33c.6.07.26.77.26,1.58s-.15,1.18.41,1.18.3.31,0,.56-1.43-.09-1.43.57c0,.65-.56,1.27,0,1.37.32.06.65.06.97,0,0,0,0,.1-.57.56-.57.46-.44.46-.65,1.23-.21.77-.04,1.38,0,2.15.04.77.82,1.75.25,1.75s-.92.47-1.49,0-1.23-.42-1.94-.42-1.12,0-.92-.37,1.02-.66,1.12-1.49c.09-.83.31-1.23.1-1.89-.2-.67-.77-1.21-.41-1.22.46.05.92.05,1.38,0,.61-.11,1.18-.72,1.18-1.18s-.28-.87-.35-1.64-.55-1.33,0-1.58c.55-.26,1.02.05,1.32-.37s-.04-.88.77-.78"/>
        <path class="cls-12" d="M102.19,137.98s.03-.09.05-.13c0-.09-.02-.18-.05-.26v.39Z"/>
        <path class="cls-14" d="M54.03,170.25c-.7.2.24.72-.58,1.02-.82.3-1.89,1.12-.92,1.07.97-.05,2,.16,2.66.16s.61-.83.61-1.33.51-1.11-.61-1.11c-.39.01-.78.08-1.16.2"/>
      </g>
      <g class="cls-10">
        <rect class="cls-14" x="51.56" y="170.05" width="4.74" height="2.45"/>
      </g>
      <g class="cls-8">
        <path class="cls-12" d="M66.28,161.2c-.89-1.64-.89-1.54-.89-1.54h-2.48l-1.89.1-.99.99-1.29,1.96-.12.56,5.43,2.42.34.37c.45-.04,1.01.25,1.89.31,1.39.1,1.09.49,1.39-.4.3-.89,0-1.09-.2-2.38-.2-1.29-.29-.78-1.19-2.4"/>
        <path class="cls-14" d="M36.24,151.85c.14,0,.19.02.19.24,0,.53-.22,2.67-.27,3.05-.03.16-.13.2-.21.22-.22.05-.4.1-.45.1-.05-.38-.27-2.82-.28-3.39.04-.1.72-.23,1.01-.23h0ZM35.81,156.12c.35,0,.59.29.59.63,0,.4-.25.66-.66.66-.29,0-.61-.2-.61-.63,0-.36.23-.66.67-.66h0ZM32.84,153.87c-.33,0-.69.32-.73.99.37.03,1.06.02,1.28,0,.06,0,.12-.09.12-.19,0-.44-.2-.8-.66-.8h0ZM34.35,156.42c0,.4-.31.76-.47.84-.14.06-.52.16-.84.16-1.31,0-2.03-.72-2.03-2.04,0-1.09.71-2.13,1.93-2.13,1.14,0,1.59.83,1.59,1.55,0,.13,0,.23-.03.3-.03.14-.39.26-.76.35-.23.06-1.16.06-1.66.05.05.79.62,1.12,1.23,1.12.43,0,.86-.14,1.01-.21l.02.02ZM27.96,153.71c.07-.21.41-.47.66-.47.4,0,.56.38.57.94.26-.61.64-.94,1.12-.94.17,0,.34.08.42.15.04.1.04.36-.05.53-.04.19-.22.41-.35.42-.18-.07-.28-.09-.43-.09-.14,0-.4.11-.55.49-.05.14-.08.24-.08.44v1.88c0,.14-.02.22-.2.25-.31.04-.59.05-.92.05.02-.48.03-1.03.03-1.64v-1.52c0-.21-.05-.37-.21-.46v-.04ZM25.64,153.87c-.33,0-.69.32-.73.99.37.03,1.06.02,1.28,0,.06,0,.12-.09.12-.19,0-.44-.2-.8-.66-.8h0ZM27.15,156.42c0,.4-.32.76-.47.84-.13.06-.52.16-.84.16-1.31,0-2.03-.72-2.03-2.04,0-1.09.71-2.13,1.93-2.13,1.14,0,1.58.83,1.59,1.55,0,.13,0,.23-.03.3-.03.14-.39.26-.76.35-.23.06-1.16.06-1.66.05.05.79.62,1.12,1.23,1.12.43,0,.86-.14,1.01-.21l.02.02ZM21.69,154.01v-2.07c0-.2.07-.23.22-.25.22-.02.66-.03.94-.04-.02.34-.03.88-.03,1.63v2.91c0,.63.02.93.03,1.11-.18.05-.76.07-.96.07-.13,0-.19-.03-.19-.17v-2.47c-.18.02-.48.03-1.03.03h-1.38v2.33c0,.19-.07.23-.28.24-.24.03-.68.05-.87.04.02-.36.03-.89.03-1.65v-2.84c0-.61,0-.98-.03-1.15.23-.05.77-.07.96-.07.16,0,.19.08.19.49v1.87h2.4Z"/>
      </g>
      <polygon class="cls-14" points="60.6 163.32 38.19 158.99 53.23 171.53 38.19 158.99 60.6 163.32"/>
      <polygon class="cls-2" points="60.6 163.32 38.19 158.99 53.23 171.53 38.19 158.99 60.6 163.32"/>
      <g class="cls-7">
        <path class="cls-11" d="M65.71,145.84v.19c0,.1-.01.2-.02.29h.69v-.48h-.67ZM65.65,146.56c-.04.14-.08.26-.14.36-.12.21-.32.37-.6.49l-.14-.23c.26-.11.43-.25.53-.43.03-.06.05-.13.08-.19h-.64v-.24h.69c.01-.09.02-.19.02-.29v-.19h-.58v-.24h.58c-.07-.12-.14-.22-.2-.32l.22-.1c.09.13.17.27.25.42h.56c.11-.14.2-.28.28-.44l.25.09c-.08.13-.16.25-.25.36h.59v.24h-.52v.48h.66v.24h-.66v.81h-.25v-.81h-.73ZM64.67,144.84h2.18v-.37h-2.18v.37ZM64.67,145.42c0,.76-.13,1.42-.39,1.97l-.22-.19c.24-.46.36-1.05.36-1.77v-1.2h2.69v.86h-2.43v.34Z"/>
        <path class="cls-11" d="M69.43,146.07h.9v-.33h-.9v.33ZM70.33,145.21h-.9v.33h.9v-.33ZM68.26,146.07h.91v-.33h-.91v.33ZM69.18,145.21h-.91v.33h.91v-.33ZM69.18,144.41v-.33h.25v.33h1.44v.24h-1.44v.33h1.16v1.32h-.9c.27.32.69.56,1.26.74l-.11.24c-.65-.25-1.1-.58-1.37-.98h-.02v1.11h-.25v-1.11h-.03c-.23.39-.67.72-1.33,1l-.14-.23c.61-.23,1.03-.48,1.25-.77h-.91v-1.32h1.16v-.33h-1.44v-.24h1.44Z"/>
        <path class="cls-11" d="M74.57,147.07l-.19.13c-.09-.21-.22-.44-.38-.69l.19-.12c.17.26.29.48.38.68M73.37,147.35l-.06-.23c.07,0,.15.02.21.02s.1-.04.1-.11v-.83c-.18.01-.37.03-.56.04l-.05-.21.09-.02c.17-.09.37-.27.6-.52-.2.02-.41.04-.62.05l-.05-.2.09-.02c.18-.11.43-.4.75-.86l.23.09c-.26.34-.49.61-.69.78.16-.01.32-.03.48-.05.1-.12.2-.25.31-.38l.23.09c-.38.46-.71.8-.99,1.03.24-.02.48-.05.71-.08-.04-.09-.09-.17-.13-.25l.2-.09c.11.19.22.41.31.64l-.2.1-.08-.2c-.13.02-.26.03-.39.04v.91c0,.18-.09.27-.25.27h-.24ZM73.88,144.11c-.27.38-.55.67-.86.87l-.15-.18c.3-.19.55-.44.76-.74l.25.06ZM73.43,146.51c-.11.27-.24.5-.4.7l-.19-.13c.15-.19.28-.41.39-.67l.2.1ZM72.83,146.92l-.21.09c-.06-.23-.13-.44-.2-.62l.2-.07c.08.18.15.38.2.59M72.5,145.73h-.73v.23h.73v-.23ZM72.5,145.3h-.73v.24h.73v-.24ZM72.5,144.87h-.73v.24h.73v-.24ZM72.5,144.44h-.73v.24h.73v-.24ZM72.74,145.96h.19v.23h-.67v1.15h-.25v-1.15h-.65v-.23h.18v-1.73h1.2v1.73ZM71.82,146.38c-.08.33-.19.62-.35.87l-.19-.13c.15-.24.26-.5.33-.78l.21.04Z"/>
        <path class="cls-11" d="M57.36,149.12c0-.18,0-.32-.01-.49.09-.02.32-.04.54-.04.51,0,.88.2.88.71,0,.47-.39.7-.69.7-.09,0-.16-.01-.2-.04-.04-.02-.09-.11-.08-.19.04.01.13.02.18.02.17,0,.44-.09.44-.49s-.31-.49-.53-.49c-.07,0-.13,0-.19.01v1.6c0,.25,0,.36.01.43-.05.02-.2.03-.28.03-.04,0-.07-.01-.07-.07v-1.7Z"/>
        <path class="cls-11" d="M59.46,150.78c0,.07-.02.08-.08.09-.05.01-.14.01-.25.02,0-.14.01-.35.01-.57v-.61c0-.22,0-.33-.01-.41.06-.02.22-.04.28-.04.04,0,.05.02.05.22v1.29ZM59.3,148.5c.1,0,.17.07.17.18s-.07.19-.18.19c-.1,0-.18-.06-.18-.18,0-.13.11-.19.18-.19h0Z"/>
        <path class="cls-11" d="M61.06,149.92c0-.27-.12-.41-.34-.41-.18,0-.32.11-.41.21v1.07c0,.07-.01.08-.07.09-.08.01-.17.01-.25.01,0-.13.01-.35.01-.66v-.61c0-.13-.02-.19-.06-.23h0c.03-.07.14-.14.21-.14.11,0,.15.18.15.27.15-.15.35-.27.55-.27.42,0,.53.32.53.66v.49c0,.21,0,.36.01.45-.08.01-.18.03-.28.03-.04,0-.06-.02-.06-.05v-.91Z"/>
        <path class="cls-11" d="M62.44,149.44c-.18,0-.31.14-.31.37s.13.36.32.36c.2,0,.31-.17.31-.36s-.09-.36-.31-.36h0ZM62.03,151.13c0,.2.24.3.47.3.27,0,.47-.13.47-.32,0-.11-.05-.21-.26-.24-.11-.02-.23-.02-.32-.02-.08,0-.14.01-.18.04-.09.05-.18.14-.18.24h0ZM62.45,149.25c.09,0,.19.02.28.04.11.02.21.05.3.05s.18-.01.24-.03c0,.02.02.05.02.07,0,.11-.07.16-.2.17-.03,0-.08,0-.1,0,.05.09.06.17.06.25,0,.38-.28.55-.6.55-.08,0-.1,0-.15-.02-.04.04-.1.09-.1.11,0,.06.05.1.21.11.17.01.31.02.44.03.29.03.42.19.42.41,0,.38-.39.64-.83.64s-.68-.23-.68-.48c0-.15.18-.29.34-.38-.12-.05-.22-.15-.22-.28,0-.02,0-.03.03-.04.07-.05.17-.12.22-.18-.18-.08-.3-.25-.3-.47,0-.33.27-.58.63-.58h0Z"/>
        <path class="cls-11" d="M64.5,150.6c.01.07,0,.16-.07.21-.07.06-.21.1-.34.1-.32,0-.45-.2-.45-.48v-.91c-.13,0-.18-.04-.18-.08.04-.07.27-.28.32-.33.05-.04.11-.08.19-.09,0,.11-.02.2-.02.28h.57c-.04.19-.11.2-.18.21-.12,0-.14.01-.4.01-.02.36-.02.73,0,.89.02.21.13.26.26.26.11,0,.21-.04.27-.08h.01Z"/>
        <path class="cls-11" d="M64.8,149.71c0-.22,0-.33-.02-.41.06-.02.21-.04.28-.04.04,0,.05.02.05.22,0,.24,0,.49,0,.73,0,.37.19.42.35.42.17,0,.31-.11.38-.18v-1.05c0-.09.01-.1.06-.12.1-.01.19-.02.27-.02,0,.08-.01.33-.01.64v.57c0,.17.05.21.15.23v.02c0,.07-.09.18-.17.18-.15,0-.24-.1-.26-.26-.11.12-.23.18-.3.21-.07.03-.15.05-.23.05-.37,0-.54-.24-.54-.6v-.6Z"/>
        <path class="cls-11" d="M67.79,149.92c0-.27-.12-.41-.34-.41-.18,0-.32.11-.41.21v1.07c0,.07-.01.08-.07.09-.08.01-.17.01-.25.01,0-.13.01-.35.01-.66v-.61c0-.13-.02-.19-.06-.23h0c.03-.07.14-.14.21-.14.11,0,.15.18.15.27.15-.15.35-.27.55-.27.42,0,.53.32.53.66v.49c0,.21,0,.36.01.45-.08.01-.18.03-.28.03-.04,0-.06-.02-.06-.05v-.91Z"/>
        <path class="cls-11" d="M69.16,149.44c-.18,0-.31.14-.31.37s.13.36.32.36c.2,0,.31-.17.31-.36s-.09-.36-.31-.36h0ZM68.76,151.13c0,.2.24.3.47.3.27,0,.47-.13.47-.32,0-.11-.05-.21-.26-.24-.11-.02-.23-.02-.32-.02-.07,0-.14.01-.18.04-.09.05-.18.14-.18.24h0ZM69.17,149.25c.09,0,.19.02.28.04.1.02.21.05.3.05s.18-.01.24-.03c0,.02.02.05.02.07,0,.11-.07.16-.2.17-.03,0-.08,0-.1,0,.05.09.06.17.06.25,0,.38-.28.55-.6.55-.08,0-.1,0-.15-.02-.04.04-.11.09-.11.11,0,.06.05.1.21.11.17.01.31.02.44.03.29.03.42.19.42.41,0,.38-.39.64-.83.64s-.68-.23-.68-.48c0-.15.18-.29.34-.38-.12-.05-.22-.15-.22-.28,0-.02,0-.03.03-.04.07-.05.17-.12.22-.18-.18-.08-.3-.25-.3-.47,0-.33.27-.58.63-.58h0Z"/>
        <path class="cls-11" d="M72.9,150.58c-.01.1-.05.18-.11.23-.08.05-.27.12-.52.12-.81,0-1.24-.47-1.24-1.16,0-.73.55-1.2,1.26-1.2.33,0,.6.11.65.18,0,.13-.1.2-.18.17-.11-.05-.29-.11-.49-.11-.48,0-.89.31-.89.93,0,.54.34.94.97.94.22,0,.44-.07.54-.11h.01Z"/>
        <path class="cls-11" d="M73.93,149.46c-.24,0-.45.21-.45.59,0,.43.22.64.49.64.21,0,.43-.18.43-.61,0-.31-.13-.63-.47-.63h0ZM73.96,149.25c.5,0,.78.35.78.81s-.31.85-.8.85c-.53,0-.79-.39-.79-.81,0-.48.33-.85.81-.85h0Z"/>
        <path class="cls-11" d="M75.14,149.71c0-.22,0-.33-.01-.41.06-.02.21-.04.28-.04.04,0,.05.02.05.22,0,.24,0,.49,0,.73,0,.37.19.42.35.42.17,0,.31-.11.38-.18v-1.05c0-.09.01-.1.06-.12.1-.01.19-.02.27-.02,0,.08-.01.33-.01.64v.57c0,.17.05.21.15.23v.02c0,.07-.09.18-.17.18-.15,0-.24-.1-.26-.26-.11.12-.23.18-.3.21-.07.03-.15.05-.23.05-.37,0-.54-.24-.54-.6v-.6Z"/>
        <path class="cls-11" d="M78.12,149.92c0-.27-.12-.41-.34-.41-.18,0-.32.11-.41.21v1.07c0,.07-.01.08-.08.09-.08.01-.17.01-.25.01,0-.13.01-.35.01-.66v-.61c0-.13-.02-.19-.06-.23h0c.03-.07.14-.14.21-.14.11,0,.15.18.15.27.15-.15.35-.27.55-.27.42,0,.53.32.53.66v.49c0,.21,0,.36.01.45-.08.01-.18.03-.28.03-.04,0-.06-.02-.06-.05v-.91Z"/>
        <path class="cls-11" d="M79.84,150.6c.02.07,0,.16-.07.21-.07.06-.21.1-.34.1-.32,0-.45-.2-.45-.48v-.91c-.13,0-.18-.04-.18-.08.04-.07.27-.28.32-.33.05-.04.11-.08.19-.09,0,.11-.02.2-.02.28h.57c-.04.19-.11.2-.18.21-.12,0-.14.01-.4.01-.02.36-.01.73,0,.89.02.21.13.26.26.26.11,0,.21-.04.27-.08h.01Z"/>
        <path class="cls-11" d="M80.18,151.52c.12-.15.33-.45.48-.74-.02-.03-.05-.09-.08-.16-.05-.14-.35-.95-.51-1.29.07-.04.2-.08.26-.08.05,0,.06.02.08.07.1.26.32.89.41,1.14.14-.33.33-.91.4-1.21.06,0,.15.01.2.04.06.02.07.05.04.13-.11.39-.25.79-.44,1.21-.21.47-.55,1-.62,1-.09,0-.2-.05-.23-.09v-.02Z"/>
        <path class="cls-14" d="M44.78,179.45l-.23.16c-.16-.51-.38-1.08-.66-1.7l.23-.15c.28.65.5,1.21.65,1.68M42.39,180.23l-.06-.27c.18.01.35.02.52.02.13,0,.2-.07.2-.2v-2.76h.27v2.83c0,.25-.13.38-.37.38h-.55ZM42.34,177.95c-.17.72-.4,1.27-.68,1.64l-.22-.2c.29-.38.5-.9.65-1.55l.26.1Z"/>
        <path class="cls-14" d="M47.97,178.65v1.23c0,.06.04.09.11.09h.25v.22h-.34c-.17,0-.26-.1-.26-.28v-1.26h.23ZM47.38,180.19h-.23v-1.54h.23v1.54ZM48.28,178.47l-.19.14c-.05-.09-.1-.19-.17-.29-.3.05-.77.1-1.39.14l-.04-.24c.11-.02.21-.12.31-.29.06-.11.12-.22.18-.35h-.6v-.24h.71c.05-.13.11-.26.16-.4l.23.09c-.05.11-.09.22-.14.31h.94v.24h-1.06c-.13.26-.26.48-.37.65.34-.03.65-.07.94-.09-.08-.11-.16-.22-.23-.33l.19-.12c.22.29.4.55.52.77M46.85,178.66c-.01.46-.06.8-.14,1.01-.09.22-.23.42-.43.58l-.16-.2c.18-.14.3-.3.38-.49.07-.19.11-.49.12-.91h.23ZM45.6,178.3v-.85h-.43v-.25h1.14v.25h-.46v.85h.38v.24h-.38v.85c.16-.04.31-.09.46-.15v.25c-.35.12-.73.22-1.15.31l-.06-.24c.17-.03.33-.06.49-.1v-.92h-.39v-.24h.39Z"/>
        <path class="cls-14" d="M50.52,178.74l-.18.13c-.1-.18-.23-.38-.4-.61l.2-.13c.17.23.29.44.38.61M50.75,177.59v-.61h.25v.61h.61c-.11-.14-.26-.28-.44-.42l.15-.14c.18.14.34.28.46.42l-.14.15h.22v.25h-.85v.35c.05.17.12.34.19.5.16-.18.31-.38.44-.59l.2.14c-.17.27-.35.49-.53.67.18.33.41.62.69.87l-.17.2c-.35-.34-.63-.75-.83-1.23v1.19c0,.19-.1.3-.3.3h-.4l-.05-.25c.13.01.25.02.37.02.09,0,.13-.05.13-.13v-2.03h-.82v-.25h.82ZM50.59,179.19c-.2.27-.45.51-.76.72l-.1-.24c.31-.19.58-.42.8-.69l.06.22ZM49.88,177.21v.24h-.43v.84h.35v.25h-.35v.73c.14-.06.29-.13.43-.2v.25c-.35.18-.73.33-1.14.45l-.06-.26c.17-.04.34-.09.51-.15v-.83h-.41v-.25h.41v-.84h-.45v-.24h1.14Z"/>
        <path class="cls-14" d="M38.31,181.26c.11-.03.28-.06.35-.06.04,0,.07.04.15.14.24.36.38.57.64.92.25-.35.49-.69.69-.97.05-.06.08-.09.12-.09.06,0,.19.03.26.07h0c-.14.21-.52.71-.9,1.23.55.81.83,1.2.96,1.39h0c-.06.03-.2.07-.35.07-.04,0-.09-.01-.13-.09-.18-.25-.38-.57-.72-1.06-.26.38-.63.89-.76,1.08-.02.04-.06.06-.1.06-.07,0-.22-.02-.28-.04v-.02c.21-.28.61-.83.97-1.32-.25-.39-.73-1.06-.89-1.29h0Z"/>
        <path class="cls-14" d="M41.3,183.81c0,.08-.03.1-.09.11-.06.01-.16.02-.29.02,0-.18.01-.43.01-.68v-.73c0-.26,0-.4-.02-.49.07-.03.25-.04.32-.04.04,0,.06.02.06.27v1.55ZM41.13,181.09c.12,0,.19.09.19.21s-.08.22-.21.22c-.12,0-.21-.07-.21-.21,0-.15.12-.22.22-.22h0Z"/>
        <path class="cls-14" d="M42.1,183.42c0,.16.13.26.29.26.18,0,.31-.11.37-.2.02-.03.03-.07.03-.14v-.34c-.35.06-.69.18-.69.42h0ZM43.37,183.69c0,.18-.1.27-.28.27s-.28-.13-.3-.27c-.12.13-.32.27-.55.27-.3,0-.5-.23-.5-.49,0-.46.6-.59.84-.64.08-.02.16-.03.22-.04v-.13c0-.2-.12-.4-.38-.4-.16,0-.32.08-.44.16-.12.05-.17-.05-.18-.16.14-.12.42-.29.71-.29.44,0,.64.31.64.72,0,.19-.01.6,0,.86,0,.09.05.14.15.14.02,0,.06,0,.08,0h0Z"/>
        <path class="cls-14" d="M44.56,182.21c-.29,0-.54.26-.54.73,0,.53.27.79.58.79.26,0,.53-.22.53-.75,0-.4-.17-.77-.57-.77h0ZM44.6,181.97c.6,0,.92.43.92.98s-.37,1.01-.95,1.01c-.63,0-.94-.47-.94-.98,0-.57.39-1.01.96-1.01h0Z"/>
        <path class="cls-14" d="M46,181.51c0-.25,0-.39-.02-.48.09-.04.26-.06.32-.06.05,0,.06.02.06.28v2.08c0,.21,0,.44.02.57-.08.02-.27.03-.32.03-.04,0-.06-.01-.06-.06v-2.37Z"/>
        <path class="cls-14" d="M47.33,183.81c0,.08-.03.1-.09.11-.06.01-.16.02-.28.02,0-.18.01-.43.01-.68v-.73c0-.26,0-.4-.02-.49.07-.03.26-.04.32-.04.04,0,.06.02.06.27v1.55ZM47.16,181.09c.12,0,.19.09.19.21s-.08.22-.21.22c-.12,0-.21-.07-.21-.21,0-.15.12-.22.22-.22h0Z"/>
        <path class="cls-14" d="M47.94,182.52c0-.26,0-.39-.02-.49.07-.02.24-.04.32-.04.05,0,.06.02.06.27,0,.28,0,.6,0,.89,0,.46.23.52.42.52.2,0,.38-.13.45-.22v-1.28c0-.11.01-.13.07-.15.12-.01.21-.02.31-.02,0,.09-.01.4-.01.78v.69c0,.21.05.25.17.28v.02c0,.08-.1.2-.19.2-.18,0-.28-.12-.3-.31-.12.13-.27.21-.36.25-.09.03-.18.05-.28.05-.44,0-.63-.29-.63-.71v-.72Z"/>
        <path class="cls-14" d="M51.4,182.26c-.06-.03-.17-.06-.32-.06-.31,0-.67.22-.67.76,0,.41.25.7.65.7.11,0,.26-.04.35-.1v-1.31ZM51.77,182.03h.02c0,.13-.02.42-.02,1.03v1.67c0,.08-.02.1-.15.12-.09,0-.17.01-.22.01,0-.17.01-.41.01-.77v-.3c-.13.09-.35.17-.5.17-.5,0-.89-.34-.89-.94,0-.64.48-1.05,1.09-1.05.2,0,.37.04.46.07l.2-.02Z"/>
        <path class="cls-14" d="M52.74,183.81c0,.08-.03.1-.09.11-.06.01-.16.02-.28.02,0-.18.01-.43.01-.68v-.73c0-.26,0-.4-.02-.49.07-.03.26-.04.32-.04.04,0,.06.02.06.27v1.55ZM52.57,181.09c.12,0,.19.09.19.21s-.08.22-.21.22c-.12,0-.21-.07-.21-.21,0-.15.12-.22.22-.22h0Z"/>
        <path class="cls-14" d="M53.34,182.52c0-.26,0-.39-.02-.49.07-.02.24-.04.32-.04.05,0,.06.02.06.27,0,.28,0,.6,0,.89,0,.46.23.52.42.52.2,0,.38-.13.44-.22v-1.28c0-.11.01-.13.07-.15.12-.01.21-.02.31-.02,0,.09-.01.4-.01.78v.69c0,.21.05.25.17.28v.02c0,.08-.1.2-.19.2-.18,0-.28-.12-.3-.31-.12.13-.27.21-.36.25-.09.03-.18.05-.28.05-.44,0-.63-.29-.63-.71v-.72Z"/>
        <path class="cls-14" d="M60.4,160.65c-.13.37-.3.74-1.16.57-1.72-.35-4.42-.1-2.71.85s3.24,2.4,4.37,3.1,1.93-.76,2.46-1.62c.54-.86,2.05-1.37.15-2.55-.69-.39-1.42-.7-2.19-.9-.13-.04-.25-.05-.34-.05-.4,0-.48.31-.58.61"/>
      </g>
      <g class="cls-9">
        <rect class="cls-14" x="54.84" y="156.91" width="10.56" height="12.07" transform="translate(-109.93 127.59) rotate(-58)"/>
      </g>
    </g>
  </g>
</svg>