<?xml version="1.0" encoding="UTF-8"?>
<svg id="_圖層_2" data-name="圖層_2" xmlns="http://www.w3.org/2000/svg" xmlns:xlink="http://www.w3.org/1999/xlink" viewBox="0 0 151.68 192.23">
  <defs>
    <style>
      .cls-1 {
        fill: none;
      }

      .cls-2 {
        clip-path: url(#clippath-1);
      }

      .cls-3 {
        clip-path: url(#clippath-3);
      }

      .cls-4 {
        clip-path: url(#clippath-2);
      }

      .cls-5 {
        fill: #7d7d7d;
      }

      .cls-6 {
        fill: #fff;
      }

      .cls-7 {
        fill: #e34b49;
      }

      .cls-8 {
        clip-path: url(#clippath);
      }
    </style>
    <clipPath id="clippath">
      <rect class="cls-1" y="0" width="151.68" height="192.23"/>
    </clipPath>
    <clipPath id="clippath-1">
      <rect class="cls-1" y="0" width="151.68" height="192.23"/>
    </clipPath>
    <clipPath id="clippath-2">
      <rect class="cls-1" y="0" width="151.68" height="192.23"/>
    </clipPath>
    <clipPath id="clippath-3">
      <rect class="cls-1" y="0" width="151.68" height="192.23"/>
    </clipPath>
  </defs>
  <g id="_圖層_1-2" data-name="圖層_1">
    <g>
      <polygon class="cls-6" points="128.46 54.21 128.2 55.18 126.45 56.48 123.62 56.27 117.92 54.09 116.95 54.8 116.3 56.74 114.76 57.31 114.15 59.53 111.06 61.51 112.47 62.89 110.04 63.47 109.65 64.28 108.06 64.71 108.18 66.36 110.53 67.28 110.36 69.29 107.57 71.21 107.66 72.78 106.43 74.95 107.41 75.71 107.67 79.01 106.83 79.94 106.63 81.33 105.43 82.81 105.23 84.51 103.68 86 103.39 87.44 104.48 88.21 104.34 89.69 105.49 90.25 104.48 93.49 104.68 94.8 103.14 97.09 100.33 97.69 99.87 100.64 98.94 102.02 97.03 101.66 94.88 102.08 93.07 103.72 94.4 105.2 91.42 106.47 91.42 108.23 90.26 109.14 90.18 110.55 92.36 111.05 94.02 112.31 92.94 114.1 94.09 114.31 94.71 117.38 97.98 117.7 98.27 118.77 102.37 119.22 103.36 122.62 107.34 124.51 109.23 123.88 109.8 120.43 110.99 119.32 113.08 115.22 112.33 113.94 115.43 110.73 114.32 108.83 114.32 107.33 117.56 105.43 119.21 105.43 120.24 106.96 120.42 106.37 121.36 102.87 120.88 102.05 122.58 97.5 122.84 95.35 123.43 93.38 123.83 90.62 125.22 87.85 125.05 85.63 125.65 84.95 127.07 80.92 127.21 76.98 127.83 75.22 129.48 74.16 129.51 73.33 128.63 72.49 127.75 70.78 127.95 69.54 128.52 68.63 130.31 67.32 130.62 65.22 130.19 64.28 131.16 62.64 133.46 61.31 134.02 60.27 134.93 60.08 135.84 59.02 136.13 57.74 136.78 57.07 128.46 54.21"/>
      <polygon class="cls-6" points="118.82 106.01 117.77 106.01 115 107.64 115 108.69 116.22 110.81 113.13 114.02 113.83 115.2 111.57 119.64 110.44 120.68 109.85 124.29 107.29 125.15 102.77 123.01 101.83 119.74 97.71 119.29 97.42 118.23 94.13 117.9 93.49 114.79 92.43 114.6 89.43 114.99 87.75 116.74 85.73 117.28 85.22 120.53 82.92 122.29 82.92 123.93 83.55 124.51 83.4 129.07 80.02 131.73 80.07 135.01 80.69 136.65 82.59 137.86 81.56 139.39 82.11 140.43 84.88 141.55 84.54 143.61 83.92 144.22 83.72 146.82 81.09 147.13 79.42 147.88 78.53 147.88 77.46 148.93 77.79 149.6 75.74 152.27 74.63 156.11 76.28 159.1 75.43 160.79 77.78 163.65 76.45 164.46 75.04 164.86 75 166.43 76.02 167.06 77.82 167.57 77.64 169.26 77.2 169.63 78.17 171.04 78.43 172.33 79.85 172.56 81.56 174.06 83.54 174.06 83.62 168.47 84.99 165.5 86.97 161.21 88.93 155.65 90.38 154.32 90.89 153.65 91 152.34 91.46 151.04 93.17 149.45 97.65 147.08 99.92 145.68 101.23 143.87 102.17 142.54 102.22 141.52 101.82 140.44 101.77 139.88 102.17 139.23 105.4 137.61 107.76 133.77 109.46 132.42 109.92 130.85 111.11 128.95 111.96 126.22 112.98 125.42 114.8 124.89 115.03 121.65 114.6 120.42 114.6 119.53 115.71 118.25 115.71 117.77 115.94 116.56 117.35 113.92 118.29 113.3 118.66 111.97 119.98 107.76 118.82 106.01"/>
      <polygon class="cls-6" points="37.57 100.67 37.5 101.91 40.18 101.47 41.78 101.97 44 101.71 44.44 101.34 43.6 100.37 45.77 98.86 46.6 100.23 49.76 98.27 50.11 97.3 52.72 96.19 54.14 95.16 55.93 95.71 58.63 94.62 60.6 94.62 61.89 96.61 63.99 97.29 68.03 97.38 70.42 98.56 73.68 98.16 73.23 95.81 71.1 96.54 67.74 94.93 68.37 92.67 68.12 89.84 69.03 88.9 69.32 87.99 68.42 86.47 60.44 86.11 57.11 84.43 51.82 84.15 48.32 84.68 43.74 84.03 41.97 85.84 40.44 88.65 40.18 91.69 39.3 91.16 38.4 92.07 36.94 95.55 36.97 97.94 37.57 100.67"/>
      <path class="cls-6" d="M63.1,111.74l-1.27,2.08,1.12,2.9-1.23.62,1.26.83h1.76l.93-.96,2.6.29-1.17-3.39,1.4-.91,1.98,1.26,2.92-1.09,1.89-2.45,1.7.09,2.55-1.97,1.46-2.78,1.93-.04,2.23-1.62-.85-.49-2.68.64-2.29-.39.05-2.6-1.77-2.88.47-1.19-1.44-1.01-2.6-.21.42,2.19-4.19.51-2.44-1.2-3.98-.08-2.44-.8-1.22-1.86h-1.41l-2.81,1.13-1.68-.53-1.19.86-2.42,1.03-.33.92-3.99,2.48-.81-1.34-1.02.71.8.93-1.02.86-2.6.31-1.57-.5-2.39.39.69.84-.71.46.06.41.51,1.35-.77.55v1.76l.65.63-.14.37h-.94l-.23,1.35-.17,2.38,1.34-.1,2.34,1.45,1.41.03,2.93-1.98.74-1.45,5.24-2.93h.09l6.29-.29,3.35.83-.41,1.49,3.08,2.12ZM59.75,105.45l-1.57-.47-.8,1.25-1.12-.19-1-1.21-1.96-.05-.89-2.67,2.49-.32.65-.98,2.44.05.82,1.44,1.76.93.74.86-1.56,1.35Z"/>
      <polygon class="cls-6" points="38.22 132.2 39.36 135.27 39.5 135.81 42.78 135.38 44.11 136.08 46.97 136.05 48.43 136.46 51.11 136.54 53.26 135.15 54.29 135.04 57.39 130.5 60.13 128.99 61.26 126.8 62.65 127.02 64.37 125.48 67.41 120.64 68.19 119.86 68.38 118.09 65.95 117.82 65.05 118.75 62.75 118.75 60.53 117.28 62.12 116.44 61.09 113.75 62.24 111.88 59.24 109.86 59.61 108.55 56.98 107.9 50.89 108.18 45.98 110.93 45.26 112.35 42.01 114.56 40.13 114.51 37.83 113.08 36.47 113.18 35.75 114.1 35.69 115.23 35.1 116.41 36.12 118.1 34.47 118.37 34.19 119.55 33.11 121.17 33.28 122.3 34.28 123.73 32.83 124.55 32.66 127.45 33.79 127.35 32.43 128.27 32.6 128.58 34.05 129.06 35.53 130.15 38.22 132.2"/>
      <path class="cls-6" d="M119.93,16.82l-.96-1.49,1.59-1.41.14-1.37-1.15-.69-1.3-.3-.24-1.66,1.79-2.15,1.69-.27.48-1.36,1.21-.14.54-1.24,2.1,1.12-.2,1.43,1.41.87.24,1.15-.42,1.2.74.2.82,1.35-.37,1.49,1.53,1.66-.7.74-1.74.48-.14,1.59,1.04.85-2.5.99-1.76-.48-.52-1.43-1.17-1.04-.24-.74-.61.82-1.29-.16ZM121.93,0l-3.15,2.1-1.31.24-.77,2.03-.91.6-.65,2.41-1.54,1.12-3.15,1.08-1.99.22-.77.06.65.71,2.76,2.04,3.21,1.24.48,2.47-1.88,2.37-2.38.35.12,3.72,1.45.89-.22,2.28,4.4.41,1.25,2.06-.99,2.35.21,2.02,2.41,1.16.03,1.53,1.32.04,2.89-1.86,2.09-.74.07-3.11,2.18-2.01,4.02-.81,1.49-1.88,3.53-.34,1.39-2.44,2.39-.38-.21-1.35.74-.81.24-.82,2.55-.15,3.59-1.98,2.2,1.06,2.01-1.67-.99-.48-3.41-.53-.09-1.12-.45-.74-.26-3.69-2.21.26-3.26-.4-1.79.64-.7.44-.83.09-1.3.75.52,1.84-1.42,1.05-1.08-.03-3.35-.97-.3-.93-1.09-.31-.72-2.04-1.01-.72,1.08-1.12h1.98l1.93-1.64.35-1.28-.06-1.04-1.97,1.04-1.93-1.62-.25-1.35-1.16-1.23-1.78-1.06h-4.2Z"/>
      <polygon class="cls-6" points="147.5 17.49 144.11 19.35 141.88 19.48 141.72 20.02 141.07 20.73 141.32 22.38 138.62 22.83 137.22 25.3 133.63 25.64 132.19 27.49 128.1 28.31 126.24 30.03 126.17 33.3 123.74 34.15 120.72 36.05 118.94 36 117.67 36.62 117.32 38.46 115.32 40.35 115.76 41.57 114.82 41.84 114.89 44.11 114.07 44.41 113.3 45.45 111.14 46.86 109.67 48.75 109.69 49.19 110.68 49.75 110.81 51.27 113.28 52.57 116.35 52.06 118.06 53.51 123.79 55.7 126.22 55.88 127.59 54.87 127.98 53.42 137.24 56.6 137.43 56.41 137.43 54.6 137.91 53.68 138.25 52.42 138.45 50.35 140.02 48.49 140.3 47.96 142.46 46.51 141.46 45.42 141.55 44.5 143.48 43.9 143.39 42.16 143.45 39.31 142.37 38.54 140.58 33.61 140.81 32.82 140.21 31.35 140.24 28.81 140.78 26.27 141.21 24.75 143.37 22.58 143.85 21.98 146.91 18.93 148.99 18.21 147.5 17.49"/>
      <polygon class="cls-6" points="85.89 32.57 85.98 33.84 86.46 33.9 86.71 32.87 88.7 30.59 90.55 29.88 91.76 29.97 92 28.85 90.51 27.74 88.22 27.51 88.14 27.38 86.52 25.04 86.43 25.55 84.87 26.71 84.96 28.06 84.45 29.97 83.36 31.67 85.89 32.57"/>
      <polygon class="cls-6" points="61.89 65.2 63.02 67 67.75 69.16 68.42 71.92 70.94 72.56 71.48 73.71 73.9 73.36 74.89 73.88 77.47 73.11 78.45 70.37 80.17 70.09 80.26 68.15 81.36 66.7 83.35 67.72 83.47 68.07 84.2 67.38 85.36 67.94 87.7 66.49 88.98 67.24 90.17 66.69 90.83 64.78 93.88 64.9 95.96 62.89 99.55 61.88 100.34 60.71 102.22 61.17 104.9 60.86 106.37 59.7 107.37 60.6 110.13 60.6 110.62 61.07 113.54 59.19 114.18 56.9 115.73 56.32 116.35 54.47 117.36 53.74 116.12 52.69 113.15 53.18 110.16 51.61 110.03 50.07 109.03 49.51 109.01 49.15 107.51 49.87 105.87 49.79 105.33 50.43 105.13 52.47 103.59 52.87 102.64 52.02 93.71 57.75 92.27 57.35 91.07 55.79 87.78 55.14 86.23 55.34 85.58 57.2 84.38 57.93 80.53 57.89 78.1 56.31 76.15 56.1 74.87 55.1 70.14 51.96 67.54 48.5 64.57 51.96 64.18 53.05 62.56 55.56 62.16 57.3 61.17 57.86 60.8 59.74 59.01 62.26 61.89 65.2"/>
      <polygon class="cls-6" points="70.65 51.56 75.31 54.66 76.45 55.55 78.36 55.76 80.76 57.31 84.16 57.34 84.99 56.84 85.7 54.83 87.81 54.55 91.49 55.28 92.71 56.86 93.58 57.11 102.72 51.25 103.8 52.21 104.49 52.03 104.67 50.22 105.37 49.4 105.34 48.25 103.26 45.42 97.93 45.32 96.51 46.05 94.63 46.12 94.04 44.42 94.81 43.62 93.3 42.79 95.19 41.51 94.95 39.46 94.27 38.92 91.59 38.08 91.17 37.04 89.79 36.87 88.71 35.33 88.4 34.07 87.76 34.17 87.02 34.54 87.02 34.54 85.36 34.35 85.25 32.97 82.4 31.96 81.38 33.25 81.21 35.69 81.21 36.15 80.59 36.17 79.74 36.27 79.76 35.81 77.12 35.96 75.45 37.14 75.42 39.05 72.95 39.12 71.87 40.64 71.67 41.44 70.9 42.74 70.57 44.12 69.77 45.95 69.09 46.75 68.75 47.45 68.03 48.07 70.65 51.56"/>
      <g class="cls-8">
        <path class="cls-6" d="M109.53,62.99l1.73-.41-1.43-1.42h-2.74l-.74-.66-1.14.89-3.03.35-1.51-.37-.65.97-3.66,1.06-2.18,2.1-2.85-.12-.59,1.7-1.8.84-1.23-.73-2.3,1.43-1.07-.51-1.2,1.12-.37-1.13-1.19-.61-.64.85-.1,2.25-1.86.3-.96,2.68-3.22.96-1.04-.55-2.71.39-.02-.04-2.23-.13.52,1.49-.95,1.7-.37,3.94-.8.83,1.04,1.92,2.5.32,1.12,1.02-2.08,1.15-.57-.03.84,1.43-.37,1.23-.83.86.23,2.68-.56,1.9,2.63,1.26,2.6-.91.17.87,2.96.24s.04.01.06.02l1.92,1.35-.51,1.35,1.72,2.79-.05,2.26,1.58.27,2.83-.67,1.42.82,3.45.37,1.84,1.29,2.23-.95-1.18-1.31,2.35-2.14,2.49-.48,1.57.29.62-.92.5-3.22,2.98-.64,1.27-1.9-.19-1.24.92-2.92-1.07-.51.15-1.55-1.12-.79.39-1.93,1.54-1.49.19-1.67,1.21-1.49.19-1.41.8-.88-.22-2.86-1.14-.85,1.38-2.43-.1-1.72,2.82-1.95.12-1.36-2.29-.89-.17-2.45,1.79-.48.39-.83Z"/>
      </g>
      <polygon class="cls-6" points="119.84 11.32 121.4 12.26 121.21 14.17 119.81 15.42 120.37 16.29 120.88 16.35 122.07 14.71 122.68 16.61 123.84 17.62 124.31 18.9 125.48 19.21 126.83 18.67 126.28 18.22 126.47 15.97 128.46 15.43 128.68 15.2 127.3 13.69 127.67 12.14 127.09 11.17 125.98 10.87 126.54 9.25 126.38 8.47 124.87 7.54 125.07 6.14 124.05 5.61 123.66 6.51 122.48 6.65 122.01 7.97 120.19 8.26 118.71 10.05 118.87 11.1 119.84 11.32"/>
      <polygon class="cls-6" points="133.33 7.03 131.29 8.77 129.35 8.77 128.9 9.23 129.55 9.7 130.22 11.61 131.32 11.89 131.63 12.83 134.53 13.67 135.24 13.69 136.15 13.03 135.61 11.15 137.44 10.09 138.26 10.01 138.89 9.64 139.85 9.29 136.98 7.66 135.47 8.84 135.36 8.04 134.76 7.56 133.57 7.27 133.33 7.03"/>
      <polygon class="cls-6" points="58.3 102.71 57.57 101.44 55.95 101.41 55.35 102.32 53.29 102.58 53.84 104.2 55.65 104.24 56.69 105.5 57.03 105.56 57.87 104.25 59.58 104.77 60.43 104.05 60.11 103.67 58.3 102.71"/>
      <polygon class="cls-6" points="94.46 20.37 94.69 22.53 97.42 22.69 98.35 23.8 100.72 24.05 100.09 26.02 103.97 28.02 106.1 28.05 107.72 30.28 109.33 30.31 108.96 32.05 109.73 32.77 109.3 34.21 111.4 35 112.55 36.85 112.62 39.18 113.17 40.04 114.78 40 116.68 38.2 117.05 36.26 118.52 35.54 118.49 34.24 116.11 33.09 115.86 30.64 116.79 28.41 115.85 26.85 111.15 26.42 111.4 23.9 109.99 23.03 109.84 18.54 112.51 18.16 114.08 16.18 113.7 14.24 110.74 13.1 107.85 10.96 106.89 9.93 104.75 10.09 98.87 12.51 95.89 13.38 92.48 15.07 91.43 16.69 90.86 18.67 89.23 20.25 94.46 20.37"/>
      <g class="cls-2">
        <path class="cls-6" d="M88.64,26.96l2.16.22,1.95,1.44-.42,1.98-1.65-.13-1.53.59-1.78,2.06-.16.67.32-.16,1.41-.23.4,1.73.85,1.22,1.49.18.45,1.12,2.5.79.97.77.3,2.58-1.44.98,1.35.74-1.02,1.06.34.96,1.18-.04,1.44-.74,5.9.11,2.37,3.23.03,1.14,1.32.07,1.73-.83,1.55-1.99,2.16-1.41.82-1.12.58-.21-.07-2.3.79-.23-.23-.62-1.91.06-.84-1.29-.07-2.35-.97-1.54-2.41-.91.49-1.61-.74-.69.29-1.36-1.18-.02-1.62-2.23-1.93-.03-4.48-2.3.56-1.76-1.91-.19-.93-1.09-2.97-.18-.23-2.14-5.13-.11-.11,1.61-1.27.31-.56,1.49c.62.88,1.3,1.89,1.88,2.73"/>
      </g>
      <polygon class="cls-6" points="54.22 158 56.25 154.15 55.11 152.58 55.82 149.48 56.63 147.39 56.63 142.82 57.95 139.33 62.69 140.21 64.84 138.92 66.42 137.06 69.75 137.33 70.72 138.27 72.21 137.15 74.05 137.24 76.41 138.77 77.13 139.76 78.6 138.4 80.12 138.25 81.08 138.93 81.7 138.01 80.11 137.01 79.39 135.11 79.34 131.48 82.73 128.81 82.86 124.73 82.24 124.16 82.24 122.03 84.58 120.25 85.12 116.84 87.36 116.24 89.07 114.45 92.21 114.04 93.17 112.44 92.03 111.57 89.47 110.99 89.59 108.87 90.74 107.97 90.74 106.43 89.01 105.21 85.82 104.87 83.19 106.78 81.45 106.82 80.1 109.38 77.24 111.6 75.65 111.52 73.87 113.84 70.4 115.13 68.52 113.93 67.89 114.33 69.08 117.74 69.1 117.74 69.09 117.78 69.23 118.19 69.05 118.16 68.85 120.09 67.98 120.96 64.93 125.82 62.88 127.65 61.66 127.45 60.67 129.38 57.9 130.91 54.71 135.57 53.52 135.71 51.33 137.12 48.31 137.03 46.86 136.63 43.92 136.67 42.64 135.98 39.65 136.37 39.84 137.08 40.89 140.13 42.85 144.52 45.01 147.46 44.16 149.61 43.93 151.01 45.58 153.93 50.75 159.03 52.76 159.08 54.03 159.7 54.22 158"/>
      <polygon class="cls-6" points="65.33 139.34 62.84 140.84 58.4 140 57.31 142.91 57.31 147.47 56.47 149.64 55.83 152.47 57.01 154.11 54.89 158.15 54.68 160.02 56.03 160.67 56.19 161.91 57.05 162.82 64.03 165.94 64.69 166.68 65.22 167.87 66.05 168.45 67.75 170.14 68.26 171.95 68.61 173.23 69.03 173.52 70.19 174.87 70.48 175.93 71.58 179.46 71.79 179.97 71.96 181.08 71.39 184.07 70.73 185.18 70.76 186.61 72.13 188.18 72.21 191.03 73.77 191.82 74.31 191.39 74.43 190.3 75.5 189.6 81.21 192.23 81.64 192.23 80.53 189.91 80.53 188.3 83.2 186 83.51 185.3 83.43 182.11 83.53 174.64 81.28 174.64 79.51 173.1 77.84 172.83 77.52 171.24 76.36 169.53 76.98 169 77.09 167.97 75.7 167.58 74.31 166.72 74.37 164.44 76.14 163.94 76.84 163.51 74.65 160.86 75.54 159.11 73.91 156.17 75.11 152.04 77.02 149.54 76.68 148.81 78.22 147.3 79.26 147.3 80.88 146.57 83.08 146.31 83.26 143.99 83.9 143.36 84.14 141.89 81.6 140.87 80.9 139.56 79.91 138.85 78.93 138.95 77.01 140.72 75.89 139.16 73.8 137.81 72.45 137.74 70.66 139.08 69.41 137.89 66.75 137.66 65.33 139.34"/>
      <polygon class="cls-6" points="58.64 62.78 58.85 62.99 58.64 62.78 58.64 62.78"/>
      <polygon class="cls-6" points="44.28 83.52 48.31 84.1 51.78 83.57 57.31 83.86 60.65 85.54 69.58 85.95 70.79 85.28 70.38 84.91 67.75 84.57 66.38 82.04 67.32 81.07 67.7 77.21 68.59 75.61 67.85 73.55 70.76 73.72 70.44 73.04 67.84 72.37 67.15 69.54 62.51 67.42 61.32 65.52 59.19 63.34 58.44 63.41 56.08 65.71 55.4 67.42 55.32 68.7 53.55 70.78 51.14 72.47 48.56 76.84 46.18 81.06 44.93 82 44.98 82.9 44.28 83.52"/>
      <polygon class="cls-6" points="118.52 176.61 117.73 176.19 118.13 175.77 119.64 176 124.75 175.77 124.75 176.19 124.62 176.81 125.09 177.85 124.95 178.22 124.41 178.44 124.37 179.03 124.46 179.69 127.73 181.64 126.86 183.24 124.86 183.12 123.05 181.16 121.34 181.07 118.61 178.99 118.52 176.61"/>
      <polygon class="cls-6" points="113.77 149.71 113.77 149.19 115.62 148.94 117.96 149.71 118.15 150.92 117.15 152.06 117.27 152.7 116.93 152.8 115.78 152.09 114.6 151.44 114.26 150.01 113.77 149.71"/>
      <g class="cls-4">
        <path class="cls-6" d="M19.06,119.69c-.38-.4-.58-.94-.58-1.49,0-.92.16-1.66-.41-1.97-.33-.18-.7-.3-1.07-.33-.11-.27-.37-.44-.65-.43-.46.03-.2.37-.77.43s-.51.03-.82-.31-.61-.28-.87-.43c-.26-.15.51-.37-.33-.51-.41-.1-.84-.1-1.25,0l-.14.43s-.03,0,.37.56c.4.56.43,1.25.37,1.25-.41-.04-.81-.06-1.22-.05-.49.03-.84.11-.92.29-.11.33-.2.67-.26,1.02.05.34-.12.67-.43.82-.54.37-1,.77-.97.84.42.65.93,1.23,1.51,1.74.56.37,1.61.97,1.61.97.58-.33,1.13-.72,1.64-1.15.37-.41.69-1.79,1.35-1.99.67-.2,1.05-.54,1.49-.25.63.3,1.28.54,1.94.71.14.06.42-.14.42-.14"/>
        <path class="cls-6" d="M17.46,112.05c.43-.05.51.72.51.72.05.24-.11.46-.34.51-.06.01-.11.01-.17,0-.52-.03-1.04-.03-1.56,0,0,0-.15.74-.37.69-.22-.06-.59-.03-.79-.2-.2-.18-.03-.67.18-.94s.43-.9.9-.95c.55.01,1.11.07,1.65.18"/>
        <path class="cls-6" d="M12.11,111.13c.69.06,1.25-.15,1.56.44.27.49.37,1.06.28,1.61-.1.3-.23.59-.71.37-.46-.26-.98-.39-1.51-.37-.49.07-1-.02-1.43-.26-.27-.15-.56-.25-.87-.28-.26-.07-.14-.71.27-1,.42-.28.87-.65,2.41-.51"/>
        <path class="cls-6" d="M7.41,112.72c.94.23.51.53,1.25.59.74.05.83.16.63.67s-.68.92-1.04,1.53c-.36.61-.62.49-.62,1.44s.23,1.49-.37,1.97c-.6.48-.9.64-1.69.51-.79-.13-1.35.06-1.81.04s-.37-.91-.28-1.17c.09-.26.41-.41,1.1-.67.69-.26,1.2-.64,1.17-1.02s-.2-.54-.15-.89c.08-.27.14-.54.18-.82.1-.74,0-1.38.28-1.64.28-.26.75-.69,1.35-.55"/>
        <path class="cls-6" d="M7.56,121.81c.53,0,1.05.14,1.51.41.44.26.74.41.64.85-.11.44-.25.69-.64.59s-.81-.28-1.11-.18c-.27.12-.57.19-.87.2-.37,0-.91-.37-.68-.71.24-.34.49-1.19,1.15-1.15"/>
        <path class="cls-6" d="M14.25,105.35c.41,0,.59.72.72,1.38.13.66.05.97-.35,1.35s-1.16.2-1.75.23c-.59.03-.71-.37-.33-.97s.33-1.02.77-1.2c.44-.18.43-.8.95-.8"/>
        <path class="cls-6" d="M3.7,134.26c.2.66-.77.71-.87,1.33-.1.61-.1,1.58-.82,1.33-.71-.26-1.94-1.11-1.99-1.79-.05-.67,0-1.69,1.12-1.53.87.15,1.73.37,2.57.67"/>
        <path class="cls-6" d="M9.07,135.95c1,.24.97.24.92,1.02-.05.78-.51,1.18-1.18.98-.67-.2-.72-.32-1.18-.98-.46-.65.56-1.22,1.43-1.02"/>
        <path class="cls-6" d="M16.43,137.58c-.12,1.03-.16,1.49.46,1.49s.41,0,1.02-.79c.61-.79,1.12-1.89.51-1.84-.6.05-.11.82-.9.87-.79.05-1.01-.45-1.09.27"/>
        <path class="cls-6" d="M29.36,37.77c.72,0,.51-.67,1.33-.67s1.44-.15,1.74-.87c.3-.71-.26-1.07-1.23-1.07s-.82.81-1.38.86c-.56.05-1.07.2-1.11.82-.07.43.23.84.66.92"/>
        <path class="cls-6" d="M29.05,38.33c.6.07.26.77.26,1.58s-.15,1.18.41,1.18.31.31,0,.57-1.43-.09-1.43.57c0,.65-.56,1.27,0,1.37.32.06.65.06.97,0,0,0,0,.1-.56.56s-.44.46-.65,1.23c-.22.77-.04,1.38,0,2.15.04.77.82,1.75.25,1.75s-.92.47-1.49,0-1.23-.42-1.94-.42-1.12,0-.92-.37,1.02-.66,1.12-1.49c.09-.82.31-1.23.1-1.89-.2-.66-.77-1.21-.41-1.22.46.05.92.05,1.38,0,.61-.11,1.18-.72,1.18-1.18s-.28-.87-.35-1.64-.55-1.33,0-1.58c.55-.26,1.02.05,1.32-.37s-.04-.88.77-.78"/>
        <path class="cls-6" d="M102.19,137.98s.03-.09.05-.13c0-.09-.02-.18-.05-.26v.39Z"/>
        <path class="cls-6" d="M55.19,170.05c1.12,0,.61.61.61,1.12s.05,1.33-.61,1.33-1.69-.2-2.66-.16.1-.77.92-1.07c.82-.31-.11-.82.58-1.02.38-.11.77-.18,1.16-.2"/>
        <path class="cls-5" d="M44.95,106.08h-.71v.4h.71v-.4ZM45.18,106.82h-.23v-.14h-.71v.14h-.24v-.95h1.18v.95ZM43.32,105.19l.11.26h.8l.14-.26h-1.05ZM44.71,104.75h-1.76v.25h1.76v-.25ZM43.7,104.16v-.22h-1.33v-.21h1.33v-.22h.26v.22h1.33v.21h-1.33v.22h1.18v.21h-2.62v-.21h1.18ZM42.7,105.19v-.63h2.25v.63h-.31l-.14.26h.92v.21h-2.24c-.02.09-.04.17-.06.25h.65c0,.43-.05.68-.12.77-.08.08-.22.13-.41.13-.05,0-.11,0-.19-.01l-.05-.21c.08,0,.14.01.19.01.14,0,.24-.03.27-.08.04-.05.06-.18.07-.39h-.48c-.03.08-.06.15-.1.2-.12.19-.3.35-.54.5l-.15-.19c.21-.12.37-.26.47-.41.02-.03.04-.06.05-.09h-.44v-.22h.53c.03-.08.05-.17.06-.25h-.71v-.21h.93l-.12-.26h-.35Z"/>
        <path class="cls-5" d="M48.89,105.27l-.16.16c-.14-.11-.33-.23-.58-.35l.16-.15c.23.11.43.23.58.34M48.57,105.7h-.55c.02.1.04.18.07.25.02.06.04.11.06.16.17-.12.31-.26.43-.41M46.63,105.49v-.2c-.15,0-.32.01-.5.01l-.07-.2c.48,0,.88-.03,1.2-.1l.11.19c-.14.03-.31.06-.49.08v.22h.84c-.03-.15-.05-.31-.08-.49l.26-.03c.02.19.04.37.07.52h1.01v.22h-.35l.14.11c-.15.19-.32.37-.52.51.02.03.03.05.05.07.09.09.16.14.22.14.12,0,.23-.13.34-.37l.2.13c-.15.32-.32.49-.52.49-.11,0-.22-.06-.34-.17-.05-.05-.1-.11-.15-.18-.23.14-.5.25-.79.34l-.1-.22c.29-.09.55-.2.77-.33-.02-.04-.04-.08-.06-.12-.05-.11-.09-.25-.13-.42h-.88v.28c.22-.04.41-.08.58-.13v.22c-.16.05-.35.09-.58.13v.29c0,.21-.11.32-.33.32h-.33l-.05-.23c.1.01.21.02.3.02.1,0,.15-.06.15-.17v-.18c-.21.03-.44.05-.69.08l-.04-.24c.27-.02.51-.04.73-.06v-.31h-.75v-.22h.75ZM46.8,103.81c-.04-.08-.09-.16-.14-.22l.24-.09c.06.09.12.19.17.31h.71c.07-.09.13-.19.19-.3l.25.09c-.05.08-.1.15-.15.22h.83v.21h-1.33v.21h1.21v.21h-1.21v.23h1.45v.21h-3.13v-.21h1.43v-.23h-1.16v-.21h1.16v-.21h-1.32v-.21h.82Z"/>
        <path class="cls-5" d="M52.72,106.49l-.19.13c-.09-.21-.22-.44-.38-.69l.19-.12c.17.26.29.48.38.68M51.52,106.77l-.06-.23c.07,0,.14.01.21.01s.1-.04.1-.11v-.83c-.18.02-.37.03-.56.04l-.05-.21.09-.02c.17-.09.37-.27.6-.52-.2.02-.41.04-.62.05l-.05-.2.09-.02c.18-.12.43-.4.75-.86l.23.09c-.26.34-.49.61-.69.78.16-.01.32-.03.48-.05.1-.12.2-.24.31-.38l.23.09c-.38.46-.71.8-.99,1.03.24-.02.48-.05.71-.08-.04-.09-.09-.17-.13-.25l.2-.09c.11.2.22.41.31.64l-.2.1-.08-.2c-.13.01-.26.03-.39.04v.91c0,.18-.09.27-.25.27h-.24ZM52.03,103.53c-.27.38-.55.67-.86.87l-.16-.18c.3-.19.56-.44.76-.75l.25.06ZM51.57,105.93c-.12.27-.24.5-.4.7l-.19-.13c.15-.19.28-.41.39-.67l.2.1ZM50.98,106.35l-.21.09c-.06-.23-.13-.44-.2-.62l.2-.07c.08.18.14.38.2.59M50.65,105.15h-.73v.23h.73v-.23ZM50.65,104.72h-.73v.24h.73v-.24ZM50.65,104.29h-.73v.24h.73v-.24ZM50.65,103.86h-.73v.24h.73v-.24ZM50.88,105.39h.19v.23h-.67v1.15h-.24v-1.15h-.65v-.23h.18v-1.74h1.2v1.74ZM49.96,105.81c-.08.33-.19.62-.35.87l-.19-.13c.15-.24.26-.5.33-.78l.21.04Z"/>
        <path class="cls-5" d="M39.72,110c-.01.1-.05.18-.11.23-.08.05-.27.12-.52.12-.81,0-1.24-.47-1.24-1.16,0-.73.55-1.2,1.26-1.2.33,0,.6.11.65.18,0,.13-.1.2-.18.17-.11-.05-.28-.11-.49-.11-.48,0-.89.31-.89.93,0,.54.34.94.97.94.22,0,.44-.07.54-.11h.01Z"/>
        <path class="cls-5" d="M40.41,108.91c.14-.11.32-.24.54-.24.4,0,.53.32.53.67v.49c0,.22,0,.37,0,.46-.07.01-.17.03-.27.03-.04,0-.05-.02-.05-.06v-.89c0-.32-.15-.43-.35-.43-.17,0-.33.11-.4.18v1.09c0,.06-.02.08-.07.09-.09.01-.18.01-.26.01,0-.13.01-.34.01-.66v-1.35c0-.22,0-.33-.02-.4.09-.03.22-.05.28-.05.04,0,.05.02.05.23v.83Z"/>
        <path class="cls-5" d="M42.16,109.88c0,.13.1.2.23.2.15,0,.26-.09.31-.17.02-.03.03-.06.03-.13v-.25c-.3.04-.57.14-.57.34h0ZM43.23,110.1c0,.16-.08.23-.24.23s-.23-.11-.26-.22c-.09.1-.26.22-.46.22-.25,0-.43-.19-.43-.41,0-.38.49-.49.69-.54.07-.01.14-.03.19-.04v-.09c0-.16-.09-.32-.31-.32-.12,0-.25.06-.35.12-.11.05-.16-.03-.18-.13.11-.1.35-.24.6-.24.37,0,.54.26.54.61,0,.15-.01.49,0,.71,0,.07.05.11.12.11.02,0,.05,0,.08-.01h0Z"/>
        <path class="cls-5" d="M43.47,110.95c.12-.15.33-.45.48-.74-.02-.03-.05-.09-.08-.16-.05-.14-.35-.95-.51-1.29.07-.04.2-.08.26-.08.05,0,.06.02.08.07.1.26.32.89.41,1.14.14-.33.33-.91.4-1.21.05,0,.15.01.2.04.06.02.07.05.04.13-.11.39-.25.79-.44,1.21-.21.47-.55,1-.62,1-.09,0-.19-.05-.23-.09h0Z"/>
        <path class="cls-5" d="M45.43,110.2c0,.06-.02.08-.08.09-.05.01-.14.01-.25.02,0-.14.01-.35.01-.57v-.61c0-.22,0-.33-.02-.41.06-.02.22-.04.28-.04.04,0,.05.02.05.22v1.29ZM45.27,107.92c.1,0,.17.08.17.18s-.07.19-.18.19c-.1,0-.18-.06-.18-.18,0-.13.11-.19.18-.19h0Z"/>
        <path class="cls-5" d="M48.58,110c-.01.1-.05.18-.11.23-.08.05-.27.12-.52.12-.81,0-1.24-.47-1.24-1.16,0-.73.55-1.2,1.26-1.2.33,0,.6.11.65.18,0,.13-.1.2-.18.17-.11-.05-.28-.11-.49-.11-.48,0-.89.31-.89.93,0,.54.34.94.97.94.22,0,.44-.07.54-.11h.01Z"/>
        <path class="cls-5" d="M49.61,108.89c-.23,0-.45.21-.45.59,0,.43.22.64.49.64.21,0,.43-.18.43-.61,0-.31-.13-.63-.47-.63h0ZM49.64,108.67c.5,0,.78.35.78.81s-.31.85-.8.85c-.53,0-.79-.39-.79-.81,0-.48.33-.85.81-.85h0Z"/>
        <path class="cls-5" d="M50.82,109.14c0-.22,0-.33-.02-.41.06-.02.21-.04.28-.04.04,0,.05.02.05.22,0,.24,0,.49,0,.73,0,.37.19.42.35.42.17,0,.31-.11.38-.18v-1.05c0-.09.01-.1.06-.12.1-.01.19-.02.27-.02,0,.08-.01.33-.01.64v.57c0,.17.05.21.15.23v.02c0,.07-.09.18-.17.18-.15,0-.24-.1-.26-.26-.11.12-.23.18-.3.21-.07.03-.15.05-.23.05-.37,0-.54-.24-.54-.6v-.6Z"/>
        <path class="cls-5" d="M53.81,109.34c0-.27-.12-.41-.34-.41-.18,0-.32.11-.41.21v1.07c0,.07-.01.08-.07.09-.08.02-.17.01-.25.02,0-.13.01-.35.01-.66v-.61c0-.13-.02-.19-.06-.23h0c.03-.07.14-.14.21-.14.11,0,.15.18.15.27.15-.15.35-.27.55-.27.42,0,.53.32.53.66v.49c0,.21,0,.36.01.45-.08.01-.18.03-.28.03-.04,0-.06-.02-.06-.05v-.92Z"/>
        <path class="cls-5" d="M55.53,110.02c.02.07,0,.16-.07.21-.07.06-.21.1-.34.1-.32,0-.45-.2-.45-.48v-.91c-.13,0-.18-.04-.18-.08.04-.07.27-.28.32-.33.05-.04.11-.08.19-.09,0,.11-.02.2-.02.28h.57c-.04.19-.11.2-.18.21-.12,0-.14.01-.4.01-.02.36-.01.73,0,.89.02.21.13.26.26.26.11,0,.21-.04.27-.07h.01Z"/>
        <path class="cls-5" d="M55.86,110.95c.12-.15.33-.45.48-.74-.02-.03-.05-.09-.08-.16-.05-.14-.35-.95-.51-1.29.07-.04.2-.08.26-.08.05,0,.06.02.08.07.1.26.32.89.41,1.14.14-.33.33-.91.4-1.21.05,0,.15.01.2.04.06.02.07.05.04.13-.11.39-.25.79-.44,1.21-.21.47-.55,1-.62,1-.09,0-.19-.05-.23-.09h0Z"/>
        <path class="cls-5" d="M83.88,81.71h.38c.08-.15.15-.3.22-.47l.24.09c-.06.14-.13.27-.2.38h.41v.23h-.72v.38h.83v.23h-.83v.65h-.25v-.65h-.82v-.23h.82v-.38h-.71v-.23h.4c-.05-.13-.12-.25-.19-.36l.23-.09c.08.13.15.28.21.45M83.96,80.29l.04-.36.26.04c-.01.11-.02.22-.04.32h1.44v.24h-1.48c-.02.13-.05.25-.07.36h1.36v1.99c0,.23-.11.34-.32.34h-.35l-.07-.25h.34c.1,0,.15-.05.15-.15v-1.68h-2.31v2.11h-.26v-2.35h1.19c.02-.12.05-.24.07-.36h-1.45v-.24h1.49Z"/>
        <path class="cls-5" d="M88.27,82.45c.23-.2.4-.43.51-.7h-1.01c.09.26.26.49.5.7M88.8,80.1v.77c0,.09.05.13.15.13h.3v.24h-.37c-.23,0-.34-.11-.34-.32v-.59h-.7v.21c0,.34-.17.6-.5.79l-.17-.2c.27-.13.41-.32.41-.57v-.48h1.21ZM89.04,81.5v.24c-.11.34-.3.63-.55.87.24.17.54.31.89.43l-.14.22c-.37-.14-.68-.31-.93-.5-.28.21-.63.38-1.03.5l-.14-.22c.38-.12.7-.27.97-.46-.28-.25-.47-.53-.56-.85h-.22v-.25h1.72ZM86.16,83.22l-.05-.25c.09,0,.19.02.27.02.1,0,.15-.05.15-.15v-.88c-.14.06-.3.12-.45.17l-.06-.26c.17-.05.35-.1.51-.17v-.82h-.44v-.25h.44v-.66h.26v.66h.41v.25h-.41v.71c.13-.06.26-.14.39-.22v.27c-.13.07-.26.14-.39.21v1.06c0,.22-.11.32-.32.32h-.31Z"/>
        <path class="cls-5" d="M92.96,82.93l-.19.13c-.09-.21-.22-.44-.38-.69l.19-.12c.17.26.29.48.38.68M91.76,83.21l-.06-.23c.07,0,.14.01.21.01s.1-.04.1-.11v-.83c-.18.02-.37.03-.56.04l-.05-.21.09-.02c.17-.09.37-.27.6-.52-.2.02-.41.04-.62.05l-.05-.2.09-.02c.18-.12.43-.4.75-.86l.23.09c-.26.35-.49.61-.69.78.16-.01.32-.03.47-.05.1-.12.2-.25.31-.38l.23.09c-.38.46-.71.8-.99,1.03.24-.02.48-.05.71-.08-.04-.09-.09-.17-.13-.25l.2-.09c.11.19.22.41.31.64l-.2.1-.08-.2c-.13.01-.26.03-.39.04v.91c0,.18-.09.27-.25.27h-.24ZM92.26,79.97c-.27.38-.55.67-.86.87l-.15-.18c.3-.19.56-.44.76-.75l.25.06ZM91.81,82.37c-.12.27-.24.5-.4.7l-.19-.13c.15-.19.28-.41.39-.67l.2.1ZM91.22,82.79l-.21.09c-.06-.23-.13-.44-.2-.62l.2-.07c.08.18.14.38.2.59M90.88,81.59h-.73v.23h.73v-.23ZM90.88,81.16h-.73v.24h.73v-.24ZM90.88,80.73h-.73v.24h.73v-.24ZM90.88,80.3h-.73v.24h.73v-.24ZM91.12,81.82h.19v.23h-.67v1.15h-.24v-1.15h-.65v-.23h.18v-1.74h1.2v1.74ZM90.2,82.25c-.08.33-.19.62-.35.87l-.19-.13c.15-.24.26-.5.33-.78l.21.04Z"/>
        <path class="cls-5" d="M76.69,84.51v-.02s.25-.03.3-.03c.03,0,.06.02.09.06.12.16.47.66.84,1.15.18.26.34.47.43.64-.02-.35-.02-.55-.02-.74v-1c0-.08.03-.1.07-.1.11-.01.15-.01.22-.01,0,.15-.01.36-.01.66v1.6s-.16.05-.23.05c-.03,0-.04-.01-.06-.03-.24-.32-.57-.78-.89-1.23-.13-.19-.25-.38-.39-.61.02.42.02.61.02.79v.93c0,.09-.02.1-.08.11-.06.01-.14.01-.21.01,0-.14.01-.35.01-.66v-1.47l-.09-.12Z"/>
        <path class="cls-5" d="M79.34,86.32c0,.13.1.2.23.2.15,0,.26-.09.31-.17.02-.03.02-.06.02-.13v-.25c-.3.04-.56.14-.56.34h0ZM80.41,86.54c0,.16-.08.23-.24.23s-.23-.11-.26-.22c-.09.1-.26.22-.46.22-.25,0-.43-.19-.43-.41,0-.38.49-.49.69-.54.06-.01.14-.03.19-.04v-.09c0-.16-.09-.32-.31-.32-.12,0-.25.06-.35.12-.11.05-.16-.03-.18-.13.11-.1.35-.24.6-.24.37,0,.54.26.54.61,0,.15-.01.49,0,.71,0,.07.05.11.12.11.02,0,.05,0,.08-.01h0Z"/>
        <path class="cls-5" d="M81.84,85.78c0-.27-.12-.41-.34-.41-.18,0-.32.11-.41.21v1.07c0,.07-.01.08-.07.09-.08.02-.17.01-.25.02,0-.13.01-.35.01-.66v-.61c0-.13-.02-.19-.06-.23h0c.03-.07.14-.14.21-.14.11,0,.15.18.15.27.15-.15.35-.27.55-.27.42,0,.53.32.53.66v.49c0,.21,0,.36.01.45-.08.01-.18.03-.28.03-.04,0-.06-.02-.06-.05v-.92Z"/>
        <path class="cls-5" d="M83.55,86.46c.02.07,0,.16-.07.21-.07.06-.21.1-.34.1-.32,0-.45-.2-.45-.48v-.91c-.13,0-.18-.04-.18-.08.04-.07.27-.28.32-.33.05-.04.11-.08.19-.09,0,.11-.01.2-.01.28h.57c-.04.19-.11.2-.18.21-.12,0-.14.01-.4.01-.02.36-.01.73,0,.89.02.21.13.26.26.26.11,0,.21-.04.27-.07h.01Z"/>
        <path class="cls-5" d="M84.54,85.32c-.23,0-.45.21-.45.59,0,.43.22.64.49.64.21,0,.43-.18.43-.61,0-.31-.13-.63-.47-.63h0ZM84.57,85.11c.5,0,.78.35.78.81s-.31.85-.8.85c-.53,0-.79-.39-.79-.81,0-.48.33-.85.81-.85h0Z"/>
        <path class="cls-5" d="M85.75,85.58c0-.22,0-.33-.01-.41.06-.02.21-.04.28-.04.04,0,.05.02.05.22,0,.24,0,.49,0,.73,0,.37.19.42.35.42.17,0,.31-.11.38-.18v-1.05c0-.09.01-.1.06-.12.1-.01.19-.02.27-.02,0,.08-.01.33-.01.64v.57c0,.17.05.21.15.23v.02c0,.07-.09.18-.17.18-.15,0-.24-.1-.26-.26-.11.12-.23.18-.3.21-.07.03-.15.05-.23.05-.37,0-.54-.24-.54-.6v-.6Z"/>
        <path class="cls-5" d="M90.28,86.44c-.01.1-.05.18-.11.23-.08.05-.27.12-.52.12-.81,0-1.24-.47-1.24-1.16,0-.73.55-1.2,1.26-1.2.33,0,.59.11.65.18,0,.13-.1.2-.18.17-.11-.05-.28-.11-.49-.11-.48,0-.89.31-.89.93,0,.54.34.94.97.94.22,0,.43-.07.54-.11h.01Z"/>
        <path class="cls-5" d="M91.3,85.32c-.23,0-.45.21-.45.59,0,.43.22.64.49.64.21,0,.43-.18.43-.61,0-.31-.13-.63-.47-.63h0ZM91.33,85.11c.5,0,.78.35.78.81s-.31.85-.8.85c-.53,0-.79-.39-.79-.81,0-.48.33-.85.81-.85h0Z"/>
        <path class="cls-5" d="M92.51,85.58c0-.22,0-.33-.02-.41.06-.02.21-.04.28-.04.04,0,.05.02.05.22,0,.24,0,.49,0,.73,0,.37.19.42.35.42.17,0,.31-.11.38-.18v-1.05c0-.09.01-.1.06-.12.1-.01.19-.02.27-.02,0,.08-.01.33-.01.64v.57c0,.17.05.21.15.23v.02c0,.07-.09.18-.17.18-.15,0-.24-.1-.26-.26-.11.12-.23.18-.3.21-.07.03-.15.05-.24.05-.37,0-.54-.24-.54-.6v-.6Z"/>
        <path class="cls-5" d="M95.5,85.78c0-.27-.12-.41-.34-.41-.18,0-.32.11-.41.21v1.07c0,.07-.01.08-.07.09-.08.02-.17.01-.25.02,0-.13.01-.35.01-.66v-.61c0-.13-.02-.19-.07-.23h0c.03-.07.14-.14.21-.14.11,0,.15.18.15.27.15-.15.35-.27.55-.27.42,0,.53.32.53.66v.49c0,.21,0,.36.01.45-.08.01-.18.03-.28.03-.04,0-.06-.02-.06-.05v-.92Z"/>
        <path class="cls-5" d="M97.21,86.46c.01.07,0,.16-.07.21-.07.06-.21.1-.34.1-.32,0-.45-.2-.45-.48v-.91c-.13,0-.18-.04-.18-.08.04-.07.27-.28.32-.33.05-.04.11-.08.19-.09,0,.11-.02.2-.02.28h.57c-.04.19-.11.2-.18.21-.12,0-.14.01-.4.01-.02.36-.01.73,0,.89.02.21.13.26.26.26.11,0,.21-.04.27-.07h.01Z"/>
        <path class="cls-5" d="M97.55,87.38c.12-.15.33-.45.48-.74-.02-.03-.05-.09-.08-.16-.05-.14-.35-.95-.51-1.29.07-.04.2-.08.26-.08.05,0,.06.02.08.07.1.26.32.89.41,1.14.14-.33.33-.91.4-1.21.06,0,.15.01.2.04.06.02.07.05.04.13-.11.39-.25.79-.44,1.21-.21.47-.55,1-.62,1-.09,0-.19-.05-.23-.09h0Z"/>
        <path class="cls-7" d="M12.46,61.37v-2.07c0-.2.07-.23.22-.25.22-.02.66-.03.94-.04-.02.34-.03.88-.03,1.63v2.91c0,.63.02.93.03,1.11-.18.05-.76.07-.96.07-.13,0-.19-.03-.19-.17v-2.47c-.18.02-.48.03-1.03.03h-1.38v2.33c0,.19-.07.23-.28.24-.24.03-.68.05-.87.04.02-.36.03-.89.03-1.65v-2.85c0-.61,0-.98-.03-1.15.23-.05.77-.07.96-.07.16,0,.19.08.19.49v1.87h2.4Z"/>
        <path class="cls-7" d="M16.4,61.24c-.33,0-.69.32-.73.99.37.03,1.06.02,1.28,0,.06,0,.12-.09.12-.19,0-.44-.2-.8-.66-.8h0ZM17.91,63.78c0,.4-.32.77-.47.84-.14.06-.52.16-.84.16-1.31,0-2.03-.72-2.03-2.04,0-1.09.71-2.13,1.93-2.13,1.14,0,1.59.83,1.59,1.55,0,.13,0,.23-.03.3-.03.13-.39.26-.76.35-.23.05-1.16.06-1.66.05.05.79.62,1.12,1.23,1.12.43,0,.85-.13,1.01-.21l.02.02Z"/>
        <path class="cls-7" d="M18.72,61.07c.07-.21.41-.47.66-.47.4,0,.56.38.57.94.26-.61.64-.94,1.12-.94.17,0,.34.08.42.15.05.1.04.36-.06.53-.03.19-.21.41-.35.42-.18-.07-.28-.09-.43-.09-.14,0-.4.11-.55.49-.05.14-.08.24-.08.44v1.88c0,.15-.02.22-.2.25-.32.04-.59.05-.92.05.02-.48.03-1.03.03-1.64v-1.52c0-.21-.05-.37-.21-.46v-.04Z"/>
        <path class="cls-7" d="M23.61,61.24c-.33,0-.69.32-.73.99.37.03,1.06.02,1.28,0,.06,0,.12-.09.12-.19,0-.44-.2-.8-.66-.8h-.01ZM25.12,63.78c0,.4-.31.77-.47.84-.14.06-.52.16-.84.16-1.31,0-2.03-.72-2.03-2.04,0-1.09.71-2.13,1.93-2.13,1.14,0,1.59.83,1.59,1.55,0,.13,0,.23-.03.3-.03.13-.39.26-.76.35-.23.05-1.16.06-1.66.05.05.79.62,1.12,1.23,1.12.43,0,.85-.13,1.01-.21l.02.02Z"/>
        <path class="cls-7" d="M27.01,59.21c.14,0,.19.02.19.24,0,.53-.22,2.67-.27,3.05-.03.16-.13.2-.21.23-.22.05-.4.1-.45.1-.05-.38-.27-2.82-.28-3.39.04-.1.72-.23,1.01-.23h0ZM26.59,63.49c.35,0,.59.29.59.63,0,.4-.25.66-.66.66-.29,0-.61-.2-.61-.63,0-.36.23-.66.68-.66h0Z"/>
      </g>
      <polygon class="cls-7" points="68.06 105.56 17.5 66.68 17.85 66.32 68.4 105.19 68.06 105.56"/>
      <g class="cls-3">
        <path class="cls-7" d="M66.55,104.43l.4.14v.46s.27.36.27.36v.18s.01.31.01.31h.28s0-.25,0-.25l.39-.23.19.06.62.38h.31s.16.14.46.13c.31,0,.12,0,.31,0,.18,0,0,0,0,0h.18c-.17-.8.89-.03-.02-.62-.9-.59-.16-.18-.16-.18l-.75-.41-.07-.4-.16-.33-.26-.7.02-.4s.39-.47.02-.34l-.36.13-.27.22s.5.45-.3.1.04.27-.56-.23-.25-.12-.25-.12l-.35-.39-.41-.39s-.52-.6-.02-.64c.6-.05-.68.28-.07-.15.77-.54.1.09.58-.17s-.12.06.3-.16c.42-.23-.18.22.18-.1s.26.51.24-.13.12-.19.12-.19l-.14-.46-.34-.3-.31-.27-.42.32-.24.16-.31-.45v-.22s-.01-.34-.01-.34c0,0,.14-.16.32-.25.18-.1.45-.2.45-.2h.15s.11-.65.11-.65c.18-.16-.03-.12.18-.16.21-.04.61-.02.61-.02.54-.44.27-.28.54-.44.27-.16-.16-.18.27-.16.43.02,0,0,0,0,0,0,.21-.13.43.02.22.15-.19-.33.22.15l.41.48-.2.56.28.08.17-.37.18-.03s-.01-.18.33.02c.35.21.1.09.35.21l.25.12v.09s.4-.16.4-.16l.18-.07.27-.1h.34s.31.08.31.08c.31.15.56.29.65.29.09,0-.12.03.09,0,.21-.04.36-.1.36-.1l.18-.19v-.43s-.02-.24-.02-.24l-.2-.56v-.51s.17-.34.17-.34h.31s.34-.02.34-.02h.21s.39-.29.39-.29h.37c.4.23.19.02.4.23l.22.21s-.03.09.13.24c.16.15.28.21.28.21l.49.05.28.05.46-.07.49.02c.25.15.38.27.38.27,0,0,.16.21.16.33,0,.12.23.79.21.95-.03.15-.17.53-.17.53,0,0-.06.06-.15.22-.09.15-.18.31-.18.31,0,0-.24.37-.26.47s-.11.37-.11.37l.13.24.13.24.22.16.48.46c.04.43-.07.56.02.8.1.24.03.95.03.95-.16.19-.09.25-.34.19s-.44-.23-.65-.23c-.21,0-.31-.08-.4-.02-.09.06-.27.16-.3.25-.03.09.37.02-.03.09-.4.07-.95.06-.95.06l-.37.1-.45.5.4.2h.58c.19.23.29.41.29.41l-.05.4-.09.22-.23.56-.33.22-.49.2-.33.19-.83.02h-.34s-.28-.2-.28-.2v-.37s-.17-.33-.17-.33l-.37-.2-.05.37.04.34s-.03.15,0,.24-.27.19-.27.19l-.19-.18-.38-.54-.22-.18-.18.07-.12.22-.58.2-.27.16-.18.31-.27.19-.3.28-.3.25-.15.19.16.3.25.18.22.24h.15s.36-.32.36-.32c.1.15.13.3.13.3l.19.18h.24c.19.17.38.35.38.35l.25.24h.18s.15,0,.15,0l-.26-.45v-.18s.15-.1.15-.1l.49-.17.14-.4.05-.28.49.11.38.33.22.15c-.11.46-.32.59-.32.59,0,0-.11.31-.39.38-.27.07.03-.06-.27.07-.3.13-.67.29-.67.29l-.06.16h-.21s.03-.09-.34.01c-.36.1-.64.02-.64.02l-.21.25c.19.36.1.12.19.36.1.24.16.24.19.36.03.12.07.27.07.27,0,0-.03.12.06.15.09.03.34.2.34.2h.18s.07.15.07.15c.19.21.19.33.16.42-.03.09-.09.28-.09.28l-.03.18s-.03.15-.02.31.04.31.04.31l.04.37.19.18.31.18v.18s-.22.83-.22.83v.24s-.29.32-.29.32c0,0-.37-.11-.68-.14-.31-.02-.62-.2-.62-.2l-.59-.2s.03-.06-.18.04l-.21.1-.1-.24v-.31s.14-.25.14-.25l.05-.34v-.37s-.05-.31-.05-.31l-.04-.24v-.34s.17-.28.17-.28l.15-.22-.04-.27v-.18s-.13-.18-.13-.18l.09-.28.09-.22.21-.16-.07-.27-.44-.51.02-.34.08-.37.05-.31-.41-.26-.38-.3-.25-.3s.03-.15-.16-.21l-.19-.06-.32-.33-.28-.23h-.18l-.31-.27-.28-.05s.21-.28-.24.04l-.45.32-.29-.36-.13-.27-.2-.18-.29-.15s.09-.09-.19-.09h-.28s0-.08,0-.08l-.37-.18-.19-.24v-.18s.15-.03.3,0,.34.05.34.05l.49-.04.09-.19.21-.28.15-.1h.46Z"/>
      </g>
    </g>
  </g>
</svg>