<?xml version="1.0" encoding="UTF-8"?>
<svg id="_圖層_2" data-name="圖層_2" xmlns="http://www.w3.org/2000/svg" xmlns:xlink="http://www.w3.org/1999/xlink" viewBox="0 0 154.06 200.28">
  <defs>
    <style>
      .cls-1 {
        fill: none;
      }

      .cls-2 {
        clip-path: url(#clippath-1);
      }

      .cls-3 {
        clip-path: url(#clippath-3);
      }

      .cls-4 {
        clip-path: url(#clippath-4);
      }

      .cls-5 {
        clip-path: url(#clippath-2);
      }

      .cls-6 {
        clip-path: url(#clippath-6);
      }

      .cls-7 {
        clip-path: url(#clippath-5);
      }

      .cls-8 {
        fill: #7d7d7d;
      }

      .cls-9 {
        fill: #fff;
      }

      .cls-10 {
        fill: #63c5e3;
      }

      .cls-11 {
        clip-path: url(#clippath);
      }
    </style>
    <clipPath id="clippath">
      <rect class="cls-1" x="0" width="154.06" height="200.28"/>
    </clipPath>
    <clipPath id="clippath-1">
      <rect class="cls-1" x="0" width="154.06" height="200.28"/>
    </clipPath>
    <clipPath id="clippath-2">
      <rect class="cls-1" x="0" width="154.06" height="200.28"/>
    </clipPath>
    <clipPath id="clippath-3">
      <rect class="cls-1" x="0" width="154.06" height="200.28"/>
    </clipPath>
    <clipPath id="clippath-4">
      <rect class="cls-1" x="0" width="154.06" height="200.28"/>
    </clipPath>
    <clipPath id="clippath-5">
      <rect class="cls-1" x="0" width="154.06" height="200.28"/>
    </clipPath>
    <clipPath id="clippath-6">
      <rect class="cls-1" x="0" width="154.06" height="200.28"/>
    </clipPath>
  </defs>
  <g id="_圖層_1-2" data-name="圖層_1">
    <g>
      <g class="cls-11">
        <path class="cls-10" d="M25.75,17.17h-1.02v.56h1.02v-.56ZM25.75,16.19h-1.02v.54h1.02v-.54ZM25.75,15.25h-1.02v.52h1.02v-.52ZM23.51,16.12h-.35v.44h.35v-.44ZM23.35,15.66h-.53v-1.07h.53v.27h.73v.49h-.73v.31ZM23.94,16.89h-1.21v-1.11h1.21v1.11ZM21.99,19.49h.65v-.31h-.65v.31ZM21.99,18.78h.65v-.31h-.65v.31ZM21.99,18.07h.65v-.32h-.65v.32ZM22.05,16.12h-.35v.44h.35v-.44ZM21.89,14.87v-.27h.53v1.07h-.53v-.31h-.79v-.49h.79ZM26.26,14.79v3.39h-.44v1.28s.03.08.1.09h.1c.1-.01.14-.1.15-.26.02-.17.03-.42.03-.74l.4.16c0,.59-.04.96-.11,1.09-.07.13-.22.2-.45.22h-.15c-.39,0-.58-.16-.58-.46v-1.37h-.26c-.04.9-.32,1.55-.84,1.95l-.25-.4v.21h-1.97v.18h-.5v-1.8c-.1.11-.19.23-.3.34l-.17-.53c.32-.35.57-.77.72-1.24h-.48v-1.11h1.21v1.11h-.69l.39.18c-.04.09-.07.17-.1.26h.55c-.04-.11-.08-.21-.12-.3l.51-.08c.04.11.08.24.12.38h.93v.42h-.92v.32h.78v.4h-.78v.31h.78v.4h-.78v.31h.81v.19c.37-.31.56-.8.6-1.49h-.32v-3.39h2.02Z"/>
        <path class="cls-10" d="M29.26,16.47h1.2c.13-.26.24-.54.31-.83h-1.76c.08.25.17.53.25.83M31.24,18.88h-2.71v.5h2.71v-.5ZM31.24,17.88h-2.71v.52h2.71v-.52ZM31.81,20.11h-.57v-.24h-2.71v.24h-.57v-2.73h3.85v2.73ZM29.6,15.12c-.08-.18-.17-.35-.26-.5l.61-.1c.08.18.16.38.24.6h2.08v.53h-.92c-.08.29-.19.56-.32.83h1.52v.53h-5.33v-.53h1.49c-.09-.3-.19-.58-.28-.83h-.92v-.53h2.11Z"/>
      </g>
      <polygon class="cls-10" points="38.32 15.62 38.32 19.99 37.75 19.99 37.75 19.64 34.05 19.64 34.05 19.98 33.49 19.98 33.49 15.59 34.05 15.59 34.05 19.09 35.62 19.09 35.62 14.63 36.2 14.63 36.2 19.09 37.75 19.09 37.75 15.62 38.32 15.62"/>
      <g class="cls-2">
        <path class="cls-10" d="M44.06,18.23c0-.42,0-.64-.03-.82.14-.04.4-.11.55-.11.08,0,.11.04.11.2v1.65c-.11.09-.34.23-.5.3-.22.07-.63.17-.99.17-1.27,0-2.5-.59-2.5-2.33,0-1.46,1.13-2.39,2.53-2.39.84,0,1.33.29,1.46.41,0,.2-.16.37-.33.33-.36-.2-.78-.27-1.17-.27-1.03,0-1.8.71-1.8,1.88,0,1.4.97,1.95,1.92,1.95.26,0,.6-.06.74-.14v-.81Z"/>
        <path class="cls-10" d="M45.61,17.19c0-.44-.01-.65-.03-.81.12-.04.4-.07.53-.07.08,0,.1.03.1.45,0,.48,0,1.01,0,1.48,0,.76.39.86.71.86.34,0,.63-.22.74-.37v-2.13c0-.17.02-.21.11-.24.19-.02.35-.04.51-.04,0,.16-.02.67-.02,1.3v1.16c0,.35.09.43.29.46v.03c0,.14-.17.34-.32.34-.3,0-.47-.2-.51-.51-.21.22-.45.34-.6.42-.15.06-.3.09-.46.09-.73,0-1.06-.48-1.06-1.19v-1.21Z"/>
        <path class="cls-10" d="M49.66,18.68c0,.27.22.43.47.43.3,0,.51-.19.62-.34.03-.05.05-.12.05-.24v-.56c-.59.09-1.14.29-1.14.7h0ZM51.78,19.14c0,.3-.17.45-.46.45s-.46-.22-.5-.45c-.2.22-.54.45-.92.45-.5,0-.84-.37-.84-.81,0-.77,1.01-.98,1.4-1.07.13-.03.27-.06.36-.07v-.22c0-.34-.2-.66-.63-.66-.27,0-.53.13-.74.27-.19.08-.29-.09-.3-.27.23-.21.7-.48,1.18-.48.73,0,1.07.52,1.07,1.2,0,.31-.02,1-.01,1.44,0,.14.09.24.25.23.04,0,.09,0,.14-.02v.02Z"/>
        <path class="cls-10" d="M54.57,17.58c0-.56-.25-.83-.67-.83-.37,0-.65.24-.81.43v2.15c0,.15-.03.17-.15.18-.16.03-.32.02-.47.03.01-.26.02-.68.02-1.33v-1.22c0-.26-.04-.38-.12-.45v-.03c.06-.12.26-.25.39-.25.22,0,.29.33.31.53.28-.28.67-.53,1.07-.53.83,0,1.05.62,1.05,1.31v1.01c0,.42.02.72.03.9-.15.02-.35.06-.53.06-.08,0-.11-.04-.11-.1v-1.86Z"/>
        <path class="cls-10" d="M55.98,20.82c.24-.29.65-.88.97-1.48-.04-.05-.11-.19-.16-.32-.11-.28-.71-1.9-1.03-2.59.14-.08.38-.16.51-.16.09,0,.12.05.16.13.18.44.66,1.82.84,2.33.29-.65.69-1.87.82-2.46.12,0,.27.02.38.07.11.04.12.11.09.26-.18.63-.45,1.5-.86,2.39-.48,1.04-1.15,2.05-1.28,2.05-.17,0-.36-.09-.42-.18v-.02Z"/>
        <path class="cls-10" d="M59.78,19.32c0,.13-.04.17-.15.18-.09.02-.27.03-.48.04,0-.29.02-.71.02-1.13v-1.22c0-.44-.01-.66-.03-.82.12-.04.43-.07.53-.07.07,0,.1.04.1.45v2.58ZM59.49,14.8c.19,0,.32.15.32.35s-.14.37-.35.37c-.19,0-.35-.12-.35-.35,0-.25.21-.37.36-.37h0Z"/>
        <path class="cls-10" d="M62.91,17.58c0-.56-.25-.83-.67-.83-.37,0-.65.24-.81.43v2.15c0,.15-.03.17-.15.18-.16.03-.32.02-.48.03.01-.26.02-.68.02-1.33v-1.22c0-.26-.04-.38-.12-.45v-.03c.06-.12.26-.25.39-.25.22,0,.29.33.31.53.28-.28.67-.53,1.07-.53.83,0,1.05.62,1.05,1.31v1.01c0,.42.01.72.03.9-.15.02-.35.06-.53.06-.08,0-.11-.04-.11-.1v-1.86Z"/>
        <path class="cls-10" d="M65.39,16.26c.27,0,.55.08.73.24.02.13-.07.33-.24.32-.15-.08-.35-.14-.53-.14-.28,0-.49.16-.49.41,0,.21.14.33.31.42.19.1.43.21.64.33.32.18.47.44.47.73,0,.68-.6.99-1.17.99-.34,0-.65-.11-.8-.24-.06-.06-.09-.14-.08-.21.02-.1.07-.21.15-.25.21.14.5.25.77.25.36,0,.55-.19.55-.43,0-.18-.1-.31-.35-.44-.19-.1-.37-.18-.54-.27-.3-.17-.51-.42-.51-.79,0-.58.51-.94,1.09-.94h0Z"/>
        <path class="cls-10" d="M67.57,16.75c.29-.25.64-.48,1.07-.48.81,0,1.04.65,1.04,1.33v.99c0,.45,0,.74.01.91-.14.03-.32.06-.52.06-.07,0-.1-.04-.1-.11,0-.3,0-1.17,0-1.79,0-.66-.31-.89-.68-.89s-.67.24-.81.39v2.2c0,.12-.03.17-.14.18-.17.03-.34.03-.49.03.01-.26.02-.68.02-1.33v-2.71c0-.43-.02-.66-.03-.8.19-.06.42-.1.53-.1.07,0,.1.04.1.48v1.66Z"/>
        <path class="cls-10" d="M70.98,18.68c0,.27.22.43.47.43.3,0,.51-.19.62-.34.03-.05.05-.12.05-.24v-.56c-.59.09-1.14.29-1.14.7h0ZM73.1,19.14c0,.3-.17.45-.46.45s-.46-.22-.5-.45c-.2.22-.54.45-.92.45-.5,0-.84-.37-.84-.81,0-.77,1.01-.98,1.4-1.07.13-.03.27-.06.36-.07v-.22c0-.34-.2-.66-.63-.66-.27,0-.53.13-.73.27-.2.08-.29-.09-.3-.27.23-.21.7-.48,1.18-.48.73,0,1.07.52,1.07,1.2,0,.31-.02,1-.01,1.44,0,.14.09.24.24.23.04,0,.09,0,.14-.02v.02Z"/>
        <path class="cls-10" d="M75.88,17.58c0-.56-.25-.83-.67-.83-.37,0-.65.24-.81.43v2.15c0,.15-.03.17-.15.18-.16.03-.32.02-.47.03.01-.26.02-.68.02-1.33v-1.22c0-.26-.04-.38-.12-.45v-.03c.06-.12.26-.25.39-.25.22,0,.29.33.31.53.28-.28.67-.53,1.07-.53.83,0,1.05.62,1.05,1.31v1.01c0,.42.02.72.03.9-.15.02-.35.06-.53.06-.08,0-.11-.04-.11-.1v-1.86Z"/>
      </g>
      <polygon class="cls-9" points="128.46 62.26 128.2 63.24 126.44 64.54 123.62 64.33 117.92 62.15 116.95 62.86 116.3 64.79 114.76 65.36 114.15 67.59 111.06 69.56 112.47 70.94 110.04 71.52 109.65 72.34 108.06 72.76 108.18 74.42 110.53 75.33 110.36 77.35 107.57 79.26 107.66 80.83 106.43 83.01 107.41 83.76 107.67 87.07 106.83 88 106.63 89.39 105.43 90.86 105.23 92.56 103.68 94.05 103.39 95.49 104.48 96.26 104.34 97.75 105.49 98.3 104.48 101.55 104.68 102.86 103.14 105.15 100.33 105.75 99.87 108.69 98.94 110.07 97.03 109.71 94.88 110.13 93.07 111.78 94.4 113.26 91.42 114.53 91.42 116.29 90.26 117.19 90.18 118.61 92.36 119.1 94.02 120.37 92.94 122.16 94.08 122.37 94.71 125.43 97.98 125.76 98.27 126.83 102.37 127.28 103.36 130.68 107.34 132.56 109.23 131.94 109.8 128.48 110.99 127.38 113.08 123.27 112.33 121.99 115.43 118.79 114.32 116.88 114.32 115.39 117.56 113.48 119.21 113.48 120.24 115.02 120.42 114.42 121.36 110.92 120.88 110.1 122.58 105.56 122.84 103.41 123.43 101.43 123.83 98.68 125.22 95.9 125.05 93.68 125.65 93 127.07 88.97 127.21 85.04 127.83 83.27 129.48 82.21 129.51 81.39 128.63 80.54 127.75 78.83 127.95 77.6 128.52 76.68 130.31 75.38 130.62 73.28 130.19 72.34 131.16 70.69 133.46 69.37 134.02 68.33 134.93 68.13 135.84 67.07 136.13 65.79 136.78 65.12 128.46 62.26"/>
      <polygon class="cls-9" points="118.82 114.06 117.77 114.06 115 115.69 115 116.75 116.22 118.87 113.13 122.07 113.83 123.26 111.57 127.7 110.44 128.74 109.85 132.35 107.29 133.2 102.77 131.06 101.83 127.8 97.71 127.35 97.42 126.28 94.13 125.95 93.49 122.85 92.43 122.66 89.43 123.04 87.75 124.79 85.73 125.33 85.22 128.59 82.92 130.34 82.92 131.99 83.55 132.57 83.4 137.12 80.02 139.79 80.07 143.07 80.69 144.71 82.59 145.92 81.56 147.44 82.11 148.49 84.88 149.6 84.54 151.67 83.92 152.27 83.72 154.88 81.09 155.19 79.42 155.94 78.53 155.94 77.46 156.98 77.79 157.65 75.74 160.33 74.63 164.17 76.28 167.15 75.43 168.85 77.78 171.7 76.45 172.51 75.04 172.91 75 174.49 76.02 175.11 77.82 175.62 77.64 177.31 77.2 177.68 78.17 179.1 78.43 180.39 79.85 180.62 81.56 182.11 83.54 182.11 83.62 176.53 84.99 173.56 86.97 169.26 88.93 163.7 90.38 162.38 90.89 161.7 91 160.4 91.46 159.09 93.17 157.5 97.65 155.13 99.92 153.73 101.23 151.92 102.17 150.59 102.22 149.58 101.82 148.49 101.77 147.94 102.17 147.28 105.4 145.67 107.76 141.83 109.46 140.48 109.92 138.91 111.11 137 111.96 134.27 112.98 133.48 114.8 132.94 115.03 129.71 114.6 128.48 114.6 127.58 115.71 126.3 115.71 125.82 115.94 124.61 117.35 121.98 118.29 121.35 118.66 120.02 119.98 115.81 118.82 114.06"/>
      <polygon class="cls-9" points="37.57 108.72 37.5 109.97 40.18 109.53 41.78 110.03 44 109.76 44.44 109.39 43.6 108.42 45.77 106.91 46.6 108.29 49.76 106.32 50.11 105.35 52.72 104.24 54.14 103.21 55.93 103.76 58.63 102.68 60.6 102.68 61.89 104.66 63.99 105.35 68.03 105.43 70.42 106.61 73.68 106.21 73.23 103.86 71.1 104.6 67.74 102.99 68.37 100.72 68.12 97.9 69.03 96.95 69.31 96.05 68.42 94.53 60.44 94.17 57.11 92.48 51.82 92.2 48.32 92.74 43.74 92.09 41.97 93.9 40.44 96.7 40.18 99.74 39.3 99.21 38.39 100.13 36.94 103.6 36.97 105.99 37.57 108.72"/>
      <path class="cls-9" d="M63.1,119.79l-1.27,2.08,1.12,2.9-1.23.62,1.26.83h1.76l.93-.96,2.6.29-1.18-3.39,1.4-.91,1.98,1.26,2.92-1.09,1.89-2.45,1.7.09,2.55-1.97,1.46-2.78,1.93-.04,2.23-1.62-.85-.49-2.68.64-2.29-.39.05-2.6-1.77-2.88.47-1.19-1.44-1.01-2.6-.21.42,2.19-4.2.51-2.44-1.2-3.98-.08-2.44-.8-1.22-1.86h-1.41l-2.81,1.13-1.68-.53-1.19.86-2.42,1.03-.33.92-3.99,2.48-.81-1.34-1.02.71.8.93-1.01.86-2.6.31-1.57-.5-2.39.39.69.84-.71.46.06.41.51,1.35-.77.55v1.76l.66.63-.15.37h-.94l-.23,1.35-.17,2.38,1.34-.1,2.34,1.45,1.41.03,2.93-1.98.74-1.45,5.24-2.93h.09l6.29-.29,3.35.83-.41,1.49,3.08,2.12ZM59.75,113.5l-1.57-.47-.8,1.25-1.12-.19-1-1.21-1.96-.05-.89-2.67,2.49-.32.65-.98,2.44.05.82,1.44,1.76.93.74.86-1.56,1.35Z"/>
      <polygon class="cls-9" points="38.22 140.26 39.36 143.33 39.5 143.86 42.78 143.43 44.11 144.14 46.97 144.1 48.43 144.51 51.11 144.59 53.26 143.21 54.29 143.09 57.39 138.56 60.13 137.04 61.26 134.86 62.65 135.08 64.37 133.53 67.41 128.69 68.19 127.91 68.38 126.14 65.95 125.87 65.05 126.8 62.75 126.8 60.53 125.33 62.12 124.5 61.09 121.8 62.24 119.93 59.24 117.91 59.61 116.6 56.98 115.95 50.89 116.24 45.98 118.98 45.26 120.41 42.01 122.61 40.13 122.57 37.83 121.14 36.47 121.24 35.75 122.15 35.69 123.28 35.1 124.47 36.12 126.16 34.47 126.42 34.19 127.61 33.11 129.22 33.28 130.36 34.28 131.78 32.83 132.6 32.66 135.5 33.79 135.41 32.43 136.32 32.6 136.64 34.05 137.12 35.53 138.21 38.22 140.26"/>
      <path class="cls-9" d="M108.34,18.63l2.76,2.04,3.21,1.23.48,2.47-1.88,2.37-2.38.35.12,3.72,1.45.89-.22,2.28,4.4.41,1.25,2.06-.99,2.35.21,2.02,2.41,1.16.03,1.53,1.32.04,2.89-1.86,2.09-.74.07-3.11,2.18-2.01,4.02-.81,1.49-1.88,3.53-.34,1.39-2.44,2.39-.38-.21-1.35.74-.81.24-.82,2.55-.15,3.59-1.98,2.2,1.06,2.01-1.67-.99-.48-3.41-.53-.09-1.12-.45-.74-.26-3.69-2.21.26-3.27-.4-1.79.64-.7.43-.83.09-1.3.74.52,1.84-1.42,1.05-1.08-.03-3.35-.97-.3-.93-1.09-.31-.72-2.04-1.01-.72,1.08-1.11h1.98l1.93-1.64.35-1.28-.06-1.04-1.97,1.04-1.93-1.62-.25-1.35-1.16-1.23-1.78-1.06h-4.2l-3.15,2.1-1.31.24-.77,2.03-.91.6-.65,2.41-1.54,1.11-3.15,1.09-1.99.22-.77.06.65.71ZM119.79,15.8l1.69-.27.48-1.36,1.21-.14.53-1.24,2.1,1.11-.2,1.43,1.41.87.24,1.14-.42,1.21.74.2.82,1.35-.37,1.49,1.53,1.66-.7.74-1.74.48-.14,1.59,1.04.85-2.5.99-1.76-.48-.52-1.43-1.17-1.04-.25-.74-.61.82-1.29-.16-.96-1.49,1.59-1.41.14-1.37-1.15-.7-1.3-.3-.24-1.66,1.79-2.15Z"/>
      <polygon class="cls-9" points="147.5 25.54 144.11 27.41 141.88 27.54 141.72 28.07 141.07 28.79 141.32 30.43 138.62 30.88 137.22 33.35 133.63 33.69 132.19 35.54 128.1 36.37 126.24 38.09 126.17 41.36 123.74 42.21 120.72 44.11 118.94 44.05 117.67 44.68 117.32 46.52 115.32 48.41 115.76 49.62 114.82 49.9 114.89 52.17 114.07 52.47 113.3 53.51 111.14 54.92 109.67 56.81 109.69 57.24 110.68 57.81 110.81 59.33 113.28 60.63 116.35 60.11 118.06 61.57 123.79 63.76 126.22 63.94 127.59 62.92 127.98 61.47 137.24 64.66 137.43 64.46 137.43 62.65 137.91 61.73 138.25 60.48 138.45 58.4 140.02 56.55 140.3 56.01 142.46 54.56 141.46 53.48 141.55 52.56 143.48 51.96 143.39 50.22 143.45 47.37 142.37 46.6 140.58 41.67 140.81 40.87 140.21 39.4 140.24 36.86 140.78 34.33 141.21 32.81 143.37 30.63 143.85 30.03 146.91 26.99 148.99 26.26 147.5 25.54"/>
      <polygon class="cls-9" points="85.89 40.62 85.98 41.9 86.46 41.95 86.71 40.93 88.7 38.64 90.56 37.93 91.76 38.02 92 36.91 90.51 35.79 88.22 35.56 88.14 35.44 86.52 33.1 86.43 33.61 84.87 34.77 84.96 36.11 84.45 38.02 83.36 39.72 85.89 40.62"/>
      <polygon class="cls-9" points="61.89 73.25 63.02 75.06 67.75 77.21 68.42 79.97 70.94 80.62 71.48 81.76 73.9 81.41 74.89 81.93 77.47 81.17 78.45 78.43 80.17 78.15 80.26 76.2 81.36 74.75 83.35 75.78 83.47 76.12 84.2 75.43 85.36 75.99 87.7 74.54 88.98 75.3 90.17 74.74 90.83 72.83 93.88 72.96 95.96 70.95 99.55 69.93 100.34 68.76 102.22 69.22 104.9 68.91 106.37 67.75 107.37 68.65 110.13 68.65 110.62 69.12 113.54 67.25 114.18 64.95 115.73 64.37 116.35 62.53 117.36 61.79 116.12 60.74 113.15 61.24 110.16 59.66 110.03 58.13 109.03 57.56 109.01 57.21 107.51 57.92 105.87 57.84 105.33 58.48 105.13 60.53 103.59 60.93 102.64 60.08 93.71 65.81 92.27 65.4 91.07 63.85 87.78 63.19 86.23 63.4 85.58 65.25 84.38 65.98 80.53 65.94 78.1 64.37 76.15 64.16 74.87 63.16 70.15 60.01 67.54 56.56 64.57 60.02 64.18 61.11 62.56 63.62 62.16 65.36 61.17 65.91 60.8 67.8 59.01 70.31 61.89 73.25"/>
      <polygon class="cls-9" points="70.65 59.62 75.31 62.72 76.45 63.61 78.36 63.81 80.76 65.36 84.16 65.4 84.99 64.9 85.7 62.89 87.81 62.6 91.49 63.34 92.71 64.91 93.58 65.17 102.72 59.3 103.8 60.27 104.49 60.09 104.67 58.27 105.37 57.45 105.34 56.3 103.26 53.48 97.93 53.37 96.51 54.1 94.63 54.17 94.04 52.48 94.81 51.68 93.3 50.85 95.19 49.56 94.95 47.51 94.27 46.98 91.59 46.13 91.17 45.1 89.79 44.93 88.71 43.39 88.4 42.12 87.76 42.23 87.02 42.59 87.02 42.6 85.36 42.4 85.25 41.02 82.4 40.02 81.38 41.31 81.21 43.74 81.21 44.2 80.59 44.23 79.74 44.32 79.76 43.87 77.12 44.01 75.45 45.19 75.42 47.1 72.95 47.17 71.87 48.69 71.67 49.49 70.9 50.79 70.57 52.17 69.77 54.01 69.09 54.8 68.75 55.5 68.03 56.13 70.65 59.62"/>
      <g class="cls-5">
        <path class="cls-9" d="M109.53,71.04l1.73-.41-1.43-1.42h-2.74l-.74-.66-1.14.89-3.03.35-1.51-.37-.65.97-3.66,1.06-2.18,2.1-2.85-.12-.59,1.7-1.8.84-1.23-.73-2.3,1.43-1.07-.51-1.2,1.12-.37-1.13-1.19-.61-.64.85-.1,2.25-1.86.3-.96,2.68-3.22.96-1.04-.55-2.71.39-.02-.04-2.23-.13.52,1.49-.95,1.7-.37,3.94-.8.83,1.04,1.92,2.5.32,1.12,1.02-2.08,1.15-.57-.03.84,1.43-.37,1.23-.83.86.23,2.68-.56,1.9,2.63,1.27,2.6-.91.17.87,2.96.24s.04.01.06.02l1.92,1.35-.51,1.35,1.72,2.79-.05,2.26,1.58.27,2.83-.67,1.42.82,3.45.37,1.84,1.29,2.23-.95-1.18-1.31,2.35-2.14,2.49-.48,1.57.29.62-.92.5-3.22,2.98-.64,1.28-1.9-.19-1.24.92-2.92-1.07-.51.15-1.55-1.12-.79.39-1.93,1.54-1.49.19-1.67,1.21-1.49.19-1.41.8-.88-.22-2.86-1.14-.85,1.38-2.43-.1-1.72,2.82-1.95.12-1.36-2.29-.89-.17-2.45,1.79-.48.39-.83Z"/>
      </g>
      <polygon class="cls-9" points="119.84 19.37 121.4 20.32 121.21 22.22 119.81 23.47 120.37 24.35 120.88 24.41 122.07 22.76 122.68 24.66 123.84 25.67 124.31 26.95 125.48 27.27 126.83 26.73 126.28 26.28 126.47 24.03 128.46 23.49 128.68 23.25 127.3 21.75 127.67 20.19 127.09 19.23 125.98 18.92 126.54 17.3 126.38 16.53 124.87 15.59 125.07 14.2 124.05 13.66 123.65 14.56 122.48 14.7 122.01 16.02 120.19 16.32 118.71 18.1 118.87 19.16 119.84 19.37"/>
      <polygon class="cls-9" points="133.33 15.08 131.29 16.82 129.35 16.82 128.9 17.29 129.55 17.75 130.22 19.66 131.32 19.95 131.63 20.88 134.53 21.72 135.24 21.75 136.15 21.09 135.61 19.2 137.43 18.15 138.26 18.06 138.88 17.69 139.84 17.35 136.98 15.71 135.47 16.9 135.36 16.1 134.76 15.62 133.57 15.33 133.33 15.08"/>
      <polygon class="cls-9" points="58.3 110.77 57.57 109.5 55.95 109.46 55.35 110.38 53.29 110.64 53.84 112.26 55.65 112.29 56.69 113.56 57.03 113.61 57.87 112.31 59.58 112.82 60.43 112.1 60.11 111.73 58.3 110.77"/>
      <polygon class="cls-9" points="94.46 28.42 94.69 30.58 97.42 30.74 98.35 31.85 100.72 32.1 100.09 34.08 103.97 36.07 106.1 36.1 107.72 38.34 109.33 38.37 108.96 40.11 109.73 40.83 109.3 42.27 111.4 43.06 112.55 44.9 112.62 47.24 113.17 48.1 114.78 48.05 116.68 46.26 117.05 44.31 118.52 43.59 118.49 42.29 116.11 41.14 115.86 38.7 116.79 36.47 115.85 34.91 111.15 34.47 111.4 31.95 109.99 31.09 109.84 26.6 112.51 26.21 114.08 24.23 113.7 22.3 110.74 21.16 107.85 19.02 106.89 17.98 104.75 18.15 98.87 20.57 95.89 21.43 92.48 23.12 91.43 24.74 90.86 26.72 89.23 28.31 94.46 28.42"/>
      <g class="cls-3">
        <path class="cls-9" d="M88.64,35.02l2.16.22,1.95,1.44-.42,1.98-1.65-.13-1.53.59-1.78,2.06-.16.67.32-.16,1.41-.23.4,1.73.85,1.22,1.49.18.45,1.12,2.5.79.97.77.3,2.58-1.44.98,1.35.74-1.02,1.06.34.96,1.18-.04,1.44-.74,5.9.11,2.37,3.23.03,1.14,1.32.07,1.73-.83,1.55-1.99,2.16-1.41.82-1.12.58-.21-.07-2.3.79-.23-.23-.62-1.91.06-.84-1.29-.07-2.35-.97-1.54-2.41-.91.49-1.61-.74-.69.29-1.36-1.18-.02-1.62-2.23-1.93-.03-4.48-2.3.56-1.76-1.91-.19-.93-1.09-2.97-.18-.23-2.14-5.13-.11-.11,1.61-1.27.31-.56,1.49c.62.88,1.3,1.89,1.88,2.73"/>
      </g>
      <polygon class="cls-9" points="54.22 166.05 56.25 162.21 55.11 160.64 55.82 157.53 56.63 155.44 56.63 150.88 57.95 147.38 62.69 148.27 64.84 146.98 66.42 145.11 69.75 145.39 70.72 146.32 72.21 145.2 74.05 145.3 76.41 146.82 77.13 147.82 78.6 146.45 80.12 146.31 81.08 146.99 81.7 146.07 80.11 145.06 79.39 143.16 79.34 139.54 82.73 136.86 82.86 132.79 82.24 132.21 82.24 130.08 84.58 128.3 85.12 124.9 87.36 124.29 89.07 122.5 92.21 122.1 93.17 120.5 92.03 119.63 89.47 119.05 89.59 116.93 90.74 116.03 90.74 114.49 89.01 113.27 85.82 112.93 83.19 114.84 81.45 114.88 80.1 117.44 77.24 119.66 75.65 119.58 73.87 121.89 70.4 123.19 68.52 121.98 67.89 122.39 69.08 125.8 69.1 125.8 69.09 125.84 69.23 126.24 69.05 126.22 68.85 128.15 67.98 129.02 64.93 133.88 62.88 135.7 61.66 135.51 60.67 137.44 57.9 138.96 54.71 143.63 53.52 143.76 51.33 145.18 48.31 145.09 46.86 144.68 43.92 144.72 42.64 144.03 39.65 144.43 39.84 145.14 40.89 148.18 42.85 152.57 45.01 155.52 44.16 157.67 43.93 159.07 45.58 161.99 50.75 167.08 52.76 167.13 54.03 167.76 54.22 166.05"/>
      <polygon class="cls-9" points="65.33 147.39 62.84 148.89 58.4 148.06 57.31 150.97 57.31 155.53 56.47 157.69 55.83 160.52 57.01 162.16 54.88 166.2 54.68 168.07 56.03 168.73 56.19 169.96 57.05 170.88 64.03 173.99 64.68 174.74 65.22 175.92 66.05 176.5 67.75 178.19 68.26 180 68.61 181.28 69.03 181.57 70.19 182.92 70.48 183.99 71.58 187.51 71.79 188.02 71.96 189.13 71.39 192.13 70.73 193.24 70.76 194.66 72.13 196.23 72.21 199.08 73.77 199.88 74.31 199.44 74.43 198.35 75.5 197.65 81.21 200.28 81.64 200.28 80.53 197.97 80.53 196.35 83.2 194.06 83.51 193.36 83.43 190.17 83.53 182.69 81.28 182.69 79.51 181.15 77.84 180.88 77.52 179.3 76.36 177.59 76.98 177.05 77.09 176.03 75.7 175.64 74.31 174.78 74.37 172.49 76.14 171.99 76.84 171.57 74.65 168.91 75.54 167.16 73.91 164.23 75.11 160.09 77.02 157.59 76.68 156.87 78.22 155.36 79.26 155.36 80.88 154.63 83.08 154.37 83.26 152.04 83.9 151.42 84.14 149.94 81.6 148.92 80.9 147.61 79.91 146.91 78.93 147 77.01 148.77 75.89 147.22 73.8 145.86 72.45 145.79 70.66 147.14 69.41 145.94 66.75 145.72 65.33 147.39"/>
      <polygon class="cls-9" points="58.64 70.84 58.85 71.05 58.64 70.83 58.64 70.84"/>
      <polygon class="cls-9" points="44.28 91.58 48.31 92.15 51.78 91.62 57.31 91.91 60.65 93.6 69.58 94 70.79 93.33 70.38 92.96 67.75 92.62 66.38 90.1 67.32 89.12 67.7 85.26 68.59 83.67 67.85 81.61 70.75 81.77 70.43 81.09 67.84 80.43 67.15 77.6 62.51 75.48 61.32 73.58 59.19 71.4 58.44 71.47 56.08 73.76 55.4 75.48 55.32 76.75 53.55 78.83 51.14 80.52 48.56 84.89 46.17 89.12 44.92 90.06 44.98 90.95 44.28 91.58"/>
      <polygon class="cls-9" points="118.52 184.66 117.73 184.24 118.13 183.82 119.64 184.05 124.75 183.82 124.75 184.24 124.62 184.87 125.09 185.9 124.95 186.28 124.41 186.49 124.37 187.08 124.46 187.75 127.73 189.69 126.86 191.29 124.86 191.18 123.05 189.22 121.34 189.12 118.61 187.04 118.52 184.66"/>
      <polygon class="cls-9" points="113.77 157.76 113.77 157.24 115.62 157 117.96 157.76 118.15 158.97 117.15 160.11 117.27 160.75 116.93 160.86 115.78 160.15 114.6 159.5 114.26 158.07 113.77 157.76"/>
      <g class="cls-4">
        <path class="cls-9" d="M19.06,127.75c-.38-.4-.58-.94-.58-1.49,0-.92.16-1.66-.41-1.97-.33-.18-.69-.3-1.07-.33-.11-.27-.37-.44-.65-.43-.46.03-.2.37-.77.43-.56.06-.51.03-.82-.31s-.61-.28-.87-.43c-.26-.15.51-.37-.33-.51-.41-.1-.84-.1-1.25,0l-.14.43s-.03,0,.37.56c.4.56.43,1.25.37,1.25-.41-.04-.82-.06-1.22-.05-.49.03-.84.11-.92.29-.11.33-.2.67-.26,1.02.05.34-.12.67-.43.82-.54.37-1,.77-.97.84.42.65.93,1.23,1.51,1.74.56.37,1.61.97,1.61.97.58-.33,1.13-.72,1.64-1.15.37-.41.69-1.79,1.35-1.99.66-.2,1.05-.54,1.49-.25.63.3,1.28.54,1.94.71.14.06.42-.14.42-.14"/>
        <path class="cls-9" d="M17.46,120.1c.43-.05.51.72.51.72.05.24-.11.46-.34.51-.06.01-.11.01-.17,0-.52-.03-1.04-.03-1.56,0,0,0-.15.74-.37.69-.22-.06-.59-.03-.79-.2-.2-.18-.03-.67.18-.94.2-.28.43-.9.9-.95.55.01,1.11.07,1.65.18"/>
        <path class="cls-9" d="M12.11,119.19c.69.06,1.25-.15,1.56.44.27.49.37,1.06.28,1.61-.1.3-.23.59-.71.37-.46-.26-.98-.39-1.51-.37-.49.07-1-.02-1.43-.26-.27-.15-.56-.25-.87-.28-.26-.07-.14-.71.27-1,.42-.28.87-.65,2.41-.51"/>
        <path class="cls-9" d="M7.41,120.77c.95.23.51.53,1.25.59.74.05.83.16.63.67s-.68.92-1.04,1.53c-.36.61-.62.49-.62,1.44s.23,1.49-.37,1.97c-.6.48-.9.64-1.69.51-.79-.13-1.35.06-1.82.04s-.37-.91-.28-1.17c.09-.26.41-.41,1.1-.67.69-.26,1.2-.64,1.18-1.02s-.2-.54-.15-.89c.08-.27.14-.54.18-.82.1-.74,0-1.38.28-1.64.28-.26.75-.69,1.35-.55"/>
        <path class="cls-9" d="M7.56,129.87c.53,0,1.05.14,1.51.41.43.26.74.41.64.85-.11.44-.25.69-.64.59s-.81-.28-1.12-.18c-.27.12-.57.19-.87.2-.37,0-.91-.37-.68-.71.24-.34.49-1.19,1.15-1.15"/>
        <path class="cls-9" d="M14.25,113.41c.41,0,.59.72.72,1.38.13.66.05.97-.35,1.35s-1.16.2-1.75.23c-.59.03-.71-.37-.33-.97s.33-1.02.77-1.2c.44-.18.43-.8.94-.8"/>
        <path class="cls-9" d="M3.7,142.32c.2.66-.77.71-.87,1.33-.1.61-.1,1.58-.82,1.33-.72-.26-1.94-1.11-1.99-1.79-.05-.67,0-1.69,1.12-1.53.87.15,1.73.37,2.57.67"/>
        <path class="cls-9" d="M9.07,144c1,.24.97.24.92,1.02-.05.78-.51,1.18-1.18.98-.67-.2-.72-.32-1.18-.98-.46-.65.56-1.22,1.43-1.02"/>
        <path class="cls-9" d="M16.43,145.64c-.12,1.03-.16,1.49.46,1.49s.41,0,1.02-.79c.61-.79,1.12-1.89.51-1.84-.6.05-.11.82-.9.87-.79.05-1.01-.45-1.09.27"/>
        <path class="cls-9" d="M29.36,45.83c.72,0,.51-.67,1.33-.67s1.44-.15,1.74-.87c.3-.71-.26-1.07-1.23-1.07s-.82.81-1.38.86c-.56.05-1.07.2-1.11.82-.07.43.23.84.66.92"/>
        <path class="cls-9" d="M29.05,46.39c.6.07.26.77.26,1.58s-.15,1.18.41,1.18.3.31,0,.57-1.43-.09-1.43.57c0,.65-.56,1.27,0,1.37.32.06.65.06.97,0,0,0,0,.1-.57.56-.56.46-.44.46-.65,1.23-.22.77-.04,1.38,0,2.15.04.77.82,1.75.25,1.75s-.92.47-1.49,0-1.23-.42-1.94-.42-1.12,0-.92-.37,1.02-.66,1.12-1.49c.09-.82.31-1.23.1-1.89-.2-.66-.77-1.21-.41-1.22.46.05.92.05,1.38,0,.61-.11,1.17-.72,1.17-1.18s-.28-.87-.35-1.64-.55-1.33,0-1.58c.55-.26,1.02.05,1.32-.37s-.04-.88.77-.78"/>
        <path class="cls-10" d="M117.95,17.03c1.45-.08.46-.77,1.07-2.15.61-1.38-.84-.77,0-2.15.84-1.38,1.69-.84,3.84-1s.54.23,1.91,1,1.15.61,1.69,1.99c.54,1.38,1.23.61,2.68.77.69.07,1.36.31,1.94.68l1.86-1.57.35-1.28-.06-1.04-1.98,1.03-1.93-1.62-.25-1.35-1.16-1.23-1.78-1.06h-4.2l-3.15,2.1-1.31.24-.77,2.03-.91.6-.65,2.41-.47.34c.25.21.47.44.67.7,1.07,1.4,1.15.61,2.61.54"/>
        <path class="cls-9" d="M102.19,146.03s.03-.09.05-.13c0-.09-.02-.18-.05-.26v.39Z"/>
        <path class="cls-9" d="M55.19,178.1c1.12,0,.61.61.61,1.12s.05,1.33-.61,1.33-1.69-.2-2.66-.16c-.97.05.1-.77.92-1.07.82-.31-.11-.82.58-1.02.38-.11.77-.18,1.16-.2"/>
        <path class="cls-10" d="M86.96,2.36V.29c0-.2.07-.23.22-.25.22-.02.66-.03.94-.04-.02.34-.03.88-.03,1.63v2.91c0,.63.02.93.03,1.11-.18.04-.76.07-.96.07-.13,0-.19-.03-.19-.17v-2.47c-.18.02-.48.03-1.03.03h-1.38v2.33c0,.19-.07.23-.28.24-.24.03-.68.05-.87.04.02-.36.03-.89.03-1.65V1.22c0-.61,0-.98-.03-1.15.23-.05.77-.07.96-.07.16,0,.19.08.19.49v1.87h2.4Z"/>
        <path class="cls-10" d="M90.9,2.22c-.33,0-.69.32-.73.99.37.03,1.06.02,1.28,0,.06,0,.12-.09.12-.19,0-.44-.2-.8-.66-.8h0ZM92.41,4.77c0,.4-.32.77-.47.84-.14.06-.52.16-.84.16-1.31,0-2.03-.72-2.03-2.04,0-1.09.71-2.13,1.93-2.13,1.14,0,1.59.83,1.59,1.55,0,.13,0,.23-.03.3-.03.14-.39.26-.76.35-.23.05-1.16.06-1.66.04.05.79.62,1.12,1.23,1.12.43,0,.85-.13,1.01-.21l.02.02Z"/>
        <path class="cls-10" d="M93.22,2.06c.07-.21.41-.47.66-.47.4,0,.56.38.57.94.26-.61.64-.94,1.12-.94.17,0,.34.08.42.15.05.1.04.36-.06.53-.03.19-.21.41-.35.42-.18-.07-.28-.09-.43-.09-.14,0-.4.11-.55.49-.05.14-.08.24-.08.44v1.88c0,.15-.02.22-.2.25-.31.04-.59.05-.92.05.02-.48.03-1.03.03-1.64v-1.52c0-.21-.05-.37-.21-.46v-.03Z"/>
        <path class="cls-10" d="M98.11,2.22c-.33,0-.69.32-.73.99.37.03,1.06.02,1.28,0,.06,0,.12-.09.12-.19,0-.44-.2-.8-.66-.8h0ZM99.62,4.77c0,.4-.31.77-.47.84-.14.06-.52.16-.84.16-1.31,0-2.03-.72-2.03-2.04,0-1.09.71-2.13,1.93-2.13,1.14,0,1.59.83,1.59,1.55,0,.13,0,.23-.03.3-.03.14-.39.26-.76.35-.23.05-1.16.06-1.66.04.05.79.62,1.12,1.23,1.12.43,0,.85-.13,1.01-.21l.02.02Z"/>
        <path class="cls-10" d="M101.51.2c.14,0,.19.02.19.24,0,.53-.22,2.67-.27,3.05-.03.16-.13.2-.21.23-.22.05-.4.1-.45.1-.05-.38-.27-2.82-.28-3.39.04-.1.72-.23,1.01-.23h0ZM101.09,4.47c.35,0,.59.29.59.63,0,.4-.25.66-.66.66-.29,0-.61-.2-.61-.63,0-.36.23-.66.68-.66h0Z"/>
      </g>
      <rect class="cls-10" x="111.3" y="3.81" width=".5" height="16.08" transform="translate(39.29 97.66) rotate(-55.96)"/>
      <g class="cls-7">
        <path class="cls-10" d="M107.91,16.48s.96-1.99,2.34-1.59c1.39.4,2.3,2.14,2.3,2.82s.19,1.81-1.51,2.12c-1.71.3-4.06-1.2-3.13-3.34"/>
      </g>
      <rect class="cls-10" x="78.22" y="17.53" width="33.33" height=".5" transform="translate(-.21 1.14) rotate(-.69)"/>
      <g class="cls-6">
        <path class="cls-8" d="M122.18,29.9c-.32.11-.67.19-1.06.21v.66h1.15v.25h-.37v1.91h-.26v-1.91h-.52v.4c-.01.63-.15,1.13-.41,1.5l-.19-.19c.22-.32.33-.75.35-1.31v-1.52c.44,0,.83-.09,1.18-.24l.13.24ZM120.57,32.44l-.22.08c-.06-.22-.14-.44-.22-.65l.22-.06c.09.23.17.44.22.63M119.73,29.94c-.05-.11-.1-.21-.16-.3l.27-.04c.05.1.09.22.14.34h.68v.24h-1.62v-.24h.69ZM119,30.99v-.23h.42c-.05-.14-.11-.28-.17-.41l.23-.08c.06.14.12.3.18.49h.39c.06-.15.11-.32.16-.49l.23.08c-.05.15-.1.29-.16.41h.41v.23h-.71v.4h.64v.23h-.64v1.31h-.26v-1.31h-.66v-.23h.66v-.4h-.72ZM119.55,31.88c-.09.36-.22.68-.38.95l-.21-.14c.17-.26.28-.55.36-.86l.23.05Z"/>
        <path class="cls-8" d="M124.87,32.79c-.24,0-.36-.11-.36-.34v-2.82h.26v1.03l.99-.06v.24l-.99.07v1.5c0,.09.05.13.15.13h.37c.1,0,.18-.03.23-.08.04-.05.07-.24.09-.56l.24.08c-.02.38-.07.6-.14.68-.07.08-.19.12-.37.12h-.47ZM123.88,29.64v2.72c.1-.02.2-.05.29-.08v.25c-.46.13-.96.23-1.49.32l-.06-.25c.34-.04.67-.1,1-.18v-1.54h-.93v-.25h.93v-1h.26Z"/>
        <path class="cls-8" d="M127.71,30.04c-.06-.15-.12-.28-.19-.41l.28-.04c.06.13.11.28.17.45h1.47v.25h-1.46v.47h1.17v1.31c0,.22-.11.33-.33.33h-.36l-.07-.25h.34c.1.01.15-.04.15-.14v-1h-.91v1.91h-.27v-1.91h-.87v1.41h-.26v-1.66h1.12v-.47h-1.46v-.25h1.45Z"/>
        <path class="cls-8" d="M113.59,34.18v-.02s.25-.03.3-.03c.03,0,.06.02.09.06.12.15.47.66.84,1.15.18.26.33.47.43.64-.02-.35-.02-.56-.02-.74v-1c0-.08.03-.1.07-.1.11-.01.15-.01.22-.01,0,.15-.01.36-.01.66v1.6s-.16.05-.23.05c-.03,0-.04-.01-.06-.03-.24-.32-.57-.78-.89-1.23-.13-.19-.25-.38-.39-.61.02.42.02.61.02.79v.93c0,.09-.02.1-.08.11-.06.01-.14.01-.21.01,0-.14.01-.35.01-.65v-1.47l-.09-.12Z"/>
        <path class="cls-8" d="M116.67,34.99c-.18,0-.35.16-.38.45.25,0,.57,0,.64,0,.04,0,.07-.03.07-.08,0-.21-.11-.37-.33-.37h0ZM117.24,36.11c0,.12-.08.23-.15.26-.06.03-.21.08-.36.08-.5,0-.78-.3-.78-.81,0-.45.27-.85.75-.85.42,0,.59.31.6.6,0,.04,0,.08,0,.11-.01.06-.19.11-.31.13-.1.01-.46.02-.72.01,0,.35.23.56.54.56.16,0,.35-.06.41-.1h.01Z"/>
        <path class="cls-8" d="M117.77,34.78s.06.02.07.07c.11.33.22.7.35,1.18.16-.48.24-.71.36-1.06,0-.03-.01-.06-.02-.09.05-.02.17-.06.23-.06.04,0,.06.04.09.15.06.23.18.58.32,1.04.22-.65.35-1.05.4-1.23.07,0,.16.02.22.05.04.02.04.08,0,.2-.16.45-.28.78-.47,1.27-.02.07-.04.1-.1.12-.06.01-.13.03-.2.03-.13-.45-.22-.7-.36-1.14-.07.22-.27.79-.35,1-.02.06-.04.09-.08.1-.06.02-.14.03-.2.04-.08-.22-.2-.63-.35-1.04-.1-.28-.16-.43-.2-.53.06-.04.21-.08.28-.08h0Z"/>
        <path class="cls-8" d="M120.71,34.39h-.69c-.06,0-.08-.03-.06-.08.04-.09.08-.14.11-.17.05.02.14.02.53.02h1.22c0,.11-.08.22-.13.24h-.65v1.57c0,.25,0,.37.01.44-.08.02-.19.03-.28.03-.04,0-.06-.01-.06-.06v-1.97Z"/>
        <path class="cls-8" d="M122.01,35.99c0,.13.1.2.23.2.15,0,.26-.09.31-.17.02-.03.02-.06.02-.13v-.25c-.3.04-.56.14-.56.34h0ZM123.08,36.21c0,.16-.08.23-.24.23s-.23-.11-.26-.22c-.09.1-.26.22-.46.22-.25,0-.43-.19-.43-.41,0-.38.49-.49.69-.54.06-.01.14-.03.19-.04v-.09c0-.16-.09-.32-.31-.32-.12,0-.25.06-.35.12-.11.05-.16-.02-.18-.13.11-.1.35-.24.6-.24.37,0,.54.26.54.61,0,.15-.01.49,0,.71,0,.07.05.11.12.11.02,0,.05,0,.08-.01h0Z"/>
        <path class="cls-8" d="M123.76,36.31c0,.06-.02.08-.08.09-.05.01-.14.01-.25.02,0-.14.01-.35.01-.57v-.61c0-.22,0-.33-.02-.41.07-.02.22-.04.28-.04.04,0,.05.02.05.22v1.29ZM123.6,34.03c.1,0,.17.07.17.18s-.07.19-.18.19c-.1,0-.18-.06-.18-.18,0-.13.1-.19.18-.19h0Z"/>
        <path class="cls-8" d="M124.62,36.14c.07.04.18.08.3.08.22,0,.55-.15.55-.63,0-.32-.18-.54-.43-.54-.17,0-.35.11-.41.17v.93ZM124.62,37.07c0,.06-.01.07-.07.09-.09.01-.17.01-.26.01,0-.1.01-.31.01-.63v-1.41c0-.11-.03-.19-.06-.2v-.02c.04-.06.14-.12.21-.12.08,0,.14.1.15.23.22-.16.4-.23.55-.23.33,0,.64.25.64.76,0,.55-.4.9-.85.9-.13,0-.26-.04-.33-.09v.71Z"/>
        <path class="cls-8" d="M126.82,34.99c-.18,0-.35.16-.38.45.25,0,.57,0,.64,0,.04,0,.07-.03.07-.08,0-.21-.11-.37-.33-.37h0ZM127.4,36.11c0,.12-.08.23-.15.26-.06.03-.21.08-.36.08-.5,0-.78-.3-.78-.81,0-.45.27-.85.75-.85.42,0,.59.31.6.6,0,.04,0,.08,0,.11-.01.06-.19.11-.31.13-.1.01-.46.02-.72.01,0,.35.23.56.54.56.16,0,.35-.06.41-.1h.01Z"/>
        <path class="cls-8" d="M128.15,36.31c0,.06-.02.08-.08.09-.05.01-.14.01-.25.02,0-.14.01-.35.01-.57v-.61c0-.22,0-.33-.01-.41.06-.02.22-.04.28-.04.04,0,.05.02.05.22v1.29ZM127.99,34.03c.1,0,.17.07.17.18s-.07.19-.18.19c-.1,0-.18-.06-.18-.18,0-.13.1-.19.18-.19h0Z"/>
        <path class="cls-8" d="M131.3,36.11c-.01.1-.05.18-.11.23-.08.05-.27.12-.52.12-.81,0-1.24-.47-1.24-1.16,0-.73.55-1.2,1.26-1.2.33,0,.6.11.65.18,0,.13-.1.2-.18.17-.11-.05-.28-.11-.49-.11-.48,0-.89.31-.89.93,0,.54.34.94.97.94.22,0,.43-.07.54-.11h.01Z"/>
        <path class="cls-8" d="M131.99,36.31c0,.06-.02.08-.08.09-.05.01-.14.01-.25.02,0-.14.01-.35.01-.57v-.61c0-.22,0-.33-.02-.41.07-.02.22-.04.28-.04.04,0,.05.02.05.22v1.29ZM131.84,34.03c.1,0,.17.07.17.18s-.07.19-.18.19c-.1,0-.18-.06-.18-.18,0-.13.11-.19.18-.19h0Z"/>
        <path class="cls-8" d="M133.41,36.13c.02.07,0,.16-.07.21-.07.06-.21.1-.34.1-.32,0-.45-.2-.45-.48v-.92c-.13,0-.18-.04-.18-.08.04-.07.27-.28.32-.33.05-.04.11-.08.19-.09,0,.11-.01.2-.01.28h.57c-.04.19-.11.21-.18.21-.12,0-.14.01-.4.01-.02.36-.01.73,0,.89.02.21.13.26.26.26.11,0,.21-.04.27-.08h.01Z"/>
        <path class="cls-8" d="M133.74,37.06c.12-.15.33-.45.48-.75-.02-.03-.05-.09-.08-.15-.05-.14-.35-.95-.51-1.29.07-.04.2-.08.26-.08.05,0,.06.02.08.07.1.26.32.89.41,1.14.14-.33.33-.91.4-1.21.05,0,.15.01.2.04.06.02.07.05.04.13-.11.39-.25.79-.44,1.21-.21.47-.55,1-.62,1-.09,0-.19-.05-.23-.09h0Z"/>
        <path class="cls-9" d="M142,8.93h-1.24v.26h1.24v-.26ZM142,8.47h-1.24v.26h1.24v-.26ZM142,7.99h-1.24v.27h1.24v-.27ZM141.51,9.54v.29h.73v.23h-.73v.38h1.23v.24h-2.75v-.24h1.26v-.38h-.74v-.23h.74v-.29h.25ZM140.51,7.77v-.27h.25v.27h1.24v-.27h.25v.27h.64v.22h-.64v1.19h.69v.23h-.75c.17.22.44.39.8.51l-.1.22c-.45-.19-.76-.43-.95-.73h-1.13c-.19.3-.49.55-.91.74l-.13-.22c.36-.14.62-.31.79-.52h-.75v-.23h.69v-1.19h-.64v-.22h.64Z"/>
        <path class="cls-9" d="M146.05,7.98h-.9s0,0-.01.01c.11.14.26.27.45.37.2-.11.35-.24.46-.38M146.27,8.94v.21h-.56v.3h.72v.22h-.72v.29h.63v.22h-.63v.31h.9v.23h-2.13v-.23h.99v-.31h-.66v-.22h.66v-.29h-.58c-.08.15-.18.28-.28.39l-.15-.19c.17-.17.3-.38.4-.65l.2.04c-.02.06-.05.12-.07.18h.48v-.3h-.62v-.21h1.43ZM145.44,7.55c-.04.08-.09.16-.14.23h1.03v.19c-.11.19-.28.37-.51.51.24.1.52.17.84.23l-.09.22c-.4-.07-.74-.17-1-.31-.28.13-.62.24-1.02.33l-.12-.21c.36-.07.66-.15.91-.25-.15-.1-.27-.21-.36-.33-.1.1-.21.19-.32.27l-.16-.19c.28-.19.52-.44.7-.75l.24.05ZM144.51,7.65v.19c-.09.33-.21.68-.34,1.03.17.32.27.61.28.87,0,.15-.04.26-.09.32-.09.08-.23.12-.45.13l-.08-.25c.05,0,.1.01.14.01.09,0,.16-.03.19-.05.03-.03.05-.08.05-.15,0-.25-.09-.53-.28-.83.14-.38.25-.72.33-1.03h-.51v2.92h-.24v-3.15h1.01Z"/>
        <path class="cls-9" d="M148.48,7.92c-.06-.15-.12-.28-.19-.41l.28-.04c.06.13.11.28.17.45h1.47v.25h-1.46v.47h1.17v1.31c0,.22-.11.33-.33.33h-.36l-.06-.25h.34c.1.01.15-.04.15-.14v-1h-.91v1.91h-.27v-1.91h-.87v1.41h-.26v-1.66h1.12v-.47h-1.46v-.25h1.45Z"/>
        <path class="cls-9" d="M136.16,12.5c0-.24,0-.39-.01-.46.06-.01.23-.03.29-.03.05,0,.06.02.06.17v.95c.29-.3.76-.8,1.08-1.15.05,0,.11,0,.18.02.1.02.1.06.02.15-.22.23-.67.68-.92.95.23.27.79.89,1.08,1.14h0s-.16.06-.28.06c-.07,0-.13-.02-.21-.11-.18-.19-.83-.88-.94-1.02v.65c0,.25,0,.37,0,.44-.05.01-.22.03-.28.03-.05,0-.06-.01-.06-.06v-1.74Z"/>
        <path class="cls-9" d="M138.76,12.86c-.18,0-.35.16-.38.45.25,0,.57,0,.64,0,.04,0,.08-.03.08-.08,0-.21-.11-.37-.33-.37h0ZM139.33,13.98c0,.12-.08.23-.15.26-.06.03-.21.08-.36.08-.5,0-.78-.3-.78-.81,0-.45.27-.85.75-.85.42,0,.59.31.6.6,0,.04,0,.08,0,.11-.01.06-.19.11-.31.13-.1.01-.46.02-.72.01,0,.35.23.56.54.56.17,0,.35-.06.41-.1h.01Z"/>
        <path class="cls-9" d="M140.39,12.86c-.18,0-.35.16-.38.45.25,0,.57,0,.64,0,.04,0,.07-.03.07-.08,0-.21-.11-.37-.33-.37h0ZM140.96,13.98c0,.12-.08.23-.15.26-.06.03-.21.08-.36.08-.5,0-.78-.3-.78-.81,0-.45.27-.85.75-.85.42,0,.59.31.6.6,0,.04,0,.08,0,.11,0,.06-.19.11-.31.13-.1.01-.46.02-.72.01,0,.35.23.56.54.56.16,0,.35-.06.41-.1h.01Z"/>
        <path class="cls-9" d="M141.38,12.28c0-.21,0-.32-.02-.4.08-.03.22-.05.28-.05.04,0,.05.02.05.23v1.73c0,.18,0,.37.01.47-.06.02-.24.03-.28.03-.03,0-.05-.01-.05-.05v-1.97Z"/>
        <path class="cls-9" d="M142.22,13.13c0-.22,0-.33-.02-.41.06-.02.21-.04.28-.04.04,0,.05.02.05.22,0,.24,0,.49,0,.73,0,.37.19.42.35.42.17,0,.31-.11.38-.18v-1.05c0-.09.01-.1.06-.12.1-.01.19-.02.27-.02,0,.08-.01.33-.01.65v.57c0,.17.05.21.15.23v.02c0,.07-.09.18-.17.18-.15,0-.24-.1-.26-.26-.11.12-.23.18-.3.21-.07.03-.15.05-.23.05-.37,0-.54-.24-.54-.6v-.6Z"/>
        <path class="cls-9" d="M145.21,13.33c0-.27-.12-.41-.34-.41-.18,0-.32.11-.41.21v1.07c0,.07-.01.08-.07.09-.08.01-.17.01-.25.01,0-.13.01-.35.01-.66v-.61c0-.13-.02-.19-.06-.23h0c.03-.07.14-.14.21-.14.11,0,.15.18.15.27.15-.15.35-.27.55-.27.42,0,.53.32.53.66v.49c0,.21,0,.36.01.45-.08.01-.18.03-.28.03-.04,0-.06-.02-.06-.05v-.92Z"/>
        <path class="cls-9" d="M146.58,12.85c-.18,0-.31.14-.31.37s.13.36.32.36c.2,0,.31-.17.31-.36s-.09-.36-.31-.36h0ZM146.18,14.54c0,.2.24.3.47.3.27,0,.47-.13.47-.32,0-.11-.05-.21-.26-.24-.11-.02-.23-.02-.32-.02-.08,0-.14.01-.18.04-.09.05-.18.14-.18.24h0ZM146.6,12.66c.09,0,.19.01.28.04.1.02.21.05.3.05s.18-.01.24-.03c0,.02.01.05.01.07,0,.11-.07.16-.2.17-.03,0-.08,0-.11,0,.05.09.06.17.06.25,0,.38-.28.55-.6.55-.08,0-.1,0-.15-.02-.04.04-.1.09-.1.11,0,.06.05.1.21.11.17.01.31.02.44.03.29.03.42.19.42.41,0,.39-.39.64-.83.64s-.68-.23-.68-.48c0-.15.18-.29.34-.38-.12-.05-.22-.15-.22-.28,0-.02,0-.03.03-.04.07-.05.17-.12.22-.18-.18-.08-.3-.25-.3-.47,0-.33.27-.58.63-.58h0Z"/>
        <path class="cls-9" d="M150.32,13.99c-.01.1-.05.18-.12.23-.08.05-.27.12-.52.12-.81,0-1.24-.47-1.24-1.16,0-.73.55-1.2,1.26-1.2.33,0,.59.11.65.18,0,.13-.1.2-.18.17-.11-.05-.28-.11-.49-.11-.48,0-.89.31-.89.93,0,.54.34.94.97.94.22,0,.43-.07.54-.11h.01Z"/>
        <path class="cls-9" d="M151.01,14.19c0,.07-.02.08-.08.09-.05.01-.14.01-.25.02,0-.14.01-.35.01-.57v-.61c0-.22,0-.33-.01-.41.06-.02.22-.04.28-.04.04,0,.05.02.05.22v1.28ZM150.85,11.91c.1,0,.17.08.17.18s-.07.19-.18.19c-.1,0-.18-.06-.18-.18,0-.13.11-.19.18-.19h0Z"/>
        <path class="cls-9" d="M152.42,14.01c.02.07,0,.16-.07.21-.07.06-.21.1-.34.1-.32,0-.45-.2-.45-.48v-.91c-.13,0-.18-.04-.18-.08.04-.07.27-.28.32-.33.05-.04.11-.08.19-.09,0,.11-.01.2-.01.28h.57c-.04.19-.11.2-.18.21-.12,0-.14.01-.4.01-.02.36-.01.73,0,.89.02.21.13.26.26.26.11,0,.21-.04.27-.07h.01Z"/>
        <path class="cls-9" d="M152.75,14.93c.12-.15.33-.45.48-.74-.02-.03-.05-.09-.08-.16-.05-.14-.35-.95-.51-1.29.07-.04.2-.08.26-.08.05,0,.06.03.08.07.1.26.32.89.41,1.14.14-.33.33-.91.4-1.21.06,0,.15.01.2.04.06.03.07.05.04.13-.11.38-.25.79-.44,1.21-.21.47-.55,1-.62,1-.09,0-.2-.05-.23-.09h0Z"/>
        <path class="cls-8" d="M121.34,19.32h-1.88v.83h1.88v-.83ZM121.6,20.57h-.26v-.18h-1.88v.18h-.26v-1.5h2.41v1.5ZM118.89,18.45c.32-.11.71-.51,1.18-1.19l.27.09c-.32.46-.65.83-.98,1.09.69-.03,1.35-.08,1.97-.13-.14-.19-.28-.38-.42-.54l.23-.11c.31.36.6.76.86,1.19l-.25.12c-.09-.15-.18-.29-.27-.43-.76.07-1.61.12-2.54.15l-.05-.24Z"/>
        <path class="cls-8" d="M124.65,20.43c-.24,0-.36-.12-.36-.34v-2.82h.26v1.03l.99-.06v.25l-.99.07v1.51c0,.09.05.13.16.13h.37c.1,0,.18-.03.23-.08.04-.06.07-.24.09-.56l.24.08c-.02.38-.07.6-.14.68-.07.08-.19.12-.37.12h-.47ZM123.66,17.27v2.72c.1-.02.2-.05.29-.08v.25c-.46.13-.95.23-1.49.32l-.06-.25c.34-.04.67-.1,1-.18v-1.54h-.93v-.25h.93v-1h.26Z"/>
        <path class="cls-8" d="M127.49,17.68c-.06-.15-.12-.28-.19-.41l.28-.04c.06.13.11.28.17.45h1.47v.25h-1.46v.47h1.17v1.31c0,.22-.11.33-.33.33h-.36l-.07-.25h.34c.1.01.15-.04.15-.14v-1h-.91v1.91h-.27v-1.91h-.87v1.41h-.26v-1.66h1.12v-.47h-1.46v-.25h1.45Z"/>
        <path class="cls-8" d="M117.24,22.02h-.69c-.06,0-.08-.03-.06-.08.04-.09.08-.14.11-.17.05.01.14.02.53.02h1.22c0,.11-.08.22-.13.24h-.65v1.57c0,.25,0,.37.01.44-.08.02-.19.03-.28.03-.04,0-.06-.01-.06-.06v-1.97Z"/>
        <path class="cls-8" d="M118.54,23.63c0,.13.1.2.23.2.15,0,.26-.09.31-.17.02-.03.02-.06.02-.13v-.25c-.29.04-.56.14-.56.34h0ZM119.61,23.85c0,.16-.08.23-.24.23s-.23-.11-.26-.22c-.09.1-.26.22-.46.22-.25,0-.43-.19-.43-.41,0-.38.49-.49.69-.54.07-.01.14-.03.19-.04v-.09c0-.16-.09-.32-.31-.32-.12,0-.25.06-.35.12-.11.05-.16-.03-.18-.13.11-.1.35-.24.6-.24.37,0,.54.26.54.61,0,.16-.01.49,0,.71,0,.07.05.11.12.11.02,0,.05,0,.08-.01h0Z"/>
        <path class="cls-8" d="M120.29,23.95c0,.07-.02.08-.08.09-.05.01-.14.01-.25.02,0-.14.01-.35.01-.57v-.61c0-.22,0-.33-.02-.41.07-.02.22-.04.28-.04.04,0,.05.02.05.22v1.28ZM120.14,21.67c.1,0,.17.08.17.18s-.07.19-.18.19c-.1,0-.18-.06-.18-.18,0-.13.1-.19.18-.19h0Z"/>
        <path class="cls-8" d="M121.15,23.78c.07.04.18.08.3.08.22,0,.55-.15.55-.63,0-.32-.18-.54-.44-.54-.17,0-.35.11-.41.17v.92ZM121.15,24.7c0,.06-.01.07-.07.09-.09.01-.17.01-.26.01,0-.1.01-.31.01-.63v-1.41c0-.11-.02-.19-.06-.2v-.02c.04-.06.14-.12.21-.12.08,0,.14.1.15.23.22-.16.4-.23.56-.23.33,0,.64.25.64.76,0,.55-.4.9-.85.9-.13,0-.26-.04-.33-.09v.71Z"/>
        <path class="cls-8" d="M123.36,22.62c-.18,0-.35.16-.38.45.25,0,.57,0,.64,0,.04,0,.07-.03.07-.08,0-.21-.11-.37-.33-.37h0ZM123.93,23.74c0,.12-.08.23-.15.26-.06.03-.21.08-.36.08-.5,0-.78-.3-.78-.81,0-.45.27-.85.75-.85.42,0,.59.31.6.6,0,.04,0,.08,0,.11,0,.06-.19.11-.31.13-.1.01-.46.02-.72.01,0,.35.23.56.54.56.16,0,.35-.06.41-.1h.01Z"/>
        <path class="cls-8" d="M124.68,23.95c0,.07-.02.08-.08.09-.05.01-.14.01-.25.02,0-.14.01-.35.01-.57v-.61c0-.22,0-.33-.01-.41.06-.02.22-.04.28-.04.04,0,.05.02.05.22v1.28ZM124.53,21.67c.1,0,.17.08.17.18s-.07.19-.18.19c-.1,0-.18-.06-.18-.18,0-.13.11-.19.18-.19h0Z"/>
        <path class="cls-8" d="M127.84,23.75c-.01.1-.05.18-.12.23-.08.05-.27.12-.52.12-.81,0-1.24-.47-1.24-1.16,0-.73.55-1.2,1.26-1.2.33,0,.59.11.65.18,0,.13-.1.2-.18.17-.11-.05-.28-.11-.49-.11-.48,0-.89.31-.89.93,0,.54.34.94.97.94.22,0,.43-.07.54-.11h.01Z"/>
        <path class="cls-8" d="M128.53,23.95c0,.07-.02.08-.08.09-.05.01-.14.01-.25.02,0-.14.01-.35.01-.57v-.61c0-.22,0-.33-.01-.41.06-.02.22-.04.28-.04.04,0,.05.02.05.22v1.28ZM128.38,21.67c.1,0,.17.08.17.18s-.07.19-.18.19c-.1,0-.18-.06-.18-.18,0-.13.11-.19.18-.19h0Z"/>
        <path class="cls-8" d="M129.93,23.77c.02.07,0,.16-.07.21-.07.06-.21.1-.34.1-.32,0-.45-.2-.45-.48v-.91c-.13,0-.18-.04-.18-.08.04-.07.27-.28.32-.33.05-.04.11-.08.19-.09,0,.11-.02.2-.02.28h.57c-.04.19-.11.2-.18.21-.12,0-.14.01-.4.01-.02.36-.02.73,0,.89.02.21.13.26.26.26.11,0,.21-.04.27-.07h.01Z"/>
        <path class="cls-8" d="M130.27,24.69c.12-.15.33-.45.48-.74-.02-.03-.05-.09-.08-.16-.05-.14-.35-.95-.51-1.29.07-.04.2-.08.26-.08.05,0,.06.02.08.07.1.26.32.89.41,1.14.14-.33.33-.91.4-1.21.05,0,.15.01.2.04.06.02.07.05.04.13-.11.39-.25.79-.44,1.21-.21.47-.55,1-.62,1-.09,0-.19-.05-.23-.09h0Z"/>
      </g>
    </g>
  </g>
</svg>