<?xml version="1.0" encoding="UTF-8"?>
<svg id="_圖層_2" data-name="圖層_2" xmlns="http://www.w3.org/2000/svg" xmlns:xlink="http://www.w3.org/1999/xlink" viewBox="0 0 159.42 192.23">
  <defs>
    <style>
      .cls-1 {
        fill: none;
      }

      .cls-2 {
        clip-path: url(#clippath-1);
      }

      .cls-3 {
        clip-path: url(#clippath-3);
      }

      .cls-4 {
        clip-path: url(#clippath-2);
      }

      .cls-5 {
        fill: #bf2820;
      }

      .cls-6 {
        fill: #fff;
      }

      .cls-7 {
        fill: #a7acac;
      }

      .cls-8 {
        clip-path: url(#clippath);
      }
    </style>
    <clipPath id="clippath">
      <rect class="cls-1" x="0" y="0" width="159.42" height="192.23"/>
    </clipPath>
    <clipPath id="clippath-1">
      <rect class="cls-1" x="0" y="0" width="159.42" height="192.23"/>
    </clipPath>
    <clipPath id="clippath-2">
      <rect class="cls-1" x="0" y="0" width="159.42" height="192.23"/>
    </clipPath>
    <clipPath id="clippath-3">
      <rect class="cls-1" x="0" y="0" width="159.42" height="192.23"/>
    </clipPath>
  </defs>
  <g id="_圖層_1-2" data-name="圖層_1">
    <g>
      <g class="cls-8">
        <path class="cls-6" d="M35.99,25.23c-.07.35-.17.66-.28.92l-.24-.09c.11-.24.21-.54.3-.9l.23.06ZM38.53,24.74c0,.71-.05,1.13-.14,1.25-.09.12-.26.18-.52.18-.1,0-.21,0-.32,0l-.06-.25c.12,0,.23.01.34.01.22,0,.35-.06.38-.19.04-.13.05-.39.05-.77h-2.47v-1.95h2.63v.23h-1.13v.34h.96v.23h-.96v.34h.96v.23h-.96v.35h1.23ZM36.05,23.59h.99v-.34h-.99v.34ZM36.05,24.16h.99v-.34h-.99v.34ZM36.05,24.74h.99v-.35h-.99v.35ZM36.63,26.03l-.25.03c-.01-.35-.04-.62-.08-.82l.23-.03c.05.2.08.47.09.81M37.33,25.84l-.23.09c-.06-.24-.12-.47-.2-.69l.22-.06c.09.24.15.46.21.66M37.93,25.66l-.22.05c-.05-.18-.12-.36-.19-.53l.21-.07c.08.16.14.34.21.55"/>
        <path class="cls-6" d="M39.07,25.13l-.08-.27c.49-.41.81-.82.98-1.21h-.89v-.25h.57c-.06-.16-.13-.31-.22-.46l.25-.07c.09.18.15.34.2.49l-.1.04h.45v.22c-.09.25-.23.5-.41.75.19.12.36.25.52.41l-.14.22c-.13-.14-.25-.26-.38-.36v1.55h-.26v-1.5c-.14.15-.31.31-.49.46M42,25.82h.29v.25h-2.14v-.25h.34v-2.79h1.51v2.79ZM41.74,23.28h-1v.66h1v-.66ZM41.74,24.19h-1v.69h1v-.69ZM41.74,25.13h-1v.7h1v-.7Z"/>
        <path class="cls-6" d="M43.48,23.79v.21c-.13.21-.27.42-.44.62h.48v.17c-.05.29-.12.53-.2.72.03.02.06.04.09.07.11.11.23.2.35.25.12.05.28.07.49.08.19,0,.42,0,.67,0s.58,0,.98-.02l-.06.25h-.89c-.27,0-.51,0-.72-.01-.25,0-.44-.04-.57-.09-.15-.06-.28-.16-.41-.29-.03-.03-.06-.04-.09-.04-.08,0-.2.16-.36.49l-.19-.17c.17-.33.32-.51.48-.56.08-.18.14-.39.19-.63h-.54v-.2c.18-.21.34-.41.46-.61h-.54v-.24h.83ZM43.48,23.43l-.17.17c-.13-.16-.32-.33-.55-.51l.17-.17c.22.17.4.34.55.51M44.62,23.17v-.27h.25v.27h.91v.23h-.91v.26h.76v1.26h-.76v.27h.98v.23h-.98v.37h-.25v-.37h-1v-.23h1v-.27h-.76v-1.26h.76v-.26h-.92v-.23h.92ZM44.63,23.87h-.53v.31h.53v-.31ZM44.63,24.38h-.53v.31h.53v-.31ZM44.86,24.18h.53v-.31h-.53v.31ZM45.39,24.38h-.53v.31h.53v-.31Z"/>
        <path class="cls-6" d="M47.06,24.34l-.18.18c-.15-.17-.36-.34-.63-.53l.18-.18c.25.17.46.35.63.52M47.12,24.86c-.18.46-.37.89-.59,1.3l-.24-.1c.23-.42.43-.85.6-1.28l.23.09ZM47.17,23.47l-.18.18c-.16-.16-.37-.33-.65-.52l.18-.18c.26.17.47.34.64.51M47.35,23.36v-.24h2.03v.24h-.88v2.45h1v.25h-2.33v-.25h1.08v-2.45h-.9Z"/>
        <path class="cls-6" d="M50.39,25.18c-.08.33-.19.62-.35.87l-.19-.13c.15-.24.26-.5.33-.78l.21.04ZM51.31,24.76h.19v.23h-.67v1.15h-.24v-1.15h-.65v-.23h.18v-1.74h1.2v1.74ZM51.07,23.23h-.73v.24h.73v-.24ZM51.07,23.66h-.73v.24h.73v-.24ZM51.07,24.09h-.73v.25h.73v-.25ZM51.07,24.52h-.73v.23h.73v-.23ZM51.41,25.72l-.21.09c-.06-.23-.13-.44-.2-.62l.2-.07c.08.18.14.38.2.59M52,25.31c-.12.27-.24.5-.4.7l-.19-.13c.15-.19.28-.41.39-.67l.2.1ZM52.45,22.9c-.27.38-.55.67-.86.87l-.16-.18c.3-.19.56-.44.76-.75l.25.06ZM51.95,26.14l-.05-.23c.07,0,.14.01.21.01s.1-.04.1-.11v-.83c-.18.02-.37.03-.56.04l-.05-.21.09-.02c.17-.09.37-.27.6-.52-.2.02-.41.04-.62.05l-.05-.2.09-.02c.18-.11.43-.4.75-.86l.23.09c-.26.35-.49.61-.69.78.16-.01.32-.03.47-.05.1-.12.2-.24.31-.38l.23.09c-.38.46-.71.8-.99,1.03.24-.02.48-.05.71-.08-.04-.09-.09-.17-.13-.25l.2-.09c.11.19.22.41.31.64l-.2.1-.08-.2c-.13.01-.26.03-.39.04v.91c0,.18-.09.27-.25.27h-.24ZM53.14,25.86l-.19.13c-.09-.21-.22-.44-.38-.69l.19-.12c.17.26.29.48.38.68"/>
        <path class="cls-6" d="M31.07,27.89c0-.24,0-.39-.01-.46.07-.01.19-.03.28-.03.04,0,.06.02.06.2v1.82c.07.02.24.03.39.03.16,0,.39,0,.54-.02h0c-.02.12-.08.2-.16.24-.05,0-.17.01-.43.01-.29,0-.52-.02-.62-.04l-.05-.07v-1.69Z"/>
        <path class="cls-6" d="M32.81,27.29c.1,0,.17.08.17.18s-.07.19-.18.19c-.1,0-.18-.06-.18-.18,0-.13.11-.19.18-.19h0ZM32.97,29.58c0,.06-.02.08-.08.09-.05.01-.14.01-.25.02,0-.14.01-.35.01-.57v-.61c0-.22,0-.33-.01-.41.06-.02.22-.04.28-.04.04,0,.05.02.05.22v1.29Z"/>
        <path class="cls-6" d="M34.65,29.37c0,.12-.08.23-.15.26-.06.03-.21.08-.36.08-.5,0-.78-.3-.78-.81,0-.45.27-.85.75-.85.42,0,.59.31.6.6,0,.04,0,.08,0,.11-.01.06-.19.11-.31.13-.1.01-.46.02-.72.01,0,.35.23.56.54.56.17,0,.35-.06.41-.1h.01ZM34.08,28.25c-.18,0-.35.16-.38.45.25,0,.57,0,.64,0,.04,0,.08-.03.08-.08,0-.21-.11-.37-.33-.37h0Z"/>
        <path class="cls-6" d="M36.16,28.71c0-.27-.12-.41-.34-.41-.18,0-.32.11-.41.21v1.07c0,.07-.01.08-.07.09-.08.02-.17.01-.25.02,0-.13.01-.35.01-.66v-.61c0-.13-.02-.19-.06-.23v-.02c.03-.05.14-.12.21-.12.11,0,.15.18.15.27.15-.15.35-.27.55-.27.42,0,.53.32.53.66v.49c0,.21,0,.36.01.45-.08.01-.18.03-.28.03-.04,0-.06-.02-.06-.05v-.92Z"/>
        <path class="cls-6" d="M38.18,29.39c0,.08-.05.18-.1.22-.09.05-.23.09-.39.09-.37,0-.82-.18-.82-.8,0-.5.38-.86.87-.86.26,0,.42.09.46.13,0,.1-.06.2-.16.18-.08-.03-.2-.07-.31-.07-.31,0-.53.24-.53.58,0,.46.33.59.58.59.13,0,.29-.03.38-.07h.01Z"/>
        <path class="cls-6" d="M38.85,28.28c.14-.11.32-.24.54-.24.4,0,.53.32.53.67v.49c0,.22,0,.37,0,.46-.07.01-.17.03-.27.03-.04,0-.05-.02-.05-.06v-.89c0-.32-.15-.43-.35-.43-.17,0-.33.11-.4.18v1.09c0,.06-.02.08-.07.09-.09.01-.18.01-.26.01,0-.13.01-.34.01-.66v-1.35c0-.22,0-.33-.02-.4.09-.03.22-.05.28-.05.04,0,.05.02.05.23v.83Z"/>
        <path class="cls-6" d="M40.62,27.29c.1,0,.17.08.17.18s-.07.19-.18.19c-.1,0-.18-.06-.18-.18,0-.13.1-.19.18-.19h0ZM40.77,29.58c0,.06-.02.08-.08.09-.05.01-.14.01-.25.02,0-.14.01-.35.01-.57v-.61c0-.22,0-.33-.02-.41.07-.02.22-.04.28-.04.04,0,.05.02.05.22v1.29Z"/>
        <path class="cls-6" d="M42.55,29.47c0,.16-.08.23-.24.23s-.23-.11-.26-.22c-.09.1-.26.22-.46.22-.25,0-.43-.19-.43-.41,0-.38.49-.49.69-.54.07-.01.14-.03.19-.04v-.09c0-.16-.09-.32-.31-.32-.12,0-.25.06-.35.12-.11.05-.16-.02-.18-.13.11-.1.35-.24.6-.24.37,0,.54.26.54.61,0,.15-.01.49,0,.71,0,.07.05.11.12.11.02,0,.05,0,.08-.01h0ZM41.48,29.25c0,.13.1.2.23.2.15,0,.26-.09.31-.17.02-.03.02-.06.02-.13v-.25c-.3.04-.56.14-.56.34h0Z"/>
        <path class="cls-6" d="M43.96,28.71c0-.27-.12-.41-.34-.41-.18,0-.32.11-.41.21v1.07c0,.07-.01.08-.07.09-.08.02-.17.01-.25.02,0-.13.01-.35.01-.66v-.61c0-.13-.02-.19-.07-.23v-.02c.03-.05.14-.12.21-.12.12,0,.15.18.15.27.15-.15.35-.27.55-.27.42,0,.53.32.53.66v.49c0,.21,0,.36.01.45-.08.01-.18.03-.28.03-.04,0-.06-.02-.06-.05v-.92Z"/>
        <path class="cls-6" d="M45.35,28.04c.09,0,.19.01.28.04.1.02.21.05.3.05s.18-.01.24-.03c0,.02.01.05.01.07,0,.11-.07.16-.2.17-.03,0-.08,0-.11,0,.05.09.06.17.06.25,0,.38-.28.55-.6.55-.08,0-.1,0-.15-.02-.04.04-.11.09-.11.12,0,.06.05.1.21.11.17.01.31.02.44.03.29.03.42.19.42.41,0,.38-.39.64-.83.64s-.68-.23-.68-.48c0-.15.18-.29.34-.38-.12-.05-.21-.15-.22-.28,0-.02,0-.03.03-.04.07-.05.17-.12.22-.18-.18-.08-.3-.25-.3-.47,0-.33.27-.58.63-.58h0ZM44.93,29.92c0,.2.24.3.47.3.27,0,.47-.13.47-.32,0-.11-.05-.21-.26-.23-.11-.02-.24-.02-.32-.02-.07,0-.14.01-.18.04-.09.05-.18.14-.18.24h0ZM45.34,28.24c-.18,0-.31.14-.31.37s.13.36.32.36c.2,0,.31-.17.31-.36s-.09-.36-.31-.36h0Z"/>
        <path class="cls-6" d="M49.07,29.37c-.01.1-.05.18-.11.23-.08.05-.27.12-.52.12-.81,0-1.24-.47-1.24-1.16,0-.73.55-1.2,1.26-1.2.33,0,.59.11.65.18,0,.13-.1.2-.18.17-.11-.05-.28-.11-.49-.11-.48,0-.89.31-.89.93,0,.54.34.94.97.94.22,0,.43-.07.54-.11h.01Z"/>
        <path class="cls-6" d="M50.12,28.04c.5,0,.78.35.78.81s-.31.85-.8.85c-.53,0-.79-.39-.79-.81,0-.48.33-.85.81-.85h0ZM50.09,28.26c-.23,0-.45.21-.45.59,0,.43.22.64.49.64.21,0,.43-.18.43-.61,0-.31-.13-.63-.47-.63h0Z"/>
        <path class="cls-6" d="M51.3,28.51c0-.22,0-.33-.01-.41.06-.02.21-.04.28-.04.04,0,.05.02.05.22,0,.24,0,.49,0,.73,0,.37.19.42.35.42.17,0,.31-.11.38-.18v-1.05c0-.09.01-.1.06-.12.1-.01.19-.02.27-.02,0,.08-.01.33-.01.64v.57c0,.17.05.21.15.23v.02c0,.07-.09.18-.17.18-.15,0-.24-.1-.26-.26-.11.12-.23.18-.3.21-.07.03-.15.05-.23.05-.37,0-.54-.24-.54-.6v-.6Z"/>
        <path class="cls-6" d="M54.28,28.71c0-.27-.12-.41-.34-.41-.18,0-.32.11-.41.21v1.07c0,.07-.01.08-.07.09-.08.02-.17.01-.25.02,0-.13.01-.35.01-.66v-.61c0-.13-.02-.19-.06-.23v-.02c.03-.05.14-.12.21-.12.11,0,.15.18.15.27.15-.15.35-.27.55-.27.42,0,.53.32.53.66v.49c0,.21,0,.36.01.45-.08.01-.18.03-.28.03-.04,0-.06-.02-.06-.05v-.92Z"/>
        <path class="cls-6" d="M55.99,29.39c.02.07,0,.16-.07.21-.07.06-.21.1-.34.1-.32,0-.45-.2-.45-.48v-.91c-.13,0-.18-.04-.18-.08.04-.07.27-.28.32-.33.05-.04.11-.08.19-.09,0,.11-.01.2-.01.28h.57c-.04.19-.11.2-.18.21-.12,0-.14.01-.4.01-.02.36-.02.73,0,.89.02.21.13.26.26.26.11,0,.21-.04.27-.07h.01Z"/>
        <path class="cls-6" d="M56.33,30.32c.12-.15.33-.45.48-.74-.02-.03-.05-.09-.08-.16-.05-.14-.35-.95-.51-1.29.07-.04.2-.08.26-.08.05,0,.06.02.08.07.1.26.32.89.41,1.14.14-.33.33-.91.4-1.21.05,0,.15.01.2.04.06.02.07.05.04.13-.11.39-.25.79-.44,1.21-.21.47-.55,1-.62,1-.09,0-.19-.05-.23-.09h0Z"/>
      </g>
      <polygon class="cls-6" points="136.21 54.21 135.94 55.18 134.19 56.48 131.36 56.27 125.66 54.09 124.69 54.8 124.05 56.74 122.51 57.31 121.89 59.53 118.81 61.51 120.22 62.89 117.78 63.47 117.4 64.28 115.81 64.71 115.92 66.36 118.27 67.28 118.1 69.29 115.31 71.21 115.41 72.78 114.18 74.95 115.15 75.71 115.41 79.01 114.57 79.94 114.38 81.33 113.17 82.81 112.98 84.51 111.42 86 111.13 87.44 112.23 88.21 112.09 89.69 113.24 90.25 112.22 93.49 112.42 94.8 110.89 97.09 108.07 97.69 107.61 100.64 106.68 102.02 104.77 101.66 102.63 102.08 100.82 103.72 102.15 105.2 99.17 106.47 99.17 108.23 98 109.14 97.92 110.55 100.11 111.05 101.76 112.31 100.68 114.1 101.83 114.31 102.45 117.38 105.73 117.7 106.02 118.77 110.12 119.22 111.11 122.62 115.09 124.51 116.98 123.88 117.55 120.43 118.74 119.32 120.83 115.22 120.08 113.94 123.17 110.73 122.07 108.83 122.07 107.33 125.3 105.43 126.96 105.43 127.98 106.96 128.17 106.37 129.11 102.87 128.62 102.05 130.32 97.5 130.58 95.35 131.18 93.38 131.57 90.62 132.97 87.85 132.79 85.63 133.39 84.95 134.81 80.92 134.95 76.98 135.58 75.22 137.22 74.16 137.25 73.33 136.37 72.49 135.49 70.78 135.69 69.54 136.26 68.63 138.05 67.32 138.36 65.22 137.93 64.28 138.9 62.64 141.2 61.31 141.77 60.27 142.68 60.08 143.58 59.02 143.87 57.74 144.52 57.07 136.21 54.21"/>
      <polygon class="cls-6" points="126.56 106.01 125.51 106.01 122.75 107.64 122.75 108.69 123.97 110.81 120.88 114.02 121.58 115.2 119.32 119.64 118.19 120.68 117.6 124.29 115.04 125.15 110.52 123.01 109.57 119.74 105.46 119.29 105.17 118.23 101.87 117.9 101.24 114.79 100.17 114.6 97.17 114.99 95.5 116.74 93.48 117.28 92.96 120.53 90.66 122.29 90.66 123.93 91.29 124.51 91.14 129.07 87.76 131.73 87.81 135.01 88.44 136.65 90.33 137.86 89.3 139.39 89.86 140.43 92.63 141.55 92.29 143.61 91.67 144.22 91.46 146.82 88.83 147.13 87.17 147.88 86.27 147.88 85.21 148.93 85.53 149.6 83.49 152.27 82.37 156.11 84.02 159.1 83.17 160.79 85.53 163.65 84.2 164.46 82.78 164.86 82.74 166.43 83.76 167.06 85.56 167.57 85.38 169.26 84.95 169.63 85.91 171.04 86.17 172.33 87.59 172.56 89.31 174.06 91.29 174.06 91.37 168.47 92.73 165.5 94.72 161.21 96.68 155.65 98.13 154.32 98.64 153.65 98.75 152.34 99.21 151.04 100.91 149.45 105.39 147.08 107.67 145.68 108.97 143.87 109.91 142.54 109.97 141.52 109.57 140.44 109.51 139.88 109.91 139.23 113.15 137.61 115.5 133.77 117.21 132.42 117.66 130.85 118.85 128.95 119.71 126.22 120.73 125.42 122.54 124.89 122.77 121.65 122.35 120.42 122.35 119.53 123.46 118.25 123.46 117.77 123.68 116.56 125.1 113.92 126.04 113.3 126.4 111.97 127.73 107.76 126.56 106.01"/>
      <polygon class="cls-6" points="45.31 100.67 45.24 101.91 47.92 101.47 49.53 101.97 51.75 101.71 52.18 101.34 51.34 100.37 53.51 98.86 54.34 100.23 57.51 98.27 57.86 97.3 60.46 96.19 61.88 95.16 63.68 95.71 66.37 94.62 68.34 94.62 69.64 96.61 71.74 97.29 75.78 97.38 78.16 98.56 81.43 98.16 80.97 95.81 78.84 96.54 75.49 94.93 76.11 92.67 75.86 89.84 76.77 88.9 77.06 87.99 76.16 86.47 68.19 86.11 64.85 84.43 59.56 84.15 56.06 84.68 51.49 84.03 49.72 85.84 48.18 88.65 47.93 91.69 47.05 91.16 46.14 92.07 44.69 95.55 44.72 97.94 45.31 100.67"/>
      <path class="cls-6" d="M67.5,105.45l-1.57-.47-.8,1.25-1.12-.19-1-1.21-1.96-.05-.89-2.67,2.49-.32.65-.98,2.44.05.82,1.44,1.76.93.74.86-1.56,1.35ZM70.84,111.74l-1.27,2.08,1.12,2.9-1.23.62,1.26.83h1.76l.93-.96,2.6.29-1.17-3.39,1.4-.91,1.98,1.26,2.92-1.09,1.89-2.45,1.7.09,2.55-1.98,1.46-2.78,1.93-.04,2.23-1.62-.85-.49-2.68.64-2.29-.39.05-2.6-1.77-2.88.47-1.19-1.44-1.01-2.6-.21.42,2.19-4.19.51-2.44-1.2-3.98-.08-2.44-.8-1.22-1.86h-1.41l-2.81,1.13-1.68-.53-1.19.86-2.42,1.03-.33.92-3.99,2.48-.81-1.34-1.02.71.8.93-1.02.86-2.6.31-1.57-.49-2.4.39.69.84-.71.46.06.41.51,1.35-.77.55v1.76l.65.63-.14.37h-.94l-.23,1.35-.17,2.38,1.34-.1,2.34,1.45,1.41.03,2.93-1.98.74-1.45,5.24-2.93h.09l6.29-.29,3.35.83-.41,1.49,3.08,2.12Z"/>
      <polygon class="cls-6" points="45.97 132.2 47.1 135.27 47.25 135.81 50.53 135.38 51.85 136.08 54.71 136.05 56.17 136.46 58.85 136.54 61 135.15 62.04 135.04 65.14 130.5 67.87 128.99 69 126.8 70.39 127.02 72.12 125.48 75.16 120.64 75.93 119.86 76.12 118.09 73.7 117.82 72.8 118.75 70.49 118.75 68.27 117.28 69.86 116.44 68.84 113.75 69.98 111.88 66.99 109.86 67.35 108.55 64.72 107.9 58.63 108.18 53.72 110.93 53 112.35 49.75 114.56 47.88 114.51 45.57 113.08 44.21 113.18 43.5 114.1 43.44 115.23 42.84 116.41 43.87 118.1 42.22 118.37 41.94 119.55 40.86 121.17 41.02 122.3 42.02 123.73 40.57 124.55 40.4 127.45 41.54 127.35 40.17 128.27 40.34 128.58 41.79 129.06 43.27 130.15 45.97 132.2"/>
      <path class="cls-6" d="M127.68,16.82l-.96-1.49,1.59-1.41.14-1.37-1.15-.7-1.3-.3-.25-1.66,1.79-2.15,1.69-.27.48-1.36,1.21-.14.54-1.24,2.1,1.12-.2,1.43,1.41.87.24,1.15-.42,1.2.74.2.82,1.35-.37,1.49,1.53,1.66-.7.74-1.74.48-.14,1.59,1.04.85-2.5.99-1.76-.48-.52-1.43-1.17-1.04-.24-.74-.61.83-1.29-.16ZM129.67,0l-3.15,2.1-1.31.24-.77,2.03-.91.6-.65,2.41-1.54,1.12-3.15,1.08-1.99.22-.77.06.65.71,2.76,2.04,3.21,1.24.48,2.47-1.88,2.37-2.38.35.12,3.72,1.45.89-.22,2.28,4.4.41,1.25,2.06-.99,2.35.21,2.02,2.41,1.16.03,1.53,1.32.04,2.89-1.86,2.09-.74.07-3.11,2.18-2.01,4.02-.81,1.48-1.88,3.53-.34,1.39-2.44,2.39-.38-.21-1.35.74-.81.24-.82,2.55-.15,3.59-1.98,2.2,1.06,2.01-1.67-.99-.48-3.41-.53-.09-1.12-.45-.74-.26-3.69-2.21.26-3.26-.4-1.79.64-.7.43-.83.09-1.3.75.52,1.84-1.42,1.05-1.08-.03-3.35-.97-.3-.93-1.09-.31-.72-2.04-1.01-.72,1.08-1.11h1.98l1.93-1.64.35-1.28-.06-1.04-1.97,1.04-1.93-1.62-.25-1.35-1.16-1.23-1.78-1.06h-4.2Z"/>
      <polygon class="cls-6" points="155.24 17.49 151.85 19.35 149.62 19.48 149.47 20.02 148.81 20.73 149.07 22.38 146.36 22.83 144.96 25.3 141.38 25.64 139.93 27.49 135.85 28.31 133.98 30.03 133.91 33.3 131.49 34.15 128.47 36.05 126.69 36 125.42 36.62 125.06 38.46 123.06 40.35 123.5 41.57 122.56 41.84 122.63 44.11 121.82 44.41 121.05 45.45 118.88 46.86 117.41 48.75 117.43 49.19 118.43 49.75 118.56 51.27 121.02 52.57 124.09 52.06 125.8 53.51 131.54 55.7 133.96 55.88 135.33 54.87 135.73 53.42 144.98 56.6 145.17 56.41 145.17 54.6 145.66 53.68 146 52.42 146.2 50.35 147.76 48.49 148.04 47.96 150.2 46.51 149.21 45.42 149.29 44.5 151.22 43.9 151.14 42.16 151.19 39.31 150.11 38.54 148.32 33.61 148.55 32.82 147.96 31.35 147.99 28.81 148.53 26.27 148.95 24.75 151.11 22.58 151.59 21.98 154.66 18.93 156.73 18.21 155.24 17.49"/>
      <polygon class="cls-6" points="93.63 32.57 93.73 33.84 94.21 33.9 94.45 32.87 96.44 30.59 98.3 29.88 99.5 29.97 99.75 28.85 98.26 27.74 95.97 27.51 95.88 27.38 94.26 25.04 94.17 25.55 92.61 26.71 92.7 28.06 92.19 29.97 91.11 31.67 93.63 32.57"/>
      <polygon class="cls-6" points="69.63 65.2 70.76 67 75.5 69.16 76.17 71.92 78.69 72.56 79.23 73.71 81.65 73.36 82.63 73.88 85.22 73.11 86.19 70.37 87.92 70.09 88 68.15 89.11 66.7 91.1 67.72 91.21 68.07 91.94 67.38 93.1 67.94 95.44 66.49 96.72 67.24 97.91 66.69 98.58 64.78 101.63 64.9 103.71 62.89 107.3 61.88 108.09 60.71 109.97 61.17 112.64 60.86 114.11 59.7 115.11 60.6 117.88 60.6 118.36 61.07 121.29 59.19 121.92 56.9 123.48 56.32 124.09 54.47 125.11 53.74 123.86 52.69 120.89 53.18 117.91 51.61 117.77 50.07 116.77 49.51 116.75 49.15 115.25 49.87 113.61 49.79 113.08 50.43 112.87 52.47 111.34 52.87 110.39 52.02 101.45 57.75 100.01 57.35 98.81 55.79 95.53 55.14 93.97 55.34 93.32 57.2 92.12 57.93 88.27 57.89 85.84 56.31 83.89 56.1 82.61 55.1 77.89 51.96 75.29 48.5 72.32 51.96 71.92 53.05 70.3 55.56 69.9 57.3 68.91 57.86 68.54 59.74 66.76 62.26 69.63 65.2"/>
      <polygon class="cls-6" points="78.4 51.56 83.05 54.66 84.19 55.55 86.1 55.76 88.51 57.31 91.91 57.34 92.73 56.84 93.44 54.83 95.55 54.55 99.23 55.28 100.45 56.86 101.33 57.11 110.46 51.25 111.54 52.21 112.23 52.03 112.41 50.22 113.11 49.4 113.08 48.25 111 45.42 105.67 45.32 104.25 46.05 102.37 46.12 101.78 44.42 102.55 43.62 101.05 42.79 102.93 41.51 102.69 39.46 102.01 38.92 99.33 38.08 98.91 37.04 97.53 36.87 96.45 35.33 96.15 34.07 95.5 34.17 94.76 34.54 94.76 34.54 93.1 34.35 93 32.97 90.15 31.96 89.12 33.25 88.96 35.69 88.96 36.15 88.33 36.17 87.48 36.27 87.51 35.81 84.87 35.96 83.19 37.14 83.16 39.05 80.69 39.12 79.61 40.64 79.41 41.44 78.65 42.74 78.31 44.12 77.51 45.95 76.83 46.75 76.49 47.45 75.77 48.07 78.4 51.56"/>
      <g class="cls-2">
        <path class="cls-6" d="M117.27,62.99l1.73-.41-1.43-1.42h-2.74l-.74-.66-1.14.89-3.03.35-1.51-.37-.65.97-3.66,1.06-2.18,2.1-2.85-.12-.59,1.7-1.8.84-1.23-.73-2.3,1.43-1.07-.51-1.2,1.12-.37-1.13-1.19-.61-.64.85-.1,2.25-1.86.3-.96,2.69-3.22.96-1.04-.55-2.71.39-.02-.04-2.23-.13.52,1.49-.95,1.7-.37,3.94-.8.83,1.04,1.92,2.5.32,1.12,1.02-2.08,1.15-.57-.03.84,1.43-.37,1.23-.83.86.23,2.68-.56,1.9,2.63,1.26,2.6-.91.17.87,2.96.24s.04.01.06.02l1.92,1.35-.51,1.35,1.72,2.79-.05,2.26,1.58.27,2.83-.67,1.42.82,3.45.37,1.84,1.29,2.23-.95-1.18-1.31,2.35-2.14,2.5-.48,1.57.29.62-.91.5-3.22,2.98-.64,1.27-1.9-.19-1.24.92-2.92-1.07-.51.15-1.55-1.12-.79.39-1.93,1.54-1.49.19-1.67,1.21-1.49.19-1.41.8-.88-.22-2.86-1.14-.85,1.38-2.43-.1-1.72,2.82-1.95.12-1.36-2.29-.89-.17-2.45,1.79-.48.39-.83Z"/>
      </g>
      <polygon class="cls-6" points="127.58 11.32 129.15 12.26 128.96 14.17 127.55 15.42 128.12 16.29 128.62 16.35 129.81 14.71 130.43 16.61 131.59 17.62 132.05 18.9 133.22 19.21 134.58 18.67 134.02 18.22 134.22 15.97 136.2 15.43 136.43 15.2 135.04 13.69 135.41 12.14 134.83 11.17 133.72 10.87 134.29 9.25 134.13 8.47 132.62 7.54 132.82 6.14 131.79 5.61 131.4 6.51 130.22 6.65 129.76 7.97 127.93 8.26 126.46 10.05 126.61 11.1 127.58 11.32"/>
      <polygon class="cls-6" points="141.07 7.03 139.03 8.77 137.09 8.77 136.64 9.23 137.29 9.7 137.97 11.61 139.07 11.89 139.37 12.83 142.27 13.67 142.99 13.69 143.89 13.03 143.35 11.15 145.18 10.09 146 10.01 146.63 9.64 147.59 9.29 144.72 7.66 143.21 8.84 143.1 8.04 142.5 7.56 141.31 7.27 141.07 7.03"/>
      <polygon class="cls-6" points="66.04 102.71 65.32 101.44 63.7 101.41 63.09 102.32 61.04 102.58 61.58 104.2 63.39 104.24 64.43 105.5 64.78 105.56 65.62 104.25 67.33 104.77 68.18 104.05 67.86 103.67 66.04 102.71"/>
      <polygon class="cls-6" points="102.2 20.37 102.43 22.53 105.16 22.69 106.1 23.8 108.47 24.05 107.84 26.02 111.72 28.02 113.84 28.05 115.47 30.28 117.08 30.31 116.71 32.05 117.48 32.77 117.04 34.21 119.14 35 120.3 36.85 120.36 39.18 120.92 40.04 122.53 40 124.42 38.2 124.8 36.26 126.26 35.54 126.23 34.24 123.85 33.09 123.6 30.64 124.54 28.41 123.59 26.85 118.9 26.42 119.14 23.9 117.73 23.03 117.59 18.54 120.26 18.16 121.83 16.18 121.45 14.24 118.48 13.1 115.59 10.96 114.64 9.93 112.49 10.09 106.62 12.51 103.64 13.38 100.23 15.07 99.18 16.69 98.61 18.67 96.98 20.25 102.2 20.37"/>
      <g class="cls-4">
        <path class="cls-6" d="M96.38,26.96l2.16.22,1.95,1.44-.42,1.98-1.65-.13-1.53.59-1.78,2.06-.16.67.32-.16,1.41-.23.4,1.73.85,1.22,1.49.18.45,1.12,2.5.79.97.77.3,2.58-1.44.98,1.35.74-1.02,1.06.34.96,1.18-.04,1.44-.74,5.9.11,2.37,3.23.03,1.14,1.32.07,1.73-.83,1.55-1.99,2.16-1.41.82-1.12.58-.21-.07-2.3.79-.23-.23-.62-1.91.06-.84-1.29-.07-2.35-.97-1.54-2.41-.91.49-1.61-.74-.69.29-1.36-1.18-.02-1.62-2.23-1.93-.03-4.48-2.3.56-1.76-1.91-.19-.93-1.09-2.97-.18-.23-2.13-5.13-.12-.11,1.61-1.27.31-.56,1.49c.62.88,1.3,1.89,1.88,2.73"/>
      </g>
      <polygon class="cls-6" points="61.96 158 63.99 154.15 62.85 152.58 63.57 149.48 64.37 147.39 64.37 142.82 65.69 139.33 70.44 140.21 72.58 138.92 74.17 137.06 77.49 137.33 78.46 138.27 79.96 137.15 81.8 137.24 84.15 138.77 84.87 139.76 86.34 138.4 87.87 138.25 88.83 138.93 89.44 138.01 87.86 137.01 87.13 135.11 87.08 131.48 90.47 128.81 90.61 124.73 89.98 124.16 89.98 122.03 92.32 120.25 92.87 116.84 95.1 116.24 96.81 114.45 99.96 114.04 100.92 112.44 99.77 111.57 97.22 110.99 97.34 108.87 98.49 107.97 98.49 106.43 96.76 105.21 93.57 104.87 90.94 106.78 89.19 106.82 87.85 109.38 84.98 111.6 83.4 111.52 81.61 113.84 78.15 115.13 76.26 113.93 75.64 114.33 76.82 117.74 76.84 117.74 76.84 117.78 76.98 118.19 76.79 118.16 76.59 120.09 75.72 120.96 72.67 125.82 70.63 127.65 69.41 127.45 68.41 129.38 65.64 130.91 62.46 135.57 61.27 135.71 59.07 137.12 56.05 137.03 54.61 136.63 51.66 136.67 50.38 135.98 47.4 136.37 47.59 137.08 48.64 140.13 50.59 144.52 52.75 147.46 51.9 149.61 51.67 151.01 53.32 153.93 58.49 159.03 60.51 159.08 61.78 159.7 61.96 158"/>
      <polygon class="cls-6" points="73.07 139.34 70.58 140.84 66.15 140 65.05 142.91 65.05 147.47 64.22 149.64 63.57 152.47 64.76 154.11 62.63 158.15 62.43 160.02 63.77 160.67 63.94 161.91 64.79 162.82 71.78 165.94 72.43 166.68 72.97 167.87 73.79 168.45 75.5 170.14 76.01 171.95 76.35 173.23 76.77 173.52 77.94 174.87 78.22 175.93 79.33 179.46 79.53 179.97 79.7 181.08 79.13 184.07 78.48 185.18 78.5 186.61 79.87 188.18 79.95 191.03 81.51 191.82 82.05 191.39 82.17 190.3 83.25 189.6 88.96 192.23 89.38 192.23 88.27 189.91 88.27 188.3 90.94 186 91.26 185.3 91.17 182.11 91.28 174.64 89.02 174.64 87.25 173.1 85.58 172.83 85.26 171.24 84.1 169.53 84.73 169 84.84 167.97 83.45 167.58 82.05 166.72 82.11 164.44 83.88 163.94 84.58 163.51 82.4 160.86 83.28 159.11 81.65 156.17 82.85 152.04 84.77 149.54 84.42 148.81 85.96 147.3 87 147.3 88.62 146.57 90.82 146.31 91 143.99 91.64 143.36 91.88 141.89 89.34 140.87 88.64 139.56 87.66 138.85 86.67 138.95 84.76 140.72 83.64 139.16 81.55 137.81 80.2 137.74 78.41 139.08 77.15 137.89 74.49 137.66 73.07 139.34"/>
      <polygon class="cls-6" points="66.38 62.78 66.6 62.99 66.39 62.78 66.38 62.78"/>
      <polygon class="cls-6" points="52.03 83.52 56.06 84.1 59.52 83.57 65.05 83.86 68.39 85.54 77.33 85.95 78.54 85.28 78.12 84.91 75.5 84.57 74.12 82.04 75.06 81.07 75.44 77.21 76.33 75.61 75.6 73.55 78.5 73.72 78.18 73.04 75.58 72.37 74.9 69.54 70.26 67.42 69.07 65.52 66.94 63.34 66.19 63.41 63.83 65.71 63.15 67.42 63.06 68.7 61.3 70.78 58.88 72.47 56.3 76.84 53.92 81.06 52.67 82 52.73 82.9 52.03 83.52"/>
      <polygon class="cls-6" points="126.26 176.61 125.48 176.19 125.87 175.77 127.39 176 132.49 175.77 132.49 176.19 132.36 176.81 132.83 177.85 132.7 178.22 132.16 178.44 132.11 179.03 132.2 179.69 135.48 181.64 134.6 183.24 132.61 183.12 130.79 181.16 129.09 181.07 126.35 178.99 126.26 176.61"/>
      <polygon class="cls-6" points="121.52 149.71 121.52 149.19 123.36 148.94 125.7 149.71 125.89 150.92 124.89 152.06 125.02 152.7 124.68 152.8 123.53 152.09 122.34 151.44 122.01 150.01 121.52 149.71"/>
      <g class="cls-3">
        <path class="cls-6" d="M26.8,119.69c-.38-.4-.58-.94-.58-1.49,0-.92.16-1.66-.41-1.97-.33-.18-.69-.3-1.07-.33-.11-.26-.37-.44-.65-.43-.46.03-.2.37-.77.43s-.51.03-.82-.3-.61-.28-.87-.44c-.26-.15.51-.37-.33-.51-.41-.1-.84-.1-1.25,0l-.14.43s-.03,0,.37.56c.4.56.43,1.25.37,1.25-.41-.04-.82-.06-1.22-.05-.49.03-.84.11-.92.29-.11.33-.19.67-.26,1.02.05.34-.12.67-.43.82-.54.37-1,.77-.97.84.42.65.93,1.23,1.51,1.74.56.37,1.61.97,1.61.97.58-.33,1.13-.72,1.64-1.15.37-.41.69-1.79,1.35-1.99.67-.2,1.05-.54,1.49-.25.63.3,1.28.54,1.94.71.14.06.42-.15.42-.15"/>
        <path class="cls-6" d="M25.2,112.05c.43-.05.51.72.51.72.05.24-.11.46-.34.51-.06.01-.11.01-.17,0-.52-.03-1.04-.03-1.56,0,0,0-.15.74-.37.69-.22-.06-.59-.03-.79-.2-.2-.18-.03-.67.18-.94.21-.28.44-.9.9-.95.55.01,1.1.07,1.65.18"/>
        <path class="cls-6" d="M19.85,111.13c.69.06,1.25-.15,1.56.43.27.49.37,1.06.28,1.61-.1.3-.23.59-.71.37-.46-.26-.98-.39-1.51-.37-.49.07-1-.02-1.43-.26-.27-.15-.56-.25-.87-.28-.26-.07-.14-.71.28-1,.42-.28.87-.65,2.41-.51"/>
        <path class="cls-6" d="M15.16,112.72c.94.23.51.53,1.25.59.74.05.83.16.63.67s-.68.92-1.04,1.53c-.36.61-.62.49-.62,1.44s.23,1.49-.37,1.97c-.6.48-.9.64-1.69.51-.79-.13-1.35.06-1.82.04s-.37-.91-.28-1.17c.09-.26.41-.41,1.1-.66.69-.26,1.2-.64,1.18-1.02s-.2-.54-.15-.89c.08-.27.14-.54.18-.82.1-.74,0-1.38.28-1.64.28-.26.75-.69,1.35-.55"/>
        <path class="cls-6" d="M15.3,121.81c.53,0,1.05.14,1.51.41.44.26.74.41.64.85-.11.44-.25.69-.64.59s-.81-.28-1.11-.18c-.27.12-.57.19-.87.2-.37,0-.91-.37-.68-.71.24-.34.49-1.19,1.15-1.15"/>
        <path class="cls-6" d="M22,105.35c.41,0,.59.72.72,1.38.13.66.05.97-.35,1.35s-1.16.2-1.75.23c-.59.03-.71-.37-.33-.97s.33-1.02.77-1.2c.44-.18.43-.8.94-.8"/>
        <path class="cls-6" d="M11.44,134.26c.2.66-.77.71-.87,1.33-.1.61-.1,1.58-.82,1.33-.71-.26-1.94-1.11-1.99-1.79-.05-.67,0-1.68,1.12-1.53.87.15,1.73.37,2.57.67"/>
        <path class="cls-6" d="M16.81,135.95c1,.24.97.24.92,1.02-.05.78-.51,1.18-1.18.98-.67-.2-.72-.32-1.18-.98-.46-.65.56-1.22,1.43-1.02"/>
        <path class="cls-6" d="M24.17,137.58c-.12,1.03-.16,1.49.46,1.49s.41,0,1.02-.79c.61-.79,1.12-1.89.51-1.84-.6.05-.12.82-.9.87-.79.05-1.01-.45-1.09.27"/>
        <path class="cls-5" d="M37.1,37.77c.72,0,.51-.67,1.33-.67s1.44-.15,1.74-.87c.3-.71-.26-1.07-1.23-1.07s-.82.81-1.38.86c-.56.05-1.07.2-1.11.82-.07.43.23.84.66.92"/>
        <path class="cls-5" d="M36.8,38.33c.6.07.26.77.26,1.58s-.15,1.18.41,1.18.3.31,0,.57-1.43-.09-1.43.57c0,.65-.56,1.27,0,1.37.32.06.65.06.97,0,0,0,0,.1-.57.56-.57.46-.44.46-.65,1.23-.22.77-.04,1.38,0,2.15.04.77.82,1.75.25,1.75s-.92.47-1.49,0-1.23-.42-1.94-.42-1.12,0-.92-.37,1.02-.66,1.12-1.49c.09-.83.31-1.23.1-1.89-.2-.67-.77-1.21-.41-1.22.46.05.92.05,1.38,0,.61-.11,1.18-.72,1.18-1.18s-.28-.87-.35-1.64-.55-1.33,0-1.58c.55-.26,1.02.05,1.32-.37s-.04-.88.77-.78"/>
        <path class="cls-7" d="M109.94,137.98s.03-.09.05-.13c0-.09-.02-.18-.05-.26v.39Z"/>
        <path class="cls-6" d="M62.94,170.05c1.12,0,.61.61.61,1.12s.05,1.33-.61,1.33-1.69-.2-2.66-.16.1-.77.92-1.07c.82-.31-.12-.82.58-1.02.38-.11.77-.18,1.16-.2"/>
        <path class="cls-5" d="M3.56,33.96v-2.07c0-.2.07-.23.22-.25.22-.02.66-.03.94-.04-.02.34-.03.88-.03,1.63v2.91c0,.63.02.93.03,1.11-.18.05-.76.07-.96.07-.13,0-.19-.03-.19-.17v-2.47c-.18.02-.48.03-1.03.03h-1.38v2.33c0,.19-.07.23-.28.24-.24.03-.68.05-.87.04.02-.36.03-.89.03-1.65v-2.84c0-.61,0-.98-.03-1.15.23-.05.77-.07.96-.07.16,0,.19.08.19.49v1.87h2.4Z"/>
        <path class="cls-5" d="M9.01,36.37c0,.4-.31.77-.47.84-.13.06-.52.16-.84.16-1.31,0-2.03-.72-2.03-2.04,0-1.09.71-2.13,1.93-2.13,1.14,0,1.59.83,1.59,1.55,0,.13,0,.22-.03.3-.03.14-.39.26-.76.35-.23.05-1.16.06-1.66.05.05.79.62,1.12,1.23,1.12.43,0,.86-.13,1.01-.21l.02.02ZM7.5,33.83c-.33,0-.69.32-.73.99.37.03,1.06.02,1.28,0,.06,0,.12-.09.12-.19,0-.44-.2-.8-.66-.8h0Z"/>
        <path class="cls-5" d="M9.82,33.66c.07-.21.41-.47.66-.47.4,0,.56.38.57.94.26-.61.64-.94,1.12-.94.17,0,.34.08.42.15.05.1.04.36-.06.53-.03.19-.21.41-.35.42-.18-.07-.28-.09-.43-.09-.14,0-.41.11-.55.49-.05.14-.08.24-.08.44v1.88c0,.14-.02.22-.2.25-.31.04-.59.05-.92.05.02-.48.03-1.03.03-1.64v-1.52c0-.21-.05-.37-.21-.46v-.04Z"/>
        <path class="cls-5" d="M16.22,36.37c0,.4-.32.77-.47.84-.13.06-.52.16-.84.16-1.32,0-2.03-.72-2.03-2.04,0-1.09.71-2.13,1.93-2.13,1.14,0,1.59.83,1.59,1.55,0,.13,0,.22-.03.3-.03.14-.39.26-.76.35-.23.05-1.16.06-1.66.05.05.79.62,1.12,1.23,1.12.43,0,.85-.13,1.01-.21l.02.02ZM14.71,33.83c-.33,0-.69.32-.73.99.37.03,1.06.02,1.28,0,.06,0,.12-.09.12-.19,0-.44-.2-.8-.66-.8h-.01Z"/>
        <path class="cls-5" d="M17.68,36.08c.35,0,.59.29.59.63,0,.4-.25.66-.66.66-.29,0-.61-.2-.61-.63,0-.36.23-.66.68-.66h0ZM18.11,31.8c.14,0,.19.02.19.24,0,.53-.22,2.67-.27,3.05-.03.16-.13.2-.21.22-.22.05-.4.1-.45.1-.05-.38-.27-2.82-.28-3.38.04-.1.72-.23,1.01-.23h0Z"/>
      </g>
      <rect class="cls-5" x="27.9" y="35.41" width=".5" height="16.08" transform="translate(-23.61 42.45) rotate(-55.96)"/>
    </g>
  </g>
</svg>