<?xml version="1.0" encoding="UTF-8"?>
<svg id="_圖層_2" data-name="圖層_2" xmlns="http://www.w3.org/2000/svg" xmlns:xlink="http://www.w3.org/1999/xlink" viewBox="0 0 209.44 192.23">
  <defs>
    <style>
      .cls-1 {
        fill: none;
      }

      .cls-2 {
        fill: #edc3c2;
      }

      .cls-3 {
        clip-path: url(#clippath-1);
      }

      .cls-4 {
        clip-path: url(#clippath-3);
      }

      .cls-5 {
        clip-path: url(#clippath-4);
      }

      .cls-6 {
        clip-path: url(#clippath-2);
      }

      .cls-7 {
        clip-path: url(#clippath-7);
      }

      .cls-8 {
        clip-path: url(#clippath-6);
      }

      .cls-9 {
        clip-path: url(#clippath-9);
      }

      .cls-10 {
        clip-path: url(#clippath-8);
      }

      .cls-11 {
        clip-path: url(#clippath-5);
      }

      .cls-12 {
        fill: #7d7d7d;
      }

      .cls-13 {
        fill: #fff;
      }

      .cls-14 {
        fill: #ec6856;
      }

      .cls-15 {
        clip-path: url(#clippath);
      }
    </style>
    <clipPath id="clippath">
      <rect class="cls-1" y="0" width="209.43" height="192.23"/>
    </clipPath>
    <clipPath id="clippath-1">
      <rect class="cls-1" y="0" width="209.43" height="192.23"/>
    </clipPath>
    <clipPath id="clippath-2">
      <rect class="cls-1" y="0" width="209.43" height="192.23"/>
    </clipPath>
    <clipPath id="clippath-3">
      <rect class="cls-1" y="0" width="209.43" height="192.23"/>
    </clipPath>
    <clipPath id="clippath-4">
      <rect class="cls-1" y="0" width="209.43" height="192.23"/>
    </clipPath>
    <clipPath id="clippath-5">
      <rect class="cls-1" y="0" width="209.43" height="192.23"/>
    </clipPath>
    <clipPath id="clippath-6">
      <rect class="cls-1" y="0" width="209.43" height="192.23"/>
    </clipPath>
    <clipPath id="clippath-7">
      <rect class="cls-1" y="0" width="209.43" height="192.23"/>
    </clipPath>
    <clipPath id="clippath-8">
      <rect class="cls-1" y="0" width="209.43" height="192.23"/>
    </clipPath>
    <clipPath id="clippath-9">
      <rect class="cls-1" y="0" width="209.43" height="192.23"/>
    </clipPath>
  </defs>
  <g id="_圖層_1-2" data-name="圖層_1">
    <g>
      <g class="cls-15">
        <path class="cls-2" d="M13.65,57.74c0,2.23.55,3.83,1.66,4.8l-.35.48c-1.11-.92-1.72-2.51-1.83-4.76h-.8v-.53h1.32ZM11.95,58.29c-.26,2.47-.88,4.05-1.85,4.76l-.32-.52c.86-.61,1.4-2.04,1.62-4.29l.55.05Z"/>
        <path class="cls-2" d="M19.84,57.56v1.94c.5.34,1.01.73,1.52,1.17l-.35.52c-.46-.45-.85-.81-1.17-1.07v2.96h-.56v-5.53h.56ZM17.1,58.31v-.68h.56v.68h1.11v.54h-1.11v.65h1.25v.55h-3.02v-.55h1.22v-.65h-1.1v-.54h1.1ZM17.1,60.83v-.62h.56v.62h1.15v.53h-1.15v.79c.5-.05.96-.11,1.38-.18v.55c-.93.15-1.99.28-3.18.37l-.08-.58c.46-.03.9-.07,1.32-.11v-.85h-1.13v-.53h1.13Z"/>
      </g>
      <polygon class="cls-2" points="27.01 58.59 27.01 62.96 26.44 62.96 26.44 62.61 22.74 62.61 22.74 62.96 22.17 62.96 22.17 58.56 22.74 58.56 22.74 62.06 24.31 62.06 24.31 57.6 24.88 57.6 24.88 62.06 26.44 62.06 26.44 58.59 27.01 58.59"/>
      <g class="cls-3">
        <path class="cls-2" d="M10.31,69.09c.09.03.3.05.47.05.6,0,1.07-.31,1.07-.97,0-.56-.43-.85-1.13-.85-.14,0-.3,0-.41.03v1.74ZM10.31,66.96c.21-.04.53-.05.86-.04.21-.08.43-.37.43-.79,0-.45-.27-.79-.91-.79-.11,0-.3.02-.38.03v1.59ZM9.68,65.98c0-.38,0-.59-.02-.95.13-.03.68-.1,1.12-.1,1.29,0,1.45.75,1.45,1.12,0,.43-.27.78-.61.98.61.17.91.6.91,1.1,0,.94-.78,1.43-1.79,1.43-.34,0-.72-.04-1.07-.12v-3.44Z"/>
        <path class="cls-2" d="M13.65,68.66c0,.27.22.43.48.43.3,0,.51-.19.62-.34.03-.05.05-.12.05-.24v-.56c-.59.09-1.15.3-1.15.7h0ZM15.76,69.11c0,.3-.17.45-.46.45s-.46-.22-.5-.45c-.2.22-.54.45-.92.45-.5,0-.84-.37-.84-.81,0-.77,1.01-.98,1.4-1.07.13-.03.27-.06.36-.07v-.22c0-.34-.19-.66-.63-.66-.27,0-.53.13-.74.27-.19.08-.29-.09-.3-.27.23-.21.7-.48,1.18-.48.73,0,1.07.52,1.07,1.2,0,.31-.02,1-.01,1.44,0,.14.09.24.24.23.04,0,.09,0,.14-.02v.02Z"/>
        <path class="cls-2" d="M17.46,66.6c-.35,0-.62.3-.62.76,0,.44.26.74.64.74.41,0,.61-.35.61-.75s-.18-.76-.63-.76h0ZM16.66,70.01c0,.38.48.59.94.59.56,0,.96-.27.96-.66,0-.22-.11-.42-.53-.47-.24-.03-.5-.04-.69-.04-.12,0-.23.02-.3.07-.19.1-.38.29-.38.51h0ZM17.49,66.24c.17,0,.38.03.55.07.19.05.4.1.56.1.19,0,.4-.03.5-.07.01.04.02.08.02.13,0,.22-.14.32-.37.34-.06,0-.16,0-.23,0,.09.17.13.35.13.52,0,.74-.56,1.11-1.18,1.11-.16,0-.2,0-.3-.04-.09.09-.19.19-.19.23,0,.12.09.22.41.24.33.02.63.03.89.05.58.06.83.4.83.82,0,.78-.79,1.27-1.64,1.27s-1.35-.45-1.35-.94c0-.3.33-.57.68-.76-.26-.09-.43-.32-.44-.56,0-.04.01-.06.06-.09.13-.08.32-.22.44-.35-.36-.17-.59-.5-.59-.94,0-.67.53-1.16,1.23-1.16h0Z"/>
        <path class="cls-2" d="M19.64,67.16c0-.44-.02-.65-.03-.81.12-.04.4-.07.53-.07.08,0,.1.03.1.45,0,.47,0,1.01,0,1.48,0,.76.39.86.71.86.34,0,.63-.22.74-.37v-2.13c0-.17.02-.21.11-.24.19-.02.35-.04.51-.04,0,.16-.02.67-.02,1.3v1.16c0,.35.09.43.29.46v.03c0,.14-.17.34-.32.34-.3,0-.47-.2-.51-.51-.21.22-.45.34-.6.42-.14.06-.3.09-.46.09-.73,0-1.06-.48-1.06-1.19v-1.21Z"/>
        <path class="cls-2" d="M23.7,68.66c0,.27.22.43.48.43.3,0,.51-.19.62-.34.03-.05.05-.12.05-.24v-.56c-.59.09-1.15.3-1.15.7h0ZM25.81,69.11c0,.3-.17.45-.46.45s-.46-.22-.5-.45c-.2.22-.54.45-.92.45-.5,0-.84-.37-.84-.81,0-.77,1.01-.98,1.4-1.07.13-.03.27-.06.36-.07v-.22c0-.34-.19-.66-.63-.66-.27,0-.53.13-.73.27-.19.08-.29-.09-.3-.27.23-.21.7-.48,1.18-.48.73,0,1.07.52,1.07,1.2,0,.31-.02,1-.01,1.44,0,.14.09.24.24.23.04,0,.09,0,.14-.02v.02Z"/>
        <path class="cls-2" d="M27.44,66.24c.27,0,.55.08.73.24.01.13-.07.33-.24.32-.15-.08-.35-.14-.53-.14-.28,0-.49.16-.49.41,0,.21.14.33.31.43.19.1.43.21.64.33.32.18.47.44.47.73,0,.68-.6.99-1.17.99-.34,0-.65-.11-.8-.24-.06-.06-.09-.14-.08-.21.01-.1.06-.21.15-.24.21.14.5.25.77.25.36,0,.55-.19.55-.43,0-.18-.1-.31-.35-.44-.19-.1-.37-.18-.54-.27-.3-.17-.51-.42-.51-.79,0-.58.51-.94,1.09-.94h0Z"/>
        <path class="cls-2" d="M29.61,66.72c.29-.25.64-.48,1.07-.48.81,0,1.04.65,1.04,1.32v.99c0,.45,0,.74.01.91-.14.03-.32.06-.53.06-.07,0-.1-.04-.1-.11,0-.3,0-1.17,0-1.79,0-.66-.31-.89-.69-.89s-.67.24-.81.39v2.2c0,.12-.03.17-.14.18-.17.03-.34.03-.49.03.01-.26.02-.68.02-1.32v-2.71c0-.42-.01-.66-.03-.8.19-.06.42-.1.53-.1.07,0,.1.04.1.48v1.66Z"/>
        <path class="cls-2" d="M33.03,68.66c0,.27.22.43.47.43.3,0,.51-.19.62-.34.03-.05.05-.12.05-.24v-.56c-.59.09-1.14.3-1.14.7h0ZM35.14,69.11c0,.3-.17.45-.46.45s-.46-.22-.5-.45c-.2.22-.54.45-.92.45-.5,0-.84-.37-.84-.81,0-.77,1.01-.98,1.4-1.07.13-.03.27-.06.36-.07v-.22c0-.34-.2-.66-.63-.66-.27,0-.53.13-.73.27-.2.08-.29-.09-.3-.27.23-.21.7-.48,1.18-.48.73,0,1.07.52,1.07,1.2,0,.31-.02,1-.01,1.44,0,.14.09.24.24.23.04,0,.09,0,.14-.02v.02Z"/>
        <path class="cls-2" d="M37.93,67.55c0-.56-.25-.84-.67-.84-.37,0-.65.24-.81.43v2.15c0,.14-.03.17-.15.18-.16.03-.32.02-.48.03.01-.26.02-.68.02-1.32v-1.22c0-.26-.04-.38-.12-.45v-.03c.06-.12.26-.25.39-.25.22,0,.29.33.31.53.28-.28.67-.53,1.07-.53.83,0,1.05.62,1.05,1.31v1.01c0,.42.01.72.03.9-.15.02-.35.06-.53.06-.08,0-.11-.04-.11-.1v-1.86Z"/>
        <path class="cls-2" d="M151.85,59.58l-.12-.53c.19.02.38.03.55.03.14,0,.22-.07.22-.2v-2.27h.55v2.4c0,.37-.19.56-.57.56h-.62ZM153.26,61.61l-.37.41c-.47-.41-.95-.76-1.45-1.06l.34-.38c.55.31,1.04.65,1.48,1.03M151.89,58.66h-.54v-1.64h.54v1.64ZM150.41,59.91v-.5h.55v.5h2.33v.53h-2.33v1.63h-.55v-1.63h-2.33v-.53h2.33ZM149.9,60.97c-.41.41-.9.76-1.51,1.06l-.34-.44c.58-.26,1.07-.58,1.47-.95l.38.33ZM148.39,57.24l-.15-.44c.95,0,1.74-.09,2.4-.27l.26.44c-.3.08-.65.15-1.04.2v.34h1.09v.5h-1.09v.15c.38.15.78.34,1.19.54l-.32.47c-.34-.23-.63-.4-.87-.53v.95h-.53v-1.18c-.28.36-.64.69-1.06.99l-.22-.56c.48-.24.86-.52,1.15-.83h-1.06v-.5h1.19v-.29c-.29.02-.61.03-.94.03"/>
      </g>
      <polygon class="cls-2" points="159.13 57.58 159.13 61.95 158.56 61.95 158.56 61.6 154.86 61.6 154.86 61.94 154.29 61.94 154.29 57.55 154.86 57.55 154.86 61.05 156.43 61.05 156.43 56.59 157 56.59 157 61.05 158.56 61.05 158.56 57.58 159.13 57.58"/>
      <g class="cls-6">
        <path class="cls-2" d="M161.79,57.91c0-.48,0-.78-.02-.92.12-.02.37-.06.55-.06.08,0,.11.04.11.4v3.68c.14.04.49.06.79.06.32,0,.79,0,1.07-.04h0c-.03.22-.15.38-.32.45-.09.01-.33.03-.84.03-.58,0-1.06-.04-1.25-.07l-.1-.14v-3.39Z"/>
        <path class="cls-2" d="M165.48,61.28c0,.13-.04.17-.15.18-.09.02-.27.03-.48.04,0-.3.02-.71.02-1.13v-1.22c0-.44-.01-.66-.03-.82.12-.04.43-.07.53-.07.07,0,.1.04.1.45v2.58ZM165.19,56.76c.19,0,.32.15.32.35s-.14.37-.35.37c-.19,0-.35-.12-.35-.35,0-.25.21-.37.36-.37h0Z"/>
        <path class="cls-2" d="M167.34,58.22c.27,0,.55.08.73.24.01.13-.07.33-.24.32-.15-.08-.35-.14-.53-.14-.28,0-.49.16-.49.41,0,.21.14.33.31.43.19.1.43.21.64.33.32.18.47.44.47.73,0,.68-.6.99-1.17.99-.35,0-.65-.11-.8-.24-.06-.06-.09-.14-.08-.21.02-.1.07-.21.15-.24.21.14.5.25.77.25.36,0,.55-.19.55-.43,0-.18-.1-.31-.35-.44-.19-.1-.37-.18-.54-.27-.3-.17-.51-.42-.51-.79,0-.58.51-.94,1.09-.94h0Z"/>
        <path class="cls-2" d="M169.51,58.71c.29-.25.64-.48,1.07-.48.81,0,1.04.65,1.04,1.32v.99c0,.45,0,.74.01.91-.14.03-.32.06-.52.06-.07,0-.1-.04-.1-.11,0-.3,0-1.17,0-1.79,0-.66-.31-.89-.68-.89s-.67.24-.81.39v2.2c0,.12-.03.17-.14.18-.17.03-.34.03-.49.03.02-.26.02-.68.02-1.32v-2.71c0-.43-.02-.66-.03-.8.19-.06.42-.1.53-.1.07,0,.1.04.1.48v1.66Z"/>
        <path class="cls-2" d="M172.92,60.64c0,.27.22.43.48.43.3,0,.51-.19.62-.34.03-.05.05-.12.05-.24v-.56c-.59.09-1.15.3-1.15.7h0ZM175.04,61.1c0,.3-.17.45-.46.45s-.46-.22-.5-.45c-.2.22-.54.45-.92.45-.5,0-.83-.38-.83-.81,0-.77,1.01-.98,1.4-1.07.13-.03.27-.06.36-.07v-.22c0-.34-.19-.66-.63-.66-.27,0-.53.13-.73.27-.2.08-.29-.09-.3-.27.23-.21.7-.48,1.18-.48.73,0,1.07.52,1.07,1.2,0,.31-.02,1-.01,1.44,0,.14.09.24.24.23.04,0,.09,0,.14-.01h0Z"/>
        <path class="cls-2" d="M177.83,59.54c0-.56-.25-.84-.67-.84-.37,0-.65.24-.81.43v2.15c0,.15-.03.17-.15.18-.16.03-.32.02-.48.03.01-.26.02-.68.02-1.33v-1.22c0-.26-.04-.38-.12-.45v-.03c.06-.12.26-.25.39-.25.22,0,.29.33.31.53.28-.28.67-.53,1.07-.53.83,0,1.05.62,1.05,1.31v1.01c0,.42.02.72.03.9-.15.02-.35.06-.53.06-.08,0-.11-.04-.11-.1v-1.86Z"/>
      </g>
      <polygon class="cls-13" points="128.46 54.21 128.2 55.18 126.45 56.48 123.62 56.27 117.92 54.09 116.95 54.8 116.3 56.74 114.76 57.31 114.15 59.53 111.06 61.51 112.47 62.89 110.04 63.47 109.65 64.28 108.06 64.71 108.18 66.36 110.53 67.28 110.36 69.29 107.57 71.21 107.66 72.78 106.43 74.95 107.41 75.71 107.67 79.01 106.83 79.94 106.63 81.33 105.43 82.81 105.23 84.51 103.68 86 103.39 87.44 104.48 88.21 104.34 89.69 105.49 90.25 104.48 93.49 104.68 94.8 103.14 97.09 100.33 97.69 99.87 100.64 98.94 102.02 97.03 101.66 94.88 102.08 93.07 103.72 94.4 105.2 91.42 106.47 91.42 108.23 90.26 109.14 90.18 110.55 92.36 111.05 94.02 112.31 92.94 114.1 94.09 114.31 94.71 117.38 97.98 117.7 98.27 118.77 102.37 119.22 103.36 122.62 107.34 124.51 109.23 123.88 109.8 120.43 110.99 119.32 113.08 115.22 112.33 113.94 115.43 110.73 114.32 108.83 114.32 107.33 117.56 105.43 119.21 105.43 120.24 106.96 120.42 106.37 121.36 102.87 120.88 102.05 122.58 97.5 122.84 95.35 123.43 93.38 123.83 90.62 125.22 87.85 125.05 85.63 125.65 84.95 127.07 80.92 127.21 76.98 127.83 75.22 129.48 74.16 129.51 73.33 128.63 72.49 127.75 70.78 127.95 69.54 128.52 68.63 130.31 67.32 130.62 65.22 130.19 64.28 131.16 62.64 133.46 61.31 134.02 60.27 134.93 60.08 135.84 59.02 136.13 57.74 136.78 57.07 128.46 54.21"/>
      <polygon class="cls-13" points="118.82 106.01 117.77 106.01 115 107.64 115 108.69 116.22 110.81 113.13 114.02 113.83 115.2 111.57 119.64 110.44 120.68 109.85 124.29 107.29 125.15 102.77 123.01 101.83 119.74 97.71 119.29 97.42 118.23 94.13 117.9 93.49 114.79 92.43 114.6 89.43 114.99 87.75 116.74 85.74 117.28 85.22 120.53 82.92 122.29 82.92 123.93 83.55 124.51 83.4 129.07 80.02 131.73 80.07 135.01 80.69 136.65 82.59 137.86 81.56 139.39 82.11 140.43 84.88 141.55 84.54 143.61 83.92 144.22 83.72 146.82 81.09 147.13 79.42 147.88 78.53 147.88 77.46 148.93 77.79 149.6 75.74 152.27 74.63 156.11 76.28 159.1 75.43 160.79 77.78 163.65 76.45 164.46 75.04 164.86 75 166.43 76.02 167.06 77.82 167.57 77.64 169.26 77.2 169.63 78.17 171.04 78.43 172.33 79.85 172.56 81.56 174.06 83.54 174.06 83.62 168.47 84.99 165.5 86.97 161.21 88.93 155.65 90.38 154.32 90.89 153.65 91.01 152.34 91.46 151.04 93.17 149.45 97.65 147.08 99.92 145.68 101.23 143.87 102.17 142.54 102.22 141.52 101.82 140.44 101.77 139.88 102.17 139.23 105.4 137.61 107.76 133.77 109.46 132.42 109.92 130.85 111.11 128.95 111.96 126.22 112.99 125.42 114.8 124.89 115.03 121.65 114.6 120.42 114.6 119.53 115.71 118.25 115.71 117.77 115.94 116.56 117.35 113.92 118.29 113.3 118.66 111.97 119.98 107.76 118.82 106.01"/>
      <polygon class="cls-13" points="37.57 100.67 37.5 101.91 40.18 101.47 41.78 101.97 44 101.71 44.44 101.34 43.6 100.37 45.77 98.86 46.6 100.23 49.76 98.27 50.11 97.3 52.72 96.19 54.14 95.16 55.93 95.71 58.63 94.62 60.6 94.62 61.89 96.61 63.99 97.29 68.03 97.38 70.42 98.56 73.68 98.16 73.23 95.81 71.1 96.54 67.74 94.93 68.37 92.67 68.12 89.84 69.03 88.9 69.31 87.99 68.42 86.47 60.44 86.11 57.1 84.43 51.82 84.15 48.32 84.68 43.74 84.03 41.97 85.84 40.44 88.65 40.18 91.69 39.3 91.16 38.39 92.07 36.94 95.55 36.97 97.94 37.57 100.67"/>
      <path class="cls-13" d="M63.1,111.74l-1.27,2.07,1.12,2.9-1.23.62,1.26.83h1.76l.93-.96,2.6.29-1.17-3.39,1.41-.91,1.98,1.26,2.92-1.09,1.89-2.45,1.7.09,2.55-1.97,1.46-2.78,1.93-.04,2.23-1.62-.85-.49-2.68.64-2.29-.39.05-2.6-1.77-2.88.47-1.19-1.44-1.01-2.6-.21.42,2.19-4.2.51-2.44-1.2-3.98-.08-2.44-.8-1.22-1.86h-1.41l-2.81,1.13-1.68-.53-1.19.86-2.42,1.03-.33.92-3.99,2.48-.81-1.34-1.02.71.8.93-1.02.86-2.6.31-1.57-.49-2.39.39.69.84-.71.46.06.41.51,1.35-.77.55v1.76l.65.63-.14.37h-.94l-.23,1.35-.17,2.38,1.34-.1,2.34,1.45,1.41.03,2.93-1.98.74-1.45,5.24-2.93h.09l6.29-.29,3.35.83-.41,1.49,3.08,2.12ZM59.75,105.45l-1.57-.47-.8,1.25-1.12-.19-1-1.21-1.96-.05-.89-2.67,2.49-.32.65-.98,2.44.05.82,1.44,1.76.93.74.86-1.56,1.35Z"/>
      <polygon class="cls-13" points="38.22 132.2 39.36 135.27 39.5 135.81 42.78 135.38 44.11 136.08 46.97 136.05 48.43 136.46 51.11 136.54 53.26 135.15 54.29 135.04 57.39 130.5 60.13 128.99 61.26 126.8 62.65 127.02 64.37 125.48 67.41 120.64 68.19 119.86 68.38 118.09 65.95 117.82 65.05 118.75 62.75 118.75 60.53 117.28 62.12 116.44 61.09 113.75 62.24 111.88 59.24 109.86 59.61 108.55 56.98 107.9 50.89 108.18 45.98 110.93 45.26 112.35 42.01 114.56 40.13 114.51 37.83 113.08 36.47 113.18 35.75 114.1 35.69 115.23 35.1 116.41 36.12 118.1 34.47 118.37 34.19 119.55 33.11 121.17 33.28 122.3 34.28 123.73 32.83 124.55 32.66 127.45 33.79 127.35 32.43 128.27 32.6 128.58 34.05 129.06 35.53 130.15 38.22 132.2"/>
      <path class="cls-13" d="M119.93,16.82l-.96-1.49,1.59-1.41.14-1.37-1.15-.69-1.3-.3-.25-1.66,1.79-2.15,1.69-.27.48-1.36,1.21-.14.54-1.24,2.1,1.12-.2,1.43,1.41.87.24,1.15-.42,1.2.74.2.82,1.35-.37,1.49,1.53,1.66-.7.74-1.74.48-.14,1.59,1.04.85-2.5.99-1.76-.48-.52-1.43-1.17-1.04-.25-.74-.61.82-1.29-.16ZM121.93,0l-3.15,2.1-1.3.24-.77,2.03-.91.6-.65,2.41-1.54,1.12-3.15,1.09-1.99.22-.77.06.65.71,2.76,2.04,3.21,1.24.48,2.47-1.88,2.37-2.38.35.12,3.72,1.45.89-.22,2.28,4.4.41,1.25,2.06-.99,2.35.21,2.02,2.41,1.16.03,1.53,1.32.04,2.89-1.86,2.09-.74.07-3.11,2.18-2.01,4.02-.81,1.49-1.88,3.53-.34,1.39-2.44,2.39-.38-.21-1.35.74-.81.24-.82,2.55-.15,3.59-1.98,2.2,1.06,2.01-1.67-.99-.48-3.41-.53-.09-1.12-.45-.74-.26-3.69-2.21.26-3.27-.4-1.79.64-.7.44-.83.09-1.3.74.52,1.84-1.42,1.05-1.08-.03-3.35-.97-.3-.93-1.09-.31-.72-2.04-1.01-.72,1.08-1.12h1.98l1.93-1.64.35-1.28-.06-1.04-1.97,1.04-1.93-1.62-.25-1.35-1.17-1.23-1.78-1.06h-4.2Z"/>
      <polygon class="cls-13" points="147.5 17.49 144.11 19.35 141.88 19.48 141.72 20.02 141.07 20.73 141.32 22.38 138.62 22.83 137.22 25.3 133.63 25.64 132.19 27.49 128.1 28.31 126.24 30.03 126.17 33.3 123.74 34.15 120.72 36.05 118.94 36 117.67 36.62 117.32 38.46 115.32 40.35 115.76 41.57 114.82 41.84 114.89 44.11 114.07 44.41 113.3 45.45 111.14 46.86 109.67 48.75 109.69 49.19 110.68 49.75 110.81 51.27 113.28 52.57 116.35 52.06 118.06 53.51 123.79 55.7 126.22 55.88 127.59 54.87 127.98 53.42 137.24 56.6 137.43 56.41 137.43 54.6 137.91 53.68 138.25 52.42 138.45 50.35 140.02 48.49 140.3 47.96 142.46 46.51 141.46 45.42 141.55 44.5 143.48 43.9 143.39 42.16 143.45 39.31 142.37 38.54 140.58 33.61 140.81 32.82 140.21 31.35 140.24 28.81 140.78 26.27 141.21 24.75 143.37 22.58 143.85 21.98 146.91 18.93 148.99 18.21 147.5 17.49"/>
      <polygon class="cls-13" points="85.89 32.57 85.98 33.84 86.46 33.9 86.71 32.87 88.7 30.59 90.55 29.88 91.76 29.97 92 28.85 90.51 27.74 88.22 27.51 88.14 27.38 86.52 25.04 86.43 25.55 84.87 26.71 84.96 28.06 84.45 29.97 83.36 31.67 85.89 32.57"/>
      <polygon class="cls-13" points="61.89 65.2 63.02 67 67.75 69.16 68.42 71.92 70.94 72.56 71.48 73.71 73.9 73.36 74.89 73.88 77.47 73.11 78.45 70.37 80.17 70.09 80.26 68.15 81.36 66.7 83.35 67.72 83.47 68.07 84.2 67.38 85.36 67.94 87.7 66.49 88.98 67.24 90.17 66.69 90.83 64.78 93.88 64.9 95.96 62.89 99.55 61.88 100.34 60.71 102.22 61.17 104.9 60.86 106.37 59.7 107.37 60.6 110.13 60.6 110.62 61.07 113.54 59.19 114.18 56.9 115.73 56.32 116.35 54.47 117.36 53.74 116.12 52.69 113.15 53.18 110.16 51.61 110.03 50.07 109.03 49.51 109.01 49.15 107.51 49.87 105.87 49.79 105.33 50.43 105.13 52.47 103.59 52.87 102.64 52.02 93.71 57.75 92.27 57.35 91.07 55.79 87.78 55.14 86.23 55.34 85.58 57.2 84.38 57.93 80.53 57.89 78.1 56.31 76.15 56.1 74.87 55.1 70.14 51.96 67.54 48.5 64.57 51.96 64.18 53.05 62.56 55.56 62.16 57.3 61.17 57.86 60.8 59.74 59.01 62.26 61.89 65.2"/>
      <polygon class="cls-13" points="70.65 51.56 75.31 54.66 76.45 55.55 78.36 55.76 80.76 57.31 84.16 57.34 84.99 56.84 85.7 54.83 87.81 54.55 91.49 55.28 92.71 56.86 93.58 57.11 102.72 51.25 103.8 52.21 104.49 52.03 104.67 50.22 105.37 49.4 105.34 48.25 103.26 45.42 97.93 45.32 96.51 46.05 94.63 46.12 94.04 44.42 94.81 43.62 93.3 42.79 95.19 41.51 94.95 39.46 94.27 38.92 91.59 38.08 91.17 37.04 89.79 36.87 88.71 35.33 88.4 34.07 87.76 34.17 87.02 34.54 87.02 34.54 85.36 34.35 85.25 32.97 82.4 31.96 81.38 33.25 81.21 35.69 81.21 36.15 80.59 36.17 79.74 36.27 79.76 35.81 77.12 35.96 75.45 37.14 75.42 39.05 72.95 39.12 71.87 40.64 71.67 41.44 70.9 42.74 70.57 44.12 69.77 45.95 69.09 46.75 68.75 47.45 68.03 48.07 70.65 51.56"/>
      <g class="cls-4">
        <path class="cls-13" d="M109.53,62.99l1.73-.41-1.43-1.42h-2.74l-.74-.66-1.14.89-3.03.35-1.51-.37-.65.97-3.66,1.06-2.18,2.1-2.85-.12-.59,1.7-1.8.85-1.23-.73-2.3,1.43-1.07-.51-1.2,1.12-.37-1.13-1.19-.61-.64.85-.1,2.25-1.86.3-.96,2.68-3.22.96-1.04-.55-2.71.39-.02-.04-2.23-.13.52,1.49-.95,1.7-.37,3.94-.8.83,1.04,1.92,2.5.32,1.12,1.02-2.08,1.15-.57-.03.84,1.43-.37,1.23-.83.86.23,2.68-.56,1.9,2.63,1.26,2.6-.91.17.87,2.96.24s.04.01.06.02l1.92,1.35-.51,1.35,1.71,2.79-.05,2.26,1.58.27,2.83-.67,1.42.82,3.45.37,1.84,1.29,2.23-.95-1.18-1.31,2.35-2.14,2.5-.48,1.57.29.62-.91.5-3.22,2.98-.64,1.28-1.9-.19-1.24.92-2.92-1.07-.51.15-1.55-1.12-.79.39-1.93,1.54-1.49.19-1.67,1.21-1.49.19-1.41.8-.88-.22-2.86-1.14-.85,1.38-2.43-.1-1.72,2.82-1.95.12-1.36-2.29-.89-.17-2.45,1.79-.48.39-.83Z"/>
      </g>
      <polygon class="cls-13" points="119.84 11.32 121.4 12.26 121.21 14.17 119.81 15.42 120.37 16.29 120.88 16.35 122.07 14.71 122.68 16.61 123.84 17.62 124.31 18.9 125.48 19.21 126.83 18.67 126.28 18.22 126.47 15.97 128.46 15.43 128.68 15.2 127.3 13.69 127.67 12.14 127.09 11.17 125.98 10.87 126.54 9.25 126.38 8.47 124.87 7.54 125.07 6.14 124.05 5.61 123.65 6.51 122.48 6.65 122.01 7.97 120.19 8.26 118.71 10.05 118.87 11.1 119.84 11.32"/>
      <polygon class="cls-13" points="133.33 7.03 131.29 8.77 129.35 8.77 128.9 9.23 129.55 9.7 130.22 11.61 131.32 11.89 131.63 12.83 134.53 13.67 135.24 13.69 136.15 13.03 135.61 11.15 137.43 10.09 138.26 10.01 138.88 9.64 139.84 9.29 136.98 7.66 135.47 8.84 135.36 8.04 134.76 7.56 133.57 7.27 133.33 7.03"/>
      <polygon class="cls-13" points="58.3 102.71 57.57 101.44 55.95 101.41 55.35 102.32 53.29 102.58 53.84 104.2 55.65 104.24 56.69 105.5 57.03 105.56 57.87 104.25 59.58 104.77 60.43 104.05 60.11 103.67 58.3 102.71"/>
      <polygon class="cls-13" points="94.46 20.37 94.69 22.53 97.42 22.69 98.35 23.8 100.72 24.05 100.09 26.02 103.97 28.02 106.1 28.05 107.72 30.28 109.33 30.31 108.96 32.05 109.73 32.77 109.3 34.21 111.4 35 112.55 36.85 112.62 39.18 113.17 40.04 114.78 40 116.68 38.2 117.05 36.26 118.52 35.54 118.49 34.24 116.11 33.09 115.86 30.64 116.79 28.41 115.85 26.85 111.15 26.42 111.4 23.9 109.99 23.03 109.84 18.54 112.51 18.16 114.08 16.18 113.7 14.24 110.74 13.1 107.85 10.96 106.89 9.93 104.75 10.09 98.87 12.51 95.89 13.38 92.48 15.07 91.43 16.69 90.86 18.67 89.23 20.25 94.46 20.37"/>
      <g class="cls-5">
        <path class="cls-13" d="M88.64,26.96l2.16.22,1.95,1.44-.42,1.98-1.65-.13-1.53.59-1.78,2.06-.16.67.32-.16,1.41-.23.4,1.73.85,1.22,1.49.18.45,1.12,2.5.79.97.77.3,2.58-1.44.98,1.35.74-1.02,1.06.34.96,1.17-.04,1.44-.74,5.9.12,2.37,3.22.03,1.14,1.32.07,1.73-.83,1.55-1.99,2.16-1.41.82-1.12.58-.21-.07-2.3.79-.23-.23-.62-1.91.06-.84-1.29-.07-2.35-.97-1.54-2.41-.91.49-1.61-.74-.69.29-1.36-1.18-.02-1.62-2.23-1.93-.03-4.48-2.3.56-1.76-1.91-.19-.93-1.09-2.98-.18-.23-2.14-5.13-.11-.11,1.61-1.28.31-.56,1.49c.62.88,1.3,1.89,1.88,2.73"/>
      </g>
      <polygon class="cls-13" points="54.22 158 56.25 154.15 55.11 152.58 55.82 149.48 56.63 147.39 56.63 142.82 57.95 139.33 62.69 140.21 64.84 138.92 66.42 137.06 69.75 137.33 70.72 138.27 72.21 137.15 74.05 137.24 76.41 138.77 77.13 139.76 78.6 138.4 80.12 138.25 81.08 138.93 81.7 138.01 80.11 137.01 79.39 135.11 79.34 131.48 82.73 128.81 82.86 124.73 82.24 124.16 82.24 122.03 84.58 120.25 85.12 116.84 87.36 116.24 89.07 114.45 92.21 114.04 93.17 112.44 92.03 111.57 89.47 110.99 89.59 108.87 90.74 107.97 90.74 106.43 89.01 105.21 85.82 104.87 83.19 106.78 81.45 106.82 80.1 109.38 77.24 111.6 75.65 111.52 73.87 113.84 70.4 115.13 68.52 113.93 67.89 114.33 69.08 117.74 69.1 117.74 69.09 117.78 69.23 118.19 69.05 118.16 68.85 120.09 67.98 120.96 64.93 125.82 62.88 127.65 61.66 127.45 60.67 129.38 57.9 130.91 54.71 135.57 53.52 135.71 51.33 137.12 48.31 137.03 46.86 136.63 43.92 136.67 42.64 135.98 39.65 136.37 39.84 137.08 40.89 140.13 42.85 144.52 45.01 147.46 44.16 149.61 43.93 151.01 45.58 153.93 50.75 159.03 52.76 159.08 54.03 159.7 54.22 158"/>
      <polygon class="cls-13" points="65.33 139.34 62.84 140.84 58.4 140 57.31 142.91 57.31 147.47 56.47 149.64 55.83 152.47 57.01 154.11 54.88 158.15 54.68 160.02 56.03 160.67 56.19 161.91 57.05 162.82 64.03 165.94 64.69 166.68 65.22 167.87 66.05 168.45 67.75 170.14 68.26 171.95 68.61 173.23 69.03 173.52 70.19 174.87 70.48 175.93 71.58 179.46 71.79 179.97 71.96 181.08 71.39 184.07 70.73 185.18 70.76 186.61 72.13 188.18 72.21 191.03 73.77 191.82 74.31 191.39 74.43 190.3 75.5 189.6 81.21 192.23 81.64 192.23 80.53 189.91 80.53 188.3 83.2 186 83.51 185.3 83.43 182.11 83.53 174.64 81.28 174.64 79.51 173.1 77.84 172.83 77.52 171.24 76.36 169.53 76.98 169 77.09 167.97 75.7 167.58 74.31 166.72 74.37 164.44 76.14 163.94 76.84 163.51 74.65 160.86 75.54 159.11 73.91 156.17 75.11 152.04 77.02 149.54 76.68 148.81 78.22 147.3 79.26 147.3 80.88 146.57 83.08 146.31 83.26 143.99 83.9 143.36 84.14 141.89 81.6 140.87 80.9 139.56 79.91 138.85 78.93 138.95 77.01 140.72 75.89 139.16 73.8 137.81 72.45 137.74 70.66 139.08 69.41 137.89 66.75 137.66 65.33 139.34"/>
      <polygon class="cls-13" points="58.64 62.78 58.85 62.99 58.64 62.78 58.64 62.78"/>
      <polygon class="cls-13" points="44.28 83.52 48.31 84.1 51.78 83.57 57.31 83.86 60.65 85.54 69.58 85.95 70.79 85.28 70.38 84.91 67.75 84.57 66.38 82.04 67.32 81.07 67.7 77.21 68.59 75.61 67.85 73.55 70.76 73.72 70.43 73.04 67.84 72.37 67.15 69.54 62.51 67.42 61.32 65.52 59.19 63.34 58.44 63.41 56.08 65.71 55.4 67.42 55.32 68.7 53.55 70.78 51.14 72.47 48.56 76.84 46.18 81.06 44.93 82 44.98 82.9 44.28 83.52"/>
      <polygon class="cls-13" points="136.06 176.61 135.28 176.19 135.67 175.77 137.19 176 142.29 175.77 142.29 176.19 142.16 176.81 142.63 177.85 142.5 178.22 141.96 178.44 141.91 179.03 142 179.69 145.28 181.64 144.4 183.24 142.41 183.12 140.59 181.16 138.89 181.07 136.15 178.99 136.06 176.61"/>
      <polygon class="cls-13" points="113.77 149.71 113.77 149.19 115.62 148.94 117.96 149.71 118.15 150.92 117.15 152.06 117.27 152.7 116.93 152.8 115.78 152.09 114.6 151.44 114.26 150.01 113.77 149.71"/>
      <g class="cls-11">
        <path class="cls-13" d="M19.06,119.69c-.38-.4-.58-.94-.58-1.49,0-.92.16-1.66-.41-1.97-.33-.18-.69-.3-1.07-.33-.11-.27-.37-.44-.65-.43-.46.03-.2.37-.77.43s-.51.03-.82-.31-.61-.28-.87-.43c-.26-.15.51-.37-.33-.51-.41-.1-.84-.1-1.25,0l-.14.43s-.03,0,.37.56c.4.56.44,1.25.37,1.25-.41-.04-.82-.06-1.22-.05-.49.03-.84.11-.92.29-.11.33-.19.67-.26,1.02.05.34-.12.67-.43.82-.54.37-1,.77-.97.84.42.65.93,1.23,1.51,1.74.56.37,1.61.97,1.61.97.58-.33,1.13-.72,1.64-1.15.37-.4.69-1.79,1.35-1.99.66-.2,1.05-.54,1.49-.25.63.3,1.28.54,1.94.71.14.06.42-.14.42-.14"/>
        <path class="cls-13" d="M17.46,112.05c.44-.05.51.72.51.72.05.24-.11.46-.34.51-.06.01-.11.01-.17,0-.52-.03-1.04-.03-1.56,0,0,0-.15.74-.37.69-.22-.06-.59-.03-.79-.2-.2-.18-.03-.67.18-.94.2-.28.44-.9.9-.95.55.01,1.11.07,1.65.18"/>
        <path class="cls-13" d="M12.11,111.13c.69.06,1.25-.15,1.56.44.27.49.37,1.06.28,1.61-.1.3-.23.59-.71.37-.46-.26-.98-.39-1.51-.37-.49.07-1-.02-1.43-.26-.27-.15-.56-.25-.87-.28-.26-.07-.14-.71.28-1,.42-.28.87-.65,2.41-.51"/>
        <path class="cls-13" d="M7.41,112.72c.94.23.51.53,1.25.59.74.05.83.16.63.66s-.68.92-1.04,1.53c-.36.61-.62.49-.62,1.44s.23,1.49-.37,1.97c-.6.48-.9.64-1.69.51-.79-.13-1.35.06-1.82.04s-.37-.91-.28-1.17c.09-.26.41-.41,1.1-.66.69-.26,1.2-.64,1.18-1.02s-.2-.54-.15-.89c.08-.27.14-.54.18-.82.1-.74,0-1.38.28-1.64.28-.26.75-.69,1.35-.55"/>
        <path class="cls-13" d="M7.56,121.81c.53,0,1.05.14,1.51.41.44.26.74.41.64.85-.11.44-.25.69-.64.59s-.81-.28-1.11-.18c-.27.12-.57.19-.87.2-.37,0-.91-.37-.68-.71.24-.34.49-1.19,1.15-1.15"/>
        <path class="cls-13" d="M14.25,105.35c.41,0,.59.72.72,1.38.13.66.05.97-.35,1.35s-1.16.2-1.75.23c-.59.03-.71-.37-.33-.97s.33-1.02.77-1.2c.44-.18.43-.8.95-.8"/>
        <path class="cls-13" d="M3.7,134.26c.2.66-.77.71-.87,1.33-.1.61-.1,1.58-.82,1.33-.71-.26-1.94-1.11-1.99-1.79-.05-.67,0-1.69,1.12-1.53.87.15,1.73.37,2.57.67"/>
        <path class="cls-13" d="M9.07,135.95c1,.24.97.24.92,1.02-.05.78-.51,1.18-1.18.98-.67-.2-.72-.32-1.17-.98-.46-.65.56-1.22,1.43-1.02"/>
        <path class="cls-13" d="M16.43,137.58c-.12,1.03-.16,1.49.46,1.49s.41,0,1.02-.79c.61-.79,1.12-1.89.51-1.84-.6.05-.11.82-.9.87-.79.05-1.01-.45-1.09.27"/>
        <path class="cls-13" d="M29.36,37.77c.72,0,.51-.67,1.33-.67s1.44-.15,1.74-.87c.3-.71-.26-1.07-1.23-1.07s-.82.81-1.38.86c-.56.05-1.07.2-1.11.82-.07.43.23.84.66.92"/>
        <path class="cls-13" d="M29.05,38.33c.6.07.26.77.26,1.58s-.15,1.18.41,1.18.3.31,0,.56-1.43-.09-1.43.57c0,.65-.56,1.27,0,1.37.32.06.65.06.97,0,0,0,0,.1-.57.56-.57.46-.44.46-.65,1.23-.21.77-.04,1.38,0,2.15.04.77.82,1.75.25,1.75s-.92.47-1.49,0-1.23-.42-1.94-.42-1.12,0-.92-.37,1.02-.66,1.12-1.49c.09-.82.31-1.23.1-1.89-.2-.66-.77-1.21-.41-1.22.46.05.92.05,1.38,0,.61-.11,1.18-.72,1.18-1.18s-.28-.87-.35-1.64-.55-1.33,0-1.58c.55-.26,1.02.05,1.32-.37s-.04-.88.77-.78"/>
        <path class="cls-13" d="M102.19,137.98s.03-.09.05-.13c0-.09-.02-.18-.05-.26v.39Z"/>
        <path class="cls-13" d="M55.19,170.05c1.12,0,.61.61.61,1.12s.05,1.33-.61,1.33-1.69-.2-2.66-.16c-.97.05.1-.77.92-1.07.82-.31-.11-.82.58-1.02.38-.11.77-.18,1.16-.2"/>
      </g>
      <polygon class="cls-2" points="145.81 40.24 94.68 40.24 94.68 39.74 145.31 39.74 145.31 29.8 145.81 29.8 145.81 40.24"/>
      <rect class="cls-2" x="94.68" y="59.09" width="50.88" height=".5"/>
      <rect class="cls-2" x="40.82" y="67.96" width="27.78" height=".5"/>
      <g class="cls-8">
        <path class="cls-12" d="M84.97,82.15h.38c.08-.15.15-.3.22-.47l.24.09c-.06.14-.13.27-.2.38h.41v.23h-.72v.38h.83v.23h-.83v.65h-.25v-.65h-.82v-.23h.82v-.38h-.71v-.23h.4c-.05-.13-.12-.25-.19-.36l.23-.09c.08.13.15.28.21.45M85.05,80.73l.04-.36.26.04c-.01.11-.02.22-.04.32h1.44v.24h-1.48c-.02.13-.05.25-.07.36h1.37v1.99c0,.23-.11.34-.32.34h-.35l-.07-.25h.34c.1,0,.15-.05.15-.15v-1.68h-2.31v2.11h-.26v-2.35h1.19c.02-.12.05-.24.07-.36h-1.45v-.24h1.49Z"/>
        <path class="cls-12" d="M89.36,82.89c.23-.2.4-.43.51-.7h-1.01c.09.26.26.49.5.7M89.89,80.54v.77c0,.09.05.13.15.13h.3v.24h-.37c-.23,0-.34-.11-.34-.32v-.59h-.7v.21c0,.34-.17.6-.5.79l-.17-.2c.27-.13.41-.32.41-.57v-.48h1.21ZM90.13,81.94v.24c-.11.34-.3.63-.55.87.24.17.54.31.89.43l-.14.22c-.37-.14-.68-.31-.93-.5-.28.21-.63.38-1.03.51l-.14-.22c.38-.12.7-.27.97-.46-.28-.25-.47-.53-.56-.85h-.22v-.25h1.72ZM87.25,83.66l-.05-.25c.09,0,.19.02.27.02.1,0,.15-.05.15-.15v-.88c-.14.06-.3.12-.45.17l-.07-.26c.17-.05.35-.11.51-.17v-.82h-.44v-.25h.44v-.66h.26v.66h.41v.25h-.41v.71c.13-.06.26-.14.39-.22v.27c-.13.07-.26.14-.39.21v1.06c0,.22-.11.32-.32.32h-.31Z"/>
        <path class="cls-12" d="M94.05,83.37l-.19.13c-.09-.21-.22-.44-.38-.69l.19-.12c.17.26.29.48.38.68M92.85,83.65l-.06-.23c.07,0,.15.02.21.02s.1-.04.1-.11v-.83c-.18.02-.37.03-.56.04l-.05-.21.09-.02c.17-.09.37-.27.6-.52-.2.02-.41.04-.62.05l-.05-.2.09-.02c.18-.11.43-.4.75-.86l.23.09c-.26.35-.49.61-.69.78.16-.01.32-.03.48-.05.1-.12.2-.25.31-.38l.23.09c-.38.46-.71.8-.99,1.03.24-.02.48-.05.71-.08-.04-.09-.09-.17-.13-.25l.2-.09c.11.19.22.41.31.64l-.2.1-.08-.2c-.13.02-.26.03-.39.04v.91c0,.18-.09.27-.25.27h-.24ZM93.36,80.41c-.27.38-.55.67-.86.87l-.15-.18c.3-.19.56-.44.76-.75l.25.06ZM92.9,82.81c-.11.27-.24.5-.4.7l-.19-.13c.15-.19.28-.41.39-.67l.2.1ZM92.31,83.23l-.21.09c-.06-.23-.13-.44-.2-.62l.2-.06c.08.18.15.38.2.59M91.97,82.03h-.73v.23h.73v-.23ZM91.97,81.6h-.73v.24h.73v-.24ZM91.97,81.17h-.73v.24h.73v-.24ZM91.97,80.74h-.73v.24h.73v-.24ZM92.21,82.26h.19v.23h-.67v1.15h-.25v-1.15h-.65v-.23h.18v-1.73h1.2v1.73ZM91.29,82.69c-.08.34-.19.62-.35.87l-.19-.13c.15-.24.26-.5.33-.79l.21.04Z"/>
        <path class="cls-12" d="M77.79,84.95v-.02s.25-.03.3-.03c.03,0,.06.02.09.06.12.15.47.66.83,1.15.18.26.34.47.43.64-.02-.35-.02-.56-.02-.74v-1c0-.08.03-.1.07-.1.11-.01.15-.01.22-.01,0,.15-.01.36-.01.66v1.6s-.16.05-.23.05c-.03,0-.04-.01-.06-.03-.24-.32-.57-.78-.89-1.23-.13-.19-.25-.38-.39-.61.02.42.02.61.02.79v.93c0,.09-.02.1-.07.11-.06,0-.14.01-.21.01,0-.14.01-.35.01-.65v-1.47l-.09-.12Z"/>
        <path class="cls-12" d="M80.43,86.76c0,.13.1.2.23.2.15,0,.26-.09.31-.17.02-.03.02-.06.02-.13v-.25c-.29.04-.56.14-.56.34h0ZM81.5,86.98c0,.15-.08.23-.24.23s-.24-.11-.26-.22c-.09.1-.26.22-.46.22-.25,0-.42-.19-.42-.41,0-.38.49-.49.69-.54.07-.01.14-.03.19-.04v-.09c0-.16-.09-.32-.31-.32-.12,0-.25.06-.35.12-.11.05-.16-.02-.18-.13.11-.11.35-.24.6-.24.37,0,.54.26.54.61,0,.15-.01.49,0,.71,0,.07.05.11.12.11.02,0,.05,0,.08-.01h0Z"/>
        <path class="cls-12" d="M82.93,86.22c0-.27-.12-.41-.34-.41-.18,0-.32.11-.41.21v1.07c0,.07-.01.08-.08.09-.08.01-.17.01-.25.01,0-.13.01-.35.01-.66v-.61c0-.13-.02-.19-.06-.23v-.02c.03-.05.14-.12.21-.12.11,0,.15.18.15.27.15-.15.35-.27.55-.27.42,0,.53.32.53.66v.49c0,.21,0,.36.01.45-.08.01-.18.03-.28.03-.04,0-.06-.02-.06-.05v-.91Z"/>
        <path class="cls-12" d="M84.65,86.9c.02.07,0,.16-.07.21-.07.06-.21.1-.34.1-.32,0-.45-.2-.45-.48v-.91c-.13,0-.18-.04-.18-.08.04-.07.27-.28.32-.33.05-.04.11-.08.19-.09,0,.11-.02.2-.02.28h.57c-.04.19-.11.2-.18.21-.12,0-.14.01-.4.01-.02.36-.02.73,0,.89.02.21.13.26.26.26.11,0,.21-.04.27-.07h.01Z"/>
        <path class="cls-12" d="M85.63,85.76c-.23,0-.45.21-.45.59,0,.43.22.64.49.64.21,0,.43-.18.43-.61,0-.31-.13-.63-.47-.63h0ZM85.66,85.55c.5,0,.78.35.78.81s-.31.85-.8.85c-.53,0-.79-.39-.79-.81,0-.48.33-.85.81-.85h0Z"/>
        <path class="cls-12" d="M86.84,86.02c0-.22,0-.33-.02-.41.06-.02.21-.04.28-.04.04,0,.05.02.05.22,0,.24,0,.49,0,.73,0,.37.19.42.35.42.17,0,.31-.11.38-.18v-1.05c0-.09.01-.1.06-.12.1-.01.19-.02.27-.02,0,.08-.01.33-.01.64v.57c0,.17.05.21.15.23v.02c0,.07-.09.18-.17.18-.15,0-.24-.1-.26-.26-.11.12-.23.18-.3.21-.07.03-.15.05-.24.05-.37,0-.54-.24-.54-.6v-.6Z"/>
        <path class="cls-12" d="M91.37,86.88c-.01.1-.05.18-.11.23-.08.05-.27.12-.52.12-.81,0-1.24-.47-1.24-1.16,0-.73.55-1.2,1.26-1.2.33,0,.6.11.65.18,0,.13-.1.2-.18.17-.11-.05-.28-.11-.49-.11-.48,0-.89.31-.89.93,0,.54.34.94.97.94.22,0,.44-.07.54-.11h.01Z"/>
        <path class="cls-12" d="M92.4,85.76c-.24,0-.45.21-.45.59,0,.43.22.64.49.64.21,0,.43-.18.43-.61,0-.31-.13-.63-.47-.63h0ZM92.42,85.55c.5,0,.78.35.78.81s-.31.85-.8.85c-.53,0-.79-.39-.79-.81,0-.48.33-.85.81-.85h0Z"/>
        <path class="cls-12" d="M93.6,86.02c0-.22,0-.33-.01-.41.06-.02.21-.04.28-.04.04,0,.05.02.05.22,0,.24,0,.49,0,.73,0,.37.19.42.35.42.17,0,.31-.11.38-.18v-1.05c0-.09.01-.1.06-.12.1-.01.19-.02.27-.02,0,.08-.01.33-.01.64v.57c0,.17.05.21.15.23v.02c0,.07-.09.18-.17.18-.15,0-.24-.1-.26-.26-.11.12-.23.18-.3.21-.07.03-.15.05-.23.05-.37,0-.54-.24-.54-.6v-.6Z"/>
        <path class="cls-12" d="M96.59,86.22c0-.27-.12-.41-.34-.41-.18,0-.32.11-.41.21v1.07c0,.07-.01.08-.07.09-.08.01-.17.01-.25.01,0-.13.01-.35.01-.66v-.61c0-.13-.02-.19-.06-.23v-.02c.03-.05.14-.12.21-.12.11,0,.15.18.15.27.15-.15.35-.27.55-.27.42,0,.53.32.53.66v.49c0,.21,0,.36.01.45-.08.01-.18.03-.28.03-.04,0-.06-.02-.06-.05v-.91Z"/>
        <path class="cls-12" d="M98.31,86.9c.02.07,0,.16-.07.21-.07.06-.21.1-.34.1-.32,0-.45-.2-.45-.48v-.91c-.13,0-.18-.04-.18-.08.04-.07.27-.28.32-.33.05-.04.11-.08.19-.09,0,.11-.01.2-.01.28h.57c-.04.19-.11.2-.18.21-.12,0-.14.01-.4.01-.02.36-.01.73,0,.89.02.21.13.26.26.26.11,0,.21-.04.27-.07h.01Z"/>
        <path class="cls-12" d="M98.64,87.82c.12-.15.33-.45.48-.74-.02-.03-.05-.09-.08-.15-.05-.14-.35-.95-.51-1.29.07-.04.2-.08.26-.08.05,0,.06.03.08.07.1.26.32.89.41,1.14.14-.33.33-.91.4-1.21.06,0,.15.01.2.04.06.03.07.05.04.13-.11.39-.25.79-.44,1.21-.21.47-.55,1-.62,1-.09,0-.19-.05-.23-.09v-.02Z"/>
        <path class="cls-12" d="M68.33,58.38h-1.88v.82h1.88v-.82ZM68.6,59.64h-.26v-.18h-1.88v.18h-.26v-1.5h2.41v1.5ZM65.88,57.52c.32-.11.71-.51,1.18-1.2l.27.09c-.32.46-.65.83-.98,1.09.69-.03,1.35-.07,1.97-.13-.14-.19-.28-.38-.42-.54l.23-.11c.31.36.6.76.86,1.19l-.25.12c-.09-.15-.18-.29-.27-.43-.76.07-1.61.12-2.54.16l-.05-.24Z"/>
      </g>
      <path class="cls-12" d="M72.18,57.22h-1.03v.96h1.03v-.96ZM70.88,57.22h-1.03v.96h1.03v-.96ZM71.15,56.32v.65h1.29v1.69h-.26v-.23h-1.03v1.23h-.27v-1.23h-1.03v.23h-.26v-1.69h1.29v-.65h.27Z"/>
      <g class="cls-7">
        <path class="cls-12" d="M74.49,56.75c-.06-.15-.12-.28-.19-.41l.28-.04c.06.13.11.28.17.45h1.47v.25h-1.46v.47h1.17v1.31c0,.22-.11.33-.33.33h-.36l-.07-.25h.34c.1.01.15-.04.15-.14v-1h-.91v1.91h-.27v-1.91h-.87v1.41h-.26v-1.66h1.12v-.47h-1.46v-.25h1.45Z"/>
        <path class="cls-12" d="M61.96,61.09h-.69c-.06,0-.08-.03-.06-.08.04-.09.08-.14.11-.17.05.02.14.02.53.02h1.22c0,.11-.08.22-.13.24h-.65v1.57c0,.25,0,.37.01.44-.08.02-.19.03-.28.03-.04,0-.06-.01-.06-.06v-1.97Z"/>
        <path class="cls-12" d="M63.27,62.7c0,.13.1.2.23.2.15,0,.26-.09.31-.17.02-.03.02-.06.02-.13v-.25c-.3.04-.56.14-.56.34h0ZM64.33,62.92c0,.15-.08.23-.24.23s-.23-.11-.26-.22c-.09.1-.26.22-.46.22-.25,0-.43-.19-.43-.41,0-.38.49-.49.69-.54.07-.01.14-.03.19-.04v-.09c0-.16-.09-.32-.31-.32-.12,0-.25.06-.35.12-.11.05-.16-.02-.18-.13.11-.11.35-.24.6-.24.37,0,.54.26.54.61,0,.15-.01.49,0,.71,0,.07.05.11.12.11.02,0,.05,0,.08-.01h0Z"/>
        <path class="cls-12" d="M65.01,63.02c0,.07-.02.08-.08.09-.05.01-.14.01-.25.02,0-.14.01-.35.01-.57v-.61c0-.22,0-.33-.02-.41.07-.02.22-.04.28-.04.04,0,.05.02.05.22v1.28ZM64.86,60.74c.1,0,.17.07.17.18s-.07.19-.18.19c-.1,0-.18-.06-.18-.18,0-.13.1-.19.18-.19h0Z"/>
        <path class="cls-12" d="M66.72,62.84c0,.08-.05.18-.1.22-.09.05-.23.09-.39.09-.37,0-.82-.18-.82-.8,0-.5.38-.86.87-.86.26,0,.43.09.46.13,0,.1-.06.2-.16.18-.08-.03-.19-.07-.31-.07-.31,0-.53.24-.53.58,0,.46.33.59.58.59.13,0,.29-.03.38-.07h.01Z"/>
        <path class="cls-12" d="M67.4,61.73c.14-.11.32-.24.54-.24.4,0,.53.32.53.67v.49c0,.22,0,.37,0,.46-.07.01-.17.03-.27.03-.04,0-.05-.02-.05-.06v-.89c0-.32-.15-.44-.35-.44-.17,0-.33.11-.4.18v1.1c0,.06-.02.08-.07.09-.09.01-.18.01-.26.01,0-.13.01-.35.01-.66v-1.35c0-.22,0-.33-.02-.4.09-.03.22-.05.28-.05.04,0,.05.02.05.23v.83Z"/>
        <path class="cls-12" d="M69,61.95c0-.22,0-.33-.02-.41.06-.02.21-.04.28-.04.04,0,.05.02.05.22,0,.24,0,.49,0,.73,0,.37.19.42.35.42.17,0,.31-.11.38-.18v-1.05c0-.09.01-.1.06-.12.1-.01.19-.02.27-.02,0,.08-.01.33-.01.64v.57c0,.17.05.21.15.23v.02c0,.07-.09.18-.17.18-.15,0-.24-.1-.26-.26-.11.12-.23.18-.3.21-.07.03-.15.05-.23.05-.37,0-.54-.24-.54-.6v-.6Z"/>
        <path class="cls-12" d="M71.99,62.16c0-.27-.12-.41-.33-.41-.18,0-.32.11-.41.21v1.07c0,.07-.01.08-.08.09-.08.01-.17.01-.25.01,0-.13.01-.35.01-.66v-.61c0-.13-.02-.19-.06-.23v-.02c.03-.05.14-.12.21-.12.11,0,.15.18.15.27.15-.15.35-.27.55-.27.42,0,.53.32.53.66v.49c0,.21,0,.36.01.45-.08.01-.18.03-.28.03-.04,0-.06-.02-.06-.05v-.91Z"/>
        <path class="cls-12" d="M73.37,61.68c-.18,0-.31.14-.31.37s.13.36.32.36c.2,0,.31-.17.31-.36s-.09-.36-.31-.36h0ZM72.96,63.36c0,.2.24.3.47.3.27,0,.47-.13.47-.32,0-.11-.05-.21-.26-.24-.11-.02-.23-.02-.32-.02-.08,0-.14.01-.18.04-.09.05-.18.14-.18.24h0ZM73.38,61.49c.09,0,.19.02.28.04.1.03.21.05.3.05s.18-.02.24-.03c0,.02.01.05.01.07,0,.11-.07.16-.2.17-.03,0-.07,0-.1,0,.05.09.06.17.06.25,0,.38-.28.55-.6.55-.08,0-.1,0-.15-.02-.04.04-.1.09-.1.11,0,.06.05.1.21.11.17.01.31.02.44.03.29.03.42.19.42.41,0,.39-.39.64-.83.64s-.68-.23-.68-.47c0-.15.18-.29.34-.38-.12-.05-.22-.15-.22-.28,0-.02,0-.03.03-.04.07-.05.17-.12.22-.18-.18-.08-.3-.25-.3-.47,0-.33.27-.58.63-.58h0Z"/>
        <path class="cls-12" d="M77.11,62.81c-.01.1-.05.18-.11.23-.08.05-.27.12-.52.12-.81,0-1.24-.47-1.24-1.16,0-.73.55-1.2,1.26-1.2.33,0,.6.11.65.18,0,.13-.1.2-.18.17-.11-.05-.28-.11-.49-.11-.48,0-.89.31-.89.93,0,.54.34.94.97.94.22,0,.44-.07.54-.11h.01Z"/>
        <path class="cls-12" d="M77.8,63.02c0,.07-.02.08-.08.09-.05.01-.14.01-.25.02,0-.14.01-.35.01-.57v-.61c0-.22,0-.33-.01-.41.06-.02.22-.04.28-.04.04,0,.05.02.05.22v1.28ZM77.65,60.74c.1,0,.17.07.17.18s-.07.19-.18.19c-.1,0-.18-.06-.18-.18,0-.13.1-.19.18-.19h0Z"/>
        <path class="cls-12" d="M79.21,62.84c.01.07,0,.16-.07.21-.07.06-.21.1-.34.1-.32,0-.45-.2-.45-.48v-.91c-.13,0-.18-.04-.18-.08.04-.07.27-.28.32-.33.05-.04.11-.08.19-.09,0,.11-.01.2-.01.28h.57c-.04.19-.12.2-.18.21-.12,0-.14.01-.4.01-.02.36-.01.73,0,.89.02.21.13.26.26.26.11,0,.21-.04.27-.07h.01Z"/>
        <path class="cls-12" d="M79.54,63.76c.12-.15.33-.45.48-.74-.02-.03-.05-.09-.08-.15-.05-.14-.35-.95-.51-1.29.07-.04.2-.08.26-.08.05,0,.06.03.08.07.1.26.32.89.41,1.14.14-.33.33-.91.4-1.21.05,0,.15.01.2.04.06.03.07.05.04.13-.11.39-.25.79-.44,1.21-.21.47-.55,1-.62,1-.09,0-.19-.05-.23-.09v-.02Z"/>
        <path class="cls-12" d="M54.6,72.94c-.27.36-.61.65-1.02.89l-.11-.24c.39-.22.71-.5.96-.85l.17.19ZM54.45,71.98c-.26.34-.57.61-.95.83l-.11-.24c.36-.2.65-.46.89-.79l.17.19ZM54.7,73.91c-.33.47-.74.87-1.24,1.18l-.11-.24c.47-.28.87-.66,1.18-1.14l.17.2ZM52.7,72.3h-.59c.04.12.07.24.1.37h.39c.05-.12.08-.24.1-.37M52.9,73.75h-.98v.24h.98v-.24ZM52.9,73.31h-.98v.25h.98v-.25ZM52.28,72.08c-.03-.09-.07-.18-.1-.26l.26-.04c.03.09.06.19.1.31h.72v.22h-.3c-.03.13-.06.25-.1.37h.47v.22h-1.84v-.22h.5c-.04-.14-.07-.26-.11-.37h-.3v-.22h.71ZM53.14,73.11v1.09h-.58v.24h.77v.23h-.77v.41h-.25v-.41h-.87v-.23h.87v-.24h-.62v-1.09h1.45Z"/>
        <path class="cls-12" d="M58.14,73.09l-1.17.07v1.47c0,.11.05.17.17.17h.6c.09,0,.16-.03.2-.09.04-.06.06-.27.08-.62l.24.08c-.03.41-.07.67-.13.75-.06.09-.18.13-.35.13h-.71c-.24,0-.37-.13-.37-.38v-2.84h.26v1.09l1.17-.07v.25ZM56.35,71.89c-.12.3-.28.58-.48.84v2.38h-.26v-2.06c-.16.17-.34.34-.52.5l-.08-.27c.5-.44.87-.94,1.1-1.51l.24.11Z"/>
        <path class="cls-12" d="M61.94,74.77l-.19.13c-.09-.21-.22-.44-.38-.69l.19-.12c.17.26.29.48.38.68M60.74,75.05l-.05-.23c.07,0,.14.01.21.01s.1-.04.1-.11v-.83c-.18.02-.37.03-.56.04l-.05-.21.09-.02c.17-.09.37-.27.6-.52-.2.02-.41.04-.62.05l-.05-.2.09-.02c.18-.11.43-.4.75-.86l.23.09c-.26.35-.49.61-.69.78.16-.01.32-.03.47-.05.1-.12.2-.24.31-.38l.23.09c-.38.46-.71.8-.99,1.03.24-.02.48-.05.71-.08-.04-.09-.09-.17-.13-.25l.2-.09c.11.2.22.41.31.64l-.2.1-.08-.2c-.13.02-.26.03-.39.04v.91c0,.18-.09.27-.25.27h-.24ZM61.25,71.81c-.27.38-.55.67-.86.87l-.15-.18c.3-.19.55-.44.76-.74l.25.06ZM60.79,74.21c-.11.27-.24.5-.4.7l-.19-.13c.15-.19.28-.41.39-.67l.2.1ZM60.2,74.63l-.21.09c-.06-.23-.13-.44-.2-.62l.2-.06c.08.18.14.38.2.59M59.86,73.43h-.73v.23h.73v-.23ZM59.86,73h-.73v.24h.73v-.24ZM59.86,72.57h-.73v.24h.73v-.24ZM59.86,72.14h-.73v.24h.73v-.24ZM60.1,73.66h.19v.23h-.67v1.15h-.24v-1.15h-.65v-.23h.18v-1.74h1.2v1.74ZM59.18,74.09c-.08.34-.19.62-.35.87l-.19-.13c.15-.24.26-.5.33-.78l.21.04Z"/>
        <path class="cls-12" d="M51.38,78.28c-.01.1-.05.18-.11.23-.08.05-.27.12-.52.12-.81,0-1.24-.47-1.24-1.16,0-.73.55-1.2,1.26-1.2.33,0,.6.11.65.18,0,.13-.1.2-.18.17-.11-.05-.29-.11-.49-.11-.48,0-.89.31-.89.93,0,.54.34.94.97.94.22,0,.44-.07.54-.11h.01Z"/>
        <path class="cls-12" d="M52.07,77.19c.14-.11.32-.24.54-.24.4,0,.53.32.53.67v.49c0,.22,0,.37,0,.46-.07.01-.17.03-.27.03-.04,0-.05-.02-.05-.06v-.89c0-.32-.15-.44-.35-.44-.17,0-.33.11-.4.18v1.1c0,.06-.01.08-.07.09-.09.01-.18.01-.26.01,0-.13.01-.35.01-.66v-1.35c0-.22,0-.33-.02-.4.09-.03.22-.05.28-.05.04,0,.05.02.05.23v.83Z"/>
        <path class="cls-12" d="M53.82,78.16c0,.13.1.21.23.21.15,0,.26-.09.31-.17.02-.03.02-.06.02-.13v-.25c-.3.04-.56.14-.56.34h0ZM54.89,78.38c0,.15-.08.23-.24.23s-.23-.11-.26-.22c-.09.1-.26.22-.46.22-.25,0-.43-.19-.43-.41,0-.38.49-.49.69-.54.06-.01.14-.03.19-.04v-.09c0-.16-.09-.32-.31-.32-.12,0-.25.06-.35.12-.11.05-.16-.03-.18-.13.11-.11.35-.24.6-.24.37,0,.54.26.54.61,0,.15-.01.49,0,.71,0,.07.05.11.12.11.02,0,.05,0,.08-.01h0Z"/>
        <path class="cls-12" d="M56.31,77.62c0-.27-.12-.41-.34-.41-.18,0-.32.11-.41.21v1.07c0,.07-.01.08-.07.09-.08.02-.17.01-.25.02,0-.13.01-.35.01-.66v-.61c0-.13-.02-.19-.07-.23v-.02c.03-.05.14-.12.21-.12.11,0,.15.18.15.27.15-.15.35-.27.55-.27.42,0,.53.32.53.66v.49c0,.21,0,.36.01.45-.08.01-.18.03-.28.03-.04,0-.06-.02-.06-.05v-.91Z"/>
        <path class="cls-12" d="M57.69,77.14c-.18,0-.31.14-.31.37s.13.36.32.36c.2,0,.31-.17.31-.36s-.09-.36-.31-.36h0ZM57.28,78.83c0,.2.24.3.47.3.27,0,.47-.13.47-.32,0-.11-.05-.21-.26-.23-.11-.02-.23-.02-.32-.02-.08,0-.14.01-.18.04-.09.05-.18.14-.18.24h0ZM57.7,76.95c.09,0,.19.02.28.04.11.02.21.05.3.05s.18-.01.24-.03c0,.02.02.05.02.07,0,.11-.07.16-.2.17-.03,0-.08,0-.1,0,.05.09.06.17.06.25,0,.38-.28.55-.6.55-.08,0-.1,0-.15-.02-.04.04-.1.09-.1.12,0,.06.05.1.21.11.17.01.31.02.44.03.29.03.42.2.42.41,0,.38-.39.64-.83.64s-.68-.23-.68-.48c0-.15.18-.29.34-.38-.12-.05-.22-.15-.22-.28,0-.02,0-.03.03-.04.07-.05.17-.12.22-.18-.18-.08-.3-.25-.3-.47,0-.33.27-.58.63-.58h0Z"/>
        <path class="cls-12" d="M59.14,77.19c.14-.11.32-.24.54-.24.4,0,.53.32.53.67v.49c0,.22,0,.37,0,.46-.07.01-.17.03-.27.03-.04,0-.05-.02-.05-.06v-.89c0-.32-.15-.44-.35-.44-.17,0-.33.11-.4.18v1.1c0,.06-.01.08-.07.09-.09.01-.18.01-.26.01,0-.13.01-.35.01-.66v-1.35c0-.22,0-.33-.01-.4.09-.03.22-.05.28-.05.04,0,.05.02.05.23v.83Z"/>
        <path class="cls-12" d="M60.73,77.42c0-.22,0-.33-.01-.41.06-.02.21-.04.28-.04.04,0,.05.02.05.22,0,.24,0,.49,0,.73,0,.37.19.42.35.42.17,0,.31-.11.38-.18v-1.05c0-.09.01-.1.06-.12.1-.01.19-.02.27-.02,0,.08-.01.33-.01.64v.57c0,.17.05.21.15.23v.02c0,.07-.09.18-.17.18-.15,0-.24-.1-.26-.26-.11.12-.23.18-.3.21-.07.03-.15.05-.23.05-.37,0-.54-.24-.54-.6v-.6Z"/>
        <path class="cls-12" d="M62.82,78.16c0,.13.1.21.23.21.15,0,.26-.09.31-.17.02-.03.03-.06.03-.13v-.25c-.3.04-.57.14-.57.34h0ZM63.89,78.38c0,.15-.08.23-.24.23s-.24-.11-.26-.22c-.09.1-.26.22-.46.22-.25,0-.42-.19-.42-.41,0-.38.49-.49.69-.54.06-.01.14-.03.19-.04v-.09c0-.16-.09-.32-.31-.32-.12,0-.25.06-.35.12-.11.05-.16-.03-.18-.13.11-.11.35-.24.6-.24.37,0,.54.26.54.61,0,.15-.01.49,0,.71,0,.07.05.11.12.11.02,0,.05,0,.08-.01h0Z"/>
        <path class="cls-12" d="M53.36,82.28c-.01.1-.05.18-.11.23-.08.05-.27.12-.52.12-.81,0-1.24-.47-1.24-1.16,0-.73.55-1.2,1.26-1.2.33,0,.6.11.65.18,0,.13-.1.2-.18.17-.11-.05-.28-.11-.49-.11-.48,0-.89.31-.89.93,0,.54.34.94.97.94.22,0,.44-.07.54-.11h.01Z"/>
        <path class="cls-12" d="M54.39,81.16c-.23,0-.45.21-.45.59,0,.43.22.64.49.64.21,0,.43-.18.43-.61,0-.31-.13-.63-.47-.63h0ZM54.42,80.95c.5,0,.78.35.78.81s-.31.85-.8.85c-.53,0-.79-.39-.79-.81,0-.48.33-.85.81-.85h0Z"/>
        <path class="cls-12" d="M55.6,81.42c0-.22,0-.33-.01-.41.06-.02.21-.04.28-.04.04,0,.05.02.05.22,0,.24,0,.49,0,.73,0,.37.19.42.35.42.17,0,.31-.11.38-.18v-1.05c0-.09.01-.1.06-.12.1-.01.19-.02.27-.02,0,.08-.01.33-.01.64v.57c0,.17.05.21.15.23v.02c0,.07-.09.18-.17.18-.15,0-.24-.1-.26-.26-.11.12-.23.18-.3.21-.07.03-.15.05-.24.05-.37,0-.54-.24-.54-.6v-.6Z"/>
        <path class="cls-12" d="M58.59,81.62c0-.27-.12-.41-.34-.41-.18,0-.32.11-.41.21v1.07c0,.07-.01.08-.07.09-.08.02-.17.01-.25.02,0-.13.01-.35.01-.66v-.61c0-.13-.02-.19-.06-.23v-.02c.03-.05.14-.12.21-.12.11,0,.15.18.15.27.15-.15.35-.27.55-.27.42,0,.53.32.53.66v.49c0,.21,0,.36.01.45-.08.01-.18.03-.28.03-.04,0-.06-.02-.06-.05v-.91Z"/>
        <path class="cls-12" d="M60.3,82.3c.02.07,0,.16-.07.21-.07.06-.21.1-.34.1-.32,0-.45-.2-.45-.48v-.91c-.13,0-.18-.04-.18-.08.04-.07.27-.28.32-.33.05-.04.11-.08.19-.09,0,.11-.02.2-.02.28h.57c-.04.19-.11.2-.18.21-.12,0-.14.01-.4.01-.02.36-.01.73,0,.89.02.21.13.26.26.26.11,0,.21-.04.27-.07h.01Z"/>
        <path class="cls-12" d="M60.64,83.22c.12-.15.33-.45.48-.74-.02-.03-.05-.09-.08-.15-.05-.14-.35-.95-.51-1.29.07-.04.2-.08.26-.08.05,0,.06.02.08.07.1.26.32.89.41,1.14.14-.33.33-.91.4-1.21.05,0,.15.01.2.04.06.02.07.05.04.13-.11.39-.25.79-.44,1.21-.21.47-.55,1-.62,1-.09,0-.19-.05-.23-.09v-.02Z"/>
        <path class="cls-12" d="M92.64,24.9c-.32.11-.67.19-1.06.21v.66h1.15v.25h-.37v1.91h-.26v-1.91h-.52v.4c-.01.63-.15,1.13-.41,1.5l-.19-.19c.22-.32.33-.75.35-1.31v-1.52c.44,0,.83-.09,1.18-.23l.13.23ZM91.03,27.44l-.22.08c-.06-.22-.14-.44-.22-.65l.22-.06c.09.23.17.44.22.63M90.19,24.94c-.05-.11-.1-.21-.16-.3l.27-.04c.05.1.09.22.14.34h.68v.24h-1.62v-.24h.69ZM89.46,25.99v-.23h.42c-.05-.14-.11-.28-.17-.41l.23-.08c.06.14.12.3.18.49h.39c.06-.15.12-.32.16-.49l.23.08c-.05.15-.1.29-.16.41h.41v.23h-.71v.4h.64v.23h-.64v1.31h-.26v-1.31h-.66v-.23h.66v-.4h-.72ZM90,26.88c-.09.36-.22.68-.38.95l-.21-.14c.17-.26.28-.55.36-.86l.23.05Z"/>
        <path class="cls-12" d="M94.63,26.13l-.17-.2c.26-.34.48-.78.64-1.33l.26.06c-.08.25-.16.47-.25.67h1.23v.25h-.56v2.02c0,.21-.11.32-.31.32h-.46l-.06-.25c.15.01.3.02.43.02.09,0,.13-.05.13-.16v-1.95h-.53c-.11.2-.23.39-.36.55M93.2,26.13l-.17-.2c.27-.33.5-.78.67-1.32l.26.06c-.08.24-.17.46-.26.67h.86v.25h-.56v2.36h-.26v-2.36h-.16c-.12.2-.24.39-.38.55"/>
        <path class="cls-12" d="M98.17,25.04c-.06-.15-.12-.28-.19-.41l.28-.04c.06.13.11.28.17.45h1.47v.25h-1.46v.47h1.17v1.31c0,.22-.11.33-.33.33h-.36l-.07-.25h.34c.1.01.15-.04.15-.14v-1h-.91v1.91h-.27v-1.91h-.87v1.41h-.26v-1.66h1.12v-.47h-1.46v-.25h1.45Z"/>
        <path class="cls-12" d="M87.23,30.11v-.87c0-.07.02-.09.07-.09.06-.01.19-.01.27-.01,0,.14-.01.35-.01.65v1.16c0,.25,0,.37.01.44-.06.01-.23.03-.28.03-.04,0-.06-.01-.06-.06v-1.02c-.07,0-.19.01-.5.01h-.66v.96c0,.07-.02.08-.09.09-.09.01-.16.01-.25.01,0-.14.01-.36.01-.66v-1.14c0-.24,0-.39-.01-.46.07-.02.22-.03.28-.03.05,0,.06.03.06.19v.79h1.16Z"/>
        <path class="cls-12" d="M88.55,29.78c.14,0,.29.04.38.13,0,.08-.04.18-.14.17-.07-.04-.17-.07-.26-.07-.13,0-.23.08-.23.19,0,.1.06.16.14.2.09.05.23.11.33.17.16.09.24.22.24.37,0,.35-.3.5-.59.5-.16,0-.31-.05-.39-.11-.04-.03-.06-.07-.06-.11,0-.06.03-.11.07-.14.11.08.27.13.4.13.17,0,.27-.08.27-.21,0-.09-.05-.15-.17-.21-.1-.05-.19-.1-.28-.15-.15-.08-.25-.21-.25-.39,0-.3.26-.47.55-.47h0Z"/>
        <path class="cls-12" d="M89.7,31.31c0,.06-.02.08-.08.09-.05.01-.14.01-.25.02,0-.14.01-.35.01-.57v-.61c0-.22,0-.33-.01-.41.06-.02.22-.04.28-.04.04,0,.05.02.05.22v1.29ZM89.54,29.03c.1,0,.17.07.17.18s-.07.19-.18.19c-.1,0-.18-.06-.18-.18,0-.13.1-.19.18-.19h0Z"/>
        <path class="cls-12" d="M91.3,30.45c0-.27-.12-.41-.34-.41-.18,0-.32.12-.41.21v1.07c0,.07-.01.08-.08.09-.08.02-.17.01-.25.02,0-.13.01-.35.01-.66v-.61c0-.13-.02-.19-.06-.23h0c.03-.07.14-.14.21-.14.11,0,.15.18.15.27.15-.15.35-.27.55-.27.42,0,.53.32.53.66v.49c0,.21,0,.36.01.45-.08.01-.18.03-.28.03-.04,0-.06-.02-.06-.05v-.91Z"/>
        <path class="cls-12" d="M93.32,31.13c0,.08-.05.18-.1.22-.09.05-.23.09-.39.09-.37,0-.82-.18-.82-.8,0-.5.38-.86.87-.86.26,0,.43.09.46.13,0,.1-.06.2-.16.18-.08-.03-.19-.07-.31-.07-.31,0-.53.24-.53.58,0,.46.33.59.58.59.13,0,.29-.03.38-.07h.01Z"/>
        <path class="cls-12" d="M94,30.02c.14-.12.32-.24.54-.24.4,0,.53.32.53.67v.49c0,.22,0,.37,0,.46-.07.01-.17.03-.27.03-.04,0-.05-.02-.05-.06v-.89c0-.32-.15-.43-.35-.43-.17,0-.33.11-.4.18v1.09c0,.06-.01.08-.07.09-.09.01-.18.01-.26.01,0-.13.01-.35.01-.66v-1.35c0-.22,0-.33-.02-.4.09-.03.22-.05.28-.05.04,0,.05.02.05.23v.83Z"/>
        <path class="cls-12" d="M95.59,30.25c0-.22,0-.33-.01-.41.06-.02.21-.04.28-.04.04,0,.05.02.05.22,0,.24,0,.49,0,.73,0,.37.19.42.35.42.17,0,.31-.11.38-.18v-1.05c0-.09.01-.1.06-.12.1-.01.19-.02.27-.02,0,.08-.01.33-.01.64v.57c0,.17.05.21.15.23v.02c0,.07-.09.18-.17.18-.15,0-.24-.1-.26-.26-.11.12-.23.18-.3.21-.07.03-.15.05-.24.05-.37,0-.54-.24-.54-.6v-.6Z"/>
        <path class="cls-12" d="M100.12,31.11c-.01.1-.05.18-.12.23-.08.05-.27.12-.52.12-.81,0-1.24-.47-1.24-1.16,0-.73.55-1.2,1.26-1.2.33,0,.59.11.65.18,0,.13-.1.2-.18.17-.11-.05-.28-.11-.49-.11-.48,0-.89.31-.89.93,0,.54.34.94.97.94.22,0,.43-.07.54-.11h.01Z"/>
        <path class="cls-12" d="M100.81,31.31c0,.06-.02.08-.08.09-.05.01-.14.01-.25.02,0-.14.01-.35.01-.57v-.61c0-.22,0-.33-.01-.41.06-.02.22-.04.28-.04.04,0,.05.02.05.22v1.29ZM100.65,29.03c.1,0,.17.07.17.18s-.07.19-.18.19c-.1,0-.18-.06-.18-.18,0-.13.11-.19.18-.19h0Z"/>
        <path class="cls-12" d="M102.21,31.13c.01.07,0,.16-.07.21-.07.06-.21.1-.34.1-.32,0-.45-.2-.45-.47v-.91c-.13,0-.18-.04-.18-.08.04-.07.27-.28.32-.33.05-.04.11-.08.19-.09,0,.11-.01.2-.01.28h.57c-.04.19-.12.2-.18.21-.12,0-.14.01-.4.01-.02.36-.01.73,0,.89.02.21.13.26.26.26.11,0,.21-.04.27-.08h.01Z"/>
        <path class="cls-12" d="M102.54,32.06c.12-.15.33-.45.48-.75-.02-.03-.05-.09-.08-.15-.05-.14-.35-.95-.51-1.29.07-.04.2-.08.26-.08.05,0,.06.03.08.07.1.26.32.89.41,1.14.14-.33.33-.91.4-1.21.05,0,.15.01.2.04.06.03.07.05.04.13-.11.38-.25.79-.44,1.21-.21.47-.55,1-.62,1-.09,0-.19-.05-.23-.09h0Z"/>
      </g>
      <path class="cls-12" d="M80.96,46.68h-.95v.65h.95v-.65ZM80.01,46.45h.95v-.64h-.95v.64ZM80.66,44.52v.33h.77v.24h-.77v.32h-.26v-.32h-.43v-.24h.43v-.33h.26ZM79.77,46.68h-.93v.65h.93v-.65ZM79.77,45.81h-.93v.64h.93v-.64ZM81.21,47.8h-.25v-.22h-2.12v.22h-.25v-2.23h2.63v2.23ZM79.1,44.85v-.33h.26v.33h.43v.24h-.43v.32h-.26v-.32h-.77v-.24h.77Z"/>
      <g class="cls-10">
        <path class="cls-12" d="M84.56,45.44h-.53v.49h.53v-.49ZM85.11,47.57l-.17.19c-.31-.24-.62-.44-.95-.62l.14-.16c.36.18.68.38.97.59M83.79,45.44h-.56v.49h.56v-.49ZM83.79,44.9h-.56v.32h.56v-.32ZM82.99,45.44h-.55v.49h.55v-.49ZM85.04,44.66v.24h-1.02v.32h.78v.94h-2.61v-.94h.8v-.32h-1.03v-.24h3.08ZM83.03,47.13c-.26.24-.58.44-.97.62l-.15-.2c.38-.16.7-.35.96-.56l.16.14ZM83.38,46.55v-.28h.25v.28h1.47v.23h-1.47v1.03h-.25v-1.03h-1.47v-.23h1.47Z"/>
        <path class="cls-12" d="M88.77,47.49l-.19.13c-.09-.21-.22-.44-.38-.69l.19-.12c.17.26.29.48.38.68M87.57,47.77l-.06-.23c.07,0,.15.02.21.02s.1-.04.1-.12v-.83c-.18.01-.37.03-.56.04l-.05-.21.09-.02c.17-.09.37-.27.6-.52-.2.02-.41.04-.62.05l-.05-.2.09-.02c.18-.11.43-.4.75-.86l.23.09c-.26.35-.49.61-.69.78.16-.01.32-.03.48-.05.1-.12.2-.24.31-.38l.23.09c-.38.46-.71.8-.99,1.03.24-.02.48-.05.71-.08-.04-.09-.09-.17-.13-.25l.2-.09c.12.19.22.41.31.64l-.2.1-.08-.2c-.13.01-.26.03-.39.04v.91c0,.18-.09.27-.25.27h-.24ZM88.08,44.53c-.27.38-.55.67-.86.87l-.15-.18c.3-.19.55-.44.76-.74l.25.06ZM87.63,46.93c-.11.27-.24.5-.4.7l-.19-.13c.15-.19.28-.41.39-.67l.2.1ZM87.03,47.35l-.21.09c-.06-.23-.13-.44-.2-.62l.2-.06c.08.18.15.38.2.59M86.7,46.15h-.73v.23h.73v-.23ZM86.7,45.72h-.73v.24h.73v-.24ZM86.7,45.29h-.73v.24h.73v-.24ZM86.7,44.86h-.73v.24h.73v-.24ZM86.93,46.38h.19v.23h-.67v1.15h-.25v-1.15h-.65v-.23h.18v-1.73h1.2v1.73ZM86.02,46.81c-.08.33-.19.62-.35.87l-.19-.13c.15-.24.26-.5.33-.79l.21.04Z"/>
        <path class="cls-12" d="M75.38,49.06s.21-.04.27-.04c.03,0,.05.02.06.1l.22,1.34c.06.38.11.64.15.82-.06.02-.2.03-.26.03-.05,0-.07-.02-.08-.08-.03-.2-.06-.36-.1-.7l-.16-1.07c-.13.35-.4,1.04-.64,1.7-.02.05-.04.08-.1.1-.05.01-.11.02-.16.02-.11-.34-.44-1.26-.64-1.81-.08.51-.23,1.4-.29,1.78,0,.04-.02.06-.06.06-.06,0-.18,0-.23-.03.07-.36.25-1.32.4-2.12l-.02-.09c.07-.02.18-.04.29-.04.05.05.09.14.18.38l.51,1.35c.24-.58.51-1.26.67-1.63v-.06Z"/>
        <path class="cls-12" d="M76.84,51.2c0,.07-.02.08-.08.09-.05.01-.14.01-.25.02,0-.14.01-.35.01-.57v-.61c0-.22,0-.33-.01-.41.06-.02.22-.04.28-.04.04,0,.05.02.05.22v1.29ZM76.69,48.92c.1,0,.17.07.17.18s-.07.19-.18.19c-.1,0-.18-.06-.18-.18,0-.13.11-.19.18-.19h0Z"/>
        <path class="cls-12" d="M77.55,50.88c0,.13.1.2.23.2.15,0,.26-.09.31-.17.02-.03.03-.06.03-.13v-.25c-.3.04-.57.14-.57.34h0ZM78.62,51.1c0,.15-.08.23-.24.23s-.23-.11-.26-.22c-.09.1-.26.22-.46.22-.25,0-.43-.19-.43-.41,0-.38.49-.49.69-.54.06-.01.14-.03.19-.04v-.09c0-.16-.09-.32-.31-.32-.12,0-.25.06-.35.12-.11.05-.16-.02-.18-.13.11-.1.35-.24.6-.24.37,0,.54.26.54.61,0,.15-.01.49,0,.71,0,.07.05.11.12.11.02,0,.05,0,.08-.01h0Z"/>
        <path class="cls-12" d="M79.62,49.88c-.24,0-.45.21-.45.59,0,.43.22.64.49.64.21,0,.43-.18.43-.61,0-.31-.13-.63-.47-.63h0ZM79.65,49.67c.5,0,.78.35.78.81s-.31.85-.8.85c-.53,0-.79-.39-.79-.81,0-.48.33-.85.81-.85h0Z"/>
        <path class="cls-12" d="M80.85,49.29c0-.21,0-.32-.01-.4.08-.03.22-.05.28-.05.04,0,.05.02.05.23v1.73c0,.18,0,.37.01.47-.06.02-.24.03-.28.03-.03,0-.05-.01-.05-.05v-1.97Z"/>
        <path class="cls-12" d="M82.02,51.2c0,.07-.02.08-.08.09-.05.01-.14.01-.25.02,0-.14.01-.35.01-.57v-.61c0-.22,0-.33-.01-.41.06-.02.22-.04.28-.04.04,0,.05.02.05.22v1.29ZM81.86,48.92c.1,0,.17.07.17.18s-.07.19-.18.19c-.1,0-.18-.06-.18-.18,0-.13.1-.19.18-.19h0Z"/>
        <path class="cls-12" d="M85.17,50.99c-.01.1-.05.18-.11.23-.08.05-.27.12-.52.12-.81,0-1.24-.47-1.24-1.16,0-.73.55-1.2,1.26-1.2.33,0,.6.11.65.18,0,.13-.1.2-.18.17-.11-.05-.28-.11-.49-.11-.48,0-.89.31-.89.93,0,.54.34.94.97.94.22,0,.44-.07.54-.11h.01Z"/>
        <path class="cls-12" d="M86.19,49.88c-.23,0-.45.21-.45.59,0,.43.22.64.49.64.21,0,.43-.18.43-.61,0-.31-.13-.63-.47-.63h0ZM86.22,49.67c.5,0,.78.35.78.81s-.31.85-.8.85c-.53,0-.79-.39-.79-.81,0-.48.33-.85.81-.85h0Z"/>
        <path class="cls-12" d="M87.4,50.13c0-.22,0-.33-.01-.41.06-.02.21-.04.28-.04.04,0,.05.02.05.22,0,.24,0,.49,0,.73,0,.37.19.42.35.42.17,0,.31-.11.38-.18v-1.05c0-.09.01-.1.06-.12.1-.01.19-.02.27-.02,0,.08-.01.33-.01.64v.57c0,.17.05.21.15.23v.02c0,.07-.09.18-.17.18-.15,0-.24-.1-.26-.26-.11.12-.23.18-.3.21-.07.03-.15.05-.23.05-.37,0-.54-.24-.54-.6v-.6Z"/>
        <path class="cls-12" d="M90.38,50.34c0-.27-.12-.41-.34-.41-.18,0-.32.12-.41.21v1.07c0,.07-.01.08-.08.09-.08.02-.17.01-.25.02,0-.13.01-.35.01-.66v-.61c0-.13-.02-.19-.06-.23h0c.03-.07.14-.14.21-.14.11,0,.15.18.15.27.15-.15.35-.27.55-.27.42,0,.53.32.53.66v.49c0,.21,0,.36.01.45-.08.01-.18.03-.28.03-.04,0-.06-.02-.06-.05v-.91Z"/>
        <path class="cls-12" d="M92.09,51.02c.01.07,0,.16-.07.21-.07.06-.21.1-.34.1-.32,0-.45-.2-.45-.47v-.91c-.13,0-.18-.04-.18-.08.04-.07.27-.28.32-.33.05-.04.11-.08.19-.09,0,.11-.02.2-.02.28h.57c-.04.19-.11.2-.18.21-.12,0-.14.01-.4.01-.02.36-.02.73,0,.89.02.21.13.26.26.26.11,0,.21-.04.27-.08h.01Z"/>
        <path class="cls-12" d="M92.43,51.94c.12-.15.33-.45.48-.74-.02-.03-.05-.09-.08-.15-.05-.14-.35-.95-.51-1.29.07-.04.2-.08.26-.08.05,0,.06.03.08.07.1.26.32.89.41,1.14.14-.33.33-.91.4-1.21.05,0,.15.01.2.04.06.03.07.05.04.13-.11.38-.25.79-.44,1.21-.21.47-.55,1-.62,1-.09,0-.19-.05-.23-.09v-.02Z"/>
        <path class="cls-2" d="M152.25,33.06c.08,0,.13-.06.13-.17v-2.42h-.27v2.57h.14ZM151.4,30.47v3.07h-.44v-3.54h.64v-.55h-.69v-.5h1.95v.5h-.71v.55h.67v2.98c0,.36-.14.55-.41.55h-.3v.72h-.44v-3.78h-.26ZM150.25,32.38h-.43v1.02h.43v-1.02ZM150.23,29.99h-.42v.89h.42v-.89ZM150.75,31.37h-.93v.52h.95v2.2h-.51v-.2h-.43v.31h-.52v-4.7h.34c.08-.24.15-.48.2-.74l.53.07c-.05.24-.11.46-.19.66h.56v1.87ZM149.28,29.1c-.18.36-.36.65-.53.89.04.09.07.18.1.26.14.49.23,1.19.24,2.09,0,.95-.1,1.52-.3,1.72-.12.1-.27.15-.47.15-.18,0-.32,0-.43,0l-.17-.53c.16.03.32.04.46.04.12,0,.19-.03.23-.09.08-.14.13-.58.13-1.31,0-.14,0-.28-.01-.4-.2.33-.44.61-.69.85l-.32-.48c.41-.34.72-.75.95-1.22-.03-.22-.07-.41-.11-.58v-.03c-.17.15-.35.31-.55.47l-.31-.49c.22-.13.43-.31.63-.52-.13-.26-.29-.5-.48-.71l.45-.35c.15.19.28.39.4.59.12-.19.24-.4.35-.62l.45.28Z"/>
        <path class="cls-2" d="M158.24,32.14h-1.52v.47h1.52v-.47ZM158.24,31.26h-1.52v.41h1.52v-.41ZM158.24,30.34h-1.52v.46h1.52v-.46ZM157.13,29.88c.03-.14.05-.28.08-.43h-1.2v-.5h3v.5h-1.25c-.02.14-.05.29-.08.43h1.11v3.23h-.65c.37.27.68.54.93.8l-.38.38c-.22-.26-.53-.55-.92-.86l.34-.32h-1.19l.37.33c-.28.34-.63.63-1.04.89l-.34-.43c.39-.23.72-.49.98-.78h-.69v-3.23h.94ZM155.2,30.5h-.99v.86h.99v-.86ZM154.51,33.18l-.46.12c-.08-.37-.18-.73-.3-1.08l.46-.14c.11.32.21.69.3,1.1M155.71,31.84h-2v-1.83h2v1.83ZM155.82,29.53h-2.24v-.53h2.24v.53ZM155.82,33.72c-.65.15-1.39.27-2.22.35l-.07-.52c.44-.05.86-.1,1.25-.15.14-.43.28-.88.38-1.37l.48.17c-.1.41-.2.78-.31,1.11.17-.04.34-.07.49-.1v.52Z"/>
      </g>
      <polygon class="cls-2" points="164.72 29.78 164.72 34.15 164.15 34.15 164.15 33.8 160.45 33.8 160.45 34.15 159.88 34.15 159.88 29.75 160.45 29.75 160.45 33.25 162.02 33.25 162.02 28.79 162.59 28.79 162.59 33.25 164.15 33.25 164.15 29.78 164.72 29.78"/>
      <g class="cls-9">
        <path class="cls-2" d="M147.79,37.11c0-.48,0-.78-.02-.92.12-.02.37-.06.55-.06.08,0,.11.04.11.4v3.68c.14.04.49.06.79.06.32,0,.78,0,1.07-.03h0c-.03.22-.14.38-.32.45-.09.02-.33.03-.84.03-.58,0-1.06-.04-1.25-.07l-.1-.14v-3.39Z"/>
        <path class="cls-2" d="M151.48,40.49c0,.13-.04.17-.15.18-.09.02-.27.03-.48.04,0-.3.02-.71.02-1.13v-1.22c0-.44-.02-.66-.03-.81.12-.04.43-.07.53-.07.07,0,.1.03.1.45v2.58ZM151.19,35.97c.19,0,.32.15.32.35s-.14.37-.35.37c-.19,0-.35-.12-.35-.35,0-.25.21-.37.36-.37h0Z"/>
        <path class="cls-2" d="M153.79,37.82c-.48,0-.9.43-.9,1.22,0,.88.45,1.31.97,1.31.43,0,.88-.36.88-1.25,0-.66-.29-1.28-.94-1.28h0ZM153.86,37.43c1.01,0,1.53.71,1.53,1.63s-.61,1.69-1.58,1.69c-1.05,0-1.56-.78-1.56-1.63,0-.95.65-1.69,1.61-1.69h0Z"/>
        <path class="cls-2" d="M158.29,38.74c0-.56-.25-.84-.67-.84-.37,0-.65.24-.81.43v2.15c0,.15-.03.17-.15.18-.16.03-.32.02-.48.03.01-.26.02-.68.02-1.32v-1.22c0-.26-.04-.38-.12-.45v-.03c.06-.12.26-.25.39-.25.22,0,.29.33.31.53.28-.28.67-.53,1.07-.53.83,0,1.05.62,1.05,1.31v1.01c0,.42.02.72.03.9-.15.02-.35.06-.53.06-.08,0-.11-.04-.11-.1v-1.86Z"/>
        <path class="cls-2" d="M160.63,35.82c.08.11.12.25.12.43,0,.26-.08.5-.23.7-.16.19-.37.32-.62.4v-.3c.16-.05.28-.14.37-.26.1-.13.14-.26.14-.4-.02.01-.07.02-.13.02-.1,0-.19-.04-.25-.11-.07-.07-.11-.16-.11-.26,0-.11.03-.2.1-.27.07-.07.17-.1.29-.1.13,0,.24.05.32.16"/>
        <path class="cls-2" d="M162.88,37.43c.27,0,.55.08.73.24.01.13-.07.33-.24.32-.15-.08-.35-.14-.53-.14-.28,0-.49.16-.49.41,0,.21.14.33.31.43.2.1.43.21.64.33.32.18.47.44.47.73,0,.68-.6.99-1.17.99-.35,0-.65-.11-.8-.24-.06-.06-.09-.14-.08-.21.01-.1.07-.21.15-.25.21.14.5.25.77.25.36,0,.55-.19.55-.43,0-.18-.1-.31-.35-.44-.19-.1-.37-.18-.54-.27-.3-.17-.51-.42-.51-.79,0-.58.51-.94,1.09-.94h0Z"/>
        <path class="cls-2" d="M169.04,38.1v-1.76c0-.14.04-.17.14-.19.13-.02.36-.03.51-.03-.01.27-.02.7-.02,1.3v2.33c0,.5.01.74.02.89-.12.03-.44.06-.55.06-.07,0-.11-.02-.11-.12v-2.07c-.14.01-.38.02-1.02.02h-1.33v1.94c0,.14-.03.17-.18.19-.18.03-.31.03-.48.03.01-.29.02-.71.02-1.32v-2.28c0-.49,0-.79-.02-.92.13-.03.41-.06.53-.06.1,0,.13.04.13.38v1.6h2.34Z"/>
        <path class="cls-2" d="M171.92,37.8c-.36,0-.71.32-.77.93.52.01,1.17,0,1.3,0,.09,0,.15-.07.15-.15,0-.44-.22-.78-.67-.78h0ZM173.04,40.1c0,.22-.15.43-.27.49-.12.07-.42.16-.71.16-1,0-1.55-.6-1.55-1.61,0-.91.55-1.71,1.5-1.71.82,0,1.17.61,1.19,1.2,0,.07,0,.16-.02.22-.02.12-.37.21-.61.25-.19.02-.91.03-1.43.01,0,.73.45,1.15,1.09,1.15.32,0,.68-.11.81-.18v.02Z"/>
        <path class="cls-2" d="M174.22,39.85c0,.27.22.43.47.43.3,0,.51-.19.62-.34.03-.05.05-.12.05-.24v-.56c-.59.09-1.14.3-1.14.7h0ZM176.34,40.3c0,.3-.17.45-.46.45s-.46-.22-.5-.45c-.2.22-.54.45-.92.45-.5,0-.84-.37-.84-.81,0-.77,1.01-.98,1.4-1.07.13-.03.27-.06.36-.07v-.22c0-.34-.19-.66-.63-.66-.27,0-.53.13-.73.27-.2.08-.29-.09-.3-.27.23-.21.7-.48,1.18-.48.73,0,1.07.52,1.07,1.2,0,.31-.02,1-.01,1.44,0,.14.09.24.24.23.04,0,.09,0,.14-.01h0Z"/>
        <path class="cls-2" d="M179.12,37.95c-.1-.07-.31-.12-.56-.12-.54,0-1.14.37-1.14,1.27,0,.72.45,1.15,1.02,1.15.23,0,.51-.09.68-.24v-2.07ZM179.12,36.57c0-.38-.01-.56-.03-.7.13-.05.42-.1.53-.1.08,0,.11.04.11.48v3.68c0,.34.09.42.31.45v.02c-.03.16-.18.35-.33.35-.33,0-.47-.19-.52-.41-.29.23-.71.41-1.02.41-.76,0-1.4-.55-1.4-1.56s.77-1.76,1.79-1.76c.29,0,.47.07.55.09v-.95Z"/>
        <path class="cls-2" d="M186.15,36.21c.08-.04.38-.08.5-.08.06,0,.09.04.11.19l.45,2.69c.13.76.22,1.29.3,1.64-.11.04-.39.06-.5.06-.09,0-.14-.04-.15-.14-.07-.4-.12-.74-.21-1.4l-.33-2.17c-.27.71-.81,2.11-1.3,3.43-.04.1-.07.16-.19.19-.09.02-.22.04-.31.04-.22-.68-.89-2.56-1.29-3.65-.15,1.04-.47,2.85-.58,3.59-.02.08-.05.11-.12.11-.11,0-.32,0-.43-.06.14-.72.48-2.64.8-4.26l-.04-.17c.14-.04.34-.08.55-.08.09.1.17.3.37.78l1.04,2.74c.48-1.18,1.03-2.57,1.34-3.31v-.13Z"/>
        <path class="cls-2" d="M189.66,37.82c-.48,0-.9.43-.9,1.22,0,.88.45,1.31.97,1.31.43,0,.88-.36.88-1.25,0-.66-.29-1.28-.94-1.28h0ZM189.72,37.43c1.01,0,1.53.71,1.53,1.63s-.61,1.69-1.58,1.69c-1.05,0-1.56-.78-1.56-1.63,0-.95.65-1.69,1.61-1.69h0Z"/>
        <path class="cls-2" d="M192.03,38.35c0-.44-.01-.66-.03-.81.12-.04.4-.07.53-.07.08,0,.1.03.1.45,0,.48,0,1.01,0,1.48,0,.76.39.86.71.86.34,0,.63-.22.74-.37v-2.13c0-.17.02-.21.12-.24.19-.02.35-.04.51-.04,0,.16-.02.67-.02,1.3v1.16c0,.35.09.43.29.46v.03c0,.14-.17.34-.32.34-.3,0-.47-.2-.51-.51-.21.22-.45.35-.6.42-.15.06-.3.09-.46.09-.73,0-1.06-.48-1.06-1.19v-1.21Z"/>
        <path class="cls-2" d="M197.86,38.74c0-.56-.25-.84-.67-.84-.37,0-.65.24-.81.43v2.15c0,.15-.03.17-.15.18-.16.03-.32.02-.48.03.01-.26.02-.68.02-1.32v-1.22c0-.26-.04-.38-.12-.45v-.03c.06-.12.26-.25.39-.25.22,0,.29.33.31.53.28-.28.67-.53,1.07-.53.83,0,1.05.62,1.05,1.31v1.01c0,.42.02.72.03.9-.15.02-.35.06-.53.06-.08,0-.11-.04-.11-.1v-1.86Z"/>
        <path class="cls-2" d="M201.2,40.15c.04.15.01.3-.11.4-.14.12-.43.19-.68.19-.64,0-.89-.4-.89-.95v-1.86c-.24,0-.35-.08-.35-.15.07-.15.52-.56.63-.66.09-.08.19-.15.37-.18-.01.23-.03.41-.03.56h1.15c-.07.36-.23.39-.36.4-.24.02-.27.02-.79.02-.04.74-.03,1.51,0,1.82.04.43.27.54.52.54.21,0,.42-.06.54-.15h.01Z"/>
        <path class="cls-2" d="M202.28,39.85c0,.27.22.43.48.43.3,0,.51-.19.62-.34.03-.05.05-.12.05-.24v-.56c-.59.09-1.15.3-1.15.7h0ZM204.39,40.3c0,.3-.17.45-.46.45s-.46-.22-.5-.45c-.2.22-.54.45-.92.45-.5,0-.84-.37-.84-.81,0-.77,1.01-.98,1.4-1.07.13-.03.27-.06.36-.07v-.22c0-.34-.19-.66-.63-.66-.27,0-.53.13-.73.27-.19.08-.29-.09-.3-.27.23-.21.7-.48,1.18-.48.73,0,1.07.52,1.07,1.2,0,.31-.02,1-.01,1.44,0,.14.09.24.24.23.04,0,.09,0,.14-.01h0Z"/>
        <path class="cls-2" d="M205.68,40.49c0,.13-.04.17-.15.18-.09.02-.27.03-.48.04,0-.3.02-.71.02-1.13v-1.22c0-.44-.01-.66-.03-.81.12-.04.43-.07.53-.07.07,0,.1.03.1.45v2.58ZM205.39,35.97c.19,0,.32.15.32.35s-.14.37-.35.37c-.19,0-.35-.12-.35-.35,0-.25.21-.37.36-.37h0Z"/>
        <path class="cls-2" d="M208.8,38.74c0-.56-.25-.84-.67-.84-.37,0-.65.24-.81.43v2.15c0,.15-.03.17-.15.18-.16.03-.32.02-.48.03.01-.26.02-.68.02-1.32v-1.22c0-.26-.04-.38-.12-.45v-.03c.06-.12.26-.25.39-.25.22,0,.29.33.31.53.28-.28.67-.53,1.07-.53.83,0,1.05.62,1.05,1.31v1.01c0,.42.02.72.03.9-.15.02-.35.06-.53.06-.08,0-.11-.04-.11-.1v-1.86Z"/>
        <path class="cls-14" d="M108.32,51.83c1.42.51.59,1.8.59,1.8-.59.23-1.16.5-1.71.82-.51.35-.69,1.12-.93,2.07s.57,1.49,0,2.15-1.64.74-3.48.79-3.56-.28-4.81.51c-1.25.78-1.37,1.25-2.38,1.02-1.19-.24-2.42-.25-3.61-.04-.83.21-.7.97-1.95,1.68-1.25.71-2.04,1.61-4.29,1.24-2.25-.37-2.51-1.74-1.61-2.11.9-.37,3.05-.3,4.63-.72,1.38-.41,2.64-1.14,3.69-2.12.57-.58.63-.8,2.4-.82,1.77-.02,4.24-.97,5.84-1.17,1.6-.19,2.76-.05,3.22-1.24.45-1.19,1.76-2.2,2.04-2.6.28-.4.16-1.01.91-1.14.48-.08.97-.12,1.46-.11"/>
        <path class="cls-14" d="M64.14,64.52c1.33-.1,1.12.51,2.4.37,1.29-.14,1.02-.46,1.49.26.47.72-.1,1.07.57,1.43.39.23.63.66.61,1.12v2.71c-.01.84.14,1.67.46,2.45.2.71.46,2.3,1.02,2.91.56.61,1.38.82,1.69,1.33.34.45.47,1.03.37,1.58-.2.62-.51,1.19-.92,1.68-.44.6-.94,1.14-1.49,1.64-.61.51-.56.71-1.53,0-.97-.71-1.69-.87-1.84-1.38-.15-.51.15-1.12.46-2.2.31-1.08.1-2.4.15-3.22s-.31-1.74-.31-2.6-.37-1.18-.61-1.68c-.24-.51-1.28-.87-1.84-1.69-.56-.82-1.23-.15-1.23-1.84v-2.89c.18-.01.37,0,.55.02"/>
        <path class="cls-14" d="M91.57,35.07s.94-1.8,1.36-.64c0,0,2.29,1.7,3.23.64,0,0,1.46-1.95,1.88-.34,0,0-.62,1.51,0,2.04,0,0,1.67,2.01-1.15,1.59,0,0-.73.53-.31,1.38,0,0,.42,1.38-.52,1.64,0,0-1.04,1.22-.31,1.43,0,0,.8,1.27-.69,1.49,0,0,.56,1.48,0,1.48,0,0-.56.85-1.91,0,0,0-1.88-1.17-2.5-.74,0,0-2.71-.32-1.36-2.33,0,0,.94-1.7.52-3.6,0,0-.73-2.33.63-1.91,0,0,1.15-.42,1.15-2.12"/>
        <path class="cls-2" d="M42.37,45.51v-2.07c0-.2.07-.23.22-.25.22-.02.66-.03.94-.04-.02.34-.03.88-.03,1.63v2.91c0,.63.02.93.03,1.11-.18.05-.76.07-.96.07-.13,0-.19-.03-.19-.17v-2.47c-.18.02-.48.03-1.03.03h-1.38v2.33c0,.19-.07.22-.28.24-.24.03-.68.05-.87.04.02-.36.03-.89.03-1.65v-2.84c0-.61,0-.98-.03-1.15.23-.05.77-.07.96-.07.16,0,.19.08.19.49v1.87h2.4Z"/>
        <path class="cls-2" d="M47.82,47.92c0,.4-.31.77-.47.84-.13.06-.52.16-.84.16-1.32,0-2.04-.72-2.04-2.04,0-1.09.71-2.13,1.93-2.13,1.14,0,1.59.83,1.59,1.55,0,.13,0,.22-.03.3-.03.14-.39.26-.76.35-.23.05-1.16.06-1.66.04.04.79.62,1.12,1.23,1.12.43,0,.86-.13,1.01-.21l.02.02ZM46.31,45.37c-.33,0-.69.32-.73.99.37.03,1.06.02,1.28,0,.06,0,.12-.09.12-.19,0-.44-.2-.8-.66-.8h0Z"/>
        <path class="cls-2" d="M48.63,45.21c.07-.21.41-.47.66-.47.4,0,.56.38.57.94.26-.61.64-.94,1.12-.94.17,0,.34.08.42.15.05.1.04.36-.06.53-.03.19-.22.4-.35.42-.18-.07-.28-.09-.43-.09-.14,0-.41.11-.55.49-.05.14-.08.24-.08.44v1.88c0,.14-.02.22-.2.25-.31.04-.59.05-.92.05.02-.48.03-1.03.03-1.64v-1.52c0-.21-.05-.37-.21-.46v-.04Z"/>
        <path class="cls-2" d="M55.03,47.92c0,.4-.32.77-.47.84-.13.06-.52.16-.84.16-1.32,0-2.03-.72-2.03-2.04,0-1.09.71-2.13,1.93-2.13,1.14,0,1.59.83,1.59,1.55,0,.13,0,.22-.03.3-.03.14-.39.26-.76.35-.23.05-1.16.06-1.66.04.05.79.62,1.12,1.23,1.12.43,0,.85-.13,1.01-.21l.02.02ZM53.52,45.37c-.33,0-.69.32-.73.99.37.03,1.06.02,1.28,0,.06,0,.12-.09.12-.19,0-.44-.2-.8-.66-.8h0Z"/>
        <path class="cls-2" d="M56.49,47.62c.35,0,.59.29.59.63,0,.4-.25.66-.66.66-.29,0-.61-.2-.61-.63,0-.36.23-.66.68-.66h0ZM56.92,43.34c.14,0,.19.02.19.24,0,.53-.22,2.67-.27,3.05-.03.16-.13.2-.21.22-.22.05-.4.1-.45.1-.05-.38-.27-2.82-.28-3.39.04-.1.72-.23,1.01-.23h0Z"/>
      </g>
    </g>
  </g>
</svg>