<?xml version="1.0" encoding="UTF-8"?>
<svg id="_圖層_2" data-name="圖層_2" xmlns="http://www.w3.org/2000/svg" xmlns:xlink="http://www.w3.org/1999/xlink" viewBox="0 0 148.27 192.23">
  <defs>
    <style>
      .cls-1 {
        fill: none;
      }

      .cls-2 {
        fill: #d5db50;
      }

      .cls-3 {
        fill: #7c7c7d;
      }

      .cls-4 {
        clip-path: url(#clippath-1);
      }

      .cls-5 {
        clip-path: url(#clippath-3);
      }

      .cls-6 {
        clip-path: url(#clippath-4);
      }

      .cls-7 {
        clip-path: url(#clippath-2);
      }

      .cls-8 {
        clip-path: url(#clippath-5);
      }

      .cls-9 {
        fill: #fff;
      }

      .cls-10 {
        clip-path: url(#clippath);
      }
    </style>
    <clipPath id="clippath">
      <rect class="cls-1" y="0" width="148.27" height="192.23"/>
    </clipPath>
    <clipPath id="clippath-1">
      <rect class="cls-1" y="0" width="148.27" height="192.23"/>
    </clipPath>
    <clipPath id="clippath-2">
      <rect class="cls-1" y="0" width="148.27" height="192.23"/>
    </clipPath>
    <clipPath id="clippath-3">
      <rect class="cls-1" y="0" width="148" height="191.34"/>
    </clipPath>
    <clipPath id="clippath-4">
      <rect class="cls-1" y="0" width="148.27" height="192.23"/>
    </clipPath>
    <clipPath id="clippath-5">
      <rect class="cls-1" y="0" width="148.27" height="192.23"/>
    </clipPath>
  </defs>
  <g id="_圖層_1-2" data-name="圖層_1">
    <polygon class="cls-9" points="125.06 54.21 124.79 55.18 123.04 56.48 120.21 56.27 114.51 54.09 113.54 54.8 112.89 56.74 111.35 57.31 110.74 59.53 107.65 61.51 109.06 62.89 106.63 63.47 106.24 64.28 104.65 64.71 104.77 66.36 107.12 67.28 106.95 69.29 104.16 71.21 104.25 72.78 103.02 74.95 104 75.71 104.26 79.01 103.42 79.94 103.22 81.33 102.02 82.81 101.82 84.51 100.27 86 99.98 87.44 101.07 88.21 100.93 89.69 102.08 90.25 101.07 93.49 101.27 94.8 99.74 97.09 96.92 97.69 96.46 100.64 95.53 102.02 93.62 101.66 91.48 102.08 89.66 103.72 91 105.2 88.01 106.47 88.01 108.23 86.85 109.14 86.77 110.55 88.95 111.05 90.61 112.31 89.53 114.1 90.68 114.31 91.3 117.38 94.57 117.7 94.86 118.77 98.97 119.22 99.96 122.62 103.93 124.51 105.82 123.88 106.39 120.43 107.58 119.32 109.67 115.22 108.92 113.94 112.02 110.73 110.92 108.83 110.92 107.33 114.15 105.43 115.8 105.43 116.83 106.96 117.01 106.37 117.95 102.87 117.47 102.05 119.17 97.5 119.43 95.35 120.02 93.38 120.42 90.62 121.81 87.85 121.64 85.63 122.24 84.95 123.66 80.92 123.8 76.98 124.42 75.22 126.07 74.16 126.1 73.33 125.22 72.49 124.34 70.78 124.54 69.54 125.11 68.63 126.9 67.32 127.21 65.22 126.78 64.28 127.75 62.64 130.05 61.31 130.62 60.27 131.52 60.08 132.43 59.02 132.72 57.74 133.37 57.07 125.06 54.21"/>
    <polygon class="cls-9" points="115.41 106.01 114.36 106.01 111.6 107.64 111.6 108.69 112.82 110.81 109.73 114.02 110.42 115.2 108.16 119.64 107.04 120.68 106.45 124.29 103.89 125.15 99.36 123.01 98.42 119.74 94.31 119.29 94.02 118.23 90.72 117.9 90.09 114.79 89.02 114.6 86.02 114.99 84.35 116.74 82.33 117.28 81.81 120.53 79.51 122.29 79.51 123.93 80.14 124.51 79.99 129.07 76.61 131.73 76.66 135.01 77.28 136.65 79.18 137.86 78.15 139.39 78.7 140.43 81.48 141.55 81.14 143.61 80.52 144.22 80.31 146.82 77.68 147.13 76.02 147.88 75.12 147.88 74.06 148.93 74.38 149.6 72.33 152.27 71.22 156.11 72.87 159.1 72.02 160.79 74.38 163.65 73.04 164.46 71.63 164.86 71.59 166.43 72.61 167.06 74.41 167.57 74.23 169.26 73.8 169.63 74.76 171.04 75.02 172.33 76.44 172.56 78.15 174.06 80.14 174.06 80.21 168.47 81.58 165.5 83.57 161.21 85.53 155.65 86.98 154.32 87.49 153.65 87.6 152.34 88.05 151.04 89.76 149.45 94.24 147.08 96.52 145.68 97.82 143.87 98.76 142.54 98.81 141.52 98.42 140.44 98.36 139.88 98.76 139.23 101.99 137.61 104.35 133.77 106.05 132.42 106.51 130.85 107.7 128.95 108.55 126.22 109.58 125.42 111.39 124.89 111.62 121.65 111.19 120.42 111.19 119.53 112.3 118.25 112.3 117.77 112.53 116.56 113.95 113.92 114.88 113.3 115.25 111.97 116.58 107.76 115.41 106.01"/>
    <polygon class="cls-9" points="34.16 100.67 34.09 101.91 36.77 101.47 38.37 101.97 40.59 101.71 41.03 101.34 40.19 100.37 42.36 98.86 43.19 100.23 46.36 98.27 46.71 97.3 49.31 96.19 50.73 95.16 52.53 95.71 55.22 94.62 57.19 94.62 58.48 96.61 60.58 97.29 64.62 97.38 67.01 98.56 70.27 98.16 69.82 95.81 67.69 96.54 64.33 94.93 64.96 92.67 64.71 89.84 65.62 88.9 65.91 87.99 65.01 86.47 57.03 86.11 53.7 84.43 48.41 84.15 44.91 84.68 40.33 84.03 38.56 85.84 37.03 88.65 36.78 91.69 35.89 91.16 34.99 92.07 33.54 95.55 33.57 97.94 34.16 100.67"/>
    <path class="cls-9" d="M56.35,105.45l-1.57-.47-.8,1.25-1.12-.19-1-1.21-1.96-.05-.89-2.67,2.49-.32.65-.98,2.44.05.82,1.44,1.76.93.74.86-1.56,1.35ZM59.69,111.74l-1.27,2.07,1.12,2.9-1.23.62,1.26.83h1.76l.93-.96,2.6.29-1.17-3.39,1.4-.91,1.98,1.26,2.92-1.09,1.89-2.45,1.7.09,2.55-1.98,1.46-2.78,1.93-.04,2.23-1.62-.85-.49-2.68.64-2.29-.39.05-2.6-1.77-2.88.47-1.19-1.44-1.01-2.6-.21.42,2.19-4.19.51-2.44-1.21-3.98-.08-2.44-.8-1.22-1.86h-1.41l-2.81,1.13-1.68-.53-1.19.86-2.42,1.03-.33.92-3.99,2.48-.81-1.34-1.02.71.8.93-1.02.86-2.6.31-1.57-.49-2.4.39.69.84-.71.46.06.41.51,1.35-.77.55v1.76l.65.63-.14.37h-.94l-.23,1.35-.17,2.38,1.34-.1,2.34,1.45,1.41.03,2.93-1.98.74-1.45,5.24-2.93h.09l6.29-.29,3.35.83-.41,1.49,3.08,2.12Z"/>
    <polygon class="cls-9" points="34.81 132.2 35.95 135.27 36.09 135.81 39.37 135.38 40.7 136.08 43.56 136.05 45.02 136.46 47.7 136.54 49.85 135.15 50.88 135.04 53.98 130.5 56.72 128.99 57.85 126.8 59.24 127.02 60.96 125.48 64 120.64 64.78 119.86 64.97 118.09 62.54 117.82 61.64 118.75 59.34 118.75 57.12 117.28 58.71 116.44 57.68 113.75 58.83 111.88 55.84 109.86 56.2 108.55 53.57 107.9 47.48 108.18 42.57 110.93 41.85 112.35 38.6 114.56 36.72 114.51 34.42 113.08 33.06 113.18 32.35 114.1 32.29 115.23 31.69 116.41 32.71 118.1 31.07 118.37 30.78 119.55 29.7 121.17 29.87 122.3 30.87 123.73 29.42 124.55 29.25 127.45 30.38 127.35 29.02 128.27 29.19 128.58 30.64 129.06 32.12 130.15 34.81 132.2"/>
    <path class="cls-9" d="M116.52,16.82l-.96-1.49,1.59-1.41.14-1.37-1.15-.69-1.3-.3-.25-1.66,1.79-2.15,1.69-.27.48-1.36,1.21-.14.54-1.24,2.1,1.12-.2,1.43,1.41.87.24,1.15-.42,1.2.74.2.82,1.35-.37,1.49,1.53,1.66-.7.74-1.74.48-.14,1.59,1.04.85-2.5.99-1.76-.48-.52-1.43-1.17-1.04-.24-.74-.61.82-1.29-.16ZM118.52,0l-3.15,2.1-1.31.24-.77,2.03-.91.6-.65,2.41-1.54,1.12-3.15,1.09-1.99.22-.77.06.65.71,2.76,2.04,3.21,1.24.48,2.47-1.88,2.37-2.38.35.12,3.72,1.45.89-.22,2.28,4.4.41,1.25,2.06-.99,2.35.21,2.02,2.41,1.16.03,1.53,1.32.04,2.89-1.86,2.09-.74.07-3.11,2.18-2.01,4.02-.81,1.49-1.88,3.53-.34,1.39-2.44,2.39-.38-.21-1.35.74-.81.24-.82,2.55-.15,3.59-1.98,2.2,1.06,2.01-1.67-.99-.48-3.41-.53-.09-1.12-.45-.74-.26-3.69-2.21.26-3.26-.4-1.79.64-.7.44-.83.09-1.3.74.52,1.84-1.42,1.05-1.08-.03-3.35-.97-.3-.93-1.09-.31-.72-2.04-1.01-.72,1.08-1.12h1.98l1.93-1.64.35-1.28-.06-1.04-1.97,1.04-1.93-1.62-.25-1.35-1.16-1.23-1.78-1.06h-4.2Z"/>
    <polygon class="cls-9" points="144.09 17.49 140.7 19.35 138.47 19.48 138.31 20.02 137.66 20.73 137.92 22.38 135.21 22.83 133.81 25.3 130.23 25.64 128.78 27.49 124.7 28.31 122.83 30.03 122.76 33.3 120.34 34.15 117.32 36.05 115.54 36 114.26 36.62 113.91 38.46 111.91 40.35 112.35 41.57 111.41 41.84 111.48 44.11 110.67 44.41 109.89 45.45 107.73 46.86 106.26 48.75 106.28 49.19 107.28 49.75 107.41 51.27 109.87 52.57 112.94 52.06 114.65 53.51 120.38 55.7 122.81 55.88 124.18 54.87 124.58 53.42 133.83 56.6 134.02 56.41 134.02 54.6 134.51 53.68 134.84 52.42 135.05 50.35 136.61 48.49 136.89 47.96 139.05 46.51 138.05 45.42 138.14 44.5 140.07 43.9 139.98 42.16 140.04 39.31 138.96 38.54 137.17 33.61 137.4 32.82 136.8 31.35 136.83 28.81 137.37 26.27 137.8 24.75 139.96 22.58 140.44 21.98 143.51 18.93 145.58 18.21 144.09 17.49"/>
    <polygon class="cls-9" points="82.48 32.57 82.58 33.84 83.06 33.9 83.3 32.87 85.29 30.59 87.15 29.88 88.35 29.97 88.59 28.85 87.11 27.74 84.82 27.51 84.73 27.38 83.11 25.04 83.02 25.55 81.46 26.71 81.55 28.06 81.04 29.97 79.95 31.67 82.48 32.57"/>
    <polygon class="cls-9" points="58.48 65.2 59.61 67 64.34 69.16 65.01 71.92 67.54 72.56 68.07 73.71 70.49 73.36 71.48 73.88 74.06 73.11 75.04 70.37 76.76 70.09 76.85 68.15 77.95 66.7 79.94 67.72 80.06 68.07 80.79 67.38 81.95 67.94 84.29 66.49 85.57 67.24 86.76 66.69 87.43 64.78 90.47 64.9 92.55 62.89 96.14 61.88 96.94 60.71 98.81 61.17 101.49 60.86 102.96 59.7 103.96 60.6 106.72 60.6 107.21 61.07 110.13 59.19 110.77 56.9 112.32 56.32 112.94 54.47 113.95 53.74 112.71 52.69 109.74 53.18 106.75 51.61 106.62 50.07 105.62 49.51 105.6 49.15 104.1 49.87 102.46 49.79 101.92 50.43 101.72 52.47 100.19 52.87 99.23 52.02 90.3 57.75 88.86 57.35 87.66 55.79 84.38 55.14 82.82 55.34 82.17 57.2 80.97 57.93 77.12 57.89 74.69 56.31 72.74 56.1 71.46 55.1 66.74 51.96 64.13 48.5 61.16 51.96 60.77 53.05 59.15 55.56 58.75 57.3 57.76 57.86 57.39 59.74 55.6 62.26 58.48 65.2"/>
    <polygon class="cls-9" points="67.25 51.56 71.9 54.66 73.04 55.55 74.95 55.76 77.35 57.31 80.75 57.34 81.58 56.84 82.29 54.83 84.4 54.55 88.08 55.28 89.3 56.86 90.17 57.11 99.31 51.25 100.39 52.21 101.08 52.03 101.26 50.22 101.96 49.4 101.93 48.25 99.85 45.42 94.52 45.32 93.1 46.05 91.22 46.12 90.63 44.42 91.4 43.62 89.89 42.79 91.78 41.51 91.54 39.46 90.86 38.92 88.18 38.08 87.76 37.04 86.38 36.87 85.3 35.33 84.99 34.07 84.35 34.17 83.61 34.54 83.61 34.54 81.95 34.35 81.84 32.97 78.99 31.96 77.97 33.25 77.8 35.69 77.8 36.15 77.18 36.17 76.33 36.27 76.35 35.81 73.71 35.96 72.04 37.14 72.01 39.05 69.54 39.12 68.46 40.64 68.26 41.44 67.49 42.74 67.16 44.12 66.36 45.95 65.68 46.75 65.34 47.45 64.62 48.07 67.25 51.56"/>
    <g class="cls-10">
      <path class="cls-9" d="M106.12,62.99l1.73-.41-1.43-1.42h-2.74l-.74-.66-1.14.89-3.03.35-1.51-.37-.65.97-3.66,1.06-2.18,2.1-2.85-.12-.59,1.7-1.8.85-1.23-.73-2.3,1.43-1.07-.51-1.2,1.12-.37-1.13-1.19-.61-.64.85-.1,2.25-1.86.3-.96,2.69-3.22.96-1.04-.55-2.71.39-.02-.04-2.23-.13.52,1.49-.95,1.7-.37,3.94-.8.83,1.04,1.92,2.5.32,1.12,1.02-2.08,1.15-.57-.03.84,1.43-.37,1.23-.83.86.23,2.68-.56,1.9,2.63,1.26,2.6-.91.17.87,2.96.24s.04.01.06.02l1.92,1.35-.51,1.35,1.72,2.79-.05,2.26,1.58.27,2.83-.67,1.42.82,3.45.37,1.84,1.29,2.23-.95-1.18-1.31,2.35-2.14,2.49-.48,1.57.29.62-.91.5-3.22,2.98-.64,1.27-1.9-.19-1.24.92-2.92-1.07-.51.15-1.55-1.12-.79.39-1.93,1.54-1.49.19-1.67,1.21-1.49.19-1.41.8-.88-.22-2.86-1.14-.85,1.38-2.43-.1-1.72,2.82-1.95.12-1.36-2.29-.89-.17-2.45,1.79-.48.39-.83Z"/>
    </g>
    <polygon class="cls-9" points="116.43 11.32 118 12.26 117.8 14.17 116.4 15.42 116.96 16.29 117.47 16.35 118.66 14.71 119.28 16.61 120.43 17.62 120.9 18.9 122.07 19.21 123.42 18.67 122.87 18.22 123.07 15.97 125.05 15.43 125.28 15.2 123.89 13.69 124.26 12.14 123.68 11.17 122.57 10.87 123.14 9.25 122.98 8.47 121.47 7.54 121.66 6.14 120.64 5.61 120.25 6.51 119.07 6.65 118.61 7.97 116.78 8.26 115.3 10.05 115.46 11.1 116.43 11.32"/>
    <polygon class="cls-9" points="129.92 7.03 127.88 8.77 125.94 8.77 125.49 9.23 126.14 9.7 126.81 11.61 127.92 11.89 128.22 12.83 131.12 13.67 131.84 13.69 132.74 13.03 132.2 11.15 134.03 10.09 134.85 10.01 135.48 9.64 136.44 9.29 133.57 7.66 132.06 8.84 131.95 8.04 131.35 7.56 130.16 7.27 129.92 7.03"/>
    <polygon class="cls-9" points="54.89 102.71 54.17 101.44 52.54 101.41 51.94 102.32 49.88 102.58 50.43 104.2 52.24 104.24 53.28 105.5 53.62 105.56 54.46 104.25 56.17 104.77 57.03 104.05 56.71 103.67 54.89 102.71"/>
    <polygon class="cls-9" points="91.05 20.37 91.28 22.53 94.01 22.69 94.95 23.8 97.31 24.05 96.68 26.02 100.56 28.02 102.69 28.05 104.31 30.28 105.92 30.31 105.55 32.05 106.33 32.77 105.89 34.21 107.99 35 109.14 36.85 109.21 39.18 109.77 40.04 111.37 40 113.27 38.2 113.64 36.26 115.11 35.54 115.08 34.24 112.7 33.09 112.45 30.64 113.38 28.41 112.44 26.85 107.74 26.42 107.99 23.9 106.58 23.03 106.43 18.54 109.1 18.16 110.67 16.18 110.29 14.24 107.33 13.1 104.44 10.96 103.48 9.93 101.34 10.09 95.46 12.51 92.48 13.38 89.07 15.07 88.02 16.69 87.45 18.67 85.83 20.25 91.05 20.37"/>
    <g class="cls-4">
      <path class="cls-9" d="M85.23,26.96l2.16.22,1.95,1.44-.42,1.98-1.65-.13-1.53.59-1.78,2.06-.16.67.32-.16,1.41-.23.41,1.73.85,1.22,1.49.18.45,1.12,2.5.79.97.77.3,2.58-1.44.98,1.35.74-1.02,1.06.34.96,1.18-.04,1.44-.74,5.89.12,2.37,3.22.03,1.14,1.32.07,1.73-.83,1.55-1.99,2.16-1.41.82-1.12.58-.21-.07-2.3.79-.23-.23-.62-1.91.06-.84-1.29-.07-2.35-.97-1.54-2.41-.91.49-1.61-.74-.69.29-1.36-1.18-.02-1.62-2.23-1.93-.03-4.48-2.3.56-1.76-1.91-.19-.93-1.09-2.98-.18-.23-2.14-5.13-.11-.11,1.61-1.28.31-.56,1.49c.62.88,1.3,1.89,1.88,2.73"/>
    </g>
    <polygon class="cls-9" points="50.81 158 52.84 154.15 51.7 152.58 52.41 149.48 53.22 147.39 53.22 142.82 54.54 139.33 59.28 140.21 61.43 138.92 63.01 137.06 66.34 137.33 67.31 138.27 68.8 137.15 70.65 137.24 73 138.77 73.72 139.76 75.19 138.4 76.71 138.25 77.67 138.93 78.29 138.01 76.7 137.01 75.98 135.11 75.93 131.48 79.32 128.81 79.46 124.73 78.83 124.16 78.83 122.03 81.17 120.25 81.71 116.84 83.95 116.24 85.66 114.45 88.81 114.04 89.77 112.44 88.62 111.57 86.06 110.99 86.18 108.87 87.34 107.97 87.34 106.43 85.6 105.21 82.42 104.87 79.78 106.78 78.04 106.82 76.7 109.38 73.83 111.6 72.24 111.52 70.46 113.84 67 115.13 65.11 113.93 64.49 114.33 65.67 117.74 65.69 117.74 65.68 117.78 65.83 118.19 65.64 118.16 65.44 120.09 64.57 120.96 61.52 125.82 59.48 127.65 58.26 127.45 57.26 129.38 54.49 130.91 51.31 135.57 50.12 135.71 47.92 137.12 44.9 137.03 43.45 136.63 40.51 136.67 39.23 135.98 36.24 136.37 36.43 137.08 37.49 140.13 39.44 144.52 41.6 147.46 40.75 149.61 40.52 151.01 42.17 153.93 47.34 159.03 49.35 159.08 50.63 159.7 50.81 158"/>
    <polygon class="cls-9" points="61.92 139.34 59.43 140.84 54.99 140 53.9 142.91 53.9 147.47 53.07 149.64 52.42 152.47 53.6 154.11 51.48 158.15 51.28 160.02 52.62 160.67 52.79 161.91 53.64 162.82 60.63 165.94 61.28 166.68 61.82 167.87 62.64 168.45 64.35 170.14 64.85 171.95 65.2 173.23 65.62 173.52 66.78 174.87 67.07 175.93 68.18 179.46 68.38 179.97 68.55 181.08 67.98 184.07 67.32 185.18 67.35 186.61 68.72 188.18 68.8 191.03 70.36 191.82 70.9 191.39 71.02 190.3 72.1 189.6 77.8 192.23 78.23 192.23 77.12 189.91 77.12 188.3 79.79 186 80.1 185.3 80.02 182.11 80.12 174.64 77.87 174.64 76.1 173.1 74.43 172.83 74.11 171.24 72.95 169.53 73.58 169 73.68 167.97 72.3 167.58 70.9 166.72 70.96 164.44 72.73 163.94 73.43 163.51 71.24 160.86 72.13 159.11 70.5 156.17 71.7 152.04 73.62 149.54 73.27 148.81 74.81 147.3 75.85 147.3 77.47 146.57 79.67 146.31 79.85 143.99 80.49 143.36 80.73 141.89 78.19 140.87 77.49 139.56 76.5 138.85 75.52 138.95 73.61 140.72 72.49 139.16 70.4 137.81 69.05 137.74 67.25 139.08 66 137.89 63.34 137.66 61.92 139.34"/>
    <polygon class="cls-9" points="55.23 62.78 55.45 62.99 55.23 62.78 55.23 62.78"/>
    <polygon class="cls-9" points="40.87 83.52 44.91 84.1 48.37 83.57 53.9 83.86 57.24 85.54 66.17 85.95 67.38 85.28 66.97 84.91 64.34 84.57 62.97 82.04 63.91 81.07 64.29 77.21 65.18 75.61 64.45 73.55 67.35 73.72 67.03 73.04 64.43 72.37 63.74 69.54 59.1 67.42 57.91 65.52 55.78 63.34 55.03 63.41 52.67 65.71 51.99 67.42 51.91 68.7 50.15 70.78 47.73 72.47 45.15 76.84 42.77 81.06 41.52 82 41.57 82.9 40.87 83.52"/>
    <polygon class="cls-9" points="115.11 176.61 114.33 176.19 114.72 175.77 116.23 176 121.34 175.77 121.34 176.19 121.21 176.81 121.68 177.85 121.54 178.22 121.01 178.44 120.96 179.03 121.05 179.69 124.32 181.64 123.45 183.24 121.46 183.12 119.64 181.16 117.93 181.07 115.2 178.99 115.11 176.61"/>
    <polygon class="cls-2" points="110.37 149.71 110.37 149.19 112.21 148.94 114.55 149.71 114.74 150.92 113.74 152.06 113.87 152.7 113.53 152.8 112.37 152.09 111.19 151.44 110.86 150.01 110.37 149.71"/>
    <g class="cls-7">
      <path class="cls-9" d="M15.65,119.69c-.38-.4-.58-.94-.58-1.49,0-.92.16-1.66-.41-1.97-.33-.18-.69-.3-1.07-.33-.11-.27-.37-.44-.65-.43-.46.03-.2.37-.77.43s-.51.03-.82-.3-.61-.28-.87-.44c-.26-.15.51-.37-.33-.51-.41-.1-.84-.1-1.25,0l-.14.43s-.03,0,.37.56c.4.56.43,1.25.37,1.25-.41-.04-.82-.06-1.22-.05-.49.03-.84.11-.92.29-.11.33-.2.67-.26,1.02.05.34-.12.67-.43.82-.54.37-1,.77-.97.84.42.65.93,1.23,1.51,1.74.56.37,1.61.97,1.61.97.58-.33,1.13-.72,1.64-1.15.37-.4.69-1.79,1.35-1.99.66-.2,1.05-.54,1.49-.25.63.3,1.28.54,1.94.71.14.06.42-.15.42-.15"/>
      <path class="cls-9" d="M14.05,112.05c.43-.05.51.72.51.72.05.24-.11.46-.34.51-.06.01-.11.01-.17,0-.52-.03-1.04-.03-1.56,0,0,0-.15.74-.37.69-.22-.06-.59-.03-.79-.2-.2-.18-.03-.67.18-.94.21-.28.44-.9.9-.95.55.01,1.1.07,1.65.18"/>
    </g>
    <g class="cls-5">
      <path class="cls-9" d="M8.7,111.13c.69.06,1.25-.15,1.56.44.27.49.37,1.06.28,1.61-.1.3-.23.59-.71.37-.46-.26-.98-.39-1.51-.37-.49.07-1-.02-1.43-.26-.27-.15-.56-.25-.87-.28-.26-.07-.14-.71.28-1,.42-.28.87-.65,2.41-.51"/>
      <path class="cls-9" d="M4.01,112.72c.94.23.51.53,1.25.59.74.05.83.16.63.66s-.68.92-1.04,1.53c-.36.61-.62.49-.62,1.44s.23,1.49-.37,1.97c-.6.48-.9.64-1.69.51-.79-.13-1.35.06-1.82.04s-.37-.91-.28-1.17c.09-.26.41-.41,1.1-.66.69-.26,1.2-.64,1.18-1.02s-.2-.54-.15-.89c.08-.27.14-.54.18-.82.1-.74,0-1.38.28-1.64.28-.26.75-.69,1.35-.55"/>
    </g>
    <g class="cls-6">
      <path class="cls-9" d="M4.15,121.81c.53,0,1.05.14,1.51.41.44.26.74.41.64.85-.11.44-.25.69-.64.59s-.81-.28-1.11-.18c-.27.12-.57.19-.87.2-.37,0-.91-.37-.68-.71.24-.34.49-1.19,1.15-1.15"/>
      <path class="cls-9" d="M5.66,135.95c1,.24.97.24.92,1.02-.05.78-.51,1.18-1.17.98-.67-.2-.72-.32-1.18-.98-.46-.65.56-1.22,1.43-1.02"/>
      <path class="cls-9" d="M13.02,137.58c-.12,1.03-.16,1.49.46,1.49s.41,0,1.02-.79c.61-.79,1.12-1.89.51-1.84-.6.05-.12.82-.9.87-.79.05-1.01-.45-1.09.27"/>
      <path class="cls-9" d="M25.95,37.77c.72,0,.51-.67,1.33-.67s1.44-.15,1.74-.87c.3-.71-.26-1.07-1.23-1.07s-.82.81-1.38.86c-.56.05-1.07.2-1.12.82-.07.43.23.84.66.92"/>
      <path class="cls-9" d="M25.64,38.33c.6.07.26.77.26,1.58s-.15,1.18.41,1.18.3.31,0,.56-1.43-.09-1.43.57c0,.65-.56,1.27,0,1.37.32.06.65.06.97,0,0,0,0,.1-.57.56-.57.46-.44.46-.65,1.23-.22.77-.04,1.38,0,2.15.04.77.82,1.75.25,1.75s-.92.47-1.49,0-1.23-.42-1.94-.42-1.12,0-.92-.37,1.02-.66,1.12-1.49c.09-.82.31-1.23.1-1.89-.2-.67-.77-1.21-.41-1.22.46.05.92.05,1.38,0,.61-.11,1.18-.72,1.18-1.18s-.28-.87-.35-1.64-.55-1.33,0-1.58c.55-.26,1.02.05,1.32-.37s-.04-.88.77-.78"/>
      <path class="cls-2" d="M123.1,82.51l-1.12.22s-.26-.42-.79,0c-.53.42-.39.81-1.24.87-.85.07-.72.59-1.38.98,0,0-.59-.33-.59.65s.79,1.57,0,2.75c-.79,1.18-1.38,1.31-1.51,2.23-.13.92.13.78-.33,2.16-.46,1.38-1.18,1.25-1.38,2.29s.52,1.18,0,1.96c-.52.78-.98.26-1.44,1.25-.46.99-.39.59,0,2.49.4,1.9.91,1.77.46,3.08-.46,1.31-.85,1.38-1.38,1.9s-.13.91-.92.85c-.79-.06-2.75-.46-2.75.39s.06.98,1.11,1.64c1.05.65.47.73.53,2.17.05.53.23,1.03.53,1.47l.32.58c.25.44.25.98,0,1.42-.25.41-.59.76-.99,1.02l-.58.37c-.74.44-1.49.8-1.81,1.34-.59.98-.61,1.02-1.01,2.72-.06.26-.09.52-.09.79l.17,1.28c.18.7.4,1.29.3,1.86-.2,1.05-.64,1.06-1.56,2.82-.91,1.77-1.31.79-2.16,3.28-.85,2.49-.33,2.03-1.31,3.6-.98,1.57-.39,1.77-1.7,3.27-1.25,1.44-1.37.8-1.66,1.64.02.45.01.91-.03,1.36l3.19-1.6,2.36-3.84,1.7-1.35.45-1.57,1.19-1.91.85-2.73,1.02-.8,1.81-.53.23-3.24-.42-1.23v-.89l1.11-1.28v-.48l.23-1.21,1.42-2.63.94-.63.37-1.33,1.32-4.21.25-.8.19-.6.94-3.5-.48-.82,1.7-4.54.26-2.15.59-1.98.4-2.75,1.39-2.78-.17-2.23.6-.68.83-2.45Z"/>
      <path class="cls-9" d="M98.78,137.98s.03-.09.05-.13c0-.09-.02-.18-.05-.26v.39Z"/>
      <path class="cls-9" d="M51.79,170.05c1.12,0,.61.61.61,1.12s.05,1.33-.61,1.33-1.69-.2-2.66-.16.1-.77.92-1.07c.82-.31-.11-.82.58-1.02.38-.12.77-.18,1.16-.2"/>
      <path class="cls-2" d="M130.54,89.89v-2.07c0-.2.07-.23.22-.25.22-.02.66-.03.94-.04-.02.34-.03.88-.03,1.63v2.91c0,.63.02.93.03,1.11-.18.05-.76.07-.96.07-.13,0-.19-.03-.19-.17v-2.47c-.18.02-.48.03-1.03.03h-1.38v2.33c0,.19-.07.22-.28.24-.24.03-.68.05-.87.04.02-.36.03-.89.03-1.65v-2.84c0-.61,0-.98-.03-1.15.23-.05.77-.07.96-.07.16,0,.19.08.19.49v1.87h2.4Z"/>
      <path class="cls-2" d="M136,92.3c0,.4-.31.77-.47.84-.14.06-.52.16-.84.16-1.32,0-2.03-.72-2.03-2.04,0-1.09.71-2.13,1.93-2.13,1.14,0,1.59.83,1.59,1.55,0,.13,0,.22-.03.3-.03.14-.39.26-.76.35-.22.05-1.16.06-1.66.04.05.79.62,1.12,1.23,1.12.43,0,.86-.13,1.01-.21l.02.02ZM134.48,89.76c-.33,0-.69.32-.73.99.37.03,1.06.02,1.28,0,.06,0,.12-.09.12-.19,0-.44-.2-.8-.66-.8h0Z"/>
      <path class="cls-2" d="M136.81,89.6c.07-.21.41-.47.66-.47.4,0,.56.38.57.94.26-.61.64-.94,1.12-.94.17,0,.34.08.42.15.05.1.04.36-.06.53-.03.19-.22.41-.35.42-.18-.07-.28-.09-.43-.09-.14,0-.41.11-.55.49-.05.14-.08.24-.08.44v1.88c0,.14-.02.22-.2.25-.31.04-.59.05-.92.05.02-.48.03-1.03.03-1.64v-1.52c0-.21-.05-.37-.21-.46v-.03Z"/>
      <path class="cls-2" d="M143.21,92.3c0,.4-.31.77-.47.84-.14.06-.52.16-.84.16-1.32,0-2.04-.72-2.04-2.04,0-1.09.71-2.13,1.93-2.13,1.14,0,1.59.83,1.59,1.55,0,.13,0,.22-.03.3-.03.14-.39.26-.76.35-.22.05-1.16.06-1.66.04.04.79.62,1.12,1.23,1.12.43,0,.86-.13,1.01-.21l.02.02ZM141.69,89.76c-.33,0-.69.32-.73.99.37.03,1.06.02,1.28,0,.06,0,.12-.09.12-.19,0-.44-.2-.8-.66-.8h0Z"/>
      <path class="cls-2" d="M144.67,92.01c.35,0,.59.29.59.63,0,.4-.25.66-.66.66-.29,0-.61-.2-.61-.63,0-.36.22-.66.68-.66h0ZM145.09,87.73c.14,0,.19.02.19.24,0,.53-.22,2.67-.27,3.05-.03.16-.13.2-.21.22-.22.05-.4.1-.45.1-.05-.38-.27-2.82-.28-3.39.04-.1.72-.23,1.01-.23h0Z"/>
    </g>
    <polygon class="cls-2" points="112.87 150.81 112.4 150.63 133.54 95.47 115.73 106.35 115.47 105.92 134.53 94.28 112.87 150.81"/>
    <g class="cls-8">
      <path class="cls-3" d="M108.94,71.79l-.08-.27c.44-.37.76-.79.96-1.27l.25.11c-.08.19-.18.37-.3.54v1.84h-.28v-1.47c-.16.18-.35.36-.56.52M109.76,69.59v-.35h.27v.35h.45v.26h-.45v.33h-.27v-.33h-.82v-.26h.82ZM110.94,72.67c-.23,0-.35-.12-.35-.37v-2.01h.28v.77l1.27-.08v.26l-1.27.07v.93c0,.11.05.16.15.16h.71c.09,0,.16-.03.2-.08.05-.06.09-.24.1-.55l.26.08c-.03.38-.09.61-.17.7-.07.07-.19.11-.35.11h-.84ZM111.4,69.23v.35h.82v.26h-.82v.33h-.27v-.33h-.46v-.26h.46v-.35h.27Z"/>
      <path class="cls-3" d="M113.58,69.47v-.23h.26v.23h.45v.24h-.45v.25h-.26v-.25h-.82v-.24h.82ZM113.59,70.66v.2c-.09.17-.2.34-.32.5h.43v.18c-.05.23-.12.43-.19.58.02.01.05.03.08.05.11.09.22.15.33.2.11.03.27.05.47.06.19,0,.41,0,.66,0,.27,0,.63,0,1.07-.02l-.06.26h-.98c-.27,0-.5,0-.71-.01-.24,0-.43-.03-.55-.08-.15-.05-.28-.14-.4-.24-.03-.02-.05-.03-.08-.03-.08,0-.2.15-.36.43l-.19-.18c.17-.28.33-.44.48-.48.08-.15.14-.32.18-.5h-.49v-.2c.14-.17.25-.33.34-.49h-.5v-.24h.78ZM113.58,70.34l-.18.17c-.13-.14-.3-.29-.51-.45l.17-.17c.2.15.38.3.51.44M114.78,70.1v-.2h.17v-.19h-.46v-.24h.46v-.22h.26v.22h.82v.24h-.82v.24h-.17v.14h.92v.22h-.92v.2h.77v1.1h-.77v.2h.96v.23h-.96v.26h-.26v-.26h-.96v-.23h.96v-.2h-.77v-1.1h.77v-.2h-.92v-.22h.92ZM114.79,70.73h-.53v.25h.53v-.25ZM114.79,71.17h-.53v.25h.53v-.25ZM115.04,70.98h.54v-.25h-.54v.25ZM115.58,71.17h-.54v.25h.54v-.25Z"/>
      <path class="cls-3" d="M117.05,71.66c-.08.35-.21.66-.36.91l-.2-.13c.16-.25.28-.52.35-.83l.22.05ZM118.02,71.21h.2v.24h-.71v1.21h-.26v-1.21h-.68v-.24h.19v-1.83h1.27v1.83ZM117.77,69.6h-.77v.26h.77v-.26ZM117.77,70.06h-.77v.26h.77v-.26ZM117.77,70.51h-.77v.26h.77v-.26ZM117.77,70.97h-.77v.25h.77v-.25ZM118.12,72.23l-.22.1c-.06-.24-.13-.46-.21-.65l.21-.07c.08.19.15.4.21.62M118.75,71.79c-.12.28-.26.53-.42.74l-.2-.14c.16-.2.29-.43.41-.71l.21.1ZM119.23,69.26c-.28.4-.58.71-.9.92l-.16-.19c.32-.2.58-.47.81-.79l.26.06ZM118.69,72.67l-.06-.24c.08,0,.15.02.22.02s.11-.04.11-.12v-.88c-.19.02-.39.03-.59.04l-.05-.23.09-.02c.18-.1.39-.28.64-.55-.21.02-.43.04-.66.06l-.05-.22.09-.02c.19-.12.46-.43.79-.91l.24.1c-.27.36-.52.64-.73.83.17-.02.34-.03.5-.05.11-.13.21-.26.33-.4l.25.1c-.4.49-.75.85-1.05,1.08.26-.02.51-.05.75-.08-.05-.1-.09-.18-.14-.26l.21-.09c.12.2.23.43.33.68l-.21.11-.09-.22c-.14.01-.27.03-.41.04v.96c0,.19-.09.29-.27.29h-.25ZM119.96,72.38l-.2.14c-.1-.22-.23-.46-.4-.73l.2-.12c.18.27.31.51.4.71"/>
      <path class="cls-3" d="M110.41,74.81v-.92c0-.08.02-.09.08-.1.07-.01.2-.01.28-.01,0,.14-.01.37-.01.69v1.23c0,.26,0,.39.01.47-.07.02-.24.03-.3.03-.04,0-.06-.01-.06-.06v-1.07c-.08,0-.2.01-.53.01h-.69v1.02c0,.07-.02.09-.1.1-.1.01-.17.01-.26.01,0-.15.01-.38.01-.7v-1.2c0-.25,0-.41-.01-.48.07-.02.23-.03.29-.03.05,0,.07.03.07.2v.83h1.22Z"/>
      <path class="cls-3" d="M111.34,74.95c0-.24,0-.35-.02-.43.06-.02.22-.04.29-.04.04,0,.05.02.05.24,0,.25,0,.52,0,.77,0,.39.2.44.37.44s.33-.11.4-.19v-1.11c0-.09.01-.11.06-.13.11-.01.2-.02.28-.02,0,.08-.01.35-.01.68v.6c0,.18.05.22.15.24v.02c0,.08-.1.19-.18.19-.16,0-.25-.11-.27-.27-.12.13-.24.19-.32.22-.08.03-.16.05-.25.05-.39,0-.57-.26-.57-.63v-.63Z"/>
      <path class="cls-3" d="M114.68,75.97c0,.16-.09.24-.25.24s-.25-.11-.27-.24c-.1.11-.28.24-.48.24-.26,0-.45-.2-.45-.44,0-.41.52-.52.73-.57.07-.02.15-.03.2-.04v-.1c0-.17-.1-.34-.33-.34-.13,0-.27.06-.37.13-.11.05-.17-.03-.19-.14.12-.11.37-.26.63-.26.39,0,.57.28.57.64,0,.16-.01.52,0,.75,0,.07.05.12.13.12.02,0,.06,0,.08-.01h0ZM113.55,75.74c0,.14.11.22.24.22.16,0,.27-.09.33-.18.02-.03.03-.07.03-.13v-.27c-.31.04-.6.15-.6.36h0Z"/>
      <path class="cls-3" d="M115.05,74.06c0-.22,0-.34-.02-.42.08-.03.24-.05.29-.05.04,0,.06.02.06.25v1.83c0,.19,0,.39.01.5-.07.02-.25.03-.3.03-.03,0-.05-.01-.05-.05v-2.08Z"/>
      <path class="cls-3" d="M116.12,73.67c.11,0,.18.08.18.19s-.07.2-.19.2c-.1,0-.19-.07-.19-.19,0-.14.11-.2.19-.2h0ZM116.28,76.08c0,.07-.02.09-.08.1-.05.01-.15.02-.26.02,0-.15.01-.37.01-.6v-.64c0-.23,0-.35-.01-.43.07-.02.24-.04.29-.04.04,0,.06.02.06.24v1.36Z"/>
      <path class="cls-3" d="M118.05,75.86c0,.12-.09.24-.16.27-.06.04-.22.08-.38.08-.53,0-.82-.31-.82-.85,0-.47.29-.9.8-.9.44,0,.63.33.63.64,0,.04,0,.09,0,.12-.01.06-.2.11-.33.14-.1.01-.48.02-.76.01,0,.37.24.59.57.59.17,0,.36-.06.43-.1h.01ZM117.45,74.67c-.19,0-.37.17-.4.48.27,0,.6,0,.67,0,.05,0,.08-.03.08-.08,0-.23-.11-.4-.35-.4h0Z"/>
      <path class="cls-3" d="M119.64,75.17c0-.29-.13-.44-.35-.44-.19,0-.34.12-.43.22v1.13c0,.07-.02.09-.08.1-.09.01-.18.01-.27.01,0-.14.01-.36.01-.7v-.64c0-.14-.02-.21-.07-.24v-.02c.03-.06.15-.13.22-.13.12,0,.16.19.16.28.16-.16.37-.28.58-.28.44,0,.56.34.56.7v.52c0,.22,0,.38.02.48-.08.01-.19.03-.29.03-.04,0-.06-.02-.06-.06v-.96Z"/>
      <path class="cls-3" d="M110.91,79.86c-.02.1-.06.19-.12.24-.08.06-.29.12-.55.12-.86,0-1.31-.49-1.31-1.23,0-.77.58-1.26,1.33-1.26.35,0,.63.12.69.19,0,.14-.1.21-.19.18-.11-.06-.3-.11-.51-.11-.51,0-.94.33-.94.98,0,.57.36.99,1.02.99.23,0,.46-.07.57-.12l.02.02Z"/>
      <path class="cls-3" d="M112.03,78.46c.53,0,.82.36.82.86s-.33.89-.84.89c-.56,0-.84-.41-.84-.86,0-.5.35-.89.85-.89h0ZM112,78.69c-.25,0-.47.22-.47.63,0,.45.23.68.51.68.22,0,.46-.19.46-.64,0-.32-.14-.66-.49-.66h0Z"/>
      <path class="cls-3" d="M113.27,78.95c0-.23,0-.35-.01-.43.06-.02.22-.04.29-.04.04,0,.05.02.05.24,0,.25,0,.52,0,.77,0,.39.2.44.37.44s.33-.11.4-.19v-1.11c0-.1.01-.11.06-.13.11-.01.2-.02.28-.02,0,.08-.01.35-.01.68v.6c0,.18.05.22.16.24v.02c0,.08-.1.19-.18.19-.16,0-.25-.11-.27-.27-.12.13-.24.19-.32.22-.08.03-.16.05-.25.05-.39,0-.57-.26-.57-.63v-.63Z"/>
      <path class="cls-3" d="M116.42,79.17c0-.29-.13-.44-.35-.44-.19,0-.34.12-.43.22v1.13c0,.07-.01.09-.08.1-.09.01-.18.01-.27.01,0-.14.01-.36.01-.7v-.64c0-.14-.02-.21-.07-.24v-.02c.03-.06.15-.13.22-.13.12,0,.16.19.16.28.16-.16.37-.28.58-.28.45,0,.56.34.56.7v.52c0,.22,0,.38.02.48-.08.01-.19.03-.29.03-.04,0-.06-.02-.06-.06v-.97Z"/>
      <path class="cls-3" d="M118.23,79.89c.02.08,0,.17-.07.23-.08.06-.22.1-.36.1-.34,0-.47-.21-.47-.5v-.97c-.13,0-.19-.05-.19-.09.04-.07.28-.3.34-.35.05-.05.11-.08.2-.09,0,.12-.02.21-.02.29h.6c-.04.2-.12.22-.19.22-.13,0-.15.01-.42.01-.02.38-.02.78,0,.94.02.22.14.28.27.28.11,0,.22-.04.29-.08h.01Z"/>
      <path class="cls-3" d="M118.59,80.86c.13-.16.35-.47.51-.79-.02-.03-.05-.1-.08-.16-.06-.15-.37-1-.54-1.36.07-.04.21-.09.28-.09.05,0,.06.03.08.07.11.28.34.94.43,1.2.15-.35.35-.96.42-1.27.06,0,.16.02.21.04.06.03.07.05.05.14-.11.41-.26.84-.47,1.28-.22.49-.58,1.05-.65,1.05-.09,0-.2-.06-.24-.1v-.02Z"/>
      <path class="cls-9" d="M122.51,156.62c-.02.34-.06.65-.13.91l-.24-.07c.08-.25.12-.54.15-.87l.22.03ZM123.54,156.3l-.22.09c-.02-.08-.04-.15-.06-.22-.35.1-.69.17-1.01.21l-.07-.24s.08-.04.12-.07c.14-.14.31-.39.52-.73-.2.04-.41.07-.61.1l-.07-.24s.08-.05.11-.1c.19-.3.35-.63.49-1.02l.25.1c-.18.42-.36.76-.54,1.01.17-.02.34-.05.51-.08.08-.14.16-.28.24-.44l.23.09c-.36.65-.65,1.11-.87,1.37.22-.04.43-.08.64-.14-.05-.13-.09-.24-.13-.35l.2-.08c.11.23.2.48.28.75M123.02,157.38l-.24.03c-.01-.36-.03-.64-.06-.83l.21-.03c.04.2.07.48.08.83M123.53,157.03c.24-.13.46-.3.64-.52l.08.19c-.17.23-.38.43-.63.59l-.11-.19-.19.08c-.06-.25-.12-.47-.19-.65l.19-.08c.08.18.14.38.2.58M124.76,155.44l.06-.28h-1.12l.3-1.1.25.03-.07.25h1.03v.11l-.2,1h.52v.24h-.87v1.57c0,.2-.1.3-.29.3h-.35l-.06-.25c.11.01.22.02.32.02.08,0,.12-.05.12-.14v-1.5h-.89v-.24h1.24ZM124.22,156.22l-.13.19c-.17-.13-.35-.23-.52-.3l.13-.19c.19.08.36.19.52.31M124.95,154.56h-.83l-.11.38h.85l.08-.38ZM125.64,157.1l-.14.21c-.23-.27-.46-.48-.7-.63l.12-.17c.26.16.5.36.72.59M125.48,156.03c-.15.17-.32.29-.51.38l-.12-.18c.18-.08.33-.2.46-.35l.18.15Z"/>
      <path class="cls-9" d="M126.63,156.28h2.56c-.02.61-.08.97-.15,1.09-.08.12-.23.18-.45.19h-.23l-.08-.25c.11,0,.21,0,.31,0,.12,0,.2-.05.24-.12.04-.08.07-.32.08-.69h-1.61v.57h.69v-.4h.27v.63h-2.18v-.64h.26v.41h.69v-.57h-.67v-2.1h.86c.06-.11.1-.22.12-.33l.28.04c-.03.1-.07.2-.12.29h1.34v1.14h-2.22v.25h2.72v.22h-2.72v.26ZM128.58,154.61h-1.95v.26h1.95v-.26ZM126.63,155.33h1.95v-.26h-1.95v.26Z"/>
      <path class="cls-9" d="M118.21,160.34c0-.19,0-.33-.02-.44.08-.02.22-.06.3-.06.05,0,.06.02.06.1v.88c-.06.05-.19.12-.27.16-.11.04-.35.09-.52.09-.67,0-1.33-.32-1.33-1.23,0-.78.6-1.26,1.34-1.26.44,0,.71.15.78.22,0,.13-.1.22-.2.18-.18-.1-.4-.14-.6-.14-.55,0-.94.37-.94.97,0,.73.51,1.02,1.01,1.02.12,0,.31-.03.39-.07v-.42Z"/>
      <path class="cls-9" d="M119,159.45c.03-.06.16-.14.22-.14.1,0,.18.13.18.38.12-.25.28-.38.46-.38.08,0,.16.04.19.07,0,.05,0,.14-.05.2-.02.05-.07.08-.11.08-.05-.02-.1-.03-.14-.03-.08,0-.21.08-.29.27-.03.06-.04.12-.04.2v.84c0,.06-.01.08-.07.09-.1.01-.19.02-.28.02,0-.14.01-.36.01-.7v-.63c0-.1-.02-.19-.09-.24v-.02Z"/>
      <path class="cls-9" d="M121.54,160.7c0,.12-.09.24-.16.27-.06.04-.22.08-.38.08-.53,0-.82-.31-.82-.85,0-.47.29-.9.8-.9.44,0,.63.33.63.64,0,.04,0,.09,0,.12-.01.06-.2.11-.33.14-.1.01-.48.02-.76.01,0,.37.24.59.57.59.17,0,.36-.06.43-.1h.01ZM120.94,159.52c-.19,0-.37.17-.4.48.27,0,.6,0,.67,0,.05,0,.08-.03.08-.08,0-.23-.11-.4-.35-.4h0Z"/>
      <path class="cls-9" d="M123.26,160.7c0,.12-.09.24-.16.27-.06.04-.22.08-.38.08-.53,0-.82-.31-.82-.85,0-.47.29-.9.8-.9.44,0,.63.33.63.64,0,.04,0,.09,0,.12-.01.06-.2.11-.33.14-.1.01-.48.02-.76.01,0,.37.24.59.57.59.17,0,.36-.06.43-.1h.01ZM122.65,159.52c-.19,0-.37.17-.4.48.27,0,.6,0,.67,0,.05,0,.08-.03.08-.08,0-.23-.11-.4-.35-.4h0Z"/>
      <path class="cls-9" d="M124.85,160.02c0-.29-.13-.44-.35-.44-.19,0-.34.12-.43.22v1.13c0,.07-.02.09-.08.1-.09.01-.18.01-.27.01,0-.14.01-.36.01-.7v-.64c0-.14-.02-.21-.07-.24v-.02c.03-.06.15-.13.22-.13.12,0,.16.19.16.28.16-.16.37-.28.58-.28.45,0,.56.34.56.7v.52c0,.22,0,.38.02.48-.08.01-.19.03-.29.03-.04,0-.06-.02-.06-.06v-.96Z"/>
      <path class="cls-9" d="M126.67,159.14c0-.26,0-.41-.01-.48.05-.01.23-.03.3-.03.06,0,.06.03.06.2v1.72c0,.27,0,.39.01.47-.06.02-.23.03-.3.03-.05,0-.06-.01-.06-.07v-1.83Z"/>
      <path class="cls-9" d="M128.06,159.31c.15,0,.3.05.4.13,0,.08-.05.19-.15.18-.07-.04-.18-.07-.27-.07-.14,0-.25.08-.25.2,0,.1.07.17.15.21.09.05.24.12.35.18.17.09.25.23.25.39,0,.36-.32.52-.63.52-.17,0-.33-.05-.41-.11-.04-.03-.07-.07-.06-.12,0-.06.03-.12.08-.15.12.08.28.14.43.14.18,0,.28-.09.28-.22,0-.09-.06-.15-.18-.22-.1-.06-.2-.1-.3-.15-.16-.09-.27-.22-.27-.41,0-.31.27-.5.58-.5h0Z"/>
      <path class="cls-9" d="M128.93,158.91c0-.22,0-.34-.01-.42.08-.03.24-.05.29-.05.04,0,.06.02.06.25v1.83c0,.19,0,.39.01.5-.07.02-.25.03-.3.03-.03,0-.05-.01-.05-.05v-2.08Z"/>
      <path class="cls-9" d="M131.14,160.82c0,.16-.09.24-.25.24s-.25-.11-.27-.24c-.1.11-.28.24-.48.24-.26,0-.45-.2-.45-.44,0-.41.52-.52.73-.57.07-.02.15-.03.2-.04v-.1c0-.17-.1-.34-.33-.34-.13,0-.27.06-.37.13-.11.05-.17-.03-.19-.14.12-.11.37-.25.63-.25.39,0,.57.28.57.64,0,.16-.01.52,0,.75,0,.07.05.12.13.12.02,0,.06,0,.08-.01h0ZM130.01,160.58c0,.14.11.22.24.22.16,0,.27-.09.33-.18.02-.03.03-.07.03-.13v-.27c-.31.04-.6.15-.6.36h0Z"/>
      <path class="cls-9" d="M132.64,160.02c0-.29-.13-.44-.35-.44-.19,0-.34.12-.43.22v1.13c0,.07-.02.09-.08.1-.09.01-.18.01-.27.01,0-.14.01-.36.01-.7v-.64c0-.14-.02-.21-.07-.24v-.02c.03-.06.15-.13.22-.13.12,0,.16.19.16.28.16-.16.37-.28.58-.28.45,0,.56.34.56.7v.52c0,.22,0,.38.02.48-.08.01-.19.03-.29.03-.04,0-.06-.02-.06-.06v-.96Z"/>
      <path class="cls-9" d="M134.64,158.86c0-.2,0-.29-.02-.37.07-.03.23-.05.29-.05.04,0,.06.02.06.25v1.93c0,.18.06.21.18.23h0c-.02.1-.1.21-.19.21-.18,0-.26-.1-.28-.22-.15.12-.39.22-.54.22-.41,0-.74-.3-.74-.83s.41-.92.95-.92c.14,0,.25.04.29.05v-.5ZM134.64,159.59s-.16-.06-.3-.06c-.29,0-.59.21-.59.65,0,.36.22.6.53.6.12,0,.26-.05.35-.12v-1.08Z"/>
      <path class="cls-3" d="M84.47,128.89c.33-.11.75-.53,1.24-1.26l.28.1c-.34.49-.69.87-1.03,1.15.73-.03,1.42-.08,2.07-.14-.14-.2-.29-.4-.44-.58l.25-.12c.33.38.63.8.91,1.26l-.27.13c-.09-.16-.19-.31-.28-.45-.8.07-1.69.12-2.68.16l-.05-.26ZM87.33,131.13h-.28v-.19h-1.98v.19h-.28v-1.58h2.54v1.58ZM87.05,129.81h-1.98v.87h1.98v-.87Z"/>
      <path class="cls-3" d="M89.74,127.97v-.35h.27v.35h1.52v.26h-1.52v.35h1.22v1.4h-.95c.28.34.73.59,1.33.78l-.12.25c-.68-.26-1.17-.61-1.45-1.03h-.03v1.17h-.27v-1.17h-.03c-.24.41-.71.76-1.4,1.05l-.15-.24c.65-.24,1.09-.51,1.32-.81h-.97v-1.4h1.23v-.35h-1.52v-.26h1.52ZM89.74,128.81h-.96v.35h.96v-.35ZM88.78,129.73h.96v-.35h-.96v.35ZM90.96,128.81h-.95v.35h.95v-.35ZM90.01,129.73h.95v-.35h-.95v.35Z"/>
      <path class="cls-3" d="M92.53,130.06c-.08.35-.21.66-.36.91l-.21-.13c.16-.25.28-.52.35-.83l.22.05ZM93.5,129.61h.2v.24h-.71v1.21h-.26v-1.21h-.68v-.24h.19v-1.83h1.27v1.83ZM93.25,128h-.77v.26h.77v-.26ZM93.25,128.46h-.77v.26h.77v-.26ZM93.25,128.91h-.77v.26h.77v-.26ZM93.25,129.36h-.77v.25h.77v-.25ZM93.6,130.62l-.22.1c-.06-.24-.13-.46-.21-.65l.21-.07c.08.19.15.4.21.62M94.23,130.19c-.12.28-.26.53-.42.74l-.2-.14c.16-.2.29-.43.41-.71l.21.1ZM94.71,127.65c-.28.4-.58.71-.9.92l-.16-.19c.32-.2.59-.47.81-.79l.26.06ZM94.17,131.07l-.06-.24c.08,0,.15.01.22.01s.11-.04.11-.12v-.88c-.19.02-.39.03-.59.04l-.05-.23.09-.02c.18-.1.39-.28.64-.55-.21.02-.43.04-.66.06l-.05-.22.09-.02c.19-.12.46-.43.79-.91l.24.1c-.27.36-.52.64-.73.83.17-.02.34-.03.5-.05.11-.13.21-.26.33-.4l.25.1c-.4.49-.75.85-1.05,1.08.26-.02.51-.05.75-.08-.05-.09-.09-.18-.14-.26l.21-.09c.12.2.23.43.33.68l-.21.11-.09-.22c-.14.01-.27.03-.41.04v.96c0,.19-.09.29-.27.29h-.25ZM95.44,130.78l-.2.14c-.1-.22-.23-.46-.4-.73l.2-.12c.18.27.31.51.4.71"/>
      <path class="cls-3" d="M78.97,132.44h-.73c-.06,0-.09-.03-.07-.09.04-.09.08-.15.11-.18.05.02.14.02.56.02h1.29c0,.12-.09.23-.14.25h-.69v1.65c0,.26,0,.39.01.46-.09.02-.2.03-.3.03-.04,0-.06-.01-.06-.07v-2.08Z"/>
      <path class="cls-3" d="M81.48,134.37c0,.16-.09.24-.25.24s-.25-.11-.27-.24c-.1.11-.28.24-.48.24-.26,0-.45-.2-.45-.44,0-.41.52-.52.73-.57.07-.02.15-.03.2-.04v-.1c0-.17-.1-.34-.33-.34-.13,0-.27.06-.37.13-.11.05-.17-.03-.19-.14.12-.11.37-.26.63-.26.39,0,.57.28.57.64,0,.16-.01.52,0,.75,0,.07.05.12.13.12.02,0,.06,0,.08-.01h0ZM80.35,134.13c0,.14.11.22.24.22.16,0,.27-.09.33-.18.02-.03.03-.07.03-.13v-.27c-.31.04-.6.15-.6.36h0Z"/>
      <path class="cls-3" d="M82.03,132.07c.11,0,.18.08.18.19s-.07.2-.19.2c-.1,0-.19-.07-.19-.19,0-.14.11-.2.19-.2h0ZM82.2,134.48c0,.07-.02.09-.08.1-.05.01-.15.01-.26.02,0-.15.01-.37.01-.6v-.64c0-.23,0-.35-.02-.43.07-.02.24-.04.29-.04.04,0,.06.02.06.24v1.36Z"/>
      <path class="cls-3" d="M83.68,134.29c.02.08,0,.17-.07.23-.08.06-.22.1-.36.1-.34,0-.47-.21-.47-.5v-.97c-.13,0-.19-.05-.19-.09.04-.07.28-.3.34-.34.05-.05.11-.08.2-.1,0,.12-.02.21-.02.29h.6c-.04.2-.12.22-.19.22-.13,0-.15.01-.42.01-.02.38-.02.78,0,.94.02.22.14.28.27.28.11,0,.22-.04.29-.08h.01Z"/>
      <path class="cls-3" d="M83.99,133.35c0-.24,0-.35-.01-.43.06-.02.22-.04.29-.04.04,0,.05.02.05.24,0,.25,0,.52,0,.77,0,.39.2.44.37.44s.33-.11.4-.19v-1.11c0-.09.01-.11.06-.13.11-.01.2-.02.28-.02,0,.08-.01.35-.01.68v.6c0,.18.05.22.16.24v.02c0,.08-.1.19-.18.19-.16,0-.25-.11-.27-.27-.12.13-.24.19-.32.22-.08.03-.16.05-.25.05-.39,0-.57-.26-.57-.63v-.63Z"/>
      <path class="cls-3" d="M87.14,133.57c0-.29-.13-.44-.35-.44-.19,0-.34.12-.43.22v1.13c0,.07-.02.09-.08.1-.09.01-.17.01-.27.01,0-.14.01-.36.01-.7v-.64c0-.14-.02-.21-.07-.24v-.02c.03-.06.15-.13.22-.13.12,0,.16.19.16.28.16-.16.37-.28.58-.28.45,0,.56.34.56.7v.52c0,.22,0,.38.02.48-.08.01-.19.03-.29.03-.04,0-.06-.02-.06-.06v-.96Z"/>
      <path class="cls-3" d="M88.61,132.86c.09,0,.2.02.29.04.11.03.22.05.32.05s.19-.02.25-.03c0,.02.02.05.02.08,0,.11-.08.17-.21.18-.03,0-.08,0-.11,0,.05.09.06.18.06.27,0,.4-.3.59-.63.59-.08,0-.11,0-.16-.02-.05.04-.11.1-.11.12,0,.06.05.11.22.12.18.01.33.02.47.03.3.03.44.2.44.44,0,.41-.41.67-.88.67s-.72-.24-.72-.5c0-.16.19-.31.36-.4-.12-.05-.23-.15-.23-.3,0-.02,0-.03.03-.04.08-.05.18-.12.23-.19-.19-.08-.31-.26-.31-.49,0-.35.28-.61.66-.61h0ZM88.17,134.84c0,.21.25.32.49.32.29,0,.5-.13.5-.34,0-.12-.06-.22-.27-.25-.11-.02-.25-.02-.34-.02-.08,0-.15.01-.19.04-.1.06-.19.14-.19.25h0ZM88.6,133.06c-.19,0-.33.15-.33.39s.14.38.34.38c.21,0,.32-.18.32-.38s-.1-.38-.33-.38h0Z"/>
      <path class="cls-3" d="M92.55,134.26c-.01.1-.06.19-.12.24-.08.06-.29.12-.55.12-.86,0-1.31-.49-1.31-1.23,0-.77.58-1.26,1.33-1.26.34,0,.63.12.69.19,0,.14-.1.21-.19.18-.11-.06-.3-.11-.51-.11-.51,0-.94.33-.94.98,0,.57.36.99,1.02.99.24,0,.46-.07.57-.12v.02Z"/>
      <path class="cls-3" d="M93.66,132.86c.53,0,.82.36.82.86s-.33.89-.84.89c-.56,0-.84-.41-.84-.86,0-.5.35-.89.85-.89h0ZM93.63,133.09c-.25,0-.47.22-.47.63,0,.45.23.68.51.68.22,0,.46-.19.46-.64,0-.32-.14-.66-.49-.66h0Z"/>
      <path class="cls-3" d="M94.9,133.35c0-.24,0-.35-.01-.43.06-.02.22-.04.29-.04.04,0,.05.02.05.24,0,.25,0,.52,0,.77,0,.39.2.44.37.44s.33-.11.4-.19v-1.11c0-.09.01-.11.06-.13.11-.01.2-.02.28-.02,0,.08-.01.35-.01.68v.6c0,.18.05.22.15.24v.02c0,.08-.1.19-.18.19-.16,0-.25-.11-.27-.27-.12.13-.24.19-.32.22-.08.03-.16.05-.25.05-.39,0-.57-.26-.57-.63v-.63Z"/>
      <path class="cls-3" d="M98.06,133.57c0-.29-.13-.44-.35-.44-.19,0-.34.12-.43.22v1.13c0,.07-.02.09-.08.1-.09.01-.17.01-.27.01,0-.14.01-.36.01-.7v-.64c0-.14-.02-.21-.07-.24v-.02c.03-.06.15-.13.22-.13.12,0,.16.19.16.28.16-.16.37-.28.58-.28.44,0,.56.34.56.7v.52c0,.22,0,.38.02.48-.08.01-.19.03-.29.03-.04,0-.06-.02-.06-.06v-.96Z"/>
      <path class="cls-3" d="M99.87,134.29c.02.08,0,.17-.07.23-.08.06-.22.1-.36.1-.34,0-.47-.21-.47-.5v-.97c-.13,0-.19-.05-.19-.09.04-.07.28-.3.34-.34.05-.05.11-.08.2-.1,0,.12-.02.21-.02.29h.6c-.04.2-.12.22-.19.22-.13,0-.15.01-.42.01-.02.38-.01.78,0,.94.02.22.14.28.27.28.11,0,.22-.04.29-.08h.01Z"/>
      <path class="cls-3" d="M100.23,135.26c.13-.16.35-.47.5-.79-.02-.03-.05-.1-.08-.16-.06-.15-.37-1-.54-1.36.07-.04.21-.09.28-.09.05,0,.06.03.08.07.11.28.34.94.43,1.2.15-.35.35-.96.42-1.27.06,0,.15.01.21.04.06.03.07.05.05.14-.11.41-.26.84-.47,1.28-.23.49-.58,1.05-.65,1.05-.09,0-.2-.06-.24-.1v-.02Z"/>
    </g>
  </g>
</svg>