<?xml version="1.0" encoding="UTF-8"?>
<svg id="_圖層_2" data-name="圖層_2" xmlns="http://www.w3.org/2000/svg" xmlns:xlink="http://www.w3.org/1999/xlink" viewBox="0 0 173.79 195.08">
  <defs>
    <style>
      .cls-1 {
        fill: none;
      }

      .cls-2 {
        fill: #00364a;
      }

      .cls-3 {
        clip-path: url(#clippath-1);
      }

      .cls-4 {
        clip-path: url(#clippath-3);
      }

      .cls-5 {
        clip-path: url(#clippath-4);
      }

      .cls-6 {
        clip-path: url(#clippath-2);
      }

      .cls-7 {
        fill: #7d7d7d;
      }

      .cls-8 {
        fill: #fff;
      }

      .cls-9 {
        fill: #00464f;
      }

      .cls-10 {
        clip-path: url(#clippath);
      }
    </style>
    <clipPath id="clippath">
      <rect class="cls-1" x="0" width="173.79" height="195.08"/>
    </clipPath>
    <clipPath id="clippath-1">
      <rect class="cls-1" x="0" width="173.79" height="195.08"/>
    </clipPath>
    <clipPath id="clippath-2">
      <rect class="cls-1" x="0" width="173.79" height="195.08"/>
    </clipPath>
    <clipPath id="clippath-3">
      <rect class="cls-1" x="0" width="173.79" height="195.08"/>
    </clipPath>
    <clipPath id="clippath-4">
      <rect class="cls-1" x="0" width="173.79" height="195.08"/>
    </clipPath>
  </defs>
  <g id="_圖層_1-2" data-name="圖層_1">
    <polygon class="cls-8" points="128.46 57.05 128.2 58.03 126.45 59.33 123.62 59.12 117.92 56.94 116.95 57.65 116.3 59.59 114.76 60.15 114.15 62.38 111.06 64.35 112.47 65.73 110.04 66.31 109.65 67.13 108.06 67.56 108.18 69.21 110.53 70.13 110.36 72.14 107.57 74.05 107.66 75.63 106.43 77.8 107.41 78.55 107.67 81.86 106.83 82.79 106.63 84.18 105.43 85.65 105.23 87.36 103.68 88.84 103.39 90.28 104.48 91.05 104.34 92.54 105.49 93.09 104.48 96.34 104.68 97.65 103.14 99.94 100.33 100.54 99.87 103.48 98.94 104.87 97.03 104.5 94.88 104.92 93.07 106.57 94.4 108.05 91.42 109.32 91.42 111.08 90.26 111.98 90.18 113.4 92.36 113.89 94.02 115.16 92.94 116.95 94.09 117.16 94.71 120.22 97.98 120.55 98.27 121.62 102.37 122.07 103.36 125.47 107.34 127.36 109.23 126.73 109.8 123.27 110.99 122.17 113.08 118.06 112.33 116.79 115.43 113.58 114.32 111.67 114.32 110.18 117.56 108.28 119.21 108.28 120.24 109.81 120.42 109.21 121.36 105.71 120.88 104.89 122.58 100.35 122.84 98.2 123.43 96.22 123.83 93.47 125.22 90.69 125.05 88.47 125.65 87.79 127.07 83.76 127.21 79.83 127.83 78.07 129.48 77 129.51 76.18 128.63 75.34 127.75 73.62 127.95 72.39 128.52 71.47 130.31 70.17 130.62 68.07 130.19 67.13 131.16 65.48 133.46 64.16 134.02 63.12 134.93 62.92 135.84 61.86 136.13 60.58 136.78 59.91 128.46 57.05"/>
    <polygon class="cls-8" points="118.82 108.85 117.77 108.85 115 110.48 115 111.54 116.22 113.66 113.13 116.86 113.83 118.05 111.57 122.49 110.44 123.53 109.85 127.14 107.29 127.99 102.77 125.85 101.83 122.59 97.71 122.14 97.42 121.07 94.13 120.74 93.49 117.64 92.43 117.45 89.43 117.83 87.75 119.58 85.74 120.13 85.22 123.38 82.92 125.13 82.92 126.78 83.55 127.36 83.4 131.91 80.02 134.58 80.07 137.86 80.69 139.5 82.59 140.71 81.56 142.24 82.11 143.28 84.88 144.39 84.54 146.46 83.92 147.06 83.72 149.67 81.09 149.98 79.42 150.73 78.53 150.73 77.46 151.77 77.79 152.44 75.74 155.12 74.63 158.96 76.28 161.94 75.43 163.64 77.78 166.5 76.45 167.3 75.04 167.7 75 169.28 76.02 169.91 77.82 170.42 77.64 172.1 77.2 172.47 78.17 173.89 78.43 175.18 79.85 175.41 81.56 176.9 83.54 176.9 83.62 171.32 84.99 168.35 86.97 164.05 88.93 158.5 90.38 157.17 90.89 156.49 91 155.19 91.46 153.88 93.17 152.29 97.65 149.92 99.92 148.52 101.23 146.71 102.17 145.39 102.22 144.37 101.82 143.28 101.77 142.73 102.17 142.08 105.4 140.46 107.76 136.62 109.46 135.27 109.92 133.7 111.11 131.79 111.96 129.06 112.98 128.27 114.8 127.73 115.03 124.5 114.6 123.27 114.6 122.37 115.71 121.09 115.71 120.61 115.94 119.4 117.35 116.77 118.29 116.14 118.66 114.81 119.98 110.6 118.82 108.85"/>
    <polygon class="cls-8" points="37.57 103.52 37.5 104.76 40.18 104.32 41.78 104.82 44 104.55 44.44 104.18 43.6 103.21 45.77 101.7 46.6 103.08 49.76 101.11 50.11 100.14 52.72 99.03 54.14 98 55.93 98.55 58.63 97.47 60.6 97.47 61.89 99.45 63.99 100.14 68.03 100.22 70.42 101.4 73.68 101.01 73.23 98.65 71.1 99.39 67.74 97.78 68.37 95.52 68.12 92.69 69.03 91.74 69.31 90.84 68.42 89.32 60.44 88.96 57.1 87.27 51.82 86.99 48.32 87.53 43.74 86.88 41.97 88.69 40.44 91.49 40.18 94.53 39.3 94 38.39 94.92 36.94 98.39 36.97 100.79 37.57 103.52"/>
    <path class="cls-8" d="M63.1,114.58l-1.27,2.07,1.12,2.9-1.23.62,1.26.83h1.76l.93-.96,2.6.29-1.18-3.38,1.4-.91,1.98,1.26,2.92-1.09,1.89-2.45,1.7.09,2.55-1.97,1.46-2.78,1.93-.04,2.23-1.62-.85-.49-2.68.64-2.29-.39.05-2.6-1.77-2.88.47-1.19-1.44-1.01-2.6-.21.42,2.19-4.2.51-2.44-1.2-3.98-.08-2.44-.8-1.22-1.86h-1.41l-2.81,1.13-1.68-.53-1.19.86-2.42,1.03-.33.92-3.99,2.48-.81-1.34-1.02.71.8.93-1.01.86-2.6.31-1.57-.49-2.39.39.69.84-.71.46.06.41.51,1.35-.77.55v1.76l.66.63-.15.37h-.94l-.23,1.35-.17,2.38,1.34-.1,2.34,1.45,1.41.03,2.93-1.98.74-1.45,5.24-2.93h.09l6.29-.29,3.35.83-.41,1.49,3.08,2.12ZM59.75,108.29l-1.57-.47-.8,1.25-1.12-.19-1-1.21-1.96-.05-.89-2.67,2.49-.32.65-.98,2.44.05.82,1.44,1.76.93.74.86-1.56,1.35Z"/>
    <polygon class="cls-8" points="38.22 135.05 39.36 138.12 39.5 138.65 42.78 138.22 44.11 138.93 46.97 138.89 48.43 139.3 51.11 139.38 53.26 138 54.29 137.88 57.39 133.35 60.13 131.83 61.26 129.65 62.65 129.87 64.37 128.33 67.41 123.48 68.19 122.71 68.38 120.94 65.95 120.66 65.05 121.59 62.75 121.59 60.53 120.12 62.12 119.29 61.09 116.59 62.24 114.72 59.24 112.71 59.61 111.4 56.98 110.75 50.89 111.03 45.98 113.77 45.26 115.2 42.01 117.4 40.13 117.36 37.83 115.93 36.47 116.03 35.75 116.94 35.69 118.08 35.1 119.26 36.12 120.95 34.47 121.21 34.19 122.4 33.11 124.01 33.28 125.15 34.28 126.57 32.83 127.4 32.66 130.29 33.79 130.2 32.43 131.11 32.6 131.43 34.05 131.91 35.53 133 38.22 135.05"/>
    <path class="cls-8" d="M108.34,13.42l2.76,2.04,3.21,1.24.48,2.47-1.88,2.37-2.38.35.12,3.72,1.45.89-.22,2.28,4.4.41,1.25,2.06-.99,2.35.21,2.02,2.41,1.16.03,1.53,1.32.04,2.89-1.86,2.09-.74.07-3.11,2.18-2.01,4.02-.81,1.49-1.88,3.52-.34,1.39-2.44,2.39-.38-.21-1.35.74-.81.24-.82,2.55-.15,3.59-1.98,2.2,1.06,2.01-1.67-.99-.48-3.41-.53-.09-1.12-.45-.74-.26-3.69-2.21.26-3.27-.4-1.79.64-.7.44-.83.09-1.3.74.53,1.84-1.42,1.05-1.08-.03-3.35-.97-.3-.93-1.09-.31-.72-2.04-1.01-.72,1.08-1.11h1.98l1.93-1.64.35-1.28-.05-1.04-1.97,1.04-1.93-1.62-.25-1.35-1.16-1.23-1.78-1.06h-4.2l-3.15,2.1-1.31.24-.77,2.03-.91.6-.65,2.41-1.53,1.11-3.15,1.09-1.99.22-.77.06.65.71ZM119.79,10.59l1.69-.27.48-1.36,1.21-.14.54-1.24,2.1,1.11-.2,1.43,1.41.87.24,1.15-.42,1.2.74.2.82,1.35-.37,1.49,1.53,1.66-.7.74-1.74.48-.14,1.59,1.04.85-2.5.99-1.76-.48-.52-1.43-1.17-1.04-.24-.74-.61.82-1.29-.16-.96-1.49,1.59-1.41.14-1.37-1.15-.7-1.3-.3-.24-1.66,1.79-2.15Z"/>
    <polygon class="cls-8" points="147.5 20.33 144.11 22.2 141.88 22.33 141.72 22.86 141.07 23.58 141.32 25.22 138.62 25.67 137.22 28.14 133.63 28.49 132.19 30.33 128.1 31.16 126.24 32.88 126.17 36.15 123.74 37 120.72 38.9 118.94 38.84 117.67 39.47 117.32 41.31 115.32 43.2 115.76 44.41 114.82 44.69 114.89 46.96 114.07 47.26 113.3 48.3 111.14 49.71 109.67 51.6 109.69 52.04 110.68 52.6 110.81 54.12 113.28 55.42 116.35 54.9 118.06 56.36 123.79 58.55 126.22 58.73 127.59 57.71 127.98 56.26 137.24 59.45 137.43 59.25 137.43 57.44 137.91 56.52 138.25 55.27 138.45 53.19 140.02 51.34 140.3 50.8 142.46 49.35 141.46 48.27 141.55 47.35 143.48 46.75 143.39 45.01 143.45 42.16 142.37 41.39 140.58 36.46 140.81 35.66 140.21 34.19 140.24 31.65 140.78 29.12 141.21 27.6 143.37 25.43 143.85 24.82 146.91 21.78 148.99 21.05 147.5 20.33"/>
    <polygon class="cls-8" points="85.89 35.41 85.98 36.69 86.46 36.74 86.71 35.72 88.7 33.43 90.55 32.72 91.76 32.81 92 31.7 90.51 30.58 88.22 30.35 88.14 30.23 86.52 27.89 86.43 28.4 84.87 29.56 84.96 30.9 84.45 32.81 83.36 34.51 85.89 35.41"/>
    <polygon class="cls-8" points="61.89 68.05 63.02 69.85 67.75 72 68.42 74.76 70.94 75.41 71.48 76.55 73.9 76.21 74.89 76.73 77.47 75.96 78.45 73.22 80.17 72.94 80.26 70.99 81.36 69.54 83.35 70.57 83.47 70.91 84.2 70.22 85.36 70.78 87.7 69.33 88.98 70.09 90.17 69.53 90.83 67.62 93.88 67.75 95.96 65.74 99.55 64.72 100.34 63.55 102.22 64.01 104.9 63.7 106.37 62.54 107.37 63.44 110.13 63.44 110.62 63.91 113.54 62.04 114.18 59.74 115.73 59.16 116.35 57.32 117.36 56.58 116.12 55.53 113.15 56.03 110.16 54.45 110.03 52.92 109.03 52.35 109.01 52 107.51 52.71 105.87 52.63 105.33 53.27 105.13 55.32 103.59 55.72 102.64 54.87 93.71 60.6 92.27 60.19 91.07 58.64 87.78 57.98 86.23 58.19 85.58 60.04 84.38 60.77 80.53 60.73 78.1 59.16 76.15 58.95 74.87 57.95 70.14 54.8 67.54 51.35 64.57 54.81 64.18 55.9 62.56 58.41 62.16 60.15 61.17 60.7 60.79 62.59 59.01 65.1 61.89 68.05"/>
    <polygon class="cls-8" points="70.65 54.41 75.31 57.51 76.45 58.4 78.36 58.6 80.76 60.15 84.16 60.19 84.99 59.69 85.7 57.68 87.81 57.39 91.49 58.13 92.71 59.7 93.58 59.96 102.72 54.1 103.8 55.06 104.49 54.88 104.67 53.06 105.37 52.24 105.34 51.09 103.26 48.27 97.93 48.16 96.51 48.89 94.63 48.96 94.04 47.27 94.81 46.47 93.3 45.64 95.19 44.35 94.95 42.31 94.27 41.77 91.59 40.92 91.17 39.89 89.79 39.72 88.71 38.18 88.4 36.91 87.76 37.02 87.02 37.39 87.02 37.39 85.36 37.2 85.25 35.81 82.4 34.81 81.38 36.1 81.21 38.53 81.21 39 80.59 39.02 79.74 39.11 79.76 38.66 77.12 38.8 75.45 39.98 75.42 41.89 72.95 41.96 71.87 43.48 71.67 44.28 70.9 45.59 70.57 46.96 69.77 48.8 69.09 49.6 68.75 50.29 68.03 50.92 70.65 54.41"/>
    <g class="cls-10">
      <path class="cls-8" d="M109.53,65.83l1.73-.41-1.43-1.42h-2.74l-.74-.66-1.14.89-3.03.35-1.51-.37-.65.97-3.66,1.06-2.18,2.1-2.85-.12-.59,1.7-1.8.84-1.23-.73-2.3,1.43-1.07-.51-1.2,1.12-.37-1.13-1.19-.61-.64.85-.11,2.25-1.86.3-.96,2.69-3.22.96-1.04-.55-2.71.39-.02-.04-2.23-.13.52,1.49-.95,1.7-.37,3.94-.8.83,1.04,1.92,2.5.32,1.12,1.02-2.08,1.15-.57-.03.84,1.43-.37,1.23-.83.86.23,2.68-.56,1.9,2.63,1.27,2.6-.91.17.87,2.96.24s.04.01.06.02l1.92,1.35-.51,1.35,1.71,2.79-.05,2.26,1.58.27,2.83-.67,1.42.81,3.45.37,1.84,1.29,2.23-.95-1.18-1.31,2.35-2.13,2.49-.48,1.57.29.62-.91.5-3.22,2.98-.64,1.28-1.9-.19-1.23.92-2.92-1.07-.51.15-1.55-1.12-.79.39-1.93,1.54-1.49.19-1.67,1.21-1.49.19-1.41.8-.88-.22-2.86-1.14-.86,1.38-2.43-.1-1.72,2.82-1.94.12-1.36-2.29-.89-.17-2.45,1.79-.48.39-.83Z"/>
    </g>
    <polygon class="cls-8" points="119.84 14.16 121.4 15.11 121.21 17.01 119.81 18.26 120.37 19.14 120.88 19.2 122.07 17.56 122.68 19.45 123.84 20.46 124.31 21.74 125.48 22.06 126.83 21.52 126.28 21.07 126.47 18.82 128.46 18.28 128.68 18.04 127.3 16.54 127.67 14.98 127.09 14.02 125.98 13.71 126.54 12.1 126.38 11.32 124.87 10.38 125.07 8.99 124.05 8.45 123.66 9.35 122.48 9.49 122.02 10.81 120.19 11.11 118.71 12.9 118.87 13.95 119.84 14.16"/>
    <polygon class="cls-8" points="133.33 9.88 131.29 11.61 129.35 11.61 128.9 12.08 129.55 12.54 130.22 14.45 131.32 14.74 131.63 15.67 134.53 16.51 135.24 16.54 136.15 15.88 135.61 13.99 137.43 12.94 138.26 12.85 138.88 12.48 139.84 12.14 136.98 10.5 135.47 11.69 135.36 10.89 134.76 10.41 133.57 10.12 133.33 9.88"/>
    <polygon class="cls-8" points="58.3 105.56 57.57 104.29 55.95 104.26 55.35 105.17 53.29 105.43 53.84 107.05 55.65 107.09 56.69 108.35 57.03 108.4 57.87 107.1 59.58 107.61 60.43 106.89 60.11 106.52 58.3 105.56"/>
    <polygon class="cls-8" points="94.46 23.22 94.69 25.37 97.42 25.53 98.35 26.64 100.72 26.89 100.09 28.87 103.97 30.86 106.1 30.89 107.72 33.13 109.33 33.16 108.96 34.9 109.73 35.62 109.3 37.06 111.4 37.85 112.55 39.69 112.62 42.03 113.17 42.89 114.78 42.84 116.68 41.05 117.05 39.1 118.52 38.39 118.49 37.08 116.11 35.93 115.86 33.49 116.79 31.26 115.85 29.7 111.15 29.26 111.4 26.74 109.99 25.88 109.84 21.39 112.51 21 114.08 19.02 113.7 17.09 110.74 15.95 107.85 13.81 106.89 12.77 104.75 12.94 98.87 15.36 95.89 16.22 92.48 17.92 91.43 19.53 90.86 21.51 89.23 23.1 94.46 23.22"/>
    <g class="cls-3">
      <path class="cls-8" d="M88.64,29.81l2.16.22,1.95,1.44-.42,1.98-1.65-.13-1.53.59-1.78,2.06-.16.67.32-.16,1.41-.23.4,1.73.85,1.22,1.49.18.45,1.12,2.5.79.97.77.3,2.58-1.44.98,1.35.74-1.02,1.06.34.96,1.18-.04,1.44-.74,5.89.11,2.37,3.22.03,1.14,1.32.07,1.73-.83,1.55-1.99,2.16-1.41.82-1.12.58-.21-.07-2.3.79-.23-.23-.62-1.91.06-.84-1.29-.07-2.35-.97-1.54-2.41-.91.49-1.61-.74-.69.29-1.36-1.18-.02-1.62-2.23-1.93-.03-4.48-2.3.56-1.76-1.91-.19-.93-1.09-2.98-.18-.23-2.13-5.13-.12-.11,1.61-1.27.31-.56,1.49c.62.88,1.3,1.89,1.88,2.73"/>
    </g>
    <polygon class="cls-8" points="54.22 160.85 56.25 157 55.11 155.43 55.82 152.32 56.63 150.23 56.63 145.67 57.95 142.17 62.69 143.06 64.84 141.77 66.42 139.9 69.75 140.18 70.72 141.12 72.21 139.99 74.05 140.09 76.41 141.61 77.13 142.61 78.6 141.25 80.12 141.1 81.08 141.78 81.7 140.86 80.11 139.85 79.39 137.95 79.34 134.33 82.73 131.65 82.86 127.58 82.24 127.01 82.24 124.87 84.58 123.09 85.12 119.69 87.36 119.08 89.07 117.29 92.21 116.89 93.17 115.29 92.03 114.42 89.47 113.84 89.59 111.72 90.74 110.82 90.74 109.28 89.01 108.06 85.82 107.72 83.19 109.63 81.45 109.67 80.1 112.23 77.24 114.45 75.65 114.37 73.87 116.68 70.4 117.98 68.52 116.77 67.89 117.18 69.08 120.59 69.1 120.59 69.09 120.63 69.23 121.03 69.05 121.01 68.85 122.94 67.98 123.81 64.93 128.67 62.88 130.49 61.66 130.3 60.67 132.23 57.9 133.76 54.71 138.42 53.52 138.55 51.33 139.97 48.31 139.88 46.86 139.47 43.92 139.51 42.64 138.82 39.65 139.22 39.84 139.93 40.89 142.97 42.85 147.36 45.01 150.31 44.16 152.46 43.93 153.86 45.58 156.78 50.75 161.88 52.76 161.92 54.03 162.55 54.22 160.85"/>
    <polygon class="cls-8" points="65.33 142.18 62.84 143.68 58.4 142.85 57.31 145.76 57.31 150.32 56.47 152.48 55.83 155.32 57.01 156.95 54.88 160.99 54.68 162.87 56.03 163.52 56.19 164.75 57.05 165.67 64.03 168.78 64.68 169.53 65.22 170.72 66.05 171.29 67.75 172.99 68.26 174.8 68.61 176.08 69.03 176.37 70.19 177.72 70.48 178.78 71.58 182.3 71.79 182.81 71.96 183.92 71.39 186.92 70.73 188.03 70.76 189.45 72.13 191.02 72.21 193.87 73.77 194.67 74.31 194.23 74.43 193.15 75.5 192.45 81.21 195.08 81.64 195.08 80.53 192.76 80.53 191.14 83.2 188.85 83.51 188.15 83.43 184.96 83.53 177.48 81.28 177.48 79.51 175.94 77.84 175.67 77.52 174.09 76.36 172.38 76.98 171.84 77.09 170.82 75.7 170.43 74.31 169.57 74.37 167.28 76.14 166.78 76.84 166.36 74.65 163.71 75.54 161.95 73.91 159.02 75.11 154.88 77.02 152.38 76.68 151.66 78.22 150.15 79.26 150.15 80.88 149.42 83.08 149.16 83.26 146.83 83.9 146.21 84.14 144.73 81.6 143.71 80.9 142.4 79.91 141.7 78.93 141.8 77.01 143.56 75.89 142.01 73.8 140.65 72.45 140.58 70.66 141.93 69.41 140.73 66.75 140.51 65.33 142.18"/>
    <polygon class="cls-8" points="58.64 65.63 58.85 65.84 58.64 65.62 58.64 65.63"/>
    <polygon class="cls-8" points="44.28 86.37 48.31 86.94 51.78 86.41 57.31 86.7 60.65 88.39 69.58 88.79 70.79 88.13 70.38 87.75 67.75 87.42 66.38 84.89 67.32 83.92 67.7 80.05 68.59 78.46 67.85 76.4 70.75 76.56 70.43 75.88 67.84 75.22 67.15 72.39 62.51 70.27 61.32 68.37 59.19 66.19 58.44 66.26 56.08 68.55 55.4 70.27 55.32 71.55 53.55 73.62 51.14 75.31 48.56 79.68 46.17 83.91 44.92 84.85 44.98 85.74 44.28 86.37"/>
    <polygon class="cls-8" points="118.52 179.45 117.73 179.03 118.13 178.61 119.64 178.84 124.75 178.61 124.75 179.03 124.62 179.66 125.09 180.69 124.95 181.07 124.41 181.28 124.37 181.87 124.46 182.54 127.73 184.48 126.86 186.08 124.86 185.97 123.05 184.01 121.34 183.91 118.61 181.83 118.52 179.45"/>
    <polygon class="cls-8" points="113.77 152.56 113.77 152.03 115.62 151.79 117.96 152.56 118.15 153.76 117.15 154.91 117.27 155.55 116.93 155.65 115.78 154.94 114.6 154.29 114.26 152.86 113.77 152.56"/>
    <g class="cls-6">
      <path class="cls-8" d="M19.06,122.54c-.38-.4-.58-.94-.58-1.49,0-.92.16-1.66-.41-1.97-.33-.18-.69-.3-1.07-.33-.11-.26-.36-.44-.65-.43-.46.03-.2.37-.77.44s-.51.03-.82-.31-.61-.28-.87-.44c-.26-.15.51-.37-.33-.51-.41-.1-.84-.1-1.25,0l-.14.43s-.03,0,.37.56c.4.56.43,1.25.37,1.25-.41-.04-.82-.06-1.22-.05-.49.03-.84.11-.92.29-.11.33-.19.67-.26,1.02.05.34-.12.67-.43.82-.54.37-1,.77-.97.84.42.65.93,1.23,1.51,1.74.56.37,1.61.97,1.61.97.58-.33,1.13-.71,1.64-1.15.37-.41.69-1.79,1.35-1.99.66-.2,1.05-.54,1.49-.25.63.3,1.28.54,1.94.71.14.06.42-.15.42-.15"/>
      <path class="cls-8" d="M17.46,114.9c.44-.05.51.72.51.72.05.24-.11.46-.34.51-.06.01-.11.01-.17,0-.52-.03-1.04-.03-1.56,0,0,0-.15.74-.37.69-.22-.06-.59-.03-.79-.2-.2-.18-.03-.67.18-.95s.44-.9.9-.95c.55.01,1.1.07,1.65.18"/>
      <path class="cls-8" d="M12.11,113.98c.69.06,1.25-.15,1.56.44.27.49.37,1.06.28,1.61-.1.3-.23.59-.71.37-.46-.26-.98-.39-1.51-.37-.49.07-1-.02-1.43-.26-.27-.15-.56-.25-.87-.28-.26-.07-.14-.71.27-1,.42-.28.87-.65,2.41-.51"/>
      <path class="cls-8" d="M7.41,115.56c.94.23.51.53,1.25.59.74.05.83.16.63.66s-.68.92-1.04,1.53c-.36.61-.62.49-.62,1.44s.23,1.49-.37,1.97c-.6.48-.9.64-1.69.51-.79-.13-1.35.06-1.81.04s-.37-.91-.28-1.17c.09-.26.41-.41,1.1-.66.69-.26,1.2-.64,1.17-1.02s-.2-.54-.15-.89c.08-.27.14-.54.18-.82.1-.74,0-1.38.28-1.64.28-.26.75-.69,1.35-.55"/>
      <path class="cls-8" d="M7.56,124.66c.53,0,1.05.14,1.51.4.44.26.74.41.64.85-.11.44-.25.69-.64.59s-.81-.28-1.11-.18c-.27.12-.57.19-.87.2-.37,0-.91-.37-.68-.71.24-.34.49-1.19,1.15-1.15"/>
      <path class="cls-8" d="M14.25,108.2c.41,0,.59.72.72,1.38.13.66.05.97-.35,1.35s-1.16.21-1.75.23c-.59.03-.71-.37-.33-.97s.33-1.02.77-1.2c.44-.18.43-.8.94-.8"/>
      <path class="cls-8" d="M3.7,137.11c.2.66-.77.71-.87,1.33-.1.61-.1,1.58-.82,1.33-.71-.26-1.94-1.11-1.99-1.79-.05-.67,0-1.68,1.12-1.53.87.15,1.73.37,2.57.67"/>
      <path class="cls-8" d="M9.07,138.79c1,.24.97.24.92,1.01-.05.78-.51,1.18-1.18.98-.67-.2-.72-.32-1.18-.98-.46-.65.56-1.22,1.43-1.01"/>
      <path class="cls-8" d="M16.43,140.43c-.12,1.03-.16,1.49.46,1.49s.41,0,1.02-.79c.61-.79,1.12-1.89.51-1.84-.6.05-.11.82-.9.87-.79.05-1.01-.45-1.09.27"/>
      <path class="cls-8" d="M29.36,40.62c.72,0,.51-.67,1.33-.67s1.44-.15,1.74-.87c.3-.71-.26-1.07-1.23-1.07s-.82.81-1.38.86c-.56.05-1.07.2-1.12.82-.06.43.23.84.66.92"/>
      <path class="cls-8" d="M29.05,41.18c.6.07.26.77.26,1.58s-.15,1.18.41,1.18.31.31,0,.57-1.43-.09-1.43.57c0,.65-.56,1.27,0,1.37.32.06.65.06.97,0,0,0,0,.1-.56.56s-.44.46-.65,1.23c-.22.77-.04,1.38,0,2.15.04.77.82,1.75.25,1.75s-.92.47-1.49,0-1.23-.42-1.94-.42-1.12,0-.92-.37,1.02-.66,1.12-1.49c.09-.82.31-1.23.1-1.89-.2-.66-.77-1.21-.41-1.22.46.05.92.05,1.38,0,.61-.11,1.18-.72,1.18-1.18s-.28-.87-.35-1.64-.55-1.33,0-1.58c.55-.26,1.02.05,1.32-.37s-.04-.88.77-.78"/>
      <path class="cls-2" d="M150.69,18.57l-3.41-.53-.09-1.12-.45-.74-.26-3.69-2.21.27-1.86-.23-2.72,1.71s-1.07,1.76-.74,2.47-.71,1.98-.71,1.98c0,0-1.12.98-.07,1.67s2.05,1.71,2.23,2.46c.03.13.09.26.15.37.26.68.61,2.06.61,2.06-.32,1.32-.85,2.58-1.55,3.74-1.12,1.92-1.25,4.32-.3,8.59.59,2.85,2.01,5.46,4.09,7.49v-.07l.06-2.85-1.08-.77-1.79-4.93.23-.8-.6-1.49.03-2.54.54-2.54.42-1.52,2.16-2.17.48-.6,3.07-3.04,2.07-.74.69-.34,2.01-1.67-1.01-.45Z"/>
      <path class="cls-8" d="M102.19,140.82s.03-.09.05-.13c0-.09-.02-.18-.05-.26v.39Z"/>
      <path class="cls-8" d="M55.19,172.9c1.12,0,.61.61.61,1.12s.05,1.33-.61,1.33-1.69-.2-2.66-.16.1-.77.92-1.07c.82-.3-.11-.82.58-1.02.38-.12.77-.18,1.16-.2"/>
      <path class="cls-2" d="M159.03,2.36V.29c0-.2.07-.23.22-.25.22-.02.66-.03.94-.04-.02.34-.03.88-.03,1.63v2.91c0,.63.02.93.03,1.11-.18.05-.76.07-.96.07-.13,0-.19-.03-.19-.17v-2.47c-.18.02-.48.03-1.03.03h-1.38v2.33c0,.19-.07.22-.28.24-.24.03-.68.05-.87.04.02-.36.03-.89.03-1.65V1.22c0-.61-.01-.98-.03-1.15.23-.05.77-.07.96-.07.16,0,.19.08.19.49v1.87h2.4Z"/>
      <path class="cls-2" d="M162.97,2.22c-.33,0-.69.32-.73.99.37.03,1.06.02,1.28,0,.06,0,.12-.09.12-.19,0-.44-.2-.8-.66-.8h0ZM164.49,4.77c0,.4-.31.77-.47.84-.14.06-.52.16-.84.16-1.31,0-2.03-.72-2.03-2.04,0-1.09.71-2.13,1.93-2.13,1.14,0,1.59.83,1.59,1.55,0,.13,0,.23-.03.3-.03.13-.39.26-.76.35-.22.05-1.16.06-1.66.05.05.79.62,1.12,1.23,1.12.43,0,.86-.14,1.01-.21l.02.02Z"/>
      <path class="cls-2" d="M165.29,2.06c.07-.21.41-.47.66-.47.4,0,.56.38.57.94.26-.61.64-.94,1.12-.94.17,0,.34.08.42.15.05.1.04.36-.05.53-.04.19-.22.4-.35.42-.18-.07-.28-.09-.43-.09-.14,0-.41.11-.55.49-.05.14-.08.24-.08.44v1.88c0,.14-.02.22-.2.25-.32.04-.6.04-.92.04.02-.48.03-1.03.03-1.64v-1.52c0-.21-.05-.37-.21-.46v-.04Z"/>
      <path class="cls-2" d="M170.18,2.22c-.33,0-.69.32-.73.99.37.03,1.06.02,1.28,0,.06,0,.12-.09.12-.19,0-.44-.2-.8-.66-.8h0ZM171.7,4.77c0,.4-.31.77-.47.84-.14.06-.52.16-.84.16-1.31,0-2.03-.72-2.03-2.04,0-1.09.71-2.13,1.93-2.13,1.14,0,1.59.83,1.59,1.55,0,.13,0,.23-.03.3-.03.13-.39.26-.76.35-.22.05-1.16.06-1.66.05.05.79.62,1.12,1.23,1.12.43,0,.85-.14,1.01-.21l.02.02Z"/>
      <path class="cls-2" d="M173.58.2c.14,0,.19.02.19.24,0,.53-.22,2.67-.27,3.05-.03.16-.13.2-.21.22-.22.05-.4.1-.45.1-.05-.38-.27-2.82-.28-3.38.04-.1.72-.23,1.01-.23h0ZM173.16,4.47c.35,0,.59.29.59.63,0,.4-.25.66-.66.66-.29,0-.61-.2-.61-.63,0-.36.23-.66.68-.66h0Z"/>
      <path class="cls-2" d="M148.24,27.64c.13-1.53,3.17-1.12,3.8-.4.63.72,2.06,2.25,1.35,2.97-.71.72-5.46,1.12-5.15-2.57"/>
    </g>
    <polygon class="cls-9" points="144.22 18.82 143.96 18.39 162.4 7.13 162.66 7.56 144.22 18.82"/>
    <g class="cls-4">
      <path class="cls-7" d="M115.85,21.47c-.32.11-.67.19-1.06.21v.66h1.15v.25h-.38v1.91h-.26v-1.91h-.52v.4c-.01.63-.15,1.13-.41,1.5l-.19-.19c.22-.32.33-.75.35-1.31v-1.52c.44,0,.83-.09,1.18-.24l.13.24ZM114.24,24l-.22.08c-.06-.22-.14-.44-.22-.65l.22-.06c.09.23.17.44.22.63M113.39,21.51c-.05-.11-.1-.21-.16-.3l.27-.04c.05.1.09.22.14.34h.68v.24h-1.62v-.24h.69ZM112.67,22.56v-.23h.42c-.05-.14-.11-.28-.17-.41l.23-.08c.06.14.12.3.18.49h.39c.06-.15.11-.32.16-.49l.23.08c-.05.15-.1.29-.16.41h.41v.23h-.7v.4h.64v.23h-.64v1.31h-.26v-1.31h-.66v-.23h.66v-.4h-.72ZM113.21,23.45c-.09.36-.22.68-.38.95l-.21-.14c.17-.26.28-.55.36-.86l.23.05Z"/>
      <path class="cls-7" d="M118.54,24.36c-.24,0-.36-.11-.36-.34v-2.82h.26v1.03l.99-.06v.24l-.99.07v1.51c0,.09.05.13.16.13h.37c.1,0,.18-.03.23-.08.04-.06.07-.24.09-.56l.24.08c-.02.38-.07.6-.14.68s-.19.12-.37.12h-.47ZM117.55,21.21v2.72c.1-.03.2-.05.29-.08v.25c-.46.13-.95.23-1.49.32l-.06-.24c.34-.04.67-.11,1-.18v-1.54h-.93v-.25h.93v-1h.26Z"/>
      <path class="cls-7" d="M121.38,21.61c-.06-.15-.12-.28-.19-.41l.28-.04c.06.13.12.28.17.45h1.47v.25h-1.46v.47h1.17v1.31c0,.22-.11.33-.33.33h-.36l-.06-.25h.34c.1.01.15-.04.15-.14v-1h-.91v1.91h-.26v-1.91h-.87v1.41h-.26v-1.66h1.12v-.47h-1.46v-.25h1.46Z"/>
      <path class="cls-7" d="M112.7,25.75v-.02s.25-.03.3-.03c.03,0,.06.02.09.06.12.15.47.66.84,1.15.18.26.33.46.43.64-.02-.35-.02-.56-.02-.74v-1c0-.08.02-.1.07-.1.11-.01.15-.01.22-.01,0,.15-.01.36-.01.66v1.6s-.16.05-.23.05c-.03,0-.04-.01-.06-.03-.24-.32-.57-.78-.89-1.23-.13-.19-.25-.38-.39-.61.02.42.02.61.02.79v.93c0,.09-.02.1-.08.11-.06.01-.14.01-.21.01,0-.14.01-.35.01-.65v-1.47l-.09-.12Z"/>
      <path class="cls-7" d="M115.65,26.55c-.18,0-.35.16-.38.45.25,0,.57,0,.64,0,.04,0,.08-.03.08-.08,0-.21-.11-.37-.33-.37h0ZM116.22,27.67c0,.12-.08.23-.15.26-.06.03-.21.08-.36.08-.5,0-.78-.3-.78-.81,0-.45.27-.85.75-.85.42,0,.59.31.6.6,0,.04,0,.08,0,.11-.01.06-.19.11-.31.13-.1.02-.46.02-.72.01,0,.35.23.55.54.55.17,0,.35-.06.41-.1h.01Z"/>
      <path class="cls-7" d="M116.63,26.35s.06.02.07.07c.11.33.22.7.35,1.18.16-.48.24-.71.36-1.06,0-.03-.01-.06-.02-.09.05-.02.17-.06.23-.06.04,0,.06.04.09.15.06.23.18.58.32,1.04.22-.65.35-1.05.4-1.23.07,0,.16.02.22.05.04.02.04.08,0,.2-.16.45-.28.78-.47,1.27-.02.07-.04.1-.1.12-.06.01-.13.02-.19.03-.13-.45-.22-.7-.36-1.14-.07.22-.27.79-.35,1.01-.02.06-.04.09-.08.1-.06.02-.14.03-.2.04-.08-.22-.2-.63-.35-1.04-.1-.28-.16-.43-.2-.53.06-.04.21-.08.28-.08h0Z"/>
      <path class="cls-7" d="M119.45,25.95h-.69c-.06,0-.08-.03-.06-.08.04-.09.08-.14.11-.17.05.02.14.02.53.02h1.22c0,.11-.08.22-.13.24h-.65v1.57c0,.25,0,.37.01.44-.08.02-.19.03-.28.03-.04,0-.06-.01-.06-.06v-1.97Z"/>
      <path class="cls-7" d="M120.63,27.56c0,.13.1.2.23.2.15,0,.25-.09.31-.17.02-.03.03-.06.03-.13v-.25c-.3.04-.56.14-.56.34h0ZM121.7,27.78c0,.15-.08.23-.24.23s-.24-.11-.26-.22c-.09.1-.26.22-.46.22-.25,0-.43-.19-.43-.41,0-.38.49-.49.69-.54.06-.01.14-.03.19-.04v-.09c0-.16-.09-.32-.31-.32-.12,0-.25.06-.35.12-.11.05-.16-.02-.18-.13.11-.11.35-.24.6-.24.37,0,.55.26.55.61,0,.15-.01.49,0,.71,0,.07.05.11.12.11.02,0,.05,0,.07-.01h0Z"/>
      <path class="cls-7" d="M122.25,27.88c0,.07-.02.08-.08.09-.05.01-.14.01-.25.02,0-.14.01-.35.01-.57v-.61c0-.22,0-.33-.01-.41.06-.02.22-.04.28-.04.04,0,.05.02.05.22v1.29ZM122.09,25.6c.1,0,.17.07.17.18s-.07.19-.18.19c-.1,0-.18-.06-.18-.18,0-.13.1-.19.18-.19h0Z"/>
      <path class="cls-7" d="M122.98,27.71c.07.04.18.08.29.08.22,0,.55-.15.55-.63,0-.32-.18-.54-.44-.54-.16,0-.35.11-.41.17v.93ZM122.98,28.63c0,.06-.01.07-.07.09-.09.01-.17.01-.26.01,0-.11.01-.31.01-.63v-1.41c0-.11-.03-.19-.06-.2v-.02c.04-.06.14-.12.21-.12.08,0,.14.1.15.23.22-.16.4-.23.55-.23.33,0,.65.25.65.76,0,.55-.4.9-.85.9-.13,0-.26-.04-.33-.09v.71Z"/>
      <path class="cls-7" d="M125.06,26.55c-.18,0-.35.16-.38.45.25,0,.57,0,.64,0,.04,0,.08-.03.08-.08,0-.21-.11-.37-.33-.37h0ZM125.64,27.67c0,.12-.08.23-.15.26-.06.03-.21.08-.36.08-.5,0-.78-.3-.78-.81,0-.45.27-.85.75-.85.42,0,.59.31.6.6,0,.04,0,.08,0,.11-.01.06-.19.11-.31.13-.1.02-.46.02-.72.01,0,.35.23.55.55.55.16,0,.35-.06.41-.1h.01Z"/>
      <path class="cls-7" d="M126.26,27.88c0,.07-.02.08-.08.09-.05.01-.14.01-.25.02,0-.14.01-.35.01-.57v-.61c0-.22,0-.33-.01-.41.06-.02.22-.04.28-.04.04,0,.05.02.05.22v1.29ZM126.11,25.6c.1,0,.17.07.17.18s-.07.19-.18.19c-.1,0-.18-.06-.18-.18,0-.13.1-.19.18-.19h0Z"/>
      <path class="cls-7" d="M129.17,27.67c-.02.1-.06.18-.11.23-.08.05-.27.12-.52.12-.81,0-1.24-.47-1.24-1.16,0-.73.55-1.2,1.26-1.2.33,0,.6.11.65.18,0,.13-.1.2-.18.17-.11-.05-.29-.11-.49-.11-.48,0-.89.31-.89.93,0,.54.34.94.97.94.22,0,.44-.07.54-.11h.02Z"/>
      <path class="cls-7" d="M129.73,27.88c0,.07-.02.08-.08.09-.05.01-.14.01-.25.02,0-.14.01-.35.01-.57v-.61c0-.22,0-.33-.02-.41.06-.02.22-.04.28-.04.04,0,.05.02.05.22v1.29ZM129.57,25.6c.1,0,.17.07.17.18s-.07.19-.18.19c-.1,0-.18-.06-.18-.18,0-.13.1-.19.18-.19h0Z"/>
      <path class="cls-7" d="M131.01,27.7c.02.07,0,.16-.07.21-.07.06-.21.1-.34.1-.32,0-.45-.2-.45-.47v-.92c-.13,0-.18-.04-.18-.08.04-.07.27-.28.32-.33.05-.04.11-.08.19-.09,0,.11-.02.2-.02.28h.57c-.04.19-.11.2-.18.21-.12,0-.14.01-.39.01-.02.36-.02.73,0,.89.02.21.13.26.26.26.11,0,.21-.04.27-.07h.01Z"/>
      <path class="cls-7" d="M131.23,28.62c.12-.15.33-.45.48-.74-.02-.03-.05-.09-.08-.15-.05-.14-.35-.95-.51-1.29.07-.04.2-.08.26-.08.05,0,.06.03.08.07.1.26.32.89.41,1.14.14-.33.33-.91.4-1.21.06,0,.15.01.2.04.06.03.07.05.04.13-.11.39-.25.79-.44,1.21-.21.47-.55,1-.62,1-.09,0-.2-.05-.23-.09v-.02Z"/>
      <path class="cls-9" d="M151.9,35.47c.04-.07.08-.15.12-.22l.14.06c-.04.1-.09.19-.14.27.07.07.14.13.19.2l-.12.12c-.05-.06-.11-.13-.17-.19-.07.08-.14.14-.22.2l-.13-.12c.09-.06.16-.13.23-.2-.08-.07-.16-.14-.24-.2l.11-.11c.08.07.16.13.23.19M152.28,35.18h-.76v.79h.76v-.79ZM152.22,34.18h-.71v.31h.71v-.31ZM151,36.34c0,.08.03.12.11.12h1.16c.08,0,.13-.02.17-.05.02-.03.04-.1.06-.23h-1.49v.16ZM151,35.97h.28v-.79h-.28v.79ZM151,34.98h.28v-.81h-.28v.81ZM150.76,34.18h-.67v.23h.67v-.23ZM150.06,33.99h1.06c.09-.06.18-.13.27-.21h-1.02c-.1.07-.2.15-.31.21M150.76,34.58h-.91v-.48c-.07.03-.13.06-.2.09l-.16-.2c.4-.16.73-.36.99-.61l.25.05c-.05.05-.1.1-.15.15h1.13v.16c-.09.09-.18.17-.28.24h1.02v.7h-.95v.3h1v1.07l.23.08c-.02.26-.06.41-.12.47-.06.05-.16.08-.31.08h-1.25c-.2,0-.3-.1-.3-.3v-.2h-.29v.32h-.82v-.16h.59v-.16h-.77v-.18h.77v-.17h-.57v-.16h.8v.33h.29v-.81h-.29v.3h-.82v-.15h.59v-.15h-.77v-.17h.77v-.15h-.57v-.15h.8v.3h.29v-.43Z"/>
    </g>
    <polygon class="cls-9" points="156.17 34.02 156.17 36.64 155.91 36.64 155.91 36.4 153.59 36.4 153.59 36.64 153.33 36.64 153.33 34.01 153.59 34.01 153.59 36.15 154.62 36.15 154.62 33.43 154.88 33.43 154.88 36.15 155.91 36.15 155.91 34.02 156.17 34.02"/>
    <g class="cls-5">
      <path class="cls-9" d="M157.38,34.58h1.85v-.24h-1.85v.24ZM159.22,33.91h-1.85v.24h1.85v-.24ZM157.38,35.48h2.43c-.02.58-.07.92-.14,1.03-.08.11-.22.17-.42.18h-.22l-.08-.24c.1,0,.2,0,.29,0,.11,0,.19-.05.23-.12.04-.08.07-.3.08-.65h-1.53v.54h.66v-.38h.25v.6h-2.06v-.61h.25v.39h.66v-.54h-.64v-1.99h.81c.05-.1.09-.2.12-.31l.26.04c-.03.1-.07.19-.11.28h1.27v1.08h-2.1v.23h2.58v.21h-2.58v.25Z"/>
      <path class="cls-9" d="M151.51,39.59c0-.25,0-.38-.02-.49.09-.02.24-.07.33-.07.05,0,.07.03.07.12v.99c-.07.06-.2.14-.3.18-.13.04-.38.1-.59.1-.76,0-1.5-.35-1.5-1.4,0-.88.68-1.43,1.52-1.43.51,0,.8.17.88.25,0,.12-.1.23-.2.2-.22-.12-.47-.17-.7-.17-.62,0-1.08.42-1.08,1.13,0,.84.58,1.17,1.15,1.17.16,0,.36-.03.44-.08v-.49Z"/>
      <path class="cls-9" d="M152.44,38.97c0-.26,0-.39-.02-.49.07-.02.24-.04.32-.04.05,0,.06.02.06.27,0,.28,0,.6,0,.89,0,.46.23.52.42.52.2,0,.38-.13.44-.22v-1.28c0-.11.01-.13.07-.15.12-.01.21-.02.31-.02,0,.09-.01.4-.01.78v.69c0,.21.05.25.17.28v.02c0,.08-.1.2-.19.2-.18,0-.28-.12-.3-.31-.12.13-.27.21-.36.25-.09.03-.18.06-.28.06-.44,0-.63-.29-.63-.71v-.72Z"/>
      <path class="cls-9" d="M155.04,40.25c0,.08-.03.1-.09.11-.06.01-.16.02-.28.02,0-.18.01-.43.01-.68v-.73c0-.26,0-.4-.02-.49.07-.03.25-.04.32-.04.04,0,.06.02.06.27v1.55ZM154.86,37.54c.12,0,.19.09.19.21s-.08.22-.21.22c-.12,0-.21-.07-.21-.21,0-.15.12-.22.22-.22h0Z"/>
      <path class="cls-9" d="M156.15,38.41c.16,0,.33.05.44.15,0,.08-.04.2-.14.19-.09-.05-.21-.08-.31-.08-.17,0-.29.1-.29.25,0,.12.09.2.19.26.11.06.26.12.38.2.19.11.28.26.28.44,0,.41-.36.6-.7.6-.21,0-.39-.06-.48-.14-.04-.03-.06-.08-.05-.12,0-.06.04-.12.09-.15.12.09.3.15.46.15.22,0,.33-.11.33-.26,0-.11-.06-.19-.21-.26-.12-.06-.22-.11-.33-.16-.18-.1-.31-.25-.31-.48,0-.35.31-.56.65-.56h0Z"/>
      <path class="cls-9" d="M157.46,38.7c.17-.15.39-.29.64-.29.48,0,.62.39.62.79v.59c0,.27,0,.44,0,.54-.08.02-.19.03-.32.03-.04,0-.06-.02-.06-.07,0-.18,0-.7,0-1.07,0-.39-.18-.53-.41-.53s-.4.14-.49.23v1.32c0,.07-.02.1-.08.11-.1.02-.2.02-.29.02,0-.16.01-.41.01-.79v-1.62c0-.26,0-.39-.02-.48.11-.03.25-.06.32-.06.04,0,.06.02.06.28v1Z"/>
      <path class="cls-9" d="M159.51,39.86c0,.16.13.26.29.26.18,0,.31-.11.37-.2.02-.03.03-.07.03-.14v-.34c-.35.06-.69.18-.69.42h0ZM160.78,40.14c0,.18-.1.27-.28.27s-.28-.13-.3-.27c-.12.13-.32.27-.55.27-.3,0-.5-.23-.5-.49,0-.46.61-.59.84-.64.08-.02.16-.03.21-.04v-.13c0-.2-.11-.4-.38-.4-.16,0-.32.08-.44.16-.12.05-.17-.05-.18-.16.14-.12.42-.29.71-.29.44,0,.64.31.64.72,0,.19-.01.6,0,.86,0,.09.05.14.15.14.02,0,.06,0,.08,0h0Z"/>
      <path class="cls-9" d="M162.46,39.2c0-.34-.15-.5-.4-.5-.22,0-.39.14-.49.26v1.29c0,.09-.02.1-.09.11-.1.02-.19.01-.29.02,0-.16.01-.41.01-.79v-.73c0-.16-.02-.23-.07-.27v-.02c.03-.07.16-.15.23-.15.13,0,.17.2.19.32.17-.17.4-.32.64-.32.5,0,.63.37.63.78v.6c0,.25,0,.43.02.54-.09.01-.21.03-.32.03-.05,0-.07-.02-.07-.06v-1.11Z"/>
      <path class="cls-9" d="M164.4,38.22c0-.29,0-.47-.01-.55.06-.01.25-.03.32-.03.06,0,.07.03.07.22v1.95c0,.3,0,.44.01.53-.07.02-.25.03-.32.03-.05,0-.07-.01-.07-.08v-2.08Z"/>
      <path class="cls-9" d="M165.94,38.41c.16,0,.33.05.44.15,0,.08-.04.2-.14.19-.09-.05-.21-.08-.31-.08-.17,0-.29.1-.29.25,0,.12.09.2.19.26.11.06.26.12.38.2.19.11.28.26.28.44,0,.41-.36.6-.7.6-.21,0-.39-.06-.48-.14-.04-.03-.06-.08-.05-.12,0-.06.04-.12.09-.15.12.09.3.15.46.15.22,0,.33-.11.33-.26,0-.11-.06-.19-.21-.26-.12-.06-.22-.11-.33-.16-.18-.1-.31-.25-.31-.48,0-.35.31-.56.65-.56h0Z"/>
      <path class="cls-9" d="M166.88,37.96c0-.25,0-.39-.02-.48.09-.04.26-.06.32-.06.05,0,.06.02.06.28v2.08c0,.21,0,.45.02.57-.08.02-.27.03-.32.03-.04,0-.06-.01-.06-.06v-2.37Z"/>
      <path class="cls-9" d="M168.06,39.86c0,.16.13.26.29.26.18,0,.31-.11.37-.2.02-.03.03-.07.03-.14v-.34c-.35.06-.69.18-.69.42h0ZM169.33,40.14c0,.18-.1.27-.28.27s-.28-.13-.3-.27c-.12.13-.32.27-.55.27-.3,0-.5-.23-.5-.49,0-.46.6-.59.84-.64.08-.02.16-.03.22-.04v-.13c0-.2-.12-.4-.38-.4-.16,0-.32.08-.44.16-.12.05-.17-.05-.18-.16.14-.12.42-.29.71-.29.44,0,.64.31.64.72,0,.19-.01.6,0,.86,0,.09.05.14.15.14.02,0,.06,0,.08,0h0Z"/>
      <path class="cls-9" d="M171,39.2c0-.34-.15-.5-.4-.5-.22,0-.39.14-.49.26v1.29c0,.09-.02.1-.09.11-.1.02-.19.01-.29.02,0-.16.01-.41.01-.79v-.73c0-.16-.02-.23-.07-.27v-.02c.03-.07.16-.15.23-.15.13,0,.17.2.19.32.17-.17.4-.32.64-.32.5,0,.63.37.63.78v.6c0,.25,0,.43.02.54-.09.01-.21.03-.32.03-.05,0-.07-.02-.07-.06v-1.11Z"/>
      <path class="cls-9" d="M173.24,38.72c-.06-.04-.19-.07-.34-.07-.32,0-.68.22-.68.77,0,.43.27.69.61.69.14,0,.31-.06.41-.14v-1.24ZM173.24,37.9c0-.23,0-.33-.02-.42.08-.03.25-.06.31-.06.05,0,.06.02.06.28v2.21c0,.2.06.25.19.27h0c-.02.11-.11.22-.2.22-.2,0-.29-.12-.31-.25-.17.14-.43.25-.61.25-.46,0-.84-.33-.84-.94s.46-1.05,1.07-1.05c.17,0,.28.04.33.06v-.57Z"/>
      <path class="cls-7" d="M126.36,43.55h-1.34v.43h1.34v-.43ZM126.36,42.89h-1.34v.42h1.34v-.42ZM126.36,42.23h-1.34v.43h1.34v-.43ZM127.11,42.1h-.25v-.49h-2.37v.49h-.25v-.73h1.31c-.04-.12-.09-.23-.15-.32l.27-.04c.05.11.1.23.14.37h1.3v.73ZM126.62,43.98h.66v.24h-3.18v-.24h.65v-1.99h1.86v1.99Z"/>
      <path class="cls-7" d="M129.67,42.38h.81v-.19h-.81v.19ZM130.48,41.83h-.81v.19h.81v-.19ZM129.74,43.28c-.04.1-.08.18-.13.26l-.1-.04c.05-.06.09-.15.13-.25l.11.03ZM130.07,41v.22h.78v.21h-.78v.21h.65v2.41c0,.16-.08.24-.25.24-.09,0-.19,0-.28-.01l-.06-.21c.09,0,.17.01.25.01.06,0,.09-.04.09-.1v-1.42h-1.05v-.91h.39v-.21h-.45v-.21h.45v-.22h.25ZM129.9,43.18h-.53v.41h.53v-.41ZM129.09,43.51l-.1.03c-.04-.09-.08-.17-.12-.25l.1-.04c.05.07.09.16.12.26M129.21,43.18h-.5v.41h.5v-.41ZM129.19,42.72v-.17h.22v.17h.82v.17h-.82v.15h.7v.71h-.7v.03c.22.08.44.19.68.3l-.11.16c-.22-.14-.41-.25-.56-.32v.36h-.21v-.44c-.17.17-.42.31-.74.43l-.1-.17c.33-.09.58-.21.74-.35h-.58v-.71h.68v-.15h-.82v-.17h.82ZM128.09,42.39h.82v-.2h-.82v.2ZM128.91,41.82h-.82v.2h.82v-.2ZM128.51,41.22v-.22h.24v.22h.44v.21h-.44v.21h.38v.91h-1.05v1.76h-.24v-2.67h.67v-.21h-.78v-.21h.78Z"/>
      <path class="cls-7" d="M134.56,43.98l-.19.13c-.09-.21-.22-.44-.37-.69l.19-.12c.17.26.29.48.38.68M133.36,44.26l-.05-.23c.07,0,.14.01.21.01s.1-.04.1-.11v-.83c-.18.02-.37.03-.56.04l-.05-.21.09-.02c.17-.09.37-.27.6-.52-.2.02-.41.04-.62.05l-.05-.2.09-.02c.18-.12.43-.4.75-.86l.23.09c-.26.35-.49.61-.69.79.16-.01.32-.03.47-.05.1-.12.2-.24.31-.38l.23.09c-.38.46-.71.8-.99,1.03.24-.02.48-.05.71-.08-.04-.09-.09-.17-.13-.25l.2-.09c.12.19.22.41.31.64l-.2.1-.08-.2c-.13.02-.26.03-.39.04v.91c0,.18-.09.27-.25.27h-.24ZM133.87,41.02c-.27.38-.55.67-.86.87l-.15-.18c.3-.19.55-.44.76-.74l.25.06ZM133.42,43.43c-.12.27-.24.5-.4.7l-.19-.13c.15-.19.28-.41.39-.67l.2.1ZM132.82,43.84l-.21.09c-.06-.23-.12-.44-.2-.62l.2-.07c.08.18.14.38.2.59M132.49,42.64h-.73v.23h.73v-.23ZM132.49,42.21h-.73v.24h.73v-.24ZM132.49,41.78h-.73v.24h.73v-.24ZM132.49,41.35h-.73v.24h.73v-.24ZM132.73,42.88h.19v.23h-.67v1.15h-.25v-1.15h-.65v-.23h.18v-1.73h1.2v1.73ZM131.81,43.3c-.08.33-.19.62-.35.87l-.19-.13c.15-.24.26-.5.33-.78l.21.04Z"/>
      <path class="cls-7" d="M120.77,46.85c0-.07,0-.12-.03-.16-.18-.3-.55-.83-.76-1.11v-.02c.09-.03.21-.05.28-.05.05,0,.09.05.18.18.13.2.35.53.53.81.14-.2.58-.86.65-.99.1,0,.17.01.21.03.05.02.05.06,0,.14-.09.14-.65.93-.7.99-.03.04-.04.1-.04.14v.52c0,.24,0,.36.01.43-.06.02-.16.03-.29.03-.04,0-.05-.01-.05-.06v-.89Z"/>
      <path class="cls-7" d="M122.53,47.7c0,.07-.02.08-.08.09-.05.01-.14.01-.25.02,0-.14.01-.35.01-.57v-.61c0-.22,0-.33-.01-.41.06-.02.22-.04.28-.04.04,0,.05.02.05.22v1.28ZM122.38,45.41c.1,0,.17.07.17.18s-.07.19-.18.19c-.1,0-.18-.06-.18-.18,0-.13.11-.19.18-.19h0Z"/>
      <path class="cls-7" d="M123.06,45.79c0-.21,0-.32-.02-.4.08-.03.22-.05.28-.05.04,0,.05.02.05.23v1.73c0,.18,0,.37,0,.47-.06.02-.24.03-.28.03-.03,0-.05-.01-.05-.05v-1.97Z"/>
      <path class="cls-7" d="M124.08,47.37c0,.13.1.2.23.2.15,0,.26-.09.31-.17.02-.03.02-.06.02-.13v-.25c-.3.04-.56.14-.56.34h0ZM125.15,47.59c0,.15-.08.23-.24.23s-.23-.11-.26-.22c-.09.1-.26.22-.46.22-.25,0-.42-.19-.42-.41,0-.38.49-.49.69-.54.06-.01.14-.03.19-.04v-.09c0-.16-.09-.32-.31-.32-.12,0-.25.06-.35.12-.11.05-.16-.02-.18-.13.11-.1.35-.24.6-.24.37,0,.54.26.54.61,0,.15-.01.49,0,.71,0,.07.05.11.12.11.02,0,.06,0,.08-.01h0Z"/>
      <path class="cls-7" d="M126.57,46.83c0-.27-.12-.41-.34-.41-.18,0-.32.11-.41.21v1.07c0,.07-.01.08-.07.09-.08.02-.16.01-.25.02,0-.13.01-.35.01-.66v-.61c0-.13-.02-.19-.06-.23h0c.03-.07.14-.14.21-.14.11,0,.15.18.15.27.15-.15.35-.27.55-.27.42,0,.53.32.53.66v.49c0,.21,0,.36.01.45-.07.01-.18.03-.28.03-.04,0-.06-.02-.06-.05v-.91Z"/>
      <path class="cls-7" d="M130.03,47.49c-.01.1-.05.18-.11.23-.08.05-.27.12-.52.12-.81,0-1.24-.47-1.24-1.16,0-.73.55-1.2,1.26-1.2.33,0,.6.11.65.18,0,.13-.1.2-.18.17-.11-.05-.28-.11-.49-.11-.48,0-.89.31-.89.93,0,.54.34.94.97.94.22,0,.44-.07.54-.11h.01Z"/>
      <path class="cls-7" d="M131.06,46.38c-.23,0-.45.21-.45.59,0,.43.22.64.49.64.21,0,.43-.18.43-.61,0-.31-.13-.63-.47-.63h0ZM131.08,46.17c.5,0,.78.35.78.81s-.31.85-.8.85c-.53,0-.79-.39-.79-.81,0-.48.33-.85.81-.85h0Z"/>
      <path class="cls-7" d="M132.26,46.63c0-.22,0-.33-.02-.41.06-.02.21-.04.28-.04.04,0,.05.02.05.22,0,.24,0,.49,0,.73,0,.37.19.42.35.42s.31-.11.37-.18v-1.05c0-.09.01-.1.06-.12.1-.01.19-.02.27-.02,0,.08-.01.33-.01.65v.57c0,.17.05.21.15.23v.02c0,.07-.09.18-.17.18-.15,0-.24-.1-.26-.26-.11.12-.23.18-.3.21-.07.03-.15.05-.23.05-.37,0-.54-.24-.54-.6v-.6Z"/>
      <path class="cls-7" d="M135.25,46.83c0-.27-.12-.41-.34-.41-.18,0-.32.11-.41.21v1.07c0,.07-.01.08-.08.09-.08.02-.17.01-.25.02,0-.13.01-.35.01-.66v-.61c0-.13-.02-.19-.07-.23h0c.03-.07.15-.14.21-.14.12,0,.15.18.15.27.15-.15.35-.27.55-.27.42,0,.53.32.53.66v.49c0,.21,0,.36.01.45-.08.01-.18.03-.28.03-.04,0-.06-.02-.06-.05v-.91Z"/>
      <path class="cls-7" d="M136.96,47.52c.01.07,0,.16-.07.21-.07.06-.21.1-.34.1-.32,0-.45-.2-.45-.48v-.91c-.13,0-.18-.04-.18-.08.04-.07.27-.28.32-.33.05-.04.11-.08.19-.09,0,.11-.02.2-.02.28h.57c-.03.19-.12.2-.18.21-.12,0-.14.01-.4.01-.02.36-.01.73,0,.89.02.21.13.26.26.26.11,0,.21-.04.27-.08h.01Z"/>
      <path class="cls-7" d="M137.29,48.44c.12-.15.33-.45.48-.75-.02-.03-.05-.09-.07-.15-.05-.14-.35-.95-.51-1.29.07-.04.2-.08.26-.08.05,0,.06.02.08.07.11.26.32.89.41,1.14.14-.33.34-.91.4-1.21.05,0,.15.01.2.04.06.03.07.05.04.13-.11.38-.25.79-.44,1.21-.21.47-.55,1-.62,1-.09,0-.19-.05-.23-.09h0Z"/>
    </g>
  </g>
</svg>