<?xml version="1.0" encoding="UTF-8"?>
<svg id="_圖層_2" data-name="圖層_2" xmlns="http://www.w3.org/2000/svg" xmlns:xlink="http://www.w3.org/1999/xlink" viewBox="0 0 160.68 192.23">
  <defs>
    <style>
      .cls-1 {
        fill: none;
      }

      .cls-2 {
        fill: #7c7c7d;
      }

      .cls-3 {
        clip-path: url(#clippath-1);
      }

      .cls-4 {
        clip-path: url(#clippath-3);
      }

      .cls-5 {
        clip-path: url(#clippath-2);
      }

      .cls-6 {
        fill: #231815;
      }

      .cls-7 {
        fill: #fff;
      }

      .cls-8 {
        fill: #343535;
      }

      .cls-9 {
        clip-path: url(#clippath);
      }
    </style>
    <clipPath id="clippath">
      <rect class="cls-1" x="0" y="0" width="160.68" height="192.23"/>
    </clipPath>
    <clipPath id="clippath-1">
      <rect class="cls-1" x="0" y="0" width="160.68" height="192.23"/>
    </clipPath>
    <clipPath id="clippath-2">
      <rect class="cls-1" x="0" y="0" width="160.68" height="192.23"/>
    </clipPath>
    <clipPath id="clippath-3">
      <rect class="cls-1" x="0" y="0" width="160.68" height="192.23"/>
    </clipPath>
  </defs>
  <g id="_圖層_1-2" data-name="圖層_1">
    <g>
      <polygon class="cls-7" points="137.47 54.21 137.2 55.18 135.45 56.48 132.62 56.27 126.92 54.09 125.95 54.8 125.31 56.74 123.77 57.31 123.15 59.53 120.07 61.51 121.48 62.89 119.04 63.47 118.66 64.28 117.06 64.71 117.18 66.36 119.53 67.28 119.36 69.29 116.57 71.21 116.67 72.78 115.44 74.95 116.41 75.71 116.67 79.01 115.83 79.94 115.64 81.33 114.43 82.81 114.23 84.51 112.68 86 112.39 87.44 113.49 88.21 113.35 89.69 114.49 90.25 113.48 93.49 113.68 94.8 112.15 97.09 109.33 97.69 108.87 100.64 107.94 102.02 106.03 101.66 103.89 102.08 102.08 103.72 103.41 105.2 100.43 106.47 100.43 108.23 99.26 109.14 99.18 110.55 101.37 111.05 103.02 112.31 101.94 114.1 103.09 114.31 103.71 117.38 106.99 117.7 107.28 118.77 111.38 119.22 112.37 122.62 116.35 124.51 118.24 123.88 118.8 120.43 120 119.32 122.09 115.22 121.33 113.94 124.43 110.73 123.33 108.83 123.33 107.33 126.56 105.43 128.21 105.43 129.24 106.96 129.43 106.37 130.36 102.87 129.88 102.05 131.58 97.5 131.84 95.35 132.44 93.38 132.83 90.62 134.22 87.85 134.05 85.63 134.65 84.95 136.07 80.92 136.21 76.98 136.84 75.22 138.48 74.16 138.51 73.33 137.63 72.49 136.75 70.78 136.95 69.54 137.52 68.63 139.31 67.32 139.62 65.22 139.19 64.28 140.16 62.64 142.46 61.31 143.03 60.27 143.94 60.08 144.84 59.02 145.13 57.74 145.78 57.07 137.47 54.21"/>
      <polygon class="cls-7" points="127.82 106.01 126.77 106.01 124.01 107.64 124.01 108.69 125.23 110.81 122.14 114.02 122.84 115.2 120.58 119.64 119.45 120.68 118.86 124.29 116.3 125.15 111.78 123.01 110.83 119.74 106.72 119.29 106.43 118.23 103.13 117.9 102.5 114.79 101.43 114.6 98.43 114.99 96.76 116.74 94.74 117.28 94.22 120.53 91.92 122.29 91.92 123.93 92.55 124.51 92.4 129.07 89.02 131.73 89.07 135.01 89.7 136.65 91.59 137.86 90.56 139.39 91.12 140.43 93.89 141.55 93.55 143.61 92.93 144.22 92.72 146.82 90.09 147.13 88.43 147.88 87.53 147.88 86.47 148.93 86.79 149.6 84.75 152.27 83.63 156.11 85.28 159.1 84.43 160.79 86.79 163.65 85.46 164.46 84.04 164.86 84 166.43 85.02 167.06 86.82 167.57 86.64 169.26 86.21 169.63 87.17 171.04 87.43 172.33 88.85 172.56 90.57 174.06 92.55 174.06 92.63 168.47 93.99 165.5 95.98 161.21 97.94 155.65 99.39 154.32 99.9 153.65 100.01 152.34 100.47 151.04 102.17 149.45 106.66 147.08 108.93 145.68 110.23 143.87 111.17 142.54 111.23 141.52 110.83 140.44 110.77 139.88 111.17 139.23 114.41 137.61 116.76 133.77 118.47 132.42 118.92 130.85 120.11 128.95 120.97 126.22 121.99 125.42 123.8 124.89 124.03 121.65 123.61 120.42 123.61 119.53 124.72 118.25 124.72 117.77 124.94 116.56 126.36 113.92 127.3 113.3 127.66 111.97 128.99 107.76 127.82 106.01"/>
      <polygon class="cls-7" points="46.57 100.67 46.5 101.91 49.18 101.47 50.79 101.97 53.01 101.71 53.44 101.34 52.6 100.37 54.77 98.86 55.6 100.23 58.77 98.27 59.12 97.3 61.72 96.19 63.14 95.16 64.94 95.71 67.63 94.62 69.6 94.62 70.9 96.61 73 97.29 77.04 97.38 79.42 98.56 82.69 98.16 82.23 95.81 80.1 96.55 76.75 94.93 77.37 92.67 77.12 89.84 78.03 88.9 78.32 87.99 77.42 86.47 69.45 86.11 66.11 84.43 60.82 84.15 57.32 84.68 52.75 84.03 50.98 85.84 49.44 88.65 49.19 91.69 48.31 91.16 47.4 92.07 45.95 95.55 45.98 97.94 46.57 100.67"/>
      <path class="cls-7" d="M68.76,105.45l-1.57-.47-.8,1.25-1.12-.19-1-1.21-1.96-.05-.89-2.67,2.49-.32.65-.98,2.44.05.82,1.44,1.76.93.74.86-1.56,1.35ZM72.1,111.74l-1.27,2.07,1.12,2.9-1.23.62,1.26.83h1.76l.93-.96,2.6.29-1.18-3.38,1.41-.91,1.98,1.26,2.92-1.09,1.89-2.45,1.7.09,2.55-1.98,1.46-2.78,1.93-.04,2.23-1.62-.85-.49-2.68.64-2.29-.39.05-2.6-1.77-2.88.47-1.19-1.44-1.01-2.6-.21.42,2.19-4.2.51-2.44-1.2-3.98-.08-2.44-.8-1.22-1.86h-1.41l-2.81,1.13-1.68-.53-1.19.86-2.42,1.03-.33.92-3.99,2.48-.81-1.34-1.02.71.8.93-1.02.86-2.6.31-1.57-.49-2.39.39.69.84-.71.46.06.41.51,1.35-.77.55v1.76l.65.63-.14.37h-.94l-.23,1.35-.17,2.38,1.34-.1,2.34,1.45,1.41.03,2.93-1.98.74-1.45,5.24-2.93h.09l6.29-.29,3.35.83-.41,1.49,3.08,2.12Z"/>
      <polygon class="cls-7" points="47.23 132.2 48.36 135.27 48.51 135.81 51.79 135.38 53.11 136.08 55.97 136.05 57.43 136.46 60.11 136.54 62.26 135.15 63.3 135.04 66.4 130.5 69.13 128.99 70.26 126.8 71.65 127.02 73.38 125.48 76.42 120.64 77.19 119.86 77.38 118.09 74.96 117.82 74.06 118.75 71.75 118.75 69.53 117.28 71.12 116.44 70.1 113.75 71.24 111.88 68.25 109.86 68.61 108.55 65.98 107.9 59.89 108.18 54.98 110.93 54.26 112.35 51.01 114.56 49.14 114.51 46.83 113.08 45.47 113.18 44.76 114.1 44.7 115.23 44.1 116.41 45.13 118.1 43.48 118.37 43.2 119.55 42.12 121.17 42.28 122.3 43.28 123.73 41.83 124.55 41.66 127.45 42.8 127.35 41.43 128.27 41.6 128.58 43.05 129.06 44.53 130.15 47.23 132.2"/>
      <path class="cls-7" d="M128.94,16.82l-.96-1.49,1.59-1.41.14-1.37-1.15-.69-1.3-.3-.25-1.66,1.79-2.15,1.69-.27.48-1.36,1.21-.14.54-1.24,2.1,1.12-.2,1.43,1.41.87.24,1.15-.42,1.2.74.2.82,1.35-.37,1.49,1.53,1.66-.7.74-1.73.48-.14,1.59,1.04.85-2.5.99-1.76-.48-.52-1.43-1.17-1.04-.24-.74-.61.83-1.29-.16ZM130.93,0l-3.15,2.1-1.31.24-.77,2.03-.91.6-.65,2.41-1.54,1.12-3.15,1.09-1.99.22-.77.06.65.71,2.77,2.04,3.21,1.24.48,2.47-1.88,2.37-2.38.34.12,3.72,1.45.89-.22,2.28,4.4.41,1.24,2.06-.99,2.35.21,2.02,2.41,1.16.03,1.53,1.32.04,2.89-1.86,2.09-.74.07-3.11,2.18-2.01,4.02-.81,1.49-1.88,3.53-.34,1.39-2.44,2.39-.38-.21-1.35.74-.81.24-.82,2.55-.15,3.59-1.98,2.2,1.06,2.01-1.67-.99-.48-3.41-.53-.09-1.12-.45-.74-.26-3.69-2.21.26-3.26-.4-1.79.64-.7.43-.83.09-1.3.75.52,1.84-1.42,1.05-1.08-.03-3.35-.97-.3-.93-1.09-.31-.72-2.04-1.01-.72,1.08-1.11h1.98l1.93-1.64.35-1.28-.06-1.04-1.97,1.04-1.93-1.62-.25-1.35-1.16-1.23-1.78-1.06h-4.2Z"/>
      <polygon class="cls-7" points="156.5 17.49 153.11 19.35 150.88 19.48 150.73 20.02 150.07 20.73 150.33 22.38 147.62 22.83 146.22 25.3 142.64 25.64 141.19 27.49 137.11 28.31 135.24 30.03 135.17 33.3 132.75 34.15 129.73 36.05 127.95 36 126.68 36.62 126.32 38.46 124.32 40.35 124.76 41.57 123.82 41.84 123.89 44.11 123.08 44.41 122.31 45.45 120.14 46.86 118.67 48.75 118.69 49.19 119.69 49.75 119.82 51.27 122.28 52.57 125.35 52.06 127.06 53.51 132.8 55.7 135.22 55.88 136.59 54.87 136.99 53.42 146.24 56.6 146.43 56.41 146.43 54.6 146.92 53.68 147.26 52.42 147.46 50.35 149.02 48.49 149.3 47.96 151.46 46.51 150.47 45.42 150.55 44.5 152.48 43.9 152.4 42.16 152.45 39.31 151.37 38.54 149.59 33.61 149.81 32.82 149.22 31.34 149.25 28.81 149.79 26.27 150.21 24.75 152.37 22.58 152.85 21.98 155.92 18.93 157.99 18.21 156.5 17.49"/>
      <polygon class="cls-7" points="94.89 32.57 94.99 33.84 95.47 33.9 95.71 32.87 97.7 30.59 99.56 29.88 100.76 29.97 101.01 28.85 99.52 27.74 97.23 27.51 97.14 27.38 95.52 25.04 95.43 25.55 93.87 26.71 93.96 28.06 93.45 29.97 92.37 31.67 94.89 32.57"/>
      <polygon class="cls-7" points="70.89 65.2 72.02 67 76.76 69.16 77.43 71.92 79.95 72.56 80.49 73.71 82.91 73.36 83.89 73.88 86.48 73.11 87.45 70.37 89.18 70.09 89.26 68.15 90.37 66.7 92.36 67.72 92.47 68.07 93.2 67.38 94.36 67.94 96.7 66.49 97.98 67.24 99.17 66.69 99.84 64.78 102.89 64.9 104.97 62.89 108.56 61.88 109.35 60.71 111.23 61.17 113.9 60.86 115.37 59.7 116.37 60.6 119.14 60.6 119.62 61.07 122.55 59.19 123.18 56.9 124.74 56.32 125.35 54.47 126.37 53.74 125.12 52.69 122.15 53.18 119.17 51.61 119.03 50.07 118.03 49.51 118.01 49.15 116.51 49.87 114.87 49.79 114.34 50.43 114.13 52.47 112.6 52.87 111.65 52.02 102.71 57.75 101.27 57.35 100.07 55.79 96.79 55.14 95.23 55.34 94.58 57.2 93.38 57.93 89.53 57.89 87.1 56.31 85.15 56.1 83.87 55.1 79.15 51.96 76.55 48.5 73.58 51.96 73.18 53.05 71.56 55.56 71.16 57.3 70.17 57.86 69.8 59.74 68.02 62.25 70.89 65.2"/>
      <polygon class="cls-7" points="79.66 51.56 84.31 54.66 85.45 55.55 87.36 55.76 89.77 57.31 93.17 57.34 94 56.84 94.7 54.83 96.81 54.55 100.49 55.28 101.71 56.86 102.59 57.11 111.72 51.25 112.8 52.21 113.49 52.03 113.67 50.22 114.37 49.4 114.34 48.25 112.26 45.42 106.93 45.32 105.51 46.05 103.63 46.12 103.04 44.42 103.81 43.62 102.31 42.79 104.19 41.51 103.96 39.46 103.27 38.92 100.59 38.08 100.17 37.04 98.79 36.87 97.71 35.33 97.41 34.07 96.76 34.17 96.02 34.54 96.02 34.54 94.36 34.35 94.26 32.97 91.41 31.96 90.38 33.25 90.22 35.69 90.22 36.15 89.59 36.17 88.74 36.27 88.77 35.81 86.13 35.96 84.45 37.14 84.42 39.05 81.95 39.12 80.87 40.64 80.67 41.44 79.91 42.74 79.57 44.12 78.77 45.95 78.09 46.75 77.75 47.45 77.03 48.07 79.66 51.56"/>
      <g class="cls-9">
        <path class="cls-7" d="M118.53,62.99l1.73-.41-1.43-1.42h-2.74l-.74-.66-1.14.89-3.03.35-1.51-.37-.65.97-3.66,1.06-2.18,2.1-2.85-.12-.59,1.7-1.8.85-1.23-.73-2.3,1.43-1.07-.51-1.2,1.12-.37-1.13-1.19-.61-.64.85-.1,2.25-1.86.3-.96,2.69-3.22.95-1.04-.55-2.71.39-.02-.04-2.23-.13.53,1.49-.95,1.7-.37,3.94-.8.83,1.04,1.92,2.5.32,1.12,1.02-2.08,1.15-.57-.03.84,1.43-.37,1.24-.83.86.23,2.68-.56,1.9,2.63,1.26,2.6-.91.17.87,2.96.24s.04.01.06.02l1.92,1.35-.51,1.35,1.72,2.79-.05,2.26,1.58.27,2.83-.67,1.42.81,3.45.37,1.84,1.29,2.23-.95-1.18-1.31,2.35-2.14,2.49-.48,1.57.29.62-.91.5-3.22,2.98-.64,1.27-1.9-.19-1.24.92-2.92-1.07-.51.15-1.55-1.12-.79.39-1.93,1.54-1.49.19-1.67,1.21-1.49.19-1.41.8-.88-.22-2.86-1.14-.86,1.38-2.43-.1-1.72,2.82-1.94.12-1.36-2.29-.89-.17-2.45,1.79-.48.39-.83Z"/>
      </g>
      <polygon class="cls-7" points="128.84 11.32 130.41 12.26 130.22 14.17 128.81 15.42 129.38 16.29 129.88 16.35 131.07 14.71 131.69 16.61 132.84 17.62 133.31 18.9 134.48 19.21 135.84 18.67 135.28 18.22 135.48 15.97 137.46 15.43 137.69 15.2 136.3 13.69 136.67 12.14 136.09 11.17 134.98 10.87 135.55 9.25 135.39 8.47 133.88 7.54 134.08 6.14 133.05 5.6 132.66 6.51 131.48 6.65 131.02 7.97 129.19 8.26 127.72 10.05 127.87 11.1 128.84 11.32"/>
      <polygon class="cls-7" points="142.33 7.03 140.29 8.77 138.35 8.77 137.9 9.23 138.55 9.7 139.23 11.61 140.33 11.89 140.63 12.83 143.53 13.67 144.25 13.69 145.15 13.03 144.61 11.15 146.44 10.09 147.26 10.01 147.89 9.64 148.85 9.29 145.98 7.66 144.47 8.84 144.36 8.04 143.76 7.56 142.57 7.27 142.33 7.03"/>
      <polygon class="cls-7" points="67.3 102.71 66.58 101.44 64.96 101.41 64.35 102.32 62.3 102.58 62.84 104.2 64.65 104.24 65.69 105.5 66.04 105.56 66.88 104.25 68.59 104.77 69.44 104.05 69.12 103.67 67.3 102.71"/>
      <polygon class="cls-7" points="103.46 20.37 103.69 22.53 106.42 22.69 107.36 23.8 109.73 24.05 109.09 26.02 112.98 28.02 115.1 28.05 116.73 30.28 118.34 30.31 117.97 32.06 118.74 32.77 118.3 34.21 120.4 35 121.56 36.85 121.62 39.18 122.18 40.04 123.79 40 125.68 38.2 126.06 36.26 127.52 35.54 127.49 34.24 125.11 33.09 124.86 30.64 125.8 28.41 124.85 26.85 120.16 26.42 120.4 23.9 118.99 23.03 118.85 18.54 121.52 18.16 123.09 16.18 122.71 14.24 119.74 13.1 116.85 10.96 115.9 9.93 113.75 10.09 107.88 12.51 104.9 13.38 101.49 15.07 100.44 16.69 99.87 18.67 98.24 20.25 103.46 20.37"/>
      <g class="cls-3">
        <path class="cls-7" d="M97.64,26.96l2.16.22,1.95,1.43-.42,1.98-1.65-.13-1.53.59-1.78,2.06-.16.67.32-.16,1.41-.23.41,1.73.85,1.22,1.49.17.45,1.12,2.5.79.97.77.3,2.58-1.44.98,1.35.74-1.02,1.06.34.96,1.18-.04,1.44-.74,5.89.11,2.37,3.23.03,1.14,1.32.07,1.73-.83,1.55-1.99,2.16-1.41.82-1.12.58-.21-.07-2.3.79-.23-.23-.62-1.91.06-.84-1.29-.07-2.35-.97-1.54-2.41-.91.49-1.61-.74-.69.29-1.37-1.18-.02-1.62-2.23-1.93-.03-4.48-2.3.56-1.76-1.91-.19-.93-1.09-2.98-.17-.23-2.14-5.13-.11-.11,1.61-1.28.31-.56,1.49c.62.88,1.3,1.89,1.88,2.73"/>
      </g>
      <polygon class="cls-7" points="63.22 158 65.25 154.15 64.11 152.58 64.83 149.48 65.63 147.39 65.63 142.82 66.95 139.33 71.7 140.21 73.84 138.92 75.43 137.06 78.75 137.33 79.72 138.27 81.22 137.15 83.06 137.24 85.41 138.77 86.13 139.76 87.6 138.4 89.13 138.25 90.09 138.93 90.7 138.01 89.12 137.01 88.39 135.11 88.34 131.48 91.73 128.81 91.87 124.73 91.24 124.16 91.24 122.03 93.58 120.25 94.13 116.84 96.36 116.24 98.07 114.45 101.22 114.04 102.18 112.44 101.03 111.57 98.48 110.99 98.6 108.87 99.75 107.97 99.75 106.43 98.02 105.21 94.83 104.87 92.2 106.78 90.45 106.82 89.11 109.38 86.24 111.6 84.66 111.52 82.87 113.84 79.41 115.13 77.52 113.93 76.9 114.33 78.08 117.74 78.1 117.74 78.1 117.78 78.24 118.19 78.06 118.16 77.85 120.09 76.98 120.96 73.93 125.82 71.89 127.65 70.67 127.45 69.67 129.38 66.9 130.91 63.72 135.57 62.53 135.71 60.33 137.12 57.31 137.03 55.87 136.63 52.93 136.67 51.64 135.98 48.66 136.37 48.85 137.08 49.9 140.13 51.85 144.52 54.01 147.46 53.16 149.61 52.93 151.02 54.58 153.93 59.75 159.03 61.77 159.08 63.04 159.7 63.22 158"/>
      <polygon class="cls-7" points="74.33 139.34 71.84 140.84 67.41 140 66.31 142.91 66.31 147.47 65.48 149.64 64.83 152.47 66.02 154.11 63.89 158.15 63.69 160.02 65.03 160.67 65.2 161.91 66.05 162.82 73.04 165.94 73.69 166.68 74.23 167.87 75.05 168.45 76.76 170.14 77.27 171.95 77.61 173.23 78.03 173.52 79.2 174.87 79.48 175.93 80.59 179.46 80.79 179.96 80.96 181.08 80.39 184.07 79.74 185.18 79.76 186.61 81.13 188.18 81.21 191.03 82.77 191.82 83.31 191.39 83.43 190.3 84.51 189.6 90.22 192.23 90.64 192.23 89.53 189.91 89.53 188.3 92.2 186 92.52 185.3 92.43 182.11 92.54 174.64 90.28 174.64 88.51 173.1 86.84 172.83 86.52 171.24 85.36 169.53 85.99 169 86.1 167.97 84.71 167.58 83.31 166.72 83.37 164.44 85.14 163.94 85.84 163.51 83.66 160.86 84.54 159.11 82.91 156.17 84.11 152.04 86.03 149.54 85.68 148.81 87.22 147.3 88.26 147.3 89.88 146.57 92.08 146.31 92.27 143.99 92.9 143.36 93.14 141.89 90.6 140.87 89.9 139.56 88.92 138.85 87.93 138.95 86.02 140.72 84.9 139.16 82.81 137.81 81.46 137.74 79.67 139.08 78.41 137.89 75.75 137.66 74.33 139.34"/>
      <polygon class="cls-7" points="67.64 62.78 67.86 62.99 67.65 62.78 67.64 62.78"/>
      <polygon class="cls-7" points="53.29 83.52 57.32 84.1 60.78 83.57 66.31 83.86 69.65 85.54 78.59 85.95 79.8 85.28 79.38 84.91 76.76 84.57 75.38 82.04 76.32 81.07 76.7 77.21 77.59 75.61 76.86 73.55 79.76 73.72 79.44 73.04 76.84 72.37 76.15 69.54 71.52 67.42 70.33 65.52 68.2 63.34 67.44 63.41 65.09 65.71 64.41 67.42 64.32 68.7 62.56 70.78 60.14 72.47 57.56 76.84 55.18 81.06 53.93 82 53.98 82.9 53.29 83.52"/>
      <polygon class="cls-7" points="127.52 176.61 126.74 176.19 127.13 175.77 128.65 176 133.75 175.77 133.75 176.19 133.62 176.81 134.09 177.84 133.96 178.22 133.42 178.44 133.37 179.03 133.46 179.69 136.73 181.64 135.86 183.24 133.87 183.12 132.05 181.16 130.35 181.07 127.61 178.99 127.52 176.61"/>
      <polygon class="cls-7" points="122.78 149.71 122.78 149.19 124.62 148.94 126.96 149.71 127.15 150.92 126.15 152.06 126.28 152.7 125.94 152.8 124.79 152.09 123.6 151.44 123.27 150.01 122.78 149.71"/>
      <g class="cls-5">
        <path class="cls-7" d="M28.06,119.69c-.38-.41-.58-.94-.58-1.49,0-.92.16-1.66-.41-1.97-.33-.18-.69-.3-1.07-.33-.11-.26-.36-.44-.65-.43-.46.03-.2.37-.77.44-.56.06-.51.03-.82-.31s-.61-.28-.87-.44c-.26-.15.51-.37-.33-.51-.41-.1-.84-.1-1.25,0l-.14.43s-.03,0,.37.56c.4.56.44,1.25.37,1.25-.41-.04-.82-.06-1.22-.05-.49.03-.84.11-.92.29-.11.33-.19.67-.26,1.02.05.34-.12.67-.43.82-.54.37-1,.77-.97.84.42.65.93,1.23,1.51,1.74.56.37,1.61.97,1.61.97.58-.33,1.13-.72,1.64-1.15.37-.4.69-1.79,1.35-1.99.66-.2,1.05-.54,1.49-.25.63.3,1.28.54,1.95.71.14.06.42-.15.42-.15"/>
        <path class="cls-7" d="M26.46,112.05c.43-.05.51.72.51.72.05.24-.11.46-.34.51-.06.01-.11.01-.17,0-.52-.03-1.04-.03-1.56,0,0,0-.15.74-.37.69-.22-.05-.59-.03-.79-.2-.2-.18-.03-.67.18-.94s.44-.9.9-.95c.55.01,1.11.07,1.65.18"/>
        <path class="cls-7" d="M21.11,111.13c.69.06,1.25-.15,1.56.43.27.49.37,1.06.28,1.61-.1.3-.23.59-.71.37-.46-.26-.98-.39-1.51-.37-.49.07-1-.02-1.43-.26-.27-.15-.56-.25-.87-.28-.26-.07-.14-.71.28-1,.42-.28.87-.65,2.41-.51"/>
        <path class="cls-7" d="M16.42,112.72c.95.23.51.54,1.25.59.74.05.83.16.63.66-.2.51-.68.92-1.04,1.53-.36.61-.62.49-.62,1.44s.23,1.49-.37,1.97c-.6.48-.9.64-1.69.51-.79-.13-1.35.06-1.82.04s-.37-.91-.28-1.17c.09-.26.41-.41,1.1-.66.69-.26,1.2-.64,1.18-1.02s-.2-.54-.15-.89c.08-.27.14-.54.18-.82.1-.74,0-1.38.28-1.64.28-.26.75-.69,1.35-.55"/>
        <path class="cls-7" d="M16.56,121.81c.53,0,1.05.14,1.51.41.44.26.74.41.64.85-.11.44-.25.69-.64.59s-.81-.28-1.11-.18c-.27.12-.57.19-.87.2-.37,0-.91-.37-.68-.71s.49-1.19,1.15-1.15"/>
        <path class="cls-7" d="M23.26,105.35c.41,0,.59.72.72,1.38.13.67.05.97-.35,1.35s-1.16.2-1.75.23c-.59.03-.71-.37-.33-.97s.33-1.02.77-1.2c.44-.18.43-.8.94-.8"/>
        <path class="cls-7" d="M12.7,134.26c.2.66-.77.71-.87,1.33-.1.61-.1,1.58-.82,1.33-.71-.26-1.94-1.11-1.99-1.79-.05-.67,0-1.68,1.12-1.53.87.15,1.73.37,2.57.67"/>
        <path class="cls-7" d="M18.07,135.94c1,.24.97.24.92,1.02-.05.78-.51,1.18-1.18.98-.67-.2-.72-.32-1.17-.98-.46-.65.56-1.22,1.43-1.02"/>
        <path class="cls-7" d="M25.43,137.58c-.12,1.03-.16,1.49.46,1.49s.41,0,1.02-.79c.61-.79,1.12-1.89.51-1.84-.6.05-.11.82-.9.87-.79.05-1.01-.45-1.09.27"/>
        <path class="cls-7" d="M38.36,37.77c.72,0,.51-.67,1.33-.67s1.44-.15,1.74-.87c.3-.71-.26-1.07-1.23-1.07s-.82.81-1.38.86c-.56.05-1.07.2-1.12.82-.07.43.23.84.66.92"/>
        <path class="cls-7" d="M38.06,38.33c.59.07.26.77.26,1.58s-.15,1.18.41,1.18.31.31,0,.56c-.31.26-1.42-.09-1.43.57,0,.65-.56,1.27,0,1.37.32.06.65.06.97,0,0,0,0,.1-.57.56s-.43.46-.65,1.23c-.22.77-.04,1.38,0,2.15.04.77.82,1.75.25,1.75s-.92.47-1.49,0-1.23-.42-1.94-.42-1.12,0-.92-.37,1.02-.66,1.12-1.49c.09-.83.31-1.23.1-1.89-.2-.67-.77-1.21-.41-1.22.46.05.92.05,1.38,0,.61-.11,1.18-.72,1.18-1.18s-.28-.87-.35-1.64-.55-1.33,0-1.58c.55-.26,1.02.05,1.32-.37s-.04-.88.77-.78"/>
        <path class="cls-7" d="M111.2,137.98s.03-.09.05-.13c0-.09-.02-.18-.05-.26v.39Z"/>
        <path class="cls-7" d="M64.2,170.05c1.12,0,.61.61.61,1.12s.05,1.33-.61,1.33-1.69-.2-2.66-.16.1-.77.92-1.07c.82-.31-.11-.82.58-1.02.38-.11.77-.18,1.16-.2"/>
        <path class="cls-6" d="M53.35,124.51c-.22-.47-1.8-.53-2.65-1.49-.85-.96-.3-2.23-.44-2.83-.14-.6-.88-.64-1.44-1.25-.56-.61.24-.79.35-2.6.04-.6.01-1.2-.07-1.8l.05-.04-.26-.88-.05-.2c.05-.4.3-2.81.31-3.58-.01-.76-.06-1.52-.16-2.27l-.05-2.29s1.11-1.91,1.56-2.79l.2-.55c.08-.56.13-1.13.13-1.7-.47-.35-.91-.74-1.32-1.16-.17-.28-1.69-.98-2.04-2.05-.25-.89-.42-1.8-.52-2.72l-.52.12-.47,1.11.03,2.39.6,2.73-.07,1.24.23.55.69.84-.71.46.06.41.51,1.35-.77.55v1.76l.65.63-.15.37h-.94l-.23,1.35-.17,2.38-.22.6-.71.91-.07,1.16-.59,1.18,1.02,1.69-1.65.27-.27,1.18-1.08,1.62.17,1.13,1,1.43-1.45.82-.17,2.9,1.14-.1-1.37.92.17.31,1.45.48,1.49,1.09.74.58c.84-.2,1.74-.39,2.54-.54,2.41-.45.68-.68,1.31-2.08.07-.16.13-.29.17-.38h.6v-.26c.1-.05.23-.13.39-.25,1.16-.89,1.11-1,1.86-1.49s1.41-.73,1.19-1.2"/>
        <path class="cls-6" d="M3.56,79.41v-2.07c0-.2.07-.23.22-.25.22-.02.66-.03.94-.04-.02.34-.03.88-.03,1.63v2.91c0,.63.02.93.03,1.11-.18.05-.76.07-.96.07-.13,0-.19-.03-.19-.17v-2.47c-.18.02-.48.03-1.03.03h-1.38v2.33c0,.19-.07.23-.28.24-.24.03-.68.05-.87.04.02-.36.03-.89.03-1.65v-2.84c0-.61,0-.98-.03-1.15.23-.05.77-.07.96-.07.16,0,.19.08.19.49v1.87h2.4Z"/>
        <path class="cls-6" d="M9.01,81.83c0,.4-.32.77-.47.84-.14.06-.52.16-.84.16-1.32,0-2.03-.72-2.03-2.04,0-1.09.71-2.13,1.93-2.13,1.14,0,1.59.83,1.59,1.55,0,.13,0,.23-.03.3-.03.14-.39.26-.76.35-.22.05-1.16.06-1.66.05.05.79.62,1.12,1.23,1.12.43,0,.86-.13,1.01-.21l.02.02ZM7.5,79.28c-.33,0-.69.32-.73.99.37.03,1.06.02,1.28,0,.06,0,.12-.09.12-.19,0-.44-.2-.8-.66-.8h-.01Z"/>
        <path class="cls-6" d="M9.82,79.12c.07-.21.41-.47.66-.47.4,0,.56.38.57.94.26-.61.64-.94,1.12-.94.17,0,.34.08.42.15.05.1.04.36-.05.53-.04.19-.22.4-.35.42-.18-.07-.28-.09-.43-.09-.14,0-.4.11-.55.49-.05.14-.08.24-.08.44v1.88c0,.15-.02.22-.2.25-.31.04-.59.05-.92.05.02-.48.03-1.03.03-1.64v-1.52c0-.21-.05-.37-.21-.46v-.04Z"/>
        <path class="cls-6" d="M16.22,81.83c0,.4-.31.77-.47.84-.14.06-.52.16-.84.16-1.31,0-2.03-.72-2.03-2.04,0-1.09.71-2.13,1.93-2.13,1.14,0,1.59.83,1.59,1.55,0,.13,0,.23-.03.3-.03.14-.39.26-.76.35-.23.05-1.16.06-1.66.05.05.79.62,1.12,1.23,1.12.43,0,.86-.13,1.01-.21l.02.02ZM14.71,79.28c-.33,0-.69.32-.73.99.37.03,1.06.02,1.28,0,.06,0,.12-.09.12-.19,0-.44-.2-.8-.66-.8h0Z"/>
        <path class="cls-6" d="M17.68,81.53c.35,0,.59.29.59.63,0,.4-.25.66-.66.66-.29,0-.61-.2-.61-.63,0-.36.23-.66.68-.66h0ZM18.11,77.25c.14,0,.19.02.19.24,0,.53-.22,2.67-.27,3.05-.03.16-.13.2-.21.23-.22.05-.4.1-.45.1-.05-.38-.27-2.82-.28-3.39.04-.1.72-.23,1.01-.23h0Z"/>
      </g>
      <polygon class="cls-8" points="44.54 114.99 16.23 87.77 16.57 87.41 44.89 114.62 44.54 114.99"/>
      <g class="cls-4">
        <path class="cls-2" d="M60.46,88.69v.23h-.8c.28.24.51.47.7.7l-.18.18c-.07-.09-.13-.17-.21-.26-.73.09-1.49.15-2.27.18l-.07-.21c.06-.01.12-.03.17-.07.15-.12.32-.29.5-.52h-.93v-.23h3.09ZM60.32,86.6v.22h-1.27v.23h1.4v.74h-.25v-.53h-1.15v.78h-.25v-.78h-1.14v.53h-.25v-.74h1.4v-.23h-1.27v-.22h2.8ZM60.18,88.43h-2.52v-.22h2.52v.22ZM58.59,87.94c-.15.05-.4.09-.74.12l-.05-.18c.33-.02.57-.06.73-.11l.06.17ZM58.58,87.5l-.07.16c-.22-.04-.44-.07-.68-.09l.08-.17c.23.02.45.05.66.1M58.07,89.48c.65-.03,1.22-.08,1.72-.14-.1-.1-.21-.2-.33-.3l.13-.13h-.99c-.14.2-.32.39-.53.57M60.03,87.9l-.07.17c-.23-.06-.47-.11-.72-.14l.08-.15c.25.03.48.07.71.13M59.25,87.49c.24-.02.47-.06.66-.12l.07.18c-.19.05-.43.09-.69.12l-.04-.17Z"/>
        <path class="cls-2" d="M61.53,87.18v-.71h.26v.71h.49v.25h-.49v.21c.19.18.39.38.59.61l-.15.23c-.17-.25-.31-.45-.44-.59v1.88h-.26v-1.88c-.13.39-.31.73-.53,1.04l-.11-.28c.3-.35.51-.75.63-1.21h-.55v-.25h.56ZM63.08,87.18v-.71h.26v.71h.76v.25h-.7c.19.59.45,1.07.8,1.46l-.17.23c-.27-.37-.5-.84-.69-1.42v2.06h-.26v-2.05c-.2.59-.45,1.07-.75,1.43l-.15-.24c.36-.37.64-.86.84-1.47h-.6v-.25h.66Z"/>
        <path class="cls-2" d="M65.05,88.76c-.08.33-.19.62-.35.87l-.19-.13c.15-.24.26-.5.33-.78l.21.04ZM65.97,88.34h.19v.23h-.67v1.15h-.24v-1.15h-.65v-.23h.18v-1.74h1.2v1.74ZM65.73,86.81h-.73v.24h.73v-.24ZM65.73,87.24h-.73v.24h.73v-.24ZM65.73,87.67h-.73v.25h.73v-.25ZM65.73,88.1h-.73v.23h.73v-.23ZM66.07,89.3l-.21.09c-.06-.23-.13-.44-.2-.62l.2-.07c.08.18.15.38.2.59M66.66,88.89c-.12.27-.24.5-.4.7l-.19-.13c.15-.19.28-.41.39-.67l.2.1ZM67.11,86.48c-.27.38-.55.67-.86.87l-.15-.18c.3-.19.56-.44.76-.74l.25.06ZM66.61,89.72l-.06-.23c.07,0,.14.01.21.01s.1-.04.1-.11v-.83c-.18.01-.37.03-.56.04l-.05-.21.09-.02c.17-.09.37-.27.6-.52-.2.02-.41.04-.62.05l-.05-.2.09-.02c.18-.11.43-.4.75-.86l.23.09c-.26.35-.49.61-.69.78.16-.01.32-.03.48-.05.1-.12.2-.25.31-.38l.23.09c-.38.46-.71.8-.99,1.03.24-.02.48-.05.71-.08-.04-.09-.09-.17-.13-.25l.2-.09c.11.19.22.41.31.64l-.2.1-.08-.2c-.13.01-.26.03-.39.04v.91c0,.18-.09.27-.25.27h-.24ZM67.81,89.44l-.19.13c-.09-.21-.22-.44-.38-.69l.19-.12c.17.26.29.48.38.68"/>
        <path class="cls-2" d="M52.92,92.31c0-.07,0-.12-.03-.16-.18-.3-.55-.83-.76-1.11v-.02c.09-.03.21-.05.28-.05.05,0,.09.05.18.18.13.2.35.53.53.81.14-.2.58-.86.65-.99.1,0,.17.01.21.03.05.02.05.06,0,.14-.09.14-.65.93-.7.99-.03.04-.04.1-.04.14v.52c0,.25,0,.36.01.43-.06.02-.16.03-.29.03-.04,0-.05-.01-.05-.06v-.89Z"/>
        <path class="cls-2" d="M54.32,92.09c0-.22,0-.33-.02-.41.06-.02.21-.04.28-.04.04,0,.05.02.05.22,0,.24,0,.49,0,.73,0,.37.19.42.35.42.17,0,.31-.11.38-.18v-1.05c0-.09.01-.1.06-.12.1-.01.19-.02.27-.02,0,.08-.01.33-.01.64v.57c0,.17.05.21.15.23v.02c0,.07-.09.18-.17.18-.15,0-.24-.1-.26-.26-.11.12-.23.18-.3.21-.07.03-.15.05-.23.05-.37,0-.54-.24-.54-.6v-.6Z"/>
        <path class="cls-2" d="M57.3,92.29c0-.27-.12-.41-.34-.41-.18,0-.32.11-.41.21v1.07c0,.07-.01.08-.07.09-.08.01-.17.01-.25.01,0-.13.01-.35.01-.66v-.61c0-.13-.02-.19-.07-.23h0c.03-.07.14-.14.21-.14.11,0,.15.18.15.27.15-.15.35-.27.55-.27.42,0,.53.32.53.66v.49c0,.21,0,.36.01.45-.08.01-.18.03-.28.03-.04,0-.06-.02-.06-.05v-.91Z"/>
        <path class="cls-2" d="M58.15,91.25c0-.21,0-.32-.02-.4.08-.03.22-.05.28-.05.04,0,.05.02.05.23v1.73c0,.18,0,.37.01.47-.06.02-.24.03-.28.03-.03,0-.05-.01-.05-.05v-1.97Z"/>
        <path class="cls-2" d="M59.16,90.87c.1,0,.17.07.17.18s-.07.19-.18.19c-.1,0-.18-.06-.18-.18,0-.13.11-.19.18-.19h0ZM59.32,93.16c0,.07-.02.08-.08.09-.05.01-.14.01-.25.02,0-.14.01-.35.01-.57v-.61c0-.22,0-.33-.01-.41.06-.02.22-.04.28-.04.04,0,.05.02.05.22v1.29Z"/>
        <path class="cls-2" d="M60.92,92.29c0-.27-.12-.41-.33-.41-.18,0-.32.11-.41.21v1.07c0,.07-.01.08-.08.09-.08.01-.17.01-.25.01,0-.13.01-.35.01-.66v-.61c0-.13-.02-.19-.06-.23h0c.03-.07.14-.14.21-.14.11,0,.15.18.15.27.15-.15.35-.27.55-.27.42,0,.53.32.53.66v.49c0,.21,0,.36.01.45-.08.01-.18.03-.28.03-.04,0-.06-.02-.06-.05v-.91Z"/>
        <path class="cls-2" d="M64.39,92.95c-.01.1-.05.18-.11.23-.08.05-.27.12-.52.12-.81,0-1.24-.47-1.24-1.16,0-.73.55-1.2,1.26-1.2.33,0,.6.11.65.18,0,.13-.1.2-.18.17-.11-.05-.28-.11-.49-.11-.48,0-.89.31-.89.93,0,.54.34.94.97.94.22,0,.43-.07.54-.11h.01Z"/>
        <path class="cls-2" d="M65.44,91.62c.5,0,.78.35.78.81s-.31.85-.8.85c-.53,0-.79-.38-.79-.81,0-.48.33-.85.81-.85h0ZM65.41,91.84c-.23,0-.45.21-.45.59,0,.43.22.64.49.64.21,0,.43-.18.43-.61,0-.31-.13-.63-.47-.63h0Z"/>
        <path class="cls-2" d="M66.62,92.09c0-.22,0-.33-.02-.41.06-.02.21-.04.28-.04.04,0,.05.02.05.22,0,.24,0,.49,0,.73,0,.37.19.42.35.42.17,0,.31-.11.38-.18v-1.05c0-.09.01-.1.06-.12.1-.01.19-.02.27-.02,0,.08-.01.33-.01.64v.57c0,.17.05.21.15.23v.02c0,.07-.09.18-.17.18-.15,0-.24-.1-.26-.26-.11.12-.23.18-.3.21-.07.03-.15.05-.24.05-.37,0-.54-.24-.54-.6v-.6Z"/>
        <path class="cls-2" d="M69.61,92.29c0-.27-.12-.41-.34-.41-.18,0-.32.11-.41.21v1.07c0,.07-.01.08-.07.09-.08.01-.17.01-.25.01,0-.13.01-.35.01-.66v-.61c0-.13-.02-.19-.07-.23h0c.03-.07.14-.14.21-.14.12,0,.15.18.15.27.15-.15.35-.27.55-.27.42,0,.53.32.53.66v.49c0,.21,0,.36.01.45-.08.01-.18.03-.28.03-.04,0-.06-.02-.06-.05v-.91Z"/>
        <path class="cls-2" d="M71.32,92.97c.01.07,0,.16-.07.21-.07.06-.21.1-.34.1-.32,0-.45-.2-.45-.48v-.92c-.13,0-.18-.04-.18-.08.04-.07.27-.28.32-.33.05-.04.11-.08.19-.09,0,.11-.02.2-.02.28h.57c-.04.19-.11.21-.18.21-.12,0-.14.01-.4.01-.02.36-.02.73,0,.89.02.21.13.26.26.26.11,0,.21-.04.27-.08h.01Z"/>
        <path class="cls-2" d="M71.66,93.9c.12-.15.33-.45.48-.74-.02-.03-.05-.09-.08-.16-.05-.14-.35-.95-.51-1.29.07-.04.2-.08.26-.08.05,0,.06.02.08.07.1.26.32.89.41,1.14.14-.33.33-.91.4-1.21.05,0,.15.01.2.04.06.02.07.05.04.13-.11.39-.25.79-.44,1.21-.21.47-.55,1-.62,1-.09,0-.19-.05-.23-.09v-.02Z"/>
        <path class="cls-2" d="M74.06,102.85v-.63h2.25v.63h-.31l-.14.26h.92v.21h-2.24c-.02.09-.04.17-.06.25h.65c0,.43-.05.68-.12.77-.08.08-.22.13-.41.13-.05,0-.11,0-.19-.01l-.05-.21c.08,0,.14.01.19.01.14,0,.24-.03.27-.08.04-.05.06-.18.06-.39h-.48c-.03.08-.07.15-.1.2-.12.19-.3.35-.54.5l-.15-.2c.21-.12.37-.26.47-.41.02-.03.04-.06.05-.09h-.44v-.22h.53c.03-.08.05-.17.06-.25h-.71v-.21h.93l-.11-.26h-.35ZM75.06,101.82v-.22h-1.33v-.21h1.33v-.22h.26v.22h1.33v.21h-1.33v.22h1.18v.21h-2.62v-.21h1.18ZM76.07,102.41h-1.76v.25h1.76v-.25ZM74.68,102.85l.11.26h.8l.14-.26h-1.05ZM76.54,104.48h-.23v-.14h-.71v.14h-.24v-.95h1.18v.95ZM76.31,103.74h-.71v.4h.71v-.4Z"/>
        <path class="cls-2" d="M78.16,101.47c-.04-.08-.09-.15-.14-.22l.24-.09c.06.09.12.19.17.31h.71c.07-.09.13-.19.19-.3l.25.09c-.05.08-.1.15-.15.22h.83v.21h-1.33v.21h1.21v.21h-1.21v.23h1.45v.21h-3.13v-.21h1.43v-.23h-1.16v-.21h1.16v-.21h-1.32v-.21h.82ZM77.99,103.15v-.2c-.15,0-.32.01-.5.01l-.07-.2c.48,0,.88-.03,1.2-.1l.11.19c-.14.03-.31.06-.49.08v.22h.84c-.03-.15-.05-.31-.08-.49l.26-.03c.02.19.04.37.07.52h1.01v.22h-.35l.14.11c-.15.19-.32.37-.52.51.02.03.03.05.05.07.09.09.16.14.22.14.12,0,.23-.13.34-.37l.2.13c-.15.32-.32.49-.52.49-.11,0-.22-.06-.34-.17-.05-.05-.11-.11-.15-.18-.23.14-.5.25-.79.34l-.1-.22c.29-.09.55-.19.77-.33-.02-.04-.04-.08-.06-.12-.05-.11-.09-.25-.13-.42h-.88v.28c.22-.04.41-.08.58-.13v.22c-.16.05-.35.09-.58.13v.29c0,.21-.11.32-.33.32h-.33l-.05-.23c.1.01.21.02.3.02.1,0,.15-.06.15-.17v-.18c-.21.03-.44.05-.69.08l-.04-.24c.27-.01.51-.04.73-.06v-.31h-.75v-.22h.75ZM79.93,103.37h-.55c.02.1.04.18.07.25.02.06.04.11.06.16.17-.12.31-.26.43-.41M80.25,102.94l-.16.16c-.14-.11-.34-.23-.58-.35l.16-.15c.23.11.43.23.58.34"/>
        <path class="cls-2" d="M81.32,103.47c-.08.33-.19.62-.35.87l-.19-.13c.15-.24.26-.5.33-.79l.21.04ZM82.24,103.05h.19v.23h-.67v1.15h-.25v-1.15h-.65v-.23h.18v-1.74h1.2v1.74ZM82,101.52h-.73v.24h.73v-.24ZM82,101.95h-.73v.24h.73v-.24ZM82,102.38h-.73v.25h.73v-.25ZM82,102.81h-.73v.23h.73v-.23ZM82.34,104.01l-.2.09c-.06-.23-.13-.44-.2-.62l.2-.07c.08.18.14.38.2.59M82.93,103.6c-.11.27-.24.5-.4.7l-.19-.13c.15-.19.28-.41.39-.67l.2.1ZM83.39,101.19c-.27.38-.55.67-.86.87l-.15-.18c.3-.19.55-.44.76-.74l.25.06ZM82.88,104.43l-.06-.23c.07,0,.15.01.21.01s.1-.04.1-.11v-.83c-.18.02-.37.03-.56.04l-.05-.21.09-.02c.17-.09.37-.27.6-.52-.2.02-.41.04-.62.05l-.05-.2.09-.02c.18-.11.43-.4.75-.86l.23.09c-.26.35-.49.61-.69.78.16-.01.32-.03.48-.05.1-.12.2-.25.31-.38l.23.09c-.38.46-.71.8-.99,1.03.24-.02.48-.05.71-.08-.04-.09-.09-.17-.13-.25l.2-.09c.11.19.22.41.31.64l-.2.1-.08-.2c-.13.01-.26.03-.39.04v.91c0,.18-.09.27-.25.27h-.24ZM84.08,104.15l-.19.13c-.09-.21-.22-.44-.38-.69l.19-.12c.17.26.29.48.38.68"/>
        <path class="cls-2" d="M71.08,107.66c-.01.1-.05.18-.11.23-.08.05-.27.12-.52.12-.81,0-1.24-.47-1.24-1.16,0-.73.55-1.2,1.26-1.2.33,0,.6.11.65.18,0,.13-.1.2-.18.17-.11-.05-.28-.11-.49-.11-.48,0-.89.31-.89.93,0,.54.34.94.97.94.22,0,.44-.07.54-.11h.01Z"/>
        <path class="cls-2" d="M71.77,106.57c.14-.11.32-.24.54-.24.4,0,.53.32.53.67v.49c0,.22,0,.37,0,.46-.07.01-.17.03-.27.03-.04,0-.05-.02-.05-.06v-.89c0-.32-.15-.44-.35-.44-.17,0-.33.11-.4.18v1.09c0,.06-.02.08-.07.09-.09.01-.18.01-.26.01,0-.13.01-.35.01-.66v-1.35c0-.22,0-.33-.01-.4.09-.03.22-.05.28-.05.04,0,.05.02.05.23v.83Z"/>
        <path class="cls-2" d="M74.59,107.76c0,.15-.08.23-.24.23s-.23-.11-.26-.22c-.09.1-.26.22-.46.22-.25,0-.43-.19-.43-.41,0-.38.49-.49.69-.54.07-.01.14-.03.19-.04v-.09c0-.16-.09-.32-.31-.32-.12,0-.25.06-.35.12-.11.05-.16-.02-.18-.13.11-.11.35-.24.6-.24.37,0,.54.26.54.61,0,.15-.01.49,0,.71,0,.07.05.11.12.11.02,0,.05,0,.08-.01h0ZM73.52,107.54c0,.13.1.2.23.2.15,0,.26-.09.31-.17.02-.03.02-.06.02-.13v-.25c-.3.04-.56.14-.56.34h0Z"/>
        <path class="cls-2" d="M74.83,108.61c.12-.15.33-.45.48-.75-.02-.03-.05-.09-.08-.15-.05-.14-.35-.95-.51-1.29.07-.04.2-.08.26-.08.05,0,.06.02.08.07.1.26.32.89.41,1.14.14-.33.33-.91.4-1.21.06,0,.15.01.2.04.06.03.07.05.04.13-.11.38-.25.79-.44,1.21-.21.47-.55,1-.62,1-.09,0-.19-.05-.23-.09h0Z"/>
        <path class="cls-2" d="M76.63,105.58c.1,0,.17.08.17.18s-.07.19-.18.19c-.1,0-.18-.06-.18-.18,0-.13.11-.19.18-.19h0ZM76.79,107.86c0,.07-.02.08-.08.09-.05.01-.14.01-.25.02,0-.14.01-.35.01-.57v-.61c0-.22,0-.33-.01-.41.06-.02.22-.04.28-.04.04,0,.05.02.05.22v1.29Z"/>
        <path class="cls-2" d="M79.94,107.66c-.01.1-.05.18-.11.23-.08.05-.27.12-.52.12-.81,0-1.24-.47-1.24-1.16,0-.73.55-1.2,1.26-1.2.33,0,.59.11.65.18,0,.13-.1.2-.18.17-.11-.05-.28-.11-.49-.11-.48,0-.89.31-.89.93,0,.54.34.94.97.94.22,0,.43-.07.54-.11h.01Z"/>
        <path class="cls-2" d="M80.99,106.33c.5,0,.78.35.78.81s-.31.85-.8.85c-.53,0-.79-.39-.79-.81,0-.48.33-.85.81-.85h0ZM80.97,106.55c-.23,0-.45.21-.45.59,0,.43.22.64.49.64.21,0,.43-.18.43-.61,0-.31-.13-.63-.47-.63h0Z"/>
        <path class="cls-2" d="M82.18,106.8c0-.22,0-.33-.01-.41.06-.02.21-.04.28-.04.04,0,.05.02.05.22,0,.24,0,.49,0,.73,0,.37.19.42.35.42.17,0,.31-.11.38-.18v-1.05c0-.09.01-.1.06-.12.1-.01.19-.02.27-.02,0,.08-.01.33-.01.64v.57c0,.17.05.21.15.23v.02c0,.07-.09.18-.17.18-.15,0-.24-.1-.26-.26-.11.12-.23.18-.3.21-.07.03-.15.05-.23.05-.37,0-.54-.24-.54-.6v-.6Z"/>
        <path class="cls-2" d="M85.17,107c0-.27-.12-.41-.34-.41-.18,0-.32.11-.41.21v1.07c0,.07-.01.08-.07.09-.08.01-.17.01-.25.01,0-.13.01-.35.01-.66v-.61c0-.13-.02-.19-.07-.23v-.02c.03-.05.14-.12.21-.12.12,0,.15.18.15.27.15-.15.35-.27.55-.27.42,0,.53.32.53.66v.49c0,.21,0,.36.01.45-.08.01-.18.03-.28.03-.04,0-.06-.02-.06-.05v-.91Z"/>
        <path class="cls-2" d="M86.88,107.68c.01.07,0,.16-.07.21-.07.06-.21.1-.34.1-.32,0-.45-.2-.45-.47v-.92c-.13,0-.18-.04-.18-.08.04-.07.27-.28.32-.33.05-.04.11-.08.19-.09,0,.11-.02.2-.02.28h.57c-.04.19-.11.2-.18.21-.12,0-.14.01-.4.01-.02.36-.02.73,0,.89.02.21.13.26.26.26.11,0,.21-.04.27-.07h.01Z"/>
        <path class="cls-2" d="M87.22,108.61c.12-.15.33-.45.48-.75-.02-.03-.05-.09-.08-.15-.05-.14-.35-.95-.51-1.29.07-.04.2-.08.26-.08.05,0,.06.02.08.07.1.26.32.89.41,1.14.14-.33.33-.91.4-1.21.05,0,.15.01.2.04.06.03.07.05.04.13-.11.38-.25.79-.44,1.21-.21.47-.55,1-.62,1-.09,0-.19-.05-.23-.09h0Z"/>
        <path class="cls-2" d="M56.6,118.62c.32-.11.71-.51,1.18-1.19l.27.09c-.32.46-.65.83-.98,1.09.69-.03,1.35-.07,1.97-.13-.14-.19-.28-.38-.42-.54l.23-.11c.31.36.6.76.86,1.19l-.25.12c-.09-.15-.18-.29-.27-.43-.76.07-1.61.12-2.54.16l-.05-.25ZM59.31,120.74h-.26v-.18h-1.88v.18h-.26v-1.5h2.41v1.5ZM59.05,119.49h-1.88v.83h1.88v-.83Z"/>
        <path class="cls-2" d="M61.61,117.77l.04-.36.26.04c-.01.11-.02.22-.04.32h1.44v.25h-1.48c-.02.13-.05.25-.07.36h1.36v1.99c0,.23-.11.34-.32.34h-.35l-.07-.25h.34c.1,0,.15-.05.15-.15v-1.69h-2.3v2.11h-.26v-2.35h1.19c.02-.12.05-.25.07-.36h-1.45v-.25h1.49ZM61.54,119.19h.38c.08-.15.15-.3.22-.47l.24.09c-.07.14-.13.27-.2.38h.41v.23h-.72v.38h.83v.23h-.83v.65h-.25v-.65h-.82v-.23h.82v-.38h-.71v-.23h.4c-.05-.13-.12-.25-.19-.36l.23-.09c.08.13.15.28.21.45"/>
        <path class="cls-2" d="M65.2,117.85c-.06-.15-.12-.28-.19-.41l.28-.04c.06.13.11.28.17.45h1.47v.25h-1.46v.47h1.17v1.31c0,.22-.11.33-.33.33h-.36l-.06-.25h.34c.1.01.15-.04.15-.14v-1h-.91v1.91h-.27v-1.91h-.87v1.41h-.26v-1.66h1.12v-.47h-1.46v-.25h1.45Z"/>
        <path class="cls-2" d="M54.44,122.2h-.69c-.06,0-.08-.03-.06-.08.04-.09.08-.14.11-.17.05.02.14.02.53.02h1.22c0,.11-.08.22-.13.24h-.65v1.57c0,.25,0,.37.01.44-.08.02-.19.03-.28.03-.04,0-.06-.01-.06-.06v-1.97Z"/>
        <path class="cls-2" d="M56.81,124.02c0,.15-.08.23-.24.23s-.23-.11-.26-.22c-.09.1-.26.22-.46.22-.25,0-.43-.19-.43-.41,0-.38.49-.49.69-.54.06-.01.14-.03.19-.04v-.09c0-.16-.09-.32-.31-.32-.12,0-.25.06-.35.12-.11.05-.16-.02-.18-.13.11-.11.35-.24.6-.24.37,0,.54.26.54.61,0,.15-.01.49,0,.71,0,.07.05.11.12.11.02,0,.05,0,.08-.01h0ZM55.75,123.8c0,.13.1.2.23.2.15,0,.26-.09.31-.17.02-.03.02-.06.02-.13v-.25c-.3.04-.57.14-.57.34h0Z"/>
        <path class="cls-2" d="M57.34,121.84c.1,0,.17.08.17.18s-.07.19-.18.19c-.1,0-.18-.06-.18-.18,0-.13.11-.19.18-.19h0ZM57.49,124.12c0,.07-.02.08-.08.09-.05.01-.14.01-.25.02,0-.14.01-.35.01-.57v-.61c0-.22,0-.33-.02-.41.07-.02.22-.04.28-.04.04,0,.05.02.05.22v1.29Z"/>
        <path class="cls-2" d="M59.1,123.26c0-.27-.12-.41-.34-.41-.18,0-.32.11-.41.21v1.07c0,.07-.01.08-.07.09-.08.01-.17.01-.25.01,0-.13.01-.35.01-.66v-.61c0-.13-.02-.19-.07-.23h0c.03-.07.14-.14.21-.14.11,0,.15.18.15.27.15-.15.35-.27.55-.27.42,0,.53.32.53.66v.49c0,.21,0,.36.01.45-.08.01-.18.03-.28.03-.04,0-.06-.02-.06-.05v-.91Z"/>
        <path class="cls-2" d="M61.17,124.02c0,.15-.08.23-.24.23s-.23-.11-.26-.22c-.09.1-.26.22-.46.22-.25,0-.42-.19-.42-.41,0-.38.49-.49.69-.54.07-.01.14-.03.19-.04v-.09c0-.16-.09-.32-.31-.32-.12,0-.25.06-.35.12-.11.05-.16-.02-.18-.13.11-.11.35-.24.6-.24.37,0,.54.26.54.61,0,.15-.01.49,0,.71,0,.07.05.11.12.11.02,0,.05,0,.08-.01h0ZM60.1,123.8c0,.13.1.2.23.2.15,0,.26-.09.31-.17.02-.03.02-.06.02-.13v-.25c-.29.04-.56.14-.56.34h0Z"/>
        <path class="cls-2" d="M62.59,123.26c0-.27-.12-.41-.34-.41-.18,0-.32.11-.41.21v1.07c0,.07-.01.08-.07.09-.08.01-.17.01-.25.01,0-.13.01-.35.01-.66v-.61c0-.13-.02-.19-.07-.23h0c.03-.07.14-.14.21-.14.12,0,.15.18.15.27.15-.15.35-.27.55-.27.42,0,.53.32.53.66v.49c0,.21,0,.36.01.45-.08.01-.18.03-.28.03-.04,0-.06-.02-.06-.05v-.91Z"/>
        <path class="cls-2" d="M66.06,123.92c-.01.1-.05.18-.12.23-.08.05-.27.12-.52.12-.81,0-1.24-.47-1.24-1.16,0-.73.55-1.2,1.26-1.2.33,0,.59.11.65.18,0,.13-.1.2-.18.17-.11-.05-.28-.11-.49-.11-.48,0-.89.31-.89.93,0,.54.34.94.97.94.22,0,.43-.07.54-.11h.01Z"/>
        <path class="cls-2" d="M66.59,121.84c.1,0,.17.08.17.18s-.07.19-.18.19c-.1,0-.18-.06-.18-.18,0-.13.11-.19.18-.19h0ZM66.75,124.12c0,.07-.02.08-.08.09-.05.01-.14.01-.25.02,0-.14.01-.35.01-.57v-.61c0-.22,0-.33-.01-.41.06-.02.22-.04.28-.04.04,0,.05.02.05.22v1.29Z"/>
        <path class="cls-2" d="M68.15,123.94c.01.07,0,.16-.07.21-.07.06-.21.1-.34.1-.32,0-.45-.2-.45-.48v-.92c-.13,0-.18-.04-.18-.08.04-.07.27-.28.32-.33.05-.04.11-.08.19-.09,0,.11-.02.2-.02.28h.57c-.04.19-.11.2-.18.21-.12,0-.14.01-.4.01-.02.36-.01.73,0,.89.02.21.13.26.26.26.11,0,.21-.04.27-.08h.01Z"/>
        <path class="cls-2" d="M68.49,124.86c.12-.15.33-.45.48-.74-.02-.03-.05-.09-.08-.16-.05-.14-.35-.95-.51-1.29.07-.04.2-.08.26-.08.05,0,.06.02.08.07.1.26.32.89.41,1.14.14-.33.33-.91.4-1.21.06,0,.15.01.2.04.06.02.07.05.04.13-.11.39-.25.79-.44,1.21-.21.47-.55,1-.62,1-.09,0-.19-.05-.23-.09v-.02Z"/>
      </g>
    </g>
  </g>
</svg>