<svg width="20" height="14" viewBox="0 0 20 14" fill="none" xmlns="http://www.w3.org/2000/svg">
<path d="M19.0002 0.299988H15.2002C15.1002 0.299988 15.0002 0.300024 15.0002 0.400024L11.3002 3.60004L11.2002 3.70001V3.79999C11.2002 3.89999 11.2002 3.9 11.3002 4L13.2002 5.60004L13.3002 5.70001H13.4002H13.5002C13.5002 5.70001 13.6002 5.70004 13.6002 5.60004L19.1002 0.799988C19.1002 0.799988 19.2002 0.700037 19.2002 0.600037C19.2002 0.500037 19.2002 0.500024 19.2002 0.400024C19.2002 0.300024 19.1002 0.300012 19.1002 0.200012C19.1002 0.400012 19.1002 0.299988 19.0002 0.299988Z" fill="#606060"/>
<path d="M13.6002 8L13.5002 7.90002H13.4002H13.3002C13.3002 7.90002 13.2002 7.9 13.2002 8L11.3002 9.60004C11.3002 9.70004 11.2002 9.69999 11.2002 9.79999V9.90002C11.2002 9.90002 11.2002 10 11.3002 10L15.0002 13.2C15.0002 13.2 15.1002 13.2 15.1002 13.3H15.2002H19.0002H19.1002C19.1002 13.3 19.2002 13.3 19.2002 13.2C19.2002 13.2 19.2002 13.1 19.3002 13.1V13V12.9C19.3002 12.9 19.3002 12.8 19.2002 12.8L13.6002 8Z" fill="#606060"/>
<path d="M12.2002 6.79999V6.70001C12.2002 6.70001 12.2002 6.60004 12.1002 6.60004L5.00018 0.400024C4.90018 0.400024 4.90017 0.299988 4.80017 0.299988H1.00018H0.900208C0.900208 0.299988 0.800171 0.300024 0.800171 0.400024C0.800171 0.400024 0.800195 0.5 0.700195 0.5V0.600037V0.700012C0.700195 0.700012 0.700171 0.799988 0.800171 0.799988L7.40021 6.60004L7.50018 6.70001V6.79999V6.90002C7.50018 6.90002 7.50021 7 7.40021 7L0.800171 12.8C0.800171 12.8 0.800195 12.9 0.700195 12.9V13V13.1C0.700195 13.1 0.700171 13.2 0.800171 13.2C0.800171 13.2 0.900208 13.2 0.900208 13.3H1.00018H4.80017C4.90017 13.3 4.90018 13.3 5.00018 13.2L12.1002 7L12.2002 6.90002C12.2002 6.90002 12.2002 6.89999 12.2002 6.79999Z" fill="#606060"/>
</svg>
