<svg width="26" height="16" viewBox="0 0 26 16" fill="none" xmlns="http://www.w3.org/2000/svg">
<path d="M7.79999 5.90002C7.79999 6.20002 7.80002 6.40004 7.90002 6.60004C8.00002 6.80004 8.00001 7.00001 8.20001 7.20001C8.20001 7.30001 8.29999 7.30002 8.29999 7.40002C8.29999 7.50002 8.29998 7.60004 8.09998 7.60004L7.59998 7.90002C7.49998 7.90002 7.50002 8 7.40002 8C7.30002 8 7.20001 8.00002 7.20001 7.90002C7.10001 7.80002 7.00002 7.6 6.90002 7.5C6.80002 7.4 6.69998 7.2 6.59998 7C5.99998 7.7 5.20001 8.10004 4.20001 8.10004C3.50001 8.10004 2.99998 7.9 2.59998 7.5C2.19998 7.1 2 6.60002 2 5.90002C2 5.20002 2.20001 4.70001 2.70001 4.20001C3.20001 3.80001 3.80001 3.60004 4.70001 3.60004C5.00001 3.60004 5.29998 3.60001 5.59998 3.70001C5.89998 3.70001 6.2 3.80002 6.5 3.90002V3.29999C6.5 2.69999 6.39998 2.3 6.09998 2C5.79998 1.7 5.39999 1.60004 4.79999 1.60004C4.49999 1.60004 4.20002 1.60001 3.90002 1.70001C3.60002 1.80001 3.3 1.9 3 2C2.9 2.1 2.80001 2.10004 2.70001 2.10004C2.60001 2.10004 2.59998 2.10004 2.59998 2.10004C2.49998 2.10004 2.40002 1.99999 2.40002 1.79999V1.40002C2.40002 1.30002 2.4 1.20004 2.5 1.10004C2.5 1.00004 2.60001 1.00002 2.70001 0.900024C3.00001 0.800024 3.30001 0.6 3.70001 0.5C4.10001 0.4 4.5 0.299988 5 0.299988C6 0.299988 6.69998 0.5 7.09998 1C7.49998 1.4 7.79999 2.1 7.79999 3V5.90002ZM4.5 7.10004C4.8 7.10004 4.99999 7.1 5.29999 7C5.59999 6.9 5.79998 6.7 6.09998 6.5C6.19998 6.3 6.30002 6.2 6.40002 6C6.40002 5.8 6.5 5.59999 6.5 5.29999V5C6.3 4.9 5.99999 4.90002 5.79999 4.90002C5.49999 4.90002 5.3 4.90002 5 4.90002C4.5 4.90002 4.09999 5.00001 3.79999 5.20001C3.49999 5.40001 3.40002 5.70004 3.40002 6.10004C3.40002 6.50004 3.50001 6.8 3.70001 7C3.90001 7 4.1 7.10004 4.5 7.10004ZM11 8C10.9 8 10.8 8.00002 10.7 7.90002C10.6 7.90002 10.6 7.70004 10.5 7.60004L8.59998 1.40002C8.59998 1.20002 8.5 1.10004 8.5 1.10004C8.5 1.00004 8.60001 0.900024 8.70001 0.900024H9.5C9.7 0.900024 9.79999 0.9 9.79999 1C9.89999 1 9.9 1.19999 10 1.29999L11.4 6.60004L12.7 1.29999C12.7 1.09999 12.8 1 12.9 1C13 1 13.1 0.900024 13.2 0.900024H13.8C14 0.900024 14.1 0.9 14.1 1C14.2 1 14.2 1.19999 14.3 1.29999L15.6 6.70001L17 1.29999C17 1.09999 17.1 1 17.2 1C17.3 1 17.4 0.900024 17.5 0.900024H18.3C18.4 0.900024 18.5 1.00004 18.5 1.10004V1.20001C18.5 1.20001 18.5 1.30002 18.4 1.40002L16.5 7.60004C16.5 7.80004 16.4 7.90002 16.3 7.90002C16.2 7.90002 16.1 8 16 8H15.3C15.1 8 15 8.00002 15 7.90002C14.9 7.80002 14.9 7.70004 14.8 7.60004L13.5 2.40002L12.3 7.60004C12.3 7.80004 12.2 7.90002 12.1 7.90002C12 8.00002 11.9 8 11.8 8H11ZM21.4 8.20001C21 8.20001 20.6 8.20004 20.2 8.10004C19.8 8.00004 19.5 7.89999 19.3 7.79999C19.2 7.69999 19.1 7.60004 19 7.60004C19 7.50004 19 7.40002 19 7.40002V7C19 6.8 19.1 6.70001 19.2 6.70001H19.3C19.3 6.70001 19.4 6.69999 19.5 6.79999C19.8 6.89999 20.1 7.00004 20.4 7.10004C20.7 7.20004 21 7.20001 21.4 7.20001C21.9 7.20001 22.3 7.10002 22.6 6.90002C22.9 6.70002 23 6.50004 23 6.10004C23 5.90004 22.9 5.7 22.8 5.5C22.7 5.3 22.4 5.20004 22 5.10004L20.8 4.70001C20.2 4.50001 19.8 4.20002 19.5 3.90002C19.2 3.50002 19.1 3.10001 19.1 2.70001C19.1 2.40001 19.2 2.09999 19.3 1.79999C19.4 1.49999 19.6 1.30004 19.9 1.10004C20.1 0.900037 20.4 0.800012 20.7 0.700012C21 0.600012 21.4 0.600037 21.7 0.600037C21.9 0.600037 22.1 0.600037 22.2 0.600037C22.4 0.600037 22.6 0.700012 22.7 0.700012C22.9 0.700012 23 0.799988 23.2 0.799988C23.3 0.799988 23.5 0.900024 23.5 0.900024C23.6 1.00002 23.7 1.00004 23.7 1.10004C23.7 1.20004 23.8 1.30002 23.8 1.40002V1.79999C23.8 1.99999 23.7 2.10004 23.6 2.10004C23.5 2.10004 23.4 2.1 23.3 2C22.8 1.8 22.3 1.70001 21.7 1.70001C21.2 1.70001 20.9 1.80002 20.6 1.90002C20.3 2.10002 20.2 2.30004 20.2 2.60004C20.2 2.80004 20.3 3.00001 20.4 3.20001C20.6 3.40001 20.9 3.50004 21.3 3.60004L22.4 4C23 4.2 23.4 4.39999 23.7 4.79999C24 5.09999 24.1 5.50002 24.1 5.90002C24.1 6.20002 24 6.59999 23.9 6.79999C23.8 7.09999 23.6 7.3 23.3 7.5C23 7.7 22.8 7.8 22.4 8C22.2 8.1 21.8 8.20001 21.4 8.20001Z" fill="#606060"/>
<path fill-rule="evenodd" clip-rule="evenodd" d="M22.8999 12.1001C20.1999 14.1001 16.3998 15.1001 13.0998 15.1001C8.39984 15.1001 4.29984 13.4 1.09984 10.5C0.79984 10.3 1.09989 10.0001 1.39989 10.1001C4.79989 12.1001 8.99989 13.3 13.3999 13.3C16.2999 13.3 19.5998 12.7001 22.5998 11.4001C22.9998 11.3001 23.2999 11.8001 22.8999 12.1001Z" fill="#606060"/>
<path fill-rule="evenodd" clip-rule="evenodd" d="M23.9995 10.9C23.6995 10.5 21.7996 10.7 20.8996 10.8C20.5996 10.8 20.5995 10.6 20.7995 10.4C22.2995 9.30005 24.7995 9.60002 25.0995 10C25.3995 10.4 24.9995 12.9001 23.5995 14.1001C23.3995 14.3001 23.1995 14.2 23.2995 13.9C23.5995 13.1 24.2995 11.3 23.9995 10.9Z" fill="#606060"/>
</svg>
