<?xml version="1.0" encoding="UTF-8"?>
<svg id="_圖層_2" data-name="圖層 2" xmlns="http://www.w3.org/2000/svg" viewBox="0 0 34.57 34.57">
  <defs>
    <style>
      .cls-1 {
        fill: #183464;
      }

      .cls-2 {
        fill: #1e92cd;
      }

      .cls-3 {
        fill: none;
        stroke: #231815;
        stroke-miterlimit: 10;
        stroke-width: .93px;
      }
    </style>
  </defs>
  <g id="_圖層_1-2" data-name="圖層 1">
    <g>
      <g>
        <g>
          <g>
            <path class="cls-2" d="M17.28,8.22c-.35,0-.63-.28-.63-.63v-2.09c0-.35.28-.63.63-.63s.63.28.63.63v2.09c0,.35-.28.63-.63.63Z"/>
            <path class="cls-2" d="M9.91,12.48c-.11,0-.21-.03-.31-.08l-1.81-1.05c-.3-.17-.4-.55-.23-.85.17-.3.56-.4.85-.23l1.81,1.05c.3.17.4.55.23.85-.12.2-.33.31-.54.31Z"/>
            <path class="cls-2" d="M24.66,12.48c-.22,0-.43-.11-.54-.31-.17-.3-.07-.68.23-.85l1.81-1.05c.3-.17.68-.07.85.23.17.3.07.68-.23.85l-1.81,1.05c-.1.06-.21.08-.31.08Z"/>
          </g>
          <path class="cls-2" d="M21.51,9.35c-.11,0-.21-.03-.31-.08-.3-.17-.4-.55-.23-.85l1.78-3.11c.17-.3.55-.4.85-.23.3.17.4.55.23.85l-1.78,3.11c-.12.2-.33.31-.54.31Z"/>
          <path class="cls-2" d="M13,9.38c-.22,0-.42-.11-.54-.31l-1.8-3.09c-.17-.3-.07-.68.23-.85.3-.17.68-.07.85.23l1.8,3.09c.17.3.07.68-.23.85-.1.06-.21.08-.31.08Z"/>
          <path class="cls-2" d="M5.19,16.78c-.34,0-.62-.28-.63-.62,0-.35.28-.63.62-.63h2.91c.34-.01.63.27.63.61,0,.35-.28.63-.62.63h-2.91s0,.01,0,.01Z"/>
          <path class="cls-2" d="M26.47,16.7c-.34,0-.62-.28-.63-.62,0-.35.28-.63.62-.63h2.91s0-.01,0-.01c.34,0,.62.28.63.62,0,.35-.28.63-.62.63h-2.91s0,.01,0,.01Z"/>
        </g>
        <path class="cls-2" d="M17.57,10.12c-4.02-.15-7.32,2.97-7.32,6.84,0,2.33,1.2,4.39,3.03,5.63.5.34.82.87.82,1.47v.02c0,.39.33.71.73.71h1.89v-4.57c-1.16-.25-2.02-1.18-2.02-2.29,0-.35.28-.63.63-.63s.63.28.63.63c0,.61.63,1.11,1.4,1.11s1.4-.5,1.4-1.11c0-.35.28-.63.63-.63s.63.28.63.63c0,1.11-.86,2.04-2.02,2.29v4.57h1.79c.4,0,.73-.32.73-.71v-.02c0-.59.32-1.12.81-1.46,1.85-1.24,3.05-3.32,3.04-5.66-.02-3.62-3.05-6.68-6.77-6.81Z"/>
        <path class="cls-1" d="M20.28,26.03h-5.99c-.49,0-.88.39-.88.88s.39.88.88.88h.97v.83c0,.59.48,1.06,1.06,1.06h2.05c.59,0,1.06-.48,1.06-1.06v-.83h.84c.49,0,.88-.39.88-.88s-.39-.88-.88-.88Z"/>
      </g>
      <rect class="cls-3" x=".47" y=".47" width="33.63" height="33.63" rx="8.41" ry="8.41"/>
    </g>
  </g>
</svg>