<?xml version="1.0" encoding="UTF-8"?>
<svg id="_圖層_2" data-name="圖層 2" xmlns="http://www.w3.org/2000/svg" viewBox="0 0 34.57 34.57">
  <defs>
    <style>
      .cls-1 {
        fill: #183464;
      }

      .cls-2 {
        fill: #1e92cd;
      }

      .cls-3 {
        fill: none;
        stroke: #231815;
        stroke-miterlimit: 10;
        stroke-width: .93px;
      }
    </style>
  </defs>
  <g id="_圖層_1-2" data-name="圖層 1">
    <g>
      <g>
        <path class="cls-2" d="M28.11,15.49l-1.88-.02c-.17,0-.28-.16-.31-.26-.22-.99-.58-1.94-1.15-2.82-.06-.09-.05-.2.03-.28l1.45-1.48c.31-.32.3-.83-.03-1.15l-1.36-1.33c-.33-.32-.84-.32-1.23.07l-1.39,1.46c-.07.08-.19.08-.28.03-.85-.54-1.78-.92-2.74-1.13-.1-.02-.18-.11-.18-.22v-2.07c0-.44-.38-.8-.84-.8h-1.9c-.46,0-.83.37-.83.92v1.87c0,.17-.15.28-.26.31-.96.22-1.89.6-2.74,1.15-.09.06-.21.05-.28-.03l-1.54-1.52c-.32-.31-.82-.31-1.13,0l-1.29,1.31c-.31.31-.31.82.09,1.21l1.45,1.44c.08.08.08.19.03.28-.56.88-.94,1.8-1.15,2.78-.02.1-.11.18-.22.17h-2.07c-.44-.01-.8.36-.81.81v1.9c-.01.46.35.83.9.83h1.88c.25,0,.29.24.29.24.31,1.02.56,1.91,1.16,2.84.06.09.05.2-.03.28l-1.45,1.47c-.31.32-.3.83.03,1.15l1.36,1.33c.33.32.84.33,1.23-.07l.41-.43-.19-2.45c0-1.08.48-1.71.88-2.05.12-.1.24-.18.38-.25-.82-1.05-1.31-2.37-1.31-3.8,0-3.41,2.77-6.18,6.18-6.18s6.18,2.77,6.18,6.18c0,1.43-.49,2.74-1.3,3.79.14.08.28.17.4.27.4.34.88.96.88,2.05v.07s-.17,2.21-.17,2.21l.63.62c.32.31.82.31,1.13,0l1.29-1.31c.31-.31.31-.82-.09-1.21l-1.45-1.44c-.08-.08-.08-.19-.03-.28.56-.88.94-1.8,1.15-2.78.02-.1.11-.18.22-.17h2.07c.44.02.8-.35.81-.81v-1.9c.01-.46-.34-.83-.9-.83Z"/>
        <g>
          <path class="cls-1" d="M17.3,21.17c1.63,0,2.95-1.32,2.95-2.95,0-1.42-1.01-2.61-2.35-2.89-.19-.04-.39-.06-.59-.06s-.4.02-.59.06c-1.34.27-2.35,1.46-2.35,2.89,0,1.63,1.32,2.95,2.95,2.95Z"/>
          <path class="cls-1" d="M22.46,23.3c0-1.48-1.24-1.79-2.04-1.65-.13.02-.27.05-.36.15l-2.55,2.09c-.05.06-.13.1-.21.1s-.15-.03-.21-.1l-2.55-2.09c-.09-.1-.22-.13-.36-.15-.8-.14-2.04.16-2.04,1.65l.32,4.25c0,.42.29.78.7.9,1.44.4,4.94,1.13,8.35.01.34-.11.62-.52.63-.88l.32-4.28Z"/>
        </g>
      </g>
      <rect class="cls-3" x=".47" y=".47" width="33.63" height="33.63" rx="8.41" ry="8.41"/>
    </g>
  </g>
</svg>