<?xml version="1.0" encoding="UTF-8"?>
<svg id="_圖層_2" data-name="圖層 2" xmlns="http://www.w3.org/2000/svg" viewBox="0 0 34.57 34.57">
  <defs>
    <style>
      .cls-1 {
        fill: #183464;
      }

      .cls-2 {
        fill: #1e92cd;
      }

      .cls-3 {
        fill: none;
        stroke: #231815;
        stroke-miterlimit: 10;
        stroke-width: .93px;
      }
    </style>
  </defs>
  <g id="_圖層_1-2" data-name="圖層 1">
    <g>
      <g>
        <g>
          <path class="cls-1" d="M7.94,21.54c-.52-1.14-.84-2.39-.91-3.7h3.04c.06,1.22.23,2.54.57,3.94.29.13.56.29.81.48l.39-.31c-.39-1.47-.59-2.84-.65-4.11h3.53c.03-.38.11-.76.25-1.12h-3.8c.02-1.39.19-2.62.41-3.65.14-.61.3-1.18.47-1.71,1.32-.24,2.91-.45,4.67-.5v3.74c.35-.21.73-.37,1.12-.47v-3.29c1.31,0,2.7.11,4.12.34l.06-.09c-.21-.35-.36-.72-.46-1.1-1.3-.18-2.55-.26-3.72-.27v-2.7c1.01.05,1.98.26,2.89.58.13.19.39.6.7,1.18.02-.66.2-1.31.53-1.89-.22-.1-.43-.19-.66-.28-.02,0-.03-.01-.05-.02-1.24-.46-2.58-.72-3.97-.72s-2.74.25-3.97.72c-.01,0-.03.01-.04.02-2.44.92-4.49,2.66-5.8,4.89-.02.03-.04.06-.05.09-.96,1.67-1.52,3.61-1.52,5.67,0,1.67.36,3.25,1.01,4.68.33-.18.68-.32,1.04-.41ZM13.83,7.61c.91-.33,1.88-.53,2.89-.58v2.71c-1.11.03-2.13.12-3.02.23-.42.05-.81.11-1.2.17.55-1.33,1.11-2.21,1.33-2.53ZM12.05,8.46c-.27.53-.56,1.17-.84,1.92-.74.15-1.38.31-1.91.45.76-.94,1.69-1.75,2.74-2.37ZM8.31,12.3c.37-.12,1.24-.4,2.49-.68-.11.37-.21.75-.3,1.15-.25,1.12-.44,2.45-.45,3.95h-3.02c.09-1.6.54-3.1,1.28-4.42Z"/>
          <path class="cls-1" d="M26.62,13.01c.52,1.14.85,2.39.92,3.71h-3.02c-.01-1.09-.11-2.09-.27-2.98l-.95,1.29c.06.53.09,1.1.1,1.69h-.59c.13.36.22.74.25,1.12h.32c-.08,1.65-.39,3.49-1.07,5.48-1.54.27-3.05.39-4.46.39v-1.48c-.22-.06-.44-.13-.65-.23l-.47.37v1.32c-.54-.02-1.06-.05-1.56-.09l-1.28,1.01c.85.1,1.8.18,2.84.21v2.71c-1-.05-1.95-.25-2.86-.57-.27-.49-.51-.98-.73-1.46.02.74-.16,1.49-.53,2.15.21.1.42.19.64.27.02,0,.04.02.07.03,1.24.46,2.58.72,3.97.72s2.73-.25,3.96-.71c.03,0,.05-.02.08-.03,2.43-.93,4.46-2.66,5.77-4.87.03-.03.05-.07.06-.11.96-1.67,1.51-3.6,1.51-5.66,0-1.67-.36-3.25-1.01-4.68-.33.18-.68.32-1.04.41ZM20.7,26.96c-.9.32-1.86.52-2.86.57v-2.7c1.26,0,2.61-.1,4.01-.31-.32.79-.71,1.61-1.16,2.44ZM22.33,26.22c.31-.65.58-1.29.81-1.92.68-.14,1.38-.31,2.07-.52-.8.98-1.78,1.81-2.89,2.43ZM26.26,22.27c-.9.33-1.8.59-2.69.8.58-1.88.85-3.63.93-5.22h3.04c-.09,1.6-.54,3.1-1.28,4.42Z"/>
        </g>
        <g>
          <path class="cls-2" d="M10.74,23.85c.97.99.95,2.57-.03,3.54-.99.97-2.57.95-3.54-.03-.97-.99-.95-2.57.03-3.54.99-.97,2.57-.95,3.54.03Z"/>
          <path class="cls-2" d="M11.24,25.13c-.17,0-.33-.07-.44-.21-.19-.24-.15-.59.09-.79l5.87-4.63c.24-.19.59-.15.79.09.19.24.15.59-.09.79l-5.87,4.63c-.1.08-.23.12-.35.12Z"/>
          <path class="cls-2" d="M20.68,16.43c.97.99.95,2.57-.03,3.54-.99.97-2.57.95-3.54-.03-.97-.99-.95-2.57.03-3.54.99-.97,2.57-.95,3.54.03Z"/>
          <path class="cls-2" d="M23.82,10.7c.97.99,2.55,1,3.54.03.99-.97,1-2.55.03-3.54-.97-.99-2.55-1-3.54-.03-.99.97-1,2.55-.03,3.54Z"/>
          <path class="cls-2" d="M20.37,16.73c-.12,0-.23-.04-.33-.11-.25-.18-.3-.53-.12-.78l3.78-5.1c.18-.25.53-.3.78-.12.25.18.3.53.12.78l-3.78,5.1c-.11.15-.28.23-.45.23Z"/>
        </g>
      </g>
      <rect class="cls-3" x=".47" y=".47" width="33.63" height="33.63" rx="8.41" ry="8.41"/>
    </g>
  </g>
</svg>