<?xml version="1.0" encoding="UTF-8"?>
<svg id="_圖層_2" data-name="圖層 2" xmlns="http://www.w3.org/2000/svg" viewBox="0 0 34.57 34.57">
  <defs>
    <style>
      .cls-1 {
        fill: #183464;
      }

      .cls-2 {
        fill: #1e92cd;
      }

      .cls-3 {
        fill: none;
        stroke: #231815;
        stroke-miterlimit: 10;
        stroke-width: .93px;
      }
    </style>
  </defs>
  <g id="_圖層_1-2" data-name="圖層 1">
    <g>
      <g>
        <path class="cls-1" d="M12.83,8.61c.43.49.78,1.09,1.04,1.74,1.25.46,4.08,1.24,6.79.06.26-.67.62-1.3,1.07-1.8.14-.16.29-.31.39-.51.1-.2.14-.45.04-.65-.17-.35-.6-.36-.94-.31-.88.13-1.8.21-2.51-.36-.47-.37-.94-.64-1.44-.64-.62,0-1.24.18-1.82.76-.59.59-1.32.36-2.13.24-.35-.05-.78-.04-.94.31-.09.2-.05.45.04.65.1.2.25.35.39.51Z"/>
        <path class="cls-1" d="M27.77,25.94c-.6-.83-.9-1.89-1.08-2.95-.17-1.06-.23-2.14-.41-3.19-.61-3.55-2.72-6.73-5.55-8.37-1.1.43-2.2.58-3.21.58-1.48,0-2.77-.33-3.64-.62-2.86,1.64-5,4.83-5.62,8.41-.18,1.06-.23,2.14-.41,3.19-.17,1.06-.47,2.12-1.08,2.95-.31.42-.72.85-.69,1.4.02.36.23.68.51.86.27.18.6.23.91.22,1.15-.03,2.2-.78,3.34-.94-.78-.41-1.23-.74-1.27-.77-.21-.16-.25-.46-.09-.67.16-.21.46-.25.67-.1.02.01,1.66,1.23,4.24,1.82,3.43.79,6.8.17,10.01-1.84.22-.14.52-.07.66.15.14.22.07.52-.15.66-.44.27-.87.52-1.3.74,1.16.13,2.23.91,3.4.94.32,0,.64-.04.91-.22s.49-.5.51-.86c.03-.55-.38-.98-.69-1.4ZM17.28,25.16c-2.77,0-5.02-2.25-5.02-5.02s2.25-5.02,5.02-5.02,5.02,2.25,5.02,5.02-2.25,5.02-5.02,5.02Z"/>
        <g>
          <path class="cls-2" d="M17.28,23.14c-.8,0-1.52-.42-1.83-1.07-.13-.27-.02-.6.26-.73.27-.13.6-.02.73.26.13.27.47.45.84.45.48,0,.89-.31.89-.67s-.15-.46-.98-.64c-.76-.17-1.9-.42-1.9-1.8,0-.98.89-1.77,1.99-1.77.83,0,1.56.44,1.86,1.13.12.28,0,.6-.28.73-.28.12-.6,0-.73-.28-.12-.27-.47-.47-.85-.47-.48,0-.89.31-.89.67,0,.42.15.53,1.04.73.73.16,1.84.41,1.84,1.72,0,.98-.89,1.77-1.99,1.77Z"/>
          <path class="cls-2" d="M17.28,23.98c-.3,0-.55-.25-.55-.55v-.84c0-.3.25-.55.55-.55s.55.25.55.55v.84c0,.3-.25.55-.55.55Z"/>
          <path class="cls-2" d="M17.28,18.24c-.3,0-.55-.25-.55-.55v-.85c0-.3.25-.55.55-.55s.55.25.55.55v.85c0,.3-.25.55-.55.55Z"/>
        </g>
      </g>
      <rect class="cls-3" x=".47" y=".47" width="33.63" height="33.63" rx="8.41" ry="8.41"/>
    </g>
  </g>
</svg>