<?xml version="1.0" encoding="UTF-8"?>
<svg id="_圖層_2" data-name="圖層 2" xmlns="http://www.w3.org/2000/svg" viewBox="0 0 34.57 34.57">
  <defs>
    <style>
      .cls-1 {
        fill: #183464;
      }

      .cls-2 {
        fill: #1e92cd;
      }

      .cls-3 {
        fill: none;
        stroke: #231815;
        stroke-miterlimit: 10;
        stroke-width: .93px;
      }
    </style>
  </defs>
  <g id="_圖層_1-2" data-name="圖層 1">
    <g>
      <g>
        <path class="cls-2" d="M17.73,15.3c-.19,0-.38-.09-.5-.25-.2-.28-.15-.67.13-.87l10.55-7.77c.28-.2.67-.15.87.13.2.28.15.67-.13.87l-10.55,7.77c-.11.08-.24.12-.37.12Z"/>
        <path class="cls-2" d="M27.41,7.78l1.69.64c.26.1.32.45.09.61l-2.62,1.93c-.09.07-.21.08-.32.05l-2.2-.75c-.14-.05-.23-.18-.24-.32l-.06-2.33c0-.11.05-.22.14-.29l2.63-1.94c.22-.16.53,0,.55.27l.11,1.82c0,.14.1.26.23.31Z"/>
        <path class="cls-1" d="M18.65,15.93c-.28.21-.6.3-.93.3-.48,0-.95-.22-1.26-.64-.51-.69-.36-1.67.33-2.19l1.28-.95c-.88-.47-1.87-.48-2.6.05-1.1.81-1.18,2.57-.17,3.93s2.71,1.81,3.81,1c.73-.54,1.01-1.49.82-2.47l-1.28.95Z"/>
        <g>
          <path class="cls-1" d="M11.53,14.5c-.22-1.93.4-3.76,1.85-4.83,2.02-1.49,4.99-1.01,7.16.98l2.56-1.89c-3.48-3.7-8.6-4.73-12.02-2.21-2.58,1.9-3.52,5.34-2.74,8.82.93-.66,2.05-.96,3.18-.88Z"/>
          <path class="cls-1" d="M24.95,11.29l-2.56,1.89c1.26,2.66.84,5.64-1.18,7.13-1.51,1.11-3.54,1.12-5.38.23-.11.41-.26.79-.47,1.16,1.38.43,2.43,1.61,2.79,3.04,1.93.23,3.81-.19,5.35-1.32,3.41-2.52,3.95-7.71,1.45-12.13Z"/>
        </g>
        <path class="cls-1" d="M16.56,29.39c.16,0,.3-.13.31-.29l.18-3.04c.1-1.57-.9-2.96-2.33-3.26l-1.79-.37c1.26-.73,2.06-2.19,1.74-3.82-.26-1.36-1.33-2.49-2.68-2.8-2.36-.54-4.46,1.24-4.46,3.51,0,1.33.73,2.49,1.81,3.11l-1.79.37c-1.42.29-2.42,1.69-2.33,3.26l.18,3.04c0,.16.15.29.31.29h10.83Z"/>
      </g>
      <rect class="cls-3" x=".47" y=".47" width="33.63" height="33.63" rx="8.41" ry="8.41"/>
    </g>
  </g>
</svg>