<?xml version="1.0" encoding="UTF-8"?>
<svg id="_圖層_2" data-name="圖層 2" xmlns="http://www.w3.org/2000/svg" viewBox="0 0 34.57 34.57">
  <defs>
    <style>
      .cls-1 {
        fill: #183464;
      }

      .cls-2 {
        fill: #1e92cd;
      }

      .cls-3 {
        fill: none;
        stroke: #231815;
        stroke-miterlimit: 10;
        stroke-width: .93px;
      }
    </style>
  </defs>
  <g id="_圖層_1-2" data-name="圖層 1">
    <g>
      <g>
        <path class="cls-1" d="M11.41,10.14c1.38,0,2.49-1.12,2.49-2.49s-1.12-2.49-2.49-2.49-2.49,1.12-2.49,2.49,1.12,2.49,2.49,2.49Z"/>
        <path class="cls-1" d="M13.77,24.79l-2.15-2.1c-.42-.41-.57-1.01-.39-1.57.18-.56.65-.96,1.23-1.04l2.93-.43c.2-.3.33-.66.33-1.05l.14-6.28c0-1.26-1.05-1.52-1.73-1.39-.11.02-.31.04-.38.13l-2.17,1.77c-.04.05-.11.08-.17.08s-.13-.03-.17-.08l-2.17-1.77c-.07-.09-.27-.11-.38-.13-.68-.12-1.73.14-1.73,1.39l.14,6.28c0,.96.72,1.75,1.64,1.89.11.1.18.22.18.37l.25,7.42c0,.61.5,1.11,1.12,1.11s1.12-.5,1.12-1.11h0c0,.61.5,1.11,1.12,1.11s1.12-.5,1.12-1.11l.12-3.5Z"/>
        <path class="cls-2" d="M19.35,16.84l1.79,3.62c.05.11.16.18.28.2l3.99.58c.3.04.42.41.2.63l-2.89,2.82c-.09.08-.13.21-.11.33l.68,3.98c.05.3-.26.53-.53.39l-3.57-1.88c-.11-.06-.24-.06-.34,0l-3.57,1.88c-.27.14-.59-.09-.53-.39l.68-3.98c.02-.12-.02-.24-.11-.33l-2.89-2.82c-.22-.21-.1-.58.2-.63l3.99-.58c.12-.02.22-.09.28-.2l1.79-3.62c.13-.27.52-.27.66,0Z"/>
        <path class="cls-2" d="M25.6,10.11l1.36,2.75c.04.08.12.14.21.15l3.04.44c.23.03.32.32.16.48l-2.2,2.14c-.07.06-.1.16-.08.25l.52,3.03c.04.23-.2.4-.41.3l-2.72-1.43c-.08-.04-.18-.04-.26,0l-2.72,1.43c-.21.11-.45-.07-.41-.3l.52-3.03c.02-.09-.01-.18-.08-.25l-2.2-2.14c-.17-.16-.07-.44.16-.48l3.04-.44c.09-.01.17-.07.21-.15l1.36-2.75c.1-.21.4-.21.5,0Z"/>
        <path class="cls-2" d="M19.05,6.03l.9,1.82c.03.05.08.09.14.1l2.01.29c.15.02.21.21.1.32l-1.46,1.42s-.06.1-.05.16l.34,2.01c.03.15-.13.27-.27.2l-1.8-.95c-.05-.03-.12-.03-.17,0l-1.8.95c-.14.07-.3-.04-.27-.2l.34-2.01c.01-.06,0-.12-.05-.16l-1.46-1.42c-.11-.11-.05-.29.1-.32l2.01-.29c.06,0,.11-.05.14-.1l.9-1.82c.07-.14.26-.14.33,0Z"/>
      </g>
      <rect class="cls-3" x=".47" y=".47" width="33.63" height="33.63" rx="8.41" ry="8.41"/>
    </g>
  </g>
</svg>