<?xml version="1.0" encoding="UTF-8"?>
<svg id="_圖層_2" data-name="圖層 2" xmlns="http://www.w3.org/2000/svg" viewBox="0 0 34.57 34.57">
  <defs>
    <style>
      .cls-1 {
        fill: #183464;
      }

      .cls-2 {
        fill: #1e92cd;
      }

      .cls-3 {
        fill: none;
        stroke: #231815;
        stroke-miterlimit: 10;
        stroke-width: .93px;
      }
    </style>
  </defs>
  <g id="_圖層_1-2" data-name="圖層 1">
    <g>
      <g>
        <g>
          <path class="cls-2" d="M17.31,29.33c-2.37,0-4.69-.7-6.71-2.05-4.35-2.91-6.31-8.24-4.9-13.27.09-.31.42-.5.73-.41.31.09.5.42.41.73-1.28,4.53.5,9.34,4.41,11.97,2.41,1.62,5.3,2.2,8.14,1.65,2.84-.55,5.29-2.18,6.9-4.58.18-.27.55-.34.82-.16.27.18.34.55.16.82-1.79,2.67-4.51,4.48-7.66,5.09-.77.15-1.54.22-2.31.22Z"/>
          <path class="cls-2" d="M28.26,21.14c-.06,0-.11,0-.17-.02-.31-.09-.49-.42-.4-.74.65-2.17.59-4.56-.17-6.71-.78-2.23-2.23-4.1-4.2-5.41-4.97-3.33-11.73-1.99-15.06,2.98-.18.27-.55.34-.82.16-.27-.18-.34-.55-.16-.82,3.69-5.52,11.19-7,16.7-3.31,2.18,1.46,3.79,3.54,4.66,6.01.84,2.39.9,5.03.18,7.44-.08.26-.31.42-.57.42Z"/>
          <path class="cls-2" d="M7.74,11.54c-.28,0-.53-.2-.58-.48l-.34-1.69c-.06-.32.15-.63.47-.7.32-.06.63.14.7.47l.23,1.17,1.12-.1c.33-.03.61.21.64.54.03.33-.21.61-.54.64l-1.65.15s-.04,0-.05,0Z"/>
          <path class="cls-2" d="M27.11,25.95c-.28,0-.52-.2-.58-.48l-.23-1.14-1.23.11c-.33.03-.61-.21-.64-.54-.03-.33.21-.61.54-.64l1.76-.15c.3-.03.57.18.63.47l.33,1.66c.06.32-.15.63-.47.7-.04,0-.08.01-.12.01Z"/>
        </g>
        <path class="cls-1" d="M25.63,17.28v-.15s0,0,0,0v-.75c0-.33-.26-.59-.58-.59h-1.47c-.08.01-.14-.04-.16-.12-.15-.7-.42-1.35-.82-1.98-.04-.06-.03-.14.02-.2l1.03-1.03c.28-.28.28-.64.06-.86l-.92-.93c-.22-.22-.58-.22-.81,0l-1.09,1.08c-.05.05-.14.06-.2.02-.6-.39-1.26-.66-1.95-.82-.07-.02-.18-.1-.18-.22v-1.33c0-.4-.26-.65-.59-.65h-1.35c-.33,0-.59.25-.59.56v1.47c0,.08-.05.14-.13.16-.68.15-1.34.42-1.95.81-.06.04-.14.03-.19-.02l-.99-1.04c-.28-.28-.64-.28-.88-.05l-.97.95c-.23.23-.24.59-.02.82l1.03,1.05c.05.05.06.14.02.2-.42.66-.6,1.29-.82,2.01,0,0-.03.17-.21.16h-1.33c-.4.01-.65.28-.65.6v.84s0,.84,0,.84c0,.33.25.59.65.59h1.33c.18,0,.21.17.21.17.22.73.4,1.36.82,2.01.04.06.04.15-.02.2l-1.03,1.05c-.22.22-.21.59.02.82l.97.95c.23.23.6.23.88-.05l.99-1.04c.05-.05.13-.06.19-.02.61.38,1.27.66,1.95.81.07.02.13.08.13.16v1.47c0,.31.27.57.59.57h1.35c.33,0,.59-.26.59-.65v-1.33c0-.12.11-.2.18-.22.68-.15,1.34-.43,1.95-.82.06-.04.15-.03.2.02l1.09,1.08c.22.22.59.22.81,0l.92-.93c.22-.22.22-.58-.06-.86l-1.03-1.02c-.05-.05-.06-.13-.02-.2.4-.62.67-1.28.82-1.97.02-.07.08-.13.16-.13h1.47c.31.01.57-.25.57-.58v-.75s0,0,0,0v-.15ZM17.29,21.02c-1.99,0-3.62-1.56-3.73-3.53h0c0-.07-.01-.14-.01-.21,0-.07,0-.14.01-.21h0c.11-1.97,1.73-3.53,3.73-3.53s3.62,1.56,3.73,3.53h0c0,.07.01.14.01.21,0,.07,0,.14-.01.21h0c-.11,1.97-1.73,3.53-3.73,3.53Z"/>
      </g>
      <rect class="cls-3" x=".47" y=".47" width="33.63" height="33.63" rx="8.41" ry="8.41"/>
    </g>
  </g>
</svg>