<?xml version="1.0" encoding="UTF-8"?>
<svg id="_圖層_2" data-name="圖層 2" xmlns="http://www.w3.org/2000/svg" viewBox="0 0 34.57 34.57">
  <defs>
    <style>
      .cls-1 {
        fill: #183464;
      }

      .cls-2 {
        fill: none;
        stroke: #231815;
        stroke-miterlimit: 10;
        stroke-width: .93px;
      }

      .cls-3 {
        fill: #1e94cf;
      }
    </style>
  </defs>
  <g id="_圖層_1-2" data-name="圖層 1">
    <g>
      <g>
        <path class="cls-3" d="M26.44,18.78l-1.11-1.16c-.36-.38-.56-.88-.56-1.41v-1.49c.02-1.12-.88-2.02-2-2.02h-1.61c-.53,0-1.04-.21-1.42-.58l-1.03-1.03c-.78-.78-2.04-.78-2.83,0l-1.05,1.04c-.38.37-.88.58-1.41.58h-1.62c-1.12,0-2.02.91-2.01,2.02v1.49c.02.52-.18,1.03-.55,1.41l-1.11,1.16c-.76.79-.74,2.04.03,2.81l1.06,1.06c.37.37.58.86.59,1.38l.03,1.58c.02,1.09.92,1.97,2.01,1.97h1.47c.53,0,1.04.21,1.42.58l1.14,1.13c.79.78,2.05.78,2.84,0l1.12-1.12c.38-.38.89-.59,1.42-.59h1.47c1.09,0,1.99-.87,2.01-1.97l.03-1.58c.01-.52.22-1.01.59-1.38l1.06-1.06c.77-.77.79-2.02.03-2.81ZM17.28,25.65c-3.2,0-5.79-2.59-5.79-5.79s2.59-5.79,5.79-5.79,5.79,2.59,5.79,5.79-2.59,5.79-5.79,5.79Z"/>
        <path class="cls-3" d="M16.47,22.73c-.16,0-.3-.07-.41-.18l-2.5-2.75c-.21-.23-.19-.58.04-.78.23-.2.58-.19.78.04l2.09,2.3,3.72-4.18c.2-.23.55-.25.78-.05.23.2.25.55.05.78l-4.13,4.64c-.1.12-.25.18-.41.19h0Z"/>
        <g>
          <path class="cls-1" d="M11.92,11.59h1.49c.11,0,.23-.02.33-.06l-1.72-3.9c-.03-.06-.08-.09-.15-.09h-5.48c-.11,0-.19.11-.15.22l2.45,6.1c.02.05.09.05.11,0,.21-.75.69-1.41,1.43-1.84.51-.29,1.09-.41,1.68-.41Z"/>
          <path class="cls-1" d="M22.65,11.59c.58,0,1.17.12,1.67.42.74.43,1.22,1.1,1.43,1.85.02.05.09.06.11,0l2.46-6.12c.04-.1-.03-.22-.15-.22h-5.48c-.06,0-.12.04-.15.09l-1.72,3.9c.1.04.21.06.32.06h1.51Z"/>
        </g>
      </g>
      <rect class="cls-2" x=".47" y=".47" width="33.63" height="33.63" rx="8.41" ry="8.41"/>
    </g>
  </g>
</svg>