<?xml version="1.0" encoding="UTF-8"?>
<svg id="_圖層_2" data-name="圖層 2" xmlns="http://www.w3.org/2000/svg" viewBox="0 0 34.57 34.57">
  <defs>
    <style>
      .cls-1 {
        fill: #183464;
      }

      .cls-2 {
        fill: #1e92cd;
      }

      .cls-3 {
        fill: none;
        stroke: #231815;
        stroke-miterlimit: 10;
        stroke-width: .93px;
      }
    </style>
  </defs>
  <g id="_圖層_1-2" data-name="圖層 1">
    <g>
      <g>
        <path class="cls-2" d="M10.49,3.64c3.14.05,5.7,2.85,5.29,5.87-.16,1.18-.75,2.2-1.36,3.2-.96,1.56-2.08,3-3.29,4.38-.39.44-.87.45-1.24.02-1.48-1.71-2.89-3.48-3.93-5.5-.46-.88-.82-1.8-.79-2.82.07-2.22,1.73-4.33,3.87-4.88.48-.12.97-.17,1.45-.26ZM8.21,9.04c0,1.24,1.05,2.27,2.29,2.26,1.25,0,2.27-1.04,2.27-2.28,0-1.26-1.06-2.31-2.31-2.28-1.25.02-2.26,1.05-2.25,2.3Z"/>
        <path class="cls-1" d="M7.53,16.71c.39.46.76.9,1.13,1.32,1.08,1.23,2.61,1.21,3.68-.03,1.34-1.55,2.6-3.15,3.61-4.94.12-.21.26-.23.46-.23,2.15,0,4.29,0,6.44,0,.51,0,.8.17.92.52.13.36-.01.68-.45.98-5.15,3.57-10.3,7.14-15.46,10.7-.32.22-.65.45-.97.67-.3.2-.62.25-.92.03-.3-.21-.38-.51-.3-.87.6-2.68,1.19-5.37,1.79-8.05,0-.02.02-.04.07-.12Z"/>
        <path class="cls-1" d="M22.48,25.21c-.08-.16-.16-.33-.24-.49-1.91-1.01-3.82-2.02-5.73-3.04-.45-.24-.82-.21-1.23.08-1.79,1.25-3.59,2.49-5.38,3.73-.53.37-1.07.74-1.6,1.11-.4.28-.54.59-.43.92.12.38.4.56.89.57.09,0,.18,0,.27,0h8.04c2.43,0,4.86,0,7.28,0-.7-.9-1.33-1.85-1.86-2.87Z"/>
        <path class="cls-1" d="M25.08,18.73c.4-.1.82-.15,1.22-.22.47,0,.93.09,1.36.23-.27-1.19-.53-2.39-.8-3.58-.15-.69-.71-.92-1.29-.52-2.39,1.65-4.78,3.3-7.17,4.97-.61.43-.56,1.06.1,1.41,1.1.58,2.2,1.17,3.3,1.75.09-1.84,1.47-3.58,3.26-4.05Z"/>
        <path class="cls-2" d="M26.3,20.06c1.83.03,3.32,1.66,3.08,3.42-.09.69-.44,1.28-.79,1.86-.56.91-1.21,1.75-1.92,2.55-.23.26-.51.26-.72.01-.87-1-1.68-2.03-2.29-3.21-.27-.51-.48-1.05-.46-1.65.04-1.29,1.01-2.52,2.26-2.84.28-.07.56-.1.85-.15ZM24.98,23.21c0,.73.61,1.32,1.34,1.32.73,0,1.32-.6,1.33-1.33,0-.73-.62-1.34-1.35-1.33-.73.01-1.32.61-1.31,1.34Z"/>
      </g>
      <rect class="cls-3" x=".47" y=".47" width="33.63" height="33.63" rx="8.41" ry="8.41"/>
    </g>
  </g>
</svg>