<svg width="21" height="19" viewBox="0 0 21 19" fill="none" xmlns="http://www.w3.org/2000/svg">
<path d="M19.9004 4.20001C19.9004 5.30001 19.0004 6.20001 17.9004 6.20001C16.8004 6.20001 15.9004 5.30001 15.9004 4.20001C15.9004 3.10001 16.8004 2.20001 17.9004 2.20001C19.0004 2.20001 19.9004 3.10001 19.9004 4.20001Z" fill="#606060"/>
<path d="M20.4001 8.20001V13C20.4001 14.7 19.0002 16.2 17.2002 16.2C17.0002 16.2 16.9002 16.2 16.7002 16.1C17.0002 15.3 17.1002 14.5 17.1002 13.7V7.40002H19.7002C20.1002 7.50002 20.4001 7.80001 20.4001 8.20001Z" fill="#606060"/>
<path d="M9.69983 4.60004H0.999756C0.599756 4.60004 0.299805 4.89999 0.299805 5.29999V14C0.299805 14.4 0.599756 14.7 0.999756 14.7H9.69983C10.0998 14.7 10.3998 14.4 10.3998 14V5.29999C10.3998 4.89999 10.0998 4.60004 9.69983 4.60004ZM7.7998 7.90002H6.09985V12.7H4.69983V7.90002H2.99976V6.70001H7.89978L7.7998 7.90002Z" fill="#606060"/>
<path d="M13.6 5C13.1 5.7 12.2999 6.10001 11.4999 6.20001V5.20001C11.4999 4.30001 10.8 3.5 9.8 3.5H8.39997C8.29997 2.6 8.69997 1.6 9.39997 0.999996C10.2 0.299996 11.2 0.10002 12.2 0.40002C13.1 0.70002 13.9 1.40002 14.2 2.40002C14.4 3.40002 14.2 4.3 13.6 5Z" fill="#606060"/>
<path d="M16.0999 8.20001V13.7C16.1999 16.6 13.8998 19 10.9998 19C8.89976 18.9 7.0998 17.7 6.2998 15.8H9.69983C10.5998 15.8 11.3998 15 11.3998 14.1V7.40002H15.2998C15.7998 7.50002 16.1999 7.80001 16.0999 8.20001Z" fill="#606060"/>
</svg>
