<svg width="20" height="21" viewBox="0 0 20 21" fill="none" xmlns="http://www.w3.org/2000/svg">
<g clip-path="url(#clip0_8826_106233)">
<path d="M8.92889 14.9498L5.11251 16.9548C5.07651 16.9724 5.0405 16.99 5.0045 17.0075C4.75247 17.1307 4.46445 17.2362 4.19442 17.3065C3.56436 17.4648 2.91629 17.4648 2.26823 17.3065C2.21422 17.2889 2.16022 17.2714 2.08821 17.2538C2.0342 17.2362 1.9982 17.2186 1.94419 17.201C1.87219 17.1834 1.80018 17.1482 1.72817 17.1131C0.648065 16.4096 0 15.2312 0 13.9296V7.07035C0 5.62814 0.792079 4.32663 2.08821 3.6407L6.10261 1.53015C6.0306 1.67085 5.9766 1.82915 5.94059 1.96985C5.94059 1.98744 5.94059 1.98744 5.92259 2.00503C5.90459 2.07538 5.88659 2.14573 5.86859 2.19849C5.85058 2.28643 5.81458 2.39196 5.79658 2.4799C5.77858 2.56784 5.76058 2.63819 5.76058 2.70854C5.74257 2.7789 5.74257 2.86684 5.72457 2.93719C5.72457 2.93719 5.72457 2.95477 5.72457 2.97236C5.72457 3.0603 5.70657 3.13065 5.70657 3.20101C5.70657 3.28895 5.70657 3.37689 5.70657 3.44724V10.2714C5.70657 12.0653 6.71467 13.7362 8.31683 14.598L8.92889 14.9498Z" fill="#606060"/>
<path d="M19.9815 14.0176C19.9635 15.4071 19.1534 16.691 17.8933 17.3593L11.8807 20.5427C10.6926 21.1759 9.28846 21.1759 8.10034 20.5427L4.08594 18.4146C4.10394 18.4146 4.12194 18.4146 4.15794 18.397C4.21195 18.397 4.26596 18.3794 4.31996 18.3618C4.37397 18.3442 4.42797 18.3442 4.46398 18.3267C4.51798 18.3091 4.57199 18.2915 4.60799 18.2915C4.662 18.2739 4.716 18.2563 4.752 18.2563C4.80601 18.2387 4.84201 18.2211 4.89602 18.2035C4.95002 18.1859 5.00403 18.1684 5.05803 18.1508C5.11204 18.1332 5.18405 18.098 5.25605 18.0804C5.38207 18.0277 5.50808 17.9749 5.63409 17.9045L11.1786 14.9498L11.6467 14.7035C13.2849 13.8417 14.293 12.1709 14.293 10.3593V8.93469L17.8033 10.6583C17.8753 10.6935 17.9653 10.7463 18.0373 10.7814C18.4334 11.0101 18.7574 11.2915 19.0454 11.6256C19.0994 11.696 19.1534 11.7488 19.1894 11.8191L19.2074 11.8367C19.2795 11.9422 19.3515 12.0302 19.4235 12.1533C19.4415 12.1885 19.4595 12.2236 19.4775 12.2588C19.5315 12.3468 19.5675 12.4347 19.6035 12.5226C19.6395 12.593 19.6755 12.6633 19.6935 12.7337C19.7475 12.8568 19.7835 12.9799 19.8195 13.103C19.8375 13.1382 19.8375 13.191 19.8555 13.2261C19.8735 13.3141 19.8915 13.402 19.9095 13.49C19.9095 13.5251 19.9275 13.5603 19.9275 13.5955C19.9455 13.6483 19.9455 13.701 19.9455 13.7538C19.9455 13.789 19.9455 13.8417 19.9635 13.8945C19.9815 13.9297 19.9815 13.9648 19.9815 14.0176Z" fill="#606060"/>
<path d="M19.9999 7.0703V11.0804C19.9819 11.0452 19.9459 11.0276 19.9279 10.9924C19.9099 10.9748 19.8919 10.9572 19.8739 10.9397C19.8559 10.9045 19.8199 10.8869 19.8019 10.8517C19.7659 10.7989 19.7118 10.7638 19.6758 10.711C19.6398 10.6758 19.6218 10.6582 19.5858 10.6231C19.4958 10.5351 19.4058 10.4472 19.2978 10.3768C19.2618 10.3417 19.2258 10.3241 19.1898 10.2889C19.1718 10.2713 19.1718 10.2713 19.1538 10.2537C19.0818 10.201 19.0278 10.1482 18.9558 10.113C18.9198 10.0954 18.9018 10.0778 18.8658 10.0427C18.8298 10.0251 18.7938 10.0075 18.7758 9.9899C18.7578 9.9899 18.7578 9.97231 18.7398 9.97231C18.6857 9.93714 18.6497 9.91955 18.5957 9.88437C18.5057 9.83161 18.4157 9.79643 18.3257 9.74367L13.2132 7.21101L12.2771 6.75372C11.557 6.40196 10.783 6.22608 9.99088 6.22608C9.2168 6.22608 8.42472 6.40196 7.70465 6.75372L7.56063 6.82407L6.76855 7.21101V3.46478C6.76855 3.27131 6.78656 3.07784 6.80456 2.88437C6.82256 2.81402 6.82256 2.72608 6.84056 2.65573C6.85856 2.58538 6.87657 2.51503 6.89457 2.42709C6.91257 2.35674 6.93057 2.28638 6.96657 2.21603C6.98458 2.14568 7.02058 2.07533 7.05658 2.00498C7.12859 1.8291 7.2186 1.65322 7.30861 1.49493C7.34461 1.42457 7.38062 1.37181 7.43462 1.30146C7.52463 1.17834 7.61464 1.05523 7.72265 0.9497C7.92067 0.721057 8.15469 0.510001 8.42472 0.334122C9.54083 -0.15834 10.819 -0.0879886 11.8811 0.457238L17.8937 3.64065C19.1898 4.32658 19.9999 5.62809 19.9999 7.0703Z" fill="#606060"/>
</g>
<defs>
<clipPath id="clip0_8826_106233">
<rect width="20" height="21" fill="white"/>
</clipPath>
</defs>
</svg>
