<svg width="18" height="16" viewBox="0 0 18 16" fill="none" xmlns="http://www.w3.org/2000/svg">
<path d="M11.3002 15C11.4002 15.3 11.2002 15.6 10.9002 15.7C10.8002 15.7 10.8002 15.7 10.7002 15.7H10.5002C10.4002 15.7 10.2002 15.6 10.1002 15.5L5.10016 10.8V10.7C5.10016 10.6 5.20017 10.6 5.30017 10.6H9.90021L11.3002 15ZM17.0002 15.8C17.3002 15.8 17.6002 15.5 17.6002 15.2C17.6002 15.1 17.6002 15.1 17.6002 15L12.8002 0.900024C12.7002 0.700024 12.5002 0.5 12.3002 0.5H7.60016C7.70016 0.6 7.7002 0.699988 7.7002 0.799988L12.5002 14.9C12.6002 15.2 12.5002 15.5 12.4002 15.8H17.0002ZM6.60016 0.900024C6.50016 0.700024 6.30016 0.5 6.10016 0.5H6.00018C5.80018 0.5 5.50018 0.700024 5.50018 0.900024L0.700195 15C0.700195 15.1 0.700195 15.1 0.700195 15.2C0.700195 15.5 1.00017 15.8 1.30017 15.8H5.10016C5.30016 15.8 5.60016 15.6 5.60016 15.4L6.2002 13.5L4.40021 11.8C4.10021 11.5 4.00018 11.2 4.00018 10.8C4.00018 10.1 4.60017 9.5 5.30017 9.5H7.60016L8.50018 6.70001L6.60016 0.900024Z" fill="#606060"/>
</svg>
