<svg width="27" height="19" viewBox="0 0 27 19" fill="none" xmlns="http://www.w3.org/2000/svg">
<path fill-rule="evenodd" clip-rule="evenodd" d="M10.5005 8.5C10.4005 8.5 10.3006 8.50001 10.2006 8.70001C10.2006 8.70001 10.2006 8.79999 10.1006 8.79999H10.8005C10.8005 8.79999 10.8006 8.70001 10.7006 8.70001C10.7006 8.50001 10.6005 8.5 10.5005 8.5Z" fill="#606060"/>
<path fill-rule="evenodd" clip-rule="evenodd" d="M23.0005 8.5C22.9005 8.5 22.8006 8.50001 22.7006 8.70001C22.7006 8.70001 22.7006 8.79999 22.6006 8.79999H23.3005C23.3005 8.69999 23.3006 8.70001 23.2006 8.70001C23.2006 8.50001 23.1005 8.5 23.0005 8.5Z" fill="#606060"/>
<path fill-rule="evenodd" clip-rule="evenodd" d="M16.8004 8.5C16.6004 8.5 16.5004 8.60004 16.5004 8.60004C16.4004 8.70004 16.4004 8.90004 16.4004 9.10004C16.4004 9.30004 16.4004 9.50004 16.5004 9.60004C16.5004 9.70004 16.6004 9.70001 16.8004 9.70001C17.0004 9.70001 17.1005 9.60004 17.1005 9.60004C17.2005 9.50004 17.2004 9.30004 17.2004 9.10004C17.2004 8.90004 17.2005 8.70004 17.1005 8.60004C17.0005 8.60004 17.0004 8.5 16.8004 8.5Z" fill="#606060"/>
<path fill-rule="evenodd" clip-rule="evenodd" d="M6.6001 9.50002C6.6001 9.50002 6.5 9.60003 6.5 9.70003C6.5 9.80003 6.5 9.80001 6.5 9.80001C6.5 9.80001 6.5001 9.80004 6.6001 9.90004C6.6001 9.90004 6.7 10 7 10C7.1 10 7.20005 10 7.30005 10V9.60005C7.20005 9.60005 7.1 9.60005 7 9.60005C6.7 9.40005 6.6001 9.50002 6.6001 9.50002Z" fill="#606060"/>
<path fill-rule="evenodd" clip-rule="evenodd" d="M20.6998 3.20001C19.8998 3.20001 19.1998 3.40001 18.4998 3.70001C17.6998 2.30001 16.1998 1.29999 14.4998 1.29999C13.1998 1.29999 12.0998 1.80001 11.1998 2.70001C10.2998 1.50001 8.79984 0.700012 7.19984 0.700012C4.39984 0.700012 2.19984 2.90001 2.19984 5.70001C2.19984 6.40001 2.29986 7.10001 2.59986 7.70001C1.29986 8.50001 0.399764 9.9 0.499764 11.5C0.499764 13.9 2.39981 15.8 4.79981 15.8C5.09981 15.8 5.39984 15.8 5.69984 15.7C6.39984 17.5 7.99976 18.7 9.99976 18.7C11.9998 18.7 13.5998 17.5 14.2998 15.9C14.7998 16.2 15.3999 16.3 16.0999 16.3C17.5999 16.3 18.8999 15.5 19.5999 14.2C19.9999 14.3 20.2998 14.3 20.6998 14.3C23.7998 14.3 26.1998 11.8 26.1998 8.70001C26.1998 5.70001 23.6998 3.20001 20.6998 3.20001ZM7.89979 10.4H7.79981C7.69981 10.4 7.59979 10.5 7.39979 10.5C7.09979 10.6 6.69976 10.6 6.49976 10.5C6.39976 10.5 6.19986 10.4 6.09986 10.3C5.99986 10.2 5.89981 10.1 5.79981 10C5.79981 9.9 5.69984 9.89999 5.69984 9.79999C5.59984 10.3 5.19984 10.5 4.69984 10.5C4.39984 10.5 4.09981 10.4 3.79981 10.3L3.69984 10.2C3.69984 10.2 3.59984 10.1 3.69984 10L3.79981 9.70001C3.79981 9.60001 3.89979 9.60004 3.89979 9.60004C3.99979 9.60004 3.99986 9.60004 4.09986 9.60004L4.19984 9.70001C4.39984 9.80001 4.59981 9.90002 4.79981 9.90002C4.89981 9.90002 4.99976 9.89999 4.99976 9.79999C4.99976 9.69999 4.79986 9.70004 4.59986 9.60004H4.49976C4.19976 9.50004 3.59986 9.40001 3.59986 8.70001C3.59986 8.20001 3.99986 7.79999 4.59986 7.79999H4.69984C4.99984 7.79999 5.29986 7.9 5.59986 8C5.69986 8.1 5.69984 8.20001 5.69984 8.20001L5.59986 8.60004L5.49976 8.70001C5.39976 8.70001 5.29981 8.70001 5.29981 8.70001C5.09981 8.60001 4.89984 8.5 4.69984 8.5C4.59984 8.5 4.49976 8.50004 4.49976 8.60004C4.49976 8.70004 4.69979 8.79999 4.89979 8.79999C5.19979 8.89999 5.59984 9 5.69984 9.5C5.69984 9.4 5.69981 9.29999 5.79981 9.29999C5.89981 9.19999 5.99986 9.1 6.09986 9C6.19986 8.9 6.29976 8.89999 6.49976 8.79999C6.69976 8.69999 6.99984 8.69999 7.19984 8.79999C7.19984 8.79999 7.19981 8.79999 7.29981 8.79999C7.29981 8.69999 7.29984 8.70001 7.19984 8.70001C7.19984 8.70001 7.09979 8.60004 6.89979 8.60004C6.89979 8.60004 6.49981 8.60001 6.29981 8.70001C6.29981 8.70001 6.19986 8.70001 6.09986 8.70001H5.99976V8.60004L5.89979 8.29999C5.89979 8.19999 5.89976 8.1 5.99976 8C6.19976 7.9 6.49976 7.79999 6.49976 7.79999C6.69976 7.79999 6.79979 7.79999 6.89979 7.79999C7.29979 7.79999 7.49984 7.90004 7.69984 8.10004C7.89984 8.30004 7.99976 8.50002 7.99976 8.90002V10.3C8.09976 10.3 7.99979 10.4 7.89979 10.4ZM9.09986 10.3C9.09986 10.4 8.99979 10.5 8.89979 10.5H8.49976C8.39976 10.5 8.29981 10.4 8.29981 10.3V7C8.29981 6.9 8.39976 6.79999 8.49976 6.79999H8.89979C8.99979 6.79999 9.09986 6.9 9.09986 7V10.3ZM11.4998 9.5H10.0999C10.0999 9.6 10.1998 9.70001 10.1998 9.70001C10.2998 9.80001 10.3999 9.79999 10.5999 9.79999C10.8999 9.79999 11.0998 9.70001 11.1998 9.70001C11.2998 9.70001 11.3998 9.69999 11.4998 9.79999L11.5999 10.1C11.6999 10.2 11.5998 10.3 11.4998 10.4C11.3998 10.5 11.0999 10.6 10.5999 10.6C10.3999 10.6 10.1998 10.6 9.99976 10.5C9.79976 10.4 9.69976 10.3 9.49976 10.2C9.39976 10.1 9.29984 9.90001 9.19984 9.70001C9.09984 9.50001 9.09986 9.30001 9.09986 9.20001C9.09986 9.00001 9.09984 8.80001 9.19984 8.70001C9.19984 8.50001 9.29979 8.40001 9.39979 8.20001C9.49979 8.10001 9.69981 8.00002 9.79981 7.90002C9.99981 7.80002 10.1998 7.79999 10.3998 7.79999C10.5998 7.79999 10.6998 7.80002 10.8998 7.90002C10.9998 8.00002 11.0998 8.00001 11.2998 8.20001C11.3998 8.30001 11.4998 8.50004 11.4998 8.60004C11.5998 8.90004 11.5999 9.29999 11.5999 9.29999C11.6999 9.39999 11.5998 9.5 11.4998 9.5ZM11.8998 10.4C11.7998 10.4 11.7998 10.3 11.6998 10.3C11.6998 10.3 11.5998 10.2 11.6998 10.1L11.7998 9.79999C11.7998 9.69999 11.8998 9.70001 11.8998 9.70001C11.9998 9.70001 11.9999 9.70001 12.0999 9.70001L12.1998 9.79999C12.3998 9.89999 12.5998 10 12.7998 10C12.8998 10 12.9998 10 12.9998 9.90002C12.9998 9.80002 12.7999 9.80001 12.5999 9.70001H12.4998C12.1998 9.60001 11.5999 9.49999 11.5999 8.79999C11.5999 8.29999 11.9999 7.90002 12.5999 7.90002H12.6998C12.9998 7.90002 13.2999 8.00004 13.5999 8.10004C13.6999 8.20004 13.6998 8.29999 13.6998 8.29999L13.5999 8.60004V8.70001L13.4998 8.79999C13.3998 8.79999 13.2998 8.79999 13.2998 8.79999C13.0998 8.69999 12.8998 8.60004 12.6998 8.60004C12.5998 8.60004 12.4998 8.60001 12.4998 8.70001C12.4998 8.80001 12.6998 8.90002 12.8998 8.90002C13.1998 9.00002 13.7998 9.19999 13.7998 9.79999C13.7998 10.4 13.3998 10.7 12.6998 10.7C12.4998 10.6 12.1998 10.5 11.8998 10.4ZM17.9998 9.70001C17.9998 9.90001 17.8998 10 17.7998 10.2C17.6998 10.3 17.4998 10.4 17.3998 10.5C17.0998 10.6 16.5998 10.7 16.2998 10.5C16.0998 10.4 15.9998 10.3 15.8998 10.2C15.7998 10.1 15.6998 9.90001 15.6998 9.70001C15.5998 9.50001 15.5999 9.30001 15.5999 9.20001C15.5999 9.00001 15.5998 8.80001 15.6998 8.70001V8.60004H15.5999H15.1998L14.8998 10.5C14.8998 10.7 14.7998 10.9 14.7998 11C14.6998 11.2 14.6999 11.3 14.5999 11.4C14.4999 11.5 14.3998 11.6 14.1998 11.6C14.0998 11.6 13.8998 11.7 13.7998 11.7C13.6998 11.7 13.5998 11.7 13.4998 11.7C13.3998 11.7 13.3998 11.7 13.2998 11.7H13.1998L13.0999 11.6C13.0999 11.5 13.0999 11.5 13.0999 11.4C13.0999 11.4 13.0998 11.3 13.1998 11.2C13.1998 11.1 13.1998 11.1 13.2998 11.1C13.3998 11 13.4999 10.9 13.5999 11C13.5999 11 13.5998 11 13.6998 11C13.7998 11 13.8998 11 13.8998 11C13.8998 11 13.8998 11 13.9998 10.9C13.9998 10.9 14.0999 10.8 14.0999 10.7C14.0999 10.6 14.1998 10.5 14.1998 10.3L14.4998 8.5H14.2998C14.1998 8.5 14.1999 8.50002 14.0999 8.40002V8.29999V8.20001L14.1998 7.90002C14.1998 7.80002 14.2998 7.70001 14.3998 7.70001H14.5999C14.6999 7.40001 14.7998 7.10002 14.9998 6.90002C15.1998 6.70002 15.3998 6.60004 15.7998 6.60004C15.8998 6.60004 15.9998 6.60004 15.9998 6.60004C16.0998 6.60004 16.0998 6.60004 16.1998 6.60004C16.2998 6.60004 16.3998 6.80002 16.2998 6.90002L16.1998 7.20001C16.1998 7.30001 16.0998 7.39999 15.8998 7.29999C15.7998 7.29999 15.6999 7.29999 15.5999 7.29999C15.5999 7.29999 15.5998 7.29999 15.4998 7.29999L15.3998 7.40002V7.5H15.6998C15.7998 7.5 15.7998 7.50004 15.8998 7.60004V7.70001V7.79999L15.7998 8.10004L15.8998 8C15.9998 7.9 16.1998 7.80001 16.2998 7.70001C16.5998 7.50001 17.0998 7.50001 17.3998 7.70001C17.5998 7.80001 17.6998 7.9 17.7998 8C17.8998 8.1 17.9998 8.3 17.9998 8.5C18.0998 8.7 18.0999 8.8 18.0999 9C18.0999 9.4 17.9998 9.50001 17.9998 9.70001ZM19.1998 8.60004C19.1998 8.60004 19.0999 8.60001 19.0999 8.70001C19.0999 8.70001 18.9998 8.80002 18.9998 8.90002C18.9998 9.00002 18.9998 9.09999 18.9998 9.29999V10.5C18.9998 10.6 18.8998 10.7 18.7998 10.7H18.2998L18.1998 10.6L18.0999 10.5V8.20001C18.0999 8.10001 18.1998 8 18.2998 8H18.6998C18.7998 8 18.7998 8.00004 18.8998 8.10004H18.9998C19.0998 8.10004 19.2998 8 19.4998 8C19.5998 8 19.7998 8.00004 19.7998 8.10004C19.8998 8.10004 19.8998 8.19999 19.8998 8.29999V8.40002C19.8998 8.50002 19.7998 8.60001 19.7998 8.70001C19.7998 8.80001 19.6999 8.89999 19.5999 8.79999C19.4999 8.49999 19.2998 8.50004 19.1998 8.60004ZM21.7998 10.5C21.5998 10.6 21.2999 10.6 21.0999 10.6C20.6999 10.6 20.2999 10.5 20.0999 10.2C19.8999 9.90001 19.7998 9.60001 19.7998 9.20001C19.7998 9.00001 19.7998 8.80001 19.8998 8.70001C19.9998 8.50001 19.9998 8.40001 20.1998 8.20001C20.2998 8.10001 20.4999 8.00002 20.5999 7.90002C20.8999 7.80002 21.2998 7.79999 21.4998 7.79999C21.5998 7.79999 21.7998 7.90002 21.7998 7.90002C21.8998 7.90002 21.9998 8.10001 21.8998 8.20001L21.7998 8.5C21.7998 8.6 21.6998 8.60004 21.6998 8.60004H21.5999H21.4998C21.3998 8.60004 21.1999 8.5 21.0999 8.5C20.8999 8.5 20.7998 8.60001 20.6998 8.70001C20.5998 8.80001 20.5999 9.00001 20.5999 9.20001C20.5999 9.40001 20.6998 9.60001 20.7998 9.70001C20.8998 9.80001 20.9998 9.90002 21.1998 9.90002C21.2998 9.90002 21.3998 9.90002 21.3998 9.90002C21.4998 9.90002 21.4999 9.89999 21.5999 9.79999H21.6998H21.7998L21.8998 9.90002L21.9998 10.2C21.8998 10.3 21.8998 10.4 21.7998 10.5ZM24.1998 9.29999C24.1998 9.39999 24.0998 9.5 23.9998 9.5H22.5999C22.5999 9.6 22.6998 9.70001 22.6998 9.70001C22.7998 9.80001 22.8999 9.79999 23.0999 9.79999C23.3999 9.79999 23.4999 9.70001 23.5999 9.70001C23.6999 9.70001 23.7998 9.69999 23.8998 9.79999L23.9998 10.1C24.0998 10.2 23.9998 10.3 23.8998 10.4C23.7998 10.5 23.4998 10.6 22.9998 10.6C22.7998 10.6 22.5998 10.6 22.3998 10.5C22.1998 10.4 22.0998 10.3 21.8998 10.2C21.7998 10.1 21.6999 9.90001 21.5999 9.70001C21.4999 9.50001 21.4998 9.30001 21.4998 9.20001C21.4998 9.00001 21.4999 8.80001 21.5999 8.70001C21.6999 8.50001 21.6998 8.40001 21.7998 8.20001C21.8998 8.10001 22.0998 8.00002 22.1998 7.90002C22.4998 7.80002 22.8998 7.70002 23.2998 7.90002C23.3998 8.00002 23.4998 8.00001 23.6998 8.20001C23.7998 8.30001 23.8998 8.50004 23.8998 8.60004C24.1998 8.80004 24.1998 9.09999 24.1998 9.29999Z" fill="#606060"/>
</svg>
