<?xml version="1.0" encoding="UTF-8"?>
<svg id="_圖層_2" data-name="圖層_2" xmlns="http://www.w3.org/2000/svg" viewBox="0 0 246.95 238.51">
  <defs>
    <style>
      .cls-1 {
        fill: #ea5238;
      }

      .cls-2 {
        fill: #e44c47;
      }

      .cls-3 {
        fill: none;
        stroke: #f5b113;
        stroke-miterlimit: 10;
        stroke-width: 1.49px;
      }

      .cls-4 {
        fill: #efefef;
      }

      .cls-5 {
        fill: #3e3a39;
      }

      .cls-6 {
        fill: #f49e1f;
      }
    </style>
  </defs>
  <g id="_圖層_1-2" data-name="圖層_1">
    <g>
      <rect class="cls-4" width="246.95" height="238.51"/>
      <g>
        <g>
          <path class="cls-6" d="M162.51,88.41l3.11-12.48h1.28l-3.11,12.48h-1.28ZM170.54,77.87v-1.39h4.44v1.39h-1.5v6.93c.22-.04.55-.11,1-.22.33-.07.57-.13.72-.17-.04.52-.04,1,0,1.44-.19.04-.48.11-.89.22-1.63.37-2.85.67-3.66.89l-.28-1.5c.22-.04.59-.11,1.11-.22.26-.04.44-.07.55-.11v-7.27h-1.5ZM177.97,87.58c-1.04.55-1.83.96-2.38,1.22-.07-.11-.19-.28-.33-.5-.22-.3-.37-.5-.44-.61,1.18-.44,2.29-.96,3.33-1.55l.83.94c-.22.07-.55.24-1,.5h0ZM175.47,77.26v-1.22h8.32v1.22h-3.77l-.22,1.22h3.44v7.54h-7.43v-7.54h2.44l.28-1.22h-3.05ZM177.25,79.59v1.11h4.6v-1.11h-4.6ZM177.25,81.64v1.11h4.6v-1.11h-4.6ZM177.25,83.75v1.11h4.6v-1.11h-4.6ZM183.18,88.74c-1.04-.63-2.11-1.18-3.22-1.66l.72-.94c.22.11.54.26.94.44,1.07.44,1.83.79,2.27,1.05l-.72,1.11Z"/>
          <g>
            <path class="cls-6" d="M188.51,79.43c0-.95-.01-1.53-.04-1.8.24-.04,1.22-.11,1.53-.11.24,0,.28.13.28.77v6.37c0,.99.03,1.46.04,1.75-.24.07-1.19.11-1.52.11-.21,0-.3-.04-.3-.28v-6.8Z"/>
            <path class="cls-6" d="M195.64,85.15c.07.34.01.78-.24.99-.34.3-.92.45-1.56.45-1.43,0-1.9-.92-1.9-1.92v-3.39c-.54,0-.81-.24-.81-.4.21-.4,1.35-1.43,1.6-1.63.23-.2.5-.37,1.05-.43-.04.43-.09.95-.09,1.35h2.1c-.17.98-.48,1.02-.77,1.05-.31.03-.77.06-1.36.06-.06,1.16-.04,2.54,0,3.14.07.7.47.95.95.95.41,0,.81-.16.99-.26l.03.03Z"/>
            <path class="cls-6" d="M201.16,85.02c0,.62-.5,1.21-.74,1.32-.21.1-.82.26-1.32.26-2.06,0-3.21-1.14-3.21-3.22,0-1.72,1.12-3.36,3.05-3.36,1.79,0,2.48,1.29,2.5,2.44,0,.2-.01.36-.04.47-.07.21-.61.43-1.19.57-.35.07-1.83.09-2.6.06.07,1.25.96,1.77,1.93,1.77.68,0,1.35-.21,1.59-.33l.03.03ZM197.62,82.56c.58.04,1.67.03,2.02,0,.1,0,.18-.14.18-.3,0-.7-.31-1.26-1.02-1.26-.55,0-1.12.5-1.18,1.56Z"/>
            <path class="cls-6" d="M204.07,86.05c0,.26-.04.34-.33.38-.5.06-.92.07-1.45.07.03-.75.04-1.62.04-2.58v-2.38c0-.38-.06-.6-.25-.74v-.09c.14-.35.64-.71,1.04-.71.61,0,.77.51.85.95.58-.48,1.33-.95,2.07-.95.92,0,1.42.44,1.72,1.04.55-.51,1.39-1.04,2.17-1.04,1.6,0,2.03,1.38,2.03,2.45v1.93c0,.74.03,1.52.06,2-.33.03-.91.11-1.5.11-.18,0-.27-.09-.27-.27v-3.65c0-.79-.37-1.29-1.06-1.29-.5,0-.87.27-1.16.54v4.23c0,.25-.03.33-.33.37-.5.07-.94.07-1.43.07.03-.75.04-1.62.04-2.58v-1.33c0-.81-.38-1.29-1.05-1.29-.45,0-.86.24-1.18.54v4.21Z"/>
          </g>
          <g>
            <path class="cls-1" d="M134.86,75.24c-.43.58-.64,1.35-.62,2.32h-3.61c.04-.98.2-1.9.5-2.78.32-.77.81-1.48,1.49-2.13.51-.46,1.11-.81,1.8-1.06.7-.24,1.55-.37,2.56-.37,1.88,0,3.4.49,4.55,1.46s1.73,2.28,1.73,3.91c0,1.16-.34,2.13-1.03,2.93-.43.5-.89.84-1.36,1.02.35,0,.86.3,1.52.91.98.91,1.48,2.16,1.48,3.74,0,1.66-.58,3.12-1.73,4.38s-2.86,1.89-5.12,1.89c-2.78,0-4.72-.91-5.8-2.72-.57-.97-.89-2.23-.95-3.8h3.8c0,.79.13,1.44.38,1.95.47.95,1.32,1.42,2.56,1.42.76,0,1.42-.26,1.99-.78.56-.52.85-1.27.85-2.24,0-1.29-.52-2.16-1.57-2.59-.6-.24-1.54-.37-2.82-.37v-2.77c1.26-.02,2.13-.14,2.63-.37.86-.38,1.29-1.15,1.29-2.3,0-.75-.22-1.36-.66-1.83-.44-.47-1.06-.7-1.85-.7-.91,0-1.58.29-2.01.87Z"/>
            <path class="cls-1" d="M153.94,75.32c-.46-.55-1.12-.83-1.98-.83-1.18,0-1.97.44-2.4,1.31-.24.51-.39,1.31-.43,2.41h-3.75c.06-1.67.37-3.02.91-4.05,1.03-1.96,2.86-2.94,5.49-2.94,2.08,0,3.73.58,4.96,1.73,1.23,1.15,1.84,2.68,1.84,4.57,0,1.46-.43,2.75-1.3,3.88-.57.75-1.5,1.59-2.81,2.51l-1.55,1.1c-.97.69-1.63,1.18-1.99,1.49-.36.31-.66.66-.9,1.07h8.58v3.4h-13.46c.04-1.41.34-2.7.91-3.86.55-1.31,1.85-2.7,3.9-4.16,1.78-1.27,2.93-2.19,3.46-2.74.8-.86,1.21-1.8,1.21-2.82,0-.83-.23-1.52-.69-2.07Z"/>
          </g>
          <path class="cls-5" d="M131.03,40.61v-1.23h1.48v-2.26h1.33v2.26h1.23v1.23h-1.23v2.17l1.13-.3v1.28c-.13.03-.38.08-.74.15-.16.03-.3.07-.39.1v3.35c.03.89-.39,1.33-1.28,1.33-.3.03-.69.05-1.18.05-.03-.13-.07-.34-.1-.64-.07-.3-.12-.51-.15-.64h.84c.39.03.57-.11.54-.44v-2.66l-1.53.39-.15-1.38c.1-.03.25-.07.44-.1.23-.03.64-.11,1.23-.25v-2.41h-1.48ZM135.66,40.41v-1.23h2.46c.03-.66.05-1.35.05-2.07h1.33v2.07h2.76v1.23h-2.81c0,.23-.02.56-.05.98,0,.46-.02.79-.05.98h3.3v1.23h-3.15c.43,1.74,1.53,3.05,3.3,3.94-.07.1-.18.26-.34.49-.23.36-.38.61-.44.74-1.77-.98-2.85-2.3-3.25-3.94-.43,1.54-1.59,2.89-3.49,4.04-.03-.03-.07-.07-.1-.1-.33-.53-.59-.89-.79-1.08,2.03-1.08,3.2-2.44,3.49-4.09h-2.51v-1.23h2.66c.07-.59.1-1.25.1-1.97h-2.46ZM143.93,40.56v-1.13h1.33v-2.36h1.23v2.36h1.33v1.13h-1.33v1.28c.72.59,1.23,1.03,1.53,1.33l-.54,1.08c-.3-.33-.62-.64-.98-.94v5.56h-1.23v-5.71c-.33,1.02-.76,1.97-1.28,2.85-.03-.26-.12-.67-.25-1.23-.03-.23-.07-.39-.1-.49.66-1.12,1.18-2.36,1.57-3.74h-1.28ZM147.82,39.23v-1.03h3.1v-1.08h1.28v1.08h3.15v1.03h-3.15v.94h2.61v7.28h.84v.98h-8.27v-.98h.98v-7.28h2.56v-.94h-3.1ZM149.59,41.15v.89h3.99v-.89h-3.99ZM149.59,42.92v.94h3.99v-.94h-3.99ZM149.59,44.74v.94h3.99v-.94h-3.99ZM149.59,46.56v.89h3.99v-.89h-3.99ZM157.08,45.18c-.13.16-.23.28-.3.34-.03-.13-.1-.34-.2-.64-.03-.2-.07-.34-.1-.44.66-.66,1.15-1.41,1.48-2.26l1.03.15c-.1.2-.2.38-.3.54h1.38l.3-.69,1.08.15-.3.54h1.92v.84h-1.97v.79h1.87v.74h-1.87v.79h1.82v.74h-1.82v.69h1.92v.49c.92-.52,1.35-1.48,1.28-2.85h-.69v-7.43h4.33v7.43h-.98v2.21c0,.2.08.3.25.3h.15c.2.03.31-.08.34-.34.07-.46.1-.89.1-1.28.26.1.51.18.74.25,0,.43-.03.89-.1,1.38-.1.69-.44,1.03-1.03,1.03h-.39c-.69,0-1.03-.39-1.03-1.18v-2.36h-.69c.1,1.71-.48,2.97-1.72,3.79-.16-.16-.34-.38-.54-.64v.05h-4.63v.59h-1.03v-3.99c-.07.07-.16.16-.3.3h0ZM156.74,38.84v-.89h1.72v-.79h1.03v2.31h-1.03v-.64h-1.72ZM157.03,42.03v-2.21h2.71v2.21h-2.71ZM157.87,40.51v.84h1.03v-.84h-1.03ZM158.41,43.71v.79h1.67v-.79h-1.67ZM158.41,45.23v.79h1.67v-.79h-1.67ZM158.41,46.76v.69h1.67v-.69h-1.67ZM160.28,42.03v-2.21h2.71v2.21h-2.71ZM160.53,39.48v-2.31h1.03v.79h1.57v.89h-1.57v.64h-1.03ZM161.12,40.51v.84h1.03v-.84h-1.03ZM164.61,38.64v1.23h2.26v-1.23h-2.26ZM164.61,40.75v1.18h2.26v-1.18h-2.26ZM164.61,42.87v1.23h2.26v-1.23h-2.26ZM169.54,43.22v-1.23h5.17v-4.87h1.38v4.87h5.22v1.23h-3.79v3.45c0,.53.26.79.79.79h.84c.49,0,.75-.25.79-.74.1-.39.16-.97.2-1.72.46.23.89.39,1.28.49v.2c-.1.72-.2,1.28-.3,1.67-.16.85-.77,1.26-1.82,1.23h-1.38c-1.15,0-1.72-.54-1.72-1.62v-3.74h-2.12v.49c0,2.43-1.26,4.15-3.79,5.17-.13-.16-.33-.43-.59-.79-.13-.16-.23-.3-.3-.39,2.2-.72,3.3-2.07,3.3-4.04v-.2c.03-.1.05-.18.05-.25h-3.2ZM172.44,41.25c-.95-1.15-1.69-2-2.21-2.56l.98-.79c.72.76,1.48,1.57,2.26,2.46l-1.03.89ZM180.51,38.64c-.46.62-1.25,1.51-2.36,2.66l-.94-.89c.82-.82,1.57-1.67,2.26-2.56l1.03.79h0ZM184.16,43.07c-.69-.66-1.35-1.25-1.97-1.77l.89-.89c.75.53,1.44,1.08,2.07,1.67l-.98.98ZM184.51,46.71c-.26.89-.48,1.57-.64,2.07l-1.33-.44c.59-1.64,1.05-3.1,1.38-4.38.39.13.82.28,1.28.44-.13.46-.36,1.23-.69,2.31h0ZM184.51,39.87c-.79-.72-1.43-1.3-1.92-1.72l.84-.89c.72.53,1.39,1.07,2.02,1.62l-.94.98ZM189.13,38.93c-.98.03-1.99.08-3,.15l-.15-1.18c2.82-.07,5.33-.18,7.53-.34l.15,1.13c-1.05.1-2.1.16-3.15.2v1.77h3.64v1.18h-3.64v1.77h2.9v5.22h-1.28v-.69h-4.58v.69h-1.33v-5.22h2.9v-1.77h-3.54v-1.18h3.54v-1.72h0ZM187.56,44.74v2.36h4.58v-2.36h-4.58ZM196.87,38.69c-.49.03-.89.05-1.18.05,0-.07-.02-.18-.05-.34-.07-.26-.12-.46-.15-.59,1.77,0,3.74-.08,5.91-.25l.25.89c-.23,0-.54.02-.94.05-.69.07-1.2.1-1.53.1v.84h2.66v.94h-2.66v.69h2.46v3.99h-2.46v.79h2.46v.84h-2.46v.79c.3,0,.72-.02,1.28-.05.59,0,1.02-.02,1.28-.05v.3c.92-1.08,1.38-3.07,1.38-5.96v-1.03h-.89v-1.18h.94v-2.36h1.18l-.05,2.36h2.31c0,3.08-.05,5.56-.15,7.43,0,1.12-.48,1.67-1.43,1.67-.26.03-.69.05-1.28.05-.03-.13-.07-.33-.1-.59-.07-.3-.12-.49-.15-.59h1.03c.52,0,.79-.3.79-.89v-.39c.1-2.53.15-4.36.15-5.51h-1.23v.94c-.03,3.35-.66,5.79-1.87,7.33-.23-.26-.48-.49-.74-.69-2,.03-4.13.13-6.4.3l-.1-1.03,2.95-.05v-.79h-2.61v-.84h2.61v-.79h-2.46v-3.99h2.46v-.69h-2.9v-.94h2.9v-.79c-.26.03-.67.05-1.23.05h0ZM196.67,41.89v.79h1.43v-.79h-1.43ZM196.67,43.46v.79h1.43v-.79h-1.43ZM200.61,41.89h-1.43v.79h1.43v-.79ZM199.18,43.46v.79h1.43v-.79h-1.43Z"/>
          <g>
            <path class="cls-5" d="M136.73,57.47v-3.04c0-.25.08-.3.25-.31.24-.04.67-.05.93-.05-.02.48-.04,1.22-.04,2.27v4.07c0,.88.03,1.3.04,1.55-.21.05-.79.1-.98.1-.14,0-.2-.04-.2-.2v-3.58c-.25.03-.67.04-1.76.04h-2.29v3.36c0,.25-.06.29-.33.33-.31.05-.57.05-.87.05.02-.5.05-1.25.05-2.31v-3.98c0-.84-.03-1.36-.05-1.6.24-.05.77-.1.97-.1.19,0,.23.08.23.66v2.75h4.06Z"/>
            <path class="cls-5" d="M144.11,61.32c.02.54-.29.81-.84.81s-.83-.38-.91-.78c-.33.37-.92.78-1.6.78-.87,0-1.49-.67-1.49-1.45,0-1.35,1.73-1.71,2.41-1.89.23-.05.5-.1.68-.13v-.33c0-.57-.33-1.13-1.08-1.13-.43,0-.88.2-1.22.43-.38.18-.57-.09-.62-.47.39-.37,1.23-.84,2.09-.84,1.28,0,1.9.92,1.9,2.12,0,.54-.04,1.71-.03,2.48.01.24.16.39.42.39.08,0,.19-.01.26-.03l.03.04ZM141.18,61.26c.52,0,.89-.33,1.08-.6.05-.09.09-.21.09-.43v-.89c-1.03.15-1.98.5-1.98,1.2,0,.45.36.73.81.73Z"/>
            <path class="cls-5" d="M149.04,58.66c0-.95-.43-1.45-1.17-1.45-.64,0-1.13.4-1.44.73v3.74c0,.25-.05.29-.27.32-.29.04-.58.05-.88.05.02-.47.04-1.21.04-2.32v-2.12c0-.47-.06-.68-.22-.81v-.05c.1-.19.49-.44.73-.44.39,0,.5.64.53.95.53-.52,1.22-.95,1.92-.95,1.47,0,1.85,1.13,1.85,2.32v1.73c0,.73.03,1.27.06,1.59-.28.04-.63.1-.97.1-.15,0-.2-.06-.2-.19v-3.2Z"/>
            <path class="cls-5" d="M155.61,54.83c0-.67-.03-.97-.05-1.22.23-.09.77-.18.96-.18.14,0,.19.06.19.82v6.41c0,.58.2.71.58.77v.04c-.05.3-.33.66-.62.66-.59,0-.84-.33-.93-.71-.52.4-1.31.71-1.79.71-1.35,0-2.46-.98-2.46-2.75s1.36-3.06,3.15-3.06c.45,0,.82.11.97.18v-1.66ZM155.61,57.26c-.18-.09-.54-.19-1-.19-.97,0-1.95.69-1.95,2.17,0,1.22.76,1.98,1.76,1.98.39,0,.87-.16,1.18-.39v-3.57Z"/>
            <path class="cls-5" d="M158.59,55c0-.74-.02-1.13-.05-1.39.25-.11.77-.18.97-.18.14,0,.18.06.18.82v6.06c0,.62.03,1.3.05,1.65-.23.06-.83.1-.98.1-.11,0-.16-.04-.16-.16v-6.91Z"/>
            <path class="cls-5" d="M165.55,60.94c0,.4-.29.79-.52.91-.21.11-.73.28-1.23.28-1.78,0-2.73-1.05-2.73-2.82,0-1.56.96-2.99,2.63-2.99,1.46,0,2.09,1.08,2.12,2.09,0,.14-.01.3-.04.4-.04.2-.66.38-1.1.45-.34.05-1.6.08-2.5.04.01,1.23.79,1.94,1.89,1.94.59,0,1.21-.21,1.45-.34l.02.04ZM162.23,58.6c.88.03,2,.01,2.24,0,.15-.01.25-.11.25-.26.01-.74-.38-1.31-1.16-1.31-.63,0-1.25.57-1.34,1.57Z"/>
            <path class="cls-5" d="M174.34,61.32c.03.54-.29.81-.84.81s-.83-.38-.91-.78c-.33.37-.92.78-1.6.78-.87,0-1.49-.67-1.49-1.45,0-1.35,1.73-1.71,2.41-1.89.23-.05.5-.1.68-.13v-.33c0-.57-.33-1.13-1.08-1.13-.43,0-.88.2-1.22.43-.38.18-.57-.09-.62-.47.39-.37,1.23-.84,2.09-.84,1.29,0,1.9.92,1.9,2.12,0,.54-.04,1.71-.02,2.48.01.24.16.39.41.39.08,0,.19-.01.27-.03l.02.04ZM171.4,61.26c.52,0,.89-.33,1.08-.6.05-.09.09-.21.09-.43v-.89c-1.03.15-1.98.5-1.98,1.2,0,.45.37.73.81.73Z"/>
            <path class="cls-5" d="M179.67,61.04c-.02.29-.16.62-.34.77-.3.19-.82.32-1.37.32-1.31,0-2.86-.64-2.86-2.81,0-1.76,1.34-3,3.05-3,.89,0,1.49.32,1.61.47,0,.35-.2.69-.55.62-.29-.13-.68-.24-1.1-.24-1.1,0-1.85.84-1.85,2.03,0,1.61,1.16,2.07,2.04,2.07.47,0,.99-.11,1.34-.25l.04.04Z"/>
            <path class="cls-5" d="M184.13,61.04c.06.25,0,.57-.23.76-.26.2-.73.33-1.2.33-1.13,0-1.58-.71-1.58-1.66v-3.23c-.44,0-.62-.14-.62-.28.14-.26.94-.98,1.12-1.15.16-.15.38-.28.68-.33-.04.4-.06.71-.06.98h2c-.13.65-.4.71-.63.73-.42.03-.49.04-1.39.04-.05,1.26-.04,2.58,0,3.12.06.73.48.92.91.92.37,0,.73-.13.94-.26l.04.03Z"/>
            <path class="cls-5" d="M186.46,54.32c0,.34-.24.66-.62.66-.35,0-.62-.23-.62-.63,0-.45.37-.66.63-.66.38,0,.6.26.6.63ZM186.41,61.67c0,.23-.08.29-.28.32-.18.04-.49.05-.87.06.01-.5.04-1.24.04-1.98v-2.13c0-.78-.02-1.16-.05-1.42.23-.08.78-.13.97-.13.14,0,.19.06.19.77v4.51Z"/>
            <path class="cls-5" d="M188.68,56.58c.26.67.99,2.65,1.49,4.11.43-1.22,1.25-3.3,1.61-4.37.25,0,.5.05.74.18.19.09.14.28-.04.73-.5,1.22-.91,2.19-1.8,4.39-.1.23-.18.34-.34.39-.21.08-.49.11-.69.13-.28-.82-.66-1.75-1.42-3.72-.39-1.02-.58-1.46-.76-1.81.21-.13.69-.28.93-.28.13,0,.21.09.28.26Z"/>
            <path class="cls-5" d="M194.9,54.32c0,.34-.24.66-.62.66-.35,0-.62-.23-.62-.63,0-.45.36-.66.63-.66.38,0,.6.26.6.63ZM194.85,61.67c0,.23-.08.29-.28.32-.18.04-.49.05-.87.06.01-.5.04-1.24.04-1.98v-2.13c0-.78-.03-1.16-.05-1.42.23-.08.78-.13.97-.13.14,0,.19.06.19.77v4.51Z"/>
            <path class="cls-5" d="M199.72,61.04c.06.25,0,.57-.23.76-.26.2-.73.33-1.2.33-1.13,0-1.58-.71-1.58-1.66v-3.23c-.44,0-.62-.14-.62-.28.14-.26.94-.98,1.12-1.15.16-.15.38-.28.68-.33-.04.4-.06.71-.06.98h2c-.13.65-.4.71-.63.73-.42.03-.49.04-1.39.04-.05,1.26-.04,2.58,0,3.12.06.73.48.92.91.92.37,0,.73-.13.94-.26l.04.03Z"/>
            <path class="cls-5" d="M202.04,54.32c0,.34-.24.66-.62.66-.35,0-.62-.23-.62-.63,0-.45.37-.66.63-.66.38,0,.6.26.6.63ZM201.99,61.67c0,.23-.08.29-.28.32-.18.04-.49.05-.87.06.01-.5.04-1.24.04-1.98v-2.13c0-.78-.02-1.16-.05-1.42.23-.08.78-.13.97-.13.14,0,.19.06.19.77v4.51Z"/>
            <path class="cls-5" d="M207.81,60.94c0,.4-.29.79-.52.91-.21.11-.73.28-1.23.28-1.78,0-2.73-1.05-2.73-2.82,0-1.56.96-2.99,2.63-2.99,1.46,0,2.09,1.08,2.12,2.09,0,.14-.01.3-.04.4-.04.2-.66.38-1.1.45-.34.05-1.6.08-2.5.04.01,1.23.79,1.94,1.89,1.94.59,0,1.21-.21,1.45-.34l.02.04ZM204.49,58.6c.88.03,2,.01,2.24,0,.15-.01.25-.11.25-.26.01-.74-.38-1.31-1.16-1.31-.63,0-1.25.57-1.34,1.57Z"/>
            <path class="cls-5" d="M212.25,56.76c0,.26-.15.64-.48.59-.24-.13-.6-.24-.89-.24-.48,0-.83.28-.83.68,0,.35.23.55.5.71.32.18.79.39,1.16.59.57.33.83.77.83,1.31,0,1.2-1.06,1.73-2.08,1.73-.57,0-1.07-.15-1.36-.37-.13-.09-.23-.21-.23-.37,0-.23.1-.44.24-.55.39.28.95.48,1.42.48.62,0,.94-.29.94-.73,0-.29-.19-.52-.6-.74-.35-.18-.69-.34-1-.5-.54-.29-.87-.73-.87-1.37,0-1.03.89-1.65,1.92-1.65.52,0,1.01.15,1.32.44Z"/>
          </g>
        </g>
        <g>
          <path class="cls-6" d="M162.51,195.96l3.11-12.48h1.28l-3.11,12.48h-1.28ZM170.54,185.42v-1.39h4.44v1.39h-1.5v6.93c.22-.04.55-.11,1-.22.33-.07.57-.13.72-.17-.04.52-.04,1,0,1.44-.19.04-.48.11-.89.22-1.63.37-2.85.67-3.66.89l-.28-1.5c.22-.04.59-.11,1.11-.22.26-.04.44-.07.55-.11v-7.27h-1.5ZM177.97,195.13c-1.04.55-1.83.96-2.38,1.22-.07-.11-.19-.28-.33-.5-.22-.3-.37-.5-.44-.61,1.18-.44,2.29-.96,3.33-1.55l.83.94c-.22.07-.55.24-1,.5h0ZM175.47,184.81v-1.22h8.32v1.22h-3.77l-.22,1.22h3.44v7.54h-7.43v-7.54h2.44l.28-1.22h-3.05ZM177.25,187.14v1.11h4.6v-1.11h-4.6ZM177.25,189.2v1.11h4.6v-1.11h-4.6ZM177.25,191.3v1.11h4.6v-1.11h-4.6ZM183.18,196.29c-1.04-.63-2.11-1.18-3.22-1.66l.72-.94c.22.11.54.26.94.44,1.07.44,1.83.79,2.27,1.05l-.72,1.11Z"/>
          <g>
            <path class="cls-6" d="M188.51,186.98c0-.95-.01-1.53-.04-1.8.24-.04,1.22-.11,1.53-.11.24,0,.28.13.28.77v6.37c0,.99.03,1.46.04,1.75-.24.07-1.19.11-1.52.11-.21,0-.3-.04-.3-.28v-6.8Z"/>
            <path class="cls-6" d="M195.64,192.7c.07.34.01.78-.24.99-.34.3-.92.45-1.56.45-1.43,0-1.9-.92-1.9-1.92v-3.39c-.54,0-.81-.24-.81-.4.21-.4,1.35-1.43,1.6-1.63.23-.2.5-.37,1.05-.43-.04.43-.09.95-.09,1.35h2.1c-.17.98-.48,1.02-.77,1.05-.31.03-.77.06-1.36.06-.06,1.16-.04,2.54,0,3.14.07.7.47.95.95.95.41,0,.81-.16.99-.26l.03.03Z"/>
            <path class="cls-6" d="M201.16,192.57c0,.62-.5,1.21-.74,1.32-.21.1-.82.26-1.32.26-2.06,0-3.21-1.14-3.21-3.22,0-1.72,1.12-3.36,3.05-3.36,1.79,0,2.48,1.29,2.5,2.44,0,.2-.01.35-.04.47-.07.21-.61.43-1.19.57-.35.07-1.83.09-2.6.06.07,1.25.96,1.77,1.93,1.77.68,0,1.35-.21,1.59-.33l.03.03ZM197.62,190.12c.58.04,1.67.03,2.02,0,.1,0,.18-.14.18-.3,0-.7-.31-1.26-1.02-1.26-.55,0-1.12.5-1.18,1.56Z"/>
            <path class="cls-6" d="M204.07,193.61c0,.25-.04.34-.33.38-.5.06-.92.07-1.45.07.03-.75.04-1.62.04-2.58v-2.38c0-.38-.06-.6-.25-.74v-.09c.14-.35.64-.71,1.04-.71.61,0,.77.51.85.95.58-.48,1.33-.95,2.07-.95.92,0,1.42.44,1.72,1.04.55-.51,1.39-1.04,2.17-1.04,1.6,0,2.03,1.38,2.03,2.45v1.93c0,.74.03,1.52.06,2-.33.03-.91.11-1.5.11-.18,0-.27-.09-.27-.27v-3.65c0-.79-.37-1.29-1.06-1.29-.5,0-.87.27-1.16.54v4.23c0,.25-.03.33-.33.37-.5.07-.94.07-1.43.07.03-.75.04-1.62.04-2.58v-1.33c0-.81-.38-1.29-1.05-1.29-.45,0-.86.24-1.18.54v4.21Z"/>
          </g>
          <g>
            <path class="cls-1" d="M131.97,198.26c-1.13-1.16-1.69-2.56-1.69-4.22,0-1.1.25-2.1.75-3s1.23-1.57,2.2-2.02c-.95-.63-1.57-1.32-1.85-2.05s-.43-1.43-.43-2.07c0-1.43.54-2.65,1.61-3.65,1.07-1.01,2.59-1.51,4.55-1.51s3.48.5,4.55,1.51c1.07,1.01,1.61,2.22,1.61,3.65,0,.64-.14,1.33-.43,2.07s-.9,1.38-1.85,1.92c.97.54,1.69,1.26,2.18,2.16s.73,1.89.73,3c0,1.65-.61,3.06-1.84,4.22-1.23,1.16-2.93,1.74-5.13,1.74s-3.86-.58-4.99-1.75ZM134.29,193.79c0,.97.25,1.72.75,2.25s1.19.8,2.08.8,1.58-.27,2.08-.8.75-1.28.75-2.25-.26-1.76-.77-2.28c-.51-.52-1.2-.78-2.07-.78s-1.56.26-2.07.78c-.51.52-.77,1.28-.77,2.28ZM135.31,187.09c.43.45,1.04.68,1.82.68s1.39-.23,1.82-.68c.43-.45.64-1.03.64-1.75,0-.78-.22-1.38-.64-1.82-.43-.44-1.04-.66-1.82-.66s-1.39.22-1.82.66c-.44.44-.66,1.05-.66,1.82,0,.71.22,1.3.66,1.75Z"/>
            <path class="cls-1" d="M146.72,198.26c-1.13-1.16-1.69-2.56-1.69-4.22,0-1.1.25-2.1.75-3s1.23-1.57,2.2-2.02c-.95-.63-1.57-1.32-1.85-2.05s-.43-1.43-.43-2.07c0-1.43.54-2.65,1.61-3.65,1.07-1.01,2.59-1.51,4.55-1.51s3.48.5,4.55,1.51c1.07,1.01,1.61,2.22,1.61,3.65,0,.64-.14,1.33-.43,2.07s-.9,1.38-1.85,1.92c.97.54,1.69,1.26,2.18,2.16s.73,1.89.73,3c0,1.65-.61,3.06-1.84,4.22-1.23,1.16-2.93,1.74-5.13,1.74s-3.86-.58-4.99-1.75ZM149.03,193.79c0,.97.25,1.72.75,2.25s1.19.8,2.08.8,1.58-.27,2.08-.8.75-1.28.75-2.25-.26-1.76-.77-2.28c-.51-.52-1.2-.78-2.07-.78s-1.56.26-2.07.78c-.51.52-.77,1.28-.77,2.28ZM150.05,187.09c.43.45,1.04.68,1.82.68s1.39-.23,1.82-.68c.43-.45.64-1.03.64-1.75,0-.78-.22-1.38-.64-1.82-.43-.44-1.04-.66-1.82-.66s-1.39.22-1.82.66c-.44.44-.66,1.05-.66,1.82,0,.71.22,1.3.66,1.75Z"/>
          </g>
          <path class="cls-5" d="M134.16,155.32v-5.51h4.72v5.51h-1.23v-.69h-2.26v.69h-1.23ZM135.29,148.58v-4.43h8.56v4.43h-8.56ZM135.39,150.94v2.66h2.26v-2.66h-2.26ZM136.62,145.33v2.07h5.91v-2.07h-5.91ZM140.21,155.32v-5.51h4.77v5.51h-1.23v-.69h-2.31v.69h-1.23ZM141.44,150.94v2.66h2.31v-2.66h-2.31ZM149.87,148.23v-1.53h-1.38c-.1.79-.49,1.53-1.18,2.21-.26-.3-.54-.57-.84-.84.72-.56,1.05-1.46.98-2.71v-1.18c1.61-.07,3.07-.2,4.38-.39l.34.94c-.07,0-.18.02-.34.05-1.51.13-2.59.21-3.25.25v.84h3.69v.84h-1.28v1.53h-1.13ZM148.83,155.08c-.82.16-1.43.28-1.82.34l-.44-.98c.59-.1,1.44-.25,2.56-.44.85-.1,1.49-.18,1.92-.25l.44.79c-.56.13-1.44.31-2.66.54h0ZM155.48,148.23v-1.53h-1.53c-.1.66-.44,1.26-1.03,1.82h4.04v5.07h-8.96v-5.07h4.87c-.26-.2-.56-.41-.89-.64.72-.52,1.05-1.36.98-2.51v-1.18c1.44-.07,2.95-.18,4.53-.34l.34.94c-.49.03-1.35.1-2.56.2-.56.03-.97.07-1.23.1v.79h4.09v.84h-1.57v1.53h-1.08ZM149.28,149.32v.69h6.45v-.69h-6.45ZM149.28,150.7v.69h6.45v-.69h-6.45ZM149.28,152.12v.69h6.45v-.69h-6.45ZM157.89,155.37c-1.31-.3-2.81-.59-4.48-.89l.39-.74c.92.13,2.31.34,4.18.64-.1-.03,0-.02.3.05l-.39.94ZM159.42,147.2v-1.23h1.33v-2.36h1.18v2.36h1.13v1.23h-1.13v1.92l1.03-.34c0,.46.02.89.05,1.28l-1.08.34v3.3c.03.98-.38,1.49-1.23,1.53-.26.03-.61.05-1.03.05-.07-.46-.15-.89-.25-1.28h.79c.36.03.54-.15.54-.54v-2.61c-.43.13-.87.28-1.33.44l-.15-1.33c.49-.16.98-.31,1.48-.44v-2.31h-1.33ZM163.01,150.6v-1.03h8.12v1.03h-3.4v1.13h3v.98h-3v1.28h3.54c-.1.36-.2.71-.3,1.03h-3.69c-1.31,0-2.26-.48-2.85-1.43-.26.59-.69,1.18-1.28,1.77-.3-.2-.62-.43-.98-.69.98-.85,1.53-2.07,1.62-3.64l1.18.1c-.03.43-.08.82-.15,1.18.46.92,1.03,1.46,1.72,1.62v-3.35h-3.54ZM163.85,148.78v-4.68h6.45v4.68h-6.45ZM165.03,145.08v.89h4.04v-.89h-4.04ZM165.03,146.86v.94h4.04v-.94h-4.04ZM175.13,145.92c-.82.1-1.62.16-2.41.2v-.2c-.07-.49-.13-.85-.2-1.08,2.53-.13,4.64-.33,6.35-.59l.3,1.23c-.82.13-1.71.25-2.66.34v2.9h3.59v-5.07h1.38v5.07h2.56v1.23h-2.56v5.32h-1.38v-5.32h-3.59c.07,2.4-.97,4.22-3.1,5.46-.3-.33-.64-.67-1.03-1.03,1.84-.98,2.74-2.46,2.71-4.43h-2.85v-1.23h2.9v-2.81h0ZM185.08,145.43v-.89h5.22v-.98h1.33v.98h5.27v.89h-5.27v.69h3.94v2.36h-3.94v.69h4.18v1.57h1.13v.89h-1.13v2.26h-1.23v-.64h-2.95v.25c.07,1.12-.48,1.67-1.62,1.67-.36.03-1,.05-1.92.05-.07-.43-.15-.79-.25-1.08h1.62c.62.07.9-.2.84-.79v-.1h-4.53v-.79h4.53v-.84h-5.22v-.89h5.22v-.79h-4.48v-.79h4.48v-.69h-3.94v-2.36h3.94v-.69h-5.22ZM187.63,146.91v.79h2.66v-.79h-2.66ZM194.33,146.91h-2.71v.79h2.71v-.79ZM194.57,149.96h-2.95v.79h2.95v-.79ZM191.62,151.63v.84h2.95v-.84h-2.95ZM197.93,145.77v-1.23h3.94v1.23h-1.33v6.15c.2-.03.49-.1.89-.2.3-.07.51-.11.64-.15-.03.46-.03.89,0,1.28-.16.03-.43.1-.79.2-1.44.33-2.53.59-3.25.79l-.25-1.33c.2-.03.52-.1.98-.2.23-.03.39-.07.49-.1v-6.45h-1.33ZM204.52,154.39c-.92.49-1.62.85-2.12,1.08-.07-.1-.16-.25-.3-.44-.2-.26-.33-.44-.39-.54,1.05-.39,2.03-.85,2.95-1.38l.74.84c-.2.07-.49.21-.89.44h0ZM202.31,145.23v-1.08h7.38v1.08h-3.35l-.2,1.08h3.05v6.69h-6.6v-6.69h2.17l.25-1.08h-2.71ZM203.88,147.3v.98h4.09v-.98h-4.09ZM203.88,149.12v.98h4.09v-.98h-4.09ZM203.88,150.99v.98h4.09v-.98h-4.09ZM209.15,155.42c-.92-.56-1.87-1.05-2.85-1.48l.64-.84c.2.1.48.23.84.39.95.39,1.62.71,2.02.94l-.64.98Z"/>
          <g>
            <path class="cls-5" d="M126.41,164.46c0,1.88-.87,3.36-2.65,3.96.39.18.82.44,1.16.67.89.62,1.63,1.01,2.27,1.11v.06c-.18.35-.59.5-.94.5-.73,0-1.56-.55-2.82-1.42-.53-.38-1.02-.58-1.59-.67-2.28-.38-3.5-1.94-3.5-4.05,0-2.41,1.54-4.22,4.07-4.22s4.01,1.75,4.01,4.06ZM119.59,164.53c0,2.18,1.4,3.36,2.87,3.36,1.6,0,2.71-1.13,2.71-3.36,0-1.83-1.05-3.35-2.87-3.35-1.54,0-2.71,1.2-2.71,3.35Z"/>
            <path class="cls-5" d="M127.87,164.44c0-.78-.03-1.16-.05-1.42.21-.06.73-.13.96-.13.14,0,.19.06.19.77v2.56c0,1.3.68,1.47,1.24,1.47.59,0,1.1-.38,1.31-.63v-3.67c0-.32.04-.38.2-.43.37-.04.66-.08.94-.08,0,.28-.04,1.16-.04,2.26v1.99c0,.61.16.73.52.79v.06c-.01.25-.32.63-.59.63-.53,0-.83-.35-.91-.89-.4.42-.79.62-1.06.73-.25.1-.52.16-.82.16-1.28,0-1.89-.84-1.89-2.09v-2.09Z"/>
            <path class="cls-5" d="M138.86,167.82c.03.54-.29.81-.84.81s-.83-.38-.91-.78c-.33.37-.92.78-1.6.78-.87,0-1.49-.67-1.49-1.45,0-1.35,1.73-1.71,2.41-1.89.23-.05.5-.1.68-.13v-.33c0-.57-.33-1.13-1.08-1.13-.43,0-.88.2-1.22.43-.38.18-.57-.09-.62-.47.39-.37,1.23-.84,2.09-.84,1.29,0,1.9.92,1.9,2.12,0,.54-.04,1.71-.02,2.48.01.24.16.39.41.39.08,0,.19-.01.27-.03l.02.04ZM135.92,167.75c.52,0,.89-.33,1.08-.6.05-.09.09-.21.09-.43v-.89c-1.03.15-1.98.5-1.98,1.2,0,.45.37.73.81.73Z"/>
            <path class="cls-5" d="M140.05,161.49c0-.74-.03-1.13-.05-1.39.25-.11.77-.18.97-.18.14,0,.18.06.18.82v6.06c0,.62.03,1.3.05,1.65-.23.06-.83.1-.98.1-.11,0-.16-.04-.16-.16v-6.91Z"/>
            <path class="cls-5" d="M144.11,160.81c0,.34-.24.66-.62.66-.35,0-.62-.23-.62-.63,0-.45.36-.66.63-.66.38,0,.6.26.6.63ZM144.06,168.17c0,.23-.08.29-.28.32-.18.04-.49.05-.87.06.01-.5.04-1.24.04-1.98v-2.13c0-.78-.03-1.16-.05-1.42.23-.08.78-.13.97-.13.14,0,.19.06.19.77v4.51Z"/>
            <path class="cls-5" d="M148.94,167.54c.06.25,0,.57-.23.76-.26.2-.73.33-1.2.33-1.13,0-1.57-.71-1.57-1.66v-3.23c-.44,0-.62-.14-.62-.28.14-.26.95-.98,1.12-1.15.16-.15.38-.28.68-.33-.04.4-.06.71-.06.98h2c-.13.65-.4.71-.63.73-.42.03-.49.04-1.39.04-.05,1.26-.04,2.58,0,3.12.06.73.48.92.91.92.37,0,.73-.13.95-.26l.04.03Z"/>
            <path class="cls-5" d="M150.06,170.77c.43-.53,1.15-1.56,1.68-2.61-.06-.09-.19-.32-.28-.54-.18-.49-1.23-3.31-1.78-4.51.23-.14.69-.29.91-.29.18,0,.23.09.28.24.38.92,1.13,3.11,1.45,3.97.49-1.15,1.16-3.18,1.4-4.21.18,0,.52.05.69.11.21.09.24.19.16.47-.39,1.35-.87,2.77-1.55,4.25-.74,1.64-1.94,3.5-2.18,3.5-.3,0-.67-.18-.78-.33v-.05Z"/>
            <path class="cls-5" d="M159.81,160.81c0,.34-.24.66-.62.66-.35,0-.62-.23-.62-.63,0-.45.37-.66.63-.66.38,0,.6.26.6.63ZM159.76,168.17c0,.23-.08.29-.28.32-.18.04-.49.05-.87.06.01-.5.04-1.24.04-1.98v-2.13c0-.78-.02-1.16-.05-1.42.23-.08.78-.13.97-.13.14,0,.19.06.19.77v4.51Z"/>
            <path class="cls-5" d="M162.69,168.21c0,.21-.06.28-.25.29-.3.05-.61.05-.89.05.02-.47.04-1.21.04-2.32v-2.14c0-.4-.06-.68-.22-.78v-.06c.11-.18.5-.43.72-.43.42,0,.5.59.54.95.53-.48,1.23-.95,1.93-.95.84,0,1.28.39,1.56,1,.52-.49,1.26-1,1.99-1,1.34,0,1.81,1.03,1.81,2.22v1.84c0,.72.01,1.26.04,1.57-.26.04-.63.1-.97.1-.13,0-.18-.06-.18-.2v-3.19c0-.96-.4-1.44-1.15-1.44-.59,0-1.05.38-1.36.68v3.77c0,.25-.03.3-.25.33-.34.05-.62.05-.89.05.02-.47.04-1.21.04-2.32v-1.05c0-.96-.4-1.46-1.13-1.46-.54,0-1.05.39-1.37.72v3.77Z"/>
            <path class="cls-5" d="M172.88,170.8c0,.2-.03.29-.25.32-.3.03-.58.04-.89.04.02-.37.04-1.1.04-2.2v-4.91c0-.4-.09-.66-.22-.72v-.08c.14-.2.48-.43.74-.43.28,0,.49.37.52.82.76-.55,1.39-.82,1.94-.82,1.15,0,2.26.88,2.26,2.67,0,1.92-1.4,3.14-2.97,3.14-.47,0-.91-.14-1.16-.3v2.48ZM172.88,167.58c.25.14.64.26,1.05.26.77,0,1.92-.54,1.92-2.22,0-1.11-.63-1.88-1.52-1.88-.58,0-1.2.38-1.44.59v3.24Z"/>
            <path class="cls-5" d="M178.14,163.28c.11-.19.52-.47.73-.47.35,0,.59.44.59,1.25.4-.82.95-1.25,1.54-1.25.3,0,.57.16.64.26,0,.19-.08.53-.23.74-.09.11-.21.16-.36.11-.15-.05-.29-.06-.42-.06-.28,0-.69.26-.96.88-.09.21-.14.39-.14.67v2.77c0,.19-.04.28-.23.3-.33.04-.63.05-.92.05.03-.47.04-1.21.04-2.32v-2.1c0-.34-.06-.63-.29-.79v-.05Z"/>
            <path class="cls-5" d="M187.57,165.66c0,1.69-1.08,2.96-2.79,2.96-1.84,0-2.77-1.35-2.77-2.85,0-1.66,1.16-2.96,2.82-2.96,1.75,0,2.73,1.21,2.73,2.85ZM183.18,165.64c0,1.5.77,2.24,1.7,2.24.74,0,1.51-.63,1.51-2.13,0-1.07-.48-2.19-1.64-2.19-.83,0-1.57.74-1.57,2.08Z"/>
            <path class="cls-5" d="M189.41,163.08c.26.67.99,2.65,1.49,4.11.43-1.22,1.25-3.3,1.61-4.37.25,0,.5.05.74.18.19.09.14.28-.04.73-.5,1.22-.91,2.19-1.8,4.39-.1.23-.18.34-.34.39-.21.08-.49.11-.69.13-.28-.82-.66-1.75-1.42-3.72-.39-1.02-.58-1.46-.76-1.81.21-.13.69-.28.93-.28.13,0,.21.09.28.26Z"/>
            <path class="cls-5" d="M198.5,167.44c0,.4-.29.79-.52.91-.21.11-.73.28-1.23.28-1.78,0-2.74-1.05-2.74-2.82,0-1.56.96-2.99,2.63-2.99,1.46,0,2.09,1.08,2.12,2.09,0,.14-.01.3-.04.4-.04.2-.65.38-1.1.45-.34.05-1.6.08-2.49.04.01,1.23.79,1.94,1.89,1.94.59,0,1.21-.21,1.45-.34l.03.04ZM195.18,165.09c.88.03,2,.01,2.24,0,.15-.01.25-.11.25-.26.01-.74-.38-1.31-1.16-1.31-.63,0-1.25.57-1.34,1.57Z"/>
            <path class="cls-5" d="M201.09,168.21c0,.21-.06.28-.25.29-.3.05-.6.05-.89.05.03-.47.04-1.21.04-2.32v-2.14c0-.4-.06-.68-.21-.78v-.06c.11-.18.5-.43.72-.43.42,0,.5.59.54.95.53-.48,1.23-.95,1.93-.95.84,0,1.28.39,1.56,1,.52-.49,1.26-1,1.99-1,1.34,0,1.81,1.03,1.81,2.22v1.84c0,.72.01,1.26.04,1.57-.26.04-.63.1-.97.1-.13,0-.18-.06-.18-.2v-3.19c0-.96-.4-1.44-1.15-1.44-.59,0-1.05.38-1.36.68v3.77c0,.25-.02.3-.25.33-.34.05-.62.05-.89.05.03-.47.04-1.21.04-2.32v-1.05c0-.96-.4-1.46-1.13-1.46-.54,0-1.05.39-1.37.72v3.77Z"/>
            <path class="cls-5" d="M214.14,167.44c0,.4-.29.79-.52.91-.21.11-.73.28-1.23.28-1.78,0-2.74-1.05-2.74-2.82,0-1.56.96-2.99,2.63-2.99,1.46,0,2.09,1.08,2.12,2.09,0,.14-.01.3-.04.4-.04.2-.65.38-1.1.45-.34.05-1.6.08-2.49.04.01,1.23.79,1.94,1.89,1.94.59,0,1.21-.21,1.45-.34l.03.04ZM210.81,165.09c.88.03,2,.01,2.24,0,.15-.01.25-.11.25-.26.01-.74-.38-1.31-1.16-1.31-.63,0-1.25.57-1.34,1.57Z"/>
            <path class="cls-5" d="M219.34,165.16c0-.95-.43-1.45-1.17-1.45-.64,0-1.13.4-1.44.73v3.74c0,.25-.05.29-.27.32-.29.04-.58.05-.88.05.02-.47.04-1.21.04-2.32v-2.12c0-.47-.06-.68-.22-.81v-.05c.1-.19.49-.44.73-.44.39,0,.5.64.53.95.53-.52,1.22-.95,1.92-.95,1.47,0,1.85,1.13,1.85,2.32v1.73c0,.73.03,1.27.06,1.59-.28.04-.63.1-.97.1-.15,0-.2-.06-.2-.19v-3.2Z"/>
            <path class="cls-5" d="M225.29,167.54c.06.25,0,.57-.23.76-.26.2-.73.33-1.2.33-1.13,0-1.57-.71-1.57-1.66v-3.23c-.44,0-.62-.14-.62-.28.14-.26.95-.98,1.12-1.15.16-.15.38-.28.68-.33-.04.4-.06.71-.06.98h2c-.13.65-.4.71-.63.73-.42.03-.49.04-1.39.04-.05,1.26-.04,2.58,0,3.12.06.73.48.92.91.92.37,0,.73-.13.95-.26l.04.03Z"/>
          </g>
        </g>
        <g>
          <path class="cls-3" d="M95.4,61.79c-1.28-19.27-17.28-34.52-36.87-34.52s-37,16.57-37,37,16.57,37,37,37c16.45,0,30.38-10.75,35.19-25.6l14.54-7.36-12.86-6.51Z"/>
          <path class="cls-2" d="M58.35,64.26c-1.27-.04-2.38,1-2.43,2.28-.05,1.27.97,2.39,2.26,2.45,1.3.06,2.44-1.01,2.47-2.32.03-1.28-1.01-2.37-2.3-2.41M60.66,89.49c0-2.56.12-5.04-.04-7.5-.11-1.72.3-2.94,1.93-3.66.24-.11.45-.56.46-.86.05-1.47.04-2.95.02-4.42-.02-1.48-1.01-2.45-2.49-2.47-1.5-.01-3-.02-4.5,0-1.48.02-2.45,1-2.47,2.49-.01,1,.11,2.01-.03,2.99-.22,1.51.31,2.5,1.69,3.09.58.25.72.74.72,1.35-.03,2.71-.01,5.42-.01,8.13v.85h4.74ZM61.47,69.05c2.2.74,3.13,2.03,3.14,4.3,0,1.58-.02,3.16.01,4.73.01.6-.17,1.05-.71,1.28-1.44.6-1.79,1.66-1.71,3.17.14,2.46.04,4.94.04,7.42,0,.93-.23,1.16-1.16,1.16-1.84,0-3.68,0-5.52,0-.99,0-1.21-.22-1.21-1.19,0-2.89-.01-5.79,0-8.68,0-.52-.13-.85-.58-1.16-2.18-1.47-1.76-.69-1.8-3.36-.02-1.05,0-2.1,0-3.16,0-2.48.8-3.64,3.15-4.54-.7-1.08-1.08-2.28-.6-3.5.3-.75.8-1.5,1.42-2.01,1.45-1.2,3.49-1.08,4.93.13,1.5,1.26,1.72,3.16.6,5.42"/>
          <path class="cls-2" d="M76.45,50.01c-.02-.83-.73-1.54-1.57-1.54-.86,0-1.6.74-1.58,1.61.02.83.74,1.54,1.57,1.54.86,0,1.6-.75,1.58-1.61M78,55.32c-.2-1.17-.85-1.97-1.98-2.06-1.37-.11-2.88-.45-3.88,1-.12.17-.18.37-.27.56-.17.37-.08.6.3.82,1.73,1.02,4.15.91,5.84-.32M72.27,51.88c-.86-1.7-.67-3.24.58-4.26,1.2-.97,2.78-.99,4-.04,1.28.99,1.49,2.52.63,4.31.66.69,1.3,1.36,1.93,2.02,1.59-2.27,1.21-5.37-.91-7.23-2.11-1.85-5.26-1.82-7.34.07-2.08,1.89-2.42,4.95-.83,7.16.61-.65,1.24-1.3,1.93-2.03M81.98,50.83c0,3.93-3.19,7.11-7.13,7.11-3.92,0-7.1-3.2-7.09-7.15,0-3.89,3.2-7.06,7.09-7.07,3.94,0,7.13,3.18,7.13,7.11"/>
          <path class="cls-2" d="M43.28,65.06c0-.83-.69-1.56-1.52-1.59-.85-.03-1.62.7-1.62,1.56,0,.83.69,1.56,1.52,1.59.86.03,1.62-.7,1.63-1.56M38.58,70.37c1.61,1.05,3.29,1.25,5.05.62.43-.15,1.15-.56,1.12-.77-.07-.52-.4-1.09-.79-1.45-.35-.32-.92-.45-1.42-.55-.43-.09-.89-.02-1.33-.02-1.49,0-2.27.64-2.62,2.17M39.11,66.88c-.86-1.64-.68-3.19.52-4.21,1.17-.99,2.76-1.04,4-.12,1.32.99,1.54,2.48.69,4.35.67.7,1.3,1.36,1.93,2.02,1.59-2.32,1.21-5.38-.92-7.24-2.14-1.86-5.33-1.8-7.4.14-2.02,1.9-2.33,5-.76,7.09.62-.65,1.24-1.3,1.93-2.02M41.71,72.94c-3.93,0-7.11-3.19-7.11-7.12,0-3.93,3.2-7.1,7.14-7.09,3.89,0,7.07,3.19,7.07,7.08,0,3.94-3.17,7.13-7.1,7.13"/>
          <path class="cls-2" d="M59.84,51.68h-6.25v3.17c1.88-.64,2.64.74,3.57,2.02,0-1.93,1.07-2.4,2.67-2.05v-3.13ZM56.7,50.04c1.24,0,2.47.01,3.7,0,.73,0,1.06.31,1.05,1.04-.01,1.42-.01,2.84,0,4.26,0,.74-.34,1.03-1.06,1.03-1.45.01-1.45.03-1.84,1.46-.08.28-.1.59-.23.83-.18.31-.41.72-.7.8-.24.07-.67-.22-.88-.47-.57-.65-1.1-1.34-1.57-2.07-.3-.47-.66-.58-1.17-.57-2.02.02-2.02,0-2.02-2.02,0-1,0-2,0-2.99,0-1.1.19-1.29,1.26-1.3,1.15,0,2.31,0,3.47,0"/>
          <path class="cls-2" d="M62.79,54.84c.04-.17.06-.3.11-.42.12-.31.26-.62.44-1.03,4.16,1.82,6.88,4.84,7.98,9.22,1.28,5.14-.59,10.57-4.64,13.68-.31-.37-.62-.75-.96-1.17,3.31-2.93,4.9-6.53,4.27-10.94-.62-4.42-3.15-7.44-7.19-9.34"/>
          <path class="cls-2" d="M42.67,48.11c.91.74,1.26,1.6.74,2.76.57-.23.99-.54,1.42-.54.45,0,.9.3,1.51.53-.6-1.19-.13-2,.74-2.75-1.18.03-1.87-.53-2.24-1.6-.33,1.12-1.02,1.6-2.18,1.61M41.66,52.23c.09-.57.12-1.18.28-1.76.14-.49,0-.79-.34-1.1-.42-.39-.83-.8-1.21-1.24-.51-.6-.25-1.37.51-1.37,1.69,0,2.71-.73,3.17-2.35.08-.27.52-.64.76-.62.3.03.75.36.83.65.46,1.59,1.47,2.3,3.11,2.32.83.01,1.16.89.52,1.38-1.42,1.08-1.76,2.37-1.27,4.01.08.25-.09.75-.29.87-.25.15-.78.15-.99-.03-1.29-1.06-2.48-.95-3.78.02-.69.51-1.33.08-1.3-.77"/>
          <path class="cls-2" d="M76.33,78.74c.96-.99,1.84-1.89,2.7-2.8.35-.37.42-.82.04-1.19-.39-.38-.81-.26-1.17.11-.29.3-.6.59-.89.89-.45.46-.91.47-1.36,0-.29-.3-.59-.59-.89-.89-.39-.39-.83-.5-1.24-.07-.37.4-.24.82.11,1.18.86.88,1.72,1.76,2.7,2.76M76.32,74.15c.27-.24.47-.44.69-.63.97-.82,2.32-.77,3.21.12.86.85.95,2.32.11,3.22-1.09,1.17-2.25,2.28-3.39,3.41-.44.43-.9.37-1.31-.05-1.08-1.08-2.18-2.13-3.23-3.24-.95-1-.92-2.41,0-3.33.9-.91,2.32-.92,3.35-.02.18.15.34.31.58.53"/>
          <path class="cls-2" d="M50.11,43.55c-.22-.52-.41-.99-.63-1.54,6.23-2.45,12.34-2.34,18.41.34,0,.13.02.2,0,.24-.58,1.35-.57,1.32-1.94.8-4.99-1.88-10-1.91-15.02-.11-.26.09-.52.17-.82.26"/>
          <path class="cls-2" d="M39.45,74.87c.4-.22.81-.44,1.3-.71,2.7,4.89,6.69,8.2,12.07,9.87-.13.5-.25.94-.37,1.38-3.88-.1-11.42-6.22-13-10.54"/>
          <path class="cls-2" d="M78.59,71.57c-.51-.15-.97-.28-1.51-.44,1.17-3.76,1.26-7.53.24-11.36.29-.1.53-.18.77-.25.22-.06.45-.11.74-.18,1.12,4.12,1.03,8.15-.24,12.24"/>
          <path class="cls-2" d="M63.6,84.07c3.1-.91,5.77-2.41,8.14-4.57.21.2.39.37.57.55.17.17.32.35.53.57-2.52,2.36-5.43,3.98-8.79,4.96-.14-.49-.28-.95-.44-1.52"/>
          <path class="cls-2" d="M49.8,55.24c.44.54.75.93,1.01,1.24-.97,1.13-1.91,2.21-2.9,3.35-.35-.2-.76-.45-1.38-.8,1.11-1.3,2.16-2.51,3.26-3.8"/>
          <path class="cls-2" d="M50.81,75.18c-.26.32-.57.7-1.01,1.24-1.11-1.29-2.15-2.5-3.26-3.79.59-.35.99-.59,1.37-.82.97,1.12,1.92,2.22,2.9,3.36"/>
          <path class="cls-2" d="M40.03,57.41c-.45-.18-.88-.36-1.46-.59.55-1.07,1.06-2.07,1.62-3.16.51.31.92.57,1.36.83-.5.96-.98,1.88-1.52,2.92"/>
        </g>
        <g>
          <path class="cls-3" d="M95.4,169.31c-1.28-19.27-17.28-34.52-36.87-34.52s-37,16.57-37,37,16.57,37,37,37c16.45,0,30.38-10.75,35.19-25.6l14.54-7.36-12.86-6.51Z"/>
          <path class="cls-2" d="M64.14,173.96c.44-.71.82-1.29,1.17-1.89.29-.48.65-.7,1.25-.54.68.18,1.38.27,2.18.42-.68-1.57-1.3-3-1.95-4.51-1.47,1.11-1.76,3.32-3.91,3.57.43,1,.81,1.89,1.26,2.94M56.38,171c-2.31.16-2.93-1.76-4.06-3.16-.82,1.78-1.59,3.43-2.42,5.21.8-.13,1.47-.2,2.12-.36.66-.17,1.04.06,1.34.62.31.59.66,1.15,1.07,1.86.68-1.46,1.29-2.78,1.94-4.18M62.37,169.56c.74,0,1.23-.38,1.54-.96.81-1.54,2.02-2.55,3.67-3.11,1.1-.38,1.38-1.02,1.19-2.18-.24-1.47-.23-2.89.66-4.18.11-.16.18-.35.27-.54.39-.85.34-1.51-.38-2.09-1.41-1.14-2.24-2.55-2.55-4.34-.19-1.08-.76-1.49-1.85-1.45-1.61.06-2.97-.43-4.21-1.46-1.15-.95-1.65-.95-2.83.03-1.2.99-2.51,1.47-4.07,1.43-1.22-.03-1.8.37-1.99,1.58-.28,1.73-1.12,3.05-2.44,4.15-.83.69-.87,1.29-.39,2.27.09.18.16.37.27.53.86,1.28.83,2.69.58,4.12-.18,1.05.1,1.74,1.1,2.09,1.69.59,2.94,1.61,3.8,3.19.47.87,1.18,1.05,2.13.78.31-.09.63-.18.93-.29,1-.37,2-.36,3.01-.01.52.17,1.05.3,1.57.45M50.95,167.13c-.34-.16-.66-.29-.97-.45-1.25-.64-1.91-2-1.66-3.39.22-1.23.18-2.37-.46-3.54-1.15-2.07-.95-3.19.83-4.75,1.01-.88,1.4-1.95,1.67-3.16.39-1.75,1.53-2.7,3.3-2.66,1.3.03,2.36-.37,3.37-1.18,1.64-1.33,2.95-1.32,4.6.01,1.01.82,2.07,1.2,3.37,1.17,1.76-.04,2.93.92,3.26,2.69.26,1.4.9,2.48,1.98,3.41,1.37,1.18,1.62,2.55.73,4.1-.74,1.29-.91,2.58-.64,4.02.27,1.46-.43,2.59-2.08,3.52.7,1.61,1.39,3.24,2.09,4.86.06.14.12.27.18.41.17.43.54.95.06,1.29-.3.22-.84.2-1.26.14-.81-.11-1.61-.36-2.42-.48-.19-.03-.51.15-.63.33-.51.74-.94,1.54-1.46,2.27-.18.26-.55.58-.79.55-.29-.04-.63-.38-.77-.68-.66-1.43-1.27-2.88-1.88-4.33-.4-.94-1.3-.8-2.04-.92-.62-.1-1.09.19-1.38.86-.8,1.86-1.67,3.69-2.56,5.5-.17.34-.53.73-.85.79-.25.04-.64-.38-.85-.68-.44-.64-.84-1.31-1.17-2.01-.26-.55-.63-.61-1.15-.51-.81.16-1.62.33-2.43.42-.97.11-1.29-.37-.88-1.27.93-2.02,1.87-4.04,2.81-6.05.04-.09.06-.18.1-.3"/>
          <path class="cls-2" d="M62.71,192.1h10.29v-2.16c-.32,0-.58,0-.85,0-2.58-.02-5.16-.03-7.74-.06-1.95-.02-1.95-.03-1.81,1.93,0,.05.03.09.11.28M70.64,188.38c-.43-1.32.45-1.98,1.21-2.73,1.59-1.57,3.15-3.16,4.74-4.73.8-.79,1.14-1.74,1.1-2.85-.13-4.08-.28-8.17-.39-12.25-.02-.7-.24-1.17-.94-1.31-.77-.15-1.13.38-1.29.98-.18.7-.29,1.43-.3,2.15-.03,2.15-.04,4.31.03,6.47.05,1.52-.43,2.81-1.45,3.89-.95,1-1.93,1.97-2.89,2.95-.39.39-.83.68-1.29.18-.44-.48-.15-.91.24-1.29.86-.84,1.71-1.69,2.54-2.56.4-.42.54-.92.06-1.4-.4-.4-.98-.33-1.47.13-1.46,1.37-2.91,2.75-4.4,4.08-.79.7-1.18,1.54-1.18,2.57-.01,1.76,0,3.51,0,5.27,0,.14.05.28.08.45h5.62ZM73.24,174.81c0-2.46-.06-4.84.03-7.21.04-1.03.24-2.09.59-3.06.36-1,1.18-1.58,2.33-1.56,1.11.03,1.89.57,2.4,1.53.12.23.2.52.2.78.11,3.43.21,6.86.3,10.29.03,1.17.07,2.35.02,3.52-.05,1.15-.64,2.08-1.44,2.89-1.7,1.7-3.42,3.39-5.09,5.11-.29.3-.41.75-.61,1.13.23.14.27.18.31.18,1.69-.08,2.33.71,2.32,2.43,0,2.24-.34,2.96-2.93,2.87-2.9-.11-5.81-.08-8.72-.13-1.26-.02-1.87-.64-1.87-1.91,0-.53,0-1.05.04-1.58.08-1.15.6-1.65,1.75-1.75.17-.02.34-.04.58-.06,0-1.72.04-3.42-.01-5.12-.06-1.93.66-3.41,2.17-4.62,1.23-.98,2.39-2.07,3.49-3.19,1.4-1.43,2.38-1.62,4.16-.55"/>
          <path class="cls-2" d="M43.65,189.87v2.19h10.42c0-.37,0-.62,0-.86-.05-1.6.14-1.32-1.39-1.32-2.98,0-5.96,0-9.03,0M51.7,188.38c0-1.84-.03-3.59.01-5.34.03-1.36-.49-2.37-1.54-3.25-1.36-1.14-2.64-2.38-3.92-3.61-.6-.58-1.17-.72-1.62-.3-.44.42-.39.94.21,1.57.83.87,1.7,1.7,2.55,2.55.35.35.43.76.09,1.13-.35.38-.77.32-1.12-.04-1.09-1.1-2.2-2.19-3.25-3.34-.9-.98-1.29-2.16-1.26-3.51.05-2.23.08-4.46.01-6.69-.02-.85-.28-1.71-.52-2.54-.15-.49-.64-.63-1.12-.5-.49.13-.84.43-.85,1-.04,1.3-.11,2.61-.15,3.91-.09,2.86-.16,5.71-.26,8.57-.04,1.13.28,2.11,1.1,2.92,1.64,1.62,3.24,3.29,4.91,4.88.73.69,1.28,1.39,1.14,2.45,0,.04.05.08.08.13h5.52ZM53.22,188.29c.4.04.7.06,1,.11.62.11,1.14.47,1.21,1.07.11.96.13,1.95.03,2.91-.08.75-.66,1.17-1.42,1.19-3.41.05-6.81.1-10.22.12-1.02,0-1.67-.66-1.72-1.69-.03-.57-.02-1.15-.01-1.73.01-1.16.65-1.79,1.81-1.84.19,0,.39-.02.58-.03.2-.55.02-.93-.36-1.3-1.7-1.67-3.36-3.37-5.06-5.04-1.23-1.21-1.68-2.66-1.6-4.35.12-2.58.16-5.16.24-7.74.05-1.48.11-2.95.15-4.43.03-1.19.83-2.22,1.98-2.52,1.11-.28,2.34.13,2.79,1.23.43,1.03.69,2.2.75,3.32.11,2.2.01,4.41,0,6.61,0,.19.03.38.05.64.31-.19.54-.37.8-.5.96-.46,2.13-.17,2.96.63,1.26,1.22,2.49,2.47,3.85,3.57,1.52,1.24,2.26,2.73,2.18,4.69-.06,1.67-.01,3.35-.01,5.08"/>
          <path class="cls-2" d="M59.34,164.98c3.32,0,5.91-2.64,5.9-5.98-.01-3.25-2.68-5.91-5.93-5.91-3.28,0-5.95,2.69-5.95,5.98,0,3.31,2.65,5.92,5.98,5.91M59.35,166.49c-4.15,0-7.48-3.26-7.49-7.37-.01-4.17,3.29-7.53,7.42-7.55,4.14-.02,7.48,3.32,7.48,7.47,0,4.14-3.28,7.44-7.41,7.44"/>
          <path class="cls-2" d="M63.85,191.88c-.27-.46-.57-.74-.52-.94.05-.22.39-.48.64-.52.14-.02.49.37.48.57,0,.23-.29.46-.6.88"/>
          <path class="cls-2" d="M53.65,191c-.44.28-.69.55-.92.54-.2,0-.56-.37-.53-.52.04-.24.33-.57.55-.6.21-.03.47.28.9.58"/>
          <path class="cls-2" d="M57.77,160.38c1.35-1.22,2.61-2.36,3.87-3.5.19-.17.37-.34.55-.51.4-.38.84-.65,1.29-.14.46.51.12.91-.28,1.27-1.56,1.41-3.12,2.82-4.67,4.24-.53.49-.98.5-1.48-.03-.58-.62-1.2-1.21-1.8-1.81-.35-.35-.45-.75-.11-1.13.38-.43.81-.32,1.17.05.49.5.96,1.02,1.46,1.56"/>
        </g>
      </g>
    </g>
  </g>
</svg>