<?xml version="1.0" encoding="UTF-8"?>
<svg id="_圖層_2" data-name="圖層_2" xmlns="http://www.w3.org/2000/svg" xmlns:xlink="http://www.w3.org/1999/xlink" viewBox="0 0 60.92 40.43">
  <defs>
    <style>
      .cls-1 {
        fill: none;
      }

      .cls-2 {
        fill: #188a99;
      }

      .cls-3 {
        fill: #e3f1fb;
      }

      .cls-4 {
        fill: #e17b6b;
      }

      .cls-5 {
        fill: #37b9bc;
      }

      .cls-6 {
        fill: #f29a85;
      }

      .cls-7 {
        fill: #231937;
      }

      .cls-8 {
        fill: #324da0;
      }

      .cls-9 {
        fill: #fff;
      }

      .cls-10 {
        fill: #e88472;
      }

      .cls-11 {
        fill: #16308a;
      }

      .cls-12 {
        fill: #040000;
      }

      .cls-13 {
        opacity: .5;
      }

      .cls-14 {
        fill: #eb7d6c;
      }

      .cls-15 {
        fill: #f29a88;
      }

      .cls-16 {
        fill: #bad6f0;
      }

      .cls-17 {
        fill: #a2cbec;
      }

      .cls-18 {
        fill: #f5ae51;
      }

      .cls-19 {
        clip-path: url(#clippath);
      }

      .cls-20 {
        fill: #281f36;
      }
    </style>
    <clipPath id="clippath">
      <path class="cls-1" d="M60.54,27.17c1.57,7.04-1.9,11.05-6.88,10.96-.01,0-23.64-1.52-36.56-1.71-.77-.01-1.52-.02-2.23-.03h0c-.58,0-1.14-.02-1.68-.02-.04,0-.07,0-.1,0-.69-.01-1.34-.02-1.94-.03-.02,0-.04,0-.06,0-3.2-.05-5.25-.08-5.25-.08C.15,32.13-2.7,24.02,3.47,19.12c1.02-.81,1.7-1.65,2.17-2.53,1.96-3.64.38-7.85,4.65-12.33C13.25,1.17,18.79-.64,24.77.21c2.79.4,4.53,1.3,6.05,2.11,2.61,1.39,4.59,2.5,10.12.34,3.91-1.53,10.8-1,12.72,4.63,2.07,6.08-.02,7.99,1.09,11.02,1.26,3.42,4.84,4.64,5.79,8.87Z"/>
    </clipPath>
  </defs>
  <g id="_圖層_1-2" data-name="圖層_1">
    <g>
      <path class="cls-16" d="M60.54,27.17c1.57,7.04-1.9,11.05-6.88,10.96-.01,0-23.64-1.52-36.56-1.71-.77-.01-1.52-.02-2.23-.03h0c-.58,0-1.14-.02-1.68-.02-.04,0-.07,0-.1,0-.69-.01-1.34-.02-1.94-.03-.02,0-.04,0-.06,0-3.2-.05-5.25-.08-5.25-.08C.15,32.13-2.7,24.02,3.47,19.12c1.02-.81,1.7-1.65,2.17-2.53,1.96-3.64.38-7.85,4.65-12.33C13.25,1.17,18.79-.64,24.77.21c2.79.4,4.53,1.3,6.05,2.11,2.61,1.39,4.59,2.5,10.12.34,3.91-1.53,10.8-1,12.72,4.63,2.07,6.08-.02,7.99,1.09,11.02,1.26,3.42,4.84,4.64,5.79,8.87Z"/>
      <path class="cls-17" d="M58.57,37.61c0,1.52-11.25,2.82-27.56,2.82-15.25,0-29.35-1.14-29.35-2.78s14.82-2.78,29.35-2.78c16.56,0,27.56,1.23,27.56,2.74Z"/>
      <g>
        <path class="cls-3" d="M22.43,29.27s0,0,0,0c-.01,0-.02-.02-.01-.03,1.55-3.25,2.85-5.51,3.66-6.37.02-.02.03-.03.04-.04,0-.01.02-.01.03,0,.01,0,.01.02,0,.03,0,0-.02.02-.04.04-.81.85-2.11,3.11-3.65,6.36,0,.01-.02.02-.03.01Z"/>
        <path class="cls-3" d="M26.58,22.76c-.1.1-.53.23-.55.2-.03-.03.11-.46.2-.55.1-.1.25-.1.35,0,.1.1.1.25,0,.35Z"/>
        <path class="cls-3" d="M25.75,22.97c.02.14-.13.57-.17.58-.04,0-.31-.37-.33-.51s.08-.26.21-.28c.14-.02.27.08.29.21Z"/>
        <path class="cls-3" d="M26.11,23.83c-.14-.01-.53-.26-.53-.3,0-.04.43-.21.57-.2.14.01.24.13.23.27s-.13.24-.27.23Z"/>
        <path class="cls-3" d="M24.23,25.05c.06.23-.12.98-.18.99-.06.02-.58-.56-.64-.79-.06-.23.08-.45.3-.51.23-.06.46.08.51.31Z"/>
        <path class="cls-3" d="M24.99,26.41c-.23,0-.93-.34-.93-.4s.68-.43.91-.44c.23,0,.43.18.43.41s-.18.42-.41.43Z"/>
        <path class="cls-3" d="M23.5,25.81c.13.25.13,1.2.05,1.24-.07.04-.85-.52-.98-.77-.13-.25-.03-.56.23-.69.25-.13.57-.03.7.23Z"/>
        <path class="cls-3" d="M24.61,27.61c-.29-.02-1.09-.53-1.09-.61s.88-.44,1.17-.42.5.27.47.56c-.02.28-.27.49-.56.47Z"/>
        <path class="cls-3" d="M22.97,26.86c.13.25.13,1.2.05,1.24-.07.04-.85-.52-.98-.77-.13-.25-.03-.56.23-.69s.57-.03.7.23Z"/>
        <path class="cls-3" d="M24.07,28.66c-.28-.02-1.09-.53-1.09-.61,0-.08.88-.44,1.17-.42.28.02.5.27.47.56-.02.28-.27.49-.56.47Z"/>
        <path class="cls-3" d="M21.94,28.13c.22.19.58,1.06.52,1.12s-.98-.16-1.2-.34c-.22-.19-.24-.51-.06-.73.19-.22.51-.24.73-.05Z"/>
        <path class="cls-3" d="M23.57,29.71c-.29.01-1.15-.39-1.15-.47,0-.08.82-.55,1.11-.56s.53.21.54.49-.21.52-.49.54Z"/>
        <path class="cls-3" d="M25.28,23.62c.02.14-.13.58-.17.59-.04,0-.31-.38-.33-.52-.02-.14.08-.27.22-.29.14-.02.27.08.29.22Z"/>
        <path class="cls-3" d="M25.63,24.49c-.14-.01-.54-.26-.54-.3s.44-.22.58-.2c.14.01.25.14.23.28s-.14.24-.28.23Z"/>
        <path class="cls-3" d="M24.77,24.21c.04.19-.12.84-.18.85s-.49-.5-.53-.69.08-.39.27-.43c.2-.04.39.08.44.27Z"/>
        <path class="cls-3" d="M25.35,25.46c-.2-.02-.77-.37-.76-.43,0-.06.62-.31.82-.29s.35.19.33.39c-.02.2-.19.35-.39.33Z"/>
      </g>
      <g>
        <path class="cls-2" d="M20.04,18.93s0,0-.01,0c0,0-1.05.15.36,1.97h0s.98-1.23-.35-1.97Z"/>
        <path class="cls-2" d="M20.39,20.9l-.35-1.97s0,0-.01,0c0,0-1.05.15.36,1.97Z"/>
      </g>
      <g>
        <path class="cls-5" d="M11.56,27.28s0,0,0,0c0,0-1.18,0-.85,2h0s1.79-1.08.85-2Z"/>
        <g class="cls-13">
          <path class="cls-5" d="M10.71,29.28l.85-2s0,0,0,0c0,0-1.18,0-.85,2Z"/>
        </g>
      </g>
      <g>
        <path class="cls-18" d="M35.61,11.58c-.14-1.38-1.34-2.38-2.68-2.24-1.34.14-2.31,1.37-2.16,2.74.14,1.38,1.34,2.38,2.68,2.24,1.34-.14,2.31-1.37,2.16-2.74Z"/>
        <path class="cls-9" d="M33.23,13.76l-.05-.47c-.26.02-.54-.03-.71-.13l.08-.32c.17.09.42.16.67.13.32-.03.52-.25.49-.51-.03-.26-.22-.4-.57-.5-.48-.14-.79-.32-.83-.73-.04-.39.2-.71.61-.82l-.05-.47.28-.03.05.45c.27-.02.47.04.61.1l-.08.32c-.1-.05-.3-.13-.59-.1-.35.04-.46.26-.44.45.02.24.2.35.62.47.49.15.75.37.79.78.04.37-.18.74-.63.87l.05.48-.29.03Z"/>
      </g>
      <g>
        <path class="cls-18" d="M8.7,22.57c.73-.94.59-2.29-.33-3s-2.26-.53-2.99.42-.59,2.29.33,3,2.26.53,2.99-.42Z"/>
        <path class="cls-9" d="M5.91,22.51l.25-.32c-.18-.14-.32-.35-.37-.51l.24-.16c.05.16.17.35.34.49.22.17.47.16.61-.03.14-.18.1-.38-.06-.65-.22-.37-.3-.67-.08-.95.21-.27.55-.32.87-.15l.25-.32.19.15-.24.31c.18.15.27.3.32.43l-.24.15c-.04-.09-.11-.26-.31-.41-.24-.19-.44-.11-.54.02-.13.17-.08.34.1.66.22.38.25.67.03.96-.2.25-.55.36-.91.16l-.26.33-.2-.15Z"/>
      </g>
      <g class="cls-19">
        <g>
          <g>
            <path class="cls-12" d="M22.82,25.14c-.05-.71-.1-1.44.08-2.12.22-.84.76-1.51,1.04-2.32.27-.8.27-1.67.29-2.53.08-3.03.52-6.06,1.3-8.96-.67-.35-1.51-.2-2.06.37.86,3.58.58,7.51-.78,10.88-.66,1.64-1.57,3.18-1.84,4.96-.16,1.03-.09,2.09.02,3.14.26,2.41.75,4.78,1.45,7.07.08.27.18.55.38.71.19.14.42.15.65.16.89.02,1.8.1,2.67-.02-.19-1.44-1.76-3.1-2.23-4.68-.63-2.14-.79-4.41-.97-6.65Z"/>
            <path class="cls-12" d="M22.73,22.44c.49-.65,1.13-1.08,1.81-1.53.63-.42,1.27-.86,1.79-1.48.43-.51.74-1.12,1.04-1.71.21-.42.43-.85.57-1.33.34-1.16.14-2.39-.05-3.57-.19-1.2-.38-2.34-.05-3.4l-.37-.15c-.37,1.18-.17,2.43.03,3.64.19,1.18.37,2.3.07,3.35-.13.43-.34.84-.54,1.24-.29.57-.59,1.15-.99,1.63-.48.57-1.1.99-1.7,1.4-.68.45-1.38.93-1.91,1.63l.3.3Z"/>
            <path class="cls-12" d="M28.01,16.17c.68-.52,1.19-1.33,1.4-2.24.02-.1.04-.2.06-.29.03-.16.06-.31.11-.46.07-.23.18-.46.3-.69.19-.38.39-.77.42-1.23.02-.3-.03-.6-.08-.88-.06-.33-.12-.64-.04-.93l-.38-.13c-.1.39-.03.78.03,1.15.05.26.09.51.08.75-.03.36-.19.69-.37,1.04-.12.24-.25.49-.33.77-.05.17-.09.34-.12.51-.02.09-.04.19-.06.28-.19.8-.64,1.52-1.24,1.98l.22.38Z"/>
            <path class="cls-12" d="M21.76,24.31l.28-.32c-.38-.44-.78-.89-1-1.45-.05-.12-.09-.24-.13-.37-.08-.23-.15-.48-.28-.7-.15-.26-.35-.46-.54-.65l-.08-.08c-.84-.85-1.54-1.89-2.08-3.08-.26-.58-.42-1.07-.51-1.54-.13-.66-.12-1.34-.12-2.06,0-.73.01-1.49-.14-2.22l-.38.1c.14.68.13,1.38.13,2.11,0,.71,0,1.44.13,2.16.1.51.27,1.04.55,1.65.56,1.25,1.29,2.33,2.17,3.21l.09.09c.18.18.35.35.47.56.1.18.17.39.24.6.04.13.09.27.14.4.25.63.7,1.14,1.08,1.58Z"/>
            <path class="cls-12" d="M18.01,18.84l.08-.44c-.73-.17-1.42-.38-1.79-.98-.1-.16-.17-.34-.24-.53-.02-.05-.04-.1-.06-.15-.12-.29-.25-.57-.38-.84-.15-.31-.3-.63-.42-.95-.26-.69-.32-1.3-.2-1.81l-.38-.13c-.15.62-.08,1.33.21,2.12.13.34.29.67.44.99.13.26.26.53.37.81.02.05.04.1.06.15.08.2.16.41.28.61.45.73,1.25.98,2.03,1.16Z"/>
            <path class="cls-12" d="M23.7,18.06l.31-.28c-.19-.28-.34-.58-.51-.91-.2-.4-.4-.81-.68-1.16-.22-.28-.49-.51-.74-.73-.11-.1-.22-.2-.33-.3-.82-.78-1.46-1.86-1.79-3.03l-.37.14c.35,1.25,1.03,2.4,1.91,3.24.11.11.23.21.34.31.25.22.49.43.69.68.25.31.43.68.63,1.08.16.32.33.66.54.96Z"/>
          </g>
          <path class="cls-5" d="M44.62.38c-.01.65-.1,1.38-.29,2.22-.12,1.8-.78,4.93-3.64,6.98-.6.43-1.15.73-1.65.93h0c-.15.06-.29.11-.43.16-.3.09-.58.16-.85.2h0c-1.16.17-2.09-.09-2.94-.13h0c-.2,0-.39,0-.59.02-.17.02-.34.06-.51.12-.4.15-.8.43-1.22.93-.04.05-.08.1-.13.15h0c-.16.19-.32.36-.47.53-.8.86-1.6,1.5-2.42,1.92-.15.08-.3.14-.44.2h0c-.93.38-1.9.49-2.96.34h0c-.16-.02-.32-.05-.48-.09-.25-.05-.48-.06-.69-.02h0c-1.27.22-1.84,1.88-2.73,2.77h0c-.12.12-.25.23-.38.32-.44.29-.97.37-1.67.05-2.01-.9-1.75-2.16-3.03-1.74-.14.04-.29.11-.46.19h0c-.46.22-1.06.59-1.9,1.15-.08.05-.17.1-.25.15-.14.07-.28.13-.44.19h0c-.58.2-1.26.23-1.97.14-1.07-.22-1.18-1.61-2.66-2.72-1.21-.9-3.12-.94-3.34-1.09-1.65-1.11-3.08-4.57-3.35-5.37-.58-1.72,3.54-2.14,6.75-5.36C13.29-.3,29.06-3.3,36.79-2.24c3.61.49,5.86,1.61,7.83,2.61Z"/>
        </g>
      </g>
      <g>
        <path class="cls-2" d="M31.46,7.74s0,0,0,0c0,0-.65.98,1.21,1.81h0s.08-2.08-1.2-1.81Z"/>
        <g class="cls-13">
          <path class="cls-2" d="M32.66,9.55l-1.2-1.81s0,0,0,0c0,0-.65.98,1.21,1.81Z"/>
        </g>
      </g>
      <g>
        <path class="cls-2" d="M24.83,7.6s0,0,0,0c0,0-1,.64.38,2.14h0s.92-1.87-.37-2.14Z"/>
        <g class="cls-13">
          <path class="cls-2" d="M25.19,9.73l-.37-2.14s0,0,0,0c0,0-1,.64.38,2.14Z"/>
        </g>
      </g>
      <g>
        <path class="cls-12" d="M45.81,16.04c-.06.38,1.08,1.73,1.26,1.68.41-.1.83-.05,1.25-.06.42,0,.86-.07,1.27.03.47.12.86.45,1.28.7.43.26.9.44,1.39.54.25.05.52.08.77,0,.5-.15.78-.71.68-1.21-.06-.28-.22-.54-.44-.72-.2-.16-.47-.25-.6-.49-.18-.33.04-.73.01-1.11-.02-.32-.23-.61-.49-.78-.24-.16-.56-.23-.72-.5-.17-.29-.03-.62-.02-.93.02-.44-.19-.87-.52-1.17-.1-.09-.21-.17-.32-.24-.77-.45-1.88-.44-2.35.45-.14.27-.19.6-.4.83-.22.25-.6.35-.75.65-.19.37.07.86-.11,1.24-.12.25-.39.37-.64.5-.24.12-.5.3-.55.57h0Z"/>
        <path class="cls-6" d="M53.83,34.88s1.17,1.65,1.12,1.95c-.02.17-1.81,1.8-2.06,1.58-.24-.22.97-1.65.73-2.21-.24-.56-.62-.97-.62-.97l.82-.35h0Z"/>
        <path class="cls-12" d="M54.63,36.1c-.62,1.23-1.08,1.3-1.31,1.22-.26.5-.55.97-.42,1.09.24.22,2.03-1.41,2.06-1.58.02-.11-.13-.4-.32-.73h0Z"/>
        <path class="cls-6" d="M48.14,35.21s-.1,1.16-.12,1.38c-.03.22.11.89-.06.97-.17.09-2.06.99-2.22.69-.16-.3,1.43-1.46,1.46-1.75.02-.29.08-1.49.08-1.49l.87.2h0Z"/>
        <path class="cls-12" d="M46.4,37.36c-.38.37-.75.74-.67.89.16.3,2.05-.6,2.22-.69.16-.08.06-.64.06-.9-.78.89-1.37.79-1.61.7h0Z"/>
        <path class="cls-11" d="M50.87,21.96s.87,1.72,1.04,3.26c.16,1.54.32,4.77.42,5.26.1.49,1.96,4.93,1.96,4.93l-1.11.83s-2.77-3.9-3.2-5.67c-.43-1.76-.92-5.18-.92-5.18,0,0-.45,4.37-.63,5.54-.18,1.17,0,4.96,0,4.96h-1.87s-.51-2.35-.41-5.93,1.45-8.43,1.45-8.43l3.27.41h0Z"/>
        <path class="cls-18" d="M50.22,15.82c.82.07,2.07.5,2.74,1.75.67,1.25.94,2.39.94,2.39l-1.79.55-.15-.71s-.56,2.19-1.03,2.35c-.46.16-.75-.19-1.02-.23-.27-.04-1.16.19-1.88-.06-.72-.25-.72-.8-.78-1.44-.06-.64-.15-1.22-.15-1.22,0,0-.17-2.89.75-3.12.92-.23,2.36-.25,2.36-.25h0Z"/>
        <path class="cls-6" d="M53.55,20.06s.03,1.89-.14,2.79c-.16.9-1.23,2.82-1.23,2.82l-.56-.64s1.11-2.67.71-4.6l1.22-.37h0Z"/>
        <path class="cls-20" d="M50.43,19.77c-.51-.03-.93-.34-.94-.35,0,0,0-.01,0-.01,0,0,.01,0,.01,0,0,0,.8.61,1.54.21,0,0,.01,0,.01,0,0,0,0,.01,0,.01-.21.11-.42.15-.62.14h0Z"/>
        <path class="cls-6" d="M51.78,24.93s-.57.34-.75.51c-.18.17-.48.2-.42.33.06.13.5-.03.5-.03,0,0-.17.47-.24.61-.07.14-.14.41-.05.48.1.06.4-.62.4-.62,0,0-.2.6-.12.67.08.08.44-.65.44-.65,0,0-.25.63-.22.69.02.07.11.04.25-.16.14-.2.23-.44.23-.44,0,0-.14.45-.14.52,0,.06.05.14.23-.18.18-.32.45-1.08.43-1.51l-.55-.21h0Z"/>
        <path class="cls-6" d="M43.12,12.37s.13-.65.12-.89c0-.25.17-.49.04-.53-.13-.04-.31.39-.31.39,0,0-.24-.44-.29-.59-.05-.15-.21-.38-.32-.35-.11.03.19.71.19.71,0,0-.31-.55-.42-.55-.11,0,.18.76.18.76,0,0-.3-.6-.37-.63-.06-.03-.1.06-.05.29.05.24.17.47.17.47,0,0-.24-.41-.29-.45-.05-.04-.14-.06-.02.29.12.35.5,1.05.83,1.33l.53-.27h0Z"/>
        <path class="cls-6" d="M47.86,16.07s-4.17-1.28-4.75-4.05l-.61.34s.78,5.22,5.49,5.64l-.13-1.93Z"/>
        <path class="cls-18" d="M48.92,15.94s-2.17-.01-2.77-.6c0,0-.39,2.15,0,2.49,0,0,1.48.76,2.15.42.66-.34.63-2.3.63-2.3Z"/>
        <path class="cls-14" d="M48.19,13.63s-.11-.17-.2-.11c-.23.17,0,.41.16.46l.04-.36h0Z"/>
        <path class="cls-6" d="M49.67,11.61c.69.06,1.23.65,1.25,1.34,0,.23-.04.44-.14.63-.2.48-.37.86-.58,1.13-.21.28-.31.62-.27.97l.04.35c-.81.38-1.15-.03-1.15-.03l.02-.8h0c-.87-.13-.71-1.73-.69-2.2h0s0-.04,0-.05c.02-.79.71-1.41,1.51-1.34h0Z"/>
        <path class="cls-12" d="M49.73,13.02c.16.18.31.37.45.57.15.21.3.43.33.68.23-.16.38-.41.51-.66.06-.12.12-.24.14-.36.03-.18,0-.37-.05-.55-.05-.23-.11-.48-.26-.66-.1-.12-.24-.21-.38-.28-.33-.16-.7-.25-1.07-.21-.37.04-.72.22-.95.51-.29.38-.34.88-.37,1.35.05-.2.19-.36.32-.51.09-.1.17-.2.29-.27.19-.11.25-.09.59-.3.08.29.26.48.46.7h0Z"/>
        <path class="cls-6" d="M50.35,13.96s.06-.08.11-.09c.1-.04.27-.07.38.05.16.17-.19.61-.52.38,0,0-.09-.1.03-.33h0Z"/>
        <path class="cls-7" d="M48.8,14.6c.25.07.51-.11.51-.11,0,0,0-.02,0-.02,0,0-.02,0-.02,0-.02.01-.42.29-.7-.02,0,0-.02,0-.02,0,0,0,0,.02,0,.02.07.08.15.12.23.14h0Z"/>
      </g>
      <g>
        <path class="cls-2" d="M25.42,7.29s0,0,0,0c0,0,.02,1.18,2.03.8h0s-1.12-1.75-2.02-.81Z"/>
        <g class="cls-13">
          <path class="cls-2" d="M27.44,8.1l-2.02-.81s0,0,0,0c0,0,.02,1.18,2.03.8Z"/>
        </g>
      </g>
      <g>
        <path class="cls-2" d="M16.24,7.87s0,0,0,0c0,0,.02,1.18,2.03.8h0s-1.12-1.75-2.02-.81Z"/>
        <g class="cls-13">
          <path class="cls-2" d="M18.27,8.68l-2.02-.81s0,0,0,0c0,0,.02,1.18,2.03.8Z"/>
        </g>
      </g>
      <g>
        <path class="cls-2" d="M34.98,7.87s0,0,0,0c0,0,.02,1.18,2.03.8h0s-1.12-1.75-2.02-.81Z"/>
        <g class="cls-13">
          <path class="cls-2" d="M37,8.68l-2.02-.81s0,0,0,0c0,0,.02,1.18,2.03.8Z"/>
        </g>
      </g>
      <g>
        <path class="cls-6" d="M33.39,24.71s.18.6.23.81c.05.21.25.38.15.45-.11.07-.35-.27-.35-.27,0,0-.11.43-.12.57-.01.14-.1.38-.2.37-.1,0,0-.65,0-.65,0,0-.15.54-.24.56s0-.7,0-.7c0,0-.13.58-.18.62-.05.04-.1-.03-.1-.24,0-.22.05-.44.05-.44,0,0-.11.49-.14.54-.03.04-.09-.05-.07-.37.03-.32.16-.96.39-1.27l.59.03Z"/>
        <path class="cls-6" d="M42.19,19.87s.34-.52.47-.7.13-.44.25-.4c.12.04.02.44.02.44,0,0,.4-.19.51-.27.11-.08.35-.17.41-.09.06.08-.51.41-.51.41,0,0,.51-.24.58-.18.07.06-.53.45-.53.45,0,0,.53-.28.59-.26.06.01.04.09-.12.24-.16.14-.37.25-.37.25,0,0,.45-.23.5-.24.05,0,.02.1-.25.29-.27.19-.84.49-1.22.52l-.36-.47Z"/>
        <path class="cls-6" d="M34.8,34.15s-.37,1.42-.36,1.44c0,.02-.09.17-.09.17l-.38.07-.35-.16s.19-1.17.15-1.34c-.04-.18,1.03-.17,1.03-.17Z"/>
        <path class="cls-12" d="M33.62,35.66s.44.15.82-.1c0,0,1.47.55,1.42.97,0,0,.06.12-.57.1-.64-.03-1.63-.06-1.65-.07s-.15.05-.02-.9Z"/>
        <path class="cls-6" d="M38.61,34.15s-.37,1.42-.36,1.44c0,.02-.09.17-.09.17l-.38.07-.35-.16s.19-1.17.15-1.34c-.04-.18,1.03-.17,1.03-.17Z"/>
        <path class="cls-12" d="M37.43,35.66s.44.15.82-.1c0,0,1.47.55,1.42.97,0,0,.06.12-.57.1-.64-.03-1.63-.06-1.65-.07s-.15.05-.02-.9Z"/>
        <path class="cls-12" d="M35.06,25.2s-.28,3.82-.51,5.13c-.2,1.1-1.13,4.47-1.13,4.47l1.29.17s.93-1.81,1.55-3.69c.46-1.4.78-2.55,1.14-3.77,0,0,.43,5.34,0,7.34l1.2-.03s.95-3.96.86-5.74c-.09-1.78-.37-4.27-.37-4.27l-4.02.4Z"/>
        <path class="cls-8" d="M42.84,20.43l-.6-.75s-1.5.96-1.97.56c-.42-.35-.69-1.49-1.31-2.17-.61-.69-2.91-.6-3.75-.3-.84.31-2.1,2.58-2.4,3.91-.24,1.06-.29,3.12-.29,3.12l1.01.12s.51-2.56.65-3.01c.17-.55.91-1.32.91-1.32,0,0-.45,2.29-.31,3.54l.14,1.25,4.3-.27-.16-3.65s2.11,1,3.78-1.04Z"/>
        <g>
          <g>
            <path class="cls-4" d="M37.93,15.51s.06-.16.14-.12c.21.1.08.32-.03.39l-.11-.27Z"/>
            <path class="cls-6" d="M37.85,15h0s0-.03,0-.04c-.16-.63-.81-1.01-1.45-.81-.53.17-.86.7-.78,1.25.03.2.11.38.23.53.16.23.31.43.45.59.23.27.37.6.39.95v.14c.02.08.08.15.16.17.48.09.72-.02.82-.09.03-.02.05-.06.04-.1l-.12-.55c-.01-.06.02-.13.09-.15,0,0,0,0,0,0,.83-.26.27-1.51.17-1.89Z"/>
            <polygon class="cls-12" points="35.55 15.6 36.04 16.28 36.23 16.19 36.11 15.19 35.55 15.6"/>
            <path class="cls-6" d="M36.25,16.15s-.06-.05-.1-.06c-.08-.01-.23-.01-.3.1-.1.17.26.46.48.22,0,0,.06-.1-.08-.26Z"/>
            <path class="cls-9" d="M37.11,16.39s.43-.05.67-.24c0,0,.01.34-.22.42s-.44-.18-.44-.18Z"/>
            <path class="cls-12" d="M37.57,14.62s.19.07.39.73c0,0-.13-.76-.23-.82-.1-.06-.16.09-.16.09Z"/>
          </g>
          <path class="cls-12" d="M35.73,14.2s.08-.07.12-.04c.01.01.02.03.02.05,0,.05,0,.11-.01.16.16-.25.46-.37.75-.4s.59-.02.88-.08c.11-.02.25-.05.33.03.06.06.06.15.02.23s-.11.12-.18.15c.06-.03.13-.03.18.01.05.04.07.12.05.18-.04.09-.15.13-.25.15-.31.07-.63.13-.94.17l.15.09s.04.02.05.04c.01.02,0,.06,0,.08-.03.07-.1.11-.17.12-.07.02-.14,0-.22,0-.11,0-.21,0-.32.03-.02,0-.04,0-.06.02-.02.02-.04.04-.05.07-.09.15-.26.23-.42.31-.05.02-.12.04-.15,0-.01-.02-.02-.04-.02-.06-.05-.25-.02-.51.07-.75-.02.06-.1.09-.14.03-.06-.08.04-.16.09-.2.05-.04.1-.05.13-.11.05-.09.04-.2.11-.29Z"/>
        </g>
      </g>
      <g>
        <path class="cls-8" d="M8.72,37.57s5.9.34,7.12-.11c1.23-.45,2.5-2.73,1.56-3.83-.77-.9-1.76-.1-2.31-.87-.55-.76,1.32-3.39-2.69-2.95-4.01.44-1.87,3.67-2.91,3.27-2.03-.76-4.83,2.74-.77,4.48Z"/>
        <path class="cls-12" d="M12.32,37.9c-.05,0-.09-.04-.09-.09v-5.23c0-.05.04-.09.09-.09s.09.04.09.09v5.23c0,.05-.04.09-.09.09Z"/>
        <path class="cls-12" d="M12.32,34.52s-.05-.01-.07-.03c-.03-.04-.03-.1,0-.13l1.35-1.17s.1-.03.13,0c.03.04.03.1,0,.13l-1.35,1.17s-.04.02-.06.02Z"/>
        <path class="cls-12" d="M12.32,36.48s-.04,0-.06-.02l-2.58-1.96s-.05-.09-.02-.13c.03-.04.09-.05.13-.02l2.58,1.96s.05.09.02.13c-.02.02-.05.04-.07.04Z"/>
        <path class="cls-12" d="M11.2,35.64h-1.66c-.05,0-.09-.04-.09-.09s.04-.09.09-.09h1.66c.05,0,.09.04.09.09s-.04.09-.09.09Z"/>
      </g>
      <g>
        <g>
          <path class="cls-15" d="M23.22,37.01s-.83-.32-.98-.18c-.26.27-.59.8-.73.71-.14-.09.24-1.49.39-1.49.15,0,.7.45,1.56.51l-.25.44Z"/>
          <path class="cls-12" d="M22.22,36.19c-.15-.09-.26-.14-.31-.14-.15,0-.53,1.4-.39,1.49.1.07.31-.21.52-.46-.1-.1-.23-.26.18-.89Z"/>
        </g>
        <path class="cls-8" d="M26.15,33.67s1.49,3.5.55,4.18-3.04.04-3.04.04l-.2-.96s1.59-.19,1.66-.52c.03-.17-.48-.87-.77-1.55-.27-.63-.31-1.24-.31-1.24l2.11.06Z"/>
        <g>
          <path class="cls-15" d="M22.12,37.72s-.86-.23-.99-.07c-.23.29-.5.86-.65.79-.15-.08.08-1.51.23-1.52.15-.02.55.21,1.42.18v.62Z"/>
          <path class="cls-12" d="M21.02,36.98c-.15-.04-.26-.07-.31-.07-.15.02-.38,1.45-.23,1.52.11.06.29-.24.47-.52-.11-.09-.27-.27.07-.94Z"/>
        </g>
        <path class="cls-8" d="M24.99,33.87s.87,3.54-.17,4.07-3.12-.02-3.12-.02l.15-1.23s1.6.05,1.72-.27c.06-.17-.35-.94-.53-1.64-.17-.66.26-1.46.26-1.46l1.7.56Z"/>
        <path class="cls-15" d="M27.9,31.15s1.71,2.13,2.79,2.25l-.05.43s-2.17-.11-3.04-1.64l.29-1.04Z"/>
        <path class="cls-9" d="M22.85,33.63s1.4,1.14,4.14,1.37l.75-2.5,1.03-.56s-.44-.73-.69-.98c-.28-.29-1.08-1.26-2.36-.87-1.03.3-2.86,3.55-2.86,3.55Z"/>
        <g>
          <path class="cls-12" d="M28.73,28.59c.05-.22.1-.44.08-.67-.09-.86-1.31-1.3-2-.92-.3.16-.58.44-.74.73-.19.36-.41.87-.13,1.17.19.21.69.56.98.58.29.03.59-.29.88-.3.13,0,.35-.03.48-.05.1-.02.22-.04.28-.09.11-.09.14-.32.17-.45Z"/>
          <path class="cls-10" d="M28.7,28.6s.11-.1.16-.04c.13.17-.07.29-.19.3l.03-.27Z"/>
          <path class="cls-15" d="M28.68,28.69c.21-.71-.16-1.44-.82-1.63-.66-.19-1.36.23-1.56.94-.21.71.16,1.44.82,1.63.66.19,1.36-.23,1.56-.94Z"/>
          <path class="cls-15" d="M26.46,29.29c.09.16.08.35-.01.5h0c-.09.16-.35.39-.35.39-.05.2.66.56,1.11.28.06-.04.08-.13.02-.19-.04-.04-.07-.1-.04-.19h0c.09-.14.24-.22.4-.23.14,0,.28-.03.42-.07.85-.23.72-1.36.72-1.36,0,0-2.56-.6-2.46.27.03.24.1.44.19.6Z"/>
          <path class="cls-10" d="M27.74,29s-.02-.02-.02-.04c0-.02.02-.02.04-.02.03,0,.06,0,.08-.02.01-.01.02-.02.02-.04,0-.02-.05-.07-.11-.12-.01-.01-.01-.03,0-.04.01-.01.03-.01.04,0,.04.03.13.11.13.16,0,.03-.01.06-.04.09-.04.03-.09.04-.13.03Z"/>
          <path class="cls-9" d="M28.1,29.16s-.51.07-.88-.06c0,0,.13.29.45.31.32.02.43-.25.43-.25Z"/>
          <path class="cls-12" d="M26.35,28.6s.37-.33.65-.71c.27-.39.76-.48.76-.48,0,0,.82.39.9.59.08.2.08.58.08.58,0,0,.12-.57-.1-.96-.22-.39-.63-.75-1.47-.63s-1.2,1.37-.81,1.61Z"/>
          <path class="cls-15" d="M26.47,28.55s-.04-.09-.08-.12c-.08-.06-.23-.14-.37-.05-.2.12.02.63.39.5,0,0,.11-.07.06-.32Z"/>
          <path class="cls-12" d="M26.24,26.86c-.29.04-.44.36-.69.5-.32.18-.73.03-1.1.1-.15.03-.28.09-.41.17-.11.07-.22.16-.29.28-.13.21-.12.51.02.72s.39.34.64.33c.25,0,.5-.13.65-.33.11-.14.18-.31.33-.42.16-.12.38-.12.58-.1.03,0,.06,0,.09,0,.13-.04.12-.16.11-.26,0-.14,0-.3.1-.41.09-.11.26-.14.38-.06,0-.12.02-.25-.05-.36-.08-.11-.23-.18-.37-.17Z"/>
        </g>
        <g>
          <path class="cls-18" d="M32.88,34.64c-.14-1.38-1.34-2.38-2.68-2.24s-2.31,1.37-2.16,2.74,1.34,2.38,2.68,2.24c1.34-.14,2.31-1.37,2.16-2.74Z"/>
          <path class="cls-9" d="M30.49,36.81l-.05-.47c-.26.02-.54-.03-.71-.13l.08-.32c.17.09.42.16.67.13.32-.03.52-.25.49-.51-.03-.26-.22-.4-.57-.5-.48-.14-.79-.32-.83-.73-.04-.39.2-.71.61-.82l-.05-.47.28-.03.05.45c.27-.02.47.04.61.1l-.08.32c-.1-.05-.3-.13-.59-.1-.35.04-.46.26-.44.45.02.24.2.35.62.47.49.15.75.37.79.78.04.37-.18.74-.63.87l.05.48-.29.03Z"/>
        </g>
        <path class="cls-12" d="M24.46,38.08v-.02c.56-.1.97-.36,1.19-.76.5-.91-.04-2.28-.05-2.29h.02s.56,1.39.05,2.31c-.23.41-.64.67-1.21.78Z"/>
        <g>
          <path class="cls-15" d="M26.12,31.88s.54,1.23,1.51,2.15l-.12.41s-1.74-1.15-2.3-2.17c0,0,.67-.17.92-.4Z"/>
          <path class="cls-15" d="M27.62,34.03s.44.14.59.22c.15.08.35.06.34.15s-.34.06-.34.06c0,0,.19.29.26.37.07.08.16.26.11.31-.05.06-.37-.35-.37-.35,0,0,.23.37.2.43-.04.06-.41-.36-.41-.36,0,0,.27.38.26.43s-.07.04-.2-.07c-.13-.11-.23-.26-.23-.26,0,0,.17.28.18.32s0,.1-.18-.08c-.17-.19-.48-.65-.54-.95l.34-.23Z"/>
          <polygon class="cls-9" points="24.75 31.77 25.14 32.75 26.73 32.01 26.04 30.83 24.75 31.77"/>
          <polygon class="cls-12" points="25.24 32.72 24.67 31.86 24.69 31.84 25.25 32.69 26.44 32.13 26.05 31.19 26.08 31.18 26.48 32.14 26.47 32.14 25.24 32.72"/>
        </g>
      </g>
      <g>
        <path class="cls-18" d="M45.31,8.49c-.15-1.44-1.41-2.49-2.81-2.35-1.4.15-2.42,1.43-2.27,2.87.15,1.44,1.41,2.49,2.81,2.35,1.4-.15,2.42-1.43,2.27-2.87Z"/>
        <path class="cls-9" d="M42.81,10.78l-.05-.49c-.28.02-.57-.03-.75-.14l.08-.34c.18.1.44.17.71.14.34-.03.54-.26.52-.54-.03-.27-.23-.42-.6-.53-.5-.15-.83-.34-.87-.76-.04-.41.21-.74.64-.86l-.05-.49.29-.03.05.47c.29-.02.49.04.63.11l-.09.33c-.11-.05-.31-.14-.62-.1-.37.04-.48.28-.46.47.03.25.22.36.65.5.51.15.78.38.83.82.04.39-.18.77-.66.91l.05.51-.3.03Z"/>
      </g>
      <g>
        <path class="cls-18" d="M22.89,13.62c.63-1.55-.08-3.3-1.59-3.91s-3.24.15-3.86,1.7c-.63,1.55.08,3.3,1.59,3.91,1.51.61,3.24-.15,3.86-1.7Z"/>
        <path class="cls-9" d="M19.12,14.59l.21-.53c-.29-.13-.56-.34-.69-.55l.26-.3c.13.2.36.41.64.52.36.15.69.03.82-.27.12-.29,0-.55-.32-.86-.43-.42-.66-.79-.47-1.25.18-.44.61-.64,1.11-.53l.21-.53.32.13-.21.51c.3.13.48.3.59.45l-.27.29c-.08-.11-.24-.31-.57-.44-.39-.16-.64.02-.72.23-.11.27.02.49.39.85.44.43.59.81.4,1.28-.17.41-.61.69-1.17.56l-.22.55-.32-.13Z"/>
      </g>
      <g>
        <path class="cls-18" d="M13.92,8.64c-1.02-1.03-2.65-1.07-3.66-.09-1.01.99-1,2.63.02,3.66,1.02,1.03,2.65,1.07,3.66.09,1.01-.99,1-2.63-.02-3.66Z"/>
        <path class="cls-9" d="M13.39,11.98l-.35-.35c-.2.19-.47.33-.67.36l-.15-.32c.21-.04.45-.14.64-.33.24-.24.26-.54.07-.74-.19-.19-.44-.18-.79-.04-.48.2-.86.25-1.16-.05-.29-.29-.3-.71-.04-1.07l-.35-.35.21-.21.33.34c.21-.19.41-.27.56-.31l.14.31c-.11.03-.33.09-.55.3-.26.26-.2.52-.07.66.18.18.39.15.81-.02.5-.2.85-.19,1.16.12.27.28.34.72.05,1.12l.36.36-.21.21Z"/>
      </g>
      <g>
        <path class="cls-18" d="M22.65,6.12c.98-1.07.92-2.71-.12-3.66-1.04-.95-2.68-.85-3.65.23-.97,1.07-.92,2.71.12,3.66s2.68.85,3.65-.23Z"/>
        <path class="cls-9" d="M19.29,5.78l.33-.37c-.2-.19-.35-.45-.4-.65l.31-.17c.05.2.17.44.37.62.25.23.56.23.74.03.18-.2.16-.45,0-.79-.23-.47-.3-.84-.01-1.16.27-.3.69-.34,1.06-.1l.33-.37.22.2-.32.35c.21.2.3.39.34.54l-.31.16c-.03-.11-.11-.32-.33-.53-.27-.25-.53-.17-.66-.03-.17.19-.13.4.06.81.23.48.24.84-.06,1.16-.26.29-.7.38-1.12.11l-.34.38-.22-.2Z"/>
      </g>
      <g>
        <path class="cls-18" d="M32.89,6.9c-.56-1.15-1.92-1.63-3.04-1.08-1.11.55-1.56,1.92-1,3.07.56,1.15,1.92,1.63,3.04,1.08,1.11-.55,1.56-1.92,1-3.07Z"/>
        <path class="cls-9" d="M31.53,9.54l-.19-.39c-.22.1-.48.15-.66.11l-.04-.3c.18.03.41,0,.62-.1.27-.13.37-.38.26-.6-.1-.21-.32-.27-.65-.25-.46.03-.79-.03-.95-.36-.16-.32-.06-.68.26-.9l-.19-.39.23-.11.19.38c.23-.1.42-.12.56-.11l.03.3c-.1,0-.3-.02-.54.1-.29.14-.31.37-.24.53.1.2.29.23.68.21.47-.03.76.08.93.42.15.31.08.7-.27.95l.2.4-.24.12Z"/>
      </g>
    </g>
  </g>
</svg>