<?xml version="1.0" encoding="UTF-8"?>
<svg id="_圖層_2" data-name="圖層_2" xmlns="http://www.w3.org/2000/svg" viewBox="0 0 174 117.67">
  <defs>
    <style>
      .cls-1, .cls-2, .cls-3 {
        fill: none;
      }

      .cls-4 {
        fill: #091b33;
      }

      .cls-5 {
        fill: #64401d;
      }

      .cls-2, .cls-6 {
        stroke: #0d2a4b;
        stroke-linecap: round;
        stroke-width: .54px;
      }

      .cls-2, .cls-6, .cls-3 {
        stroke-miterlimit: 10;
      }

      .cls-7 {
        fill: #0d1c34;
      }

      .cls-8 {
        fill: #0a243d;
      }

      .cls-9 {
        fill: #264e7e;
      }

      .cls-10 {
        fill: #080103;
      }

      .cls-11, .cls-6 {
        fill: #0d2a4b;
      }

      .cls-12, .cls-13, .cls-14, .cls-15 {
        isolation: isolate;
      }

      .cls-16 {
        fill: #f0efee;
      }

      .cls-17 {
        fill: #9b9b9b;
      }

      .cls-18, .cls-14 {
        fill: #d1e1f2;
      }

      .cls-19 {
        fill: #3e3a39;
      }

      .cls-20 {
        fill: #f0b37e;
      }

      .cls-13 {
        mix-blend-mode: soft-light;
      }

      .cls-13, .cls-21 {
        fill: #ededec;
      }

      .cls-14, .cls-15 {
        mix-blend-mode: multiply;
      }

      .cls-22 {
        fill: #dc8868;
      }

      .cls-15 {
        fill: #c3c1c1;
      }

      .cls-3 {
        stroke: #00a0e9;
      }
    </style>
  </defs>
  <g id="_圖層_1-2" data-name="圖層_1">
    <g>
      <path class="cls-3" d="M144.95.5H29.06C15.2.5,3.97,11.73,3.97,25.59s11.23,25.09,25.09,25.09h37.92l15.27,10.73-6.1-10.73h68.79c13.86,0,25.09-11.23,25.09-25.09S158.8.5,144.95.5Z"/>
      <g class="cls-12">
        <g id="_圖層_2-2" data-name="_圖層_2">
          <g id="_圖層_1-2">
            <g>
              <g>
                <polygon class="cls-16" points="79.74 79.16 82.1 77.49 83.8 77.52 85.49 79.31 88.59 80.51 87.25 111.17 79.11 109.49 77.71 83.09 79.74 79.16"/>
                <path class="cls-8" d="M91.93,116.79c.05-3.15.03-6.22-.17-9.29-7.78,0-17,0-17,0-.18,3.33-.25,6.37-.29,9.3h17.46Z"/>
                <rect class="cls-17" x="81.95" y="105.77" width="2.02" height="4.86" transform="translate(-25.39 190.97) rotate(-89.9)"/>
                <g>
                  <path class="cls-22" d="M88.09,71.88c-.11.78-.71,1.79-1.3,1.48-.47-.25-.86-.65-.76-1.44.11-.78.52-1.17,1.14-1.29.67-.13,1.02.46.91,1.24h.01Z"/>
                  <path class="cls-20" d="M87.9,70.89c-.12-.16-.8-.24-.99.35l.07-.55s.22-.1.47-.06c.33.05.45.27.45.27h0Z"/>
                  <path class="cls-22" d="M77.98,71.86c.1.78.71,1.79,1.29,1.49.47-.24.86-.65.76-1.43-.1-.78-.51-1.17-1.13-1.29-.67-.14-1.02.46-.92,1.24h0Z"/>
                  <path class="cls-20" d="M78.17,70.88c.13-.16.8-.24.99.35l-.07-.56s-.22-.1-.47-.06c-.33.05-.45.27-.45.27Z"/>
                  <path class="cls-20" d="M80.45,75.51c.24.86-.1,3.16-.16,3.64-.05.39-.5,1.47.9,1.76.16.03.2,1.6.79,2.12.49.21,1.75,0,1.75,0,0,0,.46-2.07.71-2.12,1.3-.24,1.1-1.3,1.1-1.3,0,0-.57-2.59-.27-4l-4.84-.11h.02Z"/>
                  <path class="cls-22" d="M80.52,76.02s.04.3,0,.82c0,0,1.4,1.66,2.4,1.66s2.28-1.53,2.28-1.53c0,0-.02-1.03.03-1.45,0,0-4.71.5-4.71.5Z"/>
                  <path class="cls-20" d="M86.98,70.25c0,2.18-1.77,3.94-3.95,3.94s-3.94-1.77-3.94-3.95c0-2.93,1.77-4.33,3.95-4.33s3.94,1.48,3.94,4.34Z"/>
                  <path class="cls-20" d="M86.98,70.25c0,2.11,0,3.88-.81,5.02-.49.69-1.75,1.88-2.66,2.18-.23.07-.87.04-1.1-.05-.9-.32-2.06-1.48-2.52-2.14-.8-1.15-.8-2.92-.8-5.03"/>
                  <path class="cls-8" d="M85.43,71.68c0,.36-.22.65-.48.65s-.48-.29-.48-.65.22-.65.48-.65.48.29.48.65Z"/>
                  <path class="cls-8" d="M81.7,71.67c0,.36-.22.65-.48.65s-.48-.29-.48-.65.22-.65.48-.65.48.29.48.65Z"/>
                  <path class="cls-8" d="M84.31,70.05c.56-.07,1.13,0,1.65.22.04.02.06.06.04.1s-.06.06-.1.04c-.25-.08-.52-.12-.78-.15-.26-.04-.53-.07-.79-.06-.04,0-.08-.03-.08-.07s.03-.08.07-.08h-.01Z"/>
                  <path class="cls-8" d="M81.69,70.21c-.26,0-.53.01-.79.06-.26.03-.53.07-.78.15-.04.01-.09-.01-.1-.05s0-.08.04-.1c.52-.23,1.09-.28,1.65-.22.04,0,.07.05.07.09s-.04.07-.08.07h-.01Z"/>
                  <path class="cls-22" d="M82.34,73.76c.25-.12,1.16-.13,1.38,0,.21.13-.46.3-.69.3s-.89-.19-.69-.3Z"/>
                  <path class="cls-22" d="M81.59,75.02c.85.22,2.17.19,2.96.1.1-.01.14,0,0,.06-.22.09-.88.22-1.47.22s-1.34-.21-1.53-.33c-.08-.05-.04-.07.03-.05h.01Z"/>
                </g>
                <path class="cls-16" d="M87.12,82.67c.2,1.52-.19,3.08-.38,4.59-.51,4.18-3.63,22.01-4.35,29.52h10.1c.05-3.16-.22-7.56-.52-14.7-.24-5.73-.36-11.49-.53-12.89l.07-7.74c-2.23-1.08-4.29-1.5-6.03-2.15,1.11.42,1.5,2.38,1.63,3.36h0Z"/>
                <path class="cls-16" d="M73.86,116.79h11.52c1.1-6.51.46-20.22.46-20.22.02-4.01-4.92-5.13-5.89-8.95-.61-2.41-2.04-6.85.35-8.89-.9.77-4.76,1.79-6.01,2.57l.6,8.98c.14,2-.01,4.43-.34,9.16-.14,2-.06,3.07.14,4.21.19,1.09.61,2.45.08,3.39-.75,1.35-.93,6.44-.92,9.75h0Z"/>
                <path class="cls-8" d="M83.01,67.9c-.56,0-1.03-.24-1.62-.39-1.06-.26-1.54.56-1.54.56-.61,1-.48,4.12-.49,4.3,0,.18-.25.2-.26,0,0,0-.93-2.33-.37-3.64.28-1.61.72-3.73,2.8-3.32,0,0,1.18-.98,3.13-.46,1.94.52,2.51,1.91,2.67,3.54.58,1.18-.35,3.42-.35,3.83,0,.24-.27.21-.26,0,0-.33.07-3.3-.55-4.23-.75-1.12-2.61-.2-3.15-.2h0Z"/>
                <path class="cls-16" d="M75.94,87.89l-8.93,7.55s1.5,2.25,3.96,5c.14.15-.15.7-.02.84.41.47.77.88,1.04,1.21.6.67-1.72,3.28-2.32,2.7-.17-.12-.55-.41-1.09-.82-.1-.07-.73.03-.84-.05-3.15-2.43-7.13-7.4-7.2-8.87-.12-2.44,12.89-13.36,12.89-13.36.83-.94,1.5-1.59,3.59,0,1.57,1.18,1.94,4.9,1.52,5.82-.42.92-2.6-.02-2.6-.02Z"/>
                <path class="cls-20" d="M71.91,102.74s.52.31.83.38c.31.07,1.97-.12,2.45.63.48.75.08,3.77-1.43,4.06-1.85.35-2.91-2.11-3.86-2.68,0,0,.34-1.5,2-2.39h.01Z"/>
                <path class="cls-18" d="M85.39,78.73s.17,0,.33.16c.11.11.35.63.35.63,0,0,1.3,2.32-2.52,3.59,0,0,.16-1.48.69-2.4.74-.08,1.22-.6,1.25-1.11.02-.39-.1-.86-.1-.86h0Z"/>
                <path class="cls-18" d="M80.35,78.72s-.15,0-.32.16c-.12.11-.35.62-.35.62,0,0-1.31,2.31,2.51,3.6,0,0-.16-1.49-.68-2.4-.74-.08-1.26-.6-1.24-1.12.01-.37.09-.86.09-.86h-.01Z"/>
                <path class="cls-18" d="M86.4,84.77c.53.86.48,23.66.38,32.02h.29c.11-8.61-.11-31.42-.28-32.13-.21-.87-3.25-1.55-3.25-1.55,0,0,2.29.75,2.85,1.66h.01Z"/>
                <path class="cls-9" d="M84.9,86.8c0,.19.15.34.34.34s.34-.15.34-.34-.15-.34-.34-.34-.34.15-.34.34Z"/>
                <path class="cls-9" d="M80.53,86.79c0,.19.15.34.34.34s.34-.15.34-.34-.15-.34-.34-.34-.34.15-.34.34Z"/>
                <path class="cls-9" d="M84.89,91.82c0,.19.15.34.34.34s.34-.15.34-.34-.15-.34-.34-.34-.34.15-.34.34Z"/>
                <path class="cls-9" d="M80.52,91.81c0,.19.15.34.34.34s.34-.15.34-.34-.15-.34-.34-.34-.34.15-.34.34Z"/>
                <path class="cls-9" d="M84.88,96.84c0,.19.15.34.34.34s.34-.15.34-.34-.15-.34-.34-.34-.34.15-.34.34Z"/>
                <path class="cls-9" d="M80.52,96.83c0,.19.15.34.34.34s.34-.15.34-.34-.15-.34-.34-.34-.34.15-.34.34Z"/>
                <path class="cls-9" d="M84.87,101.86c0,.19.15.34.34.34s.34-.15.34-.34-.15-.34-.34-.34-.34.15-.34.34Z"/>
                <path class="cls-9" d="M80.51,101.86c0,.19.15.34.34.34s.34-.15.34-.34-.15-.34-.34-.34-.34.15-.34.34Z"/>
                <path class="cls-9" d="M84.86,106.89c0,.19.15.34.34.34s.34-.15.34-.34-.15-.34-.34-.34-.34.15-.34.34Z"/>
                <path class="cls-9" d="M80.5,106.88c0,.19.15.34.34.34s.34-.15.34-.34-.15-.34-.34-.34-.34.15-.34.34Z"/>
                <path class="cls-9" d="M84.86,111.91c0,.19.15.34.34.34s.34-.15.34-.34-.15-.34-.34-.34-.34.15-.34.34Z"/>
                <path class="cls-9" d="M80.49,111.9c0,.19.15.34.34.34s.34-.15.34-.34-.15-.34-.34-.34-.34.15-.34.34Z"/>
                <path class="cls-16" d="M87.32,68.5l-.85-9.01s-1.39-1.83-3.55-2.03c0,0-1.89.23-3.29,2.02l-.9,9.24s2.11-3.12,4.36-3.11c2.25,0,4.23,2.88,4.23,2.88h0Z"/>
                <path class="cls-18" d="M87.02,65.31s-3.52-2.2-3.97-2.2-3.99,2.28-3.99,2.28c0,0,3.27-1.99,3.99-1.99s3.97,1.91,3.97,1.91Z"/>
                <polygon class="cls-18" points="80.54 64.46 80.28 64.67 80.55 59.66 80.54 64.46"/>
                <polygon class="cls-18" points="81.83 63.75 81.57 63.97 81.84 58.95 81.83 63.75"/>
                <polygon class="cls-18" points="83.18 63.11 82.92 63.33 83.04 58.17 83.18 63.11"/>
                <polygon class="cls-18" points="84.33 63.76 84.59 63.97 84.34 58.96 84.33 63.76"/>
                <polygon class="cls-18" points="85.68 64.52 85.94 64.68 85.69 59.66 85.68 64.52"/>
                <path class="cls-20" d="M95.22,112.21c-1.26,1.21-.44,2.73-1.35,2.59-.93-.15-.81.47-.01.67,1.34.33,1.34-.31,1.34-.31,0,0,.16.33.16.79,0,.66-.38.33-.72.19-.07.91,1.63,1.62,2.53,1.24,1.44-.81.98-3.8.97-4.06-.03-.55-.08-2.1-.08-2.1l-3.13-1.86s.49,2.65.3,2.86h-.01Z"/>
                <path class="cls-16" d="M90.7,81.1c1.49.56,2.72.99,4.71,8.92.94,3.77,2.78,13.94,3.07,19.21.01.22-.35.59-.34.79.06,1.23.09,2.09.08,2.39-.04.87-3.49-.1-3.52-.94-.01-.25-.1-.99-.24-2.02-.03-.22-.3-.33-.33-.57-.7-5.06-3.03-17.01-3.03-17.01"/>
              </g>
              <g>
                <path class="cls-8" d="M113.8,67.6c0,1.52-1.23,2.75-2.74,2.75s-2.75-1.23-2.75-2.74,1.23-2.75,2.74-2.75,2.75,1.23,2.75,2.74Z"/>
                <path class="cls-20" d="M111.77,71c.22.76-.08,2.46-.13,2.88,0,.08-.83.49-1.07,1.02-.42.93-.75,1.13-.21,1.75.43.5,3.26,4.12,3.56,4.12.25,0,3.36-3.7,3.56-4.41.27-.97-.42-1.76-1.25-2.01-.06-.16-.45-2.01-.19-3.26,0,0-4.27-.09-4.27-.09Z"/>
                <path class="cls-22" d="M111.83,71.45s.03.27,0,.73c0,0,1.24,1.46,2.12,1.46s2.01-1.35,2.01-1.35c0,0-.02-.91.02-1.28l-4.16.45h0Z"/>
                <path class="cls-22" d="M118.51,67.78c-.09.69-.63,1.58-1.14,1.31-.41-.22-.76-.57-.67-1.27s.45-1.03,1-1.14c.59-.12.9.41.81,1.1Z"/>
                <path class="cls-20" d="M118.34,66.9c-.11-.14-.7-.21-.88.31l.06-.49s.19-.09.42-.05c.29.05.39.23.39.23h.01Z"/>
                <path class="cls-22" d="M109.58,67.78c.09.69.63,1.58,1.14,1.31.41-.22.76-.58.67-1.27-.09-.69-.45-1.03-1-1.14-.59-.12-.9.41-.81,1.1Z"/>
                <path class="cls-20" d="M109.74,66.91c.11-.14.7-.21.88.31l-.06-.49s-.19-.09-.42-.05c-.29.05-.39.24-.39.24h-.01Z"/>
                <path class="cls-20" d="M117.53,66.34c0,1.93-1.56,3.49-3.48,3.49s-3.49-1.56-3.49-3.49c0-2.59,1.56-3.83,3.48-3.83s3.49,1.3,3.49,3.83Z"/>
                <path class="cls-20" d="M117.53,66.34c0,1.86,0,3.43-.71,4.44-.43.61-1.54,1.66-2.35,1.93-.2.07-.77.03-.97-.04-.8-.28-1.83-1.3-2.23-1.89-.71-1.01-.71-2.57-.71-4.44"/>
                <path class="cls-8" d="M116.16,67.6c0,.32-.19.57-.43.57s-.43-.26-.43-.57.19-.57.43-.57.43.26.43.57Z"/>
                <path class="cls-8" d="M112.86,67.6c0,.32-.19.57-.43.57s-.43-.26-.43-.57.19-.57.43-.57.43.26.43.57Z"/>
                <path class="cls-8" d="M115.17,66.16c.49-.06,1-.01,1.46.19.04.02.06.06.04.1s-.06.06-.1.04c-.22-.07-.46-.1-.69-.13-.23-.04-.47-.06-.7-.05-.04,0-.08-.03-.08-.07s.03-.08.07-.08Z"/>
                <path class="cls-8" d="M112.85,66.32c-.23,0-.47.02-.7.06-.23.02-.46.06-.69.13-.04.01-.09-.01-.1-.05s0-.08.04-.1c.46-.21.96-.26,1.46-.19.04,0,.07.05.07.09s-.04.07-.08.07h0Z"/>
                <path class="cls-8" d="M117.48,68.44c-.02-.96.05-1.72-.73-2.41-1.1-.97-2.07-.63-2.95-1.23-.82-.56-1.15-1.44-1.05-2.29l1.26-.18,1.3.18,1.51,1.09.78,1.66s.17.59.12,1.57c-.05.98-.23,1.6-.23,1.6h-.01Z"/>
                <path class="cls-8" d="M112.8,63.37s.11.6-1.05,1.48-1.2,3.16-1.13,3.77c0,0-.43-1.21-.29-2.62s.26-2.62,2.66-3.49l-.18.86h-.01Z"/>
                <path class="cls-8" d="M112.74,117.66c.6-4.53.92-7.99.97-8.58h.73s.46,4.12.83,8.58h6.59c-.01-6.84-.41-12.78-.48-14.64-.5-.06-1.37-2.46-2.76-2.48-2.28-.02-5.33,0-7.79.04-2.42.03-4.5,2.44-4.5,2.44-.81,2.49-.42,8.48-.34,14.63h6.76-.01Z"/>
                <path class="cls-16" d="M114.18,77.26c1.99-.18,2.77-2.68,2.05-2.91,1.53.58,2.64.62,4.61,1.57l.67,7.16c.16,1.24-.09,6.76.14,11.83.12,2.7.1,11.77.13,12.11.21,3-8.79,3.03-10.7,2.58-.43-.1-.59-.39-.64-.59-1.93-7.19,3.74-31.7,3.74-31.74h0Z"/>
                <path class="cls-16" d="M114.18,77.26c-2.34,0-3.62-2.11-2.54-3.38-.79.68-4.15,1.55-5.26,2.24l-.04,7.89c.13,1.77-.75,18.21-.75,22.4,0,1.9,2.44,2.55,4.3,2.68.33.02,3.24-.12,3.24-.79,0-5.52,1.04-30.92,1.04-31.04h.01Z"/>
                <path class="cls-18" d="M114.37,77.23s-3.82.56-3.88.74-.13,30.67-.13,30.67c0,0,.34-29.78.65-30.23.31-.45,3.36-1.19,3.36-1.19h0Z"/>
                <path class="cls-22" d="M113.43,69.45c.22-.11,1.03-.11,1.22,0s-.4.27-.61.27-.79-.17-.61-.27Z"/>
                <path class="cls-16" d="M106.67,88.27c2.03-.07,5.07-.13,8.42-.13.87.02.53,3.21.21,2.69-1.82.06-11.89,2.68-12.48,1.26-.39-.95,1.8-13.27,2.78-15.25.56-.85,1.09-1.19,2.3.3.91,1.12.29,3.7.06,4.4-.37,1.13-1.3,6.72-1.3,6.72h.01Z"/>
                <path class="cls-20" d="M120.94,88.31c-2.03-.07-6.13-1.15-9.48-1.15-.22,0-3.09.77-3.1,1.11.43-.03,1.33.08,2.15.57,1.07.64,2.05,1.68,2.19,1.46,1.83.05,11.34,3.61,12.12,2.3.82-1.37-.02-4.32-.26-5.72-.45-2.63-.95-5.29-1.65-7.87-.48-1.76-1.92-4.57-3.72-2.2-.87,1.15-.05,4.19.41,4.78.46.58,1.34,6.73,1.34,6.73h0Z"/>
                <path class="cls-22" d="M114.65,90.95l-2.1-.96s-2.31-1.79-4.04-1.84l-.14.13s2.09.04,3.14,1.38c.49.63,1.59.8,1.89,1.51,0,0,.91-.16,1.25-.21h0Z"/>
                <path class="cls-16" d="M113.63,87.28s-1.13,2.08-.02,4.35c0,0,10.07,1.73,11.17,1.35s.21-4.82-.12-6.51-1.43-9.94-3.75-10.57l-.93-.37-1.23.59s-.86,2.93-.88,3,.17,4.68.17,4.68l2.46,3.98-6.86-.5h0Z"/>
                <path class="cls-20" d="M120.64,86.34c.84.14,1.31,2.37.12,2.53-.72.1-1.19-.16-1.76-.66-.5-.43-1.78-.66-2.51-.72,0,0,2.71-1.39,4.16-1.15h0Z"/>
                <path class="cls-14" d="M114.7,91.81s6.56,1.33,6.92,2.49l-.04-1.41-6.88-1.08Z"/>
                <path class="cls-18" d="M106.1,92.38l6.14-1.05s-6.16,1.34-6.2,2.46"/>
                <path class="cls-18" d="M107.47,88.24l-.8.02.98-5.4s-.51,4.6-.18,5.37h0Z"/>
                <path class="cls-18" d="M120.25,82.59c.05.19.39,3.75.39,3.75,0,0-.37-.07-.79,0,0,0,.64-.33.4-3.75Z"/>
                <path class="cls-22" d="M112.61,70.59c.78.2,1.99.17,2.72.09.09-.01.12,0,0,.05-.2.09-.81.69-1.35.69s-1.23-.67-1.41-.78c-.08-.05-.04-.06.03-.05h.01Z"/>
                <path class="cls-16" d="M115.4,70.67s-.34.23-.48.34c-.24.06-1.65.06-1.93-.06-.6-.4-.43-.37-.43-.37,0,0,1.74.17,2.84.09Z"/>
                <path class="cls-18" d="M111.69,73.5s.04,1.4,1.25,2.16c.57.38.59,1.07.47,1.52,0,0-1.35-.13-1.98-1.48-.63-1.35.26-2.2.26-2.2Z"/>
                <path class="cls-18" d="M116.05,73.5s-.03,1.4-1.25,2.16c-.57.38-.57,1.13-.44,1.57,0,0,1.32-.19,1.95-1.54.63-1.35-.26-2.2-.26-2.2h0Z"/>
                <path class="cls-9" d="M112.26,79.53c0,.19-.16.35-.35.35s-.35-.16-.35-.35.16-.35.35-.35.35.16.35.35Z"/>
                <path class="cls-9" d="M116.06,79.53c0,.19-.16.35-.35.35s-.35-.16-.35-.35.16-.35.35-.35.35.16.35.35Z"/>
                <path class="cls-9" d="M112.26,83.94c0,.19-.16.35-.35.35s-.35-.16-.35-.35.16-.35.35-.35.35.16.35.35Z"/>
                <path class="cls-9" d="M116.06,83.94c0,.19-.16.35-.35.35s-.35-.16-.35-.35.16-.35.35-.35.35.16.35.35Z"/>
                <path class="cls-9" d="M112.27,92.76c0,.19-.16.35-.35.35s-.35-.16-.35-.35.16-.35.35-.35.35.16.35.35Z"/>
                <path class="cls-9" d="M116.07,92.75c0,.19-.16.35-.35.35s-.35-.16-.35-.35.16-.35.35-.35.35.16.35.35Z"/>
                <path class="cls-9" d="M112.27,97.16c0,.19-.16.35-.35.35s-.35-.16-.35-.35.16-.35.35-.35.35.16.35.35Z"/>
                <path class="cls-9" d="M116.07,97.16c0,.19-.16.35-.35.35s-.35-.16-.35-.35.16-.35.35-.35.35.16.35.35Z"/>
                <path class="cls-9" d="M112.27,101.57c0,.19-.16.35-.35.35s-.35-.16-.35-.35.16-.35.35-.35.35.16.35.35Z"/>
                <path class="cls-9" d="M116.07,101.57c0,.19-.16.35-.35.35s-.35-.16-.35-.35.16-.35.35-.35.35.16.35.35Z"/>
                <path class="cls-9" d="M112.27,105.98c0,.19-.16.35-.35.35s-.35-.16-.35-.35.16-.35.35-.35.35.16.35.35Z"/>
                <path class="cls-9" d="M116.08,105.98c0,.19-.16.35-.35.35s-.35-.16-.35-.35.16-.35.35-.35.35.16.35.35Z"/>
                <path class="cls-16" d="M110.48,64.95l.71-7.39s1.14-1.5,2.92-1.66c0,0,1.55.19,2.69,1.66l.73,7.58s-1.73-2.56-3.57-2.56-3.47,2.36-3.47,2.36h-.01Z"/>
                <path class="cls-18" d="M110.74,62.33s2.89-1.8,3.26-1.8,3.28,1.88,3.28,1.88c0,0-2.68-1.64-3.28-1.64s-3.26,1.56-3.26,1.56Z"/>
                <polygon class="cls-18" points="116.05 61.63 116.26 61.81 116.05 57.7 116.05 61.63"/>
                <polygon class="cls-18" points="114.99 61.06 115.2 61.23 114.99 57.12 114.99 61.06"/>
                <polygon class="cls-18" points="113.89 60.53 114.1 60.71 114 56.47 113.89 60.53"/>
                <polygon class="cls-18" points="112.94 61.06 112.73 61.24 112.94 57.12 112.94 61.06"/>
                <polygon class="cls-18" points="111.83 61.68 111.62 61.81 111.83 57.7 111.83 61.68"/>
              </g>
              <g>
                <path class="cls-20" d="M163.52,91.07c.53-.31.93-.89,1.75-1.35.83-.46,2.29-.42,3.46-.77.44-.13,1.32.11,1.54.38.22.27-1.82,1.32-2.32,1.63-.5.3-2.73.88-3.58,1.5,0,0-4.88,2.6-6.63,2.6-2.04,0-.25-2.27-.41-2.45-.14-.15,6.13-1.49,6.2-1.54h0Z"/>
                <path class="cls-11" d="M142.29,117.66l.88-9.03.53.06c.14,1.34.43,4.8.77,8.98h6.49c-.24-6.83-.49-13.34-.6-17.21,0,0-6.62-.02-13.89,0-.29,4.39-.36,11.85-.38,17.22h6.2Z"/>
                <path class="cls-16" d="M148.84,86.45s3.44,10.79,5.56,11.15c.49.08,1.82-.24,3.39-.71.16-.05.26.16.45.2,1,.19,1.5-.42,1.88-1.16.32-.63.4-1.38.42-2.07.02-.72-.1-2.52-1.21-2.41-.56.05-.8.51-.91.55-1.68.49-2.62.56-2.62.56,0,0-1.75-4.8-3.43-8.37-1.62-3.46-2.15-4.05-4.06-5.05-.71-.37.19,6.27.54,7.32h0Z"/>
                <path class="cls-20" d="M134.04,104.54c.97.86.7,2,.81,2.77.08.52.37,1.11-.07.94-.79-.3-.67-1.62-.67-1.62,0,0-.26.13-.3.46-.07.58.62,1.77.7,2.35.09.61-1.18.09-1.68-.59-.92-1.16-.93-3.21-.92-3.4,0-.41.46-7.57.46-7.57h2.4s-.88,6.52-.73,6.67h0Z"/>
                <path class="cls-16" d="M137.07,88.16s-.82,5.88-1.52,10.99c-.2,1.48-5.05,1.32-5-.19.09-.71.2-1.44.31-2.17.03-.18.71-.48.74-.66.58-3.77,1.3-7.49,1.7-9.41,1.05-5.09,2.82-7.72,4.19-7.94,1.36-.22-.41,9.38-.41,9.38h0Z"/>
                <path class="cls-16" d="M137.48,78.78s-1.79,20.18-1.01,21.66c.77,1.48,13.11.64,13.89,0,.78-.62-2.06-21.32-2.06-21.32,0,0-5.57-1.54-10.81-.35h-.01Z"/>
                <path class="cls-5" d="M152.93,117.66c-.82-8.89-2.45-24.56-2.45-24.56-.6-4.21-1.63-10.58-4.56-14.39-.11-.09-.47-.17-.62-.08.5.74,2.03,4.12,2.12,6.48.04.74-8.46.53-8.42-.14-.05-3.5,1.75-6.62,1.75-6.62-.31-.18-.65.04-.65.04-3.48,4.1-4.03,14.86-4.03,14.86,0,0-.76,15.62-1.13,24.42h18-.01Z"/>
                <g>
                  <path class="cls-22" d="M138.55,71.75c.09.68.62,1.55,1.12,1.29.41-.21.75-.57.66-1.25s-.45-1.01-.99-1.12c-.58-.12-.89.4-.8,1.08h.01Z"/>
                  <path class="cls-20" d="M138.71,70.89c.11-.14.69-.21.86.3l-.06-.48s-.19-.09-.41-.05c-.29.05-.39.23-.39.23Z"/>
                  <path class="cls-22" d="M147.34,71.74c-.09.68-.62,1.55-1.12,1.29-.41-.21-.75-.57-.66-1.25s.45-1.02.99-1.12c.58-.12.89.4.8,1.08h-.01Z"/>
                  <path class="cls-20" d="M147.18,70.88c-.11-.14-.69-.21-.86.3l.06-.48s.19-.09.41-.05c.29.05.39.23.39.23Z"/>
                  <path class="cls-20" d="M145.18,74.91c-.21.75.06,3.37.11,3.79.02.17-.26,2.27-2.29,2.27s-2.34-2.18-2.26-2.49c0,0,.5-2.25.24-3.48l4.21-.09h-.01Z"/>
                  <path class="cls-22" d="M145.12,75.35s-.03.26,0,.71c0,0-1.22,1.44-2.09,1.44s-1.98-1.33-1.98-1.33c0,0,.02-.89-.02-1.26l4.09.44Z"/>
                  <path class="cls-20" d="M139.51,70.33c0,1.9,1.54,3.43,3.43,3.43s3.43-1.54,3.43-3.44c0-2.54-1.54-3.77-3.43-3.77s-3.43,1.28-3.43,3.77h0Z"/>
                  <path class="cls-20" d="M139.51,70.33c0,1.84,0,3.37.7,4.37.42.6,1.52,1.63,2.31,1.89.2.06.76.03.96-.04.79-.28,1.8-1.29,2.2-1.86.7-1,.7-2.54.7-4.37"/>
                  <path class="cls-8" d="M140.86,71.57c0,.31.19.56.42.56s.42-.25.42-.57-.19-.57-.42-.57-.42.25-.42.57h0Z"/>
                  <path class="cls-8" d="M144.11,71.57c0,.31.19.57.42.56.23,0,.42-.25.42-.57s-.19-.57-.42-.57-.42.25-.42.57h0Z"/>
                  <path class="cls-8" d="M141.82,70.31c-.23,0-.46.02-.69.06-.23.02-.46.06-.68.13-.04.01-.09-.01-.1-.05,0-.04,0-.08.04-.1.45-.2.95-.25,1.44-.19.04,0,.07.05.07.09s-.04.07-.08.07h0Z"/>
                  <path class="cls-8" d="M144.1,70.15c.49-.06.99-.01,1.44.19.04.02.06.06.04.1s-.06.06-.1.04c-.22-.07-.45-.1-.68-.13-.23-.04-.46-.06-.69-.05-.04,0-.08-.03-.08-.07s.03-.08.07-.08Z"/>
                  <path class="cls-22" d="M143.54,73.39c-.22-.1-1.01-.11-1.2,0s.4.26.6.26.78-.17.6-.26h0Z"/>
                  <path class="cls-16" d="M144.35,74.17c-.71.28-1.85.41-2.54.43-.09,0-.12.02,0,.05.2.05.86.65,1.37.58s1.05-.89,1.21-1.02c.06-.05.03-.07-.03-.04h-.01Z"/>
                </g>
                <path class="cls-16" d="M139.51,70.16c0-1.38,1.39-2.22,3.43-2.22s3.42.82,3.42,2.03l.38-1.97s-.43-1.45-3.8-1.45-3.8,1.8-3.8,1.8l.37,1.8h0Z"/>
                <path class="cls-16" d="M139.14,68.36c-.43.14-2.06.21-2.46-1.03-.44-1.35.56-2.09,1.44-2.32,0,0-.7-1.09.31-2.19,1.08-1.17,2.79-.46,3.01.1,0,0,.67-1.64,2.3-1.31,1.62.32,1.55,2.03,1.55,2.03,0,0,1.54-.61,2.62.7,1.08,1.31.28,3.58-1.17,3.67,0,0-5.36-1.48-7.6.36h0Z"/>
                <path class="cls-18" d="M139.14,68.36c1.46-2.61,5.94-2.63,7.6-.36,0,0-.82-1.94-3.8-1.94s-3.8,2.29-3.8,2.29h0Z"/>
                <path class="cls-18" d="M145.28,63.64s-.15,1.34-1.3,1.51c0,0,1.42.09,1.3-1.51Z"/>
                <path class="cls-18" d="M141.44,62.92s-.37,1.28.78,2.08c0,0-1.46-.46-.78-2.08Z"/>
                <path class="cls-18" d="M138.11,65.02s.7.92,1.8.7c0,0-1.28.43-1.8-.7Z"/>
                <path class="cls-17" d="M162.46,90.25c-.52-3.46,1.32-6.16,4.27-6.62s5.88.8,6.34,5.12l-10.62,1.5h0Z"/>
                <path class="cls-17" d="M167.63,83.17c0,.4-.32.73-.72.73s-.73-.32-.73-.72.32-.73.72-.73.72.32.73.72Z"/>
                <path class="cls-21" d="M166.9,82.84c0,.13-.1.23-.23.23s-.23-.1-.23-.23.1-.23.23-.23.23.1.23.23Z"/>
                <path class="cls-13" d="M166.9,83.6s1.39-.23,2.83,1.28c.84.89,1.41,2.15,1.61,4.11l1.7-.52s-.12-2.42-1.98-3.91c-1.75-1.4-4.16-.96-4.16-.96Z"/>
                <path class="cls-13" d="M166.82,83.61c-1.22.09-2.43,2.4-1.89,5.99l-1.16.15s-.8-5.67,3.06-6.14h0Z"/>
                <path class="cls-15" d="M166.9,83.6s2.51,1.44,2.89,5.55l.82-.11s-.39-4.99-3.71-5.44Z"/>
                <path class="cls-21" d="M167.14,83.57s2.27-.28,4.09,1.53c1.26,1.25,1.47,3.38,1.47,3.38l-.65.11s-.36-2.28-1.29-3.42c-1.04-1.28-2.53-1.56-3.62-1.61h0Z"/>
                <g>
                  <path class="cls-1" d="M173.99,88.6c-.03-.16-.18-.27-.34-.24l-11.9,1.68c-.17.02-.28.18-.26.34l12.49-1.78h0Z"/>
                  <path class="cls-15" d="M161.5,90.38c.02.15.15.26.3.26h.04l11.9-1.68c.17-.02.28-.18.26-.34v-.02l-12.49,1.78h0Z"/>
                </g>
              </g>
              <g>
                <path class="cls-5" d="M19.99,82.81l5.93,5.1s-.76,1.16-2.42,3.02c-.09.1.1.47.02.57-.28.32-.52.59-.7.82-.4.46,1.16,2.22,1.56,1.83.11-.08.38-.28.74-.55.07-.05.5.02.57-.03,2.13-1.64,4.83-5,4.88-6,.08-1.65-9.67-9.45-9.67-9.45-.72-.53-.39-.32-1.47.39-1.06.8-1.31,3.31-1.03,3.94.28.63,1.6.37,1.6.37h-.01Z"/>
                <path class="cls-5" d="M10.8,82.82l-6.16,4.41s.99,1.85,2.66,3.71c.09.1-.1.47-.02.57.28.32.52.59.7.82.4.46-1.16,2.22-1.56,1.83-.11-.08-.38-.27-.74-.55-.07-.05-.5.02-.57-.03C2.99,91.93.05,87.88,0,86.88c-.08-1.65,7.99-8.27,7.99-8.27.56-.64,3.38-1.86,4.8-.79,1.06.8-.11,4-.39,4.62-.28.63-1.6.37-1.6.37h0Z"/>
                <path class="cls-10" d="M17.85,67.2s2.11.4,2.11,3.34c0,2.16-.45,3.3-.28,4.14.03.17,0,.38-.27.17-.8-.62-2.34-2.21-2.27-5.18"/>
                <path class="cls-7" d="M13.07,116.91c1.08-4.87,2.03-8.66,2.3-10.07.26,1.1,1.19,4.91,2.35,10.07h6.45c-.89-8.93-1.81-17.29-2.13-18.9-.44-2.21-12.88-2.58-13.63,0-.45,1.57-1.21,9.97-1.88,18.89h6.54Z"/>
                <g>
                  <path class="cls-22" d="M10.22,71.03c.09.67.61,1.54,1.11,1.28.4-.21.74-.56.65-1.24s-.44-1.01-.98-1.11c-.58-.12-.88.4-.79,1.07h.01Z"/>
                  <path class="cls-20" d="M10.38,70.18c.11-.13.69-.21.85.3l-.06-.48s-.19-.09-.41-.05c-.29.05-.38.23-.38.23Z"/>
                  <path class="cls-22" d="M18.93,71.02c-.09.67-.61,1.54-1.11,1.28-.4-.21-.74-.56-.65-1.24.09-.67.44-1.01.98-1.11.58-.12.88.39.79,1.07h-.01Z"/>
                  <path class="cls-20" d="M18.77,70.17c-.11-.13-.69-.21-.85.3l.06-.48s.19-.09.41-.05c.29.05.39.23.39.23h0Z"/>
                  <path class="cls-20" d="M16.8,73.68c-.21.74.08,3.01.13,3.14,0,0-.79,1.35-2.66,1.35s-1.87-.95-1.87-.95c0,0,.49-2.23.24-3.44l4.17-.09h0Z"/>
                  <path class="cls-22" d="M16.73,74.12s-.03.26,0,.71c0,0-1.21,1.43-2.07,1.43s-1.96-1.32-1.96-1.32c0,0,.02-.88-.02-1.25l4.06.43h-.01Z"/>
                  <path class="cls-20" d="M11.17,69.14c0,1.88,1.53,3.4,3.4,3.4s3.4-1.53,3.4-3.4c0-2.52-1.52-3.73-3.4-3.73s-3.4,1.27-3.4,3.74h0Z"/>
                  <path class="cls-20" d="M11.17,69.14c0,1.82,0,3.34.7,4.33.42.6,1.5,1.62,2.29,1.88.2.06.75.03.95-.04.78-.28,1.78-1.27,2.18-1.84.69-.99.69-2.51.69-4.33"/>
                  <path class="cls-10" d="M12.64,70.56c0,.31.19.56.42.56s.42-.25.42-.56-.19-.56-.42-.56-.42.25-.42.56Z"/>
                  <path class="cls-10" d="M15.64,70.56c0,.31.19.56.42.56s.42-.25.42-.56-.19-.56-.42-.56-.42.25-.42.56Z"/>
                  <path class="cls-4" d="M13.46,69.38c-.22.03-.45.03-.67.08-.22.01-.43.07-.66.1h0c-.08,0-.15-.05-.16-.13,0-.06.02-.11.07-.14.22-.13.47-.19.71-.23.25-.01.49-.03.74.03.08.02.12.1.1.17-.02.06-.06.1-.12.1h-.01v.02Z"/>
                  <path class="cls-4" d="M15.71,69.09c.25-.07.49-.05.74-.04.24.04.49.09.71.23.07.04.09.13.05.2-.03.05-.08.07-.14.07h0c-.23-.03-.44-.08-.66-.1-.22-.05-.45-.05-.67-.08h-.01c-.08-.01-.13-.09-.12-.17,0-.06.05-.1.1-.12h0Z"/>
                  <path class="cls-22" d="M15.17,72.17c-.22-.1-1-.11-1.19,0-.19.11.39.26.59.26s.77-.16.59-.26h.01Z"/>
                  <path class="cls-22" d="M15.82,73.26c-.73.18-1.87.16-2.55.08-.08,0-.12,0,0,.05.19.08.76.64,1.27.64s1.15-.63,1.32-.73c.07-.04.04-.06-.03-.04h0Z"/>
                </g>
                <path class="cls-10" d="M14.57,66.85c.48,0,.89-.21,1.4-.33.91-.23,1.35.75,1.35.75.52.86.41,3.55.42,3.71,0,.15.22.18.22,0,0,0,.2-1.79.08-2.88-.13-1.09-.73-2.77-2.21-2.88,0,0-.92-.84-2.32-.59-1.7.31-2.27,1.74-2.43,3.03-.15,1.18.09,2.92.09,3.27,0,.2.23.18.23,0,0-.29-.17-3.18.45-3.91,1.04-1.24,2.25-.17,2.71-.17h.01Z"/>
                <path class="cls-16" d="M12.97,73.38s.35.23.48.34c.24.06,1.67.06,1.95-.06.61-.4.43-.38.43-.38,0,0-1.76.17-2.87.1h.01Z"/>
                <path class="cls-5" d="M10.08,86.56c.43,2.25.53,6.14-1.64,11.36-.09.21,13.61.05,13.58-.03-1.29-3.14-1.86-7.67-1.52-11.12.6-1.89,1-4.14,1.45-4.38l-1.07-4.29c-.81-.87-3.21-1.7-4.12-1.96-.03.83-.37,1.4-1.51,1.56-.24.62-.88.69-1.14.05-1.65-.15-1.53-1.87-1.53-1.87-.78.26-2.39.62-4.61,2.72,0,0,1.18,5.6,2.09,7.95h.02Z"/>
                <path class="cls-16" d="M25.57,116.91c.02-1.3-.25-9.87-1.95-16.05-.65-2.37-2.38-4.75-2.67-6.66-.44-2.85-.37-3.7.33-5.47,1.08-2.73-1.25-9.02-3.94-12.51-.1-.08-.43-.15-.57-.08.46.68,1.86,3.78,1.95,5.94.03.68-7.75.48-7.72-.13-.04-3.21,1.6-6.07,1.6-6.07-.28-.16-.59.03-.59.03-3.19,3.76-4.19,10.54-3.57,12.36.66,1.93,1.13,3.45.63,7.46-.17,1.41.03.34-1.79,4.32-1.82,3.98-2.11,15.36-2.11,16.63,0,.08.04.15.08.22h20.32Z"/>
                <path class="cls-20" d="M7.94,92.48s.35.21.56.26,1.33-.09,1.66.42c.32.51.06,2.55-.96,2.75-1.25.24-1.97-1.43-2.61-1.8,0,0,.23-1.02,1.35-1.62h0Z"/>
                <path class="cls-20" d="M22.86,92.47s-.35.21-.56.26-1.33-.09-1.66.42c-.32.51-.06,2.55.97,2.75,1.25.24,1.97-1.43,2.61-1.81,0,0-.23-1.02-1.35-1.62h-.01Z"/>
                <path class="cls-16" d="M11.04,68.55c0-1.34,1.34-2.14,3.31-2.15,1.97,0,3.14.63,3.29,1.96l.38-1.9s-.42-1.4-3.67-1.4-3.67,1.74-3.67,1.74l.36,1.74h0Z"/>
                <path class="cls-16" d="M10.68,66.82c-.42.13-1.99.2-2.38-1-.42-1.3.54-2.02,1.39-2.23,0,0-.68-1.05.3-2.12,1.04-1.13,2.7-.44,2.91.1,0,0,.64-1.58,2.22-1.27,1.56.31,1.49,1.96,1.49,1.96,0,0,1.49-.59,2.53.67,1.05,1.26.27,3.45-1.12,3.54,0,0-5.17-1.43-7.34.34h0Z"/>
                <path class="cls-18" d="M10.68,66.82c1.41-2.52,5.73-2.53,7.34-.34,0,0-.8-1.87-3.67-1.87s-3.67,2.21-3.67,2.21Z"/>
                <path class="cls-18" d="M16.61,62.26s-.14,1.29-1.26,1.45c0,0,1.37.09,1.26-1.45Z"/>
                <path class="cls-18" d="M12.89,61.57s-.36,1.23.75,2.01c0,0-1.41-.44-.75-2.01Z"/>
                <path class="cls-18" d="M9.69,63.59s.68.89,1.74.67c0,0-1.23.41-1.74-.67Z"/>
                <polygon class="cls-16" points="11.41 98.48 17.79 98.48 17.29 106.57 12.88 106.57 11.41 98.48"/>
              </g>
              <g>
                <polygon class="cls-16" points="44.21 79.85 43.48 76.86 48.81 76.75 51.01 80.14 47.75 94.29 44.21 79.85"/>
                <path class="cls-8" d="M46.43,117.66c.19-1.98.34-3.56.44-4.46l.61-.06.52,4.52h7.67c-.04-5.65-.15-12.19-.42-16.35-8.42,0-16.09.02-16.09.02-.11,3.96-.36,9.93-.6,16.33,0,0,7.87,0,7.87,0Z"/>
                <path class="cls-20" d="M44.03,70.54c.63,1.32.38,6.58.32,6.73,0,0,.91,1.54,3.05,1.54s1.99-1.72,1.99-1.72c0,0-.41-1.92-.12-3.31,0,0-5.24-3.24-5.24-3.24Z"/>
                <path class="cls-22" d="M49.19,74.86l-3.5-2.21s-.18,2.41,3.56,3.05l-.05-.84h-.01Z"/>
                <polyline class="cls-2" points="69.13 71.56 59.55 74.06 58.37 75.5"/>
                <path class="cls-20" d="M63.79,77.73c.46-1.79-.34-3.77-.34-3.77,0,0,.28-.47.1-.81-.09-.17-.25-.31-.81-.17.13-.95,2.38-1.79,3.56-.82,1.3,1.26.26,3.79.28,4.08.04.62-1.48,9.09-1.48,9.09l-2.37-3.29s.81-2.79,1.05-4.3h.01Z"/>
                <path class="cls-16" d="M55.73,85.77c-.12,4.21-.58,16.01-.29,19.46.02.27-16.79.13-16.79.02.32-6.46.42-20.32-.93-21.02l1.02-4.96c.97-1.04,3.97-1.52,4.73-2.41,1.18.8,3.4,10.38,4.27,15.94,1.19-6.39,1.65-15.98,1.65-15.98,2.2.13,4.47,1.73,6.33,3.12v5.84h0Z"/>
                <path class="cls-16" d="M53.72,78.71l7.65,4.64s.31-.46.63-1.33c.06-.16-.12-.57-.06-.75.13-.36.43-.59.59-1.03.4-1.13,3.76,2.43,3.26,3.72-.11.29-.08.77-.17,1.02-.06.16-.48.16-.53.31-.85,2.33-1.01,3.2-1.73,3.57-1.23.64-9.1-3.21-9.1-3.21-.88.48-.6-.22-1.72-2-.84-1.33-.07-2.72.5-3.3s.68-1.64.68-1.64Z"/>
                <path class="cls-20" d="M63.93,76.23c-.07-.73-1.79-1.82-1.69-2.66s1.11.25,1.47.61c.79.79.22,2.05.22,2.05Z"/>
                <path class="cls-6" d="M58.38,75.53c-.03,1.02-.88,1.82-1.9,1.79s-1.82-.88-1.79-1.9l3.68.11h.01Z"/>
                <path class="cls-20" d="M51.66,68.02c.18,2.27-1.52,4.26-3.79,4.44-2.27.18-4.26-1.52-4.44-3.79s1.52-4.26,3.79-4.44c2.27-.18,4.26,1.52,4.44,3.79Z"/>
                <path class="cls-20" d="M51.66,68.02c.19,2.21-.22,6.09-1.21,6.65-.99.56-4.03-.18-4.55-1.5-.53-1.32-1.17-3.65-1.17-3.65"/>
                <path class="cls-20" d="M51.52,69.72s.77,1.87.63,2.08c-.14.2-.99.23-.99.23"/>
                <path class="cls-16" d="M51.35,72.7s-.62.09-1.11-.02c-.16-.04-.27-.09-.11.17.2.31.62.44,1.1.44,0,0,.12-.59.12-.59Z"/>
                <path class="cls-10" d="M50.38,69.95c0,.28-.15.51-.34.51s-.34-.23-.34-.51.15-.51.34-.51.34.23.34.51Z"/>
                <path class="cls-10" d="M50.27,68.69c-.22,0-.46,0-.65.09-.22.05-.38.19-.59.31h0s-.12.02-.16-.04c-.02-.03-.02-.08,0-.11.13-.25.38-.42.64-.52.28-.06.58-.08.84.08.05.03.06.09.03.14-.02.03-.05.05-.08.05h-.03Z"/>
                <path class="cls-22" d="M45.24,70.52c.09.7.61,1.34,1.16,1.33.47,0,0-.43-.11-1.14-.09-.7.32-1.2-.23-1.31-.6-.12-.92.41-.82,1.12Z"/>
                <path class="cls-11" d="M47.29,70.59l-.5-.25s.1-1.54-1-1.32c-1.11.22-.9,2.84-1.4,3.21-.57-1.06-3.03-4.26-1.5-6.87.64-.99,1.83-.63,1.83-.63,0,0-.46-2.34,3-2.16,2.14.11,4.35,1.65,6.21,1.15,0,0-.28,3.68-2.76,3.76-2.1.07-2.95-1.03-3.63-.59-.64.42.21,1.87-.25,3.69h0Z"/>
                <path class="cls-20" d="M35.7,108.06c1.17,1.03.84,2.4.97,3.32.09.62.45,1.33-.08,1.12-.95-.36-.8-1.94-.8-1.94,0,0-.31.15-.36.55-.09.69.74,2.12.84,2.81.1.73-1.41.11-2.01-.7-1.11-1.39-1.11-3.85-1.11-4.07,0-.49.56-9.08.56-9.08h2.88s-1.06,7.82-.88,7.99h-.01Z"/>
                <path class="cls-16" d="M39.33,89.18s-.98,7.06-1.82,13.17c-.25,1.77-6.05,1.59-6-.23.11-.85.24-1.72.37-2.6.03-.22.85-.57.89-.79.7-4.52,1.56-8.98,2.04-11.28,1.26-6.11,3.95-8.93,5.85-9.12,1.64-.17-1.32,10.84-1.32,10.84h-.01Z"/>
                <path class="cls-5" d="M57.44,117.66c-.55-9.05-1.75-25.88-1.75-25.88-.62-4.35-2.66-10.97-5.69-14.9-.11-.09-.49-.17-.64-.09.51.76,2.09,4.25,2.19,6.69.04.77-8.73.54-8.7-.15-.05-3.62,1.51-6.51,1.51-6.51-.32-.18-.67.04-.67.04-3.59,4.23-2.81,8.65-3.87,15.02-.53,3.21-1.29,7.12-1.38,10.63-.15,5.82-.39,11.3-.55,15.14h19.55Z"/>
              </g>
            </g>
          </g>
        </g>
      </g>
      <g>
        <g>
          <path class="cls-19" d="M24.49,15.57c0,.62.02,4.52.02,5.26,0,.18-.06.21-.21.24-.2.02-.51.04-.64.04,0-.49.02-2.4.02-4.75-.32.13-1.05.35-1.44.45l-.02-.03.2-.52c.76-.26,1.62-.58,2.01-.75l.06.06Z"/>
          <path class="cls-19" d="M29.03,15.57c0,.62.02,4.52.02,5.26,0,.18-.06.21-.21.24-.2.02-.51.04-.64.04,0-.49.02-2.4.02-4.75-.32.13-1.05.35-1.44.45l-.02-.03.2-.52c.76-.26,1.62-.58,2.01-.75l.06.06Z"/>
          <path class="cls-19" d="M31.07,20.55c1.61-1.64,2.2-2.57,2.2-3.35,0-.69-.37-1.04-.94-1.04-.45,0-.88.3-1.06.46-.15.12-.26.12-.35-.04-.04-.07-.06-.17-.05-.26.41-.52,1.06-.82,1.68-.82.98,0,1.56.63,1.56,1.6,0,.49-.17.89-.48,1.36-.3.48-1,1.26-1.69,1.97.69.05,1.74.04,2.55,0-.04.21-.26.47-.39.52-.1.06-.44.12-.94.12-.94,0-1.78,0-2.24-.09l-.04-.07.17-.37Z"/>
          <path class="cls-19" d="M37.81,17.4l-.38-.48c.81-.61,1.35-1.43,1.63-2.47l.6.11c-.09.3-.19.58-.3.86h4.97v.56h-2.51v1.28h2.23v.55h-2.23v1.73h2.77v.56h-2.77v1.78h-.58v-1.78h-3.69v-.56h1.32v-2.28h2.37v-1.28h-2.15c-.34.57-.75,1.04-1.26,1.42ZM41.23,19.53v-1.73h-1.8v1.73h1.8Z"/>
        </g>
        <g>
          <path class="cls-19" d="M69.14,19.42c-.85.78-2.42,1.58-3.7,1.96-.06-.15-.19-.36-.3-.49,1.27-.3,2.83-1.05,3.6-1.77l.41.3ZM68.68,18.46c-.74.57-2.1,1.2-3.12,1.52-.07-.14-.19-.34-.3-.46,1.01-.25,2.36-.83,3.03-1.34l.39.28ZM69.01,16.93c-.81.79-2.19,1.39-3.41,1.75-.06-.11-.22-.36-.32-.47,1.2-.29,2.53-.82,3.25-1.5l.49.21ZM71.85,15.28v1.61h-.6v-1.07h-5.37v1.07h-.58v-1.61h6.54ZM70.81,16.57v.51h-4.52v-.51h4.52ZM68.16,17.37c1.51,1.3,1.45,3.57.74,4.09-.25.22-.45.27-.81.28-.17,0-.42,0-.66-.01,0-.16-.06-.4-.16-.55.29.03.55.04.71.04.21,0,.36-.02.5-.16.49-.37.56-2.24-.76-3.43l.44-.25ZM68.56,14.53c.17.28.37.65.44.9l-.63.2c-.07-.25-.25-.64-.42-.92l.6-.18ZM71.3,17.76c-.65.53-1.55,1.14-2.23,1.51l-.38-.33c.67-.39,1.59-1.05,2.12-1.56l.48.38ZM72.19,20.95c-.13.11-.3.33-.39.48-1.06-.48-1.84-1.47-2.23-2.7l.51-.13c.35,1.06,1.11,1.96,2.11,2.35Z"/>
          <path class="cls-19" d="M74.45,15.56c-.3.5-.73.98-1.36,1.37-.08-.11-.23-.25-.34-.31.58-.32.99-.76,1.22-1.14l.48.08ZM76.81,16.84c-.84.99-2.27,1.75-3.69,2.18-.07-.14-.21-.33-.33-.46,1.38-.36,2.83-1.05,3.57-1.95l.45.24ZM75.71,15.72l.1-.02.33.19c-.56,1.09-1.8,1.81-2.96,2.16-.05-.12-.19-.29-.29-.39,1.07-.28,2.27-.96,2.72-1.84v-.09h.1ZM73.72,16.33c.34.18.75.45.96.64l-.33.29c-.2-.19-.61-.48-.94-.67l.31-.27ZM75.75,15.72v.37h-2.05l.3-.37h1.76ZM74.03,21.28c.11-.06.25-.18.25-.48v-2.36h.57v2.78s-.6.31-.6.5c-.03-.13-.13-.35-.21-.44ZM74.23,21.32l.28-.19,2.05-.29c-.01.15-.02.34-.02.46-1.89.29-2.14.35-2.3.43v-.41ZM75,14.58v1.34h-.51v-1.34h.51ZM78.13,19.18v.29h-3.55v-.29h3.55ZM78.49,18.44v1.78h-3.9v-.36h3.34v-1.06h-3.34v-.36h3.9ZM76.36,14.96v.39h-1.63v-.39h1.63ZM77.32,17.84v.34h-1.87v-.34h1.87ZM79.99,18.49c-.11.1-.27.3-.34.44-1.18-.32-2.69-1.02-3.53-1.76l.41-.23c.77.64,2.26,1.26,3.47,1.54ZM76.54,20.23c.98.29,2.28.78,2.97,1.13l-.29.38c-.66-.36-1.95-.87-2.96-1.19l.28-.32ZM77,15.6c.89.4,2,1.05,2.56,1.54l-.37.38c-.52-.49-1.62-1.17-2.52-1.59l.33-.33ZM79.1,14.92v.43h-2.42v-.43h2.42ZM79.06,14.92l.09-.02.33.15c-.42,1.1-1.37,1.82-2.38,2.18-.06-.13-.2-.31-.3-.42.91-.29,1.82-.95,2.15-1.8v-.08h.1ZM79.3,20.23c-.38.33-.85.67-1.22.9l-.33-.23c.36-.24.84-.66,1.12-.95l.43.28Z"/>
          <path class="cls-19" d="M81.61,15.16v2.46c0,1.21-.09,2.97-.65,4.16-.09-.1-.33-.26-.45-.32.53-1.12.57-2.7.57-3.83v-2.46h.53ZM87.65,15.16v.48h-6.2v-.48h6.2ZM83.34,20.98v.37c-.59.08-1.17.15-1.67.21l-.06-.41c.47-.04,1.07-.11,1.73-.18ZM83.4,19.64c-.47.1-1.11.18-1.64.18-.01-.09-.07-.24-.12-.35.51-.04,1.13-.12,1.51-.21l.25.37ZM83.81,18.55v.41h-2.06v-.41h2.06ZM83.28,20.22v.36h-1.48v-.36h1.48ZM84.39,16.09v.4h-2.54v-.4h2.54ZM82.66,16.29v2.47h-.44v-2.47h.44ZM82.76,19.56v1.68h-.4v-1.68h.4ZM83.82,16.93v.34h-1.42v-.34h1.42ZM83.82,17.72v.34h-1.42v-.34h1.42ZM84,16.29v5.48h-.46v-5.48h.46ZM84.26,14.52c.21.24.41.57.5.81l-.53.23c-.07-.24-.27-.59-.46-.84l.5-.2ZM84.91,20.24c-.05.45-.15.95-.38,1.25l-.38-.2c.2-.28.31-.75.37-1.17l.39.11ZM87.71,19.07v.42h-3.4v-.42h3.4ZM87.57,16.33v.43h-3.12v-.43h3.12ZM87.51,17.19v1.51h-3v-1.51h3ZM84.91,18.32h.48v-.75h-.48v.75ZM85.55,20.08v1.08c0,.14.03.16.2.16h.56c.15,0,.18-.05.2-.52.09.07.27.13.39.16-.04.62-.17.77-.53.77h-.67c-.47,0-.58-.11-.58-.57v-1.08h.44ZM85.78,19.49c.27.27.57.66.69.93l-.37.22c-.12-.27-.41-.67-.67-.95l.35-.19ZM86.22,15.86v1.58h-.51v-1.58h.51ZM85.74,18.32h.5v-.75h-.5v.75ZM86.6,18.32h.52v-.75h-.52v.75ZM87.12,20.03c.29.38.56.9.63,1.26l-.42.16c-.07-.35-.33-.88-.61-1.28l.4-.14Z"/>
          <path class="cls-19" d="M92.17,16.71c-.56,2.38-1.59,4.02-3.31,5.04-.11-.12-.37-.36-.53-.47,1.73-.9,2.71-2.48,3.18-4.68l.66.12ZM92.03,15.06v.59h-2.21v-.59h2.21ZM92.33,15.06c0,1.39.17,4.36,3.25,6.18-.13.1-.37.35-.48.49-3.12-1.89-3.37-5.21-3.37-6.68h.6Z"/>
          <path class="cls-19" d="M97.69,18.33h.1s.29.09.29.09c-.24,1.64-.82,2.75-1.62,3.35-.08-.12-.27-.32-.39-.4.75-.54,1.28-1.54,1.48-2.94v-.1h.14ZM96.13,18.4c.11-.03.23-.08.35-.23.2-.22.81-1.31,1.03-1.72v-.03l.17-.07.39.15c-.31.52-.9,1.56-1.28,2.04,0,0-.44.22-.44.37-.03-.14-.15-.41-.21-.52ZM97.64,16.39v.49h-1.42v-.49h1.42ZM96.34,18.47l.28-.14h1.09v.48h-.92c-.18,0-.38.05-.44.11v-.45ZM96.8,14.63c.36.38.79.88,1.01,1.19l-.45.32c-.21-.33-.64-.87-.99-1.25l.44-.26ZM100.64,21.12c.83,0,1.98-.04,2.79-.11-.09.13-.17.4-.2.57-.74.04-1.73.06-2.59.06-1.84,0-2.88-.21-3.46-1.5l.39-.18c.48,1.03,1.51,1.16,3.08,1.16ZM103.24,19.09v.45h-5.11v-.45h5.11ZM98.2,16.94c.1-.05.21-.15.21-.45v-1.6h.48v2.07s-.47.26-.47.44c-.03-.13-.14-.35-.21-.47ZM100.33,19.79c-.42.39-1.06.79-1.59,1.03-.1-.1-.31-.28-.45-.36.55-.21,1.15-.53,1.51-.85l.53.18ZM98.4,17.03l.25-.17,1.92-.3c-.03.13-.05.31-.05.42-1.74.31-1.97.36-2.1.44v-.38ZM102.99,17.91v.45h-4.53v-.45h4.53ZM100.49,14.89v1.32h-1.86v-.4h1.35v-.52h-1.35v-.4h1.86ZM100.09,17.35v1.99h-.54v-1.99h.54ZM101.38,14.9v1.59c0,.22.03.29.21.29h1.06c.14,0,.38-.01.51-.04.01.13.03.31.05.42-.11.03-.33.04-.54.04h-1.1c-.54,0-.67-.19-.67-.73v-1.58h.48ZM101.5,19.6c.58.27,1.24.64,1.62.93l-.52.27c-.33-.29-.92-.66-1.49-.93l.39-.26ZM103.02,14.9v1.32h-1.9v-.4h1.38v-.52h-1.38v-.4h1.9ZM101.85,17.35v1.99h-.54v-1.99h.54Z"/>
          <path class="cls-19" d="M107.51,21.8l-1.73-3.63,1.73-3.63.42.14-1.68,3.49,1.68,3.49-.42.14ZM108.74,21.8l-1.73-3.63,1.73-3.63.42.14-1.68,3.49,1.68,3.49-.42.14Z"/>
          <path class="cls-19" d="M112.47,18.79c-.55,1.15-1.52,2.32-2.42,2.94-.1-.14-.3-.35-.44-.47.88-.54,1.84-1.63,2.34-2.67l.51.19ZM116.62,17.59v.58h-6.88v-.58h6.88ZM110.72,15.04c.45.56.92,1.31,1.11,1.82l-.57.25c-.17-.49-.62-1.27-1.06-1.84l.53-.23ZM113.49,14.59v7.17h-.62v-7.17h.62ZM114.34,18.58c.93.84,1.97,2.02,2.42,2.82l-.5.34c-.43-.8-1.45-2.01-2.38-2.87l.46-.29ZM116.26,15.22c-.38.67-.88,1.45-1.27,1.95l-.5-.24c.39-.51.88-1.35,1.14-1.96l.63.25Z"/>
          <path class="cls-19" d="M120.42,20.58c-.69.43-1.76.89-2.6,1.16-.09-.12-.26-.32-.39-.44.84-.25,1.92-.7,2.47-1.08l.52.37ZM124.46,19.54v.55h-6.95v-.55h6.95ZM124.27,15.5v.54h-6.54v-.54h6.54ZM119.52,14.6v5.18h-.58v-5.18h.58ZM122.67,16.83v.5h-3.35v-.5h3.35ZM122.67,18.18v.5h-3.35v-.5h3.35ZM121.96,20.26c.92.32,1.92.75,2.53,1.08l-.53.39c-.55-.33-1.48-.75-2.39-1.09l.4-.37ZM123.02,14.6v5.18h-.59v-5.18h.59Z"/>
          <path class="cls-19" d="M127.07,16.74c-.31,1.28-.97,2.79-1.64,3.57-.07-.16-.22-.4-.32-.54.63-.7,1.28-2.03,1.56-3.17l.4.14ZM128.4,16.26v.56h-3.09v-.56h3.09ZM127.28,14.58v7.17h-.57v-7.17h.57ZM128.56,18.43l-.39.51c-.23-.41-.94-1.32-1.23-1.66l.32-.3c.24.23,1.1,1.22,1.29,1.45ZM130.55,16.65c-.38,1.48-1.17,3.1-2.02,3.95-.08-.17-.24-.39-.35-.53.81-.78,1.59-2.23,1.92-3.57l.45.15ZM132.21,16.26v.56h-3.47v-.56h3.47ZM130.72,14.58v7.17h-.58v-7.17h.58ZM132.45,19.99c-.14.1-.34.31-.45.46-.67-.84-1.29-2.39-1.63-3.83l.42-.12c.34,1.33.98,2.76,1.67,3.49Z"/>
          <path class="cls-19" d="M135.63,17.95l.07.55c-.91.28-1.89.58-2.63.8l-.17-.57c.69-.18,1.73-.48,2.73-.77ZM135.61,16.16v.57h-2.59v-.57h2.59ZM134.72,14.59v6.47c0,.33-.08.49-.28.58-.21.09-.52.11-1.04.1-.03-.14-.11-.39-.19-.54.35,0,.69,0,.78,0,.1,0,.15-.03.15-.15v-6.47h.58ZM136.68,14.61v2.14c0,.3.09.41.43.41h2.06c.26,0,.68-.01.87-.05.02.16.05.38.07.51-.16.04-.54.05-.91.05h-2.08c-.78,0-1.02-.24-1.02-.93v-2.12h.58ZM139.8,18.33v3.38h-.58v-2.89h-2.54v2.92h-.55v-3.42h3.68ZM139.44,20.91v.48h-3.05v-.48h3.05ZM139.42,19.61v.48h-3.02v-.48h3.02ZM139.84,15.55v.51h-3.43v-.51h3.43Z"/>
          <path class="cls-19" d="M147.82,15.37v.55h-6.87v-.55h6.87ZM147.01,16.74v.54h-5.05v4.46h-.59v-5.01h5.64ZM146.39,19.76v.49h-3.99v-.49h3.99ZM146.25,18.5v.48h-3.69v-.48h3.69ZM143.41,17.4c.21.28.41.66.5.92l-.49.17c-.07-.26-.27-.66-.47-.95l.46-.15ZM144.7,14.59v2.52h-.65v-2.52h.65ZM144.63,18.73v2.89h-.56v-2.89h.56ZM145.83,17.54c-.21.41-.44.84-.65,1.14l-.42-.14c.19-.32.44-.81.57-1.15l.5.15ZM147.4,16.74v4.33c0,.35-.08.51-.34.59-.26.09-.7.09-1.34.09-.03-.15-.12-.38-.2-.52.49.02.97.02,1.11.01.14,0,.18-.04.18-.17v-4.33h.59Z"/>
          <path class="cls-19" d="M150.08,18.17l-1.68-3.49.42-.14,1.73,3.63-1.73,3.63-.42-.14,1.68-3.49ZM151.31,18.17l-1.68-3.49.42-.14,1.73,3.63-1.73,3.63-.42-.14,1.68-3.49Z"/>
        </g>
        <g>
          <path class="cls-19" d="M47.14,20.56c.37.14,1.02.29,1.52.29,1.12,0,1.58-.5,1.58-1.25,0-.67-.47-1.06-1.44-1.06-.24,0-.5.05-.7.06l-.05-.05c.02-.29.24-.77.38-.92.96-.22,1.4-.55,1.4-1.19,0-.54-.35-.86-.89-.86-.42,0-.86.24-1.12.41-.19.13-.41.18-.53-.07-.1-.18-.11-.42-.1-.55.38-.52,1.27-1,2.17-1,1.81,0,2.12,1.2,2.12,1.68,0,.73-.44,1.21-1.26,1.58,1.2.22,1.79.91,1.79,1.82,0,1.61-1.37,2.49-3.14,2.49-.79,0-1.27-.22-1.44-.36-.22-.18-.4-.6-.36-1l.04-.04Z"/>
          <path class="cls-19" d="M53.31,20.83c1.68-1.76,2.51-2.88,2.51-4.09,0-.56-.29-1.1-1.03-1.1-.48,0-1,.32-1.15.44-.25.19-.41.16-.55-.13-.08-.14-.1-.32-.11-.47.58-.74,1.49-1.12,2.42-1.12,1.37,0,2.12.95,2.12,2.11,0,.66-.19,1.15-.55,1.74-.34.56-.96,1.3-1.88,2.18.41.06,1.89.02,3.03,0-.1.5-.47,1-.66,1.07-.13.08-.52.16-1.18.16-1.44,0-2.49,0-3.13-.12l-.07-.13.23-.54Z"/>
          <path class="cls-19" d="M62.82,14.43c0,.8.04,5.9.04,6.87,0,.24-.1.29-.34.31-.47.04-1.19.05-1.4.05.01-.64.02-3.3.02-5.72-.28.07-1.19.3-1.57.34l-.04-.05.3-.89c1.01-.28,2.39-.76,2.88-.97l.11.06Z"/>
        </g>
      </g>
      <g>
        <path class="cls-19" d="M53.99,29.61c.18.07.55.17.83.17.8,0,1.05-.42,1.05-.9s-.35-.73-.98-.73c-.15,0-.28.03-.39.04l-.03-.03c.03-.12.11-.29.17-.35.54-.12.98-.37.98-.87,0-.33-.23-.57-.61-.57-.26,0-.55.14-.71.26-.09.07-.17.09-.22,0-.05-.07-.05-.14-.05-.22.2-.26.68-.51,1.11-.51.89,0,1.11.62,1.11.92,0,.47-.3.75-.75.96.71.14,1.01.54,1.01,1.05,0,.88-.71,1.36-1.65,1.36-.39,0-.68-.12-.76-.19-.1-.09-.16-.25-.15-.39l.02-.02Z"/>
        <path class="cls-19" d="M57.25,29.63c1.19-1.21,1.62-1.89,1.62-2.47,0-.51-.27-.77-.69-.77-.33,0-.65.22-.78.34-.11.09-.19.09-.26-.03-.03-.05-.05-.13-.04-.19.31-.38.78-.6,1.24-.6.73,0,1.15.47,1.15,1.18,0,.36-.13.66-.35,1-.22.35-.74.93-1.25,1.45.51.03,1.28.03,1.88,0-.03.16-.19.35-.29.39-.08.05-.33.09-.69.09-.69,0-1.31,0-1.65-.07l-.03-.05.13-.27Z"/>
        <path class="cls-19" d="M62.3,25.95c0,.46.01,3.33.01,3.88,0,.14-.05.16-.16.18-.15.01-.37.03-.47.03,0-.36.01-1.77.01-3.5-.24.1-.77.26-1.06.33v-.02s.14-.38.14-.38c.56-.19,1.2-.43,1.48-.56l.05.04Z"/>
        <path class="cls-19" d="M65.98,29.85c0,.12-.04.15-.13.17-.18.02-.42.02-.51.02.01-.27.02-.67.02-1.24v-2.27c0-.33,0-.5-.01-.71.19-.04.69-.1,1.02-.1.93,0,1.53.33,1.53,1.22,0,.69-.59,1-.84,1.11.17.14.4.46.64.86.34.55.6.88.76,1.05v.04c-.06.03-.22.05-.41.05-.2,0-.36-.07-.53-.31-.2-.27-.34-.52-.6-.96-.26-.42-.36-.56-.77-.56h-.17v1.63ZM65.98,27.83c.18.02.62.01.73-.02.25-.09.54-.33.54-.82,0-.62-.43-.86-.87-.86-.15,0-.29,0-.4.03v1.67Z"/>
        <path class="cls-19" d="M71.11,29.44c0,.22-.16.43-.28.49-.12.06-.39.15-.67.15-.96,0-1.47-.56-1.47-1.52,0-.84.52-1.61,1.42-1.61.79,0,1.13.58,1.14,1.13,0,.07,0,.16-.02.22-.02.11-.35.2-.59.24-.18.03-.86.04-1.34.02,0,.67.43,1.05,1.02,1.05.32,0,.65-.12.78-.18v.02ZM69.32,28.18c.48.01,1.08,0,1.21,0,.08,0,.14-.06.14-.14,0-.4-.2-.71-.62-.71-.34,0-.67.31-.72.85Z"/>
        <path class="cls-19" d="M73.5,27.19c0,.14-.08.35-.26.32-.13-.07-.33-.13-.48-.13-.26,0-.45.15-.45.37,0,.19.12.3.27.38.17.1.43.21.62.32.31.18.45.41.45.71,0,.65-.57.93-1.12.93-.31,0-.58-.08-.73-.2-.07-.05-.12-.12-.12-.2,0-.12.05-.24.13-.3.21.15.51.26.77.26.33,0,.51-.16.51-.39,0-.16-.1-.28-.33-.4-.19-.1-.37-.18-.54-.27-.29-.16-.47-.39-.47-.74,0-.56.48-.89,1.03-.89.28,0,.54.08.71.24Z"/>
        <path class="cls-19" d="M75.96,29.5c.03.14,0,.31-.12.41-.14.11-.39.18-.65.18-.61,0-.85-.38-.85-.9v-1.74c-.24,0-.33-.07-.33-.15.07-.14.51-.53.6-.62.09-.08.2-.15.37-.18-.02.22-.03.38-.03.53h1.08c-.07.35-.22.38-.34.39-.22.01-.26.02-.75.02-.03.68-.02,1.39,0,1.68.03.39.26.5.49.5.2,0,.39-.07.51-.14h.02Z"/>
        <path class="cls-19" d="M79.03,29.65c.01.29-.16.43-.46.43s-.45-.2-.49-.42c-.18.2-.5.42-.86.42-.47,0-.8-.36-.8-.78,0-.73.93-.92,1.3-1.02.12-.03.27-.05.37-.07v-.18c0-.31-.18-.61-.58-.61-.23,0-.48.11-.66.23-.2.1-.31-.05-.33-.25.21-.2.67-.46,1.13-.46.69,0,1.03.5,1.03,1.14,0,.29-.02.92-.01,1.34,0,.13.09.21.22.21.04,0,.1,0,.14-.01v.02ZM77.45,29.61c.28,0,.48-.18.58-.33.03-.05.05-.12.05-.23v-.48c-.56.08-1.07.27-1.07.65,0,.24.2.39.43.39Z"/>
        <path class="cls-19" d="M79.64,27.83c0-.42-.01-.62-.03-.77.12-.03.39-.07.52-.07.08,0,.1.03.1.41v1.38c0,.7.37.79.67.79.32,0,.59-.2.71-.34v-1.98c0-.17.02-.2.11-.23.2-.02.35-.04.51-.04,0,.15-.02.62-.02,1.22v1.07c0,.33.09.39.28.43v.03c0,.14-.17.34-.32.34-.29,0-.45-.19-.49-.48-.22.22-.43.33-.57.39-.14.05-.28.09-.44.09-.69,0-1.02-.46-1.02-1.13v-1.13Z"/>
        <path class="cls-19" d="M83.07,27.2c.06-.1.28-.25.39-.25.19,0,.32.24.32.67.22-.44.51-.67.83-.67.16,0,.31.09.35.14,0,.1-.04.29-.12.4-.05.06-.12.09-.2.06-.08-.03-.16-.03-.22-.03-.15,0-.37.14-.52.48-.05.12-.08.21-.08.36v1.49c0,.1-.02.15-.12.16-.18.02-.34.03-.5.03.01-.25.02-.65.02-1.25v-1.13c0-.18-.03-.34-.16-.43v-.03Z"/>
        <path class="cls-19" d="M87.85,29.65c.01.29-.16.43-.46.43s-.45-.2-.49-.42c-.18.2-.5.42-.86.42-.47,0-.8-.36-.8-.78,0-.73.93-.92,1.3-1.02.12-.03.27-.05.37-.07v-.18c0-.31-.18-.61-.58-.61-.23,0-.48.11-.66.23-.2.1-.31-.05-.33-.25.21-.2.67-.46,1.13-.46.69,0,1.03.5,1.03,1.14,0,.29-.02.92-.01,1.34,0,.13.09.21.22.21.04,0,.1,0,.14-.01v.02ZM86.27,29.61c.28,0,.48-.18.58-.33.03-.05.05-.12.05-.23v-.48c-.56.08-1.07.27-1.07.65,0,.24.2.39.43.39Z"/>
        <path class="cls-19" d="M90.5,28.22c0-.51-.23-.78-.63-.78-.35,0-.61.22-.77.39v2.02c0,.14-.03.16-.14.17-.16.02-.31.03-.47.03.01-.25.02-.65.02-1.25v-1.14c0-.25-.03-.37-.12-.43v-.03c.05-.1.26-.24.39-.24.21,0,.27.35.29.51.29-.28.66-.51,1.03-.51.79,0,1,.61,1,1.25v.93c0,.39.01.69.03.86-.15.02-.34.05-.52.05-.08,0-.11-.03-.11-.1v-1.72Z"/>
        <path class="cls-19" d="M93.69,29.5c.03.14,0,.31-.12.41-.14.11-.39.18-.65.18-.61,0-.85-.38-.85-.9v-1.74c-.24,0-.33-.07-.33-.15.07-.14.51-.53.6-.62.09-.08.2-.15.37-.18-.02.22-.03.38-.03.53h1.08c-.07.35-.22.38-.34.39-.22.01-.26.02-.75.02-.03.68-.02,1.39,0,1.68.03.39.26.5.49.5.2,0,.39-.07.51-.14h.02Z"/>
        <path class="cls-19" d="M95.98,27.19c0,.14-.08.35-.26.32-.13-.07-.33-.13-.48-.13-.26,0-.45.15-.45.37,0,.19.12.3.27.38.17.1.43.21.62.32.31.18.45.41.45.71,0,.65-.57.93-1.12.93-.31,0-.58-.08-.73-.2-.07-.05-.12-.12-.12-.2,0-.12.05-.24.13-.3.21.15.51.26.77.26.33,0,.51-.16.51-.39,0-.16-.1-.28-.33-.4-.19-.1-.37-.18-.54-.27-.29-.16-.47-.39-.47-.74,0-.56.48-.89,1.03-.89.28,0,.54.08.71.24Z"/>
        <path class="cls-19" d="M100.47,25.95c0,.15-.11.36-.29.33-.18-.09-.41-.17-.67-.17-.36,0-.71.18-.71.59s.26.59.85.9c.73.39,1,.67,1,1.27,0,.76-.66,1.23-1.45,1.23-.46,0-.79-.14-.95-.26-.08-.06-.12-.12-.12-.2.01-.15.06-.25.11-.33.26.19.66.33.98.33.44,0,.81-.22.81-.65s-.23-.6-.86-.93c-.84-.45-.96-.85-.96-1.28s.3-1.12,1.35-1.12c.3,0,.73.12.92.3Z"/>
        <path class="cls-19" d="M103.63,29.44c0,.22-.16.43-.28.49-.12.06-.39.15-.67.15-.96,0-1.47-.56-1.47-1.52,0-.84.52-1.61,1.42-1.61.79,0,1.13.58,1.14,1.13,0,.07,0,.16-.02.22-.02.11-.35.2-.59.24-.18.03-.86.04-1.34.02,0,.67.43,1.05,1.02,1.05.32,0,.65-.12.78-.18v.02ZM101.84,28.18c.48.01,1.08,0,1.21,0,.08,0,.14-.06.14-.14,0-.4-.2-.71-.62-.71-.34,0-.67.31-.72.85Z"/>
        <path class="cls-19" d="M104.39,26.24c0-.4-.01-.61-.03-.75.14-.06.41-.09.52-.09.08,0,.1.03.1.44v3.27c0,.33.01.7.03.89-.12.03-.45.05-.53.05-.06,0-.09-.02-.09-.09v-3.72Z"/>
        <path class="cls-19" d="M108.15,29.44c0,.22-.16.43-.28.49-.12.06-.39.15-.67.15-.96,0-1.47-.56-1.47-1.52,0-.84.52-1.61,1.42-1.61.79,0,1.13.58,1.14,1.13,0,.07,0,.16-.02.22-.02.11-.35.2-.59.24-.18.03-.86.04-1.34.02,0,.67.43,1.05,1.02,1.05.32,0,.65-.12.78-.18v.02ZM106.36,28.18c.48.01,1.08,0,1.21,0,.08,0,.14-.06.14-.14,0-.4-.2-.71-.62-.71-.34,0-.67.31-.72.85Z"/>
        <path class="cls-19" d="M111.25,29.5c-.01.16-.09.33-.18.41-.16.1-.44.17-.74.17-.71,0-1.54-.35-1.54-1.51,0-.95.72-1.62,1.64-1.62.48,0,.8.17.87.25,0,.19-.11.37-.3.33-.16-.07-.37-.13-.59-.13-.59,0-1,.46-1,1.09,0,.87.62,1.11,1.1,1.11.25,0,.54-.06.72-.14l.02.02Z"/>
        <path class="cls-19" d="M113.65,29.5c.03.14,0,.31-.12.41-.14.11-.39.18-.65.18-.61,0-.85-.38-.85-.9v-1.74c-.24,0-.33-.07-.33-.15.07-.14.51-.53.6-.62.09-.08.2-.15.37-.18-.02.22-.03.38-.03.53h1.08c-.07.35-.22.38-.34.39-.22.01-.26.02-.75.02-.03.68-.02,1.39,0,1.68.03.39.26.5.49.5.2,0,.39-.07.51-.14h.02Z"/>
        <path class="cls-19" d="M116.41,29.44c0,.22-.16.43-.28.49-.12.06-.39.15-.67.15-.96,0-1.47-.56-1.47-1.52,0-.84.52-1.61,1.42-1.61.79,0,1.13.58,1.14,1.13,0,.07,0,.16-.02.22-.02.11-.35.2-.59.24-.18.03-.86.04-1.34.02,0,.67.43,1.05,1.02,1.05.32,0,.65-.12.78-.18v.02ZM114.62,28.18c.48.01,1.08,0,1.21,0,.08,0,.14-.06.14-.14,0-.4-.2-.71-.62-.71-.34,0-.67.31-.72.85Z"/>
        <path class="cls-19" d="M119.26,26.15c0-.36-.01-.52-.03-.66.12-.05.41-.09.52-.09.07,0,.1.03.1.44v3.46c0,.31.11.38.31.41v.02c-.03.16-.18.35-.33.35-.32,0-.46-.18-.5-.38-.28.22-.71.38-.96.38-.73,0-1.32-.53-1.32-1.48s.73-1.65,1.7-1.65c.24,0,.44.06.52.1v-.9ZM119.26,27.46c-.09-.05-.29-.1-.54-.1-.52,0-1.05.37-1.05,1.17,0,.66.41,1.07.95,1.07.21,0,.47-.09.64-.21v-1.92Z"/>
        <path class="cls-19" d="M47.19,33.87c0,.18-.13.35-.33.35-.19,0-.33-.12-.33-.34,0-.24.2-.35.34-.35.2,0,.33.14.33.34ZM47.16,37.84c0,.12-.04.16-.15.17-.1.02-.27.03-.47.03,0-.27.02-.67.02-1.07v-1.15c0-.42-.01-.62-.03-.77.12-.04.42-.07.52-.07.08,0,.1.03.1.41v2.43Z"/>
        <path class="cls-19" d="M50.15,36.22c0-.51-.23-.78-.63-.78-.35,0-.61.22-.77.39v2.02c0,.14-.03.16-.14.17-.16.02-.31.03-.47.03.01-.25.02-.65.02-1.25v-1.14c0-.25-.03-.37-.12-.43v-.03c.05-.1.26-.24.39-.24.21,0,.27.35.29.51.29-.28.66-.51,1.03-.51.79,0,1,.61,1,1.25v.93c0,.39.01.69.03.86-.15.02-.34.05-.52.05-.08,0-.11-.03-.11-.1v-1.72Z"/>
        <path class="cls-19" d="M54.96,37.5c.03.14,0,.31-.12.41-.14.11-.39.18-.65.18-.61,0-.85-.38-.85-.9v-1.74c-.24,0-.33-.07-.33-.15.07-.14.51-.53.6-.62.09-.08.2-.15.37-.18-.02.22-.03.38-.03.53h1.08c-.07.35-.22.38-.34.39-.22.01-.26.02-.75.02-.03.68-.02,1.39,0,1.68.03.39.26.5.49.5.2,0,.39-.07.51-.14h.02Z"/>
        <path class="cls-19" d="M56.18,35.4c.26-.22.6-.45,1.01-.45.75,0,.99.6.99,1.26v.92c0,.41,0,.7.02.86-.14.03-.33.05-.52.05-.07,0-.09-.03-.09-.12,0-.14,0-1.07,0-1.66s-.29-.83-.66-.83c-.32,0-.62.21-.75.35v2.06c0,.12-.03.16-.13.17-.17.03-.33.03-.48.03.01-.25.02-.65.02-1.25v-2.55c0-.4-.01-.61-.03-.75.16-.05.41-.09.52-.09.07,0,.1.03.1.44v1.56Z"/>
        <path class="cls-19" d="M61.32,37.44c0,.22-.16.43-.28.49-.12.06-.39.15-.67.15-.96,0-1.47-.56-1.47-1.52,0-.84.52-1.61,1.42-1.61.79,0,1.13.58,1.14,1.13,0,.07,0,.16-.02.22-.02.11-.35.2-.59.24-.18.03-.86.04-1.34.02,0,.67.43,1.05,1.02,1.05.32,0,.65-.12.78-.18v.02ZM59.53,36.18c.48.01,1.08,0,1.21,0,.08,0,.14-.06.14-.14,0-.4-.2-.71-.62-.71-.34,0-.67.31-.72.85Z"/>
        <path class="cls-19" d="M67.3,33.81c.08-.04.39-.07.51-.07.05,0,.09.03.11.18l.43,2.52c.12.71.21,1.22.28,1.54-.1.03-.38.06-.49.06-.09,0-.14-.03-.16-.14-.06-.37-.1-.69-.19-1.32l-.3-2.02c-.25.67-.75,1.97-1.22,3.21-.03.1-.08.16-.18.19-.09.02-.21.04-.31.04-.21-.64-.83-2.38-1.2-3.41-.14.96-.43,2.64-.54,3.34-.01.07-.05.11-.12.11-.11,0-.33,0-.44-.06.13-.69.46-2.47.75-4l-.04-.17c.14-.03.34-.07.54-.07.09.09.17.27.34.72l.96,2.54c.45-1.09.96-2.37,1.26-3.06v-.12Z"/>
        <path class="cls-19" d="M70.06,33.87c0,.18-.13.35-.33.35-.19,0-.33-.12-.33-.34,0-.24.2-.35.34-.35.2,0,.33.14.33.34ZM70.04,37.84c0,.12-.04.16-.15.17-.1.02-.27.03-.47.03,0-.27.02-.67.02-1.07v-1.15c0-.42-.01-.62-.03-.77.12-.04.42-.07.52-.07.08,0,.1.03.1.41v2.43Z"/>
        <path class="cls-19" d="M73.23,37.5c-.01.16-.09.33-.18.41-.16.1-.44.17-.74.17-.71,0-1.54-.35-1.54-1.51,0-.95.72-1.62,1.64-1.62.48,0,.8.17.87.25,0,.19-.11.37-.3.33-.16-.07-.37-.13-.59-.13-.59,0-1,.46-1,1.09,0,.87.62,1.11,1.1,1.11.25,0,.54-.06.72-.14l.02.02Z"/>
        <path class="cls-19" d="M74.48,35.4c.26-.22.6-.45,1.01-.45.75,0,.99.6.99,1.26v.92c0,.41,0,.7.02.86-.14.03-.33.05-.52.05-.07,0-.09-.03-.09-.12,0-.14,0-1.07,0-1.66s-.29-.83-.66-.83c-.32,0-.62.21-.75.35v2.06c0,.12-.03.16-.13.17-.17.03-.33.03-.48.03.01-.25.02-.65.02-1.25v-2.55c0-.4-.01-.61-.03-.75.16-.05.41-.09.52-.09.07,0,.1.03.1.44v1.56Z"/>
        <path class="cls-19" d="M79.62,37.44c0,.22-.16.43-.28.49-.12.06-.39.15-.67.15-.96,0-1.47-.56-1.47-1.52,0-.84.52-1.61,1.42-1.61.79,0,1.13.58,1.14,1.13,0,.07,0,.16-.02.22-.02.11-.35.2-.59.24-.18.03-.86.04-1.34.02,0,.67.43,1.05,1.02,1.05.32,0,.65-.12.78-.18v.02ZM77.83,36.18c.48.01,1.08,0,1.21,0,.08,0,.14-.06.14-.14,0-.4-.2-.71-.62-.71-.34,0-.67.31-.72.85Z"/>
        <path class="cls-19" d="M80.39,34.24c0-.4-.01-.61-.03-.75.14-.06.41-.09.52-.09.08,0,.1.03.1.44v3.27c0,.33.01.7.03.89-.12.03-.45.05-.53.05-.06,0-.09-.02-.09-.09v-3.72Z"/>
        <path class="cls-19" d="M82.57,33.87c0,.18-.13.35-.33.35-.19,0-.33-.12-.33-.34,0-.24.2-.35.34-.35.2,0,.33.14.33.34ZM82.54,37.84c0,.12-.04.16-.15.17-.1.02-.27.03-.47.03,0-.27.02-.67.02-1.07v-1.15c0-.42-.01-.62-.03-.77.12-.04.42-.07.52-.07.08,0,.1.03.1.41v2.43Z"/>
        <path class="cls-19" d="M85.53,36.22c0-.51-.23-.78-.63-.78-.35,0-.61.22-.77.39v2.02c0,.14-.03.16-.14.17-.16.02-.31.03-.47.03.01-.25.02-.65.02-1.25v-1.14c0-.25-.03-.37-.12-.43v-.03c.05-.1.26-.24.39-.24.21,0,.27.35.29.51.29-.28.66-.51,1.03-.51.79,0,1,.61,1,1.25v.93c0,.39.01.69.03.86-.15.02-.34.05-.52.05-.08,0-.11-.03-.11-.1v-1.72Z"/>
        <path class="cls-19" d="M91.62,36.8c0-.33,0-.6-.03-.79.14-.03.39-.1.54-.1.07,0,.11.04.11.18v1.57c-.11.09-.33.22-.49.29-.2.07-.61.16-.92.16-1.19,0-2.37-.56-2.37-2.19,0-1.39,1.07-2.25,2.4-2.25.79,0,1.26.27,1.38.39,0,.24-.18.39-.36.33-.32-.17-.71-.24-1.07-.24-.98,0-1.68.66-1.68,1.74,0,1.3.92,1.82,1.8,1.82.22,0,.56-.05.69-.13v-.75Z"/>
        <path class="cls-19" d="M93.13,35.83c0-.42-.01-.62-.03-.77.12-.03.39-.07.52-.07.08,0,.1.03.1.41v1.38c0,.7.37.79.67.79.32,0,.59-.2.71-.34v-1.98c0-.17.02-.2.11-.23.2-.02.35-.04.51-.04,0,.15-.02.62-.02,1.22v1.07c0,.33.09.39.28.43v.03c0,.14-.17.34-.32.34-.29,0-.45-.19-.49-.48-.22.22-.43.33-.57.39-.14.05-.28.09-.44.09-.69,0-1.02-.46-1.02-1.13v-1.13Z"/>
        <path class="cls-19" d="M97.32,33.87c0,.18-.13.35-.33.35-.19,0-.33-.12-.33-.34,0-.24.2-.35.34-.35.2,0,.33.14.33.34ZM97.29,37.84c0,.12-.04.16-.15.17-.1.02-.27.03-.47.03,0-.27.02-.67.02-1.07v-1.15c0-.42-.01-.62-.03-.77.12-.04.42-.07.52-.07.08,0,.1.03.1.41v2.43Z"/>
        <path class="cls-19" d="M100.25,34.15c0-.36-.01-.52-.03-.66.12-.05.41-.09.52-.09.07,0,.1.03.1.44v3.46c0,.31.11.38.31.41v.02c-.03.16-.18.35-.33.35-.32,0-.46-.18-.5-.38-.28.22-.71.38-.96.38-.73,0-1.32-.53-1.32-1.48s.73-1.65,1.7-1.65c.24,0,.44.06.52.1v-.9ZM100.25,35.46c-.09-.05-.29-.1-.54-.1-.52,0-1.05.37-1.05,1.17,0,.66.41,1.07.95,1.07.21,0,.47-.09.64-.21v-1.92Z"/>
        <path class="cls-19" d="M104.04,37.44c0,.22-.16.43-.28.49-.12.06-.39.15-.67.15-.96,0-1.47-.56-1.47-1.52,0-.84.52-1.61,1.42-1.61.79,0,1.13.58,1.14,1.13,0,.07,0,.16-.02.22-.02.11-.35.2-.59.24-.18.03-.86.04-1.34.02,0,.67.43,1.05,1.02,1.05.32,0,.65-.12.78-.18v.02ZM102.25,36.18c.48.01,1.08,0,1.21,0,.08,0,.14-.06.14-.14,0-.4-.2-.71-.62-.71-.34,0-.67.31-.72.85Z"/>
        <path class="cls-19" d="M108.13,33.51c.01.14-.09.35-.24.34-.07-.03-.16-.04-.22-.04-.33,0-.61.29-.6,1.23.12,0,.75,0,.92-.01-.01.14-.1.28-.18.34-.09.07-.35.08-.74.08,0,.69.03,2.17.03,2.55-.14.03-.43.05-.53.05-.07,0-.1-.01-.1-.12.01-.73,0-1.53,0-2.48-.28,0-.37-.06-.37-.18.09-.1.19-.16.37-.23,0-.75.21-1.15.49-1.4.25-.23.5-.28.73-.28.2,0,.37.07.43.15Z"/>
        <path class="cls-19" d="M111.01,36.49c0,.91-.58,1.6-1.5,1.6-.99,0-1.49-.73-1.49-1.53,0-.9.62-1.6,1.52-1.6.94,0,1.47.65,1.47,1.53ZM108.64,36.47c0,.81.41,1.21.92,1.21.4,0,.81-.34.81-1.15,0-.58-.26-1.18-.88-1.18-.45,0-.85.4-.85,1.12Z"/>
        <path class="cls-19" d="M111.61,35.2c.06-.1.28-.25.39-.25.19,0,.32.24.32.67.22-.44.51-.67.83-.67.16,0,.31.09.35.14,0,.1-.04.29-.12.4-.05.06-.12.09-.2.06-.08-.03-.16-.03-.22-.03-.15,0-.37.14-.52.48-.05.12-.08.21-.08.36v1.49c0,.1-.02.15-.12.16-.18.02-.34.03-.5.03.01-.25.02-.65.02-1.25v-1.13c0-.18-.03-.34-.16-.43v-.03Z"/>
        <path class="cls-19" d="M115.52,37.63c1.19-1.21,1.62-1.89,1.62-2.47,0-.51-.27-.77-.69-.77-.33,0-.65.22-.78.34-.11.09-.19.09-.26-.03-.03-.05-.05-.13-.04-.19.31-.38.78-.6,1.24-.6.73,0,1.15.47,1.15,1.18,0,.36-.13.66-.35,1-.22.35-.74.93-1.25,1.45.51.03,1.28.03,1.88,0-.03.16-.19.35-.29.39-.08.05-.33.09-.69.09-.69,0-1.31,0-1.65-.07l-.03-.05.13-.27Z"/>
        <path class="cls-19" d="M121.31,35.98c0,1.43-.53,2.1-1.39,2.1-.69,0-1.38-.48-1.38-2.08,0-.9.32-2.08,1.43-2.08,1.19,0,1.34,1.28,1.34,2.07ZM119.16,35.98c0,1.28.41,1.69.79,1.69.33,0,.73-.21.73-1.74,0-.77-.15-1.62-.75-1.62-.41,0-.77.56-.77,1.66Z"/>
        <path class="cls-19" d="M121.92,37.63c1.19-1.21,1.62-1.89,1.62-2.47,0-.51-.27-.77-.69-.77-.33,0-.65.22-.78.34-.11.09-.19.09-.26-.03-.03-.05-.05-.13-.04-.19.31-.38.78-.6,1.24-.6.73,0,1.15.47,1.15,1.18,0,.36-.13.66-.35,1-.22.35-.74.93-1.25,1.45.51.03,1.28.03,1.88,0-.03.16-.19.35-.29.39-.08.05-.33.09-.69.09-.69,0-1.31,0-1.65-.07l-.03-.05.13-.27Z"/>
        <path class="cls-19" d="M125.07,37.61c.18.07.55.17.83.17.8,0,1.05-.42,1.05-.9s-.35-.73-.98-.73c-.15,0-.28.03-.39.04l-.03-.03c.03-.12.11-.29.17-.35.54-.12.98-.37.98-.87,0-.33-.23-.57-.61-.57-.26,0-.55.14-.71.26-.09.07-.17.09-.22,0-.05-.07-.05-.14-.05-.22.2-.26.68-.51,1.11-.51.89,0,1.11.62,1.11.92,0,.47-.3.75-.75.96.71.14,1.01.54,1.01,1.05,0,.88-.71,1.36-1.65,1.36-.39,0-.68-.12-.76-.19-.1-.09-.16-.25-.15-.39l.02-.02Z"/>
      </g>
    </g>
  </g>
</svg>