<?xml version="1.0" encoding="UTF-8"?>
<svg xmlns="http://www.w3.org/2000/svg" viewBox="0 0 189.19 140.78">
  <defs>
    <style>
      .cls-1, .cls-2, .cls-3, .cls-4, .cls-5, .cls-6, .cls-7, .cls-8, .cls-9, .cls-10, .cls-11, .cls-12 {
        mix-blend-mode: multiply;
      }

      .cls-1, .cls-13, .cls-7 {
        fill: #9162a6;
      }

      .cls-14, .cls-4 {
        fill: #9b702f;
      }

      .cls-15 {
        fill: #3c3c3b;
      }

      .cls-16 {
        fill: #0b1017;
      }

      .cls-17 {
        fill: #a28daf;
      }

      .cls-18 {
        fill: #333432;
      }

      .cls-19 {
        fill: #f39b69;
      }

      .cls-20 {
        opacity: .1;
      }

      .cls-20, .cls-21, .cls-22 {
        fill: #1c1d1b;
      }

      .cls-21, .cls-23 {
        opacity: .15;
      }

      .cls-2 {
        opacity: .25;
      }

      .cls-2, .cls-24, .cls-23 {
        fill: #040000;
      }

      .cls-25 {
        fill: #e94a54;
      }

      .cls-26 {
        fill: #444443;
      }

      .cls-27 {
        fill: #5c337b;
      }

      .cls-28 {
        fill: #291832;
      }

      .cls-3 {
        fill: #b8292d;
      }

      .cls-4 {
        opacity: .3;
      }

      .cls-29 {
        fill: #b4b3b3;
      }

      .cls-30 {
        fill: #e2d4dc;
      }

      .cls-31 {
        fill: #3f72a3;
      }

      .cls-32 {
        fill: #382c2d;
      }

      .cls-33, .cls-10 {
        fill: #7e509d;
      }

      .cls-34 {
        fill: #ccc;
      }

      .cls-35 {
        isolation: isolate;
      }

      .cls-5, .cls-7, .cls-9, .cls-10, .cls-11, .cls-12 {
        opacity: .5;
      }

      .cls-5, .cls-36 {
        fill: #982e3a;
      }

      .cls-37 {
        fill: #373737;
      }

      .cls-38, .cls-12 {
        fill: #f4a97f;
      }

      .cls-39 {
        fill: #453e83;
      }

      .cls-40 {
        fill: #7a4a85;
      }

      .cls-41, .cls-6 {
        fill: #d4ebe9;
      }

      .cls-42 {
        fill: #fff;
      }

      .cls-43 {
        fill: #c83b45;
      }

      .cls-44 {
        fill: #f7b77c;
      }

      .cls-45, .cls-11 {
        fill: #2c2754;
      }

      .cls-46 {
        fill: #43bcc9;
      }

      .cls-47 {
        fill: #585959;
      }

      .cls-48 {
        fill: #71c8da;
      }

      .cls-8, .cls-49 {
        fill: #5fb8c8;
      }

      .cls-9 {
        fill: #932023;
      }

      .cls-50 {
        fill: #71202a;
      }

      .cls-51 {
        fill: #4e4d4d;
      }

      .cls-52 {
        fill: #dadec9;
      }

      .cls-53 {
        fill: #fef4f8;
      }

      .cls-54 {
        fill: #f2f2f2;
      }

      .cls-55 {
        fill: #fdfefe;
      }

      .cls-56 {
        fill: #c6e3df;
      }

      .cls-57 {
        fill: #7dc273;
      }

      .cls-58 {
        fill: #dbc1d1;
      }

      .cls-59 {
        fill: #f5b148;
      }

      .cls-60 {
        fill: #1f1b3c;
      }

      .cls-61 {
        fill: #3d5a54;
      }

      .cls-62 {
        fill: #999;
      }

      .cls-63 {
        fill: #575857;
      }
    </style>
  </defs>
  <g class="cls-35">
    <g id="_圖層_2" data-name="圖層_2">
      <g id="_圖層_1-2" data-name="圖層_1">
        <g>
          <path class="cls-52" d="M189.19,123.2l-81.93-47.44c-3.55-2.05-9.31-2.05-12.86,0l-19.97,11.53c-3.55,2.05-3.55,5.38,0,7.43l79.54,46.06h35.23v-17.58Z"/>
          <path class="cls-52" d="M96.51,57.94l-47.5,27.42c-1.92,1.11-5.03,1.11-6.94,0L1.44,61.9c-1.92-1.11-1.92-2.9,0-4.01l47.5-27.42c1.92-1.11,5.03-1.11,6.94,0l40.63,23.46c1.92,1.11,1.92,2.9,0,4.01Z"/>
          <g>
            <g>
              <path class="cls-24" d="M98.39,57.31c-1.29.18-1.54,1.74-2.02,2.66-1.89-1.43-.55-4.28,2.02-2.66Z"/>
              <path class="cls-25" d="M99.96,87.04c-.28.64-.65,1.17-1.15,1.57-.63.51-1.22.82-1.71.75-.48-.18-.46-.59-.27-1.14.27-.57.88-1.1,1.56-1.56,0,0,.74-.64.74-.67,0-.03.83,1.04.83,1.04Z"/>
              <path class="cls-19" d="M96.46,80.52c.52,1.52,1.47,3.5,2.54,5.6,0,0-1.32,1.15-.78,1.57.8.62,1.84-1.32,1.84-1.32l-1.53-5.34-2.07-.5Z"/>
              <path class="cls-25" d="M100.99,88.04l.03.08c.23.01.53.78.42,1.37-.33.88.01,1.57-.12,2.56-.08.61-.29,1.07-.78,1.36-.81.48-1.4.57-1.5-.11-.09-.47,0-.92.21-1.64l.39-1.9,1.35-1.72Z"/>
              <path class="cls-38" d="M99.84,91.82c1.1.14,1.28-1.22,1.29-2.42,0-.36,0-.7-.02-.99-.98-2.46.75-4.67-.43-6.8l.15-.88.4-2.34-2.83-.34-.51,2.6-.18,1.54c.31,2.07,1.69,4.38,1.98,6.59.06,1.02-.52,2.96.14,3.04Z"/>
              <path class="cls-38" d="M99.54,81.98c1.31,1.04.15,5.4,1.59,7.42,0-.36,0-.7-.02-.99-.98-2.46.75-4.67-.43-6.8l.15-.88c-.57.55-1.29,1.26-1.29,1.26Z"/>
              <path class="cls-33" d="M95.6,74.1c-.09,3.03.79,3.45.71,5.56,0,.16.01.34.05.52.16.71.67,1.49,1.29,1.76.06.03.12.05.19.07.64.08,1.24.1,1.75-.02.58-.13,1.04-.44,1.3-1.05-.01-2.24,1.68-3.83,1.87-6.8.08-1.27-.22-2.47-1.03-3.35l-.99-.02-4.94-.08-.21,3.4Z"/>
              <path class="cls-10" d="M99.54,81.98s.04,0,.06.01c.58-.13,1.04-.44,1.3-1.05-.01-2.24,1.68-3.83,1.87-6.8.08-1.27-.22-2.47-1.03-3.35l-.99-.02-2.74,1.48c5.18.54,2.19,8.64,1.53,9.72Z"/>
              <path class="cls-24" d="M98.98,58.46c1.8-.15,2.56,1.1,2.71,2.24.2,1.52-.13,2.13-.65,2.93-.37.56-1.43,1.48-1.43,1.48-.63-2.94.81-4.68.27-5.56-.28-.45-.92-.68-.92-.68v-.41Z"/>
              <path class="cls-25" d="M101.71,67.96c-.48,1.09-.5,2.28.26,3.06-.83,1.09-2.58,1.53-4.66,1.14-.97-.18-1.37-.73-1.49-1.46.4-1.05.48-2.16.32-3.32-.95-.08-1.48-.6-1.47-1.41.02-.86.61-1.49.84-2.67.03-.16.06-.33.07-.52,0-.04,0-.08,0-.12-.21-1.05.42-2.45,1.2-2.56l2.61.99c1.18.26,2.22,1.1,3.22,2.12.07.99.04,1.93-.15,2.8-.15.7-.4,1.36-.76,1.97Z"/>
              <path class="cls-3" d="M95.81,70.7c.12.73.53,1.28,1.49,1.46,2.08.39,3.83-.05,4.66-1.14-.76-.78-.74-1.96-.26-3.06.36-.61.61-1.27.76-1.97l-1.22-.04c-.74,1.6-1.07,3.18-2.64,2.89-1.09-.21-1.44-1.11-1.17-2.22-.31.39-.92.77-1.31.75.16,1.16.08,2.27-.32,3.33Z"/>
              <path class="cls-38" d="M100.58,61.54c-.35-.6-.48-1.16-.53-1.85l-2.08.17.02,1.48c-.78,2.15,2.38,1.58,2.59.2Z"/>
              <path class="cls-12" d="M99.27,60.16c-.15,1.22-.58,3.06-1.69,2.48-.64-.34-.41-1.36-.28-2.25l1.96-.24Z"/>
              <path class="cls-38" d="M100.09,60.07c1.16-1.95.57-3.65-1.02-4.02-1.74-.4-2.9.85-2.9,2.37-.05,1.61.35,2.74.96,2.84,1,.16,1.73-.28,2.02-.96l.93-.23Z"/>
              <path class="cls-24" d="M100.35,60.34l.05.85c-.32-.92-.8-.95-.84-1.22l-.08-.51-.46.2c-.94.05-1.1-1.59-2.86-1.38-.15-1.56,1.01-2.43,2.45-2.41,1.74.15,2.29,1.16,2.23,2.4-.04.77-.14,1.46-.5,2.07Z"/>
              <path class="cls-38" d="M99.01,60.19c-.09-.24-.11-.22-.07-.33.11-.31.3-.55.49-.5.13.03.27.06.32.18.07.14,0,.3-.05.44-.04.1-.09.2-.16.28-.07.08-.18.14-.29.12-.1-.02-.2-.1-.23-.19Z"/>
              <path class="cls-8" d="M96.37,80.18c.16.71.67,1.49,1.29,1.76-.08-.21-.12-.45-.14-.61-.2-1.48.42-2.79.16-3.65-.08.56-.2,1.03-.43,1.5-.22.46-.52.67-.87.99Z"/>
            </g>
            <g>
              <g class="cls-35">
                <polygon class="cls-14" points="110.72 82.32 110.67 98.2 103.27 102.52 103.32 86.63 110.72 82.32"/>
                <polygon class="cls-59" points="103.32 86.63 103.27 102.52 81.34 89.85 81.38 73.97 103.32 86.63"/>
                <polygon class="cls-47" points="110.72 82.32 103.32 86.63 81.38 73.97 88.78 69.65 110.72 82.32"/>
              </g>
              <g class="cls-35">
                <polygon class="cls-14" points="112.35 81.96 112.35 83.55 103.3 88.82 103.31 87.24 112.35 81.96"/>
                <polygon class="cls-14" points="103.31 87.24 103.3 88.82 79.7 75.2 79.71 73.61 103.31 87.24"/>
                <polygon class="cls-42" points="112.35 81.96 103.31 87.24 79.71 73.61 88.75 68.34 112.35 81.96"/>
              </g>
              <path class="cls-14" d="M109.43,50.62v31.09c.02.06.05.12.14.17.18.1.47.1.65,0,.08-.05.12-.11.13-.17,0,0,0-31.09,0-31.09h-.93Z"/>
              <path class="cls-14" d="M89.16,38.93v31.1c.02.06.05.12.14.17.18.1.47.1.65,0,.08-.05.12-.11.13-.17,0,0,0-31.1,0-31.1h-.93Z"/>
              <g>
                <polygon class="cls-14" points="88.18 36.62 87.36 37.1 87.33 46.77 110.93 60.4 111.75 59.92 111.78 50.25 88.18 36.62"/>
                <g>
                  <polygon class="cls-37" points="110.96 50.73 110.93 60.4 87.33 46.77 87.36 37.1 110.96 50.73"/>
                  <polygon class="cls-59" points="110.96 50.73 110.93 60.4 87.33 46.77 87.36 37.1 110.96 50.73"/>
                </g>
                <polygon class="cls-42" points="109.01 51.85 108.99 53.8 95.15 45.82 95.17 43.86 109.01 51.85"/>
                <polygon class="cls-14" points="109.01 54.93 108.99 55.9 95.15 47.91 95.17 46.94 109.01 54.93"/>
                <polygon class="cls-14" points="107.31 55.62 95.17 48.61 95.15 49.58 107.31 56.6 107.31 55.62"/>
              </g>
            </g>
            <g>
              <path class="cls-38" d="M88.59,56.34l-.59-.85c.14-.43.22-.85.21-1.28,0-.38.01-.55.1-.83.07-.35-.17-.5-.32-.17-.09.32-.15.52-.22.78-.04.08-.13.14-.28.18-.19-.14-.34-.29-.4-.43l-.23-.71-.14-.55c-.06-.24-.31-.22-.31.08l.07.6.23.7-.32-.34-.29-.66c-.09-.23-.32-.19-.27.11l.28.77.34.52-.39-.41-.27-.37c-.19-.22-.33-.04-.18.21l.32.56c-.16-.19-.29.03-.08.32l.5.7.34.46.48.37,1.03,1.48.4-1.26Z"/>
              <path class="cls-25" d="M95.37,60.16l-3.52-1.38-3.84-3.32c-.19.35-.46.59-.85.68.33.51.7,1.01,1.1,1.5.97,1.21,2.1,2.33,3.21,3.16,1.65.98,3.36,2.02,4.54,2.48l.35-3.01c-.24-.03-.72-.03-1-.12Z"/>
              <path class="cls-9" d="M95.75,62.63c-.02.19-.04.36-.08.52-1.15-.51-2.7-1.45-4.2-2.34-1.12-.83-2.24-1.94-3.21-3.16l3.46,2.66c.64.66,2.31,1.54,4.03,2.31Z"/>
            </g>
            <g>
              <g>
                <path class="cls-38" d="M95.94,72.84c.06.07.16.12.3.08.32-.14.63-.23.89,0,.01.12-.04.25-.13.39l-.02.03c-.21.3-.62.63-1.02.97-.06.06-.06.12-.03.17.03.07.12.11.21.09-.06.12.07.23.22.16l.23-.11c-.04.15.14.18.23.1l.44-.24c.28-.11.54-.28.79-.48.03-.03.07-.06.11-.09.32-.38.57-.78.74-1.21.05-.4-.25-.59-.75-.56l-.6.05c-.56.04-.93.26-1.59.46-.06.04-.06.13,0,.2Z"/>
                <path class="cls-38" d="M95.92,74.48c.03.07.12.11.21.09-.06.12.07.23.22.16l.23-.11c-.04.15.14.18.23.1l.44-.24c.28-.11.54-.28.79-.48-.28,0-.5-.17-.7-.41-.42.41-1.09.93-1.43.89Z"/>
                <path class="cls-38" d="M95.95,72.84c.05.07.16.12.3.08.32-.14.63-.23.89,0,.01.12-.04.25-.13.39l.34-.48c-.5-.36-1.1,0-1.4,0Z"/>
              </g>
              <g>
                <path class="cls-38" d="M95.94,72.84c.06.07.16.12.3.08.32-.14.63-.23.89,0,.01.12-.04.25-.13.39l-.02.03c-.21.3-.62.63-1.02.97-.06.06-.06.12-.03.17.03.07.12.11.21.09-.06.12.07.23.22.16l.23-.11c-.04.15.14.18.23.1l.44-.24c.28-.11.54-.28.79-.48.03-.03.07-.06.11-.09.32-.38.57-.78.74-1.21.05-.4-.25-.59-.75-.56l-.6.05c-.56.04-.93.26-1.59.46-.06.04-.06.13,0,.2Z"/>
                <path class="cls-38" d="M95.92,74.48c.03.07.12.11.21.09-.06.12.07.23.22.16l.23-.11c-.04.15.14.18.23.1l.44-.24c.28-.11.54-.28.79-.48-.28,0-.5-.17-.7-.41-.42.41-1.09.93-1.43.89Z"/>
                <path class="cls-38" d="M95.95,72.84c.05.07.16.12.3.08.32-.14.63-.23.89,0,.01.12-.04.25-.13.39l.34-.48c-.5-.36-1.1,0-1.4,0Z"/>
              </g>
            </g>
            <path class="cls-25" d="M102.62,63.2c.84,1.2.57,5.44.29,6.45-1.56,1.71-2.41,2.37-4.14,3.35.07-.44.22-.78-.51-.87l2.98-3.56c-.32-.96-.28-2.02-.38-3.45.21-2.86,1.62-2.16,1.76-1.92Z"/>
            <g>
              <path class="cls-37" d="M83.01,73.09s.01.01.02.02l3.79,2.2s-.02-.01-.02-.02c.04.04.11.04.19,0l2.86-1.65c.13-.07.23-.25.23-.4,0-.07-.03-.12-.07-.15l-2.05-1.19.84-3.41c.03-.12,0-.21-.06-.24l-3.79-2.2s-.05-.02-.09-.01c-.02,0-.05.01-.07.03-.1.06-.18.18-.22.3l-1.61,6.49c-.02.09-.01.18.03.22Z"/>
              <g class="cls-35">
                <path class="cls-14" d="M86.06,70.91c.06-.04.12-.04.16-.02l3.79,2.2s-.1-.02-.16.02l-2.55,1.47-3.79-2.2,2.55-1.47Z"/>
                <path class="cls-59" d="M82.98,72.87l1.61-6.49c.03-.13.12-.25.22-.3.02-.01.05-.02.07-.03.03,0,.07,0,.09.01l3.79,2.2s-.05-.02-.09-.01c-.02,0-.05.01-.07.03-.1.06-.18.18-.22.3l-1.61,6.49c-.02.09-.01.18.03.22,0,0,.01.01.02.02l-3.79-2.2s-.02-.01-.02-.02c-.04-.04-.06-.13-.03-.22Z"/>
                <path class="cls-42" d="M87.86,68.46s.01-.05.02-.08l-2.83-1.64-1.5,6.05,2.82,1.64,1.48-5.97Z"/>
                <path class="cls-42" d="M88.6,68.28c-.1.06-.18.18-.22.3l-1.61,6.49c-.02.09-.01.18.03.22.04.04.11.04.19,0l2.86-1.65c.13-.07.23-.25.23-.4,0-.15-.1-.2-.23-.13l-2.55,1.47,1.51-6.08c.04-.16-.03-.27-.15-.25-.02,0-.05.01-.07.03Z"/>
              </g>
            </g>
            <g>
              <rect class="cls-18" x="102.11" y="82.3" width=".5" height="1.53" transform="translate(-20.76 130.18) rotate(-60)"/>
              <path class="cls-39" d="M107.92,80.49l-5.13,2.94c0,.23.16.32.36.21l4.41-2.53c.2-.11.36-.39.36-.62h0Z"/>
              <polygon class="cls-45" points="96.24 79.62 101.36 76.7 107.92 80.49 102.79 83.43 96.24 79.62"/>
              <g>
                <polygon class="cls-42" points="103.44 82.23 103.14 82.4 103.51 82.61 103.8 82.44 103.44 82.23"/>
                <polygon class="cls-42" points="102.28 81.9 102.64 82.11 102.93 81.94 102.57 81.74 102.28 81.9"/>
                <polygon class="cls-42" points="102.14 81.49 101.85 81.66 102.21 81.86 102.5 81.69 102.14 81.49"/>
                <polygon class="cls-42" points="101.71 81.24 101.42 81.41 101.78 81.61 102.07 81.45 101.71 81.24"/>
                <polygon class="cls-42" points="101.28 80.99 100.99 81.16 101.35 81.36 101.64 81.2 101.28 80.99"/>
                <polygon class="cls-42" points="100.12 80.66 100.48 80.87 100.78 80.7 100.42 80.49 100.12 80.66"/>
                <polygon class="cls-42" points="99.98 80.24 99.69 80.41 100.05 80.62 100.34 80.45 99.98 80.24"/>
                <polygon class="cls-42" points="99.55 79.99 99.26 80.16 99.62 80.37 99.91 80.2 99.55 79.99"/>
                <polygon class="cls-42" points="100.74 78.73 101.03 78.56 100.67 78.35 100.38 78.52 100.74 78.73"/>
                <polygon class="cls-42" points="100.3 78.48 100.6 78.31 100.24 78.1 99.94 78.27 100.3 78.48"/>
                <polygon class="cls-42" points="100.16 78.06 99.8 77.85 99.51 78.02 99.87 78.23 100.16 78.06"/>
                <polygon class="cls-42" points="105.33 81.49 105.62 81.32 105.26 81.11 104.97 81.28 105.33 81.49"/>
                <polygon class="cls-42" points="104.9 81.24 105.19 81.07 104.83 80.86 104.54 81.03 104.9 81.24"/>
                <polygon class="cls-42" points="102.38 79.78 103.03 80.16 103.17 80.24 103.24 80.28 103.42 80.39 103.68 80.53 104.04 80.74 104.47 80.99 104.76 80.82 103.58 80.14 103.54 80.11 102.67 79.62 102.38 79.78"/>
                <polygon class="cls-42" points="102.31 79.74 102.6 79.58 102.24 79.37 101.95 79.54 102.31 79.74"/>
                <polygon class="cls-42" points="101.88 79.49 102.17 79.33 101.81 79.12 101.52 79.29 101.88 79.49"/>
                <polygon class="cls-42" points="101.74 79.08 101.38 78.87 101.09 79.04 101.45 79.25 101.74 79.08"/>
                <polygon class="cls-42" points="100.67 78.77 100.3 78.56 100.01 78.73 100.37 78.94 100.67 78.77"/>
                <polygon class="cls-42" points="100.23 78.52 99.87 78.31 99.58 78.48 99.94 78.69 100.23 78.52"/>
                <polygon class="cls-42" points="99.8 78.27 99.44 78.06 99.15 78.23 99.51 78.44 99.8 78.27"/>
                <polygon class="cls-42" points="105.26 81.53 104.9 81.32 104.61 81.49 104.97 81.7 105.26 81.53"/>
                <polygon class="cls-42" points="104.18 81.24 104.54 81.45 104.83 81.28 104.47 81.07 104.18 81.24"/>
                <polygon class="cls-42" points="103.74 80.99 104.11 81.2 104.4 81.03 104.04 80.82 103.74 80.99"/>
                <polygon class="cls-42" points="103.31 80.74 103.67 80.95 103.96 80.78 103.6 80.57 103.31 80.74"/>
                <polygon class="cls-42" points="102.88 80.49 103.24 80.7 103.53 80.53 103.17 80.32 102.88 80.49"/>
                <polygon class="cls-42" points="102.45 80.24 102.81 80.45 103.1 80.28 102.74 80.08 102.45 80.24"/>
                <polygon class="cls-42" points="102.02 79.99 102.38 80.2 102.67 80.03 102.31 79.83 102.02 79.99"/>
                <polygon class="cls-42" points="101.59 79.74 101.95 79.95 102.24 79.78 101.88 79.58 101.59 79.74"/>
                <polygon class="cls-42" points="101.15 79.5 101.52 79.7 101.81 79.54 101.45 79.33 101.15 79.5"/>
                <polygon class="cls-42" points="100.3 78.98 99.94 78.77 99.65 78.94 100.01 79.15 100.3 78.98"/>
                <polygon class="cls-42" points="99.22 78.69 99.58 78.9 99.87 78.73 99.51 78.52 99.22 78.69"/>
                <polygon class="cls-42" points="99.44 78.48 99.08 78.27 98.79 78.44 99.15 78.65 99.44 78.48"/>
                <polygon class="cls-42" points="104.9 81.74 104.54 81.53 104.25 81.7 104.61 81.91 104.9 81.74"/>
                <polygon class="cls-42" points="103.81 81.45 104.17 81.66 104.47 81.49 104.11 81.28 103.81 81.45"/>
                <polygon class="cls-42" points="104.03 81.24 103.67 81.03 103.38 81.2 103.74 81.41 104.03 81.24"/>
                <polygon class="cls-42" points="103.6 80.99 103.24 80.78 102.95 80.95 103.31 81.16 103.6 80.99"/>
                <polygon class="cls-42" points="103.17 80.74 102.81 80.53 102.52 80.7 102.88 80.91 103.17 80.74"/>
                <polygon class="cls-42" points="102.74 80.49 102.38 80.28 102.09 80.45 102.45 80.66 102.74 80.49"/>
                <polygon class="cls-42" points="101.66 80.2 102.02 80.41 102.31 80.24 101.95 80.04 101.66 80.2"/>
                <polygon class="cls-42" points="101.88 79.99 101.52 79.79 101.22 79.95 101.58 80.16 101.88 79.99"/>
                <polygon class="cls-42" points="100.72 79.66 101.15 79.91 101.44 79.74 101.01 79.5 101.38 79.29 101.01 79.08 100.65 79.29 100.53 79.36 100.36 79.46 100.6 79.59 100.72 79.66"/>
                <polygon class="cls-42" points="99.65 79.36 99.94 79.19 99.58 78.98 99.29 79.15 99.65 79.36"/>
                <polygon class="cls-42" points="99.15 78.73 98.86 78.9 99.22 79.11 99.51 78.94 99.15 78.73"/>
                <polygon class="cls-42" points="99.08 78.69 98.72 78.48 98.42 78.65 98.79 78.86 99.08 78.69"/>
                <polygon class="cls-42" points="104.53 81.95 104.17 81.74 103.88 81.91 104.24 82.12 104.53 81.95"/>
                <polygon class="cls-42" points="103.81 81.87 104.1 81.7 103.74 81.49 103.45 81.66 103.81 81.87"/>
                <polygon class="cls-42" points="103.67 81.45 103.31 81.24 103.02 81.41 103.38 81.62 103.67 81.45"/>
                <polygon class="cls-42" points="102.88 80.99 102.59 81.16 102.95 81.37 103.24 81.2 102.88 80.99"/>
                <polygon class="cls-42" points="102.81 80.95 102.45 80.74 102.16 80.91 102.52 81.12 102.81 80.95"/>
                <polygon class="cls-42" points="102.38 80.7 102.02 80.49 101.72 80.66 102.09 80.87 102.38 80.7"/>
                <polygon class="cls-42" points="101.65 80.62 101.95 80.45 101.58 80.24 101.29 80.41 101.65 80.62"/>
                <polygon class="cls-42" points="101.51 80.2 101.15 80 100.86 80.16 101.22 80.37 101.51 80.2"/>
                <polygon class="cls-42" points="100.65 79.71 100.52 79.63 100.29 79.5 100 79.67 100.23 79.8 100.36 79.87 100.79 80.12 101.08 79.95 100.65 79.71"/>
                <polygon class="cls-42" points="98.56 79.57 98.92 79.77 99.22 79.61 98.85 79.4 98.56 79.57"/>
                <polygon class="cls-42" points="98.42 79.15 98.13 79.32 98.49 79.52 98.78 79.36 98.42 79.15"/>
                <polygon class="cls-42" points="97.99 78.9 97.7 79.07 98.06 79.28 98.35 79.11 97.99 78.9"/>
              </g>
              <path class="cls-42" d="M104.79,79.13l-.87.5s-.1.02-.14,0l-1.31-.75s-.04-.06,0-.08l.87-.5s.1-.02.14,0l1.31.75s.04.06,0,.08Z"/>
              <g>
                <g>
                  <path class="cls-45" d="M96.22,79.71l-1.41-5.16c-.19.17-.3.46-.25.65l1.22,4.48c.05.19.25.2.44.03h0Z"/>
                  <polygon class="cls-45" points="101.37 78.33 102.44 83.6 95.88 79.81 94.81 74.55 101.37 78.33"/>
                  <path class="cls-39" d="M102.79,83.5l-1.41-5.16c-.19.17-.3.46-.25.65l1.22,4.48c.05.19.25.2.44.03h0Z"/>
                </g>
                <path class="cls-42" d="M98.61,79.29c.04.22-.1.31-.31.2-.21-.11-.41-.38-.44-.61-.04-.22.1-.31.31-.2.21.11.41.38.44.61Z"/>
              </g>
            </g>
          </g>
          <g>
            <g>
              <g>
                <path class="cls-33" d="M81.61,50.61c-1.26-.08-.98-2.22-.64-3.39.12-.42.63-.63,1.05-.49.42.14.67.93.66,1.37-.01.41.43,2.6-1.07,2.51Z"/>
                <path class="cls-38" d="M80.92,48.38c-.21-1.81,1.76-1.96,1.5.01-.07.52-.4.91-.73.92-.52.02-.72-.55-.76-.93Z"/>
                <g>
                  <g>
                    <path class="cls-38" d="M75.05,47.67c-.55.44-1.25.67-1.94.66-.09,0-.2-.02-.26-.09-.09-.11-.03-.29.05-.42.64-1.04,1.83-1.92,2.36-3.03.06-.13.11-.26.22-.35.16-.13.4-.1.6-.15.19-.05.38-.17.55-.08.15.08.19.29.23.47.05.19.14.66.2.84.06.18.1.39.04.57-.07.23-.26.4-.47.51-.21.11-.43.18-.64.29-.36.2-.63.52-.95.78Z"/>
                    <path class="cls-33" d="M72.85,48.23c.06.07.17.09.26.09.69.02,1.39-.21,1.94-.65.32-.26.6-.58.95-.78.21-.11.43-.18.64-.29.21-.11.4-.28.47-.51.06-.18.02-.39-.04-.57-.05-.16-.12-.6-.17-.77,0-.02-.02-.05-.02-.07-.05-.17-.08-.38-.23-.47-.17-.09-.37.03-.55.08-.2.05-.43.02-.6.15-.11.09-.16.23-.22.35-.21.44-.52.79-.86,1.13-.52.51-1.11,1.27-1.5,1.9-.08.13-.14.3-.05.42Z"/>
                    <path class="cls-38" d="M74.03,46.52c0,.07.01.15.07.19.05.03.11.03.17.03.62-.05,1.16-.42,1.64-.81.25-.2.49-.42.68-.67.12-.16.23-.33.3-.51,0-.02-.02-.05-.02-.07-.05-.17-.05-.54-.21-.63-.17-.09-.39,0-.58.05-.2.05-.5-.06-.67.07-.11.09-.06.38-.12.51-.21.44-.55.9-.89,1.24-.11.14-.21.28-.29.41-.04.06-.07.12-.09.19Z"/>
                  </g>
                  <path class="cls-38" d="M74.61,33.99c.02.28.04.61.06.97.02.34.05.71.07,1.1.02.32.04.64.06.98.22,3.39.49,7.64.49,7.64,0,.01,0,.02.01.02.31.57,1.46.7,1.57-.02.12-2.24.52-4.19.8-5.98.09-.61.18-1.2.23-1.78.05-.49.07-.98.06-1.45v-.07c0-.41-.04-.82-.1-1.23-.02-.12-.04-.24-.07-.36l-2.61-1.69c0,.07-.57,1.8-.57,1.88Z"/>
                </g>
                <g>
                  <path class="cls-38" d="M77.67,30.25c.43,2.22.68,3.97.94,5.31.02.1.04.2.06.3.11.51.22.96.35,1.35.03.09.06.17.09.25l.22,1.04.09.45,1.67,8.02.06.28.06.26c0,.63.97.42,1.02-.11,0-.04,0-.08.01-.12.01-.12.03-.24.04-.35.52-4.85.38-6.8.05-8.63-.04-.23-.08-.47-.13-.7-.07-.34-.14-.69-.21-1.06.02-.12.03-.24.04-.36,0-.03,0-.06,0-.09,0-.02,0-.03,0-.05.28-2.52.21-4.45.15-5.79h-4.54Z"/>
                  <path class="cls-44" d="M77.67,30.25c.43,2.22.68,3.97.94,5.31.02.1.04.2.06.3.11.51.22.96.35,1.35.03.09.06.17.09.25l.22,1.04.09.45,1.67,8.02.06.28.06.26c0,.63.97.42,1.02-.11,0-.04,0-.08.01-.12.01-.12.03-.24.04-.35.52-4.85.38-6.8.05-8.63-.04-.23-.08-.47-.13-.7-.07-.34-.14-.69-.21-1.06.02-.12.03-.24.04-.36,0-.03,0-.06,0-.09,0-.02,0-.03,0-.05.28-2.52.21-4.45.15-5.79h-4.54Z"/>
                </g>
              </g>
              <path class="cls-38" d="M78.61,35.56c.02.1.04.2.06.3.11.51.22.96.35,1.35.03.09.06.17.09.25l.22,1.04.09.45c.97.01,1.97-.18,2.91-.65-.04-.23-.08-.47-.13-.7-.07-.34-.14-.69-.21-1.06.02-.12.03-.24.04-.36,0-.03,0-.06,0-.09l-3.44-.53Z"/>
              <path class="cls-38" d="M74.67,34.96c.02.34.05.71.07,1.1.02.32.04.64.06.98.66.73,1.68,1.34,2.87,1.66.09-.61.18-1.2.23-1.78.05-.49.07-.98.06-1.45l-3.29-.51Z"/>
              <path class="cls-33" d="M74.73,35.85c.39,1.08,5.75,3.23,7.44,1.56l.5-7.4c.46-2.43.06-3.68-1.2-4.85-.15-.14-.32-.28-.49-.42l-3.76-.15-1.47-.06c-1.28,4.08-1.31,8.51-1.01,11.33Z"/>
              <path class="cls-10" d="M75.74,24.52c.36.86.84,1.53,1.79,1.77.95.24,2.85.04,3.94-1.13,1.26,1.17,1.66,2.43,1.2,4.85l-.5,7.4c-.15.15-.41.33-.83.48.34-2.58-.05-8.53-.6-10.56-3.11.12-4.43-.61-5.16-2.33l.15-.48Z"/>
              <path class="cls-16" d="M79.23,13.72c0,.87.71,1.58,1.58,1.58s1.58-.71,1.58-1.58-.71-1.58-1.58-1.58-1.58.71-1.58,1.58Z"/>
              <path class="cls-49" d="M68.37,23.18l.5.9c.18-.05.36-.1.54-.16,1.69-.52,3.36-1.31,5-2.32l2.66-3.28.47-.58-.43-3.75c-1.02.02-2.58,2.85-4.19,5.94l-4.55,3.24Z"/>
              <path class="cls-8" d="M69.41,23.92c1.69-.52,3.36-1.31,5-2.32l2.66-3.28c-.14-.36-.43-1.11-.41-1.03.05.21-2.57,3.85-2.57,4.06l-4.67,2.56Z"/>
              <path class="cls-38" d="M65.42,25.68c-.06.22.02.3.28.22l.22-.09c-.04.1.02.13.17.1.02,0,.03,0,.05,0l2.51-1.27c.24-.15.38-.31.43-.5.06-.2.03-.42-.06-.66,0,0-.51-1.03-1.76.06-.67.58-1.07.91-1.31,1.09-.02.02-.04.03-.06.05-.16.12-.21.16-.21.16-.14.19-.15.31,0,.37l-.27.21c-.12.13-.14.22,0,.27Z"/>
              <path class="cls-21" d="M65.91,24.66s.19,1.25.19,1.25c.02,0,.03,0,.05,0l2.51-1.27c.24-.15.38-.31.43-.5-.53.22-.79-.13-1.01-.47-.25-.39-1.77.74-2.12.96-.04.03-.06.04-.06.04Z"/>
              <polygon class="cls-42" points="67.21 20.37 68.44 27.52 64.78 29.72 63.51 22.34 67.21 20.37"/>
              <path class="cls-38" d="M68.8,23.95s-.47.45-1.23.22l-.78.21c-.53.13-.47-.29-.08-.39,0,0,1.1-.46,1.43-.84l.67.8Z"/>
              <path class="cls-49" d="M74.16,20.76c0,.76.72,1.45,1.62,1.33,0,.07,0,.13,0,.19.02.47.11,1.02.1,1.52,0,.05,0,.11,0,.15,0,.13-.02.26-.05.39-.01.06-.03.12-.05.18.37.87.85,1.55,1.82,1.8.24.06.54.09.88.09,1,0,2.3-.35,3.13-1.24-.18-1.36.28-3.1.76-4.56.37-1.13.75-2.09.85-2.57-.88-1.11-1.95-2.04-3.08-2.83s-1.66-1.8-2.95-1.31c-1.3.49-1.45,3.07-1.92,4.08-.47,1.01-1.1,1.72-1.1,2.78Z"/>
              <path class="cls-8" d="M75.83,24.35c-.01.06-.03.12-.05.18.49,1.41,1.41,2.05,2.7,1.89,1,0,2.3-.35,3.13-1.24-.18-1.36.28-3.1.76-4.56l-1.17-.3-1.27,2.04c-.99,1.67-3.56,1.34-3.67-.36l-.47.13c0,.06,0,.12,0,.17.01.67.09,1.12.1,1.52,0,.05,0,.11,0,.15,0,.13-.02.26-.05.39Z"/>
              <g>
                <path class="cls-49" d="M83.23,18.05c1.07,1.86,1.67,3.96,1.86,6.27.3,1.69-.02,4.77-.79,6.4-.19-.23-.53-.34-1.07-.28-.13-2.26-.28-4.46,0-5.63l-1.71-3.73c-1.17-2.56.75-4.25,1.71-3.03Z"/>
                <path class="cls-38" d="M81.15,32.2c.09.05.23.06.36-.05.29-.3.58-.53.97-.4.07.12.07.29.03.49v.04c-.11.42-.4.96-.69,1.51-.03.09-.01.16.04.2.07.06.18.06.26,0-.02.15.18.21.31.07l.2-.22c.02.18.23.13.3,0l.37-.46c.26-.25.47-.54.65-.88.02-.05.05-.1.07-.15.18-.55.27-1.1.26-1.65-.13-.46-.54-.52-1.07-.28l-.63.33c-.59.29-.89.7-1.52,1.21-.05.07,0,.16.08.22Z"/>
                <path class="cls-23" d="M81.87,33.99c.07.06.18.06.26,0-.02.15.18.21.31.07l.2-.22c.02.18.23.13.3,0l.37-.46c.26-.25.47-.54.65-.88-.31.13-.62.04-.94-.13-.27.63-.76,1.49-1.15,1.61Z"/>
                <path class="cls-23" d="M81.15,32.2c.09.05.23.06.36-.05.29-.3.58-.53.97-.4.07.12.07.29.03.49l.16-.67c-.7-.16-1.19.5-1.52.63Z"/>
              </g>
              <path class="cls-20" d="M74.97,21.99c-.17-.08-.35-.2-.54-.37.13.15.31.29.54.37Z"/>
              <path class="cls-38" d="M79.99,13.55c.17.59.32,1.41.54,2.02.13.69-1.16,2.08-2.01,2.02-.61-.12-.59-1.3-.68-2.02l2.15-2.02Z"/>
              <path class="cls-12" d="M79.86,13.55c0,2.01-.94,4.9-2.17,4.4-.87-.35,0-1.82,0-3.2l2.17-1.2Z"/>
              <g>
                <path class="cls-38" d="M79.79,14.5c-.61.76-1.26,1.41-2.33,1.25-.4-.06-.76-.65-.73-3.02.01-.8.44-1.74.81-2.19.52-.63,1.42-.87,2.27-.68,1.21.28,1.8,1.21,1.65,2.39-.28,1.6-.97,2.19-1.67,2.25Z"/>
                <path class="cls-16" d="M80.19,14.35s-.28-.06-.51-.44-.27-.82-.32-1.31c-1.11-.11-2.28-.92-2.28-1.29.05-.51.37-.98,1.31-1.36,1.05-.4,1.98-.15,2.73.66,1.17,1.27.11,3.52-.88,3.93l-.05-.19Z"/>
                <path class="cls-38" d="M79.94,14.05c.08-.12.16-.23.27-.32.11-.09.25-.15.39-.14.04,0,.07.01.11.03.07.04.11.13.12.21,0,.09-.03.17-.06.25-.06.15-.15.29-.27.4-.12.11-.28.18-.44.18-.06,0-.13-.01-.18-.05-.04-.03-.06-.08-.06-.13-.03-.15.05-.3.14-.43Z"/>
              </g>
            </g>
            <g>
              <path class="cls-52" d="M49.12,41.55L11.59,63.22l-.11-39.02c0-2.27,1.59-5.02,3.55-6.16L39.44,3.95l5.99-3.46c1.32-.77,2.48-.61,3.09.27.31.43.49,1.03.49,1.77l.11,39.02Z"/>
              <g>
                <path class="cls-37" d="M32.43,34.48l-2.66-1.54-17.71,10.23c-.2.11-.39.25-.58.39l9.56,5.52,11.39-6.58c3.09-1.78,3.09-6.24,0-8.03Z"/>
                <path class="cls-25" d="M32.43,34.48l-2.66-1.54-17.71,10.23c-.2.11-.39.25-.58.39l9.56,5.52,11.39-6.58c3.09-1.78,3.09-6.24,0-8.03Z"/>
              </g>
              <path class="cls-36" d="M32.43,33.45l-2.66-1.54-17.71,10.23c-.2.11-.39.25-.58.39l9.56,5.52,11.39-6.58c3.09-1.78,3.09-6.24,0-8.03Z"/>
              <g>
                <path class="cls-37" d="M29.18,38.57l-2.3-9.29c-.05-.18-.17-.36-.31-.44-.03-.02-.07-.03-.11-.04-.05,0-.09,0-.13.02l-5.43,3.16c-.08.04-.12.17-.08.34l1.21,4.88-2.93,1.7c-.06.03-.1.11-.1.21,0,.21.15.46.33.57l4.1,2.37c.11.06.2.06.27,0-.01.01-.02.02-.03.03l5.43-3.16s.02-.02.03-.03c.06-.06.08-.18.05-.31Z"/>
                <g class="cls-35">
                  <path class="cls-49" d="M24.77,35.77c-.09-.05-.17-.06-.23-.02l-5.43,3.16c.06-.03.14-.03.23.02l3.64,2.1,5.43-3.16-3.64-2.1Z"/>
                  <path class="cls-49" d="M29.18,38.57l-2.3-9.29c-.05-.18-.17-.36-.31-.44-.03-.02-.07-.03-.11-.04-.05,0-.09,0-.13.02l-5.43,3.16s.08-.03.13-.02c.03,0,.07.02.11.04.14.08.26.25.31.44l2.3,9.29c.03.14.02.25-.05.31-.01.01-.02.02-.03.03l5.43-3.16s.02-.02.03-.03c.06-.06.08-.18.05-.31Z"/>
                  <path class="cls-42" d="M22.2,32.25s-.02-.08-.03-.11l4.05-2.35,2.15,8.66-4.04,2.35-2.12-8.55Z"/>
                  <path class="cls-36" d="M21.14,32c.14.08.26.25.31.44l2.3,9.29c.03.14.02.25-.05.31-.06.06-.16.06-.27,0l-4.1-2.37c-.18-.1-.33-.36-.33-.57,0-.21.15-.29.33-.19l3.64,2.1-2.16-8.71c-.06-.23.04-.39.21-.36.03,0,.07.02.11.04Z"/>
                </g>
              </g>
            </g>
            <path class="cls-25" d="M57.72,7.59c0-1.13-.4-1.92-1.05-2.29,0,0-8.7-5.06-8.7-5.06-.65-.38-1.55-.32-2.54.25L15.04,18.04c-1.97,1.14-3.56,3.89-3.56,6.16l.11,39.02,8.71,5.06.88-.51-.11-39.02c0-1.71,1.2-3.79,2.68-4.65l25.89-14.95-1.4,32.9,8.71,5.06.88-.51-.11-39.02Z"/>
            <path class="cls-36" d="M56.95,47.12l-8.71-5.06-.09-32.04,5.98-3.46c1.49-.86,2.7-.17,2.7,1.54l.11,39.02Z"/>
            <path class="cls-42" d="M57.83,46.61l-.88.51-.11-39.02c0-1.71-1.22-2.4-2.7-1.54l-5.98,3.46-24.4,14.09c-1.48.86-2.69,2.94-2.69,4.65l.11,39.02-.87.51-.11-39.02c0-2.27,1.59-5.02,3.55-6.16l24.4-14.09,5.99-3.46c1.32-.77,2.48-.61,3.09.27.31.43.49,1.03.49,1.77l.11,39.02Z"/>
            <g>
              <path class="cls-25" d="M69.58,43.6c1.97,1.14,3.56,3.89,3.55,6.16l-.11,16.23s8.71-5.06,8.71-5.06l.11-16.23c0-2.27-1.59-5.02-3.56-6.16l-30.07-17.36-8.74,5.04,30.1,17.38Z"/>
              <path class="cls-34" d="M72.26,49.26c0-1.71-1.2-3.79-2.69-4.65,1.48.86,2.69,2.94,2.68,4.65l-.11,16.23.64.37-.64-.37.11-16.23Z"/>
              <path class="cls-42" d="M69.58,44.61c1.48.86,2.69,2.94,2.69,4.65l-.11,16.23.64.37.23.14.11-16.23c0-2.27-1.59-5.02-3.55-6.16l-30.1-17.38v1.01l30.09,17.38Z"/>
            </g>
            <g>
              <path class="cls-37" d="M77.17,38.42l-2.3-9.29c-.04-.18-.17-.36-.31-.44-.03-.02-.07-.03-.11-.04-.05,0-.09,0-.13.02l-5.43,3.16c-.08.04-.12.17-.08.34l1.21,4.88-2.93,1.7c-.06.03-.1.11-.1.21,0,.21.15.46.33.57l4.1,2.37c.11.06.2.06.27,0-.01.01-.02.02-.03.03l5.43-3.16s.02-.02.03-.03c.06-.06.08-.18.05-.31Z"/>
              <g class="cls-35">
                <path class="cls-49" d="M72.76,35.62c-.09-.05-.17-.06-.23-.02l-5.43,3.16c.06-.03.14-.03.23.02l3.64,2.1,5.43-3.16-3.64-2.1Z"/>
                <path class="cls-49" d="M77.17,38.42l-2.3-9.29c-.04-.18-.17-.36-.31-.44-.03-.02-.07-.03-.11-.04-.05,0-.09,0-.13.02l-5.43,3.16s.08-.03.13-.02c.03,0,.07.02.11.04.14.08.26.25.31.44l2.3,9.29c.03.14.02.25-.05.31-.01.01-.02.02-.03.03l5.43-3.16s.02-.02.03-.03c.06-.06.08-.18.05-.31Z"/>
                <path class="cls-42" d="M70.19,32.1s-.02-.08-.03-.11l4.05-2.35,2.15,8.66-4.04,2.35-2.12-8.55Z"/>
                <path class="cls-36" d="M69.13,31.85c.14.08.26.25.31.44l2.3,9.29c.03.14.02.25-.05.31-.06.06-.16.06-.27,0l-4.1-2.37c-.18-.1-.33-.36-.33-.57,0-.21.15-.29.33-.19l3.64,2.1-2.16-8.71c-.06-.23.04-.39.21-.36.03,0,.07.02.11.04Z"/>
              </g>
            </g>
            <path class="cls-42" d="M18.2,34.77c0,1.46-1.18,1.96-2.64,1.12s-2.64-2.71-2.64-4.17,1.18-1.96,2.64-1.12,2.64,2.71,2.64,4.17Z"/>
            <polygon class="cls-36" points="18.2 40.49 12.91 37.44 12.91 35.4 18.2 38.45 18.2 40.49"/>
            <polygon class="cls-42" points="18.2 43.52 12.91 40.47 12.91 39.45 18.2 42.5 18.2 43.52"/>
            <polygon class="cls-42" points="18.2 45.4 12.91 42.35 12.91 41.33 18.2 44.38 18.2 45.4"/>
            <polygon class="cls-42" points="17.23 45.71 12.91 43.22 12.91 44.24 17.23 46.73 17.23 45.71"/>
            <polygon class="cls-42" points="18.2 49.17 12.91 46.12 12.91 45.1 18.2 48.15 18.2 49.17"/>
            <g>
              <g>
                <path class="cls-38" d="M36.11,47.11c.18.42.36.83.53,1.22.15.59.41,1.13.71,1.65.1.38-.09.4-.46.19l-.76-1.12c-.21.18-.36.49-.48.87l.21,1.72c-.05.33-.19.3-.35.11l-.3-1.56-.03,1.67c-.12.14-.22.09-.3-.13l-.1-.48c-.08.17-.17.14-.26-.04,0,0-.06-2.01-.06-2.05,0-.03.66-2.35.66-2.35l.25-.5,1,.28-.26.51Z"/>
                <path class="cls-42" d="M39.37,37.46c-.36,1.35-.26,3.01-.73,4.97-.63,1.97-1.42,2.93-2.32,5.16-.14.22-1.39-.06-1.34-.29.94-4.3.39-2.89.98-4.75.27-1.42.29-3.24.46-4.97.1-1.14.53-1.75,1.12-2.01,1.34-.44,2.57.63,1.82,1.9Z"/>
                <path class="cls-16" d="M39.24,66.03s.19,1.02.09,1.45c-.09.44-1.25.72-1.25.72,0,0-.98,1.19-2.36,1.09-.81-.06-1.09-.28-1.21-.52s0-.54.15-.77c.16-.22,1.2-.6,1.62-1.27.21-.33.55-1.02.55-1.02l.04-.37c.06-.52.49-.93,1.02-.95.71-.03,1.27.55,1.22,1.24l-.02.22.14.17Z"/>
                <path class="cls-16" d="M44.05,69.12c.17.32.17.86.18,1.65-.21.44-.54.79-.93.92,0,0-.31,1.41-2.19,1.46-1.77.04-1.76-.67-1.75-.67,0,0,0-.41.41-.75.25-.21,1.2-1.02,1.43-1.32.23-.3.42-.78.42-.78l.08-1.28h2.39l-.03.77Z"/>
                <path class="cls-50" d="M37.22,46.94l3.14,4.26c-.15,1.18-.4,4.42-.68,5.53.58,4.21-.17,8.98-.52,9.24-.48.4-1.63.64-2.3-.36,0,0,.33-4.62-.29-9.43l.64-9.25Z"/>
                <path class="cls-36" d="M39.41,50.38l.87,7.91c.97,4.91,1.39,11.27,1.39,11.27.57,1.01,2.08.6,2.56,0,.05-.64.1-1.3.15-1.97.18-2.94.16-6.19-.94-8.97.35-2.05.72-5.89.54-7.77.35-1.08.48-2.57-.13-4.11,0-.02-.02-.04-.02-.06-.02.02-.03.03-.05.04-.26.22-.56.38-.88.48-2.27.74-5.68-1.13-5.68-1.08-.08,2.28.75,3.19,2.2,4.26Z"/>
                <path class="cls-5" d="M42.63,58.77c1.1,1.94,1.51,5.21,1.75,8.81.18-2.94.16-6.19-.94-8.97.35-2.05.72-5.89.54-7.77.35-1.08.48-2.57-.13-4.11h-.08s-1.14-.18-1.14-.18c.1.22.18.44.26.66.42,1.23.47,2.4.07,3.51.46,2.28.16,5.1-.33,8.06Z"/>
                <path class="cls-42" d="M36.66,43.23c.15.94.34,1.85.53,2.71,0,0,0,.23.14.54.22.48.8,1.14,2.32,1.28,1,.15,1.77.15,2.36.07.43-.06.77-.16,1.03-.28.02,0,.03-.01.04-.02l.16-.08c.75-.46.74-1.08.74-1.08.3-1.57.52-3.17.64-4.8.03-.42.02-.99,0-1.61-.05-1.18-.39-2.51-.38-3.32-1.63-.64-2.01-.97-3.38-1.73-1.41-.29-2.71-.18-3.93.05-.79,2.95-.66,5.75-.26,8.29Z"/>
                <path class="cls-6" d="M43.03,47.55s.04-.02.04-.02l.16-.08c.75-.46.74-1.08.74-1.08.3-1.57.52-3.17.64-4.8.03-.42.02-.99,0-1.61-.61-.33-1.34-.75-1.34-.75.56,2.65.38,5.45-.25,8.35Z"/>
                <polygon class="cls-36" points="39.6 37.72 39.37 38.44 38.95 38.29 38.95 37.47 39.37 37.18 39.6 37.72"/>
                <path class="cls-25" d="M39.37,38.44c-.12,1.53-.12,4.43,0,6.05l-.68.65-.47-1.07c.09-1.58.4-4.29.74-5.79l.42.15Z"/>
                <path class="cls-38" d="M40.53,34.19s.85,1,.85,1c1.07.61-.3,2.87-1.77,2.64l-1.22-.84,2.13-2.79Z"/>
                <path class="cls-56" d="M41.14,34.88c.2.14.55.37.85.66,0,0-.59,2.75-2.39,2.9-.13-.48-.32-.85-.32-.85,1.12-.17,1.87-1.86,1.87-2.71Z"/>
                <path class="cls-56" d="M39.27,37.59l-.66.63s-.63-2.58-.08-3.13c.56-.55.74,2.5.74,2.5Z"/>
                <path class="cls-12" d="M37.58,37.23c0,1.08.28,1.93,1.01,1.8,1.58-.19,1.85-2.41,1.69-3.24l-2.7,1.45Z"/>
                <path class="cls-38" d="M38.74,31.47c1.32.01,2.07.63,2.12,2.01-.04,1.44-.11,2.31-.81,3.3-.43.55-1.02.94-1.7.9-.8-.04-1.98-1.96-2.1-3.35-.19-1.4,1-2.48,2.48-2.86Z"/>
                <path class="cls-24" d="M36.42,35.34c.3.7,2.04.57,2.81-.29l.09.51.7-.59.61.8.22-.32c.56-1.12.53-2.96-1.06-3.89-2.13-.85-4.76,1.62-3.37,3.77Z"/>
                <path class="cls-38" d="M40.22,35.59c.08-.14.16-.3.17-.46.02-.16-.03-.34-.15-.45s-.33-.13-.46-.02c-.09.07-.13.19-.13.31,0,.11.03.22.06.33.03.1.06.2.09.29.02.07.05.14.11.18.06.03.13.01.19-.03.05-.04.09-.1.13-.15Z"/>
                <path class="cls-38" d="M47.09,50.05l.08,1.24-.05,1.1-.32.82c-.06.19-.28.25-.2.02l-.28.89c-.06.26-.33.27-.31.02l.2-1.17-.74,1.61c-.12.24-.41.26-.34-.06l.51-1.75-.54.96-.53.64c-.22.22-.51.1-.37-.17l.56-.9s.24-.7.33-1.03c.01-.05-.13-.68-.13-.68l-1.27.66c-.35.11-.48-.19-.17-.41l1.28-1.13s.75-.46.82-.5l.07-.04.19-.58,1.22.09v.4Z"/>
                <path class="cls-42" d="M44.7,36.94c1.38,1.48,2.06,3.2,3.08,5.73.25,2.08-.15,4.72-.68,7.49-.39.2-.81.05-1.35-.2.05-2.06-.46-4.15-.25-6.2-1.09-.68-2.17-2.67-3.34-4.39-.34-2.41,1.06-3.72,2.54-2.43Z"/>
              </g>
              <g>
                <g>
                  <path class="cls-36" d="M27.42,75.59c1.28-.08,1-2.26.65-3.45-.13-.43-.64-.64-1.06-.5-.42.14-.69.95-.67,1.39.01.42-.43,2.65,1.08,2.55Z"/>
                  <path class="cls-38" d="M28.13,73.32c.22-1.84-1.79-1.99-1.52.01.07.53.41.92.74.94.52.02.73-.56.78-.95Z"/>
                  <g>
                    <g>
                      <path class="cls-38" d="M34.09,72.59c.56.45,1.27.69,1.97.67.1,0,.2-.02.27-.09.1-.12.03-.29-.05-.42-.65-1.06-1.86-1.96-2.4-3.08-.06-.13-.12-.27-.23-.36-.17-.13-.4-.1-.61-.16-.19-.05-.39-.17-.56-.08-.16.09-.19.3-.24.48-.05.19-.14.67-.2.85-.06.19-.1.39-.04.58.07.24.27.41.48.52.21.11.44.18.65.3.36.2.64.53.97.79Z"/>
                      <path class="cls-36" d="M36.33,73.17c-.06.07-.17.09-.27.09-.7.02-1.41-.22-1.97-.67-.32-.26-.61-.59-.97-.79-.21-.11-.44-.18-.65-.3-.21-.11-.41-.29-.47-.52-.06-.19-.02-.39.04-.58.05-.16.13-.61.18-.78,0-.02.02-.05.02-.07.05-.18.08-.39.24-.48.17-.1.37.03.56.08.21.05.44.02.61.16.11.09.16.23.23.36.21.44.53.81.87,1.15.53.52,1.13,1.29,1.52,1.93.08.13.15.31.05.42Z"/>
                      <path class="cls-38" d="M35.13,71.43c0,.07-.02.15-.07.19-.05.03-.11.03-.17.03-.63-.05-1.18-.42-1.66-.82-.25-.21-.5-.42-.69-.68-.12-.16-.23-.33-.3-.52,0-.02.02-.05.02-.07.05-.18.05-.55.21-.64.17-.1.4,0,.59.06.21.05.51-.06.68.07.11.09.06.39.12.52.21.44.56.91.9,1.26.11.15.21.29.29.42.04.06.07.12.09.19Z"/>
                    </g>
                    <path class="cls-38" d="M34.54,58.69c-.02.29-.04.62-.06.99-.02.35-.05.72-.07,1.12-.02.32-.04.65-.06,1-.22,3.44-.49,7.76-.49,7.77,0,.01,0,.02-.01.02-.31.58-1.49.71-1.59-.02-.13-2.28-.53-4.26-.81-6.08-.1-.62-.18-1.22-.23-1.81-.05-.5-.07-.99-.06-1.48v-.07c0-.42.04-.84.11-1.25.02-.12.04-.24.07-.37l2.65-1.72c0,.07.58,1.83.58,1.91Z"/>
                  </g>
                  <g>
                    <path class="cls-38" d="M31.43,54.89c-.44,2.25-.69,4.04-.96,5.4-.02.1-.04.2-.06.3-.11.52-.22.98-.36,1.37-.03.09-.06.18-.09.25l-.22,1.05-.1.46-1.7,8.16-.06.29-.06.27c0,.64-.98.42-1.04-.12,0-.04,0-.08-.01-.12-.01-.12-.03-.24-.04-.36-.53-4.93-.38-6.91-.05-8.77.04-.24.09-.48.13-.72.07-.35.14-.7.21-1.08-.02-.12-.03-.24-.04-.36,0-.03,0-.06,0-.09,0-.02,0-.03,0-.05-.29-2.56-.22-4.53-.15-5.89h4.61Z"/>
                    <path class="cls-38" d="M31.43,54.89c-.44,2.25-.69,4.04-.96,5.4-.02.1-.04.2-.06.3-.11.52-.22.98-.36,1.37-.03.09-.06.18-.09.25l-.22,1.05-.1.46-1.7,8.16-.06.29-.06.27c0,.64-.98.42-1.04-.12,0-.04,0-.08-.01-.12-.01-.12-.03-.24-.04-.36-.53-4.93-.38-6.91-.05-8.77.04-.24.09-.48.13-.72.07-.35.14-.7.21-1.08-.02-.12-.03-.24-.04-.36,0-.03,0-.06,0-.09,0-.02,0-.03,0-.05-.29-2.56-.22-4.53-.15-5.89h4.61Z"/>
                  </g>
                </g>
                <path class="cls-12" d="M30.47,60.29c-.02.1-.04.2-.06.3-.11.52-.22.98-.36,1.37-.03.09-.06.18-.09.25l-.22,1.05-.1.46c-.98.01-2-.18-2.96-.66.04-.24.09-.48.13-.72.07-.35.14-.7.21-1.08-.02-.12-.03-.24-.04-.36,0-.03,0-.06,0-.09l3.5-.54Z"/>
                <path class="cls-12" d="M34.48,59.67c-.02.35-.05.72-.07,1.12-.02.32-.04.65-.06,1-.67.74-1.71,1.36-2.92,1.69-.1-.62-.18-1.22-.23-1.81-.05-.5-.07-.99-.06-1.48l3.34-.51Z"/>
                <path class="cls-31" d="M37.26,48.82l-4.14-.82s-1.58-5.21-1.52-5.3c.06-.08,1.58-3.21,1.58-3.21l1.19,6.53,3.57,1.8-.69,1Z"/>
                <path class="cls-36" d="M37.26,48.82l-4.14-.82s-1.58-5.21-1.52-5.3c.06-.08,1.58-3.21,1.58-3.21l1.19,6.53,3.57,1.8-.69,1Z"/>
                <path class="cls-22" d="M29.19,36.32c-2.63.86-2.07,3.34-1.36,5.29l1.86-1.75-.5-3.54Z"/>
                <path class="cls-36" d="M34.42,60.58c-.4,1.09-5.84,3.29-7.57,1.58l-.51-7.52c-.47-2.47-.06-3.74,1.22-4.94.15-.14.32-.29.5-.43l3.82-.15,1.5-.06c1.3,4.14,1.33,8.66,1.03,11.52Z"/>
                <path class="cls-25" d="M35.01,45.31c0,.76-.72,1.45-1.62,1.33,0,.73-.23,1.75,0,2.42-.37.88-.85,1.55-1.82,1.8-.97.24-2.9.04-4-1.15.18-1.36-.27-3.09-.75-4.55-.37-1.13-.51-2.55-.61-3.03.88-1.11,1.7-1.57,2.84-2.36,1.13-.79,2-1.7,3.29-1.21,1.3.48,1.1,2.96,1.58,3.98.47,1.01,1.09,1.72,1.1,2.78Z"/>
                <path class="cls-5" d="M33.39,49.06c-.37.88-.85,1.55-1.82,1.8-.97.24-2.9.04-4-1.15-1.28,1.19-1.69,2.47-1.22,4.94l.51,7.52c.16.15.42.34.84.49-.35-2.63.05-8.67.61-10.73,3.17.12,4.51-.62,5.25-2.37l-.15-.49Z"/>
                <path class="cls-5" d="M33.39,49.06c-.37.88-.85,1.55-1.82,1.8-.97.24-2.9.04-4-1.15.18-1.36-.27-3.09-.75-4.55l.95-.79,1.49,2.53c.99,1.67,3.56,1.34,3.66-.37l.47.13c0,.71-.23,1.74,0,2.41Z"/>
                <path class="cls-38" d="M30.22,48.1c.13.25.39.45.77.59l.54.12c.05.16.29.19.54.21.18-.03.26-.11.24-.25.14-.1.23-.21.17-.35.13-.1.19-.21.12-.37.11-.12.16-.26.08-.41l1.32.16c.28.03.38-.23,0-.32l-2.45-.45c-.34-.09-.69-.08-1.04,0l-.84.21.05,1.01.51-.16Z"/>
                <path class="cls-25" d="M26.21,42.12c-1.39,1.7-2.85,6.47-1.85,7.18,1.15,1,3.62-.1,5.92-1.04-.12-.54-.14-.95.22-1.23l-4.24.48,1.69-2.67c.66-2.24-.46-3.54-1.73-2.71Z"/>
                <path class="cls-38" d="M29.54,38.02c-.17.58-.62,1.46-.73,2.01-.13.68,1.12,1.73,1.96,1.67.59-.12.74-.88.83-1.57l-2.06-2.11Z"/>
                <path class="cls-12" d="M29.97,38.46s-.49,4.05,1.45,3.71c1.27-.22,1-2.31,1-2.31l-2.45-1.4Z"/>
                <path class="cls-22" d="M32.21,35.94c1.67.26,3.55,2.3.74,3.44.07-.92.24-1.62-.74-3.44Z"/>
                <path class="cls-38" d="M31.2,34.75c1.95.27,2.55,1.41,2.36,2.96-.02,1.3-1.1,3.02-1.86,2.99-1.08.06-1.61-1.2-2.53-2.54-.71-2.21.22-3.66,2.03-3.41Z"/>
                <path class="cls-22" d="M33.53,37.76c-.41.43-1.05.68-1.86.86-.68.28-1.35.25-1.61.64l-.79-.33c-.79-.92-.87-3.53.49-4.08,2.19-.89,4.79,1.31,3.77,2.91Z"/>
                <path class="cls-38" d="M30.03,38.86c-.12-.48-.45-.79-.73-.52-.13.13-.12.36,0,.66.1.23.24.34.43.37.27.04.4-.15.31-.52Z"/>
                <path class="cls-41" d="M36.08,44.71c-1.24,1.16-2.07,2.91-2.69,5.45l4.28.14c-.06-1.98,1.23-3.83,2.87-5.59h-4.47Z"/>
                <path class="cls-38" d="M37.53,47.94c-.44.05-.44.39-.11.42-.5,0-.58.43-.16.46-.29.02-.34.35.07.39-.31.1-.34.29.02.34l.48.03c.19.02.45-.1.4-.33.16,0,.29-.39.21-.42.15-.06.25-.35.14-.44.2-.11.23-.41-.06-.73l-.14-.14-.21.4-.63.03Z"/>
              </g>
            </g>
            <polygon class="cls-38" points="62.91 25.69 62.91 26.96 64.77 26.9 64.51 25.42 62.91 25.69"/>
            <path class="cls-38" d="M63.84,24.82l.73-.41.98.54c.25.16.31.53-.05.41l-.65-.13c.04.44-.06.64-.31.91l-.33.3-1.17-.02-.13-.71.93-.88Z"/>
            <path class="cls-56" d="M59.54,25.93l3.37-.23c.61.23.73.98.48,1.51l-3.07,1.3-.78-2.57Z"/>
            <g>
              <path class="cls-16" d="M63.03,56c0-.66-.51-.91-1.26-.99-.66,0-1.54.29-2.71.56l-1.33.73c-.25.68-.24,1.29-.1,1.84.37.32.85.52,1.28.4l1.49-.63.11-.22c1.19-.13,2.51-.67,2.51-1.7Z"/>
              <path class="cls-16" d="M58.19,53.36c0-.54-.48-.63-1.2-.69-1.3,0-1.35.65-2.55.62l-1.17.71c-.24.69-.19,1.42-.05,1.98.36.31.9.38,1.31.32l1.21-.71.1-.22c1.13-.17,2.36-1.01,2.36-2.01Z"/>
              <path class="cls-50" d="M53.93,35l4.33,1.81c0,.77-.01,1.49-.09,2.03-.27,1.99-1.08,5.01-1.08,5.01-.58,2.56-.81,5.74-.95,9.1-.02,1.21-1.82,2.27-2.97,1.12-.33-4.09-.33-8.07.63-10.7-.46-2.08-.03-4.4.1-6.79-.11-.05.14-1.52.01-1.57Z"/>
              <path class="cls-36" d="M57.17,39.3c0,2.39-.02,4.32.55,6.4-.82,2.63-.6,6.54-.04,10.63.71.77,1.71.78,2.34.32.4-.3.65-.78.56-1.39l.44-9.08s.64-3.01.8-5c.16-1.99-.54-6.55-.54-6.55-.39.11-.78.18-1.16.23-2.58.33-4.94-.59-5.68-2.07-.04.11-.07.22-.11.33-.28.89-.44,1.81-.48,2.76-.08,2.1,1.98,2.88,3.31,3.42Z"/>
              <path class="cls-42" d="M61.85,27.01c-.21,1.33-.22,2.62-.23,3.83,0,.46-.01.91-.03,1.36-.04.85-.11,1.66-.31,2.42-.37.16-.74.3-1.1.41-2.22.7-4.25.36-5.85-1.93-.37-.95-1.45-4.16-1.73-7.5,0-1.53.5-2.62,1.8-2.98,2.31.56,4.67,1.99,7.07,4.05.13.11.25.22.37.32Z"/>
              <path class="cls-38" d="M59.38,22.8l-.22,2.08c-1.35,0-3.46-.94-3.19-1.66l.71-1.36,2.7.94Z"/>
              <path class="cls-38" d="M60.02,23.07c-.54.61-1.34.53-2.16.31-1.2-.55-2.07-1.38-1.95-2.94-.1-1.13.42-2.32,2.35-2.26,1.23.04,2.28.49,2.35,1.8,0,0,.07,2.48-.6,3.09Z"/>
              <path class="cls-56" d="M59.23,24.18l.49,1.11c-2.31-.26-4.37-1.12-3.86-2.19l.42-.49c-.32.77,1.95,1.68,2.95,1.57Z"/>
              <path class="cls-16" d="M60.61,19.65c-.1.45-.39.8-.78,1.1,0,0,.09,1.02.04,1.04s-.59.48-.59.48l-.28.77c-.92.66-2.29.16-2.7-.44-.25-.31-.51-1.56-.44-2.76.15-1,.87-1.98,2.41-2.04,1.53-.06,2.48.82,2.35,1.85Z"/>
              <path class="cls-38" d="M59.69,21.94c.15-.16-.08-.55-.24-.6-.23-.08-.36.26-.38.44-.03.24,0,.43.14.64.16.23.4,0,.48-.18.06-.13-.08-.19,0-.29Z"/>
              <path class="cls-5" d="M61.83,41.17c-.16,1.99-.8,5-.8,5l-.44,9.09c.09.6-.16,1.09-.57,1.39.4-3.82.57-7.41,0-10.18.85-3.15,1.24-6.44.26-8.87.01-.97.12-1.85-.09-2.55.36-.11.73-.25,1.1-.41,0,0,.7,4.55.54,6.54Z"/>
              <polygon class="cls-6" points="59.06 28.92 58.54 35.36 60.86 38.68 61.19 33.19 59.06 28.92"/>
              <path class="cls-38" d="M63.12,39.27l-1.17-.39-.08-.03-.06.14c-.03.12-.39,1.97-.38,2.02.06.52.33,1,.61,1.51l.95.66s.52.2.56-.09l-.3-.48.19-.7.18-.38.18.47c.31.69.8.62.72.32l-.29-.67-.19-1.1-.91-1.28Z"/>
              <path class="cls-42" d="M60.91,26.16c1.02.63,1.48,1.05,1.53,3.03l-.25,5.35,1.2,5.05c-.1.55-1.32.86-1.77.52-.82-1.34-1.23-2.48-2.11-4.71l-.48-5.86c-.13-2.15-.17-3.65,1.88-3.37Z"/>
            </g>
            <g>
              <path class="cls-25" d="M36.1,60.8l.05,16.57,8.71,5.06s.8-.46.8-.46l-.05-16.57c0-1.55,1.09-3.44,2.43-4.22l9.22-5.33.03,9.31,8.71,5.06.8-.46-.05-16.57c0-1.05-.39-1.78-1-2.1.02,0,.04.02.06.03l-8.71-5.06c-.59-.34-1.4-.29-2.3.23l-15.46,8.93c-1.79,1.03-3.23,3.53-3.23,5.59ZM44.81,65.86v.05s0-.05,0-.05h0Z"/>
              <path class="cls-36" d="M57.26,55.86l.03,9.31,8.71,5.06-.05-16.57c0-.07,0-.15,0-.22,0-.03,0-.06,0-.09-.02-.15-.05-.3-.09-.42-.01-.04-.02-.08-.04-.12-.02-.05-.03-.1-.06-.14-.02-.05-.05-.09-.07-.13-.02-.03-.03-.06-.05-.08-.03-.04-.06-.08-.09-.12-.05-.05-.09-.1-.14-.14-.05-.04-.1-.08-.15-.11-.03-.02-.06-.04-.09-.05-.44-.2-1.01-.15-1.64.22l-6.24,3.6Z"/>
              <path class="cls-42" d="M44.81,65.86l.05,16.57.8-.46-.05-16.57c0-1.55,1.09-3.44,2.43-4.22l9.22-5.33,6.24-3.6c.63-.37,1.21-.42,1.64-.22.03.02.06.03.09.05.05.03.1.06.15.11.05.04.09.08.14.13.04.05.07.08.1.13.02.02.04.05.05.08.02.04.05.08.07.13.02.04.04.09.06.14.02.04.03.07.04.12.04.13.07.27.09.42,0,.03,0,.06,0,.09,0,.07,0,.14,0,.22l.05,16.57.8-.46-.05-16.57c0-1.96-1.33-2.81-3.01-1.98-.08.04-.16.08-.23.13l-6.24,3.6-9.23,5.33c-1.79,1.03-3.23,3.53-3.23,5.59Z"/>
            </g>
            <g>
              <path class="cls-37" d="M45.1,54.37s.02.02.03.03l5.43,3.16s-.02-.02-.03-.03c.06.06.16.06.27,0l4.1-2.37c.18-.1.33-.36.33-.57,0-.1-.04-.18-.1-.21,0,0-2.93-1.7-2.93-1.7l1.21-4.88c.04-.17,0-.3-.09-.34,0,0-5.42-3.15-5.42-3.15-.03-.02-.08-.03-.13-.02-.03,0-.07.02-.11.04-.14.08-.26.25-.31.44l-2.3,9.29c-.03.14-.02.25.05.31Z"/>
              <g class="cls-35">
                <path class="cls-49" d="M49.47,51.26c.09-.05.17-.06.23-.02l5.43,3.16c-.06-.03-.14-.03-.23.02l-3.64,2.1-5.43-3.16,3.64-2.1Z"/>
                <path class="cls-49" d="M45.06,54.06l2.3-9.29c.05-.18.17-.36.31-.44.03-.02.07-.03.11-.04.05,0,.09,0,.13.02l5.43,3.16s-.08-.03-.13-.02c-.03,0-.07.02-.11.04-.14.08-.26.25-.31.44l-2.3,9.29c-.03.14-.02.25.05.31.01.01.02.02.03.03l-5.43-3.16s-.02-.02-.03-.03c-.06-.06-.08-.18-.05-.31Z"/>
                <path class="cls-42" d="M52.04,47.74s.02-.08.03-.11l-4.05-2.35-2.15,8.66,4.04,2.35,2.12-8.55Z"/>
                <path class="cls-36" d="M53.1,47.49c-.14.08-.26.25-.31.44l-2.3,9.29c-.03.14-.02.25.05.31.06.06.16.06.27,0l4.1-2.37c.18-.1.33-.36.33-.57,0-.21-.15-.29-.33-.19l-3.64,2.1,2.16-8.71c.06-.23-.04-.39-.21-.36-.03,0-.07.02-.11.04Z"/>
              </g>
            </g>
            <path class="cls-42" d="M43.01,69.65c0,1.46-1.18,1.96-2.64,1.12s-2.64-2.71-2.64-4.17,1.18-1.96,2.64-1.12c1.46.84,2.64,2.71,2.64,4.17Z"/>
            <polygon class="cls-36" points="43.01 75.37 37.73 72.32 37.73 70.28 43.01 73.33 43.01 75.37"/>
          </g>
          <g>
            <g>
              <g class="cls-35">
                <path class="cls-36" d="M46.99,105.69c-.19-.11-.37-.12-.5-.05l-7.65,4.45c.13-.07.3-.06.5.05l7.44,4.3,7.65-4.45-7.44-4.3Z"/>
                <path class="cls-29" d="M40.43,86.39l7.65-4.45c.06-.03.13-.02.21.02l-7.65,4.45c-.08-.05-.16-.05-.21-.02Z"/>
                <path class="cls-25" d="M40.64,86.41l7.65-4.45c.07.04.14.11.2.21.87,1.49,1.61,3.06,2.26,4.68.44,1.08.83,2.18,1.18,3.29.61,1.92,1.09,3.86,1.48,5.75.23,1.09.42,2.15.58,3.2.3,1.88.51,3.67.66,5.3.1,1.1.17,2.12.23,3.06.11,1.83.14,3.31.16,4.27l-7.65,4.45c-.02-.96-.05-2.44-.16-4.27-.05-.93-.13-1.96-.23-3.06-.15-1.63-.36-3.42-.66-5.3-.17-1.04-.36-2.11-.58-3.2-.39-1.9-.88-3.84-1.48-5.75-.35-1.11-.74-2.21-1.18-3.29-.65-1.62-1.4-3.19-2.26-4.68-.06-.1-.13-.17-.2-.21Z"/>
                <path class="cls-42" d="M40.64,86.41c.07.04.14.11.2.21.87,1.49,1.61,3.06,2.26,4.68.44,1.08.83,2.18,1.18,3.29.61,1.92,1.09,3.86,1.48,5.75.23,1.09.42,2.15.58,3.2.3,1.88.51,3.67.66,5.3.1,1.1.17,2.12.23,3.06.11,1.83.14,3.31.16,4.27l-8.76-5.06v-.58c0-.44.32-.62.7-.4l7.44,4.3c-.03-.97-.07-1.91-.13-2.82-.06-1.05-.14-2.07-.23-3.06-.17-1.86-.39-3.6-.65-5.23-.18-1.11-.37-2.18-.58-3.2-.43-2.07-.92-3.93-1.45-5.59-.38-1.2-.77-2.29-1.18-3.29-.54-1.33-1.09-2.49-1.63-3.51-.17-.32-.34-.62-.49-.88-.06-.1-.08-.19-.08-.28,0-.2.14-.25.29-.16Z"/>
              </g>
              <polygon class="cls-52" points="44.19 90.66 49.93 87.32 50.68 87.4 44.94 90.73 44.19 90.66"/>
              <path class="cls-36" d="M44.94,90.73l.97,3.27-.55-.05c-.35-1.11-.74-2.21-1.18-3.29l.75.07Z"/>
              <g>
                <polygon class="cls-62" points="46.78 99.34 52.52 96 53.24 96.27 47.5 99.6 46.78 99.34"/>
                <polygon class="cls-52" points="46.78 99.34 52.52 96 53.24 96.27 47.5 99.6 46.78 99.34"/>
              </g>
              <path class="cls-36" d="M47.5,99.6l.44,3.14-.58-.21c-.17-1.04-.36-2.11-.58-3.2l.72.27Z"/>
              <g>
                <polygon class="cls-62" points="48.09 108.2 53.83 104.87 54.5 105.2 48.76 108.54 48.09 108.2"/>
                <polygon class="cls-52" points="48.09 108.2 53.83 104.87 54.5 105.2 48.76 108.54 48.09 108.2"/>
              </g>
              <path class="cls-36" d="M48.76,108.54l.16,3.02-.6-.3c-.05-.93-.13-1.96-.23-3.05l.67.34Z"/>
              <g>
                <polygon class="cls-42" points="48.7 84.37 48.33 84.33 44.5 86.55 46.43 93.03 46.81 93.07 50.63 90.84 48.7 84.37"/>
                <polygon class="cls-54" points="44.88 86.59 48.7 84.37 50.63 90.84 46.81 93.07 44.88 86.59"/>
              </g>
              <g>
                <polygon class="cls-42" points="51.99 93 51.6 92.85 47.77 95.08 48.66 101.36 49.05 101.51 52.87 99.28 51.99 93"/>
                <polygon class="cls-54" points="48.16 95.22 51.99 93 52.87 99.28 49.05 101.51 48.16 95.22"/>
              </g>
              <g>
                <polygon class="cls-42" points="53.56 102.52 53.09 102.28 49.26 104.5 49.58 110.47 50.05 110.7 53.88 108.48 53.56 102.52"/>
                <polygon class="cls-54" points="49.74 104.74 53.56 102.52 53.88 108.48 50.05 110.7 49.74 104.74"/>
              </g>
              <polygon class="cls-49" points="48.76 108.54 54.5 105.2 54.66 108.23 48.92 111.56 48.76 108.54"/>
              <polygon class="cls-49" points="47.5 99.6 53.24 96.27 53.68 99.41 47.94 102.74 47.5 99.6"/>
              <polygon class="cls-49" points="44.94 90.73 50.68 87.4 51.65 90.67 45.91 94 44.94 90.73"/>
            </g>
            <g>
              <path class="cls-16" d="M34.19,115.8s-.19,1.05-.1,1.5c.1.45,1.29.74,1.29.74,0,0,1.68,1.58,3.1,1.47.84-.06,1.12-.29,1.25-.53.13-.25,0-.56-.16-.79-.17-.23-1.9-.97-2.34-1.66-.21-.34-.57-1.05-.57-1.05l-.15-1.32-2.31-.1.11,1.57-.15.18Z"/>
              <path class="cls-60" d="M32.16,99.23l1.47,7.38c-.54,2.94-.42,6.02.32,9.21.45,1.21,2.06.87,3.07,0-.3-2.4-.35-5.17-.29-8.11l.29-1.93s.24-.99.23-4.72c0-1.92-1.1-6.09-1.1-6.09l-3.98,4.27Z"/>
              <path class="cls-16" d="M29.11,118.38c-.17.33-.17.89-.19,1.71.22.45.56.82.97.95,0,0,.69,1.71,2.65,1.76,1.83.05,1.82-.7,1.81-.69,0,0,0-.42-.42-.77-.26-.22-1.61-1.3-1.86-1.61-.24-.31-.43-.81-.43-.81l-.08-1.32h-2.47l.03.79Z"/>
              <path class="cls-45" d="M33.39,100.81c0,3.74.14,5.95-.85,7.84,0,0-.21,1.56-.48,2.52-.29,1-.24,5.34-.12,7.91-.51.84-1.72.98-2.51.43-.3-.21-.54-.51-.66-.92-.65-4.04-1.09-7.24.51-10.21-.51-2.61-.45-5.18-.29-8.01-.2-1.7.03-3.08.54-4.26.13-.29.27-.58.43-.85l6.64,1.58c-.69,2.38-1.89,3.68-3.21,3.97Z"/>
              <path class="cls-11" d="M30.36,108.64c-2.04,2.09-1.45,6.15-.93,10.88-.3-.21-.54-.51-.66-.92-.65-4.04-1.09-7.24.51-10.21-.51-2.61-.45-5.18-.29-8.01-.2-1.7.03-3.08.54-4.26l2.3,2.6c-2.29,1.44-2.72,6.44-1.46,9.92Z"/>
              <path class="cls-38" d="M38.16,96.38c-.19.43-.37.85-.55,1.26-.15.61-.42,1.16-.73,1.7-.1.39.1.41.47.2l.78-1.15c.22.19.37.5.5.89l-.21,1.76c.06.34.19.31.36.11l.31-1.6.03,1.72c.12.15.22.1.3-.14l.1-.49c.09.18.17.15.26-.04,0,0,.06-2.07.06-2.1s-.67-2.42-.67-2.42l-.26-.51-1.03.29.27.52Z"/>
              <path class="cls-42" d="M34.82,86.47c.37,1.39.27,3.09.75,5.1.65,2.02.96,3.08,1.88,5.38.14.22,1.92-.15,1.87-.38-.96-4.41-.4-2.97-1.01-4.88-.28-1.46-.3-3.33-.47-5.11-.1-1.17-.55-1.8-1.15-2.06-1.37-.45-2.64.64-1.87,1.95Z"/>
              <path class="cls-42" d="M36.7,94.13s0,.07-.01.11c-.03.42-.08.86-.13,1.31-.02.18-.04.35-.06.52.18.93-1.19,1.7-2.7,2.16-1.39.43-2.9.59-3.46.39-1.23-.44-1.63-1.63-1.63-1.63l-.27-4.84-.02-.41-.48-3.82c.76-.92,1.86-1.89,2.62-2.28,1.83-1.22,3.5-1.74,5.74-1.1.72,2.4.86,4.72.4,9.59Z"/>
              <path class="cls-56" d="M33.66,87.13l.85.58s.61-2.2.03-2.78c-.58-.57-.88,2.2-.88,2.2Z"/>
              <path class="cls-38" d="M31.07,85.35l1.04-2.17,2.67,1.34-.37,1.68c-.52,1.96-3.67.81-3.35-.85Z"/>
              <path class="cls-25" d="M34.1,88.29v-.87l-.44-.3-.24.56.24.77c.12,1.61.32,4.23.19,5.94l.72.68.49-1.12c-.1-1.66-.61-4.09-.97-5.66Z"/>
              <path class="cls-56" d="M31.33,84.83l-.55.67s.9,2.55,2.52,2.55c.22-.51.36-.92.36-.92-1.17-.18-2.33-1.41-2.33-2.29Z"/>
              <path class="cls-6" d="M36.69,94.24c-.03.42-.08.86-.13,1.31-.02.18-.04.35-.06.52.18.93-1.19,1.7-2.7,2.16-1.39.43-2.9.59-3.46.39-1.23-.44-1.63-1.63-1.63-1.63l-.27-4.84,2.59-1.92c.42,1.8.28,2.04.7,3.39.7.41,3.8-.24,4.97.51-.02.02-.02.05-.01.11Z"/>
              <path class="cls-12" d="M35.29,85.39c.24,1.15.38,2.8-.32,2.87-.46,0-1.33-.82-1.74-2.22-.33-1.13-.25-1.95-.25-1.95l2.31,1.3Z"/>
              <path class="cls-38" d="M32.88,84.34l.68.98c.13.24.35.42.62.48.52.11,1.03.12,1.52.03.24-.07.42-.19.49-.41.07-.21.16-1.29.16-1.29,0,0,.2-.1.25-.22.05-.12.05-.23-.03-.32-.08-.09-.5-.85-.5-.85l.18-.79c-.06-1.26-.81-2.16-2.55-2.54-1.47-.25-2.44.45-2.74,2-.23,1.97.37,2.71,1.93,2.94Z"/>
              <path class="cls-16" d="M31.38,84.06c.21.18.45.27.7.27.13,0,.25-.09.29-.21l.27-.74.66-.04c.11,0,.2-.1.2-.22v-.29c-.02-.21.12-.39.33-.43,1.07-.24,2.07-.49,2.36-.91.03-.05.05-.11.04-.17-.33-2.04-4.55-3.23-5.35-.21-.3,1.12-.14,2.07.5,2.95Z"/>
              <path class="cls-38" d="M32.48,82.98c-.19.06-.3.28-.29.48,0,.2.09.39.18.57.05.11.11.21.19.29.09.08.21.13.32.09.09-.03.16-.12.19-.22.03-.09.03-.2.03-.3,0-.22,0-.44-.1-.64-.1-.19-.32-.34-.53-.28Z"/>
              <g>
                <path class="cls-38" d="M38.88,91.97c.35.15.78.12,1.29-.05l.65-.34c.19.12.46-.06.73-.24.16-.18.17-.33.03-.47.06-.22.05-.41-.13-.5.05-.21.01-.38-.2-.48.01-.22-.05-.4-.27-.48l1.47-.96c.32-.21.19-.56-.27-.33l-2.87,1.62c-.42.2-.77.5-1.06.89l-.67.93.91.99.39-.6Z"/>
                <path class="cls-42" d="M39.12,92.29c-.78,1.07-4.97,3.5-6.48,3.48-1.88-1.44-2.3-1.62-4.3-3.85-2.05-3.05-.12-6.04,2.21-3.33,1.3,1.46,2.17,2.63,2.9,3.85,2.08-.8,4.66-1.64,4.68-1.64-.17.39.58,1.45.99,1.5Z"/>
              </g>
            </g>
          </g>
          <g>
            <g>
              <polygon class="cls-38" points="59.9 92.41 61.24 92.28 61.05 91.9 60.2 91.26 59.9 92.41"/>
              <polygon class="cls-28" points="62.13 94.61 59.28 89.93 56.29 91.38 59.14 96.06 62.13 94.61"/>
              <polygon class="cls-42" points="58.99 95.5 61.7 94.19 59.22 90.13 56.51 91.45 58.99 95.5"/>
              <path class="cls-38" d="M59.18,91.14l.54-.1c.19.41.51.61.86.69l.28.1c.11-.27.2-.39.24-.45-.05-.37-.26-.71-.48-.77l-.83-.15-1.01.36c-.03.22.06.32.39.33Z"/>
              <g>
                <path class="cls-28" d="M58.87,95.34s.04,0,.06,0c.09-.02.15-.11.13-.2l-.88-4.12c-.02-.09-.11-.15-.2-.13s-.15.11-.13.2l.88,4.12c.02.07.07.12.14.13Z"/>
                <path class="cls-38" d="M57.01,93.33c-.02.16.08.27.08.39,0,.04-.01.13-.02.2,0,.05,0,.1,0,.13,0,.27.61.66.81.78l.78.37.93.83.19-.32.45-.69-.69-.84c.05-.46.06-.83-.06-1.18l-.36-.44-.67-.32.07.29s-.28-.19-.54-.32c-.13-.07-.35-.1-.45,0-.05.06-.03.18-.06.24-.04.07-.21.14-.24.22-.03.07.02.26,0,.33-.04.09-.16.16-.18.33Z"/>
                <polygon class="cls-38" points="58.46 92.33 59.13 92.9 58.5 92.53 58.46 92.33"/>
                <path class="cls-38" d="M57.07,93.92c0,.05,0,.1,0,.13,0,.27.61.66.81.78l.78.37.93.83.19-.32c-.4-.25-.76-.67-.97-.98-.68,0-1.48-.28-1.73-.82Z"/>
              </g>
            </g>
            <path class="cls-25" d="M62.32,95.94c1.64.89,7.55,1.48,8.04-.31,1.5-4.92.11-7.7-1.05-8.23,0,0-7.54,8.71-7,8.55Z"/>
            <path class="cls-28" d="M60.18,120.61c0-.66.51-.92,1.27-1,.66,0,1.55.3,2.73.57l1.34.73c.25.68.25,1.3.1,1.86-.38.32-.85.52-1.29.41l-1.5-.64-.11-.22c-1.2-.13-2.53-.67-2.53-1.71Z"/>
            <path class="cls-28" d="M65.05,117.95c0-.54.49-.64,1.21-.69,1.31,0,1.36.65,2.57.63l1.18.72c.24.69.19,1.43.05,1.99-.36.31-.9.38-1.32.32l-1.22-.71-.1-.22c-1.14-.17-2.38-1.02-2.38-2.03Z"/>
            <path class="cls-60" d="M69.33,99.47l-4.36,1.82c0,.77.01,1.5.09,2.04.27,2.01,1.08,5.04,1.08,5.04.58,2.58.82,5.78.95,9.16.02,1.21,1.83,2.28,2.99,1.13.33-4.12.33-8.12-.64-10.77.46-2.09.03-4.46-.1-6.87.03-.31-.15-1.49-.02-1.54Z"/>
            <path class="cls-45" d="M61.38,105.68c.16,2,.8,5.03.8,5.03l.44,9.14c-.09.61.16,1.1.57,1.4.63.46,1.65.45,2.35-.32.56-4.11.79-8.05-.04-10.7.58-2.09.55-4.03.56-6.44,1.34-.55,3.42-1.33,3.33-3.44-.03-.81-.15-1.59-.36-2.35-.04-.15-.08-.29-.13-.43-.04-.11-.07-.22-.11-.33-.74,1.48-3.12,2.41-5.71,2.08-.11-.01-.22-.03-.34-.05-.28-.05-.55-.11-.83-.18,0,0-.02.15-.06.4-.03.21-.07.48-.11.81-.2,1.5-.48,4.03-.37,5.38Z"/>
            <path class="cls-1" d="M61.38,105.68c.16,2.01.8,5.03.8,5.03l.44,9.14c-.09.6.17,1.1.57,1.4-.4-3.85-.57-7.45,0-10.25-.86-3.17-.91-6.8.07-9.25-.01-.98-.45-1.54-.25-2.25-.36-.11-.73-.25-1.1-.42,0,0-.71,4.58-.54,6.59Z"/>
            <path class="cls-13" d="M69.24,97.36c-.11.46-.11.95,0,1.41.11.43.18.84.15,1.29-.86,1.22-3.06,2.3-5.33,1.93-.12-.04-.43-.13-.78-.22-.02,0-.04,0-.06-.02-.26-.07-.53-.15-.79-.22-.04,0-.07-.02-.1-.03-.09-.03-.18-.05-.26-.08-.11-.03-.21-.07-.3-.09-.04-.02-.08-.03-.11-.04-.03-.01-.06-.02-.09-.03-.02,0,.12-1.89.1-1.9-.15-1.64-.14-2.33-.24-4.38,0-.07,0-.15,0-.22-.01-.21.02-.44-.04-.67-.7-2.81-.23-3.1.52-3.57,2.41-1.53,4.29-3.48,7.41-3.12,2.37,2.27-.03,9.75-.08,9.96Z"/>
            <path class="cls-38" d="M63.19,86.44c-.15-.17.08-.57.25-.62.24-.08.37.27.39.46.03.25,0,.45-.14.66-.16.24-.42,0-.5-.19-.06-.14.09-.2,0-.3Z"/>
            <path class="cls-38" d="M66.77,87.6l-1.07-1.84-2.9,1.42,1.12,2.08c1.05,0,3.2-.97,2.84-1.66Z"/>
            <path class="cls-38" d="M63.76,88.07s-.36.69-.96.15c-.6-.55-1.58-2.35-1.26-3.8s2.76.52,2.76.52l-.55,3.13Z"/>
            <path class="cls-16" d="M66.31,86.88s-1.2.39-2.06.94c-.22.14-.51.13-.71-.03l-.38-.28-.26-.8-.58-.23.04-.6c-.32-.09-.6-.33-.87-.63-.78-1.35.86-2.84,2.63-2.72,2.27.12,2.83,2.55,2.2,4.36Z"/>
            <path class="cls-38" d="M62.52,86.67c-.02-.09-.03-.17-.02-.26.01-.09.05-.17.12-.22.13-.09.33-.01.42.12s.1.3.12.47c0,.12.02.23.02.35,0,.1.01.2-.02.29-.03.09-.12.17-.21.17-.07,0-.14-.05-.18-.1-.04-.06-.07-.13-.09-.19-.07-.21-.12-.42-.16-.63Z"/>
            <path class="cls-7" d="M63.28,101.77s-.04,0-.06-.02c-.27-.07-.54-.14-.79-.22-.04,0-.07-.02-.1-.03-.09-.03-.18-.05-.26-.08-.11-.03-.21-.07-.3-.09-.04-.02-.08-.03-.11-.04-.03-.01-.06-.02-.09-.03-.02,0,.12-1.89.1-1.9-.15-1.64-.14-2.33-.24-4.38l2.06-1.75c.64,2.94.67,5.16-.22,8.53Z"/>
            <path class="cls-25" d="M61.31,91c-1.02.63-1.1,1.35-1.1,2.95l.07.94-.75-.7c-.76-.05-1.1.34-1.03,1.28.27,1.58,1.05,3.31,2.32,3.76.7.25,1.44-.07,1.8-1.45l.86-3.54c.13-2.36-.35-3.63-2.17-3.24Z"/>
            <path class="cls-25" d="M66.84,87.65l-.29-.41c-.19.46-1.16,1.06-2.9,1.52l.03.55c1.58.28,3.52-.97,3.16-1.66Z"/>
          </g>
          <g>
            <path class="cls-38" d="M77.6,81.78l.07.89.17.52.38.7c.12.19.31.16.31-.02l.19.33c.17.26.41.04.28-.23l-.28-.69.47.86c.19.25.43.09.32-.25l-.38-.96.42.75c.13.17.41.06.33-.25l-.42-1.25s-.06-.26.04-.47c.08-.17.72.18.72.18.22.13.43.24.58.34.21.03.31-.02.28-.16l-.44-.46-.5-.43-.22-.19c-.36-.23-.7-.41-.96-.45l-.03-.09-.05-.18-.48.07-.72.11.03.55-.04.26-.09.55Z"/>
            <path class="cls-38" d="M79.57,81.62l-.97-.22-.52.88.45,1.58c-.02-.42-.03-.93.24-1.03l.48-.07-.4-.27.06-.39.84-.13-.19-.35Z"/>
            <path class="cls-49" d="M79.76,69.94l-.29,3.46-.24,2.88c-.21,1.67-.45,3.01-.3,3.88.01.09,0,.17-.02.24-.06.22-.26.39-.52.53-.21.12-.46.21-.73.27-.42-1.71-.74-3.37-.6-4.7l.28-3.4c.08-1.94.54-3.41,2.42-3.17Z"/>
            <path class="cls-38" d="M80.15,81.16l-1.73-.2c.26-.14.46-.31.52-.53l.03.09c.26.04.6.22.96.45l.21.19Z"/>
            <path class="cls-8" d="M79.23,76.28c-.21,1.67-.45,3.01-.3,3.88.01.09,0,.17-.02.24-.06.22-.26.39-.52.53,0-.21,0-.43-.01-.64-.11-3.22-1.08-5.92.02-7.41l1.06.51-.24,2.88Z"/>
            <g>
              <path class="cls-22" d="M88.08,102.11c0-.64-.49-.88-1.22-.96-.64,0-1.49.28-2.61.54l-1.28.7c-.24.66-.23,1.24-.09,1.78.36.31.82.5,1.24.39l1.44-.61.1-.21c1.15-.12,2.42-.64,2.42-1.64Z"/>
              <path class="cls-22" d="M83.41,99.57c0-.52-.46-.61-1.16-.66-1.25,0-1.31.63-2.46.6l-1.13.69c-.23.66-.18,1.37-.05,1.91.34.3.87.37,1.26.31l1.16-.68.1-.21c1.09-.16,2.28-.97,2.28-1.94Z"/>
              <path class="cls-22" d="M79.3,81.86l4.17,1.75c0,.74-.01,1.44-.08,1.95-.26,1.92-1.04,4.83-1.04,4.83-.56,2.47-.78,5.54-.91,8.77-.02,1.16-1.75,2.18-2.86,1.08-.32-3.95-.32-7.78.61-10.32-.44-2-.02-4.24.1-6.55-.11-.05.13-1.47.01-1.52Z"/>
              <path class="cls-15" d="M82.43,86.01c0,2.31-.02,4.17.53,6.17-.79,2.54-.57,6.31-.04,10.25.68.74,1.65.75,2.26.31.39-.29.63-.76.54-1.34l.43-8.76s.61-2.9.77-4.82-.52-6.31-.52-6.31c-.37.1-.75.17-1.12.22-2.48.31-4.77-.57-5.48-1.99-.04.1-.07.21-.1.31-.27.86-.43,1.75-.46,2.67-.08,2.03,1.91,2.77,3.19,3.3Z"/>
              <path class="cls-49" d="M86.94,74.16c-.2,1.29-.21,2.52-.22,3.7,0,.45-.01.88-.03,1.31-.04.82-.11,1.6-.3,2.34-.36.16-.71.29-1.06.4-2.15.68-4.1.35-5.64-1.86-.36-.91-1.4-4.01-1.67-7.23,0-1.47.49-2.52,1.74-2.87,2.23.54,4.51,1.92,6.81,3.91.12.1.24.21.36.31Z"/>
              <path class="cls-38" d="M84.55,70.1l-.21,2.01c-1.3,0-3.34-.91-3.08-1.6l.68-1.31,2.61.9Z"/>
              <path class="cls-38" d="M85.18,70.35c-.52.59-1.29.51-2.09.3-1.16-.54-1.99-1.33-1.88-2.84-.09-1.09.4-2.24,2.27-2.18,1.19.04,2.2.47,2.27,1.74,0,0,.06,2.4-.57,2.98Z"/>
              <path class="cls-48" d="M84.42,71.42l.47,1.07c-2.22-.25-4.22-1.08-3.72-2.11l.41-.47c-.31.74,1.88,1.62,2.84,1.51Z"/>
              <path class="cls-24" d="M85.74,67.06c-.09.44-.37.77-.76,1.06,0,0,.09.98.04,1-.05.02-.57.46-.57.46l-.27.74c-.89.64-2.21.15-2.61-.43-.24-.3-.49-1.51-.43-2.66.14-.97.84-1.91,2.32-1.97,1.47-.06,2.39.79,2.26,1.79Z"/>
              <path class="cls-38" d="M84.86,69.27c.14-.16-.08-.53-.24-.58-.22-.07-.34.25-.37.43-.03.24,0,.42.13.61.15.22.39,0,.46-.18.05-.13-.08-.18,0-.28Z"/>
              <path class="cls-2" d="M86.92,87.81c-.15,1.92-.77,4.82-.77,4.82l-.42,8.76c.08.58-.16,1.05-.55,1.34.38-3.69.55-7.14,0-9.82.82-3.03,1.2-6.21.25-8.56.01-.94.11-1.78-.09-2.46.35-.11.7-.24,1.06-.4,0,0,.68,4.39.52,6.31Z"/>
              <g>
                <g>
                  <path class="cls-63" d="M83.33,91.59c-.02-.3.18-.69.43-.85l7.03-4.56c.26-.17.48-.05.49.25l.1,1.86.19,3.68c.02.3-.18.69-.43.85l-7.03,4.56c-.26.17-.48.05-.49-.25l-.19-3.68-.1-1.86Z"/>
                  <polygon class="cls-63" points="91.16 86.13 91.68 86.55 84.29 97.82 83.75 97.41 91.16 86.13"/>
                  <path class="cls-22" d="M83.91,92.03l.29,5.54c.02.3.24.42.49.25l7.03-4.56c.26-.17.45-.55.43-.85l-.29-5.54c-.02-.3-.24-.42-.49-.25l-7.03,4.56c-.26.17-.45.55-.43.85Z"/>
                  <path class="cls-26" d="M83.91,92.03l.1,1.86c.03.6.46.82.96.49l6.14-3.99c.5-.33.88-1.07.85-1.67l-.1-1.86c-.02-.3-.24-.42-.49-.25l-7.03,4.56c-.26.17-.45.55-.43.85Z"/>
                  <g>
                    <path class="cls-42" d="M87.93,93.45l.33-.22c.12-.08.21-.25.2-.39l-.08-1.53-.76.49.08,1.53c0,.14.11.19.22.11Z"/>
                    <path class="cls-42" d="M87.49,92.57l1.09-.71c.08-.05.14-.17.14-.27l-.02-.31c0-.1-.07-.13-.16-.08l-1.09.71c-.08.05-.14.17-.14.27l.02.31c0,.1.07.13.16.08Z"/>
                  </g>
                </g>
                <g>
                  <path class="cls-22" d="M88.52,86.95l.05.9.46-.02-.03-.6c0-.1-.06-.21-.13-.3l-.35.02Z"/>
                  <path class="cls-32" d="M88.62,87.74c-.09.06-.08.14,0,.19.09.05.24.04.33-.02.09-.06.08-.14,0-.19-.09-.05-.24-.04-.33.02Z"/>
                </g>
                <g>
                  <polygon class="cls-32" points="88.19 87.89 88.92 87.39 88.56 86.8 87.82 87.3 88.19 87.89"/>
                  <path class="cls-61" d="M87.75,87.47c0,.16.13.34.27.41.14.07.24,0,.24-.15,0-.16-.13-.34-.27-.41-.14-.07-.24,0-.24.15Z"/>
                  <path class="cls-22" d="M88.49,86.97s.02.1.04.15c.05.11.13.21.23.26.06.03.12.04.16.02.05-.03.08-.09.08-.17,0-.1-.06-.21-.13-.3-.04-.05-.09-.09-.14-.11-.06-.03-.12-.04-.16-.01,0,0-.02.02-.02.02-.03.03-.05.08-.05.15Z"/>
                </g>
                <g>
                  <path class="cls-38" d="M88.43,86.29l.61,1.26c.13.39.07.72-.18.97-.26.3-.73.53-1.24.75l-.77-.5.08-.73c-.36-.24-.35-.76-.15-1.45.54-.4,1.09-.54,1.65-.29Z"/>
                  <path class="cls-20" d="M86.83,87.65l.63.53-.18.5-.24-.17c-.12.18-.22.24-.35.17l-.02-.2.17-.83Z"/>
                </g>
                <g>
                  <g>
                    <polygon class="cls-51" points="86.49 89 87.22 88.5 86.87 87.91 86.12 88.42 86.49 89"/>
                    <path class="cls-51" d="M86.05,88.58c0,.16.13.34.27.41.14.07.24,0,.24-.15,0-.16-.13-.34-.27-.41-.14-.07-.24,0-.24.15Z"/>
                    <path class="cls-22" d="M86.79,88.08c0,.16.13.34.27.41.14.07.24,0,.24-.15,0-.16-.13-.34-.27-.41-.14-.07-.24,0-.24.15Z"/>
                  </g>
                  <g>
                    <polygon class="cls-22" points="86.49 89 87.22 88.5 86.87 87.91 86.12 88.42 86.49 89"/>
                    <path class="cls-22" d="M86.05,88.58c0,.16.13.34.27.41.14.07.24,0,.24-.15,0-.16-.13-.34-.27-.41-.14-.07-.24,0-.24.15Z"/>
                  </g>
                </g>
                <g>
                  <rect class="cls-22" x="86.07" y="88.57" width=".46" height=".9" transform="translate(-4.55 4.65) rotate(-3.01)"/>
                  <path class="cls-22" d="M86.16,89.38c-.09.06-.08.14,0,.19.09.05.24.04.33-.02.09-.06.08-.14,0-.19-.09-.05-.24-.04-.33.02Z"/>
                </g>
              </g>
              <polygon class="cls-8" points="84.25 76 83.75 82.21 85.98 85.41 86.3 80.12 84.25 76"/>
              <path class="cls-49" d="M86.05,73.4c.98.61,1.42.95,1.46,2.86l-.24,5.16,1.16,4.87c-.09.53-1.27.83-1.71.5-.79-1.29-1.18-2.39-2.03-4.54l-.47-5.65c-.12-2.08-.15-3.46,1.83-3.19Z"/>
            </g>
          </g>
          <g>
            <g>
              <g>
                <path class="cls-30" d="M9.74,63.52l-.24.14,3.17,11.09,8.3,5.07.24-.14-2.93-11.22-8.54-4.93ZM20.5,78.44l-7.11-4.11-2.93-9.57,7.11,4.11,2.93,9.57Z"/>
                <path class="cls-58" d="M9.5,63.66l2.93,11.22,8.54,4.93-2.93-11.22-8.54-4.93Z"/>
              </g>
              <g>
                <g>
                  <path class="cls-17" d="M10.46,67.06c-.04.08-.1.14-.17.18l5.69,3.29,2.99,11.18s.2.09.27.04c.05-.04.09-.24.09-.24l-3.11-11.12-5.76-3.33Z"/>
                  <path class="cls-40" d="M10.46,67.06c-.04.08-.09.14-.16.18l.19.11,2.99,11.18s.09.14.23.06c.12-.07.13-.26.13-.26l-3.11-11.12-.27-.15Z"/>
                </g>
                <path class="cls-17" d="M10.46,67.06c-.04.08-.1.14-.17.18l5.69,3.29-2.93,14.6s.26.05.33,0c.05-.04.09-.24.09-.24l2.75-14.5-5.76-3.33Z"/>
                <path class="cls-17" d="M10.46,67.06c-.04.08-.09.14-.16.18l.19.11-2.93,14.6s.15.1.28.02c.12-.07.13-.26.13-.26l2.75-14.5-.27-.15Z"/>
                <polygon class="cls-55" points="7.29 77.85 14.4 81.96 17.33 69 10.22 64.9 7.29 77.85"/>
                <polygon class="cls-46" points="16.15 70.75 16.1 70.99 10.45 67.73 10.5 67.49 16.15 70.75"/>
                <polygon class="cls-46" points="16.04 71.2 15.99 71.44 10.34 68.18 10.39 67.94 16.04 71.2"/>
                <polygon class="cls-46" points="15.93 71.65 15.88 71.9 10.24 68.63 10.29 68.39 15.93 71.65"/>
                <polygon class="cls-46" points="16.41 69.41 16.22 70.32 10.57 67.06 10.76 66.14 16.41 69.41"/>
                <g>
                  <polygon class="cls-17" points="14.4 81.96 14.46 81.71 7.53 77.71 10.27 64.87 10.09 64.77 7.29 77.85 14.4 81.96"/>
                  <path class="cls-53" d="M9.5,63.66l-2.93,14.61,8.54,4.93,2.93-14.6-8.54-4.93ZM10.09,64.77l.19.11,6.93,4-2.74,12.84-.05.25-7.11-4.11,2.8-13.08Z"/>
                </g>
              </g>
            </g>
            <path class="cls-57" d="M10.65,78.62c-.06-.06-.13-.12-.23-.22.02-.17.06-.4.07-.62,0-.38-.14-.71-.35-1.02-.14-.22-.24-.44-.16-.71.03-.1-.02-.22-.03-.34-.02-.27.03-.54-.14-.79-.04-.06.08-.25.15-.37.1-.2.21-.36.22-.62.01-.26.15-.53.39-.72.17-.12.32-.27.47-.42.1-.11.17-.25.27-.36.06-.07.15-.11.22-.17.14-.12.26-.31.42-.35.25-.07.34-.25.47-.42.23-.31.36-.32.75-.17.11.04.2.04.29-.05.16-.16.34-.11.39.11.06.28.21.48.42.62.02.14.05.26.07.39-.05.02-.19.04-.24.11-.09.12-.14.27-.17.41-.04.18.07.39-.09.56-.09.1-.14.24-.22.35-.03.04-.06.08-.11.11-.2.1-.28.25-.31.48-.02.17-.15.33-.23.5-.13.29-.24.59-.39.86-.18.32-.35.66-.63.89-.15.12-.26.34-.51.34-.05,0-.11.11-.16.17-.27.31-.41.67-.46,1.08,0,.07-.07.13-.1.2-.03.06-.05.12-.07.16Z"/>
          </g>
          <g>
            <g>
              <g>
                <path class="cls-30" d="M93.19,97.31l-.24.14,3.17,11.09,8.3,5.07.24-.14-2.93-11.22-8.54-4.93ZM103.95,112.23l-7.11-4.11-2.93-9.57,7.11,4.11,2.93,9.57Z"/>
                <path class="cls-58" d="M92.96,97.45l2.93,11.22,8.54,4.93-2.93-11.22-8.54-4.93Z"/>
              </g>
              <g>
                <g>
                  <path class="cls-17" d="M93.91,100.85c-.04.08-.1.14-.17.18l5.69,3.29,2.99,11.18s.2.09.27.04c.05-.04.09-.24.09-.24l-3.11-11.12-5.76-3.33Z"/>
                  <path class="cls-40" d="M93.91,100.85c-.04.08-.09.14-.16.18l.19.11,2.99,11.18s.09.14.23.06c.12-.07.13-.26.13-.26l-3.11-11.12-.27-.15Z"/>
                </g>
                <path class="cls-17" d="M93.91,100.85c-.04.08-.1.14-.17.18l5.69,3.29-2.93,14.6s.26.05.33,0c.05-.04.09-.24.09-.24l2.75-14.5-5.76-3.33Z"/>
                <path class="cls-17" d="M93.91,100.85c-.04.08-.09.14-.16.18l.19.11-2.93,14.6s.15.1.28.02c.12-.07.13-.26.13-.26l2.75-14.5-.27-.15Z"/>
                <polygon class="cls-55" points="90.74 111.64 97.86 115.75 100.78 102.79 93.67 98.69 90.74 111.64"/>
                <polygon class="cls-46" points="99.6 104.54 99.55 104.78 93.9 101.52 93.95 101.28 99.6 104.54"/>
                <polygon class="cls-46" points="99.49 104.99 99.44 105.23 93.8 101.97 93.85 101.73 99.49 104.99"/>
                <polygon class="cls-46" points="99.39 105.44 99.34 105.68 93.69 102.42 93.74 102.18 99.39 105.44"/>
                <polygon class="cls-46" points="99.86 103.19 99.67 104.11 94.02 100.85 94.22 99.93 99.86 103.19"/>
                <g>
                  <polygon class="cls-17" points="97.86 115.75 97.91 115.5 90.98 111.5 93.73 98.66 93.54 98.56 90.74 111.64 97.86 115.75"/>
                  <path class="cls-53" d="M92.96,97.45l-2.93,14.6,8.54,4.93,2.93-14.6-8.54-4.93ZM93.54,98.56l.19.11,6.93,4-2.74,12.84-.05.24-7.11-4.11,2.8-13.08Z"/>
                </g>
              </g>
            </g>
            <path class="cls-57" d="M94.1,112.41c-.06-.06-.13-.12-.23-.22.02-.17.06-.4.07-.62,0-.38-.14-.71-.35-1.02-.14-.22-.24-.44-.16-.71.03-.1-.02-.22-.03-.34-.02-.27.03-.54-.14-.79-.04-.06.08-.25.15-.37.1-.2.21-.36.22-.62.01-.26.15-.53.39-.72.17-.12.32-.27.47-.42.1-.11.17-.25.27-.36.06-.07.15-.11.22-.17.14-.12.26-.31.42-.35.25-.07.34-.25.47-.42.23-.31.36-.32.75-.17.11.04.2.04.29-.05.16-.16.34-.11.39.11.06.28.21.48.42.62.02.14.05.26.07.39-.05.02-.19.04-.24.11-.09.12-.14.27-.17.41-.04.18.07.39-.09.56-.09.1-.14.24-.22.35-.03.04-.06.08-.11.11-.2.1-.28.25-.31.48-.02.17-.15.33-.23.5-.13.29-.24.59-.39.86-.18.32-.35.66-.63.89-.15.12-.26.34-.51.34-.05,0-.11.11-.16.17-.27.31-.41.67-.46,1.08,0,.07-.07.13-.1.2-.03.06-.05.12-.07.16Z"/>
          </g>
          <g>
            <g>
              <g>
                <polygon class="cls-14" points="119.44 107.53 119.44 108.51 118.09 107.73 118.09 106.76 119.44 107.53"/>
                <polygon class="cls-59" points="126.96 103.19 119.44 107.53 118.09 106.76 125.61 102.41 126.96 103.19"/>
                <polygon class="cls-14" points="119.44 107.53 119.44 108.51 126.96 104.17 126.96 103.19 119.44 107.53"/>
              </g>
              <g>
                <polygon class="cls-14" points="127.03 73.02 127.88 72.53 126.53 71.75 125.68 72.24 127.03 73.02"/>
                <polygon class="cls-59" points="127.03 81.7 127.03 73.02 125.68 72.24 125.68 80.92 127.03 81.7"/>
                <polygon class="cls-14" points="127.03 73.02 127.88 72.53 127.88 81.21 127.03 81.7 127.03 73.02"/>
              </g>
              <g>
                <polygon class="cls-14" points="127.95 112.47 127.95 113.45 126.61 112.67 126.61 111.69 127.95 112.47"/>
                <polygon class="cls-59" points="135.48 108.13 127.95 112.47 126.61 111.69 134.13 107.35 135.48 108.13"/>
                <polygon class="cls-14" points="127.95 112.47 127.95 113.45 135.48 109.1 135.48 108.13 127.95 112.47"/>
              </g>
              <polygon class="cls-42" points="134.1 79.01 134.1 110.73 120.11 102.65 120.11 70.93 134.1 79.01"/>
              <polygon class="cls-49" points="127.32 77.85 121.49 74.48 121.49 82.12 127.32 85.49 127.32 77.85"/>
              <polygon class="cls-33" points="127.32 96.3 121.49 92.94 121.49 100.57 127.32 103.94 127.32 96.3"/>
              <polygon class="cls-49" points="132.72 99.54 128.16 96.91 128.16 104.55 132.72 107.18 132.72 99.54"/>
              <polygon class="cls-25" points="132.72 90.66 132.72 89.82 121.49 83.34 121.49 84.18 132.72 90.66"/>
              <polygon class="cls-16" points="131.06 90.69 121.49 85.16 121.49 86.01 131.06 91.53 131.06 90.69"/>
              <polygon class="cls-25" points="132.72 94.32 132.72 93.48 121.49 86.99 121.49 87.83 132.72 94.32"/>
              <polygon class="cls-16" points="132.72 96.15 132.72 95.3 121.49 88.82 121.49 89.66 132.72 96.15"/>
              <polygon class="cls-25" points="128.99 94.98 121.49 90.64 121.49 91.49 128.99 95.82 128.99 94.98"/>
              <g>
                <polygon class="cls-59" points="133.5 110.41 133.5 112.35 119.51 104.27 119.51 102.33 133.5 110.41"/>
                <polygon class="cls-14" points="134.06 110.09 133.5 110.41 119.51 102.33 120.07 102.01 134.06 110.09"/>
                <polygon class="cls-14" points="133.5 110.41 133.5 112.35 134.06 112.02 134.06 110.09 133.5 110.41"/>
              </g>
              <g>
                <polygon class="cls-59" points="133.5 78.26 133.5 79.38 119.51 71.31 119.51 70.18 133.5 78.26"/>
                <polygon class="cls-14" points="134.06 77.93 133.5 78.26 119.51 70.18 120.07 69.85 134.06 77.93"/>
                <polygon class="cls-14" points="133.5 78.26 133.5 79.38 134.06 79.06 134.06 77.93 133.5 78.26"/>
              </g>
            </g>
            <g>
              <path class="cls-38" d="M103.46,76.77v.71l.07.19.39,1.12.39.53.03.23.04.34,1.23-.11-.05-.86c.24-.18.42-.39.54-.62.22-.34.37-.74.48-1.17l-.22-.57c-.03-.08-.06-.12-.1-.15,0-.05,0-.11-.05-.17l-.36-.39c-.24-.03-.47-.04-.69,0-.2.14-.36.34-.5.57l-.1-1.52c-.02-.47-.38-.42-.39,0v.29c0-.29-.34-.19-.33.29l-.06,1.21c.02-.41-.29-.46-.33.08ZM105.22,76.6l.15-.3.32-.05.24.23s.08.05.12.05v.05c-.01.05-.01.11,0,.17l.05.39-.21.22c-.27-.18-.49-.46-.68-.76Z"/>
              <path class="cls-25" d="M103.9,81.18c0,.2.03.38.09.54.15.42.48.66,1.03.68,1.39-.38,2.64-.89,3.64-1.66.09-.07.18-.14.27-.21.02-.02.04-.04.07-.06l1.07-3.13-.41-1.08c-1.1.12-1.87.83-2.49,1.82l-1.56,1.25-.02-.36c-.31.34-.73.46-1.25.41-.11.89-.49,1.17-.42,1.8Z"/>
              <path class="cls-4" d="M103.99,81.72c.15.42.48.66,1.03.68,1.39-.38,2.64-.9,3.64-1.66v-.44c-1.91,1.21-3.49,1.74-4.67,1.42Z"/>
              <path class="cls-4" d="M106.58,78.54c-.44.6-.57.92-.77,1.78l-.22-.99.99-.79Z"/>
              <path class="cls-12" d="M105.02,78.49c.21-.62.41-1,.88-1.13-.27-.18-.49-.46-.68-.76l.15-.3.32-.05.24.23s.08.05.12.05l-.35-.4-.48.13-.21.36c-.33.58-.17,1.21,0,1.86Z"/>
              <path class="cls-12" d="M103.46,77.04s.03.27.06.63l.39,1.12.39.53.03.23c.16.02.29.04.29.04l.13-.16-.03-.31c-.22-.1-.54-.28-.59-.5-.16-.18-.28-.46-.41-.79-.02-.04.83-.97.81-1.01-.02-.04-.89.82-.91.78-.02-.05-.04-.1-.06-.14l-.11-.42Z"/>
              <path class="cls-16" d="M111.71,105.83s.18.99.09,1.41c-.09.42-1.21.7-1.21.7,0,0-1.58,1.48-2.91,1.38-.79-.06-1.06-.27-1.18-.5-.12-.23,0-.53.15-.74.16-.22,1.79-.91,2.2-1.56.2-.32.53-.99.53-.99l.14-1.24,2.17-.09-.11,1.47.14.17Z"/>
              <path class="cls-27" d="M113.62,90.24l-1.38,6.94c.51,2.77.39,5.66-.3,8.66-.42,1.14-1.94.82-2.88,0,.28-2.25.33-4.86.27-7.63l-.27-1.82s-.23-.93-.21-4.44c0-1.8,1.03-5.73,1.03-5.73l3.75,4.01Z"/>
              <path class="cls-16" d="M116.49,108.26c.16.31.16.84.18,1.61-.21.42-.52.77-.91.9,0,0-.65,1.61-2.49,1.65-1.72.04-1.71-.66-1.7-.65,0,0,0-.39.39-.73.25-.21,1.52-1.22,1.75-1.52.23-.29.41-.76.41-.76l.08-1.24h2.32l-.03.74Z"/>
              <path class="cls-33" d="M112.47,91.73c0,3.51-.13,5.59.8,7.37,0,0,.19,1.46.46,2.37.27.94.23,5.02.11,7.44.48.79,1.62.92,2.36.41.28-.19.51-.48.62-.86.61-3.8,1.03-6.81-.48-9.6.48-2.45.42-4.87.27-7.54.19-1.6-.03-2.9-.5-4-.12-.28-.25-.54-.41-.8l-6.25,1.48c.65,2.24,1.78,3.46,3.02,3.73Z"/>
              <path class="cls-10" d="M115.32,99.09c1.92,1.97,1.36,5.79.88,10.23.28-.19.51-.48.62-.86.61-3.8,1.03-6.81-.48-9.6.48-2.45.42-4.87.27-7.54.19-1.6-.03-2.9-.5-4l-2.17,2.44c2.15,1.35,2.56,6.06,1.37,9.33Z"/>
              <path class="cls-59" d="M109.31,87.16c.02,1.39-.07,1.73-.22,2.65,1.19,1.2,5.55,2.94,7.59.4-.02-1.16-.06-1.9-.06-1.9l.13-5.65.51-3.46c-.68-.82-1.74-1.63-2.42-1.99-1.64-1.09-3.19-1.5-5.18-.94,0,0-.54,1.52-.81,3.01-.03.17-.05.41-.05.71,0,.13,0,.27,0,.41.04,2.53.51,6.08.52,6.76Z"/>
              <path class="cls-63" d="M111.14,77.89c-.03.14,0,.26.08.28.08.02.17-.08.21-.21.03-.14,0-.26-.08-.28-.08-.02-.17.08-.21.21Z"/>
              <path class="cls-4" d="M115.1,81.67l1.65.98-.13,5.65s.04.74.06,1.9c-2.04,2.55-6.4.8-7.59-.4,1.76-.36,3.94-2.66,5.25-4.51l.76-3.63Z"/>
              <path class="cls-38" d="M114.46,77.18l-.93-1.93-2.59,1.29.55,1.45c.47,1.75,3.26.67,2.97-.81Z"/>
              <path class="cls-43" d="M114.08,76.38c.03,1.06-.74,2.14-1.99,2.02-.55-.36-.6-1.04-.6-1.73l-.38,1,.04,1.15.69-.02.68.84,1.32-1.12c.45-.37.84-1.03.71-1.56-.2-.25-.31-.4-.48-.59Z"/>
              <path class="cls-12" d="M110.95,76.89c0,1.05,0,2.45,1.19,2.5.79,0,1.72-2.31,1.41-3.05l.02-.86-2.62,1.41Z"/>
              <path class="cls-38" d="M112.31,71.8c1.26.01,1.98.63,2.03,1.98-.04,1.43-.51,2.59-1.63,3.37-.54.46-1.13.63-1.77.54-.77.03-.9-1.88-1.01-3.25.08-1.45.96-2.26,2.38-2.64Z"/>
              <path class="cls-16" d="M109.93,73.88c.28.69,1.53,1.19,2.78.87l.14,1.13.55-.28.5.56.19-.27c.94-1.92.66-3.33-.78-4.09-1.88-.74-3.77,1.06-3.38,2.09Z"/>
              <path class="cls-38" d="M113.58,76.09c.12-.1.24-.22.31-.37.07-.15.08-.32,0-.47-.08-.14-.26-.23-.41-.18-.1.04-.18.14-.22.24-.04.1-.05.22-.05.33,0,.1-.01.2-.02.3,0,.07,0,.15.04.2.04.05.12.06.18.04.06-.02.11-.06.16-.1Z"/>
              <g>
                <path class="cls-38" d="M109.32,90.45c-.06.1-.04.26.06.33l.12.05c-.08.11.02.29.11.32,0,.04,0,.08.01.12.02.06.07.11.12.16.13.15.31.29.53.29.61-.25,1.08-.67,1.62-1.09l.17-.12.47-.33-.1-.28-.28-.84-.62.18c-.11-.24-.4-.5-.72-.78-.2-.3-.18-.63-.32-.72-.31-.02-.36.3-.29.71.08.19.25.34.24.49,0,.16-.05.33-.13.51-.03.07-.07.14-.1.2-.1-.02-.21-.03-.31-.03-.11,0-.21,0-.3.03-.21.14-.34.33-.43.55,0,.12.03.22.14.25Z"/>
                <path class="cls-25" d="M112.11,90.11c.01.21-.04.39-.2.48.05-.03.1-.05.15-.08,2.04-1.09,3.89-2.25,4.96-3.72.07-.1.14-.2.21-.3.43-1.86.66-3.68.72-5.9-.42-2.57-2.8-1.78-2.86,1.09-.06,1.57-.18,2.85-.02,3.98-1.41,1.47-2.67,3.18-3.54,3.58-.01,0-.02.01-.04.02.34.07.59.5.61.87Z"/>
                <path class="cls-12" d="M109.63,91.27c.02.06.07.11.12.16.13.15.31.29.53.29.61-.25,1.08-.67,1.62-1.09l.17-.12c2.04-1.09,3.89-2.25,4.96-3.72-1.77,1.32-3.53,2.64-4.59,3.1l-.33.22c-.62.4-1.22.71-1.73.78-.06.13-.19.2-.38.2l.35.16c-.02.15-.12.22-.26.23-.16,0-.32-.08-.46-.22Z"/>
                <path class="cls-12" d="M109.67,89.72l.1.26h.14c.24-.08.34-.28.4-.53-.03.07-.07.14-.1.2-.1-.02-.21-.03-.31-.03l-.24.1Z"/>
                <path class="cls-12" d="M110.06,90.7c-.2-.2-.45-.33-.78-.31.04.03.05.08,0,.15.19-.03.47.06.77.15Z"/>
              </g>
            </g>
          </g>
        </g>
      </g>
    </g>
  </g>
</svg>