<?xml version="1.0" encoding="UTF-8"?>
<svg id="_圖層_2" data-name="圖層_2" xmlns="http://www.w3.org/2000/svg" viewBox="0 0 363.73 76.46">
  <defs>
    <style>
      .cls-1 {
        fill: #69c0a2;
      }

      .cls-2 {
        fill: #414286;
      }

      .cls-3 {
        fill: #b0b0c2;
      }

      .cls-4 {
        fill: #a28daf;
      }

      .cls-5 {
        fill: #dfe0ec;
      }

      .cls-6 {
        fill: #ea728c;
      }

      .cls-7 {
        fill: #6265ac;
      }

      .cls-8 {
        fill: #383842;
      }

      .cls-9 {
        opacity: .5;
      }

      .cls-9, .cls-10 {
        fill: #c7c7d9;
      }

      .cls-11 {
        fill: #65bf9f;
      }

      .cls-12 {
        fill: #5053a2;
      }

      .cls-13 {
        fill: #f7c1b0;
      }

      .cls-14 {
        fill: #e2d4dc;
      }

      .cls-15 {
        fill: #25242d;
      }

      .cls-16 {
        fill: #2a946e;
      }

      .cls-17 {
        fill: #36a67f;
      }

      .cls-18 {
        fill: #7b7dbb;
      }

      .cls-19 {
        fill: #2b2b33;
      }

      .cls-20 {
        fill: #aeadc5;
      }

      .cls-21 {
        fill: #9f9fa0;
      }

      .cls-22 {
        fill: #ba3953;
      }

      .cls-23 {
        fill: #f29a89;
      }

      .cls-24 {
        fill: #7a4a85;
      }

      .cls-25 {
        fill: #fff;
      }

      .cls-26 {
        fill: #69c0a1;
      }

      .cls-27 {
        fill: #79a6c9;
      }

      .cls-28 {
        fill: #d14e62;
      }

      .cls-29 {
        fill: #43bcc9;
      }

      .cls-30 {
        fill: #49b893;
      }

      .cls-31 {
        fill: #f4a893;
      }

      .cls-32 {
        fill: #fef4f8;
      }

      .cls-33 {
        fill: #fdfefe;
      }

      .cls-34 {
        fill: #f3f3f3;
      }

      .cls-35 {
        fill: #2a906a;
      }

      .cls-36 {
        fill: #7dc273;
      }

      .cls-37 {
        fill: #dbc1d1;
      }

      .cls-38 {
        fill: #85a4d1;
      }

      .cls-39 {
        fill: #4f4f59;
      }

      .cls-40 {
        fill: #98bee1;
      }
    </style>
  </defs>
  <g id="_圖層_1-2" data-name="圖層_1">
    <g>
      <g>
        <g>
          <g>
            <path class="cls-14" d="M106.96,14.41l-.5.29,6.63,23.21,17.39,10.62.5-.29-6.13-23.5-17.88-10.33ZM129.48,45.64l-14.89-8.6-6.13-20.04,14.89,8.6,6.13,20.04Z"/>
            <path class="cls-37" d="M106.46,14.7l6.13,23.5,17.89,10.33-6.13-23.5-17.88-10.33Z"/>
          </g>
          <g>
            <g>
              <path class="cls-4" d="M108.46,21.83c-.08.16-.2.29-.35.38l11.91,6.88,6.25,23.41s.43.18.57.09c.11-.08.19-.51.19-.51l-6.51-23.27-12.07-6.97Z"/>
              <path class="cls-24" d="M108.46,21.82c-.08.16-.2.29-.34.38l.41.23,6.25,23.41s.19.29.48.13c.24-.14.28-.55.28-.55l-6.51-23.27-.56-.32Z"/>
            </g>
            <path class="cls-4" d="M108.46,21.83c-.08.16-.2.29-.35.38l11.91,6.88-6.13,30.58s.55.1.69,0c.11-.08.19-.51.19-.51l5.75-30.35-12.07-6.97Z"/>
            <path class="cls-4" d="M108.46,21.82c-.08.16-.2.29-.34.38l.41.23-6.13,30.58s.31.21.6.04c.24-.14.28-.55.28-.55l5.75-30.35-.56-.32Z"/>
            <polygon class="cls-33" points="101.83 44.41 116.72 53.01 122.85 25.89 107.96 17.29 101.83 44.41"/>
            <polygon class="cls-29" points="120.37 29.54 120.27 30.05 108.45 23.22 108.55 22.72 120.37 29.54"/>
            <polygon class="cls-29" points="120.15 30.49 120.05 31 108.22 24.17 108.33 23.66 120.15 30.49"/>
            <polygon class="cls-29" points="119.93 31.44 119.82 31.95 108 25.12 108.1 24.61 119.93 31.44"/>
            <polygon class="cls-29" points="120.93 26.73 120.52 28.66 108.69 21.83 109.1 19.91 120.93 26.73"/>
            <g>
              <polygon class="cls-4" points="116.72 53.01 116.83 52.5 102.33 44.12 108.08 17.25 107.69 17.02 101.83 44.41 116.72 53.01"/>
              <path class="cls-32" d="M106.46,14.7l-6.13,30.58,17.88,10.33,6.13-30.58-17.88-10.33ZM107.69,17.02l.39.22,14.5,8.37-5.75,26.88-.11.51-14.89-8.6,5.86-27.39Z"/>
            </g>
          </g>
        </g>
        <path class="cls-36" d="M108.85,46.02c-.12-.12-.27-.25-.48-.45.04-.36.13-.83.14-1.31.02-.8-.3-1.49-.73-2.15-.3-.45-.49-.92-.33-1.49.06-.21-.05-.47-.06-.71-.04-.56.05-1.13-.29-1.66-.09-.14.17-.52.3-.77.22-.41.44-.76.47-1.29.03-.54.3-1.12.82-1.5.35-.26.67-.56.97-.87.22-.23.36-.52.56-.76.12-.14.31-.23.46-.35.3-.25.55-.65.89-.74.52-.14.72-.52.99-.88.48-.64.75-.67,1.57-.36.24.09.41.09.61-.1.34-.34.71-.23.81.24.12.58.44,1,.87,1.29.05.29.09.55.14.83-.11.05-.39.08-.51.24-.18.24-.3.56-.37.87-.09.38.14.81-.18,1.18-.19.22-.3.49-.46.74-.06.09-.13.18-.22.22-.42.21-.59.53-.65,1.01-.04.37-.32.7-.48,1.05-.27.6-.49,1.23-.82,1.81-.38.66-.72,1.38-1.32,1.87-.32.26-.55.7-1.07.72-.11,0-.22.22-.33.35-.57.64-.85,1.41-.96,2.25-.02.14-.15.27-.22.41-.06.12-.11.25-.14.33Z"/>
      </g>
      <g>
        <g>
          <path class="cls-10" d="M1.68,33.04c0,.17-1.68,10.73-1.68,10.73,0,.16.23.29.51.29s.51-.13.51-.29l1.85-9.98-1.2-.75Z"/>
          <path class="cls-10" d="M11.17,38.39c0,.17-.24,11.67-.24,11.67,0,.16.23.29.51.29s.51-.13.51-.29l.41-10.92-1.2-.75Z"/>
          <path class="cls-10" d="M19.52,33.69c0,.17-.24,11.67-.24,11.67,0,.16.23.29.51.29s.51-.13.51-.29l.41-10.92-1.2-.75Z"/>
          <path class="cls-10" d="M10.2,28.32c0,.17-1.68,10.73-1.68,10.73,0,.16.23.29.51.29s.51-.13.51-.29l1.85-9.98-1.2-.75Z"/>
          <g>
            <g>
              <polygon class="cls-2" points="10.71 27.05 1.44 32.4 1.44 20.04 10.71 14.69 10.71 27.05"/>
              <polygon class="cls-12" points=".6 19.61 .6 33.04 1.44 33.47 1.44 20.04 .6 19.61"/>
              <polygon class="cls-7" points="10.71 14.69 9.87 14.26 .6 19.61 1.44 20.04 10.71 14.69"/>
            </g>
            <polygon class="cls-7" points="21.35 33.2 12.08 38.55 1.44 32.4 10.71 27.05 21.35 33.2"/>
            <polygon class="cls-12" points="12.08 38.55 12.08 39.66 .6 33.04 .6 31.91 12.08 38.55"/>
            <polygon class="cls-2" points="12.08 38.55 12.08 39.66 21.35 34.32 21.35 33.2 12.08 38.55"/>
          </g>
          <path class="cls-10" d="M11.45,8.19c-.02-.47,2.54-1.23,4.56,1.91,2.02,3.14,3.21,6.37,3.21,6.37,0,0,2.56-.73,3.91-.99,1.19.1,1.59,2.59,1.14,3.14-.57.69-1.43.81-1.87.98-1.59.6-3.99,1.17-4.77.94-1.75-.52-3.38-4-3.95-5.14s-2.24-7.21-2.24-7.21Z"/>
        </g>
        <g>
          <path class="cls-8" d="M28.34,46.75c.83.81,1.09,1.05,1.87,1.8.45.44.08.85-.78.81-.76-.03-2.47-.4-3.43-.74-.68-.24-1.93-.94-2.57-1.34-.64-.4-.76-.96-.76-.96v-1.36l4.11.17s.67.73,1.58,1.61Z"/>
          <path class="cls-8" d="M21.12,51.03c.83.81,1.09,1.05,1.87,1.8.45.44.08.85-.78.81-.76-.03-2.47-.4-3.43-.74-.68-.24-1.93-.94-2.57-1.34-.64-.4-.76-.97-.76-.97v-2.4l4.11,1.21s.68.73,1.58,1.61Z"/>
          <path class="cls-15" d="M6.46,25.74l8.2-3.15s1.34,1.29,3.82,2.79c1.44.87,5.42,3.21,6.69,4.11.78.55,1.14,1.75,1.44,4.44.5,4.45.87,10.63.87,10.63,0,0-.89,1.24-2.9,1.23-1.54,0-2.7-.49-2.7-.49l-.31-11.34-6.72-3.88s3.81,2.36,4.36,4.45c.44,1.68.59,2.97.65,5.07.14,4.52.19,9.37.19,9.37,0,0-.3,1.5-2.31,1.49-1.54,0-2.82-1.26-2.82-1.26l-.41-12.26s-5.8-4.13-7.32-5.88c-1.7-1.96-.75-5.33-.75-5.33Z"/>
          <g>
            <path class="cls-5" d="M12.94,8.17s2.61,2.11,2.93,5.1c.08.72-.06,3.47.1,5.71.17,2.36.52,4.08-.13,4.67-1.56,1.42-6.9,3.28-9.64,2.87-1.59-1.01-.48-3.8-.62-4.86-.43-3.32-1.08-8.68-.96-9.55.2-1.47,3.52-3.06,3.52-3.06,0,0,2.36-1.83,4.8-.87Z"/>
            <path class="cls-12" d="M12.57,11.09l.18,1.45s.82,2.27,1,3.29.55,5.4.55,5.4l-.62,1.73-1.22-.95-.56-9.08-.91-1.09.87-1.01.71.26Z"/>
            <g>
              <path class="cls-23" d="M12,8.08l.16,2.3s-.3.45-1.08,1.11c-.83-.26-2.76-2.05-2.76-2.05l.64-3.57,3.04,2.21Z"/>
              <path class="cls-13" d="M8.61,1.95c.86-1.1,3.35-2.03,4.97.37,1.7,2.51.09,6.62-1.39,6.38-.83-.13-2.71-.89-3.53-2.24-.93-1.51-.72-3.66-.05-4.51Z"/>
            </g>
            <path class="cls-25" d="M12.05,8.7l-.19,2.13,1.51.62s.16-2.25-1.33-2.74Z"/>
            <path class="cls-25" d="M8.55,8.17s.51.77,1.41,1.64c.69.67,1.9,1.02,1.9,1.02l-.57,1.71s-2.09-.96-2.86-1.79c0,0-.91-1.57.12-2.58Z"/>
            <path class="cls-15" d="M12.02,2.3c-2.24.8-2,3.35-2,3.35,0,0-.23,0-.42-.06-.15-.57-.4-.71-.68-.47-.32.27-.27,1.33-.27,1.33,0,0-1.2-1.04-1.19-2.77,0-1.08.95-3.42,2.92-3.66,1.98-.25,4.23,1.19,3.36,2.56-.59-.38-1.13-.5-1.73-.28Z"/>
          </g>
          <path class="cls-25" d="M7.75,15.84l2.61-1.09s.8,2.59-.88,3.28c-1.76.72-1.73-2.19-1.73-2.19Z"/>
          <path class="cls-25" d="M13.62,13.52l1.84-.9s.64,2.59-.54,3c-.94.33-1.3-2.1-1.3-2.1Z"/>
          <path class="cls-10" d="M6.94,11.49c-2.35-1.67-3,1.44-2.98,4.14.01,2.09,1.69,4.42,3.78,7.7.88,1.38,4.91,3.73,6.66,3.24,1.28-.35.54-2.63.54-2.63,0,0-.05-.47-1.9-1.81-.62-.45-1.41-1.15-2.36-1.75-1.55-4.26-1.55-7.32-3.75-8.89Z"/>
          <g>
            <path class="cls-13" d="M23.55,16.1s1.45-.99,2.31-.99c.97,0,1.95.56,2.62.66s1.63-.03,1.85.2c.23.23.2,1.1-.67,1.43-.87.33-1.72.55-2.49.26-.77-.29-1.58-.14-2.17.12-.81.36-.7.42-1.05-.56-.35-.98-.4-1.12-.4-1.12Z"/>
            <path class="cls-13" d="M26.9,15.49s.59-.27,1.15-.68c.41-.3.72.02.29.5-.43.48-.68.61-.68.61l-.77-.43Z"/>
          </g>
          <path class="cls-25" d="M23.26,15.94s-.39.42-.21,1.28c.17.79,1.03,1.04,1.03,1.04l.92-.48s-.94-.42-1.04-1.02c-.1-.6.29-1.11.29-1.11l-.98.28Z"/>
          <path class="cls-25" d="M14.82,23.69s-.9.06-1.04,1.17c-.14,1.11.49,1.57.49,1.57l1.18.1s-.58-.67-.29-1.3c.29-.63.47-.94.47-.94l-.81-.61Z"/>
        </g>
        <g>
          <path class="cls-8" d="M7.86,9.05c.57.41,1.5,1.52,2.4,2.52,1.41,1.58,2.65,5.07,3,5.76.28-.81.69-4.76.36-6.26-.24-1.1-.62-1.91-.96-2.44.06-.05.21-.1.27-.16.38.57.72,1.43.96,2.54.42,1.93-.43,6.59-.48,6.72l-.12.3-.13-.3s-1.33-4.02-3.1-5.98c-.88-.98-2.15-2.33-2.36-2.51-.09-.08-.1-.39.17-.19Z"/>
          <polygon class="cls-25" points="14.05 16.29 14.24 19.04 14.24 19.05 12.49 20.06 12.31 17.3 14.05 16.29"/>
          <polygon class="cls-22" points="13.94 16.55 13.96 16.86 12.48 17.72 12.45 17.41 13.94 16.55"/>
          <polygon class="cls-5" points="13.42 17.44 13.55 19.24 12.65 19.76 12.52 17.96 13.42 17.44"/>
        </g>
        <g>
          <g>
            <path class="cls-10" d="M26.22,57.35c0,1.6,2.31,2.9,5.16,2.9s5.16-1.3,5.16-2.9-2.31-2.9-5.16-2.9-5.16,1.3-5.16,2.9Z"/>
            <rect class="cls-10" x="26.22" y="56.49" width="10.32" height=".86" transform="translate(62.76 113.84) rotate(180)"/>
            <path class="cls-5" d="M26.22,56.62c0,1.6,2.31,2.9,5.16,2.9s5.16-1.3,5.16-2.9-2.31-2.9-5.16-2.9-5.16,1.3-5.16,2.9Z"/>
            <path class="cls-9" d="M27.48,56.55c0,1.22,1.75,2.2,3.91,2.2s3.91-.99,3.91-2.2-1.75-2.2-3.91-2.2-3.91.99-3.91,2.2Z"/>
          </g>
          <g>
            <rect class="cls-10" x="30.83" y="30.34" width="1.1" height="25.91"/>
            <path class="cls-10" d="M30.83,56.31c0,.17.25.31.55.31s.55-.14.55-.31-.25-.31-.55-.31-.55.14-.55.31Z"/>
          </g>
          <g>
            <ellipse class="cls-2" cx="31.38" cy="34.98" rx="17.71" ry="9.97"/>
            <rect class="cls-2" x="46.1" y="33.29" width="2.97" height="2.07" transform="translate(95.18 68.65) rotate(180)"/>
            <rect class="cls-2" x="13.67" y="33.29" width="2.97" height="2.07" transform="translate(30.32 68.65) rotate(180)"/>
            <path class="cls-7" d="M13.67,33.74c0,5.5,7.93,9.97,17.71,9.97s17.71-4.46,17.71-9.97-7.93-9.97-17.71-9.97-17.71,4.46-17.71,9.97Z"/>
          </g>
        </g>
        <g>
          <path class="cls-13" d="M15.63,24.3s-.9.37-.86,1.15c.04.82.68,1.09.68,1.09,0,0,1.75,1.29,3.01,1.28s1.6-.87,1.43-1.19c-.3-.57-1.88-.79-2.51-1.51-.75-.86-1.11-.9-1.74-.81Z"/>
          <path class="cls-13" d="M14.96,25.84s.66.97.7,1.42c.05.45.2.63.38.45.18-.18.36-.67.16-1.04-.2-.36-1.24-.84-1.24-.84Z"/>
        </g>
        <g>
          <g>
            <path class="cls-13" d="M43.78,60.63c-.92-.46-1.79-1.02-1.51-1.54.13-.24.42-.34.7-.39.85.28,1.27.47,1.27.47,0,0-.09-4.91-.45-6.95-.12-.67,3.09-.7,3.09-.7.11.47.22,4.6,0,7.11-.07.84-.03,1.39.04,1.8-.22.09-.67.29-1.01.44-.46.21-1.21.21-2.13-.25Z"/>
            <path class="cls-8" d="M46.96,61.77c-.31.73-1.01.66-2.44.15-1.27-.46-2.32-.97-3.22-1.64-.9-.67-.91-.76-1.03-1.21-.17-.63.76-.99,2.29-.51.15.05.29.09.42.13-.28.05-.57.15-.7.39-.28.52.59,1.08,1.51,1.54.92.46,1.67.46,2.13.25.34-.15.79-.35,1.01-.44.09.61.22.9.04,1.34Z"/>
          </g>
          <g>
            <path class="cls-13" d="M40.05,62.78c-.92-.46-1.79-1.02-1.51-1.54.13-.24.42-.34.7-.39.85.28,1.27.47,1.27.47,0,0-.45-7.94-.82-9.98-.12-.67,3.32.57,3.32.57.11.47.35,6.36.14,8.88-.07.84-.03,1.39.04,1.8-.22.09-.67.29-1.01.44-.46.21-1.21.21-2.13-.25Z"/>
            <path class="cls-8" d="M43.22,63.93c-.31.73-1.01.66-2.44.15-1.27-.46-2.32-.97-3.22-1.64-.9-.67-.91-.76-1.03-1.21-.17-.63.76-.99,2.29-.51.15.05.29.09.42.13-.28.05-.57.15-.7.39-.28.52.59,1.08,1.51,1.54s1.67.46,2.13.25c.34-.15.79-.35,1.01-.44.09.61.22.9.04,1.34Z"/>
          </g>
          <g>
            <path class="cls-10" d="M41.9,56.29c0,.17-1.63,10.41-1.63,10.41,0,.15.22.28.5.28s.5-.12.5-.28l1.79-9.68-1.16-.73Z"/>
            <path class="cls-10" d="M52.22,61.48c0,.17,1.75,12.36,1.75,12.36,0,.15-.22.28-.5.28s-.5-.12-.5-.28l-1.92-11.64,1.16-.73Z"/>
            <path class="cls-10" d="M60.27,56.79c0,.17,1.75,12.36,1.75,12.36,0,.15-.22.28-.5.28s-.5-.12-.5-.28l-1.92-11.64,1.16-.73Z"/>
            <path class="cls-10" d="M50.17,51.72c0,.17-1.63,10.41-1.63,10.41,0,.15.22.28.5.28s.5-.12.5-.28l1.79-9.68-1.16-.73Z"/>
            <g>
              <polygon class="cls-7" points="60.98 56.44 51.99 61.63 40.86 55.2 49.85 50.01 60.98 56.44"/>
              <polygon class="cls-12" points="51.99 61.63 51.99 62.72 40.86 56.29 40.86 55.2 51.99 61.63"/>
            </g>
          </g>
          <g>
            <path class="cls-13" d="M50.93,25.59c-.35.24-1.63.54-2,3.39-.25,1.91.38,2.77.93,3.27.23.21,1.11.24,1.11.24l-.04,2.13s1.25.49,2.45,0l1.2-.49s-.47-.81-.39-2.21c.1-1.73.71-4.2.28-5.12-.78-1.66-2.59-1.86-3.53-1.21Z"/>
            <path class="cls-28" d="M57.46,52.38c-.37,2.65-2.66,3.87-5.21,3.73-2.43-.14-4.2-1.37-5.91-2.84.32-2.22.83-4.54,1.63-6.6.2-.52,1.16-2.69-.29-5.78-.71-1.51.9-4.25,1.35-5.24.45-.99,1.89-1.59,1.89-1.59l3.65.06s1.29,2.29,1.55,4.27c.25,1.98.37,2.83.06,5.34-.09.7-.34,2.35.84,5.38.22.56.36,1.79.44,3.28Z"/>
            <path class="cls-8" d="M48.83,27.99c.09.98.89,1.27,1.61,2.02.72.75,1.1,1.46,2.66,2.57.57.41.43,3.56,1.52,5.8,1.16,2.39.49,2.83.49,2.83,0,0,3.31-1.07,1.96-4.76-.49-1.35-2.38-2.45-2.44-3.87-.03-.65.84-1.31,1.12-2.55.88-3.89-.92-5-2.63-5.36-3.05-.64-4.46,1.31-4.28,3.32Z"/>
            <path class="cls-13" d="M49.37,35.65c.71-.07,1.44,1.22,1.37,2.82-.09,2.05-4.44,6.86-4.44,6.86-1.44.85-5.7-1.79-6.75-1.91-1.04-.12-2.37-1.02-2.92-1.71-.52-.65,1.48-1.55,2.47-.92.74.48.55,1.08,1.15,1.16,2.66.39,5.1,1.12,5.1,1.12,0,0,2.66-7.29,4.02-7.42Z"/>
            <path class="cls-13" d="M49.67,29.39s.75-1.28,1.07,0c.3,1.19-.74,1.59-.74,1.59l-.33-1.59Z"/>
            <path class="cls-28" d="M54.91,31.83s.04.81-.13,1c-.23.25-1.09.53-1.41.4-.27-.11-.67-.65-.7-.92,1.11-.09,2.24-.48,2.24-.48Z"/>
            <path class="cls-28" d="M55.82,55.2s-1.3,2.2-7.15.89c-5.36-1.2-8.96-2.26-9.04-3.87-.13-2.71.74-4.16,3.68-5.12,2.16-.7,6.24-1.22,6.24-1.22l6.27,9.31Z"/>
            <path class="cls-22" d="M48.19,46.08s-.24,2.14.68,3.65c.92,1.51,1.15,1.86,1.93,2.85.78.99-1.93,1.26-2.69-.36-.76-1.62-.44-3.34-1.09-3.54s-2,2.32-2.85,2.15c-.85-.16.45-4.09.45-4.09l3.57-.67Z"/>
          </g>
          <g>
            <polygon class="cls-2" points="51.99 49.65 51.99 61.63 51.99 61.63 51.99 62.72 60.98 57.53 60.98 56.44 60.98 56.44 60.98 44.46 51.99 49.65"/>
            <polygon class="cls-12" points="51.19 49.23 51.19 62.25 51.99 62.67 51.99 49.65 51.19 49.23"/>
            <polygon class="cls-7" points="60.98 44.46 60.18 44.04 51.19 49.23 51.99 49.65 60.98 44.46"/>
          </g>
        </g>
        <polygon class="cls-25" points="40.08 40.58 45.68 37.35 36.9 32.28 31.3 35.51 40.08 40.58"/>
        <g>
          <g>
            <polygon class="cls-25" points="30.69 33.81 24.13 30.01 34.02 24.3 40.56 28.11 30.69 33.81"/>
            <polygon class="cls-10" points="24.13 30.01 24.13 28.26 30.69 32.06 30.69 33.81 24.13 30.01"/>
            <polygon class="cls-3" points="40.56 28.11 30.69 33.81 30.69 32.06 31.33 31.69 31.33 32.8 39.93 27.79 39.93 19.87 40.56 19.5 40.56 28.11"/>
            <polygon class="cls-5" points="24.13 28.26 30.69 32.06 31.33 31.69 24.73 27.89 24.13 28.26"/>
            <polygon class="cls-5" points="34.02 16.47 39.93 19.92 40.57 19.55 34.62 16.1 34.02 16.47"/>
            <polygon class="cls-10" points="39.93 19.87 34.02 16.47 34.02 24.3 39.93 27.79 39.93 19.87"/>
          </g>
          <g>
            <polygon class="cls-30" points="33.74 17.2 31.71 25.44 37.42 28.72 39.45 20.46 33.74 17.2"/>
            <polygon class="cls-25" points="34.11 18.2 33.63 20.11 38.27 22.72 38.78 20.82 34.11 18.2"/>
            <polygon class="cls-17" points="33.44 20.73 32.34 25.15 37.01 27.79 38.11 23.35 33.44 20.73"/>
            <polygon class="cls-17" points="39.45 20.46 39.82 20.46 37.8 28.72 37.42 28.72 39.45 20.46"/>
            <polygon class="cls-26" points="33.74 17.2 39.45 20.46 39.82 20.46 34.1 17.2 33.74 17.2"/>
          </g>
          <g>
            <polygon class="cls-7" points="32.72 17.89 30.69 26.12 36.4 29.4 38.42 21.14 32.72 17.89"/>
            <polygon class="cls-25" points="33.09 18.88 32.61 20.79 37.24 23.4 37.75 21.5 33.09 18.88"/>
            <polygon class="cls-12" points="32.42 21.41 31.32 25.84 35.98 28.47 37.09 24.03 32.42 21.41"/>
            <polygon class="cls-12" points="38.42 21.14 38.79 21.14 36.78 29.4 36.4 29.4 38.42 21.14"/>
            <polygon class="cls-18" points="32.72 17.89 38.42 21.14 38.79 21.14 33.08 17.89 32.72 17.89"/>
          </g>
          <g>
            <polygon class="cls-28" points="31.52 19.97 29.49 28.21 33.55 30.57 35.58 22.31 31.52 19.97"/>
            <polygon class="cls-25" points="31.87 20.88 31.69 21.49 34.86 23.28 35.02 22.67 31.87 20.88"/>
            <polygon class="cls-25" points="31.53 21.94 31.36 22.55 34.53 24.34 34.69 23.73 31.53 21.94"/>
            <polygon class="cls-22" points="31.28 23.38 30.18 27.81 33.14 29.49 34.24 25.05 31.28 23.38"/>
            <polygon class="cls-22" points="35.58 22.31 35.95 22.31 33.94 30.57 33.55 30.57 35.58 22.31"/>
            <polygon class="cls-6" points="31.52 19.97 35.58 22.31 35.95 22.31 31.88 19.97 31.52 19.97"/>
          </g>
          <g>
            <polygon class="cls-30" points="29.49 21.36 27.46 29.59 31.52 31.95 33.55 23.69 29.49 21.36"/>
            <polygon class="cls-25" points="29.84 22.27 29.66 22.87 32.83 24.67 32.99 24.05 29.84 22.27"/>
            <polygon class="cls-25" points="29.5 23.33 29.33 23.93 32.5 25.73 32.66 25.11 29.5 23.33"/>
            <polygon class="cls-17" points="29.25 24.77 28.15 29.19 31.11 30.88 32.21 26.44 29.25 24.77"/>
            <polygon class="cls-17" points="33.55 23.69 33.92 23.69 31.91 31.95 31.52 31.95 33.55 23.69"/>
            <polygon class="cls-26" points="29.49 21.36 33.55 23.69 33.92 23.69 29.85 21.36 29.49 21.36"/>
          </g>
        </g>
      </g>
      <g>
        <g>
          <path class="cls-13" d="M253.14,23.57s-.8-1.06-1.56-1.38c-.05-.02-.09-.03-.15-.04h0s-.45-.19-.98-.29c-.53-.09-1.16-.37-1.16-.37,0,0-.09.4.3.62.14.08.34.14.54.2-.05,0-.1.02-.15.02-.51.05-.91-.09-1.25-.14-.69-.1-.79-.17-1.48.18-.69.35-.12.87.8,1.28.92.42,2.3.45,2.85.53s1.16,1.28,1.16,1.28c0,0,.13.51,1.06,0,.92-.51,0-1.89,0-1.89Z"/>
          <path class="cls-17" d="M262.39,18.64s-1.43,1.51-2.4,3.31c-.78,1.44-1.88,3.99-1.88,3.99-1.94-1.4-3.73-1.7-4.98-2.17-.09,1.82-1.28,1.29-1.28,1.29,0,0,.46,1.33,3.22,2.96,2.71,1.6,3.7,1.85,4.78.95,2-1.67,3.86-4.18,3.86-4.18l-1.31-6.14Z"/>
          <path class="cls-8" d="M263,33.96s-.46,2.07-1.33,7.64c-.37,2.36-.18,4.14.45,5.62.81,1.91,1.82,3.2,2.22,4.12.69,1.6,2.6,6.09,2.6,6.09,0,0,2.09.44,3.14-.58,1.05-1.03.98-1.72.98-1.72,0,0-1.81-7.51-2.63-8.08-.82-.58-1.67-2.14-1.67-2.14l2.93-9.62-6.67-1.31Z"/>
          <path class="cls-8" d="M271.38,34.81c.02.19.87.52,1.19,2.94.31,2.42-1.45,8.98-1.77,9.91-.32.93,1.13,12.73,1.13,12.73,0,0-.94,1.32-2.71,1.08-1.58-.21-2.12-.93-2.12-.93l-1.61-13.06,1.27-12.2,4.63-.47Z"/>
          <path class="cls-30" d="M261.28,21.35s-1.73,3.7-.37,6.14c1.35,2.44,1.57,3.44,1.96,4.73.38,1.29-1.96,1.74.92,4,2.87,2.25,7.46.95,8.21.21,1.5-1.47.3-2.35.08-3.45-.46-2.31-1.54-6.88-2.58-8.97-1.04-2.09-3.86-5.23-4.94-4.57-1.08.66-3.27,1.91-3.27,1.91Z"/>
          <path class="cls-16" d="M261.78,22.77s-.32.97-.05,1.65,1.25,1.88,2.73.5c1.48-1.39,2.05-2.34,2.16-3.42.11-1.08-.82-1.38-.82-1.38l-4.02,2.65Z"/>
          <g>
            <g>
              <path class="cls-31" d="M262.51,21.45s-.12,1.57-.14,2.1c-.04,1.01.87,1.2,1.65.59,1.42-1.11,2.08-3.02,2.08-3.02l-1.11-1.35-2.48,1.69Z"/>
              <path class="cls-13" d="M265.27,16.86c-.79-1.01-3.06-1.85-4.54.33-1.55,2.29-.09,6.04,1.27,5.82.76-.12,2.47-.82,3.22-2.04.84-1.38.65-3.34.04-4.12Z"/>
            </g>
            <path class="cls-8" d="M259.51,17.49c.5.38,1.38.84,2.24,1.06,1.19.31,2.32.31,2.32.31l-.09,1.38s.21,0,.38-.05c.14-.52.36-.65.62-.43.29.25.25,1.21.25,1.21,0,0,1-.84,1.27-2.4.22-1.3.33-3.21-1.36-3.51-.62-.97-2.05-.74-3.01-.4-1.22.43-2.3,1.93-2.66,2.11.17.32.61.39.61.39,0,0-.17.2-.56.33Z"/>
          </g>
          <path class="cls-16" d="M252.96,23.36s-.05.68-.45,1.06c-.39.38-.83.4-.83.4l.4.65s.5.14,1.03-.55c.53-.69.47-1.01.43-1.02-.04,0-.59-.54-.59-.54Z"/>
          <path class="cls-8" d="M266.71,62.72c-.67.84-.87,1.09-1.49,1.87-.36.46.03.78.81.65.69-.12,2.21-.66,3.05-1.09.59-.31,1.65-1.09,2.19-1.53.54-.45.58-.97.58-.97l-.29-2.19-3.61,1.6s-.53.75-1.25,1.66Z"/>
          <path class="cls-8" d="M265.91,58.58c-.67.84-.87,1.09-1.49,1.87-.36.46.03.78.81.65.69-.12,2.21-.66,3.05-1.09.59-.31,1.65-1.09,2.19-1.53.54-.45.58-.97.58-.97l-.29-2.19-3.61,1.6s-.53.75-1.25,1.66Z"/>
        </g>
        <g>
          <g>
            <path class="cls-19" d="M236.39,16.94c.53-.05,1.76-.03,3.09,1.51,1.32,1.53,2.24,4.22,2.75,5.48.51,1.26.23,3.21-1,3.61-1.24.4-3.83-2.33-4.11-2.74-.28-.41-.72-7.86-.72-7.86Z"/>
            <path class="cls-8" d="M240.24,58.15s.62.68,1.46,1.49c.77.75,1.01.97,1.73,1.67.42.41.07.78-.72.75-.7-.03-2.29-.37-3.17-.69-.63-.23-1.78-.86-2.37-1.24-.59-.37-.7-.89-.7-.89v-1.25l3.79.16Z"/>
            <path class="cls-8" d="M231.84,62.11s.14,1.29.23,2.9c.09,1.61-.14,3.04-.63,3.22-.49.18-1.9.16-2.7-2.09-.8-2.24-.32-4.42-.32-4.42l3.42.39Z"/>
            <path class="cls-19" d="M228.73,37.62c-.29-4.6,2.24-7.02,2.24-7.02-.2-1.55,6.99.62,6.99.62,0,0,1.54,8.34,2.19,12.72.74,4.99.42,13.89.42,13.89,0,0-.09,1.08-1.95,1.08-1.43,0-2.6-1.17-2.6-1.17l-.15-10.4-1.93-7.13s.04,7.09-.79,9.98c-1.23,4.3-.84,12.52-.84,12.52,0,0-2.41.86-4.06.03-1.65-.83-1.33-1.75-1.33-1.75,0,0-.54-7.06,1.59-11.84.18-3.63.36-9.44.22-11.55Z"/>
            <path class="cls-8" d="M236.69,17.69s2.48,2.01,2.78,4.84c.15,1.41-.28,6.15-.3,9.25,0,1.74.69,6.63.69,6.63,0,0-.87.61-2.28,1.25,0-1.24-.47-3.18-.47-3.18,0,0-.14,2.18-.14,3.39-.75.23-1.6.38-2.53.37-2.3-.01-6.08-1.61-6.08-1.61,0,0,0-5.23.7-8.12.75-3.09-.39-8.27-.27-9.1.19-1.39,3.34-2.9,3.34-2.9,0,0,2.24-1.73,4.56-.82Z"/>
            <path class="cls-19" d="M235.61,17.43s1.35,1.08,2.32,2.39c.57.77.73,1.32.73,1.32l-.73.71,1.04.5s.58,3.91-.21,5.23c-.79,1.31-1.74,4.6-1.74,4.6,0,0-1.1-3.4-1.58-4.24-.48-.85-2.3-3.19-2.3-3.19l.91-1.37-1.48-.48s-2.09-2.62-1.87-3.41c.41-1.48,1.83-1.78,1.83-1.78l3.08-.27Z"/>
            <path class="cls-25" d="M236.96,20.13s.59,1.79.91,3.4-.85,6.99-.85,6.99c0,0-.52-5.25-1.58-6.75-1.25-1.77-2.87-3.45-2.87-3.45,0,0,3.38.28,4.38-.19Z"/>
            <path class="cls-28" d="M236.34,20.46l.18,1.38s.81.79.99,1.75c.17.96,0,4.45,0,4.45l-.48,2.48-.21-1.65s-.37-2.14-.69-3.47c-.05-.58-.1-1.06-.14-1.2-.22-.65-.27-1.99-.27-1.99l-.86-1.03.82-.96.68.24Z"/>
            <g>
              <path class="cls-31" d="M235.8,17.61l.15,2.18s-.29.56-1.02,1.18c-.79-.25-2.62-2.07-2.62-2.07l.61-3.39,2.88,2.09Z"/>
              <path class="cls-13" d="M232.58,11.79c.82-1.05,3.18-1.93,4.72.35,1.61,2.39.09,6.29-1.32,6.06-.79-.13-2.57-.85-3.35-2.12-.88-1.43-.68-3.47-.04-4.28Z"/>
            </g>
            <path class="cls-34" d="M235.86,18.45l-.2,1.77,1.44.59s.16-1.89-1.24-2.36Z"/>
            <path class="cls-34" d="M232.44,18.2s.45.83,1.48,1.41c.53.3,1.75.6,1.75.6l-.54,1.62s-1.71-.69-2.55-1.36c0,0-1.12-1.32-.14-2.28Z"/>
            <path class="cls-8" d="M233.48,10.5c1.39-1.68,4.41-.18,4.66,1.2q.31,1.71,1.03,2.38c-2.28,1.51-5.04-.68-5.05-.68.13,1.26-.58,1.7-.73,1.64-.14-.55-.38-.67-.64-.44-.3.26-.26,1.26-.26,1.26,0,0-1.14-.98-1.13-2.63,0-1.02.25-2.59,2.13-2.74Z"/>
            <path class="cls-13" d="M243.46,19.64s.6-1.93,1.19-2.2c.6-.27,1.79-.3,2.12-.64s.6.29.33.5c-.26.21-.66.48-.66.48,0,0,.73.27,1.46,0,.73-.27,1.46-.59,1.92-.33.46.26.73.77-.93,1.41-1.65.64-2.56.21-3.13.79-.57.58-1.04,1.18-1.04,1.18l-1.26-1.18Z"/>
            <path class="cls-19" d="M229.75,20.59c.58.11.81,3.12.93,4.93.16,2.37,0,4.85-.64,6.38-.59,1.41-2.43,2.9-3.18-.71-.75-3.62-.53-5.95,0-7.68.53-1.73,1.06-3.28,2.89-2.92Z"/>
            <path class="cls-19" d="M243.63,18.6l2.26,1.42s-1.05,3.85-2.17,5.32c-1.26,1.65-1.99,2.24-2.74,2.2-.75-.03-1.32-2.14-.71-3.56s3.35-5.37,3.35-5.37Z"/>
            <path class="cls-19" d="M226.86,26.74s3.28,3.25,3.33,4.41-1.41,2.72-2.47,2.41c-1.05-.3-1.92-2.26-2.18-3.2-.26-.94-.69-2.52-.69-2.52l2.01-1.11Z"/>
            <path class="cls-13" d="M226.75,25.48c.72.13.86.53.77,1.79-.09,1.26-.37,2.1-1.03,2.31-.63.2-1.7.08-2.05-.41-.2-.28.14-.69.31-1.39.1-.4.26-1.04.26-1.04,0,0-.29.22-.88.09-.35-.07-.63-.33-.3-.43.43-.13.94-.34,1.39-.69.5-.39.86-.35,1.52-.23Z"/>
          </g>
          <g>
            <path class="cls-10" d="M231.45,18.18c.55.4,1.87,1.85,2.74,2.82,1.36,1.52,2.56,4.89,2.89,5.56.27-.78.66-4.6.35-6.04-.23-1.06-.6-1.85-.93-2.36.06-.05.2-.1.26-.15.37.55.7,1.38.93,2.45.4,1.86-.42,6.37-.47,6.49l-.11.29-.13-.29s-1.29-3.88-2.99-5.78c-.85-.95-2.49-2.64-2.7-2.81-.09-.07-.1-.38.16-.19Z"/>
            <polygon class="cls-25" points="237.86 25.55 238.03 28.21 238.03 28.21 236.35 29.19 236.17 26.53 237.86 25.55"/>
            <polygon class="cls-22" points="237.75 25.8 237.77 26.1 236.33 26.93 236.31 26.63 237.75 25.8"/>
            <polygon class="cls-5" points="237.24 26.66 237.37 28.4 236.5 28.9 236.37 27.16 237.24 26.66"/>
          </g>
        </g>
        <g>
          <g>
            <path class="cls-10" d="M250.56,67.37c0,1.55,2.23,2.8,4.98,2.8s4.98-1.26,4.98-2.8-2.23-2.8-4.98-2.8-4.98,1.26-4.98,2.8Z"/>
            <rect class="cls-10" x="250.56" y="66.54" width="9.97" height=".83" transform="translate(511.09 133.91) rotate(180)"/>
            <ellipse class="cls-5" cx="255.54" cy="66.67" rx="4.98" ry="2.8"/>
            <ellipse class="cls-9" cx="255.55" cy="66.6" rx="3.78" ry="2.13"/>
          </g>
          <g>
            <rect class="cls-10" x="255.01" y="41.29" width="1.07" height="25.02"/>
            <path class="cls-10" d="M255.01,66.37c0,.17.24.3.53.3s.53-.13.53-.3-.24-.3-.53-.3-.53.13-.53.3Z"/>
          </g>
          <g>
            <path class="cls-2" d="M238.44,45.78c0,5.31,7.66,9.62,17.1,9.62s17.1-4.31,17.1-9.62-7.66-9.62-17.1-9.62-17.1,4.31-17.1,9.62Z"/>
            <rect class="cls-2" x="269.76" y="44.14" width="2.87" height="2" transform="translate(542.39 90.27) rotate(180)"/>
            <rect class="cls-2" x="238.44" y="44.14" width="2.87" height="2" transform="translate(479.76 90.27) rotate(180)"/>
            <path class="cls-7" d="M238.44,44.58c0,5.31,7.66,9.62,17.1,9.62s17.1-4.31,17.1-9.62-7.66-9.62-17.1-9.62-17.1,4.31-17.1,9.62Z"/>
          </g>
        </g>
        <g>
          <path class="cls-13" d="M266.95,42.54s-1.05.82-1.56.91c-.51.09-.96.14-.65.43.15.14,1.2.22,1.2.22,0,0-.93,2.02-.34,2.57.84.79,2.01.11,2.43-1,.42-1.11.48-3.07.48-3.07l-1.56-.06Z"/>
          <path class="cls-16" d="M266.69,41.26s-.04.81,0,1.29c.04.48,1.33,1.1,1.74.67.41-.43.69-1.39.69-1.39l-2.43-.57Z"/>
          <path class="cls-17" d="M267.2,22.48c-1.44.52-1.04,4.3-1.08,5.72-.04,1.42.51,10.99.51,12.44,0,1.46,1.01,2.28,2.28,1.73,1.24-.54,1.6-7.89,1.71-8.68.11-.78,1.03-12.82-3.42-11.22Z"/>
        </g>
        <g>
          <path class="cls-40" d="M248.98,38.64c-.13.36-.75.64-1.49.64s-1.35-.27-1.49-.62c-.08.1-.13.21-.13.32,0,.46.73.83,1.63.83.77,0,1.41-.27,1.59-.64l.05-.2c0-.12-.06-.22-.14-.32Z"/>
          <path class="cls-5" d="M249.12,38.96l.09-.37h-.27c.11.11.18.24.18.37Z"/>
          <path class="cls-5" d="M245.86,38.97c0-.14.08-.28.2-.39h-.3s.11.46.11.46h0s-.01-.05-.01-.07Z"/>
          <path class="cls-25" d="M249.22,38.5c0,.51-.78.92-1.73.92s-1.73-.41-1.73-.92.78-.92,1.73-.92,1.73.41,1.73.92Z"/>
          <path class="cls-38" d="M249.12,38.96l-.05.2c.03-.06.05-.13.05-.19,0,0,0,0,0,0Z"/>
          <path class="cls-5" d="M247.49,38.14c.63,0,1.18.19,1.45.45.02.01.03.03.04.05.02-.05.03-.09.03-.14,0-.43-.68-.78-1.52-.78s-1.52.35-1.52.78c0,.05.01.1.03.15.02-.03.04-.05.07-.07.28-.26.81-.44,1.43-.44Z"/>
          <path class="cls-40" d="M246.06,38.58h2.88c-.27-.25-.81-.44-1.45-.44s-1.16.18-1.43.44Z"/>
          <path class="cls-40" d="M247.48,39.27c.75,0,1.36-.27,1.49-.64-.01-.02-.03-.03-.04-.05h-2.88s-.05.03-.07.06c.14.35.75.62,1.49.62Z"/>
          <path class="cls-21" d="M248.56,40.4c0,.3-.48.55-1.08.55s-1.08-.25-1.08-.55.48-.55,1.08-.55,1.08.25,1.08.55Z"/>
          <path class="cls-27" d="M247.49,39.8c-.86,0-1.55-.34-1.62-.76h0l.32,1.4c.07.35.62.63,1.3.63s1.23-.27,1.3-.63l.29-1.27c-.17.37-.81.64-1.59.64Z"/>
        </g>
        <g>
          <path class="cls-40" d="M263.58,39.03c-.13.36-.75.64-1.49.64s-1.35-.27-1.49-.62c-.08.1-.13.21-.13.32,0,.46.73.83,1.63.83.77,0,1.41-.27,1.59-.64l.05-.2c0-.12-.06-.22-.14-.32Z"/>
          <path class="cls-5" d="M263.72,39.35l.09-.37h-.27c.11.11.18.24.18.37Z"/>
          <path class="cls-5" d="M260.46,39.36c0-.14.08-.28.2-.39h-.3s.11.46.11.46h0s-.01-.05-.01-.07Z"/>
          <path class="cls-25" d="M263.82,38.89c0,.51-.78.92-1.73.92s-1.73-.41-1.73-.92.78-.92,1.73-.92,1.73.41,1.73.92Z"/>
          <path class="cls-38" d="M263.72,39.35l-.05.2c.03-.06.05-.13.05-.19,0,0,0,0,0,0Z"/>
          <path class="cls-5" d="M262.09,38.53c.63,0,1.18.19,1.45.45.02.02.03.03.04.05.02-.05.03-.09.03-.14,0-.43-.68-.78-1.52-.78s-1.52.35-1.52.78c0,.05.01.1.03.15.02-.03.04-.05.07-.07.28-.26.81-.44,1.43-.44Z"/>
          <path class="cls-40" d="M260.66,38.97h2.88c-.27-.25-.81-.44-1.45-.44s-1.16.18-1.43.44Z"/>
          <path class="cls-40" d="M262.08,39.66c.75,0,1.36-.27,1.49-.64-.01-.02-.03-.03-.04-.05h-2.88s-.05.03-.07.06c.14.36.75.62,1.49.62Z"/>
          <path class="cls-21" d="M263.16,40.79c0,.3-.48.55-1.08.55s-1.08-.25-1.08-.55.48-.55,1.08-.55,1.08.25,1.08.55Z"/>
          <path class="cls-27" d="M262.09,40.19c-.86,0-1.55-.34-1.62-.76h0l.32,1.4c.07.35.62.63,1.3.63s1.23-.27,1.3-.63l.29-1.27c-.17.37-.81.64-1.59.64Z"/>
        </g>
        <g>
          <polygon class="cls-25" points="245.41 46.36 250.77 49.46 258.19 45.23 252.84 42.14 245.41 46.36"/>
          <polygon class="cls-5" points="246.54 46.26 250.86 48.8 255.48 46.17 251.16 43.63 246.54 46.26"/>
          <polygon class="cls-5" points="251.87 43.21 256.19 45.74 257.19 45.19 252.87 42.65 251.87 43.21"/>
        </g>
        <g>
          <polygon class="cls-25" points="246.57 42.41 251.93 45.5 259.35 41.28 254 38.18 246.57 42.41"/>
          <polygon class="cls-5" points="253.48 39.08 257.8 41.62 258.3 41.34 253.98 38.81 253.48 39.08"/>
          <polygon class="cls-5" points="252.59 39.6 256.9 42.13 257.4 41.85 253.08 39.32 252.59 39.6"/>
          <polygon class="cls-5" points="251.64 40.14 255.96 42.67 256.46 42.39 252.14 39.86 251.64 40.14"/>
          <polygon class="cls-5" points="250.74 40.65 255.06 43.18 255.56 42.91 251.24 40.37 250.74 40.65"/>
          <polygon class="cls-5" points="247.8 42.32 252.12 44.86 254.67 43.44 250.36 40.9 247.8 42.32"/>
        </g>
        <g>
          <path class="cls-40" d="M259.34,40.32v-4.05c0-.84-.69-1.53-1.53-1.53h0c-.84,0-1.53.69-1.53,1.53v4.05h3.05Z"/>
          <path class="cls-27" d="M259.34,40.24c0,.39-.68.71-1.53.71s-1.53-.32-1.53-.71.68-.71,1.53-.71,1.53.32,1.53.71Z"/>
          <path class="cls-27" d="M257.13,34.65v.41c0,.18.31.32.69.32s.69-.14.69-.32v-.41h-1.38Z"/>
          <g>
            <path class="cls-22" d="M257.82,34.23h-.88v.41c0,.23.39.41.88.41s.88-.18.88-.41v-.41h-.88Z"/>
            <path class="cls-28" d="M258.69,34.23c0,.23-.39.41-.88.41s-.88-.18-.88-.41.39-.41.88-.41.88.18.88.41Z"/>
          </g>
          <path class="cls-25" d="M259.35,36.59c0,.37-.63.66-1.41.66-.01,0-.18,0-.19,0-.01,0-.03,0-.04,0-.78,0-1.41-.3-1.41-.66v2.51s0,.01,0,.02c0,.37.63.66,1.41.66.01,0,.04,0,.04,0,0,0,.18,0,.19,0,.78,0,1.41-.3,1.41-.66,0,0,0-.01,0-.02v-1.35s0-1.16,0-1.16Z"/>
        </g>
      </g>
      <g>
        <g>
          <g>
            <path class="cls-13" d="M347.34,19.72l-1.5,2.44-4.34,2.59c-.44.15-.94.16-1.7.47-1.15.47-1.27.52-1.02.66.19.11.7-.05.96,0,.26.05-.42.6-.72,1.56-.43,1.4.79,1.24,1.54.72.31-.22.72-.64,1.06-1,.35-.37.78-1.03,1.09-1.31,1.06-.51,2.16-.83,2.92-1.11.95-.35,1.42-.34,1.96-.78.17-.14,1.79-3.13,1.79-3.13l-2.05-1.12Z"/>
            <path class="cls-10" d="M347.4,19.51s.62-3.42,1.8-4.2c1.18-.78,2.58-.04,2.7.2.12.24-2.6,5.03-2.6,5.03,0,0-1.34-.7-1.89-1.04Z"/>
            <path class="cls-25" d="M347.47,19.17l-.27.75s1.35.61,2.05,1.12.85-.19.4-.7c-.55-.63-2.18-1.17-2.18-1.17Z"/>
            <g>
              <path class="cls-23" d="M352.78,37.2c.27-.72-4.42-1.27-4.42-1.27,0,0,0,3.5-.14,4.98-.19,2.23-.15,3.29.49,6.28.28,1.32.64,6.34.55,8.11-.14,2.59-1.33,3.81-1.74,4.45-.4.64,1.14,1.24,2.11.31.97-.93,1.08-1.11,1.63-1.41.55-.29.36-.99.32-2.45-.03-1.13.46-4.89.65-7.31.27-3.43-.49-3.5-.43-5.23.1-3.26.81-5.99.98-6.46Z"/>
              <path class="cls-8" d="M352.04,56.94s0-.01,0-.02c-.02-.06-.03-.09-.03-.09h0c-.13-.34-.41-.64-.41-.64,0,0-.23,2.07-1.45,2.93-1.36.95-1.97,1.1-2.61.62,0,0-.33.48-1.08,1.32-.4.45-.06.89,1.12.81.63-.05,1.52-.36,2.02-1,.52-.67.92-1.38,1.41-1.82.08-.07.14-.13.21-.19h0c.04.55.02.9.05,1.3.11.18.29.14.43,0,.08-.44-.02-.84.22-1.65.26-.86.19-1.37.14-1.57Z"/>
            </g>
            <path class="cls-13" d="M356.41,39.06c.27-.72-4.42-1.27-4.42-1.27,0,0-.01,3.5-.14,4.98-.19,2.23-.15,3.29.49,6.28.28,1.32.64,6.34.55,8.11-.14,2.59-1.33,3.81-1.74,4.45-.4.64,1.14,1.24,2.11.31.97-.93,1.08-1.11,1.63-1.41.55-.29.36-.99.32-2.45-.03-1.13.46-4.89.65-7.31.27-3.43-.49-3.5-.43-5.23.1-3.26.81-5.99.98-6.46Z"/>
            <path class="cls-8" d="M355.65,58.75s0-.01,0-.02c-.02-.06-.03-.09-.03-.09h0c-.13-.34-.41-.64-.41-.64,0,0-.23,2.07-1.45,2.93-1.36.95-1.97,1.1-2.61.62,0,0-.33.48-1.08,1.32-.4.45-.06.89,1.12.81.63-.04,1.52-.37,2.02-1,.52-.66.92-1.38,1.41-1.82.08-.07.14-.13.21-.19h0c.04.55.02.9.05,1.3.11.18.29.14.43,0,.08-.44-.02-.84.22-1.65.26-.86.19-1.37.14-1.57Z"/>
            <path class="cls-19" d="M347.41,29.49s-.16.84-.21,3.25c-.06,2.96.31,8.94.31,8.94,0,0,.71,1.07,2.51,1.51,4.42,1.09,6.89-1,6.89-1,0,0,.23-2.41.46-5.02.22-2.51.1-4.84-.98-7.55-1.7-4.25-7.17-1.87-8.97-.12Z"/>
            <path class="cls-5" d="M357.78,19.46c-.23-1.59-3.86-3.75-3.86-3.75,0,0-.59,1.78-1.15,2.21-.53.42-1.42,1.49-1.5,1.58,0,0,0,0-.01,0,.01-.18.12-1.59.67-3.09.17-.47-.09-1.86-.09-1.86,0,0-.22-.06-.54-.11-.48.53-1.42,1.94-1.93,2.53-.49.56-1.95,2.52-1.5,4.37.38,1.58.58,3.65.54,4.43-.05.89-.99,3.73-.99,3.73,0,0,.93,2.33,4.36,1.8,2.54-.39,4.39-1.93,4.39-1.93,0,0-.61-3.89-.53-5.49,0,0,2.6-1.3,2.15-4.41Z"/>
            <path class="cls-8" d="M351.41,13.85c-.29-.51-.84-1.26-1.5-1.04-.02,0-.02.02-.03.03,0,0,0-.02-.02-.02-.62-.43-1.12.44-.72.95-.35.27-.63.65-.52,1.12.07.3.31.49.58.54-.04.35.2.69.57.85.58.25,1.3.05,1.67-.45.42-.58.32-1.37-.02-1.96Z"/>
            <g>
              <path class="cls-23" d="M351.69,14.84s-.85,3.48-.85,4.88c1.08-.57,2.12-1.71,2.38-1.92,1.19-.96,1.37-1.46,1.37-1.46,0,0-.24-1.12-.27-1.52-.05-.67,0-2.86,0-2.86l-2.64,2.89Z"/>
              <path class="cls-25" d="M354,15.18s-.45,1.81-1.1,2.46c-.65.65-2.05,2.08-2.05,2.08,0,0,1.49.16,2.42.41.68-.68,1.67-2.62,1.67-3.22,0-1.62-.94-1.72-.94-1.72Z"/>
              <path class="cls-25" d="M350.8,15.28s-1.4,2.11-1.73,3.07c.6.39,1.77,1.37,1.77,1.37,0,0,0-1.33.48-2.47.15-.36.3-1.55.3-1.55l-.82-.42Z"/>
              <path class="cls-13" d="M354.07,8.9c-1-.84-3.44-1.23-4.47,1.27-1.08,2.61,1.16,6.07,2.47,5.57.74-.28,2.23-.96,2.73-2.34.56-1.55.05-3.84-.73-4.49Z"/>
            </g>
            <g>
              <path class="cls-8" d="M355.73,15.88c-.56.4-1.65,1.37-2.53,2.35-1.38,1.55-2.6,4.97-2.94,5.64-.27-.79-.67-4.67-.36-6.14.23-1.08.67-1.89,1.01-2.41-.06-.05-.12-.1-.18-.15-.37.56-.85,1.42-1.08,2.5-.41,1.89.43,6.46.47,6.59l.12.3.13-.29s1.31-3.94,3.03-5.86c.86-.96,2.29-2.17,2.5-2.34.09-.08.1-.38-.16-.19Z"/>
              <polygon class="cls-25" points="349.47 22.86 349.29 25.56 349.29 25.56 351 26.55 351.18 23.85 349.47 22.86"/>
              <polygon class="cls-22" points="349.58 23.11 349.56 23.41 351.02 24.26 351.04 23.95 349.58 23.11"/>
              <polygon class="cls-5" points="350.09 23.98 349.96 25.75 350.85 26.26 350.97 24.49 350.09 23.98"/>
            </g>
            <path class="cls-13" d="M354.74,23.64s-.25,1.38-.43,1.89c-.17.51-.56,1.56-.56,1.56,0,0-2.13,2.59-3.06,3.09-.46.25-1.15.46-1.37.62-.55.4-1.46.79-1.22.95.24.16.89-.06,1.16-.14.27-.08-.08.56-.52,1.05-.41.46-.68,1.05-.44,1.67.23.63,1.72-.65,2.29-1.23.23-.23.77-.9,1.02-1.19.11-.12,1.6-1.17,2.98-2.44.76-.7,1.39-1.33,1.62-1.93.13-.33,1.27-3.19,1.27-3.19l-2.75-.7Z"/>
            <path class="cls-10" d="M354.89,23.72s-1.02-4.49.73-5.69c1.51-1.03,3.02.56,3.18,2.32.16,1.75-1.31,3.99-1.31,3.99l-2.59-.62Z"/>
            <path class="cls-25" d="M354.79,23.19l-.09.75s.53.09,1.38.32c.85.23,1.33.41,1.33.41l.32-.74s-1.03-.52-2.94-.75Z"/>
            <path class="cls-8" d="M357.49,15.28c.39-.67.32-1.78-.37-2.16.42-.84.5-1.46-.2-2.23.57-.52-.07-1.54-.72-1.39.02-.98-.23-1.48-1.06-1.59-.2-.59-.7-.68-1.02-.39-.13-.52-.94-.92-1.51-.26-.45-.29-.86-.54-1.58-.25-.44.18-.74.59-.69.95-.44-.06-.98.19-1.27.61-.19.27-.23.8-.18.73-.84.36-.39,1.18-.05,1.15-.37.35-.25,1.02.38,1.08.37.04.76-.24.89-.59.34.24.94-.06,1.16-.52.35.29.88.4,1.35.32-.08.13-.11.27-.05.44.08.22.28.36.5.43-.22.25-.3.62-.15.95.16.35.55.54.91.51-.16.17-.25.43-.24.67.02.27.15.47.33.61-.35.27-.61.64-.57,1.11.04.44.38.8.79.88-.3.28-.45.82-.3,1.16.23.55.77.39,1.09.05.24.16.54.23.83.16.27-.06.56-.24.6-.52,1.14.64,2.2-1.08,1.12-1.89Z"/>
          </g>
          <g>
            <path class="cls-12" d="M324.97,48.16v-16.91c0-4.94,3.03-7.23,6.73-5.09l25.3,14.6c3.7,2.14,6.73,7.93,6.73,12.87v16.91l-38.76-22.38Z"/>
            <polygon class="cls-12" points="317.1 31.72 327.34 25.8 332.06 31.01 322.22 37.2 317.1 31.72"/>
            <polygon class="cls-12" points="353.48 76.46 363.73 70.54 360.11 59.72 348.35 64.73 353.48 76.46"/>
            <path class="cls-7" d="M314.72,54.08v-16.91c0-4.94,3.03-7.23,6.73-5.09l25.3,14.6c3.7,2.14,6.73,7.93,6.73,12.87v16.91l-38.76-22.38Z"/>
            <path class="cls-10" d="M316.24,54.97v-15.81c0-4.47,2.74-6.55,6.1-4.61l22.91,13.23c3.35,1.94,6.1,7.18,6.1,11.65v15.81l-35.11-20.27Z"/>
            <polygon class="cls-7" points="323.29 42.06 347.56 56.08 347.56 54.87 323.29 40.85 323.29 42.06"/>
            <polygon class="cls-7" points="327.3 46.55 327.3 47.76 347.56 59.46 347.56 58.25 327.3 46.55"/>
            <polygon class="cls-7" points="327.3 50.17 327.3 51.39 347.56 63.08 347.56 61.87 327.3 50.17"/>
          </g>
          <g>
            <g>
              <polygon class="cls-25" points="327.7 35.13 321.14 31.33 331.03 25.63 337.57 29.43 327.7 35.13"/>
              <polygon class="cls-10" points="321.14 31.33 321.14 29.58 327.7 33.38 327.7 35.13 321.14 31.33"/>
              <polygon class="cls-3" points="337.57 29.43 327.7 35.13 327.7 33.38 328.34 33.01 328.34 34.13 336.94 29.11 336.94 21.2 337.57 20.83 337.57 29.43"/>
              <polygon class="cls-5" points="321.14 29.58 327.7 33.38 328.34 33.01 321.74 29.22 321.14 29.58"/>
              <polygon class="cls-5" points="331.03 17.79 336.94 21.25 337.58 20.88 331.63 17.43 331.03 17.79"/>
              <polygon class="cls-10" points="336.94 21.2 331.03 17.79 331.03 25.63 336.94 29.11 336.94 21.2"/>
            </g>
            <g>
              <polygon class="cls-30" points="330.75 18.53 328.72 26.77 334.43 30.04 336.46 21.78 330.75 18.53"/>
              <polygon class="cls-25" points="331.12 19.53 330.64 21.44 335.28 24.04 335.79 22.14 331.12 19.53"/>
              <polygon class="cls-17" points="330.46 22.05 329.35 26.48 334.02 29.11 335.12 24.67 330.46 22.05"/>
              <polygon class="cls-17" points="336.46 21.78 336.83 21.78 334.81 30.04 334.43 30.04 336.46 21.78"/>
              <polygon class="cls-26" points="330.75 18.53 336.46 21.78 336.83 21.78 331.11 18.53 330.75 18.53"/>
            </g>
            <g>
              <polygon class="cls-7" points="329.73 19.21 327.7 27.45 333.41 30.72 335.43 22.46 329.73 19.21"/>
              <polygon class="cls-25" points="330.1 20.21 329.62 22.12 334.25 24.72 334.76 22.83 330.1 20.21"/>
              <polygon class="cls-12" points="329.43 22.73 328.33 27.16 332.99 29.79 334.1 25.35 329.43 22.73"/>
              <polygon class="cls-12" points="335.43 22.46 335.8 22.46 333.79 30.72 333.41 30.72 335.43 22.46"/>
              <polygon class="cls-18" points="329.73 19.21 335.43 22.46 335.8 22.46 330.09 19.21 329.73 19.21"/>
            </g>
            <g>
              <polygon class="cls-28" points="328.53 21.3 326.5 29.53 330.56 31.89 332.59 23.63 328.53 21.3"/>
              <polygon class="cls-25" points="328.88 22.21 328.7 22.81 331.87 24.61 332.03 23.99 328.88 22.21"/>
              <polygon class="cls-25" points="328.54 23.26 328.37 23.87 331.54 25.66 331.7 25.05 328.54 23.26"/>
              <polygon class="cls-22" points="328.29 24.71 327.19 29.13 330.15 30.82 331.26 26.38 328.29 24.71"/>
              <polygon class="cls-22" points="332.59 23.63 332.96 23.63 330.95 31.89 330.56 31.89 332.59 23.63"/>
              <polygon class="cls-6" points="328.53 21.3 332.59 23.63 332.96 23.63 328.89 21.3 328.53 21.3"/>
            </g>
            <g>
              <polygon class="cls-30" points="326.5 22.68 324.47 30.92 328.53 33.28 330.56 25.02 326.5 22.68"/>
              <polygon class="cls-25" points="326.85 23.59 326.67 24.2 329.84 25.99 330 25.38 326.85 23.59"/>
              <polygon class="cls-25" points="326.51 24.65 326.34 25.26 329.51 27.05 329.67 26.44 326.51 24.65"/>
              <polygon class="cls-17" points="326.26 26.09 325.16 30.52 328.12 32.2 329.23 27.76 326.26 26.09"/>
              <polygon class="cls-17" points="330.56 25.02 330.93 25.02 328.92 33.28 328.53 33.28 330.56 25.02"/>
              <polygon class="cls-26" points="326.5 22.68 330.56 25.02 330.93 25.02 326.86 22.68 326.5 22.68"/>
            </g>
          </g>
          <g>
            <polygon class="cls-30" points="335.55 37.76 342.65 33.66 338.32 31.16 331.23 35.26 335.55 37.76"/>
            <polygon class="cls-25" points="335.63 37.25 340.12 34.71 336.64 32.7 332.15 35.25 335.63 37.25"/>
            <polygon class="cls-25" points="340.41 34.51 341.85 33.7 338.38 31.7 336.94 32.51 340.41 34.51"/>
            <polygon class="cls-35" points="335.55 37.76 335.55 38.38 342.65 34.29 342.65 33.66 335.55 37.76"/>
            <polygon class="cls-17" points="331.23 35.26 331.23 35.89 335.55 38.38 335.55 37.76 331.23 35.26"/>
          </g>
        </g>
        <g>
          <path class="cls-13" d="M310.54,20.55s.43.91,1.08,2.47c.5,1.2,1.28,3.22,1.28,3.22,0,0,2.04-.9,3.52-1.25,1.04-.25,1.6-.7,2.26-1.33.66-.62.94-1.71,1.32-1.53.38.19.46.72-.01,1.17-.47.45.34.82,1.28,1.47.94.65,1.32.68,1.84,1.17.44.42.28,1.5-1.6,1.08-1.88-.41-2.32-.93-2.6-.8-.28.13-2.28,1.55-3.88,2.26s-2.98.81-3.6.55c-.62-.26-2.91-4.95-2.91-4.95l2.03-3.55Z"/>
          <path class="cls-10" d="M307.32,17.27s.89-.72,2.65,1.01c1.76,1.73,2.1,4.97,2.1,4.97,0,0-1.16,1.35-3.17,1.03-2.02-.31-1.58-7.01-1.58-7.01Z"/>
          <path class="cls-19" d="M311.73,61.17c-.88-.86-1.54-1.57-1.54-1.57l-4.01-.17v1.32s.12.55.74.94c.62.39,1.84,1.07,2.51,1.31.94.34,2.61.7,3.35.73.84.03,1.2-.36.76-.79-.76-.74-1.01-.97-1.82-1.76Z"/>
          <path class="cls-19" d="M302.43,61.81l-3.61-.41s-.5,2.3.34,4.67c.84,2.37,2.33,2.39,2.85,2.2.52-.19.76-1.69.67-3.4s-.25-3.06-.25-3.06Z"/>
          <path class="cls-19" d="M307.15,30.34c1.66.49,3.2,1.09,3.2,1.09,0,0,1.05,7.78,1.38,12.45.37,5.31-.83,15.79-.83,15.79,0,0-.19,1.13-2.14.97-1.5-.12-2.64-1.44-2.64-1.44l.82-12.09-1.72-7.49c.25-4.26,1.6-5.03,1.94-9.29Z"/>
          <path class="cls-8" d="M297.42,60.48s1.02-7.74,3.27-12.78c.19-3.83-1.24-8.22-.37-12.02,1.09-4.75,2.8-4.62,2.8-4.62-.1-.8,1.65-.66,3.47-.31,0,3.18-.02,6.36,0,9.54l-.04-.19s-.26,6.31-1.23,9.75c-1.29,4.54-2.19,12.44-2.19,12.44,0,0-2.55.91-4.29.04-1.74-.87-1.4-1.85-1.4-1.85Z"/>
          <path class="cls-5" d="M307.76,17.68c-.34.14-.51.47-.51.47l-4.01.07s-3.26.67-4.03,3.2c-.06.79.04,2.64.16,3.47.12.07.88-.05.94.11,1.02,2.97.42,6.87.21,9.85,3.66,2.63,8.02,1.27,10.22-.37-.85-5.84,1.65-12.58-2.99-16.81Z"/>
          <g>
            <path class="cls-31" d="M306.8,17.58l-3.05-2.21-.64,3.58s.62.74,1.53,1.22c.76.4,1.69.77,2.52,1.03.35-.63,0-1.51,0-1.51l-.36-2.1Z"/>
            <path class="cls-13" d="M303.4,11.44c-.67.86-.88,3.01.05,4.52.82,1.35,2.7,2.11,3.54,2.24,1.49.24,3.1-3.88,1.4-6.4-1.62-2.4-4.12-1.47-4.98-.37Z"/>
            <path class="cls-8" d="M304.83,9.61c-.86.14-1.5.66-1.96,1.3-1.52.32-1.36,2.51-.99,3.34.73,1.6,1.56,1.71,1.56,1.71,0,0-.22-.87-.03-1.25.16-.32.68-.38.86.2.19.06.42.04.42.04l-.17-1.15s.88.44,1.87-.13c.92-.53,1.82-.22,2.14.08.2-.49.18-.77.15-1.17.59-.41,1.15-.79,1.07-1.07-.45.13-.97.14-1.41-.13.37-.29.56-.56.77-.88-1.04.13-3.28-1.04-4.28-.88Z"/>
          </g>
          <path class="cls-28" d="M307.62,21.85s.57,1.01.9,2.94c.27,1.65.65,5.44.62,6.28-.37.91-1.03,1.55-1.03,1.55l-1.21-1.33.27-9.27.45-.17Z"/>
          <path class="cls-28" d="M307.76,20.55s.25.84,0,1.59c-.04.11-.59.18-.59.18,0,0-.43-.38-.63-1.29,1.04-.35,1.22-.48,1.22-.48Z"/>
          <path class="cls-10" d="M306.9,18.15c.2,1.14.31,2.62.31,2.62,0,0,1.12-.22,1.69-.75-.16-.82-.98-2.2-.98-2.2-.09.1-.59.49-1.01.33Z"/>
          <path class="cls-10" d="M303.41,17.27s-.53.63-.59.93c-.19.96,1.13,2.26,1.9,3.26,2.13-.27,2.48-.69,2.48-.69,0,0-1.2-.89-1.87-1.42-1.58-1.26-1.92-2.08-1.92-2.08Z"/>
          <path class="cls-13" d="M307.87,32.63c-1.91-.93-3.14-.3-3.84-.42-.7-.12-3.44-2.09-3.44-2.09l.94-4.71-3.58-.97-.56,3.95c-.15.79.06,1.69,0,2.44-.04.49.63,1.07,1.3,1.54.88.6,2.15.84,3.94,1.47s2.7.85,4.58,1.15c1.93.31,2.65-1.39.67-2.35Z"/>
          <path class="cls-10" d="M300.5,19.55c-2.4.32-2.82,3.23-3.48,6.85,1.68.84,2.72,1.45,4.23.93.14-.71.46-1.49.64-2.59.34-2.06-.06-5.37-1.39-5.19Z"/>
        </g>
      </g>
      <g>
        <g>
          <polygon class="cls-15" points="175.58 57.14 159.82 66.24 158.68 65.58 174.43 56.48 175.58 57.14"/>
          <polygon class="cls-39" points="175.58 56.52 159.82 65.62 158.68 64.96 174.43 55.87 175.58 56.52"/>
          <polygon class="cls-15" points="175.58 56.52 159.82 65.62 159.82 66.24 175.58 57.14 175.58 56.52"/>
          <polygon class="cls-8" points="158.68 64.96 158.68 65.58 159.82 66.24 159.82 65.62 158.68 64.96"/>
        </g>
        <g>
          <polygon class="cls-15" points="166.92 52.29 151.16 61.38 150.02 60.72 165.78 51.63 166.92 52.29"/>
          <polygon class="cls-39" points="166.92 51.67 151.16 60.77 150.02 60.11 165.78 51.01 166.92 51.67"/>
          <polygon class="cls-15" points="166.92 51.67 151.16 60.77 151.16 61.38 166.92 52.29 166.92 51.67"/>
          <polygon class="cls-8" points="150.02 60.11 150.02 60.72 151.16 61.38 151.16 60.77 150.02 60.11"/>
        </g>
        <g>
          <path class="cls-10" d="M154.37,57.8c0,.11.17.21.37.21s.37-.09.37-.21-.17-.21-.37-.21-.37.09-.37.21Z"/>
          <rect class="cls-10" x="154.37" y="19.09" width=".74" height="38.71"/>
          <path class="cls-5" d="M154.37,19.09c0,.11.17.21.37.21s.37-.09.37-.21-.17-.21-.37-.21-.37.09-.37.21Z"/>
        </g>
        <g>
          <path class="cls-10" d="M160.87,54.14c0,.11.17.21.37.21s.37-.09.37-.21-.17-.21-.37-.21-.37.09-.37.21Z"/>
          <rect class="cls-10" x="160.87" y="8.09" width=".74" height="46.05"/>
          <ellipse class="cls-5" cx="161.24" cy="8.09" rx=".37" ry=".21"/>
        </g>
        <g>
          <path class="cls-10" d="M169.51,59.16c0,.11.17.21.37.21s.37-.09.37-.21-.17-.21-.37-.21-.37.09-.37.21Z"/>
          <rect class="cls-10" x="169.51" y="13.11" width=".74" height="46.05"/>
          <path class="cls-5" d="M169.51,13.11c0,.11.17.21.37.21s.37-.09.37-.21-.17-.21-.37-.21-.37.09-.37.21Z"/>
        </g>
        <g>
          <polygon class="cls-8" points="161.55 39.36 169.88 44.18 163.27 55.89 154.94 51.08 161.55 39.36"/>
          <polygon class="cls-39" points="161.24 39.16 169.58 43.97 162.96 55.69 154.63 50.87 161.24 39.16"/>
          <g>
            <polygon class="cls-22" points="161.67 40.64 168.13 44.35 162.57 54.21 162.15 54.21 156.1 50.5 161.67 40.64"/>
            <polygon class="cls-28" points="161.26 40.64 167.72 44.35 162.15 54.21 155.69 50.5 161.26 40.64"/>
            <polygon class="cls-39" points="161.3 41.31 167.13 44.65 166.84 45.14 161.01 41.8 161.3 41.31"/>
            <polygon class="cls-6" points="161.67 40.64 161.26 40.64 167.72 44.35 168.13 44.35 161.67 40.64"/>
          </g>
        </g>
        <polygon class="cls-8" points="169.88 43.97 163.57 40.29 163.27 40.8 169.69 44.53 169.88 43.97"/>
        <g>
          <polygon class="cls-8" points="161.55 24.32 169.88 29.13 163.27 40.84 154.94 36.03 161.55 24.32"/>
          <polygon class="cls-39" points="161.24 24.11 169.58 28.92 162.96 40.64 154.63 35.82 161.24 24.11"/>
          <g>
            <polygon class="cls-17" points="161.67 25.59 168.13 29.3 162.57 39.16 162.15 39.16 156.1 35.45 161.67 25.59"/>
            <polygon class="cls-30" points="161.26 25.59 167.72 29.3 162.15 39.16 155.69 35.45 161.26 25.59"/>
            <polygon class="cls-39" points="161.3 26.26 167.13 29.6 166.84 30.09 161.01 26.75 161.3 26.26"/>
            <polygon class="cls-1" points="161.67 25.59 161.26 25.59 167.72 29.3 168.13 29.3 161.67 25.59"/>
          </g>
        </g>
        <g>
          <polygon class="cls-8" points="161.55 9.34 169.88 14.15 163.27 25.86 154.94 21.05 161.55 9.34"/>
          <polygon class="cls-39" points="161.24 9.13 169.58 13.94 162.96 25.66 154.63 20.84 161.24 9.13"/>
          <g>
            <polygon class="cls-10" points="161.67 10.61 168.13 14.32 162.57 24.18 162.15 24.18 156.1 20.47 161.67 10.61"/>
            <polygon class="cls-25" points="161.26 10.61 167.72 14.32 162.15 24.18 155.69 20.47 161.26 10.61"/>
            <polygon class="cls-39" points="161.3 11.28 167.13 14.62 166.84 15.11 161.01 11.77 161.3 11.28"/>
            <polygon class="cls-5" points="161.67 10.61 161.26 10.61 167.72 14.32 168.13 14.32 161.67 10.61"/>
          </g>
        </g>
        <polygon class="cls-8" points="169.88 28.92 163.57 25.24 163.27 25.75 169.69 29.48 169.88 28.92"/>
        <g>
          <path class="cls-10" d="M163.01,62.82c0,.11.17.21.37.21s.37-.09.37-.21-.17-.21-.37-.21-.37.09-.37.21Z"/>
          <rect class="cls-10" x="163.01" y="24.11" width=".74" height="38.71"/>
          <path class="cls-5" d="M163.01,24.11c0,.11.17.21.37.21s.37-.09.37-.21-.17-.21-.37-.21-.37.09-.37.21Z"/>
        </g>
      </g>
      <g>
        <polygon class="cls-39" points="188.3 66.75 175.58 59.48 186.39 53.23 199.12 60.51 188.3 66.75"/>
        <g>
          <path class="cls-20" d="M189.45,51.75c0-11.96,4.55-25.51,4.75-26.09l-12.7-7.3s-4.76,13.89-4.76,26.12v14.36l11.54,7.92,1.17-.65v-14.36Z"/>
          <path class="cls-10" d="M188.28,52.39c0-11.96,4.55-25.51,4.75-26.09l-12.7-7.3s-4.76,13.89-4.76,26.12v14.36l12.71,7.28v-14.36Z"/>
          <polygon class="cls-5" points="181.5 18.35 180.33 19 193.03 26.3 194.2 25.66 181.5 18.35"/>
        </g>
        <polygon class="cls-8" points="175.58 59.48 175.58 60.52 188.3 67.79 188.28 66.75 175.58 59.48"/>
        <polygon class="cls-15" points="199.12 60.51 199.12 61.55 188.3 67.79 188.28 66.75 199.12 60.51"/>
        <polygon class="cls-17" points="194.2 13.66 181.49 6.32 181.49 18.33 193.03 26.3 194.2 25.67 194.2 13.66"/>
        <polygon class="cls-30" points="193.04 14.27 180.33 6.96 180.33 18.97 193.04 26.3 193.04 14.27"/>
        <polygon class="cls-25" points="191.43 15.22 182.07 9.83 182.07 10.75 191.43 16.16 191.43 15.22"/>
        <polygon class="cls-25" points="191.43 17.43 182.07 12.04 182.07 12.96 191.43 18.37 191.43 17.43"/>
        <polygon class="cls-11" points="181.5 6.32 180.33 6.97 193.03 14.27 194.2 13.63 181.5 6.32"/>
        <polygon class="cls-25" points="183.31 17.89 188.75 21.03 187.02 30.61 181.58 27.47 183.31 17.89"/>
        <path class="cls-39" d="M179.71,25.79c-.14.52-.27,1.07-.41,1.64l8.75,5.05c.14-.57.28-1.11.41-1.64l-8.75-5.05Z"/>
        <polygon class="cls-25" points="178.86 40.12 184.3 43.26 183.83 52.59 178.39 49.45 178.86 40.12"/>
        <polygon class="cls-25" points="180.65 29.04 186.09 32.18 184.75 41.19 179.31 38.05 180.65 29.04"/>
        <path class="cls-39" d="M186.45,41.17l-8.74-5.05c-.1.59-.19,1.2-.28,1.8l8.74,5.05c.09-.61.18-1.21.28-1.8Z"/>
        <path class="cls-39" d="M176.75,48.07v1.48l8.73,5.04v-1.39c0-.19,0-.38,0-.57l-8.73-5.04c0,.16,0,.32,0,.48Z"/>
      </g>
      <g>
        <path class="cls-13" d="M86.88,24.45c.04.27-1.74,2.89-2.22,4.68-.47,1.79-.24,3.5.35,4.09.59.59,2.83-.29,2.83-.29l-.97-8.49Z"/>
        <path class="cls-8" d="M86.67,64.88c.27.64.89.58,2.15.13,1.12-.4,2.04-.86,2.83-1.44.79-.59.8-.67.91-1.06.15-.56-.67-.87-2.02-.45-.13.04-.26.08-.37.12.25.04.51.13.62.34.25.46-.52.95-1.33,1.36s-1.47.4-1.87.22c-.3-.13-.69-.31-.89-.39-.08.54-.2.79-.03,1.18Z"/>
        <path class="cls-13" d="M94.72,64.8c-.11-.21-.37-.3-.62-.34-.75.25-1.12.41-1.12.41,0,0,.2-3.48.43-6.16.36-2.35.75-5.2.72-6.69,0-.15.02-1.5.02-1.72-.37.18-2.76.5-3.57.45.01.12.15,1.33.16,2.79.01,2.26-.1,5.06-.09,4.89h0c-.07,1.82-.12,4.52,0,5.96.06.74.02,1.23-.03,1.59.19.08.59.26.89.39.4.18,1.07.18,1.87-.22.81-.4,1.58-.9,1.33-1.36Z"/>
        <path class="cls-23" d="M90.79,62.52c-.11-.21-.37-.3-.62-.34-.75.25-1.12.41-1.12.41,0,0,.09-2.59.22-4.6.11-1.67.34-6.41.37-7.51-1.16-.17-2.44.11-3.31-.65,0,.27,0,1.4-.02,1.67-.12,1.36.16,3.23.27,4.59.09,1.15.04,4.84.15,6.03.06.74.02,1.23-.03,1.59.19.08.59.26.89.39.4.18,1.07.18,1.87-.22s1.58-.9,1.33-1.36Z"/>
        <path class="cls-8" d="M90.6,67.16c.27.64.89.58,2.15.13,1.12-.4,2.04-.86,2.83-1.44.79-.59.8-.67.91-1.06.15-.56-.67-.87-2.02-.45-.13.04-.26.08-.37.12.25.04.51.13.62.34.25.46-.52.95-1.33,1.36-.81.4-1.47.4-1.87.22-.3-.13-.69-.31-.89-.39-.08.54-.2.79-.03,1.18Z"/>
        <path class="cls-8" d="M86.34,50.52c3.69,2.46,6.88,1.3,7.86.82.03-2.16.04-10.1-.47-12.5-.27-1.29-.88-3.13-.88-3.13l-5.97-.37s-.82.75-1.42,3.04c-.66,2.53-.09,4.06.04,5.3.2,1.98.8,6.01.84,6.83Z"/>
        <path class="cls-13" d="M90.2,16.62c.31.22,1.48.49,1.8,3.05.29,2.28-.21,2.87-.68,3.06-.26.11-1.16.1-1.16.1l.03,1.92s-1.13.45-2.21,0l-1.08-.45s.42-.73.35-1.99c-.09-1.56-.64-3.79-.25-4.62.71-1.5,2.34-1.68,3.19-1.09Z"/>
        <path class="cls-40" d="M85.81,37.27c.55.65,2.9,1.41,3.77,1.41,2.27.02,3.2-.73,3.74-1.41-.79-2.47-.42-5.95-.42-5.95,0,0,1.2-2.13.37-3.8-.83-1.66-1.31-2.51-2.1-2.78-.84-.28-4.55-.29-4.55-.29,0,0-1.76,1.89-1.19,4.38.84,3.7.63,6.22.38,8.44Z"/>
        <path class="cls-27" d="M87.26,24.53s.89,1.1,2.07.79c1.18-.31,1.83-.57,1.83-.57,0,0-.25-.42-1-.5-1.19-.12-2.68-.73-2.68-.73l-.23,1.01Z"/>
        <path class="cls-27" d="M86.97,25.52c-.04-.49.67-.57.65-.76-.03-.26-.65-1.58-2.06-.54-1.37,1.01-1.7,2.93-1.18,4.16.36.41,1.29.59,1.63.78.37-1.2.67-2.42.96-3.65Z"/>
        <path class="cls-8" d="M92.09,18.79c-.08.88-.81,1.15-1.45,1.82-.65.67-.99,1.32-2.4,2.32-.51.37-.38,3.21-1.37,5.23-1.05,2.15-.44,2.55-.44,2.55,0,0-2.98-.96-1.77-4.29.44-1.22,2.15-2.21,2.2-3.49.03-.59-.76-1.18-1.01-2.3-.8-3.51.83-4.51,2.37-4.83,2.75-.58,4.03,1.18,3.86,2.99Z"/>
        <path class="cls-13" d="M91.33,20.06s-.68-1.16-.97,0c-.27,1.07.67,1.44.67,1.44l.3-1.44Z"/>
        <path class="cls-40" d="M86.61,22.26s-.04.73.11.9c.21.22.98.47,1.27.36.24-.1.6-.59.63-.83-1-.08-2.02-.43-2.02-.43Z"/>
        <path class="cls-13" d="M94.79,36.17c-.09-.65-.15-1.64-.18-2.31,0-.2-.71-5.48-1.7-7.05-.38-.61-2.09,1.42-2.21,2.8-.08.85,1.16,4.35,1.28,4.65.09.61.29,1.77.6,2.7.43,1.32.88,2.17.99,2.63.11.46-.39,2.26.05,3.13.59,1.17,1.54,1.63,1.67-.44.13-2.07-.35-5.04-.5-6.1Z"/>
        <path class="cls-27" d="M91.63,25.23s-.97.1-1.67,2.03c-.47,1.31-.19,2.2.16,2.97.15.32.72,1.11.72,1.11,0,0,1.47-.05,2.18-.59s.85-.84.85-.84c0,0,.5-2.06-.25-3.16-.74-1.1-1.99-1.52-1.99-1.52Z"/>
        <path class="cls-25" d="M93.92,29.61c-.25.34-.74.89-1.29,1.14-.91.41-2.03.26-2.03.26l.24.46s1.14.25,2.02-.3c.51-.32.93-.7,1.15-.97,0-.24-.07-.42-.08-.59Z"/>
      </g>
    </g>
  </g>
</svg>