<?xml version="1.0" encoding="UTF-8"?>
<svg xmlns="http://www.w3.org/2000/svg" xmlns:xlink="http://www.w3.org/1999/xlink" viewBox="0 0 122.46 73.83">
  <defs>
    <style>
      .cls-1 {
        fill: #8f8f8f;
      }

      .cls-2, .cls-3 {
        fill: #e8965d;
      }

      .cls-4 {
        fill: #6e9bd2;
      }

      .cls-5 {
        fill: #8a66aa;
      }

      .cls-6 {
        fill: #f2c4a4;
      }

      .cls-7 {
        fill: #b4b3b3;
      }

      .cls-8 {
        isolation: isolate;
      }

      .cls-9 {
        clip-path: url(#clippath-1);
      }

      .cls-10 {
        fill: #5bab32;
      }

      .cls-11, .cls-12, .cls-13 {
        fill: #d8ecf5;
      }

      .cls-11, .cls-14 {
        opacity: .3;
      }

      .cls-12 {
        opacity: .5;
      }

      .cls-15 {
        fill: #fff;
      }

      .cls-14 {
        fill: #de7850;
        mix-blend-mode: multiply;
      }

      .cls-16 {
        fill: #51a035;
      }

      .cls-17 {
        fill: #fcdfcb;
      }

      .cls-18 {
        fill: #f7f7f7;
      }

      .cls-19 {
        fill: #4c9137;
      }

      .cls-20 {
        fill: #f0f0f0;
      }

      .cls-21 {
        fill: #ae92c3;
      }

      .cls-22 {
        fill: #e3ebf7;
      }

      .cls-23 {
        fill: #58a3d8;
      }

      .cls-24 {
        fill: #a0cd78;
      }

      .cls-25 {
        fill: #333;
      }

      .cls-26 {
        fill: #d1d1d1;
      }

      .cls-27 {
        clip-path: url(#clippath);
      }

      .cls-3 {
        opacity: .6;
      }

      .cls-28 {
        fill: #ea9f6b;
      }
    </style>
    <clipPath id="clippath">
      <rect class="cls-15" x="39.37" y="-12.98" width="43.72" height="74.7" transform="translate(85.6 -36.86) rotate(90)"/>
    </clipPath>
    <clipPath id="clippath-1">
      <rect class="cls-22" x="25.93" y="10.02" width="44.85" height="30.94" rx="1.16" ry="1.16"/>
    </clipPath>
  </defs>
  <g class="cls-8">
    <g id="_圖層_2" data-name="圖層_2">
      <g id="_圖層_1-2" data-name="圖層_1">
        <g>
          <g>
            <path class="cls-25" d="M105.64,43.57V5.18c0-2.86-2.32-5.18-5.18-5.18H22c-2.88,0-5.18,2.35-5.18,5.18v38.39c0,2.86,2.31,5.18,5.18,5.18h78.46c2.88,0,5.18-2.34,5.18-5.18Z"/>
            <g>
              <rect class="cls-15" x="39.37" y="-12.98" width="43.72" height="74.7" transform="translate(85.6 -36.86) rotate(90)"/>
              <g class="cls-27">
                <g>
                  <path class="cls-15" d="M25.12,2.51h72.1c.89,0,1.61.72,1.61,1.61v40.5c0,.89-.72,1.61-1.61,1.61H25.12c-.89,0-1.61-.72-1.61-1.61V4.12c0-.89.72-1.61,1.61-1.61Z"/>
                  <path class="cls-5" d="M32.76,7.63h-5.54c-.71,0-1.29-.58-1.29-1.29h0c0-.71.58-1.29,1.29-1.29h5.54c.71,0,1.29.58,1.29,1.29h0c0,.71-.58,1.29-1.29,1.29Z"/>
                  <path class="cls-7" d="M65.49,5.05h4.77c.28,0,.51.23.51.51v1.55c0,.28-.23.51-.51.51h-4.77c-.28,0-.51-.23-.51-.51v-1.55c0-.28.23-.51.51-.51Z"/>
                  <g>
                    <rect class="cls-22" x="25.93" y="10.02" width="44.85" height="30.94" rx="1.16" ry="1.16"/>
                    <g class="cls-9">
                      <g>
                        <g>
                          <g>
                            <path class="cls-6" d="M60.78,28.3c.19-.16.37-.34.54-.52.14-.25.31-.45.39-.53.06-.07.21-.44.24-.61.08-.44.31-.4.37-.15.06.22.06.46.02.68-.02.13-.14.38-.23.58.2,0,.35,0,.35,0l.54.05c.11.01.21.06.28.14.1.11.14.26.09.41-.02.05-.12.27-.16.34-.17.26-.54.26-.54.26-.13,0-.24-.02-.33-.03l-.83,1.1-.68.1-.46-1.51c.12-.08.25-.18.38-.29Z"/>
                            <path class="cls-6" d="M63.11,29.15c.04-.06.14-.29.16-.34.05-.14.01-.3-.09-.41l-.12-.12-.2.32h0c-.13.26-.11.24-.53.2-.6-.06-.54.32-.54.32,0,0,.03.26.78.29,0,0,.37,0,.54-.26Z"/>
                            <path class="cls-6" d="M63,29.45c.04-.06.14-.27.15-.32.04-.13,0-.28-.09-.39l-.11-.12-.19.3h0c-.12.24-.11.23-.51.19-.57-.05-.52.3-.52.3,0,0,.03.25.75.27,0,0,.35,0,.51-.24Z"/>
                            <path class="cls-6" d="M62.72,29.78c.03-.05.12-.23.13-.27.04-.11,0-.24-.07-.33l-.09-.1-.16.26h0c-.1.21-.09.19-.43.16-.48-.04-.44.25-.44.25,0,0,.02.21.63.23,0,0,.3,0,.43-.21Z"/>
                            <path class="cls-28" d="M62.99,28.14c-.03.06-.05.12-.09.17-.02.03-.05.05-.08.06-.03.01-.07.01-.1.01-.13,0-.25-.02-.38-.02-.06,0-.12,0-.18.02-.06.01-.11.04-.15.08-.04.04-.06.09-.07.14,0,.01,0,.03,0,.04,0,0,0,.02.01.03.01.02.03.04.05.06.09.07.21.11.33.13.12.03.25.04.37.04.12,0,.25-.03.35-.09.05-.03.1-.07.14-.12.02-.02.03-.05.05-.08l.05-.08c-.03.06-.05.12-.08.17s-.08.1-.14.14c-.11.07-.24.11-.37.12-.13,0-.26,0-.38-.03-.06-.01-.13-.03-.19-.05-.06-.02-.12-.05-.18-.09-.03-.02-.05-.05-.07-.08,0-.02-.02-.03-.02-.06,0-.02,0-.04,0-.05,0-.07.04-.14.09-.19.05-.05.12-.08.18-.09.03-.01.07-.01.1-.02.03,0,.07,0,.1,0,.13,0,.25.03.38.04.06,0,.12,0,.16-.05.04-.05.07-.1.1-.16Z"/>
                            <path class="cls-28" d="M62.06,28.81s-.09.03-.13.06c-.04.03-.07.06-.09.1-.02.04-.03.09-.03.13,0,.04.03.07.07.1.07.05.16.09.25.11.09.02.19.04.28.05.05,0,.09,0,.14.01.04,0,.09,0,.14,0,.09-.01.18-.04.26-.09.04-.02.07-.05.11-.09.01-.02.03-.03.04-.05l.04-.06c.05-.08.09-.17.14-.26-.03.09-.07.18-.1.27-.02.04-.04.09-.08.13-.03.04-.07.07-.11.1-.08.06-.18.09-.28.11-.05,0-.1.01-.15.01-.05,0-.1,0-.15,0-.1,0-.2-.03-.29-.05-.09-.03-.19-.07-.27-.13-.02-.02-.04-.04-.05-.06,0-.01-.01-.02-.02-.04,0-.01,0-.03,0-.04,0-.05.02-.1.04-.15.06-.09.16-.13.25-.14Z"/>
                            <path class="cls-28" d="M61.83,29.21c-.05.05-.08.12-.07.18,0,.06.05.11.11.14.06.03.12.06.18.07.06.02.13.03.2.04.07,0,.14.02.2.02.07,0,.13,0,.2-.01.13-.03.26-.08.35-.19-.03.06-.08.12-.14.16-.06.04-.13.07-.2.09-.07.02-.14.03-.21.03-.07,0-.14,0-.21-.02-.14-.02-.28-.05-.41-.14-.03-.02-.06-.05-.08-.08-.01-.02-.02-.03-.03-.05,0-.02,0-.04,0-.06,0-.07.05-.14.11-.18Z"/>
                            <path class="cls-28" d="M61.81,29.53c-.06.03-.11.07-.13.13-.01.03-.02.06-.01.08,0,0,0,.01,0,.02,0,0,0,0,0,.01,0,.01.01.02.02.03.04.04.09.07.15.08.06.02.12.03.18.04.06.01.12.02.18.02.03,0,.06,0,.09,0,.03,0,.06,0,.09,0,.12-.02.24-.07.32-.16-.06.12-.18.19-.31.22-.03,0-.06.01-.1.02-.03,0-.07,0-.1,0-.06,0-.13,0-.19-.02-.06-.01-.13-.03-.19-.05-.06-.03-.12-.06-.17-.11-.01-.01-.02-.03-.03-.05,0,0,0-.02,0-.03,0,0,0-.02,0-.03,0-.03.01-.07.03-.1.04-.06.1-.1.16-.11Z"/>
                          </g>
                          <path class="cls-6" d="M60.4,28.59l-4.89,1.51-2.21-3.68-1.88,3.11s2.37,3.71,2.89,3.89c.52.19,6.55-3.32,6.55-3.32,0,0,.43-1.52.34-1.48s-.8-.03-.8-.03Z"/>
                        </g>
                        <path class="cls-6" d="M42.77,61.33l.03,1.16,1.42,1.03s.67-.9.66-1.03c-.01-.12,0-2.14,0-2.14,0,0-1.62.62-1.69.62s-.42.36-.42.36Z"/>
                        <polygon class="cls-6" points="49.71 62.49 49.71 61.05 51.35 60.6 51.72 60.76 51.78 62.49 51.26 64 49.71 62.49"/>
                        <path class="cls-25" d="M47.37,40.4l-2.08,21.13c-.82-.04-1.66-.1-2.52-.2-.1-4.05-.37-16.17-.33-21.03.05-5.88,1.81-6.74,1.81-6.74l3-.78,4.1.73c-1.27,4.96-3.98,6.89-3.98,6.89Z"/>
                        <path class="cls-25" d="M52.09,61.28c-.62.07-1.47.15-2.49.21l-2.18-24.42-.23-3.89s3.35-1.61,4.46.3c1.11,1.91,1.07,4.77,1.07,4.77,0,0-.14,17.99-.63,23.03Z"/>
                        <path class="cls-6" d="M37.84,27.8s-1.32,1.88-1.17,2.28c.15.4,6.72,5.74,6.72,5.74,0,0,.18,1.43.93,1.81l.96-1.71-5.44-6.04.43-.6-2.43-1.48Z"/>
                        <path class="cls-16" d="M51.37,21.08s.6.18,1.48,1.52c.87,1.34,1.65,5.06,1.65,5.06l-2.79,1.89-1.81-4.48,1.47-3.98Z"/>
                        <polygon class="cls-6" points="46.75 19.01 46.48 21.26 48.71 21.18 48.64 18.6 46.75 19.01"/>
                        <path class="cls-3" d="M48.67,19.79l-.03-1.19-1.92.61-.05.44c.43.16,1.23.35,2,.13Z"/>
                        <polygon class="cls-25" points="50.44 14.78 50.39 16.35 50.13 16.47 49.9 14.53 50.44 14.78"/>
                        <path class="cls-28" d="M49.95,16.13c-.11.34.02.69.3.78.27.09.58-.12.69-.46.11-.34-.03-.69-.3-.78-.27-.09-.58.12-.69.46Z"/>
                        <path class="cls-6" d="M50.18,17.61c.12-.44.17-.9.18-1.3,0-.09,0-.17.02-.26.03-.34,0-.7-.11-1.06-.35-1.17-1.45-1.98-2.67-1.97-1.64,0-2.89,1.4-2.77,3-.18-.08-.38-.09-.54,0-.32.17-.4.63-.18,1.03.22.4.65.58.97.4.04-.02.08-.05.12-.09.25,1.34,1.44,2.3,2.77,2.18,1.01-.1,1.92-.82,2.22-1.93Z"/>
                        <path class="cls-25" d="M50.55,12.92s.83-.06-.11-.67c-.94-.61-3.36-1.19-4.78-.24,0,0-.37-.6-.78-.41-.42.2.34.56.34.56,0,0-.55.04-.69.33-.1.21.24.19.42.16-.31.09-1.27.8-.41,3.16.21-.07,1.72-1.75,1.72-1.75,0,0,2.49,1.16,2.1.4,0,0,2.93,1.12,2.36-.34,0,0,1.13-.03-.15-1.2Z"/>
                        <path class="cls-25" d="M46.25,14.06s-.72,1.65-.6,2.55c0,0-.53-.74-1.19-.65,0,0-.45-1.47-.19-2.47l1.55.09.43.48Z"/>
                        <path class="cls-15" d="M48.93,17.5c-.08.3-.44.52-.86.51-.42,0-.77-.24-.84-.54l1.7.03Z"/>
                        <path class="cls-19" d="M54.39,27.3l-2.75,1.83c-.09.06-.13.18-.08.28l.4.88c.06.13.23.18.35.1l2.79-1.85c.1-.06.13-.19.08-.29l-.44-.86c-.06-.13-.23-.17-.35-.09Z"/>
                        <path class="cls-10" d="M44.06,20.73c.55-.33,1.65-.53,2.3-.64.39.33,2.18.25,2.57.08.9.34,2.92.86,2.95,1.41.44,11.83-.23,11.94-.23,11.94-1.24.55-6.51.24-7.35,0s-1.48-5.92-1.48-5.92l-2.55,2.41c-.88-.84-2.63-1.96-2.63-1.96,0,0,3.81-5.77,6.43-7.31Z"/>
                        <path class="cls-24" d="M45.58,22.91c-.11.2-.22.4-.33.6l-.33.59c-.11.2-.22.4-.33.59-.11.2-.22.39-.34.59-.11.2-.23.39-.34.59-.06.1-.11.2-.17.29l-.18.29-.18.29s-.06.1-.09.14l-.09.14-.09.14-.05.07-.05.07c-.06.09-.13.19-.19.28.28-.35.55-.72.8-1.1.25-.38.49-.77.71-1.16.23-.39.45-.79.65-1.19.21-.4.41-.81.6-1.22Z"/>
                        <path class="cls-12" d="M43.76,38.05c.28.11.56.22.83.34.27.12.54.25.81.39.27.13.54.27.8.41.26.14.53.29.79.44l.02-.05c-.2-.04-.39-.07-.59-.09-.2-.02-.4-.03-.6-.03-.2,0-.4.01-.6.04l-.15.02-.15.03h-.07s-.07.03-.07.03l-.14.04.15-.03h.07s.07-.03.07-.03l.15-.02h.15s.1-.02.15-.02c.05,0,.1,0,.15,0h.15s.1,0,.15,0c.2,0,.4.02.59.04.2.02.39.05.58.1l.18.04-.16-.09c-.26-.15-.52-.3-.79-.44-.27-.14-.53-.28-.8-.41-.27-.13-.55-.25-.82-.37-.14-.06-.28-.11-.42-.16-.14-.05-.28-.1-.43-.15Z"/>
                        <path class="cls-12" d="M51.65,37.94c-.14.05-.29.09-.43.15-.14.05-.28.11-.42.16-.28.12-.55.24-.82.37-.27.13-.54.27-.8.41-.27.14-.53.29-.79.44l-.16.09.18-.04c.19-.04.39-.07.58-.1.2-.02.39-.04.59-.04.05,0,.1,0,.15,0h.15s.1,0,.15.01c.05,0,.1,0,.15.01h.15s.15.04.15.04h.07s.07.03.07.03l.15.03-.14-.04-.07-.02h-.07s-.15-.04-.15-.04l-.15-.02c-.2-.02-.4-.04-.6-.04-.2,0-.4,0-.6.03-.2.02-.4.05-.59.09l.02.05c.26-.15.52-.29.79-.44.26-.14.53-.28.8-.41.27-.13.54-.26.81-.39.27-.12.55-.24.83-.34Z"/>
                        <path class="cls-12" d="M51.05,34.54c-.24.04-.49.08-.73.11-.25.03-.49.06-.74.09-.49.05-.99.08-1.48.09-.25,0-.49,0-.74,0-.25,0-.49-.02-.74-.04-.25-.02-.49-.05-.74-.09-.24-.04-.49-.09-.73-.16.24.07.48.13.72.17.24.04.49.08.74.1.25.02.49.04.74.05.25,0,.5,0,.74,0,.5-.01.99-.05,1.48-.1.25-.03.49-.06.74-.09.24-.04.49-.08.73-.13Z"/>
                        <path class="cls-13" d="M45.59,35.31s-.03.06-.04.09l-.04.08-.09.17-.14.28-.41.74c-.06.11-.6,1.08-.73,1.3.16-.2.35-.39.48-.61.07-.11.13-.22.19-.33.06-.11.12-.22.18-.33.11-.22.22-.45.33-.68.05-.11.1-.23.15-.35.02-.06.05-.12.07-.18.02-.06.05-.12.06-.18Z"/>
                        <path class="cls-19" d="M41.2,29.02l-2.67-2.08c-.13-.1-.31-.07-.4.05l-.62.84c-.09.12-.07.3.06.39l2.63,2c.12.09.29.07.39-.04l.67-.76c.11-.12.09-.31-.04-.41Z"/>
                        <g>
                          <rect class="cls-25" x="42.32" y="64.06" width="5.5" height=".55" rx=".22" ry=".22"/>
                          <path class="cls-23" d="M42.57,62.38l-.18,1.54c-.02.19.08.36.22.36h4.85c.13,0,.25-.08.32-.23.07-.15.08-.38-.14-.69-.43-.6-1.81-.76-2.52-1.26-.03-.02-.06-.03-.09-.03h-2.21c-.13,0-.23.13-.25.3Z"/>
                          <path class="cls-25" d="M44.74,62.97h0s-.05-.08-.03-.13c.1-.21.39-.72,1-.62.03,0,.06.05.05.1h0s-.04.08-.07.07c-.54-.09-.8.36-.87.54-.02.04-.05.05-.08.03Z"/>
                          <path class="cls-25" d="M45.25,63.17h0s-.05-.08-.03-.13c.1-.21.39-.73,1-.62.03,0,.06.05.05.1h0s-.04.08-.07.07c-.54-.09-.8.36-.87.54-.02.04-.05.05-.08.03Z"/>
                          <path class="cls-25" d="M45.72,63.35h0s-.05-.08-.03-.13c.1-.21.39-.73,1-.62.03,0,.06.05.05.1h0s-.04.08-.07.07c-.54-.09-.8.36-.87.54-.02.04-.05.05-.08.03Z"/>
                          <path class="cls-14" d="M43.84,64.07c-.34-.92-.84-1.13-1.19-1.15-.08,0-.15.06-.16.13l-.1.86c-.02.19.08.36.22.36h1.08c.11,0,.18-.11.14-.21Z"/>
                        </g>
                        <g>
                          <rect class="cls-25" x="49.22" y="64.03" width="5.5" height=".55" rx=".22" ry=".22" transform="translate(-.61 .5) rotate(-.55)"/>
                          <path class="cls-23" d="M49.46,62.37l-.17,1.54c-.02.19.09.36.23.36l4.85-.05c.13,0,.25-.08.31-.23.07-.15.08-.38-.14-.69-.43-.6-1.82-.74-2.53-1.24-.03-.02-.06-.03-.09-.03l-2.21.02c-.13,0-.23.13-.25.3Z"/>
                          <path class="cls-25" d="M51.63,62.95h0s-.05-.08-.03-.13c.09-.21.39-.73.99-.63.04,0,.06.05.05.1h0s-.04.08-.07.07c-.54-.09-.79.37-.87.55-.02.04-.05.05-.08.04Z"/>
                          <path class="cls-25" d="M52.14,63.14h0s-.05-.08-.03-.13c.09-.21.39-.73.99-.63.03,0,.06.05.05.1h0s-.04.08-.07.07c-.54-.09-.79.37-.87.55-.02.04-.05.05-.08.04Z"/>
                          <path class="cls-25" d="M52.61,63.32h0s-.05-.08-.03-.13c.09-.21.39-.73.99-.63.03,0,.06.05.05.1h0s-.04.08-.07.07c-.54-.09-.79.37-.87.55-.02.04-.05.05-.08.04Z"/>
                          <path class="cls-14" d="M50.74,64.06c-.35-.92-.85-1.12-1.2-1.14-.08,0-.15.06-.15.13l-.09.86c-.02.19.09.36.23.36h1.08c.11-.01.18-.12.14-.22Z"/>
                        </g>
                      </g>
                    </g>
                  </g>
                  <rect class="cls-4" x="73.12" y="6.68" width="13.25" height="7.97" rx=".62" ry=".62"/>
                  <rect class="cls-4" x="73.12" y="15.99" width="13.25" height="7.97" rx=".62" ry=".62"/>
                  <rect class="cls-4" x="73.12" y="25.29" width="13.25" height="7.97" rx=".62" ry=".62"/>
                  <rect class="cls-4" x="73.12" y="34.6" width="13.25" height="7.97" rx=".62" ry=".62"/>
                  <g>
                    <path class="cls-20" d="M79.74,7.84c-1.54,0-2.79,1.27-2.79,2.83s1.25,2.83,2.79,2.83,2.79-1.27,2.79-2.83-1.25-2.83-2.79-2.83Z"/>
                    <path class="cls-4" d="M81.65,10.68l-2.76,1.97s-.02,0-.02,0v-3.94s0-.01.02,0l2.76,1.97s0,.01,0,.02Z"/>
                  </g>
                  <g>
                    <path class="cls-20" d="M79.74,17.14c-1.54,0-2.79,1.27-2.79,2.83s1.25,2.83,2.79,2.83,2.79-1.27,2.79-2.83-1.25-2.83-2.79-2.83Z"/>
                    <path class="cls-4" d="M81.65,19.98l-2.76,1.97s-.02,0-.02,0v-3.94s0-.01.02,0l2.76,1.97s0,.01,0,.02Z"/>
                  </g>
                  <g>
                    <path class="cls-20" d="M79.74,26.45c-1.54,0-2.79,1.27-2.79,2.83s1.25,2.83,2.79,2.83,2.79-1.27,2.79-2.83-1.25-2.83-2.79-2.83Z"/>
                    <path class="cls-4" d="M81.65,29.29l-2.76,1.97s-.02,0-.02,0v-3.94s0-.01.02,0l2.76,1.97s0,.01,0,.02Z"/>
                  </g>
                  <g>
                    <path class="cls-20" d="M79.74,35.75c-1.54,0-2.79,1.27-2.79,2.83s1.25,2.83,2.79,2.83,2.79-1.27,2.79-2.83-1.25-2.83-2.79-2.83Z"/>
                    <path class="cls-4" d="M81.65,38.59l-2.76,1.97s-.02,0-.02,0v-3.94s0-.01.02,0l2.76,1.97s0,.01,0,.02Z"/>
                  </g>
                  <g>
                    <path class="cls-21" d="M97.09,7.58h-9.05c-.25,0-.45-.2-.45-.45h0c0-.25.2-.45.45-.45h9.05c.25,0,.45.2.45.45h0c0,.25-.2.45-.45.45Z"/>
                    <path class="cls-26" d="M97.09,9h-9.05c-.25,0-.45-.2-.45-.45h0c0-.25.2-.45.45-.45h9.05c.25,0,.45.2.45.45h0c0,.25-.2.45-.45.45Z"/>
                    <path class="cls-26" d="M97.09,10.29h-9.05c-.25,0-.45-.2-.45-.45h0c0-.25.2-.45.45-.45h9.05c.25,0,.45.2.45.45h0c0,.25-.2.45-.45.45Z"/>
                    <path class="cls-26" d="M94.47,11.58h-6.43c-.25,0-.45-.2-.45-.45h0c0-.25.2-.45.45-.45h6.43c.25,0,.45.2.45.45h0c0,.25-.2.45-.45.45Z"/>
                  </g>
                  <g>
                    <path class="cls-21" d="M97.09,16.88h-9.05c-.25,0-.45-.2-.45-.45h0c0-.25.2-.45.45-.45h9.05c.25,0,.45.2.45.45h0c0,.25-.2.45-.45.45Z"/>
                    <path class="cls-26" d="M97.09,18.3h-9.05c-.25,0-.45-.2-.45-.45h0c0-.25.2-.45.45-.45h9.05c.25,0,.45.2.45.45h0c0,.25-.2.45-.45.45Z"/>
                    <path class="cls-26" d="M97.09,19.59h-9.05c-.25,0-.45-.2-.45-.45h0c0-.25.2-.45.45-.45h9.05c.25,0,.45.2.45.45h0c0,.25-.2.45-.45.45Z"/>
                    <path class="cls-26" d="M97.09,20.89h-9.05c-.25,0-.45-.2-.45-.45h0c0-.25.2-.45.45-.45h9.05c.25,0,.45.2.45.45h0c0,.25-.2.45-.45.45Z"/>
                    <path class="cls-26" d="M89.99,22.16h-1.95c-.25,0-.45-.2-.45-.45h0c0-.25.2-.45.45-.45h1.95c.25,0,.45.2.45.45h0c0,.25-.2.45-.45.45Z"/>
                  </g>
                  <g>
                    <path class="cls-21" d="M97.09,26.19h-9.05c-.25,0-.45-.2-.45-.45h0c0-.25.2-.45.45-.45h9.05c.25,0,.45.2.45.45h0c0,.25-.2.45-.45.45Z"/>
                    <path class="cls-26" d="M97.09,27.61h-9.05c-.25,0-.45-.2-.45-.45h0c0-.25.2-.45.45-.45h9.05c.25,0,.45.2.45.45h0c0,.25-.2.45-.45.45Z"/>
                    <path class="cls-26" d="M95.04,28.9h-7c-.25,0-.45-.2-.45-.45h0c0-.25.2-.45.45-.45h7c.25,0,.45.2.45.45h0c0,.25-.2.45-.45.45Z"/>
                  </g>
                  <g>
                    <path class="cls-21" d="M97.09,35.49h-9.05c-.25,0-.45-.2-.45-.45h0c0-.25.2-.45.45-.45h9.05c.25,0,.45.2.45.45h0c0,.25-.2.45-.45.45Z"/>
                    <path class="cls-26" d="M97.09,36.91h-9.05c-.25,0-.45-.2-.45-.45h0c0-.25.2-.45.45-.45h9.05c.25,0,.45.2.45.45h0c0,.25-.2.45-.45.45Z"/>
                    <path class="cls-26" d="M97.09,38.2h-9.05c-.25,0-.45-.2-.45-.45h0c0-.25.2-.45.45-.45h9.05c.25,0,.45.2.45.45h0c0,.25-.2.45-.45.45Z"/>
                    <path class="cls-26" d="M97.09,39.5h-9.05c-.25,0-.45-.2-.45-.45h0c0-.25.2-.45.45-.45h9.05c.25,0,.45.2.45.45h0c0,.25-.2.45-.45.45Z"/>
                    <path class="cls-26" d="M95.57,40.77h-7.53c-.25,0-.45-.2-.45-.45h0c0-.25.2-.45.45-.45h7.53c.25,0,.45.2.45.45h0c0,.25-.2.45-.45.45Z"/>
                  </g>
                  <rect class="cls-1" x="25.93" y="38" width="44.85" height="2.97" rx=".88" ry=".88"/>
                  <rect class="cls-18" x="27.28" y="39.11" width="42.15" height=".74" rx=".37" ry=".37"/>
                  <path class="cls-5" d="M43.96,39.11h-16.98c-.2,0-.37.17-.37.37h0c0,.2.17.37.37.37h16.98c.11,0,.11-.74,0-.74Z"/>
                </g>
              </g>
            </g>
            <path class="cls-15" d="M100.93,33.29V15.52c0-.26.21-.47.47-.47h0c.26,0,.47.21.47.47v17.77c0,.26-.21.47-.47.47h0c-.26,0-.47-.21-.47-.47Z"/>
            <g>
              <circle class="cls-11" cx="20.28" cy="24.35" r="2.15"/>
              <path class="cls-13" d="M19.39,24.99v-1.28c0-.14.11-.25.25-.25h1.28c.14,0,.25.11.25.25v1.28c0,.14-.11.25-.25.25h-1.28c-.14,0-.25-.11-.25-.25ZM21.11,23.71c0-.1-.08-.19-.19-.19h-1.28c-.1,0-.19.08-.19.19v1.28c0,.1.08.19.19.19h1.28c.1,0,.19-.08.19-.19v-1.28Z"/>
            </g>
          </g>
          <path class="cls-2" d="M16.83,20.35v17.47s-4.89,5.14-8.17,4.06c-2.45-.81-3.36-12.73-2.36-13.96,1-1.23,7.83-10.16,7.83-10.16l2.71,2.59Z"/>
          <path class="cls-6" d="M32.03,12.92c-7.41-.9-9.34,15.85-13.89,20.84-2.26,2.48-4.37,2.65-5.99,2.13-2.46-.8-1.31-5.81-.35-8.21,1.32-3.31,5.03-7.33,5.03-7.33v-9.05l-12.8,11.33c-1.65,1.46-2.77,3.43-3.16,5.6-3.15,17.28,3.3,45.58,3.3,45.58h21.93l-3.27-11.39c-.23-.81-.04-1.68.51-2.31,6.65-7.59,7.09-23.53,7.42-30.2.26-5.2,1.78-12.06,2.54-15.19.21-.86-.38-1.7-1.26-1.81Z"/>
          <path class="cls-17" d="M32.88,14.76l-.87,3.18c-.11.39-.45.67-.85.69-.75.04-1.91-.04-2.28-.75-.57-1.09.82-3.35,1.75-3.81.89-.44,2.44.03,2.26.7Z"/>
          <path class="cls-2" d="M105.64,20.35v17.47s4.89,5.14,8.17,4.06c2.45-.81,3.36-12.73,2.36-13.96-1-1.23-7.83-10.16-7.83-10.16l-2.71,2.59Z"/>
          <path class="cls-6" d="M90.43,12.92c7.41-.9,9.34,15.85,13.89,20.84,2.26,2.48,4.37,2.65,5.99,2.13,2.46-.8,1.31-5.81.35-8.21-1.32-3.31-5.03-7.33-5.03-7.33v-9.05l12.8,11.33c1.65,1.46,2.77,3.43,3.16,5.6,3.15,17.28-3.3,45.58-3.3,45.58h-19.72l2.49-9.69c.46-1.78-.06-3.67-1.34-4.99-8.02-8.25-7.7-22.79-8.02-29.23-.26-5.2-1.78-12.06-2.54-15.19-.21-.86.38-1.7,1.26-1.81Z"/>
          <path class="cls-17" d="M89.58,14.76l.87,3.18c.11.39.45.67.85.69.75.04,1.91-.04,2.28-.75.57-1.09-.82-3.35-1.75-3.81-.89-.44-2.44.03-2.26.7Z"/>
        </g>
      </g>
    </g>
  </g>
</svg>