<?xml version="1.0" encoding="UTF-8"?>
<svg id="_圖層_2" data-name="圖層_2" xmlns="http://www.w3.org/2000/svg" viewBox="0 0 183.56 91.5">
  <defs>
    <style>
      .cls-1 {
        fill: none;
        stroke: #daa02d;
        stroke-miterlimit: 10;
        stroke-width: 1.12px;
      }

      .cls-2 {
        fill: #3e3a39;
      }

      .cls-3 {
        fill: #21b1e0;
      }
    </style>
  </defs>
  <g id="_圖層_1-2" data-name="圖層_1">
    <g>
      <g>
        <path class="cls-3" d="M87.57,52.71c.29-1.67.99-4.68,1.21-5.17.72.02,4.61-.22,5.13-.36l.04.07c-.11.58-.34,1.21-.7,1.48-.41.32-1.37.41-3.33.5-.11.38-.38,1.58-.49,2.14.85.11,1.98.32,2.58.5,1.76.54,2.61,1.35,2.61,2.97,0,2.32-2.16,3.73-4.61,3.73-.97,0-1.57-.16-1.85-.4-.31-.25-.49-.79-.49-1.24l.05-.07c.34.13,1.12.29,1.85.29,1.49,0,2.75-.59,2.75-2.05,0-.92-.63-1.35-1.49-1.62-.92-.27-2.32-.45-3.08-.52l-.18-.25Z"/>
        <path class="cls-3" d="M103.03,47.85c-1.75.27-3.02.81-3.98,1.91-.9,1.04-1.31,2.5-1.31,3.92,0,2.25.9,3.24,1.87,3.24.9,0,1.46-.81,1.46-1.93,0-1.62-1.03-2.02-1.69-2.02-.38,0-.76.07-1.15.27,0-.31.16-.94.41-1.13.4-.34,1.15-.59,1.8-.59,2.02,0,2.77,1.62,2.77,2.99,0,2.27-1.6,3.75-3.84,3.75s-3.93-1.37-3.93-4.5c0-1.84.61-3.37,1.78-4.68,1.53-1.67,3.62-2.21,4.63-2.21.52,0,.94.2,1.19.95l-.02.04Z"/>
        <path class="cls-3" d="M107.78,47.2c1.96,0,3.19,1.17,3.19,2.68,0,1.21-.77,1.85-1.76,2.43,1.42.76,2.2,1.42,2.2,2.86,0,1.8-1.6,3.08-3.82,3.08-2.9,0-3.69-1.66-3.69-2.83,0-1.31.99-2,2.11-2.61-1.28-.72-1.69-1.62-1.69-2.63,0-1.49,1.19-2.99,3.46-2.99h.02ZM107.71,56.98c.86,0,1.51-.58,1.51-1.48,0-.74-.56-1.31-2.11-2.03-.79.5-1.15,1.13-1.15,1.84,0,.95.74,1.67,1.73,1.67h.02ZM107.64,48.48c-.77,0-1.37.54-1.37,1.33s.52,1.3,1.89,1.93c.56-.43.94-.99.94-1.73,0-.86-.5-1.53-1.44-1.53h-.02Z"/>
      </g>
      <g>
        <path class="cls-3" d="M112.98,57.75l2.24-8.99h.92l-2.24,8.99h-.92Z"/>
        <path class="cls-3" d="M119.15,57.95v-9.15h8.75v9.15h-.92v-.4h-6.87v.4h-.96ZM120.11,49.56v7.23h6.87v-7.23h-6.87ZM120.55,50.72v-.6h2.56v-.36h.84v.36h2.6v.6h-2.6v.4h2.2v2.2h-.16c.11.11.24.25.4.44.19.21.32.37.4.48l-.6.36-.28-.36h-.48v.52h1.24v.64h-1.24v.24c.03.61-.31.92-1,.92h-1.12c-.03-.08-.07-.2-.12-.36-.03-.11-.05-.19-.08-.24.13,0,.31.01.52.04h.48c.32,0,.48-.13.48-.4v-.2h-2.84c.32.19.61.39.88.6l-.52.48c-.32-.29-.67-.56-1.04-.8l.32-.28h-.96v-.64h4.16v-.48c-1.36,0-2.69.03-4,.08l-.08-.6h2.6v-.44h-2.16v-2.2h2.16v-.4h-2.56ZM121.75,51.64v.36h1.36v-.36h-1.36ZM121.75,52.44v.4h1.36v-.4h-1.36ZM125.31,51.64h-1.36v.36h1.36v-.36ZM123.95,52.84h1.36v-.4h-1.36v.4ZM123.95,53.71h1.6l-.32-.36.12-.04h-1.4v.4Z"/>
      </g>
      <g>
        <path class="cls-3" d="M87.83,63.86c.16-.95.56-2.66.68-2.93.41,0,2.62-.12,2.91-.21l.02.04c-.06.33-.19.69-.4.84-.24.18-.78.23-1.89.29-.06.21-.21.9-.28,1.22.48.06,1.12.18,1.46.29,1,.31,1.48.77,1.48,1.69,0,1.32-1.23,2.12-2.62,2.12-.55,0-.89-.09-1.05-.22-.17-.14-.28-.45-.28-.71l.03-.04c.19.07.63.16,1.05.16.85,0,1.56-.34,1.56-1.17,0-.52-.36-.77-.85-.92-.52-.15-1.32-.25-1.75-.3l-.1-.14Z"/>
        <path class="cls-3" d="M96.61,61.1c-.99.15-1.72.46-2.26,1.08-.51.59-.75,1.42-.75,2.23,0,1.28.51,1.84,1.06,1.84.51,0,.83-.46.83-1.09,0-.92-.58-1.15-.96-1.15-.21,0-.43.04-.65.15,0-.17.09-.53.23-.64.23-.19.65-.34,1.02-.34,1.14,0,1.57.92,1.57,1.7,0,1.29-.91,2.13-2.18,2.13s-2.23-.78-2.23-2.56c0-1.04.35-1.91,1.01-2.66.87-.95,2.05-1.26,2.63-1.26.3,0,.53.11.67.54v.02Z"/>
        <path class="cls-3" d="M99.33,60.74c1.11,0,1.81.66,1.81,1.52,0,.68-.44,1.05-1,1.38.81.43,1.25.81,1.25,1.62,0,1.02-.91,1.75-2.17,1.75-1.65,0-2.1-.94-2.1-1.61,0-.75.56-1.13,1.2-1.48-.73-.41-.96-.92-.96-1.49,0-.85.67-1.7,1.96-1.7h.01ZM99.29,66.29c.49,0,.86-.33.86-.84,0-.42-.32-.75-1.2-1.16-.45.29-.65.64-.65,1.04,0,.54.42.95.98.95h.01ZM99.24,61.46c-.44,0-.78.31-.78.76s.3.74,1.07,1.09c.32-.25.53-.56.53-.98,0-.49-.29-.87-.82-.87h-.01Z"/>
        <path class="cls-3" d="M105.63,62.27c.24,0,.58.04.84.11.25.05.57.13.77.13.31,0,.64-.06.79-.11.03.06.05.16.05.26,0,.37-.17.55-.52.59-.07.01-.18.01-.3.02.08.19.12.41.12.58,0,1.04-.82,1.55-1.79,1.55-.16,0-.28,0-.37-.04-.07.07-.16.16-.16.25,0,.14.1.26.46.29.41.03.82.05,1.22.08.94.06,1.3.59,1.3,1.2,0,1.21-1.21,1.9-2.48,1.9s-2.02-.58-2.02-1.35c0-.44.48-.75.94-.96-.31-.12-.61-.43-.62-.87,0-.04.02-.09.09-.13.19-.12.51-.33.71-.53-.47-.17-.91-.58-.91-1.33,0-.98.82-1.64,1.89-1.64h.01ZM104.62,67.56c0,.45.56.72,1.23.72.62,0,1.13-.25,1.13-.7,0-.27-.15-.5-.72-.57-.32-.05-.69-.07-.96-.06-.12,0-.28.03-.36.08-.18.1-.33.28-.33.52h0ZM105.58,62.93c-.43,0-.68.42-.68.9,0,.57.3.92.74.92s.69-.39.69-.89c0-.45-.17-.93-.73-.93h-.01Z"/>
        <path class="cls-3" d="M108.26,62.8c.08-.23.47-.53.75-.53.45,0,.63.43.64,1.06.3-.7.73-1.06,1.27-1.06.19,0,.39.09.48.17.05.11.04.41-.06.6-.04.21-.25.46-.4.48-.2-.08-.32-.1-.49-.1-.16,0-.46.12-.62.55-.06.16-.09.28-.09.5v2.14c0,.16-.02.25-.22.29-.36.04-.67.05-1.04.05.02-.54.03-1.17.03-1.86v-1.73c0-.23-.06-.42-.24-.52v-.04Z"/>
        <path class="cls-3" d="M113.79,62.27c1.47,0,2.25,1.04,2.25,2.31,0,1.43-.93,2.43-2.36,2.43-1.32,0-2.26-.88-2.26-2.33s.99-2.41,2.36-2.41h.01ZM113.68,63.03c-.62,0-.96.64-.96,1.52,0,1.16.49,1.71,1.07,1.71.63,0,.95-.62.95-1.56,0-.87-.31-1.67-1.05-1.67h-.01Z"/>
        <path class="cls-3" d="M116.73,63.6c0-.63-.02-.94-.04-1.14.23-.06.82-.12,1.08-.12.15,0,.19.05.19.64v2.15c0,.79.47.94.84.94.34,0,.6-.16.77-.32v-2.95c0-.3.03-.36.21-.4.45-.05.71-.07,1.05-.07,0,.21-.03.95-.03,1.84v1.56c0,.41.13.51.41.56v.06c-.04.31-.35.65-.61.65-.55,0-.78-.27-.89-.65-.27.25-.57.41-.78.51-.2.08-.41.14-.65.14-1.09,0-1.55-.73-1.55-1.73v-1.69Z"/>
        <path class="cls-3" d="M123.18,68.73c0,.17-.02.24-.23.28-.35.04-.65.05-1.03.05.02-.4.03-.97.03-1.67v-4.02c0-.27-.05-.46-.19-.51v-.07c.12-.27.43-.52.78-.52s.51.32.57.6c.56-.39.99-.6,1.44-.6,1.06,0,1.83.87,1.83,2.16,0,1.57-1.14,2.59-2.46,2.59-.29,0-.55-.07-.73-.17v1.89ZM123.18,66.1c.14.06.39.11.58.11.64,0,1.31-.48,1.31-1.62,0-.79-.42-1.37-1.05-1.37-.34,0-.66.16-.84.29v2.59Z"/>
        <path class="cls-3" d="M128.52,62.27c.41,0,.81.1,1.14.36.01.27-.11.66-.47.63-.2-.09-.46-.16-.7-.16-.31,0-.52.16-.52.41,0,.21.16.34.38.46.19.11.6.3.84.42.51.29.72.67.72,1.12,0,1.01-.9,1.5-1.83,1.5-.4,0-.83-.11-1.1-.29-.13-.09-.23-.21-.23-.37.01-.21.12-.44.27-.55.3.18.74.37,1.15.37.37,0,.58-.17.58-.43,0-.18-.1-.32-.4-.47-.26-.14-.52-.27-.78-.41-.42-.24-.72-.62-.72-1.17,0-.91.79-1.43,1.67-1.43h.01Z"/>
      </g>
      <g>
        <path class="cls-2" d="M19.63,11.49c0,.69.03,5.08.03,5.92,0,.21-.08.24-.24.27-.24.02-.57.04-.72.04,0-.55.01-2.7.01-5.34-.36.15-1.17.39-1.6.51l-.03-.03.24-.59c.85-.28,1.82-.64,2.26-.84l.06.06Z"/>
        <path class="cls-2" d="M24.51,11.49c0,.69.03,5.08.03,5.92,0,.21-.08.24-.24.27-.24.02-.57.04-.72.04,0-.55.01-2.7.01-5.34-.36.15-1.17.39-1.6.51l-.03-.03.24-.59c.85-.28,1.82-.64,2.26-.84l.06.06Z"/>
        <path class="cls-2" d="M26.58,17.1c1.81-1.85,2.47-2.9,2.47-3.78,0-.78-.41-1.17-1.06-1.17-.51,0-.98.34-1.19.52-.17.13-.29.13-.38-.04-.05-.08-.07-.2-.07-.29.47-.58,1.2-.92,1.9-.92,1.1,0,1.75.71,1.75,1.8,0,.55-.2,1-.54,1.53-.34.54-1.12,1.42-1.89,2.21.77.05,1.94.04,2.86,0-.04.25-.29.53-.42.59-.11.07-.51.13-1.07.13-1.06,0-1.99,0-2.51-.1l-.03-.08.19-.4Z"/>
      </g>
      <g>
        <path class="cls-2" d="M33.95,13.54l-.43-.54c.91-.68,1.52-1.61,1.84-2.78l.68.13c-.1.34-.22.66-.34.96h5.59v.63h-2.83v1.44h2.51v.62h-2.51v1.94h3.11v.63h-3.11v2.01h-.66v-2.01h-4.16v-.63h1.49v-2.57h2.67v-1.44h-2.42c-.38.64-.85,1.17-1.42,1.6ZM37.8,15.94v-1.94h-2.03v1.94h2.03Z"/>
        <path class="cls-2" d="M44.9,14.52c-.26.16-.52.32-.77.46v2.75c0,.45-.23.67-.68.67h-.64l-.14-.59c.2.02.39.04.57.04s.27-.1.27-.28v-2.28c-.29.13-.57.25-.85.36l-.15-.61c.34-.11.68-.23,1-.38v-2.11h-.91v-.61h.91v-1.63h.62v1.63h.77v.61h-.77v1.8c.26-.14.52-.31.77-.48v.64ZM47.44,13.21h-1.62v5.31h-.59v-7.9h2.21v2.59ZM46.89,11.08h-1.06v.63h1.06v-.63ZM45.82,12.75h1.06v-.61h-1.06v.61ZM47.53,13.81v-.46h.54v.46h1.36v.45h-1.36v.46h1.22v1.85h-1.22v.12c.43.23.87.49,1.32.77l-.29.45c-.41-.36-.75-.63-1.04-.82v1.35h-.52v-1.65c-.29.53-.72.97-1.29,1.33l-.28-.47c.62-.29,1.08-.65,1.38-1.09h-1.02v-1.85h1.2v-.46h-1.33v-.45h1.33ZM47.62,15.07h-.91v1.13h.91v-1.13ZM47.42,15.94l-.22.1c-.08-.25-.17-.47-.26-.66l.23-.07c.09.2.18.41.25.63ZM48.91,15.07h-.92v1.13h.92v-1.13ZM48.13,13.2v-2.58h2.27v7.24c0,.43-.21.65-.61.65-.31,0-.62,0-.93-.03l-.13-.52c.3.02.58.04.85.04.16,0,.25-.11.25-.31v-4.47h-1.69ZM48.63,15.33c-.04.25-.1.49-.19.69l-.23-.06c.08-.18.14-.4.18-.67l.24.04ZM49.82,11.09h-1.13v.62h1.13v-.62ZM48.69,12.75h1.13v-.6h-1.13v.6Z"/>
        <path class="cls-2" d="M55.31,13.67v-1.97h-.02c-.7.87-1.85,1.59-3.44,2.15l-.34-.58c1.46-.41,2.54-.95,3.24-1.58h-2.83v-.59h3.38v-.83h.63v.83h3.38v.59h-3.38v.31c1.39.38,2.64.79,3.75,1.24l-.41.47c-1.08-.47-2.2-.89-3.34-1.25v1.21h2.38v3.31h-5.38v-3.31h2.38ZM59.48,17.69v.6h-7.73v-.6h7.73ZM57.69,15.07v-.82h-4.12v.82h4.12ZM57.69,15.62h-4.12v.79h4.12v-.79Z"/>
        <path class="cls-2" d="M62.65,12.55v.51c-.31.53-.67,1.04-1.08,1.55h1.13v.43c-.12.72-.26,1.31-.43,1.79.09.05.17.12.25.19.28.27.57.48.87.61.29.12.7.18,1.22.19.5,0,1.06,0,1.7,0s1.41-.02,2.4-.04l-.14.62h-2.18c-.68,0-1.3,0-1.82-.03-.63-.02-1.1-.1-1.42-.23-.38-.15-.73-.39-1.04-.71-.07-.06-.15-.09-.22-.09-.22,0-.53.4-.94,1.19l-.48-.42c.41-.79.82-1.25,1.2-1.37.17-.47.31-.99.41-1.58h-1.29v-.5c.44-.5.81-1.02,1.12-1.52h-1.32v-.59h2.04ZM62.57,11.67l-.42.42c-.32-.41-.78-.84-1.36-1.31l.42-.4c.54.42.99.85,1.36,1.28ZM62.92,12.11v-.6h1.21c-.13-.36-.26-.7-.41-1.03l.6-.17c.18.41.32.8.42,1.15l-.12.05h.95v.6h-1.4v.51c0,.2,0,.4-.02.58h1.32c0,1.84-.05,2.98-.13,3.41-.06.38-.37.58-.93.58-.09,0-.23,0-.42-.03l-.14-.55c.18.02.34.04.49.04.26,0,.41-.09.46-.27.05-.29.09-1.16.1-2.62h-.78c-.11,1.45-.43,2.54-.97,3.28l-.45-.4c.58-.83.86-2.17.88-4.02v-.51h-.67ZM65.7,13.06l-.37-.46c.51-.57.86-1.33,1.04-2.29l.59.11c-.07.32-.15.63-.24.92h1.93v.59h-2.17c-.22.44-.48.82-.78,1.12ZM68.45,12.72v.56c-.25.3-.52.59-.82.87v.45h1.05v.58h-1.05v1.48c0,.41-.22.62-.65.62h-.67l-.15-.58c.18,0,.39.02.6.02.18,0,.27-.09.27-.27v-1.27h-1.21v-.58h1.21v-.53c.32-.32.57-.59.73-.79h-1.56v-.56h2.24Z"/>
        <path class="cls-2" d="M76.52,14.17v2.98h-1.58v.59c0,.12.06.18.21.18h1.52c.14,0,.23-.04.29-.1.07-.08.12-.32.14-.7l.57.18c-.05.52-.15.85-.3.97-.13.09-.32.14-.59.14h-1.79c-.44,0-.66-.19-.66-.55v-.72h-1.14c-.16.35-.45.64-.85.86-.5.26-1.31.47-2.47.62l-.23-.54c1.04-.11,1.78-.24,2.24-.42.32-.14.56-.31.7-.52h-1.87v-2.98h5.81ZM72.1,13.32h1.26v.45h-3.32v-3.3h3.21v.44h-1.14v.55h.98v1.29h-.98v.58ZM71.59,11.46v-.55h-.98v.55h.98ZM72.58,12.35v-.5h-1.97v.5h1.97ZM71.59,13.32v-.58h-.98v.58h.98ZM75.92,15.03v-.49h-4.62v.49h4.62ZM75.92,15.85v-.45h-4.62v.45h4.62ZM75.92,16.22h-4.62v.5h4.62v-.5ZM73.56,12.08l-.35-.42c.52-.35.87-.82,1.05-1.41l.54.09c-.04.13-.09.26-.14.39h2.7v.45h-2.93c-.23.36-.51.67-.86.91ZM77.34,12.35v1.41h-3.62v-1.41h3.62ZM74.86,12.74h-.67v.63h.67v-.63ZM76.94,11.58v.4h-2.53v-.4h2.53ZM75.82,12.74h-.57v.63h.57v-.63ZM76.88,12.74h-.66v.63h.66v-.63Z"/>
        <path class="cls-2" d="M82.3,12.42v-.76h-3.55v-.61h3.55v-.77h.66v.77h3.51v.61h-3.51v.76h2.78v3.5h-2.78v.77h3.64v.63h-3.64v1.22h-.66v-1.22h-3.67v-.63h3.67v-.77h-2.81v-3.5h2.81ZM82.3,13.88v-.86h-2.19v.86h2.19ZM82.3,14.46h-2.19v.85h2.19v-.85ZM82.96,13.88h2.16v-.86h-2.16v.86ZM85.12,14.46h-2.16v.85h2.16v-.85Z"/>
        <path class="cls-2" d="M88.21,11.29v-.61h5.46v.34c-.16.84-.36,1.55-.59,2.13h1.75v.57c-.31,1.19-.9,2.19-1.77,3.02.68.48,1.5.9,2.46,1.26l-.44.58c-1-.41-1.85-.87-2.53-1.4-.75.58-1.66,1.04-2.73,1.41l-.32-.59c.99-.33,1.84-.76,2.52-1.27-.92-.85-1.51-1.84-1.78-2.97h-.14c-.24,2.1-.94,3.69-2.07,4.77l-.5-.43c1.31-1.22,1.99-3.19,2.01-5.89v-.92h-1.31ZM92.45,13.15c.2-.53.38-1.15.52-1.86h-2.8v.92c0,.32-.02.64-.04.95h2.31ZM94.15,13.75h-3.34c.27.97.84,1.83,1.7,2.56.77-.71,1.32-1.57,1.64-2.56Z"/>
        <path class="cls-2" d="M96.65,10.96c.99-.11,1.87-.3,2.65-.58l.22.59c-.32.11-.67.2-1.04.29v1.5h1.04v.62h-1.04v.42c.45.41.89.88,1.34,1.4l-.36.53c-.38-.59-.71-1.06-.98-1.41v4.19h-.62v-4.11c-.29.85-.67,1.62-1.14,2.31l-.29-.72c.65-.77,1.11-1.64,1.38-2.61h-1.21v-.62h1.26v-1.38c-.34.06-.7.12-1.08.16l-.13-.59ZM101.48,11.03c.11-.24.18-.5.23-.76l.59.07c-.05.24-.11.48-.19.69h1.23c-.11-.22-.23-.43-.35-.62l.57-.09c.12.22.23.45.34.71h.86v.56h-1.91v.67c0,.18.09.27.28.27h.69c.11,0,.18-.03.22-.06.05-.05.1-.22.13-.5l.53.16c-.04.43-.13.69-.25.79-.12.07-.3.11-.53.11h-.95c-.49,0-.72-.22-.72-.65v-.79h-.39c-.4.68-1.02,1.21-1.85,1.58l-.31-.5c.65-.25,1.14-.61,1.49-1.08h-1.41v-.56h1.72ZM104.3,18.57h-.61v-.37h-2.77v.37h-.61v-3.02h4v3.02ZM101.01,13.02v.57l3.12-.14v.49l-3.12.14v.21c0,.2.1.3.31.3h3.11v.51h-3.36c-.46,0-.68-.18-.68-.54v-1.53h.63ZM103.69,16.67v-.64h-2.77v.64h2.77ZM103.69,17.71v-.6h-2.77v.6h2.77Z"/>
        <path class="cls-2" d="M107.46,18.55h-.62v-4.51c-.29.92-.67,1.75-1.13,2.49l-.27-.66c.64-.94,1.1-2,1.37-3.19h-1.22v-.62h1.24v-1.75h.62v1.75h1.06v.62h-1.06v.58c.43.5.86,1.05,1.31,1.68l-.36.55c-.37-.63-.68-1.14-.95-1.53v4.58ZM108.61,18.49l-.35-.56c2.12-.69,3.7-2.03,4.75-4l.55.29c-.43.81-.95,1.51-1.53,2.11.65.58,1.21,1.14,1.66,1.71l-.47.47c-.4-.56-.93-1.15-1.59-1.78-.86.77-1.86,1.37-3.02,1.76ZM110.99,11.29c-.13-.32-.27-.62-.43-.89l.67-.11c.14.29.27.62.4,1h2v.59h-2.47c-.5.87-.93,1.49-1.31,1.86.58-.04,1.14-.07,1.7-.12.23-.32.44-.66.62-1.02l.52.28c-.9,1.78-2.21,3.01-3.96,3.66l-.35-.54c1.09-.39,2-.99,2.74-1.82-.63.04-1.31.07-2.02.1l-.13-.53c.05-.02.09-.04.13-.05.36-.23.82-.84,1.4-1.82h-1.75v-.59h2.25Z"/>
        <path class="cls-2" d="M115.71,15.6c-.11,1.12-.39,2.1-.84,2.93l-.45-.47c.49-.92.74-2,.76-3.26v-3.74c1.07-.13,1.91-.38,2.52-.75l.43.5c-.65.35-1.44.59-2.38.73v1.04h2.3v3.01h-2.35ZM115.75,14.81c0,.06,0,.13,0,.2h1.72v-1.78h-1.71v1.59ZM119.42,15.04c-.02,1.56-.22,2.73-.61,3.51l-.58-.29c.39-.77.59-1.84.61-3.22v-4.07c1.27-.05,2.35-.26,3.23-.63l.32.57c-.89.34-1.88.54-2.98.59v1.58h3.29v.62h-1.02v4.85h-.64v-4.85h-1.63v1.34Z"/>
        <path class="cls-2" d="M123.81,18.49l-.13-.61c.23.03.47.05.68.05s.34-.14.34-.42v-2.26c-.36.14-.72.27-1.08.39l-.16-.61c.42-.11.84-.24,1.24-.41v-1.98h-1.08v-.62h1.08v-1.67h.63v1.67h.75v.62h-.75v1.71c.25-.13.51-.25.77-.4v.45c1.08-.53,1.93-1.2,2.54-2h.52c.51.81,1.4,1.52,2.66,2.14l-.35.54c-.41-.22-.78-.43-1.11-.67v.33h-2.95v-.37c-.38.27-.78.5-1.2.7l-.27-.42c-.2.11-.4.21-.6.31v2.7c0,.54-.25.82-.76.82h-.77ZM127.27,11.1v-.81h.59v.81h.72v.58h-.72v.79h-.59v-.79h-1.17v-.58h1.17ZM130.95,18.51h-.63v-.44h-2.79v.44h-.63v-2.94h4.05v2.94ZM130.32,17.46v-1.3h-2.79v1.3h2.79ZM128.89,12.92c-.38.48-.78.89-1.22,1.25h2.37c-.47-.39-.86-.8-1.14-1.25ZM130.44,10.29v.81h1.16v.58h-1.16v.79h-.59v-.79h-.73v-.58h.73v-.81h.59Z"/>
        <path class="cls-2" d="M134.78,10.85v-.55h.63v.55h1.58v.52h-1.58v.63h2.32c-.02-.54-.03-1.1-.03-1.69h.61c0,.61.02,1.17.04,1.69h2.27v.54h-2.24c.04,1.04.13,1.87.24,2.49.04.25.1.48.15.69.34-.73.62-1.6.83-2.61l.55.24c-.29,1.3-.67,2.37-1.13,3.2.07.22.15.42.24.58.23.43.4.66.55.66s.27-.5.4-1.5l.53.29c-.2,1.28-.47,1.93-.83,1.93-.31,0-.63-.28-.98-.83-.11-.16-.2-.35-.29-.55-.37.49-.77.87-1.22,1.15l-.33-.51.16-.11h-1.87v.84h-.59v-.84h-2.11v-.53h2.11v-.49h-1.64v-2.55h1.64v-.47h-1.99v-.49h1.99v-.42h.59v.42h1.99v.49h-1.99v.47h1.67v2.55h-1.67v.49h1.97v.46c.39-.31.73-.69,1.04-1.16-.13-.38-.23-.79-.31-1.24-.15-.72-.25-1.61-.31-2.66h-5.18v-.54h2.2v-.63h-1.63v-.52h1.63ZM134.82,15.16v-.58h-1.13v.58h1.13ZM134.82,15.58h-1.13v.61h1.13v-.61ZM135.35,15.16h1.13v-.58h-1.13v.58ZM136.48,15.58h-1.13v.61h1.13v-.61ZM140.23,11.55l-.47.33c-.23-.37-.56-.77-.97-1.22l.47-.3c.42.45.75.84.97,1.18Z"/>
        <path class="cls-2" d="M143.08,11.57c-.14-.41-.3-.79-.5-1.17l.61-.17c.21.45.37.86.5,1.23l-.29.11h1.47v.62h-1.86v1.22h1.76c0,2.3-.05,3.73-.15,4.26-.09.54-.5.82-1.24.82-.07,0-.18,0-.33-.03l-.15-.58c.15.02.28.04.39.04.42,0,.68-.16.75-.49.07-.36.12-1.5.13-3.41h-1.15c-.04,2.04-.4,3.55-1.06,4.51l-.5-.43c.63-.92.95-2.39.96-4.4v-1.5h-.77v-.62h1.45ZM145.09,13.24l-.49-.42c.68-.65,1.19-1.5,1.53-2.58l.6.24c-.11.31-.22.58-.33.85h3.02v.62h-3.34c-.31.52-.64.95-1,1.3ZM145.45,17.86c.11-.05.17-.16.17-.31v-4.31c1.13-.13,2.2-.37,3.2-.75l.34.55c-.86.32-1.84.56-2.91.7v3.92c.49-.13.96-.26,1.44-.42l.11.61c-.61.2-1.35.41-2.21.6l-.14-.6ZM148.06,15.21c.48-.25.88-.58,1.22-.95l.41.48c-.39.4-.86.74-1.4,1.03.39.86.88,1.62,1.49,2.25l-.44.5c-1.06-1.13-1.8-2.59-2.21-4.38l.51-.28c.11.49.25.94.42,1.36Z"/>
        <path class="cls-2" d="M153.1,10.65c-.5,1-1.31,1.88-2.43,2.65l-.19-.65c.94-.67,1.61-1.42,2.03-2.27l.58.27ZM153.52,12.7c-.26.5-.59.99-.98,1.44v4.41h-.64v-3.75c-.36.32-.75.64-1.18.94l-.19-.65c1.1-.77,1.9-1.66,2.4-2.66l.59.27ZM158.64,13.16v.64h-1.46v3.93c0,.52-.3.78-.87.78h-1.32l-.13-.64c.43.03.84.05,1.23.05.29,0,.44-.12.44-.35v-3.77h-2.84v-.64h4.95ZM158.24,10.87v.64h-4.31v-.64h4.31Z"/>
        <path class="cls-2" d="M167.28,18.56h-.61v-.39h-6.12v.39h-.61v-7.9h7.35v7.9ZM166.67,17.62v-6.44h-6.12v6.44h6.12ZM163.3,11.74v-.34h.58v.34h2.14v.42h-2.14v.37h1.76v1.91h0c.23.27.43.52.58.75l-.39.27c-.07-.13-.16-.24-.25-.37l-.42.03v.53h1.01v.47h-1.01v.59c0,.39-.22.58-.65.58h-.89l-.12-.5c.29.02.57.04.83.04.18,0,.27-.09.27-.25v-.47h-3.55v-.47h3.55v-.5c-.9.04-2.01.09-3.32.13l-.05-.39c.76-.02,1.46-.03,2.09-.04v-.4h-1.73v-1.91h1.73v-.37h-2.12v-.42h2.12ZM163.09,16.75l-.27.41c-.37-.27-.75-.48-1.13-.62l.23-.35c.43.15.82.34,1.17.57ZM163.36,13.34v-.46h-1.25v.46h1.25ZM163.36,13.64h-1.25v.47h1.25v-.47ZM163.83,13.34h1.29v-.46h-1.29v.46ZM165.12,13.64h-1.29v.47h1.29v-.47ZM163.89,14.82c.52-.02,1.01-.04,1.44-.05l-.27-.32h-1.17v.38Z"/>
      </g>
      <g>
        <path class="cls-2" d="M16.09,22.82h-1.73c-.15,0-.21-.07-.15-.21.09-.22.2-.35.27-.44.13.04.35.04,1.34.04h3.09c0,.28-.21.55-.34.6h-1.64v3.95c0,.63.02.93.03,1.11-.21.05-.48.07-.72.07-.1,0-.15-.03-.15-.16v-4.97Z"/>
        <path class="cls-2" d="M20.63,23.82c1.26,0,1.96.87,1.96,2.05s-.78,2.13-2.01,2.13c-1.33,0-2-.97-2-2.05,0-1.2.84-2.13,2.03-2.13h0ZM20.56,24.35c-.59,0-1.13.54-1.13,1.5,0,1.08.55,1.62,1.23,1.62.54,0,1.09-.45,1.09-1.53,0-.77-.34-1.58-1.18-1.58h0Z"/>
        <path class="cls-2" d="M23.56,24.99c0-.56-.02-.84-.04-1.03.15-.04.54-.09.7-.09.09,0,.13.05.13.56,0,.6,0,1.24,0,1.83,0,.93.48,1.06.89,1.06s.79-.27.94-.45v-2.64c0-.23.03-.26.15-.31.26-.03.47-.05.68-.05,0,.2-.03.84-.03,1.63v1.43c0,.44.13.53.37.57v.05c0,.18-.23.45-.43.45-.38,0-.6-.25-.65-.65-.28.3-.57.45-.76.53-.18.07-.37.12-.59.12-.93,0-1.37-.61-1.37-1.51v-1.51Z"/>
        <path class="cls-2" d="M28.16,24.15c.08-.14.37-.34.53-.34.25,0,.43.32.43.9.29-.59.68-.9,1.11-.9.2,0,.38.1.44.17,0,.11-.02.34-.11.47-.05.11-.16.19-.27.18-.13-.05-.23-.06-.33-.06-.2,0-.5.19-.69.63-.06.15-.1.28-.1.48v2c0,.14-.03.2-.16.22-.24.03-.45.04-.66.04.02-.34.03-.87.03-1.67v-1.52c0-.25-.05-.45-.21-.57v-.04Z"/>
        <path class="cls-2" d="M34.3,24.21c.35-.19.83-.4,1.22-.4.84,0,1.71.61,1.71,1.92,0,1.44-1.12,2.27-2.44,2.27-.43,0-.89-.1-1.12-.23-.11-.05-.16-.11-.16-.27v-4.63c0-.55-.02-.83-.04-1.01.19-.06.56-.13.7-.13.11,0,.14.04.14.59v1.89ZM34.3,27.37c.16.05.39.08.57.08.76,0,1.51-.5,1.51-1.62,0-.86-.48-1.38-1.25-1.38-.22,0-.62.12-.83.24v2.68Z"/>
        <path class="cls-2" d="M38.18,24.99c0-.56-.02-.84-.04-1.03.15-.04.54-.09.7-.09.09,0,.13.05.13.56,0,.6,0,1.24,0,1.83,0,.93.48,1.06.89,1.06s.79-.27.94-.45v-2.64c0-.23.03-.26.15-.31.26-.03.47-.05.68-.05,0,.2-.03.84-.03,1.63v1.43c0,.44.13.53.37.57v.05c0,.18-.23.45-.43.45-.38,0-.6-.25-.65-.65-.28.3-.57.45-.76.53-.18.07-.37.12-.59.12-.93,0-1.37-.61-1.37-1.51v-1.51Z"/>
        <path class="cls-2" d="M44.11,23.82c.36,0,.73.11.95.32,0,.19-.11.45-.35.43-.17-.1-.43-.17-.64-.17-.34,0-.59.2-.59.49,0,.25.15.4.36.51.22.13.57.28.84.43.41.23.6.55.6.94,0,.87-.76,1.25-1.5,1.25-.41,0-.78-.12-.99-.27-.09-.06-.16-.16-.15-.28,0-.15.08-.29.18-.36.28.2.68.34,1.02.34.44,0,.67-.21.67-.53,0-.22-.14-.37-.44-.54-.25-.14-.49-.25-.71-.36-.39-.21-.64-.53-.64-.99,0-.75.65-1.19,1.38-1.19h0Z"/>
        <path class="cls-2" d="M49.4,23.82c.36,0,.73.11.95.32,0,.19-.11.45-.35.43-.17-.1-.43-.17-.64-.17-.34,0-.59.2-.59.49,0,.25.15.4.36.51.22.13.57.28.84.43.41.23.6.55.6.94,0,.87-.76,1.25-1.5,1.25-.41,0-.78-.12-.99-.27-.09-.06-.16-.16-.15-.28,0-.15.08-.29.18-.36.28.2.68.34,1.02.34.44,0,.67-.21.67-.53,0-.22-.14-.37-.44-.54-.25-.14-.49-.25-.71-.36-.39-.21-.64-.53-.64-.99,0-.75.65-1.19,1.38-1.19h0Z"/>
        <path class="cls-2" d="M52.28,29.57c0,.15-.03.18-.18.22-.22.03-.42.04-.64.04.02-.26.03-.79.03-1.59v-3.54c0-.28-.06-.47-.15-.52v-.05c.1-.15.35-.31.54-.31.2,0,.35.25.37.58.54-.4,1-.59,1.4-.59.83,0,1.63.63,1.63,1.92,0,1.38-1.01,2.26-2.14,2.26-.34,0-.66-.1-.83-.22v1.79ZM52.28,27.25c.18.1.46.19.74.19.56,0,1.39-.38,1.39-1.6,0-.8-.45-1.35-1.1-1.35-.42,0-.87.27-1.03.43v2.33Z"/>
        <path class="cls-2" d="M58.05,23.82c1.26,0,1.96.87,1.96,2.05s-.78,2.13-2.01,2.13c-1.33,0-2-.97-2-2.05,0-1.2.83-2.13,2.03-2.13h0ZM57.98,24.35c-.59,0-1.13.54-1.13,1.5,0,1.08.55,1.62,1.23,1.62.54,0,1.09-.45,1.09-1.53,0-.77-.34-1.58-1.18-1.58h0Z"/>
        <path class="cls-2" d="M63.23,27.22c.04.18,0,.41-.17.54-.18.15-.53.25-.85.25-.82,0-1.13-.51-1.13-1.2v-2.31c-.32,0-.45-.11-.45-.21.1-.18.67-.71.81-.83.12-.11.27-.2.48-.23-.02.28-.04.5-.04.7h1.44c-.09.47-.29.52-.45.53-.31.02-.35.03-1,.03-.05.91-.04,1.85,0,2.24.05.53.34.66.64.66.27,0,.54-.09.69-.19l.03.02Z"/>
        <path class="cls-2" d="M69.21,27.22c-.02.21-.12.45-.25.55-.22.14-.59.23-.99.23-.94,0-2.06-.46-2.06-2.03,0-1.27.96-2.16,2.2-2.16.64,0,1.07.23,1.16.34,0,.25-.15.5-.4.44-.21-.09-.49-.17-.79-.17-.79,0-1.33.61-1.33,1.46,0,1.16.84,1.49,1.47,1.49.34,0,.73-.08.96-.18l.03.03Z"/>
        <path class="cls-2" d="M70.89,24.41c.35-.29.8-.6,1.35-.6,1.02,0,1.33.81,1.33,1.68v1.23c0,.55,0,.93.02,1.15-.18.04-.43.07-.69.07-.1,0-.13-.05-.13-.15v-2.23c0-.8-.38-1.1-.88-1.1-.43,0-.83.28-1.01.46v2.76c0,.15-.04.21-.17.23-.23.04-.44.04-.65.04.02-.34.03-.87.03-1.67v-3.4c0-.54-.02-.83-.04-1.01.24-.07.55-.13.7-.13.1,0,.14.04.14.59v2.09Z"/>
        <path class="cls-2" d="M77.77,27.15c0,.3-.21.57-.37.65-.15.08-.53.2-.9.2-1.27,0-1.96-.75-1.96-2.03,0-1.13.69-2.15,1.9-2.15,1.05,0,1.5.78,1.52,1.52,0,.09,0,.21-.02.28-.03.15-.47.27-.79.33-.25.04-1.15.05-1.81.03.02.89.57,1.4,1.37,1.4.42,0,.87-.15,1.03-.25l.03.03ZM76.33,24.32c-.44,0-.89.41-.95,1.13.64.02,1.44,0,1.61,0,.11,0,.19-.08.19-.19,0-.54-.27-.94-.84-.94h0Z"/>
        <path class="cls-2" d="M81.9,27.22c-.02.21-.12.45-.25.55-.22.14-.59.23-.99.23-.94,0-2.06-.46-2.06-2.03,0-1.27.96-2.16,2.2-2.16.64,0,1.07.23,1.16.34,0,.25-.15.5-.4.44-.21-.09-.49-.17-.79-.17-.79,0-1.33.61-1.33,1.46,0,1.16.84,1.49,1.47,1.49.34,0,.73-.08.96-.18l.03.03Z"/>
        <path class="cls-2" d="M83.58,25.8c.54-.51,1.55-1.62,1.9-1.99.14,0,.32,0,.5.06.16.05.17.13-.08.39-.38.42-.97.98-1.46,1.46.36.49,1.43,1.69,1.87,2.1v.04c-.13.05-.36.1-.59.1s-.39-.09-.55-.28c-.33-.35-1.23-1.31-1.58-1.82v1.81c0,.18-.05.23-.23.25-.18.02-.31.03-.6.03.02-.36.03-.9.03-1.66v-3.41c0-.54-.02-.82-.04-1.01.15-.07.57-.13.7-.13.1,0,.14.04.14.59v3.48Z"/>
        <path class="cls-2" d="M88.21,23.82c.36,0,.73.11.95.32,0,.19-.11.45-.35.43-.17-.1-.43-.17-.64-.17-.34,0-.59.2-.59.49,0,.25.15.4.36.51.22.13.57.28.84.43.41.23.6.55.6.94,0,.87-.76,1.25-1.5,1.25-.41,0-.78-.12-.99-.27-.09-.06-.16-.16-.15-.28,0-.15.08-.29.18-.36.28.2.68.34,1.02.34.44,0,.67-.21.67-.53,0-.22-.14-.37-.44-.54-.25-.14-.49-.25-.71-.36-.39-.21-.64-.53-.64-.99,0-.75.65-1.19,1.38-1.19h0Z"/>
        <path class="cls-2" d="M95.51,27.42c0,.39-.21.58-.61.58s-.59-.27-.65-.56c-.24.26-.66.56-1.15.56-.63,0-1.07-.48-1.07-1.04,0-.97,1.24-1.23,1.74-1.36.16-.04.35-.07.48-.09v-.24c0-.4-.24-.82-.78-.82-.31,0-.64.15-.88.31-.27.13-.41-.06-.44-.34.28-.26.89-.61,1.51-.61.93,0,1.37.66,1.37,1.53,0,.39-.03,1.23-.02,1.79,0,.17.12.28.3.28.05,0,.14,0,.19-.03l.02.03ZM92.81,26.86c0,.33.26.52.58.52.37,0,.64-.23.78-.43.05-.07.06-.15.06-.32v-.64c-.74.1-1.43.35-1.43.85h0Z"/>
        <path class="cls-2" d="M99.06,25.5c0-.69-.31-1.04-.84-1.04-.46,0-.82.29-1.03.53v2.7c0,.18-.04.21-.19.23-.21.04-.42.03-.64.04.02-.34.03-.87.03-1.67v-1.53c0-.34-.05-.49-.16-.58v-.04c.08-.14.36-.31.53-.31.29,0,.37.45.39.67.38-.37.88-.68,1.38-.68,1.06,0,1.34.82,1.34,1.67v1.24c0,.53.02.92.04,1.14-.19.03-.44.07-.7.07-.1,0-.15-.05-.15-.14v-2.31Z"/>
        <path class="cls-2" d="M103.79,22.74c0-.48-.02-.7-.04-.88.17-.06.55-.13.7-.13.1,0,.14.04.14.59v4.62c0,.42.15.51.42.55v.03c-.04.22-.24.47-.44.47-.43,0-.61-.25-.68-.52-.36.3-.93.52-1.29.52-.97,0-1.76-.71-1.76-1.98s.98-2.21,2.26-2.21c.35,0,.6.09.7.13v-1.2ZM103.79,24.5c-.12-.07-.38-.14-.71-.14-.7,0-1.41.5-1.41,1.56,0,.87.54,1.42,1.27,1.42.28,0,.63-.12.84-.28v-2.57Z"/>
        <path class="cls-2" d="M110.28,27.22c.04.18,0,.41-.17.54-.18.15-.53.25-.85.25-.82,0-1.13-.51-1.13-1.2v-2.31c-.32,0-.45-.11-.45-.21.1-.18.67-.71.81-.83.12-.11.27-.2.48-.23-.02.28-.04.5-.04.7h1.44c-.09.47-.29.52-.45.53-.31.02-.35.03-1,.03-.05.91-.04,1.85,0,2.24.05.53.34.66.64.66.27,0,.54-.09.69-.19l.03.02Z"/>
        <path class="cls-2" d="M112.79,23.82c1.26,0,1.96.87,1.96,2.05s-.78,2.13-2.01,2.13c-1.33,0-2-.97-2-2.05,0-1.2.83-2.13,2.03-2.13h0ZM112.72,24.35c-.59,0-1.13.54-1.13,1.5,0,1.08.55,1.62,1.23,1.62.54,0,1.09-.45,1.09-1.53,0-.77-.34-1.58-1.18-1.58h0Z"/>
        <path class="cls-2" d="M115.72,24.99c0-.56-.02-.84-.04-1.03.15-.04.54-.09.7-.09.09,0,.13.05.13.56,0,.6,0,1.24,0,1.83,0,.93.48,1.06.89,1.06s.79-.27.94-.45v-2.64c0-.23.03-.26.15-.31.26-.03.47-.05.68-.05,0,.2-.03.84-.03,1.63v1.43c0,.44.13.53.37.57v.05c0,.18-.23.45-.43.45-.38,0-.6-.25-.65-.65-.28.3-.57.45-.76.53-.18.07-.37.12-.59.12-.93,0-1.37-.61-1.37-1.51v-1.51Z"/>
        <path class="cls-2" d="M120.32,24.15c.08-.14.37-.34.53-.34.25,0,.43.32.43.9.29-.59.68-.9,1.11-.9.2,0,.38.1.44.17,0,.11-.02.34-.11.47-.05.11-.16.19-.27.18-.13-.05-.23-.06-.33-.06-.2,0-.5.19-.69.63-.06.15-.1.28-.1.48v2c0,.14-.03.2-.16.22-.24.03-.45.04-.66.04.02-.34.03-.87.03-1.67v-1.52c0-.25-.05-.45-.21-.57v-.04Z"/>
        <path class="cls-2" d="M127.02,23.82c.22,0,.48.04.7.1.26.06.53.13.75.13s.46-.04.6-.08c.02.05.04.12.04.18,0,.27-.18.4-.5.43-.06,0-.19,0-.26,0,.12.23.15.44.15.63,0,.94-.71,1.4-1.51,1.4-.2,0-.25,0-.38-.05-.11.1-.26.24-.26.29,0,.15.13.25.53.28.43.03.78.05,1.12.07.73.07,1.05.49,1.05,1.04,0,.97-.99,1.61-2.1,1.61s-1.72-.57-1.72-1.2c0-.38.45-.74.86-.95-.3-.12-.54-.37-.56-.72,0-.05.02-.06.08-.1.18-.13.42-.29.56-.44-.44-.2-.74-.63-.74-1.18,0-.83.68-1.45,1.58-1.45h0ZM125.96,28.55c0,.5.6.75,1.18.75.69,0,1.19-.32,1.19-.82,0-.28-.14-.52-.65-.59-.27-.04-.59-.05-.82-.05-.19,0-.35.04-.45.09-.24.14-.45.34-.45.61h0ZM126.99,24.3c-.44,0-.79.36-.79.94s.34.9.81.9c.51,0,.77-.43.77-.92s-.24-.92-.78-.92h0Z"/>
        <path class="cls-2" d="M129.59,24.15c.08-.14.37-.34.53-.34.25,0,.43.32.43.9.29-.59.68-.9,1.11-.9.2,0,.38.1.44.17,0,.11-.02.34-.11.47-.05.11-.16.19-.27.18-.13-.05-.23-.06-.33-.06-.2,0-.5.19-.69.63-.06.15-.1.28-.1.48v2c0,.14-.03.2-.16.22-.24.03-.45.04-.66.04.02-.34.03-.87.03-1.67v-1.52c0-.25-.05-.45-.21-.57v-.04Z"/>
        <path class="cls-2" d="M134.42,23.82c1.26,0,1.96.87,1.96,2.05s-.78,2.13-2.01,2.13c-1.33,0-2-.97-2-2.05,0-1.2.83-2.13,2.03-2.13h0ZM134.34,24.35c-.59,0-1.13.54-1.13,1.5,0,1.08.55,1.62,1.23,1.62.54,0,1.09-.45,1.09-1.53,0-.77-.34-1.58-1.18-1.58h0Z"/>
        <path class="cls-2" d="M137.34,24.99c0-.56-.02-.84-.04-1.03.15-.04.54-.09.7-.09.09,0,.13.05.13.56,0,.6,0,1.24,0,1.83,0,.93.48,1.06.89,1.06s.79-.27.94-.45v-2.64c0-.23.03-.26.15-.31.26-.03.47-.05.68-.05,0,.2-.03.84-.03,1.63v1.43c0,.44.13.53.37.57v.05c0,.18-.23.45-.43.45-.38,0-.6-.25-.65-.65-.28.3-.57.45-.76.53-.18.07-.37.12-.59.12-.93,0-1.37-.61-1.37-1.51v-1.51Z"/>
        <path class="cls-2" d="M142.95,29.57c0,.15-.03.18-.18.22-.22.03-.42.04-.64.04.02-.26.03-.79.03-1.59v-3.54c0-.28-.06-.47-.15-.52v-.05c.1-.15.35-.31.54-.31.2,0,.35.25.37.58.54-.4,1-.59,1.4-.59.83,0,1.63.63,1.63,1.92,0,1.38-1.01,2.26-2.14,2.26-.34,0-.66-.1-.83-.22v1.79ZM142.95,27.25c.18.1.46.19.74.19.56,0,1.39-.38,1.39-1.6,0-.8-.45-1.35-1.1-1.35-.42,0-.87.27-1.03.43v2.33Z"/>
        <path class="cls-2" d="M152.15,27.42c0,.39-.21.58-.61.58s-.59-.27-.65-.56c-.24.26-.66.56-1.15.56-.63,0-1.07-.48-1.07-1.04,0-.97,1.24-1.23,1.74-1.36.16-.04.35-.07.48-.09v-.24c0-.4-.24-.82-.78-.82-.31,0-.64.15-.88.31-.27.13-.41-.06-.44-.34.28-.26.89-.61,1.51-.61.93,0,1.37.66,1.37,1.53,0,.39-.03,1.23-.02,1.79,0,.17.12.28.3.28.05,0,.14,0,.19-.03l.02.03ZM149.45,26.86c0,.33.26.52.58.52.37,0,.64-.23.78-.43.05-.07.06-.15.06-.32v-.64c-.74.1-1.43.35-1.43.85h0Z"/>
        <path class="cls-2" d="M152.96,24.99c0-.56-.02-.84-.04-1.03.15-.04.54-.09.7-.09.09,0,.13.05.13.56,0,.6,0,1.24,0,1.83,0,.93.48,1.06.89,1.06s.79-.27.94-.45v-2.64c0-.23.03-.26.15-.31.26-.03.47-.05.68-.05,0,.2-.03.84-.03,1.63v1.43c0,.44.13.53.37.57v.05c0,.18-.23.45-.43.45-.38,0-.6-.25-.65-.65-.28.3-.57.45-.76.53-.18.07-.37.12-.59.12-.93,0-1.37-.61-1.37-1.51v-1.51Z"/>
        <path class="cls-2" d="M160.39,22.74c0-.48-.02-.7-.04-.88.17-.06.55-.13.7-.13.1,0,.14.04.14.59v4.62c0,.42.15.51.42.55v.03c-.04.22-.24.47-.44.47-.43,0-.61-.25-.68-.52-.36.3-.94.52-1.29.52-.97,0-1.76-.71-1.76-1.98s.98-2.21,2.26-2.21c.35,0,.6.09.7.13v-1.2ZM160.39,24.5c-.12-.07-.38-.14-.71-.14-.7,0-1.41.5-1.41,1.56,0,.87.54,1.42,1.27,1.42.28,0,.63-.12.84-.28v-2.57Z"/>
        <path class="cls-2" d="M162.94,21.92c.26,0,.43.19.43.45s-.17.47-.44.47c-.25,0-.44-.15-.44-.45,0-.33.26-.47.45-.47h0ZM163.33,27.67c0,.16-.05.21-.2.23-.13.03-.35.04-.63.05,0-.36.03-.89.03-1.43v-1.53c0-.55-.02-.84-.04-1.03.16-.05.56-.09.7-.09.1,0,.14.05.14.56v3.24Z"/>
        <path class="cls-2" d="M166.83,27.22c.04.18,0,.41-.17.54-.18.15-.53.25-.85.25-.82,0-1.13-.51-1.13-1.2v-2.31c-.32,0-.45-.11-.45-.21.1-.18.67-.71.81-.83.12-.11.27-.2.48-.23-.02.28-.04.5-.04.7h1.44c-.09.47-.29.52-.45.53-.31.02-.35.03-1,.03-.05.91-.04,1.85,0,2.24.05.53.34.66.64.66.27,0,.54-.09.69-.19l.03.02Z"/>
        <path class="cls-2" d="M168.94,23.82c.36,0,.73.11.95.32,0,.19-.11.45-.35.43-.17-.1-.43-.17-.64-.17-.34,0-.59.2-.59.49,0,.25.15.4.36.51.22.13.57.28.84.43.41.23.6.55.6.94,0,.87-.76,1.25-1.5,1.25-.41,0-.78-.12-.99-.27-.09-.06-.16-.16-.15-.28,0-.15.08-.29.18-.36.28.2.68.34,1.02.34.44,0,.67-.21.67-.53,0-.22-.14-.37-.44-.54-.25-.14-.49-.25-.71-.36-.39-.21-.64-.53-.64-.99,0-.75.65-1.19,1.38-1.19h0Z"/>
      </g>
      <g>
        <path class="cls-2" d="M62.31,35.22c-.02.21-.12.45-.25.55-.22.14-.59.23-.99.23-.94,0-2.06-.46-2.06-2.03,0-1.27.96-2.16,2.2-2.16.64,0,1.07.23,1.16.34,0,.25-.14.5-.4.44-.21-.09-.49-.17-.79-.17-.79,0-1.33.61-1.33,1.46,0,1.16.84,1.49,1.47,1.49.34,0,.73-.08.96-.18l.03.03Z"/>
        <path class="cls-2" d="M64.88,31.82c1.26,0,1.96.87,1.96,2.05s-.78,2.13-2.01,2.13c-1.33,0-2-.97-2-2.05,0-1.2.83-2.13,2.03-2.13h0ZM64.81,32.35c-.59,0-1.13.54-1.13,1.5,0,1.08.55,1.62,1.23,1.62.54,0,1.09-.45,1.09-1.53,0-.77-.34-1.58-1.18-1.58h0Z"/>
        <path class="cls-2" d="M70.54,33.5c0-.69-.31-1.04-.84-1.04-.46,0-.82.29-1.03.53v2.7c0,.18-.04.21-.19.23-.21.04-.42.03-.64.04.02-.34.03-.87.03-1.67v-1.53c0-.34-.05-.49-.16-.58v-.04c.08-.14.36-.31.53-.31.29,0,.37.45.39.67.38-.37.88-.68,1.38-.68,1.06,0,1.34.82,1.34,1.67v1.24c0,.53.02.92.04,1.14-.19.03-.44.07-.7.07-.1,0-.15-.05-.15-.14v-2.31Z"/>
        <path class="cls-2" d="M75.27,30.74c0-.48-.02-.7-.04-.88.17-.06.55-.13.7-.13.1,0,.14.04.14.59v4.62c0,.42.15.51.42.55v.03c-.04.22-.24.47-.44.47-.43,0-.61-.25-.68-.52-.36.3-.94.52-1.29.52-.97,0-1.76-.71-1.76-1.98s.98-2.21,2.26-2.21c.35,0,.6.09.7.13v-1.2ZM75.27,32.5c-.12-.07-.38-.14-.71-.14-.7,0-1.41.5-1.41,1.56,0,.87.54,1.42,1.27,1.42.28,0,.63-.12.84-.28v-2.57Z"/>
        <path class="cls-2" d="M77.4,32.99c0-.56-.02-.84-.04-1.03.15-.04.54-.09.7-.09.09,0,.13.05.13.56,0,.6,0,1.24,0,1.83,0,.93.48,1.06.89,1.06s.79-.27.94-.45v-2.64c0-.23.03-.26.15-.31.26-.03.47-.05.68-.05,0,.2-.03.84-.03,1.63v1.43c0,.44.13.53.37.57v.05c0,.18-.23.45-.43.45-.38,0-.6-.25-.65-.65-.28.3-.57.45-.76.53-.18.07-.37.12-.59.12-.93,0-1.37-.61-1.37-1.51v-1.51Z"/>
        <path class="cls-2" d="M85.16,35.22c-.02.21-.12.45-.25.55-.22.14-.59.23-.99.23-.94,0-2.06-.46-2.06-2.03,0-1.27.96-2.16,2.2-2.16.64,0,1.07.23,1.16.34,0,.25-.14.5-.4.44-.21-.09-.49-.17-.79-.17-.79,0-1.33.61-1.33,1.46,0,1.16.84,1.49,1.47,1.49.34,0,.73-.08.96-.18l.03.03Z"/>
        <path class="cls-2" d="M88.38,35.22c.04.18,0,.41-.17.54-.18.15-.53.25-.85.25-.82,0-1.13-.51-1.13-1.2v-2.31c-.32,0-.45-.11-.45-.21.1-.18.67-.71.81-.83.12-.11.27-.2.48-.23-.02.28-.04.5-.04.7h1.44c-.09.47-.29.52-.45.53-.31.02-.35.03-1,.03-.05.91-.04,1.85,0,2.24.05.53.34.66.64.66.27,0,.54-.09.69-.19l.03.02Z"/>
        <path class="cls-2" d="M92.08,35.15c0,.3-.21.57-.37.65-.15.08-.53.2-.9.2-1.27,0-1.96-.75-1.96-2.03,0-1.13.69-2.15,1.9-2.15,1.05,0,1.5.78,1.52,1.52,0,.09,0,.21-.02.28-.03.15-.47.27-.79.33-.25.04-1.15.05-1.81.03.02.89.57,1.4,1.37,1.4.42,0,.87-.15,1.03-.25l.03.03ZM90.64,32.32c-.44,0-.89.41-.95,1.13.64.02,1.44,0,1.61,0,.11,0,.19-.08.19-.19,0-.54-.27-.94-.84-.94h0Z"/>
        <path class="cls-2" d="M95.89,30.74c0-.48-.02-.7-.04-.88.17-.06.55-.13.7-.13.1,0,.14.04.14.59v4.62c0,.42.15.51.42.55v.03c-.04.22-.24.47-.45.47-.43,0-.61-.25-.68-.52-.36.3-.94.52-1.29.52-.97,0-1.76-.71-1.76-1.98s.98-2.21,2.26-2.21c.35,0,.6.09.7.13v-1.2ZM95.89,32.5c-.12-.07-.38-.14-.71-.14-.7,0-1.41.5-1.41,1.56,0,.87.54,1.42,1.27,1.42.28,0,.63-.12.84-.28v-2.57Z"/>
        <path class="cls-2" d="M100.55,29.92c.26,0,.43.19.43.45s-.17.47-.44.47c-.25,0-.44-.15-.44-.45,0-.33.26-.47.45-.47h0ZM100.94,35.67c0,.16-.05.21-.2.23-.13.03-.35.04-.63.05,0-.36.03-.89.03-1.43v-1.53c0-.55-.02-.84-.04-1.03.16-.05.56-.09.7-.09.1,0,.14.05.14.56v3.24Z"/>
        <path class="cls-2" d="M104.94,33.5c0-.69-.31-1.04-.84-1.04-.46,0-.82.29-1.03.53v2.7c0,.18-.04.21-.19.23-.21.04-.42.03-.64.04.02-.34.03-.87.03-1.67v-1.53c0-.34-.05-.49-.16-.58v-.04c.08-.14.36-.31.53-.31.29,0,.37.45.39.67.38-.37.88-.68,1.38-.68,1.06,0,1.34.82,1.34,1.67v1.24c0,.53.02.92.04,1.14-.19.03-.44.07-.7.07-.1,0-.15-.05-.15-.14v-2.31Z"/>
        <path class="cls-2" d="M109.03,35.41c1.59-1.62,2.17-2.54,2.17-3.31,0-.68-.36-1.03-.93-1.03-.44,0-.86.3-1.04.45-.14.12-.25.12-.34-.04-.05-.07-.06-.17-.06-.25.41-.51,1.05-.81,1.67-.81.96,0,1.53.63,1.53,1.58,0,.48-.17.88-.47,1.34-.3.47-.98,1.24-1.66,1.94.67.05,1.71.04,2.51,0-.04.22-.25.46-.37.52-.1.06-.45.12-.94.12-.93,0-1.74,0-2.21-.09l-.03-.07.16-.35Z"/>
        <path class="cls-2" d="M114.98,30.43c1.58,0,1.79,1.72,1.79,2.77,0,1.92-.71,2.81-1.86,2.81-.92,0-1.84-.64-1.84-2.79,0-1.21.43-2.79,1.91-2.79h0ZM114.93,30.97c-.55,0-1.03.74-1.03,2.22,0,1.72.55,2.26,1.05,2.26.44,0,.98-.28.98-2.32,0-1.03-.19-2.16-1-2.16h0Z"/>
        <path class="cls-2" d="M117.6,35.41c1.59-1.62,2.17-2.54,2.17-3.31,0-.68-.36-1.03-.93-1.03-.44,0-.86.3-1.04.45-.14.12-.25.12-.34-.04-.05-.07-.06-.17-.06-.25.41-.51,1.05-.81,1.67-.81.96,0,1.53.63,1.53,1.58,0,.48-.17.88-.47,1.34-.3.47-.98,1.24-1.66,1.94.67.05,1.71.04,2.51,0-.04.22-.25.46-.37.52-.1.06-.45.12-.94.12-.93,0-1.74,0-2.21-.09l-.03-.07.16-.35Z"/>
        <path class="cls-2" d="M121.8,35.37c.25.1.74.23,1.12.23,1.07,0,1.4-.56,1.4-1.2s-.45-.96-1.3-.96c-.2,0-.37.03-.52.04l-.04-.04c.04-.15.15-.38.23-.46.73-.15,1.32-.49,1.32-1.16,0-.44-.31-.76-.82-.76-.35,0-.74.18-.94.35-.12.1-.23.12-.3,0-.06-.08-.07-.19-.06-.3.26-.35.91-.68,1.48-.68,1.18,0,1.48.83,1.48,1.23,0,.63-.39,1.02-.99,1.29.95.19,1.35.72,1.35,1.4,0,1.16-.95,1.83-2.21,1.83-.52,0-.91-.15-1.03-.25-.12-.12-.21-.34-.2-.52l.03-.03Z"/>
      </g>
      <path class="cls-1" d="M26.45.56h130.66c14.3,0,25.89,11.64,25.89,26.01v26.65c0,14.36-11.59,26.01-25.89,26.01h-62.09l-3.24,10.38-3.24-10.38H26.45c-14.3,0-25.89-11.64-25.89-26.01v-26.65C.56,12.21,12.15.56,26.45.56Z"/>
      <path class="cls-3" d="M81.25,53.64h.85v-5.28h-.85v5.28ZM54.83,48.38h-.85v5.27h.85v-5.27ZM78.39,63.27c-.93,0-1.83,0-2.73,0-.08,0-.21.08-.24.15-.23.49-.43.98-.65,1.5h3.62v-1.66ZM57.7,64.94h3.63c-.23-.53-.44-1.03-.66-1.51-.03-.07-.16-.14-.25-.14-.9-.01-1.79,0-2.72,0v1.66ZM72.43,68.64c0,.41,0,.78,0,1.15.02.48.27.76.75.77.95.02,1.89.02,2.84,0,.45,0,.76-.29.79-.7.03-.4,0-.8,0-1.21h-4.39ZM63.66,68.65h-4.4c0,.37,0,.71,0,1.05.01.51.29.83.79.85.95.02,1.89.02,2.84,0,.5-.01.75-.3.76-.81,0-.35,0-.71,0-1.09M61.36,43.92h13.38c0-.26.01-.49,0-.72-.04-.55-.31-.81-.88-.81-3.87,0-7.74,0-11.62,0-.58,0-.85.27-.88.86-.01.21,0,.43,0,.68M57.67,62.37c.91,0,1.75.02,2.59,0,.67-.03,1.08.24,1.31.87.2.57.47,1.11.7,1.67.23.57.01.9-.61.91-1.31,0-2.61,0-3.91,0-.28,1.21.29,1.94,1.49,1.94,5.82,0,11.65,0,17.47,0,1.34,0,1.82-.55,1.66-1.94h-1.57c-.81,0-1.62,0-2.43,0-.54,0-.8-.35-.6-.83.28-.71.59-1.4.9-2.09.18-.4.55-.52.96-.52.89,0,1.77,0,2.66-.01.01,0,.03,0,.11-.03v-.47c0-5.17,0-10.34,0-15.51,0-.99-.47-1.47-1.44-1.47-5.95,0-11.9.01-17.84-.02-.91,0-1.5.66-1.47,1.47.05,1.71.01,3.43.01,5.14v.28c0,.33-.07.62-.47.61-.4,0-.45-.31-.45-.63,0-.55,0-1.09,0-1.64v-1.71h-1.04v.49c0,1.56,0,3.11,0,4.67,0,.7-.28.98-.99.99-.25,0-.5,0-.75,0-.54-.01-.88-.32-.88-.87-.01-1.76-.01-3.52,0-5.28,0-.57.33-.88.91-.88.86,0,1.71,0,2.57,0,.03,0,.06-.01.15-.03.07-.99-.14-2.08.73-2.9.87-.81,1.95-.56,3.02-.63,0-.28,0-.54,0-.8.02-.91.69-1.61,1.6-1.61,3.97-.01,7.94,0,11.91,0,.93,0,1.61.7,1.62,1.63,0,.25,0,.49,0,.8.47,0,.89,0,1.33,0,1.45,0,2.38.95,2.4,2.4,0,.36,0,.71,0,1.14h2.01c.27,0,.53,0,.79,0,.49.01.84.32.84.81.01,1.81.01,3.61,0,5.42,0,.48-.36.79-.85.8-.28,0-.56,0-.84,0-.61-.01-.92-.31-.92-.92,0-1.57,0-3.15,0-4.72v-.53h-1.04v.57c0,5.72,0,11.43,0,17.15,0,1.1-.39,1.93-1.43,2.4-.1.05-.2.22-.21.34-.03.36,0,.72-.02,1.07-.04.84-.68,1.5-1.53,1.52-1.01.02-2.02.02-3.04,0-.9-.02-1.54-.68-1.58-1.62-.02-.37,0-.74,0-1.14h-6.96c0,.31,0,.63,0,.95,0,1.18-.65,1.82-1.81,1.82-.89,0-1.77,0-2.66,0-1.01,0-1.66-.65-1.68-1.65,0-.09-.01-.19,0-.28.07-.58-.04-.97-.66-1.27-.7-.34-.99-1.06-.99-1.84-.01-4.06,0-8.13,0-12.19,0-.32.05-.61.46-.61.41,0,.45.3.45.62,0,2.54,0,5.08,0,7.61v.56Z"/>
      <path class="cls-3" d="M68,58.34c2.72,0,5.45,0,8.17,0,.41,0,.53-.11.53-.52-.02-2.99-.01-5.98,0-8.96,0-.4-.11-.53-.52-.53-5.41.01-10.83.01-16.24,0-.42,0-.53.12-.53.53.01,2.99.01,5.98,0,8.96,0,.41.11.53.52.52,2.69-.02,5.38,0,8.08,0M68.02,59.2c-2.75,0-5.51,0-8.26,0-.87,0-1.24-.37-1.24-1.25,0-3.08,0-6.16,0-9.25,0-.84.37-1.21,1.22-1.21,5.54,0,11.08,0,16.62,0,.84,0,1.21.37,1.22,1.22,0,3.08,0,6.16,0,9.24,0,.87-.37,1.24-1.25,1.24-2.77,0-5.54,0-8.31,0"/>
      <path class="cls-3" d="M63.56,61.85c.46,1.05.88,2,1.31,2.94.04.09.22.16.33.16,1.9.01,3.8.01,5.7,0,.11,0,.28-.08.32-.17.43-.94.85-1.89,1.31-2.93-.56,0-1.03,0-1.51,0-.33,0-.63-.06-.62-.45,0-.38.31-.45.64-.44.51,0,1.03,0,1.54,0,.69.02,1.05.55.78,1.18-.44,1.04-.92,2.07-1.37,3.11-.17.39-.44.57-.87.57-2.05,0-4.11,0-6.16,0-.42,0-.7-.18-.87-.57-.45-1.02-.91-2.04-1.35-3.07-.29-.68.07-1.22.82-1.22,1.68,0,3.36,0,5.04,0,.33,0,.61.09.6.47,0,.38-.3.42-.6.42-1.48,0-2.96,0-4.44,0h-.61Z"/>
      <path class="cls-3" d="M68.05,46.59c-1.49,0-2.99,0-4.48,0-.3,0-.59-.02-.59-.41,0-.41.28-.45.61-.45,2.97,0,5.94,0,8.92,0,.32,0,.62.04.62.45,0,.43-.33.42-.64.42-1.48,0-2.96,0-4.44,0"/>
      <path class="cls-3" d="M68.04,63.85c-.61,0-1.21,0-1.82,0-.32,0-.61-.05-.61-.47,0-.41.31-.45.62-.45,1.21,0,2.43,0,3.64,0,.32,0,.61.06.61.47,0,.41-.31.45-.62.45-.61,0-1.21,0-1.82,0"/>
      <path class="cls-3" d="M60.84,46.66c-.12-.16-.34-.34-.32-.48.02-.16.24-.38.41-.42.1-.02.37.23.39.37.02.16-.17.34-.26.51-.07,0-.14,0-.21.01"/>
      <path class="cls-3" d="M75.68,46.27c-.17.1-.34.3-.51.29-.14,0-.4-.26-.38-.37.03-.17.23-.41.38-.43s.34.2.51.31c0,.07,0,.13,0,.2"/>
    </g>
  </g>
</svg>