<?xml version="1.0" encoding="UTF-8"?>
<svg id="_圖層_2" data-name="圖層_2" xmlns="http://www.w3.org/2000/svg" viewBox="0 0 133.53 92.33">
  <defs>
    <style>
      .cls-1 {
        fill: #e1bea0;
      }

      .cls-2 {
        fill: #f5ad7c;
      }

      .cls-3 {
        fill: #d26721;
      }

      .cls-4 {
        fill: #e37a30;
      }

      .cls-5, .cls-6 {
        fill: #d97e18;
      }

      .cls-7 {
        fill: #fdecdc;
      }

      .cls-6 {
        opacity: .5;
      }

      .cls-8 {
        fill: #2b4484;
      }

      .cls-9 {
        fill: #fff;
      }

      .cls-10 {
        fill: #22375f;
      }

      .cls-11 {
        fill: #f6dabe;
      }

      .cls-12 {
        fill: #dbe7f6;
      }

      .cls-13 {
        fill: #ebf2f9;
      }

      .cls-14 {
        fill: #ef9448;
      }

      .cls-15 {
        fill: #f4a020;
      }

      .cls-16 {
        fill: #e4945d;
      }

      .cls-17 {
        fill: #bfd3ed;
      }

      .cls-18 {
        fill: #f6b442;
      }
    </style>
  </defs>
  <g id="_圖層_1-2" data-name="圖層_1">
    <g>
      <path class="cls-13" d="M5.26,92.29s-12.28-23.61.67-44.01c55.95-88.16,138.18-30.78,113.56,7.05-10.15,15.6,21.79,18.98,12.21,37l-126.45-.04Z"/>
      <polygon class="cls-17" points="118.69 43.19 104.65 47.84 107.47 50.18 107.47 50.18 95.32 62.9 84.67 53.76 42.15 88.59 42.53 88.6 53.12 88.6 84.56 62.84 95.79 72.48 112.82 54.65 112.82 54.65 115.86 57.18 118.69 43.19"/>
      <g>
        <polygon class="cls-12" points="50.61 70.34 47.31 92.29 18.04 87.89 18.04 87.89 5.71 86.03 9.02 64.08 32.04 67.55 50.61 70.34"/>
        <path class="cls-17" d="M47.86,72.44l-2.56,17.04-37.38-5.63,2.56-17.04,37.38,5.63ZM45.09,87.31l1.93-12.85c.13-.87-.47-1.69-1.34-1.82l-33.16-4.99c-.89-.13-1.72.48-1.85,1.37l-1.93,12.8c-.13.88.47,1.7,1.35,1.83l33.18,4.99c.87.13,1.68-.47,1.81-1.34Z"/>
        <path class="cls-17" d="M27.2,82.73c-2.53-.38-4.28-2.74-3.89-5.27.38-2.53,2.74-4.28,5.27-3.89s4.28,2.74,3.89,5.27-2.74,4.28-5.27,3.89Z"/>
      </g>
      <g>
        <polygon class="cls-12" points="53.3 70.44 35.89 84.21 17.53 61 17.53 61 9.8 51.22 27.21 37.45 41.65 55.71 53.3 70.44"/>
        <path class="cls-17" d="M49.86,70.1l-13.51,10.69-23.45-29.65,13.51-10.69,23.45,29.65ZM37.68,79.06l10.19-8.06c.69-.55.81-1.55.26-2.24l-20.8-26.3c-.56-.7-1.58-.82-2.28-.27l-10.15,8.03c-.7.55-.82,1.57-.26,2.26l20.82,26.32c.54.69,1.54.8,2.23.26Z"/>
        <path class="cls-17" d="M27.74,63.49c-1.59-2.01-1.25-4.92.76-6.51,2.01-1.59,4.92-1.25,6.51.76,1.59,2.01,1.25,4.92-.76,6.51-2.01,1.59-4.92,1.25-6.51-.76Z"/>
      </g>
      <g>
        <path class="cls-15" d="M90.93,45.99s.04-.07.07-.1h0s0,0,0,0c.02-.02.04-.05.06-.06l.1-.1.03.02c.49-.24,1.52.01,2.55.69,1.25.82,2.05,1.94,1.82,2.54l.04.03-.14.14s-.01.01-.02.02h0s0,0,0,0c-.04.03-.08.06-.12.08h0s0,0,0,0c-.49.26-1.52,0-2.57-.68-1.27-.83-2.08-1.98-1.81-2.57Z"/>
        <path class="cls-18" d="M93.89,46.28c-1.27-.83-2.53-1.03-2.8-.44-.28.59.53,1.74,1.81,2.57s2.53,1.03,2.8.44c.28-.59-.53-1.74-1.81-2.57Z"/>
        <path class="cls-15" d="M92.96,48.24c-.53-.35-.99-.77-1.29-1.18-.31-.42-.41-.8-.3-1.05.06-.13.17-.22.33-.26.47-.14,1.3.12,2.12.66h0c.53.35.99.77,1.29,1.18.31.42.41.8.3,1.05-.06.13-.17.22-.33.26-.08.02-.18.04-.28.04-.48,0-1.17-.25-1.84-.69ZM91.72,45.84c-.13.04-.22.11-.27.21-.1.22,0,.56.29.95.29.41.74.82,1.27,1.16.65.43,1.33.68,1.79.68.09,0,.18-.01.25-.03.13-.04.22-.11.27-.21.1-.22,0-.56-.29-.95-.29-.41-.74-.82-1.27-1.16-.65-.43-1.33-.68-1.79-.68-.09,0-.18.01-.25.03Z"/>
      </g>
      <g>
        <path class="cls-15" d="M98.62,16.12s.03-.05.05-.07h0s.03-.03.05-.05l.07-.07h.02c.35-.16,1.08.02,1.81.5.89.58,1.46,1.38,1.29,1.8l.02.02-.1.1s0,0-.01.01h0s0,0,0,0c-.02.02-.05.04-.09.06h0s0,0,0,0c-.35.18-1.08,0-1.82-.48-.9-.59-1.48-1.41-1.28-1.82Z"/>
        <path class="cls-18" d="M100.72,16.33c-.9-.59-1.79-.73-1.99-.31-.2.42.38,1.23,1.28,1.82.9.59,1.79.73,1.99.31.2-.42-.38-1.23-1.28-1.82Z"/>
        <path class="cls-15" d="M100.06,17.72c-.38-.25-.7-.55-.92-.84-.22-.3-.29-.57-.21-.74.04-.09.12-.15.23-.19.33-.1.92.09,1.51.47h0c.38.25.7.55.92.84.22.3.29.57.21.74-.04.09-.12.15-.23.19-.06.02-.13.03-.2.03-.34,0-.83-.18-1.31-.49ZM99.18,16.02c-.09.03-.16.08-.19.15-.07.15,0,.4.21.68.21.29.53.58.9.82.46.3.94.48,1.27.48.07,0,.13,0,.18-.02.09-.03.16-.08.19-.15.07-.15,0-.4-.21-.68-.21-.29-.53-.58-.9-.82-.46-.3-.94-.48-1.27-.48-.07,0-.13,0-.18.02Z"/>
      </g>
      <g>
        <path class="cls-15" d="M101.87,39.8s-.03-.05-.05-.08h0s-.03-.03-.05-.05l-.07-.07h-.02c-.36-.16-1.11.02-1.86.52-.91.6-1.5,1.42-1.33,1.85l-.03.02.1.1s0,.01.01.02h0s0,0,0,0c.03.02.06.04.09.06h0s0,0,0,0c.36.19,1.11,0,1.88-.5.93-.61,1.52-1.45,1.32-1.88Z"/>
        <path class="cls-18" d="M99.71,40.01c.93-.61,1.85-.75,2.05-.32.2.43-.39,1.27-1.32,1.88s-1.85.75-2.05.32c-.2-.43.39-1.27,1.32-1.88Z"/>
        <path class="cls-15" d="M99.04,41.95c-.08,0-.14,0-.2-.03-.12-.03-.2-.1-.24-.19-.08-.18,0-.45.22-.76.22-.3.56-.61.94-.87h0c.6-.39,1.21-.58,1.55-.48.12.03.2.1.24.19.08.18,0,.45-.22.76-.22.3-.56.61-.94.87-.49.32-.99.51-1.34.51ZM101.11,39.67c-.34,0-.83.18-1.31.5-.38.25-.71.55-.93.85-.21.29-.28.54-.21.7.03.07.1.13.2.15.05.02.12.02.18.02.34,0,.83-.18,1.31-.5.38-.25.71-.55.93-.85.21-.29.28-.54.21-.7-.03-.07-.1-.13-.2-.15-.05-.02-.12-.02-.18-.02Z"/>
      </g>
      <g>
        <path class="cls-15" d="M91.33,23.12s.02-.03.03-.05h0s.02-.02.03-.03l.04-.04h.01c.22-.1.67.01,1.13.31.56.36.91.86.81,1.13h.02s-.06.07-.06.07c0,0,0,0,0,0h0s0,0,0,0c-.02.01-.03.03-.05.04h0s0,0,0,0c-.22.11-.68,0-1.14-.3-.57-.37-.93-.88-.8-1.14Z"/>
        <path class="cls-18" d="M92.64,23.25c-.57-.37-1.12-.46-1.25-.2-.12.26.24.77.8,1.14.57.37,1.12.46,1.25.2.12-.26-.24-.77-.8-1.14Z"/>
        <path class="cls-15" d="M92.23,24.12c-.24-.16-.44-.34-.57-.53-.14-.19-.18-.35-.13-.47.03-.06.07-.1.15-.12.21-.06.58.05.94.29h0c.24.16.44.34.57.53.14.19.18.35.13.47-.03.06-.07.1-.15.12-.04.01-.08.02-.12.02-.21,0-.52-.11-.82-.31ZM91.68,23.06c-.06.02-.1.05-.12.09-.04.1,0,.25.13.42.13.18.33.36.56.52.29.19.59.3.8.3.04,0,.08,0,.11-.01.06-.02.1-.05.12-.09.04-.1,0-.25-.13-.42-.13-.18-.33-.36-.56-.52-.29-.19-.59-.3-.8-.3-.04,0-.08,0-.11.01Z"/>
      </g>
      <g>
        <path class="cls-15" d="M49.02,40.96s-.03-.06-.06-.09h0s0,0,0,0c-.02-.02-.03-.04-.05-.05l-.08-.08-.02.02c-.42-.2-1.27.01-2.14.58-1.05.69-1.72,1.63-1.53,2.13l-.03.02.12.12s.01.01.02.02h0s0,0,0,0c.03.03.06.05.1.07h0s0,0,0,0c.41.22,1.28,0,2.16-.57,1.07-.7,1.75-1.67,1.52-2.16Z"/>
        <path class="cls-18" d="M46.54,41.21c1.07-.7,2.12-.86,2.36-.37.23.49-.45,1.46-1.52,2.16-1.07.7-2.12.86-2.36.37-.23-.49.45-1.46,1.52-2.16Z"/>
        <path class="cls-15" d="M45.77,43.44c-.09,0-.17,0-.24-.03-.13-.04-.23-.11-.28-.22-.1-.21,0-.52.25-.88.25-.35.64-.7,1.09-1h0c.69-.45,1.39-.67,1.78-.55.13.04.23.11.28.22.1.21,0,.52-.25.88-.25.35-.64.7-1.09,1-.57.37-1.14.58-1.55.58ZM48.15,40.81c-.39,0-.96.21-1.51.57-.44.29-.82.63-1.07.98-.24.33-.33.62-.24.8.04.09.12.14.23.18.06.02.13.03.21.03.39,0,.96-.21,1.51-.57.44-.29.82-.63,1.07-.98.24-.33.33-.62.24-.8-.04-.09-.12-.14-.23-.18-.06-.02-.13-.03-.21-.03Z"/>
      </g>
      <g>
        <path class="cls-15" d="M37.68,27.55s-.02-.04-.03-.05h0s-.02-.02-.03-.03l-.05-.05h-.01c-.24-.11-.74.02-1.25.35-.61.4-1,.95-.89,1.24h-.02s.07.08.07.08c0,0,0,0,.01.01h0s0,0,0,0c.02.02.04.03.06.04h0s0,0,0,0c.24.13.74,0,1.26-.33.62-.41,1.02-.97.88-1.26Z"/>
        <path class="cls-18" d="M36.24,27.69c.62-.41,1.24-.5,1.37-.22.13.29-.26.85-.88,1.26-.62.41-1.24.5-1.37.22-.13-.29.26-.85.88-1.26Z"/>
        <path class="cls-15" d="M35.79,28.99c-.05,0-.1,0-.14-.02-.08-.02-.13-.07-.16-.13-.06-.12,0-.3.15-.51.15-.2.37-.41.63-.58h0c.4-.26.81-.39,1.04-.32.08.02.13.07.16.13.06.12,0,.3-.15.51-.15.2-.37.41-.63.58-.33.22-.66.34-.9.34ZM37.18,27.46c-.23,0-.56.12-.88.33-.26.17-.48.37-.62.57-.14.19-.19.36-.14.47.02.05.07.08.13.1.04.01.08.02.12.02.23,0,.56-.12.88-.33.26-.17.48-.37.62-.57.14-.19.19-.36.14-.47-.02-.05-.07-.08-.13-.1-.04-.01-.08-.02-.12-.02Z"/>
      </g>
      <g>
        <path class="cls-15" d="M47.92,31.44s.03-.05.04-.07h0s.03-.03.04-.04l.06-.06h.02c.31-.14.95.02,1.59.44.78.51,1.28,1.21,1.14,1.59l.02.02-.09.09s0,0-.01.01h0s0,0,0,0c-.02.02-.05.04-.08.05h0s0,0,0,0c-.31.16-.95,0-1.6-.43-.8-.52-1.3-1.24-1.13-1.61Z"/>
        <path class="cls-18" d="M49.76,31.62c-.8-.52-1.58-.64-1.75-.28-.17.37.33,1.09,1.13,1.61.8.52,1.58.64,1.75.28.17-.37-.33-1.09-1.13-1.61Z"/>
        <path class="cls-15" d="M49.18,32.85c-.33-.22-.62-.48-.81-.74-.19-.27-.26-.5-.19-.65.04-.08.11-.13.2-.16.29-.08.81.08,1.33.41h0c.33.22.62.48.81.74.19.27.26.5.19.65-.04.08-.11.13-.2.16-.05.01-.11.02-.18.02-.3,0-.73-.16-1.15-.43ZM48.41,31.35c-.08.02-.14.07-.17.13-.06.13,0,.35.18.6.18.25.47.51.79.73.41.27.83.42,1.12.42.06,0,.11,0,.16-.02.08-.02.14-.07.17-.13.06-.13,0-.35-.18-.6-.18-.25-.47-.51-.79-.73-.41-.27-.83-.42-1.12-.42-.06,0-.11,0-.16.02Z"/>
      </g>
      <g>
        <g>
          <path class="cls-18" d="M78.44,90.83v.96c0,.08-.03.15-.08.21-.05.06-.12.11-.21.14-.03,0-.05.01-.08.02-.03,0-.05,0-.08,0h-18.26c-.24,0-.43-.16-.44-.35,0,0,0-.01,0-.02v-.96s0-.01,0-.02c.01-.2.21-.35.44-.35h18.26s.05,0,.08,0c.03,0,.05.01.08.02.08.03.16.08.21.14.05.06.08.13.08.21Z"/>
          <path class="cls-15" d="M69.48,92.16h-9.78c-.21,0-.38-.16-.39-.35,0,0,0-.01,0-.02v-.96s0-.01,0-.02c.01-.2.18-.35.39-.35h8.58c.14.5.46,1.2,1.2,1.71Z"/>
          <g>
            <rect class="cls-15" x="76.01" y="90.46" width=".21" height="1.71"/>
            <rect class="cls-15" x="75.31" y="90.46" width=".21" height="1.71"/>
            <rect class="cls-15" x="74.47" y="90.46" width=".21" height="1.71"/>
            <rect class="cls-15" x="73.18" y="90.46" width=".21" height="1.71"/>
            <rect class="cls-15" x="71.81" y="90.46" width=".21" height="1.71"/>
            <rect class="cls-15" x="69.72" y="90.46" width=".21" height="1.71"/>
            <rect class="cls-15" x="67.76" y="90.46" width=".21" height="1.71"/>
            <rect class="cls-15" x="66.01" y="90.46" width=".21" height="1.71"/>
            <rect class="cls-15" x="76.68" y="90.46" width=".21" height="1.71"/>
            <rect class="cls-15" x="77.12" y="90.46" width=".21" height="1.71"/>
            <rect class="cls-15" x="77.55" y="90.46" width=".21" height="1.71"/>
            <path class="cls-15" d="M78.08,90.47v1.69s-.05,0-.08,0h-.13v-1.71h.13s.05,0,.08,0Z"/>
            <path class="cls-15" d="M78.37,90.62v1.38c-.05.06-.12.11-.21.14v-1.66c.08.03.16.08.21.14Z"/>
          </g>
        </g>
        <g>
          <path class="cls-18" d="M76.49,89.13v.96c0,.08-.03.15-.08.21-.05.06-.12.11-.21.14-.03,0-.05.01-.08.02-.03,0-.05,0-.08,0h-18.26c-.24,0-.43-.16-.44-.35,0,0,0-.01,0-.02v-.96s0-.01,0-.02c.01-.2.21-.35.44-.35h18.26s.02,0,.03,0c0,0,0,0,.01,0,0,0,.01,0,.02,0,0,0,0,0,.01,0,.03,0,.05.01.08.02,0,0,0,0,.01,0,0,0,0,0,.01,0,0,0,.01,0,.02,0,0,0,0,0,.01,0,0,0,0,0,.01,0,0,0,.01,0,.02.01,0,0,.02,0,.02.01,0,0,.01,0,.02.01h0s0,0,.01,0c.01,0,.02.02.03.03,0,0,0,0,0,0,0,0,0,0,0,0,0,0,.01.01.02.02.05.06.08.13.08.21Z"/>
          <path class="cls-15" d="M67.52,90.46h-9.78c-.21,0-.38-.16-.39-.35,0,0,0-.01,0-.02v-.96s0-.01,0-.02c.01-.2.18-.35.39-.35h8.58s0,.03.01.04c.14.5.47,1.17,1.19,1.66Z"/>
          <g>
            <rect class="cls-15" x="74.06" y="88.75" width=".21" height="1.7"/>
            <rect class="cls-15" x="73.36" y="88.75" width=".21" height="1.7"/>
            <rect class="cls-15" x="72.52" y="88.75" width=".21" height="1.7"/>
            <rect class="cls-15" x="71.22" y="88.75" width=".21" height="1.7"/>
            <rect class="cls-15" x="69.86" y="88.75" width=".21" height="1.7"/>
            <rect class="cls-15" x="67.76" y="88.75" width=".21" height="1.7"/>
            <rect class="cls-15" x="65.8" y="88.75" width=".21" height="1.7"/>
            <rect class="cls-15" x="64.05" y="88.75" width=".21" height="1.7"/>
            <rect class="cls-15" x="74.73" y="88.75" width=".21" height="1.7"/>
            <rect class="cls-15" x="75.17" y="88.75" width=".21" height="1.7"/>
            <rect class="cls-15" x="75.6" y="88.75" width=".21" height="1.7"/>
            <path class="cls-15" d="M76.13,88.76v1.69s-.05,0-.08,0h-.13v-1.71h.13s.05,0,.08,0Z"/>
            <path class="cls-15" d="M76.42,88.92v1.38c-.05.06-.12.11-.21.14v-1.66c.08.03.16.08.21.14Z"/>
          </g>
        </g>
        <g>
          <path class="cls-18" d="M77.43,87.46v.96c0,.08-.03.15-.08.21-.05.06-.12.11-.21.14-.03,0-.05.01-.08.02-.03,0-.05,0-.08,0h-18.26c-.07,0-.14-.02-.2-.04-.13-.06-.22-.17-.24-.29,0,0,0-.01,0-.02,0,0,0-.01,0-.02v-.96s0-.01,0-.02c.01-.2.21-.35.44-.35h18.26s.05,0,.08,0c.03,0,.05.01.08.02.08.03.16.08.21.14.05.06.08.13.08.21Z"/>
          <path class="cls-15" d="M68.47,88.8h-9.78c-.07,0-.13-.02-.18-.04-.12-.06-.2-.17-.21-.29,0,0,0-.01,0-.02,0,0,0-.01,0-.02v-.96s0-.01,0-.02c.01-.2.18-.35.39-.35h8.58c.13.49.44,1.16,1.14,1.66.02.01.04.03.06.04Z"/>
          <g>
            <rect class="cls-15" x="75.01" y="87.09" width=".21" height="1.71"/>
            <rect class="cls-15" x="74.3" y="87.09" width=".21" height="1.71"/>
            <rect class="cls-15" x="73.46" y="87.09" width=".21" height="1.71"/>
            <rect class="cls-15" x="72.17" y="87.09" width=".21" height="1.71"/>
            <rect class="cls-15" x="70.8" y="87.09" width=".21" height="1.71"/>
            <rect class="cls-15" x="68.71" y="87.09" width=".21" height="1.71"/>
            <rect class="cls-15" x="66.75" y="87.09" width=".21" height="1.71"/>
            <rect class="cls-15" x="65" y="87.09" width=".21" height="1.71"/>
            <rect class="cls-15" x="75.67" y="87.09" width=".21" height="1.71"/>
            <rect class="cls-15" x="76.12" y="87.09" width=".21" height="1.71"/>
            <rect class="cls-15" x="76.54" y="87.09" width=".21" height="1.71"/>
            <path class="cls-15" d="M77.07,87.1v1.69s-.05,0-.08,0h-.13v-1.71h.13s.05,0,.08,0Z"/>
            <path class="cls-15" d="M77.36,87.26v1.38c-.05.06-.12.11-.21.14v-1.65c.08.03.16.08.21.14Z"/>
          </g>
        </g>
        <g>
          <path class="cls-18" d="M77.87,85.76v.96c0,.08-.03.15-.08.21-.05.06-.12.11-.21.14-.03,0-.05.02-.08.02-.03,0-.05,0-.08,0h-18.26c-.24,0-.43-.16-.44-.35,0,0,0-.01,0-.02v-.96s0-.01,0-.02c.01-.18.18-.33.39-.35.02,0,.03,0,.05,0h18.26s.05,0,.08,0c.03,0,.05.01.08.02.08.03.16.08.21.14.05.06.08.13.08.21Z"/>
          <path class="cls-15" d="M68.9,87.09h-9.78c-.21,0-.38-.16-.39-.35,0,0,0-.01,0-.02v-.96s0-.01,0-.02c0-.18.16-.33.35-.35.02,0,.03,0,.05,0h8.58s0,0,0,0c.14.5.46,1.19,1.2,1.7Z"/>
          <g>
            <rect class="cls-15" x="75.44" y="85.39" width=".21" height="1.71"/>
            <rect class="cls-15" x="74.74" y="85.39" width=".21" height="1.71"/>
            <rect class="cls-15" x="73.9" y="85.39" width=".21" height="1.71"/>
            <rect class="cls-15" x="72.61" y="85.39" width=".21" height="1.71"/>
            <rect class="cls-15" x="71.24" y="85.39" width=".21" height="1.71"/>
            <rect class="cls-15" x="69.15" y="85.39" width=".21" height="1.71"/>
            <rect class="cls-15" x="67.19" y="85.39" width=".21" height="1.71"/>
            <rect class="cls-15" x="65.43" y="85.39" width=".21" height="1.71"/>
            <rect class="cls-15" x="76.11" y="85.39" width=".21" height="1.71"/>
            <rect class="cls-15" x="76.55" y="85.39" width=".21" height="1.71"/>
            <rect class="cls-15" x="76.98" y="85.39" width=".21" height="1.71"/>
            <path class="cls-15" d="M77.51,85.39v1.69s-.05,0-.08,0h-.13v-1.71h.13s.05,0,.08,0Z"/>
            <path class="cls-15" d="M77.8,85.55v1.38c-.05.06-.12.11-.21.14v-1.66c.08.03.16.08.21.14Z"/>
          </g>
        </g>
        <g>
          <path class="cls-18" d="M76.53,84.06v.96c0,.08-.03.15-.08.21-.05.06-.12.11-.21.14-.03,0-.05.01-.08.02,0,0-.02,0-.03,0,0,0,0,0-.01,0,0,0,0,0-.01,0,0,0-.02,0-.02,0h-18.26c-.24,0-.43-.16-.44-.35,0,0,0-.01,0-.02v-.96s0-.01,0-.02c0,0,0-.01,0-.02.02-.16.15-.29.33-.32,0,0,0,0,.01,0,.03,0,.06,0,.1,0h18.26s.03,0,.04,0c0,0,.01,0,.02,0h0s.01,0,.02,0c.03,0,.05.01.08.02.08.03.16.08.21.14.05.06.08.13.08.21Z"/>
          <path class="cls-15" d="M67.56,85.39h-9.78c-.21,0-.38-.16-.39-.35,0,0,0-.01,0-.02v-.96s0-.01,0-.02c0,0,0-.01,0-.02.02-.16.14-.29.31-.33,0,0,.01,0,.02,0,.02,0,.05,0,.07,0h8.58s0,0,0,.01c.14.5.46,1.19,1.19,1.69,0,0,0,0,0,0Z"/>
          <g>
            <rect class="cls-15" x="74.1" y="83.68" width=".21" height="1.71"/>
            <rect class="cls-15" x="73.4" y="83.68" width=".21" height="1.71"/>
            <rect class="cls-15" x="72.55" y="83.68" width=".21" height="1.71"/>
            <rect class="cls-15" x="71.26" y="83.68" width=".21" height="1.71"/>
            <rect class="cls-15" x="69.9" y="83.68" width=".21" height="1.71"/>
            <rect class="cls-15" x="67.8" y="83.68" width=".21" height="1.71"/>
            <rect class="cls-15" x="65.84" y="83.68" width=".21" height="1.71"/>
            <rect class="cls-15" x="64.09" y="83.68" width=".21" height="1.71"/>
            <rect class="cls-15" x="74.77" y="83.68" width=".21" height="1.71"/>
            <rect class="cls-15" x="75.21" y="83.68" width=".21" height="1.71"/>
            <rect class="cls-15" x="75.64" y="83.68" width=".21" height="1.71"/>
            <path class="cls-15" d="M76.17,83.69v1.69s-.05,0-.08,0h-.13v-1.71h.13s.05,0,.08,0Z"/>
            <path class="cls-15" d="M76.45,83.85v1.38c-.05.06-.12.11-.21.14v-1.66c.08.03.16.08.21.14Z"/>
          </g>
        </g>
        <g>
          <path class="cls-18" d="M76.49,82.36v.96c0,.08-.03.15-.08.21-.05.06-.12.11-.21.14-.02,0-.04.01-.06.02h0s-.01,0-.02,0c-.03,0-.05,0-.08,0h-18.26s-.04,0-.06,0c0,0-.01,0-.02,0-.2-.03-.35-.17-.36-.35,0,0,0-.01,0-.02v-.96s0-.01,0-.02c.01-.2.21-.35.44-.35h18.26s.02,0,.03,0c0,0,0,0,.01,0,0,0,.01,0,.02,0,0,0,0,0,.01,0,.03,0,.05.01.08.02,0,0,0,0,.01,0,0,0,0,0,.01,0,0,0,.01,0,.02,0,0,0,.02,0,.02.01,0,0,.01,0,.02.01,0,0,.02,0,.02.01,0,0,.01,0,.02.01h0s0,0,.01,0c.01,0,.02.02.03.03,0,0,0,0,0,0,0,0,0,0,0,0,0,0,.01.01.02.02.05.06.08.13.08.21Z"/>
          <path class="cls-15" d="M67.52,83.7h-9.78s-.02,0-.02,0c0,0-.02,0-.03,0-.19-.02-.34-.17-.35-.35,0,0,0-.01,0-.02v-.96s0-.01,0-.02c.01-.2.18-.35.39-.35h8.58s0,.03.01.04c.14.49.46,1.16,1.17,1.65,0,0,.01,0,.02.01Z"/>
          <g>
            <rect class="cls-15" x="74.06" y="81.99" width=".21" height="1.71"/>
            <rect class="cls-15" x="73.36" y="81.99" width=".21" height="1.71"/>
            <rect class="cls-15" x="72.52" y="81.99" width=".21" height="1.71"/>
            <rect class="cls-15" x="71.22" y="81.99" width=".21" height="1.71"/>
            <rect class="cls-15" x="69.86" y="81.99" width=".21" height="1.71"/>
            <rect class="cls-15" x="67.76" y="81.99" width=".21" height="1.71"/>
            <rect class="cls-15" x="65.8" y="81.99" width=".21" height="1.71"/>
            <rect class="cls-15" x="64.05" y="81.99" width=".21" height="1.71"/>
            <rect class="cls-15" x="74.73" y="81.99" width=".21" height="1.71"/>
            <rect class="cls-15" x="75.17" y="81.99" width=".21" height="1.71"/>
            <rect class="cls-15" x="75.6" y="81.99" width=".21" height="1.71"/>
            <path class="cls-15" d="M76.13,82v1.69s-.05,0-.08,0h-.13v-1.71h.13s.05,0,.08,0Z"/>
            <path class="cls-15" d="M76.42,82.15v1.38c-.05.06-.12.11-.21.14v-1.66c.08.03.16.08.21.14Z"/>
          </g>
        </g>
        <g>
          <path class="cls-18" d="M77.43,80.7v.96c0,.08-.03.15-.08.21-.05.06-.12.11-.21.14-.03,0-.05.02-.08.02-.03,0-.05,0-.08,0h-18.26c-.07,0-.14-.02-.2-.04-.13-.06-.22-.17-.24-.29,0,0,0-.01,0-.02,0,0,0-.01,0-.02v-.96s0-.01,0-.02c.01-.2.21-.35.44-.35h18.26s.05,0,.08,0c.03,0,.05.01.08.02.08.03.16.08.21.14.05.06.08.13.08.21Z"/>
          <path class="cls-15" d="M68.47,82.03h-9.78c-.07,0-.13-.02-.18-.04-.12-.06-.2-.17-.21-.29,0,0,0-.01,0-.02,0,0,0-.01,0-.02v-.96s0-.01,0-.02c.01-.2.18-.35.39-.35h8.58c.13.49.44,1.16,1.14,1.66.02.01.04.03.06.04Z"/>
          <g>
            <rect class="cls-15" x="75.01" y="80.33" width=".21" height="1.71"/>
            <rect class="cls-15" x="74.3" y="80.33" width=".21" height="1.71"/>
            <rect class="cls-15" x="73.46" y="80.33" width=".21" height="1.71"/>
            <rect class="cls-15" x="72.17" y="80.33" width=".21" height="1.71"/>
            <rect class="cls-15" x="70.8" y="80.33" width=".21" height="1.71"/>
            <rect class="cls-15" x="68.71" y="80.33" width=".21" height="1.71"/>
            <rect class="cls-15" x="66.75" y="80.33" width=".21" height="1.71"/>
            <rect class="cls-15" x="65" y="80.33" width=".21" height="1.71"/>
            <rect class="cls-15" x="75.67" y="80.33" width=".21" height="1.71"/>
            <rect class="cls-15" x="76.12" y="80.33" width=".21" height="1.71"/>
            <rect class="cls-15" x="76.54" y="80.33" width=".21" height="1.71"/>
            <path class="cls-15" d="M77.07,80.33v1.69s-.05,0-.08,0h-.13v-1.71h.13s.05,0,.08,0Z"/>
            <path class="cls-15" d="M77.36,80.49v1.38c-.05.06-.12.11-.21.14v-1.66c.08.03.16.08.21.14Z"/>
          </g>
        </g>
        <g>
          <path class="cls-18" d="M78.93,78.99v.96c0,.08-.03.15-.08.21-.05.06-.12.11-.21.14-.03,0-.05.01-.08.02-.03,0-.05,0-.08,0h-18.26c-.24,0-.43-.16-.44-.35,0,0,0-.01,0-.02v-.96s0-.01,0-.02c.01-.18.18-.33.39-.35.02,0,.03,0,.05,0h18.26s.05,0,.08,0c.03,0,.05.01.08.02.08.03.16.08.21.14.05.06.08.13.08.21Z"/>
          <path class="cls-15" d="M69.96,80.33h-9.78c-.21,0-.38-.16-.39-.35,0,0,0-.01,0-.02v-.96s0-.01,0-.02c0-.18.16-.33.35-.35.02,0,.03,0,.05,0h8.58s0,0,0,0c.14.5.46,1.19,1.2,1.7Z"/>
          <g>
            <rect class="cls-15" x="76.5" y="78.62" width=".21" height="1.71"/>
            <rect class="cls-15" x="75.79" y="78.62" width=".21" height="1.71"/>
            <rect class="cls-15" x="74.95" y="78.62" width=".21" height="1.71"/>
            <rect class="cls-15" x="73.66" y="78.62" width=".21" height="1.71"/>
            <rect class="cls-15" x="72.29" y="78.62" width=".21" height="1.71"/>
            <rect class="cls-15" x="70.2" y="78.62" width=".21" height="1.71"/>
            <rect class="cls-15" x="68.24" y="78.62" width=".21" height="1.71"/>
            <rect class="cls-15" x="66.49" y="78.62" width=".21" height="1.71"/>
            <rect class="cls-15" x="77.17" y="78.62" width=".21" height="1.71"/>
            <rect class="cls-15" x="77.61" y="78.62" width=".21" height="1.71"/>
            <rect class="cls-15" x="78.04" y="78.62" width=".21" height="1.71"/>
            <path class="cls-15" d="M78.56,78.63v1.69s-.05,0-.08,0h-.13v-1.71h.13s.05,0,.08,0Z"/>
            <path class="cls-15" d="M78.85,78.79v1.38c-.05.06-.12.11-.21.14v-1.65c.08.03.16.08.21.14Z"/>
          </g>
        </g>
        <g>
          <path class="cls-18" d="M76.53,77.29v.96c0,.08-.03.15-.08.21-.05.06-.12.11-.21.14-.03,0-.05.02-.08.02,0,0-.02,0-.03,0,0,0-.01,0-.02,0,0,0,0,0-.01,0,0,0-.01,0-.02,0h-18.26c-.24,0-.43-.16-.44-.35,0,0,0-.01,0-.02v-.96s0-.01,0-.02c.01-.2.21-.35.44-.35h18.26s.02,0,.02,0c.02,0,.04,0,.05,0,.03,0,.05.01.08.02.01,0,.03,0,.04.01,0,0,.02,0,.02.01,0,0,0,0,0,0,0,0,.01,0,.02.01,0,0,0,0,0,0,0,0,.01,0,.02.01.02,0,.03.02.04.03,0,0,0,0,.01.01,0,0,0,0,0,0,0,0,0,0,0,0,0,0,0,0,0,0,0,0,0,0,.01.01,0,0,.01.01.02.02.05.06.08.13.08.21Z"/>
          <path class="cls-15" d="M67.56,78.63h-9.78c-.21,0-.38-.16-.39-.35,0,0,0-.01,0-.02v-.96s0-.01,0-.02c.01-.2.18-.35.39-.35h8.58s0,.03.01.04c.14.5.46,1.17,1.19,1.66,0,0,0,0,0,0Z"/>
          <g>
            <rect class="cls-15" x="74.1" y="76.92" width=".21" height="1.71"/>
            <rect class="cls-15" x="73.4" y="76.92" width=".21" height="1.71"/>
            <rect class="cls-15" x="72.55" y="76.92" width=".21" height="1.71"/>
            <rect class="cls-15" x="71.26" y="76.92" width=".21" height="1.71"/>
            <rect class="cls-15" x="69.9" y="76.92" width=".21" height="1.71"/>
            <rect class="cls-15" x="67.8" y="76.92" width=".21" height="1.71"/>
            <rect class="cls-15" x="65.84" y="76.92" width=".21" height="1.71"/>
            <rect class="cls-15" x="64.09" y="76.92" width=".21" height="1.71"/>
            <rect class="cls-15" x="74.77" y="76.92" width=".21" height="1.71"/>
            <rect class="cls-15" x="75.21" y="76.92" width=".21" height="1.71"/>
            <rect class="cls-15" x="75.64" y="76.92" width=".21" height="1.71"/>
            <path class="cls-15" d="M76.17,76.93v1.69s-.05,0-.08,0h-.13v-1.71h.13s.05,0,.08,0Z"/>
            <path class="cls-15" d="M76.45,77.08v1.38c-.05.06-.12.11-.21.14v-1.66c.08.03.16.08.21.14Z"/>
          </g>
        </g>
        <g>
          <path class="cls-18" d="M77.87,75.63v.96c0,.08-.03.15-.08.21-.05.06-.12.11-.21.14-.03,0-.05.02-.08.02-.03,0-.05,0-.08,0h-18.26c-.07,0-.14-.01-.2-.04-.13-.06-.23-.17-.24-.3,0,0,0-.01,0-.02,0,0,0-.01,0-.02v-.96s0-.01,0-.02c.01-.18.18-.33.39-.35.02,0,.03,0,.05,0h18.26s.05,0,.08,0c.03,0,.05.01.08.02.08.03.16.08.21.14.05.06.08.13.08.21Z"/>
          <path class="cls-15" d="M68.9,76.96h-9.78c-.06,0-.12-.01-.18-.04-.12-.06-.2-.17-.22-.3,0,0,0-.01,0-.02,0,0,0-.01,0-.02v-.96s0-.01,0-.02c0-.18.16-.33.35-.35.02,0,.03,0,.05,0h8.58s0,0,0,0c.13.49.44,1.16,1.14,1.66.02.01.04.03.06.04Z"/>
          <g>
            <rect class="cls-15" x="75.44" y="75.25" width=".21" height="1.71"/>
            <rect class="cls-15" x="74.74" y="75.25" width=".21" height="1.71"/>
            <rect class="cls-15" x="73.9" y="75.25" width=".21" height="1.71"/>
            <rect class="cls-15" x="72.61" y="75.25" width=".21" height="1.71"/>
            <rect class="cls-15" x="71.24" y="75.25" width=".21" height="1.71"/>
            <rect class="cls-15" x="69.15" y="75.25" width=".21" height="1.71"/>
            <rect class="cls-15" x="67.19" y="75.25" width=".21" height="1.71"/>
            <rect class="cls-15" x="65.43" y="75.25" width=".21" height="1.71"/>
            <rect class="cls-15" x="76.11" y="75.25" width=".21" height="1.71"/>
            <rect class="cls-15" x="76.55" y="75.25" width=".21" height="1.71"/>
            <rect class="cls-15" x="76.98" y="75.25" width=".21" height="1.71"/>
            <path class="cls-15" d="M77.51,75.26v1.69s-.05,0-.08,0h-.13v-1.71h.13s.05,0,.08,0Z"/>
            <path class="cls-15" d="M77.8,75.42v1.38c-.05.06-.12.11-.21.14v-1.65c.08.03.16.08.21.14Z"/>
          </g>
        </g>
        <g>
          <path class="cls-18" d="M78.44,73.92v.96c0,.08-.03.15-.08.21-.05.06-.12.11-.21.14-.03,0-.05.02-.08.02,0,0-.02,0-.03,0,0,0,0,0-.01,0,0,0,0,0-.01,0,0,0-.02,0-.02,0h-18.26c-.24,0-.43-.16-.44-.35,0,0,0-.01,0-.02v-.96s0-.01,0-.02c.01-.2.21-.35.44-.35h18.26s.05,0,.08,0c.03,0,.05.01.08.02.08.03.16.08.21.14.05.06.08.13.08.21Z"/>
          <path class="cls-15" d="M69.48,75.26h-9.78c-.21,0-.38-.16-.39-.35,0,0,0-.01,0-.02v-.96s0-.01,0-.02c.01-.2.18-.35.39-.35h8.58c.14.5.46,1.19,1.2,1.7,0,0,0,0,0,0Z"/>
          <g>
            <rect class="cls-15" x="76.01" y="73.55" width=".21" height="1.7"/>
            <rect class="cls-15" x="75.31" y="73.55" width=".21" height="1.7"/>
            <rect class="cls-15" x="74.47" y="73.55" width=".21" height="1.7"/>
            <rect class="cls-15" x="73.18" y="73.55" width=".21" height="1.7"/>
            <rect class="cls-15" x="71.81" y="73.55" width=".21" height="1.7"/>
            <rect class="cls-15" x="69.72" y="73.55" width=".21" height="1.7"/>
            <rect class="cls-15" x="67.76" y="73.55" width=".21" height="1.7"/>
            <rect class="cls-15" x="66.01" y="73.55" width=".21" height="1.71"/>
            <rect class="cls-15" x="76.68" y="73.55" width=".21" height="1.7"/>
            <rect class="cls-15" x="77.12" y="73.55" width=".21" height="1.7"/>
            <rect class="cls-15" x="77.55" y="73.55" width=".21" height="1.7"/>
            <path class="cls-15" d="M78.08,73.56v1.69s-.05,0-.08,0h-.13v-1.7h.13s.05,0,.08,0Z"/>
            <path class="cls-15" d="M78.37,73.72v1.38c-.05.06-.12.11-.21.14v-1.66c.08.03.16.08.21.14Z"/>
          </g>
        </g>
      </g>
      <g>
        <g>
          <path class="cls-18" d="M77.49,72.19v.96c0,.08-.03.15-.08.21-.05.06-.12.11-.21.14-.03,0-.05.02-.08.02-.03,0-.05,0-.08,0h-18.26c-.24,0-.43-.16-.44-.35,0,0,0-.01,0-.02v-.96s0-.01,0-.02c.01-.2.21-.35.44-.35h18.26s.05,0,.08,0c.03,0,.05.01.08.02.08.03.16.08.21.14.05.06.08.13.08.21Z"/>
          <path class="cls-15" d="M68.53,73.52h-9.78c-.21,0-.38-.16-.39-.35,0,0,0-.01,0-.02v-.96s0-.01,0-.02c.01-.2.18-.35.39-.35h8.58c.14.5.46,1.2,1.2,1.71Z"/>
          <g>
            <rect class="cls-15" x="75.06" y="71.82" width=".21" height="1.71"/>
            <rect class="cls-15" x="74.36" y="71.82" width=".21" height="1.71"/>
            <rect class="cls-15" x="73.52" y="71.82" width=".21" height="1.71"/>
            <rect class="cls-15" x="72.23" y="71.82" width=".21" height="1.71"/>
            <rect class="cls-15" x="70.86" y="71.82" width=".21" height="1.71"/>
            <rect class="cls-15" x="68.77" y="71.82" width=".21" height="1.71"/>
            <rect class="cls-15" x="66.81" y="71.82" width=".21" height="1.71"/>
            <rect class="cls-15" x="65.06" y="71.82" width=".21" height="1.71"/>
            <rect class="cls-15" x="75.73" y="71.82" width=".21" height="1.71"/>
            <rect class="cls-15" x="76.18" y="71.82" width=".21" height="1.71"/>
            <rect class="cls-15" x="76.6" y="71.82" width=".21" height="1.71"/>
            <path class="cls-15" d="M77.13,71.82v1.69s-.05,0-.08,0h-.13v-1.71h.13s.05,0,.08,0Z"/>
            <path class="cls-15" d="M77.42,71.98v1.38c-.05.06-.12.11-.21.14v-1.65c.08.03.16.08.21.14Z"/>
          </g>
        </g>
        <g>
          <path class="cls-18" d="M75.54,70.48v.96c0,.08-.03.15-.08.21-.05.06-.12.11-.21.14-.03,0-.05.01-.08.02-.03,0-.05,0-.08,0h-18.26c-.24,0-.43-.16-.44-.35,0,0,0-.01,0-.02v-.96s0-.01,0-.02c.01-.2.21-.35.44-.35h18.26s.02,0,.03,0c0,0,0,0,.01,0,0,0,.01,0,.02,0,0,0,0,0,.01,0,.03,0,.05.01.08.02,0,0,0,0,.01,0,0,0,0,0,.01,0,0,0,.01,0,.02,0,0,0,0,0,.01,0,0,0,0,0,.01,0,0,0,.01,0,.02.01,0,0,.02,0,.02.01,0,0,.01,0,.02.01,0,0,0,0,0,0,0,0,0,0,.01,0,.01,0,.02.02.03.03,0,0,0,0,0,0s0,0,0,0c0,0,.01.01.02.02.05.06.08.13.08.21Z"/>
          <path class="cls-15" d="M66.57,71.82h-9.78c-.21,0-.38-.16-.39-.35,0,0,0-.01,0-.02v-.96s0-.01,0-.02c.01-.2.18-.35.39-.35h8.58s0,.03.01.04c.14.5.47,1.17,1.19,1.66Z"/>
          <g>
            <rect class="cls-15" x="73.11" y="70.11" width=".21" height="1.7"/>
            <rect class="cls-15" x="72.41" y="70.11" width=".21" height="1.7"/>
            <rect class="cls-15" x="71.57" y="70.11" width=".21" height="1.7"/>
            <rect class="cls-15" x="70.27" y="70.11" width=".21" height="1.7"/>
            <rect class="cls-15" x="68.91" y="70.11" width=".21" height="1.7"/>
            <rect class="cls-15" x="66.81" y="70.11" width=".21" height="1.7"/>
            <rect class="cls-15" x="64.85" y="70.11" width=".21" height="1.7"/>
            <rect class="cls-15" x="63.1" y="70.11" width=".21" height="1.7"/>
            <rect class="cls-15" x="73.78" y="70.11" width=".21" height="1.7"/>
            <rect class="cls-15" x="74.22" y="70.11" width=".21" height="1.7"/>
            <rect class="cls-15" x="74.65" y="70.11" width=".21" height="1.7"/>
            <path class="cls-15" d="M75.18,70.12v1.69s-.05,0-.08,0h-.13v-1.7h.13s.05,0,.08,0Z"/>
            <path class="cls-15" d="M75.47,70.28v1.38c-.05.06-.12.11-.21.14v-1.66c.08.03.16.08.21.14Z"/>
          </g>
        </g>
        <g>
          <path class="cls-18" d="M76.49,68.82v.96c0,.08-.03.15-.08.21-.05.06-.12.11-.21.14-.03,0-.05.01-.08.02-.03,0-.05,0-.08,0h-18.26c-.07,0-.14-.02-.2-.04-.13-.06-.22-.17-.24-.29,0,0,0-.01,0-.02,0,0,0-.01,0-.02v-.96s0-.01,0-.02c.01-.2.21-.35.44-.35h18.26s.05,0,.08,0c.03,0,.05.01.08.02.08.03.16.08.21.14.05.06.08.13.08.21Z"/>
          <path class="cls-15" d="M67.52,70.15h-9.78c-.07,0-.13-.02-.18-.04-.12-.06-.2-.17-.21-.29,0,0,0-.01,0-.02,0,0,0-.01,0-.02v-.96s0-.01,0-.02c.01-.2.18-.35.39-.35h8.58c.13.49.44,1.16,1.14,1.66.02.01.04.03.06.04Z"/>
          <g>
            <rect class="cls-15" x="74.06" y="68.45" width=".21" height="1.71"/>
            <rect class="cls-15" x="73.35" y="68.45" width=".21" height="1.71"/>
            <rect class="cls-15" x="72.51" y="68.45" width=".21" height="1.71"/>
            <rect class="cls-15" x="71.22" y="68.45" width=".21" height="1.71"/>
            <rect class="cls-15" x="69.85" y="68.45" width=".21" height="1.71"/>
            <rect class="cls-15" x="67.76" y="68.45" width=".21" height="1.71"/>
            <rect class="cls-15" x="65.8" y="68.45" width=".21" height="1.71"/>
            <rect class="cls-15" x="64.05" y="68.45" width=".21" height="1.71"/>
            <rect class="cls-15" x="74.72" y="68.45" width=".21" height="1.71"/>
            <rect class="cls-15" x="75.17" y="68.45" width=".21" height="1.71"/>
            <rect class="cls-15" x="75.59" y="68.45" width=".21" height="1.71"/>
            <path class="cls-15" d="M76.12,68.46v1.69s-.05,0-.08,0h-.13v-1.71h.13s.05,0,.08,0Z"/>
            <path class="cls-15" d="M76.41,68.61v1.38c-.05.06-.12.11-.21.14v-1.66c.08.03.16.08.21.14Z"/>
          </g>
        </g>
        <g>
          <path class="cls-18" d="M76.92,67.12v.96c0,.08-.03.15-.08.21-.05.06-.12.11-.21.14-.03,0-.05.01-.08.02-.03,0-.05,0-.08,0h-18.26c-.24,0-.43-.16-.44-.35,0,0,0-.01,0-.02v-.96s0-.01,0-.02c.01-.18.18-.33.39-.35.02,0,.03,0,.05,0h18.26s.05,0,.08,0c.03,0,.05.01.08.02.08.03.16.08.21.14.05.06.08.13.08.21Z"/>
          <path class="cls-15" d="M67.95,68.45h-9.78c-.21,0-.38-.16-.39-.35,0,0,0-.01,0-.02v-.96s0-.01,0-.02c0-.18.16-.33.35-.35.02,0,.03,0,.05,0h8.58s0,0,0,0c.14.5.46,1.19,1.2,1.7Z"/>
          <g>
            <rect class="cls-15" x="74.49" y="66.74" width=".21" height="1.71"/>
            <rect class="cls-15" x="73.79" y="66.74" width=".21" height="1.71"/>
            <rect class="cls-15" x="72.95" y="66.74" width=".21" height="1.71"/>
            <rect class="cls-15" x="71.66" y="66.74" width=".21" height="1.71"/>
            <rect class="cls-15" x="70.29" y="66.74" width=".21" height="1.71"/>
            <rect class="cls-15" x="68.2" y="66.74" width=".21" height="1.71"/>
            <rect class="cls-15" x="66.24" y="66.74" width=".21" height="1.71"/>
            <rect class="cls-15" x="64.49" y="66.74" width=".21" height="1.71"/>
            <rect class="cls-15" x="75.16" y="66.74" width=".21" height="1.71"/>
            <rect class="cls-15" x="75.6" y="66.74" width=".21" height="1.71"/>
            <rect class="cls-15" x="76.03" y="66.74" width=".21" height="1.71"/>
            <path class="cls-15" d="M76.56,66.75v1.69s-.05,0-.08,0h-.13v-1.71h.13s.05,0,.08,0Z"/>
            <path class="cls-15" d="M76.85,66.91v1.38c-.05.06-.12.11-.21.14v-1.65c.08.03.16.08.21.14Z"/>
          </g>
        </g>
        <g>
          <path class="cls-18" d="M75.58,65.41v.96c0,.08-.03.15-.08.21-.05.06-.12.11-.21.14-.03,0-.05.01-.08.02,0,0-.02,0-.03,0,0,0,0,0-.01,0,0,0,0,0-.01,0,0,0-.02,0-.02,0h-18.26c-.24,0-.43-.16-.44-.35,0,0,0-.01,0-.02v-.96s0-.01,0-.02c0,0,0-.01,0-.02.02-.16.15-.29.33-.32,0,0,0,0,.01,0,.03,0,.06,0,.1,0h18.26s.03,0,.04,0c0,0,.01,0,.02,0h0s.01,0,.02,0c.03,0,.05.01.08.02.08.03.16.08.21.14.05.06.08.13.08.21Z"/>
          <path class="cls-15" d="M66.61,66.75h-9.78c-.21,0-.38-.16-.39-.35,0,0,0-.01,0-.02v-.96s0-.01,0-.02c0,0,0-.01,0-.02.02-.16.14-.29.31-.33,0,0,.01,0,.02,0,.02,0,.05,0,.07,0h8.58s0,0,0,.01c.14.5.46,1.19,1.19,1.69,0,0,0,0,0,0Z"/>
          <g>
            <rect class="cls-15" x="73.15" y="65.04" width=".21" height="1.71"/>
            <rect class="cls-15" x="72.45" y="65.04" width=".21" height="1.71"/>
            <rect class="cls-15" x="71.6" y="65.04" width=".21" height="1.71"/>
            <rect class="cls-15" x="70.31" y="65.04" width=".21" height="1.71"/>
            <rect class="cls-15" x="68.95" y="65.04" width=".21" height="1.71"/>
            <rect class="cls-15" x="66.85" y="65.04" width=".21" height="1.71"/>
            <rect class="cls-15" x="64.89" y="65.04" width=".21" height="1.71"/>
            <rect class="cls-15" x="63.14" y="65.04" width=".21" height="1.71"/>
            <rect class="cls-15" x="73.82" y="65.04" width=".21" height="1.71"/>
            <rect class="cls-15" x="74.26" y="65.04" width=".21" height="1.71"/>
            <rect class="cls-15" x="74.69" y="65.04" width=".21" height="1.71"/>
            <path class="cls-15" d="M75.22,65.05v1.69s-.05,0-.08,0h-.13v-1.71h.13s.05,0,.08,0Z"/>
            <path class="cls-15" d="M75.5,65.21v1.38c-.05.06-.12.11-.21.14v-1.66c.08.03.16.08.21.14Z"/>
          </g>
        </g>
        <g>
          <path class="cls-18" d="M75.54,63.72v.96c0,.08-.03.15-.08.21-.05.06-.12.11-.21.14-.02,0-.04.01-.06.02h0s-.01,0-.02,0c-.03,0-.05,0-.08,0h-18.26s-.04,0-.06,0c0,0-.01,0-.02,0-.2-.03-.35-.17-.36-.35,0,0,0-.01,0-.02v-.96s0-.01,0-.02c.01-.2.21-.35.44-.35h18.26s.02,0,.03,0c0,0,0,0,.01,0,0,0,.01,0,.02,0,0,0,0,0,.01,0,.03,0,.05.01.08.02,0,0,0,0,.01,0,0,0,0,0,.01,0,0,0,.01,0,.02,0,0,0,.02,0,.02.01,0,0,.01,0,.02.01,0,0,.02,0,.02.01,0,0,.01,0,.02.01,0,0,0,0,0,0,0,0,0,0,.01,0,.01,0,.02.02.03.03,0,0,0,0,0,0,0,0,0,0,0,0,0,0,.01.01.02.02.05.06.08.13.08.21Z"/>
          <path class="cls-15" d="M66.57,65.05h-9.78s-.02,0-.02,0c0,0-.02,0-.03,0-.19-.02-.34-.17-.35-.35,0,0,0-.01,0-.02v-.96s0-.01,0-.02c.01-.2.18-.35.39-.35h8.58s0,.03.01.04c.14.49.46,1.16,1.17,1.65,0,0,.01,0,.02.01Z"/>
          <g>
            <rect class="cls-15" x="73.11" y="63.35" width=".21" height="1.71"/>
            <rect class="cls-15" x="72.41" y="63.35" width=".21" height="1.71"/>
            <rect class="cls-15" x="71.57" y="63.35" width=".21" height="1.71"/>
            <rect class="cls-15" x="70.27" y="63.35" width=".21" height="1.71"/>
            <rect class="cls-15" x="68.91" y="63.35" width=".21" height="1.71"/>
            <rect class="cls-15" x="66.81" y="63.35" width=".21" height="1.71"/>
            <rect class="cls-15" x="64.85" y="63.35" width=".21" height="1.71"/>
            <rect class="cls-15" x="63.1" y="63.35" width=".21" height="1.71"/>
            <rect class="cls-15" x="73.78" y="63.35" width=".21" height="1.71"/>
            <rect class="cls-15" x="74.22" y="63.35" width=".21" height="1.71"/>
            <rect class="cls-15" x="74.65" y="63.35" width=".21" height="1.71"/>
            <path class="cls-15" d="M75.18,63.36v1.69s-.05,0-.08,0h-.13v-1.71h.13s.05,0,.08,0Z"/>
            <path class="cls-15" d="M75.47,63.51v1.38c-.05.06-.12.11-.21.14v-1.66c.08.03.16.08.21.14Z"/>
          </g>
        </g>
        <g>
          <path class="cls-18" d="M76.49,62.06v.96c0,.08-.03.15-.08.21-.05.06-.12.11-.21.14-.03,0-.05.02-.08.02-.03,0-.05,0-.08,0h-18.26c-.07,0-.14-.02-.2-.04-.13-.06-.22-.17-.24-.29,0,0,0-.01,0-.02,0,0,0-.01,0-.02v-.96s0-.01,0-.02c.01-.2.21-.35.44-.35h18.26s.05,0,.08,0c.03,0,.05.01.08.02.08.03.16.08.21.14.05.06.08.13.08.21Z"/>
          <path class="cls-15" d="M67.52,63.39h-9.78c-.07,0-.13-.02-.18-.04-.12-.06-.2-.17-.21-.29,0,0,0-.01,0-.02,0,0,0-.01,0-.02v-.96s0-.01,0-.02c.01-.2.18-.35.39-.35h8.58c.13.49.44,1.16,1.14,1.66.02.01.04.03.06.04Z"/>
          <g>
            <rect class="cls-15" x="74.06" y="61.69" width=".21" height="1.71"/>
            <rect class="cls-15" x="73.35" y="61.69" width=".21" height="1.71"/>
            <rect class="cls-15" x="72.51" y="61.69" width=".21" height="1.71"/>
            <rect class="cls-15" x="71.22" y="61.69" width=".21" height="1.71"/>
            <rect class="cls-15" x="69.85" y="61.69" width=".21" height="1.71"/>
            <rect class="cls-15" x="67.76" y="61.69" width=".21" height="1.71"/>
            <rect class="cls-15" x="65.8" y="61.69" width=".21" height="1.71"/>
            <rect class="cls-15" x="64.05" y="61.69" width=".21" height="1.71"/>
            <rect class="cls-15" x="74.72" y="61.69" width=".21" height="1.71"/>
            <rect class="cls-15" x="75.17" y="61.69" width=".21" height="1.71"/>
            <rect class="cls-15" x="75.59" y="61.69" width=".21" height="1.71"/>
            <path class="cls-15" d="M76.12,61.69v1.69s-.05,0-.08,0h-.13v-1.71h.13s.05,0,.08,0Z"/>
            <path class="cls-15" d="M76.41,61.85v1.38c-.05.06-.12.11-.21.14v-1.66c.08.03.16.08.21.14Z"/>
          </g>
        </g>
        <g>
          <path class="cls-18" d="M77.98,60.35v.96c0,.08-.03.15-.08.21-.05.06-.12.11-.21.14-.03,0-.05.01-.08.02-.03,0-.05,0-.08,0h-18.26c-.24,0-.43-.16-.44-.35,0,0,0-.01,0-.02v-.96s0-.01,0-.02c.01-.18.18-.33.39-.35.02,0,.03,0,.05,0h18.26s.05,0,.08,0c.03,0,.05.01.08.02.08.03.16.08.21.14.05.06.08.13.08.21Z"/>
          <path class="cls-15" d="M69.01,61.69h-9.78c-.21,0-.38-.16-.39-.35,0,0,0-.01,0-.02v-.96s0-.01,0-.02c0-.18.16-.33.35-.35.02,0,.03,0,.05,0h8.58s0,0,0,0c.14.5.46,1.19,1.2,1.7Z"/>
          <g>
            <rect class="cls-15" x="75.55" y="59.98" width=".21" height="1.7"/>
            <rect class="cls-15" x="74.85" y="59.98" width=".21" height="1.7"/>
            <rect class="cls-15" x="74" y="59.98" width=".21" height="1.7"/>
            <rect class="cls-15" x="72.71" y="59.98" width=".21" height="1.7"/>
            <rect class="cls-15" x="71.35" y="59.98" width=".21" height="1.7"/>
            <rect class="cls-15" x="69.25" y="59.98" width=".21" height="1.7"/>
            <rect class="cls-15" x="67.29" y="59.98" width=".21" height="1.7"/>
            <rect class="cls-15" x="65.54" y="59.98" width=".21" height="1.7"/>
            <rect class="cls-15" x="76.22" y="59.98" width=".21" height="1.7"/>
            <rect class="cls-15" x="76.66" y="59.98" width=".21" height="1.7"/>
            <rect class="cls-15" x="77.09" y="59.98" width=".21" height="1.7"/>
            <path class="cls-15" d="M77.61,59.99v1.69s-.05,0-.08,0h-.13v-1.71h.13s.05,0,.08,0Z"/>
            <path class="cls-15" d="M77.9,60.15v1.38c-.05.06-.12.11-.21.14v-1.66c.08.03.16.08.21.14Z"/>
          </g>
        </g>
      </g>
      <g>
        <g>
          <path class="cls-18" d="M109.4,90.78v.96c0,.08-.03.15-.08.21-.05.06-.12.11-.21.14-.03,0-.05.01-.08.02-.03,0-.05,0-.08,0h-18.26c-.22,0-.41-.14-.44-.32,0-.01,0-.02,0-.04v-1s0-.02,0-.04c.03-.18.22-.32.44-.32h18.26s.05,0,.08,0c.03,0,.06.01.08.02.08.03.16.08.21.14.05.06.08.13.08.21Z"/>
          <path class="cls-15" d="M100.43,92.11h-9.78c-.18,0-.33-.12-.38-.28,0-.01,0-.03-.01-.04,0-.01,0-.02,0-.04v-1s0-.02,0-.04c0-.01,0-.03.01-.04.05-.16.2-.28.38-.28h8.58c.14.5.46,1.2,1.2,1.7Z"/>
          <g>
            <rect class="cls-15" x="106.97" y="90.41" width=".21" height="1.71"/>
            <rect class="cls-15" x="106.27" y="90.41" width=".21" height="1.71"/>
            <rect class="cls-15" x="105.43" y="90.41" width=".21" height="1.71"/>
            <rect class="cls-15" x="104.14" y="90.41" width=".21" height="1.71"/>
            <rect class="cls-15" x="102.77" y="90.41" width=".21" height="1.71"/>
            <rect class="cls-15" x="100.68" y="90.41" width=".21" height="1.71"/>
            <rect class="cls-15" x="98.72" y="90.41" width=".21" height="1.71"/>
            <rect class="cls-15" x="96.97" y="90.41" width=".21" height="1.71"/>
            <rect class="cls-15" x="107.64" y="90.41" width=".21" height="1.71"/>
            <rect class="cls-15" x="108.08" y="90.41" width=".21" height="1.71"/>
            <rect class="cls-15" x="108.51" y="90.41" width=".21" height="1.71"/>
            <path class="cls-15" d="M109.04,90.41v1.69s-.05,0-.08,0h-.13v-1.7h.13s.05,0,.08,0Z"/>
            <path class="cls-15" d="M109.33,90.57v1.38c-.05.06-.12.11-.21.14v-1.66c.08.03.16.08.21.14Z"/>
          </g>
        </g>
        <g>
          <path class="cls-18" d="M107.45,89.07v.96c0,.08-.03.15-.08.21-.05.06-.12.11-.21.14-.03,0-.05.01-.08.02-.01,0-.02,0-.04,0-.01,0-.03,0-.04,0h-18.26c-.22,0-.41-.14-.44-.32,0-.01,0-.02,0-.04,0,0,0-.01,0-.02v-.96s0-.01,0-.02c0-.01,0-.02,0-.04.03-.18.22-.32.44-.32h18.26s.02,0,.04,0c0,0,0,0,.01,0h0s.01,0,.02,0c0,0,0,0,.01,0,.03,0,.05.01.08.02,0,0,0,0,.01,0,0,0,0,0,.01,0,0,0,0,0,0,0,0,0,0,0,.01,0,0,0,0,0,.01,0,0,0,0,0,0,0,0,0,0,0,0,0,0,0,.01,0,.02.01.02.01.04.02.05.04,0,0,.01.01.02.02.02.01.03.03.04.05.05.06.08.13.08.21Z"/>
          <path class="cls-15" d="M98.48,90.41h-9.78c-.18,0-.33-.12-.38-.28,0-.01,0-.03-.01-.04,0-.01,0-.02,0-.04,0,0,0-.01,0-.02v-.96s0-.01,0-.02c0-.01,0-.02,0-.04,0-.01,0-.03.01-.04.04-.16.2-.28.38-.28h8.58s0,.03.01.04c.07.26.2.56.4.86.19.28.44.56.79.8Z"/>
          <g>
            <rect class="cls-15" x="105.02" y="88.7" width=".21" height="1.71"/>
            <rect class="cls-15" x="104.32" y="88.7" width=".21" height="1.71"/>
            <rect class="cls-15" x="103.48" y="88.7" width=".21" height="1.71"/>
            <rect class="cls-15" x="102.18" y="88.7" width=".21" height="1.71"/>
            <rect class="cls-15" x="100.82" y="88.7" width=".21" height="1.71"/>
            <rect class="cls-15" x="98.72" y="88.7" width=".21" height="1.71"/>
            <rect class="cls-15" x="96.76" y="88.7" width=".21" height="1.71"/>
            <rect class="cls-15" x="95.01" y="88.7" width=".21" height="1.71"/>
            <rect class="cls-15" x="105.69" y="88.7" width=".21" height="1.71"/>
            <rect class="cls-15" x="106.13" y="88.7" width=".21" height="1.71"/>
            <rect class="cls-15" x="106.56" y="88.7" width=".21" height="1.71"/>
            <path class="cls-15" d="M107.09,88.71v1.69s-.05,0-.08,0h-.13v-1.7h.13s.05,0,.08,0Z"/>
            <path class="cls-15" d="M107.37,88.87v1.38c-.05.06-.12.11-.21.14v-1.66c.08.03.16.08.21.14Z"/>
          </g>
        </g>
        <g>
          <path class="cls-18" d="M108.39,87.41v.96c0,.08-.03.15-.08.21-.05.06-.12.11-.21.14-.03,0-.05.01-.08.02-.03,0-.05,0-.08,0h-18.26c-.07,0-.14-.02-.2-.04-.13-.06-.22-.17-.24-.29,0,0,0-.01,0-.02s0-.01,0-.02v-.96s0-.01,0-.02c0-.01,0-.02,0-.04.03-.18.22-.32.44-.32h18.26s.05,0,.08,0c.03,0,.05.01.08.02.08.03.16.08.21.14.05.06.08.13.08.21Z"/>
          <path class="cls-15" d="M99.43,88.75h-9.79c-.07,0-.13-.02-.18-.04-.12-.06-.2-.17-.21-.29,0,0,0-.01,0-.02s0-.01,0-.02v-.96s0-.01,0-.02c0-.01,0-.02,0-.04,0-.01,0-.03.01-.04.04-.16.2-.28.38-.28h8.58c.05.2.14.43.26.67.18.34.46.7.88,1,.02.01.04.03.06.04Z"/>
          <g>
            <rect class="cls-15" x="105.96" y="87.04" width=".21" height="1.71"/>
            <rect class="cls-15" x="105.26" y="87.04" width=".21" height="1.71"/>
            <rect class="cls-15" x="104.42" y="87.04" width=".21" height="1.71"/>
            <rect class="cls-15" x="103.13" y="87.04" width=".21" height="1.71"/>
            <rect class="cls-15" x="101.76" y="87.04" width=".21" height="1.71"/>
            <rect class="cls-15" x="99.67" y="87.04" width=".21" height="1.71"/>
            <rect class="cls-15" x="97.71" y="87.04" width=".21" height="1.71"/>
            <rect class="cls-15" x="95.96" y="87.04" width=".21" height="1.71"/>
            <rect class="cls-15" x="106.63" y="87.04" width=".21" height="1.71"/>
            <rect class="cls-15" x="107.07" y="87.04" width=".21" height="1.71"/>
            <rect class="cls-15" x="107.5" y="87.04" width=".21" height="1.71"/>
            <path class="cls-15" d="M108.03,87.05v1.69s-.05,0-.08,0h-.13v-1.71h.13s.05,0,.08,0Z"/>
            <path class="cls-15" d="M108.32,87.2v1.38c-.05.06-.12.11-.21.14v-1.66c.08.03.16.08.21.14Z"/>
          </g>
        </g>
        <g>
          <path class="cls-18" d="M108.83,85.71v.96c0,.08-.03.15-.08.21-.01.02-.03.03-.04.04-.05.04-.1.07-.16.09-.03,0-.05.01-.08.02-.01,0-.03,0-.04,0-.01,0-.03,0-.04,0h-18.26c-.22,0-.41-.14-.44-.32,0-.01,0-.02,0-.04,0,0,0-.01,0-.02v-.96s0-.01,0-.02c0-.01,0-.02,0-.03.03-.17.19-.3.39-.32.02,0,.03,0,.05,0h18.26s.05,0,.08,0c.03,0,.05.01.08.02.08.03.16.08.21.14.05.06.08.13.08.21Z"/>
          <path class="cls-15" d="M99.86,87.04h-9.79c-.18,0-.33-.12-.38-.28,0-.01,0-.03-.01-.04,0-.01,0-.02,0-.04,0,0,0-.01,0-.02v-.96s0-.01,0-.02c0-.01,0-.02,0-.03.03-.16.17-.3.34-.32.02,0,.03,0,.05,0h8.58s0,0,0,0c.05.17.12.37.22.57.19.39.5.8.98,1.13Z"/>
          <g>
            <rect class="cls-15" x="106.4" y="85.34" width=".21" height="1.71"/>
            <rect class="cls-15" x="105.7" y="85.34" width=".21" height="1.71"/>
            <rect class="cls-15" x="104.86" y="85.34" width=".21" height="1.71"/>
            <rect class="cls-15" x="103.56" y="85.34" width=".21" height="1.71"/>
            <rect class="cls-15" x="102.2" y="85.34" width=".21" height="1.71"/>
            <rect class="cls-15" x="100.11" y="85.34" width=".21" height="1.71"/>
            <rect class="cls-15" x="98.14" y="85.34" width=".21" height="1.71"/>
            <rect class="cls-15" x="96.39" y="85.34" width=".21" height="1.71"/>
            <rect class="cls-15" x="107.07" y="85.34" width=".21" height="1.71"/>
            <rect class="cls-15" x="107.51" y="85.34" width=".21" height="1.71"/>
            <rect class="cls-15" x="107.94" y="85.34" width=".21" height="1.71"/>
            <path class="cls-15" d="M108.47,85.34v1.69s-.05,0-.08,0h-.13v-1.7h.13s.05,0,.08,0Z"/>
            <path class="cls-15" d="M108.76,85.5v1.38c-.05.06-.12.11-.21.14v-1.66c.08.03.16.08.21.14Z"/>
          </g>
        </g>
        <g>
          <path class="cls-18" d="M107.49,84v.96c0,.08-.03.15-.08.21-.05.06-.12.11-.21.14-.03,0-.05.02-.08.02,0,0-.02,0-.03,0h0s-.02,0-.03,0c0,0-.02,0-.02,0h-18.26c-.22,0-.41-.14-.44-.32,0-.01,0-.02,0-.04v-1s0-.01,0-.02c.02-.16.15-.29.33-.32,0,0,0,0,.01,0,.03,0,.06,0,.1,0h18.26s.03,0,.04,0c0,0,.01,0,.02,0h0s.01,0,.02,0c.03,0,.05.01.08.02.08.03.16.08.21.14.05.06.08.13.08.21Z"/>
          <path class="cls-15" d="M98.52,85.34h-9.78c-.18,0-.33-.12-.38-.28,0-.01,0-.03-.01-.04,0-.01,0-.02,0-.04v-1s0-.01,0-.02c.02-.16.14-.29.31-.33,0,0,.01,0,.02,0,.02,0,.05,0,.07,0h8.58s0,0,0,.01c.14.5.46,1.19,1.19,1.69,0,0,0,0,0,0Z"/>
          <g>
            <rect class="cls-15" x="105.06" y="83.63" width=".21" height="1.7"/>
            <rect class="cls-15" x="104.36" y="83.63" width=".21" height="1.7"/>
            <rect class="cls-15" x="103.51" y="83.63" width=".21" height="1.7"/>
            <rect class="cls-15" x="102.22" y="83.63" width=".21" height="1.7"/>
            <rect class="cls-15" x="100.86" y="83.63" width=".21" height="1.7"/>
            <rect class="cls-15" x="98.76" y="83.63" width=".21" height="1.7"/>
            <rect class="cls-15" x="96.8" y="83.63" width=".21" height="1.7"/>
            <rect class="cls-15" x="95.05" y="83.63" width=".21" height="1.7"/>
            <rect class="cls-15" x="105.73" y="83.63" width=".21" height="1.7"/>
            <rect class="cls-15" x="106.17" y="83.63" width=".21" height="1.7"/>
            <rect class="cls-15" x="106.6" y="83.63" width=".21" height="1.7"/>
            <path class="cls-15" d="M107.12,83.64v1.69s-.05,0-.08,0h-.13v-1.71h.13s.05,0,.08,0Z"/>
            <path class="cls-15" d="M107.41,83.8v1.38c-.05.06-.12.11-.21.14v-1.66c.08.03.16.08.21.14Z"/>
          </g>
        </g>
        <g>
          <path class="cls-18" d="M107.45,82.31v.96c0,.08-.03.15-.08.21-.05.06-.12.11-.21.14-.02,0-.04.01-.06.02h0s-.01,0-.02,0c-.02,0-.05,0-.08,0h-18.26s-.04,0-.06,0c0,0-.01,0-.02,0-.19-.03-.33-.16-.36-.31,0-.01,0-.02,0-.03,0,0,0-.01,0-.02v-.96s0-.01,0-.02c0-.01,0-.02,0-.04.03-.18.22-.32.44-.32h18.26s.02,0,.04,0c0,0,0,0,0,0,0,0,0,0,.01,0,0,0,.01,0,.02,0,0,0,0,0,.01,0,.03,0,.05.01.08.02,0,0,0,0,.01,0,0,0,0,0,.01,0,0,0,0,0,0,0,0,0,0,0,.01,0,0,0,0,0,0,0,0,0,0,0,.01,0,.03.01.06.03.09.05,0,0,.01.01.02.02s.01.01.02.02c0,0,0,0,0,0,0,0,.01.01.02.02.05.06.08.13.08.21Z"/>
          <path class="cls-15" d="M98.48,83.64h-9.78s-.02,0-.02,0c0,0-.02,0-.03,0-.18-.02-.32-.15-.34-.32,0-.01,0-.02,0-.03,0,0,0-.01,0-.02v-.96s0-.01,0-.02c0-.01,0-.02,0-.04,0-.01,0-.03.01-.04.04-.16.2-.28.38-.28h8.58s0,.03.01.04c.14.49.46,1.16,1.17,1.65,0,0,.01,0,.02.01Z"/>
          <g>
            <rect class="cls-15" x="105.02" y="81.94" width=".21" height="1.71"/>
            <rect class="cls-15" x="104.32" y="81.94" width=".21" height="1.71"/>
            <rect class="cls-15" x="103.48" y="81.94" width=".21" height="1.71"/>
            <rect class="cls-15" x="102.18" y="81.94" width=".21" height="1.71"/>
            <rect class="cls-15" x="100.82" y="81.94" width=".21" height="1.71"/>
            <rect class="cls-15" x="98.72" y="81.94" width=".21" height="1.71"/>
            <rect class="cls-15" x="96.76" y="81.94" width=".21" height="1.71"/>
            <rect class="cls-15" x="95.01" y="81.94" width=".21" height="1.71"/>
            <rect class="cls-15" x="105.69" y="81.94" width=".21" height="1.71"/>
            <rect class="cls-15" x="106.13" y="81.94" width=".21" height="1.71"/>
            <rect class="cls-15" x="106.56" y="81.94" width=".21" height="1.71"/>
            <path class="cls-15" d="M107.09,81.95v1.69s-.05,0-.08,0h-.13v-1.7h.13s.05,0,.08,0Z"/>
            <path class="cls-15" d="M107.37,82.1v1.38c-.05.06-.12.11-.21.14v-1.66c.08.03.16.08.21.14Z"/>
          </g>
        </g>
        <g>
          <path class="cls-18" d="M108.39,80.65v.96c0,.08-.03.15-.08.21-.05.06-.12.11-.21.14-.03,0-.05.01-.08.02-.01,0-.03,0-.04,0-.01,0-.03,0-.04,0h-18.26c-.07,0-.14-.01-.2-.04-.13-.06-.22-.17-.24-.29,0,0,0-.01,0-.02s0-.01,0-.02v-.96s0-.01,0-.02c0-.01,0-.02,0-.04.03-.18.22-.32.44-.32h18.26s.05,0,.08,0c.03,0,.05.01.08.02.08.03.16.08.21.14.05.06.08.13.08.21Z"/>
          <path class="cls-15" d="M99.43,81.98h-9.79c-.07,0-.13-.01-.18-.04-.12-.06-.2-.17-.21-.29,0,0,0-.01,0-.02s0-.01,0-.02v-.96s0-.01,0-.02c0-.01,0-.02,0-.04,0-.01,0-.03.01-.04.04-.16.2-.28.38-.28h8.58c.13.49.44,1.16,1.14,1.66.02.01.04.03.06.04Z"/>
          <g>
            <rect class="cls-15" x="105.96" y="80.28" width=".21" height="1.71"/>
            <rect class="cls-15" x="105.26" y="80.28" width=".21" height="1.71"/>
            <rect class="cls-15" x="104.42" y="80.28" width=".21" height="1.71"/>
            <rect class="cls-15" x="103.13" y="80.28" width=".21" height="1.71"/>
            <rect class="cls-15" x="101.76" y="80.28" width=".21" height="1.71"/>
            <rect class="cls-15" x="99.67" y="80.28" width=".21" height="1.71"/>
            <rect class="cls-15" x="97.71" y="80.28" width=".21" height="1.71"/>
            <rect class="cls-15" x="95.96" y="80.28" width=".21" height="1.71"/>
            <rect class="cls-15" x="106.63" y="80.28" width=".21" height="1.71"/>
            <rect class="cls-15" x="107.07" y="80.28" width=".21" height="1.71"/>
            <rect class="cls-15" x="107.5" y="80.28" width=".21" height="1.71"/>
            <path class="cls-15" d="M108.03,80.28v1.69s-.05,0-.08,0h-.13v-1.71h.13s.05,0,.08,0Z"/>
            <path class="cls-15" d="M108.32,80.44v1.38c-.05.06-.12.11-.21.14v-1.66c.08.03.16.08.21.14Z"/>
          </g>
        </g>
        <g>
          <path class="cls-18" d="M109.89,78.94v.96c0,.08-.03.15-.08.21,0,0-.01.02-.02.02-.05.05-.11.09-.19.12-.03,0-.05.01-.08.02-.03,0-.05,0-.08,0h-18.26c-.22,0-.41-.14-.44-.32,0-.01,0-.02,0-.04,0,0,0-.01,0-.02v-.96s0-.01,0-.02c.01-.18.18-.33.39-.35.02,0,.03,0,.05,0h18.26s.05,0,.08,0c.03,0,.05.01.08.02.07.02.14.06.19.12,0,0,.01.01.02.02.05.06.08.13.08.21Z"/>
          <path class="cls-15" d="M100.92,80.28h-9.79c-.18,0-.33-.12-.38-.28,0-.01,0-.03-.01-.04,0-.01,0-.02,0-.04,0,0,0-.01,0-.02v-.96s0-.01,0-.02c0-.02,0-.03,0-.05.03-.16.17-.28.34-.3.02,0,.03,0,.05,0h8.58c.14.5.46,1.2,1.2,1.71Z"/>
          <g>
            <rect class="cls-15" x="107.46" y="78.57" width=".21" height="1.7"/>
            <rect class="cls-15" x="106.75" y="78.57" width=".21" height="1.7"/>
            <rect class="cls-15" x="105.91" y="78.57" width=".21" height="1.7"/>
            <rect class="cls-15" x="104.62" y="78.57" width=".21" height="1.7"/>
            <rect class="cls-15" x="103.25" y="78.57" width=".21" height="1.7"/>
            <rect class="cls-15" x="101.16" y="78.57" width=".21" height="1.7"/>
            <rect class="cls-15" x="99.2" y="78.57" width=".21" height="1.7"/>
            <rect class="cls-15" x="97.45" y="78.57" width=".21" height="1.7"/>
            <rect class="cls-15" x="108.13" y="78.57" width=".21" height="1.7"/>
            <rect class="cls-15" x="108.57" y="78.57" width=".21" height="1.7"/>
            <rect class="cls-15" x="108.99" y="78.57" width=".21" height="1.7"/>
            <path class="cls-15" d="M109.52,78.58v1.69s-.05,0-.08,0h-.13v-1.71h.13s.05,0,.08,0Z"/>
            <path class="cls-15" d="M109.81,78.74v1.38c-.05.06-.12.11-.21.14v-1.66c.08.03.16.08.21.14Z"/>
          </g>
        </g>
        <g>
          <path class="cls-18" d="M107.49,77.24v.96c0,.08-.03.15-.08.21-.05.06-.12.11-.21.14-.03,0-.05.02-.08.02,0,0-.02,0-.03,0h0s0,0-.01,0c0,0,0,0,0,0,0,0,0,0-.01,0h-18.29c-.22,0-.41-.14-.44-.32,0-.01,0-.02,0-.04v-1s0-.02,0-.04c.03-.18.22-.32.44-.32h18.26s.02,0,.02,0h0s.01,0,.02,0c.01,0,.02,0,.03,0,.03,0,.05.01.08.02.01,0,.02,0,.03.01,0,0,0,0,0,0h0c.07.03.13.07.17.12.05.06.08.13.08.21Z"/>
          <path class="cls-15" d="M98.52,78.57h-9.78c-.18,0-.33-.12-.38-.28,0-.01,0-.03-.01-.04,0-.01,0-.02,0-.04v-1s0-.02,0-.04c0-.01,0-.03.01-.04.05-.16.2-.28.38-.28h8.58s0,.03.01.04c.14.5.46,1.17,1.19,1.66,0,0,0,0,0,0Z"/>
          <g>
            <rect class="cls-15" x="105.06" y="76.87" width=".21" height="1.7"/>
            <rect class="cls-15" x="104.36" y="76.87" width=".21" height="1.7"/>
            <rect class="cls-15" x="103.51" y="76.87" width=".21" height="1.7"/>
            <rect class="cls-15" x="102.22" y="76.87" width=".21" height="1.7"/>
            <rect class="cls-15" x="100.86" y="76.87" width=".21" height="1.7"/>
            <rect class="cls-15" x="98.76" y="76.87" width=".21" height="1.7"/>
            <rect class="cls-15" x="96.8" y="76.87" width=".21" height="1.7"/>
            <rect class="cls-15" x="95.05" y="76.87" width=".21" height="1.7"/>
            <rect class="cls-15" x="105.73" y="76.87" width=".21" height="1.7"/>
            <rect class="cls-15" x="106.17" y="76.87" width=".21" height="1.7"/>
            <rect class="cls-15" x="106.6" y="76.87" width=".21" height="1.7"/>
            <path class="cls-15" d="M107.12,76.88v1.69s-.05,0-.08,0h-.13v-1.71h.13s.05,0,.08,0Z"/>
            <path class="cls-15" d="M107.41,77.03v1.38c-.05.06-.12.11-.21.14v-1.65c.08.03.16.08.21.14Z"/>
          </g>
        </g>
        <g>
          <path class="cls-18" d="M108.83,75.57v.96c0,.08-.03.15-.08.21-.05.06-.12.11-.21.14-.03,0-.05.01-.08.02-.03,0-.05,0-.08,0h-18.26c-.07,0-.14-.01-.2-.04-.12-.05-.22-.15-.24-.27,0,0,0-.02,0-.02,0,0,0-.01,0-.01,0,0,0-.01,0-.02v-.96s0-.01,0-.02c0-.01,0-.02,0-.03.03-.16.19-.3.39-.32.02,0,.03,0,.05,0h18.26s.03,0,.05,0c0,0,.02,0,.03,0,.03,0,.05.01.08.02.08.03.16.08.21.14.05.06.08.13.08.21Z"/>
          <path class="cls-15" d="M99.86,76.91h-9.79c-.06,0-.12-.01-.18-.04-.11-.05-.19-.15-.21-.27,0,0,0-.02,0-.02,0,0,0-.01,0-.01,0,0,0-.01,0-.02v-.96s0-.01,0-.02c0-.01,0-.02,0-.03.03-.16.17-.3.34-.32.02,0,.03,0,.05,0h8.58s0,0,0,0c.13.49.44,1.16,1.14,1.66.02.01.04.03.06.04Z"/>
          <g>
            <rect class="cls-15" x="106.4" y="75.2" width=".21" height="1.71"/>
            <rect class="cls-15" x="105.7" y="75.2" width=".21" height="1.71"/>
            <rect class="cls-15" x="104.86" y="75.2" width=".21" height="1.71"/>
            <rect class="cls-15" x="103.56" y="75.2" width=".21" height="1.71"/>
            <rect class="cls-15" x="102.2" y="75.2" width=".21" height="1.71"/>
            <rect class="cls-15" x="100.11" y="75.2" width=".21" height="1.71"/>
            <rect class="cls-15" x="98.14" y="75.2" width=".21" height="1.71"/>
            <rect class="cls-15" x="96.39" y="75.2" width=".21" height="1.71"/>
            <rect class="cls-15" x="107.07" y="75.2" width=".21" height="1.71"/>
            <rect class="cls-15" x="107.51" y="75.2" width=".21" height="1.71"/>
            <rect class="cls-15" x="107.94" y="75.2" width=".21" height="1.71"/>
            <path class="cls-15" d="M108.47,75.21v1.69s-.05,0-.08,0h-.13v-1.71h.13s.05,0,.08,0Z"/>
            <path class="cls-15" d="M108.76,75.37v1.38c-.05.06-.12.11-.21.14v-1.66c.08.03.16.08.21.14Z"/>
          </g>
        </g>
        <g>
          <path class="cls-18" d="M109.4,73.87v.96c0,.08-.03.15-.08.21-.01.02-.03.03-.04.04-.05.04-.1.07-.17.09-.03,0-.05.01-.08.02,0,0-.02,0-.03,0,0,0,0,0-.01,0-.01,0-.03,0-.04,0h-18.26s-.03,0-.05,0c-.2-.02-.36-.15-.39-.31,0-.01,0-.02,0-.04v-1s0-.02,0-.04c.03-.18.22-.32.44-.32h18.26s.05,0,.08,0c.03,0,.06.01.08.02.08.03.16.08.21.14.05.06.08.13.08.21Z"/>
          <path class="cls-15" d="M100.43,75.21h-9.78s-.03,0-.04,0c-.18-.02-.32-.15-.35-.31,0-.01,0-.02,0-.04v-1s0-.02,0-.04c0-.01,0-.03.01-.04.05-.16.2-.28.38-.28h8.58c.14.5.46,1.19,1.2,1.7,0,0,0,0,0,0Z"/>
          <g>
            <rect class="cls-15" x="106.97" y="73.5" width=".21" height="1.71"/>
            <rect class="cls-15" x="106.27" y="73.5" width=".21" height="1.71"/>
            <rect class="cls-15" x="105.43" y="73.5" width=".21" height="1.71"/>
            <rect class="cls-15" x="104.14" y="73.5" width=".21" height="1.71"/>
            <rect class="cls-15" x="102.77" y="73.5" width=".21" height="1.71"/>
            <rect class="cls-15" x="100.68" y="73.5" width=".21" height="1.71"/>
            <rect class="cls-15" x="98.72" y="73.5" width=".21" height="1.71"/>
            <rect class="cls-15" x="96.97" y="73.5" width=".21" height="1.71"/>
            <rect class="cls-15" x="107.64" y="73.5" width=".21" height="1.71"/>
            <rect class="cls-15" x="108.08" y="73.5" width=".21" height="1.71"/>
            <rect class="cls-15" x="108.51" y="73.5" width=".21" height="1.71"/>
            <path class="cls-15" d="M109.04,73.51v1.69s-.05,0-.08,0h-.13v-1.71h.13s.05,0,.08,0Z"/>
            <path class="cls-15" d="M109.33,73.66v1.38c-.05.06-.12.11-.21.14v-1.66c.08.03.16.08.21.14Z"/>
          </g>
        </g>
      </g>
      <g>
        <g>
          <path class="cls-18" d="M51.82,90.78v.96c0,.08-.03.15-.08.21-.05.06-.12.11-.21.14-.03,0-.05.01-.08.02-.03,0-.05,0-.08,0h-18.26c-.24,0-.43-.16-.44-.35,0,0,0-.01,0-.02v-.96s0-.01,0-.02c.01-.2.21-.35.44-.35h18.26s.05,0,.08,0c.03,0,.05.01.08.02.08.03.16.08.21.14.05.06.08.13.08.21Z"/>
          <path class="cls-15" d="M42.86,92.11h-9.78c-.21,0-.38-.16-.39-.35,0,0,0-.01,0-.02v-.96s0-.01,0-.02c.01-.2.18-.35.39-.35h8.58c.14.5.46,1.2,1.2,1.7Z"/>
          <g>
            <rect class="cls-15" x="49.39" y="90.41" width=".21" height="1.71"/>
            <rect class="cls-15" x="48.69" y="90.41" width=".21" height="1.71"/>
            <rect class="cls-15" x="47.85" y="90.41" width=".21" height="1.71"/>
            <rect class="cls-15" x="46.56" y="90.41" width=".21" height="1.71"/>
            <rect class="cls-15" x="45.19" y="90.41" width=".21" height="1.71"/>
            <rect class="cls-15" x="43.1" y="90.41" width=".21" height="1.71"/>
            <rect class="cls-15" x="41.14" y="90.41" width=".21" height="1.71"/>
            <rect class="cls-15" x="39.39" y="90.41" width=".21" height="1.71"/>
            <rect class="cls-15" x="50.06" y="90.41" width=".21" height="1.71"/>
            <rect class="cls-15" x="50.5" y="90.41" width=".21" height="1.71"/>
            <rect class="cls-15" x="50.93" y="90.41" width=".21" height="1.71"/>
            <path class="cls-15" d="M51.46,90.41v1.69s-.05,0-.08,0h-.13v-1.7h.13s.05,0,.08,0Z"/>
            <path class="cls-15" d="M51.75,90.57v1.38c-.05.06-.12.11-.21.14v-1.66c.08.03.16.08.21.14Z"/>
          </g>
        </g>
        <g>
          <path class="cls-18" d="M49.87,89.07v.96c0,.08-.03.15-.08.21-.05.06-.12.11-.21.14-.03,0-.05.02-.08.02-.03,0-.05,0-.08,0h-18.26c-.24,0-.43-.16-.44-.35,0,0,0-.01,0-.02v-.96s0-.01,0-.02c.01-.2.21-.35.44-.35h18.26s.02,0,.03,0c0,0,0,0,.01,0,0,0,.01,0,.02,0,0,0,0,0,.01,0,.03,0,.05.01.08.02,0,0,0,0,.01,0,0,0,0,0,.01,0,0,0,.01,0,.02,0,0,0,0,0,.01,0,0,0,0,0,.01,0,0,0,.01,0,.02.01,0,0,.02,0,.02.01,0,0,.01,0,.02.01,0,0,0,0,0,0,0,0,0,0,.01,0,.01,0,.02.02.03.03,0,0,0,0,0,0,0,0,0,0,0,0,0,0,.01.01.02.02.05.06.08.13.08.21Z"/>
          <path class="cls-15" d="M40.9,90.41h-9.78c-.21,0-.38-.16-.39-.35,0,0,0-.01,0-.02v-.96s0-.01,0-.02c.01-.2.18-.35.39-.35h8.58s0,.03.01.04c.14.5.47,1.17,1.19,1.66Z"/>
          <g>
            <rect class="cls-15" x="47.44" y="88.7" width=".21" height="1.71"/>
            <rect class="cls-15" x="46.74" y="88.7" width=".21" height="1.71"/>
            <rect class="cls-15" x="45.9" y="88.7" width=".21" height="1.71"/>
            <rect class="cls-15" x="44.6" y="88.7" width=".21" height="1.71"/>
            <rect class="cls-15" x="43.24" y="88.7" width=".21" height="1.71"/>
            <rect class="cls-15" x="41.14" y="88.7" width=".21" height="1.71"/>
            <rect class="cls-15" x="39.18" y="88.7" width=".21" height="1.71"/>
            <rect class="cls-15" x="37.43" y="88.7" width=".21" height="1.71"/>
            <rect class="cls-15" x="48.11" y="88.7" width=".21" height="1.71"/>
            <rect class="cls-15" x="48.55" y="88.7" width=".21" height="1.71"/>
            <rect class="cls-15" x="48.98" y="88.7" width=".21" height="1.71"/>
            <path class="cls-15" d="M49.51,88.71v1.69s-.05,0-.08,0h-.13v-1.7h.13s.05,0,.08,0Z"/>
            <path class="cls-15" d="M49.8,88.87v1.38c-.05.06-.12.11-.21.14v-1.66c.08.03.16.08.21.14Z"/>
          </g>
        </g>
        <g>
          <path class="cls-18" d="M50.81,87.41v.96c0,.08-.03.15-.08.21-.05.06-.12.11-.21.14-.03,0-.05.01-.08.02-.03,0-.05,0-.08,0h-18.26c-.07,0-.14-.02-.2-.04-.13-.06-.22-.17-.24-.29,0,0,0-.01,0-.02,0,0,0-.01,0-.02v-.96s0-.01,0-.02c.01-.2.21-.35.44-.35h18.26s.05,0,.08,0c.03,0,.05.01.08.02.08.03.16.08.21.14.05.06.08.13.08.21Z"/>
          <path class="cls-15" d="M41.85,88.75h-9.78c-.07,0-.13-.02-.18-.04-.12-.06-.2-.17-.21-.29,0,0,0-.01,0-.02,0,0,0-.01,0-.02v-.96s0-.01,0-.02c.01-.2.18-.35.39-.35h8.58c.13.49.44,1.16,1.14,1.66.02.01.04.03.06.04Z"/>
          <g>
            <rect class="cls-15" x="48.38" y="87.04" width=".21" height="1.71"/>
            <rect class="cls-15" x="47.68" y="87.04" width=".21" height="1.71"/>
            <rect class="cls-15" x="46.84" y="87.04" width=".21" height="1.71"/>
            <rect class="cls-15" x="45.55" y="87.04" width=".21" height="1.71"/>
            <rect class="cls-15" x="44.18" y="87.04" width=".21" height="1.71"/>
            <rect class="cls-15" x="42.09" y="87.04" width=".21" height="1.71"/>
            <rect class="cls-15" x="40.13" y="87.04" width=".21" height="1.71"/>
            <rect class="cls-15" x="38.38" y="87.04" width=".21" height="1.71"/>
            <rect class="cls-15" x="49.05" y="87.04" width=".21" height="1.71"/>
            <rect class="cls-15" x="49.5" y="87.04" width=".21" height="1.71"/>
            <rect class="cls-15" x="49.92" y="87.04" width=".21" height="1.71"/>
            <path class="cls-15" d="M50.45,87.05v1.69s-.05,0-.08,0h-.13v-1.71h.13s.05,0,.08,0Z"/>
            <path class="cls-15" d="M50.74,87.2v1.38c-.05.06-.12.11-.21.14v-1.66c.08.03.16.08.21.14Z"/>
          </g>
        </g>
        <g>
          <path class="cls-18" d="M51.25,85.71v.96c0,.08-.03.15-.08.21-.05.06-.12.11-.21.14-.03,0-.05.02-.08.02-.03,0-.05,0-.08,0h-18.26c-.24,0-.43-.16-.44-.35,0,0,0-.01,0-.02v-.96s0-.01,0-.02c.01-.18.18-.33.39-.35.02,0,.03,0,.05,0h18.26s.05,0,.08,0c.03,0,.05.01.08.02.08.03.16.08.21.14.05.06.08.13.08.21Z"/>
          <path class="cls-15" d="M42.28,87.04h-9.78c-.21,0-.38-.16-.39-.35,0,0,0-.01,0-.02v-.96s0-.01,0-.02c0-.18.16-.33.35-.35.02,0,.03,0,.05,0h8.58s0,0,0,0c.14.5.46,1.19,1.2,1.7Z"/>
          <g>
            <rect class="cls-15" x="48.82" y="85.34" width=".21" height="1.71"/>
            <rect class="cls-15" x="48.12" y="85.34" width=".21" height="1.71"/>
            <rect class="cls-15" x="47.28" y="85.34" width=".21" height="1.71"/>
            <rect class="cls-15" x="45.99" y="85.34" width=".21" height="1.71"/>
            <rect class="cls-15" x="44.62" y="85.34" width=".21" height="1.71"/>
            <rect class="cls-15" x="42.53" y="85.34" width=".21" height="1.71"/>
            <rect class="cls-15" x="40.57" y="85.34" width=".21" height="1.71"/>
            <rect class="cls-15" x="38.81" y="85.34" width=".21" height="1.71"/>
            <rect class="cls-15" x="49.49" y="85.34" width=".21" height="1.71"/>
            <rect class="cls-15" x="49.93" y="85.34" width=".21" height="1.71"/>
            <rect class="cls-15" x="50.36" y="85.34" width=".21" height="1.71"/>
            <path class="cls-15" d="M50.89,85.34v1.69s-.05,0-.08,0h-.13v-1.7h.13s.05,0,.08,0Z"/>
            <path class="cls-15" d="M51.18,85.5v1.38c-.05.06-.12.11-.21.14v-1.66c.08.03.16.08.21.14Z"/>
          </g>
        </g>
        <g>
          <path class="cls-18" d="M49.91,84v.96c0,.08-.03.15-.08.21-.05.06-.12.11-.21.14-.03,0-.05.02-.08.02,0,0-.02,0-.03,0,0,0,0,0-.01,0,0,0,0,0-.01,0,0,0-.02,0-.02,0h-18.26c-.24,0-.43-.16-.44-.35,0,0,0-.01,0-.02v-.96s0-.01,0-.02c0,0,0-.01,0-.02.02-.16.15-.29.33-.32,0,0,0,0,.01,0,.03,0,.06,0,.1,0h18.26s.03,0,.04,0c0,0,.01,0,.02,0h0s.01,0,.02,0c.03,0,.05.01.08.02.08.03.16.08.21.14.05.06.08.13.08.21Z"/>
          <path class="cls-15" d="M40.94,85.34h-9.78c-.21,0-.38-.16-.39-.35,0,0,0-.01,0-.02v-.96s0-.01,0-.02c0,0,0-.01,0-.02.02-.16.14-.29.31-.33,0,0,.01,0,.02,0,.02,0,.05,0,.07,0h8.58s0,0,0,.01c.14.5.46,1.19,1.19,1.69h0Z"/>
          <g>
            <rect class="cls-15" x="47.48" y="83.63" width=".21" height="1.7"/>
            <rect class="cls-15" x="46.78" y="83.63" width=".21" height="1.7"/>
            <rect class="cls-15" x="45.93" y="83.63" width=".21" height="1.7"/>
            <rect class="cls-15" x="44.64" y="83.63" width=".21" height="1.7"/>
            <rect class="cls-15" x="43.28" y="83.63" width=".21" height="1.7"/>
            <rect class="cls-15" x="41.18" y="83.63" width=".21" height="1.7"/>
            <rect class="cls-15" x="39.22" y="83.63" width=".21" height="1.7"/>
            <rect class="cls-15" x="37.47" y="83.63" width=".21" height="1.7"/>
            <rect class="cls-15" x="48.15" y="83.63" width=".21" height="1.7"/>
            <rect class="cls-15" x="48.59" y="83.63" width=".21" height="1.7"/>
            <rect class="cls-15" x="49.02" y="83.63" width=".21" height="1.7"/>
            <path class="cls-15" d="M49.55,83.64v1.69s-.05,0-.08,0h-.13v-1.71h.13s.05,0,.08,0Z"/>
            <path class="cls-15" d="M49.83,83.8v1.38c-.05.06-.12.11-.21.14v-1.66c.08.03.16.08.21.14Z"/>
          </g>
        </g>
        <g>
          <path class="cls-18" d="M49.87,82.31v.96c0,.08-.03.15-.08.21-.05.06-.12.11-.21.14-.02,0-.04.01-.06.02h0s-.01,0-.02,0c-.03,0-.05,0-.08,0h-18.26s-.04,0-.06,0c0,0-.01,0-.02,0-.2-.03-.35-.17-.36-.35,0,0,0-.01,0-.02v-.96s0-.01,0-.02c.01-.2.21-.35.44-.35h18.26s.02,0,.03,0c0,0,0,0,.01,0,0,0,.01,0,.02,0,0,0,0,0,.01,0,.03,0,.05.01.08.02,0,0,0,0,.01,0,0,0,0,0,.01,0,0,0,.01,0,.02,0,0,0,.02,0,.02.01,0,0,.01,0,.02.01,0,0,.02,0,.02.01,0,0,.01,0,.02.01,0,0,0,0,0,0,0,0,0,0,.01,0,.01,0,.02.02.03.03,0,0,0,0,0,0,0,0,0,0,0,0,0,0,.01.01.02.02.05.06.08.13.08.21Z"/>
          <path class="cls-15" d="M40.9,83.64h-9.78s-.02,0-.02,0c0,0-.02,0-.03,0-.19-.02-.34-.17-.35-.35,0,0,0-.01,0-.02v-.96s0-.01,0-.02c.01-.2.18-.35.39-.35h8.58s0,.03.01.04c.14.49.46,1.16,1.17,1.65,0,0,.01,0,.02.01Z"/>
          <g>
            <rect class="cls-15" x="47.44" y="81.94" width=".21" height="1.71"/>
            <rect class="cls-15" x="46.74" y="81.94" width=".21" height="1.71"/>
            <rect class="cls-15" x="45.9" y="81.94" width=".21" height="1.71"/>
            <rect class="cls-15" x="44.6" y="81.94" width=".21" height="1.71"/>
            <rect class="cls-15" x="43.24" y="81.94" width=".21" height="1.71"/>
            <rect class="cls-15" x="41.14" y="81.94" width=".21" height="1.71"/>
            <rect class="cls-15" x="39.18" y="81.94" width=".21" height="1.71"/>
            <rect class="cls-15" x="37.43" y="81.94" width=".21" height="1.71"/>
            <rect class="cls-15" x="48.11" y="81.94" width=".21" height="1.71"/>
            <rect class="cls-15" x="48.55" y="81.94" width=".21" height="1.71"/>
            <rect class="cls-15" x="48.98" y="81.94" width=".21" height="1.71"/>
            <path class="cls-15" d="M49.51,81.95v1.69s-.05,0-.08,0h-.13v-1.7h.13s.05,0,.08,0Z"/>
            <path class="cls-15" d="M49.8,82.1v1.38c-.05.06-.12.11-.21.14v-1.66c.08.03.16.08.21.14Z"/>
          </g>
        </g>
        <g>
          <path class="cls-18" d="M50.81,80.65v.96c0,.08-.03.15-.08.21-.05.06-.12.11-.21.14-.03,0-.05.01-.08.02-.03,0-.05,0-.08,0h-18.26c-.07,0-.14-.02-.2-.04-.13-.06-.22-.17-.24-.29,0,0,0-.01,0-.02,0,0,0-.01,0-.02v-.96s0-.01,0-.02c.01-.2.21-.35.44-.35h18.26s.05,0,.08,0c.03,0,.05.01.08.02.08.03.16.08.21.14.05.06.08.13.08.21Z"/>
          <path class="cls-15" d="M41.85,81.98h-9.78c-.07,0-.13-.02-.18-.04-.12-.06-.2-.17-.21-.29,0,0,0-.01,0-.02,0,0,0-.01,0-.02v-.96s0-.01,0-.02c.01-.2.18-.35.39-.35h8.58c.13.49.44,1.16,1.14,1.66.02.01.04.03.06.04Z"/>
          <g>
            <rect class="cls-15" x="48.38" y="80.28" width=".21" height="1.71"/>
            <rect class="cls-15" x="47.68" y="80.28" width=".21" height="1.71"/>
            <rect class="cls-15" x="46.84" y="80.28" width=".21" height="1.71"/>
            <rect class="cls-15" x="45.55" y="80.28" width=".21" height="1.71"/>
            <rect class="cls-15" x="44.18" y="80.28" width=".21" height="1.71"/>
            <rect class="cls-15" x="42.09" y="80.28" width=".21" height="1.71"/>
            <rect class="cls-15" x="40.13" y="80.28" width=".21" height="1.71"/>
            <rect class="cls-15" x="38.38" y="80.28" width=".21" height="1.71"/>
            <rect class="cls-15" x="49.05" y="80.28" width=".21" height="1.71"/>
            <rect class="cls-15" x="49.5" y="80.28" width=".21" height="1.71"/>
            <rect class="cls-15" x="49.92" y="80.28" width=".21" height="1.71"/>
            <path class="cls-15" d="M50.45,80.28v1.69s-.05,0-.08,0h-.13v-1.71h.13s.05,0,.08,0Z"/>
            <path class="cls-15" d="M50.74,80.44v1.38c-.05.06-.12.11-.21.14v-1.66c.08.03.16.08.21.14Z"/>
          </g>
        </g>
        <g>
          <path class="cls-18" d="M52.31,78.94v.96c0,.08-.03.15-.08.21-.05.06-.12.11-.21.14-.03,0-.05.01-.08.02-.03,0-.05,0-.08,0h-18.26c-.24,0-.43-.16-.44-.35,0,0,0-.01,0-.02v-.96s0-.01,0-.02c.01-.18.18-.33.39-.35.02,0,.03,0,.05,0h18.26s.05,0,.08,0c.03,0,.05.01.08.02.08.03.16.08.21.14.05.06.08.13.08.21Z"/>
          <path class="cls-15" d="M43.34,80.28h-9.78c-.21,0-.38-.16-.39-.35,0,0,0-.01,0-.02v-.96s0-.01,0-.02c0-.18.16-.33.35-.35.02,0,.03,0,.05,0h8.58s0,0,0,0c.14.5.46,1.2,1.2,1.7Z"/>
          <g>
            <rect class="cls-15" x="49.88" y="78.57" width=".21" height="1.7"/>
            <rect class="cls-15" x="49.17" y="78.57" width=".21" height="1.7"/>
            <rect class="cls-15" x="48.33" y="78.57" width=".21" height="1.7"/>
            <rect class="cls-15" x="47.04" y="78.57" width=".21" height="1.7"/>
            <rect class="cls-15" x="45.67" y="78.57" width=".21" height="1.7"/>
            <rect class="cls-15" x="43.58" y="78.57" width=".21" height="1.7"/>
            <rect class="cls-15" x="41.62" y="78.57" width=".21" height="1.7"/>
            <rect class="cls-15" x="39.87" y="78.57" width=".21" height="1.7"/>
            <rect class="cls-15" x="50.55" y="78.57" width=".21" height="1.7"/>
            <rect class="cls-15" x="50.99" y="78.57" width=".21" height="1.7"/>
            <rect class="cls-15" x="51.41" y="78.57" width=".21" height="1.7"/>
            <path class="cls-15" d="M51.94,78.58v1.69s-.05,0-.08,0h-.13v-1.71h.13s.05,0,.08,0Z"/>
            <path class="cls-15" d="M52.23,78.74v1.38c-.05.06-.12.11-.21.14v-1.66c.08.03.16.08.21.14Z"/>
          </g>
        </g>
        <g>
          <path class="cls-18" d="M49.91,77.24v.96c0,.08-.03.15-.08.21-.05.06-.12.11-.21.14-.03,0-.05.02-.08.02,0,0-.02,0-.03,0,0,0-.01,0-.02,0h-.01s-.01,0-.02,0h-18.26c-.24,0-.43-.16-.44-.35,0,0,0-.01,0-.02v-.96s0-.01,0-.02c.01-.2.21-.35.44-.35h18.26s.02,0,.02,0c.02,0,.04,0,.05,0,.03,0,.05.01.08.02.01,0,.03,0,.04.01,0,0,.02,0,.02.01,0,0,0,0,0,0,0,0,.02,0,.02.01,0,0,0,0,0,0,0,0,.01,0,.02.01.02,0,.03.02.04.03,0,0,0,0,.01.01,0,0,0,0,0,0,0,0,0,0,0,0,0,0,0,0,0,0,0,0,0,0,.01.01,0,0,.01.01.02.02.05.06.08.13.08.21Z"/>
          <path class="cls-15" d="M40.94,78.57h-9.78c-.21,0-.38-.16-.39-.35,0,0,0-.01,0-.02v-.96s0-.01,0-.02c.01-.2.18-.35.39-.35h8.58s0,.03.01.04c.14.5.46,1.17,1.19,1.66h0Z"/>
          <g>
            <rect class="cls-15" x="47.48" y="76.87" width=".21" height="1.7"/>
            <rect class="cls-15" x="46.78" y="76.87" width=".21" height="1.7"/>
            <rect class="cls-15" x="45.93" y="76.87" width=".21" height="1.7"/>
            <rect class="cls-15" x="44.64" y="76.87" width=".21" height="1.7"/>
            <rect class="cls-15" x="43.28" y="76.87" width=".21" height="1.7"/>
            <rect class="cls-15" x="41.18" y="76.87" width=".21" height="1.7"/>
            <rect class="cls-15" x="39.22" y="76.87" width=".21" height="1.7"/>
            <rect class="cls-15" x="37.47" y="76.87" width=".21" height="1.7"/>
            <rect class="cls-15" x="48.15" y="76.87" width=".21" height="1.7"/>
            <rect class="cls-15" x="48.59" y="76.87" width=".21" height="1.7"/>
            <rect class="cls-15" x="49.02" y="76.87" width=".21" height="1.7"/>
            <path class="cls-15" d="M49.55,76.88v1.69s-.05,0-.08,0h-.13v-1.71h.13s.05,0,.08,0Z"/>
            <path class="cls-15" d="M49.83,77.03v1.38c-.05.06-.12.11-.21.14v-1.65c.08.03.16.08.21.14Z"/>
          </g>
        </g>
        <g>
          <path class="cls-18" d="M51.25,75.57v.96c0,.08-.03.15-.08.21-.05.06-.12.11-.21.14-.03,0-.05.02-.08.02-.03,0-.05,0-.08,0h-18.26c-.07,0-.14-.01-.2-.04-.13-.06-.23-.17-.24-.3,0,0,0-.01,0-.02,0,0,0-.01,0-.02v-.96s0-.01,0-.02c.01-.18.18-.33.39-.35.02,0,.03,0,.05,0h18.26s.05,0,.08,0c.03,0,.05.01.08.02.08.03.16.08.21.14.05.06.08.13.08.21Z"/>
          <path class="cls-15" d="M42.28,76.91h-9.78c-.06,0-.12-.01-.18-.04-.12-.06-.2-.17-.22-.3,0,0,0-.01,0-.02,0,0,0-.01,0-.02v-.96s0-.01,0-.02c0-.18.16-.33.35-.35.02,0,.03,0,.05,0h8.58s0,0,0,0c.13.49.44,1.16,1.14,1.66.02.01.04.03.06.04Z"/>
          <g>
            <rect class="cls-15" x="48.82" y="75.2" width=".21" height="1.71"/>
            <rect class="cls-15" x="48.12" y="75.2" width=".21" height="1.71"/>
            <rect class="cls-15" x="47.28" y="75.2" width=".21" height="1.71"/>
            <rect class="cls-15" x="45.99" y="75.2" width=".21" height="1.71"/>
            <rect class="cls-15" x="44.62" y="75.2" width=".21" height="1.71"/>
            <rect class="cls-15" x="42.53" y="75.2" width=".21" height="1.71"/>
            <rect class="cls-15" x="40.57" y="75.2" width=".21" height="1.71"/>
            <rect class="cls-15" x="38.81" y="75.2" width=".21" height="1.71"/>
            <rect class="cls-15" x="49.49" y="75.2" width=".21" height="1.71"/>
            <rect class="cls-15" x="49.93" y="75.2" width=".21" height="1.71"/>
            <rect class="cls-15" x="50.36" y="75.2" width=".21" height="1.71"/>
            <path class="cls-15" d="M50.89,75.21v1.69s-.05,0-.08,0h-.13v-1.71h.13s.05,0,.08,0Z"/>
            <path class="cls-15" d="M51.18,75.37v1.38c-.05.06-.12.11-.21.14v-1.66c.08.03.16.08.21.14Z"/>
          </g>
        </g>
        <g>
          <path class="cls-18" d="M51.82,73.87v.96c0,.08-.03.15-.08.21-.05.06-.12.11-.21.14-.03,0-.05.01-.08.02,0,0-.02,0-.03,0,0,0,0,0-.01,0,0,0,0,0-.01,0,0,0-.02,0-.02,0h-18.26c-.24,0-.43-.16-.44-.35,0,0,0-.01,0-.02v-.96s0-.01,0-.02c.01-.2.21-.35.44-.35h18.26s.05,0,.08,0c.03,0,.05.01.08.02.08.03.16.08.21.14.05.06.08.13.08.21Z"/>
          <path class="cls-15" d="M42.86,75.21h-9.78c-.21,0-.38-.16-.39-.35,0,0,0-.01,0-.02v-.96s0-.01,0-.02c.01-.2.18-.35.39-.35h8.58c.14.5.46,1.19,1.2,1.7,0,0,0,0,0,0Z"/>
          <g>
            <rect class="cls-15" x="49.39" y="73.5" width=".21" height="1.71"/>
            <rect class="cls-15" x="48.69" y="73.5" width=".21" height="1.71"/>
            <rect class="cls-15" x="47.85" y="73.5" width=".21" height="1.71"/>
            <rect class="cls-15" x="46.56" y="73.5" width=".21" height="1.71"/>
            <rect class="cls-15" x="45.19" y="73.5" width=".21" height="1.71"/>
            <rect class="cls-15" x="43.1" y="73.5" width=".21" height="1.71"/>
            <rect class="cls-15" x="41.14" y="73.5" width=".21" height="1.71"/>
            <rect class="cls-15" x="39.39" y="73.5" width=".21" height="1.71"/>
            <rect class="cls-15" x="50.06" y="73.5" width=".21" height="1.71"/>
            <rect class="cls-15" x="50.5" y="73.5" width=".21" height="1.71"/>
            <rect class="cls-15" x="50.93" y="73.5" width=".21" height="1.71"/>
            <path class="cls-15" d="M51.46,73.51v1.69s-.05,0-.08,0h-.13v-1.71h.13s.05,0,.08,0Z"/>
            <path class="cls-15" d="M51.75,73.66v1.38c-.05.06-.12.11-.21.14v-1.66c.08.03.16.08.21.14Z"/>
          </g>
        </g>
      </g>
      <circle class="cls-5" cx="88.29" cy="83.06" r="9.11" transform="translate(-32.87 86.76) rotate(-45)"/>
      <path class="cls-6" d="M98.97,84.49c0,.29-.01.57-.03.85h0c-.01.19-.03.38-.06.57-.05.38-.12.76-.21,1.13-.05.23-.11.45-.18.67-.11.34-.23.67-.36,1,0,.01-.01.03-.02.04-.13.3-.27.58-.42.86-.15.28-.31.54-.48.8-.01.02-.02.03-.03.05-.07.1-.14.2-.21.29-.36.49-.76.95-1.2,1.36h-5.11c-.18,0-.33-.12-.38-.28,0-.01,0-.03-.01-.04,0-.01,0-.02,0-.04v-1s0-.02,0-.04c0-.01,0-.03.01-.04.05-.16.2-.28.38-.28h-1.95c-.18,0-.33-.12-.38-.28,0-.01,0-.03-.01-.04,0-.01,0-.02,0-.04,0,0,0-.01,0-.02v-.96s0-.01,0-.02c0-.01,0-.02,0-.04,0-.01,0-.03.01-.04.04-.16.2-.28.38-.28h.76c-.12-.06-.2-.17-.21-.29,0,0,0-.01,0-.02s0-.01,0-.02v-.96s0-.01,0-.02c0-.01,0-.02,0-.04,0-.01,0-.03.01-.04.04-.16.2-.28.38-.28h.44c-.18,0-.33-.12-.38-.28,0-.01,0-.03-.01-.04,0-.01,0-.02,0-.04,0,0,0-.01,0-.02v-.96s0-.01,0-.02c0-.01,0-.02,0-.03.03-.16.17-.3.34-.32h-1.3c-.18,0-.33-.12-.38-.28,0-.01,0-.03-.01-.04,0-.01,0-.02,0-.04v-1s0-.01,0-.02c.02-.16.14-.29.31-.33-.18-.02-.32-.15-.34-.32,0-.01,0-.02,0-.03,0,0,0-.01,0-.02v-.96s0-.01,0-.02c0-.01,0-.02,0-.04,0-.01,0-.03.01-.04.04-.16.2-.28.38-.28h.76c-.12-.06-.2-.17-.21-.29,0,0,0-.01,0-.02s0-.01,0-.02v-.96s0-.01,0-.02c0-.01,0-.02,0-.04,0-.01,0-.03.01-.04.04-.16.2-.28.38-.28h1.49c-.18,0-.33-.12-.38-.28,0-.01,0-.03-.01-.04,0-.01,0-.02,0-.04,0,0,0-.01,0-.02v-.96s0-.01,0-.02c0-.02,0-.03,0-.05.03-.16.17-.28.34-.3h-2.35c-.18,0-.33-.12-.38-.28,0-.01,0-.03-.01-.04,0-.01,0-.02,0-.04v-1s0-.02,0-.04c0-.01,0-.03.01-.04.05-.16.2-.28.38-.28h1.17c-.11-.05-.19-.15-.21-.27,0,0,0-.02,0-.02,0,0,0-.01,0-.01,0,0,0-.01,0-.02v-.96s0-.01,0-.02c0-.01,0-.02,0-.03.03-.16.17-.3.34-.32.02,0,.03,0,.05,0h.53c-.18-.02-.32-.15-.35-.31,0-.01,0-.02,0-.04v-.37c1.07.05,2.09.3,3.03.72,0,0,0,0,0,0,.91.41,1.75.97,2.48,1.66.01.01.03.03.04.04.35.34.68.7.98,1.09.07.09.14.18.21.28.07.1.14.19.2.29,0,0,0,0,0,0,.08.12.16.24.23.37.07.12.14.24.21.36.17.31.33.64.47.97.22.53.41,1.09.54,1.66,0,.01,0,.03.01.04.01.06.03.12.04.18.1.45.17.92.21,1.4,0,.02,0,.05,0,.07,0,0,0,0,0,.01.02.28.03.56.03.84Z"/>
      <circle class="cls-18" cx="87.49" cy="83.06" r="9.11" transform="translate(-33.11 86.19) rotate(-45)"/>
      <path class="cls-15" d="M87.49,91.47c-2.22,0-4.3-.86-5.87-2.43-1.57-1.57-2.43-3.65-2.43-5.87s.86-4.3,2.43-5.87c1.57-1.57,3.65-2.43,5.87-2.43s4.3.86,5.87,2.43c1.57,1.57,2.43,3.65,2.43,5.87s-.86,4.3-2.43,5.87c-1.57,1.57-3.65,2.43-5.87,2.43ZM87.49,75.36c-4.3,0-7.81,3.5-7.81,7.81s3.5,7.81,7.81,7.81,7.81-3.5,7.81-7.81-3.5-7.81-7.81-7.81Z"/>
      <path class="cls-15" d="M88.64,85.58c.02-.18.01-.34-.02-.48s-.1-.28-.2-.4c-.1-.12-.24-.24-.41-.36-.17-.12-.38-.23-.63-.35-.43-.21-.82-.42-1.17-.64-.35-.22-.64-.45-.87-.71-.23-.26-.41-.55-.51-.86-.11-.32-.14-.69-.09-1.11.04-.36.15-.68.31-.97.16-.28.38-.52.64-.71.26-.19.57-.34.92-.44.35-.1.73-.14,1.15-.13l.16-1.37,1.1.13-.16,1.39c.39.1.73.24,1.04.44.3.2.55.43.75.71.19.28.33.6.41.95.08.36.1.75.05,1.18l-1.99-.24c.06-.51,0-.91-.2-1.19-.2-.28-.49-.44-.87-.49-.21-.02-.39-.02-.54.02-.16.04-.29.1-.4.19-.11.09-.19.2-.26.33-.06.13-.1.28-.12.43-.02.16-.01.3.02.44s.1.26.2.38c.1.12.24.24.41.36.17.12.39.24.66.38.43.22.81.44,1.15.66.34.22.63.46.87.72.23.26.41.55.51.87.11.32.14.69.09,1.1-.04.38-.15.7-.32.99-.17.28-.38.52-.65.71-.26.19-.57.33-.93.42-.35.09-.74.13-1.16.12l-.15,1.27-1.09-.13.15-1.27c-.38-.08-.73-.21-1.08-.38-.34-.17-.63-.39-.88-.67-.25-.27-.43-.6-.55-.99-.12-.39-.15-.83-.09-1.35l1.99.24c-.04.3-.02.56.04.77.06.21.16.39.28.53.13.14.28.24.45.31.18.07.36.12.55.14.22.03.41.02.58-.02.17-.04.32-.1.44-.18.12-.08.22-.19.29-.32.07-.13.12-.27.13-.43Z"/>
      <g>
        <circle class="cls-5" cx="42.76" cy="63.2" r="10.3"/>
        <circle class="cls-18" cx="41.86" cy="63.2" r="10.3"/>
        <path class="cls-15" d="M41.86,72.71c-2.51,0-4.86-.98-6.63-2.75s-2.75-4.13-2.75-6.63.98-4.86,2.75-6.63,4.13-2.75,6.63-2.75,4.86.98,6.63,2.75c1.77,1.77,2.75,4.13,2.75,6.63s-.98,4.86-2.75,6.63c-1.77,1.77-4.13,2.75-6.63,2.75ZM41.86,54.5c-4.86,0-8.82,3.96-8.82,8.82s3.96,8.82,8.82,8.82,8.82-3.96,8.82-8.82-3.96-8.82-8.82-8.82Z"/>
        <path class="cls-15" d="M43.15,66.05c.02-.2.02-.38-.02-.54-.04-.16-.12-.31-.23-.45-.11-.14-.27-.28-.46-.41s-.43-.26-.71-.4c-.49-.24-.93-.48-1.32-.72-.39-.24-.72-.51-.99-.8s-.46-.62-.58-.98c-.12-.36-.16-.78-.1-1.25.05-.41.17-.77.35-1.09.19-.32.43-.59.73-.81.3-.22.65-.38,1.04-.5.39-.11.83-.16,1.3-.15l.18-1.55,1.24.15-.19,1.57c.44.11.83.28,1.17.5.34.22.62.49.84.8.22.31.38.67.47,1.08.09.4.11.85.05,1.33l-2.25-.27c.07-.58,0-1.03-.23-1.34-.22-.32-.55-.5-.98-.55-.23-.03-.44-.02-.61.03-.18.04-.33.12-.45.22-.12.1-.22.22-.29.37-.07.15-.12.31-.14.49-.02.18-.01.34.02.49.03.15.11.29.22.43.11.14.27.27.46.41s.44.28.74.43c.48.25.92.49,1.3.74.39.25.72.52.98.81.26.29.46.62.58.98.12.36.16.78.1,1.24-.05.42-.17.8-.36,1.12-.19.32-.43.59-.73.8-.3.21-.65.37-1.05.48-.4.1-.83.15-1.31.14l-.17,1.44-1.24-.15.17-1.43c-.43-.09-.83-.24-1.21-.43-.38-.19-.72-.44-1-.75-.28-.31-.49-.68-.62-1.12-.14-.44-.17-.94-.1-1.52l2.25.27c-.04.34-.03.63.04.87.07.24.18.44.32.59.14.16.32.27.51.35.2.08.4.13.62.16.24.03.46.02.65-.02.19-.04.36-.11.49-.21.14-.1.25-.22.33-.36.08-.14.13-.31.15-.48Z"/>
      </g>
      <g>
        <path class="cls-7" d="M104.69,63.68s-.97,1.36-1.86,1.38-2.24-.63-2.24-.63c0,0-.81-1.82-.26-2.53,0,0,.55-.24,1.13.19.1.07.2.17.3.29.14.17.3.27.47.32.63.19,1.38-.26,1.67.18.16.25.34.45.49.58.17.15.3.23.3.23Z"/>
        <path class="cls-7" d="M92.07,73.5s3.42-8.29,9.58-8.45c0,0,5.68.63,6,8.45h-15.58Z"/>
        <path class="cls-3" d="M99.97,65.31s2.47.55,3.23.23c0,0,.12-1.03-.92-.89-.71.1-1.17-.24-1.45-.38-.39-.2-.96.61-.86,1.04Z"/>
        <path class="cls-1" d="M102.11,63.75c-.16.12-.64-1.67-.64-1.67.1.07.2.17.3.29.14.17.3.27.47.32,0,.05.03.95-.12,1.07Z"/>
        <path class="cls-1" d="M104.39,63.45s-1.18.7-1.33.7.84-1.28.84-1.28c.16.25.34.45.49.58Z"/>
        <path class="cls-11" d="M95.42,71.19c-.06-.05,2.42-3.66,3.1-3.68.68-.03,2.22.79,3.33.89,1.11.11,2.19-.21,2.4.45.21.66.79,2.99.43,3.36-.36.37-7.91.15-9.28-1.02Z"/>
      </g>
      <g>
        <path class="cls-7" d="M71.17,52.18s-.77,1.08-1.47,1.09c-.7.01-1.77-.5-1.77-.5,0,0-.64-1.44-.21-2,0,0,.44-.19.9.15.08.06.16.13.24.23.11.13.24.21.37.25.5.15,1.09-.21,1.32.14.13.2.27.35.39.46.14.12.24.18.24.18Z"/>
        <path class="cls-7" d="M61.19,59.95s2.7-6.55,7.57-6.68c0,0,4.49.5,4.74,6.68h-12.32Z"/>
        <path class="cls-3" d="M67.43,53.47s1.95.43,2.55.18c0,0,.09-.82-.73-.7-.56.08-.93-.19-1.14-.3-.3-.16-.76.48-.68.82Z"/>
        <path class="cls-1" d="M69.13,52.24c-.12.09-.51-1.32-.51-1.32.08.06.16.13.24.23.11.13.24.21.37.25,0,.04.02.75-.1.84Z"/>
        <path class="cls-1" d="M70.93,52s-.93.56-1.05.56.67-1.01.67-1.01c.13.2.27.35.39.46Z"/>
        <path class="cls-11" d="M63.83,58.12c-.05-.04,1.91-2.89,2.45-2.91.54-.02,1.76.62,2.64.71.88.08,1.73-.17,1.9.35.17.52.62,2.36.34,2.66-.28.3-6.25.11-7.33-.81Z"/>
      </g>
      <g>
        <path class="cls-7" d="M54.28,73.01s1.88,2.65,3.61,2.69c1.73.04,4.35-1.23,4.35-1.23,0,0,1.58-3.53.51-4.91,0,0-1.08-.47-2.2.36-.19.14-.39.33-.58.56-.27.33-.58.52-.91.61-1.23.37-2.69-.51-3.24.34-.32.49-.67.87-.95,1.13-.34.3-.58.45-.58.45Z"/>
        <path class="cls-7" d="M78.82,92.13s-6.65-16.12-18.63-16.43c0,0-11.05,1.23-11.67,16.43h30.3Z"/>
        <path class="cls-3" d="M63.47,76.19s-4.8,1.07-6.28.44c0,0-.22-2.01,1.8-1.73,1.38.19,2.28-.47,2.81-.74.75-.38,1.87,1.19,1.67,2.03Z"/>
        <path class="cls-1" d="M59.29,73.16c.31.23,1.25-3.25,1.25-3.25-.19.14-.39.33-.58.56-.27.33-.58.52-.91.61,0,.1-.06,1.85.24,2.07Z"/>
        <path class="cls-1" d="M54.86,72.56c.07.04,2.29,1.37,2.59,1.37s-1.64-2.5-1.64-2.5c-.32.49-.67.87-.95,1.13Z"/>
        <path class="cls-11" d="M72.32,87.62c.12-.11-4.71-7.11-6.04-7.17-1.33-.05-4.32,1.54-6.48,1.74-2.16.2-4.26-.41-4.67.87s-1.54,5.82-.84,6.54c.69.73,15.38.28,18.04-1.99Z"/>
      </g>
      <g id="man">
        <path class="cls-10" d="M53.5,52.62s-.15-.75,1.57-3.05c.37-.5,1.51-2.37,1.51-2.37.45-.11,1.84.63,2.21.86.07.05.12.07.12.07,0,0,.6,2.59-.67,2.3-.04,0-.08-.02-.12-.02-1.23-.19-2.41,1.03-2.95,1.8-.35.5-1.43.44-1.67.42Z"/>
        <path class="cls-10" d="M62.6,47.58s-.15-.75,1.57-3.05c.37-.5,1.51-2.37,1.51-2.37.45-.11,1.84.63,2.21.86.07.05.12.07.12.07,0,0,.6,2.59-.67,2.3-.04,0-.08-.02-.12-.02-1.23-.19-2.41,1.03-2.95,1.8-.35.5-1.43.44-1.67.42Z"/>
        <path class="cls-4" d="M82.02,34.76c-.35-1.52-4.27-6.24-6.28-5.15-2.01,1.09-.97,7.04,1.13,14.04.03.11.06.21.1.32-4.22-.69-9.24-.9-9.24-.9l-.53,2.44c3.8,1.05,11.19,4.7,14.29,6.27,1.18.54,2.58.54,2.86-.5.95-3.49-2.32-16.52-2.32-16.52Z"/>
        <path class="cls-2" d="M74.53,56.59s-8.98-4.05-14.45-5.69c-.68-.2-1.3-.37-1.85-.48l.58-2.35s.54,0,1.41,0c3.41,0,11.94.2,13.47,1.87,1.91,2.1.85,6.65.85,6.65Z"/>
        <path class="cls-2" d="M81.32,1.08c.29.68.53,1.57.33,2.04-.23.53-.16.92-.16.92l-.48.12-.58.14s-.03-.05-.08-.13c-.05-.08-.11-.2-.17-.34,0,0-.03-.25-.27-.37-.25-.12-.5-.41-.55-.7-.05-.29-.34-.82-.26-.88.2-.14.5.7.68.73.16.03.21-.08.22-.1,0,0,0,0,0,0,.28-.68-.24-2.4.17-2.49.15-.04,1.02.79,1.14,1.08Z"/>
        <path class="cls-2" d="M50.26,14.77c.5.54,1.22,1.12,1.73,1.13.58,0,.9.22.9.22l.3-.39.36-.47s-.03-.05-.09-.12c-.06-.08-.47-.42-.47-.69,0-.27-.17-.63-.42-.79-.24-.16-.61-.64-.7-.59-.21.13.43.74.39.92-.03.16-.16.16-.18.16,0,0,0,0,0,0-.73-.02-2.1-1.18-2.35-.85-.09.13.31,1.25.52,1.48Z"/>
        <path class="cls-14" d="M71.97,35.9c-2.21.57-1.66,3.24-1.33,10.54.04.83.11,1.62.22,2.39-3.24-.65-8.23-.75-10.65-.76,0,0-.4.89-.38,1.6.04,1.52.81,2.52.81,2.52,5.47,1.64,13.89,4.4,13.89,4.4,0,0,0,0,0,0,.56.15,1.09-.13,1.51-.94,1.67-3.2,4.54-24.53,4.54-24.53.03-1.56-6.4,4.21-8.61,4.78Z"/>
        <g>
          <path class="cls-2" d="M68.36,19.52s.78-1.97-.74-4.79l2.15.48,1.46.32s.24.5.56,1.42c.08.24.39,1.22.48,1.52.51.02-.23.8-1.28.95-1.17.17-2.64.08-2.64.08Z"/>
          <path class="cls-16" d="M71.24,15.54s.24.5.56,1.42c-1.26.37-3.5-.85-3.5-.85.51-.46,1.01-.75,1.48-.9l1.46.32Z"/>
          <path class="cls-2" d="M72.2,14.8s-2.49,2.76-4.19,1.18c-1.69-1.58-3.16-2.29-1.64-4.11s2.48-1.56,3.17-1.17c.69.39,3.25,3.35,2.65,4.11Z"/>
          <path class="cls-8" d="M67.88,15.81s.26-.28-.11-.65c-.37-.37-.79-.9-.38-1.06.41-.16.63.09.65-.17.01-.26-.5-.91.45-1.74.95-.82,1.62-.8,1.91-1.36.3-.56-.23-1.27-.23-1.27,0,0,.07.35-.07.58,0,0-.07-1.65-1.51-1.66-1.45-.01-1.98,1.17-2.46,1.6-1.07.96-1.74,1.61-1.52,2.64.22,1.03,2,2.96,3.29,3.1Z"/>
          <path class="cls-9" d="M70.65,14.23l.92-.87s.38.58.11.83c-.26.25-1.04.04-1.04.04Z"/>
        </g>
        <path class="cls-8" d="M83.06,9.01c-.4-2.45-1.59-5.14-1.59-5.14l-1.3-.06s.14,3.31.11,5.63c-.02,1.11-.5,2.12-.63,2.3-.4.54-6.33,6.25-6.53,6.43h0s0,0,0,0c-.63.11-.56,1.14-1.21,1.32-1.08.29-2.88-.24-3.84.12h0s-7.7,0-8.87-.55c-1.17-.56-5.74-3.93-5.74-3.93l-.85.99s3.14,6.04,5.62,7.12c1.35.59,4.33,1.3,6.75,1.83.96.21,1.73.92,2.02,1.86,2.28,7.36,1.13,13.58,1.13,13.58,0,0,2.19.25,4.91-.51,3.54-.98,6.13-2.58,6.13-2.58,1-1.21.41-5.65.41-5.65,0,0,.69.74.92,1.99.17.9.26,1.39.31,1.71.05.3.4.43.64.26.51-.38,1.24-.97,1.47-1.4.8-1.51-.98-7.68-3.43-11.98-.44-.77-.42-1.71.05-2.47,1.51-2.42,3.82-6.25,3.85-7.02.02-.42-.13-2.43-.35-3.83Z"/>
        <path class="cls-14" d="M71.74,20.05s2.07,2.93.55,5.77c-1.52,2.83-7.47,2.44-8.57,5.98l.67,2.2,2.49-1.35s.21-1.91,2.66-2.75c4.78-1.62,5.93-4.43,4.93-6.94-.85-2.12-2.08-3.14-2.08-3.14l-.65.22Z"/>
        <path class="cls-14" d="M68.55,18.44l2.4.79.12.45-2.99-.07s.16-.69.47-1.18Z"/>
        <path class="cls-14" d="M72.06,17.78l.08,1.24s.31.26.31.22c0-.03.67-1.06.67-1.06,0,0-.56-.27-1.06-.4Z"/>
        <path class="cls-4" d="M70.95,19.23l1.22-.41c.11-.04.23.04.24.15l.1.82c.01.09-.04.17-.13.2l-.54.18c-.06.02-.12,0-.17-.03l-.78-.59c-.12-.09-.09-.28.05-.33Z"/>
        <path class="cls-10" d="M80.12,3.64l-.11,1.03s1.3.02,1.3,0,.04-.51.04-.51l.22.57.48-.16-.55-.93s-.55.26-1.38,0Z"/>
        <polygon class="cls-10" points="53.47 15.13 52.62 16.12 52.87 17.08 53.21 16.84 53.04 16.12 53.64 16.61 54.4 15.59 53.47 15.13"/>
        <path class="cls-13" d="M53.28,16.04s.04-.08.08-.08.08.04.08.08-.04.08-.08.08-.08-.04-.08-.08Z"/>
        <path class="cls-13" d="M81.07,4.29s.03-.06.06-.06.06.03.06.06-.03.06-.06.06-.06-.03-.06-.06Z"/>
        <circle class="cls-13" cx="79.19" cy="28.25" r=".17"/>
        <circle class="cls-13" cx="77.87" cy="25.48" r=".17"/>
        <path class="cls-13" d="M75.87,23.39c0-.09.07-.17.17-.17s.17.07.17.17-.07.17-.17.17-.17-.08-.17-.17Z"/>
      </g>
    </g>
  </g>
</svg>