<?xml version="1.0" encoding="UTF-8"?>
<svg id="_圖層_2" data-name="圖層_2" xmlns="http://www.w3.org/2000/svg" xmlns:xlink="http://www.w3.org/1999/xlink" viewBox="0 0 250.04 102.23">
  <defs>
    <style>
      .cls-1, .cls-2, .cls-3 {
        fill: none;
      }

      .cls-4 {
        clip-path: url(#clippath-1);
      }

      .cls-5 {
        fill: #3e3a39;
      }

      .cls-6 {
        fill: #fff;
      }

      .cls-2 {
        stroke: #e9b324;
        stroke-width: 1.12px;
      }

      .cls-2, .cls-3 {
        stroke-miterlimit: 10;
      }

      .cls-7 {
        fill: #21b1e0;
      }

      .cls-3 {
        stroke: #f5ba18;
      }

      .cls-8 {
        clip-path: url(#clippath);
      }
    </style>
    <clipPath id="clippath">
      <rect class="cls-1" x="0" width="250.04" height="102.23"/>
    </clipPath>
    <clipPath id="clippath-1">
      <rect class="cls-1" x="0" width="250.04" height="102.23"/>
    </clipPath>
  </defs>
  <g id="_圖層_1-2" data-name="圖層_1">
    <g>
      <g>
        <path class="cls-5" d="M21.7,58.16c0,.8.02,5.89.02,6.86,0,.24-.08.28-.26.31-.26.02-.63.05-.8.05,0-.64.01-3.15.01-6.24-.44.18-1.38.47-1.87.6l-.02-.04.26-.64c1.04-.37,2.07-.76,2.55-.98l.11.07Z"/>
        <path class="cls-5" d="M27.49,58.16c0,.8.02,5.89.02,6.86,0,.24-.08.28-.26.31-.26.02-.63.05-.8.05,0-.64.01-3.15.01-6.24-.44.18-1.38.47-1.87.6l-.02-.04.26-.64c1.04-.37,2.07-.76,2.55-.98l.11.07Z"/>
        <path class="cls-5" d="M30.09,64.7c2.1-2.18,2.85-3.33,2.85-4.4,0-.92-.49-1.39-1.22-1.39-.6,0-1.14.38-1.38.6-.19.16-.31.14-.41-.04-.06-.08-.08-.23-.08-.34.52-.67,1.37-1.04,2.16-1.04,1.31,0,2.01.89,2.01,2.09,0,.64-.24,1.19-.64,1.79-.38.6-1.2,1.55-2.21,2.58.91.06,2.29.05,3.32,0-.05.28-.31.6-.48.66-.13.08-.59.16-1.22.16-1.2,0-2.33-.01-2.89-.12l-.04-.08.22-.46Z"/>
      </g>
      <g>
        <path class="cls-5" d="M39.39,60.94c-.06-.09-.16-.23-.28-.42-.09-.16-.25-.39-.47-.7,1.12-1,2.02-2.28,2.67-3.84l1.41.14c-.19.41-.37.78-.56,1.12h7.27v1.12h-3.8v1.83h3.52v1.12h-3.52v2.16h4.27v1.17h-4.27v2.58h-1.27v-2.58h-5.77v-1.17h1.73v-3.28h4.03v-1.83h-2.86c-.53.84-1.24,1.7-2.11,2.58ZM41.59,61.32v2.16h2.77v-2.16h-2.77Z"/>
        <path class="cls-5" d="M59.22,63.52c-.03-.09-.06-.22-.09-.38-.06-.31-.12-.56-.19-.75h.75c.38.03.58-.2.61-.7.06-.94.09-1.7.09-2.3l-1.59.47v4.92h-1.17v-4.59l-1.5.47v4.17c-.06.69.28,1.02,1.03.98h2.44c.75.03,1.16-.22,1.22-.75.09-.44.17-.89.23-1.36.31.16.69.3,1.12.42-.09.62-.2,1.17-.33,1.64-.16.75-.78,1.11-1.87,1.08h-3.28c-1.19.03-1.77-.5-1.73-1.59v-4.22l-.8.23-.19-.98h-.8v3.98c.09-.03.23-.06.42-.09.34-.09.62-.16.84-.19,0,.38.02.77.05,1.17-.31.06-.87.2-1.69.42-.84.19-1.47.33-1.87.42l-.23-1.17,1.36-.28v-4.27h-1.12v-1.17h1.12v-3.09h1.12v3.09h1.03v.89l.75-.19v-2.58h1.17v2.2l1.5-.42v-3h1.17v2.67l2.77-.8c0,1.75-.05,3.08-.14,3.98,0,1.03-.37,1.55-1.12,1.55-.28.06-.64.09-1.08.09Z"/>
        <path class="cls-5" d="M63.21,58.97v-1.22h4.78v-1.73h1.45v1.73h4.73v1.22h-6.75c0,.38-.03.92-.09,1.64.06-.5.06-.45,0,.14h5.48c-.03.75-.09,1.84-.19,3.28-.03.38-.05.64-.05.8-.03,1.41-.81,2.09-2.34,2.06-.56.03-1.25.05-2.06.05-.03-.19-.09-.47-.19-.84-.03-.16-.06-.28-.09-.38.44.03,1.08.05,1.92.05.94.06,1.42-.38,1.45-1.31.09-.75.14-1.59.14-2.53h-4.17c-.16,2.22-1.23,4-3.23,5.34l-1.03-.98c2-1.22,3-2.94,3-5.16.06-.88.09-1.59.09-2.16h-2.86Z"/>
        <path class="cls-5" d="M75.5,58.03v-1.17h5.39v1.17h-1.64v2.67h1.22l-.28-.47c.91-1.19,1.58-2.59,2.02-4.22l1.27.28c-.19.56-.39,1.09-.61,1.59h3.7v1.17h-.84c-.22,2.16-.77,3.84-1.64,5.06.66.69,1.52,1.27,2.58,1.73-.22.44-.45.86-.7,1.27-1.09-.62-1.97-1.3-2.62-2.02-.75.72-1.7,1.42-2.86,2.11-.09-.09-.23-.28-.42-.56-.19-.25-.33-.44-.42-.56.06-.03.17-.08.33-.14.34-.12.59-.25.75-.38-.37.06-.98.16-1.83.28-1.53.22-2.7.39-3.52.52l-.19-1.17.8-.09v-5.3h1.12v5.11l1.03-.14v-6.75h-2.62ZM80.8,61.46l-.19-.52v.94h-1.36v2.72c.31-.03.8-.09,1.45-.19-.41.06-.34.05.19-.05-.03.19-.05.58-.05,1.17.69-.47,1.27-.94,1.73-1.41-.56-.88-.98-2-1.27-3.38-.16.22-.33.45-.52.7ZM82.3,59.07l-.14.28c.22,1.56.61,2.83,1.17,3.8.69-1.06,1.09-2.42,1.22-4.08h-2.25Z"/>
        <path class="cls-5" d="M90.04,63.61c-.03-.09-.09-.23-.19-.42-.09-.16-.17-.28-.23-.38-.06,1.69-.44,3.14-1.12,4.36-.19-.19-.49-.44-.89-.75.03.03-.02,0-.14-.09.41-.69.67-1.39.8-2.11.12-.72.19-1.8.19-3.23v-3.7h4.78v-1.27h1.27v1.27h4.27v1.12h-9.09v2.58c0,.16-.02.39-.05.7v.66c.97-1.16,1.7-2.42,2.2-3.8l1.17.42c-.25.56-.52,1.11-.8,1.64v6.56h-1.22v-4.73c-.28.41-.59.8-.94,1.17ZM92.76,61.5v-1.08h3.47v-1.59h1.22v1.59h1.31v1.08h-1.31v3.84c.06,1.12-.49,1.69-1.64,1.69-.22,0-.53.02-.94.05h-.66c-.03-.09-.06-.22-.09-.38-.06-.34-.12-.61-.19-.8h1.5c.56.06.83-.2.8-.8v-3.61h-3.47ZM94.35,64.74c-.25-.47-.69-1.19-1.31-2.16l.89-.56c.28.41.69,1.02,1.22,1.83.09.12.16.22.19.28l-.98.61Z"/>
        <path class="cls-5" d="M101.25,67.22v-4.5c-.44.97-.86,1.73-1.27,2.3-.03-.16-.08-.38-.14-.66-.09-.31-.16-.53-.19-.66.66-.94,1.19-2.02,1.59-3.23h-1.41v-1.08h1.41v-1.69c-.37.06-.78.09-1.22.09-.03-.16-.06-.42-.09-.8,0,.09-.02,0-.05-.28,1.44-.06,2.58-.14,3.42-.23l.23,1.03-1.17.14v1.73h1.17v1.08h-1.17v.89c.5.38,1,.77,1.5,1.17l-.56.94c-.12-.12-.3-.28-.52-.47-.19-.19-.33-.33-.42-.42v4.64h-1.12ZM103.92,57.99v-.8h2.11c.06-.38.09-.77.09-1.17h1.12c0,.41-.03.8-.09,1.17h1.88c-.09-.09-.25-.23-.47-.42-.19-.19-.34-.33-.47-.42l.89-.23c.16.12.39.33.7.61.16.12.26.22.33.28l-.52.19h1.45v.8h-2.72v.7c0,.25.16.38.47.38h.8c.28,0,.44-.11.47-.33.06-.16.09-.33.09-.52.34.09.67.17.98.23-.03.09-.06.2-.09.33-.03.19-.06.31-.09.38-.12.47-.52.69-1.17.66h-1.41c-.72,0-1.08-.3-1.08-.89v-.94h-.28c-.28.84-1.05,1.55-2.3,2.11h.66v.42c1.5-.16,2.89-.33,4.17-.52l.19.7c-1.66.25-3.11.42-4.36.52.03.31.22.45.56.42h3.28c.44.03.69-.12.75-.47.09-.19.14-.44.14-.75.03,0,.09.02.19.05.25.12.53.22.84.28-.03.09-.06.22-.09.38,0,.09-.05.28-.14.56-.12.53-.58.8-1.36.8h-4.03c-.84,0-1.27-.39-1.27-1.17v-1.22h.33c-.09-.09-.25-.25-.47-.47-.09-.09-.17-.17-.23-.23,1.09-.5,1.75-.97,1.97-1.41h-1.83ZM104.25,67.22v-4.17h6.14v4.17h-1.17v-.47h-3.84v.47h-1.12ZM105.37,63.8v.8h3.84v-.8h-3.84ZM105.37,65.25v.7h3.84v-.7h-3.84Z"/>
        <path class="cls-5" d="M122.86,61.03c-.38-.09-.72-.22-1.03-.38v4.36h-8.3v-4.31c-.09.03-.22.08-.37.14-.31.12-.56.22-.75.28-.03-.16-.12-.41-.28-.75-.06-.16-.11-.28-.14-.38,1.72-.47,3.16-1.11,4.31-1.92h-3.98v-1.03h4.73v-1.08h1.22v1.08h4.73v1.03h-3.98c1.12.81,2.56,1.42,4.31,1.83l-.47,1.12ZM112.08,66.8v-.94h11.11v.94h-11.11ZM117.05,60.05v-1.41c-.91.75-1.84,1.34-2.81,1.78h6.89c-1.16-.5-2.11-1.11-2.86-1.83v1.45h-1.22ZM114.75,61.36v.94h5.81v-.94h-5.81ZM114.75,63.1v.94h5.81v-.94h-5.81Z"/>
        <path class="cls-5" d="M125.07,67.27l-.47-1.17c.25-.03.47-.09.66-.19v-9.42h9.42v3.89h-3.42c.06.62.14,1.17.23,1.64h3.98v1.17h-3.7c.25.84.58,1.53.98,2.06.31.41.59.61.84.61s.42-.2.52-.61c.06-.25.16-.72.28-1.41.37.19.77.33,1.17.42-.12.72-.27,1.3-.42,1.73-.28.75-.75,1.14-1.41,1.17-.81,0-1.48-.38-2.02-1.12-.59-.72-1.03-1.67-1.31-2.86h-3.84v2.44c1.16-.38,2.11-.69,2.86-.94v1.17c-1.28.34-2.73.81-4.36,1.41ZM126.57,57.61v1.64h6.84v-1.64h-6.84ZM130.18,62.02c-.09-.47-.16-1.02-.19-1.64h-3.42v1.64h3.61Z"/>
        <path class="cls-5" d="M136.89,64.22c-.16-.53-.31-.95-.47-1.27.97-1.16,1.78-2.53,2.44-4.12l1.12.38c-.28.66-.58,1.28-.89,1.88v6.14h-1.22v-4.22c-.06.06-.14.17-.23.33-.31.41-.56.7-.75.89ZM136.94,59.35v-2.11h4.69v-1.17h1.22v1.17h4.55v1.73h-1.22v-.66h-8.02v1.03h-1.22ZM140.12,60.33v-1.03h7.17v1.03h-3.19l-.28.98h3v5.91h-1.22v-.56h-3.98v.56h-1.22v-5.91h2.16l.23-.98h-2.67ZM141.62,62.35v1.22h3.98v-1.22h-3.98ZM141.62,64.5v1.22h3.98v-1.22h-3.98Z"/>
        <path class="cls-5" d="M155.41,61.88c-.16-.44-.33-.81-.52-1.12.84-1.31,1.44-2.91,1.78-4.78l1.12.14c-.19.75-.39,1.42-.61,2.02h2.86v1.08h-.56c-.22,2.25-.64,3.92-1.27,5.02.47.69,1.11,1.28,1.92,1.78-.09.16-.23.41-.42.75-.12.16-.2.28-.23.38-.78-.62-1.44-1.25-1.97-1.88-.53.62-1.25,1.31-2.16,2.06-.19-.28-.41-.56-.66-.84l-.33.56c-.72-.31-1.36-.58-1.92-.8-.78.47-1.94.84-3.47,1.12-.06-.25-.19-.55-.37-.89,1.06-.16,1.94-.36,2.62-.61l-.89-.23c-.09.09-.19.17-.28.23l-.89-.33s.06-.08.09-.14c.25-.25.52-.56.8-.94h-1.27v-.8h1.87c.19-.22.34-.42.47-.61h-1.87v-2.06h2.25v-.61h-2.25v-1.31h-.56v-.89h.56v-1.31h2.25v-.8h1.08v.8h2.25v1.31h.61v.89h-.61v1.31h-2.25v.61h2.25v2.06h-2.86.33s-.02.06-.05.09c-.06.09-.19.27-.37.52h3.47v.8h-.94c-.28.47-.64.89-1.08,1.27.56.09,1.06.23,1.5.42.87-.59,1.56-1.23,2.06-1.92-.5-.97-.83-2.03-.98-3.19-.06.09-.14.23-.23.42-.12.19-.22.33-.28.42ZM150.25,57.61v.66h1.27v-.66h-1.27ZM150.25,58.97v.7h1.27v-.7h-1.27ZM150.25,61.64v.7h1.27v-.7h-1.27ZM150.91,64.92c.16.03.37.09.66.19.31.09.53.17.66.23.37-.28.69-.58.94-.89h-1.87l-.37.47ZM153.86,57.61h-1.27v.66h1.27v-.66ZM152.6,58.97v.7h1.27v-.7h-1.27ZM153.91,61.64h-1.31v.7h1.31v-.7ZM157.57,63.1c.41-.91.69-2.2.84-3.89h-1.59l-.09.23c.12,1.5.41,2.72.84,3.66Z"/>
      </g>
      <g>
        <path class="cls-5" d="M32.77,71.13v-.04c.1-.02.55-.06.66-.06.06,0,.14.05.21.14.27.34,1.05,1.47,1.86,2.56.4.57.74,1.03.96,1.42-.06-.78-.05-1.23-.05-1.64v-2.22c0-.18.06-.22.15-.22.25-.02.33-.03.48-.03-.02.34-.02.81-.02,1.47v3.54c-.06.04-.36.12-.51.12-.06,0-.1-.02-.14-.06-.53-.7-1.26-1.73-1.97-2.73-.29-.43-.55-.85-.86-1.36.04.94.04,1.35.04,1.76v2.06c0,.19-.05.22-.17.24-.13.02-.31.03-.46.03.02-.32.02-.78.02-1.46v-3.25l-.19-.26Z"/>
        <path class="cls-5" d="M38.25,73.5c0-.5-.02-.74-.03-.9.14-.04.47-.08.62-.08.08,0,.11.04.11.5,0,.53,0,1.09,0,1.61,0,.82.42.94.78.94s.7-.24.83-.4v-2.33c0-.2.02-.23.13-.27.23-.02.42-.05.6-.05,0,.18-.02.74-.02,1.43v1.26c0,.38.11.46.33.5v.04c0,.16-.2.4-.38.4-.34,0-.53-.22-.58-.57-.25.26-.5.39-.67.46-.16.06-.33.1-.52.1-.82,0-1.21-.54-1.21-1.33v-1.33Z"/>
        <path class="cls-5" d="M43.24,75.89c0,.13-.04.17-.16.18-.19.03-.38.03-.57.03.02-.3.02-.77.02-1.47v-1.36c0-.26-.04-.43-.14-.5v-.04c.08-.11.33-.26.46-.26.26,0,.32.37.34.59.34-.3.78-.6,1.22-.6.54,0,.82.25.99.63.33-.32.8-.63,1.26-.63.85,0,1.15.65,1.15,1.41v1.16c0,.46,0,.81.02,1.01-.17.02-.4.06-.62.06-.08,0-.11-.04-.11-.13v-2.02c0-.61-.26-.91-.73-.91-.37,0-.66.24-.86.43v2.39c0,.15-.02.19-.16.21-.22.03-.39.03-.57.03.02-.3.02-.77.02-1.47v-.67c0-.61-.26-.92-.72-.92-.35,0-.66.25-.87.46v2.39Z"/>
        <path class="cls-5" d="M49.71,72.82c.3-.17.73-.35,1.07-.35.74,0,1.5.54,1.5,1.69,0,1.27-.98,2-2.15,2-.38,0-.78-.09-.98-.2-.1-.05-.14-.1-.14-.24v-4.08c0-.49-.02-.73-.03-.89.17-.06.5-.11.62-.11.1,0,.12.04.12.52v1.66ZM49.71,75.6c.14.05.34.07.5.07.67,0,1.33-.44,1.33-1.42,0-.76-.42-1.22-1.1-1.22-.19,0-.54.1-.73.21v2.36Z"/>
        <path class="cls-5" d="M55.82,75.4c0,.26-.18.5-.33.58-.14.07-.46.18-.79.18-1.12,0-1.73-.66-1.73-1.79,0-1,.61-1.89,1.67-1.89.93,0,1.32.69,1.33,1.33,0,.08,0,.18-.02.25-.02.13-.42.24-.7.29-.22.03-1.02.05-1.59.02.02.78.5,1.23,1.21,1.23.37,0,.77-.14.91-.22l.02.02ZM54.55,72.92c-.39,0-.78.36-.84,1,.56.02,1.27,0,1.42,0,.1,0,.17-.07.17-.17,0-.47-.24-.83-.74-.83h0Z"/>
        <path class="cls-5" d="M56.61,72.76c.07-.12.33-.3.46-.3.22,0,.38.28.38.79.26-.52.6-.79.98-.79.18,0,.33.09.39.15,0,.1-.02.3-.1.42-.05.1-.14.17-.24.16-.11-.04-.2-.06-.29-.06-.18,0-.44.17-.61.56-.06.14-.09.25-.09.42v1.76c0,.12-.02.18-.14.19-.21.02-.4.03-.58.03.02-.3.02-.77.02-1.47v-1.34c0-.22-.04-.4-.18-.5v-.03Z"/>
        <path class="cls-5" d="M62.92,72.47c1.11,0,1.73.77,1.73,1.81s-.69,1.88-1.77,1.88c-1.18,0-1.76-.86-1.76-1.81,0-1.06.74-1.88,1.79-1.88h0ZM62.85,72.94c-.52,0-.99.47-.99,1.32,0,.95.49,1.42,1.08,1.42.47,0,.96-.4.96-1.35,0-.68-.3-1.39-1.04-1.39h0Z"/>
        <path class="cls-5" d="M67.04,70.59c.23,0,.44.09.5.18.02.17-.11.41-.29.4-.08-.03-.18-.05-.26-.05-.38,0-.72.35-.7,1.46.13,0,.88.02,1.08-.02-.02.17-.13.33-.22.4-.11.08-.42.1-.87.1,0,.8.02,2.54.02,2.99-.16.04-.5.06-.62.06-.08,0-.12-.02-.12-.14.02-.86,0-1.79,0-2.91-.33,0-.44-.08-.44-.21.11-.13.22-.18.44-.27,0-.88.25-1.36.58-1.66.3-.26.59-.33.86-.33h0Z"/>
        <path class="cls-5" d="M73.15,74.64c0-.39,0-.7-.03-.93.17-.04.47-.12.63-.12.1,0,.14.05.14.22v1.86c-.13.1-.39.26-.58.33-.24.08-.73.18-1.09.18-1.41,0-2.8-.66-2.8-2.58,0-1.64,1.26-2.65,2.82-2.65.93,0,1.5.32,1.64.46,0,.28-.21.46-.42.38-.38-.2-.84-.29-1.26-.29-1.16,0-1.98.78-1.98,2.05,0,1.54,1.08,2.14,2.12,2.14.26,0,.66-.06.82-.15v-.89Z"/>
        <path class="cls-5" d="M74.96,73.5c0-.5-.02-.74-.03-.9.14-.04.47-.08.62-.08.08,0,.11.04.11.5,0,.53,0,1.09,0,1.61,0,.82.42.94.78.94s.7-.24.83-.4v-2.33c0-.2.02-.23.13-.27.23-.02.42-.05.6-.05,0,.18-.02.74-.02,1.43v1.26c0,.38.11.46.33.5v.04c0,.16-.2.4-.38.4-.34,0-.53-.22-.58-.57-.25.26-.5.39-.67.46-.16.06-.33.1-.52.1-.82,0-1.21-.54-1.21-1.33v-1.33Z"/>
        <path class="cls-5" d="M81.77,75.4c0,.26-.18.5-.33.58-.14.07-.46.18-.79.18-1.12,0-1.73-.66-1.73-1.79,0-1,.61-1.89,1.67-1.89.93,0,1.32.69,1.33,1.33,0,.08,0,.18-.02.25-.02.13-.42.24-.7.29-.22.03-1.02.05-1.59.02.02.78.5,1.23,1.21,1.23.37,0,.77-.14.91-.22l.02.02ZM80.5,72.92c-.39,0-.78.36-.84,1,.56.02,1.27,0,1.42,0,.1,0,.17-.07.17-.17,0-.47-.24-.83-.74-.83h0Z"/>
        <path class="cls-5" d="M83.78,72.47c.32,0,.64.1.84.28,0,.17-.1.4-.31.38-.15-.09-.38-.15-.57-.15-.3,0-.52.18-.52.43,0,.22.14.35.32.45.19.11.5.25.74.38.36.2.53.49.53.82,0,.77-.67,1.1-1.32,1.1-.36,0-.69-.1-.87-.24-.08-.06-.14-.14-.14-.25,0-.14.07-.26.16-.32.25.18.6.3.9.3.38,0,.59-.18.59-.46,0-.19-.12-.33-.38-.47-.22-.12-.43-.22-.62-.32-.34-.18-.56-.46-.56-.87,0-.66.58-1.05,1.22-1.05h0Z"/>
        <path class="cls-5" d="M87.56,75.47c.03.16,0,.36-.15.47-.16.14-.46.22-.75.22-.72,0-1-.45-1-1.06v-2.03c-.28,0-.39-.1-.39-.18.09-.16.59-.62.71-.73.1-.1.24-.18.42-.2-.02.25-.03.44-.03.62h1.27c-.08.42-.26.46-.4.46-.27.02-.31.02-.88.02-.04.8-.03,1.63,0,1.97.04.46.3.58.57.58.24,0,.47-.08.61-.17l.02.02Z"/>
        <path class="cls-5" d="M93.66,73.2v-1.94c0-.16.05-.19.17-.2.14-.02.42-.03.59-.03-.02.3-.02.78-.02,1.45v2.58c0,.56.02.82.02.98-.14.03-.5.06-.63.06-.09,0-.13-.02-.13-.14v-2.26c-.16.02-.42.02-1.12.02h-1.46v2.13c0,.16-.05.18-.21.21-.2.03-.36.03-.55.03.02-.32.02-.79.02-1.46v-2.54c0-.54,0-.86-.02-1.01.15-.03.48-.06.62-.06.11,0,.14.06.14.42v1.75h2.57Z"/>
        <path class="cls-5" d="M97.18,72.47c1.11,0,1.73.77,1.73,1.81s-.69,1.88-1.77,1.88c-1.18,0-1.76-.86-1.76-1.81,0-1.06.74-1.88,1.79-1.88h0ZM97.12,72.94c-.52,0-.99.47-.99,1.32,0,.95.49,1.42,1.08,1.42.47,0,.96-.4.96-1.35,0-.68-.3-1.39-1.04-1.39h0Z"/>
        <path class="cls-5" d="M99.8,73.5c0-.5-.02-.74-.03-.9.14-.04.47-.08.62-.08.08,0,.11.04.11.5,0,.53,0,1.09,0,1.61,0,.82.42.94.78.94s.7-.24.83-.4v-2.33c0-.2.02-.23.13-.27.23-.02.42-.05.6-.05,0,.18-.02.74-.02,1.43v1.26c0,.38.11.46.33.5v.04c0,.16-.2.4-.38.4-.34,0-.53-.22-.58-.57-.25.26-.5.39-.67.46-.16.06-.33.1-.52.1-.82,0-1.21-.54-1.21-1.33v-1.33Z"/>
        <path class="cls-5" d="M105.06,72.47c.32,0,.64.1.84.28,0,.17-.1.4-.31.38-.15-.09-.38-.15-.57-.15-.3,0-.52.18-.52.43,0,.22.14.35.32.45.19.11.5.25.74.38.36.2.53.49.53.82,0,.77-.67,1.1-1.32,1.1-.36,0-.69-.1-.87-.24-.08-.06-.14-.14-.14-.25,0-.14.07-.26.16-.32.25.18.6.3.9.3.38,0,.59-.18.59-.46,0-.19-.12-.33-.38-.47-.22-.12-.43-.22-.62-.32-.34-.18-.56-.46-.56-.87,0-.66.58-1.05,1.22-1.05h0Z"/>
        <path class="cls-5" d="M109.55,75.4c0,.26-.18.5-.33.58-.14.07-.46.18-.79.18-1.12,0-1.73-.66-1.73-1.79,0-1,.61-1.89,1.67-1.89.93,0,1.32.69,1.33,1.33,0,.08,0,.18-.02.25-.02.13-.42.24-.7.29-.22.03-1.02.05-1.59.02.02.78.5,1.23,1.21,1.23.37,0,.77-.14.91-.22l.02.02ZM108.28,72.92c-.39,0-.78.36-.84,1,.56.02,1.27,0,1.42,0,.1,0,.17-.07.17-.17,0-.47-.24-.83-.74-.83h0Z"/>
        <path class="cls-5" d="M111.56,72.47c.32,0,.64.1.84.28,0,.17-.1.4-.31.38-.15-.09-.38-.15-.57-.15-.3,0-.52.18-.52.43,0,.22.14.35.32.45.19.11.5.25.74.38.36.2.53.49.53.82,0,.77-.67,1.1-1.32,1.1-.36,0-.69-.1-.87-.24-.08-.06-.14-.14-.14-.25,0-.14.07-.26.16-.32.25.18.6.3.9.3.38,0,.59-.18.59-.46,0-.19-.12-.33-.38-.47-.22-.12-.43-.22-.62-.32-.34-.18-.56-.46-.56-.87,0-.66.58-1.05,1.22-1.05h0Z"/>
        <path class="cls-5" d="M115.37,72.11c0-.54,0-.87-.02-1.01.11-.02.49-.06.62-.06.12,0,.14.06.14.42v3.61c0,.56.02.82.02.98-.13.04-.49.06-.62.06-.1,0-.14-.02-.14-.15v-3.85Z"/>
        <path class="cls-5" d="M119.75,73.96c0-.61-.27-.92-.74-.92-.41,0-.72.26-.91.46v2.38c0,.16-.03.18-.17.2-.18.03-.37.02-.56.03.02-.3.02-.77.02-1.47v-1.34c0-.3-.04-.43-.14-.51v-.03c.07-.12.32-.27.46-.27.26,0,.33.4.34.59.34-.33.78-.6,1.21-.6.94,0,1.18.72,1.18,1.47v1.1c0,.46.02.81.03,1.01-.17.02-.39.06-.62.06-.09,0-.13-.04-.13-.12v-2.03Z"/>
        <path class="cls-5" d="M122.59,72.47c.32,0,.64.1.84.28,0,.17-.1.4-.31.38-.15-.09-.38-.15-.57-.15-.3,0-.52.18-.52.43,0,.22.14.35.32.45.19.11.5.25.74.38.36.2.53.49.53.82,0,.77-.67,1.1-1.32,1.1-.36,0-.69-.1-.87-.24-.08-.06-.14-.14-.14-.25,0-.14.07-.26.16-.32.25.18.6.3.9.3.38,0,.59-.18.59-.46,0-.19-.12-.33-.38-.47-.22-.12-.43-.22-.62-.32-.34-.18-.56-.46-.56-.87,0-.66.58-1.05,1.21-1.05h0Z"/>
        <path class="cls-5" d="M125.16,77.54c0,.13-.02.16-.16.19-.19.02-.37.03-.57.03.02-.23.02-.7.02-1.4v-3.12c0-.25-.06-.42-.14-.46v-.04c.09-.13.3-.27.47-.27s.3.22.33.51c.48-.35.88-.52,1.23-.52.73,0,1.43.56,1.43,1.7,0,1.21-.89,1.99-1.89,1.99-.3,0-.58-.09-.74-.19v1.58ZM125.16,75.49c.16.09.41.17.66.17.5,0,1.22-.34,1.22-1.41,0-.7-.4-1.19-.97-1.19-.37,0-.77.24-.91.38v2.05Z"/>
        <path class="cls-5" d="M131.33,75.4c0,.26-.18.5-.33.58-.14.07-.46.18-.79.18-1.12,0-1.73-.66-1.73-1.79,0-1,.61-1.89,1.67-1.89.93,0,1.32.69,1.34,1.33,0,.08,0,.18-.02.25-.02.13-.41.24-.7.29-.22.03-1.02.05-1.59.02.02.78.5,1.23,1.21,1.23.37,0,.77-.14.91-.22l.02.02ZM130.06,72.92c-.39,0-.78.36-.84,1,.56.02,1.27,0,1.41,0,.1,0,.17-.07.17-.17,0-.47-.24-.83-.74-.83h0Z"/>
        <path class="cls-5" d="M135.01,75.47c-.02.18-.1.39-.22.49-.19.12-.52.2-.87.2-.83,0-1.82-.41-1.82-1.78,0-1.12.85-1.9,1.93-1.9.57,0,.94.2,1.02.3,0,.22-.13.44-.35.39-.18-.08-.43-.15-.7-.15-.7,0-1.18.54-1.18,1.29,0,1.02.74,1.31,1.3,1.31.3,0,.64-.07.85-.16l.02.02Z"/>
        <path class="cls-5" d="M137.88,75.47c.03.16,0,.36-.15.47-.16.14-.46.22-.75.22-.72,0-1-.45-1-1.06v-2.03c-.28,0-.39-.1-.39-.18.09-.16.59-.62.71-.73.1-.1.24-.18.42-.2-.02.25-.03.44-.03.62h1.27c-.08.42-.26.46-.4.46-.27.02-.31.02-.88.02-.04.8-.03,1.63,0,1.97.04.46.3.58.57.58.24,0,.47-.08.61-.17l.02.02Z"/>
        <path class="cls-5" d="M141.18,75.4c0,.26-.18.5-.33.58-.14.07-.46.18-.79.18-1.12,0-1.73-.66-1.73-1.79,0-1,.61-1.89,1.67-1.89.93,0,1.32.69,1.34,1.33,0,.08,0,.18-.02.25-.02.13-.42.24-.7.29-.22.03-1.02.05-1.59.02.02.78.5,1.23,1.21,1.23.37,0,.77-.14.91-.22l.02.02ZM139.91,72.92c-.39,0-.78.36-.84,1,.56.02,1.27,0,1.42,0,.1,0,.17-.07.17-.17,0-.47-.24-.83-.74-.83h0Z"/>
        <path class="cls-5" d="M144.56,71.53c0-.42-.02-.62-.03-.78.15-.06.49-.11.62-.11.09,0,.12.04.12.52v4.07c0,.37.13.45.37.49v.02c-.03.19-.21.41-.39.41-.38,0-.54-.22-.6-.46-.32.26-.82.46-1.14.46-.86,0-1.55-.62-1.55-1.74s.86-1.94,1.99-1.94c.3,0,.53.08.62.11v-1.05ZM144.56,73.07c-.1-.06-.34-.12-.62-.12-.62,0-1.24.44-1.24,1.38,0,.77.47,1.26,1.12,1.26.25,0,.55-.1.74-.25v-2.26Z"/>
      </g>
      <g>
        <path class="cls-5" d="M41.94,81.82c.3-.17.73-.35,1.07-.35.74,0,1.5.54,1.5,1.69,0,1.27-.98,2-2.15,2-.37,0-.78-.09-.98-.2-.1-.05-.14-.1-.14-.24v-4.08c0-.49-.02-.73-.03-.89.17-.06.5-.11.62-.11.1,0,.12.04.12.52v1.66ZM41.94,84.6c.14.05.34.07.5.07.67,0,1.33-.44,1.33-1.42,0-.76-.42-1.22-1.1-1.22-.19,0-.54.1-.73.21v2.36Z"/>
        <path class="cls-5" d="M45.2,86.51c.27-.34.74-.99,1.06-1.66-.04-.06-.11-.2-.17-.34-.12-.31-.78-2.1-1.13-2.86.15-.09.44-.18.58-.18.1,0,.14.06.18.15.23.58.71,1.98.91,2.53.32-.74.74-2.02.89-2.68.12,0,.33.03.45.08.13.06.15.11.1.3-.24.86-.55,1.76-.98,2.69-.47,1.04-1.22,2.21-1.37,2.21-.19,0-.43-.12-.5-.21v-.03Z"/>
        <path class="cls-5" d="M50.79,81.12c0-.54,0-.86-.02-1.02.14-.02.42-.06.63-.06.1,0,.13.06.13.44v4.05c.16.05.54.06.87.06.36,0,.87,0,1.19-.04v.02c-.03.26-.17.44-.36.52-.11.02-.38.03-.94.03-.65,0-1.17-.04-1.37-.08l-.12-.15v-3.76Z"/>
        <path class="cls-5" d="M55.8,81.47c1.11,0,1.73.77,1.73,1.81s-.69,1.88-1.77,1.88c-1.18,0-1.76-.86-1.76-1.81,0-1.06.74-1.88,1.79-1.88h0ZM55.73,81.94c-.52,0-.99.47-.99,1.32,0,.95.49,1.42,1.08,1.42.47,0,.96-.4.96-1.35,0-.68-.3-1.39-1.04-1.39h0Z"/>
        <path class="cls-5" d="M61.13,84.47c-.02.18-.1.39-.22.49-.19.12-.52.2-.87.2-.83,0-1.82-.41-1.82-1.78,0-1.12.85-1.9,1.94-1.9.57,0,.94.2,1.02.3,0,.22-.13.44-.35.39-.18-.08-.43-.15-.7-.15-.7,0-1.17.54-1.17,1.29,0,1.02.74,1.31,1.29,1.31.3,0,.64-.07.85-.16l.02.02Z"/>
        <path class="cls-5" d="M64.78,84.64c0,.34-.18.51-.54.51s-.52-.24-.58-.5c-.21.23-.58.5-1.02.5-.55,0-.94-.42-.94-.92,0-.86,1.1-1.09,1.54-1.2.14-.03.31-.06.42-.08v-.21c0-.35-.21-.72-.69-.72-.27,0-.56.13-.78.27-.24.11-.36-.06-.39-.3.25-.23.78-.54,1.33-.54.82,0,1.21.58,1.21,1.35,0,.34-.02,1.09-.02,1.58,0,.15.1.25.26.25.05,0,.12,0,.17-.02l.02.02ZM62.41,84.15c0,.29.23.45.51.45.33,0,.57-.2.69-.38.04-.06.06-.14.06-.28v-.56c-.66.09-1.25.31-1.25.75h0Z"/>
        <path class="cls-5" d="M65.57,80.63c0-.47-.02-.72-.03-.88.17-.06.5-.11.62-.11.09,0,.12.04.12.52v3.85c0,.39.02.82.02,1.05-.14.04-.53.06-.62.06-.06,0-.1-.02-.1-.1v-4.38Z"/>
        <path class="cls-5" d="M72.83,83.64c0-.39,0-.7-.03-.93.17-.04.47-.12.63-.12.1,0,.14.05.14.22v1.86c-.13.1-.39.26-.58.33-.24.08-.73.18-1.09.18-1.41,0-2.8-.66-2.8-2.58,0-1.64,1.26-2.65,2.82-2.65.93,0,1.5.32,1.64.46,0,.28-.21.46-.42.38-.38-.2-.84-.29-1.26-.29-1.16,0-1.98.78-1.98,2.05,0,1.54,1.08,2.14,2.12,2.14.26,0,.66-.06.82-.15v-.89Z"/>
        <path class="cls-5" d="M76.25,81.47c1.11,0,1.73.77,1.73,1.81s-.69,1.88-1.77,1.88c-1.18,0-1.76-.86-1.76-1.81,0-1.06.74-1.88,1.79-1.88h0ZM76.19,81.94c-.52,0-.99.47-.99,1.32,0,.95.49,1.42,1.08,1.42.47,0,.96-.4.96-1.35,0-.68-.3-1.39-1.04-1.39h0Z"/>
        <path class="cls-5" d="M79.01,81.47c.07,0,.13.06.18.17.16.42.62,1.68.94,2.61.27-.78.79-2.09,1.02-2.77.15,0,.32.03.47.11.11.06.09.18-.03.47-.31.77-.57,1.39-1.14,2.78-.06.14-.12.22-.22.25-.14.04-.31.07-.44.08-.18-.52-.42-1.11-.9-2.36-.26-.65-.38-.93-.49-1.15.14-.08.44-.18.59-.18h0Z"/>
        <path class="cls-5" d="M85,84.4c0,.26-.18.5-.33.58-.14.07-.46.18-.79.18-1.12,0-1.73-.66-1.73-1.79,0-1,.61-1.89,1.67-1.89.93,0,1.32.69,1.34,1.33,0,.08,0,.18-.02.25-.02.13-.41.24-.7.29-.22.03-1.02.05-1.59.02.02.78.5,1.23,1.21,1.23.37,0,.77-.14.91-.22l.02.02ZM83.73,81.92c-.39,0-.78.36-.84,1,.56.02,1.27,0,1.42,0,.1,0,.17-.07.17-.17,0-.47-.24-.83-.74-.83h0Z"/>
        <path class="cls-5" d="M85.8,81.76c.07-.12.33-.3.46-.3.22,0,.38.28.38.79.26-.52.6-.79.98-.79.18,0,.34.09.39.15,0,.1-.02.3-.1.42-.05.1-.14.17-.24.16-.11-.04-.2-.06-.29-.06-.18,0-.44.17-.61.56-.06.14-.09.25-.09.42v1.76c0,.12-.02.18-.14.19-.21.02-.4.03-.58.03.02-.3.02-.77.02-1.47v-1.34c0-.22-.04-.4-.18-.5v-.03Z"/>
        <path class="cls-5" d="M91.07,82.96c0-.61-.27-.92-.74-.92-.41,0-.72.26-.91.46v2.38c0,.16-.03.18-.17.2-.18.03-.37.02-.56.03.02-.3.02-.77.02-1.47v-1.34c0-.3-.04-.43-.14-.51v-.03c.07-.12.32-.27.46-.27.26,0,.33.4.34.59.34-.33.78-.6,1.21-.6.94,0,1.18.72,1.18,1.47v1.1c0,.46.02.81.03,1.01-.17.02-.39.06-.62.06-.09,0-.13-.04-.13-.12v-2.03Z"/>
        <path class="cls-5" d="M93.68,84.89c0,.13-.04.17-.16.18-.19.03-.38.03-.57.03.02-.3.02-.77.02-1.47v-1.36c0-.26-.04-.43-.14-.5v-.04c.08-.11.33-.26.46-.26.26,0,.32.37.34.59.34-.3.78-.6,1.22-.6.54,0,.82.25.99.63.33-.32.8-.63,1.26-.63.85,0,1.15.65,1.15,1.41v1.16c0,.46,0,.81.02,1.01-.17.02-.4.06-.62.06-.08,0-.11-.04-.11-.13v-2.02c0-.61-.26-.91-.73-.91-.37,0-.66.24-.86.43v2.39c0,.15-.02.19-.16.21-.22.03-.39.03-.57.03.02-.3.02-.77.02-1.47v-.67c0-.61-.26-.92-.72-.92-.35,0-.66.25-.87.46v2.39Z"/>
        <path class="cls-5" d="M102.01,84.4c0,.26-.18.5-.33.58-.14.07-.46.18-.79.18-1.12,0-1.73-.66-1.73-1.79,0-1,.61-1.89,1.67-1.89.93,0,1.32.69,1.34,1.33,0,.08,0,.18-.02.25-.02.13-.42.24-.7.29-.22.03-1.02.05-1.59.02.02.78.5,1.23,1.21,1.23.37,0,.77-.14.91-.22l.02.02ZM100.74,81.92c-.39,0-.78.36-.84,1,.56.02,1.27,0,1.41,0,.1,0,.17-.07.17-.17,0-.47-.24-.83-.74-.83h0Z"/>
        <path class="cls-5" d="M105.35,82.96c0-.61-.27-.92-.74-.92-.41,0-.72.26-.91.46v2.38c0,.16-.03.18-.17.2-.18.03-.37.02-.56.03.02-.3.02-.77.02-1.47v-1.34c0-.3-.04-.43-.14-.51v-.03c.07-.12.32-.27.46-.27.26,0,.33.4.34.59.34-.33.78-.6,1.22-.6.94,0,1.18.72,1.18,1.47v1.1c0,.46.02.81.03,1.01-.17.02-.39.06-.62.06-.09,0-.13-.04-.13-.12v-2.03Z"/>
        <path class="cls-5" d="M109.16,84.47c.03.16,0,.36-.15.47-.16.14-.46.22-.75.22-.72,0-1-.45-1-1.06v-2.03c-.28,0-.39-.1-.39-.18.09-.16.59-.62.71-.73.1-.1.24-.18.42-.2-.02.25-.03.44-.03.62h1.27c-.08.42-.26.46-.4.46-.27.02-.31.02-.88.02-.04.8-.03,1.63,0,1.97.04.46.3.58.57.58.24,0,.47-.08.61-.17l.02.02Z"/>
        <path class="cls-5" d="M111.05,81.47c.32,0,.64.1.84.28,0,.17-.1.4-.31.38-.15-.09-.38-.15-.57-.15-.3,0-.52.18-.52.43,0,.22.14.35.32.45.19.11.5.25.74.38.36.2.53.49.53.82,0,.77-.67,1.1-1.32,1.1-.36,0-.69-.1-.87-.24-.08-.06-.14-.14-.14-.25,0-.14.07-.26.16-.32.25.18.6.3.9.3.38,0,.59-.18.59-.46,0-.19-.12-.33-.38-.47-.22-.12-.43-.22-.62-.32-.34-.18-.56-.46-.56-.87,0-.66.58-1.05,1.22-1.05h0Z"/>
        <path class="cls-5" d="M115.17,79.8c.23,0,.37.17.37.4s-.15.42-.39.42c-.22,0-.39-.14-.39-.4,0-.29.23-.42.4-.42h0ZM115.52,84.87c0,.14-.05.18-.18.2-.11.02-.31.03-.55.04,0-.32.02-.78.02-1.25v-1.35c0-.49-.02-.74-.03-.9.14-.05.5-.08.62-.08.09,0,.12.04.12.5v2.85Z"/>
        <path class="cls-5" d="M119.07,82.96c0-.61-.27-.92-.74-.92-.41,0-.72.26-.91.46v2.38c0,.16-.03.18-.17.2-.18.03-.37.02-.56.03.02-.3.02-.77.02-1.47v-1.34c0-.3-.04-.43-.14-.51v-.03c.07-.12.32-.27.46-.27.26,0,.33.4.34.59.34-.33.78-.6,1.22-.6.94,0,1.18.72,1.18,1.47v1.1c0,.46.02.81.03,1.01-.17.02-.39.06-.62.06-.09,0-.13-.04-.13-.12v-2.03Z"/>
        <path class="cls-5" d="M122.76,84.63c1.4-1.43,1.91-2.24,1.91-2.92,0-.6-.32-.9-.82-.9-.39,0-.76.26-.92.4-.13.1-.22.1-.3-.03-.04-.06-.06-.15-.06-.22.36-.45.93-.71,1.47-.71.85,0,1.35.55,1.35,1.39,0,.42-.15.78-.42,1.18-.26.42-.86,1.1-1.46,1.71.59.04,1.5.03,2.21,0-.03.19-.22.41-.33.45-.09.06-.39.1-.82.1-.82,0-1.54,0-1.94-.08l-.02-.06.14-.31Z"/>
        <path class="cls-5" d="M128.04,80.24c1.39,0,1.58,1.51,1.58,2.44,0,1.69-.62,2.47-1.64,2.47-.81,0-1.62-.56-1.62-2.45,0-1.06.38-2.46,1.68-2.46h0ZM128,80.72c-.49,0-.9.66-.9,1.96,0,1.51.49,1.99.93,1.99.38,0,.86-.25.86-2.05,0-.9-.17-1.9-.88-1.9h0Z"/>
        <path class="cls-5" d="M130.39,84.63c1.4-1.43,1.91-2.24,1.91-2.92,0-.6-.32-.9-.82-.9-.39,0-.76.26-.92.4-.13.1-.22.1-.3-.03-.04-.06-.06-.15-.06-.22.36-.45.93-.71,1.47-.71.85,0,1.35.55,1.35,1.39,0,.42-.15.78-.42,1.18-.26.42-.86,1.1-1.46,1.71.59.04,1.5.03,2.21,0-.03.19-.22.41-.33.45-.09.06-.39.1-.82.1-.82,0-1.54,0-1.94-.08l-.02-.06.14-.31Z"/>
        <path class="cls-5" d="M134.13,84.59c.22.09.66.2.98.2.94,0,1.23-.5,1.23-1.06s-.4-.85-1.14-.85c-.18,0-.33.02-.46.04l-.03-.03c.03-.14.13-.34.2-.41.64-.14,1.16-.43,1.16-1.02,0-.38-.27-.67-.72-.67-.3,0-.65.16-.83.31-.1.09-.2.1-.26,0-.06-.07-.06-.17-.06-.26.23-.3.8-.6,1.3-.6,1.04,0,1.3.73,1.3,1.08,0,.55-.34.9-.87,1.14.84.17,1.19.63,1.19,1.23,0,1.02-.84,1.61-1.94,1.61-.46,0-.8-.14-.9-.22-.1-.1-.18-.3-.18-.46l.02-.02Z"/>
      </g>
      <g class="cls-8">
        <path class="cls-2" d="M95.02,101.67h62.09c14.3,0,25.89-11.64,25.89-26.01v-26.65c0-14.36-11.59-26.01-25.89-26.01H26.45C12.15,23,.56,34.64.56,49.01v26.65c0,14.36,11.59,26.01,25.89,26.01h68.84"/>
        <path class="cls-6" d="M206.55,93.17c19.26,0,34.87-15.61,34.87-34.87s-15.61-34.87-34.87-34.87-34.87,15.61-34.87,34.87,15.61,34.87,34.87,34.87"/>
        <circle class="cls-3" cx="206.55" cy="58.31" r="34.87"/>
      </g>
      <g>
        <path class="cls-7" d="M182.95,49.83c0,1.05.05,7.66.05,8.92,0,.31-.12.36-.36.41-.36.03-.86.06-1.09.06,0-.83.02-4.07.02-8.05-.55.22-1.76.59-2.42.76l-.05-.05.36-.89c1.28-.42,2.75-.97,3.4-1.26l.09.09Z"/>
        <path class="cls-7" d="M189.2,49.74c2.71,0,3.07,2.95,3.07,4.76,0,3.29-1.22,4.82-3.2,4.82-1.57,0-3.16-1.09-3.16-4.79,0-2.07.73-4.79,3.27-4.79h.02ZM189.11,50.67c-.95,0-1.76,1.28-1.76,3.82,0,2.95.95,3.88,1.81,3.88.75,0,1.68-.48,1.68-3.99,0-1.76-.33-3.71-1.72-3.71h-.02Z"/>
        <path class="cls-7" d="M194.82,57.05c.39,0,.48.61.48.94,0,.95-.78,2.12-1.42,2.57-.25.19-.62.25-1.06.23.61-.76,1.04-1.81,1.04-2.73,0-.26-.05-.48-.08-.66.28-.16.69-.36,1.01-.36h.02Z"/>
        <path class="cls-7" d="M200,49.74c2.71,0,3.07,2.95,3.07,4.76,0,3.29-1.22,4.82-3.2,4.82-1.57,0-3.16-1.09-3.16-4.79,0-2.07.73-4.79,3.27-4.79h.02ZM199.9,50.67c-.95,0-1.76,1.28-1.76,3.82,0,2.95.95,3.88,1.81,3.88.75,0,1.68-.48,1.68-3.99,0-1.76-.33-3.71-1.72-3.71h-.02Z"/>
        <path class="cls-7" d="M209,49.83c0,1.05.05,7.66.05,8.92,0,.31-.12.36-.36.41-.36.03-.86.06-1.09.06,0-.83.02-4.07.02-8.05-.55.22-1.76.59-2.42.76l-.05-.05.36-.89c1.28-.42,2.74-.97,3.4-1.26l.09.09Z"/>
        <path class="cls-7" d="M218.25,50c-.23,2.5-3.12,8.05-3.88,8.86-.25.25-.48.36-.83.44-.33.05-.58.06-.79.06l-.03-.09c1.5-1.76,3.46-5.65,4.15-8.23-.81,0-2.06.02-3.74.02-.9,0-1.09-.12-1.08-.31.02-.23.37-.75.66-.94.19.11.56.12,1.33.12h4.16l.06.08Z"/>
      </g>
      <path class="cls-7" d="M232.73,53.36c.14-.11.29-.16.47-.16h.01c.18,0,.33.05.46.16.13.1.19.23.19.38,0,.17-.07.3-.2.41-.64.47-1.29.88-1.96,1.26-.06.03-.07.08-.04.13.67,1.08,1.49,1.88,2.48,2.42.14.08.23.19.25.36,0,.03.01.07.01.1,0,.12-.04.23-.13.33-.12.15-.27.25-.44.3-.07.02-.13.03-.18.03-.12,0-.23-.03-.34-.1-1.87-1.15-3.2-3.25-3.99-6.28,0,0,0-.01-.01-.01,0,0-.02,0-.03.01-.32.27-.69.53-1.1.77-.05.03-.05.06-.01.1.57.52,1.02,1.1,1.35,1.76.33.66.52,1.27.56,1.85.02.14.03.28.03.42,0,.42-.05.81-.16,1.17-.14.48-.37.84-.69,1.07-.23.18-.45.3-.67.37-.22.07-.48.11-.79.11-.16,0-.33,0-.51-.01-.17,0-.32-.06-.45-.18-.13-.12-.22-.27-.26-.44-.04-.14-.02-.26.06-.36.08-.11.18-.15.31-.15.2,0,.41.01.61.01.39,0,.67-.09.85-.27.2-.14.33-.38.42-.72.04-.19.06-.41.06-.63,0-.17-.01-.35-.04-.53,0-.02-.01-.03-.03-.04-.02,0-.04,0-.06,0-.63.48-1.34.95-2.15,1.39-.81.45-1.6.82-2.38,1.11-.08.03-.17.05-.24.05s-.16-.02-.24-.05c-.16-.06-.29-.17-.38-.32-.04-.08-.06-.15-.06-.23,0-.05,0-.1.03-.15.05-.14.14-.22.27-.27.89-.28,1.78-.65,2.66-1.12.88-.47,1.61-.95,2.19-1.45.05-.04.06-.09.03-.15-.08-.16-.16-.33-.25-.5-.03-.05-.08-.06-.13-.03-1,.68-2.15,1.28-3.47,1.82-.08.03-.15.04-.23.04s-.15-.01-.22-.04c-.15-.06-.27-.16-.36-.29-.08-.11-.09-.23-.05-.36.04-.13.13-.21.25-.25.62-.19,1.25-.44,1.9-.74.65-.3,1.18-.6,1.61-.89.05-.04.06-.08.01-.13-.12-.13-.23-.24-.34-.33-.05-.04-.11-.05-.17-.01-.76.36-1.59.67-2.5.95-.07.02-.13.03-.2.03-.09,0-.18-.02-.27-.05-.15-.06-.27-.16-.37-.3-.08-.1-.09-.22-.05-.34.04-.13.13-.21.25-.24,1.46-.37,2.67-.84,3.63-1.4.02,0,.02-.02.02-.03,0-.01-.01-.02-.03-.02h-1.78c-.14,0-.27-.05-.37-.15s-.15-.22-.15-.37.05-.27.15-.37.22-.15.37-.15h6.08c.14,0,.27.05.37.15s.15.22.15.37-.05.27-.15.37-.22.15-.37.15h-1.31s-.03,0-.05.03c-.02.02-.02.04-.01.06.17.59.38,1.16.62,1.7.03.05.07.06.13.03.56-.36,1.07-.74,1.54-1.13ZM224.74,50.55c-.07,0-.1.03-.1.09v.91c0,.16-.06.3-.17.42-.11.12-.25.18-.42.18s-.31-.06-.43-.18c-.12-.12-.18-.26-.18-.42v-1.36c0-.21.07-.39.22-.53.15-.14.32-.22.53-.22h3.88c.07,0,.1-.03.1-.1v-.37c0-.17.06-.32.18-.44.12-.12.27-.18.44-.18s.32.06.44.18c.12.12.18.27.18.44v.37c0,.07.03.1.1.1h3.96c.2,0,.38.07.53.22.15.14.22.32.22.53v1.35c0,.17-.06.31-.18.43-.12.12-.26.18-.43.18s-.31-.06-.43-.18c-.12-.12-.18-.26-.18-.43v-.9c0-.06-.03-.09-.1-.09h-8.18Z"/>
      <g>
        <path class="cls-7" d="M186.57,64.54v-.05c.13-.03.68-.08.82-.08.08,0,.17.06.26.17.33.42,1.29,1.82,2.29,3.16.49.7.92,1.27,1.18,1.76-.07-.97-.06-1.52-.06-2.02v-2.74c0-.23.07-.27.19-.28.31-.03.4-.04.59-.04-.02.42-.03,1-.03,1.82v4.37c-.07.05-.44.15-.63.15-.07,0-.12-.03-.17-.08-.65-.87-1.56-2.13-2.44-3.37-.36-.53-.68-1.05-1.07-1.68.05,1.15.05,1.67.05,2.17v2.55c0,.24-.06.27-.21.3-.16.03-.38.04-.57.04.02-.4.03-.97.03-1.8v-4.02l-.24-.33Z"/>
        <path class="cls-7" d="M195.28,66.19c1.37,0,2.13.95,2.13,2.23s-.85,2.32-2.18,2.32c-1.45,0-2.17-1.06-2.17-2.23,0-1.3.91-2.32,2.21-2.32h0ZM195.2,66.77c-.64,0-1.22.58-1.22,1.63,0,1.17.6,1.76,1.33,1.76.58,0,1.18-.49,1.18-1.67,0-.84-.37-1.72-1.28-1.72h0Z"/>
        <path class="cls-7" d="M198.79,69.54c.32,0,.52.28.52.58,0,.35-.24.6-.59.6-.26,0-.55-.18-.55-.57,0-.33.22-.61.61-.61h0Z"/>
        <path class="cls-7" d="M202.27,66.19c1.37,0,2.13.95,2.13,2.23s-.85,2.32-2.18,2.32c-1.45,0-2.17-1.06-2.17-2.23,0-1.3.91-2.32,2.21-2.32h0ZM202.19,66.77c-.64,0-1.22.58-1.22,1.63,0,1.17.6,1.76,1.33,1.76.58,0,1.18-.49,1.18-1.67,0-.84-.37-1.72-1.28-1.72h0Z"/>
        <path class="cls-7" d="M207.37,63.87c.29,0,.54.11.62.22.03.21-.14.5-.36.49-.1-.04-.23-.06-.32-.06-.47,0-.89.43-.86,1.8.16,0,1.09.02,1.33-.02-.03.21-.16.41-.27.49-.14.1-.52.12-1.08.12,0,.99.03,3.14.03,3.69-.2.05-.62.08-.76.08-.1,0-.15-.02-.15-.18.02-1.06,0-2.21,0-3.59-.4,0-.54-.1-.54-.26.14-.16.28-.23.54-.34,0-1.09.31-1.68.71-2.04.37-.33.73-.41,1.07-.41h0Z"/>
        <path class="cls-7" d="M211.47,66.84c.37-.32.87-.65,1.47-.65,1.11,0,1.45.88,1.45,1.83v1.33c0,.6,0,1.02.02,1.25-.2.04-.46.08-.75.08-.11,0-.14-.05-.14-.17v-2.43c0-.87-.41-1.19-.96-1.19-.46,0-.9.31-1.1.5v3c0,.17-.04.23-.19.25-.25.04-.48.04-.71.04.02-.37.03-.95.03-1.82v-3.7c0-.59-.02-.9-.04-1.1.26-.08.6-.14.76-.14.11,0,.15.05.15.64v2.27Z"/>
        <path class="cls-7" d="M217.71,66.19c1.37,0,2.13.95,2.13,2.23s-.85,2.32-2.18,2.32c-1.45,0-2.17-1.06-2.17-2.23,0-1.3.91-2.32,2.21-2.32h0ZM217.63,66.77c-.64,0-1.22.58-1.22,1.63,0,1.17.6,1.76,1.33,1.76.58,0,1.18-.49,1.18-1.67,0-.84-.37-1.72-1.28-1.72h0Z"/>
        <path class="cls-7" d="M222.16,66.19c.39,0,.79.12,1.04.35,0,.21-.12.49-.38.46-.19-.11-.46-.19-.7-.19-.37,0-.64.22-.64.53,0,.27.17.43.39.55.24.14.62.31.91.46.44.25.65.6.65,1.02,0,.95-.83,1.36-1.63,1.36-.44,0-.85-.13-1.08-.3-.1-.07-.18-.18-.17-.31,0-.17.09-.32.2-.4.31.22.74.37,1.11.37.47,0,.73-.23.73-.57,0-.24-.15-.41-.47-.58-.27-.15-.53-.27-.77-.4-.42-.23-.69-.57-.69-1.08,0-.81.71-1.29,1.5-1.29h.01Z"/>
        <path class="cls-7" d="M226.83,69.89c.04.2,0,.44-.19.58-.2.17-.57.27-.93.27-.89,0-1.23-.55-1.23-1.3v-2.51c-.35,0-.48-.12-.48-.23.11-.2.73-.77.88-.9.13-.12.3-.22.52-.25-.02.31-.04.54-.04.76h1.57c-.1.51-.32.56-.49.57-.34.02-.39.03-1.09.03-.05.99-.04,2.01,0,2.44.05.57.37.72.7.72.3,0,.58-.1.75-.21l.03.02Z"/>
      </g>
      <rect class="cls-6" x="59.65" y="11.93" width="62.47" height="22.44"/>
      <g class="cls-4">
        <path class="cls-7" d="M86.72,31.93h6.76c0-1.15.04-2.25-.02-3.34-.03-.52-.4-.83-.97-.83-1.61,0-3.21,0-4.82,0-.6,0-.93.34-.95.93-.02,1.05,0,2.1,0,3.24M81.64,31.93c0-1.16.03-2.26-.01-3.36-.02-.56-.4-.82-.96-.82-1.6,0-3.21,0-4.81,0-.59,0-.92.34-.94.86-.05,1.09-.02,2.19-.02,3.33h6.74ZM85.01,31.93c0-1.01,0-1.97,0-2.94.02-1.93.99-2.92,2.92-2.94,1.45-.02,2.9,0,4.35,0,1.83-.02,2.97,1.19,2.85,2.9-.07.98-.01,1.98-.01,2.98h1.72c0-2.34,0-4.63,0-6.92,0-1.28-.22-1.5-1.53-1.5-7.43,0-14.87,0-22.3,0-.13,0-.26,0-.39,0-.8.04-1.09.32-1.09,1.12-.01,1.11,0,2.21,0,3.32v3.98c.34.02.59.01.85.05.64.09.91-.14.85-.82-.06-.68-.01-1.37-.01-2.06,0-2.13.94-3.06,3.09-3.06,1.32,0,2.63,0,3.95,0,2.12,0,3.09.98,3.1,3.09,0,.92,0,1.83,0,2.79h1.64ZM68.21,48.76h1.58c0-.74-.01-1.42,0-2.11.02-.88.33-1.18,1.21-1.18,8.78,0,17.56,0,26.33,0,.93,0,1.2.28,1.21,1.24.01.68,0,1.35,0,2.07h1.57v-6.59h-31.92v6.57ZM100.18,40.36c0-1.53.03-2.98-.01-4.43-.03-1.1-.85-1.97-1.94-2.17-.38-.07-.78-.11-1.17-.11-8.57,0-17.13,0-25.7,0-.44,0-.9.03-1.33.14-.98.25-1.69.92-1.77,1.9-.12,1.54-.03,3.09-.03,4.68h31.97ZM96.85,47.24h-25.32c0,.73,0,1.43,0,2.14,0,.86-.28,1.15-1.12,1.16-.98.01-1.95,0-2.93,0-.68,0-1.02-.34-1.02-1.02,0-4.51-.04-9.02.03-13.53.03-1.8,1.04-3.08,2.71-3.72.52-.2.61-.43.6-.9-.01-2.16-.01-4.33,0-6.49,0-2.03.97-3,3-3,7.6,0,15.19.04,22.79-.03,2.1-.02,3.03,1.4,2.98,3.04-.06,2.11,0,4.22-.02,6.33,0,.55.07.85.7,1.09,1.71.66,2.64,2.01,2.66,3.84.05,4.43.02,8.86.01,13.3,0,.79-.3,1.09-1.09,1.1-.98.01-1.95,0-2.93,0-.72,0-1.06-.36-1.05-1.08,0-.71,0-1.42,0-2.22"/>
        <path class="cls-7" d="M68.18,21.84h-1.72v-1.66c0-2.69.01-5.38,0-8.07,0-.67.22-1.05.85-1.33,7.94-3.55,15.87-7.12,23.82-10.66.38-.17.96-.16,1.33,0,7.95,3.53,15.89,7.1,23.81,10.69.35.16.79.6.8.91.06,3.35.04,6.69.04,10.09h-1.68c-.01-.27-.04-.55-.04-.83,0-2.66-.02-5.33,0-7.99,0-.54-.13-.84-.66-1.07-7.47-3.32-14.92-6.67-22.39-9.99-.31-.14-.77-.16-1.07-.02-7.49,3.33-14.98,6.69-22.47,10.03-.47.21-.65.47-.64,1,.03,2.66.01,5.33.01,7.99v.89Z"/>
        <path class="cls-7" d="M105.32,38.66h10v-4.95h-10v4.95ZM117.11,45.45h-1.7v-4.99h-10.1v4.96h-1.65c-.02-.24-.05-.47-.05-.7,0-3.8,0-7.59,0-11.39,0-1.17.17-1.35,1.32-1.35,3.61,0,7.22,0,10.83,0,1.13,0,1.35.22,1.35,1.32,0,3.8,0,7.59,0,11.39v.76Z"/>
        <path class="cls-7" d="M112.53,24.33c-.26-.78-.56-1.48-.71-2.21-.19-.96-.69-1.32-1.63-1.15-.18.03-.37-.03-.55.02-.16.04-.38.13-.43.25-.36,1-.68,2.01-1.04,3.09h4.35ZM107.78,30.29c0-.5,0-.87,0-1.23,0-.13.02-.26.04-.46h1.62v-2.55c-.75,0-1.48.02-2.21,0-.95-.03-1.26-.47-.96-1.4.49-1.5,1-2.98,1.48-4.48.18-.57.51-.88,1.14-.86.97.03,1.95.02,2.92,0,.54-.01.9.19,1.07.72.54,1.62,1.1,3.23,1.62,4.85.21.64-.17,1.12-.89,1.16-.76.03-1.52,0-2.34,0v2.47h1.51v1.77h-5.02Z"/>
        <path class="cls-7" d="M93.73,7.04c-.18.51-.35.98-.53,1.5-1.62-.34-3.1-.18-4.34,1.01-.87.84-1.31,1.88-1.27,3.05.09,2.56,1.96,4.18,4.27,4.16,2.55-.03,4.3-2.13,4.1-4.88.51-.1,1.04-.2,1.56-.3.62,2.21-.62,4.89-2.8,6.11-2.43,1.37-5.37.91-7.29-1.16-1.82-1.95-2.05-4.97-.56-7.23,1.5-2.26,4.24-3.19,6.87-2.26"/>
        <path class="cls-7" d="M89.48,12.39c.49-.47.87-.82,1.28-1.2.31.3.65.61,1.02.96,1.74-1.78,3.46-3.55,5.25-5.38.45.53.79.92,1.13,1.32l.26.13c-.35.27-.73.5-1.04.8-1.59,1.57-3.16,3.16-4.75,4.73-.67.67-.98.66-1.66.02-.48-.45-.96-.9-1.49-1.39"/>
      </g>
      <rect class="cls-7" x="108.74" y="35.4" width="3.25" height="1.62"/>
    </g>
  </g>
</svg>