<?xml version="1.0" encoding="UTF-8"?>
<svg id="_圖層_2" data-name="圖層_2" xmlns="http://www.w3.org/2000/svg" xmlns:xlink="http://www.w3.org/1999/xlink" viewBox="0 0 183.56 91.5">
  <defs>
    <style>
      .cls-1, .cls-2 {
        fill: none;
      }

      .cls-2 {
        stroke: #daa02d;
        stroke-miterlimit: 10;
        stroke-width: 1.12px;
      }

      .cls-3 {
        fill: #3e3a39;
      }

      .cls-4 {
        fill: #21b1e0;
      }

      .cls-5 {
        clip-path: url(#clippath);
      }
    </style>
    <clipPath id="clippath">
      <rect class="cls-1" x="0" y="0" width="183.56" height="91.5"/>
    </clipPath>
  </defs>
  <g id="_圖層_1-2" data-name="圖層_1">
    <g>
      <path class="cls-4" d="M94.98,48.66c1.96,0,3.19,1.17,3.19,2.68,0,1.21-.77,1.85-1.76,2.43,1.42.76,2.2,1.42,2.2,2.86,0,1.8-1.6,3.08-3.82,3.08-2.9,0-3.69-1.66-3.69-2.83,0-1.31.99-2,2.11-2.61-1.28-.72-1.69-1.62-1.69-2.63,0-1.49,1.19-2.99,3.46-2.99h.02ZM94.91,58.43c.86,0,1.51-.58,1.51-1.48,0-.74-.56-1.31-2.11-2.03-.79.5-1.15,1.13-1.15,1.84,0,.95.74,1.67,1.73,1.67h.02ZM94.84,49.94c-.77,0-1.37.54-1.37,1.33s.52,1.3,1.89,1.93c.56-.43.94-.99.94-1.73,0-.86-.5-1.53-1.44-1.53h-.02Z"/>
      <path class="cls-4" d="M106.97,48.95c-.05,2.47-3.33,9.02-4.29,10.1-.29.34-.61.5-1.15.59-.52.09-.94.11-1.28.09l-.02-.09c1.64-2.04,3.69-6.01,4.59-9.06-.65,0-2.12.02-4.09.02-1.21,0-1.35-.22-1.3-.56.05-.36.52-1.03.88-1.33.23.14.74.16,1.55.16h5.02l.07.07Z"/>
      <path class="cls-4" d="M114.42,48.42c-1.58,1.89-3.47,4.29-4.91,6.84.68.09,1.62.14,2.56.13l.07-2.39c.36-.23,1.48-.52,2.02-.58l.07.07v2.92c.23,0,.88-.05,1.3-.07l.02.04c-.13.58-.31,1.01-.54,1.28-.29.13-.56.14-.77.18v2.23c0,.29-.2.38-.52.43-.54.09-1.46.11-1.76.11.05-.88.11-2.16.11-2.75-1.35,0-3.31-.13-4.02-.25-.14-.09-.58-.7-.58-1.03.92-1.71,3.67-5.56,4.57-6.5.65-.4,1.73-.68,2.34-.77l.05.13Z"/>
    </g>
    <g>
      <path class="cls-4" d="M116.72,59.21l2.24-8.99h.92l-2.24,8.99h-.92Z"/>
      <path class="cls-4" d="M122.66,55.77c-.08-.53-.16-1.01-.24-1.44.77-1.2,1.42-2.68,1.96-4.44l1.04.28c-.21.72-.47,1.4-.76,2.04v7.15h-1.04v-5.08c-.27.51-.59,1-.96,1.48ZM126.26,54.69c-.16-.08-.43-.19-.8-.32-.08-.03-.15-.05-.2-.08.51-.96.92-2.21,1.24-3.76l1.04.2c-.08.45-.19.88-.32,1.28h1.36v-2.16h1.08v2.16h2.2v1.04h-2.2v2.16h2.52v1.08h-2.52v3.12h-1.08v-3.12h-3.32v-1.08h3.32v-2.16h-1.68c-.19.56-.4,1.11-.64,1.64Z"/>
    </g>
    <g>
      <path class="cls-4" d="M93.82,62.19c1.11,0,1.81.66,1.81,1.52,0,.68-.44,1.05-1,1.38.81.43,1.25.81,1.25,1.62,0,1.02-.91,1.75-2.17,1.75-1.65,0-2.1-.94-2.1-1.61,0-.75.56-1.13,1.2-1.48-.73-.41-.96-.92-.96-1.49,0-.85.67-1.7,1.96-1.7h0ZM93.78,67.74c.49,0,.86-.33.86-.84,0-.42-.32-.75-1.2-1.16-.45.29-.65.64-.65,1.04,0,.54.42.95.98.95h.01ZM93.74,62.92c-.44,0-.78.31-.78.76s.3.74,1.07,1.09c.32-.25.53-.56.53-.98,0-.49-.29-.87-.82-.87h0Z"/>
      <path class="cls-4" d="M100.63,62.35c-.03,1.4-1.89,5.12-2.43,5.74-.16.19-.35.29-.65.34-.3.05-.53.06-.73.05v-.05c.92-1.16,2.09-3.42,2.6-5.14-.37,0-1.21,0-2.32,0-.69,0-.77-.12-.74-.32.03-.2.3-.58.5-.76.13.08.42.09.88.09h2.85l.04.04Z"/>
      <path class="cls-4" d="M104.87,62.06c-.9,1.07-1.97,2.43-2.79,3.88.39.05.92.08,1.45.07l.04-1.36c.2-.13.84-.3,1.15-.33l.04.04v1.66c.13,0,.5-.03.74-.04v.02c-.06.33-.16.57-.3.73-.16.07-.32.08-.44.1v1.27c0,.16-.11.21-.3.25-.31.05-.83.06-1,.06.03-.5.06-1.23.06-1.56-.77,0-1.88-.07-2.28-.14-.08-.05-.33-.4-.33-.58.52-.97,2.09-3.16,2.6-3.69.37-.23.98-.39,1.33-.44l.03.07Z"/>
      <path class="cls-4" d="M111.5,67.39c0,.3-.15.65-.34.82-.3.18-.73.27-1.16.27-1.33,0-2.36-.77-2.36-2.27s1.1-2.47,2.53-2.47c.7,0,1.19.21,1.37.39,0,.27-.13.64-.49.63-.23-.09-.55-.16-.83-.16-.74,0-1.31.51-1.31,1.44,0,1.11.76,1.52,1.46,1.52.44,0,.83-.08,1.1-.19l.02.03Z"/>
      <path class="cls-4" d="M115.98,67.61c.01.54-.28.86-.86.86-.42,0-.7-.21-.83-.57-.27.29-.72.57-1.21.57-.67,0-1.28-.51-1.28-1.27,0-1.05,1.23-1.34,1.95-1.5.18-.04.41-.07.53-.1v-.17c0-.43-.3-.78-.81-.78-.37,0-.73.16-.95.3-.43.12-.57-.25-.57-.55.44-.32,1.16-.67,1.85-.67.92,0,1.67.61,1.67,1.73,0,.42-.04,1.2-.04,1.86,0,.13.12.28.37.28.05,0,.12,0,.17-.02v.04ZM113,67.03c0,.36.28.56.6.56.29,0,.45-.11.59-.27.05-.06.08-.16.08-.35v-.73c-.89.1-1.28.43-1.28.77h0Z"/>
      <path class="cls-4" d="M118.06,63.72c.41,0,.81.1,1.15.36,0,.27-.11.66-.47.63-.2-.09-.46-.16-.71-.16-.31,0-.52.16-.52.41,0,.21.16.34.38.46.19.11.6.3.84.42.51.29.72.67.72,1.12,0,1.01-.9,1.5-1.83,1.5-.4,0-.83-.11-1.1-.29-.13-.09-.22-.21-.22-.37,0-.21.12-.44.27-.55.3.18.74.37,1.15.37.37,0,.58-.17.58-.43,0-.18-.1-.32-.4-.47-.26-.14-.52-.27-.78-.41-.42-.24-.71-.62-.71-1.17,0-.91.79-1.43,1.67-1.43h0Z"/>
      <path class="cls-4" d="M123.63,67.33c0,.45-.36.87-.53.95-.15.07-.59.18-.95.18-1.49,0-2.31-.82-2.31-2.32,0-1.24.81-2.42,2.19-2.42,1.3,0,1.8.94,1.81,1.76,0,.14,0,.25-.03.34-.03.15-.44.3-.86.4-.25.06-1.32.07-1.88.05.05.9.71,1.28,1.4,1.28.49,0,.97-.15,1.15-.23l.02.02ZM121.91,64.44c-.38,0-.79.36-.83,1.12.42.03,1.21.02,1.45,0,.07,0,.13-.1.13-.21,0-.5-.23-.91-.75-.91h0Z"/>
      <path class="cls-4" d="M125.93,63.72c.41,0,.81.1,1.15.36,0,.27-.11.66-.47.63-.2-.09-.46-.16-.71-.16-.31,0-.52.16-.52.41,0,.21.16.34.38.46.19.11.6.3.84.42.51.29.72.67.72,1.12,0,1.01-.9,1.5-1.83,1.5-.4,0-.83-.11-1.1-.29-.13-.09-.22-.21-.22-.37,0-.21.12-.44.27-.55.3.18.74.37,1.15.37.37,0,.58-.17.58-.43,0-.18-.1-.32-.4-.47-.26-.14-.52-.27-.78-.41-.42-.24-.71-.62-.71-1.17,0-.91.79-1.43,1.67-1.43h0Z"/>
    </g>
    <g>
      <path class="cls-3" d="M36.14,17.09c0,.69.03,5.08.03,5.92,0,.21-.08.24-.24.27-.24.02-.57.04-.72.04,0-.55.01-2.7.01-5.34-.36.15-1.17.39-1.6.51l-.03-.03.24-.59c.85-.28,1.82-.64,2.25-.84l.06.06Z"/>
      <path class="cls-3" d="M41.02,17.09c0,.69.03,5.08.03,5.92,0,.21-.08.24-.24.27-.24.02-.57.04-.72.04,0-.55.01-2.7.01-5.34-.36.15-1.17.39-1.6.51l-.03-.03.24-.59c.85-.28,1.82-.64,2.25-.84l.06.06Z"/>
      <path class="cls-3" d="M43.1,22.71c1.81-1.85,2.47-2.9,2.47-3.78,0-.78-.41-1.17-1.06-1.17-.51,0-.98.34-1.19.52-.17.13-.29.13-.38-.04-.05-.08-.07-.2-.07-.29.46-.58,1.2-.92,1.9-.92,1.1,0,1.75.71,1.75,1.8,0,.55-.2,1-.54,1.53-.34.54-1.12,1.42-1.89,2.21.77.05,1.94.04,2.86,0-.04.25-.29.53-.42.59-.11.07-.51.13-1.07.13-1.05,0-1.99,0-2.51-.1l-.03-.08.19-.4Z"/>
    </g>
    <g>
      <path class="cls-3" d="M50.47,19.14l-.43-.54c.91-.68,1.52-1.61,1.84-2.78l.68.13c-.1.34-.22.66-.34.96h5.59v.63h-2.83v1.44h2.51v.62h-2.51v1.94h3.11v.63h-3.11v2.01h-.66v-2.01h-4.16v-.63h1.49v-2.57h2.67v-1.44h-2.42c-.38.64-.85,1.17-1.42,1.6ZM54.31,21.54v-1.94h-2.03v1.94h2.03Z"/>
      <path class="cls-3" d="M61.06,19.51l-.46.46c-.36-.43-.86-.89-1.49-1.39l.46-.44c.59.45,1.09.91,1.49,1.37ZM61.28,20.78c-.45,1.16-.94,2.25-1.48,3.28l-.59-.26c.58-1.05,1.07-2.13,1.5-3.23l.57.22ZM61.4,17.38l-.46.47c-.38-.43-.89-.89-1.56-1.38l.46-.44c.61.45,1.13.9,1.56,1.35ZM64.68,15.91v2.4h2.04v5.05c0,.5-.29.75-.86.75h-1.06l-.17-.62c.37.02.71.04,1.04.04.29,0,.43-.13.43-.38v-1.33c-1.03.19-2.12.35-3.26.49l-.14-.6c1.19-.11,2.32-.26,3.4-.46v-2.34h-3.41v.92c.65.07,1.15.13,1.52.18.32.05.74.12,1.25.22l-.22.51c-.46-.1-.92-.18-1.37-.24-.39-.05-.78-.1-1.19-.14v.28c-.02,1.46-.32,2.65-.89,3.55l-.5-.45c.5-.8.76-1.82.77-3.06v-2.35h1.98v-2.4h.62ZM63.14,17.71l-.51.25c-.32-.58-.65-1.1-1-1.55l.53-.26c.34.48.67,1,.98,1.56ZM67.1,16.37c-.29.56-.65,1.1-1.1,1.62l-.5-.25c.45-.54.81-1.08,1.08-1.62l.52.25Z"/>
      <path class="cls-3" d="M71.26,23.37c-.68.33-1.66.6-2.93.81l-.28-.48c1.28-.19,2.25-.43,2.92-.72l.3.39ZM73.37,18.27h2.39c0,.57-.06.93-.19,1.08-.13.16-.43.24-.89.24-.17,0-.34,0-.5,0l-.11-.4c.2,0,.38.02.54.02.28,0,.45-.04.52-.11.05-.07.09-.19.09-.37h-1.85v.89h-.6v-.89h-1.54c-.13.21-.29.39-.5.55-.33.23-.81.41-1.43.56h5.79v3.12h-5.86v-3.11c-.22.04-.45.09-.68.13l-.28-.43c.96-.15,1.63-.35,2.01-.59.1-.07.19-.15.26-.22h-1.92l.31-1.41h1.93v-.51h-2.19v-.49h2.19v-.4h.6v.4h1.32v-.4h.6v.4h2.04v1.44h-2.04v.51ZM69.25,18.27h1.54c.03-.11.04-.21.05-.31v-.21h-1.45l-.14.51ZM74.47,20.73v-.47h-4.64v.47h4.64ZM74.47,21.6v-.44h-4.64v.44h4.64ZM74.47,22.01h-4.64v.48h4.64v-.48ZM71.45,17.96c0,.11-.03.21-.04.31h1.37v-.51h-1.32v.21ZM71.45,17.31h1.32v-.51h-1.32v.51ZM76.18,23.7l-.2.5c-1.02-.34-2.08-.61-3.18-.8l.22-.41c1.1.16,2.15.41,3.16.71ZM73.37,17.31h1.49v-.51h-1.49v.51Z"/>
      <path class="cls-3" d="M81.4,22.16v.98c0,.59-.29.89-.86.89h-1.3l-.13-.61c.42.03.83.04,1.21.04.31,0,.46-.16.46-.48v-.83h-3.04v-.58h3.04v-.96h-3.69v-.59h3.69v-.93h-2.95v-.58h.79c-.2-.41-.42-.77-.66-1.09l.58-.19c.27.36.51.75.72,1.16l-.26.12h1.98c-.22-.45-.45-.86-.7-1.2l.58-.18c.27.35.5.73.7,1.13l-.54.24h2.12l-.48-.34c.38-.39.69-.86.96-1.4l.57.28c-.3.57-.63,1.05-1.01,1.46h.96v1.5h1.02v.59h-1.02v1.54h-2.75ZM84.53,16.47c-1.72.41-4.01.62-6.85.62l-.19-.55c2.71,0,4.95-.2,6.73-.59l.31.52ZM81.4,20.03h2.12v-.93h-2.12v.93ZM81.4,21.59h2.12v-.96h-2.12v.96Z"/>
      <path class="cls-3" d="M87.83,16.92l-.33.13h1.25v.59h-2.66v-.59h1.17c-.13-.36-.28-.69-.46-1.01l.61-.18c.18.4.32.75.41,1.06ZM86.9,24.14h-.59v-3.19h2.27v3.05h-.58v-.43h-1.09v.57ZM88.5,18.36v.57h-2.12v-.57h2.12ZM88.5,19.63v.58h-2.12v-.58h2.12ZM87.99,21.53h-1.09v1.45h1.09v-1.45ZM90.03,20.81v-.54c-.29.03-.59.05-.91.05l-.16-.45c.9,0,1.66-.12,2.26-.33l.23.41c-.25.11-.54.19-.85.24v.62h1.26c-.02-.38-.03-.79-.03-1.22h.56c0,.45,0,.86.03,1.22h1.58v.5h-1.55c.04.49.1.88.17,1.19.32-.29.6-.61.82-.95l.41.31c-.29.46-.62.86-1.02,1.18.17.34.37.51.58.53.15,0,.29-.32.41-.94l.44.31c-.14.46-.26.77-.39.95-.13.16-.29.24-.46.24-.41,0-.75-.26-1.04-.76-.36.22-.74.41-1.15.57l-.22-.51c.43-.15.81-.34,1.15-.56-.13-.4-.21-.91-.26-1.54h-1.3v.74c.34-.07.66-.14.93-.23v.5c-.26.08-.57.16-.93.23v.8c0,.47-.25.7-.76.7h-.72l-.12-.52c.22.02.43.04.65.04.25,0,.38-.12.38-.35v-.57c-.33.04-.68.09-1.06.13l-.08-.56c.41-.03.8-.06,1.14-.1v-.83h-1.11v-.5h1.11ZM90.27,16.68c-.12-.22-.25-.41-.41-.6l.57-.2c.17.22.32.5.47.8h1.14c.18-.27.34-.55.49-.85l.58.2c-.13.23-.26.45-.41.65h1.33v.5h-2.23v.52h1.86v.5h-1.86v.55h2.31v.5h-5.08v-.5h2.18v-.55h-1.84v-.5h1.84v-.52h-2.19v-.5h1.26ZM94.06,20.14l-.27.41c-.36-.25-.74-.44-1.12-.58l.28-.41c.41.16.77.35,1.11.58Z"/>
      <path class="cls-3" d="M98.81,21.25v-.7h.67v.7h3.51v.58h-3.51v2.33h-.67v-2.33h-3.54v-.58h3.54ZM97.93,22.5c-.59.56-1.33,1.05-2.21,1.49l-.39-.51c.85-.39,1.57-.84,2.16-1.35l.43.38ZM99.08,17.52c-.16.22-.31.41-.45.59h4.08v.52h-1.5c-.32.42-.66.76-1.03,1.04.79.21,1.6.45,2.43.72l-.38.5c-.9-.32-1.8-.61-2.71-.85-.94.45-2.18.68-3.72.7l-.35-.53c1.36,0,2.44-.13,3.23-.39-.63-.15-1.25-.29-1.86-.4.23-.27.46-.52.68-.77h-1.95v-.52h2.38c.2-.26.4-.52.58-.77l.58.18ZM102.74,17.88h-.61v-.72h-6.01v.72h-.61v-1.27h3.33c-.12-.23-.24-.44-.38-.64l.67-.11c.12.23.23.48.33.75h3.28v1.27ZM100.51,18.64h-2.3c-.16.18-.31.35-.44.5.55.1,1.11.22,1.68.35.43-.25.79-.53,1.06-.85ZM102.82,23.54l-.45.45c-.5-.47-1.17-.97-2.03-1.49l.4-.39c.83.49,1.52.96,2.08,1.43Z"/>
      <path class="cls-3" d="M106.59,16.12c-.23.71-.53,1.39-.89,2.03v6.01h-.64v-5.02c-.29.4-.6.77-.95,1.13l-.21-.69c.95-1.08,1.64-2.33,2.07-3.74l.61.28ZM108.13,16.52c-.07.45-.17.88-.3,1.28h1.32v-1.87h.65v1.87h2.07v.63h-2.07v2.17h2.4v.62h-2.4v2.9h-.65v-2.9h-2.65v-.62h2.65v-2.17h-1.53c-.22.59-.5,1.12-.84,1.59l-.41-.54c.55-.83.92-1.84,1.12-3.04l.64.08Z"/>
      <path class="cls-3" d="M114.83,18.37v-1.3c-.45.07-.91.13-1.38.16l-.21-.58c1.34-.11,2.46-.33,3.36-.68l.31.54c-.47.17-.95.31-1.45.42v1.42h1.54v.6h-1.54v.45c.52.46,1.04.98,1.58,1.58l-.38.56c-.47-.64-.86-1.15-1.2-1.53v4.06h-.63v-4c-.39.86-.9,1.63-1.54,2.32l-.27-.7c.84-.79,1.44-1.68,1.81-2.67v-.06h-1.58v-.6h1.58ZM120.81,23.79h-.63v-.71h-2.19v.8h-.62v-7.37h3.44v7.28ZM120.18,22.47v-5.36h-2.19v5.36h2.19Z"/>
      <path class="cls-3" d="M122.44,24.23l-.43-.41c.34-.67.52-1.52.53-2.55v-2.76s-.06.06-.09.1l-.4-.48c.53-.58.97-1.33,1.32-2.27l.59.14c-.07.2-.15.4-.23.58h1.6v.45c-.2.4-.4.75-.59,1.02h1.06v5.39c0,.43-.22.65-.67.65h-.62l-.14-.54c.21.02.41.04.58.04.2,0,.3-.12.3-.34v-1.24h-2.2c-.08.89-.29,1.64-.62,2.23ZM124.65,17.1h-1.17c-.18.34-.37.65-.57.94h1.16c.19-.27.38-.58.58-.94ZM123.1,21.24c0,.07,0,.14,0,.21h.82v-1.18h-.81v.97ZM123.91,18.6h-.81v1.12h.81v-1.12ZM125.26,18.6h-.83v1.12h.83v-1.12ZM124.43,21.44h.83v-1.18h-.83v1.18ZM126.41,21.55l-.38-.46c.4-.43.66-1,.8-1.72l.54.1c-.05.24-.11.47-.17.68h.83v-.84h.63v.84h1.34v.58h-1.34v1.1h1.54v.59h-1.54v1.76h-.63v-1.76h-1.96v-.59h1.96v-1.1h-1.06c-.16.31-.34.59-.56.82ZM126.14,17.01v-.58h3.75c0,1.22-.08,1.95-.24,2.2-.16.23-.43.36-.82.36-.22,0-.47-.02-.76-.04l-.15-.54c.31.02.57.04.77.04.25,0,.41-.09.47-.24.05-.15.09-.56.11-1.21h-1.32c-.09.41-.23.78-.41,1.1-.23.38-.58.73-1.03,1.04l-.39-.5c.41-.23.71-.51.91-.84.14-.23.23-.5.3-.8h-1.2Z"/>
      <path class="cls-3" d="M133.59,16.12c-.23.71-.53,1.39-.89,2.03v6.01h-.64v-5.02c-.29.4-.6.77-.95,1.13l-.21-.69c.95-1.08,1.64-2.33,2.07-3.74l.61.28ZM135.13,16.52c-.07.45-.17.88-.3,1.28h1.32v-1.87h.65v1.87h2.07v.63h-2.07v2.17h2.4v.62h-2.4v2.9h-.65v-2.9h-2.65v-.62h2.65v-2.17h-1.53c-.22.59-.5,1.12-.84,1.59l-.41-.54c.55-.83.92-1.84,1.12-3.04l.64.08Z"/>
      <path class="cls-3" d="M141.95,16.38v-.5h.59v.5h1.44v1.01h.41v.54h-.41v1.01h-1.44v.47h1.57v1.47h-1.69c-.1.18-.19.34-.27.5h2v.41c-.27.44-.65.84-1.13,1.18.45.18.9.4,1.37.65l-.35.46c-.52-.29-1.04-.55-1.56-.77-.59.32-1.29.61-2.09.85l-.36-.47c.69-.18,1.3-.4,1.8-.64-.38-.14-.76-.27-1.12-.38.18-.27.35-.53.51-.79h-1.15v-.5h1.46c.09-.17.19-.33.28-.5h-1.4v-1.47h1.56v-.47h-1.43v-1.01h-.4v-.54h.4v-1.01h1.43ZM141.95,19.85h-1v.58h1v-.58ZM141.95,17.45v-.59h-.87v.59h.87ZM141.95,17.88h-.87v.6h.87v-.6ZM143.44,21.88h-1.58c-.13.2-.23.39-.34.55.3.08.6.18.91.31.42-.26.76-.55,1.02-.85ZM143.43,17.45v-.59h-.88v.59h.88ZM143.43,17.88h-.88v.6h.88v-.6ZM143.55,19.85h-1.01v.58h1.01v-.58ZM145.08,19.42c-.14.3-.29.57-.43.81l-.41-.5c.52-.96.88-2.26,1.07-3.9l.64.12c-.06.47-.14.92-.22,1.33h2.38v.62h-.61c-.04,1.62-.35,2.99-.92,4.09.43.65.99,1.21,1.68,1.67l-.39.51c-.67-.45-1.21-.98-1.64-1.59-.42.62-.91,1.15-1.5,1.58l-.35-.57c.61-.42,1.11-.95,1.5-1.59-.41-.76-.68-1.62-.8-2.58ZM145.09,19.37l.52-.16c.09.79.29,1.5.59,2.13.42-.96.66-2.11.69-3.45h-1.31c-.14.54-.31,1.04-.5,1.48Z"/>
    </g>
    <g>
      <path class="cls-3" d="M22.94,33.47c-.04.25-.14.45-.29.57-.2.14-.69.3-1.32.3-2.05,0-3.12-1.18-3.12-2.93,0-1.84,1.39-3.01,3.18-3.01.83,0,1.5.28,1.64.45-.02.33-.25.5-.45.44-.27-.14-.72-.27-1.23-.27-1.22,0-2.25.79-2.25,2.34,0,1.36.86,2.36,2.43,2.36.56,0,1.1-.17,1.36-.28l.04.04Z"/>
      <path class="cls-3" d="M25.56,30.13c1.26,0,1.96.87,1.96,2.05s-.78,2.13-2.01,2.13c-1.33,0-2-.97-2-2.05,0-1.2.83-2.13,2.03-2.13h0ZM25.49,30.66c-.59,0-1.13.54-1.13,1.5,0,1.08.55,1.62,1.23,1.62.54,0,1.09-.45,1.09-1.53,0-.77-.34-1.58-1.18-1.58h0Z"/>
      <path class="cls-3" d="M31.21,31.81c0-.69-.31-1.04-.84-1.04-.46,0-.82.29-1.03.53v2.7c0,.18-.04.21-.19.23-.21.04-.42.03-.63.04.02-.34.03-.87.03-1.67v-1.53c0-.34-.05-.49-.16-.58v-.04c.08-.14.36-.31.53-.31.29,0,.37.45.39.67.38-.37.88-.68,1.38-.68,1.06,0,1.34.82,1.34,1.67v1.24c0,.53.02.92.04,1.14-.19.03-.44.07-.7.07-.1,0-.15-.05-.15-.14v-2.31Z"/>
      <path class="cls-3" d="M34.38,30.13c.36,0,.73.11.95.32,0,.19-.11.45-.35.43-.17-.1-.43-.17-.64-.17-.34,0-.59.2-.59.49,0,.25.15.4.36.51.22.13.57.28.84.43.41.23.6.55.6.94,0,.87-.76,1.25-1.5,1.25-.41,0-.78-.12-.99-.27-.09-.06-.16-.16-.15-.28,0-.15.08-.29.18-.36.28.2.68.34,1.02.34.44,0,.67-.21.67-.53,0-.22-.14-.37-.44-.54-.25-.14-.49-.25-.71-.36-.39-.21-.63-.53-.63-.99,0-.75.65-1.19,1.38-1.19h0Z"/>
      <path class="cls-3" d="M36.42,31.3c0-.56-.02-.83-.04-1.03.15-.04.54-.09.7-.09.09,0,.13.05.13.56,0,.6,0,1.24,0,1.83,0,.93.48,1.06.89,1.06s.79-.27.94-.45v-2.64c0-.23.03-.26.15-.31.26-.03.47-.05.68-.05,0,.2-.03.84-.03,1.63v1.43c0,.44.13.53.37.57v.05c0,.18-.23.45-.43.45-.38,0-.6-.25-.65-.65-.28.3-.57.45-.76.53-.18.07-.37.12-.59.12-.93,0-1.37-.61-1.37-1.51v-1.51Z"/>
      <path class="cls-3" d="M42.03,34.01c0,.15-.05.19-.18.21-.22.04-.44.04-.64.04.02-.34.03-.87.03-1.67v-1.54c0-.3-.05-.49-.16-.56v-.04c.09-.13.37-.3.53-.3.29,0,.36.42.39.67.38-.34.89-.68,1.39-.68.61,0,.93.28,1.12.72.37-.36.91-.72,1.43-.72.96,0,1.31.74,1.31,1.6v1.32c0,.53,0,.92.03,1.14-.19.03-.45.07-.7.07-.09,0-.13-.05-.13-.15v-2.3c0-.69-.29-1.04-.83-1.04-.43,0-.75.27-.98.49v2.71c0,.17-.02.22-.18.24-.25.04-.45.04-.64.04.02-.34.03-.87.03-1.67v-.76c0-.69-.29-1.04-.82-1.04-.4,0-.75.28-.99.52v2.71Z"/>
      <path class="cls-3" d="M51.44,33.46c0,.3-.21.57-.37.65-.15.08-.53.2-.9.2-1.27,0-1.96-.75-1.96-2.03,0-1.13.69-2.15,1.9-2.15,1.05,0,1.5.78,1.52,1.52,0,.09,0,.21-.02.28-.03.15-.47.27-.79.33-.25.04-1.15.05-1.81.03.02.89.57,1.4,1.37,1.4.42,0,.87-.15,1.03-.25l.03.03ZM50,30.63c-.44,0-.89.41-.95,1.13.64.02,1.44,0,1.61,0,.11,0,.19-.08.19-.19,0-.54-.27-.94-.84-.94h0Z"/>
      <path class="cls-3" d="M52.29,30.46c.08-.14.37-.34.53-.34.25,0,.43.32.43.9.29-.59.68-.9,1.11-.9.2,0,.38.1.44.17,0,.11-.02.34-.11.47-.05.11-.16.19-.27.18-.13-.05-.23-.06-.33-.06-.2,0-.5.19-.69.63-.06.15-.1.28-.1.48v2c0,.14-.03.2-.16.22-.24.03-.45.04-.66.04.02-.34.03-.87.03-1.67v-1.52c0-.25-.04-.45-.21-.57v-.04Z"/>
      <path class="cls-3" d="M60.28,29.05c0-.48-.02-.7-.04-.88.17-.06.55-.13.7-.13.1,0,.14.04.14.59v4.62c0,.42.15.51.42.55v.03c-.04.22-.24.47-.44.47-.43,0-.61-.25-.68-.52-.36.3-.94.52-1.29.52-.97,0-1.76-.71-1.76-1.98s.98-2.21,2.26-2.21c.34,0,.6.09.7.13v-1.2ZM60.28,30.81c-.12-.07-.38-.14-.71-.14-.7,0-1.41.5-1.41,1.56,0,.87.54,1.42,1.27,1.42.28,0,.63-.12.84-.28v-2.57Z"/>
      <path class="cls-3" d="M62.83,28.23c.26,0,.43.19.43.45s-.17.47-.44.47c-.25,0-.45-.15-.45-.45,0-.33.26-.47.45-.47h0ZM63.22,33.98c0,.16-.05.21-.2.23-.13.03-.35.04-.63.05,0-.36.03-.89.03-1.43v-1.53c0-.55-.02-.83-.04-1.03.16-.05.56-.09.7-.09.1,0,.14.05.14.56v3.24Z"/>
      <path class="cls-3" d="M65.55,30.13c.36,0,.73.11.95.32,0,.19-.11.45-.35.43-.17-.1-.43-.17-.64-.17-.34,0-.59.2-.59.49,0,.25.15.4.36.51.22.13.57.28.84.43.41.23.6.55.6.94,0,.87-.76,1.25-1.5,1.25-.41,0-.78-.12-.99-.27-.09-.06-.16-.16-.15-.28,0-.15.08-.29.18-.36.28.2.68.34,1.02.34.44,0,.67-.21.67-.53,0-.22-.14-.37-.44-.54-.25-.14-.49-.25-.71-.36-.39-.21-.63-.53-.63-.99,0-.75.65-1.19,1.38-1.19h0Z"/>
      <path class="cls-3" d="M68.43,35.88c0,.15-.03.18-.18.22-.22.03-.42.04-.64.04.02-.26.03-.79.03-1.59v-3.54c0-.28-.06-.47-.15-.52v-.05c.1-.15.34-.31.54-.31.2,0,.35.25.37.58.54-.4,1-.59,1.4-.59.83,0,1.63.63,1.63,1.92,0,1.38-1.01,2.26-2.14,2.26-.34,0-.66-.1-.83-.22v1.79ZM68.43,33.56c.18.1.46.19.74.19.56,0,1.39-.38,1.39-1.6,0-.8-.45-1.35-1.1-1.35-.42,0-.87.27-1.04.43v2.33Z"/>
      <path class="cls-3" d="M72.38,31.3c0-.56-.02-.83-.04-1.03.15-.04.54-.09.7-.09.09,0,.13.05.13.56,0,.6,0,1.24,0,1.83,0,.93.48,1.06.89,1.06s.79-.27.94-.45v-2.64c0-.23.03-.26.15-.31.26-.03.47-.05.68-.05,0,.2-.03.84-.03,1.63v1.43c0,.44.13.53.37.57v.05c0,.18-.23.45-.43.45-.38,0-.6-.25-.65-.65-.28.3-.57.45-.76.53-.18.07-.37.12-.59.12-.93,0-1.37-.61-1.37-1.51v-1.51Z"/>
      <path class="cls-3" d="M79.39,33.53c.04.18,0,.41-.17.54-.18.15-.53.25-.85.25-.82,0-1.14-.51-1.14-1.2v-2.31c-.32,0-.44-.11-.44-.21.1-.18.67-.71.81-.83.12-.11.27-.2.48-.23-.02.28-.04.5-.04.7h1.44c-.09.47-.29.52-.45.53-.31.02-.35.03-1,.03-.05.91-.04,1.85,0,2.24.04.53.34.66.64.66.27,0,.54-.09.69-.19l.03.02Z"/>
      <path class="cls-3" d="M83.09,33.46c0,.3-.21.57-.37.65-.15.08-.53.2-.9.2-1.27,0-1.96-.75-1.96-2.03,0-1.13.69-2.15,1.9-2.15,1.05,0,1.5.78,1.52,1.52,0,.09,0,.21-.02.28-.03.15-.47.27-.79.33-.25.04-1.15.05-1.81.03.02.89.57,1.4,1.37,1.4.42,0,.87-.15,1.04-.25l.03.03ZM81.65,30.63c-.45,0-.89.41-.95,1.13.64.02,1.44,0,1.61,0,.11,0,.19-.08.19-.19,0-.54-.27-.94-.83-.94h0Z"/>
      <path class="cls-3" d="M89.27,33.53c-.02.21-.12.45-.25.55-.22.14-.59.23-.99.23-.94,0-2.06-.46-2.06-2.03,0-1.27.96-2.16,2.2-2.16.64,0,1.07.23,1.16.34,0,.25-.14.5-.4.44-.21-.09-.49-.17-.79-.17-.79,0-1.33.61-1.33,1.46,0,1.16.83,1.49,1.47,1.49.34,0,.73-.08.96-.18l.03.03Z"/>
      <path class="cls-3" d="M93.36,33.73c0,.39-.21.58-.61.58s-.59-.27-.65-.56c-.24.26-.66.56-1.15.56-.63,0-1.07-.48-1.07-1.04,0-.97,1.24-1.23,1.74-1.36.16-.04.35-.07.48-.09v-.24c0-.4-.24-.82-.78-.82-.31,0-.64.15-.88.31-.27.13-.41-.06-.44-.34.28-.26.89-.61,1.51-.61.93,0,1.37.66,1.37,1.53,0,.39-.03,1.23-.02,1.79,0,.17.12.28.3.28.05,0,.14,0,.19-.03l.02.03ZM90.66,33.17c0,.33.26.52.58.52.37,0,.64-.23.78-.43.05-.07.06-.15.06-.32v-.64c-.74.1-1.42.35-1.42.85h0Z"/>
      <path class="cls-3" d="M95.41,30.13c.36,0,.73.11.95.32,0,.19-.11.45-.35.43-.17-.1-.43-.17-.64-.17-.34,0-.59.2-.59.49,0,.25.15.4.36.51.22.13.57.28.84.43.41.23.6.55.6.94,0,.87-.76,1.25-1.5,1.25-.41,0-.78-.12-.99-.27-.09-.06-.16-.16-.15-.28,0-.15.08-.29.18-.36.28.2.68.34,1.02.34.44,0,.67-.21.67-.53,0-.22-.14-.37-.44-.54-.25-.14-.49-.25-.71-.36-.39-.21-.63-.53-.63-.99,0-.75.65-1.19,1.38-1.19h0Z"/>
      <path class="cls-3" d="M100.47,33.46c0,.3-.21.57-.37.65-.15.08-.53.2-.9.2-1.27,0-1.96-.75-1.96-2.03,0-1.13.69-2.15,1.9-2.15,1.05,0,1.5.78,1.52,1.52,0,.09,0,.21-.02.28-.03.15-.47.27-.79.33-.25.04-1.15.05-1.81.03.02.89.57,1.4,1.37,1.4.42,0,.87-.15,1.03-.25l.03.03ZM99.03,30.63c-.44,0-.89.41-.95,1.13.64.02,1.44,0,1.61,0,.11,0,.19-.08.19-.19,0-.54-.27-.94-.84-.94h0Z"/>
      <path class="cls-3" d="M102.71,30.13c.36,0,.73.11.95.32,0,.19-.11.45-.35.43-.17-.1-.43-.17-.64-.17-.34,0-.59.2-.59.49,0,.25.15.4.36.51.22.13.57.28.84.43.41.23.6.55.6.94,0,.87-.76,1.25-1.5,1.25-.41,0-.78-.12-.99-.27-.09-.06-.16-.16-.15-.28,0-.15.08-.29.18-.36.28.2.68.34,1.02.34.44,0,.67-.21.67-.53,0-.22-.14-.37-.44-.54-.25-.14-.49-.25-.71-.36-.39-.21-.63-.53-.63-.99,0-.75.65-1.19,1.38-1.19h0Z"/>
      <path class="cls-3" d="M106.71,30.46c.08-.14.37-.34.53-.34.25,0,.43.32.43.9.29-.59.68-.9,1.11-.9.2,0,.38.1.44.17,0,.11-.02.34-.11.47-.05.11-.16.19-.27.18-.13-.05-.23-.06-.33-.06-.2,0-.5.19-.69.63-.06.15-.1.28-.1.48v2c0,.14-.03.2-.16.22-.24.03-.45.04-.66.04.02-.34.03-.87.03-1.67v-1.52c0-.25-.04-.45-.21-.57v-.04Z"/>
      <path class="cls-3" d="M112.72,33.46c0,.3-.21.57-.37.65-.15.08-.53.2-.9.2-1.27,0-1.96-.75-1.96-2.03,0-1.13.69-2.15,1.9-2.15,1.05,0,1.5.78,1.52,1.52,0,.09,0,.21-.02.28-.03.15-.47.27-.79.33-.25.04-1.15.05-1.81.03.02.89.57,1.4,1.37,1.4.42,0,.87-.15,1.03-.25l.03.03ZM111.28,30.63c-.44,0-.89.41-.95,1.13.64.02,1.44,0,1.61,0,.11,0,.19-.08.19-.19,0-.54-.27-.94-.84-.94h0Z"/>
      <path class="cls-3" d="M114.96,30.13c.36,0,.73.11.95.32,0,.19-.11.45-.35.43-.17-.1-.43-.17-.64-.17-.34,0-.59.2-.59.49,0,.25.15.4.36.51.22.13.57.28.84.43.41.23.6.55.6.94,0,.87-.76,1.25-1.5,1.25-.41,0-.78-.12-.99-.27-.09-.06-.16-.16-.15-.28,0-.15.08-.29.18-.36.28.2.68.34,1.02.34.44,0,.67-.21.67-.53,0-.22-.14-.37-.44-.54-.25-.14-.49-.25-.71-.36-.39-.21-.63-.53-.63-.99,0-.75.65-1.19,1.38-1.19h0Z"/>
      <path class="cls-3" d="M118.82,30.13c1.26,0,1.96.87,1.96,2.05s-.78,2.13-2.01,2.13c-1.33,0-2-.97-2-2.05,0-1.2.83-2.13,2.03-2.13h0ZM118.75,30.66c-.59,0-1.13.54-1.13,1.5,0,1.08.55,1.62,1.23,1.62.54,0,1.09-.45,1.09-1.53,0-.77-.34-1.58-1.18-1.58h0Z"/>
      <path class="cls-3" d="M121.79,29.17c0-.54-.02-.82-.04-1,.19-.07.56-.13.7-.13.1,0,.14.04.14.59v4.37c0,.44.02.93.03,1.19-.16.04-.6.07-.71.07-.07,0-.12-.03-.12-.12v-4.97Z"/>
      <path class="cls-3" d="M124.04,30.13c.08,0,.15.06.2.19.18.48.71,1.91,1.06,2.96.31-.88.9-2.37,1.16-3.15.17,0,.36.04.54.13.13.06.1.2-.04.54-.35.87-.64,1.58-1.29,3.15-.07.16-.14.25-.25.28-.15.04-.35.08-.5.09-.2-.59-.47-1.26-1.02-2.68-.29-.74-.43-1.05-.55-1.31.15-.09.5-.2.67-.2h0Z"/>
      <path class="cls-3" d="M130.8,33.46c0,.3-.21.57-.37.65-.15.08-.53.2-.9.2-1.27,0-1.96-.75-1.96-2.03,0-1.13.69-2.15,1.9-2.15,1.05,0,1.5.78,1.52,1.52,0,.09,0,.21-.02.28-.03.15-.47.27-.79.33-.25.04-1.15.05-1.81.03.02.89.57,1.4,1.37,1.4.42,0,.87-.15,1.03-.25l.03.03ZM129.35,30.63c-.44,0-.89.41-.95,1.13.64.02,1.44,0,1.61,0,.11,0,.19-.08.19-.19,0-.54-.27-.94-.84-.94h0Z"/>
      <path class="cls-3" d="M134.59,29.05c0-.48-.02-.7-.04-.88.17-.06.55-.13.7-.13.1,0,.14.04.14.59v4.62c0,.42.15.51.42.55v.03c-.04.22-.24.47-.45.47-.43,0-.61-.25-.68-.52-.36.3-.93.52-1.29.52-.97,0-1.76-.71-1.76-1.98s.98-2.21,2.26-2.21c.35,0,.6.09.7.13v-1.2ZM134.59,30.81c-.12-.07-.38-.14-.71-.14-.7,0-1.41.5-1.41,1.56,0,.87.54,1.42,1.27,1.42.28,0,.63-.12.84-.28v-2.57Z"/>
      <path class="cls-3" d="M139.26,28.23c.26,0,.43.19.43.45s-.17.47-.45.47c-.25,0-.44-.15-.44-.45,0-.33.26-.47.45-.47h0ZM139.65,33.98c0,.16-.05.21-.2.23-.13.03-.35.04-.63.05,0-.36.03-.89.03-1.43v-1.53c0-.55-.02-.83-.04-1.03.16-.05.56-.09.7-.09.1,0,.14.05.14.56v3.24Z"/>
      <path class="cls-3" d="M143.64,31.81c0-.69-.31-1.04-.84-1.04-.46,0-.82.29-1.03.53v2.7c0,.18-.04.21-.19.23-.21.04-.42.03-.63.04.02-.34.03-.87.03-1.67v-1.53c0-.34-.05-.49-.16-.58v-.04c.08-.14.36-.31.53-.31.29,0,.37.45.39.67.38-.37.88-.68,1.38-.68,1.06,0,1.34.82,1.34,1.67v1.24c0,.53.02.92.04,1.14-.19.03-.44.07-.7.07-.1,0-.15-.05-.15-.14v-2.31Z"/>
      <path class="cls-3" d="M147.74,33.72c1.59-1.62,2.17-2.54,2.17-3.31,0-.68-.36-1.03-.93-1.03-.45,0-.86.3-1.04.45-.15.12-.25.12-.34-.04-.05-.07-.06-.17-.06-.25.41-.51,1.05-.81,1.67-.81.96,0,1.54.63,1.54,1.58,0,.48-.17.88-.47,1.34-.3.47-.98,1.24-1.66,1.94.67.05,1.71.04,2.51,0-.04.22-.25.46-.37.52-.1.06-.45.12-.94.12-.93,0-1.74,0-2.21-.09l-.03-.07.16-.35Z"/>
      <path class="cls-3" d="M153.69,28.74c1.58,0,1.79,1.72,1.79,2.77,0,1.91-.71,2.81-1.86,2.81-.92,0-1.84-.64-1.84-2.79,0-1.21.43-2.79,1.91-2.79h0ZM153.64,29.28c-.55,0-1.03.74-1.03,2.22,0,1.72.55,2.26,1.05,2.26.44,0,.98-.28.98-2.32,0-1.03-.19-2.16-1-2.16h0Z"/>
      <path class="cls-3" d="M156.31,33.72c1.59-1.62,2.17-2.54,2.17-3.31,0-.68-.36-1.03-.93-1.03-.45,0-.86.3-1.04.45-.15.12-.25.12-.34-.04-.05-.07-.06-.17-.06-.25.41-.51,1.05-.81,1.67-.81.96,0,1.54.63,1.54,1.58,0,.48-.17.88-.47,1.34-.3.47-.98,1.24-1.66,1.94.67.05,1.71.04,2.51,0-.04.22-.25.46-.37.52-.1.06-.45.12-.94.12-.93,0-1.74,0-2.21-.09l-.03-.07.16-.35Z"/>
      <path class="cls-3" d="M160.51,33.68c.25.1.74.23,1.12.23,1.07,0,1.4-.56,1.4-1.2s-.45-.96-1.3-.96c-.2,0-.37.03-.52.04l-.04-.04c.04-.15.15-.38.23-.46.73-.15,1.32-.49,1.32-1.16,0-.44-.31-.76-.82-.76-.35,0-.74.18-.94.35-.12.1-.23.12-.3,0-.06-.08-.07-.19-.06-.3.26-.35.91-.68,1.48-.68,1.18,0,1.48.83,1.48,1.23,0,.63-.39,1.02-.99,1.29.95.19,1.35.72,1.35,1.4,0,1.16-.95,1.83-2.21,1.83-.52,0-.91-.15-1.03-.25-.12-.12-.21-.34-.2-.52l.03-.03Z"/>
    </g>
    <g class="cls-5">
      <path class="cls-4" d="M65.24,69.44c0-1.02-.87-1.57-1.63-1.22-.33.16-.65.35-.96.55-.34.22-.43.58-.24.94.14.28.3.55.47.81.22.34.57.43.93.25.32-.16.63-.34.93-.54.34-.22.5-.56.51-.79M61.53,65.7s-.09,0-.14.02c-.59.32-1.19.61-1.75.97-.25.16-.27.49-.13.77.16.3.32.59.5.87.21.32.55.42.88.25.46-.25.92-.51,1.36-.8.41-.27.56-.81.4-1.29-.15-.46-.62-.79-1.13-.79M60.2,64.45c0-.86-.88-1.43-1.66-1.04-.46.23-.9.5-1.34.77-.37.23-.46.6-.25.99.13.25.27.49.42.73.25.4.59.5,1.01.27.43-.23.86-.48,1.28-.74.36-.22.54-.55.54-.98M57.62,60.2c-.07.02-.24.03-.39.11-.67.37-1.35.75-2.01,1.15-.32.19-.41.55-.24.88.15.31.33.61.52.9.19.29.55.39.86.22.69-.38,1.37-.76,2.03-1.17.43-.27.59-.82.43-1.31-.15-.46-.6-.78-1.2-.78M82.26,57.57v-9.45c-1.38.8-2.73,1.57-4.09,2.36,1.35,2.35,2.7,4.67,4.09,7.09M63.76,67.08c.27.02.52,0,.75.05,1.12.24,1.81,1.18,1.74,2.34,0,.12.04.31.12.36.55.34,1.12.67,1.69.98.37.2.73.09.96-.27.12-.19.22-.39.33-.59.34-.61.25-.92-.34-1.27-.36-.21-.72-.41-1.08-.63-.28-.17-.35-.44-.22-.69.14-.27.42-.34.72-.19.08.04.16.09.23.13.86.5,1.73,1,2.59,1.49.44.25.8.14,1.05-.28.11-.18.21-.37.31-.56.33-.6.24-.91-.35-1.25-.86-.5-1.73-1-2.59-1.5-.35-.21-.45-.47-.29-.75.16-.29.45-.34.81-.13.07.04.14.08.2.12,1.08.62,2.15,1.25,3.23,1.87.53.31.87.22,1.17-.31.1-.16.19-.33.29-.5.32-.56.23-.9-.33-1.22-1.09-.63-2.18-1.26-3.26-1.88-.5-.29-.63-.55-.44-.86.19-.31.45-.32.94-.04,1.24.72,2.49,1.44,3.73,2.15.48.28.85.17,1.12-.32.09-.16.17-.32.25-.47.36-.66.28-.93-.38-1.31-1.25-.72-2.51-1.44-3.76-2.17-.36-.21-.46-.49-.3-.77.16-.27.46-.31.82-.11.11.06.21.12.32.18,1.05.61,2.1,1.21,3.15,1.81.09.05.23.1.29.07.66-.36,1.32-.75,1.99-1.14-.24-.42-.47-.81-.69-1.2-.16-.3-.1-.59.14-.74.26-.16.55-.08.74.23.14.22.26.45.39.67.18.31.36.61.54.93.45-.26.86-.49,1.27-.74-1.47-2.55-2.92-5.06-4.38-7.59-.43.25-.85.49-1.27.73.09.16.15.28.21.39.65,1.13,1.3,2.25,1.95,3.38.21.36.16.66-.11.82-.28.17-.56.06-.77-.31-.52-.9-1.04-1.81-1.56-2.71-.13-.22-.26-.44-.4-.68-.82.47-1.61.94-2.41,1.38-1.13.63-2.27.63-3.39-.01-.74-.42-1.47-.86-2.22-1.27-.8-.45-1.6-.43-2.4.02-.9.52-1.81,1.04-2.71,1.56-.54.31-1.08.63-1.64.95.28.61.7,1.02,1.34,1.21.74.21,1.35-.06,1.97-.43.86-.52,1.23-.48,1.99.17.88.75,2.19.41,2.61-.67.03-.08.05-.18.09-.25.13-.24.33-.36.61-.28.26.08.41.34.35.61-.04.16-.1.32-.16.5.61.36,1.22.71,1.83,1.06.35.21.45.46.3.74-.16.3-.44.35-.81.15-.57-.33-1.14-.67-1.72-.99-.1-.05-.29-.06-.38,0-1.23.83-2.41.76-3.53-.22-.16-.14-.3-.15-.48-.04-.25.15-.5.3-.76.43-1.39.71-3.07.26-3.9-1.06-.17-.28-.36-.6-.36-.92,0-.3.21-.6.32-.88-1-.57-2.05-1.16-3.12-1.77-1.32,2.29-2.64,4.57-3.96,6.86.59.34,1.14.65,1.69.98.16.09.27.09.42,0,.59-.35,1.17-.7,1.78-1.02,1.31-.7,2.87.01,3.15,1.48.09.46-.02.96-.04,1.48.98.37,1.46,1.18,1.47,2.27,1.7.12,2.41.81,2.5,2.42M83.3,59.48c-.43.46-.69.47-1.15.02-.51.29-1.03.59-1.54.89-.23.14-.46.16-.7.03-.07-.04-.18-.05-.24-.02-.53.29-1.05.6-1.56.9.58,1.54-.24,3.22-1.61,3.52-.23.53-.42,1.01-.64,1.47-.39.83-1.01,1.31-1.87,1.22-.3.58-.54,1.14-.85,1.65-.46.76-1.41,1.01-2.21.62-.11-.05-.22-.11-.25-.13-.3.55-.55,1.11-.9,1.61-.49.71-1.44.87-2.23.43-.59-.33-1.17-.67-1.7-.97-.52.32-.99.63-1.49.91-.9.51-1.88.24-2.41-.65-.26-.44-.48-.9-.74-1.38-.17.02-.4.06-.64.07-.57.01-1.05-.22-1.35-.69-.34-.52-.6-1.08-.93-1.68h-.34c-.49,0-.93-.17-1.21-.55-.47-.65-.98-1.3-.94-2.17-1.18-.36-1.61-1.32-1.9-2.37-.04-.16-.03-.37.02-.53.09-.26,0-.38-.22-.49-.33-.17-.64-.37-.96-.55-.24-.14-.46-.34-.79-.16-.11.06-.33-.02-.47-.09-.78-.44-1.55-.89-2.33-1.34-.26-.15-.37-.36-.37-.66,0-3.64,0-7.28,0-10.92,0-.62.43-.87.96-.57.74.42,1.48.85,2.21,1.28.36.21.46.49.29.77-.16.27-.46.31-.83.1-.52-.3-1.05-.6-1.61-.92-.01.12-.03.2-.03.28,0,3.19,0,6.38,0,9.57,0,.19.06.3.23.39.55.3,1.09.62,1.67.96,1.46-2.53,2.91-5.04,4.38-7.59-.42-.24-.83-.48-1.26-.74-.07.12-.15.23-.21.34-.67,1.17-1.34,2.33-2.02,3.5-.19.32-.45.42-.72.29-.28-.14-.35-.46-.16-.81.52-.91,1.05-1.83,1.58-2.74.21-.36.41-.72.63-1.09-.1-.07-.2-.12-.28-.19-.22-.18-.26-.42-.12-.66.14-.24.38-.34.63-.2.96.54,1.91,1.09,2.85,1.65.12.07.24.24.25.37.02.25.16.34.34.44.71.4,1.42.82,2.13,1.22.16.09.32.17.48.24.61.28,1.18.33,1.79-.09.76-.52,1.6-.95,2.41-1.41,1.15-.65,2.3-.66,3.45-.01.73.41,1.46.84,2.19,1.25.78.45,1.58.46,2.37.02.74-.41,1.48-.85,2.21-1.28.08-.05.18-.16.18-.24.02-.31.2-.48.45-.62,2.35-1.35,4.7-2.71,7.05-4.07.45-.26.65-.21.99.24v12.33Z"/>
      <path class="cls-4" d="M61.62,47.27c.26.21.59.45.87.73.28.28.51.62.71.86.55-.55,1.11-1.12,1.62-1.62-.52-.52-1.08-1.09-1.58-1.59-.52.52-1.09,1.08-1.63,1.62M63.19,50.58c-.15-.11-.31-.19-.43-.32-.1-.1-.15-.25-.21-.38-.39-.89-1.03-1.53-1.92-1.94-.31-.14-.68-.25-.68-.7,0-.46.38-.57.7-.72.87-.41,1.5-1.04,1.9-1.92.14-.31.27-.68.7-.68s.56.36.7.68c.4.89,1.05,1.53,1.93,1.93.32.15.67.27.67.7,0,.41-.34.55-.65.68-.98.43-1.63,1.16-2.04,2.13-.12.27-.28.49-.66.53"/>
      <path class="cls-4" d="M71.21,48.62c-.28-.29-.69-.7-.96-.97-.3.3-.71.7-.98.97.29.29.7.7.97.98.28-.28.69-.69.97-.98M73.18,48.64c-.2.22-.31.44-.48.51-.91.39-1.55,1.04-1.95,1.94-.07.17-.32.3-.51.35-.25.06-.45-.11-.55-.35-.38-.92-1.03-1.55-1.94-1.95-.16-.07-.33-.34-.33-.51,0-.18.16-.45.33-.52.92-.4,1.57-1.05,1.97-1.97.07-.16.34-.32.52-.32s.44.16.51.33c.41.92,1.05,1.57,1.98,1.96.17.07.27.31.46.53"/>
      <path class="cls-2" d="M157.11.56H26.45C12.15.56.56,12.21.56,26.57v26.65c0,14.36,11.59,26.01,25.89,26.01h62.09l3.24,10.38,3.24-10.38h62.09c14.3,0,25.89-11.64,25.89-26.01v-26.65c0-14.36-11.59-26.01-25.89-26.01Z"/>
    </g>
  </g>
</svg>