<?xml version="1.0" encoding="UTF-8"?>
<svg id="_圖層_2" data-name="圖層_2" xmlns="http://www.w3.org/2000/svg" viewBox="0 0 188.08 111.92">
  <defs>
    <style>
      .cls-1 {
        fill: #e1c193;
      }

      .cls-2 {
        fill: #ef8568;
      }

      .cls-3 {
        fill: #f29986;
      }

      .cls-4 {
        fill: #fcf4f4;
      }

      .cls-5 {
        fill: #382323;
      }

      .cls-6 {
        fill: #ee785d;
      }

      .cls-7 {
        fill: #f0d1a9;
      }

      .cls-8 {
        fill: #e7603a;
      }

      .cls-9, .cls-10 {
        fill: #e24241;
      }

      .cls-11 {
        fill: #3e2727;
      }

      .cls-12 {
        fill: #442c2b;
      }

      .cls-13 {
        fill: #f7ebea;
      }

      .cls-14 {
        fill: #dccecd;
      }

      .cls-15 {
        fill: #cf3431;
      }

      .cls-16 {
        fill: #d8b27f;
      }

      .cls-17 {
        fill: #ebd0a3;
      }

      .cls-18 {
        fill: #c0adad;
      }

      .cls-19 {
        fill: #ed7474;
      }

      .cls-20 {
        fill: #fdedd3;
      }

      .cls-21 {
        fill: #fff;
      }

      .cls-22 {
        fill: #ecdbd9;
      }

      .cls-23 {
        fill: #f0dbb1;
      }

      .cls-24 {
        fill: #4b3231;
      }

      .cls-25 {
        fill: #ec6c6b;
      }

      .cls-25, .cls-10, .cls-26 {
        opacity: .5;
      }

      .cls-27 {
        fill: #d2c4c5;
      }

      .cls-28 {
        fill: #cbbbbb;
      }

      .cls-29 {
        fill: #dd4341;
      }

      .cls-30 {
        fill: #2d1b1b;
      }

      .cls-31 {
        fill: #583c3b;
      }

      .cls-32 {
        fill: #f5b5a2;
      }

      .cls-33 {
        fill: #c0b0af;
      }

      .cls-34 {
        fill: #ed724b;
      }

      .cls-35 {
        fill: #ea5553;
      }

      .cls-36 {
        fill: #b8a3a2;
      }

      .cls-26 {
        fill: #654545;
      }

      .cls-37 {
        fill: #5d3f3f;
      }

      .cls-38 {
        fill: #f8c5b4;
      }
    </style>
  </defs>
  <g id="_圖層_1-2" data-name="圖層_1">
    <g>
      <g>
        <g>
          <path class="cls-28" d="M79.77,57.36c-1.71-1.16-3.52-2.2-5.23-3.29-1-.63-2.06-1.57-3.18-1.95-.45-.15-1-.15-1.27.32-.33.56.06.87.5,1.13,1.22.7,2.46,1.37,3.69,2.07,1.83,1.05,3.64,2.15,5.43,3.27l.07-1.55Z"/>
          <path class="cls-28" d="M68.69,53.64c-.25-.48-.79-.52-1.25-.4-1.14.31-2.26,1.18-3.3,1.75-2.25,1.23-4.65,2.38-6.81,3.8l-.02,1.44c2.31-1.27,4.64-2.5,7-3.67,1.26-.63,2.54-1.21,3.81-1.84.46-.23.87-.52.57-1.09Z"/>
          <path class="cls-22" d="M70.62,41.47c0-1.91.38-9.89.67-11.93.27-1.91.63-3.78.97-5.67.2-1.15,1.66-7.06-.17-6.15-.7.35-1.12,1.51-1.4,2.59-.41,1.62-.68,3.39-.89,5.11-.47,3.77-.79,11.89-.45,15.72-.01.34,1.27.34,1.27.32Z"/>
          <path class="cls-13" d="M80.91,35.8c.2-1.44.54-2.86.83-4.29.34-1.68.74-3.29,1.4-4.88.1-.23.21-.46.32-.68-.62-.43-5.58-3.48-7.74-4.6-2.81-1.45-3.47-1.79-3.7-1.33-1.29,2.52-2.01,6.73-2.06,9.55,0,.3,0,.76,1.59,1.55,3.17,1.57,8.73,5.18,9.29,5.4.02-.14.06-.58.08-.72Z"/>
          <path class="cls-29" d="M82.71,26.62c-.1-.91-10.77-6.77-11.63-6.62-1.41.24-2.97,7.17-1.56,8.65,1.32,1.38,9.15,5.92,11.18,6.67.15.06.33-.06.37-.21.39-1.53.74-3.07,1.04-4.63.23-1.17.74-2.67.6-3.86Z"/>
          <path class="cls-15" d="M81.51,25.7c-1.01-.98-1.98,2.58-2.1,3.08-.38,1.66-1.31,5.21.61,6.37.37.22.65.2.9-.18.31-.49.28-1.35.37-1.91.12-.77.25-1.55.37-2.32.2-1.27.65-2.7.62-3.98-.01-.55-.29-.97-.77-1.04Z"/>
          <path class="cls-22" d="M79.75,47.79h1.26s.16-.62.16-.64c.01-1.68.72-9.3,1.01-11.33.27-1.91.63-3.79.97-5.67.2-1.15,1.66-7.06-.17-6.15-.7.35-1.12,1.51-1.4,2.59-.41,1.62-.68,3.39-.89,5.11-.47,3.77-1.26,10.92-.92,14.74-.01.34-.03,1.09-.02,1.34Z"/>
          <path class="cls-22" d="M81.57,57.59c-.13-3.73-.42-7.42-.87-11.06-.02-.15-.13-.21-.21-.15-.29.21-.58.42-.87.63-.04.03-.06.07-.07.11-.04-.14-.18-.13-.19.05-.27,3.88-.32,7.8-.45,11.69-.06,1.77-.74,4.66,1.58,4.64,1.74-.02,1.15-4.2,1.09-5.91Z"/>
          <path class="cls-22" d="M55.97,58.77c.13-3.73.42-7.42.87-11.06.02-.15.13-.21.21-.15.29.21.58.42.87.63.04.03.06.07.07.11.04-.14.18-.13.19.05.27,3.88.32,7.8.45,11.69.06,1.77.74,4.66-1.58,4.64-1.74-.02-1.15-4.2-1.09-5.91Z"/>
          <path class="cls-28" d="M80.14,59.23c-.25-.48-.79-.52-1.25-.4-1.14.31-2.26,1.18-3.3,1.75-2.25,1.23-4.65,2.38-6.81,3.8l-.02,1.44c2.31-1.27,4.64-2.5,7-3.67,1.26-.63,2.54-1.21,3.81-1.84.46-.23.87-.52.57-1.09Z"/>
          <path class="cls-28" d="M67.23,64.19c-1.71-1.16-3.52-2.2-5.23-3.29-1-.63-2.06-1.57-3.18-1.95-.45-.15-1-.15-1.27.32-.33.56.06.87.5,1.13,1.22.7,2.46,1.37,3.69,2.07,1.83,1.05,3.64,2.15,5.43,3.27l.07-1.55Z"/>
          <path class="cls-22" d="M68.78,54.15l-1.48-1.23c-.26,3.87-.64,9.16-.77,13.04-.06,1.77-.74,4.66,1.58,4.64,1.74-.02,1.15-4.2,1.09-5.91-.13-3.5-.02-7.11-.42-10.54Z"/>
          <g>
            <path class="cls-28" d="M81.29,46.24h-1.27l-8.08-4.66c-1.08-.62-2.98-.54-4.22.18l-9.42,5.41-1.78.17v1.5c0,.06.01.12.01.18v.15s0,0,0,0c.06.33.3.63.71.87l8.63,4.98c1.08.62,2.98.54,4.22-.18l10.17-5.84c.73-.42,1.06-.97,1.01-1.47h.02s-.04-1.12,0-1.28Z"/>
            <path class="cls-13" d="M65.87,53.37l-8.63-4.98c-1.08-.62-.94-1.72.3-2.44l10.17-5.8c1.25-.72,3.15-.8,4.22-.17l8.63,4.98c1.08.62.94,1.72-.3,2.44l-10.17,5.79c-1.25.72-3.15.8-4.22.18Z"/>
          </g>
          <g>
            <path class="cls-29" d="M62.76,48.9c2,1.08,4.29,2.84,6.66,2.08,2.08-.67,4.07-2.14,5.91-3.28,1.28-.79,2.5-1.6,3.45-2.69-.64-.91-1.81-1.69-2.52-2.19-1.98-1.41-7.2-4.01-7.9-3.95-.31.03-.63.09-.96.17-1.29.33-2.63,1.04-3.76,1.55-1.65.74-3.24,1.64-4.63,2.8-.45.37-1.02.8-1.34,1.31.08,2.16,3.48,3.35,5.08,4.22Z"/>
            <path class="cls-15" d="M57.73,47.63c1.25.92,3.53,1.87,4.66,2.56,1.2.73,3.6,2.42,4.91,2.73.83.19,2.32-.2,3.33-.71,1.5-.77,2.95-1.67,4.41-2.52,1.19-.69,2.9-1.3,3.78-2.4.64-.8.47-1.59-.03-2.3-.95,1.09-2.18,1.9-3.45,2.69-1.84,1.14-3.83,2.62-5.91,3.28-2.38.76-4.66-.99-6.66-2.08-1.6-.87-5-2.06-5.08-4.22-.04.06-.07.12-.1.18-.3.66-.5,2.29.15,2.77Z"/>
          </g>
          <path class="cls-35" d="M68.03,45.65c-.3-1.19.19-2.13.34-3.26.47-3.44-5.64-.42-6.28.09-.72.57-2.42,1.7-2.37,2.79.06,1.15,2.02,2.02,2.86,2.45,1.27.66,3.12,1.67,4.58,1.66.88-.01,1.65-.83,1.62-1.83-.02-.69-.59-1.24-.75-1.9Z"/>
          <path class="cls-35" d="M74.18,21.77c-1.12-.66-2.84-1.66-3.44-1.26-.49.33.55.79,1.03,1.11.91.61,1.87,1.16,2.84,1.67,1.77.93,3.19,1.65,5.06,2.35.57.21.95-.21.44-.53-1.38-.85-4.14-2.29-5.93-3.34Z"/>
        </g>
        <g>
          <path class="cls-35" d="M51.72,61.16c-.65.71-1.37,1.51-2.04,2.21-.9.95-1.96,1.95-2.93,2.82-1.19,1.06-1.28,2.35.67,2.24,3.16-.18,3.9-1.5,5.36-2.62.2-.16.54.22,1.34-.1,1.01-.41,1.14-.57,1.14-1.58,0-.64-.11-1.96-.4-2.63.01-.01.02-.02.03-.03.16-.18-2.31-1.26-3.17-.31Z"/>
          <path class="cls-35" d="M57.81,67.98c-.65.71-1.37,1.51-2.04,2.21-.9.95-1.96,1.95-2.93,2.82-1.19,1.06-1.28,2.35.67,2.24,3.16-.18,3.9-1.5,5.36-2.62.2-.16.54.22,1.34-.1,1.01-.41,1.14-.57,1.14-1.58,0-.64-.11-1.96-.4-2.63.01-.01.02-.02.03-.03.16-.18-2.31-1.26-3.17-.31Z"/>
          <path class="cls-5" d="M71.07,37.47c-.26-.55-6.32-2.57-6.16-2.5-4.85,1.83-10.74,3.86-14.81,7.36-.75.12-1.51.37-1.47,1.76.03,1.07.66,2.93.83,4.01.62,3.77,1.4,9.87,1.7,13.68.64,1.14,2.53,1.14,3.74.28.37-2.73.5-6.39.97-8.57.61-2.88-.39-4.29-1.28-5.83,2.38.09,7.55-2.59,9.86-3.24,2.8-.78,3.58-.81,5.66-2.94,1.43-1.46,1.93-1.96.96-4.01Z"/>
          <path class="cls-12" d="M70.84,37.86c-1.5.04-3.16.14-4.63-.3-.15.21-.3.42-.42.66-.54,1.09-1.03,1.91-.62,3.16-.73,1.03-4.01,5.07-4.6,6.3-.76.75-1.16,1.18-1.07,2.91.11,1.96-.03,2.86-.25,5.05-.43,4.2-1.17,7.75-1.48,11.96.98,1.5,2.29,1.57,3.58.38,1.26-3.91,3.72-6.63,3.98-10.05.17-2.26.21-3.97-.8-5.41,4.15-2.28,9.47-3.56,11.76-7.9,1.48-2.81.76-4.9-.76-7.78-1.39.85-2.99.97-4.69,1.01Z"/>
          <path class="cls-22" d="M65.35,14.46c1.96-.82,4.3.24,4.21.14-.06-.07,2.72,1.54,2.73,1.55,1.99.74,4.02,1.28,5.19,3.95.57,1.3-1.48,4.08-2.33,7.85-.38,1.69-.42,4.11.2,5.24.44.79,1.4,1.97-1.43,2.86-.82.26-4.65,1.74-6.89,1.32-1.03-.19-6-2.94-4.48-4,.4-.28.73-.83.44-1.34-.24-.43-.68-1.2-.49-2.05.45-2.08.08-2.9-.22-4.52-1.44-1.5-.17-3.77.71-6.2.6-1.64.35-3.96,2.36-4.8Z"/>
          <path class="cls-32" d="M65.82,14.02s0-.06,0-.09c1.16.18,2.7-.49,3.71-1.19.54,1.32.67,1.82,1.49,3.16-.44.02-1.3,1.23-2.02,2.49-.3.54-1.62,1.93-2.45,1.61-1.28-.5-.64-1.52-.68-2.95-.03-1.01-.05-2.02-.05-3.02Z"/>
          <path class="cls-35" d="M64.9,24.43c.22-1.16.55-2.24.78-2.93h0c.05-.15-.39-1.49-.39-1.49l1.26-.5.73.88s-.42.98-.9,1.24h0c.03,1.28.07,3.63.1,5.76.04,3.4,0,5.85,0,5.85,0,0-.8,1.13-1.61,1.67-.56-1.01-.78-2.3-.78-2.3,0,0,.45-6.24.81-8.19Z"/>
          <path class="cls-21" d="M72,15.92s-2.1.91-2.98,1.63c-1.18.98-1.74,1.24-2.33,1.8-.06-.14-.21-2.79-.21-2.79,0,0-.98.12-.97.14,0,.02-.56.54-.78,1.59-.22,1.05.17,2.33.17,2.33l1.63-1,1.12,1.99s2.18-1.87,3.18-3.01c.99-1.14,1.18-2.7,1.18-2.7Z"/>
          <path class="cls-24" d="M65.68,14.45s-1.9-.12-2.8,1.95-1.59,4.76-1.62,7.96c-.02,2.33.49,5.38.1,7.05-.34,1.43-2.23,6.69-2.23,6.69,0,0,.14,2.16.84,3.01.9,1.1,1.88,1.01,1.88,1.01,0,0,1.17-6.52,1.29-7.55.12-1.03.5-6.46.4-8.07-.11-1.61.82-6.98,1.18-8.18s2.56-3.64,2.56-3.64l-1.6-.22Z"/>
          <path class="cls-31" d="M66.06,16.15s-.65.83-1.16,2.07c-.52,1.25-.68,3.99-.83,5.59-.15,1.6-.49,3.21-.49,3.21,0,0-.6-1.74-.72-2.92-.11-1.18-.26-2.09-.26-2.09l.83-.65-.76-1.85s2.02-4.4,2.87-4.65c.85-.26.53,1.29.53,1.29Z"/>
          <path class="cls-24" d="M71.11,15.38s-2.4,3.16-3.11,7.54c-.71,4.37-.26,8.88,0,12,.33,3.94.62,9.55.62,9.55,0,0,3.92.65,6.11.18,2.35-.5,3.17-2.8,3.17-2.8,0,0,0-4.79-1.99-10.61-.65-1.91-.24-6.06.54-8.44.46-1.42-.21-4.25-1.4-5.54-.81-.88-2.8-1.26-3.94-1.88Z"/>
          <path class="cls-31" d="M70.37,14.75s1.37.09,1.89,1.13c-.24.54-.82,1.26-1.08,2.61-.26,1.35-.17,2.85-.17,2.85l-1.55.69.91,1.6-2.69,3.47s-.4-4.58.66-7.89c1.06-3.31,2.02-4.47,2.02-4.47Z"/>
          <path class="cls-38" d="M63.46,9.11c1.07-1.31,3.41-1.61,4.89-.72.35.11.68.26.95.5.96.86.86,2.39.57,3.52-.43,1.71-2.86,5.63-5.11,4.16-1.19-.78-1.97-2.72-2.16-4.07-.17-1.21.09-2.43.87-3.39Z"/>
          <path class="cls-5" d="M61.91,6.59c.75-1.01,2.66-2.21,3.92-1.51.43.24.68.74.65,1.18,1.22-.22,3.41.57,3.95,1.61.92,1.78.28,4.82-.53,5.73-.85-.74-2.16-2.31-2.5-3.81-1.4.67-3.31.74-4.68-.05-1.15-.66-1.64-2.04-.81-3.16Z"/>
          <path class="cls-38" d="M67.8,11.57s.68-1.13,1.31-.3c.95,1.25-.44,1.87-.44,1.87l-.87-1.56Z"/>
        </g>
        <g>
          <g>
            <path class="cls-35" d="M58.5,86.43c6.95,3.54,12.57,3.73,17.8-.91,4.95-4.4,4.51-10.66,4.24-16.66-3.97,3.14-8.57,6.38-13.9,5.09-2.56-.62-5-1.94-7.33-3.14-2.54-1.31-5.03-2.73-7.48-4.2-5.15-3.1-10.2-6.37-15.28-9.58-4.43-2.8-21.32-13.9-27.23-17.87v19.77c4.32,2.71,10.29,5.67,15.06,8.51,5.25,3.13,28.26,16.01,34.11,18.99Z"/>
            <path class="cls-29" d="M9.34,59.36c.03,1.26.95,2.58,2.73,3.61l50.16,28.98c3.31,1.91,8.37,2.12,11.24.47l13.12-7.52c1.31-.76,1.94-1.78,1.93-2.84h0v-24.18L9.33,35.18v3.97c5.91,3.97,22.8,15.07,27.23,17.87,5.08,3.21,10.13,6.48,15.28,9.58,2.45,1.47,4.93,2.89,7.48,4.2,2.33,1.2,4.77,2.52,7.33,3.14,5.33,1.29,9.92-1.96,13.9-5.09.26,6,.7,12.26-4.24,16.66-5.23,4.64-10.85,4.45-17.8.91-5.85-2.98-28.86-15.86-34.11-18.99-4.78-2.85-10.74-5.81-15.06-8.51v.44h0Z"/>
          </g>
          <path class="cls-28" d="M89.4,58.74s.04-.05.05-.08c2.33-3.96.27-9.06.27-9.06l-3.3,3.39-50.28-29.03c-3.64-2.1-9.2-2.33-12.36-.51l-11.93,6.89-3.66-3.76s-1.66,4.95,0,8.78c0,.02.02.03.02.04.36,1.09,1.31,2.16,2.84,3.04l50.66,29.25c3.64,2.1,9.2,2.33,12.36.51l13.61-7.86c.71-.41,1.23-.89,1.58-1.42.01-.02.02-.03.04-.05.03-.05.06-.09.09-.14Z"/>
          <path class="cls-22" d="M86.8,46.28l-50.66-29.25c-3.64-2.1-9.2-2.33-12.36-.51l-13.61,7.86c-3.15,1.82-2.76,5.03.89,7.14l50.66,29.25c3.64,2.1,9.2,2.33,12.36.51l13.61-7.86c3.15-1.82,2.76-5.03-.89-7.14Z"/>
          <g>
            <path class="cls-15" d="M59.28,67.71c-.73-.17-1.62-.39-2.37-.34-.2.01-.24.28-.05.34.72.25,1.62.26,2.37.28.16,0,.2-.25.04-.28Z"/>
            <path class="cls-19" d="M70.48,76.35c-.32-1.13-1.79-.9-1.91.02-.37,2.73-.04,6.91.3,9.63.06.51,1.02.31,1.07-.04.23-1.6.88-8.44.54-9.61Z"/>
            <path class="cls-19" d="M12.34,44.84c-.03-.75-.07-1.61-.91-1.84-.2-.06-.4.1-.41.31-.04,2.04-.04,4.47.15,6.5.06.62.62.53.71.31.54-1.36.53-3.83.46-5.28Z"/>
            <path class="cls-15" d="M86.5,80.68c-.21.52-.42,1.04-.66,1.55-.19.42-.43.83-.5,1.29-.02.14.13.25.25.14.73-.67,1.03-1.96,1.25-2.89.05-.22-.25-.29-.33-.09Z"/>
            <path class="cls-15" d="M84.58,84.22c-.2-.49-.74-.84-1.17-1.12-.13-.09-.24.1-.16.2.31.39.7.9,1.19,1.05.07.02.16-.06.13-.13Z"/>
            <path class="cls-15" d="M85.96,71.66c.33-.41.39-1.05.43-1.56.01-.16-.2-.16-.25-.04-.2.46-.46,1.04-.36,1.55.01.07.13.12.18.05Z"/>
            <path class="cls-15" d="M86.06,62.67c-.49.4-1,.75-1.54,1.08-.45.27-.94.48-1.35.8-.15.12.02.34.18.3,1.09-.27,2.14-1.2,2.96-1.94.17-.15-.08-.38-.25-.25Z"/>
            <path class="cls-15" d="M81.37,65.71c-.22-.12-.4.19-.19.33.35.24.58.59.91.84.11.09.27,0,.24-.14-.1-.5-.53-.81-.96-1.04Z"/>
            <path class="cls-15" d="M69.01,91.85c-.28-.24-.62-.38-.94-.55-.35-.19-.67-.42-1-.65-.1-.07-.23.07-.16.16.43.6,1.25,1.28,2.03,1.21.08,0,.15-.12.08-.18Z"/>
            <path class="cls-15" d="M48.06,61.95c-.28-.24-.62-.38-.94-.55-.35-.19-.67-.42-1-.65-.1-.07-.23.07-.16.16.42.6,1.25,1.28,2.03,1.21.08,0,.15-.12.08-.18Z"/>
            <path class="cls-15" d="M70.32,89.8c-.04-.06-.13-.08-.18-.02-.19.2-.21.49-.25.76-.04.28-.09.51.06.76.05.08.17.1.23.03.19-.22.2-.45.22-.73.02-.27.06-.56-.08-.8Z"/>
            <path class="cls-15" d="M86.55,74.6c-.04-.06-.13-.08-.18-.02-.19.2-.21.49-.25.76-.04.28-.09.51.06.76.04.08.17.1.23.03.19-.22.2-.45.22-.73.02-.27.06-.56-.08-.8Z"/>
            <path class="cls-15" d="M74.07,89.88c-.26,0-.52.06-.77.1-.31.04-.62.07-.94.08-.13,0-.18.22-.03.25.57.1,1.3.16,1.83-.1.17-.08.08-.33-.09-.33Z"/>
            <path class="cls-15" d="M86.17,73.27c-.21-.15-.47-.23-.7-.33-.28-.13-.56-.28-.83-.44-.12-.07-.27.09-.16.19.43.39,1,.84,1.59.91.19.02.24-.24.1-.33Z"/>
            <path class="cls-15" d="M71.32,70.07c-.6.25-1.14.59-1.79.76-.57.14-1.2.07-1.73.31-.1.04-.09.2,0,.25,1,.54,2.95-.31,3.64-1.1.07-.09,0-.27-.12-.21Z"/>
            <path class="cls-15" d="M65.51,70.87c-.14-.26-.46-.35-.69-.51-.28-.21-.46-.5-.72-.72-.08-.07-.23-.03-.22.09.05.58.96,1.6,1.59,1.33.07-.03.08-.13.05-.19Z"/>
            <path class="cls-15" d="M11.31,60.15c-.21-.52-.32-1.07-.51-1.59-.06-.16-.29-.14-.3.04-.04.58.13,1.18.34,1.72.18.45.36.95.8,1.21.07.04.18,0,.17-.1-.04-.47-.33-.85-.5-1.27Z"/>
            <path class="cls-15" d="M13.56,60.45c-.18.17-.3.39-.43.6-.13.21-.28.42-.31.67-.03.19.17.33.33.19.19-.17.29-.4.4-.62.11-.22.23-.45.28-.68.03-.15-.15-.27-.27-.16Z"/>
            <path class="cls-15" d="M62.31,86.71c-.42.18-.8.42-1.23.58-.36.14-.73.22-1.05.44-.07.05-.08.19.03.21.81.15,1.87-.45,2.4-1.03.1-.11-.03-.26-.16-.2Z"/>
            <path class="cls-15" d="M46.54,80.51c-.26-.37-.56-.71-.8-1.1-.2-.33-.35-.68-.63-.95-.06-.06-.2-.04-.2.07,0,.82.79,1.76,1.46,2.17.13.08.25-.07.17-.19Z"/>
            <path class="cls-15" d="M57.78,86.95c-.47-.25-.97-.39-1.44-.64-.46-.25-.89-.56-1.34-.84-.09-.06-.21.06-.15.15.58.86,1.79,1.63,2.84,1.62.15,0,.22-.22.08-.3Z"/>
            <path class="cls-15" d="M39.93,76.89c-.47-.25-.97-.39-1.44-.64-.46-.25-.89-.56-1.34-.84-.09-.06-.21.06-.15.15.58.86,1.79,1.63,2.84,1.62.15,0,.22-.22.08-.3Z"/>
          </g>
        </g>
        <g>
          <polygon class="cls-4" points="65.35 56.42 59.26 49.22 75.94 43.67 82.03 50.88 65.35 56.42"/>
          <polygon class="cls-21" points="64.9 59.82 58.81 52.62 75.49 47.07 81.58 54.28 64.9 59.82"/>
        </g>
        <g>
          <path class="cls-38" d="M52.28,26.66s-1.77-.16-2.99-.11c-1.22.06-1.66.14-2.06.24-.39.1-.52.59.03.68.87.14,1.05.04,1.37.33.2.19-.64.51-1.58.81-.94.29-2.12.42-2.46.64-.34.22.28,1.49,2.11,1.56,1.83.07,3.35-.41,4.08-.88.91-.59,2.74-1.29,2.74-1.29l-1.23-1.97Z"/>
          <path class="cls-12" d="M50.92,26.57c1.32-1.45,5.03-3.18,6.05-3.43,0,0,1.24-1.9,1.78-3.01.42-.85.9-3.14,1.75-4.54.69-1.13,1.42-1.66,2.33-2.02.08.42.63,1.53,1.01,2.1-.4.24-1.23,1.9-1.96,4.39-.6,2.07-.58,4.56-.57,5.92-.17.34-.67.77-2.06,1.27-.53.19-5.06,2.34-7.41,2.62-.08-.46-.76-2.22-.92-3.3Z"/>
        </g>
        <g>
          <path class="cls-28" d="M8.62,72.58c1.71-1.16,3.52-2.2,5.23-3.29,1-.63,2.06-1.57,3.18-1.95.45-.15,1-.15,1.27.32.33.56-.06.87-.5,1.13-1.22.7-2.46,1.37-3.69,2.07-1.83,1.05-3.64,2.15-5.43,3.27l-.07-1.55Z"/>
          <path class="cls-28" d="M19.7,68.87c.25-.48.79-.52,1.25-.4,1.14.31,2.26,1.18,3.3,1.75,2.25,1.23,4.65,2.38,6.81,3.8l.02,1.44c-2.31-1.27-4.64-2.5-7-3.67-1.26-.63-2.54-1.21-3.81-1.84-.46-.23-.87-.52-.57-1.09Z"/>
          <path class="cls-28" d="M17.77,56.69c0-1.91-.38-9.89-.67-11.93-.27-1.91-.63-3.78-.97-5.67-.2-1.15-1.66-7.06.17-6.15.7.35,1.12,1.51,1.4,2.59.41,1.62.68,3.39.89,5.11.47,3.77.79,11.89.45,15.72.01.34-1.27.34-1.27.32Z"/>
          <path class="cls-13" d="M7.48,51.03c-.2-1.44-.54-2.86-.83-4.29-.34-1.68-.74-3.29-1.4-4.88-.1-.23-.21-.46-.32-.68.62-.43,5.58-3.48,7.74-4.6,2.81-1.45,3.47-1.79,3.7-1.33,1.29,2.52,2.01,6.73,2.06,9.55,0,.3,0,.76-1.59,1.55-3.17,1.57-8.73,5.18-9.29,5.4-.02-.14-.06-.58-.08-.72Z"/>
          <path class="cls-29" d="M5.68,41.85c.1-.91,10.77-6.77,11.63-6.62,1.41.24,2.97,7.17,1.56,8.65-1.32,1.38-9.15,5.92-11.18,6.67-.15.05-.33-.06-.37-.21-.39-1.53-.74-3.08-1.04-4.63-.23-1.17-.74-2.67-.6-3.86Z"/>
          <path class="cls-15" d="M6.88,40.92c1.01-.98,1.98,2.58,2.1,3.08.38,1.66,1.31,5.21-.61,6.37-.37.22-.65.2-.9-.18-.31-.49-.28-1.35-.37-1.91-.12-.77-.25-1.55-.38-2.32-.2-1.27-.65-2.7-.62-3.98.01-.55.29-.97.77-1.04Z"/>
          <path class="cls-22" d="M8.64,63.02h-1.26s-.16-.62-.16-.64c-.01-1.68-.72-9.29-1.01-11.33-.27-1.91-.63-3.78-.97-5.67-.2-1.15-1.66-7.06.17-6.15.7.35,1.12,1.51,1.4,2.59.41,1.62.68,3.39.89,5.11.47,3.77,1.26,10.92.92,14.74.01.34.03,1.09.02,1.34Z"/>
          <path class="cls-22" d="M6.82,72.82c.13-3.73.42-7.42.87-11.06.02-.15.13-.21.21-.15l.87.63s.06.07.07.11c.04-.14.18-.13.19.05.27,3.88.32,7.8.45,11.69.06,1.77.74,4.66-1.58,4.64-1.74-.02-1.15-4.2-1.09-5.91Z"/>
          <path class="cls-22" d="M32.42,74c-.14-3.73-.42-7.42-.87-11.06-.02-.15-.13-.21-.21-.15-.29.21-.58.42-.87.63-.04.03-.06.07-.07.11-.04-.14-.18-.13-.19.05-.27,3.88-.32,7.8-.45,11.69-.06,1.77-.74,4.66,1.58,4.64,1.74-.02,1.15-4.2,1.09-5.91Z"/>
          <path class="cls-28" d="M8.25,74.45c.25-.48.79-.52,1.25-.4,1.14.31,2.26,1.18,3.3,1.75,2.25,1.23,4.65,2.38,6.81,3.8l.02,1.44c-2.31-1.27-4.64-2.5-7-3.67-1.26-.63-2.54-1.21-3.81-1.84-.46-.23-.87-.52-.57-1.09Z"/>
          <path class="cls-28" d="M21.16,79.41c1.71-1.16,3.52-2.2,5.23-3.29,1-.63,2.06-1.57,3.18-1.95.45-.15,1-.15,1.27.32.33.56-.06.87-.5,1.13-1.22.7-2.46,1.37-3.69,2.07-1.83,1.05-3.64,2.15-5.43,3.27l-.07-1.55Z"/>
          <path class="cls-22" d="M19.61,69.38l1.48-1.23c.26,3.87.64,9.16.77,13.04.06,1.77.74,4.66-1.58,4.64-1.74-.02-1.15-4.2-1.09-5.91.13-3.5.02-7.11.42-10.54Z"/>
          <g>
            <path class="cls-28" d="M7.1,61.46h1.27l8.08-4.66c1.08-.62,2.98-.54,4.22.18l9.42,5.41,1.78.17v1.5c0,.06-.01.12-.01.18v.15s0,0,0,0c-.06.33-.3.63-.71.87l-8.63,4.98c-1.08.62-2.98.54-4.22-.17l-10.17-5.84c-.73-.42-1.06-.97-1.01-1.47h-.02s.04-1.12,0-1.28Z"/>
            <path class="cls-13" d="M22.52,68.6l8.63-4.98c1.08-.62.94-1.72-.3-2.44l-10.17-5.79c-1.24-.72-3.15-.8-4.22-.18l-8.63,4.98c-1.08.62-.94,1.72.3,2.44l10.17,5.79c1.24.72,3.15.8,4.22.18Z"/>
          </g>
          <g>
            <path class="cls-29" d="M25.63,64.12c-2,1.08-4.29,2.84-6.66,2.08-2.08-.67-4.07-2.14-5.91-3.28-1.28-.79-2.5-1.6-3.45-2.69.64-.91,1.82-1.69,2.52-2.19,1.98-1.41,7.2-4.01,7.9-3.96.31.03.63.09.96.17,1.29.33,2.63,1.04,3.76,1.55,1.65.74,3.24,1.64,4.63,2.8.45.37,1.02.8,1.34,1.31-.08,2.16-3.48,3.35-5.08,4.22Z"/>
            <path class="cls-15" d="M30.66,62.86c-1.25.92-3.53,1.87-4.66,2.56-1.2.73-3.6,2.42-4.91,2.73-.83.19-2.32-.2-3.33-.71-1.5-.77-2.95-1.67-4.41-2.52-1.19-.69-2.9-1.3-3.78-2.4-.64-.8-.47-1.59.03-2.3.95,1.09,2.18,1.9,3.45,2.69,1.84,1.14,3.83,2.62,5.91,3.28,2.38.76,4.66-.99,6.66-2.08,1.6-.87,5-2.06,5.08-4.22.04.06.07.12.1.18.3.66.5,2.29-.15,2.77Z"/>
          </g>
          <path class="cls-35" d="M20.36,60.88c.3-1.19-.19-2.13-.34-3.26-.47-3.44,5.64-.42,6.28.09.72.57,2.42,1.7,2.37,2.79-.06,1.15-2.02,2.02-2.86,2.45-1.27.66-3.12,1.67-4.58,1.66-.88-.01-1.65-.83-1.62-1.83.02-.69.59-1.24.75-1.9Z"/>
          <path class="cls-35" d="M14.21,37c1.12-.66,2.84-1.66,3.44-1.26.49.33-.55.79-1.03,1.11-.91.61-1.87,1.16-2.84,1.67-1.77.93-3.19,1.65-5.06,2.35-.57.21-.95-.21-.44-.53,1.38-.85,4.14-2.29,5.93-3.34Z"/>
        </g>
        <g>
          <path class="cls-5" d="M27.39,79.25c-.18.26-.5,2.89-.51,3.58,0,.7-.13,1.31.32,2.26.46.95.94.72.94.72,0,0,.55,1.8,1.44,2.8.89,1,2.9,1.14,3.84,1,1.63-.23,1.27-1.31.11-2.86-1.23-1.64-2.11-2.9-2.26-4.25-.14-1.35-.42-2.87-.42-2.87l-3.48-.38Z"/>
          <path class="cls-5" d="M40.61,58.93c.51-1.67.3-2.75-1.83-3.23-.63-.52-3.7-2.44-4.97-2.92-4.22-1.61-6.24-3.29-10.58-4.52-.08-.11-.22-.17-.38-.11-.05-.01-.1-.03-.16-.05-.16-.04-.28.11-.27.24-1.58.74-3.12,1.56-4.63,2.42-.57.32-1.45.62-1.69,1.32-.59,1.71,8.8,5.97,12.16,7.44,1.54.68,4.28.85,5.86.63-1.72,2.71-.72,6.43-.76,9.63-.02,1.92-.5,4.21-.55,6.43,1,2.47,3.95,1.76,4.28.76.72-2.25,1.28-5.78,1.83-8.08.94-3.93.51-6.08,1.69-9.97Z"/>
          <path class="cls-12" d="M26.68,82.13c1.88,1.75,3.85.79,4.69.17,0-3.8-.24-9.59-.58-13.41-.15-1.65,1.6-3.8-.23-5-.22-.79-1.38-3.38-1.99-4.07-1.52-1.71-2.98-3.6-4.33-4.38.56-1.78.44-3.66-1.62-5.5-2.21-2.18-4.97-.97-8.04-.16-1.69.45-3.04,2.99-2.82,3.03-.31,2.9.24,6.45,2.36,8.52,1.48,1.44,3.38,2.15,5.28,2.85,1.71.63,4.02,1.23,5.73,1.85-.65,3.59-.83,7.45.05,10.94.24.95,1.37,4.64,1.51,5.16Z"/>
          <path class="cls-5" d="M33.82,75.69s-.54.64-1,1.71c-.46,1.08.79,1.85.79,1.85,0,0,.03,1.61.72,2.6.69,1,2.76,2.48,3.65,2.42.89-.06,2.93.23,2.1-1.38-.83-1.61-2.12-3.25-2.49-4.24-.26-.68-.67-2.27-.67-2.27l-3.1-.69Z"/>
          <path class="cls-8" d="M35.18,45.43c-.51-2.37-1.32-5.59-2.75-7.17-1.19-.95-3.92-3.13-5.74-4.8-1.47-1.35-2.55-3.31-4.69-2.94-1.11.19.87,7.16,1.85,7.77,1.27,1.64,4.28,3.19,6.26,4.03,0,0,1.19,3.24,2.13,4.34.75.88,3.4.87,2.94-1.23Z"/>
          <path class="cls-34" d="M23.16,31.49c-.6-.68-.63-1.13-.87-1.08-2.23.41-5.64,1.18-5.81,1.27-1.22.61-2.94,1.3-4.15,2.03-1.57.96-2.33,1.89-2.31,3.67.02,1.97.93,4.72,1.25,6.67.33,1.98.45,3.95.5,5.93-.1.56-.33,1.65-.46,2.22-.4.27-.82,1.1-.04,1.45.24.11-.47.7.23,1.41,1.83,1.85,5.92,1.84,8.44,1.3,2.76-.59,4.57-2.35,6.53-5.6.72-1.19-1.13-2.59-1.6-2.92-.06-1.43,0-3.91,0-6,1.87-1.28,1.43-6.79-1.73-10.36Z"/>
          <path class="cls-8" d="M14.65,32.53s2.17,1.18,3.21,2c1.04.82,3.81,2.78,3.81,2.78,0,0,.77-2.45.45-4.46-.23-1.43-1.02-2.45-1.02-2.45,0,0-4.13.95-6.45,2.12Z"/>
          <g>
            <path class="cls-32" d="M21.17,32.22c.08,1.16.35,2.68-.08,3.75-1.41-1.25-4.18-3.23-5.23-3.49.77-2.18.72-3.07.45-5.22-.16-1.32,4.32.62,4.61.61.25,1.72.11,2.42.25,4.34Z"/>
            <path class="cls-38" d="M24.26,24.41c-.04-1.37-1.03-3.12-5.81-2.19-.76.15-1.81,1.58-2.22,2.17-.85,1.22-.78,2.68-.1,3.95.65,1.22,2.84,3.12,4.7,3.37,3.81.5,3.5-4.89,3.44-7.3Z"/>
            <path class="cls-5" d="M23.82,20.89c-1.12-1.55-2.58-2.97-3.87-2.97.22.9.08,1.53-.25,2.01-.13-.36-.39-.74-.92-.94.04.67.21,1.27-.85,2.2-.78.36-1.61.7-2.17,1.25-1.03,1.02-1.23,2.32-1.04,3.69.18,1.23.88,1.68,1.62,2.61.99-.48,2.09-2.33,2.14-3.38,1.47.56,3.22,1.03,5.23.3.14-.05.76-.47.88-.62.86-1.11.18-2.82-.77-4.13Z"/>
            <path class="cls-38" d="M18.23,27.38c.18-.26.19-.61,0-.87-.3-.42-.81-.86-1.41-.18-.95,1.08.21,2.33.41,2.31.13-.01.67-.77,1.01-1.26Z"/>
          </g>
          <path class="cls-32" d="M28.59,46.96c-1.15.36-2.29-.03-3.42-.32.39-.24.72-.55,1.03-.97.17-.22-.11-.58-.37-.48-1.68.63-3.51.66-5.03,1.62.21.4.14,1.8.09,2.13.95.06,2.15.27,3.05.3,2,.05,3.51.09,4.73-1.46.64-.82.21-.91-.06-.83Z"/>
          <path class="cls-8" d="M17.46,45.7c-2.03-.03-3.46-.49-4.89.3.83-1.05,1.74-2.56,1.92-4.25.25-2.28.96-6.18-2.41-7.73-1.8.73-2.63,3.15-3.26,5.62-.27,1.07.18,3.51-.17,5.49-.29,1.63.08,2.27.26,3.5.15,1.01,1.25.9,2.1,1.36.98.53,2.92.65,3.99.63,2.06-.04,6.83-1.43,6.98-1.5,1.11-.55.54-3.1-.55-3.15-1.83-.09-2.19-.24-3.98-.27Z"/>
          <path class="cls-32" d="M34.48,45.04c-.49-.39-1.23-.46-1.76.56-.08.54-.32,1.14-.41,1.73-.14.91-.06,1.42.12,2.32.18.94.47.78.58.34.18-.68-.08-1.39.44-1.48.52-.09.07,1.59.09,2.33.01.75.18,1.85.88,1.97.7.12,1.69-2.3,1.46-4.34s-1.4-3.42-1.4-3.42Z"/>
        </g>
        <g>
          <path class="cls-36" d="M47.43,33.46s-.15-.29-.42-.09c-.27.19-1.07.8-1.19.86-.13.06-.27,0-.35.08-.08.08-.03.19.07.32.1.13,1.9-1.16,1.9-1.16Z"/>
          <path class="cls-11" d="M47.38,34.15c0-.18-.11-.38-.24-.46-.06-.03-.11-.04-.16-.01h0l-4.62,2.67.32.65,4.58-2.65c.06-.02.11-.09.11-.2Z"/>
          <path class="cls-11" d="M48.04,33.2c-.05-.03-.1-.03-.13-.01l-.66.38.28.56.63-.37c.06-.02.09-.08.09-.18,0-.15-.09-.33-.21-.39Z"/>
          <path class="cls-28" d="M47.85,33.91c0-.2-.13-.43-.27-.52-.11-.07-.4,0-.74.22-.27.17-1.16.82-1.16.82,0,0,.23.1.31.32.07.23-.02.37-.02.37,0,0,1.15-.55,1.32-.67.44-.28.57-.38.57-.55Z"/>
          <path class="cls-21" d="M44.07,35.47c-.06-.03-.11-.03-.16-.02-.04.02-.07.05-.07.05.04-.02.1-.02.16,0,.13.08.24.28.24.46,0,.08-.02.15-.06.18,0,0,.03,0,.04-.01.06-.03.09-.1.09-.21,0-.18-.11-.38-.24-.46Z"/>
          <path class="cls-21" d="M45.82,34.45c-.06-.03-.11-.03-.16-.02-.04.02-.07.05-.07.05.04-.02.1-.02.16,0,.13.08.24.28.24.46,0,.08-.02.15-.06.18,0,0,.03,0,.04-.01.06-.03.09-.1.09-.21,0-.18-.11-.38-.24-.46Z"/>
          <path class="cls-21" d="M42.61,36.31c-.06-.03-.11-.03-.16-.02-.04.02-.07.05-.07.05.04-.02.1-.02.16,0,.13.08.24.28.24.46,0,.08-.02.15-.06.18,0,0,.03,0,.04-.01.06-.03.09-.1.09-.21,0-.18-.11-.38-.24-.46Z"/>
          <path class="cls-28" d="M42.77,36.81c0-.18-.11-.38-.24-.46-.07-.04-.13-.04-.17,0,0,0-.33.12-.53.4-.11.15.09.51.22.49.26-.03.64-.25.64-.25h0c.05-.03.08-.1.08-.19Z"/>
          <path class="cls-36" d="M42.14,37.1c0,.13-.08.19-.18.13-.1-.06-.18-.21-.18-.34s.08-.19.18-.13c.1.06.18.21.18.34Z"/>
          <path class="cls-21" d="M42.04,37.07c0-.09-.05-.19-.12-.22-.03-.02-.06-.01-.08,0-.06.02-.16.04-.26.09h0s-.3.12-.51.26c-.1.07-.24.19-.31.28.24-.02.56,0,.65,0,.11,0,.22-.02.31-.06.01,0,.1-.05.11-.07.04-.03.08-.08.14-.15,0-.01.07-.07.07-.13Z"/>
          <path class="cls-11" d="M41.34,37.12s-.1,0-.12.05c-.16.08-.33.16-.45.3-.02.02,0,.02,0,.02.03-.01.12-.08.21-.13.1-.06.2-.11.26-.15.06,0,.14-.03.1-.08Z"/>
          <path class="cls-21" d="M47.37,33.47c-.27.07-.52.21-.76.37-.23.15-.48.32-.68.52,0,0,0,.02.01.01.24-.14.45-.34.69-.49.24-.15.48-.27.74-.38.01,0,0-.02,0-.02Z"/>
          <path class="cls-21" d="M45.21,34.76c-.35.19-.76.44-1.04.64,0,0,0,.02,0,.01.36-.18.73-.39,1.05-.63.01,0,0-.03-.01-.02Z"/>
          <path class="cls-21" d="M43.69,35.67c-.17.07-.33.18-.49.28-.16.1-.32.19-.47.3,0,0,0,.01,0,0,.16-.09.32-.19.48-.28.16-.1.33-.18.48-.29,0,0,0-.02,0-.01Z"/>
          <path class="cls-21" d="M42.45,36.38c-.13.02-.38.23-.43.3,0,0,0,.01,0,0,.08-.04.37-.24.43-.28.01,0,0-.02-.01-.02Z"/>
          <path class="cls-36" d="M47.74,33.84s-.02,0-.02,0c0,.03,0,.07-.01.1,0,.03-.02.05-.02.08,0,.01.02.02.03.01.04-.05.04-.14.03-.2Z"/>
          <path class="cls-36" d="M47.6,33.97s-.03,0-.03,0c0,.05,0,.11-.01.16,0,.01,0,.02.01.03,0,0,.01,0,.02,0,0,0,.02-.01.02-.02.01-.06.01-.13-.01-.18Z"/>
          <path class="cls-36" d="M46.17,34.74s0,0-.01,0c-.02.02,0,.06,0,.08,0,.03-.03.06-.02.09,0,0,0,0,0,0,.06,0,.1-.15.04-.18Z"/>
          <path class="cls-36" d="M42.68,36.75s0,0,0,0c-.01.03,0,.07-.02.11,0,.04-.03.07-.04.11,0,.02.02.03.03.02.05-.05.08-.18.03-.23Z"/>
          <path class="cls-36" d="M42.5,36.88s-.02,0-.02,0c0,.02,0,.05,0,.07,0,.03,0,.05,0,.07,0,.03.04.03.05,0,.01-.05,0-.12-.02-.16Z"/>
          <path class="cls-28" d="M41.8,37.19s-.06.06-.1.08c-.04.02-.08.03-.12.05,0,0,0,.02,0,.02.08.02.22-.07.23-.15,0,0,0-.01-.01,0Z"/>
        </g>
        <g>
          <g>
            <polygon class="cls-37" points="37.6 24.37 28.9 29.39 25.67 25 34.38 19.98 37.6 24.37"/>
            <polygon class="cls-5" points="37.43 24.33 28.94 29.24 25.85 25.04 34.34 20.13 37.43 24.33"/>
            <g>
              <g>
                <polygon class="cls-12" points="42.26 27.88 33.56 32.91 28.88 30.21 37.58 25.18 42.26 27.88"/>
                <polygon class="cls-31" points="42.26 27.07 33.56 32.09 28.88 29.39 37.58 24.37 42.26 27.07"/>
                <g>
                  <polygon class="cls-12" points="41.81 27.1 41.92 27.04 37.57 24.52 29.18 29.37 29.29 29.43 37.57 24.65 41.81 27.1"/>
                  <polygon class="cls-35" points="41.81 27.1 37.57 24.65 29.29 29.43 33.54 31.88 41.81 27.1"/>
                </g>
                <polygon class="cls-12" points="28.88 29.39 28.88 30.21 33.56 32.91 33.56 32.09 28.88 29.39"/>
                <polygon class="cls-5" points="42.26 27.07 42.26 27.88 33.56 32.91 33.56 32.09 42.26 27.07"/>
              </g>
              <path class="cls-25" d="M37.02,29.1c-.11-.11-.45-.07-.55.04-.39.4-1.13.54-1.02.77.06.13.3.13.42.12.14-.01.27-.07.4-.11.14-.04.28-.07.41-.12.25-.09.61-.42.35-.7Z"/>
              <path class="cls-25" d="M34.98,30.28c-.33-.29-.72-.13-.87-.14-.24-.02-.46-.1-.69-.18-.37-.15-.73-.34-1.14-.39-.27-.04-.71-.04-.88.24-.09.15-.19.46.4.8.33.19.65.45,1.04.53.34.07.69,0,1.01-.1.29-.09.73-.14,1.03-.25.15-.05.31-.31.09-.5Z"/>
              <path class="cls-25" d="M39.07,25.82c-.61-.46-1.13-.62-1.33-.65-.35-.04-.7.12-1.01.26-.36.16-.7.35-1.03.57-.14.09-.52.26-.44.49.09.24.47.27.68.23.18-.04.35-.1.54-.1.19,0,.35.02.54-.04.21-.07.37-.14.59-.12.21.02.39.07.6.04.16-.02.33-.05.49-.08.17-.03.37-.05.53-.13.24-.12.02-.34-.15-.47Z"/>
              <g>
                <path class="cls-9" d="M41.33,27s0,0,0,0c-.03-.02-.06.02-.08.04-.02.04-.03.08-.02.12,0,.03.06.02.05-.01,0-.03,0-.06.01-.09.01-.02.03-.03.03-.05Z"/>
                <path class="cls-9" d="M41.16,27.26s-.03-.04-.05-.07c-.02-.02-.03-.05-.06-.07,0,0-.02,0-.02,0,0,.05.04.15.1.16.02,0,.03-.01.03-.03Z"/>
                <path class="cls-9" d="M40.9,26.85c-.06.02-.14.07-.16.13,0,.02.02.04.04.03.03-.02.04-.04.07-.07.02-.02.05-.04.08-.06.01,0,0-.03-.01-.02Z"/>
                <path class="cls-9" d="M40.57,26.94s-.02.01-.01.02c.02.02.04.04.06.05.02.02.04.04.06.05.01,0,.03,0,.03-.02-.02-.05-.08-.1-.14-.11Z"/>
                <path class="cls-9" d="M40.4,27.54s-.07-.03-.11-.03c-.02,0-.02.02,0,.03.03.02.06.03.09.05.02.01.04.02.07.02,0,0,.01-.01.01-.02-.01-.03-.03-.04-.06-.05Z"/>
                <path class="cls-9" d="M39.28,28.15s-.13.1-.09.15c0,0,.02.01.03,0,.02-.01.02-.04.04-.06.01-.03.04-.05.05-.07,0-.01,0-.03-.02-.02Z"/>
                <path class="cls-9" d="M38.8,28.25s-.02.02,0,.02c.03.01.05.03.07.05.02.02.04.03.07.04,0,0,.02,0,.02-.02-.01-.06-.09-.09-.15-.09Z"/>
                <path class="cls-9" d="M37.46,28.34s-.02.02,0,.03c.03,0,.05.02.07.04.02.01.02.03.04.04.01,0,.02,0,.02-.02,0-.06-.09-.09-.13-.09Z"/>
                <path class="cls-9" d="M37.74,28.27s-.07.07-.06.11c0,.02.02.02.04,0,.03-.02.04-.07.06-.1.01-.02-.02-.04-.03-.03Z"/>
                <path class="cls-9" d="M37.48,28.55s-.11.1-.09.15c0,0,.01.01.02,0,.02-.01.03-.03.04-.05.01-.03.03-.05.05-.08.02-.02,0-.05-.03-.03Z"/>
                <path class="cls-9" d="M38.18,28.75s-.12-.05-.18-.04c0,0,0,.02,0,.02.03,0,.06.01.08.02.03,0,.05.03.08.03.02,0,.03-.02.02-.03Z"/>
                <path class="cls-9" d="M39.93,26.81c-.05,0-.12.1-.1.15,0,.01.02.02.03.01.02-.02.03-.04.04-.07.01-.03.04-.05.05-.08,0-.01,0-.03-.02-.02Z"/>
                <path class="cls-9" d="M39.46,27.44s-.11-.04-.16-.03c-.01,0-.01.02,0,.03.04.03.1.05.14.06.01,0,.02,0,.03,0,0,0,0-.01,0-.02,0-.01,0-.02-.02-.03Z"/>
                <path class="cls-9" d="M39.47,27.21s-.02,0-.02.02c.01.03.03.05.04.07.02.03.03.05.05.07.01.01.03,0,.03-.01,0-.06-.04-.13-.1-.14Z"/>
                <path class="cls-9" d="M38.49,27.27s-.07.09-.07.15c0,.04.06.04.06,0,0-.05.02-.08.04-.13,0-.01-.01-.03-.02-.02Z"/>
                <path class="cls-9" d="M38.35,27.54c-.02-.05-.08-.1-.13-.13-.01,0-.03,0-.02.02.02.02.04.05.06.07.02.02.04.05.07.06.01,0,.03,0,.03-.02Z"/>
                <path class="cls-9" d="M38.7,26.16s-.13-.06-.19-.05c-.01,0-.01.02,0,.02.03.01.06.02.09.04.03.01.06.03.09.03.02,0,.03-.03.02-.04Z"/>
                <path class="cls-9" d="M38.93,26.06s-.1.08-.1.14c0,.02.02.03.04.02.02-.02.03-.04.04-.06.01-.02.03-.04.04-.07,0-.01,0-.03-.02-.02Z"/>
                <path class="cls-9" d="M39.44,26.32s-.1-.08-.16-.07c0,0,0,.01,0,.02.02.02.04.03.07.04.02.02.04.03.07.04.02,0,.03-.02.02-.03Z"/>
                <path class="cls-9" d="M38.96,26.58c-.07.02-.15.06-.17.12,0,.02.02.03.03.02.02-.02.04-.04.07-.06.03-.02.06-.04.09-.06.02,0,0-.03-.01-.03Z"/>
                <path class="cls-9" d="M37.91,26.68c-.05-.04-.12-.08-.19-.08-.02,0-.02.02,0,.03.05.03.11.06.16.09,0,0,.02,0,.03,0,0,0,.01,0,.01-.02,0,0,0-.02,0-.03Z"/>
                <path class="cls-9" d="M37.92,26.44s-.07-.06-.11-.07c0,0-.02,0-.01.01.02.04.06.07.1.09.02,0,.04-.02.03-.03Z"/>
                <path class="cls-9" d="M36.89,27.35s-.02.02,0,.03c.03.02.06.03.09.05.02.02.04.04.08.04.01,0,.02-.01.02-.02-.01-.06-.12-.1-.17-.1Z"/>
                <path class="cls-9" d="M37.33,27.29s-.08.1-.08.16c0,.02.02.02.03,0,.02-.02.02-.05.04-.08.01-.03.03-.05.04-.08,0-.02-.01-.03-.03-.02Z"/>
                <path class="cls-9" d="M36.69,28.14s-.06-.03-.09-.03c-.04,0-.09,0-.13,0-.01,0-.01.02,0,.02.04.02.08.03.12.04.03,0,.07.02.1,0,.01,0,.01-.02,0-.03Z"/>
                <path class="cls-9" d="M36.8,27.96s-.03,0-.03.01c0,.03,0,.05,0,.08,0,.02,0,.05,0,.07,0,.01.03.02.04,0,.03-.05,0-.12-.02-.16Z"/>
                <path class="cls-9" d="M36.76,26.93c-.03-.06-.14-.08-.2-.07-.01,0-.01.02,0,.03.03.02.06.03.09.04.03.01.06.03.09.04.02,0,.03-.02.02-.04Z"/>
                <path class="cls-9" d="M36.76,26.71s-.03.02-.02.03c.03.03.04.07.08.09,0,0,.02,0,.03,0,.01-.06-.04-.1-.09-.11Z"/>
                <path class="cls-9" d="M38.23,25.38s-.1.08-.1.15c0,.01.02.02.03.01.03-.04.05-.1.09-.14,0,0,0-.03-.01-.02Z"/>
                <path class="cls-9" d="M37.93,25.35s-.02,0-.02,0c0,.02,0,.05,0,.07,0,.02,0,.05.01.07,0,.01.03.01.03,0,.03-.04,0-.12-.03-.15Z"/>
                <path class="cls-9" d="M37.16,25.34c-.06-.02-.14-.01-.2,0-.01,0-.01.02,0,.02.06.02.14.03.2,0,.02,0,.02-.03,0-.03Z"/>
                <path class="cls-9" d="M37.25,25.16s-.04,0-.03.02c.02.03.03.07.06.1.01.01.04,0,.04-.02,0-.04-.04-.08-.07-.11Z"/>
                <path class="cls-9" d="M37.02,25.69s-.1.06-.11.11c0,.02.02.02.03.01.01-.01.02-.03.04-.05.01-.02.03-.04.05-.06,0,0,0-.02-.01-.02Z"/>
                <path class="cls-9" d="M36.73,25.86c-.07-.03-.18-.03-.26-.02-.02,0-.02.02,0,.03.08.02.18.05.26.03.02,0,.02-.04,0-.04Z"/>
                <path class="cls-9" d="M36.25,26.12c-.05.03-.08.14-.06.19,0,.01.03.01.03,0,.02-.03.02-.06.02-.09,0-.03.02-.06.02-.09,0-.01-.01-.02-.02-.01Z"/>
                <path class="cls-9" d="M35.94,26.29s-.03.01-.02.02c.02.03.04.06.07.08,0,0,.02,0,.02-.01,0-.05-.03-.08-.08-.1Z"/>
                <path class="cls-9" d="M34.94,27.31c-.04-.07-.16-.08-.24-.08-.02,0-.02.03,0,.03.04.01.08.02.12.04.04.01.07.04.11.04.01,0,.03-.02.02-.03Z"/>
                <path class="cls-9" d="M34.96,27.14s-.04,0-.03.03c.02.03.03.07.06.1,0,.01.03,0,.03,0,.01-.05-.02-.1-.06-.12Z"/>
                <path class="cls-9" d="M35.11,26.54s-.13-.03-.17,0c-.01,0,0,.02,0,.02.03.01.05,0,.08.01.03,0,.05,0,.08,0,.02,0,.02-.03,0-.04Z"/>
                <path class="cls-9" d="M35.36,26.53s-.1.09-.08.15c0,.02.03.02.04,0,.02-.04.03-.09.06-.13.01-.01,0-.03-.02-.02Z"/>
                <path class="cls-9" d="M35.78,27.2s-.13-.06-.18-.05c0,0-.01.02,0,.02.03.01.06.02.09.03.03.01.06.02.09.03.02,0,.02-.02.01-.03Z"/>
                <path class="cls-9" d="M35.95,26.98s-.02,0-.02,0c-.01.05-.02.11,0,.15,0,.01.02.01.02,0,.04-.04.04-.12,0-.17Z"/>
                <path class="cls-9" d="M35.62,27.86s-.02-.01-.02,0c-.02.02-.03.04-.04.07-.01.02-.03.05-.03.07,0,.02.02.04.03.03.04-.03.07-.1.06-.16Z"/>
                <path class="cls-9" d="M34.17,27.28s-.06-.05-.1-.07c-.03-.01-.05.02-.02.04.03.02.06.05.11.06.01,0,.02-.02.01-.03Z"/>
              </g>
              <g>
                <path class="cls-9" d="M37.27,29.23s0,0,0,0c-.03-.02-.06.02-.08.04-.02.04-.03.08-.02.12,0,.03.06.02.05-.01,0-.03,0-.06.01-.09.01-.02.03-.03.03-.05Z"/>
                <path class="cls-9" d="M37.1,29.5s-.03-.04-.05-.07c-.02-.02-.03-.05-.06-.07,0,0-.02,0-.02,0,0,.05.04.15.1.16.02,0,.03-.01.03-.03Z"/>
                <path class="cls-9" d="M36.83,29.09c-.06.02-.14.07-.16.13,0,.02.02.04.04.03.03-.02.04-.04.07-.07.02-.02.05-.04.08-.06.01,0,0-.03-.01-.02Z"/>
                <path class="cls-9" d="M36.51,29.18s-.02.01-.01.02c.02.02.04.04.06.05.02.02.04.04.06.05.01,0,.03,0,.03-.02-.02-.05-.08-.1-.14-.11Z"/>
                <path class="cls-9" d="M36.34,29.78s-.07-.03-.11-.03c-.02,0-.02.02,0,.03.03.02.06.03.09.05.02.01.04.02.07.02,0,0,.01-.01.01-.02-.01-.03-.03-.04-.06-.05Z"/>
                <path class="cls-9" d="M35.21,30.38s-.13.1-.09.15c0,0,.02.01.03,0,.02-.01.02-.04.04-.06.01-.03.04-.05.05-.07,0-.01,0-.03-.02-.02Z"/>
                <path class="cls-9" d="M34.74,30.49s-.02.02,0,.02c.03.01.05.03.07.05.02.02.04.03.07.04,0,0,.02,0,.02-.02-.01-.06-.09-.09-.15-.09Z"/>
                <path class="cls-9" d="M33.4,30.57s-.02.02,0,.03c.03,0,.05.02.07.04.02.01.02.03.04.04.01,0,.02,0,.02-.02,0-.06-.09-.09-.13-.09Z"/>
                <path class="cls-9" d="M33.68,30.51s-.07.07-.06.11c0,.02.02.02.04,0,.03-.02.04-.07.06-.1.01-.02-.01-.04-.03-.03Z"/>
                <path class="cls-9" d="M33.4,31.44s-.13-.07-.18-.05c0,0-.01.01,0,.02.03.02.05.02.08.03.03.01.05.03.08.03.02,0,.03-.02.02-.03Z"/>
                <path class="cls-9" d="M33.42,30.78s-.11.1-.09.15c0,0,.01.01.02,0,.02-.01.03-.03.04-.05.01-.03.03-.05.05-.08.02-.02,0-.05-.03-.03Z"/>
                <path class="cls-9" d="M34.12,30.99s-.12-.05-.18-.04c0,0,0,.02,0,.02.03,0,.06.01.08.02.03,0,.05.03.08.03.02,0,.03-.02.02-.03Z"/>
                <path class="cls-9" d="M35.87,29.05c-.05,0-.13.1-.1.15,0,.01.02.02.03.01.02-.02.03-.04.04-.07.01-.03.04-.05.05-.08,0-.01,0-.03-.02-.02Z"/>
                <path class="cls-9" d="M35.4,29.68s-.11-.04-.16-.03c-.01,0-.01.02,0,.03.04.03.1.05.14.06.01,0,.02,0,.03,0,0,0,0-.01,0-.02,0-.01,0-.02-.02-.03Z"/>
                <path class="cls-9" d="M35.4,29.45s-.02,0-.02.02c.01.03.03.05.04.07.02.03.03.05.05.07.01.01.03,0,.03-.01,0-.06-.04-.13-.1-.14Z"/>
                <path class="cls-9" d="M34.43,29.51s-.07.09-.07.15c0,.04.06.04.06,0,0-.05.02-.08.04-.13,0-.01-.01-.03-.02-.02Z"/>
                <path class="cls-9" d="M34.29,29.78c-.02-.05-.08-.1-.13-.13-.01,0-.03,0-.02.02.02.02.04.05.06.07.02.02.04.05.07.06.01,0,.03,0,.03-.02Z"/>
                <path class="cls-9" d="M34.64,28.4s-.13-.06-.19-.05c-.01,0-.01.02,0,.02.03.01.06.02.09.04.03.01.06.03.09.03.02,0,.03-.03.02-.04Z"/>
                <path class="cls-9" d="M34.87,28.3s-.1.08-.1.14c0,.02.02.03.04.02.02-.02.03-.04.04-.06.01-.02.03-.04.04-.07,0-.01,0-.03-.02-.02Z"/>
                <path class="cls-9" d="M35.38,28.56s-.1-.08-.16-.07c0,0,0,.01,0,.02.02.02.04.03.07.04.02.02.04.03.07.04.02,0,.03-.02.02-.03Z"/>
                <path class="cls-9" d="M34.9,28.82c-.07.02-.15.06-.17.12,0,.02.02.03.03.02.03-.02.04-.04.07-.06.03-.02.06-.04.09-.06.02,0,0-.03-.01-.03Z"/>
                <path class="cls-9" d="M36.3,28.45c-.07.02-.15.06-.17.12,0,.02.02.03.03.02.02-.02.04-.04.07-.06.03-.02.06-.04.09-.06.02,0,0-.03-.01-.03Z"/>
                <path class="cls-9" d="M33.85,28.92c-.05-.04-.12-.08-.19-.08-.02,0-.02.02,0,.03.05.03.11.06.16.1,0,0,.02,0,.03,0,0,0,.01,0,.01-.02,0,0,0-.02,0-.03Z"/>
                <path class="cls-9" d="M33.86,28.68s-.07-.06-.11-.07c0,0-.02,0-.01.01.02.04.06.07.1.09.02,0,.04-.02.03-.03Z"/>
                <path class="cls-9" d="M32.83,29.59s-.02.02,0,.03c.03.02.06.03.09.05.02.02.04.04.08.04.01,0,.02-.01.02-.02-.01-.06-.12-.1-.17-.1Z"/>
                <path class="cls-9" d="M33.27,29.53s-.08.1-.08.16c0,.02.02.02.03,0,.02-.02.02-.05.04-.08.01-.03.03-.05.04-.07,0-.02-.01-.03-.03-.02Z"/>
                <path class="cls-9" d="M32.63,30.38s-.06-.03-.09-.03c-.04,0-.09,0-.13,0-.01,0-.01.02,0,.02.04.02.08.03.12.04.03,0,.07.02.1,0,.01,0,.01-.02,0-.03Z"/>
                <path class="cls-9" d="M32.74,30.2s-.03,0-.03.01c0,.03,0,.05,0,.08,0,.02,0,.05,0,.07,0,.01.03.02.04,0,.03-.05,0-.12-.02-.16Z"/>
                <path class="cls-9" d="M32.7,29.16c-.03-.06-.14-.08-.2-.06-.01,0-.01.02,0,.02.03.02.06.03.09.04.03.01.06.03.09.04.02,0,.03-.02.02-.04Z"/>
                <path class="cls-9" d="M32.7,28.95s-.03.02-.02.03c.03.03.04.07.08.09,0,0,.02,0,.03,0,.01-.06-.04-.1-.09-.11Z"/>
                <path class="cls-9" d="M34.17,27.62s-.1.08-.1.15c0,.01.02.02.03.01.03-.04.05-.1.09-.14,0,0,0-.03-.01-.02Z"/>
                <path class="cls-9" d="M33.87,27.58s-.02,0-.02,0c0,.02,0,.05,0,.07,0,.02,0,.05.01.07,0,.01.03.01.03,0,.03-.04,0-.12-.03-.15Z"/>
                <path class="cls-9" d="M33.1,27.58c-.06-.02-.14-.01-.2,0-.01,0-.01.02,0,.02.06.02.14.03.2,0,.02,0,.02-.03,0-.03Z"/>
                <path class="cls-9" d="M33.18,27.4s-.04,0-.03.02c.02.03.03.07.06.1.01.01.04,0,.04-.02,0-.04-.04-.08-.07-.11Z"/>
                <path class="cls-9" d="M32.96,27.93s-.1.06-.11.11c0,.02.02.02.03.01.01-.01.02-.03.04-.05.01-.02.03-.04.05-.06,0,0,0-.02-.01-.02Z"/>
                <path class="cls-9" d="M32.67,28.1c-.07-.03-.18-.03-.26-.02-.02,0-.02.02,0,.03.08.02.18.05.26.03.02,0,.02-.04,0-.04Z"/>
                <path class="cls-9" d="M32.19,28.36c-.05.03-.08.14-.06.19,0,.01.03.01.03,0,.02-.03.02-.06.02-.09,0-.03.02-.06.02-.09,0-.01-.01-.02-.02-.01Z"/>
                <path class="cls-9" d="M31.88,28.52s-.03.01-.02.02c.02.03.04.06.07.08,0,0,.03,0,.02-.01,0-.05-.03-.08-.08-.1Z"/>
                <path class="cls-9" d="M30.88,29.54c-.04-.07-.16-.08-.24-.08-.02,0-.02.03,0,.03.04.01.08.02.12.04.04.01.07.04.11.04.01,0,.03-.02.02-.03Z"/>
                <path class="cls-9" d="M30.9,29.38s-.04,0-.03.03c.02.03.03.07.06.1,0,.01.03,0,.03,0,.01-.05-.02-.1-.06-.12Z"/>
                <path class="cls-9" d="M31.05,28.78s-.13-.03-.17,0c-.01,0,0,.02,0,.02.03.01.05,0,.08.01.03,0,.06,0,.08,0,.02,0,.02-.03,0-.04Z"/>
                <path class="cls-9" d="M31.3,28.76s-.1.09-.08.15c0,.02.03.02.04,0,.02-.04.03-.09.06-.13.01-.01,0-.03-.02-.02Z"/>
                <path class="cls-9" d="M31.72,29.43s-.13-.06-.18-.05c0,0-.01.02,0,.02.03.01.06.02.09.03.03.01.06.02.09.03.02,0,.02-.02.01-.03Z"/>
                <path class="cls-9" d="M31.89,29.22s-.02,0-.02,0c-.01.05-.02.11,0,.15,0,.01.02.01.02,0,.04-.04.04-.12,0-.17Z"/>
                <path class="cls-9" d="M31.55,30.09s-.02-.01-.02,0c-.02.02-.03.04-.04.07-.01.02-.03.05-.03.07,0,.02.02.04.03.03.04-.03.07-.1.06-.16Z"/>
                <path class="cls-9" d="M30.11,29.51s-.06-.05-.1-.07c-.03-.01-.05.02-.02.04.03.02.06.05.11.06.01,0,.02-.01.01-.02Z"/>
              </g>
            </g>
            <polygon class="cls-5" points="25.67 25 25.56 25.66 28.35 29.38 28.9 29.39 25.67 25"/>
            <polygon class="cls-30" points="34.34 20.13 34.25 20.64 37.04 24.35 37.43 24.33 34.34 20.13"/>
            <polygon class="cls-12" points="25.85 25.04 26.08 25.36 34.25 20.64 34.34 20.13 25.85 25.04"/>
            <polygon class="cls-12" points="37.04 24.35 28.83 29.1 28.94 29.24 37.43 24.33 37.04 24.35"/>
          </g>
          <polygon class="cls-10" points="38.38 27.3 36.23 28.54 34.1 27.3 36.25 26.06 38.38 27.3"/>
          <g>
            <polygon class="cls-23" points="38.17 26.95 36.22 28.07 34.29 26.95 36.24 25.83 38.17 26.95"/>
            <polygon class="cls-1" points="37.65 26.82 36.21 27.65 34.79 26.82 36.23 25.99 37.65 26.82"/>
            <polygon class="cls-16" points="36.22 28.07 36.22 28.41 38.17 27.28 38.17 26.95 36.22 28.07"/>
            <polygon class="cls-1" points="34.29 26.95 34.29 27.29 36.22 28.41 36.22 28.07 34.29 26.95"/>
            <path class="cls-21" d="M36.24,26.36c-.39,0-.72.17-.72.38s.32.38.72.38.72-.17.72-.38-.32-.38-.72-.38Z"/>
            <path class="cls-1" d="M36.23,26.27c-.35,0-.63.15-.63.33s.28.33.63.33.63-.15.63-.33-.28-.33-.63-.33Z"/>
            <path class="cls-21" d="M36.24,26.03c-.39,0-.72.17-.72.38s.32.38.72.38.72-.17.72-.38-.32-.38-.72-.38Z"/>
            <path class="cls-23" d="M36.72,25.62c.02-.25.21-.51.21-.51l-.38.08-.32.02-.32-.02-.39-.08s.19.26.21.51c.01.18-.13.46-.13.63h0s0,.01,0,.02c0,.18.28.33.63.33s.63-.15.63-.33c0-.02,0-.04-.01-.06-.02-.17-.14-.42-.12-.59Z"/>
            <circle class="cls-23" cx="36.22" cy="24.58" r=".88"/>
            <path class="cls-20" d="M36.33,24.53c-.15.26-.43.37-.64.25-.2-.12-.25-.42-.1-.68.15-.26.43-.37.64-.25s.25.42.1.68Z"/>
            <path class="cls-21" d="M36.03,24.25c-.09.11-.22.14-.3.07s-.07-.2.02-.31c.09-.11.22-.14.3-.08.08.07.07.2-.02.31Z"/>
            <path class="cls-16" d="M36.84,24.87s-.03-.03-.04,0c-.01.04-.02.07-.03.11-.01.04-.03.07-.04.11,0,.03.04.05.05.02.03-.06.05-.16.05-.23Z"/>
            <path class="cls-16" d="M36.61,25.07s-.02,0-.02.01c0,.03.02.07.02.1,0,.03-.01.07,0,.1,0,.02.03.02.04,0,.04-.05.03-.18-.03-.22Z"/>
            <path class="cls-16" d="M36.68,26.08s-.02-.01-.03,0c-.01.07-.02.12-.07.18,0,0,0,.02,0,.02,0,0,0,0,.01.01.01,0,.02,0,.03-.01.04-.06.07-.14.05-.21Z"/>
            <path class="cls-16" d="M36.75,26.27s-.03.05-.05.07c-.02.02-.04.03-.06.06,0,.01,0,.03.02.03.06,0,.12-.09.12-.14,0-.01-.02-.02-.02,0Z"/>
            <path class="cls-16" d="M36.08,28.09s-.09,0-.14,0c-.02,0-.02.02,0,.03.04.03.11.04.15.01.02,0,0-.03,0-.03Z"/>
            <path class="cls-16" d="M35.74,27.99s-.04-.04-.06-.06c-.02-.02-.02-.04-.04-.06,0,0-.02,0-.02,0-.01.06.05.13.11.14.01,0,.02-.02.01-.03Z"/>
            <path class="cls-16" d="M37.77,26.8s-.04,0-.03.02c.02.04,0,.08.03.12,0,0,.01,0,.02,0,.06-.04.02-.11-.02-.15Z"/>
            <path class="cls-16" d="M37.74,27.05s-.06-.01-.08-.02c-.03,0-.07-.01-.1-.01-.01,0-.02.02,0,.02.05.03.14.06.19.04.01,0,.02-.02,0-.03Z"/>
            <path class="cls-16" d="M34.58,27.33s-.06-.04-.09-.07c-.03-.03-.05-.07-.07-.1,0,0-.02,0-.02,0,0,.08.07.19.16.2.02,0,.02-.02.01-.03Z"/>
          </g>
        </g>
        <g>
          <g>
            <path class="cls-28" d="M40.38,26.62c-.15-.14-.44-.05-.78-.05s-.62-.1-.78.05h-.12v.43c0,.26.4.48.9.48s.9-.21.9-.48v-.43h-.12Z"/>
            <path class="cls-21" d="M39.6,26.18c-.5,0-.9.21-.9.48s.4.48.9.48.9-.21.9-.48-.4-.48-.9-.48Z"/>
            <path class="cls-14" d="M39.6,26.27c-.36,0-.65.16-.65.35s.29.35.65.35.65-.16.65-.35-.29-.35-.65-.35Z"/>
          </g>
          <path class="cls-33" d="M39.15,25.98v.54c0,.13.2.24.46.24s.46-.11.46-.24v-.54h-.91Z"/>
          <path class="cls-11" d="M40.16,25.74l-.21.02-.02.05c-.08-.04-.2-.07-.32-.07s-.24.03-.32.07l-.02-.05-.21-.02s0,.05.05.12c.06.07.05.12.05.12,0,.13.2.24.46.24s.46-.11.46-.24c0,0,0,0,0,0,0-.01,0-.06.05-.12.06-.07.05-.12.05-.12Z"/>
          <path class="cls-24" d="M39.6,25.44c-.31,0-.56.13-.56.3s.25.3.56.3.56-.13.56-.3-.25-.3-.56-.3Z"/>
          <path class="cls-11" d="M39.6,25.36c-.27,0-.49.12-.49.26s.22.26.49.26.49-.12.49-.26-.22-.26-.49-.26Z"/>
          <path class="cls-24" d="M39.6,25.17c-.31,0-.56.13-.56.3s.25.3.56.3.56-.13.56-.3-.25-.3-.56-.3Z"/>
          <path class="cls-11" d="M39.6,25.08c-.27,0-.49.12-.49.26s.22.26.49.26.49-.12.49-.26-.22-.26-.49-.26Z"/>
          <path class="cls-24" d="M40.29,24.81c0,.38-.31.68-.68.68s-.68-.31-.68-.68.31-.68.68-.68.68.31.68.68Z"/>
          <path class="cls-11" d="M39.6,23.92c-.27,0-.49.12-.49.26s.22.26.49.26.49-.12.49-.26-.22-.26-.49-.26Z"/>
          <path class="cls-24" d="M39.6,23.73c-.31,0-.56.13-.56.3s.25.3.56.3.56-.13.56-.3-.25-.3-.56-.3Z"/>
          <path class="cls-11" d="M39.6,23.66c-.27,0-.49.12-.49.26s.22.26.49.26.49-.12.49-.26-.22-.26-.49-.26Z"/>
          <path class="cls-24" d="M39.6,21.03c-.48,0-.87.38-.89.86,0,0,0,0,0,.01,0,0,0,0,0,.01,0,0,0,0,0,0h0c0,.21.02.36.21.74.08.17.16.4.21.58.06.23.07.49.07.56,0,.01,0,.03,0,.04.03.1.19.18.39.18s.38-.09.39-.19c0,0,0-.04,0-.06,0-.1.02-.33.07-.53.05-.18.13-.41.21-.58.1-.22.16-.36.18-.47.03-.08.04-.17.04-.27,0-.49-.4-.89-.89-.89Z"/>
          <path class="cls-26" d="M39.57,21.79c-.11.2-.34.29-.5.19-.16-.09-.19-.33-.08-.53.11-.2.34-.29.5-.19.16.09.19.33.08.53Z"/>
          <path class="cls-21" d="M39.33,21.57c-.07.08-.17.11-.23.06-.06-.05-.05-.16.02-.24.07-.08.17-.11.23-.06.06.05.05.16-.02.24Z"/>
        </g>
        <g>
          <polygon class="cls-21" points="36.71 42.5 45.39 47.51 59.47 39.36 50.78 34.35 36.71 42.5"/>
          <g>
            <polygon class="cls-12" points="50.22 35.45 57.49 39.64 57.95 39.38 50.68 35.18 50.22 35.45"/>
            <polygon class="cls-12" points="49.28 35.99 56.55 40.19 56.8 40.04 49.53 35.85 49.28 35.99"/>
            <polygon class="cls-12" points="48.68 36.33 55.95 40.53 56.2 40.39 48.93 36.19 48.68 36.33"/>
            <polygon class="cls-12" points="48.09 36.68 55.36 40.87 55.61 40.73 48.34 36.53 48.09 36.68"/>
            <polygon class="cls-12" points="50.03 38.19 55.01 41.07 54.76 41.22 49.78 38.34 50.03 38.19"/>
            <polygon class="cls-12" points="46.21 37.76 53.48 41.96 53.73 41.81 46.46 37.61 46.21 37.76"/>
            <polygon class="cls-12" points="45.62 38.1 52.89 42.3 53.14 42.15 45.87 37.96 45.62 38.1"/>
            <polygon class="cls-12" points="46.79 39.17 52.55 42.5 52.3 42.64 46.54 39.32 46.79 39.17"/>
            <polygon class="cls-12" points="43.75 39.18 51.02 43.38 51.27 43.23 44 39.03 43.75 39.18"/>
            <polygon class="cls-12" points="43.16 39.52 50.43 43.72 50.68 43.57 43.41 39.38 43.16 39.52"/>
            <polygon class="cls-12" points="44.37 43.09 47.95 45.15 47.7 45.3 44.12 43.23 44.37 43.09"/>
            <polygon class="cls-12" points="43.78 43.43 47.35 45.5 47.1 45.64 43.53 43.58 43.78 43.43"/>
            <polygon class="cls-12" points="44.33 40.59 50.09 43.92 49.84 44.06 44.08 40.74 44.33 40.59"/>
          </g>
          <g>
            <path class="cls-35" d="M41.31,43.49c.94,0,1.68-.41,1.68-.92s-.74-.92-1.68-.92-1.68.41-1.68.92.74.92,1.68.92ZM41.31,41.77c.86,0,1.56.36,1.56.8s-.7.8-1.56.8-1.56-.36-1.56-.8.7-.8,1.56-.8Z"/>
            <path class="cls-35" d="M41.31,42.05c.54,0,.98.23.98.52s-.44.52-.98.52-.98-.23-.98-.52.44-.52.98-.52Z"/>
          </g>
        </g>
        <g>
          <g>
            <polygon class="cls-21" points="46.56 48.43 55.28 53.46 69.41 45.28 60.69 40.25 46.56 48.43"/>
            <g>
              <polygon class="cls-12" points="60.13 41.35 67.42 45.56 67.89 45.29 60.59 41.08 60.13 41.35"/>
              <polygon class="cls-12" points="59.18 41.89 66.48 46.11 66.73 45.96 59.43 41.75 59.18 41.89"/>
              <polygon class="cls-12" points="58.58 42.24 65.88 46.45 66.13 46.31 58.83 42.09 58.58 42.24"/>
              <polygon class="cls-12" points="57.99 42.58 65.28 46.8 65.53 46.65 58.24 42.44 57.99 42.58"/>
              <polygon class="cls-12" points="59.93 44.11 64.94 47 64.69 47.14 59.68 44.25 59.93 44.11"/>
              <polygon class="cls-12" points="56.1 43.67 63.4 47.88 63.65 47.74 56.36 43.52 56.1 43.67"/>
              <polygon class="cls-12" points="55.51 44.01 62.8 48.23 63.06 48.08 55.76 43.87 55.51 44.01"/>
              <polygon class="cls-12" points="56.68 45.09 62.46 48.43 62.21 48.57 56.43 45.24 56.68 45.09"/>
              <polygon class="cls-12" points="53.63 45.1 60.93 49.31 61.18 49.16 53.89 44.95 53.63 45.1"/>
              <polygon class="cls-12" points="53.04 45.44 60.34 49.65 60.59 49.51 53.29 45.29 53.04 45.44"/>
              <polygon class="cls-12" points="53.66 49.37 57.25 51.44 56.99 51.58 53.41 49.51 53.66 49.37"/>
              <polygon class="cls-12" points="54.21 46.52 59.99 49.85 59.74 50 53.96 46.66 54.21 46.52"/>
            </g>
          </g>
          <path class="cls-28" d="M69.41,45.28l-3.28-1.96s-.49,1.37.6,1.96c1.09.59,2.23.21,2.68,0Z"/>
          <path class="cls-4" d="M69.41,45.28s-1.33.42-2.39-.12c-.12-.06-.36-.34-.42-.44-.48-.79.29-1.95,2.17-1.4,1.88.55,3.77-.18,4.41-.57.93-.56,1.47-1.21,1.47-1.21l-7.69-4.4s-3.08,1.19-6.12,1.18c-.99,0-1.95,1.14-1.81,1.92.15.83.59,1.26,1.3,1.69,1.35.82,4.45,2.75,6.71,3.64,1.19.46,2.37-.28,2.37-.28Z"/>
        </g>
        <g>
          <path class="cls-12" d="M74.6,16.9c1.85.29,2.97.63,4.27,3.6,1.22,2.79.29,3.99.88,5.87.59,1.88.35,2.34.51,3.86.17,1.52-.24,1.73-.81,2.19-.47.37.18.83-3.47,2.51-2.34,1.07-3.92.76-3.92.76l-1.25-2.98s-.47.01,1.18-1.51c1.86-1.72,3.25-1.96,3.25-1.96,0,0-.68-2.24-1.61-4.26-.93-2.01-.34-7.51.96-8.08Z"/>
          <path class="cls-38" d="M70.82,32.69s.94-.29,1.45.93c.37.9.13,1.69-.2,2.05-.5,0-1.25.17-1.76.54-1.15.84-2.52,2.46-3.54,2.95-1.47.71-1.86-.23-1.98-1.1-.12-.87.61-1.55,1.27-2.06.71-.56,1.15-1.01.9-1.17-.17-.1-.99.25-1.56,0-.59-.26-.34-.69.63-.76.49-.04.72-.37,1.66-.5.73-.09.95.27,1.18.15.77-.39,1.54-.73,1.96-1.04Z"/>
        </g>
        <g>
          <path class="cls-28" d="M17.23,12.58c.03-3.65-3.51-8.65-7.9-11.16C6.59-.15,4.16-.38,2.71.55h0s0,0,0,0c0,0,0,0,0,0l-1.68,1.13s.3,1.03.24,1.12c0,.01.04-.01.12-.06-.04.23-.06.47-.06.72-.03,3.65,3.51,8.65,7.9,11.16,1.55.89,3,1.34,4.23,1.4l.28.3h-.01s1.34,3.66,1.34,3.66l1.31-.81-.59-3.66c.9-.56,1.44-1.55,1.45-2.95Z"/>
          <path class="cls-22" d="M15.92,13.42c-.03,3.65-3.62,4.58-8.02,2.06C3.51,12.98-.03,7.98,0,4.33.03.67,3.62-.25,8.02,2.26c4.4,2.51,7.93,7.51,7.9,11.16Z"/>
          <polygon class="cls-22" points="11.58 16.29 15.06 20 14.28 15.24 11.58 16.29"/>
        </g>
      </g>
      <g>
        <g>
          <path class="cls-28" d="M174.02,73.46c-1.71-1.16-3.52-2.2-5.23-3.29-1-.63-2.06-1.57-3.18-1.95-.45-.15-1-.15-1.27.32-.33.56.06.87.5,1.13,1.22.7,2.46,1.37,3.69,2.07,1.83,1.05,3.64,2.15,5.43,3.27l.07-1.55Z"/>
          <path class="cls-28" d="M162.93,69.74c-.25-.48-.79-.52-1.25-.4-1.14.31-2.26,1.18-3.3,1.75-2.25,1.23-4.65,2.38-6.81,3.8l-.02,1.44c2.31-1.27,4.64-2.5,7-3.67,1.26-.63,2.54-1.21,3.81-1.84.46-.23.87-.52.57-1.09Z"/>
          <path class="cls-22" d="M164.86,57.57c0-1.91.38-9.89.67-11.93.27-1.91.63-3.78.97-5.67.2-1.15,1.66-7.06-.17-6.15-.7.35-1.12,1.51-1.4,2.59-.41,1.62-.68,3.39-.89,5.11-.47,3.77-.79,11.89-.45,15.72-.01.34,1.27.34,1.27.32Z"/>
          <path class="cls-13" d="M175.15,51.9c.2-1.44.54-2.86.83-4.29.34-1.68.74-3.29,1.4-4.88.1-.23.21-.46.32-.68-.62-.43-5.58-3.48-7.74-4.6-2.81-1.45-3.47-1.79-3.7-1.33-1.29,2.52-2.01,6.73-2.06,9.55,0,.3,0,.76,1.59,1.55,3.17,1.57,8.73,5.18,9.29,5.4.02-.14.06-.58.08-.72Z"/>
          <path class="cls-29" d="M176.95,42.72c-.1-.91-10.77-6.77-11.63-6.62-1.41.24-2.97,7.17-1.56,8.65,1.32,1.38,9.15,5.92,11.17,6.67.15.06.33-.06.37-.21.39-1.53.74-3.07,1.04-4.63.23-1.17.74-2.67.6-3.86Z"/>
          <path class="cls-15" d="M175.76,41.8c-1.01-.98-1.98,2.58-2.1,3.08-.38,1.66-1.31,5.21.61,6.37.37.22.65.2.9-.18.31-.49.28-1.35.37-1.91.12-.77.25-1.55.38-2.32.2-1.27.65-2.7.62-3.98-.01-.55-.29-.97-.77-1.04Z"/>
          <path class="cls-22" d="M174,63.89h1.26s.16-.62.16-.64c.01-1.68.72-9.3,1.01-11.33.27-1.91.63-3.78.97-5.67.2-1.15,1.66-7.06-.17-6.15-.7.35-1.12,1.51-1.4,2.59-.41,1.62-.68,3.39-.89,5.11-.47,3.77-1.26,10.92-.92,14.74-.01.34-.03,1.09-.02,1.34Z"/>
          <path class="cls-22" d="M175.81,73.69c-.13-3.73-.42-7.42-.87-11.06-.02-.15-.13-.21-.21-.15-.29.21-.58.42-.87.63-.04.03-.06.07-.07.11-.04-.14-.18-.13-.19.05-.27,3.88-.32,7.8-.45,11.69-.06,1.77-.74,4.66,1.58,4.64,1.74-.02,1.15-4.2,1.09-5.91Z"/>
          <path class="cls-22" d="M150.22,74.87c.13-3.73.42-7.42.87-11.06.02-.15.13-.21.21-.15.29.21.58.42.87.63.04.03.06.07.07.11.04-.14.18-.13.19.05.27,3.88.32,7.8.45,11.69.06,1.77.74,4.66-1.58,4.64-1.74-.02-1.15-4.2-1.09-5.91Z"/>
          <path class="cls-28" d="M174.39,75.33c-.25-.48-.79-.52-1.25-.4-1.14.31-2.26,1.18-3.3,1.75-2.25,1.23-4.65,2.38-6.81,3.8l-.02,1.44c2.31-1.27,4.64-2.5,7-3.67,1.26-.63,2.54-1.21,3.81-1.84.46-.23.87-.52.57-1.09Z"/>
          <path class="cls-28" d="M161.48,80.29c-1.71-1.16-3.52-2.2-5.23-3.29-1-.63-2.06-1.57-3.18-1.95-.45-.15-1-.15-1.27.32-.33.56.06.87.5,1.13,1.22.7,2.46,1.37,3.69,2.07,1.83,1.05,3.64,2.15,5.43,3.27l.07-1.55Z"/>
          <path class="cls-22" d="M163.03,70.25l-1.48-1.23c-.26,3.87-.64,9.16-.77,13.04-.06,1.77-.74,4.66,1.58,4.64,1.74-.02,1.15-4.2,1.09-5.91-.13-3.5-.02-7.11-.42-10.54Z"/>
          <g>
            <path class="cls-28" d="M175.53,62.34h-1.27l-8.08-4.66c-1.08-.62-2.98-.54-4.22.18l-9.42,5.41-1.78.17v1.5c0,.06.01.12.01.18v.15s0,0,0,0c.06.33.3.63.71.87l8.63,4.98c1.08.62,2.98.54,4.22-.18l10.17-5.84c.73-.42,1.06-.97,1.01-1.47h.02s-.04-1.12,0-1.28Z"/>
            <path class="cls-13" d="M160.11,69.47l-8.63-4.98c-1.08-.62-.94-1.72.3-2.44l10.17-5.79c1.25-.72,3.15-.8,4.22-.18l8.63,4.98c1.08.62.94,1.72-.3,2.44l-10.17,5.79c-1.25.72-3.15.8-4.22.18Z"/>
          </g>
          <g>
            <path class="cls-29" d="M157.01,65c2,1.08,4.29,2.84,6.66,2.08,2.08-.67,4.07-2.14,5.91-3.28,1.28-.79,2.5-1.6,3.45-2.69-.64-.91-1.81-1.69-2.52-2.19-1.98-1.41-7.2-4.01-7.9-3.96-.31.03-.63.09-.96.17-1.29.33-2.63,1.04-3.76,1.55-1.65.74-3.24,1.64-4.63,2.8-.45.37-1.02.8-1.34,1.31.08,2.16,3.48,3.35,5.08,4.22Z"/>
            <path class="cls-15" d="M151.98,63.73c1.25.92,3.53,1.87,4.66,2.56,1.2.73,3.6,2.42,4.91,2.73.83.19,2.32-.2,3.33-.71,1.5-.77,2.95-1.67,4.41-2.52,1.19-.69,2.9-1.3,3.78-2.4.64-.8.47-1.59-.03-2.3-.95,1.09-2.18,1.9-3.45,2.69-1.84,1.14-3.83,2.62-5.91,3.28-2.38.76-4.66-.99-6.66-2.08-1.6-.87-5-2.06-5.08-4.22-.04.06-.07.12-.1.18-.3.66-.5,2.29.15,2.77Z"/>
          </g>
          <path class="cls-35" d="M162.27,61.75c-.3-1.19.19-2.13.34-3.26.47-3.44-5.64-.42-6.28.09-.72.57-2.42,1.7-2.37,2.79.06,1.15,2.02,2.02,2.86,2.45,1.27.66,3.12,1.67,4.58,1.66.88-.01,1.65-.83,1.62-1.83-.02-.69-.59-1.24-.75-1.9Z"/>
          <path class="cls-35" d="M168.43,37.87c-1.12-.66-2.84-1.66-3.44-1.26-.49.33.55.79,1.03,1.11.91.61,1.87,1.16,2.84,1.67,1.77.93,3.19,1.65,5.06,2.35.57.21.95-.21.44-.53-1.38-.85-4.14-2.29-5.93-3.34Z"/>
        </g>
        <g>
          <path class="cls-12" d="M150.32,76.53c-.65.71-1.37,1.51-2.04,2.21-.9.95-1.96,1.95-2.93,2.82-1.19,1.06-1.28,2.35.67,2.24,3.16-.18,3.9-1.5,5.36-2.62.2-.16.54.22,1.34-.1,1.01-.41,1.14-.57,1.14-1.58,0-.64-.11-1.96-.4-2.63.01-.01.02-.02.03-.03.16-.18-2.31-1.26-3.17-.31Z"/>
          <path class="cls-12" d="M156.41,83.35c-.65.71-1.37,1.51-2.04,2.21-.9.95-1.96,1.95-2.93,2.82-1.19,1.06-1.28,2.35.67,2.24,3.16-.18,3.9-1.5,5.36-2.62.2-.16.54.22,1.34-.1,1.01-.41,1.14-.57,1.14-1.58,0-.64-.11-1.96-.4-2.63.01-.01.02-.02.03-.03.16-.18-2.31-1.26-3.17-.31Z"/>
          <path class="cls-6" d="M169.67,52.84c-.26-.55-6.32-2.57-6.16-2.5-4.85,1.83-10.74,3.86-14.81,7.36-.75.12-1.51.37-1.47,1.76.03,1.07.66,2.93.83,4.01.62,3.77,1.4,9.87,1.7,13.68.64,1.14,2.53,1.14,3.74.28.37-2.73.5-6.39.97-8.57.61-2.88-.39-4.29-1.28-5.83,2.39.09,7.55-2.59,9.86-3.24,2.8-.78,3.58-.81,5.66-2.94,1.43-1.46,1.93-1.96.96-4.01Z"/>
          <path class="cls-2" d="M169.44,53.23c-1.5.04-3.16.14-4.63-.3-.15.21-.3.42-.42.66-.54,1.09-1.03,1.91-.62,3.15-.73,1.03-4.01,5.07-4.6,6.3-.76.75-1.16,1.18-1.07,2.91.11,1.96-.03,2.86-.25,5.05-.43,4.2-1.17,7.75-1.48,11.96.98,1.5,2.29,1.57,3.58.38,1.26-3.91,3.72-6.63,3.98-10.05.17-2.26.21-3.97-.8-5.41,4.15-2.28,9.47-3.56,11.76-7.9,1.48-2.81.76-4.9-.76-7.78-1.39.85-2.99.97-4.69,1.01Z"/>
        </g>
        <g>
          <path class="cls-32" d="M172.27,35.48c-.57.53-1.09.9-1.86,1.11-.84.23-2.63,2.98-3.19,2.17-.24-.35-.42-2.38-.51-2.79.25-.11.79-1.51.83-1.71.07-.36.44-.7.38-1.07-.09-.51-.2-1.03-.25-1.55.75-.41,1.41-.96,2.27-1.16.47-.11,1.12-1.43,1.56-1.67-.3,1.13.07,2.74.21,3.4.15.76.27,1.08.8,1.85-.19.06-.02,1.23-.22,1.42Z"/>
          <path class="cls-21" d="M162.34,50.42c.75-1.48,2.12-2.25,2.58-3.87.47-1.69-.05-3.52-.55-5.14-.05-.18.09-.35.27-.35,3.03-.12,5.74,1.1,8.62,1.84.02,0,.03.02.04.03.05-.04.1-.08.16-.12.08-.05.21.06.14.14-.81,1.07-1.5,2.12-1.69,3.44.05,1.82,2.87,5.61,3.06,6.46-1.29,1.43-4.93,2.5-8.06,1.43-2.22-.58-4.58-2.26-4.58-3.85Z"/>
          <path class="cls-8" d="M167.66,31.64s-2.9-.46-4.04,1.15c-1.14,1.61-2.36,4.73-2.78,5.57-1.13-.45-2.29-.36-3.77-.65-1.79-.35-3.08-.98-4.11-.98.21.75-.55,2.85-.55,2.85,0,0,3.79,2.22,6.28,3.04.72.23,1.62.33,2.2.39.76.08,1.39.16,1.9-.54,1.24-1.71,3.25-3.73,3.25-3.73l1.62-7.08Z"/>
          <path class="cls-21" d="M167.09,35.67s1.28.97,3.29.61c2.01-.36-1.2,5.6-2.85,4.76-1.66-.84-.44-5.37-.44-5.37Z"/>
          <path class="cls-34" d="M164.06,35.97c.62-1.16,1.54-2.35,2.4-3.33.06-.06,1.65.56,1.99.13,0,.47-.42,1.26-.79,2.35-.25.74-1.03,3.18-.59,4.9,1.71-1.97,5-5.68,5.43-5.98.61.59,1.99,1.23,2.74,1.68.32.19.55.85.54,1.03-.05.65-.26,4.12-1.02,5.34-.63.78-1.9,1.93-2.26,3.38-.47,1.89,1.74,5.1,3.03,7.51-1.26,1.01-3.83,3.06-6.48,3.06-.89,0-1.78-.15-2.62-.39-.05-.97-.14-2.89-.39-3.45-.46.92-1.16,1.8-1.67,2.67-2.18-1.03-3.81-2.43-4.17-2.8.88-1.68,2.67-3.68,3.42-6.64.52-2.04-.73-5.04-.83-5.8-.21-1.57.83-2.84,1.27-3.68Z"/>
          <path class="cls-8" d="M167.74,32.3c-.94,1.02-1.97,2.57-1.97,2.57,0,0,.47.87,1.03,1.41-.89.35-1.63,1.1-1.63,1.1l1.91,2.65s.52-3.91.93-5.55c.41-1.64.64-2.18.64-2.18,0,0-.7-.09-.91,0Z"/>
          <path class="cls-8" d="M172.38,33.4s-1.52,1.19-2.47,2.21c-1.92,2.05-2.84,4.42-2.84,4.42l3.71-1.41s-.13-.88-.68-1.56c1.15-.03,3.76-1.31,3.62-2.24-.13-.93-1.34-1.43-1.34-1.43Z"/>
          <path class="cls-5" d="M163.48,27.88c.35-.28,1.1-.51,1.37,0,0,0,0,0,0,.01.89.56,2.14,1.37,2.55,2.32.38.88-.11,2.04-.94,2.44-1.5.73-2.7-.9-2.54-2.02-.03,0-.06-.01-.09-.02-.52-.15-.96-.58-1.03-1.13-.08-.57.25-1.24.69-1.6Z"/>
          <path class="cls-38" d="M164.37,27.18c.05-1.2.31-2.71,1.24-3.57.91-.85,2.48-.93,3.67-.85,1.84.13,3.13,2.16,2.81,4.52-.3,2.17-1.75,5.52-4.18,5.98-2.7.5-3.62-4.24-3.54-6.07Z"/>
          <path class="cls-38" d="M169.86,28.01s.78-1.26,1.35-.48c.57.78.04,2.38-.67,2.34s-.67-1.86-.67-1.86Z"/>
          <path class="cls-34" d="M169.4,48.85l-.52,1.39s.97.45,1.75.79c1.18.5,2.27.61,2.27.61l.26-1.14s-2.1-.77-3.77-1.64Z"/>
          <path class="cls-5" d="M164.5,22.54c1.04-1.15,2.6-1.65,3.73-.79,1.35-1.41,4.04-1.02,5.41.58.99,1.16,1.34,2.75,1.34,4.25,0,.79.09,2.23-.57,2.86.44.01.88.38,1.14.71.41.51.54,1.2.36,1.83-.21.77-1.36,1.71-2.08,1.25-.47.87-1.41,1.37-2.43.76-.58-.35-.99-.97-1.15-1.62-.11-.45-.18-1.07-.08-1.59-.35-.23-.63-.67-.74-1.01-.1-.29-.21-1.07-.1-1.61-.49,0-1.07-.35-1.43-.59-.46-.3-.88-.68-1.14-1.14-.54.6-1.69.84-2.61.67-.69-1.59-.85-3.24.34-4.55Z"/>
          <path class="cls-21" d="M167.07,41.06c0,.24-.18.43-.39.42-.21,0-.36-.21-.36-.45,0-.24.18-.43.39-.42.21,0,.36.21.36.45Z"/>
          <path class="cls-21" d="M167.09,45.55c0,.24-.18.43-.39.42-.21,0-.36-.21-.36-.45,0-.24.18-.43.39-.42.21,0,.36.21.36.45Z"/>
          <path class="cls-21" d="M166.52,50.26c0,.24-.18.43-.39.42-.21,0-.36-.21-.36-.45s.18-.43.39-.42c.21,0,.36.21.36.45Z"/>
          <path class="cls-8" d="M162.83,47.61s.59-.02,1.32-.15c-.15.64-.41,1.28-.41,1.28h-1.47l.56-1.12Z"/>
          <path class="cls-38" d="M153.29,36.88c-.67-.32-1.39-.69-2.14-.94-.64-.32-1.78-.9-2.28-1.28-.71-.54-.99.01-.63.56.06.1.27.32.49.56-1.46.3-2.14.61-3.77.47-1.69-.14-.6,1.7.75,2.48,1.16.67,3.69-.88,4.54-.48,1.02.48,2.4,1.5,2.4,1.5,0,0,1.15-.87.63-2.87Z"/>
        </g>
        <g>
          <g>
            <path class="cls-35" d="M156.03,104.81c6.95,3.54,12.57,3.73,17.8-.91,4.95-4.4,4.51-10.66,4.24-16.66-3.97,3.14-8.57,6.38-13.9,5.09-2.56-.62-5-1.94-7.33-3.14-2.54-1.31-5.03-2.73-7.48-4.2-5.15-3.1-10.2-6.37-15.28-9.58-4.43-2.8-21.32-13.9-27.23-17.87v19.77c4.32,2.71,10.29,5.67,15.06,8.51,5.25,3.13,28.26,16.01,34.11,18.99Z"/>
            <path class="cls-29" d="M106.86,77.75c.03,1.26.95,2.58,2.73,3.61l50.16,28.98c3.31,1.91,8.37,2.12,11.24.47l13.12-7.52c1.31-.76,1.94-1.78,1.93-2.84h0v-24.18l-79.2-22.69v3.97c5.91,3.97,22.8,15.07,27.23,17.87,5.08,3.21,10.13,6.48,15.28,9.58,2.45,1.47,4.93,2.89,7.48,4.2,2.33,1.2,4.77,2.52,7.33,3.14,5.33,1.29,9.92-1.96,13.9-5.09.26,6,.7,12.26-4.24,16.66-5.23,4.65-10.85,4.45-17.8.91-5.85-2.98-28.86-15.86-34.11-18.99-4.78-2.85-10.74-5.81-15.06-8.51v.44h0Z"/>
          </g>
          <path class="cls-28" d="M186.92,77.13s.04-.05.05-.08c2.33-3.96.27-9.06.27-9.06l-3.3,3.39-50.28-29.03c-3.64-2.1-9.2-2.33-12.36-.51l-11.93,6.89-3.66-3.76s-1.66,4.95,0,8.78c0,.02.01.03.02.04.36,1.09,1.31,2.16,2.84,3.04l50.66,29.25c3.64,2.1,9.2,2.33,12.36.51l13.61-7.86c.71-.41,1.23-.89,1.58-1.42.01-.02.02-.03.04-.05.03-.05.06-.09.09-.14Z"/>
          <path class="cls-22" d="M184.32,64.67l-50.66-29.25c-3.64-2.1-9.2-2.33-12.36-.51l-13.61,7.86c-3.15,1.82-2.76,5.03.89,7.14l50.66,29.25c3.64,2.1,9.2,2.33,12.36.51l13.61-7.86c3.15-1.82,2.76-5.03-.89-7.14Z"/>
          <g>
            <path class="cls-15" d="M156.81,86.1c-.73-.17-1.62-.39-2.37-.34-.2.01-.24.28-.05.34.72.25,1.62.26,2.37.28.16,0,.2-.25.04-.28Z"/>
            <path class="cls-19" d="M168,94.74c-.32-1.13-1.79-.9-1.91.02-.37,2.73-.04,6.91.3,9.63.06.51,1.02.31,1.07-.04.23-1.6.88-8.44.54-9.61Z"/>
            <path class="cls-19" d="M109.86,63.23c-.03-.75-.07-1.61-.91-1.84-.2-.06-.4.1-.41.31-.04,2.04-.04,4.47.15,6.5.06.62.62.53.71.31.54-1.36.53-3.83.46-5.28Z"/>
            <path class="cls-15" d="M184.02,99.06c-.21.52-.42,1.04-.66,1.55-.19.42-.43.83-.5,1.29-.02.14.13.25.25.14.73-.67,1.03-1.96,1.25-2.9.05-.22-.25-.29-.33-.09Z"/>
            <path class="cls-15" d="M182.11,102.6c-.2-.49-.74-.84-1.17-1.12-.13-.09-.24.1-.16.2.31.39.7.9,1.19,1.05.07.02.16-.06.13-.13Z"/>
            <path class="cls-15" d="M183.48,90.04c.33-.41.39-1.05.43-1.56.01-.16-.2-.16-.25-.04-.2.46-.46,1.04-.36,1.55.01.07.13.12.18.05Z"/>
            <path class="cls-15" d="M183.59,81.06c-.49.4-1,.75-1.54,1.08-.45.27-.94.48-1.35.8-.15.12.02.34.18.3,1.09-.27,2.14-1.2,2.96-1.94.17-.15-.08-.38-.25-.25Z"/>
            <path class="cls-15" d="M178.89,84.09c-.22-.12-.4.19-.19.33.35.24.58.59.91.84.11.09.27,0,.24-.14-.1-.5-.53-.81-.96-1.04Z"/>
            <path class="cls-15" d="M166.53,110.23c-.28-.24-.62-.38-.94-.55-.35-.19-.67-.42-1-.65-.1-.07-.23.07-.16.16.43.6,1.25,1.28,2.03,1.21.08,0,.15-.12.08-.18Z"/>
            <path class="cls-15" d="M145.58,80.33c-.28-.24-.62-.38-.94-.55-.35-.19-.67-.42-1-.65-.1-.07-.23.07-.16.16.42.6,1.25,1.28,2.03,1.21.08,0,.15-.12.08-.18Z"/>
            <path class="cls-15" d="M167.84,108.18c-.04-.06-.13-.08-.18-.02-.19.2-.21.49-.25.76-.04.28-.09.51.06.76.05.08.17.1.23.03.19-.22.2-.45.22-.73.02-.27.06-.56-.08-.8Z"/>
            <path class="cls-15" d="M184.07,92.99c-.04-.06-.13-.08-.18-.02-.19.2-.21.49-.25.76-.04.28-.09.51.06.76.04.08.17.1.23.03.19-.22.2-.45.22-.73.02-.27.06-.56-.08-.8Z"/>
            <path class="cls-15" d="M171.6,108.27c-.26,0-.52.06-.77.1-.31.04-.62.07-.94.08-.13,0-.18.22-.03.25.57.1,1.3.16,1.83-.1.17-.08.08-.33-.09-.33Z"/>
            <path class="cls-15" d="M183.69,91.65c-.21-.15-.47-.23-.7-.33-.28-.13-.56-.28-.83-.44-.12-.07-.27.09-.16.19.43.39,1,.84,1.59.91.19.02.24-.24.1-.33Z"/>
            <path class="cls-15" d="M168.85,88.45c-.6.25-1.14.59-1.79.76-.57.14-1.2.07-1.73.31-.1.04-.09.2,0,.25,1,.54,2.95-.31,3.64-1.1.07-.09,0-.27-.12-.21Z"/>
            <path class="cls-15" d="M163.04,89.26c-.14-.26-.46-.35-.69-.51-.28-.21-.46-.5-.72-.72-.08-.07-.23-.03-.22.09.05.58.96,1.6,1.59,1.33.07-.03.08-.13.05-.19Z"/>
            <path class="cls-15" d="M108.84,78.53c-.21-.52-.32-1.07-.51-1.59-.06-.16-.29-.14-.3.04-.04.58.13,1.18.34,1.72.18.45.36.95.8,1.21.07.04.18-.01.17-.1-.04-.47-.33-.85-.5-1.27Z"/>
            <path class="cls-15" d="M111.09,78.84c-.18.17-.3.39-.43.6-.13.21-.28.42-.31.67-.03.19.17.33.33.19.19-.17.29-.4.4-.62.11-.22.23-.45.28-.68.03-.15-.15-.27-.27-.16Z"/>
            <path class="cls-15" d="M159.84,105.09c-.42.18-.8.42-1.23.58-.36.14-.73.22-1.05.44-.07.05-.08.19.03.21.81.15,1.87-.45,2.4-1.03.1-.11-.03-.26-.16-.2Z"/>
            <path class="cls-15" d="M144.06,98.89c-.26-.37-.56-.71-.8-1.1-.2-.33-.35-.67-.63-.95-.06-.06-.2-.04-.2.07,0,.82.79,1.76,1.46,2.17.13.08.25-.07.17-.19Z"/>
            <path class="cls-15" d="M155.3,105.33c-.47-.25-.97-.39-1.44-.64-.46-.25-.89-.56-1.34-.84-.09-.06-.21.06-.15.15.58.86,1.79,1.63,2.84,1.62.15,0,.22-.22.08-.3Z"/>
            <path class="cls-15" d="M137.46,95.28c-.47-.25-.97-.39-1.44-.64-.46-.25-.89-.56-1.34-.84-.09-.06-.21.06-.15.15.58.86,1.79,1.63,2.84,1.62.15,0,.22-.22.08-.3Z"/>
          </g>
        </g>
        <g>
          <polygon class="cls-4" points="134.1 58.5 128.01 51.3 144.69 45.75 150.78 52.96 134.1 58.5"/>
          <polygon class="cls-21" points="133.64 61.9 127.56 54.7 144.24 49.15 150.33 56.36 133.64 61.9"/>
        </g>
        <g>
          <path class="cls-28" d="M96.21,85.48c1.71-1.16,3.52-2.2,5.23-3.29,1-.63,2.06-1.57,3.18-1.95.45-.15,1-.15,1.27.32.33.56-.06.87-.5,1.13-1.22.7-2.46,1.37-3.69,2.07-1.83,1.05-3.64,2.15-5.43,3.27l-.07-1.55Z"/>
          <path class="cls-28" d="M107.3,81.76c.25-.48.79-.52,1.25-.4,1.14.31,2.26,1.18,3.3,1.75,2.25,1.23,4.65,2.38,6.81,3.8l.02,1.44c-2.31-1.27-4.64-2.5-7-3.67-1.26-.63-2.54-1.21-3.81-1.84-.46-.23-.87-.52-.57-1.09Z"/>
          <path class="cls-28" d="M105.37,69.59c0-1.91-.38-9.89-.67-11.93-.27-1.91-.63-3.78-.97-5.67-.2-1.15-1.66-7.06.17-6.15.7.35,1.12,1.51,1.4,2.59.41,1.62.68,3.39.89,5.11.47,3.77.79,11.89.45,15.72.01.34-1.27.34-1.27.32Z"/>
          <path class="cls-13" d="M95.08,63.93c-.2-1.44-.54-2.86-.83-4.29-.34-1.68-.74-3.29-1.4-4.88-.1-.23-.21-.46-.32-.68.62-.43,5.58-3.48,7.74-4.6,2.81-1.45,3.47-1.79,3.7-1.33,1.29,2.52,2.01,6.73,2.06,9.55,0,.3,0,.76-1.59,1.55-3.17,1.57-8.73,5.18-9.29,5.4-.02-.14-.06-.58-.08-.72Z"/>
          <path class="cls-29" d="M93.28,54.75c.1-.91,10.77-6.77,11.63-6.62,1.41.24,2.97,7.17,1.56,8.65-1.32,1.38-9.15,5.92-11.17,6.67-.15.06-.33-.06-.37-.21-.39-1.53-.74-3.07-1.04-4.63-.23-1.17-.74-2.67-.6-3.86Z"/>
          <path class="cls-15" d="M94.48,53.82c1.01-.98,1.98,2.58,2.1,3.08.38,1.66,1.31,5.21-.61,6.37-.37.22-.65.2-.9-.18-.31-.49-.28-1.35-.37-1.91-.12-.77-.25-1.55-.38-2.32-.2-1.27-.65-2.7-.62-3.98.01-.55.29-.97.77-1.04Z"/>
          <path class="cls-22" d="M96.24,75.92h-1.26s-.16-.62-.16-.64c-.01-1.68-.72-9.29-1.01-11.33-.27-1.91-.63-3.78-.97-5.67-.2-1.15-1.66-7.06.17-6.15.7.35,1.12,1.51,1.4,2.59.41,1.62.68,3.39.89,5.11.47,3.77,1.26,10.92.92,14.74.01.34.03,1.09.02,1.34Z"/>
          <path class="cls-22" d="M94.42,85.72c.13-3.73.42-7.42.87-11.06.02-.15.13-.21.21-.15.29.21.58.42.87.63.04.03.06.07.07.11.04-.14.18-.13.19.05.27,3.88.32,7.8.45,11.69.06,1.77.74,4.66-1.58,4.64-1.74-.02-1.15-4.2-1.09-5.91Z"/>
          <path class="cls-22" d="M120.01,86.9c-.13-3.73-.42-7.42-.87-11.06-.02-.15-.13-.21-.21-.15-.29.21-.58.42-.87.63-.04.03-.06.07-.07.11-.04-.14-.18-.13-.19.05-.27,3.88-.32,7.8-.45,11.69-.06,1.77-.74,4.66,1.58,4.64,1.74-.02,1.15-4.2,1.09-5.91Z"/>
          <path class="cls-28" d="M95.85,87.35c.25-.48.79-.52,1.25-.4,1.14.31,2.26,1.18,3.3,1.75,2.25,1.23,4.65,2.38,6.81,3.8l.02,1.44c-2.31-1.27-4.64-2.5-7-3.67-1.26-.63-2.54-1.21-3.81-1.84-.46-.23-.87-.52-.57-1.09Z"/>
          <path class="cls-28" d="M108.76,92.31c1.71-1.16,3.52-2.2,5.23-3.29,1-.63,2.06-1.57,3.18-1.95.45-.15,1-.15,1.27.32.33.56-.06.87-.5,1.13-1.22.7-2.46,1.37-3.69,2.07-1.83,1.05-3.64,2.15-5.43,3.27l-.07-1.55Z"/>
          <path class="cls-22" d="M107.2,82.28l1.48-1.23c.26,3.87.64,9.16.77,13.04.06,1.77.74,4.66-1.58,4.64-1.74-.02-1.15-4.2-1.09-5.91.13-3.5.02-7.11.42-10.54Z"/>
          <g>
            <path class="cls-28" d="M94.7,74.36h1.27l8.08-4.66c1.08-.62,2.98-.54,4.22.18l9.42,5.41,1.78.17v1.5c0,.06-.01.12-.01.18v.15s0,0,0,0c-.06.33-.3.63-.71.87l-8.63,4.98c-1.08.62-2.98.54-4.22-.18l-10.17-5.84c-.73-.42-1.06-.97-1.01-1.47h-.02s.04-1.12,0-1.28Z"/>
            <path class="cls-13" d="M110.12,81.49l8.63-4.98c1.08-.62.94-1.72-.3-2.44l-10.17-5.79c-1.24-.72-3.15-.8-4.22-.18l-8.63,4.98c-1.08.62-.94,1.72.3,2.44l10.17,5.79c1.24.72,3.15.8,4.22.18Z"/>
          </g>
          <g>
            <path class="cls-29" d="M113.22,77.02c-2,1.08-4.29,2.84-6.66,2.08-2.08-.67-4.07-2.14-5.91-3.28-1.28-.79-2.5-1.6-3.45-2.69.64-.91,1.81-1.69,2.52-2.19,1.98-1.41,7.2-4.01,7.9-3.96.31.03.63.09.96.17,1.29.33,2.63,1.04,3.76,1.55,1.65.74,3.24,1.64,4.63,2.8.45.37,1.02.8,1.34,1.31-.08,2.16-3.48,3.35-5.08,4.22Z"/>
            <path class="cls-15" d="M118.25,75.75c-1.25.92-3.53,1.87-4.66,2.56-1.2.73-3.6,2.42-4.91,2.73-.83.19-2.32-.2-3.33-.71-1.5-.77-2.95-1.67-4.41-2.52-1.19-.69-2.9-1.3-3.78-2.4-.64-.8-.47-1.59.03-2.3.95,1.09,2.18,1.9,3.45,2.69,1.84,1.14,3.83,2.62,5.91,3.28,2.38.76,4.66-.99,6.66-2.08,1.6-.87,5-2.06,5.08-4.22.04.06.07.12.1.18.3.66.5,2.29-.15,2.77Z"/>
          </g>
          <path class="cls-35" d="M107.96,73.77c.3-1.19-.18-2.13-.34-3.26-.47-3.44,5.64-.42,6.28.09.72.57,2.42,1.7,2.37,2.79-.06,1.15-2.02,2.02-2.86,2.45-1.27.66-3.12,1.67-4.58,1.65-.88-.01-1.65-.83-1.62-1.83.02-.69.59-1.24.75-1.9Z"/>
          <path class="cls-35" d="M101.8,49.9c1.12-.66,2.84-1.66,3.44-1.26.49.33-.55.79-1.03,1.11-.91.61-1.87,1.16-2.84,1.67-1.77.93-3.19,1.65-5.06,2.35-.57.21-.95-.21-.44-.53,1.38-.85,4.14-2.29,5.93-3.34Z"/>
        </g>
        <path class="cls-38" d="M175.93,50.48s.96-1.16,1.72-.11c.56.77.14,1.01-.09,1.42-.47.11-1.17.68-1.41,1.57-.36,1.34-1.76,3.48-2.61,4.17-1.23,1-1.82.2-2.13-.6-.31-.8.23-1.61.74-2.24.55-.69.86-1.22.59-1.31-.18-.06-.88.46-1.48.35-.62-.12-.48-.58.43-.86.46-.14.6-.52,1.46-.84.67-.25.96.05,1.15-.12.64-.55,1.29-1.04,1.63-1.42Z"/>
        <path class="cls-8" d="M174.26,35.19s1.97.47,2.72,1.4c.69.86,1,3.17,1.79,4.57.78,1.41,1.62,3.19,2.59,4.15.96.96.39,1.53.15,2.56-.12.51-1.21,2.29-2.5,3.46-1.29,1.17-2.77,1.71-2.77,1.71,0,0-.38-1.23-1.61-1.41.45-.56,1.06-1.71,1.61-2.62.56-.91,1.69-2.59,1.69-2.59,0,0-1.05-.65-2.29-1.83-1.17-1.13-2.03-2.34-2.4-3.3-.75-1.96-1.03-4.2,1.02-6.11Z"/>
        <g>
          <path class="cls-28" d="M158.72,21.25c.03-3.65-3.51-8.65-7.9-11.16-2.74-1.57-5.17-1.8-6.62-.86h0s0,0,0,0c0,0,0,0,0,0l-1.68,1.13s.3,1.03.24,1.12c0,.01.04-.01.12-.06-.04.23-.06.47-.06.72-.03,3.65,3.51,8.65,7.9,11.16,1.55.89,3,1.34,4.23,1.4l.28.3h-.01s1.34,3.66,1.34,3.66l1.31-.81-.59-3.66c.9-.56,1.44-1.55,1.45-2.95Z"/>
          <path class="cls-22" d="M157.4,22.09c-.03,3.65-3.62,4.58-8.02,2.06-4.4-2.51-7.93-7.51-7.9-11.16.03-3.65,3.62-4.58,8.02-2.06,4.4,2.51,7.93,7.51,7.9,11.16Z"/>
          <polygon class="cls-22" points="153.06 24.97 156.54 28.67 155.76 23.91 153.06 24.97"/>
        </g>
        <g>
          <g>
            <polygon class="cls-12" points="157.49 65.43 164.84 69.67 163.02 70.72 155.65 66.49 157.49 65.43"/>
            <polygon class="cls-12" points="162.45 71.05 161.9 71.36 154.56 67.12 155.08 66.82 162.45 71.05"/>
            <polygon class="cls-12" points="155.65 66.49 163.02 70.72 162.45 71.05 155.08 66.82 155.65 66.49"/>
          </g>
          <g>
            <polygon class="cls-31" points="157.49 64.75 164.84 68.99 163.02 70.04 155.65 65.81 157.49 64.75"/>
            <polygon class="cls-31" points="162.45 70.37 161.9 70.68 154.56 66.44 155.08 66.14 162.45 70.37"/>
          </g>
          <g>
            <rect class="cls-12" x="155.04" y="65.98" width=".66" transform="translate(-12.19 86.35) rotate(-29.94)"/>
            <path class="cls-12" d="M155.5,66.19c.21-.12.15-.38.15-.38l7.37,4.23-.57.33-7.2-4.13c.07.02.15.01.25-.04Z"/>
          </g>
          <g>
            <path class="cls-16" d="M156.9,63.42c-.11-.17-.38-.24-.6-.28-.3-.06-.51-.03-.43.07.1.13.42.39.7.41s.43-.03.33-.19Z"/>
            <g>
              <path class="cls-16" d="M154.13,60.2s-.29.02-.2.3c.09.29.46.65.64.91.21.29.1.45.3.45.18,0,.36-.21.36-.21l-1.1-1.45Z"/>
              <path class="cls-17" d="M157.54,64.73s.1.09.23.19c.13.1.16.14.22.35.06.21.14.44.17.52s-.03.11-.08.06-.52-.33-.6-.49-.09-.2-.15-.44c-.05-.24.21-.19.21-.19Z"/>
              <path class="cls-1" d="M155.11,61.03l2.49,3.66c.04.06,0,.16-.1.23-.1.07-.21.07-.25.01l-2.49-3.67.35-.24Z"/>
              <path class="cls-24" d="M155.75,61.81l1.73,2.54c.06.09,0,.24-.15.34-.14.1-.31.1-.37.02l-1.73-2.54.52-.36Z"/>
              <path class="cls-1" d="M154.56,60.07l1.19,1.74c.06.09,0,.25-.15.34-.14.1-.31.1-.37.02l-1.19-1.77.52-.33Z"/>
              <path class="cls-17" d="M154.04,60.4c.05.07.2.06.34-.04.14-.09.22-.23.18-.3-.05-.07-.2-.06-.34.04-.14.09-.22.23-.18.3Z"/>
              <path class="cls-24" d="M154.21,59.69l.26.39c.04.07,0,.18-.11.25-.1.07-.23.08-.27.01l-.27-.4.39-.25Z"/>
              <path class="cls-11" d="M157.87,65.44s.1.07.07.1c.08.1.14.21.21.32,0,.01,0,.02-.02.01-.07-.11-.14-.19-.21-.31-.04.02-.12-.09-.05-.12Z"/>
              <path class="cls-31" d="M153.82,59.94c.03.05.15.04.26-.03.11-.07.17-.17.13-.22-.03-.05-.15-.04-.26.03-.11.07-.17.17-.13.22Z"/>
              <path class="cls-21" d="M154.99,60.89c.22.28.45.65.66.98.01.02-.02.04-.03.02-.21-.33-.46-.64-.64-.99,0-.01,0-.02.02-.01Z"/>
              <path class="cls-21" d="M155.85,62.07c.09.11.39.59.49.72.01.01-.01.03-.02.02-.18-.23-.35-.47-.5-.72-.03-.05,0-.08.04-.02Z"/>
            </g>
            <g>
              <path class="cls-1" d="M158.64,66.29v.14c0,.15-.23.27-.51.27s-.51-.12-.51-.27v-.14h1.02Z"/>
              <path class="cls-23" d="M158.13,66.03c.28,0,.51.12.51.27s-.23.27-.51.27-.51-.12-.51-.27.23-.27.51-.27Z"/>
              <path class="cls-1" d="M157.76,66.27c0-.15.11-.35.11-.35l.51-.02s.13.32.12.38c0,.11-.17.2-.37.2s-.37-.09-.37-.2c0,0,0,0,0-.01Z"/>
              <path class="cls-23" d="M158.13,65.8c.14,0,.26.06.26.14s-.12.14-.26.14-.26-.06-.26-.14.12-.14.26-.14Z"/>
            </g>
            <path class="cls-1" d="M156.9,63.42s.88,1.42,1.05,1.69c.17.27.4.76.24.86-.14.08-.31-.02-.67-.4-.19-.2-.65-.87-1.04-1.44-.34-.5-.61-.93-.61-.93,0,0,.09.12.24.21.12.08.29.14.48.16.31.04.31-.16.31-.16Z"/>
            <path class="cls-7" d="M155.87,63.1s.01.02.03.04c0,.03.04.08.06.11.1.12.29.25.61.29.32.04.32-.08.27-.17-.02-.04-.05-.06-.07-.08-.01-.01-.02-.04-.02-.04,0,0,.11.06.17.16.06.1.05.22-.29.18-.35-.04-.61-.21-.66-.28-.05-.08-.14-.18-.08-.21Z"/>
          </g>
          <g>
            <path class="cls-16" d="M160.56,65.52c-.11-.17-.38-.24-.6-.28-.3-.06-.51-.03-.43.07.1.13.42.39.7.41.28.02.43-.03.33-.19Z"/>
            <g>
              <path class="cls-16" d="M157.79,62.31s-.29.02-.2.3c.09.29.46.65.64.91.21.29.1.45.3.45.18,0,.36-.21.36-.21l-1.1-1.45Z"/>
              <path class="cls-17" d="M161.2,66.84s.1.09.23.19c.13.1.16.14.22.35s.14.44.17.52c.03.08-.03.11-.08.06-.05-.05-.52-.33-.6-.49-.08-.17-.09-.2-.15-.44-.05-.24.21-.19.21-.19Z"/>
              <path class="cls-1" d="M158.76,63.14l2.49,3.66c.04.06,0,.16-.1.23-.1.07-.21.07-.25.01l-2.49-3.67.35-.24Z"/>
              <path class="cls-24" d="M159.41,63.92l1.73,2.54c.06.09,0,.24-.15.34-.14.1-.31.1-.37.02l-1.73-2.54.52-.36Z"/>
              <path class="cls-1" d="M158.22,62.17l1.19,1.74c.06.09,0,.25-.15.34s-.31.1-.37.02l-1.19-1.77.52-.33Z"/>
              <path class="cls-17" d="M157.7,62.51c.05.07.2.06.34-.04.14-.09.22-.23.18-.3-.05-.07-.2-.06-.34.04-.14.09-.22.23-.18.3Z"/>
              <path class="cls-24" d="M157.86,61.79l.26.39c.04.07,0,.18-.11.25-.1.07-.23.08-.27.01l-.27-.4.39-.25Z"/>
              <path class="cls-11" d="M161.53,67.54s.1.07.07.1c.08.1.14.21.21.32,0,.01,0,.02-.02.01-.07-.11-.14-.19-.21-.31-.04.02-.12-.09-.05-.12Z"/>
              <path class="cls-31" d="M157.48,62.04c.03.05.15.04.26-.03.11-.07.17-.17.13-.22-.03-.05-.15-.04-.26.03-.11.07-.17.17-.13.22Z"/>
              <path class="cls-21" d="M158.65,62.99c.22.28.46.65.66.98.01.02-.02.04-.03.02-.21-.33-.46-.64-.64-.99,0,0,0-.02.02-.01Z"/>
              <path class="cls-21" d="M159.5,64.17c.09.11.39.59.49.72.01.01-.01.03-.02.02-.18-.23-.35-.47-.5-.72-.03-.05,0-.08.04-.02Z"/>
            </g>
            <g>
              <path class="cls-1" d="M162.3,68.4v.14c0,.15-.23.27-.51.27s-.51-.12-.51-.27v-.14h1.02Z"/>
              <ellipse class="cls-23" cx="161.79" cy="68.41" rx=".51" ry=".27"/>
              <path class="cls-1" d="M161.42,68.38c0-.15.11-.35.11-.35l.51-.02s.13.32.12.38c0,.11-.17.2-.37.2s-.37-.09-.37-.2c0,0,0,0,0-.01Z"/>
              <path class="cls-23" d="M161.79,67.91c.14,0,.26.06.26.14s-.12.14-.26.14-.26-.06-.26-.14.12-.14.26-.14Z"/>
            </g>
            <path class="cls-1" d="M160.56,65.52s.88,1.42,1.05,1.69.4.76.24.86c-.14.08-.31-.02-.67-.4-.19-.2-.65-.87-1.04-1.44-.34-.5-.61-.93-.61-.93,0,0,.09.12.24.21.12.08.29.14.49.16.31.04.31-.16.31-.16Z"/>
            <path class="cls-7" d="M159.52,65.21s.01.02.03.04c0,.03.04.08.06.11.1.12.29.25.61.29.32.04.32-.08.27-.17-.02-.04-.05-.06-.07-.08-.01-.01-.02-.04-.02-.04,0,0,.11.06.17.16.06.1.05.22-.29.18-.35-.04-.61-.21-.66-.28s-.14-.18-.08-.21Z"/>
          </g>
          <polygon class="cls-24" points="164.84 68.99 164.84 69.67 161.9 71.36 161.9 70.68 164.84 68.99"/>
          <polygon class="cls-12" points="154.56 66.44 154.56 67.12 161.9 71.36 161.9 70.68 154.56 66.44"/>
          <path class="cls-12" d="M163.02,70.04s.05.27-.15.38c-.25.14-.42-.05-.42-.05l.57-.33Z"/>
        </g>
        <g>
          <path class="cls-32" d="M113.63,44.43s2.14,1.85,3.46,4.57c.78,1.61,2.5,3.87,3.58,5.3.59-.63,3.48-3.72,4.83-5.3,1.24-1.46,2.07-1.21,3.26-1.46,1.24-.25,1.13-1.36,2.4-1.43s1.05.55,0,1.94c-.65.86-1.55,1.64-2.11,1.79-1.19.33-2.35.25-2.69,1.34-.21.68-2.3,5.34-3.35,6.06-1.39.95-1.45,1.26-2.52,1.2-.75-.04-1.39-.82-1.72-1.2-1.01-1.16-2.26-2.34-3.17-3.64-1.25-1.78-3.82-6.52-3.92-6.7-.1-.17,1.96-2.48,1.96-2.48Z"/>
          <path class="cls-21" d="M113.39,44.03s1.3.31,2.5,1.67c1.2,1.36,3.55,5.5,3.55,5.5,0,0-1.1,1.68-1.63,2.04-.53.36-1.87,1.14-1.87,1.14l-4.56-6.84,2.01-3.51Z"/>
          <path class="cls-5" d="M124.95,88.45c.63.7,1.34,1.48,2,2.17.88.93,1.92,1.91,2.87,2.77,1.17,1.04,1.26,2.3-.66,2.2-3.09-.17-3.82-1.47-5.25-2.57-.2-.15-.53.21-1.31-.1-.99-.4-1.11-.56-1.11-1.55,0-.63.1-1.92.39-2.58,0-.01-.02-.02-.03-.03-.15-.17,2.26-1.24,3.11-.31Z"/>
          <path class="cls-5" d="M118.99,95.13c.63.7,1.34,1.48,2,2.17.88.93,1.92,1.91,2.87,2.77,1.17,1.04,1.26,2.3-.66,2.2-3.09-.17-3.82-1.47-5.25-2.57-.2-.15-.53.21-1.31-.1-.99-.4-1.11-.56-1.11-1.55,0-.63.1-1.92.39-2.58,0-.01-.02-.02-.03-.03-.15-.17,2.26-1.24,3.11-.31Z"/>
          <path class="cls-5" d="M106,65.24c.26-.54,6.19-2.52,6.03-2.45,4.75,1.79,10.52,3.78,14.51,7.21.73.12,1.48.37,1.44,1.72-.03,1.05-.64,2.87-.82,3.93-.6,3.69-1.38,9.67-1.66,13.4-.63,1.12-2.48,1.12-3.66.28-.36-2.67-.49-6.26-.95-8.4-.6-2.83.38-4.2,1.25-5.71-2.34.09-7.39-2.53-9.66-3.17-2.75-.77-3.5-.79-5.54-2.88-1.4-1.43-1.89-1.92-.94-3.93Z"/>
          <path class="cls-12" d="M106.23,65.62c1.47.04,3.1.14,4.54-.29.14.21.29.41.41.65.53,1.07,1.01,1.87.61,3.09.71,1.01,3.93,4.96,4.51,6.17.74.74,1.14,1.16,1.05,2.85-.11,1.92.03,2.81.24,4.94.42,4.11,1.15,7.59,1.45,11.71-.96,1.47-2.24,1.53-3.51.37-1.23-3.83-3.65-6.5-3.9-9.85-.17-2.22-.2-3.89.78-5.3-4.07-2.23-9.28-3.49-11.52-7.74-1.45-2.75-.75-4.8.74-7.62,1.36.83,2.93.95,4.6.99Z"/>
          <path class="cls-34" d="M114.16,45.89c-1.66-2.11-.97-1.5-2.98-.35-2.46,1.41-4.45,2.3-5.53,3.2-1.83,1.52-2.89,4.66-3.2,8.6-.05.6-.41,2.64-.62,3.24-.76,2.15-.39,2.51.15,3.01-.8,0-1.17,1.14-.59,1.55,3.77,2.65,10.99,2.69,12.02-1.72.06-.28-.22-1.13-.39-1.35.46-.26.68-1.16.68-1.76.85-.46,1.03-1.16,1.22-2.36,1.69-.38,3.47-2.28,2.66-4.23-.66-1.59-1.09-2.33-1.56-3.42-1.1-2.52-1.38-3.81-1.85-4.42Z"/>
          <path class="cls-8" d="M113.77,46.69s.73,1.89.85,2.75c.12.87-.85,1.64-.85,1.64l1.15,2.57-.88.29-1-2.5s-1.94.49-2.82-.45c-.88-.94-2.72-3.45-2.72-3.45,0,0,1.21-.95,2.28-1.23,1.07-.28,4,.37,4,.37Z"/>
          <path class="cls-32" d="M113.47,47.05c-.46-.08-1.68-.69-1.31-2.94.1-.63-2.73-2.32-2.73-2.23.03,2.04-.47,4.24-1.4,5.3,1.35,1.41,2.61,4.61,4.93,3.46,1.16-.57,1.43-1,.51-3.59Z"/>
          <path class="cls-38" d="M115.48,39.12c-1.92-.43-2.92-.51-4.62.18-.96.26-1.86.69-2.72,1.25-.07.04-.12.14-.11.22.44,2.53,1.29,5.21,4.12,6.33,2.33.92,3.64-1.64,4.05-3.35.47-2,.62-4.33-.71-4.62Z"/>
          <path class="cls-5" d="M109.49,35.41c.87-.31.71-2.25-.55-2.36.14-1.25-1.52-1.92-2.64-1.83-1.59.13-2.08,1.32-1.99,2.61-.36-.18-.82-.13-1.21.2-.62.52-.57,1.34-.34,2.04-.89.15-2.01.78-1.85,1.79.05.34.35.66.67.8-.59.62-.74,1.48.19,2.08-.1,1.01.56,2.11,1.79,1.98,1.23-.13,1.67-1.47,1.36-2.52.33-.34.6-.74.76-1.17,1.3.69,2.97.87,4-.4.77-.96.65-2.43-.21-3.21Z"/>
          <path class="cls-34" d="M111.21,35.45s-.6-1.45-2.33-1.01c-1.73.43-.85,2.65-.85,2.65l3.18-1.64Z"/>
          <path class="cls-12" d="M118.07,37.43c-.32-.41-.88-.69-1.4-.64-.59-1.09-1.77-2.02-2.97-2.21-1.1-.18-2.68.14-3.25,1.2-.02.04-.02.07-.02.1-1.62-.96-3.74-.12-4.39,1.66-.62,1.7.15,4.59,1.9,5.41.05.23.11.45.25.68.2.35.45.68.72.98.11.12.3.07.39-.05.16-.23.28-.58.31-.92.57-.18,1.02-.9,1.21-1.4.07-.19.11-.38.14-.56.51.17,1.17.05,1.59-.23.35-.23.56-.55.69-.92.87.44,1.86.24,2.62-.31.12.36.59.59.97.58.7-.02,1.23-.67,1.46-1.27.26-.68.25-1.51-.22-2.1Z"/>
          <path class="cls-38" d="M110.99,43.1s-.46-1.55-1.47-.75c-1.01.8.42,2.37.42,2.37l1.05-1.61Z"/>
          <path class="cls-8" d="M108.88,62.39s-2.29-.74-3.52-.59-2.3.59-2.3.59c0,0,1.74.25,2.91.3,1.17.05,2.91-.3,2.91-.3Z"/>
          <path class="cls-8" d="M109.47,64.19c-.15,0-2.72-.07-4.1-.17-1.38-.1-1.93-.17-1.93-.17,0,0,1.14.86,2.74.86s3.28-.52,3.28-.52Z"/>
          <path class="cls-32" d="M127.67,48.4s.47-.79.88-1.71c.28-.62.17-1.2-.17-1.28-.34-.08-.34.68-.71,1.03-.37.34-1.79,1.54-1.57,2.17.22.62,1.57-.2,1.57-.2Z"/>
          <path class="cls-38" d="M104.69,57.66s1.2,3.09,1.76,4.57,1.02,1.58,2.3,2.14c1.28.56,7.77-1.19,9.81-1.93s4.86.33,6.18-.67c1.91-1.44.51-2.06-.62-2.19-1.13-.13-3.01,0-3.59.03-.58.03.76-.77.77-1.25,0-.48-.51-.6-1.34.35-.38.44-1.07,1.35-1.4,1.71-.33.36-3.06-.12-4.55,0-1.49.12-3.67.52-3.67.52l-1.18-4.65-4.47,1.37Z"/>
          <path class="cls-21" d="M105.65,48.74c-2.57,1.05-3.76,4.91-2.66,8.13,1.11,3.27,2,4.13,2,4.13,0,0,2.54-.36,3.54-.85,1.69-.84,2.01-1.79,2.01-1.79,0,0-1.7-6.19-2.4-7.85-.7-1.65-1.83-2.05-2.48-1.79Z"/>
        </g>
        <g>
          <polygon class="cls-21" points="151.41 57.23 161.05 62.79 167.85 58.76 158.21 53.21 151.41 57.23"/>
          <g>
            <polygon class="cls-12" points="161.8 61.4 153.68 56.71 153.14 57.03 161.26 61.71 161.8 61.4"/>
            <polygon class="cls-12" points="163.02 60.73 154.9 56.04 154.63 56.2 162.75 60.89 163.02 60.73"/>
            <polygon class="cls-12" points="163.82 60.26 155.71 55.58 155.44 55.73 163.55 60.42 163.82 60.26"/>
            <polygon class="cls-12" points="161.11 58.13 156.2 55.29 156.47 55.14 161.38 57.98 161.11 58.13"/>
            <polygon class="cls-12" points="161.9 57.62 156.99 54.78 157.26 54.63 162.17 57.47 161.9 57.62"/>
          </g>
        </g>
        <g>
          <path class="cls-12" d="M165.07,66.11v.35c0,.6.92,1.09,2.05,1.09s2.05-.49,2.05-1.09v-.35h-4.09Z"/>
          <ellipse class="cls-27" cx="167.12" cy="66.11" rx="2.05" ry="1.09"/>
          <path class="cls-28" d="M167.12,65.11c-1.06,0-1.91.45-1.91,1.01s.86,1.01,1.91,1.01,1.91-.45,1.91-1.01-.86-1.01-1.91-1.01Z"/>
          <path class="cls-14" d="M165.55,62.09h-.47v4.03c0,.26.18.51.47.69v-4.73Z"/>
          <polygon class="cls-18" points="168.49 61.56 168.39 61.56 168.39 65.37 168.49 65.3 168.49 61.56"/>
          <g>
            <path class="cls-14" d="M168.04,61.27v3.96c.11.04.22.07.35.13v-4.1h-.35Z"/>
            <path class="cls-14" d="M168.71,61.68v3.87c.09.07.27.25.35.53v-4.39h-.35Z"/>
          </g>
          <polygon class="cls-18" points="169.16 62.09 169.06 62.09 169.06 65.9 169.16 65.84 169.16 62.09"/>
          <g>
            <path class="cls-14" d="M165.78,62.97v3.96c.11.05.23.09.35.13v-4.1h-.35Z"/>
            <path class="cls-14" d="M166.45,62.96v4.18c.11.02.23.04.35.05v-4.23h-.35Z"/>
          </g>
          <g>
            <polygon class="cls-12" points="169.05 62.49 169.05 66.07 169.06 66.19 169.16 66.07 169.16 62.49 169.05 62.49"/>
            <path class="cls-22" d="M167.12,62.97v4.24h0c1.13,0,2.05-.49,2.05-1.09v-.3s-.04.22-.42.54c-.27.22-.65.33-.91.28-.19-.04-.27-.16-.27-.28,0-.38-.02-.66-.02-1.01,0-.7.68-.88,1.08-1.11.4-.23.54,0,.54,0v-1.26h-2.05Z"/>
            <path class="cls-12" d="M168.74,66.36c-.27.22-.65.33-.91.28-.19-.04-.27-.16-.27-.28,0-.38,0-.27,0,.16,0,.12.08.25.27.28.26.05.64-.06.91-.28.38-.32.42-.54.42-.54v-.28s-.04.34-.42.65Z"/>
          </g>
          <polygon class="cls-18" points="166.24 63.26 166.13 63.26 166.13 67.07 166.24 67 166.24 63.26"/>
          <polygon class="cls-18" points="165.65 63.01 165.55 63.01 165.55 66.82 165.65 66.76 165.65 63.01"/>
          <polygon class="cls-18" points="166.91 63.38 166.8 63.38 166.8 67.19 166.91 67.13 166.91 63.38"/>
          <g>
            <path class="cls-34" d="M169.17,59.08h-4.09v4.03c0,.6.92,1.09,2.05,1.09.15,0,.3,0,.45-.03v-.83c.88-.11,1.55-.51,1.6-1.01h0v-3.25Z"/>
            <path class="cls-22" d="M169.16,62.33c-.04.5-.71.91-1.6,1.01v.83c.92-.11,1.6-.54,1.6-1.06v-.78h0Z"/>
            <path class="cls-12" d="M169.16,62.09c-.04.5-.71.91-1.6,1.01v.42c.92-.11,1.6-.54,1.6-1.06v-.37h0Z"/>
          </g>
          <path class="cls-2" d="M167.12,57.99c-1.13,0-2.05.49-2.05,1.09s.92,1.09,2.05,1.09,2.05-.49,2.05-1.09-.92-1.09-2.05-1.09Z"/>
          <path class="cls-3" d="M167.14,58c-.99,0-1.78.42-1.78.95s.8.95,1.78.95,1.78-.42,1.78-.95-.8-.95-1.78-.95Z"/>
          <path class="cls-2" d="M167.14,58.01c-.62,0-1.13.27-1.13.6s.5.6,1.13.6,1.13-.27,1.13-.6-.5-.6-1.13-.6Z"/>
          <path class="cls-12" d="M167.12,60.62c-1.07,0-1.94-.44-2.04-.99h0v.35c0,.6.92,1.09,2.05,1.09s2.05-.49,2.05-1.09v-.35h0c-.09.56-.97.99-2.04.99Z"/>
          <path class="cls-21" d="M168.18,62.38c0,.15.19.16.43.03s.43-.37.43-.53-.19-.16-.43-.03c-.24.14-.43.37-.43.53Z"/>
        </g>
      </g>
    </g>
  </g>
</svg>