<?xml version="1.0" encoding="UTF-8"?>
<svg xmlns="http://www.w3.org/2000/svg" version="1.1" viewBox="0 0 153.1 80">
  <defs>
    <style>
      .cls-1 {
        fill: #3e3a39;
      }

      .cls-2 {
        fill: #21b1e0;
      }

      .cls-3 {
        fill: none;
        stroke: #daa02d;
        stroke-miterlimit: 10;
        stroke-width: 1.1px;
      }
    </style>
  </defs>
  <!-- Generator: Adobe Illustrator 28.6.0, SVG Export Plug-In . SVG Version: 1.2.0 Build 709)  -->
  <g>
    <g id="_圖層_2">
      <g>
        <g>
          <path class="cls-1" d="M52.7,17.7l-.5.5c-.4-.4-.9-.9-1.5-1.3l.5-.4c.6.4,1.1.9,1.5,1.3ZM52.8,19c-.4,1.1-.8,2.2-1.3,3.2l-.7-.3c.5-1,1-2.1,1.4-3.2l.6.2h0ZM52.9,15.4l-.4.4c-.4-.4-.9-.8-1.5-1.2l.4-.4c.6.4,1.1.8,1.5,1.2ZM55.6,16.7v-1.4c-.7,0-1.4.1-2.2.1l-.2-.6c2,0,3.6-.2,4.9-.7l.3.6c-.6.2-1.3.4-2.2.5v1.5h2.6v.6h-2.6v1.4h2v3.6h-.6v-.5h-3.4v.5h-.6v-3.6h2v-1.4h-2.6v-.6s2.6,0,2.6,0ZM57.6,21.2v-1.9h-3.4v1.9h3.4Z"/>
          <path class="cls-1" d="M65.7,14.1v1.7h1.8c0,3,0,4.8-.1,5.5,0,.6-.4.9-1.1.9s-.5,0-.9,0l-.2-.6c.4,0,.7,0,.9,0s.5-.2.6-.6c0-.5,0-2.1.1-4.6h-1.2v.4c0,2.5-.6,4.3-1.6,5.5l-.5-.4s0,0,0-.1c-1.2.1-2.5.3-4,.4v-.6c.6,0,1.2,0,1.8-.1v-.8h-1.6v-.5h1.6v-.6h-1.6v-2.8h1.6v-.6h-1.8v-.5h1.8v-.6c-.5,0-1,0-1.6,0l-.2-.5c1.5,0,2.8-.1,3.8-.4l.3.5c-.5.1-1,.2-1.7.3v.7h1.8v.5h-1.8v.6h1.6v2.7h-1.6v.6h1.6v.5h-1.6v.8c.6,0,1.1-.1,1.6-.2v.5c.9-1.1,1.3-2.7,1.3-4.9v-.4h-.9v-.6h.9v-1.7h.6ZM61.5,17.9v-.7h-1.1v.7h1.1ZM61.5,18.3h-1.1v.7h1.1v-.7ZM62.1,17.9h1.1v-.7h-1.1v.7ZM63.2,18.3h-1.1v.7h1.1v-.7Z"/>
          <path class="cls-1" d="M72.1,17.3c-.9.2-1.9.3-2.9.4l-.2-.5c.6-.3,1.1-.8,1.4-1.4l.5.2c-.3.4-.6.8-1,1.1.6,0,1.1-.1,1.7-.2-.1-.2-.3-.3-.4-.5l.4-.3c.4.4.7.7.9,1h.4,0c.5-.4.9-.8,1.3-1.4l.5.2c-.2.4-.5.8-.9,1.1.5,0,1,0,1.4-.2-.1-.1-.2-.3-.4-.4l.4-.3c.5.5.9,1,1.1,1.3l-.5.3c-.1-.2-.2-.4-.4-.6-.7.1-1.5.2-2.2.3.8.5,1.9,1,3.4,1.4l-.4.5c-1.7-.5-2.9-1-3.7-1.7-1,.8-2.2,1.3-3.7,1.8l-.4-.5c1.5-.4,2.6-.9,3.5-1.5h0c0,0,0,0,0,0ZM75.9,15.6l-.5.4c-.1-.2-.3-.3-.5-.5-1.8.1-3.5.2-5.2.3v-.5c.5,0,1.3-.4,2.1-1.3l.6.2c-.4.4-.8.8-1.2,1,1.4,0,2.4-.1,3.1-.2-.2-.2-.5-.4-.7-.5l.5-.3c.8.6,1.4,1,1.8,1.4h0ZM73.5,18.7c-.9.7-2,1.2-3.3,1.4l-.3-.5c1.3-.2,2.4-.6,3.1-1.2,0,0,.5.3.5.3ZM74.6,19.4c-1.2.9-2.6,1.5-4.3,1.8l-.3-.5c1.7-.3,3.1-.8,4.1-1.7l.5.3h0ZM75.8,20c-1.5,1.2-3.3,2-5.4,2.3l-.4-.5c2.2-.4,4-1.1,5.3-2.2l.5.3h0Z"/>
          <path class="cls-1" d="M80.5,14.8c-.3.1-.8.3-1.6.5v1h1.4v.6h-1.3v1.1h1.2v.6h-1.2v1.1h5.3v-1.1c0,0-.9,0-.9,0v-.6h1v-1.1c0,0-1,0-1,0v-.6h1.1v-1.1c0,0-1.1,0-1.1,0v-.6h1.8l-.2,5.1h.7v.6h-8v-.6h.8l-.2-4.9c.7-.1,1.4-.3,1.9-.5l.2.6h0ZM80.9,20.8c-.7.6-1.6,1-2.7,1.5l-.4-.5c1-.4,1.9-.8,2.6-1.4l.5.4h0ZM81.3,17.2c0,.8-.2,1.5-.4,2.1h-.5c.2-.8.4-1.5.4-2.2h.5s0,0,0,0ZM81.5,16.3h1.5c0,1.7,0,2.6-.2,2.8-.1.2-.4.3-.8.3h-.3l-.2-.6h.5c.2,0,.3,0,.3-.2,0-.1,0-.7.1-1.8h-1.6c.2-1,.3-1.9.4-2.7h.6c0,.3,0,.5,0,.8h1.4v.6h-1.4c0,.3,0,.6-.2.8h0ZM85.8,21.7l-.4.6c-.9-.6-1.8-1.1-2.8-1.4l.3-.5c1,.4,1.9.8,2.8,1.4Z"/>
          <path class="cls-1" d="M91,16.1c.5,2.5,1.8,4.3,3.9,5.6l-.4.6c-1.8-1.2-3.1-2.8-3.7-4.9-.5,2-1.8,3.6-3.8,4.9l-.4-.6c2.5-1.5,3.8-3.6,3.8-6.2,0-.6,0-1.1,0-1.4h.7c0,.8,0,1.4,0,2Z"/>
          <path class="cls-1" d="M97.6,14.5v-.5h.6v.5h1.4v1h.4v.5h-.4v1h-1.4v.5h1.6v1.5h-1.7c0,.2-.2.3-.3.5h2v.4c-.3.4-.7.8-1.1,1.2.4.2.9.4,1.4.6l-.3.5c-.5-.3-1-.5-1.6-.8-.6.3-1.3.6-2.1.9l-.4-.5c.7-.2,1.3-.4,1.8-.6-.4-.1-.8-.3-1.1-.4.2-.3.3-.5.5-.8h-1.2v-.5h1.5c0-.2.2-.3.3-.5h-1.4v-1.5h1.6v-.5h-1.4v-1h-.4v-.5h.4v-1h1.4,0ZM97.6,18h-1v.6h1v-.6ZM97.6,15.6v-.6h-.9v.6h.9ZM97.6,16h-.9v.6h.9v-.6ZM99.1,20h-1.6c-.1.2-.2.4-.3.5.3,0,.6.2.9.3.4-.3.8-.5,1-.9h0ZM99.1,15.6v-.6h-.9v.6h.9ZM99.1,16h-.9v.6h.9v-.6ZM99.2,18h-1v.6h1v-.6ZM100.7,17.6c-.1.3-.3.6-.4.8l-.4-.5c.5-1,.9-2.3,1.1-3.9h.6c0,.6-.1,1-.2,1.4h2.4v.6h-.6c0,1.6-.3,3-.9,4.1.4.6,1,1.2,1.7,1.7l-.4.5c-.7-.5-1.2-1-1.6-1.6-.4.6-.9,1.1-1.5,1.6l-.3-.6c.6-.4,1.1-1,1.5-1.6-.4-.8-.7-1.6-.8-2.6h0ZM100.7,17.5l.5-.2c0,.8.3,1.5.6,2.1.4-1,.7-2.1.7-3.4h-1.3c-.1.5-.3,1-.5,1.5h0Z"/>
        </g>
        <path class="cls-3" d="M126.6,1.5H26.5C12.1,1.5.6,13.1.6,27.5v16.7c0,14.4,11.6,26,25.9,26h45.1l3.2,8.4,3.2-8.4h48.6c14.3,0,25.9-11.6,25.9-26v-16.6c0-14.4-11.6-26-25.9-26Z"/>
        <g>
          <g>
            <path class="cls-2" d="M65.7,36.9c2,0,3.2,1.2,3.2,2.7s-.8,1.8-1.8,2.4c1.4.8,2.2,1.4,2.2,2.9s-1.6,3.1-3.8,3.1-3.7-1.7-3.7-2.8,1-2,2.1-2.6c-1.3-.7-1.7-1.6-1.7-2.6,0-1.5,1.2-3,3.5-3h0,0ZM65.7,46.7c.9,0,1.5-.6,1.5-1.5s-.6-1.3-2.1-2c-.8.5-1.2,1.1-1.2,1.8s.7,1.7,1.7,1.7h0ZM65.6,38.2c-.8,0-1.4.5-1.4,1.3s.5,1.3,1.9,1.9c.6-.4.9-1,.9-1.7s-.5-1.5-1.4-1.5c0,0,0,0,0,0Z"/>
            <path class="cls-2" d="M71.9,45c.5,0,.7.7.7,1.2,0,1.2-.9,2.5-1.7,3.1-.5.3-1.1.4-1.7.4.8-1,1.3-2.2,1.3-3.4s0-.6-.1-.8c.4-.2,1-.5,1.6-.5h0Z"/>
            <path class="cls-2" d="M73.7,46.4c.5.2,1.5.4,2.2.4,1.8,0,2.5-.9,2.5-2s-.8-1.7-2.3-1.7-.8,0-1,0h0c0-.5.3-1.1.5-1.3,1.5-.3,2.3-.9,2.3-1.9s-.5-1.4-1.4-1.4-1.3.4-1.7.6c-.3.2-.6.3-.7,0-.1-.2-.1-.6-.1-.8.5-.7,1.8-1.4,3.1-1.4,2.6,0,3.1,1.8,3.1,2.5,0,1.2-.7,1.9-1.9,2.4,1.8.3,2.7,1.4,2.7,2.8,0,2.4-2,3.7-4.6,3.7s-1.8-.3-2.1-.5c-.3-.3-.5-.8-.5-1.3h0s0,0,0,0Z"/>
            <path class="cls-2" d="M85.7,36.9c3.2,0,3.7,3.5,3.7,5.4,0,3.8-1.5,5.6-3.9,5.6s-3.8-1.3-3.8-5.5,1-5.6,4-5.6h0,0ZM85.6,38.2c-1,0-1.6,1.6-1.6,4.1s.9,4.3,1.7,4.3,1.6-.5,1.6-4.3-.6-4-1.6-4h0Z"/>
            <path class="cls-2" d="M94.1,36.9c3.2,0,3.7,3.5,3.7,5.4,0,3.8-1.5,5.6-3.9,5.6s-3.8-1.3-3.8-5.5,1-5.6,4-5.6h0,0ZM93.9,38.2c-1,0-1.6,1.6-1.6,4.1s.9,4.3,1.7,4.3,1.6-.5,1.6-4.3-.6-4-1.6-4h0Z"/>
          </g>
          <g>
            <path class="cls-2" d="M99.7,47.5l2.2-9h.9l-2.2,9h-.9Z"/>
            <path class="cls-2" d="M114.3,47.5c-2.3-1.2-3.6-2.9-4-5.2-.4,2.2-1.8,4-4.1,5.3-.2-.3-.5-.7-.8-1,2.6-1.3,3.9-3.3,4.1-6,0-.6,0-1.4,0-2.4h1.2c0,0,0,.3,0,.7,0,.3,0,.6,0,.7.2,3.5,1.7,5.7,4.3,6.8-.3.4-.6.7-.8,1Z"/>
          </g>
          <path class="cls-2" d="M124,38.3c.3,0,.6.2.8.5.5.9,1.1,1.8,1.6,2.7.8,1.4,1.6,2.7,2.3,4.1,0,.1.2.3.2.4.2.3.1.7-.1,1s-.6.4-.9.3c-.7-.2-1.4-.5-2-.7-.6-.2-1.2-.4-1.8-.6,0,0,0,0-.1,0-1.2.4-2.3.8-3.5,1.3,0,0-.2,0-.3.1-.4.1-.7,0-.9-.3-.2-.3-.3-.6-.1-.9.2-.3.4-.7.6-1,.6-1,1.1-2,1.7-3,.6-1.1,1.2-2.2,1.9-3.3.2-.3.4-.4.8-.4"/>
        </g>
        <g>
          <path class="cls-2" d="M34,33h0v-.5c0-1.2-.8-2-1.9-2s-1.8.8-1.9,2c0,.4,0,.8,0,1.2,0,.9.8,1.7,1.7,1.7.9,0,1.8-.5,2-1.4,0-.3,0-.7.1-1M34.6,41.4h0v.6c0,1,.7,1.8,1.8,1.9.9,0,1.8-.5,1.9-1.5,0-.7,0-1.4,0-2-.1-.8-.9-1.4-1.8-1.4-.8,0-1.6.5-1.8,1.3-.1.4-.1.8-.2,1.2M47.2,41.5h0v-.6c0-1-.7-1.7-1.7-1.8-.9,0-1.8.6-2,1.5,0,.6,0,1.2,0,1.8.1,1,1,1.7,1.9,1.6,1.1,0,1.8-.8,1.8-1.9v-.5M39.1,33v.6c0,.9.7,1.7,1.7,1.8.9.1,1.8-.5,2-1.4.1-.6.1-1.2,0-1.9-.1-1.1-1-1.7-2.1-1.6-.9,0-1.6.9-1.7,1.9v.6M30,50.6c-.9-1.1-.8-2.4-.6-3.6.2-1.3,1.4-2.2,2.8-2.2.2,0,.4-.1.6-.2.5-.3,1-.5,1.6-.8-.9-1-.8-2.4-.5-3.7.2-1,.9-1.6,1.8-2,.1,0,.2,0,.3-.1,0,0,0,0,0,0,0-.8-1.1-1.7-1.9-1.7-1.3,0-2.6,0-3.9,0-1,0-2,1-2,2.1,0,.9,0,1.8,0,2.7,0,.4-.2.7-.5.6-.2,0-.4-.3-.4-.4,0-1.1,0-2.2,0-3.2.2-1.4,1.1-2.3,2.6-2.7,0,0,0,0,0-.1-.9-1.1-.8-2.4-.5-3.7.2-1.3,1.6-2.2,3-2.1,1.5.2,2.5,1.3,2.5,2.8v.6c0,1.3,0,1.4-.7,2.4.2,0,.4,0,.5.1,1.1.4,1.8,1.1,2.1,2.2,0,.2.2.3.4.4,1.3.4,2,1.4,2.1,2.8,0,.5,0,1.1,0,1.6-.2,1.3-1.3,2.2-2.6,2.3-.6,0-1.1,0-1.7,0s-1,0-1.3.3c.4.6.9,1,1,1.6.2.7.1,1.4.1,2.1s-.3.3-.4.3c-.3,0-.4-.2-.4-.4,0-.5,0-1,0-1.5-.2-1-1-1.5-2.1-1.5-.9,0-1.6.9-1.6,1.8,0,.5,0,.9,0,1.4,0,1,.8,1.7,1.8,1.7.5,0,.9,0,1.4,0,1.5,0,2.2.4,3.1,1.5.3-.3.6-.7,1-.9s.8-.4,1.3-.6c-.9-1.2-.8-2.5-.5-3.8.3-1.2,1.4-2,2.7-2,.3,0,.5,0,.7-.3.5-.3,1-.5,1.5-.8-.9-.9-.7-2.2-.6-3.4,0-1.1.8-1.8,1.8-2.2.1,0,.3-.1.4-.2-.1-.9-1-1.7-1.9-1.7-1.3,0-2.6,0-3.9,0-.3,0-.6.2-.8.3-.3.1-.5.2-.7-.2-.2-.3,0-.5.3-.7.3-.2.7-.3,1.1-.4,0,0,0-.1-.1-.2-.2-.4-.5-.8-.5-1.3,0-.8,0-1.5,0-2.2.3-1.3,1.6-2.2,2.9-2,1.4.2,2.5,1.3,2.5,2.7,0,.4,0,.8,0,1.2,0,.7-.2,1.3-.7,1.9.2,0,.4,0,.5.1,1.1.4,1.8,1.1,2.2,2.2,0,.2.2.3.4.4,1.3.4,2.1,1.4,2.1,2.8s0,1.2,0,1.7c-.2,1.2-1.3,2.1-2.6,2.1-.6,0-1.2,0-1.7,0-.5,0-.9.2-1.3.3h0c0,.2.1.2.2.3.7.5,1.1,1.2,1.2,2.1,0,.4,0,.8,0,1.2,0,.3-.1.5-.5.5-.3,0-.4-.2-.4-.5,0-.5,0-1,0-1.5-.2-1-1.1-1.5-2.1-1.4-.8,0-1.6.9-1.6,1.8,0,.5,0,1.1,0,1.7.2.8.9,1.4,1.8,1.4.7,0,1.4,0,2.1,0,1,0,1.6.5,2.3,1.5.5-.8,1.3-1.3,2.3-1.5-1-1.2-.8-2.6-.5-3.9.3-1.3,1.7-2.2,3-2,1.4.2,2.5,1.4,2.5,2.8v1.1c0,.3-.1.5-.4.5-.3,0-.5-.2-.5-.5,0-.3,0-.7,0-1,0-1.1-.7-1.9-1.6-2-1.2,0-2,.5-2.1,1.7,0,.6,0,1.2,0,1.7.1.9.9,1.5,1.8,1.5.8,0,1.6,0,2.4.1,1.5.3,2.5,1.6,2.5,3.1v2.6c0,.3,0,.6-.5.6s-.5-.3-.5-.6v-2.6c0-1.2-.9-2.2-2.2-2.2-1.2,0-2.3,0-3.5,0-1.3,0-2.2,1-2.2,2.3v2.5c0,.3,0,.6-.5.7-.3,0-.5-.2-.5-.7v-2.5c0-1.2-1-2.2-2.2-2.2-1.2,0-2.4,0-3.6,0-1.2,0-2.2,1-2.2,2.3v2.5c0,.4-.2.7-.5.7-.4,0-.5-.3-.5-.7v-2.5c0-1.3-1-2.2-2.2-2.3-1.1,0-2.3,0-3.4,0-1.3,0-2.2,1-2.2,2.3,0,.8,0,1.7,0,2.5,0,.2-.1.5-.3.6-.2.2-.6,0-.6-.4,0-1.1,0-2.1,0-3.2.2-1.5,1.1-2.3,2.5-2.7,0,0,0,0,.1,0,0,0,0,0,0,0"/>
          <path class="cls-2" d="M51.7,33h0v-.7c0-.9-.8-1.7-1.6-1.8-1.1,0-1.9.5-2.1,1.5,0,.6-.1,1.1,0,1.7.1,1,.9,1.7,1.8,1.7.9,0,1.7-.5,1.9-1.4,0-.3,0-.7,0-1M47.7,35.4c-.9-1.2-.8-2.5-.5-3.8.3-1.3,1.7-2.2,3-2,1.4.2,2.5,1.4,2.5,2.8v.2c0,1,0,2-.7,2.8.9.2,1.6.5,2.1,1.2.4.5.7,1.2.7,1.9,0,.9,0,1.8,0,2.7s0,.6-.5.6-.5-.3-.5-.6v-2.6c0-1.3-1-2.2-2.2-2.2-1.1,0-2.1,0-3.2,0-.4,0-.8,0-1.2.2-.3,0-.5,0-.6-.2-.1-.3,0-.5.2-.6.3-.1.6-.2,1-.3"/>
        </g>
      </g>
    </g>
  </g>
</svg>