<?xml version="1.0" encoding="UTF-8"?>
<svg id="_圖層_2" data-name="圖層_2" xmlns="http://www.w3.org/2000/svg" xmlns:xlink="http://www.w3.org/1999/xlink" viewBox="0 0 82.07 101.55">
  <defs>
    <style>
      .cls-1, .cls-2, .cls-3 {
        fill: none;
      }

      .cls-4 {
        fill: #fff;
      }

      .cls-5 {
        fill: #21b1e0;
      }

      .cls-2 {
        stroke: #e9b324;
      }

      .cls-2, .cls-3 {
        stroke-miterlimit: 10;
      }

      .cls-3 {
        stroke: #f5ba18;
      }

      .cls-6 {
        clip-path: url(#clippath);
      }
    </style>
    <clipPath id="clippath">
      <rect class="cls-1" x="0" width="82.07" height="101.55"/>
    </clipPath>
  </defs>
  <g id="_圖層_1-2" data-name="圖層_1">
    <g>
      <path class="cls-5" d="M24.41,82.19c1.01-.16,2.38-.56,3.35-1.51,1.13-1.13,1.44-2.74,1.44-4.32,0-1.78-.54-3.13-1.67-3.13-.95,0-1.49.95-1.49,2.02,0,1.48.94,2.03,1.76,2.03.23,0,.63-.09.85-.16.02.34-.18.99-.43,1.22-.27.23-.81.4-1.46.4-1.73,0-2.9-1.24-2.9-3.13s1.42-3.71,3.85-3.71c2.63,0,3.78,2.2,3.78,4.57,0,1.84-.54,3.62-2.09,5.1-1.42,1.35-3.04,1.71-3.78,1.71-.32,0-.54-.04-.72-.16-.29-.22-.47-.52-.52-.86l.04-.05Z"/>
      <path class="cls-5" d="M36.2,71.89c3.24,0,3.69,3.51,3.69,5.42,0,3.75-1.46,5.64-3.93,5.64-1.89,0-3.8-1.28-3.8-5.47,0-2.57.99-5.58,4.02-5.58h.02ZM36.02,73.22c-1.03,0-1.6,1.64-1.6,4.11,0,3.42.94,4.29,1.69,4.29.65,0,1.55-.52,1.55-4.34,0-2.79-.63-4.05-1.62-4.05h-.02Z"/>
    </g>
    <g>
      <path class="cls-5" d="M42.24,82.44l2.24-8.99h.92l-2.24,8.99h-.92Z"/>
      <path class="cls-5" d="M49.7,76.56v-.8h6.23v.8h-2.36c-.32.24-.64.45-.96.64.32.35.59.71.8,1.08.88-.37,1.84-.85,2.88-1.44l.56.84c-.08.03-.19.08-.32.16-.59.29-1.04.51-1.36.64.45,1.28,1.27,2.17,2.44,2.68-.24.24-.47.52-.68.84-1.28-.69-2.14-1.73-2.6-3.12l-.56.24c.16.51.24,1.03.24,1.56.03,1.22-.49,1.84-1.56,1.84h-1.36c-.03-.05-.05-.15-.08-.28-.05-.27-.11-.48-.16-.64h1.16c.69.05,1.01-.25.96-.92,0-.21-.01-.41-.04-.6-1.17.93-2.66,1.69-4.48,2.28-.03-.05-.07-.15-.12-.28-.13-.29-.25-.49-.36-.6,1.81-.43,3.38-1.19,4.72-2.28-.05-.16-.12-.32-.2-.48-1.12.77-2.44,1.4-3.96,1.88-.05-.11-.13-.25-.24-.44-.11-.21-.19-.36-.24-.44,1.6-.37,2.94-.93,4.04-1.68-.03-.05-.08-.12-.16-.2-.05-.08-.11-.13-.16-.16-.88.45-1.96.84-3.24,1.16-.13-.29-.28-.59-.44-.88,1.68-.29,3.02-.76,4.04-1.4h-2.44ZM48.26,76.08v-2h4.08v-.96h1.04v.96h3.96v2h-1.04v-1.12h-6.95v1.12h-1.08Z"/>
    </g>
    <g>
      <path class="cls-5" d="M18.31,85.98v-.05c.19-.03,1.07-.08,1.26-.08.1,0,.18.07.29.18.33.47,1.17,1.75,1.9,2.88.46.73.84,1.3,1.08,1.82-.06-.79-.05-1.19-.05-1.7v-2.85c0-.24.07-.28.21-.3.32-.03.59-.04.83-.04-.02.44-.03,1.03-.03,1.88v4.51c-.09.04-.67.16-.97.16-.12,0-.18-.04-.26-.14-.53-.74-1.05-1.53-1.86-2.78-.54-.86-.84-1.43-1.26-2.22.06,1.03.05,1.56.05,2.09v2.68c0,.21-.06.25-.22.28-.18.03-.51.05-.82.04.02-.41.03-1,.03-1.86v-4.24l-.18-.26Z"/>
      <path class="cls-5" d="M27.01,87.66c1.47,0,2.25,1.04,2.25,2.31,0,1.43-.93,2.43-2.36,2.43-1.32,0-2.26-.88-2.26-2.33s.99-2.41,2.36-2.41h.01ZM26.9,88.42c-.62,0-.96.64-.96,1.52,0,1.17.49,1.71,1.07,1.71.63,0,.95-.62.95-1.56,0-.87-.31-1.67-1.05-1.67h-.01Z"/>
      <path class="cls-5" d="M30.45,90.89c.42,0,.67.35.67.74,0,.46-.3.77-.75.77-.33,0-.7-.22-.7-.73,0-.43.26-.78.76-.78h.01Z"/>
      <path class="cls-5" d="M33.89,87.66c1.47,0,2.25,1.04,2.25,2.31,0,1.43-.93,2.43-2.36,2.43-1.32,0-2.26-.88-2.26-2.33s.99-2.41,2.36-2.41h.01ZM33.78,88.42c-.62,0-.96.64-.96,1.52,0,1.17.49,1.71,1.07,1.71.63,0,.95-.62.95-1.56,0-.87-.31-1.67-1.05-1.67h-.01Z"/>
      <path class="cls-5" d="M38.92,85.29c.29,0,.56.09.71.24.06.26-.15.71-.43.69-.08-.03-.19-.05-.28-.05-.5,0-.76.47-.73,1.63.14,0,.98,0,1.23-.02-.03.34-.18.57-.32.66-.13.1-.49.14-.94.14,0,.86.04,3.13.04,3.69-.33.05-.99.08-1.13.08-.1,0-.16-.02-.16-.17.03-1.1.02-2.34.02-3.6-.4-.03-.59-.14-.59-.37.17-.2.34-.27.59-.42,0-1.04.3-1.63.72-2.02.43-.39.88-.47,1.27-.47h.01Z"/>
      <path class="cls-5" d="M45.48,88.53v-2.35c0-.22.08-.27.25-.29.25-.02.75-.03,1.06-.04-.02.39-.03,1-.03,1.85v3.3c0,.72.02,1.05.03,1.26-.2.05-.86.08-1.09.08-.14,0-.21-.03-.21-.19v-2.8c-.2.02-.54.03-1.17.03h-1.56v2.65c0,.21-.08.26-.32.28-.28.03-.78.05-.99.04.02-.41.03-1.01.03-1.87v-3.23c0-.7-.01-1.11-.03-1.31.27-.05.88-.08,1.09-.08.18,0,.21.09.21.55v2.13h2.73Z"/>
      <path class="cls-5" d="M49.96,87.66c1.47,0,2.25,1.04,2.25,2.31,0,1.43-.93,2.43-2.36,2.43-1.32,0-2.26-.88-2.26-2.33s.99-2.41,2.36-2.41h.01ZM49.85,88.42c-.62,0-.96.64-.96,1.52,0,1.17.49,1.71,1.07,1.71.63,0,.95-.62.95-1.56,0-.87-.31-1.67-1.05-1.67h-.01Z"/>
      <path class="cls-5" d="M55.7,91.36c.05.25.01.56-.17.72-.25.21-.67.33-1.12.33-1.04,0-1.38-.67-1.38-1.37v-2.44c-.38,0-.57-.18-.57-.29.14-.3.97-1.03,1.14-1.18.17-.14.37-.27.77-.31-.04.31-.06.67-.06.96h1.51c-.12.71-.35.74-.55.76-.23.02-.56.04-.99.04-.04.84-.03,1.83.01,2.26.05.5.33.68.67.68.31,0,.59-.1.72-.18l.03.02Z"/>
      <path class="cls-5" d="M59.68,91.27c0,.45-.36.87-.53.95-.15.07-.59.18-.95.18-1.49,0-2.31-.82-2.31-2.32,0-1.24.81-2.42,2.19-2.42,1.3,0,1.8.94,1.81,1.76,0,.14-.01.25-.03.34-.03.15-.44.3-.86.4-.26.06-1.32.07-1.88.05.05.9.71,1.28,1.4,1.28.49,0,.97-.15,1.14-.23l.02.02ZM57.96,88.38c-.38,0-.79.36-.83,1.12.42.03,1.21.02,1.45,0,.07,0,.13-.1.13-.21.01-.5-.23-.91-.75-.91h0Z"/>
      <path class="cls-5" d="M60.49,86.62c0-.6-.02-.88-.04-1.08.2-.09.87-.18,1.08-.18.15,0,.19.05.19.67v4.92c0,.5.02,1.05.04,1.35-.21.05-.99.08-1.13.08-.1,0-.14-.03-.14-.13v-5.61Z"/>
      <path class="cls-5" d="M64.18,87.66c.41,0,.81.1,1.14.36.01.27-.11.66-.47.63-.2-.09-.46-.16-.71-.16-.31,0-.52.16-.52.41,0,.21.16.34.38.46.19.11.6.3.84.42.51.29.72.67.72,1.12,0,1.01-.9,1.5-1.83,1.5-.4,0-.83-.11-1.1-.29-.13-.09-.23-.21-.23-.37.01-.21.12-.44.27-.55.3.18.74.37,1.14.37.37,0,.58-.17.58-.43,0-.18-.1-.32-.4-.47-.26-.14-.52-.27-.78-.41-.42-.24-.72-.62-.72-1.17,0-.91.79-1.43,1.67-1.43h.01Z"/>
    </g>
    <g class="cls-6">
      <polygon class="cls-2" points="81.57 65.35 .5 65.35 .5 96.39 40.04 96.39 42.06 100.48 44.37 96.39 81.57 96.39 81.57 65.35"/>
      <path class="cls-4" d="M41.28,67.77c18.57,0,33.63-15.06,33.63-33.63S59.85.5,41.28.5,7.65,15.56,7.65,34.14s15.06,33.63,33.63,33.63"/>
      <circle class="cls-3" cx="41.28" cy="34.14" r="33.63"/>
      <path class="cls-5" d="M60.72,32.52c-.59.02-1,.44-1,1.03s.46,1.06,1.07,1.03c.56-.02,1.02-.49,1.01-1.04,0-.6-.48-1.04-1.09-1.03M51.99,17.49c0-.57-.51-1.08-1.07-1.07-.56.01-1.01.52-1,1.11.01.55.48,1.02,1.01,1.03.56,0,1.06-.5,1.06-1.07M29.99,17.48c0,.57.5,1.09,1.05,1.08.57-.01,1.04-.52,1.03-1.1-.01-.55-.47-1.02-1.01-1.04s-1.06.49-1.07,1.06M21.2,34.58c.58.02,1.03-.39,1.07-.97.03-.62-.38-1.08-1-1.1-.62-.01-1.07.42-1.07,1.03,0,.57.44,1.02,1.01,1.03M56.08,24.37c-.01.88.62,1.53,1.48,1.55.85.01,1.52-.66,1.53-1.51,0-.8-.66-1.49-1.46-1.52-.82-.04-1.54.65-1.55,1.49M24.41,22.89c-.83-.01-1.55.69-1.56,1.51,0,.77.7,1.49,1.48,1.52.83.03,1.56-.65,1.58-1.48.02-.84-.66-1.54-1.5-1.56M42.48,13.99c-.01-.84-.72-1.53-1.54-1.51-.76.02-1.47.76-1.48,1.52,0,.83.71,1.53,1.54,1.52.87-.01,1.5-.66,1.49-1.54M30.83,34.25h-2.19c-1.22,0-2.44.02-3.66,0-.79-.02-1.43,0-1.92.86-.51.9-1.77,1.09-2.75.68-1.06-.44-1.53-1.27-1.44-2.52.07-1,.73-1.79,1.7-2.04,1.1-.29,2.19.09,2.71,1.04.27.5.59.59,1.1.59,2.14-.03,4.29-.01,6.48-.01.24-2.01.86-3.83,2.19-5.56-.72-.68-1.44-1.36-2.18-2.03-.11-.1-.3-.16-.46-.16-.93-.01-1.86-.04-2.78.02-.2.01-.46.29-.57.5-.78,1.51-2.47,2.11-3.97,1.37-1.43-.71-2.01-2.48-1.24-3.94.53-1.02,1.42-1.51,2.56-1.51,1.19,0,2.07.56,2.57,1.61.23.49.5.62.99.6.75-.03,1.5,0,2.35,0,0-1.25.02-2.44-.02-3.62,0-.18-.31-.37-.52-.5-.95-.61-1.35-1.58-1.1-2.71.21-.92.98-1.65,1.91-1.78,1.11-.16,2.1.32,2.58,1.26.6,1.18.23,2.56-.95,3.23-.4.23-.56.47-.51.92.03.36,0,.73,0,1.1q0,2.77,2.2,4.67c1.76-1.65,3.88-2.59,6.36-2.85,0-2.1.01-4.17-.02-6.24,0-.18-.27-.41-.47-.52-1.07-.56-1.69-1.42-1.69-2.62,0-1.15.49-2.09,1.57-2.61,1.11-.53,2.19-.42,3.16.33,1.62,1.25,1.33,3.91-.56,4.82-.48.23-.62.5-.61,1,.03,1.85.01,3.71.02,5.57,0,.07.03.14.07.27,2.37.26,4.49,1.15,6.34,2.91.7-.72,1.38-1.4,2.03-2.11.11-.12.11-.36.11-.55.01-.73,0-1.46,0-2.2,0-.87.1-1.63-.92-2.26-1.17-.72-1.06-2.61-.03-3.53,1.04-.93,2.74-.79,3.58.31.87,1.13.63,2.78-.6,3.51-.55.32-.65.67-.63,1.22.03.97,0,1.94,0,2.89.16.05.23.09.29.09.9,0,1.8,0,2.7,0,1.21-1.93,2.26-2.53,3.69-2.1,1.35.4,2.19,1.52,2.14,2.87-.04,1.35-.93,2.43-2.23,2.73-1.5.35-2.58-.3-3.57-2.14-1,0-2.03,0-3.05,0-.18,0-.4.06-.53.18-.71.67-1.39,1.36-2.11,2.07,1.23,1.64,1.92,3.44,2.12,5.49h2.23c1.2,0,2.39-.02,3.59,0,.83.02,1.52.04,2.06-.87.54-.91,1.76-1.07,2.75-.65,1.01.43,1.51,1.34,1.42,2.55-.08.97-.81,1.82-1.74,2.03-1.14.26-2.16-.12-2.7-1.1-.23-.42-.49-.56-.97-.56-2.12.03-4.25.02-6.37.02-.05,0-.09.02-.21.05-.15.67-.23,1.4-.48,2.07-.34.93-.79,1.82-1.23,2.72-.21.44-.57.73-1.06.43-.53-.32-.37-.74-.1-1.19,1.97-3.28,2.02-6.59-.18-9.74-2.1-3.01-5.12-4.29-8.73-3.61-3.56.66-5.85,2.95-6.78,6.41-.98,3.63.17,6.66,3.04,9.07.24.2.51.61.47.87-.08.53-.67.72-1.19.31-2.04-1.6-3.34-3.64-3.85-6.19-.08-.38-.14-.76-.22-1.21"/>
      <path class="cls-5" d="M38.51,46.19c0-2.12,0-4.23-.01-6.35,0-.16-.18-.38-.34-.47-2.55-1.36-3.71-3.51-3.59-6.35.03-.69.28-1.37.5-2.04.13-.4.38-.78.92-.54.51.23.54.58.35,1.08-.98,2.54-.16,5.06,2.17,6.43v-.96c0-.81-.02-1.61,0-2.42.05-1.38,1.05-2.36,2.37-2.36,1.33,0,2.3.99,2.32,2.39.02,1.12,0,2.24,0,3.37,1.41-.35,2.62-2.27,2.77-3.6.35-3.18-1.59-5.62-4.79-5.85-.79-.06-1.62.26-2.4.49-.47.14-.88.28-1.11-.27-.22-.52.1-.8.54-1.02,3.55-1.8,8.27.5,9.06,4.42.58,2.87-.64,5.6-3.14,7.03q-1.06.6-.84,2.02c1.78,0,3.58-.01,5.38,0,1.68.01,2.95.88,3.31,2.43.2.86.14,1.79.1,2.69,0,.17-.46.46-.68.44-.22-.02-.53-.35-.57-.58-.09-.5-.03-1.02-.05-1.53-.06-1.15-.62-1.81-1.75-1.98,0,.32,0,.62,0,.93-.02.5.09,1.12-.68,1.13-.84.02-.69-.65-.72-1.16-.01-.29,0-.58,0-.93h-1.52c0,.43,0,.89,0,1.34,0,.46-.19.75-.69.75-.51,0-.68-.29-.67-.75,0-.43,0-.87,0-1.36h-1.56c0,.47,0,.9,0,1.34,0,.45-.14.77-.66.77-.54,0-.7-.31-.7-.81,0-2.83,0-5.66,0-8.5,0-.2,0-.39,0-.59-.01-.79-.41-1.29-1-1.28-.58.01-.93.45-.93,1.24,0,3.47,0,6.93,0,10.4,0,.98.04,1.96-.02,2.93-.02.31-.23.77-.47.86-.22.09-.68-.15-.88-.38-.95-1.08-1.83-2.23-2.78-3.3-.24-.27-.69-.52-1.03-.51-.8.04-1.04.98-.46,1.68,1.26,1.52,2.44,3.12,3.83,4.52,1.56,1.57,2.42,3.29,2.02,5.53-.03.19,0,.39,0,.59,0,.51-.18.89-.74.88-.51-.01-.7-.38-.7-.85,0-.9.03-1.81-.02-2.71-.01-.31-.13-.67-.32-.91-1.68-2.06-3.4-4.09-5.1-6.13-.97-1.16-.93-2.57.1-3.46,1.04-.89,2.46-.74,3.43.38.54.62,1.06,1.27,1.59,1.91.05-.02.1-.04.15-.05"/>
      <path class="cls-5" d="M48.66,55.84c0-.32.02-.64,0-.95-.03-.52.13-.91.54-1.28,1.04-.94,1.59-2.14,1.63-3.55.02-.5.16-.91.71-.91.58,0,.66.45.65.94-.03,1.61-.65,2.96-1.66,4.19-.25.3-.38.75-.43,1.15-.07.58-.01,1.17-.02,1.75,0,.47-.19.83-.72.82-.52-.01-.69-.38-.69-.85,0-.44,0-.88,0-1.32"/>
    </g>
  </g>
</svg>