<?xml version="1.0" encoding="UTF-8"?>
<svg xmlns="http://www.w3.org/2000/svg" xmlns:xlink="http://www.w3.org/1999/xlink" viewBox="0 0 142.44 115.23">
  <defs>
    <style>
      .cls-1, .cls-2 {
        fill: none;
      }

      .cls-3 {
        fill: #d7bddb;
      }

      .cls-4 {
        fill: #947b27;
      }

      .cls-4, .cls-5, .cls-6, .cls-7, .cls-8, .cls-9, .cls-10, .cls-11, .cls-12, .cls-13, .cls-14, .cls-15, .cls-16, .cls-17, .cls-18, .cls-19, .cls-20, .cls-21, .cls-22, .cls-23, .cls-24, .cls-25, .cls-26, .cls-27, .cls-28, .cls-29, .cls-30, .cls-31, .cls-32, .cls-33, .cls-34, .cls-35, .cls-36, .cls-37, .cls-38, .cls-39, .cls-40, .cls-41, .cls-42, .cls-43, .cls-44, .cls-45, .cls-46, .cls-47, .cls-48, .cls-49, .cls-50, .cls-51, .cls-52, .cls-53, .cls-54, .cls-55, .cls-56 {
        fill-rule: evenodd;
      }

      .cls-5, .cls-57, .cls-58 {
        fill: #6970a7;
      }

      .cls-6 {
        fill: #250f0b;
      }

      .cls-7 {
        fill: #5e6497;
      }

      .cls-8 {
        fill: #353957;
      }

      .cls-9, .cls-59 {
        fill: #404567;
      }

      .cls-10, .cls-60, .cls-61 {
        fill: #f8cbb2;
      }

      .cls-62, .cls-42 {
        fill: #767dae;
      }

      .cls-63 {
        fill: #56596d;
      }

      .cls-11, .cls-64 {
        fill: #fff;
      }

      .cls-57, .cls-65, .cls-66, .cls-67, .cls-61, .cls-68, .cls-69, .cls-70, .cls-2, .cls-71, .cls-72, .cls-73, .cls-74, .cls-75, .cls-76 {
        clip-rule: evenodd;
      }

      .cls-77 {
        fill: #bdbdbd;
      }

      .cls-78 {
        fill: #686c84;
      }

      .cls-12 {
        fill: #c4a333;
      }

      .cls-79 {
        fill: #515365;
      }

      .cls-80 {
        fill: #737690;
      }

      .cls-81 {
        fill: #56596c;
      }

      .cls-13 {
        fill: #2b2a48;
      }

      .cls-82, .cls-69, .cls-56 {
        fill: #dcb73a;
      }

      .cls-14, .cls-65 {
        fill: #f9cea5;
      }

      .cls-83 {
        fill: #202334;
      }

      .cls-84, .cls-28 {
        fill: #ad8f2c;
      }

      .cls-85 {
        fill: #6c7088;
      }

      .cls-86 {
        fill: url(#linear-gradient-2);
      }

      .cls-87, .cls-88 {
        fill: #7f8080;
      }

      .cls-87, .cls-88, .cls-89, .cls-90, .cls-91, .cls-35, .cls-92, .cls-47, .cls-55 {
        mix-blend-mode: multiply;
      }

      .cls-87, .cls-89, .cls-35 {
        opacity: .25;
      }

      .cls-88, .cls-93 {
        opacity: .2;
      }

      .cls-15, .cls-94, .cls-72 {
        fill: #f3ca42;
      }

      .cls-95 {
        fill: #9b9cad;
      }

      .cls-96 {
        fill: #72779e;
      }

      .cls-97, .cls-66, .cls-27 {
        fill: #8389b8;
      }

      .cls-98 {
        fill: #898dac;
      }

      .cls-99 {
        fill: url(#linear-gradient);
      }

      .cls-16 {
        fill: #734c23;
      }

      .cls-100 {
        fill: #0b2643;
      }

      .cls-101 {
        fill: #7a7f9b;
      }

      .cls-102 {
        fill: #6f738c;
      }

      .cls-103 {
        fill: #525668;
      }

      .cls-104 {
        fill: #dcddef;
      }

      .cls-105 {
        fill: #686b83;
      }

      .cls-106 {
        fill: #676b8f;
      }

      .cls-17 {
        fill: #dba6a5;
      }

      .cls-67, .cls-51 {
        fill: #04253d;
      }

      .cls-18 {
        fill: #ac8c7e;
      }

      .cls-107 {
        fill: #6c6d78;
      }

      .cls-108 {
        fill: #525883;
      }

      .cls-109 {
        fill: #2d3148;
      }

      .cls-110 {
        isolation: isolate;
      }

      .cls-68, .cls-37 {
        fill: #fad4c1;
      }

      .cls-111 {
        clip-path: url(#clippath-17);
      }

      .cls-112 {
        clip-path: url(#clippath-19);
      }

      .cls-113 {
        clip-path: url(#clippath-11);
      }

      .cls-114 {
        clip-path: url(#clippath-16);
      }

      .cls-115 {
        clip-path: url(#clippath-18);
      }

      .cls-116 {
        clip-path: url(#clippath-10);
      }

      .cls-117 {
        clip-path: url(#clippath-15);
      }

      .cls-118 {
        clip-path: url(#clippath-13);
      }

      .cls-119 {
        clip-path: url(#clippath-14);
      }

      .cls-120 {
        clip-path: url(#clippath-12);
      }

      .cls-121 {
        clip-path: url(#clippath-31);
      }

      .cls-122 {
        clip-path: url(#clippath-32);
      }

      .cls-123 {
        clip-path: url(#clippath-33);
      }

      .cls-124 {
        clip-path: url(#clippath-34);
      }

      .cls-125 {
        clip-path: url(#clippath-35);
      }

      .cls-126 {
        clip-path: url(#clippath-39);
      }

      .cls-127 {
        clip-path: url(#clippath-30);
      }

      .cls-128 {
        clip-path: url(#clippath-36);
      }

      .cls-129 {
        clip-path: url(#clippath-37);
      }

      .cls-130 {
        clip-path: url(#clippath-38);
      }

      .cls-131 {
        clip-path: url(#clippath-27);
      }

      .cls-132 {
        clip-path: url(#clippath-29);
      }

      .cls-133 {
        clip-path: url(#clippath-26);
      }

      .cls-134 {
        clip-path: url(#clippath-28);
      }

      .cls-135 {
        clip-path: url(#clippath-20);
      }

      .cls-136 {
        clip-path: url(#clippath-21);
      }

      .cls-137 {
        clip-path: url(#clippath-22);
      }

      .cls-138 {
        clip-path: url(#clippath-23);
      }

      .cls-139 {
        clip-path: url(#clippath-24);
      }

      .cls-140 {
        clip-path: url(#clippath-25);
      }

      .cls-141 {
        clip-path: url(#clippath-41);
      }

      .cls-142 {
        clip-path: url(#clippath-42);
      }

      .cls-143 {
        clip-path: url(#clippath-43);
      }

      .cls-144 {
        clip-path: url(#clippath-44);
      }

      .cls-145 {
        clip-path: url(#clippath-45);
      }

      .cls-146 {
        clip-path: url(#clippath-40);
      }

      .cls-147 {
        clip-path: url(#clippath-46);
      }

      .cls-148 {
        fill: #3a3d5d;
      }

      .cls-149 {
        fill: #7f8298;
      }

      .cls-150 {
        clip-path: url(#clippath-1);
      }

      .cls-151 {
        clip-path: url(#clippath-3);
      }

      .cls-152 {
        clip-path: url(#clippath-4);
      }

      .cls-153 {
        clip-path: url(#clippath-2);
      }

      .cls-154 {
        clip-path: url(#clippath-7);
      }

      .cls-155 {
        clip-path: url(#clippath-6);
      }

      .cls-156 {
        clip-path: url(#clippath-9);
      }

      .cls-157 {
        clip-path: url(#clippath-8);
      }

      .cls-158 {
        clip-path: url(#clippath-5);
      }

      .cls-19, .cls-71 {
        fill: #333;
      }

      .cls-20 {
        fill: #001822;
      }

      .cls-21 {
        fill: #f8ccc8;
      }

      .cls-70, .cls-26, .cls-159 {
        fill: #1a1a1a;
      }

      .cls-22, .cls-73 {
        fill: #e0f2fa;
      }

      .cls-89, .cls-90, .cls-91, .cls-47 {
        fill: #999;
      }

      .cls-90 {
        opacity: .49;
      }

      .cls-91, .cls-47 {
        opacity: .35;
      }

      .cls-160 {
        fill: #37a0cb;
      }

      .cls-23 {
        fill: #e3a015;
      }

      .cls-24 {
        fill: #dd999a;
      }

      .cls-25, .cls-75 {
        fill: #f5b2b3;
      }

      .cls-161 {
        fill: #adb0ce;
      }

      .cls-162 {
        fill: #7a7f9a;
      }

      .cls-163 {
        fill: #013d61;
      }

      .cls-164 {
        fill: #545a87;
      }

      .cls-29 {
        fill: #bfd9e6;
      }

      .cls-30 {
        fill: #e9ad83;
      }

      .cls-31 {
        fill: #e5bba8;
      }

      .cls-165 {
        fill: #5c6075;
      }

      .cls-32 {
        fill: #ddb39c;
      }

      .cls-166 {
        fill: #e6e6e5;
      }

      .cls-33 {
        fill: #f8c5b4;
      }

      .cls-34, .cls-74 {
        fill: #403d5f;
      }

      .cls-35, .cls-167 {
        fill: #666767;
      }

      .cls-168, .cls-50, .cls-76 {
        fill: #040000;
      }

      .cls-36 {
        fill: #281415;
      }

      .cls-38 {
        fill: #f8c8be;
      }

      .cls-39 {
        fill: #3c4c80;
      }

      .cls-40 {
        fill: #5e5555;
      }

      .cls-169 {
        fill: #926325;
      }

      .cls-170 {
        fill: #c8cadf;
      }

      .cls-41 {
        fill: #ad871e;
      }

      .cls-171 {
        fill: #adaec1;
      }

      .cls-172 {
        fill: #535769;
      }

      .cls-43 {
        fill: #e5bc92;
      }

      .cls-92 {
        opacity: .31;
      }

      .cls-92, .cls-55 {
        fill: #b4b3b3;
      }

      .cls-44 {
        fill: #e19f77;
      }

      .cls-45 {
        fill: #efc3aa;
      }

      .cls-46 {
        fill: #cfeaef;
        opacity: .56;
      }

      .cls-46, .cls-93 {
        mix-blend-mode: screen;
      }

      .cls-173 {
        fill: #606378;
      }

      .cls-174 {
        fill: #484b65;
      }

      .cls-175 {
        fill: #626681;
      }

      .cls-48 {
        fill: #262626;
      }

      .cls-176 {
        fill: #666a80;
      }

      .cls-49 {
        fill: #442b18;
      }

      .cls-52 {
        fill: #f5d362;
      }

      .cls-177 {
        clip-path: url(#clippath);
      }

      .cls-178 {
        fill: #4b5077;
      }

      .cls-179 {
        fill: #a4a9cb;
      }

      .cls-180 {
        fill: #4b4e75;
      }

      .cls-181 {
        fill: #333753;
      }

      .cls-182 {
        fill: #9197be;
      }

      .cls-183 {
        fill: #63677c;
      }

      .cls-184 {
        fill: #666980;
      }

      .cls-53 {
        fill: #0f2b3b;
      }

      .cls-185 {
        fill: #5a5d70;
      }

      .cls-54 {
        fill: #4e4d4d;
      }

      .cls-55 {
        opacity: .3;
      }
    </style>
    <linearGradient id="linear-gradient" x1="63.15" y1="87.16" x2="116.79" y2="87.16" gradientUnits="userSpaceOnUse">
      <stop offset="0" stop-color="#f2f2f2"/>
      <stop offset="1" stop-color="#b4b3b3"/>
    </linearGradient>
    <linearGradient id="linear-gradient-2" x1="33.11" y1="95.61" x2="63.15" y2="95.61" gradientUnits="userSpaceOnUse">
      <stop offset="0" stop-color="#b4b3b3"/>
      <stop offset="1" stop-color="#f2f2f2"/>
    </linearGradient>
    <clipPath id="clippath">
      <path class="cls-67" d="M70.48,24.54c.53.29,1.31.33,1.91-.04-.03-2.86-.02-6.22-.54-9.42-.12-1.08.71-2.47.08-3.52l-2.28.02c-.52,2.37-.1,4.63.59,7.16.3,1.93-.01,3.92.25,5.8h0Z"/>
    </clipPath>
    <clipPath id="clippath-1">
      <path class="cls-67" d="M73.6,26.46c.66.27,1.11.3,1.83-.08-.12-2.93-.21-6.09-.89-9.38-.19-1.13.77-2.55-.03-3.6l-3.06.13c-.55,1.82.55,4.06.96,5.74.96,2.32.68,4.83,1.18,7.18h0Z"/>
    </clipPath>
    <clipPath id="clippath-2">
      <path class="cls-73" d="M68.41,7.07c-.38-.26-.79-1.42-1.68-2.41l-.91.57c2.24,5.38,2.59,4.8,4.82.93.19-.43.4-2.23-.92-1.29,0,0-.85,1.61-1.31,2.19h0Z"/>
    </clipPath>
    <clipPath id="clippath-3">
      <path class="cls-73" d="M69.72,4.89c.81-1.32,4.72-.61,5.76,1.36-1.19,2.35-1.37,4.66-.54,7.66-1.16,1.05-5.25-.15-5.82-.25.04-.96.3-2.63.36-3.78-.25-1.42-.25-2.97.03-4.06,0-.31.02-.64.22-.93h0Z"/>
    </clipPath>
    <clipPath id="clippath-4">
      <path class="cls-75" d="M73.07,2.95l-.06,1.44s-.61,1.23-1.83.5l.27-2.01,1.63.07Z"/>
    </clipPath>
    <clipPath id="clippath-5">
      <path class="cls-75" d="M73.16,3.2c.67-1.08.78-3.49-1.2-3.17-.32.04-2.09.61-1.27,1.08.03.8.09,1.69.14,2.58.07.25.27.37.59.36.66-.13,1.39-.32,1.74-.87h0Z"/>
    </clipPath>
    <clipPath id="clippath-6">
      <path class="cls-73" d="M73.23,14.26l1.06.84c.87-.93,1.78-3.04,2.54-4.18.08-.12.11-.27.07-.41-.21-.73-.88-3.09-1.11-3.92-.21-.65-1-1.4-1.61-.79-.54.4-.39.95-.23,1.3-.03.1,1.37,2.95,1.38,3.6-.43.71-1.75,3.23-2.09,3.58h0Z"/>
    </clipPath>
    <clipPath id="clippath-7">
      <path class="cls-74" d="M61.84,43.06c.51.28,1.24.31,1.82-.03-.04-2.66,0-5.71-.49-8.71-.2-1.14.65-2.56.04-3.6l-2.4.06c-.25.98-.16,1.81-.01,2.61.16,1.14.54,3.55.93,4.59-.03,1.78-.04,3.41.11,5.08h0Z"/>
    </clipPath>
    <clipPath id="clippath-8">
      <path class="cls-74" d="M64.8,44.89c.62.26,1.06.28,1.74-.08-.13-2.71-.17-5.58-.8-8.64-.29-1.18.7-2.66-.07-3.71l-2.91.13c-.52,1.74.52,3.86.91,5.46.91,2.21.64,4.6,1.12,6.83h0Z"/>
    </clipPath>
    <clipPath id="clippath-9">
      <path class="cls-72" d="M58.21,27.16c.06.88.38,1.75.86,2.6l1.13-.39s-.35-1.09-.52-1.61c-.05-.17,0-.35.13-.47.59-.54,2.2-2,2.2-2,.38-.47.53-.93.27-1.35-.36-.28-.67-.19-.96,0-.64.67-3.07,2.22-3.11,3.22h0Z"/>
    </clipPath>
    <clipPath id="clippath-10">
      <path class="cls-2" d="M60.76,24.95c.28-2.41,4.78-1.18,5.83.71-1.03,2.03-1.36,4.3-.55,7.03-.74.24-1.48.12-1.96.15-1.96-.2-2.68-.11-3.51-.36,0-.87.31-2.14.4-3.18-.12-1.44-.48-3.19-.2-4.34h0Z"/>
    </clipPath>
    <clipPath id="clippath-11">
      <path class="cls-65" d="M61.86,21.6c-.14.77-.11,2.74.92,2.47-.02.06-.03.12,0,.18l-.02.36,1.54-.56c-.12-.31-.12-.69.01-1.01l.2-.88-1.71-1.02-.94.44h0Z"/>
    </clipPath>
    <clipPath id="clippath-12">
      <path class="cls-76" d="M63.02,22.1s.13.29.49.41c0,0,.13.16.15.41-.02-1.14,1.02-.74.56.04-.02.03-.08.2-.02.43.81-.91.53-3.62-1.49-3.11-1.84.54-1.75,2.4.3,1.81Z"/>
    </clipPath>
    <clipPath id="clippath-13">
      <path class="cls-72" d="M66.36,30.29l.63.95c.71-.57,2.05-1.83,1.63-2.56-.97-1.4-1.81-4.21-3.05-3.24-1.19.91.87,2.32,1.7,3.53.3.48-.6,1.04-.92,1.33h0Z"/>
    </clipPath>
    <clipPath id="clippath-14">
      <path class="cls-72" d="M68.83,55.72c.04.43.2.72.42.93,1.09-.35,2.02-.84,3.07-1.53.59-.39.68-2.56.43-3.56,0,0,.3-.78.03-.87-1.79-.49-1.21,2.42-1.58,3.78-1.11.54-1.99,1.14-2.37,1.24h0Z"/>
    </clipPath>
    <clipPath id="clippath-15">
      <path class="cls-76" d="M72.35,47.81c0,.23.02.53-.17.66-.13.09-.08-.31-.1-.47-.03-.45-.02-1.16.34-1.51.45-.29.98-.29,1.49-.33.67-.1,1.29-.05,1.65.58.09.12.21.27.21.44.06.64-.28.66-.38,1.13.12.49-.11,1.07-.56,1.33-1.09.84-2.03-1.06-2.5-1.83h0Z"/>
    </clipPath>
    <clipPath id="clippath-16">
      <path class="cls-68" d="M74.47,50.98c-.21.39-.61.75-1.11.93-.21-.25-.3-.95-.18-1.37-1.16.34-.88-1.3-.99-2.15.02-.54.1-.97.41-.99.95.17.71,1.01,1.24,1.65.19.14.53,0,.74-.08.12-.1.31-.18.41-.08.15.28-.47.76-.66.99l.13,1.1h0Z"/>
    </clipPath>
    <clipPath id="clippath-17">
      <path class="cls-66" d="M75.79,60.71c-.53,1.62-2.87,1.59-3.64,2.17-.43.33-.42.82-.95,1.31-8.06-.86-.88-6.26,3.28-6.44,1.5,1.18,1.6,2.06,1.31,2.95h0Z"/>
    </clipPath>
    <clipPath id="clippath-18">
      <path class="cls-2" d="M76.56,52.6c-.07-1.02-1.41-1.2-2.08-1.76-.28.39-.59.68-1.1,1.04l-.21-1.34c-.39.24-1.26.08-1.56.46-.56.72-1.93,2.99-1.93,3.75,0,.71,1.31.7,1.95.82-.15,1.07-.44,2.09-.82,3.08.33.49,1,1.14,1.64,1.33.1.03.31-.62.31-.62,0,0,.05.62.21.62.86-.05,2.17-.4,2.87-.82l-.62-2.16c.62-1.76,1.39-3.44,1.33-4.41h0Z"/>
    </clipPath>
    <clipPath id="clippath-19">
      <path class="cls-57" d="M84.13,23.82s1.45.93.76,4.25c-.7,3.32-.46,4.02-.46,4.02,0,0-3.19.81-4.27-.53,0,0-.68-5.23.23-6.82"/>
    </clipPath>
    <clipPath id="clippath-20">
      <path class="cls-72" d="M82.2,18.02c-.88-.37-1.52-.75-1.52,1.43-.42,1.08-1.37,1.46-.23,3.1l-.18,2.36c.69,1.26,2.68.9,4.31-.55,0,0,0-1.93.46-2.68.47-.75.32-2.25.32-2.25,0,0-.6-.59-1.4-.81-.8-.21-1.78-.6-1.78-.6h0Z"/>
    </clipPath>
    <clipPath id="clippath-21">
      <path class="cls-1" d="M34.21,65.75c0-.06,0-2.85.02-2.91,0,.06,0,2.85-.02,2.91Z"/>
    </clipPath>
    <clipPath id="clippath-22">
      <path class="cls-1" d="M23.38,64.81v2.84c0-.1-.06-.21-.18-.3v-2.84c.13.09.18.2.18.3Z"/>
    </clipPath>
    <clipPath id="clippath-23">
      <path class="cls-1" d="M36.36,68.45v-2.84c0-.13.1-.27.29-.37v2.84c-.2.1-.29.23-.29.37Z"/>
    </clipPath>
    <clipPath id="clippath-24">
      <path class="cls-1" d="M20.7,68.92v-2.84c.14.62.16,3.06.13,3.74-.09-.3-.13-.6-.13-.9Z"/>
    </clipPath>
    <clipPath id="clippath-25">
      <path class="cls-1" d="M23.81,67.78v2.84c-.02-.29-.39-.46-.68-.49v-2.84c.31.04.67.2.68.49Z"/>
    </clipPath>
    <clipPath id="clippath-26">
      <path class="cls-1" d="M38.25,66.59c-.05,1.04.24,3.32-.54,4.18v-2.84c.29-.43.47-.88.54-1.34Z"/>
    </clipPath>
    <clipPath id="clippath-27">
      <path class="cls-1" d="M35.65,69.75v2.84c-.55.31-1.14.56-1.77.77v-2.84c.64-.21,1.23-.47,1.77-.77Z"/>
    </clipPath>
    <clipPath id="clippath-28">
      <path class="cls-1" d="M97.62,97.72s0-1.93.01-1.97c0,.04,0,1.93-.01,1.97Z"/>
    </clipPath>
    <clipPath id="clippath-29">
      <path class="cls-1" d="M90.28,97.08v1.93c0-.07-.04-.14-.12-.21v-1.93c.09.06.12.13.12.21Z"/>
    </clipPath>
    <clipPath id="clippath-30">
      <path class="cls-1" d="M99.08,99.55v-1.93c0-.09.07-.18.2-.25v1.93c-.13.07-.19.16-.2.25Z"/>
    </clipPath>
    <clipPath id="clippath-31">
      <path class="cls-1" d="M88.46,99.87v-1.93c.1.42.11,2.08.09,2.53-.06-.2-.09-.4-.09-.61Z"/>
    </clipPath>
    <clipPath id="clippath-32">
      <path class="cls-1" d="M90.57,99.09v1.93c-.01-.2-.26-.31-.46-.33v-1.93c.21.02.46.14.46.33Z"/>
    </clipPath>
    <clipPath id="clippath-33">
      <path class="cls-1" d="M100.36,98.29c-.04.7.16,2.25-.37,2.83v-1.93c.2-.29.32-.6.37-.91Z"/>
    </clipPath>
    <clipPath id="clippath-34">
      <path class="cls-1" d="M98.6,100.43v1.93c-.37.21-.77.38-1.2.52v-1.93c.43-.14.83-.32,1.2-.52Z"/>
    </clipPath>
    <clipPath id="clippath-35">
      <path class="cls-1" d="M107.87,55.17l-9.14-5.31c.06,0,.18-.08.23-.13l9.14,5.31s-.17.12-.23.13Z"/>
    </clipPath>
    <clipPath id="clippath-36">
      <path class="cls-1" d="M107.68,55.47c-.05-.09-9.23-5.25-9.2-5.41l9.14,5.31s.02.08.05.09Z"/>
    </clipPath>
    <clipPath id="clippath-37">
      <path class="cls-1" d="M101.06,53.44l-7.77-4.52c.05,0,.16-.07.19-.11l7.77,4.52s-.14.1-.19.11Z"/>
    </clipPath>
    <clipPath id="clippath-38">
      <path class="cls-1" d="M100.9,53.69c-.05-.08-7.85-4.46-7.82-4.59l7.77,4.52s.02.06.05.08Z"/>
    </clipPath>
    <clipPath id="clippath-39">
      <path class="cls-1" d="M103.28,56.16l-5.94-3.45s.12-.05.15-.09l5.94,3.45s-.11.08-.15.09Z"/>
    </clipPath>
    <clipPath id="clippath-40">
      <path class="cls-1" d="M103.16,56.35c-.04-.06-6-3.41-5.98-3.51l5.94,3.45s.02.05.03.06Z"/>
    </clipPath>
    <clipPath id="clippath-41">
      <path class="cls-178" d="M26.67,103.97c.71.28,1.84.25,2.37-.44.15-3.21.33-10.74-.15-13.85l-5.34-.77s-.92-.45-.35,2.32c.98,5.38.34,6.55.26,10.79.43.6,1.78.72,2.37.13l.21-7.86.63,9.67h0Z"/>
    </clipPath>
    <clipPath id="clippath-42">
      <path class="cls-61" d="M25.27,80.76l.07-.62c-1.42-1.42-.75-4.41,1.88-3.94,1,.09.93.84.74,1.46.13.32.11.68.06,1.01.13.61.06,1.48-.5,1.77-.15.29-.12.57-.12.85l-2.14-.52h0Z"/>
    </clipPath>
    <clipPath id="clippath-43">
      <path class="cls-72" d="M80.8,112.67l-1.12.54c-.46.16-1.18-.3-1.25-.83-.11.27-.17.52-.21.76-.07.05-.14.04-.22-.01.05-.28.08-.56.06-.84-.1-.61-.19-.58-.14-.92,0,0,.07-.58.5-.46.93.36.72,1.73,1.85,1.47h0s.51-.05.54.29h0Z"/>
    </clipPath>
    <clipPath id="clippath-44">
      <path class="cls-69" d="M82.37,113.66l-1.12.54c-.46.16-1.18-.3-1.25-.83-.11.26-.17.52-.21.76-.07.05-.14.04-.22-.01.05-.28.08-.56.06-.84-.1-.61-.19-.58-.14-.92,0,0,.07-.58.5-.46.93.36.72,1.73,1.85,1.47,0,0,.51-.05.54.29h0Z"/>
    </clipPath>
    <clipPath id="clippath-45">
      <path class="cls-70" d="M80.99,90.43s-.52-.39-.5.27c.02.48-.06.52-.17.7-.06.1-.21.79-.73.79-.6,0-.69-.37-.91-.58-.46-.42-.4-1.34-.43-1.88s.05-1.15.56-1.61c.51-.46,1.19-.69,1.67-.43.38.25.58.3,1.14.31.14.03.44.21.4.92-.04.91-.83,1.23-.93,1.09l-.11.42h0Z"/>
    </clipPath>
    <clipPath id="clippath-46">
      <path class="cls-71" d="M79.15,88.41c-.62-.91-1.99,1.32-2.17,2.07.08.63-.34,1.33-1.02,1.37,1.17,1.22,1.93.08,2.37-1.08.11-.91-.03-1.72.82-2.36h0Z"/>
    </clipPath>
  </defs>
  <g class="cls-110">
    <g id="_圖層_2" data-name="圖層_2">
      <g id="_圖層_1-2" data-name="圖層_1">
        <g>
          <g class="cls-110">
            <path class="cls-87" d="M115.96,72.9c1.23.71,1.24,1.86.01,2.57l-52.71,30.63c-1.22.71-3.21.71-4.44,0l-24.67-14.24c-1.23-.71-1.24-1.86-.01-2.57l52.71-30.63c1.22-.71,3.21-.71,4.44,0l24.67,14.24Z"/>
            <path class="cls-64" d="M115.85,68.63c1.23.71,1.24,1.86.01,2.57l-52.71,30.63c-1.22.71-3.21.71-4.44,0l-24.67-14.24c-1.23-.71-1.24-1.86-.01-2.57l52.71-30.63c1.22-.71,3.21-.71,4.44,0l24.67,14.24Z"/>
            <path class="cls-159" d="M64,99.68c-.51,0-1.01-.11-1.32-.29l-26.21-15.11,50-28.98c.31-.18.8-.29,1.31-.29s1.01.11,1.32.29l26.21,15.11-50,28.98c-.31.18-.8.29-1.31.29Z"/>
            <path class="cls-170" d="M63.92,99.46c-.45,0-.89-.09-1.15-.24l-25.83-14.9,49.79-28.86c.26-.15.69-.24,1.14-.24s.89.09,1.15.24l25.83,14.9-49.79,28.86c-.26.15-.69.24-1.14.24Z"/>
            <path class="cls-163" d="M105.81,63.59c.35.27-.3.45-.49.29l-5.95-3.43c-.14-.08-.14-.21,0-.29.18-.49,6.2,3.42,6.44,3.43Z"/>
            <path class="cls-99" d="M116.77,69.98c-.02.47-.36.85-.73,1.11-.16.12-52.7,30.63-52.89,30.75v2.55c.62-.52,52.92-30.46,53.33-31.16.5-.44.22-2.72.29-3.31,0,.02,0,.04,0,.06Z"/>
            <path class="cls-86" d="M62.65,104.63c.17-.07.34-.14.5-.24v-2.55c-1.27.69-2.89.7-4.21.12-.3-.13-24.61-14.21-24.9-14.36-.62-.36-.93-.83-.93-1.3v2.55c0,.47.3.94.92,1.3l24.67,14.24c.25.14.51.25.78.33,1.03.3,2.16.27,3.16-.1Z"/>
            <path class="cls-58" d="M49.55,92.71c.67.39.68,1.02,0,1.4-.67.39-1.75.39-2.42,0-.67-.39-.68-1.02,0-1.4.67-.39,1.75-.39,2.43,0Z"/>
          </g>
          <g>
            <path class="cls-88" d="M112.97,96.65c-1.75,1.27-4.59,1.27-6.34,0-1.75-1.27-1.75-3.33,0-4.6,3.12-2.67,10.77.71,6.34,4.6Z"/>
            <g id="flower">
              <g>
                <path class="cls-58" d="M115.7,83.81h-12.56c-.04,2.42,1.44,6.11,4.05,10.74,0,.33.22.66.65.91.87.5,2.28.5,3.15,0,.43-.25.65-.58.65-.91,2.61-4.63,4.09-8.32,4.05-10.74Z"/>
                <path class="cls-161" d="M113.86,86.54c-2.45,1.42-6.43,1.42-8.88,0-2.45-1.42-2.45-3.71,0-5.13,2.45-1.42,6.43-1.42,8.88,0,2.45,1.42,2.45,3.71,0,5.13Z"/>
                <path class="cls-100" d="M113.29,86.22c-2.14,1.24-5.61,1.24-7.75,0-2.14-1.24-2.14-3.24,0-4.47,2.14-1.24,5.61-1.24,7.75,0,2.14,1.24,2.14,3.24,0,4.47Z"/>
              </g>
              <g>
                <g>
                  <path class="cls-148" d="M110.52,83.8c.69-.29.29-10.15-.33-10.28l-1.99,1.57c.26-1.63.24-3.41,0-5.3,0,0-2.09,1.16-1.91.99.37-.34.03-5.54-.25-5.47l-1.41,1.33c.21-.1-2.74-6.21-2.9-4.89-.15,1.23.58,6.38.58,6.38,0,0-1.59-.44-1.66,0-.09.58,1.06,3.08,1.33,2.9l-1.49.66c.87,1.48,2.02,2.79,3.4,3.98l-2.73.75c1.97,3.03,4.57,5.58,7.71,7.71l1.66-.33Z"/>
                  <path class="cls-182" d="M109.51,83.3c-.49-.86-.95-1.73-1.39-2.62-.24-1.48.33-2.88,1.04-4.09-.88.88-1.27,2.4-1.25,3.67-.84-1.74-1.55-3.53-2.21-5.34-.02-1.2.82-2.23,1.6-3.06.05-.04-.02-.12-.07-.07-.75.76-1.48,1.65-1.67,2.73-.52-1.46-.98-2.93-1.4-4.42.11-.91.51-1.8,1.11-2.5.03-.33-.48.45-.53.52-.32.49-.56,1.04-.69,1.61-.54-1.9-1.01-3.81-1.39-5.74,0-.06-.06-.09-.12-.08-.06.01-.09.06-.08.12.29,1.52.63,3.01,1.02,4.51-.42-.1-1.39.02-1.7.26,0,.03.04.04.06.04.53-.12,1.16-.32,1.69-.1.32,1.25.68,2.49,1.06,3.73-.29-.45-2.64-.64-2.23-.36.8-.04,1.78.03,2.33.7.55,1.76,1.18,3.5,1.88,5.22-.63-.41-1.36-.63-2.09-.76-.11,0-1.13-.22-.89,0,.86.07,1.73.27,2.5.66.42.19.7.48.82.93.15.28,2.55,5.95,2.6,4.47Z"/>
                </g>
                <g>
                  <path class="cls-94" d="M109.4,83.02c-.47-.2-.6-7.79-.2-7.9l1.39,1.14c-.24-1.24-.29-2.61-.21-4.07,0,0,1.44.82,1.31.7-.26-.25-.24-4.25-.06-4.21l.99.97c-.14-.07,1.57-4.87,1.73-3.86.15.94-.13,4.92-.13,4.92,0,0,1.04-.39,1.1-.06.08.44-.58,2.4-.76,2.27l1.02.46c-.52,1.16-1.23,2.22-2.1,3.17l1.85.48c-1.19,2.4-2.81,4.45-4.81,6.19l-1.12-.2Z"/>
                  <path class="cls-160" d="M110.04,82.6c.29-.68.56-1.37.82-2.06.1-1.1-.33-2.2-.86-3.11.64.68.94,1.82.98,2.78.49-1.37.89-2.77,1.26-4.18-.03-.89-.61-1.66-1.19-2.3-.03-.03,0-.1.04-.06.55.57,1.06,1.24,1.22,2.04.28-1.14.53-2.29.75-3.44-.11-.68-.4-1.35-.84-1.88.04-.38.95,1.42.89,1.59.35-1.47.41-3.13.77-4.53.08,1.13-.3,2.42-.43,3.59.35-.09.86-.04,1.14.14-.32.05-.83-.22-1.17.01-.16.97-.35,1.94-.55,2.9.12-.32,1.71-.61,1.47-.35-1.22,0-1.58.4-1.73,1.57-.24,1.05-.52,2.09-.82,3.12.39-.33.87-.53,1.36-.65.09-.01.74-.2.59-.03-.73.11-1.49.37-2.02.92-.41,1.38-.91,2.74-1.46,4.06-.07.16-.28.02-.21-.12Z"/>
                </g>
                <g>
                  <path class="cls-94" d="M110.72,84.97c.31-.38-2.82-5.01-3.21-4.86l-.67,1.45c-.33-.88-.87-1.73-1.56-2.57,0,0-.85,1.28-.79,1.14.11-.29-1.61-2.69-1.75-2.56l-.41,1.13c.09-.12-3.39-2.06-3.09-1.36.28.65,2.21,2.89,2.21,2.89,0,0-1.03.34-.94.57.12.31,1.51,1.12,1.61.95l-.65.84c.93.41,1.97.65,3.1.75l-1.34,1.31c2.01.79,4.24,1.12,6.65,1.07l.85-.73Z"/>
                  <path class="cls-160" d="M110,85.07c-.53-.25-1.05-.51-1.56-.79-.58-.63-.66-1.56-.61-2.34-.23.69-.03,1.59.37,2.21-.98-.55-1.92-1.17-2.83-1.82-.37-.61-.18-1.39,0-2.04.01-.04-.05-.05-.06-.01-.19.61-.36,1.28-.15,1.9-.72-.53-1.42-1.08-2.1-1.65-.21-.5-.24-1.07-.1-1.59-.2-.19-.19,1.32-.07,1.45-.86-.73-1.69-1.5-2.48-2.3-.02-.02-.06-.02-.09,0-.03.02-.03.06-.01.09.61.63,1.25,1.24,1.9,1.83-.33.14-.71.43-.89.72.31-.17.58-.58.98-.64.55.5,1.12.97,1.7,1.44-.17-.13-1.65.53-1.37.6.44-.29.99-.6,1.53-.47.84.67,1.7,1.29,2.6,1.88-.67.05-1.43.27-1.96.65.35-.09.73-.34,1.11-.42.43-.1.93-.27,1.29.05.18.09,3.19,1.99,2.79,1.27Z"/>
                </g>
                <g>
                  <path class="cls-182" d="M109.89,85.21c-.55.02-1.52-4.4-1.07-4.59l1.7.26c-.41-.66-.62-1.45-.68-2.33,0,0,1.72.05,1.56.02-.32-.07-.73-2.43-.52-2.46l1.23.27c-.17,0,1.26-3.33,1.55-2.79.27.51.38,2.93.38,2.93,0,0,1.14-.54,1.25-.36.14.24-.4,1.59-.62,1.57l1.21-.04c-.47.84-1.16,1.67-2.04,2.5l2.15-.27c-1.09,1.77-2.72,3.46-4.8,5.08l-1.29.22Z"/>
                  <path class="cls-58" d="M110.59,84.77c.26-.49.49-.97.71-1.46-.04-.74-.65-1.27-1.31-1.54-.04-.02.03-.06.05-.05.62.25,1.2.69,1.35,1.35.4-.92.71-1.89.98-2.84-.21-.63-1.01-.81-1.6-1-.03-.22,1.64.5,1.65.79.2-.74.36-1.51.49-2.25-.22-.47-.77-.68-1.17-.89.45.04.91.36,1.2.7.16-.94.27-1.9.3-2.83,0-.03.04-.06.08-.06.04,0,.08,0,.08.03-.02.73-.09,1.47-.18,2.2.4-.16.91-.28,1.31-.26-.41.13-.94.11-1.32.36-.08.62-.19,1.24-.32,1.87.46-.38,1.06-.55,1.62-.7.05-.01.05.04,0,.05-.79.22-1.79.47-1.8,1.44-.16.69-.37,1.39-.6,2.08.63-.47,1.38-.78,2.12-1.03.05-.02.07.03.02.04-3,1.03-2,1.5-3.42,3.97-.02.08-.3.13-.25,0Z"/>
                </g>
              </g>
            </g>
          </g>
          <g>
            <g id="rocket">
              <g id="line">
                <path class="cls-58" d="M35.03,31.53c-.13-.07-.55-.12-.56-.25.19-.06.41.13.61.16.09.03.01.12-.06.09ZM35.53,31.64c-.02-.08.76.12.68.18,0,.09-.75-.11-.68-.18ZM33.99,31.14c-.12-.09-.52-.15-.52-.29.19-.05.4.16.59.21.08.04,0,.12-.07.09ZM33.01,30.67c-.11-.09-.5-.2-.47-.33.19-.04.37.19.55.25.08.05-.03.12-.08.08ZM32.1,30.13c-.09-.1-.48-.24-.43-.36.19-.03.34.22.52.29.07.05-.04.11-.09.07ZM31.26,29.53c-.08-.1-.45-.28-.38-.39.18-.01.32.24.48.33.06.06-.06.11-.1.07ZM30.51,28.87c-.06-.1-.42-.32-.32-.42.18,0,.28.26.43.36.05.06-.07.11-.11.06ZM29.85,28.17c-.05-.1-.38-.35-.27-.44.18,0,.25.28.39.38.05.07-.08.1-.12.05ZM29.28,27.42c-.04-.11-.33-.36-.22-.45.17.01.22.29.34.41.04.07-.09.1-.12.04ZM28.8,26.64c-.03-.12-.29-.39-.16-.46.17.02.18.3.29.43.03.07-.1.09-.13.04ZM28.42,25.84c-.02-.12-.24-.41-.11-.47.17.03.15.31.24.44.02.07-.11.09-.13.03ZM28.13,25.02c0-.12-.2-.42-.06-.47.16.03.12.33.19.45.02.07-.12.08-.13.02ZM27.92,24.18c0-.12-.15-.43,0-.47.15.04.08.33.14.46.01.06-.12.08-.14.01ZM27.81,23.34c.02-.13-.11-.43.04-.47.14.03.05.35.09.47,0,.06-.13.07-.14,0ZM27.78,22.49c.03-.13-.06-.43.09-.47.14.04.02.35.05.47,0,.06-.14.06-.14,0ZM27.84,21.65c.02-.1.02-.64.2-.41-.04.1-.01.64-.2.41ZM27.98,20.81c.06-.13.02-.42.18-.45.13.05-.05.35-.05.47,0,.06-.15.05-.13-.02ZM28.2,19.98c.05-.09.14-.63.27-.38-.05.09-.14.64-.27.38Z"/>
              </g>
              <g id="paper_rocket">
                <polygon class="cls-84" points="28.5 19.4 29.37 17.93 35.81 16.35 28.43 17.45 28.42 17.44 28.5 19.4"/>
                <path class="cls-94" d="M29.37,17.93c.7.38,2,1.07,2.71,1.45l3.73-3.03-6.44,1.58Z"/>
                <path class="cls-82" d="M29.37,17.93l-.86,1.47,2.07-.82c-.16-.09-1.03-.55-1.21-.65Z"/>
                <path class="cls-94" d="M26.25,16.27s2.17,1.17,2.18,1.17l7.38-1.09-9.56-.08Z"/>
              </g>
            </g>
            <g id="rocket-2" data-name="rocket">
              <g id="line-2" data-name="line">
                <path class="cls-58" d="M53.27,26.5c-.08.04-.14-.09-.05-.12.17-.03.48-.33.61-.23,0,.17-.42.25-.56.35ZM52.73,26.73c-.17.03-.51.28-.64.16.02-.16.45-.19.59-.29.08-.03.13.09.05.12ZM54.3,25.96c-.08.03-.13-.08-.06-.12.17-.05.44-.37.59-.29.02.17-.4.29-.53.41ZM55.28,25.32c-.33-.03.33-.38.39-.47.37-.03-.32.41-.39.47ZM56.18,24.59c-.31-.02.3-.41.35-.51.37-.07-.28.44-.35.51ZM57.01,23.77c-.3,0,.26-.43.3-.54.36-.1-.23.48-.3.54ZM57.76,22.88c-.06.03-.12-.05-.08-.1.13-.11.26-.51.43-.49.09.12-.27.47-.35.59ZM58.42,21.92c-.06.03-.12-.04-.08-.1.12-.12.22-.54.39-.53.11.09-.23.52-.3.62ZM58.98,20.9c-.26.03.15-.49.16-.61.32-.22-.1.56-.16.61ZM59.46,19.84c-.05.02-.11-.03-.09-.09.1-.14.12-.57.29-.58.12.04-.14.59-.2.67ZM59.84,18.75c-.23.03.07-.5.06-.64.02-.08.16-.05.13.03-.07.19-.08.44-.2.6ZM60.13,17.63c-.22.03.04-.51.02-.64.01-.09.15-.06.13.02-.06.2-.04.45-.15.62ZM60.34,16.49c-.21.03,0-.5-.03-.64,0-.09.15-.08.14.01-.04.2,0,.46-.11.63ZM60.45,15.34c-.19.04-.03-.51-.07-.64,0-.09.14-.09.14,0-.03.2.04.47-.07.64ZM60.48,14.19c-.19.03-.07-.5-.11-.63,0-.09.13-.1.14,0-.02.2.08.48-.02.64ZM60.42,13.04c-.18.03-.1-.49-.15-.63-.01-.09.13-.11.14-.02,0,.2.12.48.02.64ZM60.28,11.9c-.17.02-.13-.48-.19-.62-.02-.09.12-.11.13-.03,0,.2.16.47.06.64ZM60.06,10.77c-.17.02-.16-.47-.23-.6-.02-.08.11-.12.13-.04.02.19.2.48.1.64Z"/>
              </g>
              <g id="paper_rocket-2" data-name="paper_rocket">
                <polygon class="cls-84" points="59.79 9.89 58.93 7.88 52.49 5.72 59.87 7.22 59.88 7.21 59.79 9.89"/>
                <path class="cls-94" d="M58.93,7.88c-.7.51-2,1.47-2.71,1.99l-3.73-4.14,6.44,2.16Z"/>
                <path class="cls-82" d="M58.93,7.88l.86,2.01-2.07-1.13c.16-.12,1.03-.75,1.21-.89Z"/>
                <path class="cls-94" d="M62.05,5.61s-2.17,1.6-2.18,1.61l-7.38-1.5,9.56-.11Z"/>
              </g>
            </g>
            <g>
              <polygon class="cls-89" points="50.94 63.89 30.4 52.04 34.17 49.86 54.71 61.72 50.94 63.89"/>
              <g id="arrow">
                <g>
                  <path class="cls-58" d="M47.9,19.13c-2-1.05-4.43-.8-6.59-.62,16.25.08,20.32,38.09,4.03,40.54,1.71-.15,3.98-.08,5.51-.97,3.61-1.86,5.55-5.81,6.57-9.58,2.55-9.29-.25-24.67-9.52-29.37"/>
                  <path class="cls-94" d="M53.37,52.62c-2.03,4.12-5.37,7.03-9.82,6.33-7.57-1.75-11.17-10.59-12.31-18.04l1.85-.13c.86,5.71,3.5,12.01,8.51,14.52,3.99,1.81,7.82.09,10.25-4.76,4.03-8.44,2.08-23.4-6.83-28.28-8.73-3.87-13.31,9.21-12.12,16.79l-1.85.13c-1.26-8.94,3.59-24.31,14.28-19.86,10.59,5.93,12.75,23.28,8.04,33.31Z"/>
                  <path class="cls-94" d="M44.25,29.83c-4.63-2.1-7.17,4.8-6.59,8.87l3.27-.24c-.16-1.65.97-4.3,2.79-3.44,2.03,1.11,2.47,4.52,1.56,6.44-1.31,2.56-3.58.7-4.06-1.27l-3.33.24c.54,2.89,1.98,6.06,4.53,7.3,8.71,2.63,8.16-15.37,1.84-17.91"/>
                  <path class="cls-104" d="M43.71,35.02c-1.82-.86-2.95,1.79-2.79,3.44l2.26-.17c.42.51.47,1.1.14,1.74l-2.13.15c.28.93.89,1.97,1.73,2.36,3.72,1.05,3.43-6.43.78-7.53"/>
                  <path class="cls-104" d="M44.5,27.48c-5.91-2.65-9.08,6.17-8.32,11.32l1.48-.11c-.58-4.06,1.96-10.96,6.6-8.87,4.82,2.65,5.86,10.7,3.71,15.27-3.72,6.95-9.49.49-10.09-4.67l-1.49.11c.64,3.77,2.44,7.89,5.77,9.54,2.61,1.29,5.53-.1,7.02-3.32,2.71-5.77,1.38-15.95-4.69-19.28"/>
                  <path class="cls-94" d="M44.79,24.61c-7.76-3.23-11.29,7.83-10.42,14.33l1.81-.13c-.77-5.15,2.41-13.97,8.31-11.33,6.08,3.33,7.41,13.51,4.7,19.28-4.81,8.89-12.12.43-12.79-6.22l-1.81.13c.86,4.96,2.82,9.93,7.28,12.28,3.28,1.54,6.75.1,8.8-4.13,3.39-7.13,1.84-19.96-5.87-24.22"/>
                  <path class="cls-104" d="M45.04,22.26c-8.74-3.89-13.32,9.2-12.14,16.78l1.48-.11c-.88-6.5,2.67-17.56,10.42-14.33,7.71,4.27,9.26,17.12,5.85,24.25-2.69,5.71-8.11,5.91-11.58,1.99-2.49-2.74-3.86-6.28-4.49-10.19l-1.48.11c.86,5.72,3.51,12.03,8.53,14.53,16.21,4.71,15.02-28.3,3.41-33.05"/>
                </g>
              </g>
              <g>
                <path class="cls-90" d="M43.55,39.08v19.87c-.59-.1-1.18-.27-1.77-.51v-19.36h1.77Z"/>
                <path class="cls-58" d="M43.19,38.29c-7.76.57-22.93,1.67-30.87,2.25-6.71-3.18-4.87-2.83-12.32-2.45l4.41,3.91-3.27,4.03,6.64-.2,4.34-3.54c8.06-.59,23.36-1.7,31.22-2.27.33-.65.28-1.23-.14-1.74"/>
              </g>
            </g>
          </g>
          <g>
            <g class="cls-110">
              <polygon class="cls-162" points="82.03 26.66 81.9 74.47 73.04 79.62 73.18 31.81 82.03 26.66"/>
              <polygon class="cls-81" points="73.18 31.81 73.04 79.62 64.12 74.47 64.26 26.66 73.18 31.81"/>
              <polygon class="cls-98" points="82.03 26.66 73.18 31.81 64.26 26.66 73.12 21.51 82.03 26.66"/>
            </g>
            <g class="cls-110">
              <polygon class="cls-95" points="73.14 45.47 73.04 79.62 64.18 84.76 64.28 50.61 73.14 45.47"/>
              <polygon class="cls-107" points="64.28 50.61 64.18 84.76 55.27 79.62 55.36 45.47 64.28 50.61"/>
              <polygon class="cls-171" points="73.14 45.47 64.28 50.61 55.36 45.47 64.22 40.32 73.14 45.47"/>
            </g>
            <g class="cls-110">
              <polygon class="cls-106" points="90.93 38.64 90.81 79.61 81.95 84.76 82.07 43.78 90.93 38.64"/>
              <polygon class="cls-174" points="82.07 43.78 81.95 84.76 73.04 79.61 73.16 38.64 82.07 43.78"/>
              <polygon class="cls-96" points="90.93 38.64 82.07 43.78 73.16 38.64 82.01 33.49 90.93 38.64"/>
            </g>
            <g class="cls-110">
              <polygon class="cls-180" points="82.02 60.86 81.96 84.76 73.1 89.91 73.17 66.01 82.02 60.86"/>
              <polygon class="cls-181" points="73.17 66.01 73.1 89.91 64.18 84.76 64.25 60.86 73.17 66.01"/>
              <polygon class="cls-108" points="82.02 60.86 73.17 66.01 64.25 60.86 73.11 55.71 82.02 60.86"/>
            </g>
          </g>
          <g>
            <path class="cls-91" d="M75.82,28.52c-1.78,1.03-4.68,1.03-6.46,0-1.78-1.03-1.78-2.7,0-3.73,1.78-1.03,4.68-1.03,6.46,0s1.78,2.7,0,3.73Z"/>
            <path class="cls-6" d="M72.29,24.89c.11.19.09.39.06.59-.35.17-.72.24-1.11.2v-.1c-.51-.06-.97.32-1.44.36-.75.08-.9-.13-.91-.36.77-.68,2.19-.51,3.4-.69Z"/>
            <path class="cls-49" d="M72.13,24.23s.37.42.16.99c-.43.2-.81.19-1.24.22-.53.18-1.72.73-2.13.22-.3-.67,1.7-.96,2.21-1.3l1.01-.12Z"/>
            <path class="cls-6" d="M75.04,26.42l.16.3c-.18,1.13-.2,2.95-1.83,2.58-1.17-.31,1.73-2.79,1.68-2.88h0Z"/>
            <path class="cls-49" d="M73.9,26.36c-.27.51-.55,1.01-.75,1.55-.14.36-.42,1.12.16,1.29.27.12.54.09.79-.06.81-.35.78-1.26.93-1.99.05-.28.35-.74.1-.97-.39-.13-.83-.14-1.24-.08-.08.01-.01.18.02.26h0Z"/>
            <g>
              <path class="cls-51" d="M70.48,24.54c.53.29,1.31.33,1.91-.04-.03-2.86-.02-6.22-.54-9.42-.12-1.08.71-2.47.08-3.52l-2.28.02c-.52,2.37-.1,4.63.59,7.16.3,1.93-.01,3.92.25,5.8h0Z"/>
              <g class="cls-177">
                <path class="cls-20" d="M71.09,11.17c-.12,2.66.15,6.26.64,8.74.22,2.42-.02,5.46-.12,7.39l1.42-1.94c.24-4.04.01-10.22.3-14.23l-2.24.04h0Z"/>
              </g>
            </g>
            <g>
              <path class="cls-51" d="M73.6,26.46c.66.27,1.11.3,1.83-.08-.12-2.93-.21-6.09-.89-9.38-.19-1.13.77-2.55-.03-3.6l-3.06.13c-.55,1.82.55,4.06.96,5.74.96,2.32.68,4.83,1.18,7.18h0Z"/>
              <g class="cls-150">
                <path class="cls-20" d="M73.61,13.1c-.01,2.49.23,5.55.86,7.83.2,2.4.28,5.41.23,7.34l1.73-1.04c.16-4.05-.32-10.22-.1-14.23l-2.71.1h0Z"/>
              </g>
            </g>
            <g>
              <path class="cls-10" d="M66.77,5.06l-.26-.47c-.01-.29,0-.79-.05-1.07l.09-.18c.05-.12-.14-.14-.19-.05-.09.06-.14.29-.13.43-.03.06-.08.04-.14.01-.26-.17-.44-.41-.73-.58,0,0-.35-.19-.2.04-.15-.09-.42-.38-.36,0,0-.03-.14-.02-.06.16l.09.13c-.32-.1.19.56.23.53.13.14.37.47.49.62,0,.02.19.15.22.14.03-.01.42.62.42.62l.59-.32Z"/>
              <polygon class="cls-11" points="66.73 4.71 66.63 4.55 65.82 5.09 65.92 5.3 66.73 4.71 66.73 4.71"/>
            </g>
            <g>
              <path class="cls-22" d="M68.41,7.07c-.38-.26-.79-1.42-1.68-2.41l-.91.57c2.24,5.38,2.59,4.8,4.82.93.19-.43.4-2.23-.92-1.29,0,0-.85,1.61-1.31,2.19h0Z"/>
              <g class="cls-153">
                <path class="cls-29" d="M67.09,10.17c-2.28-2.33-2.06-4.32-1.41-5.42.95,1.35,1.43,3.26,2.39,4.17.08.07.19.07.27.01,1.99-1.5,2.26-3.77,2.56-4.68l-.16,4.56-3.63,1.36h0Z"/>
              </g>
            </g>
            <g>
              <path class="cls-22" d="M69.72,4.89c.81-1.32,4.72-.61,5.76,1.36-1.19,2.35-1.37,4.66-.54,7.66-1.16,1.05-5.25-.15-5.82-.25.04-.96.3-2.63.36-3.78-.25-1.42-.25-2.97.03-4.06,0-.31.02-.64.22-.93h0Z"/>
              <g class="cls-151">
                <path class="cls-29" d="M72.76,15.4c.33-.36-.24-9.6,2.98-9.46,1.02.16,1.45,4.33,1.45,4.33l-.74,4.01-3.69,1.12h0Z"/>
              </g>
            </g>
            <polygon class="cls-15" points="71.24 5.26 71.56 5.3 71.43 12.4 70.76 13.23 70.3 12.29 71.24 5.26 71.24 5.26"/>
            <g>
              <g>
                <path class="cls-25" d="M73.07,2.95l-.06,1.44s-.61,1.23-1.83.5l.27-2.01,1.63.07Z"/>
                <g class="cls-152">
                  <path class="cls-24" d="M72.21,6.06c1.37-3.28-.98-.72-1.52-2.44-.15-.92,1.15-1.62,1.15-1.62l2.39.76.17,1.79-2.19,1.52h0Z"/>
                </g>
              </g>
              <g>
                <path class="cls-25" d="M73.16,3.2c.67-1.08.78-3.49-1.2-3.17-.32.04-2.09.61-1.27,1.08.03.8.09,1.69.14,2.58.07.25.27.37.59.36.66-.13,1.39-.32,1.74-.87h0Z"/>
                <g class="cls-158">
                  <path class="cls-17" d="M71.43,4.65s.74-.84.82-1.37c.1-.63.32-1.81-.24-2.42-.55-.61-.59-1.66-.59-1.66l2.94.46.39,4.57s-2.3,1.22-2.26,1.22c.04,0-1.07-.13-1.07-.13v-.67h0Z"/>
                  <path class="cls-36" d="M73.24,3.72c-.41-.57-.13-1.08.02-1.57-.01-.12-.2-.23-.32-.17-.12.05-.39.46-.39.46,0-.67-.18-1.38-1.56-1.29-1.57-.12-.43-1.61-.03-2.03,0-.04,2.77.03,2.82-.03.05-.06,1.45,1.69,1.45,1.69l-.62,2.67-1.38.28h0Z"/>
                </g>
              </g>
            </g>
            <polygon class="cls-15" points="71.47 4.8 71.77 4.93 71.82 5.48 71.07 5.23 71.47 4.8 71.47 4.8"/>
            <path class="cls-11" d="M71.58,4.85l-.58.46s-.1-.66.27-1.18c.04.19.21.55.31.72h0Z"/>
            <path class="cls-11" d="M71.58,4.85l.16.77c.53-.2,1.02-.5,1.42-1.05l-.14-.55c-.43.35-.96.73-1.44.84h0Z"/>
            <path class="cls-10" d="M74.47,14.82l-.36.24-.5.65-.66-.84c.17-.17.56-.88.64-1.01.38.22.74.61.87.96h0Z"/>
            <polygon class="cls-11" points="73.33 14.16 74.34 14.97 74.18 15.17 73.17 14.36 73.33 14.16 73.33 14.16"/>
            <g>
              <path class="cls-22" d="M73.23,14.26l1.06.84c.87-.93,1.78-3.04,2.54-4.18.08-.12.11-.27.07-.41-.21-.73-.88-3.09-1.11-3.92-.21-.65-1-1.4-1.61-.79-.54.4-.39.95-.23,1.3-.03.1,1.37,2.95,1.38,3.6-.43.71-1.75,3.23-2.09,3.58h0Z"/>
              <g class="cls-155">
                <path class="cls-29" d="M74.01,14.78l1.93-2.96c.27-.31.64-.85.71-1.21.02-.1-.27-.19-.27-.19l.11-.23c-.07-.08-.2-.22-.38-.2.47-.75-.89-4.8-1.22-4.76l3.59,3.68-.05,3.14-2.57,2.84-1.85-.11h0Z"/>
              </g>
            </g>
            <path class="cls-53" d="M74.09,15.86s0,0,0,0c0,0,0,0,0,0,0,0,0,0,0,0h0c-.61.21-1.26-.75-1.36-1.34.35.37.89,1.35,1.36,1.34Z"/>
          </g>
          <g id="man2">
            <path class="cls-47" d="M60.36,47.12c1.78,1.03,4.66,1.03,6.43,0,1.78-1.03,1.78-2.69,0-3.71s-4.66-1.03-6.43,0-1.78,2.69,0,3.71Z"/>
            <path class="cls-6" d="M63.55,43.39c.1.18.08.37.06.56-.34.16-.69.23-1.06.19v-.09c-.48-.06-.92.3-1.37.34-.71.08-.85-.12-.87-.34.73-.64,2.08-.49,3.24-.66Z"/>
            <path class="cls-49" d="M63.4,42.77s.35.4.15.94c-.41.19-.77.18-1.18.21-.51.17-1.64.7-2.03.21-.27-.65,1.62-.91,2.1-1.24l.96-.11Z"/>
            <path class="cls-6" d="M66.18,44.85l.15.28c-.17,1.07-.19,2.8-1.75,2.46-1.12-.3,1.65-2.65,1.6-2.74h0Z"/>
            <path class="cls-49" d="M65.09,44.79c-.25.48-.52.96-.72,1.47-.13.34-.4,1.07.15,1.23.26.11.51.09.75-.06.77-.33.74-1.2.89-1.89.05-.27.33-.7.09-.92-.38-.12-.79-.13-1.18-.07-.08.01-.01.17.02.24h0Z"/>
            <g>
              <path class="cls-34" d="M61.84,43.06c.51.28,1.24.31,1.82-.03-.04-2.66,0-5.71-.49-8.71-.2-1.14.65-2.56.04-3.6l-2.4.06c-.25.98-.16,1.81-.01,2.61.16,1.14.54,3.55.93,4.59-.03,1.78-.04,3.41.11,5.08h0Z"/>
              <g class="cls-154">
                <path class="cls-13" d="M62.42,30.35c-.13,2.36.13,5.25.63,7.42.21,2.3.27,4.81.17,6.64l1.04-.57c.23-3.85.01-9.73.29-13.54l-2.13.04h0Z"/>
              </g>
            </g>
            <g>
              <path class="cls-34" d="M64.8,44.89c.62.26,1.06.28,1.74-.08-.13-2.71-.17-5.58-.8-8.64-.29-1.18.7-2.66-.07-3.71l-2.91.13c-.52,1.74.52,3.86.91,5.46.91,2.21.64,4.6,1.12,6.83h0Z"/>
              <g class="cls-157">
                <path class="cls-13" d="M64.81,32.18c-.08,2.38.33,5.25,1.01,7.4.33,2.3.49,4.8.43,6.63l1.24-.59c.15-3.85-.31-9.73-.1-13.54l-2.58.09h0Z"/>
              </g>
            </g>
            <g>
              <path class="cls-15" d="M58.21,27.16c.06.88.38,1.75.86,2.6l1.13-.39s-.35-1.09-.52-1.61c-.05-.17,0-.35.13-.47.59-.54,2.2-2,2.2-2,.38-.47.53-.93.27-1.35-.36-.28-.67-.19-.96,0-.64.67-3.07,2.22-3.11,3.22h0Z"/>
              <g class="cls-156">
                <path class="cls-28" d="M60.21,28.75l-1.29-1.55c.53-.18,1.91-.71,2.69-1.76l-.26,1.55-1.14,1.76h0Z"/>
              </g>
            </g>
            <path class="cls-15" d="M60.76,24.95c.28-2.41,4.78-1.18,5.83.71-1.03,2.03-1.36,4.3-.55,7.03-.74.24-1.48.12-1.96.15-1.96-.2-2.68-.11-3.51-.36,0-.87.31-2.14.4-3.18-.12-1.44-.48-3.19-.2-4.34h0Z"/>
            <path class="cls-10" d="M59.21,29.72c.12.41.24,1.08.41,1.47.05.07.2.47.28.25-.02-.16-.13-.31-.11-.47.05.12.28.59.39.65.19-.09-.25-.64-.2-.87.11.28.32.65.46.92.13.08.21.01.1-.27l-.22-.36-.12-.34c.14.19.4.63.52.84.58.28-.58-1.18-.3-1.4.11-.1.66.15.69-.21-.2-.09-.6-.28-.83-.22-.07-.12-.1-.21-.17-.3-.37.11-.62.19-.88.31h0Z"/>
            <path class="cls-11" d="M59.16,29.87l1.06-.38-.04-.11c-.34.09-.71.21-1.08.36l.06.13Z"/>
            <g class="cls-116">
              <path class="cls-28" d="M64.64,34.31s.55-2.08.27-2.99c0,0,.04-1.43-.58-1.7l1.01-3.3s.52-1.09,1.49-.94c.97.15,1.38,4.12,1.38,4.12l-.7,3.81-2.87,1.01h0Z"/>
            </g>
            <polygon class="cls-5" points="62.56 24.72 62.86 24.76 62.73 31.52 62.1 32.31 61.66 31.41 62.56 24.72 62.56 24.72"/>
            <path class="cls-11" d="M62.88,24.33l-.55.44s-.11-.51.24-1.01l.2.15.11.42h0Z"/>
            <g>
              <path class="cls-14" d="M61.86,21.6c-.14.77-.11,2.74.92,2.47-.02.06-.03.12,0,.18l-.02.36,1.54-.56c-.12-.31-.12-.69.01-1.01l.2-.88-1.71-1.02-.94.44h0Z"/>
              <g class="cls-113">
                <path class="cls-43" d="M62.55,24.35l.23-.28s.85.15,1.44-.73c.33.39-.03-.28.84-.06l-.13,1.21-1.88.46-.51-.6h0Z"/>
              </g>
            </g>
            <polygon class="cls-5" points="62.77 24.29 63.09 24.33 63.11 24.93 62.4 24.7 62.77 24.29 62.77 24.29"/>
            <path class="cls-11" d="M62.93,24.31l.11.75c.5-.19.97-.48,1.35-1l-.15-.37c-.41.34-.85.52-1.31.62h0Z"/>
            <g>
              <path class="cls-50" d="M63.02,22.1s.13.29.49.41c0,0,.13.16.15.41-.02-1.14,1.02-.74.56.04-.02.03-.08.2-.02.43.81-.91.53-3.62-1.49-3.11-1.84.54-1.75,2.4.3,1.81Z"/>
              <g class="cls-120">
                <path class="cls-26" d="M61.42,20.43c-.27,2.81,2.98.69,3.25,0l-1.09-.68-2.16.68h0Z"/>
                <path class="cls-48" d="M61.42,19.8c-.27,2.81,2.98.69,3.25,0l-1.09-.68-2.16.68h0Z"/>
                <path class="cls-19" d="M61.44,19.35c-.27,2.81,2.98.69,3.25,0l-1.09-.68-2.16.68h0Z"/>
              </g>
            </g>
            <path class="cls-10" d="M66.81,31.19c-.17.14-.72.58-.9.69-.08.05-.69.39-.61.15.11-.09.27-.12.35-.24-.1.04-.52.22-.63.19-.06-.17.54-.26.64-.44-.24.12-.59.23-.83.32-.34-.11.32-.32.45-.34l.28-.14c-.2.04-.63.17-.83.24-.51-.17.97-.39.93-.66-.05-.1-.06-.52-.06-.52.08-.01.43.18.46.22l.34-.14c.22.21.39.42.42.68h0Z"/>
            <polygon class="cls-11" points="66.43 30.39 66.33 30.47 66.79 31.19 66.93 31.09 66.43 30.39 66.43 30.39"/>
            <g>
              <path class="cls-15" d="M66.36,30.29l.63.95c.71-.57,2.05-1.83,1.63-2.56-.97-1.4-1.81-4.21-3.05-3.24-1.19.91.87,2.32,1.7,3.53.3.48-.6,1.04-.92,1.33h0Z"/>
              <g class="cls-118">
                <path class="cls-28" d="M66.71,31.37c.53-.58,1.93-1.57,1.79-2.43-.55-1.42-1.38-2.72-2.35-3.87l3.91,2.49-.05,2.99-2.33,1.65-.97-.82h0Z"/>
              </g>
            </g>
          </g>
          <g>
            <path class="cls-47" d="M75.68,62.23c-1.5.87-3.93.87-5.43,0s-1.5-2.27,0-3.14,3.93-.87,5.43,0c1.5.87,1.5,2.27,0,3.14Z"/>
            <g>
              <path class="cls-30" d="M68.86,56.06l-.32.05c-.32-.09-.65.01-.98.04l-.05.05c0,.23.42.12.56.14-.27.22-.68.15-.96.31-.05.11.13.11.2.12,0,.02-.08.03-.11.04-.13.23.34.11.43.13l-.18.06c-.1.24.56,0,.64.02.01.01-.35.05-.24.17h0c.09.08.43-.13.53-.15.21-.15.5-.41.77-.46l-.26-.52h0Z"/>
              <path class="cls-11" d="M68.88,55.85l-.28.12c.09.3.21.57.42.8l.34-.24-.48-.69h0Z"/>
            </g>
            <g>
              <path class="cls-15" d="M68.83,55.72c.04.43.2.72.42.93,1.09-.35,2.02-.84,3.07-1.53.59-.39.68-2.56.43-3.56,0,0,.3-.78.03-.87-1.79-.49-1.21,2.42-1.58,3.78-1.11.54-1.99,1.14-2.37,1.24h0Z"/>
              <g class="cls-119">
                <path class="cls-56" d="M72.42,50.13c.17,1.28.29,3.6-.24,4.67-.6.61-3.41,1.9-3.7,2.12l-.18.74s3.34.21,2.96-.67c0-.02.83-.92.9-.9.06.02,2.48-4.26,2.55-4.24.07.03-1.28-1.71-1.19-1.71s-1.09,0-1.09,0h0Z"/>
              </g>
            </g>
            <g>
              <path class="cls-50" d="M72.35,47.81c0,.23.02.53-.17.66-.13.09-.08-.31-.1-.47-.03-.45-.02-1.16.34-1.51.45-.29.98-.29,1.49-.33.67-.1,1.29-.05,1.65.58.09.12.21.27.21.44.06.64-.28.66-.38,1.13.12.49-.11,1.07-.56,1.33-1.09.84-2.03-1.06-2.5-1.83h0Z"/>
              <g class="cls-117">
                <path class="cls-40" d="M73.36,45.93c.57.06,1.53.78,1.58,1.55h-.03c-.1-.69-1.06-1.35-1.57-1.42l.02-.12h0Z"/>
                <path class="cls-40" d="M73.32,45.69c.57-.06,1.66.44,1.86,1.19h-.03c-.24-.65-1.31-1.09-1.83-1.06v-.13h0Z"/>
              </g>
            </g>
            <g>
              <path class="cls-37" d="M74.47,50.98c-.21.39-.61.75-1.11.93-.21-.25-.3-.95-.18-1.37-1.16.34-.88-1.3-.99-2.15.02-.54.1-.97.41-.99.95.17.71,1.01,1.24,1.65.19.14.53,0,.74-.08.12-.1.31-.18.41-.08.15.28-.47.76-.66.99l.13,1.1h0Z"/>
              <g class="cls-114">
                <path class="cls-31" d="M74.58,50.04l-.25-.17c-.31.27-.67.5-1.16.66l-.25.33c.4.03,1.71-.72,1.65-.83h0Z"/>
                <path class="cls-18" d="M74.32,49.86c.05-.12.96-.91.55-.99-.4.11-.97.63-1.23.01-.37-.68-.36-1.45-1.2-1.38-.16.31-.23.63-.23.97h-.07c-.03-.9.31-1.58,1.13-.73.25.3.28.74.58,1.19.31.41.93-.49,1.21-.05.17.25-.59.85-.71,1.02l-.04-.03h0Z"/>
              </g>
            </g>
            <path class="cls-30" d="M69.34,61.45c.77.67,1.48,4.32,1.21,5.24,0,.25.12.52.19.74l-.18,1.05-.94,1.06-.42-.27c-.13-.43.39-1.69.29-2.76-.19-1.43-1.77-2.96-1.98-3.71-.06-.24-.13-.99.15-1.21.6-.49,1.64-.27,1.68-.12h0Z"/>
            <path class="cls-15" d="M70.59,66.96s.43.43.34.85c0,0,.07.83.06,1.09,0,.13-.14.31-.33.18l-.07-.4c-.16.78-.23,1.04-1.01,1.38-1.16.66-.62-.79-.42-1.17.13.51.68.28.95,0,.3-.27.67-1.37.48-1.93h0Z"/>
            <path class="cls-44" d="M71.39,61.78c.1.59-1.32,3.34-1.87,4.33-.19.48-.83,1.06-1.1,1.41l.07.49-.34,1-1.1.9-.37-.34.03-.37c.75-2.11,2.36-6.05,3.29-7.92l1.4.48Z"/>
            <path class="cls-15" d="M68.41,67.53s.36.49.2.89c0,0-.07.83-.11,1.09-.02.13-.19.29-.36.13v-.41c-.29.74-.4.99-1.22,1.21-1.25.47-.48-.88-.23-1.22.04.52.62.39.94.15.34-.22.88-1.25.78-1.83h0Z"/>
            <g>
              <path class="cls-27" d="M75.79,60.71c-.53,1.62-2.87,1.59-3.64,2.17-.43.33-.42.82-.95,1.31-8.06-.86-.88-6.26,3.28-6.44,1.5,1.18,1.6,2.06,1.31,2.95h0Z"/>
              <g class="cls-111">
                <path class="cls-42" d="M75.7,57.76c.3,3.24-.44,3.49-3.75,4.72-1.23.5-2.77,4.85-2.34,3.24l3.45,1.35s3.93-2.29,4.49-2.56c1.09-1.64-1.39-5.24-1.84-6.75h0Z"/>
              </g>
            </g>
            <path class="cls-52" d="M76.56,52.6c-.07-1.02-1.41-1.2-2.08-1.76-.28.39-.59.68-1.1,1.04l-.21-1.34c-3.14.04-.4,3.95-2.36,8.11.33.49,1,1.14,1.64,1.33.1.03.31-.62.31-.62,0,0,.05.62.21.62.86-.05,2.17-.4,2.87-.82l-.62-2.16c.62-1.76,1.39-3.44,1.33-4.41Z"/>
            <g>
              <polygon class="cls-97" points="75.19 60.45 75.08 60.53 71.94 62.61 67.38 60.34 67.25 60.27 70.51 58.11 75.19 60.45"/>
              <polygon class="cls-83" points="75.19 60.45 75.2 60.59 71.95 62.76 71.94 62.61 75.08 60.53 75.19 60.45"/>
              <polygon class="cls-59" points="71.94 62.61 71.95 62.76 67.26 60.41 67.25 60.27 67.38 60.34 71.94 62.61"/>
              <g>
                <g>
                  <polygon class="cls-166" points="72.51 60.51 72.34 60.62 70.45 59.68 70.62 59.57 72.51 60.51"/>
                  <path class="cls-167" d="M72.34,60.65l-1.93-.96.22-.14,1.93.96-.22.14ZM70.5,59.68l1.84.92.13-.09-1.84-.92-.13.09Z"/>
                </g>
                <g>
                  <polygon class="cls-166" points="73.77 61.14 72.9 61.71 68.5 59.52 69.37 58.94 70.62 59.57 70.45 59.68 72.34 60.62 72.51 60.51 73.77 61.14"/>
                  <path class="cls-167" d="M72.91,61.73h-.01s-4.44-2.22-4.44-2.22l.91-.6,1.3.65-.17.11,1.84.92.17-.11,1.3.65-.91.6ZM68.55,59.51l4.35,2.17.82-.54-1.21-.6-.17.11-1.93-.96.17-.11-1.21-.6-.82.54Z"/>
                </g>
                <g>
                  <path class="cls-166" d="M68.68,59.4l4.4,2.19-4.4-2.19Z"/>
                  <polygon class="cls-167" points="73.07 61.61 68.67 59.42 68.69 59.38 73.09 61.57 73.07 61.61"/>
                </g>
                <g>
                  <path class="cls-166" d="M68.85,59.29l4.4,2.19-4.4-2.19Z"/>
                  <polygon class="cls-167" points="73.24 61.5 68.84 59.31 68.86 59.27 73.26 61.46 73.24 61.5"/>
                </g>
                <g>
                  <path class="cls-166" d="M69.02,59.17l4.4,2.19-4.4-2.19Z"/>
                  <polygon class="cls-167" points="73.41 61.39 69.01 59.19 69.03 59.15 73.43 61.35 73.41 61.39"/>
                </g>
                <g>
                  <path class="cls-166" d="M73.59,61.25c-.39-.2-.86-.43-1.26-.63l1.26.63Z"/>
                  <polygon class="cls-167" points="73.58 61.27 72.33 60.64 72.35 60.6 73.6 61.23 73.58 61.27"/>
                </g>
                <g>
                  <path class="cls-166" d="M70.45,59.68c-.39-.2-.86-.43-1.26-.63l1.26.63Z"/>
                  <polygon class="cls-167" points="70.44 59.7 69.18 59.08 69.2 59.04 70.46 59.66 70.44 59.7"/>
                </g>
                <g>
                  <path class="cls-166" d="M73.45,60.98l-.86.57.86-.57Z"/>
                  <rect class="cls-167" x="72.5" y="61.24" width="1.03" height=".05" transform="translate(-21.69 50.5) rotate(-33.51)"/>
                </g>
                <g>
                  <path class="cls-166" d="M73.14,60.82l-.86.57.86-.57Z"/>
                  <rect class="cls-167" x="72.19" y="61.09" width="1.03" height=".05" transform="translate(-21.65 50.3) rotate(-33.51)"/>
                </g>
                <g>
                  <path class="cls-166" d="M72.82,60.67l-.86.57.86-.57Z"/>
                  <rect class="cls-167" x="71.87" y="60.93" width="1.03" height=".05" transform="translate(-21.62 50.1) rotate(-33.51)"/>
                </g>
                <g>
                  <path class="cls-166" d="M71.65,61.08c.22-.14.47-.31.69-.46l-.69.46Z"/>
                  <rect class="cls-167" x="71.58" y="60.83" width=".83" height=".05" transform="translate(-21.64 49.99) rotate(-33.59)"/>
                </g>
                <g>
                  <path class="cls-166" d="M71.33,60.92c.22-.14.47-.31.69-.46l-.69.46Z"/>
                  <polygon class="cls-167" points="71.34 60.94 71.32 60.91 71.32 60.91 72.01 60.45 72.03 60.49 71.34 60.94"/>
                </g>
                <g>
                  <path class="cls-166" d="M71.02,60.77c.22-.14.47-.31.69-.46l-.69.46Z"/>
                  <rect class="cls-167" x="70.95" y="60.52" width=".83" height=".05" transform="translate(-21.56 49.47) rotate(-33.51)"/>
                </g>
                <g>
                  <path class="cls-166" d="M70.7,60.61c.22-.14.47-.31.69-.46l-.69.46Z"/>
                  <polygon class="cls-167" points="70.72 60.63 70.69 60.59 70.69 60.59 71.38 60.14 71.41 60.17 70.72 60.63"/>
                </g>
                <g>
                  <path class="cls-166" d="M70.39,60.45c.22-.14.47-.31.69-.46l-.69.46Z"/>
                  <rect class="cls-167" x="70.32" y="60.2" width=".83" height=".05" transform="translate(-21.49 49.07) rotate(-33.51)"/>
                </g>
                <g>
                  <path class="cls-166" d="M70.07,60.3c.22-.14.47-.31.69-.46l-.69.46Z"/>
                  <rect class="cls-167" x="70.01" y="60.05" width=".83" height=".05" transform="translate(-21.46 48.87) rotate(-33.51)"/>
                </g>
                <g>
                  <path class="cls-166" d="M69.76,60.14c.22-.14.47-.31.69-.46l-.69.46Z"/>
                  <rect class="cls-167" x="69.69" y="59.89" width=".83" height=".05" transform="translate(-21.42 48.61) rotate(-33.47)"/>
                </g>
                <g>
                  <path class="cls-166" d="M70.31,59.41l-.86.57.86-.57Z"/>
                  <rect class="cls-167" x="69.36" y="59.68" width="1.03" height=".05" transform="translate(-21.35 48.51) rotate(-33.51)"/>
                </g>
                <g>
                  <path class="cls-166" d="M69.99,59.26l-.86.57.86-.57Z"/>
                  <rect class="cls-167" x="69.05" y="59.52" width="1.03" height=".05" transform="translate(-21.31 48.31) rotate(-33.51)"/>
                </g>
                <g>
                  <path class="cls-166" d="M69.68,59.1l-.86.57.86-.57Z"/>
                  <polygon class="cls-167" points="68.83 59.69 68.8 59.65 69.67 59.08 69.69 59.12 68.83 59.69"/>
                </g>
              </g>
              <path class="cls-64" d="M72.61,60.24l-1.53-.76s-.04-.06,0-.1l.69-.46c.05-.17,1.61.74,1.69.75.04.02.04.06,0,.1-.11.04-.72.57-.85.47Z"/>
              <path class="cls-58" d="M71.75,59.61l.18,3.01c-1.17-.58-3.52-1.76-4.69-2.34l-.18-3.01.16.08c.09.04,4.44,2.22,4.52,2.26Z"/>
              <polygon class="cls-175" points="71.9 59.51 71.75 59.61 67.23 57.35 67.07 57.27 67.22 57.16 71.9 59.51"/>
              <polygon class="cls-109" points="71.9 59.51 72.09 62.51 71.94 62.61 71.75 59.61 71.9 59.51"/>
            </g>
            <g class="cls-115">
              <path class="cls-11" d="M74.65,50.45c-.17.58-.68.95-1.27,1.44l-.25-1.78c-.21.7-.65,1.34-.98,1.98l.51,2.36.72-.51,1.13-1.44.51-1.54-.37-.51h0Z"/>
              <polygon class="cls-5" points="73.24 53.71 73.38 51.88 72.45 53.32 72.35 53.73 72.66 54.45 73.07 54.14 73.24 53.71 73.24 53.71"/>
              <polygon class="cls-23" points="75.23 50.96 74.61 52.91 74.1 53.01 74.3 53.42 72.66 54.45 74.92 50.96 75.23 50.96"/>
              <polygon class="cls-23" points="73.07 50.24 72.04 52.09 72.15 52.5 71.94 52.91 72.66 54.45 72.35 52.4 73.07 50.34 73.07 50.24 73.07 50.24"/>
              <path class="cls-41" d="M75.43,54.66s1.32.3,1.54.41c.22.11,1.23,3.39,1.23,3.39l-2.67,2.05h0c-.36-1.56-1.6-4.6-.1-5.85Z"/>
            </g>
            <g>
              <path class="cls-30" d="M73.42,58.53l-.29.15c-.33.02-.61.23-.91.36l-.03.07c.08.22.43-.02.57-.06-.19.3-.59.37-.8.61-.01.12.16.07.23.05.01.02-.07.05-.09.07-.05.26.36-.01.45-.02l-.15.12c-.01.26.53-.18.61-.19.02,0-.31.16-.17.24h0c.11.04.36-.27.45-.32.15-.21.34-.55.57-.69l-.42-.4h0Z"/>
              <path class="cls-11" d="M73.36,58.32l-.22.21c.18.26.39.47.66.61l.25-.34-.69-.49Z"/>
            </g>
            <g>
              <path class="cls-15" d="M76.29,56.44c-.46.74-1.71,2.11-2.33,2.64-.27-.18-.59-.46-.79-.7.65-.77,1.2-1.61,2.01-2.5-.27-7.22,2.97-3.32,1.11.57Z"/>
              <path class="cls-35" d="M76.29,56.44c-.46.74-1.71,2.11-2.33,2.64-.04-.03-.09-.06-.13-.09.82-.85,1.87-1.98,2.42-2.76.41-.71.32-2.96.19-4.11.57,1.07.63,2.93-.15,4.32Z"/>
            </g>
          </g>
          <g>
            <path class="cls-91" d="M83.75,40.16c-1.03.75-2.71.75-3.74,0-1.03-.75-1.03-1.96,0-2.71,1.84-1.58,6.36.42,3.74,2.71Z"/>
            <g id="woman_stand">
              <path class="cls-21" d="M81.98,30.14l.12,1.47s.19.82-.04,2.18c-.23,1.36-.37,2.24-.44,2.65-.01.22.07.47.11.66l-.23.92-.9.88-.35-.27c-.1-.4.51-1.34.5-2.3-.03-1.89-.11-3.32-.21-4.71l-.4-.97,1.83-.5Z"/>
              <path class="cls-5" d="M81.63,36.67s.35.41.24.78c0,0,0,.74-.02.97,0,.12-.14.27-.3.14l-.03-.36c-.18.66-.29.92-.98,1.16-1.06.51-.48-.75-.29-1.07.08.46.57.3.83.06.29-.23.68-1.16.55-1.68h0Z"/>
              <path class="cls-21" d="M83.84,30.66l.12,1.47s.19.82-.04,2.18c-.23,1.36-.37,2.24-.44,2.65-.01.22.07.47.11.66l-.23.92-.9.88-.35-.27c-.1-.4.51-1.34.5-2.3-.03-1.89-.11-3.32-.21-4.71l-.4-.97,1.83-.5Z"/>
              <path class="cls-5" d="M83.48,37.2s.35.41.24.77c0,0,0,.74-.02.97,0,.12-.14.27-.3.14l-.03-.36c-.18.66-.29.92-.98,1.16-1.06.51-.48-.75-.29-1.07.08.46.57.3.83.06.29-.23.68-1.16.55-1.68h0Z"/>
              <g>
                <path class="cls-5" d="M84.13,23.82s1.45.93.76,4.25c-.7,3.32-.46,4.02-.46,4.02,0,0-3.19.81-4.27-.53,0,0-.68-5.23.23-6.82"/>
                <g class="cls-112">
                  <path class="cls-7" d="M83.58,33.13s-.21-2.46.16-3.41c.36-.95.39-1.95.39-1.95.08-1.54-2.48.16-3.22-1.32-.56-1.09-1.17-1.7-1.17-1.7l1.68-1.62,4.39.69s.9,3.71,1.01,3.71c.11,0-1.07,5.04-1.07,5.04l-2.17.55h0Z"/>
                  <path class="cls-15" d="M86.25,27.86s-3.74,2.64-7.18.06c-.26-.18,0-.65.29-.44,3.8,2.93,7.66-1.39,6.9.39h0Z"/>
                  <path class="cls-21" d="M81.15,32.36s-.04-1.51-.05-1.43c0,.04-.29,1.27-.29,1.27l.34.16Z"/>
                </g>
              </g>
              <path class="cls-33" d="M77.69,21.5l-.38-.11s-.33-.55-.7-.63c-.35-.08-.2.12-.2.12.18.17.67.67-.1.43-.41-.12-.84-.32-1-.17-.03.1-.11.31.14.57.58.46.87.37,1.37.43.6-.13,1.15.51.87-.65h0Z"/>
              <path class="cls-56" d="M77.5,21.25c-.13.4-.17.79-.12,1.17,4.76,1.21,4.16-1.39,4.58-4.51,0,0-1.34-.55-1.68.26-.32.75-.53,2.97-.53,2.97-.82.27-1.54.21-2.25.1h0Z"/>
              <g>
                <path class="cls-15" d="M82.2,18.02c-.88-.37-1.52-.75-1.52,1.43-.42,1.08-1.37,1.46-.23,3.1l-.18,2.36c.69,1.26,2.68.9,4.31-.55,0,0,0-1.93.46-2.68.47-.75.32-2.25.32-2.25,0,0-.6-.59-1.4-.81-.8-.21-1.78-.6-1.78-.6h0Z"/>
                <g class="cls-135">
                  <path class="cls-12" d="M83.47,25.51s.11-1.63-.3-2.02c-.93,0-2.39-.28-2.7-.94,2.06.55,3.54.62,3.63-2.5,0,0,.27-1.64,1.43-.37,1.03,1.12-.15,4.5-.15,4.5l-1.91,1.33h0Z"/>
                </g>
              </g>
              <path class="cls-32" d="M82.08,17.48s.15.66-.13,1.22c0,0-.32.78.46.81,1.58.19,2.33-2.56,1.91-3.23l-1.41.09-.84,1.11h0Z"/>
              <path class="cls-45" d="M84.09,17.31c.34-.27.19-.87-.3-.64l-.17-.65c0-.73-.98-.95-1.29-.9-.31.06-.63.95-.66,1.16-.36,2.4,1.23,2.04,2.43,1.03h0Z"/>
              <path class="cls-16" d="M85,18.25c-.11.28-.61,1.1-1.17,1.13-.94.48-.84.29-.27-.64.4-1.01.35-1.62.05-2.71-.32-.93-1.53-1.34-1.91.11-.15-1.44.61-2.31,2.23-2.22,2.06.76,1.47,2.93,1.06,4.33h0Z"/>
              <path class="cls-33" d="M82.58,25.09l.27.77c-.12.05-2.2.55-2.37-.31.12-.23.54,0,.79-.06.32-.07.61-.25.47-.52,0,0-.09-.18-.03-.23.2-.16.33.35.6.5.09.06.28-.15.28-.15h0Z"/>
              <path class="cls-52" d="M85.26,19.23s-.95-.74-1.2.75c0,0,.3,1.3.47,1.89.15.55.4,1.34.25,1.61-.27.49-1.3.81-2.28,1.49-.02.44.07.9.26,1.18,1.57-.61,3.94-1.17,3.55-3.79-.41-1.91-.36-2.21-1.05-3.13h0Z"/>
              <path class="cls-46" d="M80.53,20.01c-.41.68-.52,1.48-.03,2.19l-.03.02c-.58-.72-.53-1.55.05-2.22h.01Z"/>
            </g>
          </g>
          <g>
            <path class="cls-89" d="M36.41,72.47c-3.62,2.09-9.49,2.09-13.11,0-3.62-2.09-3.62-5.48,0-7.57,3.62-2.09,9.49-2.09,13.11,0,3.62,2.09,3.62,5.48,0,7.57Z"/>
            <g class="cls-110">
              <polygon class="cls-183" points="34.43 61.9 34.42 64.74 34.22 65.68 34.22 62.84 34.43 61.9"/>
              <g class="cls-110">
                <g class="cls-136">
                  <g class="cls-110">
                    <path class="cls-183" d="M34.22,62.84s0,2.84,0,2.85c0,0,0-2.84,0-2.85"/>
                    <path class="cls-173" d="M34.22,62.85c0,.06,0,2.83-.01,2.89,0-.06,0-2.83.01-2.89"/>
                    <path class="cls-165" d="M34.22,62.9s0,2.84,0,2.85c0,0,0-2.84,0-2.85"/>
                  </g>
                </g>
              </g>
              <polygon class="cls-103" points="23.2 64.51 23.19 67.35 21.9 66.35 21.91 63.51 23.2 64.51"/>
              <g class="cls-110">
                <g class="cls-137">
                  <g class="cls-110">
                    <path class="cls-172" d="M23.38,64.81v2.84c0-.1-.06-.21-.18-.3v-2.84c.13.09.18.2.18.3"/>
                  </g>
                </g>
              </g>
              <polygon class="cls-101" points="37.88 64.58 37.87 67.43 36.64 68.08 36.65 65.24 37.88 64.58"/>
              <g class="cls-110">
                <g class="cls-138">
                  <g class="cls-110">
                    <path class="cls-80" d="M36.65,65.24v2.84s-.03.01-.05.02v-2.84s.03-.01.05-.02"/>
                    <path class="cls-102" d="M36.61,65.26v2.84c-.05.03-.09.05-.12.08v-2.84s.08-.06.12-.08"/>
                    <path class="cls-85" d="M36.5,65.34v2.84s-.05.04-.06.06v-2.84s.04-.04.06-.06"/>
                    <path class="cls-78" d="M36.45,65.4v2.84s-.03.03-.04.05c.03-.06-.06-2.86.04-2.89"/>
                    <path class="cls-184" d="M36.42,65.45s.03,2.86-.03,2.89c.02-.05-.03-2.86.03-2.89"/>
                    <path class="cls-183" d="M36.39,65.5c-.01.06.02,2.84-.02,2.89.01-.06-.02-2.84.02-2.89"/>
                    <path class="cls-173" d="M36.38,65.55c0,.06,0,2.83-.01,2.89,0-.06,0-2.83.01-2.89"/>
                    <path class="cls-165" d="M36.37,65.6s0,2.84,0,2.85c0,0,0-2.84,0-2.85"/>
                  </g>
                </g>
              </g>
              <path class="cls-165" d="M32.05,64.62c-1.77-.93-4.4-.92-5.9.53-.23.25-.39.57-.41.91,0,.06,0,2.84-.01,2.91.3-2.89,7.18-2.8,7.4.02v-2.84c0-.55-.35-1.11-1.08-1.53Z"/>
              <g class="cls-110">
                <g class="cls-139">
                  <g class="cls-110">
                    <path class="cls-172" d="M20.84,66.97v2.84c-.25-.61-.1-3.07-.13-3.74,0,.3.04.6.13.9"/>
                  </g>
                </g>
              </g>
              <polygon class="cls-105" points="23.13 67.29 23.13 70.13 20.83 69.81 20.84 66.97 23.13 67.29"/>
              <g class="cls-110">
                <g class="cls-140">
                  <g class="cls-110">
                    <path class="cls-172" d="M23.81,67.78v2.84c0-.17-.2-.35-.39-.42v-2.84c.2.07.4.25.39.42"/>
                    <path class="cls-63" d="M23.43,67.36v2.84s-.08-.02-.11-.04v-2.84s.08.02.11.04"/>
                    <path class="cls-185" d="M23.32,67.32v2.84s-.07-.02-.1-.02v-2.84s.07.01.1.02"/>
                    <path class="cls-165" d="M23.23,67.3v2.84s-.07-.01-.1-.02v-2.84s.07,0,.1.02"/>
                    <polyline class="cls-173" points="23.14 67.29 23.13 70.13 23.13 70.13 23.13 67.29 23.14 67.29"/>
                  </g>
                </g>
              </g>
              <g class="cls-110">
                <g class="cls-133">
                  <g class="cls-110">
                    <path class="cls-173" d="M38.25,66.59v2.84s-.02.08-.03.11v-2.84s.02-.08.03-.11"/>
                    <path class="cls-183" d="M38.23,66.71c-.03.38.1,3.04-.15,3.34.02-.39-.07-3.04.15-3.34"/>
                    <path class="cls-184" d="M38.09,67.2c-.05.42.15,3.05-.24,3.34.03-.43-.13-3.03.24-3.34"/>
                    <path class="cls-78" d="M37.85,67.7c-.03.13.09,3.1-.15,3.07v-2.84c.06-.08.1-.15.15-.23"/>
                  </g>
                </g>
              </g>
              <path class="cls-165" d="M35.86,67.98c-.3.01-.68.1-.81.4-.01.03-.02.07-.02.1v2.84c.09-.79,2.14-.44,2.68-.55v-2.84s-1.85.05-1.85.05Z"/>
              <path class="cls-172" d="M23.3,69.7c-.25-.14-.48-.3-.7-.45v2.84c.42.31.91.6,1.4.82v-2.84c-.24-.11-.48-.24-.71-.37Z"/>
              <g class="cls-110">
                <g class="cls-131">
                  <g class="cls-110">
                    <path class="cls-80" d="M35.65,69.75v2.84c-.55.31-1.14.56-1.77.77v-2.84c.64-.21,1.23-.47,1.77-.77"/>
                  </g>
                </g>
              </g>
              <path class="cls-79" d="M27.41,69.79c-.56-.96-2.62.18-3.39.29v2.84c.7-.12,2.47-1,3.15-.53.29.09.62,1.35.75,1.57v-2.84s-.51-1.32-.51-1.32Z"/>
              <path class="cls-176" d="M32.21,69.77c-.4-.16-.92-.15-1.26.13-.02.02-.05.05-.06.07l-.89,1.21v2.84s.88-1.21.88-1.21c.02-.02.03-.04.05-.06.76-.72,2.21.36,2.96.61v-2.84s-1.68-.75-1.68-.75Z"/>
              <path class="cls-98" d="M32.21,69.77c-1.26-.49-1.61.68-2.22,1.41-.69.02-1.38,0-2.06-.08-.14-.23-.45-1.48-.75-1.57-.63-.47-2.49.42-3.16.53-.49-.23-.99-.51-1.41-.82l1.11-1.24c.67-.95-2.47-.87-2.87-1.04-.12-.39-.16-.79-.12-1.19.36-.2,3.42-.42,2.48-1.28l-1.29-1c.36-.36.81-.7,1.34-1.01.65.03,2.87.86,3.08-.1l.1-1.09c.74-.16,1.52-.26,2.3-.29,1.57,1.53,1.7,1.37,3.48.24.77.15,1.52.36,2.21.63l-.21.94c.04.97,2,.4,2.59.45.47.4.82.84,1.06,1.29-2.49,1.19-1.59,1.25.37,2.01-.07.45-.25.9-.54,1.34-.51.1-2.96-.27-2.65.7l.59,1.12c-.54.31-1.13.56-1.76.77l-1.69-.75ZM26.84,67.65c1.45.84,3.79.84,5.23,0s1.43-2.19-.02-3.03c-1.45-.84-3.79-.84-5.23,0-1.44.84-1.43,2.19.02,3.03"/>
              <path class="cls-149" d="M29.75,71.19c-.61,0-1.22-.02-1.82-.08v2.84c.68.07,1.37.1,2.05.08v-2.84c-.07,0-.15,0-.23,0Z"/>
            </g>
          </g>
          <g>
            <path class="cls-89" d="M99.11,102.27c-2.45,1.42-6.43,1.42-8.89,0-2.45-1.42-2.45-3.71,0-5.13,2.45-1.42,6.43-1.42,8.89,0,2.45,1.42,2.45,3.71,0,5.13Z"/>
            <g class="cls-110">
              <path class="cls-183" d="M97.77,95.11c0,.49.05,2.13-.15,2.57,0-.49-.05-2.13.15-2.57Z"/>
              <g class="cls-110">
                <g class="cls-134">
                  <g class="cls-110">
                    <path class="cls-183" d="M97.63,95.75s0,1.93,0,1.93c0,0,0-1.93,0-1.93"/>
                    <path class="cls-173" d="M97.63,95.75s0,1.92,0,1.96c0-.04,0-1.92,0-1.96"/>
                    <path class="cls-165" d="M97.62,95.79s0,1.93,0,1.93c0,0,0-1.93,0-1.93"/>
                  </g>
                </g>
              </g>
              <polygon class="cls-103" points="90.16 96.88 90.15 98.8 89.28 98.13 89.28 96.2 90.16 96.88"/>
              <g class="cls-110">
                <g class="cls-132">
                  <g class="cls-110">
                    <path class="cls-172" d="M90.28,97.08v1.93c0-.07-.04-.14-.12-.21v-1.93c.09.06.12.13.12.21"/>
                  </g>
                </g>
              </g>
              <polygon class="cls-101" points="100.11 96.93 100.1 98.86 99.27 99.3 99.27 97.37 100.11 96.93"/>
              <g class="cls-110">
                <g class="cls-127">
                  <g class="cls-110">
                    <path class="cls-80" d="M99.27,97.37v1.93s-.02,0-.03.01v-1.93s.02,0,.03-.01"/>
                    <path class="cls-102" d="M99.25,97.39v1.93s-.06.04-.08.06v-1.93s.05-.04.08-.06"/>
                    <path class="cls-85" d="M99.17,97.44v1.93s-.03.03-.04.04v-1.93s.03-.03.04-.04"/>
                    <path class="cls-78" d="M99.14,97.48v1.93s-.02.02-.03.03c.02-.04-.04-1.94.03-1.96"/>
                    <path class="cls-184" d="M99.11,97.52s.02,1.94-.02,1.96c.01-.03-.02-1.94.02-1.96"/>
                    <path class="cls-183" d="M99.1,97.55s.01,1.93-.01,1.96c0-.04-.01-1.93.01-1.96"/>
                    <path class="cls-173" d="M99.09,97.58s0,1.92,0,1.96c0-.04,0-1.92,0-1.96"/>
                    <path class="cls-165" d="M99.08,97.62s0,1.93,0,1.93c0,0,0-1.93,0-1.93"/>
                  </g>
                </g>
              </g>
              <path class="cls-165" d="M96.16,96.95c-1.23-.64-3.05-.63-4.05.42-.4.36-.17,2.06-.23,2.53.22-1.96,4.85-1.91,5.02.01v-1.93c0-.37-.24-.75-.73-1.03Z"/>
              <g class="cls-110">
                <g class="cls-121">
                  <g class="cls-110">
                    <path class="cls-172" d="M88.56,98.55v1.93c-.17-.41-.07-2.08-.09-2.53,0,.2.03.41.09.61"/>
                  </g>
                </g>
              </g>
              <polygon class="cls-105" points="90.11 98.76 90.11 100.68 88.55 100.47 88.56 98.55 90.11 98.76"/>
              <g class="cls-110">
                <g class="cls-122">
                  <g class="cls-110">
                    <path class="cls-172" d="M90.57,99.09v1.93c0-.12-.13-.24-.26-.28v-1.93c.14.05.27.17.26.28"/>
                    <path class="cls-63" d="M90.31,98.81v1.93s-.05-.02-.08-.02v-1.93s.05.02.08.02"/>
                    <path class="cls-185" d="M90.24,98.79v1.93s-.05-.01-.07-.02v-1.93s.05,0,.07.02"/>
                    <path class="cls-165" d="M90.18,98.77v1.93s-.04,0-.07-.01v-1.93s.05,0,.07.01"/>
                    <polyline class="cls-173" points="90.12 98.76 90.11 100.69 90.11 100.68 90.11 98.76 90.12 98.76"/>
                  </g>
                </g>
              </g>
              <g class="cls-110">
                <g class="cls-123">
                  <g class="cls-110">
                    <path class="cls-173" d="M100.36,98.29v1.93s-.01.05-.02.08v-1.93s.02-.05.02-.08"/>
                    <path class="cls-183" d="M100.34,98.37c-.02.26.06,2.06-.1,2.26.01-.26-.05-2.06.1-2.26"/>
                    <path class="cls-184" d="M100.25,98.7c-.03.29.1,2.07-.16,2.26.02-.29-.09-2.06.16-2.26"/>
                    <path class="cls-78" d="M100.09,99.04c-.02.09.06,2.1-.1,2.08v-1.93c.04-.05.07-.1.1-.16"/>
                  </g>
                </g>
              </g>
              <path class="cls-165" d="M98.73,99.23c-.21,0-.48.07-.56.29-.02.09,0,1.9-.01,1.98.07-.54,1.45-.3,1.82-.37v-1.93s-1.25.03-1.25.03Z"/>
              <path class="cls-172" d="M90.23,100.4c-.17-.1-.33-.2-.47-.31v1.93c.28.21.62.4.95.56v-1.93c-.16-.08-.32-.16-.48-.25Z"/>
              <g class="cls-110">
                <g class="cls-124">
                  <g class="cls-110">
                    <path class="cls-80" d="M98.6,100.43v1.93c-.37.21-.77.38-1.2.52v-1.93c.43-.14.83-.32,1.2-.52"/>
                  </g>
                </g>
              </g>
              <path class="cls-79" d="M93.01,100.45c-.39-.65-1.77.12-2.3.19v1.93c.54-.07,1.89-.85,2.29-.19l.35.9v-1.93s-.34-.9-.34-.9Z"/>
              <path class="cls-176" d="M96.26,100.44c-.87-.32-1.06.43-1.51.96v1.93s.6-.82.6-.82c.01-.01.02-.03.03-.04.52-.49,1.5.24,2.01.41v-1.93s-1.14-.51-1.14-.51Z"/>
              <path class="cls-58" d="M96.26,100.44c-.82-.34-1.11.48-1.51.96-.47.01-.94,0-1.4-.05l-.35-.9c-.38-.66-1.77.13-2.3.19-.33-.15-.67-.35-.96-.56l.75-.84c.45-.65-1.67-.58-1.95-.7-.08-.27-.11-.54-.08-.81.25-.14,2.31-.27,1.68-.87l-.87-.68c.25-.24.55-.47.91-.68.44.02,1.94.58,2.09-.06l.07-.74c.5-.11,1.03-.17,1.56-.2,1.04,1.03,1.18.93,2.36.16.52.1,1.03.24,1.5.43l-.14.64c.03.65,1.35.27,1.76.31.32.27.56.57.72.87-1.68.79-1.07.86.25,1.36-.05.31-.17.61-.36.91-.34.07-2-.18-1.8.47l.4.76c-.37.21-.77.38-1.19.52l-1.14-.51ZM92.62,99.01c.98.57,2.57.57,3.55,0s.97-1.49-.01-2.05c-.98-.57-2.57-.57-3.55,0s-.97,1.49.01,2.05"/>
              <path class="cls-149" d="M94.59,101.41c-.41,0-.83-.01-1.24-.06v1.93c.46.05.93.07,1.39.05v-1.93s-.1,0-.16,0Z"/>
            </g>
          </g>
          <g>
            <polygon class="cls-89" points="104.36 57.61 91.2 50.02 96.26 47.1 109.41 54.69 104.36 57.61"/>
            <g>
              <g class="cls-110">
                <g class="cls-125">
                  <g class="cls-110">
                    <polyline class="cls-77" points="107.87 55.17 98.72 49.85 98.73 49.85 107.87 55.17 107.87 55.17"/>
                    <path class="cls-169" d="M107.87,55.17l-9.14-5.31s0,0,.01,0l9.14,5.31s0,0-.01,0"/>
                    <path class="cls-169" d="M107.88,55.16l-9.14-5.31s.02,0,.03-.01l9.14,5.31s-.02,0-.03.01"/>
                    <path class="cls-169" d="M107.91,55.15l-9.14-5.31c.06-.02.14-.07.18-.11l9.14,5.31s-.12.09-.18.11"/>
                    <polyline class="cls-169" points="108.09 55.04 98.95 49.73 98.95 49.72 108.09 55.04 108.09 55.04"/>
                  </g>
                </g>
              </g>
              <g class="cls-110">
                <g class="cls-128">
                  <g class="cls-110">
                    <path class="cls-58" d="M107.68,55.47c-.05-.09-9.23-5.25-9.2-5.41l9.14,5.31s.02.08.05.09"/>
                  </g>
                </g>
              </g>
              <polygon class="cls-3" points="108.59 49.09 99.45 43.78 99.69 43.67 108.83 48.98 108.59 49.09"/>
              <polygon class="cls-62" points="108.66 48.2 106.3 46.82 106.22 47.72 99.45 43.78 98.95 49.72 108.09 55.04 108.59 49.09 108.59 49.09 108.66 48.2"/>
              <polygon class="cls-164" points="100.11 44.13 99.61 50.07 108.09 55.04 108.59 49.09 100.11 44.13"/>
              <polygon class="cls-94" points="101.5 44.61 101.01 50.55 107.5 54.31 107.99 48.36 101.5 44.61"/>
              <polygon class="cls-3" points="107.1 49.98 97.95 44.67 98.2 44.5 107.34 49.81 107.1 49.98"/>
              <polygon class="cls-58" points="107.63 55.37 98.48 50.06 97.95 44.67 107.1 49.98 107.63 55.37"/>
              <g class="cls-93">
                <path class="cls-64" d="M107.38,52.84l-.28-2.86-9.14-5.31.13,1.32c5.41,3.37,5.55,2.04,9.29,6.85Z"/>
              </g>
              <path class="cls-170" d="M108.59,49.09l.24-.11c-.14.26-.24,6.59-.85,6.42-.2.12-.34.11-.36-.03l-.53-5.39.24-.17.53,5.35c.06,0,.18-.08.23-.13l.49-5.94Z"/>
              <polygon class="cls-3" points="108.66 48.2 106.3 46.82 106.54 46.71 108.91 48.09 108.66 48.2"/>
              <polygon class="cls-170" points="108.66 48.2 108.91 48.09 108.83 48.98 108.59 49.09 108.66 48.2"/>
            </g>
            <g>
              <g class="cls-110">
                <g class="cls-129">
                  <g class="cls-110">
                    <polyline class="cls-77" points="101.06 53.44 93.28 48.92 93.29 48.92 101.06 53.44 101.06 53.44"/>
                    <path class="cls-169" d="M101.06,53.44l-7.77-4.52s0,0,.01,0l7.77,4.52s0,0-.01,0"/>
                    <path class="cls-169" d="M101.07,53.44l-7.77-4.52s.02,0,.03,0l7.77,4.52s-.02,0-.03,0"/>
                    <path class="cls-169" d="M101.1,53.43l-7.77-4.52s.12-.06.15-.1l7.77,4.52s-.1.08-.15.1"/>
                    <polyline class="cls-169" points="101.25 53.33 93.47 48.82 93.48 48.81 101.25 53.33 101.25 53.33"/>
                  </g>
                </g>
              </g>
              <g class="cls-110">
                <g class="cls-130">
                  <g class="cls-110">
                    <path class="cls-58" d="M100.9,53.69c-.05-.08-7.85-4.46-7.82-4.59l7.77,4.52s.02.06.05.08"/>
                  </g>
                </g>
              </g>
              <polygon class="cls-3" points="101.67 48.28 93.9 43.76 94.11 43.67 101.88 48.18 101.67 48.28"/>
              <polygon class="cls-62" points="101.73 47.52 99.72 46.35 99.66 47.11 93.9 43.76 93.48 48.81 101.25 53.33 101.67 48.28 101.67 48.28 101.73 47.52"/>
              <polygon class="cls-164" points="94.46 44.06 94.04 49.11 101.25 53.33 101.67 48.28 94.46 44.06"/>
              <polygon class="cls-94" points="95.65 44.47 95.23 49.52 100.74 52.71 101.16 47.66 95.65 44.47"/>
              <polygon class="cls-3" points="100.4 49.03 92.63 44.52 92.84 44.37 100.61 48.89 100.4 49.03"/>
              <polygon class="cls-58" points="100.85 53.62 93.08 49.1 92.63 44.52 100.4 49.03 100.85 53.62"/>
              <g class="cls-93">
                <path class="cls-64" d="M100.64,51.46l-.24-2.43-7.77-4.52.11,1.12c4.6,2.87,4.72,1.73,7.9,5.82Z"/>
              </g>
              <path class="cls-170" d="M101.67,48.28l.21-.1-.42,5.09c.04.17-.53.64-.6.35l-.45-4.58.21-.14.45,4.55c.05,0,.16-.07.19-.11l.42-5.05Z"/>
              <polygon class="cls-3" points="101.73 47.52 99.72 46.35 99.93 46.25 101.94 47.42 101.73 47.52"/>
              <polygon class="cls-170" points="101.73 47.52 101.94 47.42 101.88 48.18 101.67 48.28 101.73 47.52"/>
            </g>
            <g>
              <g class="cls-110">
                <g class="cls-126">
                  <g class="cls-110">
                    <polyline class="cls-77" points="103.28 56.16 97.34 52.7 97.34 52.7 103.29 56.16 103.28 56.16"/>
                    <polyline class="cls-169" points="103.29 56.16 97.34 52.7 97.35 52.7 103.29 56.16 103.29 56.16"/>
                    <path class="cls-169" d="M103.29,56.16l-5.94-3.45s.01,0,.02,0l5.94,3.45s-.01,0-.02,0"/>
                    <path class="cls-169" d="M103.31,56.15l-5.94-3.45s.09-.05.11-.07l5.94,3.45s-.08.06-.11.07"/>
                    <polyline class="cls-169" points="103.43 56.07 97.49 52.62 97.49 52.62 103.43 56.07 103.43 56.07"/>
                  </g>
                </g>
              </g>
              <g class="cls-110">
                <g class="cls-146">
                  <g class="cls-110">
                    <path class="cls-58" d="M103.16,56.35c-.04-.06-6-3.41-5.98-3.51l5.94,3.45s.02.05.03.06"/>
                  </g>
                </g>
              </g>
              <polygon class="cls-3" points="103.75 52.21 97.81 48.76 97.97 48.68 103.91 52.14 103.75 52.21"/>
              <polygon class="cls-62" points="103.8 51.63 102.27 50.73 102.22 51.32 97.81 48.76 97.49 52.62 103.43 56.07 103.75 52.21 103.75 52.21 103.8 51.63"/>
              <polygon class="cls-164" points="98.24 48.98 97.92 52.85 103.43 56.07 103.75 52.21 98.24 48.98"/>
              <polygon class="cls-94" points="99.15 49.29 98.83 53.16 103.04 55.6 103.36 51.74 99.15 49.29"/>
              <polygon class="cls-3" points="102.78 52.79 96.84 49.33 97 49.22 102.94 52.68 102.78 52.79"/>
              <polygon class="cls-58" points="103.13 56.29 97.19 52.84 96.84 49.33 102.78 52.79 103.13 56.29"/>
              <g class="cls-93">
                <path class="cls-64" d="M102.97,54.65l-.18-1.86-5.94-3.45.08.86c3.51,2.19,3.61,1.33,6.04,4.45Z"/>
              </g>
              <path class="cls-170" d="M103.75,52.21l.16-.07-.32,3.89c.03.13-.4.49-.46.27l-.34-3.5.16-.11.34,3.48s.12-.05.15-.09l.32-3.86Z"/>
              <polygon class="cls-3" points="103.8 51.63 102.27 50.73 102.42 50.66 103.96 51.55 103.8 51.63"/>
              <polygon class="cls-170" points="103.8 51.63 103.96 51.55 103.91 52.14 103.75 52.21 103.8 51.63"/>
            </g>
          </g>
          <g>
            <g class="cls-110">
              <path class="cls-164" d="M142.44,64.04c-.02-.43-.2-.83-.44-1.18h0c.18-.28-11.08-6.54-11.35-6.74-.34-.17-.64.04-.92.21.23-.13.51-.05.72.07.26.26,11.81,6.5,11.36,6.91.17.3.28.63.28.97l-.05,19c0,.25-.07.52-.3.65.25-.14.6-.31.63-.63.06-.25.06-19.01.08-19.27Z"/>
              <path class="cls-179" d="M141.07,62.55l-10.63-6.14c-.56-.32-1.01-.06-1.02.58l-.05,19c0,.64.45,1.43,1.01,1.75l10.63,6.14c.56.32,1.01.06,1.02-.58l.05-19c0-.64-.45-1.43-1.01-1.75Z"/>
            </g>
            <g>
              <g>
                <g>
                  <polygon class="cls-59" points="132.46 72.39 131.25 71.69 131.25 70.28 132.46 70.99 132.46 72.39"/>
                  <polygon class="cls-59" points="140.12 75.86 136.58 73.82 136.58 73.36 140.12 75.4 140.12 75.86"/>
                  <polygon class="cls-59" points="140.12 76.81 133.59 73.04 133.59 72.58 140.12 76.35 140.12 76.81"/>
                </g>
                <g>
                  <polygon class="cls-94" points="132.46 74.78 131.25 74.08 131.25 72.67 132.46 73.38 132.46 74.78"/>
                  <polygon class="cls-94" points="140.12 78.25 136.58 76.21 136.58 75.75 140.12 77.79 140.12 78.25"/>
                  <polygon class="cls-94" points="140.12 79.2 133.59 75.43 133.59 74.97 140.12 78.74 140.12 79.2"/>
                </g>
                <g>
                  <polygon class="cls-64" points="132.46 77.17 131.25 76.47 131.25 75.06 132.46 75.77 132.46 77.17"/>
                  <polygon class="cls-64" points="140.12 80.64 136.58 78.6 136.58 78.14 140.12 80.18 140.12 80.64"/>
                  <polygon class="cls-64" points="140.12 81.59 133.59 77.82 133.59 77.36 140.12 81.13 140.12 81.59"/>
                </g>
              </g>
              <g>
                <path class="cls-64" d="M135.94,63.51s-.02-.04-.03-.05h-.02c-.1-.06-.21-.13-.32-.19h0c-.7-.4-1.37-.46-1.88-.17-1.92,1.48-.06,5.01,1.68,5.99,1.3.83,2.74.12,2.68-1.54,0-1.43-.91-3.14-2.1-4.04ZM137.03,66.85c-.03-.71-.2-1.45-.48-2.16.57.73.97,1.64,1.06,2.49l-.58-.33ZM135.96,68.92c-.09-.03-.19-.08-.28-.13v-2.25s.95.55.95.55c0,.86-.25,1.52-.67,1.83ZM133.92,65.54c0,.64.13,1.32.36,1.99-.5-.7-.86-1.54-.95-2.32l.59.34ZM135.16,63.51s.07.03.1.05v2.28s-.94-.53-.94-.53c.04-.9.34-1.55.83-1.79ZM134.34,65.78l.93.53v2.23c-.64-.73-.84-1.87-.93-2.76ZM135.67,66.08v-2.23c.52.83.85,1.82.94,2.76l-.94-.53ZM133.9,63.45c.23-.13.52-.16.78-.1-.41.35-.67.96-.74,1.73l-.63-.36c.02-.61.23-1.06.59-1.27ZM137.04,68.9c-.18.1-.38.14-.61.13.35-.39.55-.99.59-1.71l.6.35c-.02.59-.23,1.03-.59,1.24Z"/>
                <path class="cls-64" d="M139.84,70.01l-.42-1.56-.66.8.33.23c-1.34,3.78-5.59.02-6.58-2.46l-.37.18c1.13,2.77,5.66,6.58,7.3,2.53l.4.28Z"/>
                <path class="cls-64" d="M131.85,62.85c1.26-3.68,5.4-.19,6.45,2.2l.36-.19c-1.19-2.7-5.65-6.18-7.17-2.26l-.4-.28.42,1.56.66-.8-.33-.23Z"/>
              </g>
            </g>
          </g>
          <g>
            <g class="cls-110">
              <path class="cls-164" d="M126.04,38.57c-.02-.43-.2-.83-.44-1.18h0c.18-.28-11.08-6.54-11.35-6.74-.34-.17-.64.04-.92.21.23-.13.51-.05.72.07.26.26,11.81,6.5,11.36,6.91.17.3.28.63.28.97l-.05,19c0,.25-.07.52-.3.65.25-.14.6-.31.63-.63.06-.25.06-19.01.08-19.27Z"/>
              <path class="cls-179" d="M124.67,37.08l-10.63-6.14c-.56-.32-1.01-.06-1.02.58l-.05,19c0,.64.45,1.43,1.01,1.75l10.63,6.14c.56.32,1.01.06,1.02-.58l.05-19c0-.64-.45-1.42-1.01-1.75Z"/>
            </g>
            <g>
              <g>
                <g>
                  <polygon class="cls-59" points="115.81 46.78 114.6 46.08 114.6 44.68 115.81 45.38 115.81 46.78"/>
                  <polygon class="cls-59" points="123.46 50.25 119.93 48.22 119.93 47.76 123.46 49.8 123.46 50.25"/>
                  <polygon class="cls-59" points="123.46 51.2 116.93 47.43 116.93 46.97 123.46 50.74 123.46 51.2"/>
                </g>
                <g>
                  <polygon class="cls-94" points="115.81 49.17 114.6 48.47 114.6 47.07 115.81 47.77 115.81 49.17"/>
                  <polygon class="cls-94" points="123.46 52.65 119.93 50.61 119.93 50.15 123.46 52.19 123.46 52.65"/>
                  <polygon class="cls-94" points="123.46 53.59 116.93 49.82 116.93 49.36 123.46 53.13 123.46 53.59"/>
                </g>
                <g>
                  <polygon class="cls-64" points="115.81 51.57 114.6 50.86 114.6 49.46 115.81 50.16 115.81 51.57"/>
                  <polygon class="cls-64" points="123.46 55.04 119.93 53 119.93 52.54 123.46 54.58 123.46 55.04"/>
                  <polygon class="cls-64" points="123.46 55.98 116.93 52.21 116.93 51.75 123.46 55.52 123.46 55.98"/>
                </g>
              </g>
              <g>
                <path class="cls-64" d="M123.52,42.6l-.82-.48c-.05-2.22-1.59-4.88-3.48-6.04v-.95h-.41v.73c-1.78-.9-3.37.02-3.48,2.01l-.63-.36-.2.35.82.48c.05,2.23,1.59,4.89,3.49,6.04v.95h.41v-.73c1.65.88,3.4-.01,3.47-2.01l.63.36.2-.35ZM121.37,44.32c-.57.33-1.33.26-2.16-.19v-2.01h-.41v1.76c-1.63-1.11-2.93-3.35-3.07-5.32l1.52.88.2-.35-1.74-1c0-1.96,1.53-2.7,3.08-1.78v1.49h.41v-1.24c1.62,1.11,2.92,3.35,3.06,5.31l-1.08-.62-.2.35,1.29.75c-.02.94-.35,1.64-.92,1.97Z"/>
                <polygon class="cls-64" points="119.19 39.58 118.78 39.58 118.78 39.86 118.54 39.72 118.34 40.07 118.78 40.33 118.78 40.84 119.19 40.84 119.19 40.57 119.43 40.7 119.63 40.35 119.19 40.09 119.19 39.58"/>
              </g>
            </g>
          </g>
          <g id="man1">
            <path class="cls-92" d="M24.33,104.73c1.75,1.01,4.59,1.01,6.34,0s1.75-2.65,0-3.66-4.59-1.01-6.34,0c-1.75,1.01-1.75,2.65,0,3.66Z"/>
            <path class="cls-168" d="M26.85,103.77s-.04.67.24,1.16c0,0,.63.1.96-.19s.68-.28.68-.28c0,0,.9-.25,1.09-.33.23-.1.81-.49.57-.92-.3-.46-.97-.03-1.29,0-1.2.26-.36-1.05-2.25.55h0Z"/>
            <path class="cls-168" d="M24.22,102.01c-.24,1.16.36,1.47,1.11.62l.38-.55.55-.59s.37-.83-.62-.49c-.99.34-1.42,1.01-1.42,1.01h0Z"/>
            <g>
              <path class="cls-178" d="M26.67,103.97c.71.28,1.84.25,2.37-.44.15-3.21.33-10.74-.15-13.85l-5.34-.77s-.92-.45-.35,2.32c.98,5.38.34,6.55.26,10.79.43.6,1.78.72,2.37.13l.21-7.86.63,9.67h0Z"/>
              <g class="cls-141">
                <path class="cls-8" d="M22.99,91.78c1.34-.2,1.66,8.09.31,7.99-1.34.2-1.66-8.09-.31-7.99Z"/>
                <path class="cls-8" d="M26.03,94.7c.39.85.76,5.89.38,6.83-.41-.54-.3-6.08-.38-6.83h0Z"/>
              </g>
            </g>
            <path class="cls-9" d="M23.19,88.77s-.19.15-.15,1.08c.08.27,2.22.96,2.85,1.09.63.12,2.65-.04,3.08-.3l-.09-1.11-2.91-.07c-.28-.06-2.54-.76-2.78-.68Z"/>
            <path class="cls-60" d="M33.2,81.85c-.04-.2.48-1.05.54-1.17.1-.31.32-.91-.1-1.21-.28-.09-.44.66-.47.7l-.15.26c0-.16.03-.42-.04-.57-.1-.23-.16-.15-.19.04,0,.29-.2.52-.23.8.04.17-.14.66-.19.82l.83.33Z"/>
            <path class="cls-10" d="M27.83,80.94c.2-.32.53-.94.75-1.23v-.24c.03-.16.25-.06.24.06.06.14-.03.38-.12.54-.01.08.06.09.14.1.38-.02.72-.18,1.13-.18,0,0,.49.01.19.17.22,0,.68-.15.38.22.02-.03.16.07-.03.21l-.17.08c.42.09-.56.49-.57.42-.22.08-.68.27-.9.37,0,.02-.29.04-.32.01-.03-.03-.38.11-.38.11l-.35-.65h0Z"/>
            <path class="cls-12" d="M27.14,81.06c.25-.06.43-.22.74-.29.24.28.37.62.49.93-.34.12-.62.22-.87.38l-.36-1.03h0Z"/>
            <path class="cls-15" d="M23.58,80.97s-1.58.26-.16,4.36c.13,1.5-.14,2.65-.39,3.73,0,0,3.04,2.3,5.96.59l-.03-2.75c.06-.98.12-3.21-.08-4.16.02-.66-.53-.97-.99-.99-.73-.12-3.63-1.07-4.3-.78h0Z"/>
            <path class="cls-15" d="M30.63,83.51h.55c.55-.56.71-1.51,1.13-2.17.39-.02.74.05,1.05.22,0,1-.54,2.13-.99,2.98,0,0-.32.65-.98.69-.66.04-.58-.64-.58-.64l-.19-1.08h0Z"/>
            <path class="cls-15" d="M28.03,82.53c-.59,2.21.92,2.74,3.36,2.69,0,0,.56-.78-.21-1.74,0,0-.49-.21-.89-.38-.74-.17-1.64-1.56-2.26-.57h0Z"/>
            <g>
              <path class="cls-10" d="M25.27,80.76l.07-.62c-1.42-1.42-.75-4.41,1.88-3.94,1,.09.93.84.74,1.46.13.32.11.68.06,1.01.13.61.06,1.48-.5,1.77-.15.29-.12.57-.12.85l-2.14-.52h0Z"/>
              <g class="cls-142">
                <path class="cls-50" d="M24.3,78.89c.48.69,1.33,1.46,2.24,1.02h0c.44-.12.74-.8.88-1.1.64-.47.82-.88.78-1.26l.37-1.4-1.69-.66s-1.98.57-2.05.59c-.07.02-.71.91-.71.91l.19,1.89h0Z"/>
              </g>
            </g>
            <path class="cls-11" d="M25.04,80.43c-.14.19-.26.41-.34.64.67.4,1.76.31,2.52.64l.65.31c.14-.62-.44-1.05-1.12-1.16-.48-.05-1.35-.03-1.71-.42h0Z"/>
          </g>
          <g>
            <path class="cls-55" d="M77.38,114.61c1.43.83,3.76.83,5.19,0,1.43-.83,1.43-2.17,0-3-1.43-.83-3.76-.83-5.19,0-1.43.83-1.43,2.17,0,3Z"/>
            <path class="cls-32" d="M78.23,111.28c.05-.54-.43-3.18-.41-3.14-.06-.69,0-2.36.11-2.84,0,0,.34-.46,1.05-.41.26.02.77.09.8.31.04.45-.53,2.4-.53,2.4-.19.99-.31,2.15-.25,3.11,0,0,.48.89.51.97.15.46.28.65.83.87.08.04-.22.22-.22.22l-.43-.04c-.39-.32-1.06-.89-1.48-1.16,0,0,0-.01,0-.02l-.1-.08s.1-.14.12-.18h0Z"/>
            <g>
              <path class="cls-15" d="M80.8,112.67l-1.12.54c-.46.16-1.18-.3-1.25-.83-.11.27-.17.52-.21.76-.07.05-.14.04-.22-.01.05-.28.08-.56.06-.84-.1-.61-.19-.58-.14-.92,0,0,.07-.58.5-.46.93.36.72,1.73,1.85,1.47h0s.51-.05.54.29h0Z"/>
              <g class="cls-143">
                <path class="cls-4" d="M79.75,113.31s-.47-.02-.57-.34c-.16-.27-.38-1.39-.76-.59l.15.5.7.54.47-.1Z"/>
                <polygon class="cls-39" points="77.9 113.02 78.32 113.02 78.32 113.26 77.9 113.26 77.9 113.02 77.9 113.02"/>
              </g>
            </g>
            <path class="cls-32" d="M79.81,112.27c.05-.58-.28-3.21-.27-3.16,0-.54.08-1.03.19-1.51,0,0,.12-1.76.84-1.71.26.02.76.09.8.31-.09,2.44-1.19,4.27-.27,6.47.15.46.28.65.83.87.08.04-.22.22-.22.22l-.43-.04c-.39-.32-1.06-.89-1.48-1.16,0,0,0-.01,0-.02l-.1-.08s.1-.14.12-.18h0Z"/>
            <g>
              <path class="cls-56" d="M82.37,113.66l-1.12.54c-.46.16-1.18-.3-1.25-.83-.11.26-.17.52-.21.76-.07.05-.14.04-.22-.01.05-.28.08-.56.06-.84-.1-.61-.19-.58-.14-.92,0,0,.07-.58.5-.46.93.36.72,1.73,1.85,1.47,0,0,.51-.05.54.29h0Z"/>
              <g class="cls-144">
                <path class="cls-4" d="M81.33,114.29s-.47-.02-.57-.34c-.16-.27-.38-1.39-.76-.59l.15.5.7.54.47-.1Z"/>
                <polygon class="cls-39" points="79.48 114 79.89 114 79.89 114.25 79.48 114.25 79.48 114 79.48 114"/>
              </g>
            </g>
            <path class="cls-38" d="M83.56,96.75c.8-.06,1.52.16,2.43.43.03.26-1.07.16-1.26.18.15.22.69,0,.73.31-.02.09-.21.1-.42.1-.55.17-1.08-.09-1.52-.4l.05-.63h0Z"/>
            <path class="cls-12" d="M77.46,94.68c.07.65.29,1.71.68,2.22.69.74,5.45.7,5.45.7.18-.32.27-.65.21-1.02,0,0-5.12-1.12-5.43-1.93l.57-2.05c0-.81-.85-.52-1.13-.24-.43.43-.39,1.76-.35,2.32h0Z"/>
            <path class="cls-33" d="M80.63,93.04l.07-.2s-.2-.65-.06-.91c0,0,.78.17.92-.62.13-.79.28-1.63-.03-1.92-.31-.28-2.05.82-2.05.82,0,0-.12,1.48-.5,1.86-.38.38.07.76.07.76l1.59.2Z"/>
            <g>
              <path class="cls-26" d="M80.99,90.43s-.52-.39-.5.27c.02.48-.06.52-.17.7-.06.1-.21.79-.73.79-.6,0-.69-.37-.91-.58-.46-.42-.4-1.34-.43-1.88s.05-1.15.56-1.61c.51-.46,1.19-.69,1.67-.43.38.25.58.3,1.14.31.14.03.44.21.4.92-.04.91-.83,1.23-.93,1.09l-.11.42h0Z"/>
              <g class="cls-145">
                <path class="cls-50" d="M78.25,92.46c.34-1,.8-1.94,1.6-2.73,2.04-2.15,5.63-1.74,5.16,2.17l-4.79,2.47-1.96-1.91h0Z"/>
              </g>
            </g>
            <path class="cls-15" d="M82.59,105.66l-.26-9.09c.04-.34.73-.95.68-1.69-.06-.9-.85-1.33-1.27-1.8-.22-.25-.6-.49-1.08-.61-1.34.66-1.59-.44-2.3-.43-1.63.68-.08,5.1,0,6.23-.9.83-1.17,7.05-.88,7.16,1.05,1.25,3.74,2.12,5.11.23h0Z"/>
            <g>
              <path class="cls-19" d="M79.15,88.41c-.62-.91-1.99,1.32-2.17,2.07.08.63-.34,1.33-1.02,1.37,1.17,1.22,1.93.08,2.37-1.08.11-.91-.03-1.72.82-2.36h0Z"/>
              <g class="cls-147">
                <path class="cls-54" d="M79.71,88.36c-2.65-.35-.39,5.12-4.17,3.26l-.03,1.62,2.5.67c1.8-2.76,1.63-2.2,1.71-5.55h0Z"/>
              </g>
            </g>
            <path class="cls-56" d="M81.32,93.06c1.03-.69,1.44,4.06.65,4.07-.97.17-1.82-3.85-.65-4.07Z"/>
            <path class="cls-33" d="M83.12,100.41l.12.59c.2.16.47.45.49.75.02.31-.19.76-.36,1.13-.1.12-.16.07-.26,0,.06-.34-.11-.67-.26-.96,0,0-.34-.38-.42-.51-.07-.22-.05-.69-.08-.9l.76-.11Z"/>
            <path class="cls-56" d="M81.81,95.91c.7-.07.58.69.74,1.59.11.6.79,3.05.79,3.05-.18.27-.67.34-1.07.24-.07-.23-1.9-5.03-.47-4.89Z"/>
          </g>
        </g>
      </g>
    </g>
  </g>
</svg>