<?xml version="1.0" encoding="UTF-8"?>
<svg id="_圖層_2" data-name="圖層_2" xmlns="http://www.w3.org/2000/svg" viewBox="0 0 95.2 77.72">
  <defs>
    <style>
      .cls-1 {
        fill: #11365f;
      }

      .cls-2 {
        fill: #00141b;
      }

      .cls-3 {
        fill: #f6b598;
      }

      .cls-4 {
        fill: #ce9780;
      }

      .cls-5 {
        fill: #a4604e;
      }

      .cls-6 {
        fill: #472f21;
        opacity: .44;
      }

      .cls-7 {
        fill: #b84c57;
      }

      .cls-8 {
        fill: #d8925b;
      }

      .cls-9 {
        fill: #e6dec8;
      }

      .cls-10 {
        fill: #b54126;
        opacity: .4;
      }

      .cls-11 {
        fill: #f4f0ea;
      }

      .cls-12 {
        fill: #84ccd4;
      }

      .cls-13 {
        opacity: .36;
      }

      .cls-13, .cls-14 {
        fill: #fff;
      }

      .cls-15 {
        fill: #743e1e;
      }

      .cls-16 {
        fill: #eb6972;
      }

      .cls-17 {
        fill: #fbcf86;
      }

      .cls-18 {
        fill: #f8c3a6;
      }

      .cls-19 {
        fill: #cea78a;
      }

      .cls-20, .cls-21 {
        fill: #0c1532;
      }

      .cls-22 {
        fill: #00428a;
      }

      .cls-23 {
        fill: #a8c8e5;
      }

      .cls-21 {
        opacity: .15;
      }

      .cls-24 {
        fill: #f29d8c;
      }

      .cls-25 {
        fill: #e26544;
      }

      .cls-26 {
        fill: #834638;
      }

      .cls-27 {
        fill: #f0907d;
      }

      .cls-28 {
        fill: #00091d;
        opacity: .28;
      }

      .cls-29 {
        fill: #674631;
      }

      .cls-30 {
        fill: #bb7646;
      }

      .cls-31 {
        fill: #01242f;
      }

      .cls-32 {
        fill: #033041;
      }
    </style>
  </defs>
  <g id="_圖層_1-2" data-name="圖層_1">
    <path class="cls-22" d="M14.47,76.79s-2.7.47-1.91.7c.78.24,6.26-.2,6.26-.2v-.62l-4.35.11Z"/>
    <path class="cls-22" d="M5.55,77.03s-2.93.34-2.14.58c.79.24,7.11.04,7.11.04v-.62h-4.98Z"/>
    <g>
      <path class="cls-3" d="M16.31,38.59s-4.08,9.6-6.03,9.11c-1.94-.48-7.74-10.85-7.74-10.85l3.14-1.11s3.81,6.26,4.59,6.22l2.65-5.4"/>
      <path class="cls-22" d="M27.71,35.83s2.25-.41,3.07,3.55c.82,3.96,1.13,7.77-3.96,7.97l-3.07-10.47,3.95-1.06Z"/>
      <g>
        <path class="cls-8" d="M29.45,76.96H7.03c-1.45,0-2.62-1.17-2.62-2.62v-16.92c0-1.18.96-2.14,2.14-2.14h22.7c1.92,0,3.47,1.56,3.47,3.47v14.92c0,1.81-1.47,3.28-3.28,3.28Z"/>
        <path class="cls-30" d="M10.81,55.28l-6.4,6.03v-3.89c0-1.18.96-2.14,2.14-2.14h4.26Z"/>
        <path class="cls-30" d="M32.73,61.79l-6.03-6.4h2.56c1.92,0,3.47,1.56,3.47,3.47v2.92Z"/>
        <path class="cls-30" d="M26.33,76.9l6.4-6.03v2.75c0,1.81-1.47,3.28-3.28,3.28h-3.12Z"/>
        <path class="cls-30" d="M4.32,70.69l6.03,6.4h-3.41c-1.45,0-2.62-1.17-2.62-2.62v-3.78Z"/>
        <path class="cls-14" d="M16.41,63.87c0,1.41-1.15,2.56-2.56,2.56s-2.56-1.15-2.56-2.56,1.15-2.56,2.56-2.56,2.56,1.15,2.56,2.56Z"/>
        <path class="cls-16" d="M15.64,63.83c0,1.01-.82,1.83-1.83,1.83s-1.83-.82-1.83-1.83.82-1.83,1.83-1.83,1.83.82,1.83,1.83Z"/>
        <rect class="cls-14" x="18.57" y="67.44" width="9.28" height="3.07" transform="translate(-43.11 39) rotate(-47.08)"/>
        <rect class="cls-22" x="19.26" y="68.16" width="7.9" height="1.62" transform="translate(-43.11 39) rotate(-47.08)"/>
        <rect class="cls-14" x="18.93" y="60.78" width="4.14" height="4.14"/>
        <rect class="cls-12" x="19.62" y="61.47" width="2.76" height="2.76"/>
      </g>
      <g>
        <path class="cls-20" d="M15.79,27.16c-.54.06-1.1.07-1.62-.08-.52-.16-1-.52-1.2-1.02-.2-.51-.06-1.16.4-1.45.22-.14.51-.22.61-.46.11-.27-.08-.55-.21-.81-.33-.69-.17-1.59.39-2.11.56-.52,1.47-.63,2.13-.24.1-1.19,1.19-2.21,2.38-2.23,1.19-.02,2.32.96,2.46,2.15.04.35.01.72.19,1.03.2.35.61.5.89.79.55.56.47,1.47.22,2.21-.25.74-.64,1.46-.62,2.24"/>
        <path class="cls-3" d="M17.91,32.2c.06-.42-.15-2.17-.15-2.17,0,0-1.61-.13-1.74-1.72-.14-1.59-.13-5.25-.13-5.25l2.88-1.5,2.91,2.36.07,7.95-3.84.33Z"/>
        <path class="cls-11" d="M18.51,27.49s-.63.39-1.08.4c0,0,.29.39.73.19.46-.21.35-.59.35-.59Z"/>
        <path class="cls-27" d="M17.76,30.03s1.07-.01,2.09-.76c0,0-.45,1.18-2.04,1.15l-.04-.39Z"/>
        <path class="cls-20" d="M15.17,23.54c.5.46,1.28.53,1.92.29.64-.24,1.15-.73,1.57-1.27.55.55,1.39.78,2.14.61.11,1.45.23,2.9.34,4.34.21.03.58-.05.77-.14.19-1,.22-1.95.41-2.95.07-.36.13-.75-.01-1.09-.16-.36-.52-.59-.83-.82-.4-.29-.76-.63-1.16-.91-.4-.28-.86-.51-1.35-.55-.5-.04-.99.13-1.46.29-.54.19-1.09.38-1.53.74-.44.36-.75.94-.63,1.5"/>
        <path class="cls-3" d="M21.68,25.38c.16-.06.33-.13.51-.14.18,0,.37.06.46.21.07.11.08.25.05.38-.05.21-.2.39-.39.48-.19.09-.42.09-.61,0"/>
      </g>
      <g>
        <path class="cls-24" d="M18.9,50.15s-11.34-.71-12.76,1.83c-1.43,2.55-.42,25.04-.42,25.04l4.82.33.48-21.32,8.8.23-.92-6.11Z"/>
        <path class="cls-21" d="M13.19,50.49l.13,5.72h1.79l2.36-5.54s-3.53-.5-4.27-.18Z"/>
      </g>
      <path class="cls-3" d="M27.59,50.19s-11.72-1.43-13.14,1.12c-1.43,2.55,0,25.47,0,25.47h4.33l.58-20.54,2.65-.1c3.19.08,5.78-2.58,5.59-5.77v-.17Z"/>
      <path class="cls-17" d="M27.94,36.76c-1.23.52-2.45.78-3.79.87l3.44,12.57-13.92-.5s.94-2.24,1.52-4.09c.51-1.64-.03-7.35-.03-7.35l-3.18-2.02c2.15-4.25,5.77-4.98,5.77-4.98,0,0,.26-.18,4.53-.18s5.74,5.76,5.74,5.76"/>
      <path class="cls-17" d="M15.8,37.88c.05.4-.24.76-.54,1.03-.3.27-.64.55-.73.94-.07.26,0,.54.1.79.27.65.89,1.13,1.58,1.25"/>
      <path class="cls-3" d="M17.87,31.17s-.35,4.7,1.3,4.66c1.65-.04,2.57-4.75,2.57-4.75-1.28-.19-2.57-.15-3.87.09Z"/>
      <path class="cls-19" d="M21.85,31.06s-.02.15-.09.41c-.04.14-.08.3-.12.48-.05.19-.13.39-.2.62-.04.12-.08.24-.12.36-.05.12-.1.25-.16.38-.11.26-.22.55-.37.84-.14.28-.28.6-.47.9-.19.3-.44.6-.85.73-.1.03-.17.04-.29.04-.1,0-.2-.02-.29-.05-.19-.07-.34-.18-.47-.31-.26-.27-.38-.61-.46-.93-.08-.31-.11-.62-.16-.9-.04-.28-.04-.55-.06-.8,0-.49.01-.89.06-1.15.03-.27.06-.42.07-.42.04,0-.06.6-.01,1.56.03.24.04.5.08.78.05.28.09.58.17.89.08.3.2.61.43.85.23.23.56.39.9.27.31-.1.56-.38.74-.66.19-.28.32-.59.47-.88.15-.28.26-.56.38-.82.06-.13.11-.25.16-.38.05-.12.09-.24.13-.36.08-.23.17-.43.23-.61.06-.17.11-.33.15-.47.08-.26.14-.4.15-.4Z"/>
      <path class="cls-19" d="M23.42,39.84s-.13.21-.45.43c-.16.11-.37.21-.61.29-.24.07-.54.12-.82.11-.61-.03-1.11-.27-1.41-.51-.31-.24-.43-.45-.42-.46.02-.02.18.16.49.36.15.1.35.2.58.29.23.08.49.14.76.15.57.02,1.05-.16,1.38-.34.32-.18.49-.35.51-.32Z"/>
      <path class="cls-16" d="M13.19,68.17l6.27.08.28-11.5s8.28.49,8.07-6.96c0,0-12.4-.8-13.31,0-2.49,2.17-1.31,18.2-1.31,18.2"/>
      <path class="cls-16" d="M4.58,67.94h6.39l.39-11.74,3.96.5,4.22-6.63s-9.55-2.1-13.58,1c-.32.25-.58,1.12-.6,1.52l-.77,15.35Z"/>
      <path class="cls-7" d="M18.24,49.54s-.62,0-1.59.06c-.24,0-.51.07-.8.11-.27.06-.57.14-.87.27-.58.25-1.18.69-1.5,1.36-.16.33-.27.68-.33,1.02-.06.35-.09.68-.09,1.01,0,.65,0,1.23.01,1.74-.02.47-.04.86-.06,1.17-.02.28-.03.43-.04.43-.01,0-.02-.15-.02-.43,0-.31,0-.7,0-1.17-.01-.49-.04-1.08-.05-1.74,0-.33.02-.68.08-1.03.05-.36.17-.72.34-1.07.34-.71.98-1.17,1.59-1.43.31-.13.61-.21.91-.27.29-.03.55-.09.81-.09.25-.01.48-.02.67-.01.2,0,.37,0,.5.02.28.02.43.03.43.04Z"/>
      <path class="cls-7" d="M10.86,54.77s.16.3.25.69c.09.39.13.72.08.73-.05.01-.16-.3-.25-.69-.09-.39-.13-.72-.08-.73Z"/>
      <path class="cls-7" d="M11.31,54.32s.15.45.14,1.03c-.02.59-.14,1.03-.18,1.03-.05,0,0-.47.02-1.03,0-.56-.03-1.02.02-1.03Z"/>
      <path class="cls-7" d="M19.34,55.1s.2.42.34.96c.14.54.22.99.18,1-.04.01-.2-.42-.34-.96-.14-.54-.22-.99-.18-1Z"/>
      <path class="cls-7" d="M19.9,55.09s.12.44.1.99c-.04.56-.17.98-.21.98-.05,0,0-.45.04-.99.02-.54.02-.98.07-.98Z"/>
      <path class="cls-22" d="M24.1,31.44s-1.46,5.8,1.04,9.8l.39,1.44s-3.17-1.93-3.14-6.48c.04-4.55.32-5.1.32-5.1l1.39.34Z"/>
      <path class="cls-3" d="M27.94,36.76s4.88,10.6,3.12,11.55c-1.76.95-11.94-2.86-11.94-2.86l.48-2.87s7.04,2.05,7.59,1.51l-2.81-6.47"/>
      <path class="cls-3" d="M5.93,37.22v-.84s-.09-.51-.05-1.41c.01-.23.07-.46.15-.68.11-.26.27-.61.41-.77.18-.2.02-.51-.22-.46-.24.05-.75.59-1,1.41-.26.83-.76-.44-.96-.89-.19-.46-.86-1.84-1.04-1.89-.27-.08-.41.2-.2.66.21.46.72,1.85.47,1.94-.24.09-1.19-2.25-1.19-2.25,0,0-.12-.53-.41-.44-.52.17.67,2.58.79,2.81.08.16-.18.27-.26.09-.08-.18-.89-2.36-1.43-2.19-.41.13.96,1.99.88,2.54-.08.55-.9-1.52-1.28-1.38-.14.05-.24.11.4,1.23.65,1.15,2.93,3.96,2.93,3.96l2.02-1.48"/>
      <polygon class="cls-20" points="3.86 29.51 0 35.15 2.88 37.33 7.07 31.69 3.86 29.51"/>
      <polygon class="cls-23" points="3.66 30.07 .81 34.29 3.48 36.24 6.46 32.06 3.66 30.07"/>
      <polygon class="cls-11" points=".98 34 5.27 33.73 5.99 32.72 1.52 33.24 .98 34"/>
      <path class="cls-22" d="M2.88,34s.22-1.87,1-2.01c.7-.12,1.45.92-1,2.01Z"/>
      <rect class="cls-23" x="3.59" y="32.38" width=".55" height=".55" rx=".26" ry=".26"/>
      <path class="cls-3" d="M20.85,42.91s-4.96-1.43-5.19-1.13c-.23.3,2.82,1,2.7,1.28-.11.28-1.41,2.1,1.96,2.72l.53-2.87Z"/>
      <polygon class="cls-22" points="5.72 77.03 5.63 74.79 10.59 74.79 10.54 77.36 5.72 77.03"/>
      <polygon class="cls-22" points="14.44 76.8 14.23 74.39 19.04 74.54 18.82 77.1 14.44 76.8"/>
    </g>
    <g>
      <g>
        <g>
          <g>
            <path class="cls-3" d="M56.33,12.66c-.07-.45.16-2.34.16-2.34,0,0,1.73-.14,1.88-1.85.15-1.71.14-5.66.14-5.66l-3.11-1.61-3.52,2.54-.79,1.88,1.1,4.45v2.25s4.15.35,4.15.35Z"/>
            <path class="cls-11" d="M55.72,7.6c-.23-.16.65.41,1.13.42,0,0-.31.42-.79.2-.5-.22-.34-.62-.34-.62Z"/>
            <path class="cls-27" d="M56.49,10.32s-1.15-.01-2.25-.82c0,0,.48,1.27,2.2,1.24l.05-.42Z"/>
          </g>
          <path class="cls-17" d="M55.07,3.28c2.93,1.06,4.21-.31,4.76-2.1.55-1.78-6.52-1.1-7.59-.79-1.07.31-1.2,1.64-1.2,1.64l-.91-.86s-.16.07-.57.45c-.41.38,1.64,1.28,1.64,1.28h0c-.5.15-.88.55-.97,1.06-.21,1.19.62,2.83.98,3.61.47,1.04.77,2.55.77,2.55.26.47.33-1.02.33-1.02,0,0,.21-1.44,0-1.99,0,0-.87.29-1.08-1.27-.1-.77,1.06-1.15,1.39-.22l.73.06s.06-3,1.72-2.4Z"/>
          <path class="cls-27" d="M52.43,6.51s0,.07-.08.11c-.08.04-.19.08-.34.07h-.02s-.02-.02-.02-.02c-.1-.11-.2-.26-.27-.44-.05-.13-.08-.25-.08-.38,0-.13.05-.24.11-.32,0,0,.06-.06.09-.05.03,0,.05,0,.06,0,.02,0,.04.01.07.02,0,.02.01-.04.02-.03,0,0,.01,0,.02.01,0,0,.03.05-.02.08-.04.02-.07.01-.1.01-.02,0-.03,0-.04,0,0,0,0,0,0,0,0,0,0-.02,0-.02h0s0,0,0,0h0s0,0,0,0h0s-.02-.01.02.01h0s0,.02,0,.02c-.08.12-.06.34.03.56.06.16.14.3.22.41-.01,0-.03-.02-.04-.02.11.02.22,0,.29,0,.07-.01.09-.04.11-.04Z"/>
        </g>
        <g>
          <path class="cls-31" d="M46.78,35.14s1.51,8.98,1.19,14.04c-.32,5.06-2.83,7.19-4.55,9.42-1.72,2.23-7.77,7.97-7.77,7.97l3.9,4.2s12.39-10.77,14.48-15.14c2.09-4.37,0-11.47,0-11.47l-7.24-9.01Z"/>
          <path class="cls-32" d="M48.66,28.05c-.12-.03-2.58,3.6-2.02,6.62.06.3.67,2.05.67,2.05,2.43,5.25,5.48,15.94,5.59,17.42.32,4.31,1.95,21.3,1.95,21.3l5.46-.74-.62-21.34-1.36-19.05-9.68-6.25Z"/>
          <path class="cls-31" d="M55.99,75.14c-.12,0-.18-2.29-.23-5.99-.05-1.85-.04-4.05-.17-6.48-.02-.61-.05-1.23-.07-1.87-.01-.32-.02-.64-.04-.96-.03-.33-.05-.65-.08-.99-.11-1.33-.22-2.7-.33-4.11-.3-2.77-.73-5.43-1.22-7.8-.28-1.18-.51-2.32-.82-3.35-.15-.52-.27-1.03-.42-1.51-.15-.48-.3-.94-.44-1.37-.26-.88-.58-1.65-.82-2.34-.13-.34-.24-.66-.35-.96-.12-.29-.23-.56-.33-.79-.4-.96-.59-1.5-.54-1.52.05-.02.35.47.83,1.38.12.23.25.49.4.76.14.28.27.6.42.94.29.68.65,1.45.95,2.33.16.44.33.9.5,1.37.17.48.31.99.47,1.51.34,1.04.61,2.18.9,3.38.54,2.41,1,5.06,1.31,7.91.11,1.41.21,2.78.31,4.11.02.33.05.66.07.99,0,.33.02.65.03.98.02.64.03,1.27.05,1.89.09,2.46.01,4.66,0,6.52-.04,1.85-.12,3.35-.18,4.38-.06,1.03-.13,1.61-.18,1.6Z"/>
          <path class="cls-31" d="M55.89,37.28c.06.04-.25.59-.86,1.06-.61.47-1.22.62-1.25.55-.03-.08.5-.34,1.07-.78.57-.43.97-.88,1.03-.83Z"/>
          <g>
            <path class="cls-31" d="M52.72,47.5s-.12,1.79.09,1.74c.59-.14,4.5-.48,4.5-.48l-.66-1.32-3.93.06Z"/>
            <path class="cls-31" d="M53.4,49.11s-.09,2.91.81,3c.9.09,2.92-.32,2.92-.32l-.33-2.99-3.4.31Z"/>
          </g>
          <path class="cls-25" d="M56.32,12.36s-8.27-2.59-8.66-2.34c-.39.25-2.76,4.14-.56,4.46,2.2.32,6.34-2.23,6.34-2.23l2.88.11Z"/>
          <path class="cls-1" d="M59.12,74.85s3.73.41,2.93.78c-.8.36-6.85.62-6.85.62l-.14-.92,4.06-.47Z"/>
          <path class="cls-1" d="M39.04,70.06s2.13,3.09,1.34,2.72c-.8-.37-4.92-4.83-4.92-4.83l.84-.86,2.75,2.97Z"/>
          <path class="cls-15" d="M52.72,32.84c.11.02.18.28.07.67-.1.39-.42.9-.93,1.26-.52.36-1.1.48-1.51.43-.43-.04-.61-.2-.61-.3,0-.12.27-.18.55-.29.31-.1.7-.27,1.09-.53.38-.27.68-.58.88-.83.21-.25.34-.44.46-.41Z"/>
          <path class="cls-25" d="M50.46,12.76s-2.06-.25-3.36,1.72c-1.3,1.97-1.23,21-1.23,21l12.04-.96s.89-20.54-.46-21.6c-1.35-1.06-4.33-1.07-7-.15Z"/>
          <path class="cls-25" d="M57.47,30.87c.21.26.26.62.34.94.08.33.24.68.56.8.12.04.26.06.32.17.1.18-.11.38-.31.42-.2.04-.44.04-.56.2.45-.02.9.1,1.28.33.12.07.25.19.23.33-.02.15-.18.23-.33.27-.48.14-.98.2-1.48.18"/>
          <polygon class="cls-2" points="53.4 49.11 53.44 49.85 56.87 49.48 56.8 48.8 53.4 49.11"/>
          <path class="cls-10" d="M45.73,33.88l12.44-8.14v1.85s-7.82,8.98-12.29,6.92l-.15-.63Z"/>
          <path class="cls-10" d="M51.06,16.67s-2.82,10.58-1.95,10.85c.87.27,6.95-4.62,6.95-4.62,0,0-4.98,3.14-5.28.3-.33-3.14.44-6.84.44-6.84"/>
        </g>
        <path class="cls-10" d="M51.75,11.61c.04.11-1.24.46-2.63,1.19-1.37.78-2.34,1.67-2.41,1.58-.03-.03.19-.28.57-.64.4-.35.96-.83,1.68-1.23,1.46-.77,2.78-.96,2.79-.89Z"/>
        <path class="cls-10" d="M55.68,19.98s-.21-.37-.41-1.02c-.19-.65-.39-1.58-.48-2.61-.07-1.04-.03-1.98.06-2.66.1-.67.2-1.08.24-1.07.05,0,.03.43,0,1.1-.03.67-.04,1.59.04,2.61.09,1.02.24,1.93.37,2.58.14.65.23,1.06.18,1.08Z"/>
        <path class="cls-10" d="M57.05,19.03c-.07.03-.78-1.27-1.33-3.01-.52-1.76-.66-3.22-.59-3.24.11-.02.4,1.43.91,3.14.54,1.71,1.11,3.06,1.01,3.11Z"/>
        <path class="cls-10" d="M55.44,12.64c0,.09-.15.18-.36.19-.21.01-.38-.05-.38-.14,0-.09.15-.18.36-.19.21-.01.38.05.38.14Z"/>
        <path class="cls-18" d="M57.41,18.73c.03.09-.2.24-.52.35-.31.1-.59.12-.62.03-.03-.09.2-.24.52-.35.31-.1.59-.12.62-.03Z"/>
        <path class="cls-18" d="M57.69,19.19c.04.08-.23.28-.59.44-.37.16-.69.22-.73.13-.04-.08.23-.28.59-.44.37-.16.69-.22.73-.13Z"/>
      </g>
      <path class="cls-20" d="M90.16,16.63s3.91-.27,4.25,2.7c.34,2.97,1.94,19.98-.74,20.26-2.68.28-4.63-.65-4.8-.83-.17-.19,1.28-22.13,1.28-22.13Z"/>
      <polygon class="cls-26" points="76.38 39.88 73.3 39.14 77.4 14.42 78.09 16.32 78.39 34.21 76.38 39.88"/>
      <path class="cls-1" d="M77.54,75.44s-3.65.59-2.85.91c.8.32,6.77.28,6.77.28l.09-.92-4.01-.27Z"/>
      <path class="cls-1" d="M77.42,35.54s-4.66,14.19-4.32,19.91c.34,5.72,4.34,19.91,4.34,19.91l-.02-39.81Z"/>
      <g>
        <path class="cls-22" d="M86.64,28.92c.12-.03,2.72,3.41,2.3,6.41-.04.3-.56,2.05-.56,2.05-2.13,5.28-4.62,15.94-4.65,17.4-.11,4.25-.88,21.03-.88,21.03l-5.41-.46-.43-21.01.41-18.8,9.22-6.62Z"/>
        <path class="cls-20" d="M78.63,75.44s-3.65.59-2.85.91c.8.32,6.77.28,6.77.28l.09-.92-4.01-.27Z"/>
        <path class="cls-1" d="M79.98,38.35c-.06.04.27.57.9,1,.62.43,1.23.55,1.25.48.03-.08-.51-.31-1.09-.72-.58-.4-.99-.81-1.06-.76Z"/>
        <path class="cls-1" d="M81.21,75.54s.04-.12.08-.34c.04-.23.11-.56.16-.99.13-.86.26-2.12.34-3.68.09-1.56.11-3.42.07-5.48-.04-2.06-.14-4.32-.2-6.69-.07-2.37-.08-4.63.03-6.69.1-2.05.3-3.89.57-5.42.27-1.53.57-2.75.81-3.59.11-.42.22-.74.28-.96.06-.22.09-.34.08-.34,0,0-.06.11-.14.32-.08.22-.21.53-.34.95-.28.83-.61,2.05-.91,3.58-.3,1.53-.52,3.38-.63,5.44-.12,2.06-.11,4.33-.05,6.71.07,2.38.17,4.64.23,6.69.05,2.06.06,3.91,0,5.46-.06,1.55-.16,2.81-.25,3.67-.04.43-.09.77-.11,1-.02.23-.03.35-.02.35Z"/>
        <g>
          <path class="cls-1" d="M83.6,48.24s.2,1.75,0,1.72c-.59-.11-4.45-.25-4.45-.25l.59-1.33,3.87-.13Z"/>
          <path class="cls-1" d="M83,49.85s.23,2.86-.65,2.99c-.88.13-2.89-.17-2.89-.17l.18-2.96,3.36.14Z"/>
          <polygon class="cls-6" points="83 49.85 79.65 49.72 79.62 50.19 83.02 50.3 83 49.85"/>
        </g>
      </g>
      <path class="cls-3" d="M79.92,12.95c.07-.42-.1-2.19-.1-2.19,0,0-1.61-.17-1.71-1.77-.1-1.6,0-5.29,0-5.29l2.94-1.44,3.23,2.45-.49,8-3.87.24Z"/>
      <path class="cls-20" d="M84.03,5.95s-2.64-.25-3.11-2.64l-2.86,2.64s-.87-1.77.72-3.42c1.59-1.65,2.68-1.31,3.3-1.31.58,0,3.51.62,4.39,3.96.06.24.1.45.09,1.21l-2.53-.44Z"/>
      <path class="cls-11" d="M80.61,8.24c.22-.15-.62.37-1.07.37,0,0,.28.4.73.21.47-.2.34-.57.34-.57Z"/>
      <path class="cls-27" d="M79.82,10.76s1.08.01,2.12-.72c0,0-.48,1.17-2.08,1.11l-.04-.39Z"/>
      <path class="cls-20" d="M81.01,3.11s-.59,1.13-.34,1.99l-2.56.66s-.58-3.25,2.9-2.65Z"/>
      <path class="cls-5" d="M83.75,12.46s4.19-2.16,4.57-1.91c.38.25,2.72,4.08.55,4.39-2.17.32-5.08-2.23-5.08-2.23l-.04-.26Z"/>
      <path class="cls-15" d="M83.34,33.02c.12-.02.25.16.46.41.2.25.49.55.87.82.38.26.76.42,1.07.53.28.11.54.17.54.29,0,.11-.17.26-.6.3-.4.04-.98-.07-1.49-.43-.51-.35-.82-.85-.92-1.24-.1-.39-.03-.65.07-.67Z"/>
      <path class="cls-9" d="M85.56,13.25s2.03-.25,3.31,1.69c1.28,1.94,1.21,20.67,1.21,20.67l-11.85-.94s-.88-20.22.45-21.27c1.33-1.05,4.26-1.05,6.89-.15Z"/>
      <path class="cls-5" d="M91.06,19.24c.06.58.48,21.94.48,21.94h-9.95l2.16-28.72s6.46-.84,7.31,6.78Z"/>
      <path class="cls-28" d="M91.41,35.04l-.06-3.05-8.91-2.09-.2,2.7s7.28,6.76,9.18,2.44Z"/>
      <path class="cls-28" d="M83.75,25.63s1.87,1.97,2.81,1.58c.94-.39-1.75-10.58-1.75-10.58,0,0,1.75,7.81-1.06,9Z"/>
      <polygon class="cls-26" points="88.32 36.48 84.55 35.07 84.55 36.48 88.32 37.68 88.32 36.48"/>
      <path class="cls-26" d="M83.02,41.18s.02-.1.03-.29c.01-.19.04-.47.06-.82.05-.72.11-1.76.19-3.03.16-2.56.36-6.1.57-10,.21-3.91.39-7.45.52-10.01.06-1.28.1-2.31.13-3.03.01-.35.02-.63.03-.82,0-.19,0-.29,0-.29,0,0-.02.1-.04.29-.02.19-.04.47-.06.82-.05.72-.11,1.76-.19,3.03-.16,2.56-.36,6.1-.57,10.01-.21,3.91-.39,7.45-.52,10.01-.06,1.28-.1,2.31-.13,3.03-.01.35-.02.63-.03.83,0,.19,0,.29,0,.29Z"/>
      <path class="cls-26" d="M82.33,36.83c0,.13.11.24.24.24s.24-.11.24-.24-.11-.24-.24-.24-.24.11-.24.24Z"/>
      <path class="cls-26" d="M82.57,32.12c0,.13.11.24.24.24s.24-.11.24-.24-.11-.24-.24-.24-.24.11-.24.24Z"/>
      <path class="cls-26" d="M83.1,23.67c0,.13.11.24.24.24s.24-.11.24-.24-.11-.24-.24-.24-.24.11-.24.24Z"/>
      <path class="cls-26" d="M83.34,19.1c0,.13.11.24.24.24s.24-.11.24-.24-.11-.24-.24-.24-.24.11-.24.24Z"/>
      <path class="cls-9" d="M78.66,31.08c-.21.26-.26.61-.34.93-.08.32-.24.67-.55.79-.11.04-.25.06-.32.17-.1.17.11.37.31.41.2.04.43.04.55.2-.44-.02-.89.1-1.26.33-.12.07-.25.19-.23.33.02.15.18.22.32.26.47.14.96.2,1.46.17"/>
      <polygon class="cls-29" points="82.01 35.61 77.94 35.29 78.22 34.67 82.06 34.97 82.01 35.61"/>
      <path class="cls-26" d="M84.06,12.21c-.01.14,1.35.28,2.82,1.02,1.48.72,2.41,1.73,2.52,1.63.05-.04-.13-.35-.52-.76-.19-.21-.45-.43-.75-.66-.3-.22-.65-.44-1.04-.64-.39-.19-.78-.34-1.14-.44-.36-.1-.69-.17-.98-.2-.56-.06-.91-.02-.92.04Z"/>
      <path class="cls-20" d="M86.56,6.05c.02,2.7-1.24,5.18-3.4,6.8-.07-2.44-.01-4.87.17-7.3,0-.13.02-.26.08-.37.18-.34.69-.32,1.06-.19.8.27,1.57.41,2.09,1.07"/>
      <path class="cls-20" d="M83.52,10.38c-.68.28-1.26,1.14-1.55,1.81-.15.34-.23.71-.42,1.02-.18.29-.44.52-.64.8-.24.36-.36.8-.33,1.23.02.24.08.48.03.71-.05.26-.23.46-.36.69-.33.56-.43,1.23-.39,1.88.04.65.17,1.03.34,1.65.5-.57.99-.93,1.37-1.58.4-.68.73-1.54.35-2.23.74-.75,1.09-1.86.91-2.89.66-.31.89-1.12,1.06-1.83.05-.24.11-.48.07-.72-.04-.24-.2-.48-.44-.53"/>
      <path class="cls-20" d="M80.39,20.09c-.03.27-.05.54-.08.81-.02.16-.03.33.06.46.04.06.11.13.1.21-.01.06-.08.1-.14.12-.26.07-.56-.06-.68-.3,0,.15,0,.32-.12.4-.06.04-.15.05-.22.04-.28-.03-.52-.26-.58-.53-.04-.22.03-.45.13-.65.15-.27.37-.51.66-.62.29-.11.64-.08.87.12"/>
      <polygon class="cls-22" points="80.8 19.66 79.92 19.39 79.79 20.11 80.3 20.3 80.8 19.66"/>
      <path class="cls-20" d="M88.88,14.11s-4.37-1.37-4.03,1.76c.34,3.13,1.66,11.07,1.66,11.07l-1.26-.43s-3.96-15.49.47-13.76l3.16,1.36Z"/>
      <path class="cls-10" d="M58.59,19.71c.06.06-1,1.26-2.5,2.53-1.52,1.27-2.87,2.1-2.92,2.03-.06-.08,1.21-1.04,2.7-2.29,1.48-1.27,2.64-2.35,2.71-2.28Z"/>
      <g>
        <polygon class="cls-9" points="59.86 30.67 59.85 30.42 59.4 11.13 63.87 14.23 67.48 11.13 70.97 14.41 75.58 10.6 75.26 31.25 71.59 28.74 68.1 31.66 65.12 27.93 59.86 30.67"/>
        <polygon class="cls-13" points="63.87 14.23 65.12 27.93 68.1 31.66 67.48 11.13 63.87 14.23"/>
        <polygon class="cls-13" points="70.97 14.41 71.59 28.74 75.26 31.25 75.58 10.6 70.97 14.41"/>
      </g>
      <path class="cls-3" d="M57.46,22.07l.38-.79s.31-.44.67-1.32c.09-.23.14-.47.16-.71.01-.3.02-.69-.05-.91-.08-.27.21-.5.41-.34.2.15.45.89.32,1.78-.12.9.92-.07,1.3-.42.39-.35,1.63-1.36,1.83-1.33.29.05.29.37-.1.71-.4.34-1.5,1.43-1.31,1.63.19.19,2.13-1.6,2.13-1.6,0,0,.35-.45.58-.23.42.39-1.78,2.14-2,2.31-.15.11.05.33.21.2.16-.13,1.89-1.83,2.32-1.44.33.3-1.8,1.46-1.96,2.01-.16.55,1.52-1.04,1.82-.74.11.11.18.21-.92.99-1.13.79-4.53,2.45-4.53,2.45l-1.25-2.29"/>
      <path class="cls-25" d="M48.26,13.33c-.3.03-3.07,1.52-3.38,5.52-.36,4.54-1.72,10.75-.47,13.64.29.66.71,1.15,1.32,1.4,3.25,1.35,14.99-10.28,14.99-10.28l-2.2-3.88s-8.5,7.92-9.01,6.94c-.3-.57.88-5.18,1.01-8.83.09-2.59-.36-4.69-2.25-4.51Z"/>
      <path class="cls-4" d="M78.67,22.41l-.37-.78s-.3-.43-.66-1.3c-.09-.22-.14-.46-.15-.7-.01-.29-.02-.68.05-.9.08-.26-.2-.49-.4-.34-.2.15-.44.87-.32,1.76.12.88-.9-.07-1.28-.41-.38-.34-1.6-1.34-1.8-1.31-.29.05-.29.37.1.7.39.34,1.48,1.41,1.29,1.6-.19.19-2.09-1.57-2.09-1.57,0,0-.35-.44-.57-.23-.41.39,1.76,2.11,1.97,2.27.15.11-.05.33-.2.2-.16-.13-1.86-1.8-2.28-1.41-.32.3,1.77,1.44,1.93,1.98.16.54-1.5-1.02-1.79-.73-.11.11-.18.21.91.97,1.11.78,4.46,2.41,4.46,2.41l1.23-2.26"/>
      <g>
        <path class="cls-5" d="M87.73,13.81c.3.03,3.02,1.49,3.33,5.43.35,4.47,1.7,10.59.46,13.43-.28.65-.7,1.13-1.3,1.38-3.2,1.33-14.76-10.12-14.76-10.12l2.17-3.82s8.37,7.79,8.87,6.83c.3-.56-.87-5.1-.99-8.69-.09-2.55.35-4.62,2.21-4.44Z"/>
        <polygon class="cls-26" points="77.63 20.11 78.67 21.06 76.5 24.92 75.47 23.92 77.63 20.11"/>
        <path class="cls-5" d="M77.59,21.25c0,.13.11.24.24.24s.24-.11.24-.24-.11-.24-.24-.24-.24.11-.24.24Z"/>
      </g>
    </g>
  </g>
</svg>