<?xml version="1.0" encoding="UTF-8"?>
<svg id="_圖層_2" data-name="圖層_2" xmlns="http://www.w3.org/2000/svg" viewBox="0 0 272.13 153.07">
  <defs>
    <style>
      .cls-1 {
        fill: #788d8f;
      }

      .cls-2 {
        fill: #a29485;
      }

      .cls-3 {
        fill: #69615b;
      }

      .cls-4 {
        fill: #3e6468;
      }

      .cls-5 {
        fill: #dc5154;
      }

      .cls-6 {
        fill: #df5b44;
      }

      .cls-7 {
        fill: #d3cc4c;
      }

      .cls-8 {
        fill: #685750;
      }

      .cls-9 {
        fill: #ecc3b2;
      }

      .cls-10 {
        fill: #595a5b;
      }

      .cls-11 {
        fill: #964134;
      }

      .cls-12 {
        fill: #d5dd5e;
      }

      .cls-13 {
        fill: #a29b96;
      }

      .cls-14 {
        fill: #4085a0;
      }

      .cls-15 {
        fill: #b52a22;
      }

      .cls-16 {
        fill: #c8914c;
      }

      .cls-17 {
        fill: #912323;
      }

      .cls-18 {
        fill: #736656;
      }

      .cls-19 {
        fill: #932e25;
      }

      .cls-20 {
        fill: #2b645f;
      }

      .cls-21 {
        fill: #c5a4ca;
      }

      .cls-22 {
        fill: #4589ae;
      }

      .cls-23 {
        fill: #f7c256;
      }

      .cls-24 {
        fill: #f3e27b;
      }

      .cls-25 {
        fill: #9f423a;
      }

      .cls-26 {
        fill: #adbc46;
      }

      .cls-27 {
        fill: #2a5f79;
      }

      .cls-28 {
        fill: #9b9189;
      }

      .cls-29 {
        fill: #030000;
      }

      .cls-30 {
        fill: #be3f30;
      }

      .cls-31 {
        fill: #673021;
      }

      .cls-32 {
        fill: #bbe2ef;
      }

      .cls-33 {
        fill: #e5e0db;
      }

      .cls-34 {
        fill: #7bcada;
      }

      .cls-35 {
        fill: #55453f;
      }

      .cls-36 {
        fill: #0a0708;
      }

      .cls-37 {
        fill: #a1793d;
      }

      .cls-38 {
        fill: #3d9391;
      }

      .cls-39 {
        fill: #beb6ae;
      }

      .cls-40 {
        fill: #d1d1d0;
      }

      .cls-41 {
        fill: #83677c;
      }

      .cls-42 {
        fill: #e78d32;
      }

      .cls-43 {
        fill: #9b8b4f;
      }

      .cls-44 {
        fill: #fff;
      }

      .cls-45 {
        fill: #904d38;
      }

      .cls-46 {
        fill: #80675d;
      }

      .cls-47 {
        fill: #f7e67c;
      }

      .cls-48 {
        fill: #ddb95e;
      }

      .cls-49 {
        fill: #909d46;
      }

      .cls-50 {
        fill: #424043;
      }

      .cls-51 {
        fill: #3f3531;
      }

      .cls-52 {
        fill: #315b67;
      }

      .cls-53 {
        fill: #5c99a6;
      }

      .cls-54 {
        fill: #221a1a;
      }

      .cls-55 {
        fill: #86817c;
      }

      .cls-56 {
        fill: #775b55;
      }

      .cls-57 {
        fill: #5f4539;
      }

      .cls-58 {
        fill: #774921;
      }

      .cls-59 {
        fill: #b07054;
      }

      .cls-60 {
        fill: #cd6a28;
      }

      .cls-61 {
        fill: #6d6f72;
      }

      .cls-62 {
        fill: #87a3d4;
      }

      .cls-63 {
        fill: #963b3e;
      }

      .cls-64 {
        fill: #f3ab54;
      }

      .cls-65 {
        fill: #82342a;
      }

      .cls-66 {
        fill: #f5ba70;
      }

      .cls-67 {
        fill: #d9993b;
      }

      .cls-68 {
        fill: #d8d0c6;
      }

      .cls-69 {
        fill: #ea5504;
      }

      .cls-70 {
        fill: #f5efe8;
      }

      .cls-71 {
        fill: #ea5c51;
      }

      .cls-72 {
        fill: #574943;
      }

      .cls-73 {
        fill: #8ac6c5;
      }

      .cls-74 {
        fill: #a06c3c;
      }

      .cls-75 {
        fill: #b5aea6;
      }

      .cls-76 {
        fill: #553618;
      }

      .cls-77 {
        fill: #362c29;
      }

      .cls-78 {
        fill: #a39b95;
      }

      .cls-79 {
        fill: #846e68;
      }

      .cls-80 {
        fill: #c4a394;
      }
    </style>
  </defs>
  <g id="_圖層_1-2" data-name="圖層_1">
    <g>
      <rect class="cls-44" width="272.13" height="153.07"/>
      <g>
        <g>
          <path class="cls-69" d="M206.61,30.87h1.72v1.47h-1.72v2.93h-1.79v-2.93h-6.38v-1.21l6.38-9.06h1.79v8.8ZM200.68,30.36c-.17.3-.28.47-.32.51h4.47v-5.81c.04-.47.06-.74.06-.83v.06s-.04.11-.13.19c-.04.13-.09.21-.13.26,0,.04-.04.11-.13.19-.13.21-.21.36-.26.45-.04.09-.15.23-.32.45-.51.72-.94,1.32-1.28,1.79-.04.09-.13.19-.26.32-.09.17-.17.3-.26.38-.38.51-.87,1.19-1.47,2.04h0ZM214.98,35.47c-2.59,0-4.19-1.15-4.78-3.44l1.91-.45c.3,1.66,1.23,2.49,2.81,2.49,1.7-.13,2.59-1.11,2.68-2.93-.04-1.91-.96-2.89-2.74-2.93-1.15.04-2,.47-2.55,1.28l-1.53-.06.57-7.14h7.53v1.66h-5.87l-.38,3.89c.72-.68,1.64-1.02,2.74-1.02,2.68.09,4.08,1.49,4.21,4.21-.09,2.89-1.62,4.38-4.59,4.47h0ZM221.36,25.39c.08-2.21,1.08-3.36,3-3.44,1.91.09,2.91,1.23,3,3.44-.04,2.25-1.06,3.4-3.06,3.44-1.87-.08-2.85-1.23-2.93-3.44h0ZM224.36,23.15c-1.11-.04-1.66.7-1.66,2.23.04,1.45.6,2.19,1.66,2.23,1.06-.04,1.59-.79,1.59-2.23s-.53-2.23-1.59-2.23h0ZM231.51,21.94h1.59l-7.21,13.91h-1.59l7.21-13.91ZM230.04,32.47c.04-2.25,1.04-3.42,3-3.51,1.91.09,2.91,1.25,3,3.51-.09,2.08-1.11,3.17-3.06,3.25-1.87-.09-2.85-1.17-2.93-3.25h0ZM233.04,30.17c-1.11-.04-1.66.7-1.66,2.23.04,1.4.6,2.13,1.66,2.17,1.06,0,1.59-.72,1.59-2.17s-.53-2.23-1.59-2.23h0Z"/>
          <path class="cls-69" d="M198.87,46.9c-.81.55-1.41,1.15-1.82,1.79h3.38v.73h-4.56v-.54c.45-.83,1.13-1.59,2.04-2.3,1.08-.77,1.58-1.38,1.5-1.85-.02-.72-.43-1.09-1.21-1.12-.7,0-1.15.41-1.34,1.24l-.89-.29c.32-1.17,1.12-1.75,2.39-1.75,1.3.04,1.99.65,2.07,1.82.11.77-.41,1.52-1.56,2.26h0ZM201.45,46.2c.04-2.19.83-3.32,2.36-3.38,1.53.02,2.31,1.15,2.33,3.38,0,2.25-.78,3.37-2.33,3.35-1.55-.02-2.34-1.14-2.36-3.35h0ZM202.51,46.23c0,1.77.44,2.64,1.31,2.62.87.02,1.31-.85,1.31-2.62.02-1.81-.41-2.69-1.31-2.65-.87-.02-1.31.86-1.31,2.65h0ZM210.01,46.9c-.81.55-1.41,1.15-1.82,1.79h3.38v.73h-4.56v-.54c.45-.83,1.13-1.59,2.04-2.3,1.08-.77,1.58-1.38,1.5-1.85-.02-.72-.43-1.09-1.21-1.12-.7,0-1.15.41-1.34,1.24l-.89-.29c.32-1.17,1.12-1.75,2.39-1.75,1.3.04,1.99.65,2.07,1.82.11.77-.41,1.52-1.56,2.26h0ZM214.89,49.54c-1.3.02-2.08-.54-2.36-1.69l.99-.22c.15.81.61,1.21,1.37,1.21.85-.02,1.29-.44,1.31-1.24,0-.74-.52-1.12-1.56-1.12h-.61v-.77h.48c.98,0,1.48-.37,1.5-1.12-.02-.68-.39-1.03-1.12-1.05-.72,0-1.15.39-1.28,1.18l-.96-.22c.28-1.13,1.04-1.69,2.3-1.69,1.3.04,1.99.61,2.07,1.69-.02.79-.46,1.3-1.31,1.53.94.19,1.44.73,1.5,1.63-.06,1.21-.84,1.84-2.33,1.88h0ZM221.57,43.96c-.36.57-.84,1.16-1.44,1.75-.04-.06-.11-.16-.19-.29-.06-.11-.17-.27-.32-.48.77-.68,1.37-1.55,1.82-2.62l.96.1c-.13.28-.26.53-.38.77h4.94v.77h-2.58v1.24h2.39v.77h-2.39v1.47h2.9v.8h-2.9v1.75h-.86v-1.75h-3.92v-.8h1.18v-2.23h2.74v-1.24h-1.95ZM221.63,45.97v1.47h1.88v-1.47h-1.88Z"/>
          <path class="cls-69" d="M187.72,56.46c-1.07-.15-2.05-.24-3.02-.42-3.44-.66-6.11-2.35-7.3-5.85-.28-.83-.39-1.77-.4-2.65-.03-8.42.07-16.84-.05-25.26-.06-4.34,2.92-7.68,6.03-8.67,1.73-.55,3.59-.71,5.39-1.02.66-.12,1.33-.19,1.99-.28.75-.1,1.28.21,1.38.81.1.6-.3,1.03-1.08,1.14-1.82.25-3.64.48-5.46.74-3.02.44-5.67,2.93-6.2,5.81-.07.39-.07.8-.07,1.2,0,8.32.08,16.64-.04,24.96-.06,4.43,2.99,6.61,6.08,7.11.98.16,1.96.27,2.94.43,1.48.24,2.06,1.17,1.69,2.63-.66,2.59-1.32,5.19-1.98,7.78-.04.17-.08.34-.1.52-.09.87.42,1.34,1.27,1.12.28-.07.55-.24.79-.4,4.25-2.91,8.51-5.81,12.74-8.75.89-.62,1.77-.83,2.86-.68,6.7.96,13.41,1.89,20.13,2.77,3.25.43,6.51.74,9.76,1.07,3.23.33,5.99-1.83,6.55-5.1.09-.54.14-1.09.14-1.64.01-3.43,0-6.87,0-10.3,0-.87.34-1.33.97-1.32.62,0,.97.48.97,1.33,0,3.61.03,7.22,0,10.83-.04,4.2-3.15,8-7.34,8.22-1.43.08-2.88-.08-4.3-.26-6.74-.85-13.48-1.74-20.22-2.64-2.41-.32-4.81-.71-7.22-1.03-.32-.04-.73.11-1.02.3-4.41,2.99-8.79,6.01-13.2,9.01-1.4.96-3.02.85-4.09-.24-.89-.9-.92-2.01-.64-3.15.63-2.52,1.27-5.04,1.9-7.57.04-.14.06-.29.12-.55"/>
          <path class="cls-69" d="M243.73,26.59v11.88c0,.2.02.41-.01.6-.1.56-.42.92-1.01.89-.55-.02-.84-.37-.91-.91-.03-.22,0-.45,0-.68,0-7.72,0-15.43,0-23.15,0-1.63-.41-3.12-1.4-4.42-1.25-1.65-2.9-2.5-4.98-2.29-3.53.36-7.06.71-10.58,1.15-6.3.79-12.59,1.64-18.88,2.49-3.61.49-7.22,1.03-10.82,1.55-.07.01-.15.03-.22.04-.66.07-1.14-.23-1.24-.78-.11-.61.23-1.08.94-1.18,2.65-.39,5.3-.78,7.95-1.14,5.01-.69,10.02-1.41,15.04-2.04,5.83-.73,11.67-1.37,17.51-2.07,4.2-.5,7.8,2.79,8.47,6.77.1.61.15,1.24.15,1.87.01,3.81,0,7.62,0,11.42"/>
          <path class="cls-69" d="M190.9,25.08c.31.02.55.15.71.42.49.86.98,1.71,1.47,2.57.73,1.28,1.46,2.56,2.19,3.83.07.13.15.25.21.38.16.31.12.64-.1.9-.23.26-.55.36-.88.24-.64-.22-1.27-.46-1.91-.69-.55-.2-1.09-.4-1.64-.59-.03-.01-.08-.01-.11,0-1.1.39-2.19.79-3.29,1.18-.1.04-.19.07-.29.1-.34.1-.63.01-.86-.26-.22-.27-.27-.57-.1-.88.17-.32.36-.63.54-.95.53-.93,1.06-1.85,1.59-2.78.59-1.03,1.18-2.05,1.76-3.08.16-.27.4-.39.71-.41"/>
        </g>
        <path class="cls-13" d="M28.97,116.17l52.56,30.34,15-8.66.59.34-15.59,9-53.14-30.68.59-.34ZM110.16,129.97l.59.34-3.18,1.84-.59-.34,3.18-1.84Z"/>
        <polygon class="cls-44" points="81.53 146.5 122.28 122.97 69.14 92.29 28.39 115.83 81.53 146.5"/>
        <polygon class="cls-64" points="79.89 143.19 116.36 122.14 116.13 122 79.67 143.06 79.89 143.19"/>
        <polygon class="cls-47" points="103.61 123.97 109.96 120.31 114.52 122.94 108.16 126.6 103.61 123.97"/>
        <polygon class="cls-23" points="90.44 126.32 96.79 122.65 105.9 127.91 99.55 131.58 90.44 126.32"/>
        <polygon class="cls-5" points="77.27 128.66 83.63 125 97.29 132.88 90.93 136.55 77.27 128.66"/>
        <polygon class="cls-23" points="75.49 137.58 81.85 133.91 88.67 137.86 82.32 141.53 75.49 137.58"/>
        <polygon class="cls-24" points="50.36 115.5 50.36 115.5 59.55 115.5 59.55 113.32 54.18 110.21 50.36 115.5"/>
        <polygon class="cls-6" points="54.18 110.21 46.56 110.21 41.18 113.32 41.18 117.72 50.36 115.5 54.18 110.21"/>
        <polygon class="cls-23" points="50.36 115.5 50.36 115.5 41.18 117.72 46.56 120.83 54.17 120.83 59.55 117.72 59.55 115.5 50.36 115.5"/>
        <polygon class="cls-70" points="61.2 129.33 93.4 110.75 91.97 109.92 59.77 128.51 61.2 129.33"/>
        <polygon class="cls-70" points="77.96 123.34 96.58 112.59 95.15 111.76 76.53 122.51 77.96 123.34"/>
        <polygon class="cls-32" points="72.31 117.68 88.86 108.12 69.52 96.96 52.97 106.52 72.31 117.68"/>
        <polygon class="cls-24" points="70.04 99.25 71.04 98.67 71.54 98.86 72.12 99.19 72.43 99.48 71.44 100.06 70.93 99.88 70.36 99.54 70.04 99.25"/>
        <polygon class="cls-64" points="72.41 100.62 73.4 100.04 73.91 100.23 74.49 100.56 74.81 100.85 73.81 101.43 73.3 101.25 72.72 100.91 72.41 100.62"/>
        <polygon class="cls-6" points="74.78 101.99 75.77 101.41 76.28 101.6 76.86 101.93 77.18 102.22 76.18 102.79 75.68 102.62 75.1 102.28 74.78 101.99"/>
        <polygon class="cls-6" points="88.86 108.12 71.37 104.67 69.83 106.17 62.14 105.03 61.91 107.85 52.97 106.52 56.27 108.42 71 115.85 88.86 108.12"/>
        <polygon class="cls-64" points="88.86 108.12 76.35 104.18 73.62 108.1 64.45 108.67 63.27 110.42 56.27 108.42 60.57 110.91 72.59 116.45 88.86 108.12"/>
        <polygon class="cls-24" points="88.86 108.12 77.15 106.98 78.38 110.22 71.23 110.39 69.99 112.62 60.57 110.91 72.31 117.68 88.86 108.12"/>
        <polygon class="cls-70" points="53.27 124.75 66.35 117.2 69.75 119.16 56.67 126.71 53.27 124.75"/>
        <polygon class="cls-13" points="138.87 145.87 111.34 129.98 110.75 130.31 138.61 146.4 139.13 146.4 179.63 123.03 179.04 122.68 138.87 145.87"/>
        <polygon class="cls-3" points="110.16 129.97 110.75 130.32 111.34 129.98 110.75 129.63 110.16 129.97"/>
        <path class="cls-13" d="M86.32,115.53l1.15.66-.59.34-1.15-.66.59-.34ZM88.9,117.02l17.93,10.35-.59.34-17.93-10.35.59-.34ZM107.06,127.5l3.69,2.13-.59.34-3.69-2.13.59-.34Z"/>
        <polygon class="cls-74" points="106.24 127.71 106.47 127.84 107.06 127.5 106.83 127.37 106.24 127.71"/>
        <polygon class="cls-28" points="87.47 116.19 88.9 117.02 88.31 117.36 86.88 116.53 87.47 116.19"/>
        <polygon class="cls-44" points="138.87 145.87 179.63 122.34 126.49 91.66 85.73 115.19 138.87 145.87"/>
        <polygon class="cls-70" points="110.49 125.17 143.86 105.91 142.42 105.08 109.05 124.35 110.49 125.17"/>
        <polygon class="cls-70" points="127.74 118.89 147.04 107.75 145.61 106.92 126.31 118.07 127.74 118.89"/>
        <polygon class="cls-6" points="131.37 100.82 133.47 102.04 133.47 103.76 132.48 104.33 134.33 105.39 136.07 104.38 136.08 101.42 132.45 99.33 131.37 100.82"/>
        <polygon class="cls-38" points="132.45 99.33 127.32 99.33 123.7 101.42 126.3 102.04 128.4 100.83 131.37 100.83 132.45 99.33"/>
        <polygon class="cls-23" points="132.48 104.33 131.37 104.97 128.4 104.97 126.3 103.75 126.3 102.04 123.7 101.42 123.7 104.38 127.32 106.47 132.45 106.47 134.33 105.39 132.48 104.33"/>
        <polygon class="cls-23" points="127.75 102.39 129 101.67 130.77 101.67 132.01 102.39 132.01 103.41 130.77 104.13 129 104.13 127.75 103.41 127.75 102.39"/>
        <polygon class="cls-21" points="113.95 110.89 113.95 109.17 116.05 107.95 117.45 107.95 117.45 106.45 114.98 106.45 111.35 108.55 111.35 111.51 113.95 110.89"/>
        <polygon class="cls-12" points="111.35 111.51 114.98 113.6 120.1 113.6 119.02 112.1 116.05 112.1 113.95 110.89 111.35 111.51"/>
        <polygon class="cls-38" points="117.45 107.95 119.02 107.95 121.13 109.17 121.13 110.89 119.02 112.1 120.1 113.6 123.73 111.51 123.73 108.55 120.1 106.46 117.45 106.46 117.45 107.95"/>
        <polygon class="cls-38" points="118.42 111.25 116.66 111.25 115.41 110.54 115.41 109.52 116.66 108.8 118.42 108.8 119.67 109.52 119.67 110.53 118.42 111.25"/>
        <polygon class="cls-23" points="103.71 115.08 106.68 115.08 108.78 116.3 108.78 117.1 111.38 117.1 111.38 115.67 107.76 113.58 102.63 113.58 103.71 115.08"/>
        <polygon class="cls-6" points="102.63 113.58 99 115.68 99 118.63 101.61 118.01 101.61 116.3 103.71 115.08 102.63 113.58"/>
        <polygon class="cls-23" points="108.78 117.1 108.78 118.02 106.68 119.23 103.71 119.23 101.61 118.01 99 118.63 102.63 120.73 107.76 120.73 111.38 118.63 111.38 117.1 110.02 116.32 108.78 117.1"/>
        <polygon class="cls-6" points="103.06 117.66 103.06 116.64 104.31 115.93 106.08 115.93 107.33 116.64 107.33 117.66 106.08 118.38 104.31 118.38 103.06 117.66"/>
        <polygon class="cls-71" points="155.48 122.25 155.48 121.64 156.23 121.2 157.29 121.2 158.04 121.64 158.04 122.25 157.29 122.68 156.23 122.68 155.48 122.25"/>
        <polygon class="cls-71" points="148.79 125.42 148.79 124.81 149.54 124.38 150.6 124.38 151.35 124.81 151.35 125.42 150.6 125.86 149.54 125.86 148.79 125.42"/>
        <polygon class="cls-71" points="137.62 128.06 137.62 127.44 138.37 127.01 139.43 127.01 140.19 127.44 140.19 128.06 139.43 128.49 138.37 128.49 137.62 128.06"/>
        <polygon class="cls-71" points="132.25 127.86 132.25 127.25 133 126.81 134.06 126.81 134.81 127.25 134.81 127.86 134.06 128.3 133 128.3 132.25 127.86"/>
        <polygon class="cls-71" points="122.25 129.49 122.25 128.73 123.19 128.19 124.5 128.19 125.44 128.73 125.44 129.49 124.5 130.03 123.18 130.03 122.25 129.49"/>
        <polygon class="cls-71" points="171 122.07 171 121.72 156.65 121.78 149.98 124.95 138.84 127.58 133.47 127.44 123.77 128.94 123.92 129.28 133.58 127.78 139 127.91 150.32 125.23 156.86 122.12 171 122.07"/>
        <polygon class="cls-14" points="170.7 121.87 150.05 109.95 150.46 109.72 171.5 121.87 138.14 141.13 137.74 140.9 170.7 121.87"/>
        <polygon class="cls-14" points="137.71 139.68 147.84 133.83 147.72 133.77 137.59 139.61 137.71 139.68"/>
        <polygon class="cls-47" points="143.11 133.66 144.88 132.65 147.27 134.03 145.51 135.04 143.11 133.66"/>
        <polygon class="cls-23" points="138.33 133.66 140.09 132.65 144.88 135.41 143.11 136.42 138.33 133.66"/>
        <polygon class="cls-64" points="133.55 133.66 135.31 132.65 142.49 136.79 140.72 137.81 133.55 133.66"/>
        <polygon class="cls-5" points="126.78 132.51 128.54 131.5 140.09 138.17 138.33 139.19 126.78 132.51"/>
        <path class="cls-13" d="M134.02,76.07v9.76l-8.45-4.88,8.45-4.88ZM125.56,77.38v3.57l-3.09-1.78,3.09-1.78ZM149.91,80.23l34.65,20-12.8,7.39-34.64-20,12.8-7.39"/>
        <polygon class="cls-60" points="122.47 79.17 125.56 80.95 128.24 47.87 125.56 44.04 122.47 42.26 122.47 79.17"/>
        <polygon class="cls-66" points="125.56 44.04 131.96 45.34 138.37 36.65 135.27 34.86 122.47 42.26 125.56 44.04"/>
        <polygon class="cls-42" points="125.56 80.95 138.37 73.56 138.37 36.65 125.56 44.04 125.56 80.95"/>
        <polygon class="cls-17" points="134.02 85.83 137.11 87.62 139.79 34.37 137.11 30.54 134.02 28.76 134.02 85.83"/>
        <polygon class="cls-71" points="137.11 30.54 143.52 31.84 149.91 23.15 146.82 21.37 134.02 28.76 137.11 30.54"/>
        <polygon class="cls-30" points="137.11 87.62 149.91 80.23 149.91 23.15 137.11 30.54 137.11 87.62"/>
        <polygon class="cls-67" points="145.56 92.5 148.66 94.28 151.34 69.27 148.66 65.44 145.56 63.66 145.56 92.5"/>
        <polygon class="cls-47" points="148.66 65.44 155.06 66.74 161.46 58.05 158.37 56.26 145.56 63.66 148.66 65.44"/>
        <polygon class="cls-23" points="148.66 94.28 161.46 86.9 161.46 58.05 148.66 65.44 148.66 94.28"/>
        <polygon class="cls-49" points="157.11 99.17 160.21 100.96 162.89 86.69 160.21 82.86 157.11 81.08 157.11 99.17"/>
        <polygon class="cls-12" points="160.21 82.86 166.61 84.16 173.01 75.47 169.92 73.68 157.11 81.08 160.21 82.86"/>
        <polygon class="cls-26" points="160.21 100.96 173.01 93.56 173.01 75.47 160.21 82.86 160.21 100.96"/>
        <polygon class="cls-16" points="168.66 105.83 171.76 107.62 174.43 86.64 171.76 82.81 168.66 81.02 168.66 105.83"/>
        <polygon class="cls-24" points="171.76 82.81 178.16 84.11 184.56 75.42 181.46 73.63 168.66 81.02 171.76 82.81"/>
        <polygon class="cls-48" points="171.76 107.62 184.56 100.23 184.56 75.42 171.76 82.81 171.76 107.62"/>
        <polygon class="cls-13" points="136.65 96.17 143.69 96.17 148.67 99.04 148.67 103.11 147.5 103.79 135.47 96.85 136.65 96.17"/>
        <path class="cls-13" d="M135.47,96.85l12.03,6.94-3.66,2.11-1.41-.82-1.56.9h-4.22l-1.68-.97,1.1-.64v-2.96s-3.62-2.09-3.62-2.09l-.79,1.1.79-1.1h-.79v-.28l3.81-2.2ZM131.66,100.99l1.81,1.05v1.72l-.35.2-1.11-.64v-.92l-.35-.21v-1.19Z"/>
        <polygon class="cls-28" points="140.86 105.98 143.69 105.98 143.84 105.9 142.42 105.08 140.86 105.98"/>
        <polygon class="cls-11" points="132.45 99.33 136.08 101.42 136.07 104.38 134.97 105.02 133.13 103.96 133.47 103.76 133.47 102.04 131.66 100.99 131.66 100.42 132.45 99.33"/>
        <polygon class="cls-20" points="131.66 99.33 131.66 100.42 132.45 99.33 131.66 99.33"/>
        <polygon class="cls-37" points="131.66 103.11 132.01 103.31 132.01 102.39 131.66 102.19 131.66 103.11"/>
        <polygon class="cls-80" points="142.98 52.64 143.48 53.11 143.53 54.06 143.8 55.14 143.21 56.73 141.96 58.12 140.46 58.6 139.01 58.28 138.54 57.52 138.54 55.6 140.46 52.97 142.98 52.64"/>
        <polygon class="cls-44" points="138.18 55.96 138.82 56.22 139.09 57.09 139.67 58.03 140.35 57.95 141.3 57.76 142.45 57.65 143.1 58.19 142.15 60.19 141.17 61.27 139.48 62.16 138.46 62.5 137.69 61.72 137.2 59.75 137.25 57.14 138.18 55.96"/>
        <polygon class="cls-40" points="140.68 57.65 139.67 58.04 141.62 58.12 141.51 57.65 140.68 57.65"/>
        <polygon class="cls-30" points="140.07 58.16 139.95 58.3 140.03 58.41 141.58 58.17 141.53 57.92 140.07 58.16"/>
        <polygon class="cls-30" points="139.29 58.57 139.52 58.43 139.67 58.68 139.56 60.31 139.15 62.61 138.03 62.38 138.57 60.04 139.29 58.57"/>
        <polygon class="cls-30" points="139.15 58.16 139.31 58.17 139.24 57.92 138.89 56.85 139.15 58.16"/>
        <polygon class="cls-71" points="139.15 58.16 139.29 58.57 139.67 58.68 140.03 58.41 140.08 58.16 139.24 57.92 139.15 58.16"/>
        <polygon class="cls-46" points="141.53 57.74 141.88 57.71 141.52 57.69 141.53 57.74"/>
        <path class="cls-13" d="M141.88,57.71l.54.02.51.7-.94.59-1.57-.67,1.17-.18v-.06s.04,0,.04,0l-.09-.38.34-.03ZM139.67,58.04l.94.04-.53.09-.33-.09-.08-.03Z"/>
        <polygon class="cls-55" points="139.67 58.04 140.61 58.07 141.53 57.92 141.57 58.11 141.62 58.12 141.53 57.74 141.52 57.69 140.68 57.65 139.67 58.04"/>
        <polygon class="cls-65" points="140.61 58.07 140.08 58.16 140.08 58.16 140.07 58.21 140.41 58.35 141.58 58.17 141.57 58.11 141.53 57.92 140.61 58.07"/>
        <polygon class="cls-25" points="140.07 58.21 140.08 58.16 140.08 58.16 139.75 58.07 140.07 58.21"/>
        <polygon class="cls-65" points="138.48 56.09 138.54 56.11 138.54 55.96 138.48 56.09"/>
        <polygon class="cls-46" points="138.54 55.96 139.11 55.96 139.67 58.03 139.09 57.09 138.82 56.22 138.54 56.11 138.54 55.96"/>
        <polygon class="cls-13" points="138.48 56.09 138.54 56.11 138.82 56.22 139.09 57.09 139.67 58.04 139.53 58.01 139.24 57.92 138.89 56.85 139.1 57.92 137.85 57.65 138.48 56.09"/>
        <polygon class="cls-65" points="139.1 57.92 139.23 57.94 139.24 57.92 138.89 56.85 139.1 57.92"/>
        <polygon class="cls-25" points="139.23 57.94 139.53 58.01 139.24 57.92 139.23 57.94"/>
        <polygon class="cls-78" points="135.09 55.58 136.1 54.24 137.55 53.7 138.98 54.52 137.33 56.64 136.39 59.32 136.31 62.13 135.27 63.28 133.6 65.29 132.54 62.52 133.92 58.73 135.09 55.58"/>
        <polygon class="cls-36" points="136.59 97.82 139.72 97.62 140.33 99.45 140.33 99.69 139.38 100.35 137.24 100.65 135.3 101.55 133.47 101.76 132.54 101.41 132.44 100.65 132.44 100.42 135.19 98.98 136.59 97.82"/>
        <polygon class="cls-36" points="144.5 101.16 146.8 100.79 146.8 101.04 146.46 102.95 144.98 104.27 143.94 104.27 143.02 104.11 142.84 103.69 142.84 103.45 143.51 102.53 144.5 101.16"/>
        <polygon class="cls-77" points="135.19 98.74 136.59 97.58 139.72 97.39 140.25 97.72 140.32 99.45 139.38 100.1 137.24 100.42 135.3 101.31 133.47 101.53 132.54 101.17 132.44 100.42 132.98 99.8 135.19 98.74"/>
        <polygon class="cls-77" points="143.94 99.45 146.65 99.45 146.8 100.79 146.45 102.71 144.98 104.02 143.94 104.02 143.02 103.87 142.84 103.45 142.84 102.43 143.64 100.87 143.94 99.45"/>
        <polygon class="cls-78" points="140.13 73.43 141.37 77.02 139.72 86.6 140.41 89.6 140.41 97.54 139.41 98.62 137.54 98.62 136.17 97.62 135.77 88.75 135.22 86.76 134.99 80.25 135.26 74.38 140.13 73.43"/>
        <polygon class="cls-75" points="143.16 74.58 146.97 76.26 146.7 85.28 147.47 88.99 147.47 98.89 146.97 100.09 144.52 100.29 143.68 99.41 142.96 88.84 141.37 82.89 140.41 77.7 140.78 74.98 143.16 74.58"/>
        <polygon class="cls-78" points="146.96 76.76 145.67 78.78 142.88 79.69 140.41 79.43 139.79 78.26 145.64 76.5 146.96 76.76"/>
        <polygon class="cls-75" points="134.99 59.11 136.9 55.44 138.01 54.63 138.78 54.64 137.98 57.31 137.98 59.92 138.58 62.02 140.58 60.54 142.47 58.33 143.73 56.1 143.76 54.97 147.04 57.65 147.75 58.33 147.14 64.45 146 68.88 146.97 72.89 147.12 76.61 145.45 78.19 142.72 79 139.24 78.83 138.88 76.89 138.51 78.61 136.3 77.18 134.99 75.14 135.29 66.58 135.16 62.02 134.99 59.11"/>
        <path class="cls-78" d="M138.41,64.87h0s0,0,0,0c.07.99.48,12.03.48,12.03l-.64-12.02h0c.11-.96.33-2.85.33-2.85l-.17,2.84Z"/>
        <polygon class="cls-40" points="139.42 55.62 139.67 58.04 138.54 57.08 138.35 56.74 138.63 55.69 139.42 55.62"/>
        <polygon class="cls-44" points="138.82 55.53 138.54 57.08 137.85 57.65 138.49 55.61 138.82 55.53"/>
        <polygon class="cls-78" points="132.08 59.83 133.82 60.39 134.28 61.11 134.34 61.97 133.71 62.75 131.46 62.32 131.27 61.42 131.37 60.54 132.08 59.83"/>
        <polygon class="cls-40" points="132.71 59.11 133.82 60.13 134.06 60.8 133.68 61.42 132.39 61.03 131.9 60.13 131.98 59.31 132.71 59.11"/>
        <polygon class="cls-9" points="132.77 59.65 133.3 59.78 133.82 60.71 133.4 61.84 132.66 61.52 131.98 60.49 131.98 60.11 132.11 59.95 132.77 59.65"/>
        <polygon class="cls-9" points="134.86 57.71 136.66 57.65 137.57 58.7 137.69 59.71 136.54 60.53 135.69 60.73 134.58 60.51 133.2 60.87 132.41 60.64 132.08 59.97 132.68 58.81 134.86 57.71"/>
        <polygon class="cls-44" points="132.19 60.35 133.13 61.03 134.06 60.8 134.06 62.32 132.89 62.74 131.71 62.19 131.37 61.17 131.98 59.32 132.19 60.35"/>
        <polygon class="cls-78" points="131.83 61.61 133.12 62.22 134.34 61.97 133.57 65.38 131.85 65.75 130.57 64.9 130.43 63.06 131.37 60.54 131.83 61.61"/>
        <polygon class="cls-9" points="146.54 70.57 147.96 71.21 148.5 72.9 147.85 73.94 146.16 73.94 145.2 73.1 144.9 72 145.45 70.85 146.54 70.57"/>
        <polygon class="cls-44" points="146.73 70.57 148.5 72.66 147.32 73.43 146.37 73.43 145.45 72.32 145.54 71.43 146.73 70.57"/>
        <polygon class="cls-78" points="147.99 58.39 149.73 60.08 154.15 66.99 153.58 70.05 148.61 73.1 147.2 72.8 146.31 71.49 146.45 70.41 149.99 67.63 145.79 62.95 144.9 61.21 144.82 59.53 145.99 58.33 147.99 58.39"/>
        <polygon class="cls-44" points="143.33 55.38 143.53 54.06 144.21 55.14 144.03 56.2 143.22 57.75 141.79 58.88 140.68 57.65 142.45 56.74 143.33 55.38"/>
        <polygon class="cls-29" points="139.61 69.94 139.61 70.1 139.71 70.28 139.85 70.36 139.96 70.31 139.96 70.14 139.85 69.96 139.71 69.87 139.61 69.94"/>
        <polygon class="cls-29" points="139.61 72.47 139.61 72.64 139.71 72.81 139.85 72.89 139.96 72.83 139.96 72.67 139.85 72.49 139.71 72.4 139.61 72.47"/>
        <polygon class="cls-29" points="137.21 68.55 137.21 68.71 137.31 68.89 137.45 68.97 137.55 68.92 137.55 68.75 137.45 68.57 137.31 68.49 137.21 68.55"/>
        <polygon class="cls-29" points="137.21 71.08 137.21 71.25 137.31 71.42 137.45 71.51 137.55 71.45 137.55 71.28 137.45 71.1 137.31 71.02 137.21 71.08"/>
        <polygon class="cls-44" points="142.92 64.88 141.03 64.46 142.35 63.9 142.92 64.88"/>
        <polygon class="cls-9" points="137.04 50.43 136.93 51.92 137.31 52.32 137.12 52.93 137.79 56.42 139.17 57 142.3 55.1 142.49 54.1 143.08 53.89 143.38 53.44 143.74 52.87 144.24 51.37 142.05 49.18 138.63 48.96 137.04 50.43"/>
        <polygon class="cls-8" points="143.71 52.15 143.08 51.59 142.24 52.45 142.01 53.48 141.65 53.72 141.65 52.21 140.56 51.5 140.38 50.61 139.52 51.27 137.82 51.31 136.57 50.35 137.29 48.28 139.66 46.5 142.03 46.65 142.85 47.38 143.91 47.6 144.78 49.65 144.61 51.72 143.52 53.79 143.38 53.44 143.71 52.15"/>
        <polygon class="cls-35" points="142.75 47.59 140.77 50.01 142.08 47.71 142.75 47.59"/>
        <polygon class="cls-79" points="150.12 70.48 147.74 75.02 150.89 74.99 151.09 70 150.12 70.48"/>
        <path class="cls-13" d="M148.19,111.71h4.91l7.49,4.32v2.84l-4.04,2.33h-.32l-.75.43v.18l-.03.02h-7.26l-5.14-2.96v-4.2l5.14-2.96ZM153.9,111.71h1.55l5.14,2.96v.9l-6.69-3.86Z"/>
        <polygon class="cls-25" points="156.23 121.2 155.48 121.64 155.48 121.82 156.54 121.2 156.23 121.2"/>
        <polygon class="cls-52" points="153.1 111.71 153.9 111.71 160.59 115.57 160.59 116.03 153.1 111.71"/>
        <polygon class="cls-36" points="149.9 114.32 148.61 114.34 146.65 114.4 146.29 114.37 146.29 114.62 147.6 115.34 150.14 115.58 151.92 116.29 152.03 115.76 151.72 115 149.9 114.32"/>
        <polygon class="cls-36" points="154.67 119.65 149.4 119.34 147.3 118.81 147.3 119.05 147.43 119.96 148.95 120.68 153.51 120.45 155.88 120.56 156.33 119.28 156.33 119.03 154.67 119.65"/>
        <polygon class="cls-77" points="150.01 112.76 148.5 113.12 146.62 113.32 146.29 113.85 146.29 114.37 147.6 115.1 150.14 115.33 151.92 116.04 152.03 115.52 152.03 113.25 150.01 112.76"/>
        <polygon class="cls-35" points="150.33 103.3 150.25 110.25 149.8 112.92 150.53 114.12 152.8 114.84 153.91 107.95 150.33 103.3"/>
        <polygon class="cls-77" points="152.03 116.77 149.79 117.53 147.53 118.09 147.3 118.81 147.43 119.71 148.95 120.43 153.51 120.2 155.88 120.3 156.33 119.03 156.17 117.49 152.03 116.77"/>
        <polygon class="cls-8" points="156.04 87.8 155.78 90.88 154.73 94.54 155.14 104.45 156.04 108.69 156.33 117.78 154.81 118.61 152.55 118.25 151.63 116.91 150.49 104.86 148.23 97.5 147.74 89.44 152.03 85.74 155.43 85.96 156.04 87.8"/>
        <polygon class="cls-44" points="150.41 71.29 147.69 74.86 146.53 78.68 148.79 78.89 152.04 73.09 150.41 71.29"/>
        <polygon class="cls-8" points="155.14 69.26 156.07 69.3 160.3 75.11 159.35 78.44 154.77 83.47 152.96 81.17 153.82 70.89 155.14 69.26"/>
        <polygon class="cls-35" points="156.22 75.71 158.75 77.47 156.19 76.54 156.22 75.71"/>
        <polygon class="cls-40" points="150.32 70.51 150.26 71.97 151.09 72 151.16 70.18 150.32 70.51"/>
        <polygon class="cls-80" points="150.43 70.37 150.72 72.37 151.64 72.41 153.74 71.56 154.98 69.99 154.71 69.8 154.48 68.4 154.42 66.64 150.68 67.56 150.43 70.37"/>
        <polygon class="cls-79" points="154.71 69.8 153.86 71.78 150.52 72.81 148.34 74.68 146.72 78.38 146.38 91.41 147.63 93.12 150.05 93.86 152.5 93.96 155.4 92.49 155.64 91.05 155.74 88.9 155.49 87.64 155.84 88.7 155.96 90 156.19 87.87 155.07 82.88 156.77 77.18 157.33 73.28 155.89 68.77 154.38 67.87 154.71 69.8"/>
        <polygon class="cls-44" points="154.57 68.99 154.42 70.23 151.58 71.72 150.15 71.75 150.26 73.3 152.04 73.09 154.92 71.56 155.3 69.94 154.57 68.99"/>
        <polygon class="cls-78" points="146.26 74.67 145.91 73.62 144.27 72.94 142.93 73.18 142.88 74.28 145.58 75.53 146.26 74.67"/>
        <polygon class="cls-40" points="146.2 73.56 145.95 72.9 144.9 72.34 144.02 72.42 143.85 73.47 145.54 74.14 146.2 73.56"/>
        <polygon class="cls-9" points="145.78 72.11 146.16 73.21 145.68 74.44 145.01 74.41 143.55 73.67 144.51 72.07 145.02 71.93 145.78 72.11"/>
        <polygon class="cls-9" points="148.7 63.02 147.74 64.65 147.52 66.12 147.76 66.68 147.01 67.92 147.69 68.5 148.29 70.61 149.67 70.83 151.69 70.25 151.69 69.3 152.7 68.93 153.18 68.2 153.51 66.41 152.94 63.41 150.22 62.36 148.7 63.02"/>
        <polygon class="cls-54" points="149.37 62.21 148.66 63.06 148.65 63.45 149.12 63.94 150.16 63.86 151.35 64.03 151.57 64.55 151.13 65.06 150.27 65.66 150.17 66.49 150.53 67.38 150.65 68.06 151.2 68.26 151.47 67.48 152.27 67.11 152.94 67.32 153.18 68.2 153.91 68.55 154.48 68.4 155.4 66.99 155.67 65.18 155.22 63.56 154.14 62.11 152.41 61.46 150.85 61.56 149.37 62.21"/>
        <polygon class="cls-9" points="148.8 68.06 146.77 68.56 145.59 69.69 144.51 72.07 146.16 73.21 147.65 72.42 148.29 71.67 149.1 70.92 148.82 70.43 148.1 70.82 147.59 71.31 147.2 71.13 147.84 69.18 148.78 68.68 148.8 68.06"/>
        <polygon class="cls-44" points="145.59 75.41 146.2 73.56 145.33 73.74 144.29 73.24 144.02 72.42 143.02 74.08 143.54 75.16 144.37 75.57 145.59 75.41"/>
        <polygon class="cls-8" points="154.89 77.07 153.01 75.58 150.62 75.81 145.09 78.26 146.26 74.67 144.96 74.72 143.6 74.13 142.93 73.18 140.47 80.02 141.02 81.96 142.61 83.26 152.29 81.23 154.29 79.4 154.89 77.07"/>
        <polygon class="cls-35" points="145.09 78.26 143.1 81.08 143.14 80.04 145.09 78.26"/>
        <polygon class="cls-76" points="125.37 89.08 124.79 88.6 122.31 88.24 122.53 88.9 125.05 89.58 125.37 89.08"/>
        <polygon class="cls-40" points="125.47 88.02 124.46 87.2 123.33 87.2 123.33 87.76 125.05 88.36 125.47 88.02"/>
        <polygon class="cls-9" points="125.47 88.02 126.63 88.24 128.78 87.72 128.46 87.26 127.12 87.2 127.9 86.14 129.1 86.14 129.59 86.12 129.59 85.27 128.01 84.98 126.51 85.05 124 86.37 123.49 87.33 123.49 87.91 125.02 88.44 125.47 88.02"/>
        <polygon class="cls-80" points="127.85 84.98 127.9 85.88 129.1 86.14 129.59 86.44 130 86.44 129.7 84.98 128.69 84.63 127.85 84.98"/>
        <polygon class="cls-44" points="125.08 89.62 125.47 88.02 124.76 87.94 123.81 87.57 123.33 87.2 122.65 88.85 125.08 89.62"/>
        <polygon class="cls-13" points="126.51 129.22 132.87 129.22 137.37 131.82 137.37 133.83 135.31 132.65 133.55 133.67 137.04 135.68 136.41 136.04 128.54 131.5 126.78 132.51 134.65 137.06 132.87 138.09 126.51 138.09 122.02 135.49 122.02 131.82 126.51 129.22"/>
        <polygon class="cls-74" points="135.31 132.65 137.37 133.83 137.37 135.49 137.04 135.68 133.55 133.66 135.31 132.65"/>
        <polygon class="cls-63" points="128.54 131.5 136.41 136.04 134.65 137.06 126.78 132.51 128.54 131.5"/>
        <polygon class="cls-2" points="135.72 133.82 135.72 134.03 134.33 134.23 133.14 132.77 132.96 132 131.76 131.15 131.86 128.82 135.72 133.82"/>
        <polygon class="cls-2" points="123.64 134.52 123.64 134.73 124.7 135.67 128.02 136.03 131.03 136.7 131.76 136.03 131.76 135.82 123.64 134.52"/>
        <polygon class="cls-36" points="135.85 131.79 135.72 133.82 134.33 134.02 133.14 132.56 132.96 131.79 131.76 130.94 131.86 128.61 134.17 129.02 135.85 131.79"/>
        <polygon class="cls-36" points="127.63 132.56 123.64 133.35 123.64 134.52 124.7 135.45 128.02 135.82 131.03 136.49 131.76 135.82 131.76 134.2 129.62 132.56 127.63 132.56"/>
        <polygon class="cls-76" points="136.88 107.81 136.51 118.53 137.11 122.3 136.27 131.97 134.05 131.97 132.68 130.7 132.28 129.46 132.47 120.3 131.46 115.66 131.21 107.48 135.99 106.39 136.88 107.81"/>
        <polygon class="cls-58" points="135.87 108.21 132.67 109.79 132.02 121.01 132.59 123.43 132.02 134.28 130.08 134.62 128.14 134.12 127.49 132.58 127.49 119.75 125.57 108.21 127.78 102.42 136.27 103.27 135.87 108.21"/>
        <polygon class="cls-40" points="124.48 98.82 123.56 96.94 124.06 95.62 125.79 95.91 125.94 98.28 124.48 98.82"/>
        <rect class="cls-80" x="124.3" y="95.91" width="1.17" height="2.08"/>
        <polygon class="cls-9" points="123 98.34 124.7 98.51 125 97.87 124.7 96.23 121.68 96.23 121.99 97.45 123 98.34"/>
        <polygon class="cls-44" points="125 96.41 125.14 97.38 124.48 98.82 125.97 99 126.58 96.92 126.08 95.91 125 96.41"/>
        <polygon class="cls-45" points="134.6 86.73 137.69 86.5 138.86 88.41 138.3 90.81 136.69 91.69 133.97 89.42 134.6 86.73"/>
        <polygon class="cls-59" points="127.01 90.63 129.7 88.41 130.04 88.01 133.97 86.96 134.6 86.73 136.88 87.16 138.3 90.81 136.98 99.53 137.51 108.07 135.17 109.64 134.17 104.84 134.11 110 131.53 110.52 127.65 109.99 125.24 107.93 125.76 100.36 125.47 95.19 127.01 90.63"/>
        <polygon class="cls-9" points="129.3 85.61 129.8 87.05 129.8 87.48 131.04 87.81 133.58 87.08 133.97 86.07 133.74 84.15 133.26 83.38 129.27 84.29 129.3 85.61"/>
        <polygon class="cls-9" points="128.4 78.7 127.25 80.36 127.25 81.56 127.37 81.93 127.25 82.83 127.96 85.37 128.64 85.88 130.79 84.98 131.3 80.56 129.86 78.43 128.4 78.7"/>
        <polygon class="cls-79" points="133.91 84.05 132.84 84.74 130.79 84.98 129.8 83.9 129.48 83.12 128.99 82.77 128.6 83.26 128.02 82.95 127.9 80.99 128.38 80.5 129.31 80.12 129.33 79.37 128.4 78.7 129.29 77.75 131.56 77.75 133.46 79.05 134.39 80.77 134.39 82.67 133.91 84.05"/>
        <polygon class="cls-44" points="134.6 86.73 134.19 85.88 133.2 86.73 130.94 87.26 129.43 86.98 129.3 88.42 130.97 88.44 133.59 87.97 134.6 86.73"/>
        <polygon class="cls-45" points="129.7 93.58 129.1 91.24 127.01 90.63 124.7 92.15 125.37 89.08 124.44 89.05 123.08 88.66 122.31 88.24 120.78 95.68 122.3 97.16 127.9 95.92 129.7 93.58"/>
        <polygon class="cls-31" points="124.7 92.15 121.99 94.35 122.59 93.25 124.7 92.15"/>
        <polygon class="cls-80" points="128.55 85.27 129.48 84.87 129.7 84.36 128.55 85.27"/>
        <polygon class="cls-9" points="122.89 97.56 122.65 96.61 121.54 95.19 120.22 95.68 120.78 97.16 122.99 98.28 122.89 97.56"/>
        <polygon class="cls-73" points="46.94 23.58 47.96 24.17 78.61 6.48 77.58 5.89 46.94 23.58"/>
        <polygon class="cls-4" points="46.94 27.22 47.96 27.81 47.96 24.17 46.94 23.58 46.94 27.22"/>
        <polygon class="cls-40" points="46.94 55.51 47.96 56.1 47.96 27.81 46.94 27.22 46.94 55.51"/>
        <polygon class="cls-38" points="47.96 24.17 78.61 6.48 78.61 10.12 47.96 27.81 47.96 24.17"/>
        <polygon class="cls-26" points="55.66 21.58 56.23 20.59 57.04 20.12 57.61 20.45 57.61 21.38 57.04 22.38 56.23 22.84 55.66 22.51 55.66 21.58"/>
        <polygon class="cls-12" points="55.8 20.35 56.12 20.6 56.23 20.59 57.04 20.12 56.61 19.88 55.8 20.35"/>
        <polygon class="cls-7" points="55.66 21.58 56.23 20.59 55.8 20.35 55.23 21.33 55.55 21.63 55.66 21.58"/>
        <polygon class="cls-49" points="55.23 22.27 55.66 22.51 55.66 21.58 55.23 21.33 55.23 22.27"/>
        <polygon class="cls-34" points="52.95 23.14 53.52 22.16 54.33 21.68 54.9 22.02 54.9 22.95 54.33 23.94 53.52 24.4 52.95 24.08 52.95 23.14"/>
        <polygon class="cls-32" points="53.09 21.9 53.41 22.16 53.52 22.16 54.33 21.69 53.9 21.44 53.09 21.9"/>
        <polygon class="cls-62" points="52.95 23.14 53.52 22.16 53.09 21.9 52.52 22.9 52.84 23.19 52.95 23.14"/>
        <polygon class="cls-53" points="52.52 23.83 52.95 24.08 52.95 23.14 52.52 22.9 52.52 23.83"/>
        <polygon class="cls-15" points="50.24 24.71 50.81 23.72 51.62 23.25 52.19 23.58 52.19 24.51 51.62 25.5 50.81 25.97 50.24 25.64 50.24 24.71"/>
        <polygon class="cls-71" points="50.39 23.47 50.7 23.73 50.81 23.72 51.62 23.25 51.19 23 50.39 23.47"/>
        <polygon class="cls-15" points="50.24 24.71 50.81 23.72 50.39 23.47 49.81 24.46 50.13 24.75 50.24 24.71"/>
        <polygon class="cls-17" points="49.81 25.4 50.24 25.64 50.24 24.71 49.81 24.46 49.81 25.4"/>
        <polygon class="cls-44" points="78.61 38.4 47.96 56.1 47.96 27.81 78.61 10.12 78.61 38.4"/>
        <polygon class="cls-27" points="50.17 46.62 76.4 31.48 76.4 13.2 50.17 28.33 50.17 46.62"/>
        <polygon class="cls-12" points="54.42 29.39 55.72 28.63 56.64 29.17 56.64 30.67 55.72 32.27 55.1 32.62 55.1 33.94 56.19 33.31 57.78 30.56 57.78 27.97 56.19 27.05 53.94 28.35 54.42 29.39"/>
        <polygon class="cls-14" points="55.1 32.62 54.42 33.02 53.49 32.49 53.49 30.98 54.42 29.39 53.94 28.35 52.35 31.1 52.35 33.69 53.94 34.61 55.1 33.94 55.1 32.62"/>
        <polygon class="cls-5" points="54.42 37.76 55.72 37 56.64 37.53 56.64 39.04 55.72 40.63 55.1 40.99 55.1 42.3 56.19 41.67 57.78 38.92 57.78 36.33 56.19 35.41 53.94 36.71 54.42 37.76"/>
        <polygon class="cls-23" points="52.35 42.06 53.94 42.97 55.1 42.3 55.1 40.99 54.42 41.38 53.49 40.85 52.35 42.06"/>
        <polygon class="cls-47" points="53.49 40.85 53.49 39.35 54.42 37.76 53.94 36.71 52.35 39.46 52.35 42.06 53.49 40.85"/>
        <polygon class="cls-64" points="74.42 31.11 60.09 39.38 60.09 39.28 74.42 31 74.42 31.11"/>
        <polygon class="cls-5" points="63.22 30.3 60.73 31.74 60.73 38.92 63.22 37.47 63.22 30.3"/>
        <polygon class="cls-5" points="66.61 29.58 64.11 31.03 64.11 36.96 66.61 35.52 66.61 29.58"/>
        <polygon class="cls-23" points="70 30.03 67.5 31.48 67.5 35.01 70 33.56 70 30.03"/>
        <polygon class="cls-12" points="73.38 30.06 70.88 31.5 70.88 33.05 73.38 31.61 73.38 30.06"/>
        <polygon class="cls-22" points="74.42 16.56 60.07 24.85 60.07 31.03 74.42 22.73 74.42 16.56"/>
        <polygon class="cls-24" points="73.19 18.13 73.13 18.27 73.13 18.43 73.19 18.5 73.8 18.15 73.86 18 73.86 17.85 73.8 17.77 73.19 18.13"/>
        <polygon class="cls-64" points="73.19 18.76 73.13 18.9 73.13 19.07 73.19 19.14 73.8 18.78 73.86 18.64 73.86 18.49 73.8 18.41 73.19 18.76"/>
        <polygon class="cls-6" points="73.19 19.4 73.13 19.55 73.13 19.7 73.19 19.78 73.8 19.42 73.86 19.28 73.86 19.12 73.8 19.04 73.19 19.4"/>
        <polygon class="cls-6" points="60.07 31.03 60.07 25.41 63.5 25.39 66.85 22.87 69.54 22.51 72.27 21.44 74.44 22.73 60.07 31.03"/>
        <polygon class="cls-64" points="60.07 31.03 60.07 26.31 64.43 26.88 69.75 24.17 71.92 22.33 74.44 22.73 60.07 31.03"/>
        <polygon class="cls-24" points="60.07 31.03 60.07 27.08 63.42 27.5 68.75 25.47 71.25 23.41 74.44 22.73 60.07 31.03"/>
        <polygon class="cls-40" points="50.52 48.76 76.05 34.02 76.4 34.22 76.4 34.66 76.05 35.26 50.52 50.01 50.17 49.8 50.17 49.36 50.52 48.76"/>
        <polygon class="cls-40" points="58.96 46.05 76.04 36.18 76.39 36.39 76.39 36.82 76.04 37.42 58.96 47.29 58.61 47.09 58.61 46.65 58.96 46.05"/>
        <polygon class="cls-73" points="37.15 49.12 38.07 49.65 65.6 33.75 64.68 33.22 37.15 49.12"/>
        <polygon class="cls-4" points="37.15 52.39 38.07 52.92 38.07 49.65 37.15 49.12 37.15 52.39"/>
        <polygon class="cls-40" points="37.15 77.8 38.07 78.33 38.07 52.92 37.15 52.39 37.15 77.8"/>
        <polygon class="cls-38" points="38.07 49.65 65.6 33.75 65.6 37.02 38.07 52.92 38.07 49.65"/>
        <polygon class="cls-26" points="44.97 47.32 45.49 46.43 46.22 46.01 46.73 46.31 46.73 47.15 46.22 48.03 45.49 48.45 44.97 48.16 44.97 47.32"/>
        <polygon class="cls-12" points="45.11 46.21 45.4 46.44 45.49 46.43 46.22 46.01 45.83 45.79 45.11 46.21"/>
        <polygon class="cls-7" points="44.6 47.1 44.89 47.36 44.97 47.32 45.49 46.43 45.11 46.21 44.6 47.1"/>
        <polygon class="cls-49" points="44.6 47.94 44.97 48.16 44.97 47.32 44.6 47.1 44.6 47.94"/>
        <polygon class="cls-34" points="42.55 48.72 43.06 47.83 43.78 47.41 44.3 47.71 44.3 48.55 43.78 49.44 43.06 49.86 42.55 49.56 42.55 48.72"/>
        <polygon class="cls-32" points="42.67 47.61 42.96 47.84 43.06 47.83 43.78 47.41 43.4 47.2 42.67 47.61"/>
        <polygon class="cls-62" points="42.16 48.5 42.45 48.76 42.55 48.72 43.06 47.83 42.67 47.61 42.16 48.5"/>
        <polygon class="cls-53" points="42.16 49.34 42.55 49.56 42.55 48.72 42.16 48.5 42.16 49.34"/>
        <polygon class="cls-19" points="40.11 50.13 40.62 49.24 41.35 48.82 41.86 49.12 41.86 49.96 41.35 50.84 40.62 51.26 40.11 50.97 40.11 50.13"/>
        <polygon class="cls-71" points="40.24 49.02 40.53 49.25 40.62 49.24 41.35 48.82 40.97 48.6 40.24 49.02"/>
        <polygon class="cls-15" points="39.73 49.9 40.02 50.17 40.11 50.13 40.62 49.24 40.24 49.02 39.73 49.9"/>
        <polygon class="cls-17" points="39.73 50.75 40.11 50.97 40.11 50.13 39.73 49.9 39.73 50.75"/>
        <polygon class="cls-44" points="65.6 62.44 38.07 78.33 38.07 52.92 65.6 37.02 65.6 62.44"/>
        <polygon class="cls-6" points="61.09 45.97 61.09 47.48 60.17 49.09 59.55 49.44 59.55 50.76 60.64 50.13 62.24 47.37 62.24 44.76 61.09 45.97"/>
        <polygon class="cls-38" points="62.24 44.76 60.64 43.84 58.39 45.14 58.86 46.19 60.17 45.44 61.09 45.97 62.24 44.76"/>
        <polygon class="cls-23" points="59.55 49.44 58.86 49.84 57.93 49.3 57.93 47.79 58.86 46.19 58.39 45.14 56.79 47.9 56.79 50.51 58.39 51.43 59.55 50.76 59.55 49.44"/>
        <polygon class="cls-23" points="59.12 46.78 59.9 46.33 60.45 46.65 60.45 47.55 59.9 48.49 59.12 48.95 58.58 48.62 58.58 47.73 59.12 46.78"/>
        <polygon class="cls-21" points="50.25 52.23 51.18 50.63 52.49 49.87 52.92 50.12 53.73 48.72 52.96 48.27 50.7 49.58 49.11 52.34 50.25 52.23"/>
        <polygon class="cls-12" points="49.11 52.34 49.11 54.95 50.7 55.87 51.18 54.27 50.25 53.74 50.25 52.23 49.11 52.34"/>
        <polygon class="cls-38" points="52.92 50.12 53.41 50.4 53.41 51.92 52.49 53.52 51.18 54.27 50.7 55.87 52.96 54.57 54.55 51.8 54.55 49.19 53.73 48.72 52.92 50.12"/>
        <polygon class="cls-38" points="51.44 53.38 50.9 53.06 50.9 52.17 51.44 51.21 52.22 50.77 52.77 51.08 52.77 51.98 52.22 52.93 51.44 53.38"/>
        <polygon class="cls-23" points="44.8 54.31 45.73 54.84 45.73 56.35 45.29 57.1 46.1 57.57 46.87 56.24 46.87 53.63 45.28 52.71 44.8 54.31"/>
        <polygon class="cls-6" points="45.28 52.71 43.02 54.02 41.43 56.78 42.57 56.66 43.5 55.06 44.8 54.31 45.28 52.71"/>
        <polygon class="cls-23" points="45.29 57.11 44.8 57.95 43.5 58.71 42.57 58.17 42.57 56.66 41.43 56.78 41.43 59.38 43.02 60.3 45.28 59 46.1 57.57 46.1 56.59 45.29 57.11"/>
        <polygon class="cls-6" points="43.21 56.6 43.76 55.65 44.54 55.2 45.08 55.52 45.08 56.42 44.54 57.36 43.76 57.81 43.21 57.5 43.21 56.6"/>
        <polygon class="cls-14" points="41.46 74.11 62.24 62.11 62.24 61.83 41.46 73.83 41.46 74.11"/>
        <polygon class="cls-47" points="57.7 62.45 61.32 60.36 61.32 62.36 57.7 64.45 57.7 62.45"/>
        <polygon class="cls-23" points="52.79 63.27 56.41 61.18 56.41 65.2 52.79 67.29 52.79 63.27"/>
        <polygon class="cls-5" points="47.88 63.92 51.5 61.83 51.5 68.03 47.88 70.12 47.88 63.92"/>
        <polygon class="cls-12" points="42.97 64.32 46.59 62.23 46.59 70.87 42.97 72.95 42.97 64.32"/>
        <polygon class="cls-13" points="75.72 93.23 87.34 93.23 95.55 97.97 95.55 104.67 93.07 106.11 73.24 94.66 75.72 93.23"/>
        <polygon class="cls-13" points="73.24 94.66 93.07 106.11 87.34 109.42 86.63 109.42 88.86 108.12 69.52 96.96 67.52 98.12 67.52 97.97 73.24 94.66"/>
        <path class="cls-1" d="M69.52,96.96l19.34,11.16-12.51-3.94-.9,1.29-4.08-.81-1.44,1.4-2.42-1.4v-6.56l2.01-1.16ZM71.44,100.06l1-.58-.32-.29-.58-.34-.5-.18-1,.58.32.29.58.34.5.19ZM73.81,101.43l1-.58-.32-.29-.58-.33-.51-.19-1,.58.32.29.58.34.5.18ZM76.18,102.79l1-.57-.32-.3-.58-.33-.51-.19-1,.58.33.29.58.34.5.18Z"/>
        <polygon class="cls-43" points="71.04 98.67 71.54 98.86 72.12 99.19 72.43 99.48 71.44 100.06 70.93 99.88 70.36 99.54 70.04 99.25 71.04 98.67"/>
        <polygon class="cls-74" points="73.4 100.04 73.91 100.23 74.49 100.56 74.81 100.85 73.81 101.43 73.3 101.25 72.72 100.91 72.41 100.62 73.4 100.04"/>
        <polygon class="cls-11" points="75.77 101.41 76.28 101.6 76.86 101.93 77.18 102.22 76.18 102.79 75.68 102.61 75.1 102.28 74.78 101.99 75.77 101.41"/>
        <polygon class="cls-11" points="71.37 104.67 75.45 105.47 73.62 108.1 73.46 108.11 69.93 106.07 71.37 104.67"/>
        <polygon class="cls-74" points="76.35 104.18 88.86 108.12 77.15 106.98 78.07 109.42 75.72 109.42 73.46 108.11 73.62 108.1 75.45 105.47 76.35 104.18"/>
        <polygon class="cls-43" points="77.15 106.98 88.86 108.12 86.63 109.42 78.07 109.42 77.15 106.98"/>
        <polygon class="cls-51" points="95.61 99.51 95.61 100.16 95.04 100.63 82.54 101.93 80.3 109.14 79.49 109.47 78.51 109.37 77.94 108.9 77.94 108.26 78.17 107.99 80.21 101.56 71.08 96.29 71.08 95.64 71.78 95.13 72.78 95.13 81.91 100.41 94.62 99.1 95.61 99.51"/>
        <polygon class="cls-79" points="95.44 98.95 95.61 99.51 95.04 99.98 82.54 101.28 80.3 108.5 79.49 108.83 78.5 108.72 77.94 108.25 80.21 100.91 71.08 95.64 71.08 95.07 71.78 94.66 72.78 94.66 81.91 99.94 94.62 98.62 95.44 98.95"/>
        <polygon class="cls-33" points="82.08 100.44 81.13 100.44 80.45 100.06 80.45 99.51 81.13 99.12 82.08 99.12 82.75 99.51 82.75 100.06 82.08 100.44"/>
        <polygon class="cls-68" points="80.45 100.94 81.13 101.33 81.18 100.52 81.13 100.44 80.45 100.06 80.45 100.94"/>
        <polygon class="cls-39" points="81.13 100.44 81.13 101.33 82.08 101.33 82.15 100.5 82.08 100.44 81.13 100.44"/>
        <polygon class="cls-78" points="82.08 100.44 82.08 101.33 82.75 100.94 82.75 100.06 82.08 100.44"/>
        <polygon class="cls-56" points="81.33 81.44 80.95 81.66 80.95 81.98 81.33 82.2 81.88 82.2 82.26 81.98 82.26 81.66 81.88 81.44 81.33 81.44"/>
        <polygon class="cls-72" points="80.95 99.88 81.33 100.09 81.37 82.24 81.33 82.2 80.95 81.98 80.95 99.88"/>
        <polygon class="cls-77" points="81.33 82.2 81.33 100.09 81.88 100.09 81.92 82.23 81.88 82.2 81.33 82.2"/>
        <polygon class="cls-36" points="81.88 82.2 81.88 100.09 82.26 99.88 82.26 81.98 81.88 82.2"/>
        <polygon class="cls-33" points="82.22 81.52 80.99 81.52 80.13 81.02 80.13 80.32 80.99 79.81 82.22 79.81 83.08 80.32 83.08 81.02 82.22 81.52"/>
        <polygon class="cls-68" points="80.13 82.16 80.99 82.66 81.06 81.61 80.99 81.52 80.13 81.02 80.13 82.16"/>
        <polygon class="cls-39" points="82.22 81.52 80.99 81.52 80.99 82.66 82.22 82.66 82.31 81.59 82.22 81.52"/>
        <polygon class="cls-78" points="82.22 81.52 82.22 82.66 83.08 82.16 83.08 81.02 82.22 81.52"/>
        <polygon class="cls-68" points="104.01 30.15 103.4 29.09 102.54 28.59 101.93 28.95 101.93 29.95 102.54 31.01 103.4 31.5 104.01 31.15 104.01 30.15"/>
        <polygon class="cls-33" points="103.4 29.09 102.54 28.59 103.53 28.02 104.4 28.52 103.52 29.11 103.4 29.09"/>
        <polygon class="cls-68" points="104.01 30.15 103.4 29.09 104.4 28.52 105.01 29.58 104.12 30.2 104.01 30.15"/>
        <polygon class="cls-78" points="104.01 31.15 104.01 30.15 105.01 29.58 105.01 30.58 104.01 31.15"/>
        <polygon class="cls-68" points="104.01 68.08 103.4 67.02 102.54 66.52 101.93 66.88 101.93 67.88 102.54 68.93 103.4 69.43 104.01 69.08 104.01 68.08"/>
        <polygon class="cls-33" points="103.4 67.02 102.54 66.52 103.53 65.95 104.4 66.45 103.52 67.04 103.4 67.02"/>
        <polygon class="cls-68" points="104.01 68.08 103.4 67.02 104.4 66.45 105.01 67.51 104.12 68.13 104.01 68.08"/>
        <polygon class="cls-78" points="104.01 69.08 104.01 68.08 105.01 67.51 105.01 68.51 104.01 69.08"/>
        <polygon class="cls-56" points="60.92 92.77 60.48 92.01 59.85 91.65 59.41 91.9 59.41 92.63 59.85 93.38 60.48 93.75 60.92 93.49 60.92 92.77"/>
        <polygon class="cls-79" points="60.48 92.01 59.85 91.65 102.65 66.94 103.27 67.3 60.56 92.02 60.48 92.01"/>
        <polygon class="cls-8" points="60.92 92.77 60.48 92.01 103.27 67.3 103.71 68.06 61 92.81 60.92 92.77"/>
        <polygon class="cls-51" points="60.92 93.49 60.92 92.77 103.71 68.06 103.71 68.78 60.92 93.49"/>
        <polygon class="cls-40" points="60.26 92.02 60.05 92.02 60.05 55.61 60.26 55.61 63.51 76.2 60.26 92.02"/>
        <polygon class="cls-44" points="103.01 67.15 60.27 91.82 60.27 55.29 103.01 30.62 103.01 67.15"/>
        <polygon class="cls-56" points="60.92 54.85 60.48 54.08 59.85 53.72 59.41 53.97 59.41 54.69 59.85 55.46 60.48 55.82 60.92 55.56 60.92 54.85"/>
        <polygon class="cls-79" points="60.48 54.08 59.85 53.72 102.65 29.01 103.27 29.37 60.56 54.09 60.48 54.08"/>
        <polygon class="cls-8" points="60.92 54.85 60.48 54.08 103.27 29.37 103.71 30.13 61 54.88 60.92 54.85"/>
        <polygon class="cls-51" points="60.92 55.56 60.92 54.85 103.71 30.13 103.71 30.85 60.92 55.56"/>
        <polygon class="cls-68" points="60.29 55.39 59.68 54.34 58.81 53.84 58.2 54.19 58.2 55.19 58.81 56.25 59.68 56.75 60.29 56.39 60.29 55.39"/>
        <polygon class="cls-33" points="59.68 54.34 58.81 53.84 59.8 53.27 60.67 53.77 59.79 54.35 59.68 54.34"/>
        <polygon class="cls-68" points="60.29 55.39 59.68 54.34 60.67 53.77 61.28 54.82 60.4 55.44 60.29 55.39"/>
        <polygon class="cls-78" points="60.29 56.39 60.29 55.39 61.28 54.82 61.28 55.83 60.29 56.39"/>
        <polygon class="cls-68" points="60.29 93.33 59.68 92.27 58.81 91.77 58.2 92.12 58.2 93.12 58.81 94.18 59.68 94.68 60.29 94.33 60.29 93.33"/>
        <polygon class="cls-33" points="59.68 92.27 58.81 91.77 59.8 91.2 60.67 91.7 59.79 92.28 59.68 92.27"/>
        <polygon class="cls-68" points="60.29 93.33 59.68 92.27 60.67 91.7 61.28 92.76 60.4 93.38 60.29 93.33"/>
        <polygon class="cls-78" points="60.29 94.33 60.29 93.33 61.28 92.76 61.28 93.76 60.29 94.33"/>
        <polygon class="cls-64" points="86.95 54.09 86.95 48.17 89.54 47.92 89.54 51.34 86.95 54.09"/>
        <polygon class="cls-12" points="90.57 56.18 86.95 54.09 89.54 51.34 91.65 52.56 90.57 56.18"/>
        <polygon class="cls-73" points="91.65 52.56 93.04 51.75 93.04 54.75 90.57 56.18 91.65 52.56"/>
        <polygon class="cls-21" points="86.95 48.17 90.57 41.9 95.69 38.95 94.62 42.57 91.65 44.29 89.54 47.92 86.95 48.17"/>
        <polygon class="cls-6" points="93.04 51.75 94.61 50.84 96.71 47.2 96.71 43.78 94.62 42.57 95.69 38.95 99.31 41.04 99.31 46.95 95.69 53.22 93.04 54.75 93.04 51.75"/>
        <polygon class="cls-70" points="96.7 55.05 86.92 60.7 86.92 59.52 96.7 53.88 96.7 55.05"/>
        <polygon class="cls-70" points="92.66 59.32 86.92 62.64 86.92 61.46 92.66 58.15 92.66 59.32"/>
        <polygon class="cls-70" points="79.77 48.16 63.91 57.32 63.91 56.14 79.77 46.98 79.77 48.16"/>
        <polygon class="cls-70" points="69.65 55.94 63.91 59.26 63.91 58.09 69.65 54.77 69.65 55.94"/>
        <polygon class="cls-34" points="99.89 65.12 63.28 86.26 63.29 86.05 99.89 64.92 99.89 65.12"/>
        <polygon class="cls-6" points="68.66 60.32 63.91 63.07 63.91 85.7 68.66 82.95 68.66 60.32"/>
        <polygon class="cls-6" points="76.32 61.69 71.57 64.44 71.57 81.28 76.32 78.53 76.32 61.69"/>
        <polygon class="cls-21" points="83.99 66.26 79.23 69 79.23 76.85 83.99 74.11 83.99 66.26"/>
        <polygon class="cls-73" points="91.65 67.51 86.9 70.25 86.9 72.42 91.65 69.68 91.65 67.51"/>
        <polygon class="cls-12" points="99.31 62.1 94.56 64.85 94.56 68.01 99.31 65.26 99.31 62.1"/>
        <polygon class="cls-6" points="73.49 57.57 78.78 61.34 80.71 64.49 85.29 64.03 88.72 67 92.56 63.78 99.99 60.21 99.99 60.71 92.79 64.18 88.71 67.6 85.13 64.51 80.47 64.98 78.41 61.63 73.62 58.23 73.49 57.57"/>
        <polygon class="cls-6" points="79.65 60.38 79.06 60.04 78.22 60.52 77.63 61.54 77.63 62.51 78.22 62.85 79.06 62.37 79.65 61.34 79.65 60.38"/>
        <polygon class="cls-21" points="81.6 63.6 81.01 63.26 80.17 63.74 79.59 64.77 79.59 65.74 80.17 66.07 81.01 65.59 81.6 64.57 81.6 63.6"/>
        <polygon class="cls-21" points="86.24 63.19 85.65 62.85 84.82 63.33 84.23 64.36 84.23 65.32 84.82 65.66 85.65 65.18 86.24 64.16 86.24 63.19"/>
        <polygon class="cls-73" points="89.54 66.01 88.96 65.66 88.12 66.14 87.53 67.17 87.53 68.13 88.12 68.48 88.96 67.99 89.54 66.97 89.54 66.01"/>
        <polygon class="cls-12" points="93.67 62.88 93.08 62.55 92.24 63.03 91.65 64.05 91.65 65.01 92.24 65.35 93.08 64.87 93.67 63.85 93.67 62.88"/>
        <polygon class="cls-6" points="75.72 56 74.5 55.3 72.78 56.29 71.57 58.39 71.57 60.37 72.78 61.08 74.5 60.08 75.72 57.98 75.72 56"/>
        <polygon class="cls-13" points="103.9 102.43 100.05 104.65 100.05 106.92 107.84 102.43 103.9 102.43"/>
        <polygon class="cls-13" points="107.84 102.43 109.34 102.43 113.18 104.65 113.18 107.49 111.35 108.55 111.35 108.85 109.34 110.01 103.9 110.01 100.05 107.79 100.05 106.92 107.84 102.43"/>
        <polygon class="cls-41" points="113.18 107.49 113.18 107.79 111.35 108.85 111.35 108.55 113.18 107.49"/>
        <polygon class="cls-80" points="105.36 58.42 105.36 59.61 104.89 60.7 104.55 62.15 105.16 64.19 107.96 65.12 109.8 64.43 110.1 60.05 107.94 58.1 105.36 58.42"/>
        <polygon class="cls-44" points="109.25 61.46 108.98 62.91 107.84 64.39 105.66 62.92 104.89 60.7 104.23 61.76 104.68 64.39 107.12 67.68 109.25 67.68 110.38 63.17 110.38 61.55 109.25 61.46"/>
        <polygon class="cls-78" points="111.17 61.13 112.83 61.34 113.93 63.14 116.76 72.22 114.39 72.99 113.72 71.7 112.27 67.73 110.71 64.43 111.17 61.13"/>
        <polygon class="cls-36" points="104.4 103.18 104.71 104.21 104.11 105.48 103.74 107.53 102.61 108.82 101.85 108.73 100.9 107.55 101.41 105.86 104.4 103.18"/>
        <polygon class="cls-9" points="105.76 90.94 105.65 92.85 106.07 95.17 104.5 102.46 104.29 104.03 103.44 106.51 102.19 106.77 101.41 105.86 102.63 103.35 102.96 100.49 102.36 94.3 102.68 91.84 102.63 90.23 104.09 89.4 105.76 90.94"/>
        <polygon class="cls-36" points="111.84 104.68 112.96 105.81 112.96 106.51 112.5 107.21 111.44 107.21 109.86 106.1 108.49 104.68 107.15 104.14 106.62 103.29 106.83 102.43 108.08 102.43 110.8 104.48 111.84 104.68"/>
        <polygon class="cls-9" points="110.82 90.18 110.82 92.02 110.01 93.92 109.48 98.88 109.69 102.29 110.82 103.72 111.84 104.68 111.6 105.34 110.26 105.23 108.14 103.21 106.83 102.43 107.12 100.73 106.34 94.27 107.5 91.57 107.54 90.94 109.09 89.65 110.82 90.18"/>
        <polygon class="cls-36" points="112.83 81.5 112.34 85.66 111.3 90.07 109.02 90.94 105.76 90.94 101.94 90.16 101.41 83.51 101.41 80.7 103.85 77.67 111.07 77.67 112.83 81.5"/>
        <polygon class="cls-75" points="109.02 60.98 109.63 62.88 108 67.06 105.23 63.25 104.89 60.7 101.25 62.64 101.51 67.86 103.19 73.88 101.93 76.68 101.17 80.75 103.11 82.19 107.4 82.74 107.79 79.24 108.12 82.74 111.04 82.26 113.08 81.39 112.75 77.06 111.91 74.12 112.01 70.53 112.71 69.64 112.91 67.89 111.67 63.45 111.63 61.95 111.17 61.13 109.02 60.98"/>
        <polygon class="cls-78" points="108.38 69.35 108.13 70.85 107.79 79.24 108.35 70.86 108.68 69.35 108 67.06 108.38 69.35"/>
        <polygon class="cls-9" points="110.71 54.5 111.17 56.54 110.94 57.01 111.17 57.68 110.5 61.09 109.58 61.55 107.59 61.02 106.3 59.85 106.03 58.9 105.36 58.42 104.23 57.5 104.61 54.84 108.4 53.91 110.71 54.5"/>
        <polygon class="cls-36" points="104.28 51.89 103.11 52.26 101.75 54.19 101.56 56.71 102.92 59.73 104.28 58.71 105.16 54.74 104.28 51.89"/>
        <polygon class="cls-75" points="105.16 51.89 105.79 52.51 105.79 53.4 105.16 54.02 104.28 54.02 103.65 53.4 103.65 52.51 104.28 51.89 105.16 51.89"/>
        <polygon class="cls-77" points="106.15 51.89 108.38 51.89 110.29 53.56 110.71 54.5 109.86 55.3 107.42 55.66 106.69 56.19 106.66 57.11 106.64 57.73 106.31 57.58 105.77 56.88 105.04 56.93 105.04 57.6 105.36 58.43 103.91 58.01 103.11 55.91 103.89 53.44 104.85 52.45 106.15 51.89"/>
        <polygon class="cls-72" points="91.23 69.38 90.38 70.18 90.54 71.56 91.23 71.41 91.6 70.43 91.23 69.38"/>
        <polygon class="cls-9" points="90.35 69.3 89.27 68.73 88.11 68.73 86.27 68.55 86.41 68.93 87.79 69.38 87.71 69.69 86.79 70.18 85.27 70.27 84.85 71.01 85.48 71.31 87.84 71.67 89.68 70.64 90.54 70.76 90.85 70.04 90.35 69.3"/>
        <polygon class="cls-44" points="91.77 69.86 90.35 69.3 90.3 70.12 89.68 70.64 91.26 71.55 91.85 70.74 91.77 69.86"/>
        <polygon class="cls-78" points="101.25 62.64 102.52 63.53 102.52 66.03 97.93 74.25 95.84 74.58 90.54 71.56 91.15 70.6 91.23 69.38 96.09 71.37 100.09 63.31 101.25 62.64"/>
        <polygon class="cls-72" points="109.68 77.33 108.53 76.58 108.82 75.16 109.85 75.19 110.38 76.5 109.68 77.33"/>
        <polygon class="cls-9" points="108.29 75.63 106.67 75.07 104.94 75.07 105.03 75.54 106.35 75.81 105.71 76.39 104.15 76.66 103.46 77.48 105.17 78.3 107.54 77.79 108.54 77.19 108.82 76 108.29 75.63"/>
        <polygon class="cls-44" points="108.9 75.32 108.11 75.57 108.67 76.09 108.54 77.19 110.13 76.68 110.13 75.16 108.9 75.32"/>
        <polygon class="cls-78" points="113.73 71.7 108.82 75.16 109.62 76.02 109.68 77.33 114.95 74.69 116.76 72.22 113.73 71.7"/>
        <polygon class="cls-78" points="103.46 69.64 104.23 70.63 105.71 70.99 112.15 70.34 105.69 71.37 104.03 70.91 103.46 69.64"/>
        <polygon class="cls-13" points="107.57 132.15 108.32 132.58 108.32 136.12 103.99 138.62 97.87 138.62 97.12 138.18 107.57 132.15"/>
        <polygon class="cls-3" points="106.98 131.81 107.57 132.15 97.12 138.18 96.53 137.84 106.98 131.81"/>
        <path class="cls-13" d="M102.59,130.08h1.4l2.99,1.73-10.45,6.03-2.99-1.73v-.81l9.05-5.23ZM97.41,130.35l2.13,1.23-5.77,3.33,3.51-2.03-2.13-1.23,2.26-1.3Z"/>
        <polygon class="cls-74" points="102.14 130.08 102.59 130.08 93.54 135.31 93.54 135.04 93.77 134.91 99.55 131.58 99.55 131.58 102.14 130.08"/>
        <polygon class="cls-37" points="97.87 130.08 102.14 130.08 99.55 131.58 99.55 131.58 97.41 130.35 97.87 130.08"/>
        <polygon class="cls-63" points="95.16 131.65 97.29 132.88 93.78 134.91 93.54 135.04 93.54 132.58 95.16 131.65"/>
        <polygon class="cls-36" points="99.97 134.49 99.97 135.36 99.6 135.84 98.45 135.84 97.81 134.86 96.6 133.58 96.38 132.1 97.35 131.24 99.97 134.49"/>
        <polygon class="cls-9" points="97.32 131.59 96.95 132.3 97.72 134.02 97.98 132.32 97.32 131.59"/>
        <polygon class="cls-36" points="100.63 134.98 100.63 136.1 101.04 137.14 102.36 137.29 104.24 135.97 105.8 135.18 106.72 133.81 106.02 132.83 103.68 132.99 100.63 134.98"/>
        <polygon class="cls-9" points="104.76 132.92 105.33 133.12 105.33 133.73 102.99 135.37 102.48 134.15 104.76 132.92"/>
        <polygon class="cls-77" points="95.3 108.79 95.47 113.8 96.82 119.33 96.52 124.62 97.32 132.67 97.61 134.08 99.59 135.09 101.3 133.28 100.51 119.74 101.3 110.03 99.29 107.92 95.3 108.79"/>
        <polygon class="cls-72" points="96.51 109.68 101.3 110.03 101.3 121.81 100.38 125.15 100.33 135.07 101.04 136.16 103.24 135.64 104.75 133.11 105.09 121.5 107.15 112.14 107.55 109.15 105.09 106.42 96.42 106.42 95.3 108.79 96.51 109.68"/>
        <polygon class="cls-10" points="92.05 102.46 96.93 101.83 97.32 100.67 97.1 99.32 94.25 99.46 91.88 100.38 92.05 102.46"/>
        <polygon class="cls-9" points="107.16 102.74 106.4 102.2 106.44 104 107.16 105.7 107.86 104.91 107.96 104.51 107.8 103.45 107.16 102.74"/>
        <polygon class="cls-44" points="108.42 101.96 107.16 102.74 107.33 103.77 107.96 104.51 109.48 104.01 108.42 101.96"/>
        <polygon class="cls-61" points="97.32 90.31 99.24 90.03 100.31 89.15 103.9 89.32 104.6 90.03 106.56 90.68 108.3 92.66 108.51 95.39 107.64 96.22 106.05 100.28 106.84 102.6 107.76 108.71 106.93 110.38 104.16 110.95 101.86 111.2 101.17 108.82 100.62 111.16 98.45 110.86 96.07 110.07 95.06 108.4 96 102.71 96.87 100.2 96.06 96.89 95.41 95.39 95.64 91.3 97.32 90.31"/>
        <polygon class="cls-44" points="99.57 88.95 99.24 90.03 100.45 90.68 102.02 90.8 103.94 90.51 104.6 90.03 104.27 88.95 99.57 88.95"/>
        <polygon class="cls-18" points="102.62 79.5 102.14 79.03 100.73 79.12 99.13 80.64 97.48 84.13 97.59 86.95 97.97 86.95 97.99 88.6 98.82 88.84 98.69 89.01 99.97 90.03 102.25 90.03 102.99 89.72 102.99 90.03 104.56 89.63 105.9 88 106.56 85.23 105.92 82.42 104.01 79.56 102.93 79.12 102.62 79.5"/>
        <polygon class="cls-57" points="103.2 81.68 103.55 81.14 102.62 79.5 103.2 81.68"/>
        <polygon class="cls-50" points="95.48 99.4 94.22 101.13 94.1 100.51 95 99.4 95.48 99.4"/>
        <polygon class="cls-10" points="97.32 90.31 96.2 92.62 96.06 97.02 93.82 102.03 92.14 102.49 91.11 102.13 90.62 100.61 93.66 92.73 94.97 90.45 97.32 90.31"/>
        <polygon class="cls-10" points="106.56 90.68 107.37 92.89 107.64 96.22 110.99 100.28 108.13 101.89 108.09 102.88 108.49 103.74 109.35 104.25 114.29 102.49 114.99 100.44 109.88 92.43 108.16 90.68 106.56 90.68"/>
        <polygon class="cls-50" points="110.99 100.28 112.37 101.67 111.68 101.5 110.99 100.28"/>
        <polygon class="cls-10" points="99.29 101.93 100.19 102.49 104.57 101.67 99.29 101.93"/>
      </g>
    </g>
  </g>
</svg>