<?xml version="1.0" encoding="UTF-8"?>
<svg id="_圖層_2" data-name="圖層_2" xmlns="http://www.w3.org/2000/svg" viewBox="0 0 58.88 54.42">
  <defs>
    <style>
      .cls-1 {
        fill: none;
        stroke: #ea5504;
        stroke-miterlimit: 10;
        stroke-width: .75px;
      }

      .cls-2 {
        fill: #ea5504;
      }
    </style>
  </defs>
  <g id="_圖層_1-2" data-name="圖層_1">
    <g>
      <path class="cls-2" d="M14.29,12.84c1.25,1.25,2.43,2.42,3.6,3.6.44.45.41.98-.07,1.24-.38.21-.69.05-.96-.22-1.11-1.11-2.22-2.22-3.33-3.33-.06-.06-.13-.12-.26-.24,0,.76,0,1.45,0,2.14,0,.17.02.33,0,.49-.07.38-.3.61-.7.63-.38.02-.72-.26-.72-.65-.02-1.49-.02-2.99,0-4.49,0-.38.29-.61.69-.61,1.43,0,2.87,0,4.31,0,.43,0,.72.3.73.69.01.41-.29.73-.73.73-.82.01-1.64,0-2.55,0"/>
      <path class="cls-2" d="M42,13.84c-1.24,1.24-2.4,2.41-3.55,3.57-.23.23-.48.42-.83.33-.58-.15-.73-.81-.28-1.27.88-.9,1.77-1.78,2.66-2.67.3-.3.6-.6.98-.97-.86,0-1.62,0-2.38,0-.6,0-.93-.26-.92-.73,0-.46.32-.71.9-.71,1.35,0,2.69,0,4.04,0,.56,0,.81.26.81.82,0,1.35,0,2.69,0,4.04,0,.57-.27.89-.72.88-.46,0-.71-.32-.71-.89,0-.76,0-1.52,0-2.41"/>
      <path class="cls-2" d="M40.98,41.57c-1.04-1.03-2-2-2.97-2.97-.22-.22-.45-.44-.66-.67-.35-.37-.36-.76-.05-1.07.31-.31.71-.31,1.07.05,1.1,1.08,2.18,2.17,3.27,3.27.1.1.17.23.26.34.04-.02.07-.05.11-.07,0-.76,0-1.51,0-2.27,0-.6.26-.93.73-.92.46,0,.71.32.71.9,0,1.35,0,2.69,0,4.04,0,.57-.24.81-.81.81-1.36,0-2.72,0-4.08,0-.53,0-.84-.27-.85-.71,0-.44.31-.72.83-.72.79,0,1.57,0,2.45,0"/>
      <path class="cls-2" d="M14.4,41.57c.78,0,1.55,0,2.33,0,.53,0,.84.28.84.72,0,.44-.32.71-.85.71-1.38,0-2.75,0-4.13,0-.51,0-.77-.26-.77-.76,0-1.39,0-2.78,0-4.17,0-.5.28-.8.7-.81.44,0,.73.31.73.83,0,.79,0,1.57,0,2.46.51-.51.94-.95,1.38-1.38.74-.74,1.48-1.48,2.22-2.22.38-.38.78-.4,1.1-.09.32.32.31.72-.07,1.1-1.07,1.08-2.15,2.16-3.24,3.23-.1.1-.24.17-.35.25.03.04.07.08.1.12"/>
      <path class="cls-2" d="M26.91,7.39c-.55.56-1.03,1.04-1.51,1.52-.41.4-.81.44-1.14.12-.33-.32-.29-.73.11-1.14.9-.9,1.79-1.8,2.69-2.7.37-.36.76-.36,1.13,0,.9.9,1.8,1.8,2.7,2.7.39.4.43.82.12,1.14-.32.32-.74.28-1.14-.12-.49-.48-.97-.97-1.46-1.46-.11.15-.06.3-.06.44,0,1.59,0,3.17,0,4.76,0,.57-.26.89-.71.9-.46,0-.72-.32-.72-.88,0-1.72,0-3.44,0-5.29"/>
      <path class="cls-2" d="M47.47,27.93c-1.86,0-3.59,0-5.32,0-.27,0-.51-.04-.69-.25-.18-.22-.24-.47-.12-.75.15-.33.41-.44.76-.44,1.6,0,3.2,0,4.8,0h.44s.05-.06.07-.09c-.5-.48-.99-.96-1.49-1.43-.23-.22-.39-.46-.3-.79.14-.52.77-.74,1.17-.36,1.01.96,1.99,1.94,2.95,2.94.28.29.25.67-.04.97-.94.96-1.9,1.91-2.86,2.85-.33.32-.76.31-1.04.03-.3-.3-.29-.73.05-1.07.5-.51,1.02-1.01,1.62-1.59"/>
      <path class="cls-2" d="M7.79,26.49c1.87,0,3.6,0,5.33,0,.5,0,.79.22.85.62.07.46-.29.81-.83.81-1.74,0-3.47,0-5.32,0,.4.4.75.75,1.1,1.1.17.17.34.33.5.51.31.34.32.75.04,1.04-.29.3-.72.3-1.08-.04-.66-.65-1.31-1.31-1.97-1.96-.28-.28-.56-.54-.83-.82-.34-.35-.34-.76,0-1.1.91-.91,1.82-1.82,2.73-2.72.38-.38.78-.41,1.11-.1.33.32.3.74-.1,1.14-.48.48-.98.96-1.55,1.52"/>
      <path class="cls-2" d="M28.35,47.02c.56-.56,1.05-1.05,1.54-1.54.39-.38.78-.41,1.1-.11.33.32.31.74-.09,1.14-.89.9-1.79,1.8-2.69,2.7-.39.39-.77.38-1.16,0-.89-.89-1.78-1.78-2.66-2.67-.41-.41-.45-.81-.13-1.14.33-.34.74-.3,1.17.13.47.47.94.96,1.41,1.44.13-.15.08-.29.08-.41,0-1.6,0-3.2,0-4.8,0-.58.25-.89.7-.9.47,0,.73.32.73.92,0,1.57,0,3.14,0,4.71v.53Z"/>
      <path class="cls-2" d="M34.87,34.19c-.19.21-.32.27-.57.07-.33-.26-.69-.46-1.05-.67-.18-.1-.25-.18-.17-.41.52-1.6.82-3.24.85-4.92,0-.29.12-.34.38-.33.51.02,1.02,0,1.53,0s1.02,0,1.53,0c.21,0,.3,0,.27.28-.25,2.31-1.19,4.29-2.76,5.98M31.48,36.48c.33-.57.6-1.04.86-1.52.09-.17.18-.15.31-.07.25.16.5.32.78.5-.6.45-1.21.78-1.96,1.09M28.58,32.15c-.22-.02-.23-.1-.23-.28,0-.61,0-1.23,0-1.84s0-1.23,0-1.84c0-.21.05-.28.27-.28,1.21.01,2.42,0,3.63,0,.19,0,.26.05.25.25-.06,1.51-.33,2.99-.76,4.44-.06.19-.16.2-.33.14-.91-.34-1.86-.53-2.83-.6M31.05,34.34c-.58,1.12-1.26,2.16-2.47,2.73-.05.02-.11.03-.23.05,0-1.13,0-2.22,0-3.31,0-.21.08-.25.26-.23.78.1,1.55.25,2.3.51.13.05.22.08.14.24M28.34,22.54c0-.21.06-.27.27-.28.94-.08,1.86-.26,2.74-.59.24-.09.33-.04.4.21.41,1.4.66,2.81.73,4.27.01.27-.04.37-.33.35-.58-.02-1.17,0-1.75,0s-1.2,0-1.8,0c-.21,0-.28-.05-.28-.27.01-1.23,0-2.45,0-3.68M28.35,17.29c.55.15.94.45,1.29.79.58.55.99,1.22,1.37,1.92.11.2.06.27-.14.34-.74.24-1.49.39-2.26.49-.19.02-.26-.02-.26-.23.01-1.09,0-2.18,0-3.31M33.27,18.89s.11.11.1.12c-.22.25-.52.4-.81.55-.24.12-.23-.16-.3-.27-.27-.42-.51-.86-.8-1.35.68.25,1.25.59,1.8.96M34.97,20.33c1.5,1.67,2.42,3.6,2.65,5.84.03.26,0,.34-.28.33-.52-.02-1.05,0-1.57,0-.49,0-.99-.01-1.48,0-.27.01-.36-.05-.37-.34-.04-1.68-.34-3.32-.86-4.92-.08-.24,0-.31.17-.41.31-.17.64-.34.91-.57.33-.28.53-.26.82.07M26.91,35.37c0,.48-.02.96,0,1.43.02.34-.09.33-.35.21-.76-.38-1.31-.98-1.77-1.66-.82-1.2-.82-1.2.57-1.54.38-.09.76-.13,1.14-.21.29-.06.43-.01.41.34-.03.47,0,.96,0,1.43M23.49,32.53c-.41-1.4-.66-2.81-.73-4.27-.01-.28.06-.35.34-.35,1.17.02,2.33.01,3.5,0,.25,0,.33.07.32.32-.02.61,0,1.23,0,1.84s0,1.17,0,1.75c0,.2-.01.31-.28.33-.93.06-1.83.26-2.7.57-.24.09-.36.09-.44-.2M21.85,35.43s.06-.09.09-.11q.79-.59,1.29.26c.17.29.35.57.58.93-.76-.3-1.38-.64-1.97-1.07M20.2,33.98c-1.47-1.65-2.33-3.57-2.57-5.77-.03-.28.07-.29.27-.28.52,0,1.05,0,1.57,0s1.04,0,1.57,0c.21,0,.28.07.29.28.05,1.72.34,3.4.88,5.04.06.17,0,.24-.14.31-.31.18-.61.36-.91.56-.53.35-.53.35-.96-.13M20.3,20.31c.25-.27.43-.38.75-.09.24.22.53.39.83.53.32.15.39.3.27.64-.51,1.51-.76,3.07-.81,4.66-.01.33-.08.48-.45.45-.49-.04-.99,0-1.48,0s-1.02,0-1.53,0c-.19,0-.29,0-.26-.26.24-2.27,1.15-4.24,2.69-5.92M23.79,17.92c-.33.57-.62,1.07-.9,1.58-.08.14-.17.09-.26.04-.26-.16-.55-.3-.78-.54.59-.42,1.21-.77,1.94-1.08M26.68,22.26c.22.02.23.11.23.28,0,.63,0,1.26,0,1.89s0,1.2,0,1.79c0,.22-.06.28-.28.28-1.2-.01-2.39-.01-3.59,0-.24,0-.3-.06-.29-.3.06-1.48.33-2.93.74-4.36.07-.24.2-.24.39-.17.9.33,1.83.52,2.79.59M24.2,20.1c.6-1.19,1.32-2.27,2.71-2.85,0,1.17,0,2.27,0,3.37,0,.19-.07.23-.24.21-.8-.1-1.59-.24-2.35-.52-.11-.04-.2-.05-.13-.2M27.81,15.71c-6.5,0-11.67,5.07-11.68,11.47,0,6.3,5.01,11.4,11.26,11.52,6.53.12,11.71-5.14,11.72-11.47.01-6.29-5.12-11.51-11.31-11.52"/>
      <path class="cls-1" d="M57.99,27.21l-3.95-1.82v-11.92c0-7.23-5.86-13.09-13.09-13.09H13.47C6.24.38.38,6.24.38,13.47v27.48c0,7.23,5.86,13.09,13.1,13.09h27.48c7.23,0,13.09-5.86,13.09-13.09v-11.92l3.95-1.82Z"/>
    </g>
  </g>
</svg>