<?xml version="1.0" encoding="UTF-8"?>
<svg xmlns="http://www.w3.org/2000/svg" version="1.1" viewBox="0 0 280 240">
  <defs>
    <style>
      .cls-1, .cls-2 {
        fill: #685750;
      }

      .cls-3 {
        fill: #3e6467;
      }

      .cls-4 {
        fill: #362c28;
      }

      .cls-5 {
        fill: #d0d1d0;
      }

      .cls-6 {
        fill: #a09484;
      }

      .cls-7 {
        fill: #6e1b1d;
      }

      .cls-8 {
        fill: #912123;
      }

      .cls-9 {
        fill: #826748;
      }

      .cls-10 {
        fill: #841e1f;
      }

      .cls-11 {
        fill: #15425a;
      }

      .cls-12 {
        fill: #553718;
      }

      .cls-13 {
        fill: #e95504;
      }

      .cls-14 {
        fill: #dbb75e;
      }

      .cls-15 {
        fill: #736556;
      }

      .cls-16 {
        fill: #bdbc6f;
      }

      .cls-17 {
        fill: #f5c055;
      }

      .cls-18 {
        fill: #8f4d39;
      }

      .cls-19 {
        fill: #f2e17a;
      }

      .cls-20 {
        fill: #ebc2b1;
      }

      .cls-21 {
        fill: #be3f30;
      }

      .cls-22 {
        fill: #d4dd5e;
      }

      .cls-23 {
        fill: #54443f;
      }

      .cls-24 {
        fill: #4183a0;
      }

      .cls-25 {
        fill: #295f79;
      }

      .cls-26 {
        fill: #f3ede7;
      }

      .cls-27, .cls-28 {
        fill: #040000;
      }

      .cls-27, .cls-28, .cls-29, .cls-30, .cls-2, .cls-31 {
        isolation: isolate;
      }

      .cls-27, .cls-29 {
        opacity: .1;
      }

      .cls-28, .cls-30 {
        opacity: .3;
      }

      .cls-32, .cls-29, .cls-30 {
        fill: #0a0707;
      }

      .cls-33 {
        fill: #c3a294;
      }

      .cls-34 {
        fill: #fff;
      }

      .cls-2, .cls-35, .cls-31 {
        opacity: .5;
      }

      .cls-36 {
        fill: #68441e;
      }

      .cls-37 {
        fill: #cc6928;
      }

      .cls-38 {
        fill: #c5a3ca;
      }

      .cls-39 {
        fill: #784a21;
      }

      .cls-40 {
        fill: #8c6987;
      }

      .cls-41 {
        fill: #5d98a6;
      }

      .cls-42 {
        fill: #a19a93;
      }

      .cls-43 {
        fill: #b52822;
      }

      .cls-44 {
        fill: #e4dfdb;
      }

      .cls-45 {
        fill: #de5b43;
      }

      .cls-46 {
        fill: #b2a492;
      }

      .cls-47 {
        fill: #87c4c3;
      }

      .cls-48 {
        fill: #201a1a;
      }

      .cls-49 {
        fill: #673020;
      }

      .cls-50 {
        fill: #c68f4c;
      }

      .cls-51 {
        fill: #e95a50;
      }

      .cls-52 {
        fill: #3a9291;
      }

      .cls-31 {
        fill: #586fa4;
      }

      .cls-53 {
        fill: #5d4339;
      }

      .cls-54 {
        fill: #e0d3c2;
      }

      .cls-55 {
        fill: #f3aa53;
      }

      .cls-56 {
        fill: #a89966;
      }

      .cls-57 {
        fill: #275a75;
      }
    </style>
  </defs>
  <!-- Generator: Adobe Illustrator 28.6.0, SVG Export Plug-In . SVG Version: 1.2.0 Build 709)  -->
  <g>
    <g id="_圖層_2">
      <g id="_圖層_1-2">
        <g>
          <rect class="cls-34" width="280" height="240"/>
          <g>
            <path class="cls-13" d="M49.7,32.6c-.9.6-1.7,1.3-2.1,2.1h3.9v.8h-5.3v-.6c.5-1,1.3-1.9,2.4-2.7,1.3-.9,1.8-1.6,1.7-2.2,0-.8-.5-1.3-1.4-1.3-.8,0-1.3.5-1.6,1.5l-1-.3c.4-1.4,1.3-2,2.8-2,1.5,0,2.3.8,2.4,2.1.1.9-.5,1.8-1.8,2.6h0ZM52.7,33.5c0-1,.6-1.7,1.6-1.9h0c-.8-.3-1.3-.9-1.3-1.8.1-1.3,1-2,2.5-2,1.5,0,2.3.8,2.5,2,0,.9-.5,1.5-1.4,1.7h0c1.1.3,1.6.9,1.7,2,0,1.4-1,2.1-2.9,2.1-1.7,0-2.6-.8-2.7-2.1h0ZM53.9,33.5c0,.9.6,1.3,1.6,1.4,1,0,1.5-.5,1.6-1.3,0-.9-.6-1.4-1.6-1.5-1,0-1.5.6-1.5,1.5h0ZM56.8,29.9c0-.8-.5-1.2-1.3-1.3-.8,0-1.3.5-1.3,1.2,0,.8.5,1.2,1.3,1.3.8-.1,1.3-.5,1.3-1.3h0ZM62.1,35.6c-1.5,0-2.4-.7-2.8-2l1.1-.3c.2,1,.7,1.5,1.6,1.5,1,0,1.5-.6,1.6-1.7,0-1.1-.6-1.7-1.6-1.7-.7,0-1.2.3-1.5.7h-.9s.3-4.2.3-4.2h4.4v1h-3.4l-.2,2.3c.4-.4,1-.6,1.6-.6,1.6,0,2.4.9,2.5,2.5,0,1.7-.9,2.5-2.7,2.6h0ZM68.8,36.2v-4.6c0,0-.1.2-.2.4-.2.3-.3.6-.4.7,0,0,0-.2,0-.3,0-.5-.1-.8-.2-1,.6-1.1,1.1-2.5,1.4-4.1l.9.2c-.2.7-.4,1.4-.6,2.1v6.6h-.9ZM70.6,36.2v-8.4h6.1v8.4h-.9v-.5h-4.3v.5h-.9ZM71.4,28.6v6.3h4.3v-6.3h-4.3ZM71.8,30.5v-.7h1.4v-.8h.8v.8h1.4v.7h-1.4v.9h1v2.7h-2.9v-2.7h1v-.9h-1.4ZM72.9,32.2v1.2h1.4v-1.2h-1.4Z"/>
            <path class="cls-13" d="M23.3,43.2v-.7h2.8v-1.8h.9v1.8h1.2v-1.8h.9v1.8h2.9v.7h-2.5.5c0,.1-.1.2-.3.4-.2.2-.3.4-.4.5h2.2v.7h-3.5v.6h2.9v.7h-2.9v.6h3.8v.7h-3.1c.7.5,1.8.8,3.3,1.1-.2.3-.3.5-.5.8-1.6-.4-2.8-.9-3.6-1.5v1.7h-1v-1.7c-.8.6-2,1.2-3.6,1.6,0,0-.1-.3-.3-.5,0-.2-.1-.3-.2-.4,1.4-.2,2.5-.6,3.3-1.2h-3.1v-.7h3.8v-.6h-3v-.7h3v-.6h-3.5v-.7h2.2l-.6-.8h.5c0,0-2.5,0-2.5,0h0ZM24.9,42.4c-.1-.2-.4-.4-.7-.8-.2-.2-.3-.3-.4-.4l.7-.5c.4.4.8.7,1.1,1.1l-.7.5h0ZM26.3,43.2l.7.8h1.4l.7-.8h-2.8ZM31.5,41.2l-1.1,1.2-.7-.5c.1-.1.4-.4.8-.7.1-.2.3-.3.3-.4l.7.5h0ZM34.6,45.9c-.4.9-.9,1.7-1.5,2.3l-.3-1.1c.6-.7,1.2-1.4,1.5-2.3h-1.4v-.8h1.7c-.2-.2-.6-.6-1.2-1h0c0,0,.6-.6.6-.6l.8.7.9-1.1h-2.6v-.8h3.6v.8l-1.3,1.6.2.2-.3.3h1.5v.6c.8-.2,1.4-.4,1.8-.6-.3-.2-.6-.6-.8-.9-.2.2-.4.4-.6.6l-.5-.7c.7-.6,1.3-1.4,1.7-2.3h1c-.1.4-.3.6-.4.8h2.9v.8h-.5c-.3.6-.8,1.1-1.3,1.6.4.2,1,.4,1.9.6-.2.3-.3.6-.4.8-.8-.2-1.6-.5-2.2-.8-.6.4-1.3.7-2.2.9,0-.1-.2-.4-.4-.8v.2l-.3,1.6s-.2,0-.3,0c-.2,0-.2,0-.3,0l.3-1.5h-.7v3.6c0,.7-.3,1-1,1-.2,0-.5,0-1,0,0,0,0-.2,0-.4,0-.2,0-.3-.1-.4h.8c.4,0,.5-.1.5-.4v-2.2h0ZM40,49.4h-1.2c0-.3-.1-.6-.2-.9.3,0,.6,0,1.1,0,.4,0,.6-.1.7-.6v-.5c0-.3,0-.6,0-.7h-1.4c-.1,1.1-.9,2.1-2.4,2.8-.1-.1-.3-.4-.6-.8,1.2-.5,1.9-1.2,2-2h-1.2v-.8h1.4v-.6h1c0,.2,0,.4,0,.6h2.3c0,.4,0,1-.1,1.7,0,.3,0,.5,0,.6,0,.8-.4,1.3-1.3,1.3h0ZM38.3,42.3c.2.5.6.8.9,1.1.3-.2.7-.6,1-1.1h-1.9ZM43,46.6h-.1l-.3-.8h.6c.3-.5.6-1,.8-1.5-.3-.3-.8-.7-1.6-1.3,0,0,0,0-.1,0l.5-.6.4.3c.5-.7.8-1.4,1-2l.9.3c-.2.2-.4.6-.7,1.1-.3.5-.5.8-.7,1.1.1,0,.3.2.5.4,0,0,0,0,.1,0,0-.2.2-.4.4-.7.2-.3.3-.6.4-.7l.8.4c-.2.2-.4.7-.8,1.2-.5.8-.9,1.4-1.2,1.8.2,0,.4,0,.7,0,.2,0,.3,0,.3,0l-.3-.7.7-.2c.3.6.5,1.2.7,1.9l-.7.2-.2-.4c0,0-.2,0-.4,0h-.2v3.3h-.8v-3.2c-.3,0-.7,0-1,.2h0ZM43.6,47.1c0,.6-.2,1.3-.3,2h-.7c.2-.6.3-1.2.4-2h.7q0,0,0,0ZM46.1,42.6v-.8h2.2v-1.2h1v1.2h2.1v.8h-2.5c-.3.5-.7,1.1-1.3,2h2.2c0,0-.7-1-.7-1l.7-.5c.6.7,1.2,1.4,1.7,2.2l-.7.5-.4-.6c-.2,0-.3,0-.5,0v2.8c0,.2,0,.3.3.3h.2c.2,0,.3,0,.4-.3,0-.3.1-.7.1-1.1l.7.3c0,.2,0,.4-.1.8,0,.2,0,.3,0,.3,0,.6-.5.8-1.1.8h-.4c-.7,0-1-.3-1-1v-3h-.8c0,.2,0,.4,0,.6v.4c0,1.3-.6,2.4-1.9,3.2-.2-.2-.4-.5-.6-.8,0,0,0,0,.2-.2,0,0,0,0,0,0h-.3c-.2-.4-.3-1-.6-1.6l.6-.2c.2.5.4,1.1.5,1.6.6-.4.9-1.1,1-2,0-.3,0-.7,0-1-.3,0-.6,0-.9.1l-.3-.9h.6c.5-.8.9-1.5,1.2-2h-1.6,0ZM52.2,43.1v-.8h4v.8h-4ZM52.5,44.4v-.7h3.5v.7h-3.5ZM52.5,45.7v-.7h3.5v.7h-3.5ZM52.6,49.4v-3.1h3.3v3.1h-.9v-.4h-1.5v.4s-.9,0-.9,0ZM52.7,41.7v-.7h3.1v.7h-3.1ZM53.5,47.1v1.2h1.5v-1.2h-1.5ZM56.3,44.7v-.9h1.9v-3.1h1v3.1h1.9v.9h-1.9v4.8h-1v-4.8h-1.9ZM65.6,46.2c0,1.5-1.1,2.6-2.9,3.4,0,0-.2-.3-.5-.6,0,0-.1-.2-.2-.2,1.5-.5,2.3-1.4,2.5-2.6,0-.2,0-.5,0-.7h-1.4v-.8c-.2.2-.5.4-.8.6-.2-.3-.4-.6-.6-.9,1.3-.8,2.2-1.9,2.8-3.1l.9.4c-.6,1.2-1.4,2.2-2.3,2.9h6c-1-.8-1.7-1.7-2.1-2.9h-1.2v-.8h1.8c.6,1.6,1.7,2.8,3.1,3.5-.2.2-.4.6-.6,1,0,0-.2-.1-.3-.2-.2,0-.4-.3-.7-.5,0,.3,0,.9,0,1.7,0,.7,0,1.2,0,1.5,0,1.1-.6,1.7-1.8,1.6-.2,0-.5,0-.8,0h-.6c0-.4-.1-.7-.2-1,.5,0,1,0,1.5,0,.6,0,.9-.3.9-.9,0-.8,0-1.5,0-2.2h-2.6c0,.3,0,.6-.1.8h0ZM71.7,43.3v-.9h1.2v-1.8h.9v1.8h1v.9h-1v1.3l.3-.3c0,0,.2.2.4.4.4.4.7.6.8.7l-.6.7-.9-.9v4.3h-.9v-4.4c-.3.8-.6,1.6-1.1,2.2-.1-.5-.2-.9-.3-1.3.5-.7.9-1.6,1.3-2.6h-1.1ZM76.4,44.9c0,2-.4,3.6-1.3,4.6-.2-.2-.4-.4-.8-.7.5-.6.8-1.2.9-1.8.2-.5.2-1.4.2-2.5v-3.2c1.3,0,2.8-.2,4.4-.4l.4.9c-1.1.2-2.4.3-3.8.4v1.7h4.2v.9h-1.5v4.5h-1v-4.5h-1.7ZM82.7,46.6c0,1.2-.3,2.2-.7,3-.1,0-.3-.3-.5-.5l-.2-.2c.4-.6.6-1.8.6-3.6v-4.2h2.8v7.4c0,.6-.3.9-.8.9-.2,0-.6,0-.9,0,0-.2,0-.4-.1-.7,0,0,0-.2,0-.2,0,0,.3,0,.6,0,.3,0,.5,0,.4-.4v-1.6h-1.1,0ZM82.7,41.9v1.5h1.1v-1.5h-1.1ZM82.7,45.4v.3h1.1v-1.6h-1.1v1.3h0ZM90,49.2c0,.2-.1.2-.2.3-.7-.4-1.3-.8-1.7-1.1-.4.3-.9.7-1.4,1.1l-.4-.6v.7h-.9v-8.4h4.4c0,.2,0,.4,0,.7,0,.3,0,.6,0,.7,0,.8-.4,1.2-1.3,1.2h-1.3c0-.2,0-.5-.2-.8h1c.5,0,.8-.2.8-.5v-.5h-2.6v2.4h3.6v.9c-.3,1-.7,1.8-1.2,2.4.4.4,1,.7,1.6,1,0,.1-.2.3-.3.6h0ZM86.2,48.5c.5-.2.9-.5,1.3-.9-.4-.6-.8-1.3-1.1-2.2l.5-.3h-.7v3.3h0ZM88.1,47c.4-.5.7-1.1.8-1.8h-1.7c.3.8.6,1.4.9,1.8h0ZM92.7,45.9c-.4.9-.9,1.7-1.4,2.3l-.3-1.1c.6-.7,1.2-1.4,1.5-2.3h-1.4v-.8h1.7c-.2-.2-.6-.6-1.2-1,0,0,0,0,0,0l.6-.6.8.7.9-1.1h-2.6v-.8h3.6v.8l-1.3,1.6.2.2-.3.3h1.5v.6c.8-.2,1.4-.4,1.8-.6-.3-.2-.6-.6-.8-.9-.2.2-.4.4-.6.6l-.5-.7c.7-.6,1.3-1.4,1.7-2.3h1c-.1.4-.3.6-.4.8h2.9v.8h-.4c-.3.6-.8,1.1-1.3,1.6.4.2,1.1.4,1.9.6-.2.3-.3.6-.4.8-.8-.2-1.6-.5-2.2-.8-.6.4-1.3.7-2.2.9,0-.1-.2-.4-.4-.8v.2l-.3,1.6s-.2,0-.3,0c-.2,0-.2,0-.3,0l.3-1.5h-.7v3.6c0,.7-.3,1-1,1-.2,0-.5,0-1,0,0,0,0-.2,0-.4,0-.2,0-.3-.1-.4h.8c.4,0,.5-.1.5-.4v-2.2h0ZM98.2,49.4h-1.2c0-.3-.1-.6-.2-.9.3,0,.6,0,1.1,0,.4,0,.6-.1.7-.6v-.5c0-.3,0-.6,0-.7h-1.4c-.1,1.1-.9,2.1-2.4,2.8-.1-.1-.3-.4-.6-.8,1.2-.5,1.9-1.2,2-2h-1.2v-.8h1.4v-.6h1c0,.2,0,.4,0,.6h2.3c0,.4,0,1-.1,1.7,0,.3,0,.5,0,.6,0,.8-.4,1.3-1.3,1.3h0ZM96.4,42.3c.2.5.6.8.9,1.1.3-.2.7-.6,1-1.1h-1.9Z"/>
            <g>
              <path class="cls-13" d="M27.8,59.3c1.3-1.3,1.8-2.1,1.8-2.8s-.3-.9-.8-.9-.7.2-.9.4c-.1,0-.2,0-.3,0,0,0,0-.1,0-.2.3-.4.9-.7,1.4-.7.8,0,1.3.5,1.3,1.3s-.1.7-.4,1.1c-.2.4-.8,1-1.4,1.6.6,0,1.4,0,2.1,0,0,.2-.2.4-.3.4,0,0-.4,0-.8,0-.8,0-1.5,0-1.9,0h0c0,0,.1-.4.1-.4h0Z"/>
              <path class="cls-13" d="M34.1,56.2c0,.5-.4.8-.8,1.1.6.3,1,.6,1,1.2s-.6,1.2-1.5,1.2-1.5-.7-1.5-1.1.4-.9.9-1.2c-.6-.3-.8-.7-.8-1.1,0-.7.5-1.2,1.4-1.2s1.3.4,1.3,1.1ZM33.6,58.6c0-.4-.3-.6-1-.9-.4.2-.7.6-.7.9s.4.8.9.8.8-.2.8-.7ZM32.1,56.2c0,.4.2.6.8.9.3-.2.6-.5.6-.9s-.3-.7-.7-.7-.7.2-.7.7Z"/>
              <path class="cls-13" d="M35,57.3c0-.5.4-1.8.5-2,.3,0,1.8,0,2-.1h0c0,.2,0,.4-.2.5-.1.1-.4.2-1.5.2,0,.2-.2.9-.2,1.1.3,0,.7.1,1,.2.8.2,1.2.6,1.2,1.3s-.9,1.6-1.9,1.6-.7,0-.8-.2c0,0-.2-.3-.2-.4h0c.1,0,.5.1.8.1.6,0,1.2-.3,1.2-1s-.3-.7-.8-.8c-.4-.1-.9-.2-1.2-.2h0Z"/>
              <path class="cls-13" d="M40.6,56c0-.4,0-.6,0-1,.2,0,.8-.1,1.2-.1,1.4,0,1.5.8,1.5,1.2s-.3.8-.6,1c.7.2,1,.7,1,1.2,0,1-.8,1.5-1.9,1.5s-.8,0-1.2-.1v-3.6h0ZM41.3,57c.2,0,.6,0,.9,0,.2,0,.5-.4.5-.8s-.3-.8-1-.8-.3,0-.4,0v1.6h0ZM41.3,59.3c0,0,.3,0,.5,0,.6,0,1.1-.3,1.1-1s-.5-.9-1.2-.9-.3,0-.4,0c0,0,0,1.8,0,1.8Z"/>
              <path class="cls-13" d="M44.5,57.3c0-.5,0-.7,0-.9.1,0,.4,0,.6,0s.1,0,.1.5v1.5c0,.8.4.9.8.9s.7-.2.8-.4v-2.2c0-.2,0-.2.1-.3.2,0,.4,0,.6,0,0,.2,0,.7,0,1.4v1.2c0,.4,0,.4.3.5h0c0,.2-.2.4-.4.4-.3,0-.5-.2-.5-.5-.2.2-.5.4-.6.4-.2,0-.3,0-.5,0-.8,0-1.1-.5-1.1-1.3v-1.3h0Z"/>
              <path class="cls-13" d="M50.3,56.6c0,.2,0,.4-.3.4-.1,0-.4-.1-.5-.1-.3,0-.5.2-.5.4s.1.3.3.4c.2.1.5.2.7.4.3.2.5.5.5.8,0,.7-.6,1-1.2,1s-.7,0-.8-.2c0,0-.1-.1-.1-.2,0-.1,0-.3.1-.3.2.2.6.3.9.3s.6-.2.6-.4-.1-.3-.4-.4c-.2-.1-.4-.2-.6-.3-.3-.2-.5-.4-.5-.8,0-.6.5-1,1.2-1s.6,0,.8.3h0Z"/>
              <path class="cls-13" d="M52,55.1c0,.2-.1.4-.4.4s-.4-.1-.4-.4.2-.4.4-.4c.2,0,.4.2.4.4ZM52,59.5c0,.1,0,.2-.2.2-.1,0-.3,0-.5,0,0-.3,0-.7,0-1.2v-1.3c0-.5,0-.7,0-.9.1,0,.5,0,.6,0s.1,0,.1.5v2.7h0Z"/>
              <path class="cls-13" d="M55.3,57.7c0-.6-.3-.9-.7-.9s-.7.2-.9.4v2.3c0,.2,0,.2-.2.2-.2,0-.3,0-.5,0,0-.3,0-.7,0-1.4v-1.3c0-.3,0-.4-.1-.5h0c0-.1.3-.3.4-.3.2,0,.3.4.3.6.3-.3.7-.6,1.2-.6.9,0,1.1.7,1.1,1.4v1c0,.4,0,.8,0,1-.2,0-.4,0-.6,0s-.1,0-.1-.1v-1.9Z"/>
              <path class="cls-13" d="M59.5,59.1c0,.2-.2.5-.3.6-.1,0-.4.2-.7.2-1.1,0-1.7-.6-1.7-1.7s.6-1.8,1.6-1.8,1.3.7,1.3,1.3c0,0,0,.2,0,.2,0,.1-.4.2-.7.3-.2,0-1,0-1.5,0,0,.7.5,1.2,1.1,1.2s.7-.1.9-.2h0s0,0,0,0ZM57.5,57.7c.5,0,1.2,0,1.3,0s.2,0,.2-.2c0-.4-.2-.8-.7-.8s-.8.3-.8.9h0Z"/>
              <path class="cls-13" d="M62.2,56.6c0,.2,0,.4-.3.4-.1,0-.4-.1-.5-.1-.3,0-.5.2-.5.4s.1.3.3.4c.2.1.5.2.7.4.3.2.5.5.5.8,0,.7-.6,1-1.2,1s-.7,0-.8-.2c0,0-.1-.1-.1-.2,0-.1,0-.3.1-.3.2.2.6.3.9.3s.6-.2.6-.4-.1-.3-.4-.4c-.2-.1-.4-.2-.6-.3-.3-.2-.5-.4-.5-.8,0-.6.5-1,1.2-1s.6,0,.8.3h0Z"/>
              <path class="cls-13" d="M65,56.6c0,.2,0,.4-.3.4-.1,0-.4-.1-.5-.1-.3,0-.5.2-.5.4s.1.3.3.4c.2.1.5.2.7.4.3.2.5.5.5.8,0,.7-.6,1-1.2,1s-.7,0-.8-.2c0,0-.1-.1-.1-.2,0-.1,0-.3.1-.3.2.2.6.3.9.3s.6-.2.6-.4-.1-.3-.4-.4c-.2-.1-.4-.2-.6-.3-.3-.2-.5-.4-.5-.8,0-.6.5-1,1.1-1s.6,0,.8.3h0Z"/>
              <path class="cls-13" d="M69.5,56.6c0,.2,0,.4-.3.4-.1,0-.4-.1-.5-.1-.3,0-.5.2-.5.4s.1.3.3.4c.2.1.5.2.7.4.3.2.5.5.5.8,0,.7-.6,1-1.2,1s-.7,0-.8-.2c0,0-.1-.1-.1-.2,0-.1,0-.3.1-.3.2.2.6.3.9.3s.6-.2.6-.4-.1-.3-.4-.4c-.2-.1-.4-.2-.6-.3-.3-.2-.5-.4-.5-.8,0-.6.5-1,1.2-1s.6,0,.8.3h0Z"/>
              <path class="cls-13" d="M72.3,59.1c0,.2,0,.3-.1.5-.2.1-.4.2-.7.2-.7,0-.9-.4-.9-1v-1.9c-.3,0-.4,0-.4-.2,0-.2.6-.6.7-.7,0,0,.2-.2.4-.2,0,.2,0,.4,0,.6h1.2c0,.4-.2.4-.4.4-.2,0-.3,0-.8,0,0,.8,0,1.6,0,1.9,0,.4.3.6.6.6s.4,0,.6-.2h0s0,0,0,0Z"/>
              <path class="cls-13" d="M75.7,59.3c0,.3-.2.5-.5.5s-.5-.2-.6-.5c-.2.2-.6.5-1,.5s-.9-.4-.9-.9c0-.8,1-1,1.4-1.1.1,0,.3,0,.4,0v-.2c0-.3-.2-.7-.7-.7s-.5.1-.7.3c-.2.1-.3,0-.4-.3.2-.2.8-.5,1.3-.5.8,0,1.2.6,1.2,1.3s0,1,0,1.5,0,.2.2.2.1,0,.2,0h0s0,0,0,0ZM74,59.3c.3,0,.5-.2.7-.4,0,0,0-.1,0-.3v-.5c-.6,0-1.2.3-1.2.7s.2.4.5.4Z"/>
              <path class="cls-13" d="M78.3,59.1c0,.2,0,.3-.1.5-.2.1-.4.2-.7.2-.7,0-.9-.4-.9-1v-1.9c-.3,0-.4,0-.4-.2,0-.2.6-.6.7-.7,0,0,.2-.2.4-.2,0,.2,0,.4,0,.6h1.2c0,.4-.2.4-.4.4-.2,0-.3,0-.8,0,0,.8,0,1.6,0,1.9,0,.4.3.6.6.6s.4,0,.6-.2h0s0,0,0,0Z"/>
              <path class="cls-13" d="M79.8,55.1c0,.2-.1.4-.4.4s-.4-.1-.4-.4.2-.4.4-.4c.2,0,.4.2.4.4ZM79.7,59.5c0,.1,0,.2-.2.2-.1,0-.3,0-.5,0,0-.3,0-.7,0-1.2v-1.3c0-.5,0-.7,0-.9.1,0,.5,0,.6,0s.1,0,.1.5v2.7h0Z"/>
              <path class="cls-13" d="M82.5,56.6c0,.2,0,.4-.3.4-.1,0-.4-.1-.5-.1-.3,0-.5.2-.5.4s.1.3.3.4c.2.1.5.2.7.4.3.2.5.5.5.8,0,.7-.6,1-1.2,1s-.7,0-.8-.2c0,0-.1-.1-.1-.2,0-.1,0-.3.1-.3.2.2.6.3.9.3s.6-.2.6-.4-.1-.3-.4-.4c-.2-.1-.4-.2-.6-.3-.3-.2-.5-.4-.5-.8,0-.6.5-1,1.2-1s.6,0,.8.3h0Z"/>
              <path class="cls-13" d="M85.3,59.1c0,.2,0,.3-.1.5-.2.1-.4.2-.7.2-.7,0-.9-.4-.9-1v-1.9c-.3,0-.4,0-.4-.2,0-.2.6-.6.7-.7,0,0,.2-.2.4-.2,0,.2,0,.4,0,.6h1.2c0,.4-.2.4-.4.4-.2,0-.3,0-.8,0,0,.8,0,1.6,0,1.9,0,.4.3.6.6.6s.4,0,.6-.2h0s0,0,0,0Z"/>
              <path class="cls-13" d="M86.8,55.1c0,.2-.1.4-.4.4s-.4-.1-.4-.4.2-.4.4-.4c.2,0,.4.2.4.4ZM86.7,59.5c0,.1,0,.2-.2.2-.1,0-.3,0-.5,0,0-.3,0-.7,0-1.2v-1.3c0-.5,0-.7,0-.9.1,0,.5,0,.6,0s.1,0,.1.5v2.7h0Z"/>
              <path class="cls-13" d="M90.3,59.1c0,.2,0,.4-.2.5-.2.1-.5.2-.8.2-.8,0-1.7-.4-1.7-1.7s.8-1.8,1.8-1.8.9.2,1,.3c0,.2-.1.4-.3.4-.2,0-.4-.1-.7-.1-.7,0-1.1.5-1.1,1.2s.7,1.2,1.2,1.2.6,0,.8-.2h0s0,0,0,0Z"/>
              <path class="cls-13" d="M93.8,59.3c0,.3-.2.5-.5.5s-.5-.2-.6-.5c-.2.2-.6.5-1,.5s-.9-.4-.9-.9c0-.8,1-1,1.4-1.1.1,0,.3,0,.4,0v-.2c0-.3-.2-.7-.7-.7s-.5.1-.7.3c-.2.1-.3,0-.4-.3.2-.2.8-.5,1.3-.5.8,0,1.2.6,1.2,1.3s0,1,0,1.5,0,.2.2.2.1,0,.2,0h0s0,0,0,0ZM92.1,59.3c.3,0,.5-.2.7-.4,0,0,0-.1,0-.3v-.5c-.6,0-1.2.3-1.2.7s.2.4.5.4Z"/>
              <path class="cls-13" d="M94.6,55.5c0-.4,0-.7,0-.8.2,0,.5-.1.6-.1s.1,0,.1.5v3.7c0,.4,0,.8,0,1-.1,0-.5,0-.6,0s0,0,0,0c0,0,0-4.2,0-4.2Z"/>
            </g>
            <g>
              <path class="cls-13" d="M40.7,65.9c0,.3-.2.5-.5.5s-.5-.2-.5-.5c-.2.2-.5.5-1,.5s-.9-.4-.9-.9c0-.8,1-1,1.5-1.1.1,0,.3,0,.4,0v-.2c0-.3-.2-.7-.7-.7s-.5.1-.7.3c-.2.1-.3,0-.4-.3.2-.2.8-.5,1.3-.5.8,0,1.2.6,1.2,1.3s0,1,0,1.5,0,.2.2.2.1,0,.2,0h0s0,0,0,0ZM38.9,65.9c.3,0,.5-.2.7-.4,0,0,0-.1,0-.3v-.5c-.6,0-1.2.3-1.2.7s.2.4.5.4Z"/>
              <path class="cls-13" d="M43.7,64.3c0-.6-.3-.9-.7-.9s-.7.2-.9.4v2.3c0,.2,0,.2-.2.2-.2,0-.3,0-.5,0,0-.3,0-.7,0-1.4v-1.3c0-.3,0-.4-.1-.5h0c0-.1.3-.3.4-.3.2,0,.3.4.3.6.3-.3.7-.6,1.2-.6.9,0,1.1.7,1.1,1.4v1c0,.4,0,.8,0,1-.2,0-.4,0-.6,0s-.1,0-.1-.1v-1.9Z"/>
              <path class="cls-13" d="M48,65.9c0,.3-.2.5-.5.5s-.5-.2-.5-.5c-.2.2-.5.5-1,.5s-.9-.4-.9-.9c0-.8,1-1,1.5-1.1.1,0,.3,0,.4,0v-.2c0-.3-.2-.7-.7-.7s-.5.1-.7.3c-.2.1-.3,0-.4-.3.2-.2.8-.5,1.3-.5.8,0,1.2.6,1.2,1.3s0,1,0,1.5,0,.2.2.2.1,0,.2,0h0s0,0,0,0ZM46.3,65.9c.3,0,.5-.2.7-.4,0,0,0-.1,0-.3v-.5c-.6,0-1.2.3-1.2.7s.2.4.5.4Z"/>
              <path class="cls-13" d="M48.8,62.1c0-.4,0-.7,0-.8.2,0,.5-.1.6-.1s.1,0,.1.5v3.7c0,.4,0,.8,0,1-.1,0-.5,0-.6,0s0,0,0,0c0,0,0-4.2,0-4.2Z"/>
              <path class="cls-13" d="M50.4,67.7c.3-.3.7-.9,1-1.6,0,0-.1-.2-.2-.3-.1-.3-.8-2-1.1-2.7.1,0,.4-.2.5-.2s.1,0,.2.1c.2.6.7,1.9.9,2.4.3-.7.7-1.9.8-2.5.1,0,.3,0,.4,0,.1,0,.1.1,0,.3-.2.8-.5,1.7-.9,2.6-.5,1-1.2,2.1-1.3,2.1s-.4-.1-.5-.2h0s0,0,0,0Z"/>
              <path class="cls-13" d="M55.6,63.2c0,.2,0,.4-.3.4-.1,0-.4-.1-.5-.1-.3,0-.5.2-.5.4s.1.3.3.4c.2.1.5.2.7.4.3.2.5.5.5.8,0,.7-.6,1-1.2,1s-.7,0-.8-.2c0,0-.1-.1-.1-.2,0-.1,0-.3.1-.3.2.2.6.3.9.3s.6-.2.6-.4-.1-.3-.4-.4c-.2-.1-.4-.2-.6-.3-.3-.2-.5-.4-.5-.8,0-.6.5-1,1.2-1s.6,0,.8.3h0Z"/>
              <path class="cls-13" d="M57.2,61.7c0,.2-.1.4-.4.4s-.4-.1-.4-.4.2-.4.4-.4c.2,0,.4.2.4.4ZM57.2,66.2c0,.1,0,.2-.2.2-.1,0-.3,0-.5,0,0-.3,0-.7,0-1.2v-1.3c0-.5,0-.7,0-.9.1,0,.5,0,.6,0s.1,0,.1.5v2.7h0Z"/>
              <path class="cls-13" d="M60,63.2c0,.2,0,.4-.3.4-.1,0-.4-.1-.5-.1-.3,0-.5.2-.5.4s.1.3.3.4c.2.1.5.2.7.4.3.2.5.5.5.8,0,.7-.6,1-1.2,1s-.7,0-.8-.2c0,0-.1-.1-.1-.2,0-.1,0-.3.1-.3.2.2.6.3.9.3s.6-.2.6-.4-.1-.3-.4-.4c-.2-.1-.4-.2-.6-.3-.3-.2-.5-.4-.5-.8,0-.6.5-1,1.2-1s.6,0,.8.3h0Z"/>
              <path class="cls-13" d="M64.5,63.2c0,.2,0,.4-.3.4-.1,0-.4-.1-.5-.1-.3,0-.5.2-.5.4s.1.3.3.4c.2.1.5.2.7.4.3.2.5.5.5.8,0,.7-.6,1-1.2,1s-.7,0-.8-.2c0,0-.1-.1-.1-.2,0-.1,0-.3.1-.3.2.2.6.3.9.3s.6-.2.6-.4-.1-.3-.4-.4c-.2-.1-.4-.2-.6-.3-.3-.2-.5-.4-.5-.8,0-.6.5-1,1.2-1s.6,0,.8.3h0Z"/>
              <path class="cls-13" d="M68,65.7c0,.2-.2.5-.3.6-.1,0-.4.2-.7.2-1.1,0-1.7-.6-1.7-1.7s.6-1.8,1.6-1.8,1.3.7,1.3,1.3c0,0,0,.2,0,.2,0,.1-.4.2-.7.3-.2,0-1,0-1.5,0,0,.7.5,1.2,1.1,1.2s.7-.1.9-.2h0ZM66,64.3c.5,0,1.2,0,1.3,0s.2,0,.2-.2c0-.4-.2-.8-.7-.8s-.8.3-.8.9h0Z"/>
              <path class="cls-13" d="M68.7,63.2c0-.1.3-.3.4-.3.2,0,.4.3.4.8.2-.5.6-.8.9-.8s.3,0,.4.2c0,.1,0,.3-.1.4,0,0-.1,0-.2,0,0,0-.2,0-.2,0-.2,0-.4.2-.6.5,0,.1,0,.2,0,.4v1.7c0,.1,0,.2-.1.2-.2,0-.4,0-.6,0,0-.3,0-.7,0-1.4v-1.3c0-.2,0-.4-.2-.5h0s0,0,0,0Z"/>
              <path class="cls-13" d="M72,63.1c.2.4.6,1.6.9,2.5.3-.7.8-2,1-2.6.2,0,.3,0,.4.1.1,0,0,.2,0,.4-.3.7-.6,1.3-1.1,2.6,0,.1-.1.2-.2.2-.1,0-.3,0-.4,0-.2-.5-.4-1.1-.9-2.2-.2-.6-.3-.9-.5-1.1.1,0,.4-.2.6-.2s.1,0,.2.2h0Z"/>
              <path class="cls-13" d="M75.8,61.7c0,.2-.1.4-.4.4s-.4-.1-.4-.4.2-.4.4-.4c.2,0,.4.2.4.4ZM75.7,66.2c0,.1,0,.2-.2.2-.1,0-.3,0-.5,0,0-.3,0-.7,0-1.2v-1.3c0-.5,0-.7,0-.9.1,0,.5,0,.6,0s.1,0,.1.5v2.7h0Z"/>
              <path class="cls-13" d="M79.3,65.8c0,.2,0,.4-.2.5-.2.1-.5.2-.8.2-.8,0-1.7-.4-1.7-1.7s.8-1.8,1.8-1.8.9.2,1,.3c0,.2-.1.4-.3.4-.2,0-.4-.1-.7-.1-.7,0-1.1.5-1.1,1.2s.7,1.2,1.2,1.2.6,0,.8-.2h0s0,0,0,0Z"/>
              <path class="cls-13" d="M82.5,65.7c0,.2-.2.5-.3.6-.1,0-.4.2-.7.2-1.1,0-1.7-.6-1.7-1.7s.6-1.8,1.6-1.8,1.3.7,1.3,1.3c0,0,0,.2,0,.2,0,.1-.4.2-.7.3-.2,0-1,0-1.5,0,0,.7.5,1.2,1.1,1.2s.7-.1.9-.2h0ZM80.5,64.3c.5,0,1.2,0,1.3,0s.2,0,.2-.2c0-.4-.2-.8-.7-.8s-.8.3-.8.9h0Z"/>
              <path class="cls-13" d="M85.2,63.2c0,.2,0,.4-.3.4-.1,0-.4-.1-.5-.1-.3,0-.5.2-.5.4s.1.3.3.4c.2.1.5.2.7.4.3.2.5.5.5.8,0,.7-.6,1-1.2,1s-.7,0-.8-.2c0,0-.1-.1-.1-.2,0-.1,0-.3.1-.3.2.2.6.3.9.3s.6-.2.6-.4-.1-.3-.4-.4c-.2-.1-.4-.2-.6-.3-.3-.2-.5-.4-.5-.8,0-.6.5-1,1.2-1s.6,0,.8.3h0Z"/>
            </g>
            <path class="cls-13" d="M97,72.4c1.3-.2,2.5-.3,3.7-.5,4.2-.8,7.4-2.8,8.8-7.1.3-1,.5-2.1.5-3.2,0-10.2,0-20.3,0-30.5,0-5.2-3.5-9.3-7.3-10.5-2.1-.7-4.3-.8-6.5-1.2-.8-.1-1.6-.2-2.4-.3-.9-.1-1.6.3-1.7,1-.1.7.4,1.2,1.3,1.4,2.2.3,4.4.6,6.6.9,3.7.5,6.8,3.5,7.5,7,0,.5,0,1,0,1.5,0,10,0,20.1,0,30.1,0,5.3-3.6,8-7.3,8.6-1.2.2-2.4.3-3.6.5-1.8.3-2.5,1.4-2,3.2.8,3.1,1.6,6.3,2.4,9.4,0,.2,0,.4.1.6.1,1.1-.5,1.6-1.5,1.3-.3,0-.7-.3-.9-.5-5.1-3.5-10.3-7-15.4-10.6-1.1-.8-2.1-1-3.5-.8-8.1,1.2-30.6,4.6-38.7,5.6-3.9.5-7.9.9-11.8,1.3-3.9.4-7.2-2.2-7.9-6.2-.1-.7-.2-1.3-.2-2,0-4.2,0-8.3,0-12.4s-.4-1.6-1.2-1.6-1.2.6-1.2,1.6c0,4.4,0,8.7,0,13.1,0,5.1,3.8,9.7,8.9,9.9,1.7,0,3.5,0,5.2-.3,8.1-1,16.3-2.1,24.4-3.2,2.9-.4,20.2-3.2,23.1-3.5.4,0,.9.1,1.2.4,5.3,3.6,10.6,7.2,15.9,10.9,1.7,1.2,3.6,1,4.9-.3,1.1-1.1,1.1-2.4.8-3.8-.8-3.1-1.5-6.1-2.3-9.1,0-.2,0-.3-.2-.7"/>
            <path class="cls-13" d="M14.5,34.4v14.3c0,.2,0,.5,0,.7.1.7.5,1.1,1.2,1.1.7,0,1-.4,1.1-1.1,0-.3,0-.5,0-.8v-28c0-2,.5-3.8,1.7-5.3,1.5-2,3.5-3,6-2.8,4.3.4,8.5.9,12.8,1.4,7.6,1,30.1,4,37.7,5,4.4.6,8.7,1.2,13.1,1.9,0,0,.2,0,.3,0,.8,0,1.4-.3,1.5-1,.1-.7-.3-1.3-1.1-1.4-3.2-.5-6.4-.9-9.6-1.4-6.1-.8-27-3.7-33-4.5-7-.9-14.1-1.6-21.1-2.5-5.1-.6-9.4,3.4-10.2,8.2-.1.7-.2,1.5-.2,2.2,0,4.6,0,9.2,0,13.8"/>
            <path class="cls-13" d="M217.2,58.6c-1.6,2.1-2.5,4.3-2.7,6.4h-1.2c.3-2,1.1-4.1,2.6-6.3h-3.8v-.9h5v.7h0ZM219.9,64.8c0,.9-.4,1.6-1.2,2l-.3-.4c.6-.3.9-.8.9-1.4h-.7v-1.3h1.3v1.1h0ZM223.9,65.1c-1.4,0-2.3-.6-2.6-1.9l1.1-.2c.2.9.7,1.3,1.5,1.3.9,0,1.4-.5,1.4-1.4,0-.8-.6-1.2-1.7-1.2h-.7v-.8h.5c1.1,0,1.6-.4,1.6-1.2,0-.8-.4-1.1-1.2-1.2-.8,0-1.3.4-1.4,1.3l-1.1-.2c.3-1.2,1.1-1.9,2.5-1.9,1.4,0,2.2.7,2.3,1.9,0,.9-.5,1.4-1.4,1.7,1,.2,1.6.8,1.6,1.8,0,1.3-.9,2-2.6,2.1h0ZM227.5,61.4c0-2.4.9-3.7,2.6-3.7,1.7,0,2.5,1.3,2.6,3.7,0,2.5-.9,3.7-2.6,3.7s-2.6-1.2-2.6-3.7h0ZM228.6,61.4c0,1.9.5,2.9,1.4,2.9,1,0,1.4-.9,1.4-2.9,0-2-.5-3-1.4-2.9-1,0-1.4.9-1.4,2.9h0ZM233.7,61.4c0-2.4.9-3.7,2.6-3.7,1.7,0,2.5,1.3,2.6,3.7,0,2.5-.9,3.7-2.6,3.7s-2.6-1.2-2.6-3.7h0ZM234.9,61.4c0,1.9.5,2.9,1.4,2.9,1,0,1.4-.9,1.4-2.9,0-2-.5-3-1.4-2.9-1,0-1.4.9-1.4,2.9h0ZM247.3,58.8v-.4h-2.1v.4h-.9v-.4h-2.2v-.7h2.2v-.6h.9v.6h2.1v-.6h.9v.6h2.2v.7h-2.2v.4h-.9ZM243.1,61.9v-2.9h6.4v2.9h-2.8v.5h3.4v2.1c0,.6-.3.9-1,.9h-1.1c0-.2,0-.4-.1-.7h.1s0,0,0-.1c0,0,0-.2,0-.2-.4,0-1.1,0-2,0-.9,0-1.6,0-2,0v-.6c.1,0,.4,0,.9,0,.5,0,.8,0,1.1,0v-.8h-2.5v2.4h-.9v-3.1h3.4v-.5h-2.8ZM243.9,59.6v.6h1.9v-.6h-1.9ZM243.9,60.7v.6h1.9v-.6h-1.9ZM248.6,59.6h-1.9v.6h1.9v-.6ZM246.7,60.7v.6h1.9v-.6h-1.9ZM249.2,63.1h-2.5v.7h.9s-.1-.5-.1-.5l.6-.2c0,0,.1.2.2.3.2.5.4.8.5,1h-.5c0,.1.5.1.5.1.3,0,.5,0,.5-.3v-1.3h0Z"/>
            <path class="cls-13" d="M219.4,70c-.3.4-.6.7-1.1,1.1,0,0-.1-.1-.2-.2-.2-.2-.3-.3-.4-.4.7-.5,1.1-1.1,1.4-1.9h.9c0,.2,0,.3-.1.4,0,.1-.1.2-.2.3h2.3v.7h-1.5c.2.2.4.4.5.6l-.8.2c0,0-.2-.2-.3-.5-.1-.2-.2-.3-.3-.4h0-.4,0ZM217.9,72.9v-.6h3.6v-.5h-2.8v-.6h2.8v-.5h.9v.5h3v1.2h.9v.6h-.9v1.2h-3v.5h3.2v.6h-3.2v.5h3.9v.6h-3.9v.8h-.9v-.8h-3.5v-.6h3.5v-.5h-2.9v-.6h2.9v-.5h-2.9v-.6h2.9v-.5h-3.6ZM223.4,70c-.2.3-.3.5-.5.8,0,0-.2-.1-.4-.2-.2-.1-.3-.2-.4-.2.5-.5.8-1.1,1-1.7h.9c-.1.3-.2.5-.3.7h2.6v.7h-1.7l.6.7-.8.2s0,0-.1-.1c-.2-.3-.4-.5-.6-.7h.1c0,0-.4,0-.4,0h0ZM224.5,71.7h-2.1v.5h2.1v-.5ZM222.4,72.9v.5h2.1v-.5h-2.1ZM227.6,72.2l-.5-.7c.3-.2.7-.5,1.3-.8.3-.2.5-.3.6-.4.2.2.4.4.5.6l-1.9,1.3h0ZM230.6,76.5c-1.2.3-2.2.5-3.2.7,0,0,0-.2-.1-.3,0-.2-.1-.3-.2-.4.5,0,1.3-.2,2.4-.4.4,0,.7-.1.8-.1l.3.6h0ZM227.3,69.8v-.7h2.3v.7h-2.3ZM228.1,75.7v-3.6h6.4v3.6h-6.4ZM229,72.8v.5h4.6v-.5h-4.6ZM229,73.7v.5h4.6v-.5h-4.6ZM229,74.7v.5h4.6v-.5h-4.6ZM231,69.9c-.2.2-.4.6-.8.9,0,0-.2-.1-.4-.2-.2,0-.3-.2-.4-.2.6-.5,1-1.1,1.3-1.7h.9c0,.1-.2.6-.2.6h3.8v.6l-.5.9-.8-.2.4-.7h-1.4v.2c.2.6,1.1,1.1,2.6,1.3-.1.3-.3.5-.4.7-1.4-.3-2.2-.7-2.6-1.2-.3.5-1.2.9-2.6,1.2l-.4-.7c1.5-.3,2.3-.7,2.4-1.2,0,0,0-.2,0-.3h-.9,0ZM235.1,77.1c-.9-.2-2-.4-3.2-.6l.3-.6c.2,0,.5,0,.9.1,1.1.1,1.8.3,2.3.4l-.2.7ZM236.3,72.7v-.8h1.4v-3.2h.9v3.2h1.3v.8h-1.3v.9l.3-.3c0,0,.2.2.3.3.4.4.7.7.8.9l-.6.6c-.1-.2-.3-.4-.6-.7-.1-.1-.2-.2-.3-.3v3h-.9v-3c-.3.6-.7,1.2-1.2,1.9,0-.3-.2-.7-.3-1,.5-.6,1-1.3,1.4-2.3h-1.3ZM236.8,71.4c-.3-.8-.5-1.3-.6-1.8l.6-.2c.1.4.3,1,.6,1.8l-.6.2ZM240,69.7c-.2.6-.5,1.2-.8,1.8l-.6-.2c.3-.6.5-1.2.7-1.8l.6.2h0ZM240.1,75v-.9c-.1,0,2.5-.2,2.5-.2v-5.2h.9v5.1h1.1c0-.1,0,.8,0,.8h-1.2v2.5h-.9v-2.3l-2.5.2h0ZM241.5,73.4c-.6-.5-1-.9-1.4-1.1l.5-.6c.5.4,1,.7,1.4,1.1l-.6.7h0ZM241.8,71.3c-.5-.5-1-.9-1.4-1.2l.6-.6c0,0,.2.2.4.2.4.3.8.6,1.1.9l-.6.7h0Z"/>
            <g>
              <path class="cls-13" d="M206.1,80.6c-.1,1.3-1.6,4.1-2,4.5-.1.1-.2.2-.4.2-.2,0-.3,0-.4,0h0c.8-1,1.8-2.9,2.1-4.2h-1.9c-.5,0-.6,0-.6-.2s.2-.4.3-.5c.1,0,.3,0,.7,0h2.2s0,0,0,0Z"/>
              <path class="cls-13" d="M206.8,84.8c.2,0,.6.2,1,.2.9,0,1.2-.5,1.2-1.1s-.4-.9-1.1-.9-.3,0-.5,0h0c0-.2.1-.4.2-.4.6-.1,1.2-.4,1.2-1s-.3-.7-.7-.7-.6.2-.8.3c-.1,0-.2,0-.3,0,0,0,0-.2,0-.3.2-.3.8-.6,1.3-.6,1.1,0,1.3.7,1.3,1.1,0,.6-.4.9-.9,1.1.8.2,1.2.6,1.2,1.2,0,1-.8,1.6-1.9,1.6s-.8-.1-.9-.2c-.1,0-.2-.3-.2-.5h0s0,0,0,0Z"/>
              <path class="cls-13" d="M213.4,85.1c0,.1,0,.2-.2.2-.2,0-.4,0-.6,0,0-.3,0-.8,0-1.5v-1.4c0-.3,0-.4-.1-.5h0c0-.2.3-.3.5-.3.3,0,.3.4.3.6.3-.3.8-.6,1.2-.6s.8.2,1,.6c.3-.3.8-.6,1.3-.6.9,0,1.1.7,1.1,1.4v1.2c0,.5,0,.8,0,1-.2,0-.4,0-.6,0s-.1,0-.1-.1v-2c0-.6-.3-.9-.7-.9s-.7.2-.9.4v2.4c0,.2,0,.2-.2.2-.2,0-.4,0-.6,0,0-.3,0-.8,0-1.5v-.7c0-.6-.3-.9-.7-.9s-.7.2-.9.5v2.4h0Z"/>
              <path class="cls-13" d="M219.9,80.4c0,.2-.1.4-.4.4s-.4-.1-.4-.4.2-.4.4-.4.4.2.4.4ZM219.9,85.1c0,.1,0,.2-.2.2-.1,0-.3,0-.6,0,0-.3,0-.8,0-1.3v-1.3c0-.5,0-.7,0-.9.1,0,.5,0,.6,0s.1,0,.1.5v2.9Z"/>
              <path class="cls-13" d="M221.1,80.9c0-.5,0-.7,0-.9.2,0,.5-.1.6-.1s.1,0,.1.5v3.8c0,.4,0,.8,0,1.1-.1,0-.5,0-.6,0s-.1,0-.1,0v-4.4h0Z"/>
              <path class="cls-13" d="M222.9,80.9c0-.5,0-.7,0-.9.2,0,.5-.1.6-.1s.1,0,.1.5v3.8c0,.4,0,.8,0,1.1-.1,0-.5,0-.6,0s-.1,0-.1,0v-4.4h0Z"/>
              <path class="cls-13" d="M225.6,80.4c0,.2-.1.4-.4.4s-.4-.1-.4-.4.2-.4.4-.4.4.2.4.4ZM225.5,85.1c0,.1,0,.2-.2.2-.1,0-.3,0-.6,0,0-.3,0-.8,0-1.3v-1.3c0-.5,0-.7,0-.9.1,0,.5,0,.6,0s.1,0,.1.5v2.9Z"/>
              <path class="cls-13" d="M229.9,83.5c0,1.1-.7,1.9-1.8,1.9s-1.8-.9-1.8-1.8.7-1.9,1.8-1.9,1.7.8,1.7,1.8h0ZM227.2,83.5c0,.9.5,1.4,1.1,1.4s1-.4,1-1.3-.3-1.4-1-1.4-1,.5-1,1.3h0Z"/>
              <path class="cls-13" d="M233.2,83.2c0-.6-.3-.9-.7-.9s-.7.3-.9.5v2.4c0,.2,0,.2-.2.2-.2,0-.4,0-.6,0,0-.3,0-.8,0-1.5v-1.3c0-.3,0-.4-.1-.5h0c0-.2.3-.3.5-.3.2,0,.3.4.3.6.3-.3.8-.6,1.2-.6.9,0,1.2.7,1.2,1.5v1.1c0,.5,0,.8,0,1-.2,0-.4,0-.6,0s-.1,0-.1-.1v-2h0Z"/>
              <path class="cls-13" d="M236.9,82c0-.1.3-.3.5-.3.2,0,.4.3.4.8.3-.5.6-.8,1-.8s.4,0,.4.2c0,.1,0,.3-.1.5,0,0-.1,0-.2,0s-.2,0-.3,0c-.2,0-.4.2-.6.6,0,.1,0,.2,0,.4v1.8c0,.1,0,.2-.1.2-.2,0-.4,0-.6,0,0-.3,0-.8,0-1.5v-1.3c0-.2,0-.4-.2-.5h0s0,0,0,0Z"/>
              <path class="cls-13" d="M242.2,84.7c0,.3-.2.5-.3.6-.1,0-.5.2-.8.2-1.1,0-1.7-.7-1.7-1.8s.6-1.9,1.7-1.9,1.3.7,1.3,1.3c0,0,0,.2,0,.3,0,.1-.4.2-.7.3-.2,0-1,0-1.6,0,0,.8.5,1.2,1.2,1.2s.8-.1.9-.2h0s0,0,0,0ZM240.1,83.2c.6,0,1.3,0,1.4,0s.2,0,.2-.2c0-.5-.2-.8-.7-.8s-.8.4-.9,1h0Z"/>
              <path class="cls-13" d="M245.9,84.7c0,.2-.1.4-.2.5-.2.1-.5.2-.9.2-.8,0-1.8-.4-1.8-1.8s.9-1.9,1.9-1.9.9.2,1,.3c0,.2-.1.4-.4.4-.2,0-.4-.2-.7-.2-.7,0-1.2.5-1.2,1.3s.7,1.3,1.3,1.3.6,0,.9-.2h0s0,0,0,0Z"/>
              <path class="cls-13" d="M249.9,83.5c0,1.1-.7,1.9-1.8,1.9s-1.8-.9-1.8-1.8.7-1.9,1.8-1.9,1.7.8,1.7,1.8h0ZM247.1,83.5c0,.9.5,1.4,1.1,1.4s1-.4,1-1.3-.3-1.4-1-1.4-1,.5-1,1.3h0Z"/>
              <path class="cls-13" d="M250.7,82c0-.1.3-.3.5-.3.2,0,.4.3.4.8.3-.5.6-.8,1-.8s.4,0,.4.2c0,.1,0,.3-.1.5,0,0-.1,0-.2,0s-.2,0-.3,0c-.2,0-.4.2-.6.6,0,.1,0,.2,0,.4v1.8c0,.1,0,.2-.1.2-.2,0-.4,0-.6,0,0-.3,0-.8,0-1.5v-1.3c0-.2,0-.4-.2-.5h0s0,0,0,0Z"/>
              <path class="cls-13" d="M255.8,80.8c0-.4,0-.6,0-.8.1,0,.5-.1.6-.1s.1,0,.1.5v4.1c0,.4.1.4.4.5h0c0,.2-.2.4-.4.4-.4,0-.5-.2-.6-.4-.3.3-.8.4-1.1.4-.9,0-1.6-.6-1.6-1.7s.9-1.9,2-1.9.5,0,.6.1v-1.1h0ZM255.8,82.3c-.1,0-.3-.1-.6-.1-.6,0-1.2.4-1.2,1.4s.5,1.3,1.1,1.3.6,0,.8-.2v-2.3h0Z"/>
              <path class="cls-13" d="M259.5,82c0,.2-.1.4-.3.4-.1,0-.4-.2-.6-.2-.3,0-.5.2-.5.4s.1.3.3.4c.2.1.5.2.7.4.4.2.5.5.5.8,0,.8-.7,1.1-1.3,1.1s-.7,0-.9-.2c0,0-.1-.1-.1-.2,0-.1,0-.3.1-.3.2.2.6.3.9.3s.6-.2.6-.5-.1-.3-.4-.5c-.2-.1-.4-.2-.6-.3-.3-.2-.5-.5-.5-.9,0-.7.6-1.1,1.2-1.1s.6,0,.8.3h0Z"/>
            </g>
            <path class="cls-13" d="M205.7,95c-1.1-.2-2.2-.2-3.2-.4-3.7-.7-6.5-2.5-7.8-6.2-.3-.9-.4-1.9-.4-2.8,0-9,0-18,0-27,0-4.6,3.1-8.2,6.4-9.3,1.9-.6,3.8-.8,5.8-1.1.7-.1,1.4-.2,2.1-.3.8-.1,1.4.2,1.5.9.1.6-.3,1.1-1.1,1.2-1.9.3-3.9.5-5.8.8-3.2.5-6.1,3.1-6.6,6.2,0,.4,0,.8,0,1.3,0,8.9,0,17.8,0,26.6,0,4.7,3.2,7.1,6.5,7.6,1,.2,2.1.3,3.1.5,1.6.2,2.2,1.2,1.8,2.8-.7,2.8-1.4,5.5-2.1,8.3,0,.2,0,.4-.1.6-.1.9.4,1.4,1.4,1.2.3,0,.6-.2.8-.4,4.5-3.1,9.1-6.2,13.6-9.3.9-.7,1.9-.9,3.1-.7,7.1,1,14.3,2,21.5,3,3.5.4,6.9.8,10.4,1.2,3.4.3,6.4-2,7-5.4.1-.6.1-1.2.1-1.8,0-3.7,0-7.3,0-11s.4-1.4,1-1.4,1,.5,1,1.4c0,3.8,0,7.7,0,11.6,0,4.5-3.4,8.5-7.8,8.8-1.5,0-3.1,0-4.6-.3-7.2-.9-14.4-1.9-21.6-2.8-2.6-.3-5.1-.8-7.7-1.1-.4,0-.8.1-1.1.3-4.7,3.2-9.4,6.4-14.1,9.6-1.5,1-3.2.9-4.4-.2-.9-1-1-2.1-.7-3.4.7-2.7,1.4-5.4,2-8.1,0-.2,0-.3.1-.6"/>
            <path class="cls-13" d="M265.5,63.1v12.7c0,.2,0,.4,0,.6-.1.6-.5,1-1.1.9-.6,0-.9-.4-1-1,0-.2,0-.5,0-.7v-24.7c0-1.7-.4-3.3-1.5-4.7-1.3-1.8-3.1-2.7-5.3-2.4-3.8.4-7.5.8-11.3,1.2-6.7.8-13.4,1.8-20.1,2.7-3.9.5-7.7,1.1-11.6,1.7,0,0-.2,0-.2,0-.7,0-1.2-.2-1.3-.8-.1-.7.2-1.2,1-1.3,2.8-.4,5.7-.8,8.5-1.2,5.4-.7,10.7-1.5,16.1-2.2,6.2-.8,12.5-1.5,18.7-2.2,4.5-.5,8.3,3,9,7.2.1.7.2,1.3.2,2,0,4.1,0,8.1,0,12.2"/>
            <g>
              <g>
                <g>
                  <polygon class="cls-28" points="57.4 220 60.5 221.8 176.9 154.6 173.7 152.9 57.4 220"/>
                  <polygon class="cls-47" points="57.4 102.1 60.5 103.9 176.9 36.8 173.7 35 57.4 102.1"/>
                  <polygon class="cls-52" points="57.4 113.2 60.5 115 60.5 103.9 57.4 102.1 57.4 113.2"/>
                  <polygon class="cls-5" points="57.4 208.1 60.5 209.9 60.5 115 57.4 113.2 57.4 208.1"/>
                  <polygon class="cls-3" points="60.5 103.9 176.9 36.8 176.9 47.8 60.5 115 60.5 103.9"/>
                  <polygon class="cls-34" points="176.9 142.8 60.5 209.9 60.5 115 176.9 47.8 176.9 142.8"/>
                </g>
                <g>
                  <g class="cls-35">
                    <polygon class="cls-24" points="164.6 143.6 164.5 143.7 164.5 110.2 164.6 110.1 164.6 143.6"/>
                    <polygon class="cls-24" points="160.9 145.7 160.8 145.8 160.8 112.3 160.9 112.3 160.9 145.7"/>
                    <polygon class="cls-24" points="157.2 147.9 157.1 147.9 157.1 114.4 157.2 114.4 157.2 147.9"/>
                    <polygon class="cls-24" points="153.5 150 153.4 150 153.4 116.6 153.5 116.5 153.5 150"/>
                    <polygon class="cls-24" points="149.8 152.1 149.7 152.2 149.7 118.7 149.8 118.6 149.8 152.1"/>
                    <polygon class="cls-24" points="146.1 154.2 146.1 154.3 146.1 120.8 146.1 120.8 146.1 154.2"/>
                    <polygon class="cls-24" points="142.5 156.4 142.4 156.4 142.4 122.9 142.5 122.9 142.5 156.4"/>
                    <polygon class="cls-24" points="138.8 158.5 138.7 158.5 138.7 125.1 138.8 125 138.8 158.5"/>
                    <polygon class="cls-24" points="135.1 160.6 135 160.7 135 127.2 135.1 127.1 135.1 160.6"/>
                    <polygon class="cls-24" points="131.4 162.7 131.3 162.8 131.3 129.3 131.4 129.3 131.4 162.7"/>
                    <polygon class="cls-24" points="127.7 164.9 127.6 164.9 127.6 131.4 127.7 131.4 127.7 164.9"/>
                    <polygon class="cls-24" points="124.1 167 124 167 124 133.6 124.1 133.5 124.1 167"/>
                    <polygon class="cls-24" points="120.4 169.1 120.3 169.2 120.3 135.7 120.4 135.6 120.4 169.1"/>
                    <polygon class="cls-24" points="116.7 171.2 116.6 171.3 116.6 137.8 116.7 137.8 116.7 171.2"/>
                    <polygon class="cls-24" points="113 173.4 112.9 173.4 112.9 139.9 113 139.9 113 173.4"/>
                    <polygon class="cls-24" points="168.2 108.1 109.5 142 109.5 141.9 168.2 108 168.2 108.1"/>
                    <polygon class="cls-24" points="168.2 112.4 109.5 146.2 109.5 146.1 168.2 112.3 168.2 112.4"/>
                    <polygon class="cls-24" points="168.2 116.6 109.5 150.5 109.5 150.4 168.2 116.5 168.2 116.6"/>
                    <polygon class="cls-24" points="168.2 120.9 109.5 154.8 109.5 154.6 168.2 120.8 168.2 120.9"/>
                    <polygon class="cls-24" points="168.2 125.1 109.5 159 109.5 158.9 168.2 125 168.2 125.1"/>
                    <polygon class="cls-24" points="168.2 129.4 109.5 163.2 109.5 163.1 168.2 129.3 168.2 129.4"/>
                    <polygon class="cls-24" points="168.2 133.6 109.5 167.5 109.5 167.4 168.2 133.5 168.2 133.6"/>
                    <polygon class="cls-24" points="168.2 137.9 109.5 171.8 109.5 171.6 168.2 137.8 168.2 137.9"/>
                  </g>
                  <g>
                    <polygon class="cls-37" points="121 165.9 119.3 164.9 120 163.2 121.6 164.1 121 165.9"/>
                    <polygon class="cls-37" points="128.6 159.9 126.9 159 127.6 157.2 129.2 158.1 128.6 159.9"/>
                    <polygon class="cls-37" points="135.8 158.2 134.1 157.3 134.8 155.5 136.4 156.4 135.8 158.2"/>
                    <polygon class="cls-37" points="155.9 141.7 154.2 140.8 154.9 139 156.5 139.9 155.9 141.7"/>
                    <polygon class="cls-37" points="166 129.7 164.3 128.7 165 126.9 166.6 127.8 166 129.7"/>
                    <polygon class="cls-37" points="166.8 123.4 165.1 124.4 164 126.5 164 127.2 162.9 127.9 161.9 127.4 160.6 128.2 159.6 129.8 159.6 131.4 159.7 131.4 156.4 136.6 156.2 136.5 154.8 137.3 153.9 138.9 149.9 140.1 148.4 139.1 147 139.9 146.1 141.5 146.1 142.6 136.6 153.4 136.1 153 134.7 153.8 133.9 155.1 129.8 155.9 131.8 156.5 128.8 154.7 127.5 155.5 126.5 157.1 126.5 157.6 122.1 161.2 121.2 160.6 119.9 161.4 118.9 163.1 118.9 163.1 109.6 167.1 109.5 167.9 111.5 169.2 122.1 164.6 124.2 162.9 129.1 159 131.6 157.7 136.1 156.9 138.9 155 148.6 143.9 151.2 142 156.5 140.4 157.6 139.4 158.6 138.2 162.4 132.3 164.7 129.9 166.4 128.7 166.8 128.1 170.1 125.4 166.8 123.4"/>
                    <polygon class="cls-55" points="164.9 129.2 164 128.7 162.7 129.4 161.7 131.1 161.7 132.6 162.7 133.2 164 132.4 164.9 130.8 164.9 129.2"/>
                    <polygon class="cls-55" points="159.2 138.3 158.2 137.8 156.9 138.5 155.9 140.2 155.9 141.7 156.9 142.3 158.2 141.5 159.2 139.9 159.2 138.3"/>
                    <polygon class="cls-55" points="151.4 140.9 150.4 140.4 149.1 141.2 148.1 142.8 148.1 144.4 149.1 144.9 150.4 144.1 151.4 142.5 151.4 140.9"/>
                    <polygon class="cls-55" points="139.1 154.8 138.1 154.3 136.8 155 135.8 156.7 135.8 158.2 136.8 158.8 138.1 158 139.1 156.4 139.1 154.8"/>
                    <polygon class="cls-55" points="131.8 156.5 130.9 156 129.5 156.8 128.6 158.4 128.6 159.9 129.5 160.5 130.9 159.7 131.8 158.1 131.8 156.5"/>
                    <polygon class="cls-55" points="124.2 162.5 123.3 161.9 121.9 162.7 121 164.3 121 165.9 121.9 166.4 123.3 165.7 124.2 164 124.2 162.5"/>
                    <polygon class="cls-55" points="170.1 125.4 168.9 124.7 167.2 125.7 166 127.7 166 129.7 167.2 130.3 168.9 129.4 170.1 127.3 170.1 125.4"/>
                    <polygon class="cls-55" points="137.5 156.9 130.2 158.4 122.6 164.6 111.5 169.2 111.2 168.5 122.6 163.7 130.3 157.5 137.5 156.1 149.7 142 157.4 139.7 163.1 130.5 168 127.1 168.1 127.9 163.4 131.2 157.6 140.6 149.8 142.9 137.5 156.9"/>
                  </g>
                  <g>
                    <polygon class="cls-10" points="129.6 149.1 127.9 148.1 128.5 146.4 130.2 147.3 129.6 149.1"/>
                    <polygon class="cls-10" points="166.8 110 165.1 111 164 113.1 164 114.3 161 117 160.3 116.6 158.9 117.4 158 119 158 120.6 158.1 120.6 156.1 123.7 155.8 123.6 154.5 124.3 153.5 126 153.5 126.9 138.4 141.2 137.7 140.7 136.3 141.5 135.4 143.1 135.4 143.2 131.3 144.8 129.8 143.9 128.4 144.6 127.5 146.3 127.5 146.9 109.4 161 109.6 161.8 111.4 163.2 112.9 161.7 128.7 149.2 129.9 148.3 129.8 147.6 131.8 146.6 132.7 146.8 137.7 144.7 140.6 142.9 156.1 128.1 158.5 125.2 160.6 121.8 163 118.8 166.3 115.9 168.9 111.3 166.8 110"/>
                    <polygon class="cls-10" points="137.4 146 134.6 144.4 136.4 143.2 138 144.1 137.4 146"/>
                    <polygon class="cls-45" points="132.8 145.7 131.9 145.1 130.5 145.9 129.6 147.6 129.6 149.1 130.5 149.7 131.9 148.9 132.8 147.2 132.8 145.7"/>
                    <polygon class="cls-45" points="140.7 142.6 139.8 142 138.4 142.8 137.4 144.4 137.4 146 138.4 146.5 139.7 145.7 140.7 144.1 140.7 142.6"/>
                    <polygon class="cls-45" points="158.8 125.4 157.9 124.8 156.5 125.6 155.6 127.2 155.6 128.8 156.5 129.4 157.9 128.6 158.8 126.9 158.8 125.4"/>
                    <polygon class="cls-45" points="163.3 118.4 162.3 117.9 161 118.6 160.1 120.3 160.1 121.9 161 122.4 162.3 121.6 163.3 120 163.3 118.4"/>
                    <polygon class="cls-45" points="170.1 112 168.9 111.3 167.2 112.3 166 114.3 166 116.2 167.2 116.9 168.9 116 170.1 113.9 170.1 112"/>
                    <polygon class="cls-45" points="111.4 163.2 111.5 162.3 131.1 146.9 139 143.9 157.2 126.6 161.5 119.8 167.9 113.8 168.2 114.5 161.9 120.3 157.6 127.1 157.5 127.2 139.1 144.7 131.1 147.8 111.4 163.2"/>
                  </g>
                  <g>
                    <polygon class="cls-57" points="111.2 143.4 111.6 142.4 109.5 141.2 108.8 141.6 108.8 176.6 110.9 177.9 111.7 177.1 169.2 143.8 170.6 142.6 168.5 141.3 111.2 174.4 111.2 143.4"/>
                    <polygon class="cls-24" points="111.6 176.6 111.6 142.4 110.9 142.9 110.9 177.9 170.6 143.4 170.6 142.6 111.6 176.6"/>
                  </g>
                </g>
                <g>
                  <g>
                    <polygon class="cls-37" points="71.6 141.2 71.6 129 76.9 128.5 74.1 142.6 71.6 141.2"/>
                    <polygon class="cls-41" points="81.3 138 84.1 136.4 88.5 137.8 84.1 140.4 81.3 138"/>
                    <polygon class="cls-40" points="71.6 129 79.1 116.1 89.6 110.1 92.1 111.5 81.3 121 74.1 130.5 71.6 129"/>
                    <polygon class="cls-10" points="84.1 136.4 87.4 134.5 91.7 127.1 91.7 118.3 89 115.4 92.1 111.5 97 114.4 97 126.5 89.6 139.4 86.6 137.8 84.1 136.4"/>
                    <polygon class="cls-55" points="74.1 142.6 74.1 130.5 79.4 129.9 79.4 137 74.1 142.6"/>
                    <polygon class="cls-22" points="81.6 146.9 74.1 142.6 79.4 137 83.8 139.5 81.6 146.9"/>
                    <polygon class="cls-47" points="83.8 139.5 86.6 137.8 86.6 144 81.6 146.9 83.8 139.5"/>
                    <polygon class="cls-38" points="74.1 130.5 81.6 117.6 92.1 111.5 89.9 118.9 83.8 122.5 79.4 129.9 74.1 130.5"/>
                    <polygon class="cls-45" points="86.6 137.8 89.9 136 94.2 128.5 94.2 121.4 89.9 118.9 92.1 111.5 99.5 115.8 99.5 127.9 92.1 140.9 86.6 144 86.6 137.8"/>
                  </g>
                  <g>
                    <path class="cls-10" d="M92.1,153l-9,7.6-6.2,9.4v10.9l4.3-1.4,2.9-1.7,5.7,1.5-15.7,4.8-2.5-1.4v-12.2l7.4-12.9,10.5-6.1,2.5,1.4h0Z"/>
                    <polygon class="cls-37" points="84.1 177.9 87.4 176 91.7 168.6 91.7 161.5 87.4 159 92.1 153 97 155.9 97 168 89.6 180.9 86.6 179.3 84.1 177.9"/>
                    <path class="cls-45" d="M89.9,160.4l-6.1,3.5-4.3,7.5v7.1l4.3,2.5,2.9-1.7v6.2l-5.1,2.9-7.5-4.3v-12.2l7.4-12.9,10.5-6.1-2.2,7.5h0Z"/>
                    <polygon class="cls-55" points="86.6 179.3 89.9 177.5 94.2 170 94.2 162.9 89.9 160.4 92.1 153 99.5 157.3 99.5 169.5 92.1 182.4 86.6 185.5 86.6 179.3"/>
                  </g>
                </g>
                <g>
                  <polygon class="cls-41" points="170.4 65.7 110.8 130.4 108.7 129.2 108.7 98.9 168.3 64.4 170.4 65.7"/>
                  <polygon class="cls-47" points="170.4 96 110.8 130.4 110.8 100.1 170.4 65.7 170.4 96"/>
                  <polygon class="cls-10" points="110.8 130.4 131.5 103.4 139 100.2 149.3 84.5 158.4 83.9 170.4 65.7 172.5 66.9 164.1 100.5 135.4 114.8 112.9 131.6 110.8 130.4"/>
                  <polygon class="cls-45" points="112.9 131.6 133.6 104.6 141.1 101.4 151.4 85.7 160.5 85.1 172.5 66.9 172.5 73.5 169.1 94.7 112.9 131.6"/>
                  <g>
                    <polygon class="cls-40" points="112.9 131.6 123.1 114.8 140.2 109 158.5 90.2 166.1 87.7 172.5 73.5 174.6 74.7 170 96.2 144.8 112 115 132.8 112.9 131.6"/>
                    <polygon class="cls-38" points="115 132.8 125.2 116 142.3 110.2 160.6 91.4 168.2 88.9 174.6 74.7 174.6 83.4 174.6 98.4 115 132.8"/>
                  </g>
                  <g>
                    <polygon class="cls-10" points="117 104.1 113.4 106.2 113.1 107.2 113.1 108.4 113.4 109 115.5 110.2 118.1 108 119.1 105.3 117 104.1"/>
                    <polygon class="cls-45" points="119.1 105.3 115.5 107.4 115.2 108.4 115.2 109.6 115.5 110.2 119.1 108.1 119.4 107.1 119.4 105.9 119.1 105.3"/>
                  </g>
                  <g>
                    <polygon class="cls-40" points="117 99.3 113.4 101.4 113.1 102.4 113.1 103.6 113.4 104.2 115.5 105.4 118.2 102.8 119.1 100.5 117 99.3"/>
                    <polygon class="cls-38" points="119.1 100.5 115.5 102.6 115.2 103.6 115.2 104.8 115.5 105.4 119.1 103.3 119.4 102.3 119.4 101.2 119.1 100.5"/>
                  </g>
                </g>
              </g>
              <g>
                <polygon class="cls-28" points="118.1 219.8 110.8 215.6 100.6 215.6 93.4 219.8 93.4 225.7 100.6 229.9 110.8 229.9 118.1 225.7 118.1 219.8"/>
                <g>
                  <polygon class="cls-51" points="109.7 205.5 110.8 206.1 113.1 206.7 115.3 204.3 114.2 203.7 109.7 205.5"/>
                  <polygon class="cls-43" points="107.9 215.7 109 216.4 110.9 212.1 110.8 206.1 109.7 205.5 107.9 215.7"/>
                  <polygon class="cls-8" points="113.3 217.6 114.4 218.3 112.6 218.4 110.7 216.2 109.6 215.6 113.3 217.6"/>
                  <polygon class="cls-21" points="115.3 204.3 110.8 206.1 109 216.4 110.7 216.2 114.4 218.3 117.2 209.4 115.3 204.3"/>
                </g>
                <g>
                  <polygon class="cls-51" points="101.4 205.5 100.3 206.2 98 206.8 95.7 204.4 96.8 203.8 101.4 205.5"/>
                  <polygon class="cls-43" points="103.3 215.7 102.2 216.4 100.2 212.2 100.3 206.2 101.4 205.5 103.3 215.7"/>
                  <polygon class="cls-8" points="97.9 217.7 96.8 218.4 98.6 218.5 100.5 216.3 101.6 215.6 97.9 217.7"/>
                  <polygon class="cls-21" points="95.7 204.4 100.3 206.2 102.2 216.4 100.5 216.3 96.8 218.4 93.9 209.5 95.7 204.4"/>
                </g>
                <g>
                  <path class="cls-46" d="M108.4,210.9l4.1-2.4v-3.4l-4.2-2.4h-5.8s-4.1,2.4-4.1,2.4v3.4s4.2,2.4,4.2,2.4h5.8Z"/>
                  <polygon class="cls-6" points="102.6 210.9 98.4 208.6 101.3 220.8 103.8 222.2 103.8 212.6 102.6 210.9"/>
                  <polygon class="cls-15" points="108.4 210.9 102.6 210.9 103.8 222.2 107.3 222.1 108.9 211.2 108.4 210.9"/>
                  <polygon class="cls-53" points="112.5 208.5 108.4 210.9 107.3 222.1 109.8 220.7 112.5 208.5"/>
                </g>
                <path class="cls-46" d="M108.1,170.4l4-2.4v-3.3s-4-2.3-4-2.3h-5.7s-4,2.4-4,2.4v3.3l4,2.3h5.7s0,0,0,0Z"/>
                <g>
                  <polygon class="cls-42" points="112.1 164.7 115.1 172.7 115.1 177.4 112.4 177.8 109.3 166.4 112.1 164.7"/>
                  <polygon class="cls-26" points="98.4 164.8 95.6 172.8 95.6 177.5 98.3 177.9 101.2 166.5 98.4 164.8"/>
                  <polygon class="cls-5" points="106.6 173.6 106.3 178.9 107.8 175.4 105.8 180.7 106.4 200.5 106.6 201.2 108 204.4 108.1 208.4 108.4 210.9 112.5 208.5 115.1 197.1 115.1 177.4 112.1 168 108.1 169.1 106.6 173.6"/>
                  <polygon class="cls-44" points="109.4 180.7 109.4 200.5 108.4 210.9 102.6 210.9 100.8 206.5 100.5 201.8 100.1 201.5 100.6 197.1 100.1 180 100.2 174.6 99.5 179.6 100.9 173 102.4 168.6 108.1 170.4 109.4 180.7"/>
                  <polygon class="cls-26" points="101.4 200.5 102.6 210.9 98.4 208.6 95.6 197.3 98.9 195.9 101.4 200.5"/>
                  <polygon class="cls-34" points="95.6 197.3 97.3 182.1 95.6 177.5 98.4 168.1 102.2 168.6 102.4 170.4 101.3 180.8 101.4 200.5 95.6 197.3"/>
                </g>
                <g>
                  <polygon class="cls-47" points="101.4 200.5 95.6 197.3 95.6 177.5 101.3 180.8 102.9 195.4 101.4 200.5"/>
                  <polygon class="cls-52" points="101.4 200.5 109.4 200.5 111.1 195.6 109.4 180.7 101.3 180.8 101.4 200.5"/>
                  <polygon class="cls-3" points="109.4 200.5 115.1 197.1 115.1 177.4 109.4 180.7 109.4 200.5"/>
                </g>
                <g>
                  <polygon class="cls-21" points="105.2 152.2 101.8 163.3 102.4 170.4 108.1 170.4 108.1 162.4 105.2 152.2"/>
                  <polygon class="cls-7" points="105.2 152.2 108.2 162.8 112.1 168 112.1 164.7 105.2 152.2"/>
                  <polygon class="cls-8" points="105.2 152.2 108.1 170.4 112.1 168 105.2 152.2"/>
                  <polygon class="cls-21" points="105.2 152.2 101.2 163.4 98.4 168.1 98.4 164.8 105.2 152.2"/>
                  <polygon class="cls-51" points="105.2 152.2 102.4 170.4 98.4 168.1 105.2 152.2"/>
                </g>
                <g>
                  <polygon class="cls-11" points="96.5 186.6 98.5 187.6 99.5 189.3 100.1 190.5 100.1 192.5 98.8 193.6 96.3 192.3 94.9 189.5 94.9 187.4 96.5 186.6"/>
                  <polygon class="cls-19" points="98.2 193.1 96.4 192.1 97.4 191.6 99.3 192.8 98.5 193.2 98.2 193.1"/>
                  <polygon class="cls-17" points="95.9 191.3 95.2 189.8 96.1 189.3 97.4 191.6 96.6 192.1 95.9 191.3"/>
                  <polygon class="cls-50" points="95.2 189.8 94.9 187.2 96.1 186.5 96.1 189.3 95.2 189.8"/>
                  <g>
                    <polygon class="cls-31" points="98.8 193 99.1 192.8 97.2 191.7 95.9 189.4 95.9 187.3 95.5 187.5 95.5 189.6 96.9 191.9 98.8 193"/>
                    <polygon class="cls-2" points="100.1 192.6 98.8 193 96.9 191.9 95.5 189.6 95.5 187.5 96.5 186.5 98.7 187.8 100.1 190.1 100.1 192.6"/>
                  </g>
                  <path class="cls-14" d="M98.7,187.4l-2.4-1.4-1.7,1v2.8s1.7,2.9,1.7,2.9l2.4,1.4,1.7-1v-2.8l-1.7-2.9h0ZM99.8,192.4l-1.3.8-1.9-1.1-1.3-2.3v-2.2l1.3-.8,1.9,1.1,1.3,2.3v2.2h0Z"/>
                  <polygon class="cls-19" points="98.7 187.4 96.3 186 97.2 185.5 99.6 186.9 99 187.4 98.7 187.4"/>
                  <polygon class="cls-17" points="100.4 190.3 98.7 187.4 99.6 186.9 101.3 189.8 100.7 190.4 100.4 190.3"/>
                  <polygon class="cls-50" points="100.4 193.1 100.4 190.3 101.3 189.8 101.3 192.5 100.4 193.1"/>
                </g>
                <g>
                  <polygon class="cls-8" points="114.6 227.2 113.5 227.9 114.1 221.6 117.3 221.6 114.6 227.2"/>
                  <polygon class="cls-43" points="117.3 221.6 116.2 222.2 113.4 215.1 115.5 214.4 117.3 221.6"/>
                  <polygon class="cls-51" points="115.5 214.4 114.3 215.1 111.4 214.6 109.8 211.6 110.9 211 115.5 214.4"/>
                  <polygon class="cls-21" points="114.3 215.1 109.8 211.6 108.9 220.7 109.7 221.6 113.5 227.9 116.2 222.2 114.3 215.1"/>
                </g>
                <g>
                  <polygon class="cls-8" points="96.8 227.3 97.9 227.9 97.1 221.7 93.9 221.7 96.8 227.3"/>
                  <polygon class="cls-43" points="93.9 221.7 95 222.3 97.8 215.1 95.7 214.5 93.9 221.7"/>
                  <polygon class="cls-51" points="95.7 214.5 96.8 215.1 99.7 214.7 101.3 211.7 100.2 211 95.7 214.5"/>
                  <polygon class="cls-21" points="96.8 215.1 101.3 211.7 102.3 220.7 101.5 221.6 97.9 227.9 95 222.3 96.8 215.1"/>
                </g>
              </g>
              <g>
                <polygon class="cls-20" points="198.7 123.5 199.8 125.9 202 126.1 207.3 128 207.1 130.2 199.9 129.8 197.1 128.1 195.5 125.4 196.5 123.7 198.7 123.5"/>
                <polygon class="cls-28" points="178.9 165 175.7 167.2 175.9 169.9 179.4 171.5 194.8 170.3 198 168.1 197.8 165.4 194.3 163.8 178.9 165"/>
                <polygon class="cls-32" points="190.1 164 195.5 166.1 197.4 167.1 197.4 167.4 196.9 168.4 194.1 167.6 191.9 166.1 189.9 165.5 188.6 164.5 188.6 164.2 190.1 164"/>
                <polygon class="cls-32" points="180.5 167.2 178.3 167.7 178.3 168.1 178.4 170.6 180.5 170.9 181.6 169.7 182 167.1 182.7 165.6 182.7 165.2 180.5 167.2"/>
                <polygon class="cls-36" points="193.4 163.3 194.8 164.4 196.9 165.7 197.4 167.1 196.9 168 194.1 167.3 191.9 165.8 189.9 165.2 188.6 164.2 189 162.1 193.4 163.3"/>
                <polygon class="cls-36" points="180.3 163.6 179.7 165.3 178.3 167.7 178.4 170.2 180.5 170.6 181.6 169.3 182 166.7 182.7 165.2 182.7 163.8 180.3 163.6"/>
                <polygon class="cls-4" points="182.4 133.8 181.8 134.9 180.9 143.6 181.2 151.1 180.4 154.4 180.1 163.4 181.5 164.8 184.1 163.4 185.6 152.6 187.8 141.4 188 141.4 189.1 150.9 188.5 153 188.6 162.5 189.7 163.4 193.4 163.3 193.1 160.9 193.5 152.3 194.8 142.4 194.8 134.7 194.3 134.2 182.4 133.8"/>
                <polygon class="cls-48" points="189.4 135.8 188.1 135.8 187.8 141.4 189.1 140.8 189.4 135.8"/>
                <polygon class="cls-32" points="188 141.4 191.7 142.2 188.1 142.1 188 141.4"/>
                <polygon class="cls-34" points="193.7 116.3 196 116.5 197.2 118.1 198.9 123.2 197.7 125 195 125.5 192.6 119.7 193.7 116.3"/>
                <polygon class="cls-5" points="195.1 119.4 196.3 125.2 195.4 125.4 195 125.1 194.6 120.7 195.1 119.4"/>
                <polygon class="cls-33" points="186.3 114.6 186.2 115.4 185.8 117.1 186.6 120.2 190.8 120.6 191.3 117.7 189.8 114 187 114 186.3 114.6"/>
                <polygon class="cls-49" points="182.6 132.7 182.4 133.8 184.8 135.6 189.8 136.2 193.2 135.3 194.3 134.2 194.2 133.2 182.6 132.7"/>
                <polygon class="cls-34" points="180.4 118.3 185.2 116.5 186.2 117.3 186.7 118.6 188.2 118.7 188.7 119.7 189.5 120 190.1 119.5 190.2 118.4 191.7 116.1 193.7 116.3 195.1 119.4 195.5 124.7 194.4 130.6 194.9 132.5 193.1 134.2 189.9 134.9 185.2 134.5 182.4 132.5 183 130.3 181.3 125.8 180.4 118.3"/>
                <polygon class="cls-5" points="182.4 123.4 181.7 126.7 181.3 125.8 181.2 124.4 182.4 123.4"/>
                <polygon class="cls-28" points="190.2 118.4 190.1 119.5 191.7 119.6 191.5 117.9 190.2 118.4"/>
                <polygon class="cls-28" points="188.2 118.7 188.7 119.8 187 120.5 185.3 118.3 185.2 116.5 186.4 118 188.2 118.7"/>
                <polygon class="cls-21" points="190 119.1 190.2 118.4 190.6 118.1 191 118.6 189.9 119.8 189.6 119.6 190 119.1"/>
                <polygon class="cls-34" points="190.2 117.5 190.2 118.4 191.5 119.5 191.3 117.9 190.2 117.5"/>
                <g>
                  <polygon class="cls-21" points="189.3 120.2 189.6 125.7 188.9 138.8 190.2 140.6 191.3 138.6 190.6 125.6 189.8 120.1 189.5 119.8 189.3 120.2"/>
                  <polygon class="cls-21" points="188.2 118.7 188.6 119.3 189.1 119.5 189.1 120 187.4 119.2 187.8 118.8 188.2 118.7"/>
                  <polygon class="cls-51" points="188.6 119.3 190 119.1 189.8 120.1 189.3 120.2 188.6 119.3"/>
                </g>
                <polygon class="cls-42" points="175.9 126.3 177.5 128.6 180.2 128.2 180.4 126 177.4 125 175.9 126.3"/>
                <polygon class="cls-20" points="176.4 126.2 174.7 129.2 166.4 129 165.9 131.2 172.3 132.5 175.5 132.5 177.3 131.3 179.8 127.8 179.7 126.2 177.6 125.2 176.4 126.2"/>
                <polygon class="cls-34" points="181.5 118.4 180.4 118.3 178.5 120.4 175.9 126.3 178.2 126.3 180.2 128.2 182.4 123.4 182.4 120.7 181.5 118.4"/>
                <polygon class="cls-20" points="193.2 111.4 193.3 113 192.9 113.4 193.1 114.1 192.4 117.9 190.9 118.6 187.5 116.5 187.2 115.4 186.6 115.1 186.3 114.6 185.9 114 185.3 112.4 187.7 110 191.5 109.8 193.2 111.4"/>
                <polygon class="cls-1" points="185.9 113.2 186.6 112.6 187.5 113.6 187.8 114.7 188.2 115 188.2 113.3 189.4 112.5 189.6 111.6 190.5 112.3 192.4 112.3 193.7 111.3 192.9 109 190.3 107.1 187.8 107.2 186.9 108 185.7 108.3 184.8 110.5 184.9 112.8 185.9 114.8 186.3 114.6 185.9 113.2"/>
                <polygon class="cls-23" points="187 108.3 189.1 110.9 187.7 108.4 187 108.3"/>
                <polygon class="cls-20" points="166.4 129 164.8 127.4 162.8 127.6 162.9 128.2 162 128.3 160.2 128 160 128.8 162.1 131.4 165.4 131.4 165.9 131.2 166.9 130.1 166.4 129"/>
                <polygon class="cls-34" points="186.2 115.4 186.4 116.9 188.2 118.7 187.1 120.2 185.6 118 185.2 116.5 186.2 115.4"/>
                <polygon class="cls-32" points="187.8 141.4 184.8 142.5 187.7 142 187.8 141.4"/>
                <polygon class="cls-20" points="207.3 128 209.1 126.8 211.1 127 210.6 127.6 211.7 128 213.2 127.9 213.2 128.6 210.9 130.9 209.1 130.9 207.1 130.2 206.4 128.4 207.3 128"/>
              </g>
              <g>
                <polygon class="cls-20" points="173.2 175.3 174.4 177.1 173.5 177.8 170.5 181.1 170.3 182.7 171.3 183.5 176.2 180.8 177.4 179 178.2 177.3 176.9 173.8 174.3 173.8 173.2 175.3"/>
                <polygon class="cls-33" points="174.4 177.1 175.6 178.2 175.1 178.2 174.4 177.1"/>
                <polygon class="cls-26" points="173 166.4 171.4 166.6 170.3 167.6 170.4 170.3 172.8 175.4 174.4 175.7 176.4 174.7 177.1 173.4 175.4 168.4 174.4 167 173 166.4"/>
                <polygon class="cls-28" points="154.3 219.7 154.3 214.5 160.6 210.9 169.5 210.9 175.8 214.5 175.8 219.7 169.5 223.3 160.6 223.3 154.3 219.7"/>
                <polygon class="cls-54" points="172.8 215.9 172.8 216.2 172.2 217.1 170.9 217.1 170.1 215.6 169.9 214.6 168.6 213 168.3 211.6 168.3 211.3 170.5 213.4 172.8 215.9"/>
                <polygon class="cls-9" points="172.7 213.8 172.8 215.9 172.2 216.8 170.9 216.8 170.1 215.3 169.9 214.3 168.6 212.8 168.3 211.3 168.6 210.9 169.4 210.7 172.7 213.8"/>
                <polygon class="cls-56" points="172.3 188.2 172.3 200.3 173.4 203.6 173.4 213.1 172.4 214.5 170.4 214.5 169.2 213.1 168.1 202.1 166 195 166 190.4 172.3 188.2"/>
                <polygon class="cls-54" points="162 220.2 156.2 219.7 156.2 220 157.6 221.1 162.2 221.2 162.7 221.6 164.7 221.8 165.7 221.2 165.7 220.9 162 220.2"/>
                <polygon class="cls-9" points="161.1 217.3 158.8 218 156.4 218 156.2 219.7 157.6 220.8 162.2 220.9 162.7 221.2 164.7 221.5 165.7 220.9 165.7 218.2 161.1 217.3"/>
                <polygon class="cls-16" points="170.8 181.9 172.6 188.1 171.7 189.8 167.2 192.6 165.4 203.9 166.1 207.3 166.1 218 164.5 219 162.1 219 160.7 217.2 159.7 202.7 159.7 185.1 160.7 182.5 170.8 181.9"/>
                <polygon class="cls-32" points="170.2 180.3 170.8 181.9 169.8 183 165.6 184.9 161.1 184.9 160.1 184 160 181.5 170.2 180.3"/>
                <polygon class="cls-34" points="170.6 166.9 172.9 166.9 174.3 169.1 174.4 171.8 172.9 176.1 171.1 179 171.1 179.9 169.4 181.8 165.4 183.5 161.1 183.5 160 182.6 159.5 181.1 160 176.1 160 173.7 160.8 172.3 161.8 170.8 164.4 169.1 170.6 166.9"/>
                <polygon class="cls-20" points="164.8 165.9 165.3 168.1 166.4 168.4 169.1 167.5 169.8 166.2 169.5 164.5 168.3 163 164.8 164 164.8 165.9"/>
                <polygon class="cls-20" points="156.8 168.7 153.6 167.3 152.2 165.9 146.3 162.6 144.9 160 142.2 157.5 142 158 143.4 160 142.4 160.1 141.8 162 142.3 162.6 142.7 162.6 144.5 164.1 145 164.1 149.8 169.4 151.4 170.3 154.2 172 156.5 171.7 157.5 170.2 156.8 168.7"/>
                <polygon class="cls-20" points="164.1 158.3 163.2 158.9 162.6 160.2 162.6 161.3 162.8 162 162.6 162.8 163.1 165.1 163.8 165.9 164.8 165.9 165.9 164.9 166.8 161.9 166.4 158.1 164.1 158.3"/>
                <polygon class="cls-4" points="165 159.9 165 159.1 164.1 158.3 164.8 157.3 166.6 157.1 168.5 157.9 170 159.1 170.7 160.4 170.8 162.3 170.1 163.8 169.1 164.9 167.8 165.4 166.6 165.4 165.9 164.9 165.4 164 164.6 162.9 164.2 162.9 164 163.5 163.5 163.3 163.5 161.9 163.3 160.7 164.3 160.4 165 159.9"/>
                <polygon class="cls-26" points="163.1 174.2 162.2 175.8 160.5 176.6 154.2 172.4 154.2 170.6 155.2 169 157.1 168.6 161.5 171.4 162.8 172.6 163.1 174.2"/>
                <polygon class="cls-26" points="170.6 166.9 169.1 168.5 166.6 169 164.4 169.1 164.4 167.3 166.2 167.6 168.8 166.9 170.1 165.9 170.6 166.9"/>
              </g>
              <g>
                <path class="cls-28" d="M183.9,210.1l5.4,3.1h7.7l5.4-3.1v-4.4l-5.4-3.1h-7.7l-5.4,3.1v4.4h0Z"/>
                <polygon class="cls-32" points="196.3 202.7 196.7 202.7 198.1 203.6 198.1 204.9 196.5 207 195.5 208.2 194.3 208.3 194 207.3 194.1 206.2 196.3 202.7"/>
                <polygon class="cls-20" points="193.8 191.1 193.8 192.4 193.2 196.1 194.3 203.8 194.1 206.2 194.3 207.3 195.3 207.3 196.4 206.2 197.2 204.7 197 203.7 196.3 203.1 196.3 201.2 197.2 196.3 196.9 190.5 195.3 189.2 193.8 191.1"/>
                <polygon class="cls-32" points="192.1 211.2 192.2 212.1 190.8 212.3 187.6 209.1 187.5 208 188.6 207 189.7 207 192.1 211.2"/>
                <polygon class="cls-20" points="188.1 192.5 188.5 194.9 188.9 199.9 189.7 207 189.4 207.1 188.7 207.6 188.5 208.6 189.8 210.3 190.8 211.2 192.1 211.2 192.1 209.6 192 207.4 192.9 199.4 192.1 195.8 192.3 191.8 190.3 190.5 188.8 190.6 188.1 192.5"/>
                <polygon class="cls-42" points="198.4 177.9 198.8 182.4 197.5 191 196.6 192.2 192.2 194.9 189.6 195.3 188.2 193.7 186.1 183.6 186.1 178.6 188.4 174.6 195.7 174.6 198.4 177.9"/>
                <polygon class="cls-20" points="189 157.3 189.2 157.5 190.3 159.3 193.3 159.8 194.5 159 194.7 156.8 192.1 155.6 188.8 155.8 189 157.3"/>
                <polygon class="cls-33" points="189 157.3 189.8 156.4 189.7 157.1 189 157.3"/>
                <polygon class="cls-11" points="197.8 160.5 199.3 160.8 201.2 163.6 201.6 164.8 205 170.3 204.4 171.6 202.7 171.9 197.2 170.6 196.9 170 197.5 167.9 199.8 168.1 198.6 166.4 196.9 164.9 197.8 160.5"/>
                <polygon class="cls-30" points="199.8 168.1 202.3 171 200.9 170 199.8 168.1"/>
                <polygon class="cls-52" points="184.3 175.1 183.1 174.3 184.7 172.6 185.7 173.4 185.3 174.4 184.7 174.7 184.3 175.1"/>
                <polygon class="cls-11" points="185.6 166.3 181.8 170.1 184.9 172.2 185 173.4 184.2 174.4 182.9 174.6 177.3 171.4 177.3 170.1 182.2 164.3 182.7 163.4 185.1 160.8 186.3 160.8 186.9 163.6 185.6 166.3"/>
                <polygon class="cls-25" points="189.3 160.1 186.3 160.8 185.6 162.5 185.6 166.3 187.4 171.8 186.1 174.3 185.9 178.5 187.4 179.5 191.6 180 192.2 176.4 193 180 197.4 179.2 198.6 177.7 197.9 173.7 196.6 171.3 198.6 166.4 198.8 162.4 197.8 160.5 195.7 159.9 189.3 160.1"/>
                <polygon class="cls-52" points="194.2 158.4 192.5 159 190.6 158.6 189.2 157.5 189.7 158.8 189.3 160.1 190.2 160.8 192.6 161 194.2 160.5 194.2 158.4"/>
                <polygon class="cls-20" points="187.8 150.4 187.1 151.6 186.9 152.8 187.1 153.2 186.9 153.9 187.5 156.3 188.2 157.3 189 157.3 189.8 156.4 191 155 190.2 152.3 190.1 150.6 187.8 150.4"/>
                <polygon class="cls-18" points="195.5 151.9 195.1 150.6 193.7 149.2 190.7 148.6 189 149.2 187.8 150.4 187.4 151.8 187.7 153.3 187.8 154.4 188.5 154.2 189.6 155.2 189.8 156.4 191.4 157.6 193.9 157.9 195.5 155.6 195.5 151.9"/>
                <polygon class="cls-49" points="193.5 153.7 193.7 154.7 193.3 157.8 194.9 153.9 193.5 153.7"/>
                <polygon class="cls-14" points="196 153 195.8 152.1 195.2 151.8 194.3 151.8 193.4 152.7 193.4 153.8 194.3 154.2 196 153"/>
                <polygon class="cls-18" points="194 153.4 194.6 152.5 195.7 152.4 197.1 153.8 198 155.4 198.2 157.9 196.6 161.1 196.1 163.1 194.1 161.5 193.2 158.4 194 154.7 194 153.4"/>
                <polygon class="cls-20" points="186.3 173.7 187 173.9 187.1 175.7 186 177.1 186 178.1 185.1 177.2 185.1 175.2 185.9 173.6 186.3 173.7"/>
                <polygon class="cls-52" points="185.7 173.4 186 173.6 186 174.4 185.3 175.2 184.4 175.2 184.3 175.1 185.7 173.4"/>
                <polygon class="cls-33" points="189.7 207 189.4 208.8 189.3 208.1 189.7 207"/>
                <polygon class="cls-33" points="196.3 203.1 196.4 205.3 196.7 204.6 196.3 203.1"/>
                <polygon class="cls-11" points="195.7 171.8 194.1 172.6 189.5 172.8 194.2 173.2 195.7 171.8"/>
                <polygon class="cls-27" points="196.1 183.2 188.4 182.9 195.2 184.1 196.1 183.2"/>
              </g>
              <g>
                <g>
                  <g>
                    <polygon class="cls-12" points="210.1 138.6 205.1 141.5 209.8 150.2 214.8 147.3 210.4 138.4 210.1 138.6"/>
                    <polygon class="cls-39" points="205.1 141.5 209.4 150.3 209.8 150.2 205.4 141.4 205.1 141.5"/>
                  </g>
                  <g>
                    <polygon class="cls-42" points="206 140.9 205.1 141.5 205.1 141.4 205.4 140.8 205.8 140.7 206 140.9"/>
                    <polygon class="cls-34" points="205.4 140.7 210.5 137.8 211.4 138.4 211.8 140.2 212.7 142.4 215 146.7 209.9 149.6 209.8 149.4 207.6 145.3 206.8 143.1 206.4 141.4 205.5 140.8 205.4 140.7"/>
                    <g>
                      <polygon class="cls-5" points="213 143.8 208.6 146.3 208.4 145.9 212.8 143.4 213 143.8"/>
                      <polygon class="cls-5" points="212.7 143.1 208.3 145.7 208.1 145.3 212.5 142.7 212.7 143.1"/>
                      <polygon class="cls-5" points="209.4 143.7 211.5 142.5 211.6 142.9 209.6 144.1 209.4 143.7"/>
                      <polygon class="cls-5" points="214.4 146.2 209.9 148.8 209.7 148.4 214.1 145.8 214.4 146.2"/>
                      <polygon class="cls-5" points="214 145.6 209.6 148.2 209.4 147.8 213.8 145.2 214 145.6"/>
                      <polygon class="cls-5" points="212.1 141.9 207.7 144.4 207.5 144 211.9 141.4 212.1 141.9"/>
                      <polygon class="cls-5" points="210.9 138.5 206.5 141 206.1 140.8 210.5 138.2 210.9 138.5"/>
                      <polygon class="cls-5" points="207.3 143.3 210.9 141.2 211.1 141.6 207.5 143.7 207.3 143.3"/>
                      <polygon class="cls-5" points="214.5 146.4 214.7 146.9 210.3 149.4 210 149 214.5 146.4"/>
                      <polygon class="cls-5" points="211.5 140.4 211.6 140.6 207.1 143.1 207.1 142.9 207 142.6 211.4 140.1 211.5 140.4"/>
                    </g>
                    <polygon class="cls-29" points="211.4 138.4 211.8 140.2 206.8 143.1 206.8 143.1 206.4 141.5 206.4 141.3 211.4 138.4"/>
                    <polygon class="cls-5" points="209.9 149.6 210 149.6 207.7 145.3 206.8 143.1 206.4 141.3 205.4 140.7 205.1 141.4 205.1 141.5 205.4 140.8 206.4 141.4 206.7 143.1 207.6 145.3 209.9 149.6"/>
                  </g>
                </g>
                <polygon class="cls-28" points="207.5 188.2 207.5 183.1 213.8 179.4 222.7 179.4 229 183.1 229 188.2 222.7 191.9 213.8 191.9 207.5 188.2"/>
                <polygon class="cls-20" points="228.8 143 229.8 143.8 227.9 146.4 225.4 149.3 224.1 148.7 222.9 148.4 222.8 149.7 223.5 151.6 224.6 152.1 226.1 152.1 226.9 151 232.6 146.6 233.7 144.5 234 142.5 231.6 139.8 228.6 140 228.8 143"/>
                <polygon class="cls-33" points="224.6 152.1 225.2 151.8 224.7 151.1 223.7 150.7 224.6 152.1"/>
                <polygon class="cls-33" points="229.8 143.8 232.2 144.4 231 144.5 229.8 143.8"/>
                <polygon class="cls-33" points="225.4 149.3 224.7 150.2 224.7 149.7 225.4 149.3"/>
                <polygon class="cls-26" points="224.8 134.8 223.3 135.4 224.4 138.9 228.3 143.1 230.1 142.6 231.4 141.1 231.6 139.6 227.9 135.5 226.4 134.8 224.8 134.8"/>
                <polygon class="cls-32" points="226.1 184.5 226.1 184.8 225.5 185.6 224.1 185.6 223.3 184.1 223.1 183.1 221.8 181.6 221.5 180.1 221.5 179.8 223.7 181.9 226.1 184.5"/>
                <polygon class="cls-1" points="225.9 182.3 226.1 184.5 225.5 185.4 224.1 185.4 223.3 183.9 223.1 182.8 221.8 181.3 221.5 179.8 221.8 179.4 222.7 179.2 225.9 182.3"/>
                <polygon class="cls-32" points="225.5 156.7 225.5 168.8 226.7 172.1 226.7 181.7 225.7 183.1 223.7 183 222.5 181.6 221.4 170.6 219.2 163.5 219.2 158.9 225.5 156.7"/>
                <polygon class="cls-32" points="215.2 188.8 209.4 188.2 209.4 188.6 210.8 189.7 215.5 189.8 215.9 190.1 217.9 190.4 219 189.8 219 189.5 215.2 188.8"/>
                <polygon class="cls-1" points="214.3 185.8 212 186.5 209.6 186.5 209.4 188.2 210.8 189.4 215.5 189.5 215.9 189.8 217.9 190.1 219 189.5 219 186.8 214.3 185.8"/>
                <polygon class="cls-4" points="224.1 150.3 225.9 156.5 225 158.3 220.4 161.1 218.7 172.4 219.3 175.8 219.4 186.5 217.7 187.5 215.3 187.5 213.9 185.8 212.9 171.2 212.9 153.6 213.9 150.9 224.1 150.3"/>
                <polygon class="cls-32" points="223.7 148.8 224.1 150.3 223.1 151.4 218.6 153.1 213.9 152.4 214.5 149.9 223.7 148.8"/>
                <polygon class="cls-34" points="223.7 135.5 225.6 135.9 227.2 137.9 227.6 140.4 226 144.7 224.2 147.6 224.2 148.5 222.5 150.5 218.6 151.8 214.6 151.2 213.1 146 213.1 142.3 213.8 140.9 214.9 139.4 217.4 137.7 223.7 135.5"/>
                <polygon class="cls-20" points="210.4 145.6 209.9 144.7 209.2 144.2 208.2 144.8 206.9 144.9 206 145.2 206.1 145.8 206.7 145.9 206.3 146.5 206.8 147.3 208.2 148.1 209.4 147.8 210 146.6 210.4 145.6"/>
                <polygon class="cls-20" points="212.8 147.6 212.6 148.1 210.4 145.6 209.4 145.7 209.2 147.2 211.1 151.5 212.4 153.4 215.2 153.4 216.2 151.4 217.1 148.6 216.2 147 214.2 146.6 212.8 147.6"/>
                <polygon class="cls-33" points="209.2 147.2 209.4 145.8 209.7 145.5 209.3 145.7 209 146.8 209.2 147.2"/>
                <polygon class="cls-20" points="218 134.5 218.2 135.1 218.2 136.4 219.5 136.7 221.9 136.2 223 135.3 222.9 134.7 222.9 132.9 222.1 132.1 218.8 131.9 217.6 132.6 218 134.5"/>
                <polygon class="cls-20" points="217.2 126.9 216.4 127.5 215.7 128.8 215.7 129.9 215.9 130.6 215.7 131.4 216.2 133.7 217 134.5 218 134.5 219 133.4 220 130.4 219.5 126.6 217.2 126.9"/>
                <polygon class="cls-42" points="218.2 128.5 218.2 127.6 217.2 126.9 217.9 125.9 219.8 125.7 221.6 126.4 223.2 127.7 223.8 128.9 224 130.9 223.3 132.4 222.3 133.5 220.9 134 219.7 133.9 219 133.4 218.5 132.5 217.7 131.4 217.4 131.4 217.2 132.1 216.6 131.9 216.6 130.5 216.5 129.2 217.5 129 218.2 128.5"/>
                <polygon class="cls-26" points="215.7 139.6 217.3 140.2 218.3 142.9 217.3 148.6 215.5 149 213.6 148.5 212.6 147.4 213.5 141.9 214.3 140.5 215.7 139.6"/>
                <polygon class="cls-26" points="223.7 135.5 222.2 137.1 219.6 137.6 217.4 137.7 217.4 135.9 219.3 136.2 221.9 135.5 223.2 134.5 223.7 135.5"/>
                <polygon class="cls-33" points="212.6 148.1 212.4 151.4 212.2 149.9 212.6 148.1"/>
              </g>
            </g>
          </g>
        </g>
      </g>
    </g>
  </g>
</svg>