<?xml version="1.0" encoding="UTF-8"?>
<svg xmlns="http://www.w3.org/2000/svg" xmlns:xlink="http://www.w3.org/1999/xlink" version="1.1" viewBox="0 0 280 240">
  <defs>
    <style>
      .cls-1 {
        fill: none;
      }

      .cls-2 {
        fill: #5e5f63;
      }

      .cls-3 {
        fill: #777;
      }

      .cls-4, .cls-5 {
        opacity: .3;
      }

      .cls-4, .cls-5, .cls-6, .cls-7 {
        mix-blend-mode: multiply;
      }

      .cls-8 {
        fill: #2b5f30;
      }

      .cls-9 {
        fill: #eff4f6;
      }

      .cls-10 {
        fill: #b1c8ce;
      }

      .cls-11 {
        fill: #52625c;
      }

      .cls-12 {
        fill: url(#_未命名漸層);
      }

      .cls-13 {
        fill: #e95504;
      }

      .cls-14 {
        fill: #9fb4dc;
      }

      .cls-15 {
        fill: url(#_未命名漸層_51);
      }

      .cls-16 {
        fill: url(#_未命名漸層_50);
      }

      .cls-17 {
        fill: url(#_未命名漸層_14);
      }

      .cls-18 {
        fill: url(#_未命名漸層_19);
      }

      .cls-19 {
        fill: url(#_未命名漸層_13);
      }

      .cls-20 {
        fill: url(#_未命名漸層_18);
      }

      .cls-21 {
        fill: url(#_未命名漸層_16);
      }

      .cls-22 {
        fill: url(#_未命名漸層_15);
      }

      .cls-23 {
        fill: url(#_未命名漸層_12);
      }

      .cls-24 {
        fill: url(#_未命名漸層_17);
      }

      .cls-25 {
        fill: url(#_未命名漸層_37);
      }

      .cls-26 {
        fill: url(#_未命名漸層_38);
      }

      .cls-27 {
        fill: url(#_未命名漸層_39);
      }

      .cls-28 {
        fill: url(#_未命名漸層_32);
      }

      .cls-29 {
        fill: url(#_未命名漸層_33);
      }

      .cls-30 {
        fill: url(#_未命名漸層_34);
      }

      .cls-31 {
        fill: url(#_未命名漸層_35);
      }

      .cls-32 {
        fill: url(#_未命名漸層_36);
      }

      .cls-33 {
        fill: url(#_未命名漸層_30);
      }

      .cls-34 {
        fill: url(#_未命名漸層_31);
      }

      .cls-35 {
        fill: url(#_未命名漸層_29);
      }

      .cls-36 {
        fill: url(#_未命名漸層_26);
      }

      .cls-37 {
        fill: url(#_未命名漸層_28);
      }

      .cls-38 {
        fill: url(#_未命名漸層_22);
      }

      .cls-39 {
        fill: url(#_未命名漸層_25);
      }

      .cls-40 {
        fill: url(#_未命名漸層_27);
      }

      .cls-41 {
        fill: url(#_未命名漸層_24);
      }

      .cls-42 {
        fill: url(#_未命名漸層_20);
      }

      .cls-43 {
        fill: url(#_未命名漸層_21);
      }

      .cls-44 {
        fill: url(#_未命名漸層_23);
      }

      .cls-45 {
        fill: url(#_未命名漸層_46);
      }

      .cls-46 {
        fill: url(#_未命名漸層_47);
      }

      .cls-47 {
        fill: url(#_未命名漸層_48);
      }

      .cls-48 {
        fill: url(#_未命名漸層_49);
      }

      .cls-49 {
        fill: url(#_未命名漸層_42);
      }

      .cls-50 {
        fill: url(#_未命名漸層_43);
      }

      .cls-51 {
        fill: url(#_未命名漸層_44);
      }

      .cls-52 {
        fill: url(#_未命名漸層_45);
      }

      .cls-53 {
        fill: url(#_未命名漸層_41);
      }

      .cls-54 {
        fill: url(#_未命名漸層_40);
      }

      .cls-55 {
        fill: url(#_未命名漸層_10);
      }

      .cls-56 {
        fill: url(#_未命名漸層_11);
      }

      .cls-57 {
        fill: #edf1f4;
      }

      .cls-58 {
        fill: #7790ab;
      }

      .cls-59 {
        fill: #cddee3;
      }

      .cls-60 {
        fill: #3b3e3d;
      }

      .cls-61, .cls-62, .cls-63, .cls-64, .cls-5, .cls-6, .cls-7 {
        isolation: isolate;
      }

      .cls-65 {
        fill: #8c9b92;
      }

      .cls-66 {
        fill: #4a77ba;
      }

      .cls-67 {
        fill: #dde8ee;
      }

      .cls-68 {
        clip-path: url(#clippath-1);
      }

      .cls-69 {
        fill: #6b9831;
      }

      .cls-62 {
        opacity: .5;
      }

      .cls-62, .cls-63 {
        fill: #e5eaec;
      }

      .cls-63 {
        opacity: .3;
      }

      .cls-70 {
        fill: #fff;
      }

      .cls-71 {
        fill: #264e7b;
      }

      .cls-72 {
        fill: #283d42;
      }

      .cls-64 {
        opacity: .6;
      }

      .cls-64, .cls-6 {
        fill: #a8adad;
      }

      .cls-5, .cls-73 {
        fill: #97afce;
      }

      .cls-74 {
        fill: #5e768b;
      }

      .cls-75 {
        fill: #dc4c45;
      }

      .cls-6 {
        opacity: .4;
      }

      .cls-76 {
        fill: url(#_未命名漸層_7);
      }

      .cls-77 {
        fill: url(#_未命名漸層_8);
      }

      .cls-78 {
        fill: url(#_未命名漸層_5);
      }

      .cls-79 {
        fill: url(#_未命名漸層_6);
      }

      .cls-80 {
        fill: url(#_未命名漸層_9);
      }

      .cls-81 {
        fill: url(#_未命名漸層_2);
      }

      .cls-82 {
        fill: url(#_未命名漸層_3);
      }

      .cls-83 {
        fill: url(#_未命名漸層_4);
      }

      .cls-84 {
        fill: #c0c5c5;
      }

      .cls-85 {
        opacity: .8;
      }

      .cls-86 {
        opacity: .7;
      }

      .cls-87 {
        fill: #375c98;
      }

      .cls-88 {
        fill: #f1f6f5;
      }

      .cls-7 {
        opacity: .9;
      }

      .cls-7, .cls-89 {
        fill: #1d1e1d;
      }

      .cls-90 {
        clip-path: url(#clippath);
      }

      .cls-91 {
        fill: #e8e8e8;
      }
    </style>
    <linearGradient id="_未命名漸層" data-name="未命名漸層" x1="62.6" y1="162.7" x2="70.1" y2="190.2" gradientTransform="translate(0 282) scale(1 -1)" gradientUnits="userSpaceOnUse">
      <stop offset="0" stop-color="#b0c0e2"/>
      <stop offset="1" stop-color="#cbe3f1"/>
    </linearGradient>
    <linearGradient id="_未命名漸層_2" data-name="未命名漸層 2" x1="52.6" y1="160.9" x2="54.9" y2="175.9" gradientTransform="translate(0 282) scale(1 -1)" gradientUnits="userSpaceOnUse">
      <stop offset="0" stop-color="#b0c0e2"/>
      <stop offset="1" stop-color="#cbe3f1"/>
    </linearGradient>
    <linearGradient id="_未命名漸層_3" data-name="未命名漸層 3" x1="42.3" y1="165.7" x2="42.2" y2="170.9" gradientTransform="translate(0 282) scale(1 -1)" gradientUnits="userSpaceOnUse">
      <stop offset="0" stop-color="#b0c0e2"/>
      <stop offset="1" stop-color="#cbe3f1"/>
    </linearGradient>
    <linearGradient id="_未命名漸層_4" data-name="未命名漸層 4" x1="83.7" y1="184.5" x2="114" y2="184.5" gradientTransform="translate(0 282) scale(1 -1)" gradientUnits="userSpaceOnUse">
      <stop offset="0" stop-color="#b0c0e2"/>
      <stop offset="1" stop-color="#cbe3f1"/>
    </linearGradient>
    <linearGradient id="_未命名漸層_5" data-name="未命名漸層 5" x1="90.4" y1="191.3" x2="93.1" y2="191.3" gradientTransform="translate(0 282) scale(1 -1)" gradientUnits="userSpaceOnUse">
      <stop offset="0" stop-color="#b0c0e2"/>
      <stop offset="1" stop-color="#cbe3f1"/>
    </linearGradient>
    <linearGradient id="_未命名漸層_6" data-name="未命名漸層 6" x1="90.4" y1="190.5" x2="91.2" y2="190.5" gradientTransform="translate(0 282) scale(1 -1)" gradientUnits="userSpaceOnUse">
      <stop offset="0" stop-color="#b0c0e2"/>
      <stop offset="1" stop-color="#cbe3f1"/>
    </linearGradient>
    <linearGradient id="_未命名漸層_7" data-name="未命名漸層 7" x1="97.6" y1="187.1" x2="100.2" y2="187.1" gradientTransform="translate(0 282) scale(1 -1)" gradientUnits="userSpaceOnUse">
      <stop offset="0" stop-color="#b0c0e2"/>
      <stop offset="1" stop-color="#cbe3f1"/>
    </linearGradient>
    <linearGradient id="_未命名漸層_8" data-name="未命名漸層 8" x1="97.6" y1="186.4" x2="98.3" y2="186.4" gradientTransform="translate(0 282) scale(1 -1)" gradientUnits="userSpaceOnUse">
      <stop offset="0" stop-color="#b0c0e2"/>
      <stop offset="1" stop-color="#cbe3f1"/>
    </linearGradient>
    <linearGradient id="_未命名漸層_9" data-name="未命名漸層 9" x1="105.2" y1="182.7" x2="107.8" y2="182.7" gradientTransform="translate(0 282) scale(1 -1)" gradientUnits="userSpaceOnUse">
      <stop offset="0" stop-color="#b0c0e2"/>
      <stop offset="1" stop-color="#cbe3f1"/>
    </linearGradient>
    <linearGradient id="_未命名漸層_10" data-name="未命名漸層 10" x1="105.2" y1="182" x2="105.9" y2="182" gradientTransform="translate(0 282) scale(1 -1)" gradientUnits="userSpaceOnUse">
      <stop offset="0" stop-color="#b0c0e2"/>
      <stop offset="1" stop-color="#cbe3f1"/>
    </linearGradient>
    <linearGradient id="_未命名漸層_11" data-name="未命名漸層 11" x1="117.1" y1="194.4" x2="124.6" y2="221.9" gradientTransform="translate(0 282) scale(1 -1)" gradientUnits="userSpaceOnUse">
      <stop offset="0" stop-color="#b0c0e2"/>
      <stop offset="1" stop-color="#cbe3f1"/>
    </linearGradient>
    <linearGradient id="_未命名漸層_12" data-name="未命名漸層 12" x1="107.1" y1="192.6" x2="109.5" y2="207.6" gradientTransform="translate(0 282) scale(1 -1)" gradientUnits="userSpaceOnUse">
      <stop offset="0" stop-color="#b0c0e2"/>
      <stop offset="1" stop-color="#cbe3f1"/>
    </linearGradient>
    <linearGradient id="_未命名漸層_13" data-name="未命名漸層 13" x1="96.8" y1="197.4" x2="96.7" y2="202.6" gradientTransform="translate(0 282) scale(1 -1)" gradientUnits="userSpaceOnUse">
      <stop offset="0" stop-color="#b0c0e2"/>
      <stop offset="1" stop-color="#cbe3f1"/>
    </linearGradient>
    <linearGradient id="_未命名漸層_14" data-name="未命名漸層 14" x1="138.2" y1="216.2" x2="168.6" y2="216.2" gradientTransform="translate(0 282) scale(1 -1)" gradientUnits="userSpaceOnUse">
      <stop offset="0" stop-color="#b0c0e2"/>
      <stop offset="1" stop-color="#cbe3f1"/>
    </linearGradient>
    <linearGradient id="_未命名漸層_15" data-name="未命名漸層 15" x1="145" y1="222.9" x2="147.6" y2="222.9" gradientTransform="translate(0 282) scale(1 -1)" gradientUnits="userSpaceOnUse">
      <stop offset="0" stop-color="#b0c0e2"/>
      <stop offset="1" stop-color="#cbe3f1"/>
    </linearGradient>
    <linearGradient id="_未命名漸層_16" data-name="未命名漸層 16" x1="145" y1="222.2" x2="145.8" y2="222.2" gradientTransform="translate(0 282) scale(1 -1)" gradientUnits="userSpaceOnUse">
      <stop offset="0" stop-color="#b0c0e2"/>
      <stop offset="1" stop-color="#cbe3f1"/>
    </linearGradient>
    <linearGradient id="_未命名漸層_17" data-name="未命名漸層 17" x1="152.1" y1="218.8" x2="154.8" y2="218.8" gradientTransform="translate(0 282) scale(1 -1)" gradientUnits="userSpaceOnUse">
      <stop offset="0" stop-color="#b0c0e2"/>
      <stop offset="1" stop-color="#cbe3f1"/>
    </linearGradient>
    <linearGradient id="_未命名漸層_18" data-name="未命名漸層 18" x1="152.1" y1="218.1" x2="152.9" y2="218.1" gradientTransform="translate(0 282) scale(1 -1)" gradientUnits="userSpaceOnUse">
      <stop offset="0" stop-color="#b0c0e2"/>
      <stop offset="1" stop-color="#cbe3f1"/>
    </linearGradient>
    <linearGradient id="_未命名漸層_19" data-name="未命名漸層 19" x1="159.7" y1="214.4" x2="162.4" y2="214.4" gradientTransform="translate(0 282) scale(1 -1)" gradientUnits="userSpaceOnUse">
      <stop offset="0" stop-color="#b0c0e2"/>
      <stop offset="1" stop-color="#cbe3f1"/>
    </linearGradient>
    <linearGradient id="_未命名漸層_20" data-name="未命名漸層 20" x1="159.7" y1="213.7" x2="160.5" y2="213.7" gradientTransform="translate(0 282) scale(1 -1)" gradientUnits="userSpaceOnUse">
      <stop offset="0" stop-color="#b0c0e2"/>
      <stop offset="1" stop-color="#cbe3f1"/>
    </linearGradient>
    <linearGradient id="_未命名漸層_21" data-name="未命名漸層 21" x1="26" y1="153.4" x2="73.7" y2="153.4" gradientTransform="translate(0 282) scale(1 -1)" gradientUnits="userSpaceOnUse">
      <stop offset="0" stop-color="#bccfeb"/>
      <stop offset="1" stop-color="#97afce"/>
    </linearGradient>
    <linearGradient id="_未命名漸層_22" data-name="未命名漸層 22" x1="65.4" y1="129.9" x2="178.7" y2="203.7" gradientTransform="translate(0 282) scale(1 -1)" gradientUnits="userSpaceOnUse">
      <stop offset="0" stop-color="#bccfeb"/>
      <stop offset="1" stop-color="#cbe3f1"/>
    </linearGradient>
    <linearGradient id="_未命名漸層_23" data-name="未命名漸層 23" x1="112.5" y1="150.6" x2="117" y2="170.6" gradientTransform="translate(0 282) scale(1 -1)" gradientUnits="userSpaceOnUse">
      <stop offset="0" stop-color="#b0c0e2"/>
      <stop offset="1" stop-color="#cbe3f1"/>
    </linearGradient>
    <linearGradient id="_未命名漸層_24" data-name="未命名漸層 24" x1="137.8" y1="165.1" x2="142.3" y2="184.9" gradientTransform="translate(0 282) scale(1 -1)" gradientUnits="userSpaceOnUse">
      <stop offset="0" stop-color="#b0c0e2"/>
      <stop offset="1" stop-color="#cbe3f1"/>
    </linearGradient>
    <linearGradient id="_未命名漸層_25" data-name="未命名漸層 25" x1="129.2" y1="158.5" x2="132.5" y2="168.1" gradientTransform="translate(0 282) scale(1 -1)" gradientUnits="userSpaceOnUse">
      <stop offset="0" stop-color="#b0c0e2"/>
      <stop offset="1" stop-color="#cbe3f1"/>
    </linearGradient>
    <linearGradient id="_未命名漸層_26" data-name="未命名漸層 26" x1="128" y1="165.1" x2="130.2" y2="171.8" gradientTransform="translate(0 282) scale(1 -1)" gradientUnits="userSpaceOnUse">
      <stop offset="0" stop-color="#22afa1"/>
      <stop offset="1" stop-color="#90cb96"/>
    </linearGradient>
    <linearGradient id="_未命名漸層_27" data-name="未命名漸層 27" x1="151.8" y1="147" x2="151.8" y2="52" gradientTransform="translate(0 282) scale(1 -1)" gradientUnits="userSpaceOnUse">
      <stop offset="0" stop-color="#b9b8b8"/>
      <stop offset="1" stop-color="#a8a6a6"/>
    </linearGradient>
    <clipPath id="clippath">
      <polygon class="cls-1" points="181.4 124.9 156.5 139.3 156.5 167 181.4 152.7 181.4 124.9"/>
    </clipPath>
    <linearGradient id="_未命名漸層_28" data-name="未命名漸層 28" x1="176" y1="155.6" x2="154.6" y2="118.6" gradientTransform="translate(0 282) scale(1 -1)" gradientUnits="userSpaceOnUse">
      <stop offset="0" stop-color="#3b818a"/>
      <stop offset="1" stop-color="#67a0a7"/>
    </linearGradient>
    <linearGradient id="_未命名漸層_29" data-name="未命名漸層 29" x1="181.8" y1="168.1" x2="181.8" y2="126.7" gradientTransform="translate(0 282) scale(1 -1)" gradientUnits="userSpaceOnUse">
      <stop offset="0" stop-color="#b9b8b8"/>
      <stop offset="1" stop-color="#a8a6a6"/>
    </linearGradient>
    <linearGradient id="_未命名漸層_30" data-name="未命名漸層 30" x1="167.1" y1="120.7" x2="167.1" y2="102.9" gradientTransform="translate(0 282) scale(1 -1)" gradientUnits="userSpaceOnUse">
      <stop offset="0" stop-color="#b9b8b8"/>
      <stop offset="1" stop-color="#a8a6a6"/>
    </linearGradient>
    <linearGradient id="_未命名漸層_31" data-name="未命名漸層 31" x1="170.9" y1="125" x2="170.9" y2="121" gradientTransform="translate(0 282) scale(1 -1)" gradientUnits="userSpaceOnUse">
      <stop offset="0" stop-color="#b9b8b8"/>
      <stop offset="1" stop-color="#a8a6a6"/>
    </linearGradient>
    <linearGradient id="_未命名漸層_32" data-name="未命名漸層 32" x1="191" y1="143" x2="191" y2="78.8" gradientTransform="translate(0 282) scale(1 -1)" gradientUnits="userSpaceOnUse">
      <stop offset="0" stop-color="#b9b8b8"/>
      <stop offset="1" stop-color="#a8a6a6"/>
    </linearGradient>
    <clipPath id="clippath-1">
      <polygon class="cls-1" points="209.7 165.2 199.8 171 199.8 150.7 209.7 145 209.7 165.2"/>
    </clipPath>
    <linearGradient id="_未命名漸層_33" data-name="未命名漸層 33" x1="204.8" y1="137" x2="204.8" y2="111" gradientTransform="translate(0 282) scale(1 -1)" gradientUnits="userSpaceOnUse">
      <stop offset="0" stop-color="#b9b8b8"/>
      <stop offset="1" stop-color="#a8a6a6"/>
    </linearGradient>
    <linearGradient id="_未命名漸層_34" data-name="未命名漸層 34" x1="204.2" y1="124" x2="204.2" y2="119" gradientTransform="translate(0 282) scale(1 -1)" gradientUnits="userSpaceOnUse">
      <stop offset="0" stop-color="#b9b8b8"/>
      <stop offset="1" stop-color="#a8a6a6"/>
    </linearGradient>
    <linearGradient id="_未命名漸層_35" data-name="未命名漸層 35" x1="200.2" y1="126.1" x2="200.2" y2="124.9" gradientTransform="translate(0 282) scale(1 -1)" gradientUnits="userSpaceOnUse">
      <stop offset="0" stop-color="#b9b8b8"/>
      <stop offset="1" stop-color="#a8a6a6"/>
    </linearGradient>
    <linearGradient id="_未命名漸層_36" data-name="未命名漸層 36" x1="200.4" y1="125.1" x2="200.4" y2="123.8" gradientTransform="translate(0 282) scale(1 -1)" gradientUnits="userSpaceOnUse">
      <stop offset="0" stop-color="#b9b8b8"/>
      <stop offset="1" stop-color="#a8a6a6"/>
    </linearGradient>
    <linearGradient id="_未命名漸層_37" data-name="未命名漸層 37" x1="200.7" y1="124" x2="200.7" y2="122.8" gradientTransform="translate(0 282) scale(1 -1)" gradientUnits="userSpaceOnUse">
      <stop offset="0" stop-color="#b9b8b8"/>
      <stop offset="1" stop-color="#a8a6a6"/>
    </linearGradient>
    <linearGradient id="_未命名漸層_38" data-name="未命名漸層 38" x1="201" y1="122.9" x2="201" y2="121.7" gradientTransform="translate(0 282) scale(1 -1)" gradientUnits="userSpaceOnUse">
      <stop offset="0" stop-color="#b9b8b8"/>
      <stop offset="1" stop-color="#a8a6a6"/>
    </linearGradient>
    <linearGradient id="_未命名漸層_39" data-name="未命名漸層 39" x1="201.7" y1="127" x2="201.7" y2="125.8" gradientTransform="translate(0 282) scale(1 -1)" gradientUnits="userSpaceOnUse">
      <stop offset="0" stop-color="#b9b8b8"/>
      <stop offset="1" stop-color="#a8a6a6"/>
    </linearGradient>
    <linearGradient id="_未命名漸層_40" data-name="未命名漸層 40" x1="201.9" y1="125.9" x2="201.9" y2="124.7" gradientTransform="translate(0 282) scale(1 -1)" gradientUnits="userSpaceOnUse">
      <stop offset="0" stop-color="#b9b8b8"/>
      <stop offset="1" stop-color="#a8a6a6"/>
    </linearGradient>
    <linearGradient id="_未命名漸層_41" data-name="未命名漸層 41" x1="202.2" y1="124.9" x2="202.2" y2="123.6" gradientTransform="translate(0 282) scale(1 -1)" gradientUnits="userSpaceOnUse">
      <stop offset="0" stop-color="#b9b8b8"/>
      <stop offset="1" stop-color="#a8a6a6"/>
    </linearGradient>
    <linearGradient id="_未命名漸層_42" data-name="未命名漸層 42" x1="202.4" y1="123.8" x2="202.4" y2="122.5" gradientTransform="translate(0 282) scale(1 -1)" gradientUnits="userSpaceOnUse">
      <stop offset="0" stop-color="#b9b8b8"/>
      <stop offset="1" stop-color="#a8a6a6"/>
    </linearGradient>
    <linearGradient id="_未命名漸層_43" data-name="未命名漸層 43" x1="203.1" y1="127.8" x2="203.1" y2="126.6" gradientTransform="translate(0 282) scale(1 -1)" gradientUnits="userSpaceOnUse">
      <stop offset="0" stop-color="#b9b8b8"/>
      <stop offset="1" stop-color="#a8a6a6"/>
    </linearGradient>
    <linearGradient id="_未命名漸層_44" data-name="未命名漸層 44" x1="203.4" y1="126.8" x2="203.4" y2="125.5" gradientTransform="translate(0 282) scale(1 -1)" gradientUnits="userSpaceOnUse">
      <stop offset="0" stop-color="#b9b8b8"/>
      <stop offset="1" stop-color="#a8a6a6"/>
    </linearGradient>
    <linearGradient id="_未命名漸層_45" data-name="未命名漸層 45" x1="203.6" y1="125.7" x2="203.6" y2="124.4" gradientTransform="translate(0 282) scale(1 -1)" gradientUnits="userSpaceOnUse">
      <stop offset="0" stop-color="#b9b8b8"/>
      <stop offset="1" stop-color="#a8a6a6"/>
    </linearGradient>
    <linearGradient id="_未命名漸層_46" data-name="未命名漸層 46" x1="203.9" y1="124.6" x2="203.9" y2="123.4" gradientTransform="translate(0 282) scale(1 -1)" gradientUnits="userSpaceOnUse">
      <stop offset="0" stop-color="#b9b8b8"/>
      <stop offset="1" stop-color="#a8a6a6"/>
    </linearGradient>
    <linearGradient id="_未命名漸層_47" data-name="未命名漸層 47" x1="205.2" y1="129.2" x2="205.2" y2="127.6" gradientTransform="translate(0 282) scale(1 -1)" gradientUnits="userSpaceOnUse">
      <stop offset="0" stop-color="#b9b8b8"/>
      <stop offset="1" stop-color="#a8a6a6"/>
    </linearGradient>
    <linearGradient id="_未命名漸層_48" data-name="未命名漸層 48" x1="205.4" y1="128.2" x2="205.4" y2="126.5" gradientTransform="translate(0 282) scale(1 -1)" gradientUnits="userSpaceOnUse">
      <stop offset="0" stop-color="#b9b8b8"/>
      <stop offset="1" stop-color="#a8a6a6"/>
    </linearGradient>
    <linearGradient id="_未命名漸層_49" data-name="未命名漸層 49" x1="204.8" y1="119.6" x2="204.8" y2="115.9" gradientTransform="translate(0 282) scale(1 -1)" gradientUnits="userSpaceOnUse">
      <stop offset="0" stop-color="#b9b8b8"/>
      <stop offset="1" stop-color="#a8a6a6"/>
    </linearGradient>
    <linearGradient id="_未命名漸層_50" data-name="未命名漸層 50" x1="204.4" y1="118" x2="204.9" y2="117" gradientTransform="translate(0 282) scale(1 -1)" gradientUnits="userSpaceOnUse">
      <stop offset="0" stop-color="#a8adad"/>
      <stop offset="1" stop-color="#ced4d5"/>
    </linearGradient>
    <linearGradient id="_未命名漸層_51" data-name="未命名漸層 51" x1="188.2" y1="165.5" x2="188.2" y2="146.1" gradientTransform="translate(0 282) scale(1 -1)" gradientUnits="userSpaceOnUse">
      <stop offset="0" stop-color="#b9b8b8"/>
      <stop offset="1" stop-color="#a8a6a6"/>
    </linearGradient>
  </defs>
  <!-- Generator: Adobe Illustrator 28.6.0, SVG Export Plug-In . SVG Version: 1.2.0 Build 709)  -->
  <g>
    <g id="_圖層_1" data-name="圖層_1">
      <g class="cls-61">
        <g id="_圖層_2">
          <g id="_圖層_1-2">
            <g>
              <rect class="cls-70" width="280" height="240"/>
              <g>
                <g>
                  <path class="cls-13" d="M41.8,36.6h3.6v4h-1v-.4h-4.5v.4h-.9v-3.9c-.2,0-.4.2-.6.3-.2-.3-.3-.5-.5-.8,1-.4,1.6-.8,1.8-1.3h-1.8v-.7h2c0-.2,0-.5,0-.8h-.8c-.2.2-.4.5-.7.8l-.2-.2c0,0-.2-.2-.4-.4.5-.5.9-1,1.1-1.6h.8c0,.3-.2.5-.3.7h2.6v.7h-1.2c0,0,0,.2,0,.4,0,.2,0,.3,0,.4h1.6v.7h-1.7c.3.2.7.4,1.2.8.2.1.3.2.4.2l-.5.7h0ZM41.8,36.6c-.3-.2-.7-.5-1.2-.8-.1-.1-.3-.2-.4-.2-.2.4-.6.8-1.3,1.1h2.8ZM39.8,37.4v.8h4.5v-.8h-4.5ZM39.8,38.8v.8h4.5v-.8h-4.5ZM42.7,36v-3.4h3.3v3.4h-3.3ZM43.5,33.4v1.8h1.6v-1.8h-1.6ZM48.8,38.9c-.3.5-.6,1-.9,1.5-.2-.1-.4-.2-.8-.4.3-.4.6-.9.9-1.4l.8.3h0ZM47.4,33.2v-.6h1.6v-.5h.9v.5h1.3v.6h-1.3v.5h1.2v.5h-1.2v.4h1.3c0-.1,0,.5,0,.5h-1.3v.6h-.9v-.4h-1.6c0,.1,0-.5,0-.5h1.6v-.6h-1.5v-.5h1.5v-.5h-1.6ZM47.5,37.3v-.5h6.2v-.5h-5.7v-.6h6.6v1h.8v.5h-.8v1.1h-3c.2.3.4.5.6.8l-.7.4c-.4-.5-.6-.8-.8-1.1h.2c0-.1-3.1-.1-3.1-.1v-.6h5.7v-.5h-6.2,0ZM50.2,40.5c-.7,0-1-.3-1-.9v-.8h.9v.6c0,.3.2.4.5.4h1.5c.4,0,.6,0,.7-.4,0-.1.1-.3.1-.5.1,0,.3.1.6.2.1,0,.2,0,.3.1,0,.1,0,.2-.1.4,0,0,0,.2,0,.2,0,.5-.5.7-1.2.7h-2.2,0ZM51.6,33.2v-.6h1.3v-.5h.8v.5h1.6v.6h-1.6v.5h1.5v.5h-1.5v.5h1.8v.5h-1.8v.5h-.8v-.5h-1.3v-.5h1.3v-.5h-1.2v-.5h1.2v-.5h-1.3ZM54.9,40.3c-.1-.2-.3-.6-.7-1-.1-.2-.2-.3-.2-.4l.8-.4c.1.2.3.4.5.7.2.3.4.5.5.6l-.8.4h0ZM59.6,33.7c-.7,1.3-1.5,2.4-2.6,3.3,0-.1-.2-.3-.4-.6,0-.1-.2-.2-.2-.3,1.1-.8,1.9-1.8,2.3-2.8l.9.4h0ZM58.9,40.1c-.8,0-1.4,0-1.8.1l-.2-.8c0,0,.2,0,.4,0h.4c.9-1.3,1.7-2.6,2.4-4l1,.5c-.7,1.1-1.4,2.2-2.2,3.4l3.6-.2c-.2-.2-.4-.5-.7-.9-.2-.3-.4-.5-.5-.7l.8-.5c.4.5,1.1,1.3,2,2.5.2.3.4.5.5.6l-.8.6-.6-.8c-.9,0-2.3.1-4.2.3h0ZM65,35.9c-.2.4-.4.6-.5.8-1.4-.9-2.4-2.1-3-3.6h-2.2v-.8h2.9c.6,1.5,1.5,2.6,2.8,3.4,0,0,0,0-.1.1h0ZM67.3,35.9c0,2.1-.3,3.6-.8,4.6-.3-.2-.6-.5-.8-.6.6-.8.8-2.2.8-4v-3h3.6v-.8h1v.8h3.3v.8h-7v2.2h0ZM68.9,39.7c-.4.5-.8.8-1,.9l-.6-.6c.4-.3.8-.7,1.2-1.1l.6.5c0,0-.2.2-.3.3h0ZM67.9,38.8v-4.5h3.1v4.5s-3.1,0-3.1,0ZM68.7,35v.6h1.5v-.6h-1.5ZM68.7,36.2v.6h1.5v-.6h-1.5ZM68.7,37.5v.6h1.5v-.6h-1.5ZM70.8,40.5c-.3-.4-.7-.7-1.1-1.1l.5-.5c0,0,.2.1.3.2.4.4.8.6.9.8l-.6.5h0ZM72.8,40.5c-.2,0-.6,0-1.1,0,0-.3-.1-.5-.2-.8,0,0,.3,0,.5,0h.4c.4,0,.6-.1.5-.4v-5.2h.8v5.4c0,.6-.3,1-1,1h0ZM71.6,38.9v-4.2h.8v4.2h-.8Z"/>
                  <g>
                    <path class="cls-13" d="M28.8,44.1c0,.2-.1.4-.4.4-.2,0-.5-.2-.8-.2-.4,0-.9.2-.9.7s.3.7,1,1.1c.9.5,1.2.8,1.2,1.5s-.8,1.5-1.7,1.5-1-.2-1.1-.3c-.1,0-.1-.2-.1-.2,0-.2,0-.3.1-.4.3.2.8.4,1.2.4s1-.3,1-.8-.3-.7-1-1.1c-1-.5-1.1-1-1.1-1.5s.4-1.3,1.6-1.3.9.1,1.1.4Z"/>
                    <path class="cls-13" d="M30.6,48.7c0,.1,0,.2-.2.2-.2,0-.4,0-.6,0,0-.3,0-.8,0-1.5v-1.4c0-.3,0-.4-.1-.5h0c0-.2.3-.3.5-.3.3,0,.3.4.4.6.3-.3.8-.6,1.2-.6s.8.2,1,.6c.3-.3.8-.6,1.3-.6.9,0,1.2.7,1.2,1.4v1.2c0,.5,0,.8,0,1-.2,0-.4,0-.6,0s-.1,0-.1-.1v-2.1c0-.6-.3-.9-.7-.9s-.7.2-.9.4v2.4c0,.2,0,.2-.2.2-.2,0-.4,0-.6,0,0-.3,0-.8,0-1.5v-.7c0-.6-.3-.9-.7-.9s-.7.2-.9.5v2.4h0Z"/>
                    <path class="cls-13" d="M39.2,48.5c0,.3-.2.5-.5.5s-.5-.2-.6-.5c-.2.2-.6.5-1,.5s-1-.4-1-.9c0-.9,1.1-1.1,1.5-1.2.2,0,.3,0,.4,0v-.2c0-.4-.2-.7-.7-.7s-.6.1-.8.3c-.2.1-.4,0-.4-.3.2-.2.8-.5,1.3-.5.8,0,1.2.6,1.2,1.4s0,1.1,0,1.6,0,.2.3.2.1,0,.2,0h0s0,0,0,0ZM37.3,48.4c.3,0,.6-.2.7-.4,0,0,0-.1,0-.3v-.6c-.7,0-1.3.3-1.3.8s.2.5.5.5h0Z"/>
                    <path class="cls-13" d="M39.9,45.6c0-.1.3-.3.5-.3.2,0,.4.3.4.8.3-.5.6-.8,1-.8s.4,0,.4.2c0,.1,0,.3-.2.5,0,0-.1,0-.2,0s-.2,0-.3,0c-.2,0-.5.2-.6.6,0,.1,0,.2,0,.4v1.8c0,.1,0,.2-.2.2-.2,0-.4,0-.6,0,0-.3,0-.8,0-1.5v-1.3c0-.2,0-.4-.2-.5h0s0,0,0,0Z"/>
                    <path class="cls-13" d="M44.9,48.3c0,.2,0,.4-.2.5-.2.1-.5.2-.8.2-.7,0-1-.4-1-1.1v-2.1c-.3,0-.4,0-.4-.2,0-.2.6-.6.7-.7.1,0,.2-.2.4-.2,0,.3,0,.4,0,.6h1.3c0,.4-.3.4-.4.5-.3,0-.3,0-.9,0,0,.8,0,1.7,0,2,0,.5.3.6.6.6s.5,0,.6-.2h0s0,0,0,0Z"/>
                    <path class="cls-13" d="M48.4,50.4c0,.1,0,.2-.2.2-.2,0-.4,0-.6,0,0-.2,0-.7,0-1.4v-3.2c0-.3,0-.4-.1-.5h0c0-.2.3-.3.5-.3s.3.2.3.5c.5-.4.9-.5,1.2-.5.7,0,1.5.6,1.5,1.7s-.9,2-1.9,2-.6,0-.7-.2v1.6h0ZM48.4,48.3c.2,0,.4.2.7.2.5,0,1.2-.3,1.2-1.4s-.4-1.2-1-1.2-.8.2-.9.4v2.1h0Z"/>
                    <path class="cls-13" d="M52,46.3c0-.5,0-.7,0-.9.1,0,.5,0,.6,0s.1,0,.1.5v1.6c0,.8.4.9.8.9s.7-.2.8-.4v-2.4c0-.2,0-.2.1-.3.2,0,.4,0,.6,0,0,.2,0,.7,0,1.4v1.3c0,.4.1.5.3.5h0c0,.2-.2.4-.4.4-.3,0-.5-.2-.6-.6-.3.3-.5.4-.7.5-.2,0-.3,0-.5,0-.8,0-1.2-.5-1.2-1.3v-1.3h0Z"/>
                    <path class="cls-13" d="M57,45.6c.3-.2.7-.4,1.1-.4.8,0,1.5.5,1.5,1.7s-1,2-2.2,2-.8,0-1-.2c0,0-.1,0-.1-.2v-4.1c0-.5,0-.7,0-.9.2,0,.5-.1.6-.1s.1,0,.1.5v1.7h0ZM57,48.4c.2,0,.3,0,.5,0,.7,0,1.3-.4,1.3-1.4s-.4-1.2-1.1-1.2-.5.1-.7.2v2.4h0Z"/>
                    <path class="cls-13" d="M60.5,44.4c0-.5,0-.7,0-.9.2,0,.5-.1.6-.1s.1,0,.1.5v3.9c0,.4,0,.8,0,1.1-.2,0-.5,0-.6,0s0,0,0-.1v-4.4h0Z"/>
                    <path class="cls-13" d="M63.2,44c0,.2-.2.4-.4.4s-.4-.2-.4-.4.2-.4.4-.4.4.2.4.4ZM63.1,48.7c0,.2,0,.2-.2.2-.1,0-.3,0-.6,0,0-.3,0-.8,0-1.3v-1.4c0-.5,0-.7,0-.9.2,0,.5,0,.6,0s.1,0,.1.5v2.9h0Z"/>
                    <path class="cls-13" d="M67,48.3c0,.2-.1.4-.2.5-.2.1-.5.2-.9.2-.8,0-1.8-.4-1.8-1.8s.9-1.9,2-1.9,1,.2,1,.3c0,.2-.1.4-.4.4-.2,0-.4-.2-.7-.2-.7,0-1.2.5-1.2,1.3s.7,1.3,1.3,1.3.6,0,.9-.2h0Z"/>
                    <path class="cls-13" d="M71.8,48.3c0,.2,0,.4-.2.5-.2.1-.5.2-.8.2-.7,0-1-.4-1-1.1v-2.1c-.3,0-.4,0-.4-.2,0-.2.6-.6.7-.7.1,0,.2-.2.4-.2,0,.3,0,.4,0,.6h1.3c0,.4-.3.4-.4.5-.3,0-.3,0-.9,0,0,.8,0,1.7,0,2,0,.5.3.6.6.6s.5,0,.6-.2h0s0,0,0,0Z"/>
                    <path class="cls-13" d="M75.8,47.1c0,1.1-.7,1.9-1.8,1.9s-1.8-.9-1.8-1.8.7-1.9,1.8-1.9,1.8.8,1.8,1.8ZM73,47.1c0,1,.5,1.4,1.1,1.4s1-.4,1-1.4-.3-1.4-1.1-1.4-1,.5-1,1.3Z"/>
                    <path class="cls-13" d="M77.5,44c0,.2-.2.4-.4.4s-.4-.2-.4-.4.2-.4.4-.4.4.2.4.4ZM77.4,48.7c0,.2,0,.2-.2.2-.1,0-.3,0-.6,0,0-.3,0-.8,0-1.3v-1.4c0-.5,0-.7,0-.9.2,0,.5,0,.6,0s.1,0,.1.5v2.9h0Z"/>
                    <path class="cls-13" d="M78.6,44.4c0-.5,0-.7,0-.9.2,0,.5-.1.6-.1s.1,0,.1.5v3.9c0,.4,0,.8,0,1.1-.2,0-.5,0-.6,0s0,0,0-.1v-4.4h0Z"/>
                    <path class="cls-13" d="M83.2,48.2c0,.3-.2.5-.3.6s-.5.2-.8.2c-1.1,0-1.8-.7-1.8-1.8s.6-1.9,1.7-1.9,1.3.7,1.4,1.3c0,0,0,.2,0,.3,0,.1-.4.2-.7.3-.2,0-1,0-1.6,0,0,.8.5,1.2,1.2,1.2s.8-.1.9-.2h0ZM81,46.7c.6,0,1.3,0,1.4,0s.2,0,.2-.2c0-.5-.2-.8-.7-.8s-.8.4-.9,1Z"/>
                    <path class="cls-13" d="M86.1,48.3c0,.2,0,.4-.2.5-.2.1-.5.2-.8.2-.7,0-1-.4-1-1.1v-2.1c-.3,0-.4,0-.4-.2,0-.2.6-.6.7-.7.1,0,.2-.2.4-.2,0,.3,0,.4,0,.6h1.3c0,.4-.3.4-.4.5-.3,0-.3,0-.9,0,0,.8,0,1.7,0,2,0,.5.3.6.6.6s.5,0,.6-.2h0s0,0,0,0Z"/>
                  </g>
                  <path class="cls-13" d="M83.3,62.8c1.1-.2,2.1-.2,3.1-.4,3.5-.7,6.3-2.4,7.5-6,.3-.9.4-1.8.4-2.7,0-8.7,0-17.3,0-26,0-4.5-3-7.9-6.2-8.9-1.8-.6-3.7-.7-5.5-1-.7-.1-1.4-.2-2-.3-.8,0-1.3.2-1.4.8,0,.6.3,1.1,1.1,1.2,1.9.3,3.7.5,5.6.8,3.1.5,5.8,3,6.4,6,0,.4,0,.8,0,1.2,0,8.5,0,17.1,0,25.6,0,4.6-3.1,6.8-6.2,7.3-1,.2-2,.3-3,.4-1.5.2-2.1,1.2-1.7,2.7.7,2.7,1.3,5.3,2,8,0,.2,0,.3,0,.5,0,.9-.4,1.4-1.3,1.2-.3,0-.6-.2-.8-.4-4.4-3-8.7-6-13.1-9-.9-.6-1.8-.9-2.9-.7-6.9,1-22.3,3-29.2,3.9-3.3.4-6.7.8-10,1.1-3.3.3-6.1-1.9-6.7-5.2-.1-.6-.1-1.1-.1-1.7,0-3.5,0-7.1,0-10.6s-.4-1.4-1-1.4-1,.5-1,1.4c0,3.7,0,7.4,0,11.1,0,4.3,3.2,8.2,7.5,8.4,1.5,0,3,0,4.4-.3,6.9-.9,22.4-2.8,29.3-3.7,2.5-.3,4.9-.7,7.4-1.1.3,0,.8.1,1,.3,4.5,3.1,9,6.2,13.6,9.2,1.4,1,3.1.9,4.2-.2.9-.9.9-2.1.7-3.2-.6-2.6-1.3-5.2-2-7.8,0-.2,0-.3-.1-.6"/>
                  <path class="cls-13" d="M16.9,30.7v12.2c0,.2,0,.4,0,.6.1.6.4.9,1,.9.6,0,.9-.4.9-.9,0-.2,0-.5,0-.7v-23.8c0-1.7.4-3.2,1.4-4.5,1.3-1.7,3-2.6,5.1-2.3,3.6.4,7.2.7,10.9,1.2,6.5.8,12.9,1.7,19.4,2.5,3.7.5,16.3,2.5,20,3,0,0,.2,0,.2,0,.7,0,1.2-.2,1.3-.8.1-.6-.2-1.1-1-1.2-2.7-.4-14.3-2.2-17-2.6-5.2-.7-10.3-1.5-15.4-2.1-6-.8-12-1.4-18-2.1-4.3-.5-8,2.9-8.7,7-.1.6-.1,1.3-.1,1.9,0,3.9,0,7.8,0,11.7"/>
                  <g>
                    <g>
                      <g>
                        <polygon class="cls-10" points="80.8 94.3 109.2 110.6 73.6 131 43.9 114 80.8 94.3"/>
                        <g>
                          <g>
                            <rect class="cls-67" x="91.6" y="88" width=".2" height="33" transform="translate(-44.6 131.6) rotate(-60)"/>
                            <rect class="cls-67" x="87.4" y="90.4" width=".2" height="33" transform="translate(-48.8 129.1) rotate(-60)"/>
                            <rect class="cls-67" x="83.2" y="92.8" width=".2" height="33" transform="translate(-53 126.7) rotate(-60)"/>
                            <rect class="cls-67" x="79" y="95.2" width=".2" height="33" transform="translate(-57.2 124.3) rotate(-60)"/>
                            <rect class="cls-67" x="74.8" y="97.7" width=".2" height="33" transform="translate(-61.4 121.8) rotate(-60)"/>
                            <rect class="cls-67" x="70.6" y="100.1" width=".2" height="33" transform="translate(-65.6 119.4) rotate(-60)"/>
                            <rect class="cls-67" x="66.4" y="102.5" width=".2" height="33" transform="translate(-69.8 117) rotate(-60)"/>
                            <rect class="cls-67" x="62.2" y="105" width=".2" height="33" transform="translate(-74 114.5) rotate(-60)"/>
                          </g>
                          <g>
                            <rect class="cls-67" x="41.6" y="103.9" width="41.4" height=".2" transform="translate(-43.7 45.2) rotate(-30.1)"/>
                            <rect class="cls-67" x="45.8" y="106.3" width="41.4" height=".2" transform="translate(-44.4 47.7) rotate(-30.1)"/>
                            <rect class="cls-67" x="50" y="108.7" width="41.4" height=".2" transform="translate(-45 50.1) rotate(-30.1)"/>
                            <rect class="cls-67" x="54.3" y="111.2" width="41.4" height=".2" transform="translate(-45.7 52.6) rotate(-30.1)"/>
                            <rect class="cls-67" x="58.5" y="113.6" width="41.4" height=".2" transform="translate(-46.3 55) rotate(-30.1)"/>
                            <rect class="cls-67" x="62.7" y="116" width="41.4" height=".2" transform="translate(-47 57.4) rotate(-30.1)"/>
                            <polygon class="cls-67" points="69.7 129 105.6 108.2 105.5 108.1 69.6 128.8 69.7 129"/>
                            <rect class="cls-67" x="71.1" y="120.9" width="41.4" height=".2" transform="translate(-48.3 62.3) rotate(-30.1)"/>
                          </g>
                        </g>
                        <polygon class="cls-67" points="80.8 73.3 80.8 94.3 109.6 110.9 128.1 99.8 80.8 73.3"/>
                        <polygon class="cls-59" points="80.8 73.3 80.8 94.3 44.7 114.6 26.6 104.1 80.8 73.3"/>
                        <polygon class="cls-59" points="65.4 83.1 73.7 88 36.6 109.6 28.2 104.6 65.4 83.1"/>
                        <g>
                          <g>
                            <polygon class="cls-73" points="73.7 88 73.7 112.1 73.1 112.5 73.1 88.4 73.7 88"/>
                            <polygon class="cls-12" points="60.9 95.4 60.9 119.5 61.4 119.2 61.4 117.7 73.1 110.9 73.1 88.4 60.9 95.4"/>
                            <polygon class="cls-58" points="73.1 112.5 71.7 111.7 73.1 110.9 73.1 112.5"/>
                            <path class="cls-73" d="M72.1,103.9h0c-.1,0-.2,0-.2-.2v-4.1c0-.1,0-.2.2-.2h0c.1,0,.2,0,.2.2v4.1c0,.1,0,.2-.2.2Z"/>
                            <polygon class="cls-73" points="73.1 88.4 64.8 83.4 65.4 83.1 73.7 88 73.1 88.4"/>
                          </g>
                          <g>
                            <polygon class="cls-73" points="60.9 95.4 60.9 119.5 60.3 119.9 60.3 95.8 60.9 95.4"/>
                            <polygon class="cls-81" points="60.3 95.8 60.3 118.3 58.9 119.1 56 120.8 48.2 116.2 48.2 102.8 60.3 95.8"/>
                            <polygon class="cls-58" points="60.3 119.9 58.9 119.1 60.3 118.3 60.3 119.9"/>
                            <path class="cls-73" d="M59.4,111.3h0c-.1,0-.2,0-.2-.2v-4.1c0-.1,0-.2.2-.2h0c.1,0,.2,0,.2.2v4.1c0,.1,0,.2-.2.2Z"/>
                            <polygon class="cls-73" points="60.3 95.8 52.1 90.8 52.6 90.5 60.9 95.4 60.3 95.8"/>
                          </g>
                          <g>
                            <polygon class="cls-73" points="48.2 102.8 48.2 116.2 47.6 115.9 47.6 103.2 48.2 102.8"/>
                            <polygon class="cls-82" points="47.6 103.2 47.6 115.9 46.8 115.4 46.4 115.2 36.7 109.5 47.6 103.2"/>
                            <path class="cls-73" d="M46.8,114.4v1l-.4-.2v-.8c0-.1,0-.2.2-.2s.1,0,.1,0c0,0,0,0,0,.1h0Z"/>
                            <polygon class="cls-73" points="47.6 103.2 39.3 98.2 39.8 97.9 48.2 102.8 47.6 103.2"/>
                          </g>
                        </g>
                        <polygon class="cls-58" points="39.3 98.2 39.3 108 47.6 103.2 39.3 98.2"/>
                        <polygon class="cls-58" points="52.1 90.8 52.1 100.6 60.3 95.8 52.1 90.8"/>
                        <polygon class="cls-58" points="64.8 83.4 64.8 93.2 73.1 88.4 64.8 83.4"/>
                        <polygon class="cls-58" points="77.3 105.9 77.3 121.4 84.2 125.4 98 117.4 77.3 105.9"/>
                        <polygon class="cls-73" points="97.5 117.4 77.3 105.9 78 105.5 98 117 97.5 117.4"/>
                        <path class="cls-73" d="M80.8,72.3l-54.8,31.8,47.6,27.7,55.4-32-48.2-27.6h0ZM27.5,104.2l53.2-30.9,46.6,26.7-53.8,31-46-26.8h0Z"/>
                        <polygon class="cls-57" points="88.7 80.1 88.7 88.7 114 103.4 114 94.7 88.7 80.1"/>
                        <polygon class="cls-58" points="83.7 91.4 83.7 92.6 109.2 107.4 114 104.5 114 103.4 83.7 91.4"/>
                        <polygon class="cls-83" points="88.7 88.7 83.7 91.4 109.2 106.2 114 103.4 88.7 88.7"/>
                        <g>
                          <path class="cls-58" d="M94.2,92.9l-2.5,1.4c-.5.3-1.1.3-1.6,0l-2.2-1.3h0c-.4-.3-.3-.8,0-1l2.4-1.3.7.4,3.2,1.9h0Z"/>
                          <path class="cls-74" d="M90.7,93.2c0,.1-.2.2-.4.2s-.4,0-.4-.2.2-.2.4-.2.4,0,.4.2Z"/>
                          <polygon class="cls-78" points="93.1 90.5 91.2 91.5 90.4 91.1 92.4 90 93.1 90.5"/>
                          <path class="cls-14" d="M93.1,90.5v.8l-.9.5s-.7-.4-.7-.4c0,0,1.6-.9,1.6-.9h0Z"/>
                          <polygon class="cls-79" points="90.4 91.1 90.4 91.4 91.2 91.9 91.2 91.5 90.4 91.1"/>
                          <polygon class="cls-14" points="91.2 91.9 91.7 91.7 91.7 91.3 91.2 91.5 91.2 91.9"/>
                        </g>
                        <g>
                          <path class="cls-58" d="M101.3,97l-2.5,1.4c-.5.3-1.1.3-1.6,0l-2.2-1.3h0c-.4-.3-.3-.8,0-1l2.4-1.3.7.4,3.2,1.9h0Z"/>
                          <path class="cls-74" d="M97.8,97.3c0,.1-.2.2-.4.2s-.4,0-.4-.2.2-.2.4-.2.4,0,.4.2Z"/>
                          <polygon class="cls-76" points="100.2 94.6 98.3 95.6 97.6 95.2 99.5 94.1 100.2 94.6"/>
                          <path class="cls-14" d="M100.2,94.6v.8l-.9.5s-.7-.4-.7-.4c0,0,1.6-.9,1.6-.9h0Z"/>
                          <polygon class="cls-77" points="97.6 95.2 97.6 95.6 98.3 96 98.3 95.6 97.6 95.2"/>
                          <polygon class="cls-14" points="98.3 96 98.8 95.8 98.8 95.4 98.3 95.6 98.3 96"/>
                        </g>
                        <g>
                          <path class="cls-58" d="M108.9,101.4l-2.5,1.4c-.5.3-1.1.3-1.6,0l-2.2-1.3h0c-.4-.3-.3-.8,0-1l2.4-1.3.7.4,3.2,1.9h0Z"/>
                          <path class="cls-74" d="M105.4,101.7c0,.1-.2.2-.4.2s-.4,0-.4-.2.2-.2.4-.2.4,0,.4.2Z"/>
                          <polygon class="cls-80" points="107.8 99 105.9 100 105.2 99.6 107.1 98.5 107.8 99"/>
                          <path class="cls-14" d="M107.8,99v.8l-.9.5s-.7-.4-.7-.4,1.6-.9,1.6-.9h0Z"/>
                          <polygon class="cls-55" points="105.2 99.6 105.2 100 105.9 100.4 105.9 100 105.2 99.6"/>
                          <polygon class="cls-14" points="105.9 100.4 106.4 100.2 106.4 99.8 105.9 100 105.9 100.4"/>
                        </g>
                      </g>
                      <g>
                        <polygon class="cls-10" points="135.3 62.7 163.7 79 128.4 99.8 98.4 82.3 135.3 62.7"/>
                        <g>
                          <g>
                            <rect class="cls-67" x="146.2" y="56.3" width=".2" height="33" transform="translate(10.1 162.9) rotate(-60)"/>
                            <rect class="cls-67" x="141.9" y="58.7" width=".2" height="33" transform="translate(5.8 160.5) rotate(-60)"/>
                            <rect class="cls-67" x="137.7" y="61.1" width=".2" height="33" transform="translate(1.6 158.1) rotate(-60)"/>
                            <rect class="cls-67" x="133.5" y="63.6" width=".2" height="33" transform="translate(-2.6 155.7) rotate(-60)"/>
                            <rect class="cls-67" x="129.3" y="66" width=".2" height="33" transform="translate(-6.8 153.2) rotate(-60)"/>
                            <rect class="cls-67" x="125.1" y="68.4" width=".2" height="33" transform="translate(-11 150.8) rotate(-60)"/>
                            <rect class="cls-67" x="120.9" y="70.9" width=".2" height="33" transform="translate(-15.2 148.4) rotate(-60)"/>
                            <rect class="cls-67" x="116.7" y="73.3" width=".2" height="33" transform="translate(-19.4 145.9) rotate(-60)"/>
                          </g>
                          <g>
                            <rect class="cls-67" x="96.1" y="72.2" width="41.4" height=".2" transform="translate(-20.5 68.3) rotate(-30.1)"/>
                            <rect class="cls-67" x="100.4" y="74.6" width="41.4" height=".2" transform="translate(-21.2 70.7) rotate(-30.1)"/>
                            <rect class="cls-67" x="104.6" y="77.1" width="41.4" height=".2" transform="translate(-21.8 73.2) rotate(-30.1)"/>
                            <rect class="cls-67" x="108.8" y="79.5" width="41.4" height=".2" transform="translate(-22.4 75.6) rotate(-30.1)"/>
                            <rect class="cls-67" x="113" y="81.9" width="41.4" height=".2" transform="translate(-23.1 78.1) rotate(-30.1)"/>
                            <rect class="cls-67" x="117.2" y="84.4" width="41.4" height=".2" transform="translate(-23.8 80.5) rotate(-30.1)"/>
                            <rect class="cls-67" x="121.4" y="86.8" width="41.4" height=".2" transform="translate(-24.4 82.9) rotate(-30.1)"/>
                            <rect class="cls-67" x="125.6" y="89.2" width="41.4" height=".2" transform="translate(-25.1 85.4) rotate(-30.1)"/>
                          </g>
                        </g>
                        <polygon class="cls-67" points="135.3 41.6 135.3 62.7 164.1 79.2 182.6 68.2 135.3 41.6"/>
                        <polygon class="cls-59" points="135.3 41.6 135.3 62.7 99.2 82.9 81.1 72.5 135.3 41.6"/>
                        <polygon class="cls-59" points="119.9 51.4 128.2 56.3 91.1 77.9 82.7 72.9 119.9 51.4"/>
                        <g>
                          <g>
                            <polygon class="cls-73" points="128.2 56.3 128.2 80.5 127.6 80.8 127.6 56.7 128.2 56.3"/>
                            <polygon class="cls-56" points="115.4 63.8 115.4 87.8 115.9 87.6 115.9 86.1 127.6 79.3 127.6 56.7 115.4 63.8"/>
                            <polygon class="cls-58" points="127.6 80.8 126.2 80.1 127.6 79.3 127.6 80.8"/>
                            <path class="cls-73" d="M126.6,72.3h0c-.1,0-.2,0-.2-.2v-4.1c0-.1,0-.2.2-.2h0c.1,0,.2,0,.2.2v4.1c0,.1,0,.2-.2.2Z"/>
                            <polygon class="cls-73" points="127.6 56.7 119.3 51.8 119.9 51.4 128.2 56.3 127.6 56.7"/>
                          </g>
                          <g>
                            <polygon class="cls-73" points="115.4 63.7 115.4 87.8 114.8 88.2 114.8 64.1 115.4 63.7"/>
                            <polygon class="cls-23" points="114.8 64.1 114.8 86.7 113.4 87.4 110.6 89.1 102.7 84.6 102.7 71.1 114.8 64.1"/>
                            <polygon class="cls-58" points="114.8 88.2 113.4 87.4 114.8 86.7 114.8 88.2"/>
                            <path class="cls-73" d="M113.9,79.6h0c-.1,0-.2,0-.2-.2v-4.1c0-.1,0-.2.2-.2h0c.1,0,.2,0,.2.2v4.1c0,.1,0,.2-.2.2Z"/>
                            <polygon class="cls-73" points="114.8 64.1 106.6 59.1 107.1 58.8 115.4 63.7 114.8 64.1"/>
                          </g>
                          <g>
                            <polygon class="cls-73" points="102.7 71.2 102.7 84.6 102.1 84.2 102.1 71.5 102.7 71.2"/>
                            <polygon class="cls-19" points="102.1 71.5 102.1 84.2 101.4 83.8 101 83.5 91.2 77.8 102.1 71.5"/>
                            <path class="cls-73" d="M101.4,82.8v1l-.4-.2v-.8c0-.1,0-.2.2-.2s.1,0,.1,0c0,0,0,0,0,.1h0Z"/>
                            <polygon class="cls-73" points="102.1 71.5 93.8 66.5 94.3 66.2 102.7 71.2 102.1 71.5"/>
                          </g>
                        </g>
                        <polygon class="cls-58" points="93.8 66.5 93.8 76.3 102.1 71.5 93.8 66.5"/>
                        <polygon class="cls-58" points="106.6 59.1 106.6 68.9 114.8 64.1 106.6 59.1"/>
                        <polygon class="cls-58" points="119.3 51.8 119.3 61.5 127.6 56.7 119.3 51.8"/>
                        <path class="cls-73" d="M135.3,40.7l-54.8,31.8,47.7,27.9,55.4-32.1-48.2-27.6h0ZM82.1,72.5l53.2-30.9,46.6,26.7-53.8,31.2-46.1-27h0Z"/>
                        <polygon class="cls-57" points="143.2 48.5 143.2 57.1 168.6 71.7 168.6 63.1 143.2 48.5"/>
                        <polygon class="cls-58" points="138.2 59.8 138.2 61 163.7 75.7 168.6 72.9 168.6 71.7 138.2 59.8"/>
                        <polygon class="cls-17" points="143.2 57.1 138.2 59.8 163.7 74.6 168.6 71.7 143.2 57.1"/>
                        <g>
                          <path class="cls-58" d="M148.7,61.2l-2.5,1.4c-.5.3-1.1.3-1.6,0l-2.2-1.3h0c-.4-.3-.4-.8,0-1l2.4-1.3.7.4,3.2,1.9h0Z"/>
                          <path class="cls-74" d="M145.2,61.5c0,.1-.2.2-.4.2s-.4,0-.4-.2.2-.2.4-.2.4,0,.4.2Z"/>
                          <polygon class="cls-22" points="147.6 58.8 145.8 59.8 145 59.4 146.9 58.3 147.6 58.8"/>
                          <path class="cls-14" d="M147.6,58.8v.8l-.9.5s-.7-.4-.6-.4c0,0,1.6-.9,1.6-.9h0Z"/>
                          <polygon class="cls-21" points="145 59.4 145 59.8 145.7 60.2 145.8 59.8 145 59.4"/>
                          <polygon class="cls-14" points="145.7 60.2 146.2 60 146.2 59.6 145.8 59.8 145.7 60.2"/>
                        </g>
                        <g>
                          <path class="cls-58" d="M155.8,65.4l-2.5,1.4c-.5.3-1.1.3-1.6,0l-2.2-1.3h0c-.4-.3-.4-.8,0-1l2.4-1.3.7.4,3.2,1.9h0Z"/>
                          <path class="cls-74" d="M152.3,65.6c0,.1-.2.2-.4.2s-.4,0-.4-.2.2-.2.4-.2.4,0,.4.2Z"/>
                          <polygon class="cls-24" points="154.8 62.9 152.9 63.9 152.1 63.5 154 62.5 154.8 62.9"/>
                          <path class="cls-14" d="M154.8,62.9v.8l-.9.5s-.7-.4-.6-.4c0,0,1.6-.9,1.6-.9h0Z"/>
                          <polygon class="cls-20" points="152.1 63.5 152.1 63.9 152.9 64.3 152.9 63.9 152.1 63.5"/>
                          <polygon class="cls-14" points="152.9 64.3 153.3 64.1 153.3 63.7 152.9 63.9 152.9 64.3"/>
                        </g>
                        <g>
                          <path class="cls-58" d="M163.4,69.8l-2.5,1.4c-.5.3-1.1.3-1.6,0l-2.2-1.3h0c-.4-.3-.4-.8,0-1l2.4-1.3.7.4,3.2,1.9h0Z"/>
                          <path class="cls-74" d="M159.9,70c0,.1-.2.2-.4.2s-.4,0-.4-.2.2-.2.4-.2.4,0,.4.2Z"/>
                          <polygon class="cls-18" points="162.4 67.3 160.5 68.3 159.7 67.9 161.6 66.9 162.4 67.3"/>
                          <path class="cls-14" d="M162.4,67.3v.8l-.9.5s-.7-.4-.6-.4,1.6-.9,1.6-.9h0Z"/>
                          <polygon class="cls-42" points="159.7 67.9 159.7 68.3 160.4 68.7 160.5 68.3 159.7 67.9"/>
                          <polygon class="cls-14" points="160.4 68.7 160.9 68.5 160.9 68.1 160.5 68.3 160.4 68.7"/>
                        </g>
                      </g>
                      <polygon class="cls-73" points="135.3 79.4 136.1 79.9 115.2 92 114.4 91.5 135.3 79.4"/>
                      <polygon class="cls-58" points="136.1 79.9 136.1 94.9 128.1 99.5 115.2 92 136.1 79.9"/>
                    </g>
                    <polygon class="cls-43" points="73.7 131.9 73.7 153 26 125.4 26 104.2 73.7 131.9"/>
                    <polygon class="cls-38" points="183.5 68.3 183.5 90.1 73.7 153 73.7 131.9 183.5 68.3"/>
                    <polygon class="cls-5" points="183.5 85.2 183.5 90.1 145.9 111.6 145.4 111.9 135.6 117.5 135.1 117.8 134.7 118 73.7 153 26 125.4 26 120.8 73.3 148.1 73.7 147.9 134.7 113 135.1 112.8 135.6 112.5 137.7 111.4 143.9 107.8 145.4 106.9 145.9 106.7 183.5 85.2"/>
                    <g>
                      <polygon class="cls-73" points="120.6 105.9 120.6 126.1 120.1 126.4 110.3 132 109.8 132.3 109.8 112.1 120.6 105.9"/>
                      <polygon class="cls-44" points="120.1 106.8 120.1 126.4 110.3 132 110.3 112.4 120.1 106.8"/>
                      <polygon class="cls-73" points="112.4 113.6 112.4 123.5 115.2 122 115.2 112 112.4 113.6"/>
                      <g>
                        <polygon class="cls-73" points="118.6 121.5 118.6 124.7 112.4 128.1 112.4 124.9 118.6 121.5"/>
                        <g class="cls-4">
                          <polygon class="cls-73" points="118.6 121.9 118.6 122 112.4 125.4 112.4 125.3 118.6 121.9"/>
                          <polygon class="cls-73" points="118.6 122.7 118.6 122.8 112.4 126.2 112.4 126.1 118.6 122.7"/>
                          <polygon class="cls-73" points="118.6 123.5 118.6 123.6 112.4 127 112.4 126.9 118.6 123.5"/>
                          <polygon class="cls-73" points="118.6 124.3 118.6 124.4 112.4 127.8 112.4 127.7 118.6 124.3"/>
                        </g>
                      </g>
                      <g>
                        <polygon class="cls-73" points="118.1 115.8 118.8 116.2 118.8 118.1 118.3 118.3 118.3 118.6 119 119.1 119.3 118.9 119.3 115.9 118.6 115.5 118.1 115.8"/>
                        <polygon class="cls-58" points="118.1 115.8 118.1 116.1 118.8 116.5 118.8 116.2 118.1 115.8"/>
                        <polygon class="cls-58" points="118.8 118 118.8 118.6 118.3 118.3 118.8 118"/>
                      </g>
                      <polygon class="cls-58" points="120.6 105.9 120.2 105.7 109.4 111.9 109.4 132.5 109.8 132.3 109.8 112.1 120.6 105.9"/>
                    </g>
                    <g>
                      <polygon class="cls-73" points="145.9 91.6 145.9 111.6 145.4 111.9 135.6 117.5 135.1 117.8 135.1 97.8 145.9 91.6"/>
                      <polygon class="cls-41" points="145.4 92.5 145.4 111.9 135.6 117.5 135.6 98.1 145.4 92.5"/>
                      <polygon class="cls-73" points="137.7 99.4 137.7 109.2 140.5 107.7 140.5 97.7 137.7 99.4"/>
                      <g>
                        <polygon class="cls-73" points="143.9 107.2 143.9 110.4 137.7 113.8 137.7 110.6 143.9 107.2"/>
                        <g class="cls-4">
                          <polygon class="cls-73" points="143.9 107.6 143.9 107.7 137.7 111.1 137.7 111 143.9 107.6"/>
                          <polygon class="cls-73" points="143.9 108.4 143.9 108.5 137.7 111.9 137.7 111.8 143.9 108.4"/>
                          <polygon class="cls-73" points="143.9 109.2 143.9 109.3 137.7 112.7 137.7 112.6 143.9 109.2"/>
                          <polygon class="cls-73" points="143.9 110 143.9 110.1 137.7 113.5 137.7 113.4 143.9 110"/>
                        </g>
                      </g>
                      <g>
                        <polygon class="cls-73" points="143.4 101.5 144.1 101.9 144.1 103.8 143.6 104 143.6 104.3 144.3 104.8 144.6 104.6 144.6 101.6 143.9 101.2 143.4 101.5"/>
                        <polygon class="cls-58" points="143.4 101.5 143.4 101.8 144.1 102.2 144.1 101.9 143.4 101.5"/>
                        <polygon class="cls-58" points="144.1 103.7 144.1 104.3 143.6 104 144.1 103.7"/>
                      </g>
                      <polygon class="cls-58" points="145.9 91.6 135.1 97.8 135.1 117.8 134.7 118 134.7 97.6 145.5 91.4 145.9 91.6"/>
                    </g>
                    <g>
                      <polygon class="cls-73" points="124.4 115.3 128.7 117.8 133.6 114.8 129.2 112.4 124.4 115.3"/>
                      <polygon class="cls-58" points="124.4 115.3 126 123.1 128.5 124.5 128.7 117.8 124.4 115.3"/>
                      <polygon class="cls-39" points="128.7 117.8 133.6 114.8 132.1 122.4 128.5 124.5 128.7 117.8"/>
                      <path class="cls-36" d="M129,116.4s-.3.8-1.1.2c0,0-.4.3-.7,0s-.2-.6-.2-.6c0,0-.7.4-.9-.4,0,0-.6,0-.7-.5s.3-.7.3-.7c0,0-.4-.4-.3-.8,0-.4.5-.6.5-.6,0,0-.2-.7,0-1,.3-.3.5-.3.5-.3,0,0-.3-.7,0-1,.2-.3.6-.6.6-.6,0,0-.3-.6,0-1.2.4-.6.8-.5.8-.5,0,0-.1-.6.4-.7s.8.6.8.6c0,0,.3-.3.6,0,.4.3.3,1.1.3,1.1,0,0,.8.2.6,1.2,0,0,1.2.3.8,1.6,0,0,.9.2.4,1,0,0,1,0,.5,1,0,0,.3.4,0,.8-.2.4-.5.1-.5.1,0,0,.2.7-.8.7,0,0,0,.3-.4.4s-.6-.1-.6-.1c0,0,0,.3-.3.5-.3.1-.6,0-.6,0h0Z"/>
                    </g>
                    <g>
                      <polygon class="cls-57" points="102.4 118.1 102.4 123.9 106.9 121.2 106.9 115.5 102.4 118.1"/>
                      <path class="cls-73" d="M104.3,118.9s-.3-.5,0-.8.9-.2.6.6c0,0,.4-.1.4.4,0,.4,0,.8,0,.9s0,0,0,0h0c0,0-.2,0-.2,0v-.5c0-.1-.1-.2-.2-.3h0v2.1s0,0,0,0h0c0,0-.2,0-.2,0v-.9h-.2v1.1s0,0,0,0h0c0,0-.2,0-.2,0v-1.9h0c0,.2-.2.4-.2.6v.7s0,0,0,0h0c0,0-.2,0-.2,0,0-.3,0-1,0-1.3,0-.4.4-.8.4-.8h0Z"/>
                    </g>
                    <g>
                      <polygon class="cls-57" points="147.5 92.8 147.5 98.5 151.9 95.9 151.9 90.3 147.5 92.8"/>
                      <path class="cls-73" d="M149.3,93.7s-.3-.5,0-.8.9-.2.6.5c0,0,.4-.1.4.3,0,.4,0,.8,0,.9s0,0,0,0h0c0,0-.1,0-.1,0v-.5c0-.1-.1-.2-.2-.3h0v2.1s0,0,0,0h0c0,0-.2,0-.2,0v-.8h-.2v1.1s0,0,0,0h0c0,0-.2,0-.2,0v-1.9h0c0,.2-.1.4-.1.6v.3s0,0,0,0h0c0,0-.2,0-.2,0,0-.3,0-.6,0-.9,0-.4.4-.7.4-.7h0Z"/>
                      <path class="cls-73" d="M149.3,94.9l-.2.8c.4,0,.8-.2,1.1-.5l-.3-.5-.7.2h0Z"/>
                    </g>
                  </g>
                </g>
                <g>
                  <g>
                    <path class="cls-13" d="M211.3,68.5h3.6v3.9h-1v-.4h-4.5v.4h-.9v-3.9c-.2,0-.4.2-.6.3-.2-.3-.3-.5-.5-.8,1-.4,1.6-.8,1.9-1.3h-1.8v-.7h2c0-.2,0-.5,0-.8h-.9c-.2.2-.4.5-.7.8,0,0-.1-.1-.2-.2,0,0-.2-.2-.4-.4.5-.4.9-1,1.1-1.6h.9c0,.3-.2.5-.3.7h2.6v.7h-1.2c0,0,0,.2,0,.4,0,.2,0,.3,0,.4h1.6v.7h-1.7c.3.2.7.4,1.2.8.2.1.3.2.4.2l-.5.7h0ZM211.3,68.5c-.3-.2-.7-.5-1.2-.8-.1-.1-.3-.2-.4-.2-.2.4-.6.8-1.3,1.1h2.8ZM209.4,69.3v.8h4.5v-.8h-4.5ZM209.4,70.6v.8h4.5v-.8h-4.5ZM212.2,67.9v-3.4h3.3v3.4h-3.3ZM213.1,65.3v1.8h1.6v-1.8h-1.6ZM218.3,70.8c-.3.6-.6,1-.9,1.5-.2-.1-.4-.2-.8-.4.3-.4.6-.9.9-1.4l.8.3h0ZM216.9,65.1v-.6h1.6v-.5h.9v.5h1.3v.6h-1.3v.5h1.2v.5h-1.2v.4h1.3c0-.1,0,.5,0,.5h-1.4v.6h-.9v-.4h-1.6c0,.1,0-.5,0-.5h1.6v-.6h-1.5v-.5h1.5v-.5h-1.6,0ZM217,69.2v-.5h6.2v-.5h-5.7v-.6h6.6v1h.8v.5h-.8v1.1h-3c.2.3.4.5.6.8l-.7.4c-.4-.5-.6-.8-.8-1.1h.2c0-.1-3.1-.1-3.1-.1v-.6h5.7v-.5h-6.2,0ZM219.8,72.3c-.7,0-1-.3-1-.9v-.8h.9v.6c0,.3.1.4.5.4h1.5c.4,0,.6,0,.7-.4,0-.1.1-.3.1-.5.1,0,.3.1.6.2.1,0,.2,0,.3.1,0,.1,0,.2-.1.4,0,0,0,.2,0,.2-.1.5-.5.7-1.2.7h-2.2,0ZM221.1,65.1v-.6h1.3v-.5h.9v.5h1.6v.6h-1.6v.5h1.5v.5h-1.5v.5h1.8v.5h-1.8v.5h-.9v-.5h-1.4v-.5h1.4v-.5h-1.2v-.5h1.2v-.5h-1.3ZM224.4,72.1c-.1-.2-.3-.6-.7-1-.1-.2-.2-.3-.2-.4l.8-.4c.1.2.3.4.5.7.2.3.4.5.5.6l-.8.4h0ZM226.9,72.5v-4.6c-.2.4-.5.8-.8,1.3,0-.1,0-.3,0-.5,0-.3,0-.6-.1-.8.7-1.3,1.2-2.6,1.5-4l.9.2c-.1.6-.3,1.2-.6,1.8v6.5h-.9,0ZM228.2,69.7v-1.4h6.3v1.4h-.8v.6h-1.7v1.1c0,.6-.3.9-.9.9h-1.3c0-.2-.1-.5-.2-.8.2,0,.6,0,1,0,.3,0,.5,0,.5-.4v-.9h-2.2v-.6h-.7,0ZM228.4,65.5v-.8h2.6v-.8h.9v.8h2.6v.8h-6.1ZM229,67.8v-1.8h4.7v1.8h-4.7ZM229.1,69v.6h4.6v-.6h-4.6ZM229.9,66.6v.6h2.9v-.6h-2.9ZM235.6,65.5v-.8h3.4v-.8h1v.8h3.4v.8h-3.4v.7h2.9v3.6h-2.9v.7h3.8v.8h-3.8v1.2h-1v-1.2h-3.8v-.8h3.8v-.7h-2.9v-3.6h2.9v-.7h-3.4ZM237.1,66.9v.8h1.9v-.8h-1.9ZM237.1,68.3v.8h1.9v-.8h-1.9ZM242,66.9h-2v.8h2v-.8ZM240,68.3v.8h2v-.8h-2ZM244.6,67.1v-.9h.8v-2.3h.9v2.3h.8v.9h-.8v3.3c.3,0,.6-.1.9-.2,0,.3,0,.6,0,.9-1.1.2-2,.4-2.6.6v-.8c.1,0,.4-.1.8-.2v-3.5h-.8ZM247.1,68.5v-.7h6.1v.7h-4.1c-.1.2-.2.4-.4.6h4.1c0,.6,0,1.3,0,2.1s-.4,1.1-1.1,1.1h-1c0-.4-.1-.6-.2-.8.2,0,.5,0,.9,0s.5-.1.5-.4c0-.4,0-.8,0-1.3h-.6c-.3,1.1-1.1,2-2.2,2.7-.1-.2-.3-.3-.6-.5,1-.6,1.7-1.3,2-2.1h-.8c-.4.9-1.2,1.7-2.5,2.2-.2-.3-.4-.5-.5-.6,1-.4,1.7-1,2.1-1.6h-.9s0,0-.1,0c-.1.1-.3.3-.6.5-.2-.2-.4-.4-.5-.6.6-.3,1-.7,1.4-1.2h-1.1,0ZM247.8,67.4v-3.1h4.7v3.1h-4.7ZM248.6,64.9v.6h3v-.6h-3ZM248.6,66.1v.6h3v-.6h-3Z"/>
                    <g>
                      <path class="cls-13" d="M210.5,75.9c0,.2-.1.4-.4.4-.2,0-.5-.2-.8-.2-.4,0-.9.2-.9.7s.3.7,1,1.1c.9.5,1.2.8,1.2,1.5s-.8,1.5-1.7,1.5-.9-.2-1.1-.3c-.1,0-.1-.2-.1-.2,0-.2,0-.3.1-.4.3.2.8.4,1.2.4s1-.3,1-.8-.3-.7-1-1.1c-1-.5-1.1-1-1.1-1.5s.4-1.3,1.6-1.3.9.1,1.1.4h0Z"/>
                      <path class="cls-13" d="M212.3,80.6c0,.1,0,.2-.2.2-.2,0-.4,0-.6,0,0-.3,0-.8,0-1.5v-1.4c0-.3,0-.4-.1-.5h0c0-.2.3-.3.5-.3.3,0,.3.4.4.6.3-.3.8-.6,1.2-.6s.8.2,1,.6c.3-.3.8-.6,1.3-.6.9,0,1.2.7,1.2,1.4v1.2c0,.5,0,.8,0,1-.2,0-.4,0-.6,0s-.1,0-.1-.1v-2.1c0-.6-.3-.9-.7-.9s-.7.2-.9.4v2.4c0,.2,0,.2-.2.2-.2,0-.4,0-.6,0,0-.3,0-.8,0-1.5v-.7c0-.6-.3-.9-.7-.9s-.7.2-.9.5v2.4h0Z"/>
                      <path class="cls-13" d="M220.9,80.3c0,.3-.2.5-.5.5s-.5-.2-.6-.5c-.2.2-.6.5-1,.5s-1-.4-1-.9c0-.9,1.1-1.1,1.6-1.2.1,0,.3,0,.4,0v-.2c0-.4-.2-.7-.7-.7s-.6.1-.8.3c-.2.1-.4,0-.4-.3.2-.2.8-.5,1.4-.5.8,0,1.2.6,1.2,1.4s0,1.1,0,1.6.1.2.3.2.1,0,.2,0h0s0,0,0,0ZM219,80.3c.3,0,.6-.2.7-.4,0,0,0-.1,0-.3v-.6c-.7,0-1.3.3-1.3.8s.2.5.5.5h0Z"/>
                      <path class="cls-13" d="M221.5,77.4c0-.1.3-.3.5-.3.2,0,.4.3.4.8.3-.5.6-.8,1-.8s.4,0,.4.2c0,.1,0,.3-.1.5,0,0-.1,0-.2,0s-.2,0-.3,0c-.2,0-.4.2-.6.6,0,.1,0,.2,0,.4v1.8c0,.1,0,.2-.1.2-.2,0-.4,0-.6,0,0-.3,0-.8,0-1.5v-1.3c0-.2,0-.4-.2-.5h0s0,0,0,0Z"/>
                      <path class="cls-13" d="M226.5,80.2c0,.2,0,.4-.1.5-.2.1-.5.2-.8.2-.7,0-1-.4-1-1.1v-2.1c-.3,0-.4,0-.4-.2,0-.2.6-.6.7-.7.1,0,.2-.2.4-.2,0,.3,0,.4,0,.6h1.3c0,.4-.3.4-.4.5-.3,0-.3,0-.9,0,0,.8,0,1.7,0,2,0,.5.3.6.6.6s.5,0,.6-.2h0s0,0,0,0Z"/>
                      <path class="cls-13" d="M230,82.3c0,.1,0,.2-.2.2-.2,0-.4,0-.6,0,0-.2,0-.7,0-1.4v-3.2c0-.3,0-.4-.1-.5h0c0-.2.3-.3.5-.3s.3.2.3.5c.5-.4.9-.5,1.2-.5.7,0,1.4.6,1.4,1.7s-.9,2-1.9,2-.6,0-.7-.2v1.6h0ZM230,80.2c.2,0,.4.2.7.2.5,0,1.2-.3,1.2-1.4s-.4-1.2-1-1.2-.8.2-.9.4v2.1h0Z"/>
                      <path class="cls-13" d="M236.4,80.3c0,.3-.2.5-.5.5s-.5-.2-.6-.5c-.2.2-.6.5-1,.5s-1-.4-1-.9c0-.9,1.1-1.1,1.6-1.2.1,0,.3,0,.4,0v-.2c0-.4-.2-.7-.7-.7s-.6.1-.8.3c-.2.1-.4,0-.4-.3.2-.2.8-.5,1.4-.5.8,0,1.2.6,1.2,1.4s0,1.1,0,1.6.1.2.3.2.1,0,.2,0h0s0,0,0,0ZM234.5,80.3c.3,0,.6-.2.7-.4,0,0,0-.1,0-.3v-.6c-.7,0-1.3.3-1.3.8s.2.5.5.5h0Z"/>
                      <path class="cls-13" d="M237.1,77.4c0-.1.3-.3.5-.3.2,0,.4.3.4.8.3-.5.6-.8,1-.8s.4,0,.4.2c0,.1,0,.3-.1.5,0,0-.1,0-.2,0-.1,0-.2,0-.3,0-.2,0-.4.2-.6.6,0,.1,0,.2,0,.4v1.8c0,.1,0,.2-.1.2-.2,0-.4,0-.6,0,0-.3,0-.8,0-1.5v-1.3c0-.2,0-.4-.2-.5h0s0,0,0,0Z"/>
                      <path class="cls-13" d="M240.7,78.9c.5-.4,1.4-1.4,1.7-1.8.1,0,.3,0,.4,0,.1,0,.2.1,0,.3-.4.4-.9.9-1.3,1.3.3.4,1.3,1.5,1.7,1.9h0c-.1,0-.3.1-.5.1s-.3,0-.5-.2c-.3-.3-1.1-1.2-1.4-1.6v1.6c0,.2,0,.2-.2.2-.1,0-.3,0-.5,0,0-.3,0-.8,0-1.5v-3.1c0-.5,0-.7,0-.9.1,0,.5-.1.6-.1s.1,0,.1.5v3.1h0Z"/>
                      <path class="cls-13" d="M244.5,75.8c0,.2-.1.4-.4.4s-.4-.2-.4-.4.2-.4.4-.4.4.2.4.4h0ZM244.5,80.6c0,.2,0,.2-.2.2-.1,0-.3,0-.6,0,0-.3,0-.8,0-1.3v-1.4c0-.5,0-.7,0-.9.1,0,.5,0,.6,0s.1,0,.1.5v2.9h0Z"/>
                      <path class="cls-13" d="M248.1,78.6c0-.6-.3-.9-.8-.9s-.7.3-.9.5v2.4c0,.2,0,.2-.2.2-.2,0-.4,0-.6,0,0-.3,0-.8,0-1.5v-1.4c0-.3,0-.4-.1-.5h0c0-.2.3-.3.5-.3.2,0,.3.4.3.6.3-.3.8-.6,1.2-.6.9,0,1.2.7,1.2,1.5v1.1c0,.5,0,.8,0,1-.2,0-.4,0-.6,0s-.1,0-.1-.1v-2.1h0Z"/>
                      <path class="cls-13" d="M251.8,77.2c.2,0,.5.1.7.1s.4,0,.5,0c0,0,0,0,0,.2,0,.2-.1.4-.4.4h-.2c.1.2.1.4.1.6,0,.8-.6,1.2-1.4,1.2s-.2,0-.3,0c-.1,0-.2.2-.2.2,0,.1.1.2.5.2.4,0,.7,0,1,0,.6,0,.9.4.9.9,0,.9-.9,1.4-1.9,1.4s-1.5-.5-1.5-1.1.4-.7.8-.8c-.3,0-.5-.3-.5-.6,0,0,0,0,0,0,.2-.1.4-.3.5-.4-.4-.2-.7-.6-.7-1.1,0-.7.6-1.3,1.4-1.3s.4,0,.6,0h0ZM251.3,82c.6,0,1.1-.3,1.1-.7s-.1-.5-.6-.5c-.2,0-.5,0-.7,0s-.3,0-.4,0c-.2.1-.4.3-.4.5,0,.4.5.7,1.1.7h0ZM250.4,78.4c0,.5.3.8.7.8s.7-.4.7-.8-.2-.8-.7-.8-.7.3-.7.8h0Z"/>
                    </g>
                    <path class="cls-13" d="M205.6,95.5c-1.1-.2-2.1-.2-3.1-.4-3.5-.7-6.3-2.4-7.5-6-.3-.9-.4-1.8-.4-2.7,0-8.7,0-17.3,0-26,0-4.5,3-7.9,6.2-8.9,1.8-.6,3.7-.7,5.5-1.1.7-.1,1.4-.2,2-.3.8,0,1.3.2,1.4.8.1.6-.3,1.1-1.1,1.2-1.9.3-3.7.5-5.6.8-3.1.4-5.8,3-6.4,6,0,.4,0,.8,0,1.2,0,8.6,0,17.1,0,25.6,0,4.6,3.1,6.8,6.2,7.3,1,.2,2,.3,3,.4,1.5.2,2.1,1.2,1.7,2.7-.7,2.7-1.4,5.3-2,8,0,.2,0,.3-.1.5-.1.9.4,1.4,1.3,1.2.3,0,.6-.2.8-.4,4.4-3,8.7-6,13.1-9,.9-.6,1.8-.9,2.9-.7,6.9,1,13.8,1.9,20.7,2.8,3.3.4,6.7.8,10,1.1,3.3.3,6.1-1.9,6.7-5.2.1-.6.1-1.1.1-1.7,0-3.5,0-7.1,0-10.6s.4-1.4,1-1.4,1,.5,1,1.4c0,3.7,0,7.4,0,11.1,0,4.3-3.2,8.2-7.5,8.4-1.5,0-3,0-4.4-.3-6.9-.9-13.9-1.8-20.8-2.7-2.5-.3-4.9-.7-7.4-1.1-.3,0-.8.1-1,.3-4.5,3.1-9,6.2-13.6,9.2-1.4,1-3.1.9-4.2-.2-.9-.9-.9-2.1-.7-3.2.6-2.6,1.3-5.2,2-7.8,0-.2,0-.3.1-.6"/>
                    <path class="cls-13" d="M263.1,64.8v12.2c0,.2,0,.4,0,.6-.1.6-.4.9-1,.9-.6,0-.9-.4-.9-.9,0-.2,0-.5,0-.7v-23.8c0-1.7-.4-3.2-1.4-4.5-1.3-1.7-3-2.6-5.1-2.3-3.6.4-7.2.7-10.9,1.2-6.5.8-12.9,1.7-19.4,2.6-3.7.5-7.4,1.1-11.1,1.6,0,0-.1,0-.2,0-.7,0-1.2-.2-1.3-.8-.1-.6.2-1.1,1-1.2,2.7-.4,5.4-.8,8.2-1.2,5.1-.7,10.3-1.4,15.4-2.1,6-.8,12-1.4,18-2.1,4.3-.5,8,2.9,8.7,7,.1.6.1,1.3.1,1.9,0,3.9,0,7.8,0,11.7"/>
                  </g>
                  <g>
                    <path class="cls-88" d="M205.6,104.3l-3.3-1.9c1-.6,1.9-.6,2.5-.2l3.3,1.9c-.6-.4-1.5-.3-2.5.2"/>
                    <g id="_x33_">
                      <g id="_x36_">
                        <g>
                          <g>
                            <g>
                              <g class="cls-61">
                                <polygon class="cls-60" points="155.9 152.1 178.6 139 178.6 212.9 155.9 226.1 155.9 152.1"/>
                                <polygon class="cls-66" points="156.4 138.8 133.8 151.9 155.9 152.1 178.6 139 156.4 138.8"/>
                                <polygon class="cls-71" points="133.8 151.9 133.8 213.3 155.9 226.1 155.9 152.1 133.8 151.9"/>
                              </g>
                              <g class="cls-61">
                                <polygon class="cls-40" points="154.4 138.1 149.2 135 149.3 227 154.5 230 154.4 138.1"/>
                                <polygon class="cls-70" points="178.2 118.3 149.2 135 154.4 138.1 183.4 121.3 178.2 118.3"/>
                                <polygon class="cls-91" points="183.4 121.3 154.4 138.1 154.5 230 183.5 213.3 183.4 121.3"/>
                              </g>
                            </g>
                            <polygon class="cls-6" points="151.9 228.5 151.9 136.6 180.9 119.9 180.4 119.6 151.4 136.4 151.4 228.2 151.9 228.5"/>
                          </g>
                          <g>
                            <polygon class="cls-8" points="181.4 124.9 156.5 139.3 156.5 167 181.4 152.7 181.4 124.9"/>
                            <g class="cls-90">
                              <g>
                                <polygon class="cls-72" points="152.7 141.5 152.7 169.2 173.2 157.4 179.7 153.6 179.7 125.9 152.7 141.5"/>
                                <polygon class="cls-37" points="156.3 138.9 156.3 160.1 175.3 149.1 175.3 127.9 156.3 138.9"/>
                                <g>
                                  <g>
                                    <path class="cls-11" d="M176.1,147.2h.2c-.1,0-.2-.1-.2-.3,0-.4.3-.9.6-1.1.2-.1.3-.1.4,0h-.2c-.1-.2-.3-.1-.4,0-.4.2-.6.7-.6,1.1s0,.3.2.4Z"/>
                                    <g class="cls-61">
                                      <path class="cls-65" d="M176.7,147.3c-.4.2-.6,0-.6-.4s.3-.9.6-1.1.6,0,.6.4c0,.4-.3.9-.6,1.1h0Z"/>
                                    </g>
                                  </g>
                                  <g>
                                    <path class="cls-11" d="M176.1,142.6h.2c-.1,0-.2-.1-.2-.3,0-.4.3-.9.6-1.1.2-.1.3-.1.4,0h-.2c-.1-.2-.3-.1-.4,0-.4.2-.6.7-.6,1.1s0,.3.2.4Z"/>
                                    <g class="cls-61">
                                      <path class="cls-65" d="M176.7,142.6c-.4.2-.6,0-.6-.4s.3-.9.6-1.1.6,0,.6.4c0,.4-.3.9-.6,1.1h0Z"/>
                                    </g>
                                  </g>
                                  <g>
                                    <path class="cls-11" d="M176.1,138h.2c-.1,0-.2-.1-.2-.3,0-.4.3-.9.6-1.1.2-.1.3-.1.4,0h-.2c-.1-.2-.3-.1-.4,0-.4.2-.6.7-.6,1.1s0,.3.2.4Z"/>
                                    <g class="cls-61">
                                      <path class="cls-65" d="M176.7,138c-.4.2-.6,0-.6-.4s.3-.9.6-1.1.6,0,.6.4c0,.4-.3.9-.6,1.1h0Z"/>
                                    </g>
                                  </g>
                                  <g>
                                    <path class="cls-11" d="M176.1,133.3h.2c-.1,0-.2-.1-.2-.3,0-.4.3-.9.6-1.1.2-.1.3-.1.4,0h-.2c-.1-.2-.3-.1-.4,0-.4.2-.6.7-.6,1.1s0,.3.2.4Z"/>
                                    <g class="cls-61">
                                      <path class="cls-65" d="M176.7,133.4c-.4.2-.6,0-.6-.4s.3-.9.6-1.1.6,0,.6.4c0,.4-.3.9-.6,1.1h0Z"/>
                                    </g>
                                  </g>
                                </g>
                                <polygon class="cls-70" points="184.6 154.6 150.3 174.4 143.6 170.5 177.9 150.7 184.6 154.6"/>
                                <polygon class="cls-35" points="185.8 155.3 177.9 150.7 177.9 113.9 185.8 118.5 185.8 155.3"/>
                              </g>
                            </g>
                          </g>
                          <polygon class="cls-84" points="179.8 160 174.3 173.3 164.3 179.1 168.9 162.4 179.8 160"/>
                          <polygon class="cls-33" points="169.8 165.7 164.3 179.1 164.3 161.3 169.8 165.7"/>
                          <polygon class="cls-70" points="179.8 160 169.8 165.7 161.8 161.1 171.7 155.4 179.8 160"/>
                        </g>
                        <g>
                          <g>
                            <path class="cls-84" d="M176.5,160.4l-5.6,3.2c-.4.2-1.1.2-1.6,0l-4-2.3c-.4-.2-.4-.7,0-.9l5.6-3.2c.4-.2,1.1-.2,1.6,0l4,2.3c.4.2.4.7,0,.9Z"/>
                            <path class="cls-34" d="M165.4,160.7l5.6-3.2c.4-.2,1.1-.2,1.6,0l4,2.3c.1,0,.2.2.3.3.1-.2,0-.5-.3-.6l-4-2.3c-.4-.2-1.1-.2-1.6,0l-5.6,3.2c-.3.2-.4.4-.3.6,0-.1.1-.2.3-.3Z"/>
                          </g>
                          <g>
                            <path class="cls-3" d="M170.1,158.7v-.3h0c0,0,0-.2.2-.3l.7-.4c.3-.1.7-.2.9,0h.1c.1.2.2.3.2.4h0v.3c0,.1,0,.2-.2.3l-.7.4c-.3.1-.7.2-1,0h-.1c-.1-.2-.2-.3-.2-.4h0ZM171.9,159.9h.1c.3.2.7.2,1,0l.7-.4c.1,0,.2-.2.2-.3v-.3h0c0-.1,0-.2-.2-.3h-.1c-.3-.2-.7-.2-.9,0l-.7.4c-.1,0-.2.2-.2.3h0s0,.2,0,.2c0,.1,0,.2.2.3h0ZM173.5,160.8h.1c.3.2.7.2.9,0l.7-.4c.1,0,.2-.2.2-.3v-.3h0c0-.1,0-.2-.2-.3h-.2c-.3-.2-.7-.2-.9,0l-.7.4c-.1,0-.2.2-.2.3h0s0,.2,0,.2c0,.1,0,.2.2.3h0ZM168.8,158.4h0s0,0,0,0ZM168.3,160.1h.1c.3.2.7.2.9,0l.7-.4c.1,0,.2-.2.2-.3v-.3h0c0-.1,0-.2-.2-.3h-.1c-.3-.2-.7-.2-.9,0l-.7.4c-.1,0-.2.2-.2.3h0s0,.2,0,.2c0,.1,0,.2.2.3h0ZM169.9,161h.1c.3.2.7.2.9,0l.7-.4c.1,0,.2-.2.2-.3v-.3h0c0-.1,0-.2-.2-.3h-.1c-.3-.2-.7-.2-.9,0l-.7.4c-.1,0-.2.2-.2.3h0s0,.2,0,.2c0,.1,0,.2.2.3h0ZM171.5,161.9h.2c.3.2.7.2.9,0l.7-.4c.1,0,.2-.2.2-.3v-.3h0c0-.1,0-.2-.2-.3h-.2c-.3-.2-.7-.2-.9,0l-.7.4c-.1,0-.2.2-.2.3h0s0,.2,0,.2c0,.1,0,.2.2.3h0ZM166.3,161.3h.1c.3.2.7.2.9,0l.7-.4c.1,0,.2-.2.2-.3v-.3h0c0-.1,0-.2-.2-.3h-.1c-.3-.2-.7-.2-1,0l-.7.4c-.1,0-.2.2-.2.3h0s0,.2,0,.2c0,.1,0,.2.2.3h0ZM167.7,161.9v-.3h0c0,0,0-.2.2-.3l.7-.4c.3-.1.7-.2,1,0h.1c.1.2.2.3.2.4h0v.3c0,.1,0,.2-.2.3l-.7.4c-.3.1-.7.2-.9,0h-.1c-.1-.2-.2-.3-.2-.4h0ZM169.9,161.5s0,0,0,0c0,0,0,0,0,0h0ZM169.5,163.1h.2c.3.2.7.2.9,0l.7-.4c.1,0,.2-.2.2-.3v-.3h0c0-.1,0-.2-.2-.3h-.2c-.3-.2-.7-.2-1,0l-.7.4c-.1,0-.2.2-.2.3h0s0,.2,0,.2c0,.1,0,.2.2.3h0Z"/>
                            <path class="cls-70" d="M172.2,158.4c.3-.1.3-.4,0-.6h-.1c-.3-.2-.7-.2-.9,0l-.7.4c-.3.1-.3.4,0,.6h.1c.3.2.7.2,1,0l.7-.4h0ZM173.7,159.3c.3-.1.3-.4,0-.6h-.1c-.3-.2-.7-.2-.9,0l-.7.4c-.3.1-.3.4,0,.6h.1c.3.2.7.2,1,0l.7-.4h0ZM175.3,160.2c.3-.1.3-.4,0-.6h-.2c-.3-.2-.7-.2-.9,0l-.7.4c-.3.1-.3.4,0,.6h.1c.3.2.7.2.9,0l.7-.4h0ZM170.1,159.5c.3-.1.3-.4,0-.6h-.1c-.3-.2-.7-.2-.9,0l-.7.4c-.3.1-.3.4,0,.6h.1c.3.2.7.2.9,0l.7-.4ZM171.7,160.4c.3-.1.3-.4,0-.6h-.1c-.3-.2-.7-.2-.9,0l-.7.4c-.3.1-.3.4,0,.6h.1c.3.2.7.2.9,0l.7-.4ZM173.3,161.4c.3-.1.3-.4,0-.6h-.2c-.3-.2-.7-.2-.9,0l-.7.4c-.3.1-.3.4,0,.6h.2c.3.2.7.2.9,0l.7-.4ZM168.1,160.7c.3-.1.3-.4,0-.6h-.1c-.3-.2-.7-.2-1,0l-.7.4c-.3.1-.3.4,0,.6h.1c.3.2.7.2.9,0l.7-.4h0ZM169.7,161.6c.3-.1.3-.4,0-.6h-.1c-.3-.2-.7-.2-1,0l-.7.4c-.3.1-.3.4,0,.6h.1c.3.2.7.2.9,0l.7-.4h0ZM171.3,162.5c.3-.1.3-.4,0-.6h-.2c-.3-.2-.7-.2-1,0l-.7.4c-.3.1-.3.4,0,.6h.2c.3.2.7.2.9,0l.7-.4h0Z"/>
                          </g>
                        </g>
                      </g>
                      <g class="cls-86">
                        <polygon class="cls-89" points="180.6 155.1 177 157.2 177 156.7 180.6 154.7 180.6 155.1"/>
                      </g>
                      <g class="cls-86">
                        <polygon class="cls-89" points="163.1 165.2 157.6 168.4 157.6 167.9 163.1 164.8 163.1 165.2"/>
                      </g>
                      <g>
                        <polygon class="cls-63" points="170.4 154 162 158.8 162 157.8 170.4 152.9 170.4 154"/>
                        <polygon class="cls-7" points="170.2 153.1 162 157.8 162 158.6 170.2 153.8 170.2 153.1"/>
                      </g>
                    </g>
                    <g id="_x39_">
                      <g>
                        <g>
                          <polygon class="cls-91" points="210.3 137.8 210.3 195.3 196.7 203.2 196.7 145.6 210.3 137.8"/>
                          <g>
                            <polygon class="cls-71" points="197.9 184.8 185.2 177.5 185.3 135.5 198 142.9 197.9 184.8"/>
                            <polygon class="cls-66" points="198 142.9 185.3 135.5 198.8 127.7 211.5 135.1 198 142.9"/>
                            <polygon class="cls-87" points="211.5 135.1 211.5 177 197.9 184.8 198 142.9 211.5 135.1"/>
                          </g>
                          <polygon class="cls-28" points="196.7 203.2 185.2 196.5 185.3 139 196.7 145.6 196.7 203.2"/>
                        </g>
                        <g class="cls-68">
                          <g>
                            <polygon class="cls-29" points="209.7 165.2 199.8 171 199.8 150.7 209.7 145 209.7 165.2"/>
                            <polygon class="cls-70" points="206.8 147.8 206.8 146.4 199.5 150.7 199.5 165.4 209.7 159.6 206.8 147.8"/>
                            <polygon class="cls-64" points="199.5 152 206.8 147.8 206.8 146.4 199.5 150.7 199.5 152"/>
                            <polygon class="cls-91" points="199.8 165.3 199.8 171 209.7 165.2 209.7 159.5 199.8 165.3"/>
                            <g>
                              <polygon class="cls-69" points="205.9 151.9 199.3 155.7 198.7 153.1 205.2 149.4 205.9 151.9"/>
                              <polygon class="cls-63" points="205.2 149.4 205.1 149.5 205.6 151.8 199.3 155.4 199.3 155.7 205.9 151.9 205.2 149.4"/>
                              <g class="cls-85">
                                <path class="cls-30" d="M206.6,160.6l-4.1,2.4c-.2.1-.4,0-.4-.1l-.4-1.9c0-.2,0-.5.3-.6l4.1-2.4c.2-.1.4,0,.4.1l.4,1.8c0,.2,0,.4-.3.6h0Z"/>
                                <path class="cls-62" d="M206.9,160.1l-.4-1.8c0-.1-.1-.2-.2-.2,0,0,0,0,0,.1l.4,1.8c0,.2,0,.4-.3.6l-4.1,2.4c0,0-.2,0-.2,0,0,.1.2.1.4,0l4.1-2.4c.2-.1.3-.4.3-.6Z"/>
                                <g>
                                  <path class="cls-31" d="M200.7,156.6l-.8.4c-.1,0-.2,0-.3-.1v-.3c0-.1,0-.3.1-.4l.8-.4c.1,0,.2,0,.3.1v.3c.1.1,0,.3,0,.4h0Z"/>
                                  <path class="cls-32" d="M200.9,157.7l-.8.4c-.1,0-.2,0-.3-.1v-.3c0-.1,0-.3.1-.4l.8-.4c.1,0,.2,0,.3.1v.3c.1.1,0,.3,0,.4Z"/>
                                  <path class="cls-25" d="M201.2,158.8l-.8.4c-.1,0-.2,0-.3-.1v-.3c0-.1,0-.3.1-.4l.8-.4c.1,0,.2,0,.3.1v.3c.1.1,0,.3,0,.4h0Z"/>
                                  <path class="cls-26" d="M201.4,159.8l-.8.4c-.1,0-.2,0-.3-.1v-.3c0-.1,0-.3.1-.4l.8-.4c.1,0,.2,0,.3.1v.3c.1.1,0,.3,0,.4h0Z"/>
                                </g>
                                <g>
                                  <path class="cls-27" d="M202.1,155.8l-.8.4c-.1,0-.2,0-.3-.1v-.3c-.1-.1,0-.3,0-.4l.8-.4c.1,0,.2,0,.3.1v.3c.1.1,0,.3,0,.4Z"/>
                                  <path class="cls-54" d="M202.4,156.9l-.8.4c-.1,0-.2,0-.3-.1v-.3c-.1-.1,0-.3,0-.4l.8-.4c.1,0,.2,0,.3.1v.3c.1.1,0,.3,0,.4h0Z"/>
                                  <path class="cls-53" d="M202.6,157.9l-.8.4c-.1,0-.2,0-.3-.1v-.3c-.1-.1,0-.3,0-.4l.8-.4c.1,0,.2,0,.3.1v.3c.1.1,0,.3,0,.4Z"/>
                                  <path class="cls-49" d="M202.9,159l-.8.4c-.1,0-.2,0-.3-.1v-.3c-.1-.1,0-.3,0-.4l.8-.4c.1,0,.2,0,.3.1v.3c.1.1,0,.3,0,.4Z"/>
                                </g>
                                <g>
                                  <path class="cls-50" d="M203.6,154.9l-.8.4c-.1,0-.2,0-.3-.1v-.3c-.1-.1,0-.3,0-.4l.8-.4c.1,0,.2,0,.3.1v.3c.1.1,0,.3,0,.4Z"/>
                                  <path class="cls-51" d="M203.9,156l-.8.4c-.1,0-.2,0-.3-.1v-.3c-.1-.1,0-.3,0-.4l.8-.4c.1,0,.2,0,.3.1v.3c.1.1,0,.3,0,.4h0Z"/>
                                  <path class="cls-52" d="M204.1,157.1l-.8.4c-.1,0-.2,0-.3-.1v-.3c-.1-.1,0-.3,0-.4l.8-.4c.1,0,.2,0,.3.1v.3c.1.1,0,.3,0,.4Z"/>
                                  <path class="cls-45" d="M204.4,158.1l-.8.4c-.1,0-.2,0-.3-.1v-.3c-.1-.1,0-.3,0-.4l.8-.4c.1,0,.2,0,.3.1v.3c.1.1,0,.3,0,.4Z"/>
                                </g>
                                <g>
                                  <path class="cls-46" d="M206,153.5l-1.5.9c-.1,0-.2,0-.3-.1v-.3c-.1-.1,0-.3,0-.4l1.5-.9c.1,0,.2,0,.3.1v.3c.1.1,0,.3,0,.4Z"/>
                                  <path class="cls-47" d="M206.3,154.6l-1.5.9c-.1,0-.2,0-.3-.1v-.3c-.1-.1,0-.3,0-.4l1.5-.9c.1,0,.2,0,.3.1v.3c.1.1,0,.3,0,.4Z"/>
                                  <path class="cls-69" d="M206.6,155.7l-1.5.9c-.1,0-.2,0-.3-.1v-.3c-.1-.1,0-.3,0-.4l1.5-.9c.1,0,.2,0,.3.1v.3c.1.1,0,.3,0,.4Z"/>
                                  <path class="cls-75" d="M206.8,156.7l-1.5.9c-.1,0-.2,0-.3-.1v-.3c-.1-.1,0-.3,0-.4l1.5-.9c.1,0,.2,0,.3,0v.3c.1.1,0,.3,0,.4h0Z"/>
                                </g>
                              </g>
                            </g>
                            <g>
                              <polygon class="cls-48" points="206.5 164.1 203.1 166.1 203.1 164.4 206.5 162.4 206.5 164.1"/>
                              <polygon class="cls-16" points="206.2 163 203.1 164.7 203.1 166.1 206.5 164.1 206.2 163"/>
                              <polygon class="cls-2" points="206.2 162.9 206.2 162.6 203.1 164.4 203.1 164.7 206.2 162.9"/>
                            </g>
                          </g>
                        </g>
                      </g>
                      <g>
                        <path class="cls-71" d="M203.8,123.2c0-.2,0-.4-.3-.6-.5-.3-1.2-.3-1.7,0-.2.1-.4.3-.4.5h0v10.4c0,.2.1.4.4.5.5.3,1.2.3,1.7,0,.2-.1.4-.3.4-.5v-10.4s0,0,0,0h0Z"/>
                        <path class="cls-71" d="M196.5,127.4c0-.2,0-.4-.3-.6-.5-.3-1.2-.3-1.7,0-.2.1-.4.3-.4.5h0v10.4c0,.2.1.4.4.5.5.3,1.2.3,1.7,0,.2-.1.4-.3.4-.5v-10.4s0,0,0,0h0Z"/>
                      </g>
                      <g>
                        <g class="cls-61">
                          <g class="cls-61">
                            <path class="cls-9" d="M206.1,104.6l-3.3-1.9c1-.6,1.9-.6,2.5-.2l3.3,1.9c-.6-.4-1.5-.3-2.5.2h0Z"/>
                          </g>
                          <path class="cls-15" d="M189.4,133.6v-15.2s-3.4-1.9-3.4-1.9v15.2c0,1.1.4,1.9,1.1,2.3l3.3,1.9c-.6-.4-1-1.2-1-2.3Z"/>
                          <polygon class="cls-70" points="192.9 112.2 189.6 110.3 202.8 102.7 206.1 104.6 192.9 112.2"/>
                          <g class="cls-61">
                            <path class="cls-9" d="M189.3,118.4l-3.3-1.9c0-2.3,1.6-5,3.6-6.1l3.3,1.9c-2,1.1-3.6,3.9-3.6,6.1h0Z"/>
                          </g>
                          <path class="cls-91" d="M206.1,104.6c2-1.1,3.6-.2,3.6,2v15.2c0,2.3-1.5,5-3.5,6.1l-13.3,7.7c-2,1.1-3.6.2-3.6-2v-15.2c0-2.3,1.5-5,3.5-6.1,0,0,13.3-7.7,13.3-7.7Z"/>
                          <path class="cls-87" d="M205.4,106.4c1.7-1,3.2-.2,3.2,1.8v13.5c0,2-1.4,4.4-3.1,5.4l-11.7,6.8c-1.7,1-3.2.2-3.2-1.8v-13.5c0-2,1.4-4.4,3.1-5.4,0,0,11.7-6.8,11.7-6.8Z"/>
                        </g>
                        <path class="cls-9" d="M200.3,113l-4.4,2.5v13.3l2.8-1.6v-4.8l1.6-.9c2.2-1.2,4.6-3.2,4.6-6.7v-.3c0-3.5-2.4-2.7-4.6-1.4h0ZM202.1,116.3c0,1.5-.9,2.3-1.7,2.8l-1.7,1v-3.7l1.7-1c.8-.4,1.7-.7,1.7.8v.2Z"/>
                      </g>
                    </g>
                  </g>
                </g>
              </g>
            </g>
          </g>
        </g>
      </g>
    </g>
  </g>
</svg>