<?xml version="1.0" encoding="UTF-8"?>
<svg id="_圖層_2" data-name="圖層_2" xmlns="http://www.w3.org/2000/svg" viewBox="0 0 51.31 46.27">
  <defs>
    <style>
      .cls-1 {
        fill: #e83820;
      }

      .cls-2 {
        fill: none;
        stroke: #f1891a;
        stroke-miterlimit: 10;
      }
    </style>
  </defs>
  <g id="_圖層_1-2" data-name="圖層_1">
    <g>
      <path class="cls-2" d="M49.73,23.23l-3.96-1.37v-11.3c0-5.55-4.5-10.06-10.06-10.06H10.55C5,.5.5,5,.5,10.56v25.16c0,5.55,4.5,10.06,10.05,10.06h25.16c5.55,0,10.06-4.5,10.06-10.06v-11.21l3.96-1.28Z"/>
      <path class="cls-1" d="M8.84,17.04h27.91c0-1.02.06-2.03-.02-3.04-.04-.57-.56-.93-1.14-.97-.49-.03-.99-.02-1.48-.02-.3,0-.59-.06-.59-.43,0-.39.28-.47.61-.46.54,0,1.09-.05,1.62.03,1.16.16,1.94,1.1,1.94,2.29,0,4.56,0,9.12,0,13.68,0,1.44,0,2.88,0,4.32,0,1.39-.92,2.33-2.32,2.34-1.18.01-2.35,0-3.53,0-.32,0-.63-.05-.62-.44,0-.39.32-.43.64-.42,1.14,0,2.29,0,3.43,0,.94,0,1.53-.56,1.53-1.48,0-4.72,0-9.43,0-14.15,0-.09-.02-.18-.03-.29H8.84v2.03c0,.39.04.78-.02,1.16-.03.17-.26.31-.39.47-.15-.15-.31-.29-.43-.46-.04-.06,0-.18,0-.27,0-2.13,0-4.27,0-6.4,0-1.46.95-2.4,2.41-2.4,7.07,0,14.13,0,21.2,0,.11,0,.25-.04.32.01.16.11.39.27.39.41,0,.14-.2.35-.36.43-.15.08-.36.03-.55.03-6.91,0-13.82,0-20.74,0-1.38,0-1.83.44-1.83,1.83v2.2"/>
      <path class="cls-1" d="M16.94,28.84c.89,2.4,1.75,4.7,2.65,7.11.5-.52.93-.98,1.37-1.43.41-.42.54-.42.95,0,.5.51,1,1.03,1.43,1.48.3-.27.53-.49.79-.73-.39-.38-.78-.75-1.17-1.13-.82-.81-.82-.82-.02-1.61.34-.33.7-.65,1.12-1.04-2.43-.91-4.73-1.76-7.13-2.65M17.89,33.92c-.38-1.01-.73-1.95-1.07-2.89-.26-.69-.5-1.39-.77-2.08-.14-.34-.14-.69.16-.87.23-.14.6-.2.85-.11,1.93.68,3.85,1.41,5.77,2.12.53.2,1.07.39,1.6.59.71.27.83.76.29,1.3-.44.44-.89.86-1.32,1.28.3.5.69.67,1.24.66,1.59-.04,3.19-.01,4.78-.02.3,0,.54.07.55.41.01.37-.24.46-.56.45-.11,0-.22,0-.33,0h-4.18c.32.58.11,1-.32,1.36-.21.18-.39.4-.6.58-.4.37-.73.38-1.13-.01-.47-.47-.92-.95-1.43-1.5-.47.5-.88.94-1.3,1.37-.57.57-1.07.46-1.36-.3-.13-.35-.28-.69-.37-1.05-.1-.35-.27-.47-.65-.47-2.41.02-4.82.01-7.24.01-1.65,0-2.52-.87-2.52-2.51,0-2.92,0-5.84,0-8.77,0-.14-.04-.31.02-.41.1-.15.28-.32.43-.32.13,0,.3.2.39.35.06.11.02.27.02.41v8.68c0,1.21.51,1.71,1.73,1.71h7.33Z"/>
      <path class="cls-1" d="M21.37,25.74c.35-.98.67-1.86.98-2.74.09-.25.17-.58.49-.49.2.05.42.3.49.5.33.86.6,1.74.94,2.74.22-.62.41-1.14.59-1.65.15-.41.29-.81.43-1.22.1-.29.3-.45.6-.35.29.1.32.36.23.62-.46,1.34-.93,2.67-1.42,4-.06.16-.3.36-.45.35-.15,0-.36-.23-.42-.4-.34-.91-.64-1.83-1-2.86-.31.85-.58,1.61-.85,2.37-.07.2-.11.43-.22.6-.09.14-.28.29-.42.29-.14,0-.36-.16-.4-.3-.5-1.37-.98-2.75-1.42-4.15-.04-.14.14-.45.29-.53.27-.14.46.07.55.33.27.78.54,1.57.81,2.36.05.14.11.28.2.51"/>
      <path class="cls-1" d="M14.79,24.24c-.36,1.01-.66,1.92-1.01,2.8-.08.19-.31.33-.47.49-.16-.16-.4-.29-.47-.49-.46-1.26-.88-2.53-1.32-3.79-.11-.31-.12-.61.25-.72.35-.1.49.15.59.44.3.89.61,1.77.96,2.79.23-.64.42-1.16.61-1.67.15-.41.27-.82.45-1.21.08-.16.29-.37.44-.36.15,0,.38.21.44.38.33.89.63,1.8.97,2.78.09-.16.15-.26.19-.36.28-.78.55-1.57.82-2.35.11-.31.27-.56.64-.41.33.13.29.43.19.71-.45,1.28-.88,2.56-1.36,3.83-.07.18-.3.41-.46.41-.15,0-.38-.24-.45-.42-.34-.91-.64-1.83-.99-2.84"/>
      <path class="cls-1" d="M30.76,24.24c-.34.94-.63,1.78-.94,2.61-.11.29-.12.69-.57.68-.41-.01-.42-.39-.52-.67-.42-1.21-.83-2.41-1.26-3.62-.11-.3-.1-.58.22-.69.36-.13.52.12.62.43.3.89.61,1.77.96,2.78.32-.88.6-1.64.87-2.41.06-.17.09-.37.19-.52.1-.14.3-.34.43-.32.17.02.38.21.44.37.3.78.55,1.57.81,2.35.04.13.1.25.19.48.32-.91.61-1.73.9-2.54.03-.1.07-.2.11-.3.09-.28.28-.42.56-.34.33.1.34.39.25.65-.19.6-.41,1.19-.62,1.79-.25.71-.48,1.43-.76,2.13-.07.18-.3.41-.46.41-.16,0-.38-.24-.45-.42-.34-.91-.64-1.83-.98-2.84"/>
      <path class="cls-1" d="M14.19,14.25c.45.01.77.37.76.82-.02.45-.36.77-.81.77-.47,0-.81-.37-.78-.84.02-.45.37-.75.83-.74"/>
      <path class="cls-1" d="M16.64,14.25c.43,0,.8.37.8.79,0,.44-.4.81-.85.79-.44-.01-.78-.38-.77-.82.01-.44.37-.77.82-.77"/>
    </g>
  </g>
</svg>