<?xml version="1.0" encoding="UTF-8"?>
<svg id="_圖層_2" data-name="圖層_2" xmlns="http://www.w3.org/2000/svg" viewBox="0 0 94.47 50.32">
  <defs>
    <style>
      .cls-1 {
        fill: #ebd1b2;
      }

      .cls-2 {
        fill: #275035;
      }

      .cls-3 {
        fill: #2f5f43;
      }

      .cls-4 {
        fill: #2c2962;
      }

      .cls-5 {
        fill: #f4c439;
      }

      .cls-6 {
        fill: #316163;
      }

      .cls-7 {
        fill: #232453;
      }

      .cls-8 {
        fill: #fdead1;
      }

      .cls-9 {
        fill: #e5927f;
      }

      .cls-10 {
        fill: #fff;
      }

      .cls-11 {
        fill: #c6525a;
      }

      .cls-12 {
        fill: #f2c3a1;
      }

      .cls-13 {
        fill: #9f5656;
      }

      .cls-14 {
        fill: #306c6d;
      }

      .cls-15 {
        fill: #231735;
      }

      .cls-16 {
        fill: #f7d462;
      }

      .cls-17 {
        fill: #14342f;
      }

      .cls-18 {
        fill: #85ba83;
      }

      .cls-19 {
        fill: #da6062;
      }
    </style>
  </defs>
  <g id="_圖層_1-2" data-name="圖層_1">
    <g>
      <polygon class="cls-10" points="91.68 34.69 91.68 34.7 91.69 34.69 91.69 34.68 91.68 34.69"/>
      <g>
        <g>
          <g>
            <path class="cls-6" d="M7.5,29.81s-.45-1.63-2.26-3.53C3.43,24.38-.38,23.02.03,21.39c.41-1.63,2.99-1.9,4.98-.91,1.99,1,4.53,5.15,4.12,8.69l-1.63.64Z"/>
            <path class="cls-14" d="M10.72,28.23s.59-2.85,0-6.25-2.36-7.52-5.07-8.01c-2.72-.5-3.26,1.45-2.08,3.08,1.18,1.63,5.52,6.98,5.09,12.32l2.07-1.13Z"/>
            <path class="cls-18" d="M9.75,28.92s0,0,0,0c-.09,0-.16-.08-.15-.17.54-9.05-4.66-13.47-4.72-13.52-.07-.06-.08-.16-.02-.23.06-.07.16-.08.23-.02.05.04,5.38,4.57,4.83,13.78,0,.09-.08.15-.16.15Z"/>
            <path class="cls-18" d="M8.21,29.7c-.09,0-.16-.07-.16-.15-.23-5.3-4.37-8.05-6.22-8.49-.09-.02-.14-.11-.12-.19.02-.09.11-.14.19-.12,1.93.46,6.23,3.31,6.46,8.79,0,.09-.06.16-.15.17h0Z"/>
          </g>
          <g>
            <path class="cls-4" d="M66.6,29.94s-.07-.01-.1-.03c-.1-.08-10.6-8.21-19.24-23.81-.04-.08-.01-.18.06-.22.08-.04.17-.02.22.06,8.61,15.54,19.05,23.63,19.16,23.71.07.05.08.15.03.23-.03.04-.08.06-.13.06Z"/>
            <path class="cls-13" d="M47.47,6c-.18,0-.32-.14-.32-.32V.32c0-.18.14-.32.32-.32s.32.14.32.32v5.35c0,.18-.14.32-.32.32Z"/>
            <path class="cls-19" d="M47.79,5.33s1.78,8.28,4.12,12.69c2.34,4.41,9.47,12.13,13.41,14.16l-24.15-7.41,6.62-19.44Z"/>
            <polygon class="cls-11" points="65.32 32.18 27.2 42.35 41.17 24.77 65.32 32.18"/>
            <path class="cls-1" d="M47.79,5.33s-.46,11.96-3.68,20.02c-3.22,8.05-10.92,15.14-16.91,17L47.79,5.33Z"/>
            <path class="cls-8" d="M47.79,5.33s-1.04,8.4-8.59,21.63c-5.79,10.13-12,15.39-12,15.39,0,0-10.83-3.56-19.79-12.53,0,0,4.03-2.86,9.61-11.72,3.87-6.13,6.72-14.49,6.72-14.49,0,0,7.88,1.84,12.34,1.84s11.71-.12,11.71-.12Z"/>
            <path class="cls-1" d="M47.79,5.33s2.75,10.7,8.62,17.65c3.76,4.46,8.9,9.2,8.9,9.2,0,0-7.92-3.07-11.67-9.2-5.16-8.44-5.86-17.65-5.86-17.65Z"/>
            <path class="cls-13" d="M66.6,31.47c-.18,0-.32-.14-.32-.32v-2.74c0-.18.14-.32.32-.32s.32.14.32.32v2.74c0,.18-.14.32-.32.32Z"/>
            <path class="cls-13" d="M24.1,43.37c-.18,0-.32-.14-.32-.32v-2.74c0-.18.14-.32.32-.32s.32.14.32.32v2.74c0,.18-.14.32-.32.32Z"/>
            <path class="cls-13" d="M2.97,30.1c-.18,0-.32-.14-.32-.32v-2.74c0-.18.14-.32.32-.32s.32.14.32.32v2.74c0,.18-.14.32-.32.32Z"/>
            <path class="cls-4" d="M24.1,41.61s-.08-.02-.12-.05c-.06-.06-.06-.17,0-.23C38.89,27.03,47.17,5.49,47.25,5.27c.03-.08.12-.13.21-.09.08.03.12.12.09.21-.08.22-8.39,21.83-23.34,36.18-.03.03-.07.04-.11.04Z"/>
            <path class="cls-4" d="M2.97,28.1s-.1-.02-.13-.06c-.05-.07-.04-.17.03-.22C15.05,18.75,23.52,3.68,23.61,3.53c.04-.08.14-.11.22-.06.08.04.11.14.06.22-.08.15-8.58,15.29-20.82,24.38-.03.02-.06.03-.1.03Z"/>
            <path class="cls-16" d="M47.4.66s2.74,1.18,5.84,1.33c0,0-1.56,1.74-5.84.89V.66Z"/>
          </g>
        </g>
        <g>
          <g>
            <path class="cls-7" d="M43.72,42.83l.96,1.41c1.15,1.68,3.38,2.24,5.18,1.28l6.41-3.39,6.11,4.87,1.73-1.83s-5.34-6.85-5.94-7.35c-.6-.5-.71-.71-2.44-.27s-6.83,2.73-6.83,2.73l-5.19,2.54Z"/>
            <path class="cls-12" d="M56.31,36.48c.48-.09,1.46-.25,1.8,0,.34.25.93.85,1.15,1.35.12.27.56,1.07.2,1.4-.19.18-.51-.27-.72-.62-.29-.48-.62-.87-.87-.87s-1.24.31-1.43.1l-.12-1.35Z"/>
            <path class="cls-5" d="M45.84,32.29c.8,0,1.56,0,2.45.92.89.92,3.43,3.88,3.43,3.88l4.52-.76s.38.7.25,1.69c0,0-5.06,1.36-5.64,1.43-.59.07-1.13-.54-1.54-.98-.41-.45-2.64-2.89-2.64-2.89l-.83-3.27Z"/>
            <path class="cls-15" d="M62.39,47l.68.58s1.36-1.36,2.58-2.62c1.23-1.26,1.95-2.23.74-1.41-1.15.78-2.27,1.61-2.27,1.61l-1.73,1.83Z"/>
          </g>
          <path class="cls-4" d="M43,43.25c.2,1.35,1.36,3.59,3.98,3.75,3.14.19,7.8.25,7.8.25l11.25,2.71.84-2.39s-9.93-3.97-11.12-4.23c-1.19-.27-7.37-2.32-7.37-2.32l-5.39,2.24Z"/>
          <path class="cls-15" d="M66.03,49.96l.84-2.39s1.59-2.81,1.81-3.24c.22-.43.72-.7.02,1.3-.71,2-1.66,4.68-1.66,4.68l-1.01-.36Z"/>
          <path class="cls-16" d="M45.84,32.29s.77.1,1.14.64c.37.54,1.93,7.36,1.93,7.36,0,0-1.52,3-5.91,2.97,0,0-.98-4.95-1.52-7.24-.54-2.29.25-2.83.87-3.17s1.37-.63,1.37-.63l2.12.07Z"/>
          <path class="cls-4" d="M47.04,25.08s1.06-.02,1.6.93c.54.95.25,1.98-.76,2.33-1.23.44-.84-3.26-.84-3.26Z"/>
          <path class="cls-9" d="M43.9,29.79l-.18,2.43s.66,1.35,1.76,1.36c1.23.01.36-1.29.36-1.29l.08-1.07-2.02-1.43Z"/>
          <path class="cls-12" d="M43.9,29.79s.11.64.83,1.05,1.76.49,2.12.35c.36-.14.84-1.17.95-2.08.14-1.17.25-2.36-.23-3.19-.48-.83-2.19-1.42-3.76-.71-1.15.52-1.84,2.43-1.22,3.64.24.45.65,1,1.31.95Z"/>
          <path class="cls-4" d="M43.9,29.79s-1.06-.09-1.07-1.04c-.01-.95.85-1.03,1.13-.74s.24.83.24.83c0,0,.39.01.52-.53.12-.54.03-.96.03-.96,0,0,1.78.24,2.82-1.43,0,0-.41-1.6-2.55-1.53-2.14.06-3.02,1.8-3.18,2.69-.13.7-.02,3.18,2.01,3.43l.05-.72Z"/>
          <path class="cls-4" d="M43,25.12s-.42-.69-1.59-.74c-1.01-.05-1.92.5-2.34,1.72s-.76,2.44-1.74,3.09c-.85.56-2.47.64-2.11,2.03.32,1.23,2.52,1.49,3.84.64,1.26-.81,1.52-1.88,1.66-2.95.17-1.34.5-3.09,1.63-3.03,0,0,.54-.24.66-.75Z"/>
          <path class="cls-12" d="M41.42,45.42c-.04.32-.12,1.41-.51,1.59-.39.18-3.24.16-3.71.08s-1.14-.41,0-.62c1.14-.21,2.3-.54,2.3-.54l.25-1.12,1.67.61Z"/>
          <path class="cls-5" d="M42.04,33.03c-.81.16-1.13,1.05-1.33,2.72-.2,1.67-1.14,9.54-1.14,9.54l1.91.13,1.67-8.1s.67-3.55-1.11-4.29Z"/>
        </g>
      </g>
      <g>
        <path class="cls-4" d="M87.75,13.5c-.83.03-2.22-.45-2.67-.49-.45-.04-.2,1.07-.2,1.07,0,0-.33-.19-.55-.38-.22-.18-.55,1.39.71,1.94,1.27.55,2.71-2.14,2.71-2.14Z"/>
        <path class="cls-17" d="M72.82,41.38h7.87c.23,0,.41.19.41.41h0c0,.23-.19.41-.41.41h-7.87c-.23,0-.41-.19-.41-.41h0c0-.23.19-.41.41-.41Z"/>
        <path class="cls-17" d="M80.48,41.96h-7.47c-.06,0-.12-.04-.14-.09-.03-.06-.02-.12.02-.17l4.6-5.66s.08-.06.12-.06h7.47c.06,0,.12.04.14.09.03.06.02.12-.02.17l-4.6,5.66s-.08.06-.12.06ZM73.35,41.64h7.06l4.34-5.34h-7.05l-4.34,5.34Z"/>
        <path class="cls-2" d="M84.93,28.63c1.2.31,1.72,1.4,0,1.68s-7.71.53-8.75.25c-1.04-.29-1.01-1.38.21-1.59,1.23-.21,7.91-.5,8.54-.34Z"/>
        <path class="cls-1" d="M86.57,21.9c.58,2.48,1.03,5.34,1.2,5.95.17.61-.04.98-.65,1.29-.61.31-6.96.33-6.96.33v-1.86l4.53-.43s-.56-2.31-.69-3.18c-.19-1.26,2.58-2.09,2.58-2.09Z"/>
        <path class="cls-9" d="M80.2,29.32c-.78.23-2.08.37-2.68.3-.6-.07-1.15-.38-1.35-.81s-.13-1.23.1-1.39,1.18.33,1.76.3c.58-.02.59-.21.59-.21,0,0-.35-.19-.67-.28s-.03-.49.43-.39c.46.09,1.77.77,1.77.77l.05,1.7Z"/>
        <path class="cls-3" d="M89.76,34.52c1.1-1.29,3.2-5.52,3.86-7.79.66-2.27,1.38-4.6.28-5.12-1.1-.52-6.26-1.53-8.18.52-1.92,2.05-6.36,13.24-6.36,13.24,0,0-.2.28,3.83.67,4.03.39,5.66-.53,6.58-1.52Z"/>
        <path class="cls-8" d="M88.65,31.67s1-4.47,1.22-5.84c.57-3.53.28-3.89.04-4.06-.66-.47-2.79-.71-4.34-.11-1.55.59-2.2,1.85-2.91,3.77-.6,1.63-.86,2.68-1.34,4.8l7.32,1.45Z"/>
        <path class="cls-7" d="M74.02,33.79l9.19,1.37-1.89-4.93s-7.23-.91-8.05-.82c-.82.09-1.2.47-1.46.86"/>
        <path class="cls-4" d="M73.95,31.3c.3-.72.3-.96,2.03-1.38,1.73-.42,5.35.3,5.35.3l7.32,1.45-.04.25c-.23,2.03-1.5,3.87-3.98,3.56l-7.24-1.67"/>
        <path class="cls-2" d="M89.81,34.46c-1.89,1.29-4.85,1.58-12.43-.65l-6.01-.36s1.81,2.51,7.13,3.53c5.32,1.03,9.6-.38,11.31-2.52Z"/>
        <path class="cls-7" d="M71.82,30.26c-.26.39-5.35,7.72-5.35,7.72l2.19,1.24,5.35-5.44"/>
        <path class="cls-15" d="M68.67,39.23l-.48.75s-1.7-.9-3.24-1.74c-1.54-.85-2.51-1.56-1.12-1.13,1.33.41,2.64.88,2.64.88l2.19,1.24Z"/>
        <path class="cls-4" d="M77.38,33.81l-2.87,7.57-2.39-.81s1.53-8.55,1.82-9.27"/>
        <path class="cls-15" d="M74.51,41.38l-.33.83s-1.83-.57-3.51-1.11c-1.67-.54-2.76-1.06-1.31-.9,1.38.15,2.76.37,2.76.37l2.39.81Z"/>
        <path class="cls-17" d="M92.08,41.96h-7.47s-.09-.02-.12-.06l-4.6-5.66s-.05-.11-.02-.17c.03-.06.08-.09.14-.09h7.47s.09.02.12.06l4.6,5.66s.05.11.02.17c-.03.06-.08.09-.14.09ZM84.69,41.64h7.06l-4.34-5.34h-7.06l4.34,5.34Z"/>
        <path class="cls-17" d="M84.4,41.38h7.87c.23,0,.41.19.41.41h0c0,.23-.19.41-.41.41h-7.87c-.23,0-.41-.19-.41-.41h0c0-.23.19-.41.41-.41Z"/>
        <path class="cls-17" d="M87.48,36.3s-.08-.01-.11-.04c-.06-.06-.07-.16,0-.23l4.6-4.83c.06-.06.16-.07.23,0,.06.06.07.16,0,.23l-4.6,4.83s-.07.05-.12.05Z"/>
        <path class="cls-17" d="M80.13,36.3s-.08-.01-.11-.04c-.06-.06-.07-.16,0-.23l4.6-4.83c.06-.06.16-.07.23,0,.06.06.07.16,0,.23l-4.6,4.83s-.07.05-.12.05Z"/>
        <path class="cls-2" d="M92.48,29.91c1.2.31,1.72,1.4,0,1.68s-7.71.53-8.75.25c-1.04-.29-1.01-1.38.21-1.59s7.91-.5,8.54-.34Z"/>
        <path class="cls-1" d="M89.5,21.57c.75.15,1.7.82,2.46,2.44,1.08,2.31,2.11,4.51,2.28,5.12.17.61-.04.98-.65,1.29-.61.31-6.96.33-6.96.33v-1.86l4.53-.43s-1.3-2.59-1.71-3.37c-.41-.78-.53-2.85.05-3.52Z"/>
        <path class="cls-9" d="M86.64,30.61c-.78.23-2.03.36-2.63.29s-1.15-.38-1.35-.81c-.2-.43-.13-1.23.1-1.39s1.18.33,1.76.3c.58-.02.59-.21.59-.21,0,0-.35-.19-.67-.28s-.03-.49.43-.39c.46.09,1.77.77,1.77.77v1.72Z"/>
        <path class="cls-9" d="M88.69,19.03l.1,2.43s-1.11.7-2.21.7c-.87,0-.17-.7-.17-.7v-1.05s2.28-1.39,2.28-1.39Z"/>
        <path class="cls-12" d="M88.69,19.03s-.31.64-1.04,1.02c-.74.38-1.6.44-1.98.36-.31-.06-.67-.34-.83-.7-.18-.41-.19-1.06-.23-1.54-.1-1.18.03-2.32.54-3.14.51-.81,2.25-1.37,3.79-.58.66.34,1.45,1.51,1.44,2.58-.02,1.44-1.06,2.75-1.69,2Z"/>
        <path class="cls-4" d="M88.69,19.03c.15.15,1.05-.02,1.11-1.01.05-.95-.81-1.06-1.11-.78s-.26.82-.26.82c0,0-.48.09-.49-.46,0-.15.03-.74.03-.74-.71-.14-.57-1.3-.57-1.3,0,0-1.34,0-2.12-.82,0,0,.34-1.39,2.48-1.26,2.14.14,2.94,1.31,2.93,2.49,0,.71.1,4.09-1.94,4.27l-.05-1.23Z"/>
      </g>
    </g>
  </g>
</svg>