<?xml version="1.0" encoding="UTF-8"?>
<svg id="_圖層_2" data-name="圖層_2" xmlns="http://www.w3.org/2000/svg" viewBox="0 0 51.31 46.27">
  <defs>
    <style>
      .cls-1 {
        fill: #e83820;
      }

      .cls-2 {
        fill: none;
        stroke: #f1891a;
        stroke-miterlimit: 10;
      }
    </style>
  </defs>
  <g id="_圖層_1-2" data-name="圖層_1">
    <g>
      <path class="cls-2" d="M49.73,23.23l-3.96-1.37v-11.3c0-5.55-4.5-10.06-10.06-10.06H10.55C5,.5.5,5,.5,10.56v25.16c0,5.55,4.5,10.06,10.05,10.06h25.16c5.55,0,10.06-4.5,10.06-10.06v-11.21l3.96-1.28Z"/>
      <path class="cls-1" d="M9.22,34.3c-.22-.27-.44-.54-.69-.85-.12.32-.22.58-.32.85h1.01ZM20.32,12.79c0-.74-.02-1.44,0-2.14.01-.36-.1-.48-.47-.48-1.26.02-2.53,0-3.79.01-.14,0-.28.02-.42.04v2.57h4.67ZM13.66,26.11s-.06-.04-.09-.06c-1.8,1.88-3.61,3.75-5.36,5.57.74.76,1.46,1.49,2.21,2.25,1.08-2.59,2.16-5.18,3.24-7.77M37.4,34.31q-.25-1.12-1.3-1.12h-13.43c.18.43.32.77.46,1.12h14.26ZM19.06,34.31c-1.3-3.13-2.58-6.19-3.9-9.36-1.33,3.18-2.6,6.25-3.9,9.36h7.8ZM22.13,34.32c-2.16-5.19-4.28-10.28-6.4-15.37-.11.46-.11.9-.1,1.34,0,.33-.07.61-.47.62-.4,0-.46-.29-.46-.61,0-.44,0-.89,0-1.33-.04,0-.08,0-.11-.01l-3.34,8.01c.19-.06.31-.16.41-.27.91-.95,1.83-1.9,2.74-2.84.82-.85.97-.82,1.42.26,1.36,3.27,2.72,6.54,4.1,9.81.07.16.25.38.4.39.57.05,1.14.02,1.81.02M15.65,13.78v2.11h10.03c.12,0,.23,0,.35,0,.37,0,.82-.03.82.47,0,.5-.44.48-.81.48-3.18,0-6.36,0-9.53,0h-.59c.04.16.06.28.11.39,2.04,4.89,4.07,9.78,6.11,14.67.09.22.19.37.49.37,4.56-.01,9.12,0,13.68-.01.08,0,.16-.02.3-.03-.35-.85-.69-1.66-1.03-2.47-1.74-4.18-3.49-8.36-5.22-12.54-.12-.3-.27-.4-.57-.38-.48.02-.95,0-1.43,0-.32,0-.6-.16-.54-.48.03-.18.33-.43.53-.44.69-.05,1.38-.02,2.07-.02.35,0,.5.24.62.53,1.12,2.7,2.24,5.39,3.37,8.09,1.36,3.26,2.71,6.51,4.07,9.77.31.75.18.96-.62.96H7.81c-.8,0-.93-.21-.62-.96.16-.39.31-.8.5-1.18.14-.28.1-.49-.15-.68-.12-.09-.21-.21-.31-.31-.28-.27-.27-.53,0-.81.62-.64,1.24-1.28,1.84-1.93.16-.18.31-.38.4-.6,1.7-4.06,3.38-8.11,5.06-12.18.1-.23.15-.5.15-.76.01-2.07,0-4.15,0-6.22,0-.16-.03-.35.03-.49.06-.15.21-.31.35-.35.12-.04.38.05.42.15.14.38.43.33.72.33,1.43,0,2.86,0,4.3,0,.61,0,.74.14.74.76,0,.99,0,1.98,0,2.96,0,.67-.13.81-.8.81-1.42,0-2.83,0-4.25,0h-.56Z"/>
    </g>
  </g>
</svg>