<?xml version="1.0" encoding="UTF-8"?>
<svg id="_圖層_2" data-name="圖層_2" xmlns="http://www.w3.org/2000/svg" viewBox="0 0 159.73 140.61">
  <defs>
    <style>
      .cls-1 {
        fill: #f0891a;
      }

      .cls-2 {
        fill: #3e3a39;
      }

      .cls-3 {
        fill: #e73820;
      }

      .cls-4 {
        fill: none;
        stroke: #e73820;
        stroke-miterlimit: 10;
      }
    </style>
  </defs>
  <g id="_圖層_1-2" data-name="圖層_1">
    <g>
      <path class="cls-1" d="M92.41,60.62c-1.19-2.93-2.94-5.32-5.29-7.28-2.28-1.9-6.54-3.9-8.03-3.77,4.12,3.19,6.29,7.6,7.75,12.49,1.54-1.7,3.35-2.18,5.58-1.44M84.95,61.84c0-.07.02-.15,0-.21-.86-2.74-2.03-5.33-3.79-7.62-1.46-1.9-3.16-3.51-5.47-4.34-.2-.07-.42-.12-.74-.21,1.28,2.19,2.11,4.41,2.76,6.7.64,2.28,1.21,4.58,1.82,6.86,2.04-1.64,2.69-1.78,5.42-1.17M72.06,64.2c1.76-1.57,3.62-1.87,5.7-.92-.03-.22-.03-.38-.07-.53-.51-2-.97-4.01-1.54-5.99-.62-2.18-1.37-4.32-2.56-6.27-.26-.42-.61-.79-.93-1.19-.48.48-.63.73-.83,2.03-.66,4.27-.24,8.52.23,12.87M66.17,51.64c-2.59,1.53-4.7,3.64-6.34,6.25-1.86,2.98-2.81,7.26-2.52,8.52,1.76-1.38,3.63-1.6,5.5-.6.13-1.91.25-3.82.39-5.73.05-.65.39-.95.94-.89.54.05.76.41.72,1.07-.1,1.55-.17,3.1-.25,4.66,0,.13.03.26.05.44.83-.76,1.72-1.22,2.79-1.34,1.04-.11,2.02.1,2.97.62-.5-4.85-1.02-9.63-.1-14.46-.13.08-.22.11-.29.17-.18.12-.36.25-.53.39-1.74,1.4-2.8,3.26-3.57,5.31-.26.68-.65.92-1.18.72-.5-.2-.67-.64-.39-1.27.58-1.29,1.21-2.57,1.82-3.83M55.49,65.88c.19-1.06.32-2.13.57-3.18,1.78-7.66,8.23-13.68,16.01-14.97,10.6-1.76,20.47,4.87,22.85,15.35.08.34.14.68.16,1.03.03.51-.28.87-.75.91-.51.05-.79-.22-.89-.7-.25-1.25-1-2.05-2.24-2.26-1.23-.21-2.32.15-3.12,1.17-.51.65-.54,1.42-.48,2.2.04.48-.17.78-.64.87-.47.1-.86-.16-1-.64-.01-.04,0-.07-.02-.11-.48-1.85-2.11-2.76-3.93-2.2-1.35.42-2.13,1.64-1.94,3.05.02.16.05.34.01.49-.11.42-.41.64-.84.65-.46.01-.7-.24-.8-.67-.27-1.24-1-2.04-2.22-2.4-.1-.03-.21-.02-.41-.05.57,3.47,1.13,6.9,1.7,10.38h.73c10.74,0,21.47,0,32.21,0,.25,0,.52,0,.76.07.38.1.57.38.58.77,0,.42-.21.7-.61.8-.23.05-.47.06-.71.06-10.63,0-21.25,0-31.88,0h-.78c.13.82.24,1.59.36,2.35.21,1.28.42,2.56.64,3.84.03.15.08.34.19.42,2.17,1.59,4.29,3.24,6.85,4.21,2.44.93,4.88.77,7.32.03.56-.17,1.11-.36,1.67-.54.64-.21,1.08-.06,1.27.46.17.48-.08.9-.69,1.11-2.2.77-4.43,1.39-6.8,1.23-2.27-.15-4.33-.93-6.2-2.14-2.18-1.41-4.26-2.97-6.4-4.45-1.81-1.25-3.67-2.44-5.87-2.88-5.19-1.04-9.53.45-12.97,4.49-.62.73-1.07.76-1.67.03v-.66c.07-.08.15-.15.21-.23,3.52-4.32,8.07-6.13,13.58-5.5,2.44.28,4.56,1.37,6.6,2.66.33.21.65.42,1.05.68-.26-1.54-.54-2.97-.72-4.42-.07-.61-.31-.71-.86-.71-6.19.02-12.38,0-18.57.02-.52,0-.97-.08-1.29-.52v-.66c.31-.41.73-.53,1.24-.53,6.14.01,12.28,0,18.41,0h.67c-.56-3.41-1.1-6.72-1.65-10.01-.07,0-.1-.02-.11-.01-.05.02-.1.04-.14.08-1,.73-1.44,1.72-1.37,2.94.02.39-.04.77-.47.89-.42.12-.76-.08-.99-.43-.15-.23-.23-.5-.32-.75-.45-1.19-1.58-1.94-2.83-1.85-1.41.1-2.57.96-2.84,2.19-.09.42-.05.87-.04,1.31.01.48-.23.76-.67.86-.43.1-.83-.17-.97-.62-.05-.16-.07-.32-.12-.48-.45-1.38-2.02-2.31-3.38-2.02-1.56.34-2.58,1.73-2.4,3.25.08.63-.17,1.01-.71,1.09-.62.1-1-.2-1.09-.86-.07-.52-.15-1.04-.23-1.56v-2.97Z"/>
      <path class="cls-1" d="M95.08,96.01c-.17-.23-.47-.46-.47-.68,0-.29.17-.68.39-.86.3-.24.77-.19.95.17.15.28.1.67.08,1.01,0,.13-.19.24-.3.36h-.66Z"/>
      <path class="cls-1" d="M102.68,45.97c-1.63,0-2.9,1.23-2.92,2.85-.02,1.63,1.26,2.94,2.89,2.94,1.61,0,2.88-1.27,2.89-2.89,0-1.62-1.25-2.89-2.86-2.9M102.63,53.44c-2.5-.02-4.58-2.12-4.56-4.61.02-2.5,2.11-4.57,4.61-4.55,2.53.02,4.59,2.1,4.56,4.6-.03,2.51-2.11,4.58-4.61,4.56"/>
      <path class="cls-1" d="M99.26,80.48c-2.23,0-4.47,0-6.71,0-.22,0-.49.02-.63-.1-.23-.19-.53-.5-.51-.74.02-.27.31-.57.55-.77.14-.12.42-.09.64-.09,4.47,0,8.94,0,13.41,0,.18,0,.37,0,.55.05.41.08.64.37.66.77.02.43-.22.73-.65.84-.19.05-.4.04-.6.04-2.23,0-4.47,0-6.71,0"/>
      <path class="cls-1" d="M103.9,84.47c2.84.1,5.33,1.01,7.47,2.83.22.19.39.6.35.89-.03.23-.36.55-.61.59-.27.05-.64-.11-.88-.29-1.4-1.09-2.94-1.83-4.7-2.11-1.58-.25-3.14-.11-4.68.24-.73.17-1.21-.07-1.28-.63-.07-.5.18-.86.75-.96,1.18-.21,2.38-.38,3.56-.56"/>
      <path class="cls-1" d="M90.67,82.16c.99,0,1.98,0,2.97,0,.65,0,1,.31,1,.83,0,.54-.33.82-1,.83-2,0-3.99,0-5.99,0-.63,0-1.02-.33-1.02-.82,0-.5.4-.83,1.02-.84,1.01,0,2.01,0,3.02,0"/>
      <path class="cls-1" d="M103.48,41.52c0,.35.03.7,0,1.04-.05.48-.35.77-.84.76-.49-.01-.79-.33-.81-.8-.04-.67-.04-1.35,0-2.02.03-.46.32-.78.82-.78.5,0,.78.29.83.77.04.34,0,.69,0,1.04h0Z"/>
      <path class="cls-1" d="M101.81,56.17c0-.33-.03-.66,0-.99.05-.48.34-.79.83-.8.48,0,.81.29.83.78.03.69.03,1.39,0,2.08-.03.46-.33.72-.81.73-.45.01-.78-.29-.85-.77,0-.04,0-.07,0-.11,0-.31,0-.62,0-.93h0Z"/>
      <path class="cls-1" d="M109.42,54.83c-.14.18-.27.49-.49.6-.22.11-.64.14-.8,0-.6-.5-1.15-1.06-1.67-1.64-.27-.31-.19-.69.09-.99.28-.3.69-.41.98-.15.62.53,1.17,1.14,1.73,1.73.08.08.08.23.16.46"/>
      <path class="cls-1" d="M99.04,44.45c-.15.18-.29.5-.52.62-.22.11-.63.1-.8-.04-.58-.49-1.12-1.04-1.62-1.61-.26-.3-.21-.69.07-1,.28-.3.67-.43.98-.17.62.53,1.17,1.14,1.74,1.72.08.08.08.24.15.47"/>
      <path class="cls-1" d="M108.64,42.08c.19.15.5.29.59.51.1.24.1.67-.05.85-.47.57-1.02,1.1-1.58,1.59-.33.29-.73.21-1.04-.09-.29-.28-.4-.68-.13-.99.53-.6,1.12-1.15,1.7-1.7.09-.09.27-.1.5-.18"/>
      <path class="cls-1" d="M95.29,49.7c-.31,0-.62.02-.93,0-.51-.04-.83-.37-.83-.84,0-.48.29-.8.84-.82.64-.03,1.28-.03,1.92,0,.51.02.85.39.85.83,0,.44-.36.8-.86.84-.33.02-.66,0-.99,0"/>
      <path class="cls-1" d="M109.97,49.7c-.31,0-.62.02-.93,0-.51-.04-.85-.38-.86-.83,0-.44.33-.81.84-.84.66-.03,1.32-.03,1.98,0,.5.02.8.36.79.81,0,.51-.3.78-.77.84-.34.04-.69,0-1.04,0h0Z"/>
      <path class="cls-1" d="M96.66,55.61c-.18-.14-.5-.27-.59-.49-.1-.25-.11-.67.04-.85.46-.57.99-1.07,1.54-1.56.32-.29.72-.26,1.05.04.32.29.42.71.14,1.03-.51.59-1.1,1.12-1.67,1.67-.09.09-.27.09-.52.17"/>
      <path class="cls-1" d="M59.29,86.5c.46.01.82.4.8.87-.02.44-.39.81-.81.81-.46,0-.81-.37-.81-.85,0-.49.35-.84.82-.83"/>
      <path class="cls-1" d="M105.14,89.76c.46,0,.81.37.81.84,0,.47-.31.8-.77.81-.47.01-.84-.33-.85-.8-.01-.46.36-.85.81-.86"/>
      <path class="cls-1" d="M71.44,91.91c.01.5-.31.85-.78.86-.46,0-.81-.36-.81-.84,0-.46.33-.81.76-.84.46-.02.82.33.82.82"/>
      <path class="cls-1" d="M73.51,84.88c.48,0,.79.29.8.78.02.5-.31.87-.78.88-.47,0-.81-.35-.81-.85,0-.49.31-.8.78-.81"/>
      <path class="cls-4" d="M137.61,140.11H22.12c-11.94,0-21.62-9.68-21.62-21.63V22.13C.5,10.18,10.18.5,22.12.5h115.5c11.94,0,21.62,9.68,21.62,21.63v96.35c0,11.94-9.68,21.63-21.62,21.63Z"/>
      <g>
        <path class="cls-3" d="M44.96,21.97c1.01-.16,2.38-.56,3.37-1.53,1.15-1.13,1.44-2.74,1.44-4.3,0-1.78-.54-3.13-1.67-3.13-.95,0-1.49.95-1.49,2.02,0,1.48.92,2.03,1.75,2.03.23,0,.65-.09.87-.18.02.34-.18,1.01-.43,1.22-.27.25-.81.4-1.48.4-1.71,0-2.88-1.24-2.88-3.11s1.4-3.71,3.85-3.71c2.63,0,3.78,2.21,3.78,4.57,0,1.84-.54,3.62-2.09,5.1-1.42,1.35-3.06,1.71-3.78,1.71-.34,0-.56-.04-.74-.16-.29-.22-.45-.52-.5-.86l.02-.05Z"/>
        <path class="cls-3" d="M55.28,20.91c0,1.17-.86,2.5-1.71,3.1-.49.34-1.1.41-1.71.4.81-.97,1.28-2.2,1.28-3.38,0-.34-.05-.61-.11-.81.43-.2,1.03-.47,1.55-.47s.7.65.7,1.17Z"/>
        <path class="cls-3" d="M56.61,21.45c2.74-2.84,3.94-4.54,3.94-6.28,0-1.03-.52-1.8-1.64-1.8-.77,0-1.57.52-1.85.74-.34.27-.56.23-.74-.14-.11-.2-.14-.45-.16-.63.85-1.1,2.18-1.66,3.51-1.66,2.03,0,3.13,1.39,3.13,3.17,0,.97-.31,1.73-.86,2.63-.54.87-1.55,2.07-2.99,3.46.86.09,3.04.05,4.7,0-.13.65-.63,1.3-.9,1.41-.2.13-.81.23-1.78.23-2.05,0-3.67,0-4.59-.18l-.09-.16.32-.77Z"/>
        <path class="cls-3" d="M64.71,21.14c.52.22,1.49.45,2.25.45,1.84,0,2.52-.9,2.52-2.05,0-1.08-.77-1.71-2.3-1.71-.38,0-.76.05-1.04.09l-.07-.07c.05-.4.34-1.03.54-1.22,1.48-.32,2.27-.88,2.27-1.96,0-.83-.54-1.37-1.42-1.37-.65,0-1.35.34-1.73.63-.27.2-.56.27-.74-.05-.13-.23-.14-.56-.13-.76.54-.74,1.85-1.44,3.13-1.44,2.59,0,3.1,1.75,3.1,2.48,0,1.15-.7,1.89-1.91,2.45,1.82.34,2.67,1.4,2.67,2.75,0,2.36-1.98,3.69-4.59,3.69-1.12,0-1.85-.31-2.09-.5-.31-.27-.54-.83-.5-1.35l.05-.05Z"/>
        <path class="cls-3" d="M78.41,11.76c0,1.21.05,8.86.05,10.32,0,.36-.14.43-.47.47-.61.05-1.51.07-1.82.07,0-.96.02-4.88.02-8.84-.49.16-1.87.54-2.5.63l-.05-.05.45-1.22c1.53-.45,3.42-1.13,4.18-1.46l.14.09Z"/>
        <path class="cls-3" d="M83.67,21.36c0,.83-.52,1.35-1.31,1.35-.58,0-1.22-.4-1.22-1.28,0-.74.45-1.37,1.33-1.37.74,0,1.21.61,1.21,1.3Z"/>
        <path class="cls-3" d="M92.02,11.96c-.05,2.47-3.33,9.02-4.29,10.1-.29.32-.61.49-1.15.59-.5.07-.96.09-1.28.07l-.02-.07c1.64-2.03,3.69-6,4.59-9.04h-4.09c-1.21,0-1.35-.22-1.3-.56.05-.36.52-1.03.88-1.33.23.14.74.16,1.55.16h5.02l.07.07Z"/>
      </g>
      <path class="cls-3" d="M93.18,22.22l2.24-8.99h.92l-2.24,8.99h-.92ZM102.48,14.71c-.75,1.49-1.73,2.73-2.96,3.72-.08-.13-.24-.35-.48-.64-.11-.13-.19-.24-.24-.32,1.25-.93,2.13-2,2.64-3.2l1.04.44h0ZM101.72,21.86c-.88.05-1.55.09-2,.12l-.28-.96c.11,0,.27-.01.48-.04h.44c1.04-1.44,1.94-2.92,2.72-4.44l1.12.52c-.75,1.2-1.59,2.48-2.52,3.84l4.08-.24c-.19-.24-.45-.57-.8-1-.24-.35-.43-.6-.56-.76l.84-.56c.48.59,1.23,1.51,2.24,2.76.27.29.47.52.6.68l-.96.64-.68-.88c-1.01.05-2.58.16-4.72.32h0ZM108.55,17.19c-.24.4-.43.69-.56.88-1.57-1.04-2.68-2.37-3.32-4h-2.48v-.84h3.28c.67,1.65,1.73,2.92,3.2,3.8-.03.03-.07.08-.12.16h0ZM109.49,20.14v-.88h3.68v-1h-3.44v-4.96h7.99v4.96h-3.48v1h3.72v.88h-3.72v1h4.28v.84h-9.59v-.84h4.24v-1h-3.68ZM110.81,14.19v1.16h2.36v-1.16h-2.36ZM110.81,16.23v1.16h2.36v-1.16h-2.36ZM116.64,14.19h-2.4v1.16h2.4v-1.16ZM114.24,16.23v1.16h2.4v-1.16h-2.4Z"/>
      <g>
        <path class="cls-3" d="M62.69,34.32c.57-.09,1.35-.32,1.91-.87.65-.64.82-1.55.82-2.44,0-1.01-.31-1.78-.95-1.78-.54,0-.85.54-.85,1.14,0,.84.52,1.16.99,1.16.13,0,.37-.05.49-.1,0,.19-.1.57-.25.7-.15.14-.46.22-.84.22-.97,0-1.64-.71-1.64-1.77s.8-2.11,2.19-2.11c1.49,0,2.15,1.26,2.15,2.6,0,1.04-.31,2.05-1.19,2.89-.81.77-1.74.97-2.15.97-.19,0-.32-.02-.42-.09-.16-.12-.26-.3-.29-.49v-.03Z"/>
        <path class="cls-3" d="M68.55,33.71c0,.67-.49,1.42-.97,1.76-.28.19-.62.24-.97.22.46-.55.73-1.25.73-1.92,0-.19-.03-.35-.06-.46.25-.11.58-.27.88-.27s.4.37.4.66Z"/>
        <path class="cls-3" d="M69.32,34.02c1.55-1.62,2.24-2.58,2.24-3.57,0-.58-.3-1.02-.93-1.02-.44,0-.89.3-1.05.42-.19.15-.32.13-.42-.08-.06-.11-.08-.25-.09-.36.48-.62,1.24-.94,1.99-.94,1.16,0,1.78.79,1.78,1.8,0,.55-.17.98-.49,1.49-.31.49-.88,1.18-1.7,1.96.49.05,1.73.03,2.67,0-.07.37-.36.74-.51.8-.11.07-.46.13-1.01.13-1.17,0-2.09,0-2.61-.1l-.05-.09.18-.44Z"/>
        <path class="cls-3" d="M73.93,33.85c.3.12.85.26,1.28.26,1.04,0,1.43-.51,1.43-1.17,0-.61-.44-.97-1.31-.97-.21,0-.43.03-.59.05l-.04-.04c.03-.23.19-.58.31-.7.84-.18,1.29-.5,1.29-1.11,0-.47-.31-.78-.81-.78-.37,0-.77.19-.98.36-.15.11-.32.15-.42-.03-.07-.13-.08-.32-.07-.43.31-.42,1.05-.82,1.78-.82,1.47,0,1.76.99,1.76,1.41,0,.65-.4,1.07-1.08,1.39,1.03.19,1.51.8,1.51,1.56,0,1.34-1.12,2.1-2.61,2.1-.63,0-1.05-.17-1.19-.29-.17-.15-.31-.47-.29-.77l.03-.03Z"/>
        <path class="cls-3" d="M81.71,28.52c0,.69.03,5.03.03,5.86,0,.2-.08.25-.27.27-.35.03-.86.04-1.03.04,0-.54,0-2.77,0-5.02-.28.09-1.06.31-1.42.36l-.03-.03.25-.7c.87-.26,1.94-.64,2.37-.83l.08.05Z"/>
        <path class="cls-3" d="M84.71,33.97c0,.47-.3.77-.75.77-.33,0-.7-.22-.7-.73,0-.42.26-.78.76-.78.42,0,.68.35.68.74Z"/>
        <path class="cls-3" d="M89.44,28.63c-.03,1.4-1.89,5.12-2.43,5.74-.16.18-.35.28-.65.34-.29.04-.54.05-.73.04v-.04c.92-1.16,2.09-3.4,2.6-5.13h-2.32c-.69,0-.77-.12-.74-.32.03-.2.3-.58.5-.76.13.08.42.09.88.09h2.85l.04.04Z"/>
        <path class="cls-3" d="M93.31,32.27c.46-.5,1.68-1.94,1.91-2.27.18,0,.49.02.72.07.24.07.28.19.04.47-.42.52-.92,1.06-1.41,1.59.29.45,1.28,1.84,1.78,2.39v.03c-.18.09-.58.14-.91.14s-.52-.09-.77-.44c-.37-.47-.99-1.24-1.36-1.88v1.99c0,.2-.07.25-.31.27-.27.03-.45.05-.96.04.02-.42.03-1.02.03-1.88v-3.82c0-.61-.02-.92-.04-1.13.22-.09.88-.15,1.09-.15.14,0,.18.05.18.67v3.91Z"/>
        <path class="cls-3" d="M97.99,34.36c0,.18-.03.25-.24.28-.36.04-.67.05-1.04.05.02-.54.03-1.17.03-1.86v-1.72c0-.28-.04-.43-.18-.53v-.06c.1-.26.46-.51.75-.51.44,0,.55.37.61.69.42-.35.96-.69,1.49-.69.66,0,1.02.32,1.24.75.4-.37,1-.75,1.56-.75,1.16,0,1.46.99,1.46,1.77v1.39c0,.53.02,1.09.04,1.44-.24.02-.65.08-1.08.08-.13,0-.19-.06-.19-.19v-2.63c0-.57-.27-.93-.77-.93-.36,0-.62.19-.84.39v3.05c0,.18-.02.24-.24.27-.36.05-.67.05-1.03.05.02-.54.03-1.17.03-1.86v-.96c0-.58-.28-.93-.76-.93-.33,0-.62.17-.85.39v3.04Z"/>
      </g>
      <path class="cls-2" d="M56.17,104.38l-.46.46c-.36-.41-.86-.86-1.49-1.34l.46-.45c.59.45,1.1.89,1.49,1.33ZM56.16,105.77c-.36,1.1-.76,2.14-1.2,3.11l-.59-.26c.47-1.01.88-2.03,1.22-3.08l.57.23ZM56.35,102.07l-.46.46c-.34-.38-.8-.78-1.39-1.2l.46-.45c.55.4,1.01.79,1.39,1.19ZM56.88,109.03l-.48-.43c.57-.55.86-1.25.87-2.1v-1.77h4.25v3.53c0,.48-.27.72-.79.72h-1.04l-.14-.56c.36,0,.7.02,1.01.02.23,0,.34-.14.34-.41v-.46h-3.17c-.16.57-.45,1.05-.85,1.46ZM59.02,101.34v-.57h.64v.57h2.39v.54h-2.39v.59h2.05v.52h-2.05v.61h2.64v.54h-5.89v-.54h2.61v-.61h-1.96v-.52h1.96v-.59h-2.33v-.54h2.33ZM57.88,106.47c0,.22-.03.41-.04.6h3.06v-.65h-3.02v.05ZM60.9,105.25h-3.02v.67h3.02v-.67ZM64.27,104.11v-2.13h-1.11v-.61h2.87v.61h-1.1v2.13h.99v.62h-.99v2.04c.34-.12.67-.24.99-.39v.63c-.83.34-1.72.63-2.67.86l-.16-.62c.4-.07.79-.16,1.18-.27v-2.26h-.98v-.62h.98ZM70.87,101.13v4.16h-1.87v1.06h2.03v.61h-2.03v1.17h2.36v.62h-5.42v-.62h2.41v-1.17h-2.03v-.61h2.03v-1.06h-1.88v-4.16h4.4ZM68.35,102.93v-1.22h-1.26v1.22h1.26ZM68.35,103.5h-1.26v1.22h1.26v-1.22ZM69,102.93h1.25v-1.22h-1.25v1.22ZM70.25,103.5h-1.25v1.22h1.25v-1.22ZM74,104.25l-.46.46c-.33-.36-.79-.74-1.39-1.15l.47-.45c.54.38,1,.77,1.38,1.14ZM74.11,105.97c-.38,1.04-.81,2.03-1.28,2.94l-.6-.26c.5-.95.95-1.91,1.32-2.9l.56.22ZM74.14,102.03l-.46.47c-.33-.36-.79-.74-1.39-1.13l.47-.44c.54.36,1,.73,1.38,1.11ZM75.1,102.82h4.57c-.03.79-.05,1.49-.07,2.11h.77v.6h-.79c-.04.66-.06,1.19-.09,1.6h.74v.56h-.78c-.03.25-.05.41-.07.48-.09.29-.26.5-.51.65-.25.13-.61.19-1.1.19-.22,0-.49,0-.78,0l-.19-.59c.32.02.62.04.89.04.24,0,.46-.03.66-.07.2-.06.34-.2.43-.41.02-.05.04-.14.05-.29h-4.29c.14-.72.27-1.44.36-2.16h-.9v-.6h.96c.07-.69.12-1.4.14-2.1-.19.24-.39.47-.59.68l-.41-.5c.61-.59,1.11-1.35,1.49-2.3l.65.14c-.09.23-.19.44-.29.64h4.16v.6h-4.49c-.16.26-.32.5-.5.74ZM75.25,107.14h3.62c.03-.41.05-.94.09-1.6h-3.46c-.07.58-.15,1.12-.25,1.6ZM79.04,103.4h-3.37c-.03.54-.06,1.05-.11,1.53h3.42c.02-.47.04-.98.05-1.53ZM77.92,106.61l-.42.41c-.27-.31-.64-.64-1.11-.99l.41-.4c.45.32.82.65,1.13.97ZM78.01,104.43l-.41.41c-.27-.29-.65-.59-1.13-.9l.41-.4c.45.29.83.59,1.13.88ZM89.04,104.16h-6.59v1.34c-.03,1.46-.32,2.62-.86,3.5l-.48-.42c.45-.74.69-1.76.72-3.08v-1.94h7.21v.6ZM85.56,100.73v1.54h2.33v-1.21h.64v1.8h-6.6v-1.8h.64v1.21h2.35v-1.54h.64ZM88.64,104.93v.59h-2.38v1.09h2.83v.61h-2.83v1.84h-.65v-1.84h-2.78v-.61h2.78v-1.09h-2.37v-.59h5.39ZM93.13,106.12l-.5.14-.11-.5c-.76.22-1.48.37-2.17.46l-.16-.54c.11-.05.2-.1.27-.16.31-.32.68-.87,1.13-1.63-.43.07-.87.14-1.31.21l-.15-.53c.09-.04.18-.11.25-.22.43-.75.81-1.6,1.13-2.57l.59.23c-.41,1.04-.83,1.87-1.24,2.5.34-.05.69-.11,1.04-.18.18-.35.38-.73.58-1.13l.57.21c-.81,1.51-1.47,2.57-1.99,3.19.46-.07.91-.17,1.35-.3-.08-.29-.16-.56-.25-.83l.49-.15c.18.52.35,1.13.5,1.8ZM91.01,106.76c-.04.8-.13,1.51-.26,2.12l-.55-.17c.15-.59.25-1.27.29-2.03l.52.07ZM92.16,108.49l-.55.13c-.05-.71-.13-1.34-.22-1.89l.5-.11c.11.58.2,1.2.27,1.87ZM93.21,107.78l-.5.23c-.13-.56-.26-1.05-.41-1.48l.47-.15c.16.43.31.89.43,1.4ZM94.15,106.5c-.16.86-.4,1.61-.68,2.25l-.5-.32c.29-.61.5-1.3.64-2.05l.54.12ZM94.94,101.52c.13-.24.23-.5.29-.77l.64.09c-.07.23-.16.46-.29.68h2.32v4h-4.38v-4h1.42ZM97.33,102.03h-3.23v2.96h3.23v-2.96ZM95.37,102.83c.21-.21.4-.42.58-.64l.33.3c-.17.22-.35.42-.55.62.15.12.3.23.42.35.22-.23.42-.48.62-.73l.32.29c-.2.26-.41.5-.62.74.2.2.39.39.57.59l-.32.38c-.18-.22-.38-.42-.58-.62-.33.31-.68.59-1.05.85l-.29-.36c.36-.25.7-.51,1.01-.79-.14-.13-.28-.25-.42-.36-.27.23-.57.46-.87.67l-.29-.36c.29-.19.55-.39.8-.59-.2-.14-.4-.29-.6-.42l.3-.34c.23.14.44.3.65.45ZM95.19,108.87c-.45,0-.67-.23-.67-.7v-1.87h.59v1.76c0,.16.09.25.27.25h.8c.14,0,.24-.05.32-.12.07-.09.13-.37.15-.84l.55.18c-.05.63-.15,1.03-.3,1.17-.13.11-.33.17-.61.17h-1.1ZM96.67,107.03l-.45.32c-.23-.44-.52-.93-.9-1.46l.44-.28c.4.54.7,1.02.91,1.42ZM98.39,108.09l-.51.23c-.26-.76-.55-1.41-.87-1.99l.53-.17c.32.59.61,1.24.86,1.93ZM101.41,103.73h4.4v.55h-4.4v.76h5.68v.59h-5.86v2.67c.77-.14,1.54-.36,2.31-.64l.12.58c-.87.31-1.88.56-3.02.76l-.26-.54c.15-.06.23-.14.23-.25v-2.57h-1.26v-.59h1.43v-3.94h5.47v.59h-4.84v.77h4.39v.56h-4.39v.72ZM104.55,107.05c.55-.25,1.07-.64,1.58-1.16l.42.42c-.45.48-.96.85-1.54,1.12.63.47,1.41.83,2.33,1.08l-.37.53c-1.82-.5-3.11-1.47-3.86-2.88l.51-.3c.24.44.55.84.93,1.19ZM110.05,101.26v-.5h.59v.5h1.44v1.01h.41v.54h-.41v1.01h-1.44v.47h1.57v1.47h-1.69c-.1.18-.19.34-.27.5h2v.41c-.27.44-.65.84-1.13,1.18.45.18.9.4,1.37.65l-.35.46c-.52-.29-1.04-.55-1.56-.77-.59.32-1.29.61-2.09.85l-.36-.47c.69-.18,1.3-.4,1.8-.64-.38-.14-.76-.27-1.13-.38.18-.27.35-.53.51-.79h-1.15v-.5h1.46c.09-.17.19-.33.28-.5h-1.4v-1.47h1.56v-.47h-1.43v-1.01h-.4v-.54h.4v-1.01h1.43ZM110.05,104.72h-1v.58h1v-.58ZM110.05,102.32v-.59h-.87v.59h.87ZM110.05,102.75h-.87v.6h.87v-.6ZM111.54,106.75h-1.58c-.13.2-.23.39-.34.55.3.08.6.18.91.31.42-.26.77-.55,1.02-.86ZM111.53,102.32v-.59h-.88v.59h.88ZM111.53,102.75h-.88v.6h.88v-.6ZM111.66,104.72h-1.01v.58h1.01v-.58ZM113.18,104.29c-.14.3-.29.57-.43.81l-.41-.5c.52-.96.88-2.26,1.07-3.9l.64.12c-.06.47-.14.92-.22,1.33h2.38v.62h-.61c-.05,1.62-.35,2.99-.92,4.09.43.65.99,1.21,1.68,1.67l-.39.51c-.67-.45-1.22-.98-1.64-1.59-.41.62-.91,1.15-1.5,1.58l-.35-.57c.61-.42,1.11-.95,1.49-1.59-.41-.76-.68-1.62-.8-2.58ZM113.19,104.25l.52-.16c.09.79.29,1.5.59,2.13.42-.95.66-2.11.69-3.45h-1.31c-.14.54-.31,1.04-.5,1.48Z"/>
      <g>
        <path class="cls-3" d="M63.15,114.88h-1.73c-.14,0-.21-.06-.15-.21.09-.22.2-.36.27-.44.13.04.34.04,1.34.04h3.1c-.02.28-.21.54-.34.6h-1.64v3.95c0,.63.02.93.03,1.11-.21.05-.48.07-.72.07-.09,0-.15-.03-.15-.16v-4.97Z"/>
        <path class="cls-3" d="M69.65,117.93c0,1.22-.78,2.13-2.01,2.13-1.33,0-2-.97-2-2.05,0-1.2.84-2.13,2.03-2.13,1.26,0,1.97.87,1.97,2.05ZM66.49,117.91c0,1.08.55,1.62,1.23,1.62.54,0,1.09-.45,1.09-1.53,0-.77-.35-1.58-1.18-1.58-.6,0-1.13.54-1.13,1.5Z"/>
        <path class="cls-3" d="M72.86,119.28c.05.18,0,.41-.16.54-.19.15-.53.24-.86.24-.82,0-1.13-.51-1.13-1.2v-2.32c-.32,0-.45-.1-.45-.2.1-.19.68-.71.81-.83.12-.11.27-.2.49-.24-.03.29-.05.51-.05.71h1.44c-.09.47-.29.51-.45.53-.3.02-.35.03-1,.03-.04.91-.03,1.86,0,2.25.04.53.34.66.65.66.26,0,.53-.09.68-.19l.03.02Z"/>
        <path class="cls-3" d="M76.96,119.48c.02.39-.21.58-.61.58s-.6-.27-.65-.56c-.24.26-.66.56-1.15.56-.63,0-1.07-.48-1.07-1.04,0-.97,1.24-1.23,1.73-1.36.16-.04.36-.07.49-.09v-.24c0-.41-.24-.82-.78-.82-.31,0-.64.15-.88.31-.27.13-.41-.06-.45-.34.28-.26.89-.61,1.51-.61.93,0,1.37.66,1.37,1.53,0,.39-.03,1.23-.02,1.79,0,.17.12.28.3.28.05,0,.14,0,.19-.02l.02.03ZM74.85,119.44c.37,0,.64-.24.78-.44.04-.06.06-.15.06-.31v-.64c-.74.11-1.43.36-1.43.86,0,.33.26.53.58.53Z"/>
        <path class="cls-3" d="M77.81,114.92c0-.54-.02-.82-.04-1,.18-.08.55-.13.7-.13.1,0,.13.04.13.59v4.37c0,.44.02.93.04,1.19-.16.04-.6.07-.71.07-.08,0-.12-.03-.12-.12v-4.97Z"/>
        <path class="cls-3" d="M82.08,115.49c0-.61-.02-.98-.04-1.16.16-.03.49-.07.72-.07.12,0,.14.05.14.5v4.58c.18.05.61.07.99.07.41,0,.99,0,1.35-.04l.02.02c-.05.29-.2.5-.43.59-.12.02-.42.04-1.06.04-.74,0-1.33-.05-1.57-.09l-.13-.18v-4.25Z"/>
        <path class="cls-3" d="M88.91,119.21c0,.29-.21.57-.37.65-.15.08-.53.2-.89.2-1.28,0-1.97-.75-1.97-2.03,0-1.13.69-2.15,1.9-2.15,1.05,0,1.51.78,1.53,1.51,0,.1,0,.22-.03.29-.03.15-.47.27-.79.33-.25.04-1.15.05-1.8.03,0,.89.57,1.4,1.36,1.4.43,0,.87-.15,1.04-.25l.02.03ZM86.51,117.52c.63.02,1.44,0,1.62,0,.11,0,.18-.08.18-.19,0-.54-.27-.94-.83-.94-.45,0-.9.41-.96,1.13Z"/>
        <path class="cls-3" d="M92.66,117.57c0-.68-.31-1.04-.84-1.04-.46,0-.82.29-1.04.53v2.7c0,.18-.04.21-.19.23-.21.03-.42.04-.64.04.02-.34.03-.87.03-1.67v-1.53c0-.34-.04-.49-.15-.58v-.04c.07-.14.35-.32.53-.32.28,0,.36.46.38.68.38-.37.88-.68,1.38-.68,1.06,0,1.33.82,1.33,1.67v1.24c0,.53.02.92.04,1.14-.2.03-.45.07-.7.07-.11,0-.14-.05-.14-.14v-2.31Z"/>
        <path class="cls-3" d="M96.81,115.97c.27.06.54.13.75.13.24,0,.47-.03.61-.07.02.04.03.12.03.18,0,.26-.17.4-.5.43-.06,0-.19,0-.25,0,.11.23.15.44.15.63,0,.94-.72,1.4-1.52,1.4-.16,0-.27,0-.38-.04-.11.09-.26.23-.26.28,0,.15.14.25.54.28.43.03.78.04,1.12.07.73.07,1.05.49,1.05,1.04,0,.98-.98,1.62-2.09,1.62s-1.72-.57-1.72-1.2c0-.38.45-.74.86-.95-.3-.12-.54-.37-.56-.72,0-.04.02-.06.08-.1.18-.13.42-.29.55-.44-.44-.2-.74-.63-.74-1.18,0-.83.67-1.45,1.57-1.45.24,0,.49.04.71.09ZM96.25,121.36c.68,0,1.18-.32,1.18-.82,0-.28-.13-.53-.64-.6-.28-.04-.6-.05-.83-.05-.19,0-.35.03-.44.09-.24.13-.45.34-.45.61,0,.51.6.76,1.19.76ZM95.29,117.29c0,.55.34.9.81.9.52,0,.77-.43.77-.91s-.23-.93-.78-.93c-.44,0-.8.36-.8.94Z"/>
        <path class="cls-3" d="M101.26,119.28c.05.18,0,.41-.16.54-.19.15-.53.24-.86.24-.82,0-1.13-.51-1.13-1.2v-2.32c-.32,0-.45-.1-.45-.2.1-.19.68-.71.81-.83.12-.11.27-.2.49-.24-.03.29-.05.51-.05.71h1.44c-.09.47-.29.51-.45.53-.3.02-.35.03-1,.03-.04.91-.03,1.86,0,2.25.04.53.34.66.65.66.26,0,.53-.09.68-.19l.03.02Z"/>
        <path class="cls-3" d="M102.9,116.48c.35-.29.8-.6,1.35-.6,1.01,0,1.33.81,1.33,1.68v1.23c0,.55,0,.94.03,1.14-.18.04-.44.07-.7.07-.09,0-.13-.05-.13-.15,0-.18,0-1.43,0-2.22s-.38-1.11-.88-1.11c-.43,0-.83.28-1.01.46v2.76c0,.16-.04.21-.17.23-.23.04-.45.04-.65.04.02-.34.03-.87.03-1.67v-3.41c0-.54-.02-.82-.04-1,.21-.07.54-.13.7-.13.09,0,.13.04.13.59v2.09Z"/>
      </g>
      <g>
        <path class="cls-3" d="M51.12,126.93c0,1.22-.78,2.13-2.01,2.13-1.33,0-2-.97-2-2.05,0-1.2.84-2.13,2.03-2.13,1.26,0,1.97.87,1.97,2.05ZM47.96,126.91c0,1.08.55,1.62,1.23,1.62.54,0,1.09-.45,1.09-1.53,0-.77-.35-1.58-1.18-1.58-.6,0-1.13.54-1.13,1.5Z"/>
        <path class="cls-3" d="M54.37,122.94c.02.18-.13.46-.33.45-.09-.04-.21-.05-.29-.05-.44,0-.82.39-.8,1.64.15,0,1.01,0,1.23-.02-.02.19-.14.37-.25.45-.12.09-.47.11-.99.11,0,.92.04,2.9.04,3.4-.18.05-.58.07-.71.07-.09,0-.13-.02-.13-.16.02-.97,0-2.04,0-3.31-.37,0-.5-.08-.5-.24.12-.13.25-.22.5-.31,0-1,.28-1.53.65-1.87.34-.31.67-.37.98-.37.26,0,.5.1.58.2Z"/>
        <path class="cls-3" d="M61.13,128.22c-.03.25-.14.45-.29.57-.2.14-.69.3-1.32.3-2.05,0-3.12-1.18-3.12-2.93,0-1.84,1.4-3.01,3.18-3.01.83,0,1.5.28,1.65.45-.03.33-.25.5-.45.44-.26-.14-.72-.27-1.23-.27-1.22,0-2.25.78-2.25,2.34,0,1.36.87,2.36,2.44,2.36.55,0,1.09-.17,1.35-.27l.04.03Z"/>
        <path class="cls-3" d="M62.05,123.92c0-.54-.02-.82-.04-1,.18-.08.55-.13.7-.13.1,0,.13.04.13.59v4.37c0,.44.02.93.04,1.19-.16.04-.6.07-.71.07-.08,0-.12-.03-.12-.12v-4.97Z"/>
        <path class="cls-3" d="M67.07,128.21c0,.29-.21.57-.37.65-.15.08-.53.2-.89.2-1.28,0-1.97-.75-1.97-2.03,0-1.13.69-2.15,1.9-2.15,1.05,0,1.51.78,1.53,1.51,0,.1,0,.22-.03.29-.03.15-.47.27-.79.33-.25.04-1.15.05-1.8.03,0,.89.57,1.4,1.36,1.4.43,0,.87-.15,1.04-.25l.02.03ZM64.67,126.52c.63.02,1.44,0,1.62,0,.11,0,.18-.08.18-.19,0-.54-.27-.94-.83-.94-.45,0-.9.41-.96,1.13Z"/>
        <path class="cls-3" d="M71.29,128.48c.02.39-.21.58-.61.58s-.6-.27-.65-.56c-.24.26-.66.56-1.15.56-.63,0-1.07-.48-1.07-1.04,0-.97,1.24-1.23,1.73-1.36.16-.04.36-.07.49-.09v-.24c0-.41-.24-.82-.78-.82-.31,0-.64.15-.88.31-.27.13-.41-.06-.45-.34.28-.26.89-.61,1.51-.61.93,0,1.37.66,1.37,1.53,0,.39-.03,1.23-.02,1.79,0,.17.12.28.3.28.05,0,.14,0,.19-.02l.02.03ZM69.17,128.43c.37,0,.64-.24.78-.44.04-.06.06-.15.06-.31v-.64c-.74.11-1.43.36-1.43.86,0,.33.26.53.58.53Z"/>
        <path class="cls-3" d="M74.84,126.56c0-.68-.31-1.04-.84-1.04-.46,0-.82.29-1.04.53v2.7c0,.18-.04.21-.19.23-.21.03-.42.04-.64.04.02-.34.03-.87.03-1.67v-1.53c0-.34-.04-.49-.15-.58v-.04c.07-.14.35-.32.53-.32.28,0,.36.46.38.68.38-.37.88-.68,1.38-.68,1.06,0,1.33.82,1.33,1.67v1.24c0,.53.02.92.04,1.14-.2.03-.45.07-.7.07-.11,0-.14-.05-.14-.14v-2.31Z"/>
        <path class="cls-3" d="M79.83,128.21c0,.29-.21.57-.37.65-.15.08-.53.2-.89.2-1.28,0-1.97-.75-1.97-2.03,0-1.13.69-2.15,1.9-2.15,1.05,0,1.51.78,1.53,1.51,0,.1,0,.22-.03.29-.03.15-.47.27-.79.33-.25.04-1.15.05-1.8.03,0,.89.57,1.4,1.36,1.4.43,0,.87-.15,1.04-.25l.02.03ZM77.43,126.52c.63.02,1.44,0,1.62,0,.11,0,.18-.08.18-.19,0-.54-.27-.94-.83-.94-.45,0-.9.41-.96,1.13Z"/>
        <path class="cls-3" d="M83.64,123.8c0-.48-.02-.7-.04-.88.16-.06.55-.13.69-.13.1,0,.14.04.14.59v4.62c0,.42.14.51.42.55v.03c-.04.22-.24.47-.44.47-.43,0-.61-.24-.67-.51-.37.29-.94.51-1.29.51-.97,0-1.77-.71-1.77-1.98s.98-2.21,2.27-2.21c.33,0,.59.08.7.13v-1.2ZM83.64,125.56c-.13-.06-.39-.14-.72-.14-.7,0-1.41.5-1.41,1.56,0,.88.54,1.42,1.27,1.42.28,0,.63-.12.85-.28v-2.57Z"/>
        <path class="cls-3" d="M92.33,128.22c-.03.25-.14.45-.29.57-.2.14-.69.3-1.32.3-2.05,0-3.12-1.18-3.12-2.93,0-1.84,1.4-3.01,3.18-3.01.83,0,1.5.28,1.65.45-.03.33-.25.5-.45.44-.26-.14-.72-.27-1.23-.27-1.22,0-2.25.78-2.25,2.34,0,1.36.87,2.36,2.44,2.36.55,0,1.09-.17,1.35-.27l.04.03Z"/>
        <path class="cls-3" d="M96.9,126.93c0,1.22-.78,2.13-2.01,2.13-1.33,0-2-.97-2-2.05,0-1.2.84-2.13,2.03-2.13,1.26,0,1.97.87,1.97,2.05ZM93.74,126.91c0,1.08.55,1.62,1.23,1.62.54,0,1.09-.45,1.09-1.53,0-.77-.35-1.58-1.18-1.58-.6,0-1.13.54-1.13,1.5Z"/>
        <path class="cls-3" d="M101.03,128.48c.02.39-.21.58-.61.58s-.6-.27-.65-.56c-.24.26-.66.56-1.15.56-.63,0-1.07-.48-1.07-1.04,0-.97,1.24-1.23,1.73-1.36.16-.04.36-.07.49-.09v-.24c0-.41-.24-.82-.78-.82-.31,0-.64.15-.88.31-.27.13-.41-.06-.45-.34.28-.26.89-.61,1.51-.61.93,0,1.37.66,1.37,1.53,0,.39-.03,1.23-.02,1.79,0,.17.12.28.3.28.05,0,.14,0,.19-.02l.02.03ZM98.91,128.43c.37,0,.64-.24.78-.44.04-.06.06-.15.06-.31v-.64c-.74.11-1.43.36-1.43.86,0,.33.26.53.58.53Z"/>
        <path class="cls-3" d="M104.03,125.19c0,.19-.11.46-.34.43-.17-.09-.44-.17-.64-.17-.35,0-.6.2-.6.49,0,.25.16.4.36.51.23.13.57.28.83.43.41.24.6.55.6.94,0,.86-.76,1.24-1.5,1.24-.41,0-.77-.11-.98-.26-.09-.06-.16-.15-.16-.26,0-.16.07-.32.17-.4.28.2.68.35,1.03.35.44,0,.68-.21.68-.53,0-.21-.14-.37-.44-.54-.25-.13-.5-.25-.72-.36-.39-.21-.63-.53-.63-.99,0-.75.64-1.19,1.38-1.19.37,0,.73.11.95.32Z"/>
        <path class="cls-3" d="M107.34,128.28c.05.18,0,.41-.16.54-.19.15-.53.24-.86.24-.82,0-1.13-.51-1.13-1.2v-2.32c-.32,0-.45-.1-.45-.2.1-.19.68-.71.81-.83.12-.11.27-.2.49-.24-.03.29-.05.51-.05.71h1.44c-.09.47-.29.51-.45.53-.3.02-.35.03-1,.03-.04.91-.03,1.86,0,2.25.04.53.34.66.65.66.26,0,.53-.09.68-.19l.03.02Z"/>
        <path class="cls-3" d="M108.18,123.92c0-.54-.02-.82-.04-1,.18-.08.55-.13.7-.13.1,0,.13.04.13.59v4.37c0,.44.02.93.04,1.19-.16.04-.6.07-.71.07-.08,0-.12-.03-.12-.12v-4.97Z"/>
        <path class="cls-3" d="M111.1,123.43c0,.25-.17.47-.45.47-.25,0-.44-.16-.44-.45,0-.33.26-.47.45-.47.27,0,.44.19.44.45ZM111.07,128.73c0,.16-.05.21-.2.23-.13.03-.35.04-.63.05,0-.36.03-.89.03-1.43v-1.53c0-.56-.02-.83-.04-1.03.16-.05.56-.09.7-.09.1,0,.14.05.14.55v3.25Z"/>
        <path class="cls-3" d="M115.06,126.56c0-.68-.31-1.04-.84-1.04-.46,0-.82.29-1.04.53v2.7c0,.18-.04.21-.19.23-.21.03-.42.04-.64.04.02-.34.03-.87.03-1.67v-1.53c0-.34-.04-.49-.15-.58v-.04c.07-.14.35-.32.53-.32.28,0,.36.46.38.68.38-.37.88-.68,1.38-.68,1.06,0,1.33.82,1.33,1.67v1.24c0,.53.02.92.04,1.14-.2.03-.45.07-.7.07-.11,0-.14-.05-.14-.14v-2.31Z"/>
        <path class="cls-3" d="M120.05,128.21c0,.29-.21.57-.37.65-.15.08-.53.2-.89.2-1.28,0-1.97-.75-1.97-2.03,0-1.13.69-2.15,1.9-2.15,1.05,0,1.51.78,1.53,1.51,0,.1,0,.22-.03.29-.03.15-.47.27-.79.33-.25.04-1.15.05-1.8.03,0,.89.57,1.4,1.36,1.4.43,0,.87-.15,1.04-.25l.02.03ZM117.66,126.52c.63.02,1.44,0,1.62,0,.11,0,.18-.08.18-.19,0-.54-.27-.94-.83-.94-.45,0-.9.41-.96,1.13Z"/>
      </g>
    </g>
  </g>
</svg>