<?xml version="1.0" encoding="UTF-8"?>
<svg id="_圖層_2" data-name="圖層_2" xmlns="http://www.w3.org/2000/svg" viewBox="0 0 146.69 72.04">
  <defs>
    <style>
      .cls-1 {
        fill: #e2767c;
      }

      .cls-2 {
        fill: #529ed0;
      }

      .cls-3 {
        fill: #e4b739;
      }

      .cls-4 {
        fill: #fff;
      }

      .cls-5 {
        fill: #0d509b;
      }

      .cls-6 {
        fill: #e78b3b;
      }

      .cls-7 {
        fill: #fbd8ae;
      }

      .cls-8 {
        fill: #61b8ad;
      }

      .cls-9 {
        fill: #f6d661;
      }
    </style>
  </defs>
  <g id="_圖層_1-2" data-name="圖層_1">
    <g>
      <g>
        <g>
          <g>
            <path class="cls-7" d="M5.25,60.82c.18-.22.28-.45.26-.76-.05-.69-.37-1.79.12-3.14.49-1.34.4-1.15.89-2.34.48-1.18.49-1.92.31-3.1-.18-1.18-.02-2.32.65-3.47.67-1.15,1.42-1.26,2.84-1.3,1.42-.03,1.32,1.27,1.46,2.92.11,1.06.18,1.98-.46,3.07-.64,1.09-1.03,2.36-1.13,3.03-.16,1.06-1.04,3.01-1.39,3.56-.38.6-.98,1.74-.59,2.48.07.14.14.23.21.31-1.19.42-2.46-.18-3.18-1.26Z"/>
            <path class="cls-3" d="M5.25,60.82c.72,1.08,1.99,1.68,3.18,1.26.3.32.56.23.86,1.26.49,1.66-.95,1.89-2.32,1.17-.96-.5-3.1-2.24-2.31-3.07.23-.24.43-.43.58-.62Z"/>
          </g>
          <path class="cls-7" d="M19.97,23.23c.29-.57.39-.79.32-1.07-.07-.28-.31-.97-.2-1.36.2-.69.74-.55,1-.75.26-.2.54-.31.83-.51.3-.2.78-.31,1-.09.23.22.68.11.7.34s0,.51.36.57c.36.06.24.26.16.62-.08.36-.18.37-.05.66.13.29.06.36-.12.59-.18.23-.91.52-1.51.82-.6.3-.95.52-1.12,1.09-.01.04-.03.09-.06.16-.54-.2-1.09-.36-1.66-.56.16-.24.27-.42.31-.51Z"/>
          <path class="cls-1" d="M6.53,33.99c.39-1.9-1.8-1.11-2.06-3.91-.26-2.79,2.2-5.06,3.86-6.45,1.32-1.11,1.53-1.8,3.44-1.53.86.12,4.31,2.83,5.13,2.71.95-.1,2.38-3.9,3.38-2.54.63.85,1.87,1.71,1.9,1.97.09.71-1.69,2.33-2.4,3.46-1.61,2.57-3.28.25-3.12,1.08.15.74.79,4.29.71,7.55-.04,1.34-.92,5.01-2.22,4.83-3.55-.48-8.53-.74-9.17-1.55-1.38-1.45.19-3.88.54-5.61Z"/>
          <g>
            <path class="cls-3" d="M17.64,61.17c.62.46.74-.1,1.55.88,1.07,1.3-.17,2.3-1.7,2.37-1.07.05-3.68-.42-3.26-1.64.18-.51.34-.9.36-1.25,1.1.45,2.07.2,3.05-.36Z"/>
            <path class="cls-7" d="M11.87,48.58c.19-1.45,4.04-.75,4.77,1.99.36,1.34.56,2.8.72,3.5.24,1.08-.11,3-.21,4.35-.05.73-.15,2.27.48,2.75,0,0,.01,0,.02.01-.97.56-1.94.81-3.05.36,0-.17-.01-.34-.1-.51-.3-.62-1-1.49-1.04-3.03s-.05-1.31-.05-2.69-.25-2.08-.86-3.1c-.61-1.02-.88-2.18-.68-3.63Z"/>
          </g>
          <g>
            <path class="cls-7" d="M8.12,21.78c1.05,1.11,2.4,1.49,3.42,1.28s1.91-.71,2.67-1.43c.58-.71.93-1.68.97-2.07.03-.36-.02-.77-.15-1.15-.3-.88.37-1-.69-2.68-.32-.51-2.11-2.79-4.89-2.37-2.44.37-3.53,6.12-1.33,8.43Z"/>
            <path class="cls-5" d="M14.89,14.74c-.15-.38-.94-1.19-1.86-1.36-1.13-.21-1.28-.96-2.46-.94-1.64.02-3.11.71-3.59,1.14-1.03.94-1.05,1.7-1.36,2.39-.57,1.26-3.46,4.15,1.35,6.42.45.21,1-.07,1.22-1,.17-1.13-.48-1.1-.86-1.55-.39-.46-.13-1.48.56-1.17.57.25.72-.07,1.12-1.25.49-1.44,6.53,1.04,5.87-2.68Z"/>
            <g>
              <path class="cls-2" d="M9.96,16.71c.36-.02.66.12.5.4-.16.28-.45.77-.57.89s-.28.28-.47-.18c-.19-.46-.23-.49-.39-.7-.16-.2-.17-.16-.61-.07-.43.09-.78.19-.89.02s-.04-.42.18-.81c.23-.39.35-.83.54-.58.19.25.38.56.45.72.07.16.23.33.49.33.27,0,.52.02.77-.02Z"/>
              <path class="cls-2" d="M9.27,16.48c.07.1.15.25,0,.49-.16.25-.29.37-.4.35-.2-.03-.21-.08-.25-.28s.04-.33.24-.51c.19-.18.29-.14.41-.06Z"/>
            </g>
          </g>
          <path class="cls-9" d="M16.77,38.05c-.83-.55-4-.48-5.83-.69-1.78-.2-2.68.09-4.63-.38-1.52-.37-1.11,1.38-2.87,4.9-1.16,2.33-4.19,5.6-3.28,6.4.91.8,3.16,1.86,4.44,1.51,1.28-.35,1.69-.45,3.17.28,1.3.64,3.51,0,5.24-.16,1.45-.12,2.36-.01,3.49.26,2.17.53,3.81-.18,4.18-.48.53-.42.52-2.51-1.32-5.18-1.85-2.67-1.57-5.37-2.59-6.47Z"/>
          <path class="cls-7" d="M9.32,28.74c.4-.5.54-.7.53-.99-.01-.28-.12-1.01.07-1.38.33-.64.83-.4,1.12-.54.29-.15.59-.2.92-.34.33-.14.82-.15,1,.11.18.26.64.24.62.47-.02.23-.09.5.25.63.34.13.19.3.04.64-.15.34-.25.33-.17.63.07.31,0,.37-.23.55-.22.19-.99.34-1.64.51-.65.18-1.03.33-1.3.85-.02.03-.05.08-.09.14-.49-.3-1-.57-1.52-.87.2-.2.34-.36.41-.44Z"/>
        </g>
        <g>
          <path class="cls-4" d="M22.72,26.29c-.33-1.06-1.19-4.14-1.42-5.1-.38-1.59-1.65-2.52-1.43-3.85.23-1.33.09-1.67.61-2.33.36-.45-.34-1.32.23-1.5.47-.15,1.06-.38,1.12-.05.18,1.09-.27.88.86,1.65,1.22.84,2.29,3.6,2.77,5.18.35,1.16.96,3.32,1.07,5.02.03.51-.07,1.7-1.29,2.24-1.22.55-1.95.32-2.51-1.26Z"/>
          <g>
            <path class="cls-8" d="M21.25,18.58c.89.09,1.81-.27,2.38-.97.05-.06.03-.14-.05-.17-.08-.03-.19,0-.24.06-.48.58-1.23.9-1.98.82-.08,0-.19.02-.22.1-.03.08.03.14.1.15h0Z"/>
            <path class="cls-8" d="M22.02,20.48c.96.15,1.96-.2,2.62-.91.05-.06.03-.13-.04-.16-.08-.03-.18,0-.24.06-.56.6-1.41.89-2.22.76-.17-.03-.34.21-.12.24h0Z"/>
            <path class="cls-8" d="M22.63,22.29c.87-.05,1.72-.35,2.43-.86.06-.04.04-.08-.03-.1-.08-.01-.18.02-.24.06-.59.43-1.3.69-2.03.73-.07,0-.18.02-.22.09-.04.06.03.08.09.08h0Z"/>
            <path class="cls-8" d="M23.48,24.11c.06-.04.21.02.28.03.1.01.21.01.31.01.22,0,.44-.05.65-.11.41-.14.79-.38,1.07-.71.05-.06.03-.14-.04-.17-.08-.03-.19,0-.24.06-.25.3-.6.52-.98.61-.18.05-.38.07-.57.06-.21-.01-.44-.11-.64.01-.06.04-.13.1-.08.18.04.07.17.06.23.03h0Z"/>
          </g>
        </g>
      </g>
      <g>
        <g>
          <g>
            <path class="cls-3" d="M62.25,49.31c.4.8,3.43-.13,4.42.15.99.28,3.65,1.49,4.1.7.45-.78,1.17-2.48-.99-3.39-2.15-.91-5.14-1.07-5.92-.23-.78.84-1.61,2.77-1.61,2.77Z"/>
            <path class="cls-3" d="M59.14,48.75c-1.06-.81-1.98-2.23-.99-3.31,1-1.08,1.95-2.32,4.15-2.33,2.2-.01,3.81.95,5.23,2.61,1.42,1.66-.25,1.64-2.31,1.48-2.06-.17-4.18.19-6.08,1.56Z"/>
          </g>
          <path class="cls-5" d="M56.66,38.06c-2.23.11-2.84-.09-6.34.61-3.28.66-3.78,5.32-4.81,8.69-1.05,3.46-1.05,6.11-1.23,7.77-.2,1.94.18,6.23,3.26,6.82,3.09.6,4-1.98,4.46-1.88,1.31.26-.28,2.9,4.6,2.94,3.22.03,5.24-.67,6.8-1.84,2.53-1.88,7.65-8.04,6.68-10.02-1.43-2.92-1.54-2.09-3.01-2.94-2.58-1.49-2.6.41-1.62-1.78,1.67-3.77.04-6.12-.92-8.7-.92-2.47-5.75.21-7.88.31Z"/>
          <path class="cls-7" d="M34.28,23.78c-.53-.12-3.44-1.32-3.67-1-.22.32.3.78.04.95s-1.97,1.18-2.46,1.46c-.5.29-.14.49-.09.77.05.27.61.55.76.86s-.09.68,0,1.02c.08.34.54.41,1,.31.46-.1,3.64-1.49,4.3-1.77.67-.28,1.45-.33,1.87-.24.11.02,1.01.27,2.32.62.16-.82.33-1.64.54-2.45-2.49-.27-4.43-.49-4.61-.53Z"/>
          <path class="cls-6" d="M51.8,12.11c.92-.76,1.04-.07,2.09-.46,1.05-.39.96-.53,1.93-.18.96.35,1.26-.6,2.19-.22,2.37.96,3.43-.2,4.16,1.58,1.71,4.16-.79,3.02-2.58,2.98-1.8-.04-1.97-.09-3.85,0s-4.1.8-4.62.01c-.53-.79-1.2-2.16.69-3.71Z"/>
          <g>
            <path class="cls-7" d="M53.73,10.11c.12,0,1.63.11,1.77.09.06.24.25,1.14.39,1.43.14.3,1.19,2,1.33,2.15-1.67,1.43-4.01,1.25-5.13-.05.3-.15,1.23-1.76,1.36-2.35.1-.43.28-1.12.28-1.28Z"/>
            <path class="cls-7" d="M58.15,8.07c.48-2.55.04-5.74-3.08-6.13s-4.48,2.77-4.65,5.36c-.13-.16-.48-.24-.53.18-.02.2.02.54.23.85.24.37.48.45.64.55.09.67.42,1.3.7,1.67.41.53,1.47,1.36,2.48,1.52.81.12,1.91-.47,2.51-.98.56-.47.92-.95,1.21-1.43.18-.06.4-.07.68-.41.13-.15.34-.67.29-.92-.05-.31-.39-.33-.48-.26Z"/>
            <path class="cls-5" d="M53.27.39c.35.07.89-.11,1.23-.28.6-.31,1.44.18,2.15.32.72.13,1.68,1.3,1.95,1.56.74.7.95,1.97,1.04,3.01.05.55-.06,1.53-.25,2.02-.2.49-.77.84-1.09,1.13-.33.29-.54,1.08-.62.31s.42-1.47-1.23-1.54c-1.06-.04-2.55-2.5-2.99-2.93s-.85.25-1.11.51c-.26.26-.84.96-1.15,1.3-.31.34-.17,2.55-.75,1.93-.53-.57-.49-.94-.93-2.51-.3-1.06.63-2.5,1-3.31.36-.78,1.26-1.72,2.75-1.51Z"/>
          </g>
          <g>
            <path class="cls-6" d="M50.12,13.58c.7-.48,1.93-1.1,2.14-1.04.2.06.82,2.41,1.58,2.46.76.05,2.77-1.97,2.99-2.3.22-.33,2.19,0,3.37.48,2.29.93,3.7,2.89,4.38,3.72,2.82,3.44,4.05,5.44,4.84,7.96.98,3.11.75,5.93.18,6.84-1.78,2.84-4.31,1.61-3.91,4.71.21,1.59.17,1.91.12,4.8,0,.62-2.24,1.3-4.35,1.27-2.11-.03-3.5-.83-4.47-1.27-.78-.35-4.56-.29-5.69-.04-1.14.24-3.32.55-3.59-.79-.61-3.02.88-7.06.91-8.77.03-1.71.49-5.38-.07-5.73-.62-.38-2.18,4.53-5.11,4.09-.17-.03-6.37-1.39-7.28-1.64-1.42-.4-.71-4-.04-4.84.84-1.06,6.58,1,7.02.4.43-.6,2.66-5.82,3.8-7.42.4-.57,1.27-1.62,3.2-2.89Z"/>
            <path class="cls-6" d="M52.31,12.18c.36,0,.35-.5.6.11s.15.71.45,1.07c.3.36.7.01.82,1.05.04.37.61.44.15.73-.72.46-1.04-.41-1.89-.44-.85-.03-.86-.83-1.11-1.04-.41-.35-.6-.58-.08-.91.53-.33.72-.58,1.05-.58Z"/>
            <path class="cls-6" d="M53.96,14.57c-.04-.41-.08-.97.81-1.11.89-.13.99-.34,1.35-.87.36-.53.46-.72.99-.85.53-.13,3.33.32,3.36.74.03.43.53.67.04,1.01-1.01.7-1.97.09-3.11.18-.91.07-.82.87-1.51,1.03-.69.16-1.14.89-1.93-.13Z"/>
          </g>
        </g>
        <g>
          <path class="cls-4" d="M36.89,33.34c2.72.44,8.5,2.5,10.22,1.14,1.71-1.36,3.08-1.83,6.18-1.94,3.09-.11,4.79-3.26,7.71,1.9,2.92,5.16,4.21,10.54,4.94,15.48.74,4.94,2.62,12.52-.89,12.87-3.52.35-9.4.02-17.12,0-7.72-.02-13.05-.21-12.04-5.91,1.01-5.7,1.95-10.91.29-15.11-1.67-4.2-2.28-8.91.72-8.43Z"/>
          <path class="cls-7" d="M63.19,33.4c-.76.35-1.07.47-1.43.37-.36-.1-1.25-.25-1.78-.34-.54-.08-.82.1-.78.4.04.3.49.28,1.21.59.72.31.31.41.04.74-.28.33-1.92,1.44-2.2,1.82-.28.38-.68.78-.39,1.09.28.31.78-.4,1.09-.35s.21.35.27.83.33.33.81.25c.48-.08.5-.21.87-.02.37.19.47.1.78-.12.31-.23.74-1.17,1.16-1.94.42-.77.74-1.22,1.49-1.41.05-.01.31-.64.08-1.4-.68-.98-1.09-.56-1.21-.5Z"/>
          <g>
            <path class="cls-2" d="M45.14,58.87c-.28-.92-1.03-3.6-1.23-4.43-.33-1.38-1.43-2.19-1.24-3.35.2-1.16.07-1.45.53-2.02.32-.4-.3-1.14.2-1.3.41-.13.92-.33.97-.04.15.95-.23.76.75,1.44,1.06.73,1.99,3.13,2.4,4.5.31,1.01.84,2.88.93,4.36.03.45-.06,1.47-1.12,1.95-1.06.48-1.69.28-2.18-1.1Z"/>
            <g>
              <path class="cls-8" d="M43.85,52.17c.78.08,1.57-.24,2.07-.84.04-.05.02-.12-.04-.15-.07-.03-.16,0-.21.06-.42.5-1.07.78-1.72.71-.07,0-.16.02-.19.09-.03.07.03.12.09.13h0Z"/>
              <path class="cls-8" d="M44.52,53.82c.83.13,1.71-.17,2.28-.79.05-.05.02-.12-.04-.14-.07-.03-.16,0-.21.06-.49.53-1.22.77-1.93.66-.14-.02-.3.18-.1.21h0Z"/>
              <path class="cls-8" d="M45.05,55.4c.76-.04,1.5-.3,2.11-.75.05-.04.03-.07-.02-.08-.07-.01-.15.02-.21.06-.52.38-1.13.6-1.76.64-.06,0-.16.02-.2.08-.03.05.03.07.07.07h0Z"/>
              <path class="cls-8" d="M45.79,56.97c.05-.03.18.02.25.02.09,0,.18.01.27.01.19,0,.38-.04.56-.1.36-.12.68-.33.93-.62.05-.05.02-.12-.04-.14-.07-.03-.16,0-.21.06-.22.26-.52.45-.85.53-.16.04-.33.06-.49.05-.18-.01-.38-.09-.55.01-.05.03-.11.09-.07.15.04.06.15.06.2.02h0Z"/>
            </g>
          </g>
          <g>
            <path class="cls-2" d="M52.28,58.03c.87-.42,3.41-1.55,4.2-1.87,1.32-.53,1.95-1.74,3.13-1.72,1.18.02,1.45-.14,2.08.23.44.25,1.09-.46,1.32,0,.19.38.46.86.18.95-.92.29-.79-.12-1.31.95-.57,1.16-2.8,2.43-4.1,3.04-.95.45-2.73,1.25-4.17,1.56-.44.09-1.47.15-2.09-.82-.63-.98-.52-1.63.77-2.32Z"/>
            <g>
              <path class="cls-8" d="M58.72,55.77c.04.78.47,1.52,1.14,1.92.06.04.12,0,.14-.06.02-.07-.02-.16-.09-.2-.56-.34-.93-.94-.96-1.6,0-.07-.04-.16-.12-.18-.07-.02-.12.04-.11.11h0Z"/>
              <path class="cls-8" d="M57.19,56.68c0,.84.42,1.66,1.11,2.14.06.04.12,0,.13-.06.02-.07-.03-.16-.09-.2-.59-.41-.95-1.1-.94-1.81,0-.15-.22-.27-.22-.07h0Z"/>
              <path class="cls-8" d="M55.71,57.44c.16.75.52,1.44,1.05,1.98.04.04.08.02.08-.03,0-.07-.04-.15-.09-.2-.45-.45-.76-1.03-.89-1.65-.01-.06-.04-.16-.1-.18-.06-.03-.06.04-.06.08h0Z"/>
              <path class="cls-8" d="M54.26,58.4s.01.18.01.25c0,.09.01.18.03.27.03.19.09.37.18.54.17.34.42.63.75.83.06.04.12,0,.14-.06.02-.07-.02-.16-.09-.2-.29-.18-.52-.45-.65-.76-.06-.15-.11-.31-.12-.48-.02-.18.03-.39-.09-.54-.04-.05-.1-.1-.16-.05-.05.05-.03.15,0,.2h0Z"/>
            </g>
          </g>
        </g>
      </g>
      <g>
        <g>
          <path class="cls-7" d="M106.99,36.38c-.58.09-1.49,1.78-2.49,1.57s-1.62-.16-1.87-.28c-.29-.14-.49-1.16-.47-1.38.04-.5.17-.51.03-.91-.19-.55,0-.56-.03-.97-.01-.26.38-.56.67-.77.27-.19.86.01.86.01.12-.13-.13-.12-.12-.34.02-.46.75-.44,1.06-.28.51.09,1.28,1.31,2.39,1.07,2.39-.52,5.85-2.81,6.3-1.76,1.03,2.37-2.47,3.47-6.33,4.05Z"/>
          <g>
            <path class="cls-3" d="M138.73,66.56c.12.79,2.96.87,3.72,1.38.76.52,2.69,2.31,3.3,1.77s1.7-1.78.13-3.17c-1.58-1.39-4.07-2.38-4.98-1.88-.91.49-2.16,1.9-2.16,1.9Z"/>
            <path class="cls-3" d="M136.16,64.51c-.48-1.1-.58-2.62.67-3.03,1.25-.41,2.55-.97,4.28-.02,1.73.95,2.58,2.41,2.97,4.33.39,1.92-.92,1.18-2.46.15s-3.36-1.68-5.45-1.43Z"/>
            <path class="cls-8" d="M128.24,47.4c-2,.1-2.55-.08-5.7.55-2.94.59-3.4,4.78-4.32,7.81-.94,3.11-.95,5.49-1.1,6.99-.18,1.75.22,3.24,1.29,3.4,1.2.18.15-.09,1.38,0,1.19.09.38,2.59,2.57,2.94,3.4.55,14.03-.09,16.17-.25,2.04-.15,4.25-.76,4.14-2.4-.13-1.84.94-3.44-2.76-3.57-2.95-.11.54-2.66-1.82-2.51-2.92.18-3.19.77-3.91-.15-1.64-2.11.69-1.78,1.98-5.27,1.28-3.48.04-5.5-.83-7.81-.83-2.22-5.17.18-7.08.28Z"/>
            <path class="cls-5" d="M122.09,54.21c-.73,2.67-.97,5.45-1.3,8.18-.02.18.33.13.35-.03.34-2.74.58-5.51,1.3-8.18.04-.16-.31-.12-.35.03h0Z"/>
            <path class="cls-5" d="M129.38,61.94c2.1.93,4.42.82,6.66.68.18-.01.28-.24.04-.22-2.15.13-4.41.26-6.43-.64-.12-.05-.43.11-.27.18h0Z"/>
          </g>
          <g>
            <path class="cls-7" d="M121.07,21.86c-.3.67-.7.7-1.31,1.9-.61,1.2-.96,2.33-.27,3.66.69,1.33.2,3.77,2.86,2.93,2.66-.84,4.47-2.05,5.69-3.18,1.22-1.12,1.38-1.62-.26-2.94-1.64-1.31-2.96-1.6-3.92-2.82-.96-1.22-.62-2.87-1.41-2.65-.8.21-2.06.5-1.97,1s.91,1.71.6,2.11Z"/>
            <g>
              <path class="cls-7" d="M124.56,18.85c-.93,1.43-2.3,2.09-3.42,2.04s-2.14-.46-3.07-1.13c-.73-.69-1.26-1.72-1.36-2.15-.09-.4-.1-.87-.03-1.31.17-1.04-.55-1.05.29-3.13.25-.63,1.78-3.5,4.8-3.53,2.65-.02,4.74,6.22,2.79,9.21Z"/>
              <path class="cls-5" d="M117.09,13.02c-.27-.7.31-1.6,1.02-2.23.92-.83,2.94-1.61,4.08-1.51,1.51.13,2.96.97,3.66,2.19.24.4.99,2.56.53,3.75-.53,1.37-.6,3.12-.55,4.03.07,1.27,1.45,1.89.48,2.02-.78.1-2.38.15-3.12.14-.66,0-.55-.7-.73-1.27-.25-.82-.71-1.37-.3-1.59,1.05-.91.76-1.32.57-1.71-.19-.39-.86-.34-1.07,0-1.04,1.72-.97.49-1.33-.9-.43-1.65-1.25-.17-3.25-2.93Z"/>
            </g>
          </g>
          <g>
            <path class="cls-8" d="M101.02,30.83c1.12,1.04.92,1.33,2.28.66,1.36-.66,1.48-.14,1.75.34.27.48.92,1.89-.03,2.22s-2.07-.33-.76,1.66c1.31,1.99,1.17,2.07,0,2.07s-2.1-1.41-2.8-.5c-.7.91-1.17,1.66-2.05.99-.88-.66-2.45-.41-1.21-1.66,1.24-1.24.66-1.01-.17-2.16-.83-1.15-.66-2.31.25-2.39.91-.08.6-.83,1.13-1.24.53-.41,1.09-.48,1.61,0Z"/>
            <path class="cls-2" d="M100.27,33.37c.3-.13.54-.18.87-.17.33.01.66.1.96.26.14.07.36.01.49-.07.1-.06.21-.19.06-.26-.82-.42-1.83-.4-2.66-.03-.08.04-.29.16-.19.27.1.11.35.05.46,0h0Z"/>
            <path class="cls-2" d="M100.74,34.42c-.04.6.41,1.13,1.01,1.2.33.04.58,0,.87.17.23.13.39.34.44.6.04.24.74.07.7-.19-.11-.6-.74-.91-1.3-.95-.14-.01-.3,0-.43-.04-.12-.04-.22-.11-.31-.19-.18-.18-.3-.43-.28-.69.01-.15-.19-.17-.3-.15-.11.02-.38.09-.39.24h0Z"/>
          </g>
          <path class="cls-1" d="M120.42,43.04c0-1.61.23-3.5.72-4.92.91-2.61-1.66-4.62-3.14-3.9-3.56,1.71-5.64,2.19-6.58,2.38-1.28.26-1.96.67-2.07-2.18-.12-2.95.45-2.53,2.24-3.2.78-.29,4.12-2.04,4.77-3.63.83-2.04,3.21-4.68,3.72-4.46.36-.4-1.2,3.8.43,2.76,1.94-1.24,2.76-4.26,4.31-4.25.84,0,2.69.43,4.11,1.45,2.41,1.72,3.13,2.93,4.21,4.79.88,1.52,1.46,4.11,1.54,8.01.07,3.27-.5,3.55,1.11,10.27.97,2.34-8.6,4.12-10.54,4.22-7.09.95-4.81-3.12-4.81-7.34Z"/>
        </g>
        <g>
          <path class="cls-9" d="M117.48,44.83c-2.52.4-7.86,2.31-9.44,1.05-1.58-1.26-2.93-2.49-5.71-1.8-3.54.89-9.49-2.11-8.93,2.58.64,5.44.13,9.25-.55,13.81-.68,4.57-3.25,10.01,0,10.33,3.25.32,7.31,1.25,14.44,1.23,7.14-.02,12.06-.19,11.13-5.46-.93-5.27-1.81-10.08-.27-13.96,1.54-3.88,2.11-8.23-.67-7.79Z"/>
          <g>
            <path class="cls-7" d="M125.91,35.08c-.52.55-10.31,8.46-10.6,8.73-.29.27-.68.88-.82,1.53-.14.65-.8,3.77-.98,4.16-.17.4-.47.7-.77.58s-.45-.5-.76-.55-.82.22-1.05.11c-.23-.11-.57.05-.52-.48.05-.52.21-2.34.22-2.62.01-.28-.62-.14-.74-.48-.12-.34,2.33-1.88,2.71-2.21.37-.33,9.68-10.83,10.14-11.25.46-.42,3.17,2.48,3.17,2.48Z"/>
            <path class="cls-1" d="M122.58,31.1c-1.97,3.3-4.51,5.96-6.29,7.52-1.44,1.26-2.32,2.26-.64,4.06,1.67,1.8,1.78,1.35,4.74-1.17,3.36-2.86,6.56-6.99,7.31-9.03.74-2.03,1.15-4.82-.59-4.91-1.74-.09-3.54,1.9-4.52,3.54Z"/>
          </g>
          <g>
            <path class="cls-8" d="M109.99,62.69c1.12,1.04.77.33,2.13-.34,1.36-.66,1.63.86,1.9,1.34.27.48,1.2,2.38.26,2.71s-.74,1.15-.74,1.15c1.31,1.99.25,1.98-.92,1.98s-.91-.53-1.61.38c-.7.91-1.76.9-2.64.23-.88-.66-3.16-.94-1.91-2.18s-1.02-.74-.78-1.79c.32-1.38.66-2.16,1.57-2.24.91-.08.6-.83,1.13-1.24s1.09-.48,1.61,0Z"/>
            <path class="cls-2" d="M109.32,64.6c.16,0,.35.03.52.09.18.07.35.16.51.28.31.23.54.56.66.93.03.1.31.02.37,0,.05-.01.35-.09.32-.19-.25-.83-1.07-1.37-1.92-1.37-.16,0-.35.05-.49.13-.03.02-.1.05-.08.09.01.04.09.04.12.04h0Z"/>
            <path class="cls-2" d="M109.09,66.59c-.03.2-.05.41-.08.61-.02.16-.06.34-.03.51.08.37.57.34.86.35.19,0,.39.01.59,0,.1,0,.21,0,.31,0,.07,0,.15-.01.22.01.07.03.13.09.2.13.07.05.13.08.21.11.18.07.37.08.56.07.14-.01.36-.05.47-.17.1-.11-.09-.12-.16-.11-.31.03-.49-.28-.78-.32-.17-.03-.34,0-.51,0-.18,0-.36,0-.54,0-.16,0-.33,0-.49-.03-.16-.03-.23-.15-.24-.3-.01-.15.02-.31.04-.45.03-.2.05-.39.08-.59.01-.08-.67-.02-.7.19h0Z"/>
          </g>
          <g>
            <path class="cls-8" d="M96.99,65.84c1.02-.72.39-.56.09-1.76-.3-1.2.96-1.16,1.39-1.29.43-.14,2.1-.56,2.2.25.11.81.79.78.79.78,1.81-.71,1.62.13,1.42,1.07-.2.94-.58.64.03,1.34.61.71.42,1.55-.26,2.14-.68.59-1.28,2.36-2.06,1.16s-.76.69-1.56.32c-1.05-.49-1.61-.89-1.52-1.63.09-.74-.56-.62-.8-1.11-.24-.49-.2-.95.27-1.28Z"/>
            <path class="cls-2" d="M98.4,66.69c.03-.13.08-.27.16-.4.08-.13.19-.26.31-.36.24-.21.53-.34.85-.37.08,0,.07-.25.06-.3,0-.04-.01-.3-.09-.29-.7.06-1.27.62-1.42,1.3-.03.13-.02.29.02.41,0,.02.03.08.06.08.03,0,.05-.07.05-.09h0Z"/>
            <path class="cls-2" d="M99.94,67.21c.16.06.32.11.47.17.13.04.26.11.4.11.31,0,.36-.4.42-.62.04-.15.07-.31.1-.47.02-.08.03-.17.04-.25,0-.06.01-.12.05-.17.03-.05.09-.09.14-.13.05-.04.09-.09.13-.15.09-.13.13-.28.15-.43.01-.12.02-.3-.05-.4-.07-.1-.11.05-.12.11-.03.25-.3.34-.39.57-.05.13-.06.27-.09.41-.03.14-.06.29-.09.43-.03.13-.06.26-.11.38-.05.12-.16.16-.28.14-.12-.02-.24-.07-.36-.11l-.45-.16c-.06-.02-.13.53.03.59h0Z"/>
          </g>
          <g>
            <path class="cls-8" d="M108.62,57.25c-.53,1.43-.87,1.36.26,2.36,1.13,1.01.69,1.32.35,1.75-.34.44-1.4,1.57-2.07.82-.67-.75-.49-2.04-1.82-.07-1.34,1.97-1.47,1.88-1.91.79-.45-1.09.5-2.48-.61-2.78-1.11-.3-1.98-.45-1.7-1.52.28-1.07-.55-2.43,1.07-1.75,1.62.67,1.19.23,1.94-.98.75-1.2,1.88-1.49,2.31-.68.42.81.99.24,1.58.57.58.33.86.82.61,1.48Z"/>
            <path class="cls-2" d="M105.98,57.52c.24.22.37.43.49.74.12.31.16.65.13.98-.01.16.13.34.25.43.09.07.26.12.27-.04.07-.92-.32-1.84-.99-2.47-.07-.06-.26-.21-.32-.07-.06.13.08.34.17.43h0Z"/>
            <path class="cls-2" d="M105.19,58.36c-.57.19-.88.81-.73,1.39.09.32.22.53.17.87-.03.26-.17.49-.39.63-.2.13.22.71.44.57.52-.33.56-1.03.39-1.56-.04-.13-.12-.28-.13-.41-.01-.12.01-.24.06-.35.1-.24.29-.44.53-.53.14-.05.08-.24.03-.34-.06-.09-.23-.32-.37-.27h0Z"/>
          </g>
        </g>
      </g>
    </g>
  </g>
</svg>