<?xml version="1.0" encoding="UTF-8"?>
<svg id="_圖層_2" data-name="圖層_2" xmlns="http://www.w3.org/2000/svg" viewBox="0 0 51.31 46.27">
  <defs>
    <style>
      .cls-1 {
        fill: #e83820;
      }

      .cls-2 {
        fill: none;
        stroke: #f1891a;
        stroke-miterlimit: 10;
      }
    </style>
  </defs>
  <g id="_圖層_1-2" data-name="圖層_1">
    <g>
      <path class="cls-2" d="M49.73,23.23l-3.96-1.37v-11.3c0-5.55-4.5-10.06-10.06-10.06H10.55C5,.5.5,5,.5,10.56v25.16c0,5.55,4.5,10.06,10.05,10.06h25.16c5.55,0,10.06-4.5,10.06-10.06v-11.21l3.96-1.28Z"/>
      <path class="cls-1" d="M30.73,32.25h-2.61v2.62c.88-.88,1.73-1.73,2.61-2.62M16.97,9.73c-.14-.74-1.1-1.17-1.72-.97-.65.22-1.08.7-1.09,1.46-.02,1.58,0,3.16,0,4.74,0,.13.03.26.06.38.18.71.84,1.17,1.58,1.1.7-.07,1.26-.65,1.29-1.37.02-.64,0-1.27,0-1.91,0-.34-.15-.57-.49-.58-.35,0-.51.23-.52.56-.01.29,0,.57-.01.86,0,.27-.14.51-.43.44-.18-.05-.41-.26-.44-.43-.07-.35-.05-.73,0-1.09.09-.7.64-1.2,1.31-1.25.59-.04,1.35.36,1.39.93.08,1.04.14,2.12-.06,3.12-.24,1.2-1.42,1.78-2.68,1.59-1.03-.16-1.88-1.18-1.89-2.32-.02-1.28,0-2.55,0-3.83,0-.17-.01-.33-.02-.49q-1-.09-1,.83v11.63h12.49v-12.49h-.6c-2.78,0-5.55,0-8.33,0-.32,0-.61-.07-.6-.44,0-.36.27-.46.6-.45.38,0,.77,0,1.18,0M14.67,37.56h.55c5.87,0,11.74,0,17.61.01.5,0,.6-.14.6-.61-.02-7.7-.01-15.41-.01-23.11q0-.92-.93-.81s-.03.02-.06.04c0,.07-.03.16-.03.26,0,.33-.05.63-.47.62-.45,0-.42-.35-.42-.66,0-.56-.02-1.12,0-1.67.02-.41-.09-.55-.53-.55-1.6.03-3.19.01-4.78.01-.15,0-.31.01-.51.02v11.6c0,1.06-.28,1.35-1.33,1.35-3.69,0-7.37,0-11.05,0h-.59v.55c0,3.49,0,6.99-.01,10.48,0,.44.13.56.56.56,4.45-.02,8.9-.01,13.35-.01h.55v-.59c0-.89-.01-1.79,0-2.68.01-.73.34-1.04,1.06-1.05.88,0,1.75,0,2.63,0q.63,0,.63-.61c0-4.93,0-9.86,0-14.79,0-.16-.05-.35.02-.47.09-.17.27-.42.4-.41.16,0,.33.22.45.38.06.08.02.25.02.38,0,5.1,0,10.21,0,15.31,0,.58-.19,1.04-.6,1.44-1.14,1.12-2.26,2.25-3.38,3.38-.41.41-.86.6-1.45.6-3.91-.01-7.81,0-11.72,0h-.57v1.03ZM13.28,9.73c.39-1.18,1.15-1.87,2.17-1.9,1.33-.05,2.13.67,2.53,1.9,2.15,0,4.28,0,6.42,0,.41,0,.78.04,1.08.38.08.09.29.1.43.1,1.74,0,3.48,0,5.21,0,.95,0,1.25.3,1.25,1.27,0,.19,0,.38,0,.65.28,0,.54,0,.81,0,.75,0,1.11.36,1.11,1.12,0,3.57,0,7.14,0,10.71v13.25c0,.93-.3,1.23-1.23,1.23H15.04c-1.03,0-1.31-.28-1.31-1.3v-.59c-.19,0-.35-.02-.5-.02-1.19,0-1.41-.23-1.41-1.44,0-3.52,0-7.05,0-10.57,0-.32-.02-.6-.28-.86-.14-.14-.2-.43-.2-.66-.01-4.07-.01-8.13,0-12.2,0-.7.36-1.06,1.05-1.07.29,0,.57,0,.89,0"/>
      <path class="cls-1" d="M23.73,28.87c-1.62,0-3.25,0-4.87,0-.16,0-.35.03-.47-.05-.14-.09-.32-.28-.31-.41.02-.15.2-.32.36-.41.12-.07.31-.03.47-.03,3.25,0,6.49,0,9.74,0,.36,0,.84-.08.83.45,0,.51-.47.45-.84.45-1.64,0-3.28,0-4.92,0"/>
      <path class="cls-1" d="M23.79,26.47c-1.64,0-3.28,0-4.92,0-.17,0-.38.02-.51-.07-.14-.09-.27-.28-.28-.43,0-.12.17-.29.31-.36.13-.07.31-.05.47-.05,3.28,0,6.56,0,9.84,0,.06,0,.13,0,.19,0,.32,0,.61.08.61.45,0,.36-.28.47-.6.47-.65,0-1.31,0-1.96,0h-3.15"/>
      <path class="cls-1" d="M21.86,31.26h-3.01c-.13,0-.29.04-.37-.02-.16-.12-.38-.3-.38-.45,0-.14.24-.35.41-.4.27-.07.57-.03.86-.03,1.78,0,3.57,0,5.35,0,.11,0,.22,0,.34,0,.31,0,.61.06.61.44,0,.39-.31.47-.64.47-1.05,0-2.1,0-3.16,0"/>
      <path class="cls-1" d="M15.59,26.46c-.37,0-.87.09-.87-.46,0-.55.51-.43.88-.45.17,0,.37-.05.51.02.17.08.41.29.39.41-.03.18-.23.36-.4.46-.13.07-.34.01-.51.01"/>
      <path class="cls-1" d="M15.46,28.86c-.25,0-.75.08-.74-.47,0-.55.52-.42.88-.44.16,0,.34-.05.47.02.18.1.4.25.45.42.07.3-.18.44-.46.46-.16.01-.32,0-.59,0"/>
      <path class="cls-1" d="M28.55,22.16c-.17-.01-.37.03-.51-.05-.15-.08-.36-.29-.34-.41.02-.16.22-.4.37-.43.32-.07.67-.08.98,0,.18.04.39.28.42.45.02.11-.24.32-.41.41-.14.07-.34.01-.51.01,0,0,0,.01,0,.02"/>
      <path class="cls-1" d="M28.53,19.76c-.15-.01-.36.02-.52-.05-.14-.07-.33-.26-.32-.38,0-.16.18-.42.31-.44.37-.06.76-.07,1.13-.01.14.02.37.28.35.41-.02.16-.22.34-.39.43-.14.08-.34.03-.55.04"/>
      <path class="cls-1" d="M28.55,14.93c-.16,0-.34.05-.47-.01-.16-.07-.39-.25-.38-.37.01-.17.19-.43.34-.47.34-.07.7-.07,1.04,0,.16.03.28.28.43.43-.16.15-.3.33-.48.42-.13.07-.31.01-.47.01h0Z"/>
      <path class="cls-1" d="M28.59,17.35c-.19,0-.4.03-.57-.04-.14-.06-.32-.24-.33-.37-.01-.14.15-.41.26-.43.4-.06.82-.07,1.23-.01.13.02.29.3.3.46,0,.12-.21.29-.36.36-.15.07-.35.03-.52.04"/>
      <path class="cls-1" d="M15.62,31.25c-.18,0-.39.06-.52-.02-.17-.1-.35-.29-.37-.47-.01-.11.23-.35.38-.38.32-.06.67-.07,1,0,.16.03.4.26.4.4,0,.15-.2.36-.37.45-.14.07-.34.02-.52.01"/>
      <path class="cls-1" d="M18.51,18.84c1.16,0,2.33,0,3.49,0,.16,0,.35-.02.46.05.14.09.29.28.29.42,0,.14-.18.3-.33.39-.11.07-.28.04-.42.04-2.34,0-4.69,0-7.03,0h-.1c-.32,0-.65-.05-.65-.45,0-.39.31-.46.65-.46,1.21,0,2.42,0,3.63,0"/>
      <path class="cls-1" d="M21.14,17.33c-.4,0-.8.04-1.19-.02-.17-.02-.45-.28-.43-.38.04-.18.25-.46.4-.47.81-.05,1.62-.05,2.43,0,.15,0,.36.29.4.47.02.1-.26.35-.42.38-.39.06-.79.02-1.19.02"/>
      <path class="cls-1" d="M21.11,14.93c-.38,0-.77.04-1.14-.02-.18-.03-.32-.27-.47-.41.15-.15.3-.43.46-.44.79-.05,1.59-.05,2.38,0,.16,0,.3.29.44.45-.16.14-.31.37-.48.4-.39.06-.79.02-1.19.02"/>
    </g>
  </g>
</svg>