<?xml version="1.0" encoding="UTF-8"?>
<svg id="_圖層_2" data-name="圖層_2" xmlns="http://www.w3.org/2000/svg" viewBox="0 0 142.08 45.53">
  <defs>
    <style>
      .cls-1 {
        fill: #2c2962;
      }

      .cls-2 {
        fill: #f4c439;
      }

      .cls-3 {
        fill: #c68c46;
      }

      .cls-4 {
        fill: #316163;
      }

      .cls-5 {
        fill: #2f2d72;
      }

      .cls-6 {
        fill: #b9def0;
      }

      .cls-7 {
        fill: #2b83af;
      }

      .cls-8 {
        fill: #232453;
      }

      .cls-9 {
        fill: #e0a353;
      }

      .cls-10 {
        fill: #e5927f;
      }

      .cls-11 {
        fill: #5685bd;
      }

      .cls-12 {
        fill: #f2c3a1;
      }

      .cls-13 {
        fill: #9f5656;
      }

      .cls-14 {
        fill: #306c6d;
      }

      .cls-15 {
        fill: #231735;
      }

      .cls-16 {
        fill: #f7d462;
      }

      .cls-17 {
        fill: #69bede;
      }

      .cls-18 {
        fill: #85ba83;
      }
    </style>
  </defs>
  <g id="_圖層_1-2" data-name="圖層_1">
    <g>
      <g>
        <g>
          <path class="cls-7" d="M38.96,8.74s.88-.05,1.55.66c.67.71,0,3.01,0,3.01l-1.55-3.67Z"/>
          <path class="cls-1" d="M41.87,13.15c-.06-.66-.71-3.92-2.91-4.41,0,0,1.23,1.16,1.77,3.05.52,1.81.39,2.6.39,2.6,0,0,.31.23.55-.1.23-.33.27-.47.21-1.14Z"/>
          <path class="cls-12" d="M40.12,14.31c.48-.38.42-1.15,1.04-1.15.04.35.01.83.01.83,0,0,.48-.1.58-.27.18-.33.13-.52.13-.52,0,0,.49.14.64.45.1.21.08.97-.02,1.39-.23,1-1.33,1.23-2.07,1.22,0,0-.47-1.39-.31-1.95Z"/>
          <path class="cls-3" d="M34.15,20.05c-.46,1.14-.31,3.61-.11,5.63.2,2.02.59,6.29.59,6.29l-6.21,8.06,1.86,1.75s6.36-6.17,8.03-7.64c1.67-1.47,2.69-14.08,2.69-14.08l-6.85-.02Z"/>
          <path class="cls-15" d="M28.41,40.03l1.86,1.75s.41.75.81,1.12c.57.52,1.22.66,2.04.82.82.17.43.56-.9.56-1.64,0-2.25-.74-2.53-1.02-.91-.9-2.21-2.45-2.21-2.45l.93-.78Z"/>
          <path class="cls-9" d="M34.52,20.05c-.14,1.15.02,2.72,1.36,5.08,1.46,2.58,3.22,6.18,3.22,6.18l1.24,11.86h2.61s.44-11.02.29-12.26c-.15-1.25-2.24-10.85-2.24-10.85l-6.48-.02Z"/>
          <path class="cls-15" d="M40.34,43.18h2.61s3.28.57,3.77.64c.5.07.93.46-1.26.46h-5.12v-1.1Z"/>
          <path class="cls-6" d="M36.51,8.74c-1.22.18-1.17.17-1.64.38-.45.2-.98,1.94-1.15,4.08-.2,2.52-.17,8.45-.13,8.83,0,0,1.15.84,3.93.76,2.78-.08,3.88-.74,3.96-.93.08-.19-.09-6.82-.27-8.35-.23-1.97-.44-3.71-2.24-4.77h-2.45Z"/>
          <g>
            <path class="cls-1" d="M36.58.69c.6-.21,3.08-.51,3.73-.68.64-.16,1.48,1.92.3,3.01-1.22,1.12-4.02-2.33-4.02-2.33Z"/>
            <path class="cls-10" d="M36.61,6.23l-.1,2.51s.73,1.37,1.86,1.34c1.27-.03.59-1.34.59-1.34v-1.08s-2.35-1.43-2.35-1.43Z"/>
            <path class="cls-12" d="M36.61,6.23s.13.66.89,1.05c.76.39,1.59.42,1.98.35.32-.06.69-.3.85-.66.19-.42.3-1.04.34-1.54.1-1.21.1-2.46-.42-3.3-.52-.84-2.32-1.42-3.9-.6-.68.35-1.5,1.55-1.48,2.66.02,1.49,1.09,2.83,1.74,2.06Z"/>
            <path class="cls-1" d="M36.61,6.23c-.15.15-1.08-.02-1.14-1.04-.05-.98.84-1.09,1.14-.8s.27.85.27.85c0,0,.49.1.51-.47,0-.15-.03-.76-.03-.76.73-.15.58-1.34.58-1.34,0,0,1.38,0,2.19-.85,0,0-.35-1.43-2.56-1.29-2.21.14-3.03,1.35-3.02,2.56,0,.74-.11,4.22,2,4.4l.05-1.27Z"/>
          </g>
          <path class="cls-1" d="M35.17,8.89s.86,1.19.54,4.35c-.22,2.18-2.13,3.48-2.13,3.48l-.03,1.56s2.76-1.18,3.18-5c.36-3.3-.48-4.5-.48-4.5,0,0-.59-.16-1.09.11Z"/>
          <path class="cls-12" d="M34.48,14.97c.48-.38.53-1.15,1.14-1.15-.07.27-.16.53-.28.8,0,0,1.06.32,1.17-.08.1-.36.16-.71.16-.71,0,0,.36.21.5.51.1.21.09.84,0,1.25-.23,1-1.64,1.34-2.38,1.34,0,0-.47-1.39-.31-1.95Z"/>
          <path class="cls-7" d="M35.17,8.89c-.72.11-1.39.35-2.05,1.19-.85,1.08-3.12,4.27-3.69,5.21-1.01,1.68-1.05,2.54-.63,3.15.42.61,4.98-.48,5.97-1.2,0,0,.17-1.7-.29-2.28l-1.68.48,1.86-1.94s1.76-2.01.52-4.62Z"/>
        </g>
        <g>
          <g>
            <path class="cls-4" d="M7.84,44.28s.13-3.88-1.74-5.92c-1.87-2.03-3.74-2.8-5.17-2.2-1.43.6-1.17,2.44.47,3.1,1.63.66,4.64,2.52,4.87,5.02h1.57Z"/>
            <path class="cls-18" d="M7.17,44.45s0,0,0,0c-.09,0-.16-.08-.16-.17.09-2.83-2.12-6.52-5.44-7.29-.09-.02-.14-.11-.12-.2.02-.09.11-.14.2-.12,3.53.82,5.8,4.61,5.7,7.62,0,.09-.08.16-.17.16Z"/>
          </g>
          <g>
            <path class="cls-14" d="M7.17,44.28s.43-3.88-.78-7.17c-1.21-3.29-3.17-5.01-2.07-6.57,1.1-1.56,3.64-1.13,5.09,2.11,1.45,3.25.86,8.99-.16,11.62h-2.07Z"/>
            <path class="cls-18" d="M8.43,44.44s-.03,0-.04,0c-.09-.02-.14-.11-.12-.2,1.05-4.44.3-11.11-2.45-13.57-.07-.06-.07-.17-.01-.23.06-.07.17-.07.23-.01,2.88,2.58,3.65,9.27,2.55,13.9-.02.08-.09.13-.16.13Z"/>
          </g>
        </g>
        <g>
          <path class="cls-8" d="M11.84,20.05c-.46,1.14-.45,3.57-.25,5.59.2,2.02.36,6.34.36,6.34l-6.21,8.06,1.86,1.75s6.36-6.17,8.03-7.64,2.69-14.08,2.69-14.08l-6.48-.02Z"/>
          <path class="cls-15" d="M5.74,40.03l1.86,1.75s.41.75.81,1.12c.57.52,1.22.66,2.04.82.82.17.43.56-.9.56-1.64,0-2.25-.74-2.53-1.02-.91-.9-2.21-2.45-2.21-2.45l.93-.78Z"/>
          <path class="cls-1" d="M11.84,20.05c-.14,1.15.02,2.72,1.36,5.08,1.46,2.58,3.22,6.18,3.22,6.18l1.24,11.86h2.61s.44-11.02.29-12.26c-.15-1.25-2.24-10.85-2.24-10.85l-6.48-.02Z"/>
          <path class="cls-15" d="M17.66,43.18h2.61s3.28.57,3.77.64c.5.07.93.46-1.26.46h-5.12v-1.1Z"/>
          <path class="cls-12" d="M28.87,16.12c-.5.15-.97.33-.97.33l-.28,1.73c.77.34,2.08.66,2.7.67.62,0,.98-.27,1.24-.68.26-.41.17-1.15-.03-1.34-.21-.19-.78.07-1.38.08-.46,0-.78-.1-.78-.1"/>
          <polygon class="cls-13" points="26.88 8.74 29.82 18.28 28.35 44.28 29.82 44.28 31.01 18.28 27.62 9.37 26.88 8.74"/>
          <path class="cls-2" d="M15.93,9.85c.2.95,2.81,4.31,3.6,5.28.79.98,1.61,1.66,2.98,2.05,1.36.4,5.01,1.09,5.01,1.09,0,0,.8-.64.37-1.83-.24-.07-4.63-1.71-5.08-1.93s-2.66-3.68-3.32-4.6c-.92-1.29-3.95-1.79-3.57-.06Z"/>
          <path class="cls-16" d="M14.51,8.74c-1.16.18-2.37.64-2.58,1.39s.24,4.12.24,5.26-.49,4.16-.49,4.44,1.28,1.04,3.43,1.05c1.77,0,3.05-.49,3.2-.82.26-.58,1.33-3.69,1.24-6.54-.1-3.15-.61-4.34-2.63-4.79h-2.42Z"/>
          <path class="cls-12" d="M8.2,23.27c-.07.83.04,2.18.23,2.77.19.59.61,1.08,1.08,1.2.47.12,1.27-.12,1.39-.38s-.57-1.13-.66-1.72c-.09-.59.09-.64.09-.64,0,0,.27.31.42.62s.5-.07.31-.52c-.19-.45-1.14-1.63-1.14-1.63l-1.73.29Z"/>
          <path class="cls-1" d="M17.68,1.27s1.09-.06,1.68.9.32,2.03-.7,2.43c-1.25.49-.99-3.33-.99-3.33Z"/>
          <path class="cls-10" d="M14.61,6.23l-.1,2.51s.73,1.37,1.86,1.34c1.27-.03.32-1.34.32-1.34l.05-1.11-2.13-1.4Z"/>
          <path class="cls-12" d="M14.61,6.23s.13.66.89,1.05,1.83.45,2.2.29c.37-.16.82-1.23.9-2.18.1-1.21.17-2.44-.35-3.27-.52-.84-2.31-1.39-3.9-.6-1.16.57-1.81,2.57-1.12,3.79.26.46.71,1.01,1.39.93Z"/>
          <path class="cls-1" d="M14.61,6.23s-1.09-.06-1.14-1.04c-.05-.98.84-1.09,1.14-.8.3.29.27.85.27.85,0,0,.4,0,.51-.56.11-.56,0-.99,0-.99,0,0,1.85.18,2.86-1.57,0,0-.48-1.63-2.69-1.49-2.21.14-3.04,1.96-3.18,2.89-.11.73.09,3.28,2.2,3.46l.03-.75Z"/>
          <path class="cls-1" d="M13.52,1.46s-.45-.69-1.67-.71c-1.04-.01-1.96.58-2.35,1.85s-.7,2.54-1.69,3.25c-.86.61-2.52.75-2.1,2.17.37,1.26,2.65,1.44,3.98.52,1.27-.88,1.5-1.99,1.6-3.1.13-1.39.4-3.21,1.58-3.19,0,0,.55-.27.65-.79Z"/>
          <path class="cls-2" d="M12.36,9.54c-.84.49-3.18,4.04-3.85,5.1s-1.06,2.06-.99,3.48c.06,1.42.57,5.09.57,5.09,0,0,.87.55,1.85-.23,0-.25.13-4.93.21-5.43s2.64-3.7,3.3-4.61c.92-1.29.43-4.32-1.08-3.4Z"/>
          <path class="cls-12" d="M29.36,16.8s.59-.27.78-.58c.3-.51.01-.63-.33-.43-.18.1-.58.22-.95.33"/>
        </g>
        <g>
          <path class="cls-14" d="M52.02,44.28s-2.12-1.34-2.4-3.13c-.28-1.79.22-2.4,1.2-2.63.98-.22,1.98-.36,1.59-1.69s-.67-2.67.34-3.51c1.01-.84,1.57-.11,2.29,0,.73.11,1.12-.39,2.29-1.7.52-.59,1.2-1.11,1.99-1.27.57-.12,1.44,0,1.45.76,0,.25-.1.49-.21.72-.36.73-.85,1.44-.91,2.25-.02.21,0,.44.09.63.16.34.53.53.77.83.48.59.32,1.52-.17,2.11-.48.59-1.2.93-1.91,1.22-.25.1-.49.21-.7.38-.21.17-.36.42-.36.68,0,.4.35.71.5,1.08.18.47.03,1-.21,1.44-.51.93-1.4,1.54-2.4,1.84h-3.24Z"/>
          <path class="cls-18" d="M53.08,44.44c-.09,0-.17-.07-.17-.17,0-5.76,3.47-11.26,6.75-13.5.08-.05.18-.03.23.04.05.08.03.18-.04.23-3.2,2.2-6.6,7.58-6.6,13.23,0,.09-.07.17-.17.17Z"/>
        </g>
      </g>
      <g>
        <path class="cls-14" d="M74.05,23.37s.99-4.78,3.11-8.29c2.2-3.64,3.78-4.57,4.09-4.88.31-.31-.81-.17-3.1,1.9-2.86,2.58-4.68,6.24-6.05,9.86,0,0,.6,1.33,1.95,1.41Z"/>
        <g>
          <path class="cls-4" d="M75.59,1.74s-.03.08-.09.22c-.06.14-.16.35-.24.63-.1.27-.21.61-.32.99-.12.38-.24.83-.37,1.31-.13.48-.25,1-.39,1.56-.12.56-.27,1.14-.4,1.75-.26,1.21-.51,2.52-.71,3.82-.11.65-.18,1.31-.28,1.95-.07.65-.15,1.28-.2,1.9-.04.62-.1,1.21-.11,1.78-.02.56-.04,1.1-.02,1.59,0,.25.01.48.02.7,0,.22.04.43.06.63.05.39.06.74.13,1.01.05.28.14.48.06.66-.06.17-.2.3-.2.3,0,0-.17-.04-.29-.17-.14-.13-.15-.37-.21-.66-.08-.29-.08-.65-.13-1.07-.02-.21-.05-.43-.05-.66,0-.23-.01-.47-.02-.73-.02-.51,0-1.05.03-1.63,0-.58.09-1.18.14-1.81.06-.62.15-1.27.24-1.92.11-.65.2-1.31.34-1.96.25-1.31.54-2.61.85-3.82.15-.61.31-1.19.47-1.74.17-.55.32-1.07.48-1.54.16-.47.3-.91.45-1.29.07-.19.14-.37.2-.53.07-.16.13-.31.19-.45.11-.27.22-.47.29-.61.07-.14.11-.21.11-.21Z"/>
          <path class="cls-13" d="M74.56,4.51c.5.12.49.85.25,1.82-.25.97-.56,1.37-1.07,1.2-.51-.17-.41-.86-.14-1.67.27-.81.4-1.48.96-1.35Z"/>
        </g>
        <path class="cls-17" d="M95.57,19.66c-7.91-.61-19.39.46-25.46,3.08-6.31,2.72-4.63,6.75,1.72,8.31,6.35,1.56,15.14,2.06,21.5,5.15,6.36,3.09,16.24,10.67,30.13,9.11s16.23-7.93,13.67-11.71-20.82-12.36-41.56-13.95Z"/>
        <path class="cls-11" d="M83.84,25.66s.34-.06.85-.05c.51.01,1.2.11,1.84.43.31.16.62.36.81.68.05.08.08.17.1.27.02.09-.01.22-.04.27-.06.16-.15.29-.24.38-.19.2-.38.29-.52.36-.14.07-.22.09-.22.09,0,0,.07-.05.18-.14.11-.09.27-.24.4-.43.07-.1.12-.21.15-.32.02-.08.02-.11,0-.17-.01-.05-.04-.11-.07-.16-.15-.22-.43-.4-.71-.54-.58-.29-1.22-.44-1.71-.54-.25-.05-.45-.08-.6-.1-.15-.02-.23-.04-.23-.04Z"/>
        <g>
          <path class="cls-13" d="M96.03,4.7c-.21.4,15.28,12.03,15.28,12.03,0,0,.81-.18.87-.82,0,0-15.94-11.6-16.15-11.2Z"/>
          <g>
            <path class="cls-12" d="M126.49,36.65l-1.18-5.71-4.06.87c.1.51.8,2.58,1.58,4.84h3.66Z"/>
            <path class="cls-8" d="M121.25,31.81c-.23-1.23-1.15-11.02-1.15-11.02l6.01-1.98c.48,1.05.95,2.6.4,5.26-.61,2.9-1.2,6.87-1.2,6.87"/>
            <path class="cls-1" d="M121.14,31.03c-.22.32.27,2.07.63,2.43,0,0,2.85-.46,3.85-1.03,0,0,.06-1.58-.17-2.33l-4.31.94Z"/>
            <path class="cls-7" d="M123.18,9.48c.54-.66,1.85-.36,2.67.47.81.83,4.21,5.19,4.44,5.51.24.32.42.74-.01,1.53-.43.79-3.89,4.7-3.89,4.7-.83-.32-1.71-.96-1.52-1.42l2.57-3.98s-3.07-3.05-3.96-4.14c-.75-.92-.83-2.02-.3-2.67Z"/>
            <path class="cls-12" d="M111.89,13.13s-.99-.64-1.93-.72c-.95-.07-2.47.38-2.84.72-.36.34-.76,1.17.4,1.83,1.16.65,1.94-.54,3.17-.12l1.2-1.7Z"/>
            <g>
              <path class="cls-1" d="M123.78,1.37c-.6-.21-3.08-.51-3.73-.68-.64-.16-1.48,1.92-.3,3.01,1.22,1.12,4.02-2.33,4.02-2.33Z"/>
              <path class="cls-10" d="M123.75,6.92l.1,2.51s-1.15.72-2.28.72c-.9,0-.17-.72-.17-.72v-1.08s2.35-1.43,2.35-1.43Z"/>
              <path class="cls-12" d="M123.75,6.92s-.31.66-1.07,1.05-1.65.45-2.04.37c-.32-.06-.69-.35-.85-.72-.19-.42-.19-1.09-.23-1.59-.1-1.21.03-2.4.56-3.23.52-.84,2.32-1.42,3.9-.6.68.35,1.5,1.55,1.48,2.66-.02,1.49-1.09,2.83-1.74,2.06Z"/>
              <path class="cls-1" d="M123.75,6.92c.15.15,1.08-.02,1.14-1.04.05-.98-.84-1.09-1.14-.8s-.27.85-.27.85c0,0-.49.1-.51-.47,0-.15.03-.76.03-.76-.73-.15-.58-1.34-.58-1.34,0,0-1.38,0-2.19-.85,0,0,.35-1.43,2.56-1.29,2.21.14,3.03,1.35,3.02,2.56,0,.74.11,4.22-2,4.4l-.05-1.27Z"/>
            </g>
            <path class="cls-12" d="M120.78,36.65l.49-4.65-4.14-.4c-.06.51-.02,2.68.04,5.05h3.61Z"/>
            <path class="cls-1" d="M117.12,31.6c.15-1.25,2.24-10.85,2.24-10.85l6.48-.02c.14,1.15-.02,2.72-1.36,5.08-1.46,2.58-3.22,6.18-3.22,6.18"/>
            <path class="cls-6" d="M123.85,9.12c1.22.18,1.44.57,1.81.94.61.6.81,1.69.98,3.83.2,2.52.17,8.45.13,8.83,0,0-1.15.84-3.93.76-2.78-.08-3.88-.74-3.96-.93s.09-6.82.27-8.35c.23-1.97.44-3.71,2.24-4.77,1.01.1,1.85.02,2.45-.31Z"/>
            <path class="cls-7" d="M122.34,9.98c.73.44.61,1.79-.1,2.71-.71.92-4.57,4.88-4.85,5.16-.28.28-.68.52-1.52.2s-5.19-3.21-5.19-3.21c.21-.86.71-1.83,1.2-1.7l4.3,2s2.6-3.46,3.55-4.49c.81-.87,1.89-1.1,2.61-.66Z"/>
            <path class="cls-5" d="M117.26,30.82c-.31.24-.37,2.06-.13,2.5,0,0,2.86.43,3.98.18,0,0,.54-1.49.54-2.27l-4.39-.41Z"/>
          </g>
          <path class="cls-1" d="M84.25,26.88s-.06,0-.09-.02c-.08-.05-.1-.15-.06-.23l12.8-21.01c.05-.08.15-.1.23-.06.08.05.1.15.06.23l-12.8,21.01c-.03.05-.09.08-.14.08Z"/>
        </g>
        <path class="cls-14" d="M137.43,38.93s.42-4.86-.61-8.84c-1.07-4.12-2.32-5.46-2.53-5.84-.21-.38.82.07,2.43,2.7,2.01,3.29,2.7,7.31,2.98,11.18,0,0-.96,1.1-2.27.8Z"/>
        <g>
          <path class="cls-4" d="M141.31,17.4s.02.08.05.23c.03.15.08.38.11.67.02.15.04.31.06.48.01.18.03.36.04.57.04.41.05.86.07,1.36.02.5.02,1.04.03,1.61,0,.57,0,1.18-.04,1.8-.04,1.25-.12,2.58-.25,3.91-.05.67-.15,1.33-.22,1.98-.1.65-.19,1.29-.31,1.91-.13.61-.22,1.22-.37,1.77-.14.56-.26,1.09-.43,1.57-.08.24-.15.47-.22.69-.07.22-.16.42-.23.61-.16.38-.27.73-.42.99-.15.26-.22.49-.39.58-.16.09-.33.08-.33.08,0,0-.09-.16-.11-.34-.03-.19.11-.36.24-.61.15-.24.25-.57.41-.94.07-.19.16-.37.23-.59.07-.21.14-.44.21-.67.16-.46.29-.98.43-1.53.15-.54.26-1.13.39-1.74.12-.61.22-1.24.34-1.88.08-.65.2-1.3.28-1.95.17-1.31.3-2.63.38-3.87.05-.62.06-1.22.11-1.79.02-.57.05-1.11.06-1.6,0-.5.02-.95,0-1.36,0-.4-.01-.76-.03-1.04,0-.29-.04-.52-.06-.67-.02-.15-.03-.24-.03-.24Z"/>
          <path class="cls-13" d="M141.53,20.35c-.52-.03-.71.68-.74,1.68-.03,1,.15,1.47.69,1.45.54-.02.63-.71.6-1.56-.03-.85.03-1.53-.55-1.56Z"/>
        </g>
        <path class="cls-11" d="M82.9,26.37s-.05.02-.14.06c-.05.02-.09.06-.14.09-.04.05-.08.09-.1.15-.01.03,0,.06,0,.09.01.03.01.06.03.09.03.06.09.12.15.18.04.03.07.06.11.08.04.02.09.05.13.07.09.04.18.09.28.12.1.03.2.07.3.09.1.02.2.06.3.07.1.01.19.04.29.05.09.01.18.02.26.04.16.03.3.04.4.06.1.02.15.03.15.03,0,0-.05.02-.15.04-.1.02-.24.06-.41.07-.17.02-.37.03-.59,0-.11,0-.22-.02-.33-.04-.11-.02-.23-.06-.34-.09-.11-.04-.22-.09-.33-.15-.1-.06-.2-.13-.28-.22-.08-.09-.15-.19-.18-.31-.02-.06-.01-.12-.02-.18.02-.06.03-.12.06-.16.06-.09.14-.14.21-.17.07-.02.14-.04.19-.04.1,0,.16,0,.16,0Z"/>
        <path class="cls-11" d="M83.84,24.94s-.08,0-.23.02c-.07,0-.16,0-.27.01-.1.01-.21.02-.34.03-.12,0-.26.03-.4.05-.14.02-.29.04-.44.08-.15.02-.3.07-.46.11-.16.04-.3.1-.45.16-.14.07-.29.13-.42.21-.14.08-.26.17-.37.26-.05.05-.1.1-.15.15-.04.06-.08.11-.12.16-.06.11-.12.22-.14.34,0,.03-.01.06-.02.08,0,.03,0,.05,0,.08,0,.05,0,.1,0,.15.02.09.03.18.06.25.06.13.09.21.09.21,0,0-.05-.06-.15-.18-.05-.06-.07-.15-.12-.25-.02-.05-.02-.11-.04-.17-.02-.06-.02-.13,0-.2,0-.14.05-.28.11-.43.04-.07.08-.14.12-.21.05-.06.11-.13.16-.19.12-.12.25-.24.4-.33.14-.1.31-.17.47-.25.17-.06.33-.12.5-.16.17-.04.33-.08.49-.09.16-.03.32-.04.46-.03.15,0,.29,0,.42,0,.26.01.47.05.61.08.15.03.23.05.23.05Z"/>
        <path class="cls-11" d="M113.45,36.65s.27-.01.73-.03c.47-.01,1.14-.05,1.94-.06.8-.01,1.74-.04,2.74-.05,1,0,2.07-.01,3.14-.02,1.07,0,2.14.01,3.14.02,1,0,1.94.04,2.74.05.8.01,1.47.05,1.94.06.47.02.73.03.73.03,0,0-.27.01-.73.03-.47.01-1.14.05-1.94.06-.8.01-1.74.04-2.74.05-1,0-2.07.01-3.14.02-1.07,0-2.14-.01-3.14-.02-1,0-1.94-.04-2.74-.05-.8-.01-1.47-.05-1.94-.06-.47-.02-.73-.03-.73-.03Z"/>
      </g>
    </g>
  </g>
</svg>