<?xml version="1.0" encoding="UTF-8"?>
<svg id="_圖層_2" data-name="圖層_2" xmlns="http://www.w3.org/2000/svg" viewBox="0 0 159.73 140.61">
  <defs>
    <style>
      .cls-1 {
        fill: #f0891a;
      }

      .cls-2 {
        fill: #3e3a39;
      }

      .cls-3 {
        fill: #e73820;
      }

      .cls-4 {
        fill: none;
        stroke: #e73820;
        stroke-miterlimit: 10;
      }
    </style>
  </defs>
  <g id="_圖層_1-2" data-name="圖層_1">
    <g>
      <path class="cls-1" d="M69.87,48.53s-.07-.09-.11-.13c-.31-.31-.62-.62-.93-.93-.55-.54-.95-.54-1.5,0-.82.81-1.63,1.63-2.45,2.45-1.18,1.18-2.36,2.35-3.53,3.53-.45.46-.49.88-.11,1.3.39.43.81.83,1.19,1.23,2.51-2.51,4.96-4.96,7.45-7.45M94.67,68.6c.6.08,1.14.14,1.76.22-.1.86-.2,1.69-.31,2.52-.39,2.97-.78,5.95-1.17,8.92-.39,2.92-.77,5.84-1.16,8.76-.12.94-.26,1.88-.37,2.83-.17,1.4-1.26,2.39-2.68,2.39-6.56,0-13.12,0-19.68,0-1.46,0-2.52-.97-2.7-2.42-.49-3.79-1.01-7.58-1.51-11.37-.53-4.04-1.05-8.09-1.58-12.13-.19-1.45-.39-2.89-.6-4.45-.19.17-.33.29-.47.42-1.34,1.33-2.67,2.67-4.01,4-.62.62-1.02.62-1.64.01-.73-.72-1.46-1.45-2.18-2.18-1.22-1.23-1.22-2.76,0-3.99,1.46-1.47,2.92-2.93,4.39-4.39.14-.14.32-.24.56-.41-.49-.48-.89-.85-1.27-1.23-1.14-1.16-1.14-2.71,0-3.87,2.01-2.03,4.04-4.05,6.06-6.06,1.18-1.17,2.73-1.17,3.91-.02.38.37.73.77,1.19,1.25.39-.48.74-.9,1.11-1.36.47.53.85.95,1.33,1.49-.1.07-.31.16-.47.32-5.12,5.11-10.24,10.23-15.36,15.35-.76.77-.76,1.09.01,1.86.48.48.96.95,1.44,1.43.02.02.07.03.07.03,7.03-7.03,14.05-14.05,21.08-21.09-.59-.6-1.18-1.24-1.82-1.84-.4-.38-.84-.32-1.27.1-.63.61-1.26,1.23-1.88,1.85,0,0-.03,0-.03,0-.4-.41-.79-.81-1.12-1.15.68-.73,1.35-1.56,2.15-2.26.94-.82,2.39-.74,3.33.12.89.81,1.74,1.68,2.58,2.55.47.49.41.91-.15,1.48-2.97,2.97-5.93,5.94-8.9,8.9-1.26,1.26-2.51,2.51-3.88,3.88h.74c8.72,0,17.45.01,26.17-.02,1.1,0,1.37.53,1.23,1.48-.24,1.57-.43,3.15-.65,4.81-.58-.07-1.14-.14-1.76-.22.18-1.45.36-2.84.55-4.29h-.68c-8.87,0-17.74,0-26.61-.01-.54,0-.89.2-1.29.53-.77.6-.85,1.28-.71,2.19.41,2.62.71,5.26,1.06,7.88.35,2.67.7,5.33,1.05,7.99.35,2.63.69,5.26,1.04,7.89.19,1.45.37,2.9.57,4.35.07.52.4.81.93.84.13,0,.26,0,.39,0h18.91c.99,0,1.21-.2,1.34-1.17.61-4.6,1.23-9.21,1.84-13.81.39-2.93.76-5.87,1.15-8.89"/>
      <path class="cls-1" d="M72.96,76.65v9.18c0,.92.3,1.38.9,1.37.58-.01.87-.46.87-1.34,0-6.14,0-12.28,0-18.41,0-.11,0-.22,0-.33-.02-.6-.37-1-.87-1.01s-.86.4-.89.99c0,.13,0,.26,0,.39v9.18M71.21,76.62c0-3.21,0-6.41,0-9.62,0-1.35.96-2.48,2.24-2.65,1.39-.19,2.64.66,2.97,2.03.05.23.06.47.06.71,0,6.38,0,12.76,0,19.13,0,1.59-1.12,2.75-2.65,2.75-1.52,0-2.62-1.17-2.62-2.77,0-3.19,0-6.38,0-9.57"/>
      <path class="cls-1" d="M80,76.59c0,3.08,0,6.16,0,9.23,0,.92.3,1.38.89,1.37.58-.01.87-.46.87-1.34v-18.41c0-.13,0-.26,0-.38-.03-.56-.39-.95-.87-.96-.49-.01-.86.4-.89.99,0,.13,0,.26,0,.38,0,3.04,0,6.08,0,9.12M78.24,76.65c0-3.17,0-6.34,0-9.51,0-1.64,1.1-2.81,2.65-2.8,1.52,0,2.62,1.17,2.62,2.77,0,6.4,0,12.79,0,19.19,0,1.37-1,2.52-2.29,2.66-1.38.15-2.59-.69-2.92-2.03-.06-.24-.06-.51-.06-.76,0-3.17,0-6.34,0-9.51"/>
      <path class="cls-1" d="M88.8,76.64v-9.18c0-.92-.3-1.38-.9-1.37-.58.01-.87.46-.87,1.34,0,6.14,0,12.28,0,18.41,0,.15,0,.29,0,.44.04.52.41.89.86.9.45,0,.84-.37.89-.88.02-.16,0-.33,0-.49v-9.18M90.55,76.67c0,3.21,0,6.41,0,9.62,0,1.37-1,2.52-2.29,2.66-1.38.15-2.59-.68-2.92-2.03-.05-.21-.06-.43-.06-.65,0-6.41,0-12.83,0-19.24,0-1.54,1.14-2.7,2.65-2.69,1.5,0,2.62,1.16,2.62,2.72,0,3.21,0,6.41,0,9.62"/>
      <path class="cls-1" d="M96.77,53.09c-.83-1.21-1.62-2.36-2.43-3.55-.81.16-1.69.31-2.56.52-.14.03-.35.3-.33.42.17,1.07.4,2.13.61,3.21,1.63-.21,3.15-.4,4.71-.59M89.68,49.95q0-1.3,1.61-1.64c1.11-.23,2.22-.45,3.33-.67.47-.09.91-.03,1.12.46.79,1.86,2.15,3.35,3.31,4.96.24.33.45.69.21,1.05-.16.24-.48.49-.75.53-2.26.32-4.53.61-6.79.88-.72.09-1.02-.12-1.18-.83-.33-1.45-.92-2.86-.86-4.73"/>
      <path class="cls-1" d="M85.69,55.47c-.33-.82-.65-1.66-.99-2.48-.05-.13-.22-.25-.36-.29-.63-.17-1.27-.33-1.91-.47-.12-.03-.33-.03-.39.05-.53.67-1.03,1.35-1.5,1.98,1.56,1.25,3.28,1.49,5.16,1.21M84.47,57.29c-1.35.31-2.81-.23-4.22-1.07-.47-.28-.98-.48-1.47-.74-.6-.32-.73-.87-.33-1.42.83-1.14,1.69-2.26,2.53-3.39.27-.37.63-.49,1.06-.39,1.12.27,2.24.53,3.34.87.3.09.63.39.76.68.59,1.35,1.13,2.73,1.66,4.11.31.8-.07,1.34-.93,1.34-.7,0-1.39,0-2.4,0"/>
      <path class="cls-1" d="M107.44,45.05c-.11.54-.22,1.09-.33,1.67-2.51-.41-4.79.07-6.85,1.6-.35-.46-.69-.89-1.02-1.31,1.47-1.66,5.68-2.77,8.2-1.96"/>
      <path class="cls-1" d="M99.32,41.51v1.68c-1.53.2-2.45,1.05-2.63,2.64h-1.69c-.26-2.18,2.11-4.56,4.32-4.32"/>
      <rect class="cls-1" x="102.9" y="50.28" width="1.68" height="1.7"/>
      <rect class="cls-1" x="91.46" y="41.5" width="1.69" height="1.68"/>
      <path class="cls-4" d="M137.61,140.11H22.12c-11.94,0-21.62-9.68-21.62-21.63V22.13C.5,10.18,10.18.5,22.12.5h115.5c11.94,0,21.62,9.68,21.62,21.63v96.35c0,11.94-9.68,21.63-21.62,21.63Z"/>
      <g>
        <path class="cls-3" d="M49.45,11.44c-1.6,1.89-3.49,4.29-4.93,6.82.68.09,1.62.16,2.56.14l.07-2.39c.36-.23,1.51-.52,2.04-.58l.07.07v2.92c.23,0,.88-.05,1.3-.09l.02.05c-.13.56-.31.99-.54,1.28-.31.13-.56.14-.77.18v2.23c0,.29-.2.38-.54.43-.52.09-1.46.11-1.76.11.05-.88.11-2.18.11-2.77-1.35,0-3.31-.11-4.02-.25-.14-.07-.58-.68-.58-1.01.92-1.71,3.67-5.56,4.57-6.5.65-.4,1.75-.68,2.36-.76l.05.11Z"/>
        <path class="cls-3" d="M53.5,20.91c0,1.17-.86,2.5-1.71,3.1-.49.34-1.1.41-1.71.4.81-.97,1.28-2.2,1.28-3.38,0-.34-.05-.61-.11-.81.43-.2,1.03-.47,1.55-.47s.7.65.7,1.17Z"/>
        <path class="cls-3" d="M61.1,11.44c-1.6,1.89-3.49,4.29-4.93,6.82.68.09,1.62.16,2.56.14l.07-2.39c.36-.23,1.51-.52,2.03-.58l.07.07v2.92c.23,0,.88-.05,1.3-.09l.02.05c-.13.56-.31.99-.54,1.28-.31.13-.56.14-.77.18v2.23c0,.29-.2.38-.54.43-.52.09-1.46.11-1.76.11.05-.88.11-2.18.11-2.77-1.35,0-3.31-.11-4.02-.25-.14-.07-.58-.68-.58-1.01.92-1.71,3.67-5.56,4.57-6.5.65-.4,1.75-.68,2.36-.76l.05.11Z"/>
        <path class="cls-3" d="M69.79,14.36c0,1.21-.77,1.85-1.76,2.43,1.42.76,2.2,1.42,2.2,2.88,0,1.78-1.6,3.06-3.82,3.06-2.92,0-3.69-1.66-3.69-2.83,0-1.31.97-2,2.12-2.61-1.3-.72-1.71-1.62-1.71-2.63,0-1.51,1.21-2.99,3.44-2.99,2,0,3.22,1.17,3.22,2.68ZM68.04,19.97c0-.74-.56-1.31-2.11-2.03-.79.5-1.15,1.13-1.15,1.84,0,.96.74,1.67,1.73,1.67.86,0,1.53-.58,1.53-1.48ZM65.09,14.28c0,.79.52,1.3,1.89,1.93.56-.43.94-.99.94-1.75,0-.85-.5-1.51-1.44-1.51-.79,0-1.39.54-1.39,1.33Z"/>
        <path class="cls-3" d="M78.58,11.96c-.05,2.47-3.33,9.02-4.29,10.1-.29.32-.61.49-1.15.59-.5.07-.96.09-1.28.07l-.02-.07c1.64-2.03,3.69-6,4.59-9.04h-4.09c-1.21,0-1.35-.22-1.3-.56.05-.36.52-1.03.88-1.33.23.14.74.16,1.55.16h5.02l.07.07Z"/>
        <path class="cls-3" d="M81.87,21.36c0,.83-.52,1.35-1.31,1.35-.58,0-1.22-.4-1.22-1.28,0-.74.45-1.37,1.33-1.37.74,0,1.21.61,1.21,1.3Z"/>
        <path class="cls-3" d="M90.29,17.11c0,3.73-1.46,5.62-3.92,5.62-1.91,0-3.8-1.28-3.8-5.47,0-2.57.99-5.58,4.01-5.58,3.26,0,3.71,3.53,3.71,5.44ZM84.82,17.11c0,3.42.94,4.29,1.69,4.29.65,0,1.55-.52,1.55-4.34,0-2.77-.63-4.05-1.62-4.05-1.04,0-1.62,1.64-1.62,4.11Z"/>
      </g>
      <path class="cls-3" d="M92.9,22.22l2.24-8.99h.92l-2.24,8.99h-.92ZM102.2,14.71c-.75,1.49-1.73,2.73-2.96,3.72-.08-.13-.24-.35-.48-.64-.11-.13-.19-.24-.24-.32,1.25-.93,2.13-2,2.64-3.2l1.04.44h0ZM101.44,21.86c-.88.05-1.55.09-2,.12l-.28-.96c.11,0,.27-.01.48-.04h.44c1.04-1.44,1.94-2.92,2.72-4.44l1.12.52c-.75,1.2-1.59,2.48-2.52,3.84l4.08-.24c-.19-.24-.45-.57-.8-1-.24-.35-.43-.6-.56-.76l.84-.56c.48.59,1.23,1.51,2.24,2.76.27.29.47.52.6.68l-.96.64-.68-.88c-1.01.05-2.58.16-4.72.32h0ZM108.27,17.19c-.24.4-.43.69-.56.88-1.57-1.04-2.68-2.37-3.32-4h-2.48v-.84h3.28c.67,1.65,1.73,2.92,3.2,3.8-.03.03-.07.08-.12.16h0ZM108.93,21.5v-7.87h2.08v7.75h-.68v-.6h-.64v.72h-.76ZM109.69,14.59v5.24h.64v-5.24h-.64ZM111.41,14.67v-.88h1.08v-.88h.88v.88h1.08v.88h-1.12v3.44h.48v-2.6h.56v3.88h-.56v-.4h-.44v1.6l1.04-.56c0,.11.01.28.04.52,0,.21.01.37.04.48-.45.16-1.17.55-2.16,1.16l-.48-.84.64-.24v-2.12h-.4v.44h-.56v-3.8h.56v2.48h.48v-3.44h-1.16ZM115.4,21.98c-.21.21-.37.37-.48.48-.05-.05-.15-.15-.28-.28-.16-.13-.28-.24-.36-.32.48-.4.92-.79,1.32-1.16l.64.48c-.13.13-.41.4-.84.8h0ZM114.68,14.15v-.84h3.44v.84h-1.32l-.16.84h1.28v5.51h-3.04v-5.51h.88l.12-.84h-1.2ZM115.64,15.75v.88h1.44v-.88h-1.44ZM115.64,17.31v.88h1.44v-.88h-1.44ZM115.64,18.87v.88h1.44v-.88h-1.44ZM117.68,22.38c-.4-.45-.8-.85-1.2-1.2l.64-.52c.45.4.87.8,1.24,1.2l-.68.52Z"/>
      <g>
        <path class="cls-3" d="M63.36,28.34c-.91,1.07-1.98,2.43-2.8,3.87.39.05.92.09,1.45.08l.04-1.36c.2-.13.86-.3,1.16-.33l.04.04v1.66c.13,0,.5-.03.74-.05v.03c-.06.32-.16.56-.3.73-.17.07-.32.08-.44.1v1.27c0,.16-.11.21-.31.25-.3.05-.83.06-1,.06.03-.5.06-1.24.06-1.57-.77,0-1.88-.06-2.28-.14-.08-.04-.33-.39-.33-.57.52-.97,2.09-3.16,2.6-3.69.37-.23.99-.39,1.34-.43l.03.06Z"/>
        <path class="cls-3" d="M65.68,33.71c0,.67-.49,1.42-.97,1.76-.28.19-.62.24-.97.22.46-.55.73-1.25.73-1.92,0-.19-.03-.35-.06-.46.25-.11.58-.27.88-.27s.4.37.4.66Z"/>
        <path class="cls-3" d="M69.98,28.34c-.91,1.07-1.98,2.43-2.8,3.87.39.05.92.09,1.45.08l.04-1.36c.2-.13.86-.3,1.16-.33l.04.04v1.66c.13,0,.5-.03.74-.05v.03c-.06.32-.16.56-.3.73-.17.07-.32.08-.44.1v1.27c0,.16-.11.21-.31.25-.3.05-.83.06-1,.06.03-.5.06-1.24.06-1.57-.77,0-1.88-.06-2.28-.14-.08-.04-.33-.39-.33-.57.52-.97,2.09-3.16,2.6-3.69.37-.23.99-.39,1.34-.43l.03.06Z"/>
        <path class="cls-3" d="M74.93,29.99c0,.68-.44,1.05-1,1.38.81.43,1.25.81,1.25,1.64,0,1.01-.91,1.74-2.17,1.74-1.66,0-2.1-.94-2.1-1.61,0-.75.55-1.13,1.21-1.48-.74-.41-.97-.92-.97-1.49,0-.86.69-1.7,1.95-1.7,1.13,0,1.83.66,1.83,1.52ZM73.94,33.18c0-.42-.32-.75-1.2-1.16-.45.29-.65.64-.65,1.04,0,.54.42.95.98.95.49,0,.87-.33.87-.84ZM72.26,29.95c0,.45.3.74,1.07,1.09.32-.25.53-.56.53-.99,0-.48-.29-.86-.82-.86-.45,0-.79.31-.79.76Z"/>
        <path class="cls-3" d="M79.94,28.63c-.03,1.4-1.89,5.12-2.43,5.74-.16.18-.35.28-.65.34-.29.04-.54.05-.73.04v-.04c.92-1.16,2.09-3.4,2.6-5.13h-2.32c-.69,0-.77-.12-.74-.32.03-.2.3-.58.5-.76.13.08.42.09.88.09h2.85l.04.04Z"/>
        <path class="cls-3" d="M81.82,33.97c0,.47-.3.77-.75.77-.33,0-.7-.22-.7-.73,0-.42.26-.78.76-.78.42,0,.68.35.68.74Z"/>
        <path class="cls-3" d="M86.6,31.56c0,2.12-.83,3.19-2.23,3.19-1.08,0-2.16-.73-2.16-3.11,0-1.46.56-3.17,2.28-3.17,1.85,0,2.11,2,2.11,3.09ZM83.49,31.56c0,1.94.53,2.43.96,2.43.37,0,.88-.3.88-2.46,0-1.57-.36-2.3-.92-2.3-.59,0-.92.93-.92,2.33Z"/>
        <path class="cls-3" d="M90.46,34.36c0,.18-.03.25-.24.28-.36.04-.67.05-1.04.05.02-.54.03-1.17.03-1.86v-1.72c0-.28-.04-.43-.18-.53v-.06c.1-.26.46-.51.75-.51.44,0,.55.37.61.69.42-.35.96-.69,1.49-.69.66,0,1.02.32,1.24.75.4-.37,1-.75,1.56-.75,1.16,0,1.46.99,1.46,1.77v1.39c0,.53.02,1.09.04,1.44-.24.02-.65.08-1.08.08-.13,0-.19-.06-.19-.19v-2.63c0-.57-.27-.93-.77-.93-.36,0-.62.19-.84.39v3.05c0,.18-.02.24-.24.27-.36.05-.67.05-1.03.05.02-.54.03-1.17.03-1.86v-.96c0-.58-.28-.93-.76-.93-.33,0-.62.17-.85.39v3.04Z"/>
        <path class="cls-3" d="M99.91,33.7c.05.25,0,.56-.17.72-.25.21-.67.33-1.12.33-1.03,0-1.37-.67-1.37-1.38v-2.44c-.39,0-.58-.17-.58-.29.15-.29.97-1.03,1.16-1.18.16-.14.36-.27.76-.31-.03.31-.06.69-.06.97h1.51c-.12.71-.35.74-.55.76-.23.02-.55.04-.98.04-.04.84-.03,1.83,0,2.26.05.5.34.68.68.68.3,0,.58-.11.72-.18l.02.02Z"/>
      </g>
      <path class="cls-2" d="M52.39,104.38l-.46.46c-.36-.41-.86-.86-1.49-1.34l.46-.45c.59.45,1.1.89,1.49,1.33ZM52.38,105.77c-.36,1.1-.76,2.14-1.2,3.11l-.59-.26c.47-1.01.88-2.03,1.22-3.08l.57.23ZM52.57,102.07l-.46.46c-.34-.38-.8-.78-1.39-1.2l.46-.45c.55.4,1.01.79,1.39,1.19ZM53.1,109.03l-.48-.43c.57-.55.86-1.25.87-2.1v-1.77h4.25v3.53c0,.48-.27.72-.79.72h-1.04l-.14-.56c.36,0,.7.02,1.01.02.23,0,.34-.14.34-.41v-.46h-3.17c-.16.57-.45,1.05-.85,1.46ZM55.25,101.34v-.57h.64v.57h2.39v.54h-2.39v.59h2.05v.52h-2.05v.61h2.64v.54h-5.89v-.54h2.61v-.61h-1.96v-.52h1.96v-.59h-2.33v-.54h2.33ZM54.1,106.47c0,.22-.03.41-.05.6h3.06v-.65h-3.02v.05ZM57.12,105.25h-3.02v.67h3.02v-.67ZM60.49,104.11v-2.13h-1.11v-.61h2.87v.61h-1.1v2.13h.99v.62h-.99v2.04c.34-.12.67-.24.99-.39v.63c-.83.34-1.72.63-2.67.86l-.16-.62c.4-.07.79-.16,1.18-.27v-2.26h-.98v-.62h.98ZM67.09,101.13v4.16h-1.87v1.06h2.03v.61h-2.03v1.17h2.36v.62h-5.42v-.62h2.41v-1.17h-2.03v-.61h2.03v-1.06h-1.88v-4.16h4.4ZM64.57,102.93v-1.22h-1.26v1.22h1.26ZM64.57,103.5h-1.26v1.22h1.26v-1.22ZM65.22,102.93h1.25v-1.22h-1.25v1.22ZM66.47,103.5h-1.25v1.22h1.25v-1.22ZM73.11,101.48h3.32v.59h-6.7v2.48c.5-.14.95-.32,1.33-.5-.23-.16-.51-.33-.85-.51l.42-.27c.36.2.65.37.87.53.34-.22.62-.46.83-.72h-2.08v-.5h2.77v.41c-.37.64-1,1.17-1.88,1.58h1.47v1.71h-1.66l-.1.68h1.81c0,.8-.05,1.33-.14,1.59-.11.27-.53.42-1.27.44-.25,0-.5-.02-.75-.04l-.13-.53c.24.02.5.04.75.04.5,0,.8-.07.88-.2.07-.13.11-.4.11-.81h-1.83l.2-1.67h1.6v-.73h-1.58v-.23c-.16.05-.33.12-.5.17l-.29-.39c-.05,1.84-.35,3.31-.93,4.44l-.49-.44c.49-.99.75-2.36.77-4.11v-3.02h3.34c-.13-.23-.25-.44-.4-.64l.69-.12c.14.23.26.48.39.76ZM75.33,102.6c-.22.29-.48.56-.79.83.16.13.33.24.53.36.33-.31.6-.6.81-.89l.49.23c-.23.31-.51.6-.85.9.32.15.67.3,1.04.42l-.37.44c-.26-.11-.5-.21-.73-.32v.72c0,.11.07.16.23.16h.52v.5h-.67c-.41,0-.6-.18-.6-.54v-.46h-1.01c0,.26-.05.48-.15.65-.12.18-.32.36-.59.53l-.41-.36c.25-.18.43-.35.52-.51.07-.17.12-.43.12-.78h1.83c-.95-.49-1.66-1.07-2.09-1.74l.46-.26c.14.23.32.44.54.65.27-.26.5-.51.67-.76l.49.23ZM75.82,106.27v.48c-.16.41-.41.78-.71,1.1.44.25.85.5,1.21.76l-.42.42c-.34-.27-.74-.54-1.19-.81-.44.33-.97.6-1.6.81l-.23-.53c.5-.16.94-.36,1.3-.59-.34-.2-.71-.4-1.11-.59l.36-.33c.42.2.82.4,1.18.59.25-.23.45-.5.61-.79h-2.06v-.5h2.66ZM80.55,107.54c-.76.54-1.68,1.02-2.79,1.41l-.38-.5c1.1-.36,2.02-.78,2.76-1.26l.41.35ZM80.27,101.42c.2-.23.4-.49.59-.75l.67.22c-.14.18-.3.36-.44.53h4.23v.57h-1.75c.65.47,1.14.89,1.5,1.25l-.49.33c-.18-.2-.4-.4-.63-.59-1.78.2-3.61.33-5.48.41l-.17-.53c.2-.02.37-.06.52-.12.32-.22.62-.46.92-.75h-2.19v-.57h2.72ZM83.45,104.01v-.42h.6v.42h1.23v.56h-1.23v1.21h-2.3v.54h3.54v.57h-3.54v2.14h-.59v-2.14h-3.55v-.57h3.55v-.54h-2.37v-1.21h-1.2v-.56h1.2v-.36h.6v.36h1.76v-.53h.59v.53h1.69ZM79.4,104.57v.67h1.76v-.67h-1.76ZM79.48,102.86c1.28-.05,2.58-.15,3.93-.32-.16-.13-.33-.26-.51-.39l.26-.16h-2.61c-.36.34-.71.64-1.06.87ZM83.45,104.57h-1.69v.67h1.69v-.67ZM82.39,107.56l.39-.37c.78.29,1.7.72,2.75,1.3l-.45.45c-.88-.53-1.78-.99-2.69-1.38ZM86.85,104.6l-.57-.16c.34-.95.53-1.95.58-3.01l.57.05c-.02.4-.05.79-.11,1.18h.63v-1.87h.63v1.87h.76v.63h-.76v2.16c.25-.12.49-.23.72-.36v.61c-.23.13-.48.24-.72.36v2.97h-.63v-2.7c-.46.18-.93.35-1.41.5l-.15-.63c.54-.13,1.06-.29,1.57-.49v-2.43h-.74c-.1.45-.22.89-.36,1.31ZM91.08,100.92c-.1.47-.21.9-.33,1.3h3.49c0,3.01-.04,4.86-.14,5.56-.1.79-.59,1.19-1.46,1.19-.13,0-.35,0-.68-.03l-.15-.59c.29.02.53.04.74.04.55,0,.86-.29.95-.86.06-.5.1-2.07.12-4.68h-.61c-.2,1.5-.47,2.69-.82,3.57-.41.94-1.03,1.78-1.85,2.53l-.4-.51c.76-.68,1.31-1.44,1.69-2.27.35-.84.61-1.94.78-3.31h-.7c-.36,1.96-1.04,3.39-2.05,4.28l-.42-.49c.93-.79,1.56-2.06,1.9-3.79h-.62c-.24.58-.51,1.04-.82,1.42l-.48-.41c.58-.72.99-1.76,1.24-3.11l.61.16ZM99.11,103.42v-.58h-3.52v-.56h3.52v-.65c-.91.05-1.85.1-2.84.14l-.11-.53c2.34-.07,4.41-.21,6.2-.41l.2.54c-.86.09-1.8.16-2.8.23v.68h3.54v.56h-3.54v.58h2.79v2.99h-2.79v.62h3.22v.52h-3.22v.68h3.66v.57h-7.96v-.57h3.65v-.68h-3.2v-.52h3.2v-.62h-2.78v-2.99h2.78ZM99.11,104.65v-.71h-2.16v.71h2.16ZM99.11,105.15h-2.16v.73h2.16v-.73ZM99.76,104.65h2.16v-.71h-2.16v.71ZM101.92,105.15h-2.16v.73h2.16v-.73ZM112.48,103.61v.49h-8.07v-.49h8.07ZM111.59,104.54v2.3h-2.83v.5h3.05v.43h-3.05v.53h3.71v.5h-8.05v-.5h3.69v-.53h-3.02v-.43h3.02v-.5h-2.79v-2.3h6.27ZM111.4,100.91v2.22h-5.88v-2.22h5.88ZM108.11,105.51v-.56h-2.17v.56h2.17ZM108.11,105.88h-2.17v.55h2.17v-.55ZM110.77,101.83v-.52h-4.62v.52h4.62ZM110.77,102.22h-4.62v.53h4.62v-.53ZM108.76,105.51h2.21v-.56h-2.21v.56ZM110.97,105.88h-2.21v.55h2.21v-.55Z"/>
      <g>
        <path class="cls-3" d="M58.9,114.88h-1.73c-.14,0-.21-.06-.15-.21.09-.22.2-.36.27-.44.13.04.34.04,1.34.04h3.1c-.02.28-.21.54-.34.6h-1.64v3.95c0,.63.02.93.03,1.11-.21.05-.48.07-.72.07-.09,0-.15-.03-.15-.16v-4.97Z"/>
        <path class="cls-3" d="M65.4,117.93c0,1.22-.78,2.13-2.01,2.13-1.33,0-2-.97-2-2.05,0-1.2.84-2.13,2.03-2.13,1.26,0,1.97.87,1.97,2.05ZM62.24,117.91c0,1.08.55,1.62,1.23,1.62.54,0,1.09-.45,1.09-1.53,0-.77-.35-1.58-1.18-1.58-.6,0-1.13.54-1.13,1.5Z"/>
        <path class="cls-3" d="M68.61,119.28c.05.18,0,.41-.16.54-.19.15-.53.24-.86.24-.82,0-1.13-.51-1.13-1.2v-2.32c-.32,0-.45-.1-.45-.2.1-.19.68-.71.81-.83.12-.11.27-.2.49-.24-.03.29-.05.51-.05.71h1.44c-.09.47-.29.51-.45.53-.3.02-.35.03-1,.03-.04.91-.03,1.86,0,2.25.04.53.34.66.65.66.26,0,.53-.09.68-.19l.03.02Z"/>
        <path class="cls-3" d="M72.71,119.48c.02.39-.21.58-.61.58s-.6-.27-.65-.56c-.24.26-.66.56-1.15.56-.63,0-1.07-.48-1.07-1.04,0-.97,1.24-1.23,1.73-1.36.16-.04.36-.07.49-.09v-.24c0-.41-.24-.82-.78-.82-.31,0-.64.15-.88.31-.27.13-.41-.06-.45-.34.28-.26.89-.61,1.51-.61.93,0,1.37.66,1.37,1.53,0,.39-.03,1.23-.02,1.79,0,.17.12.28.3.28.05,0,.14,0,.19-.02l.02.03ZM70.6,119.44c.37,0,.64-.24.78-.44.04-.06.06-.15.06-.31v-.64c-.74.11-1.43.36-1.43.86,0,.33.26.53.58.53Z"/>
        <path class="cls-3" d="M73.57,114.92c0-.54-.02-.82-.04-1,.18-.08.55-.13.7-.13.1,0,.13.04.13.59v4.37c0,.44.02.93.04,1.19-.16.04-.6.07-.71.07-.08,0-.12-.03-.12-.12v-4.97Z"/>
        <path class="cls-3" d="M81.62,114.47c.17.53.64,2.21,1.25,4.41.83-2.52,1.31-3.97,1.51-4.63.07,0,.29.02.48.05.15.03.2.12.13.35-.54,1.6-1.25,3.56-1.77,4.95-.07.2-.11.29-.2.35-.07.05-.37.1-.55.1-.23-.84-.72-2.66-1.25-4.49-.28.94-.99,3.26-1.22,4.04-.07.22-.13.31-.25.36-.1.04-.33.09-.51.09-.57-1.79-1.18-3.93-1.86-5.64.17-.08.55-.17.7-.17.14,0,.19.09.34.57.26.86.7,2.22,1.21,4.03.25-.88.76-2.57,1.27-4.22,0-.08-.03-.19-.04-.25.19-.07.38-.13.58-.13.09,0,.14.08.19.22Z"/>
        <path class="cls-3" d="M88.45,119.21c0,.29-.21.57-.37.65-.15.08-.53.2-.89.2-1.28,0-1.97-.75-1.97-2.03,0-1.13.69-2.15,1.9-2.15,1.05,0,1.51.78,1.53,1.51,0,.1,0,.22-.03.29-.03.15-.47.27-.79.33-.25.04-1.15.05-1.8.03,0,.89.57,1.4,1.36,1.4.43,0,.87-.15,1.04-.25l.02.03ZM86.06,117.52c.63.02,1.44,0,1.62,0,.11,0,.18-.08.18-.19,0-.54-.27-.94-.83-.94-.45,0-.9.41-.96,1.13Z"/>
        <path class="cls-3" d="M90.34,114.43c0,.25-.17.47-.45.47-.25,0-.44-.16-.44-.45,0-.33.26-.47.45-.47.27,0,.44.19.44.45ZM90.31,119.74c0,.16-.05.21-.2.23-.13.03-.35.04-.63.05,0-.36.03-.89.03-1.43v-1.53c0-.56-.02-.83-.04-1.03.16-.05.56-.09.7-.09.1,0,.14.05.14.55v3.25Z"/>
        <path class="cls-3" d="M93.62,115.97c.27.06.54.13.75.13.24,0,.47-.03.61-.07.02.04.03.12.03.18,0,.26-.17.4-.5.43-.06,0-.19,0-.25,0,.11.23.15.44.15.63,0,.94-.72,1.4-1.52,1.4-.16,0-.27,0-.38-.04-.11.09-.26.23-.26.28,0,.15.14.25.54.28.43.03.78.04,1.12.07.73.07,1.05.49,1.05,1.04,0,.98-.98,1.62-2.09,1.62s-1.72-.57-1.72-1.2c0-.38.45-.74.86-.95-.3-.12-.54-.37-.56-.72,0-.04.02-.06.08-.1.18-.13.42-.29.55-.44-.44-.2-.74-.63-.74-1.18,0-.83.67-1.45,1.57-1.45.24,0,.49.04.71.09ZM93.07,121.36c.68,0,1.18-.32,1.18-.82,0-.28-.13-.53-.64-.6-.28-.04-.6-.05-.83-.05-.19,0-.35.03-.44.09-.24.13-.45.34-.45.61,0,.51.6.76,1.19.76ZM92.1,117.29c0,.55.34.9.81.9.52,0,.77-.43.77-.91s-.23-.93-.78-.93c-.44,0-.8.36-.8.94Z"/>
        <path class="cls-3" d="M96.51,116.48c.35-.29.8-.6,1.35-.6,1.01,0,1.33.81,1.33,1.68v1.23c0,.55,0,.94.03,1.14-.18.04-.44.07-.7.07-.09,0-.13-.05-.13-.15,0-.18,0-1.43,0-2.22s-.38-1.11-.88-1.11c-.43,0-.83.28-1.01.46v2.76c0,.16-.04.21-.17.23-.23.04-.45.04-.65.04.02-.34.03-.87.03-1.67v-3.41c0-.54-.02-.82-.04-1,.21-.07.54-.13.7-.13.09,0,.13.04.13.59v2.09Z"/>
        <path class="cls-3" d="M102.68,119.28c.05.18,0,.41-.16.54-.19.15-.53.24-.86.24-.82,0-1.13-.51-1.13-1.2v-2.32c-.32,0-.45-.1-.45-.2.1-.19.68-.71.81-.83.12-.11.27-.2.49-.24-.03.29-.05.51-.05.71h1.44c-.09.47-.29.51-.45.53-.3.02-.35.03-1,.03-.04.91-.03,1.86,0,2.25.04.53.34.66.65.66.26,0,.53-.09.68-.19l.03.02Z"/>
      </g>
      <g>
        <path class="cls-3" d="M53.88,126.93c0,1.22-.78,2.13-2.01,2.13-1.33,0-2-.97-2-2.05,0-1.2.84-2.13,2.03-2.13,1.26,0,1.97.87,1.97,2.05ZM50.72,126.91c0,1.08.55,1.62,1.23,1.62.54,0,1.09-.45,1.09-1.53,0-.77-.35-1.58-1.18-1.58-.6,0-1.13.54-1.13,1.5Z"/>
        <path class="cls-3" d="M57.13,122.94c.02.18-.13.46-.33.45-.09-.04-.21-.05-.29-.05-.44,0-.82.39-.8,1.64.15,0,1.01,0,1.23-.02-.02.19-.14.37-.25.45-.12.09-.47.11-.99.11,0,.92.04,2.9.04,3.4-.18.05-.58.07-.71.07-.09,0-.13-.02-.13-.16.02-.97,0-2.04,0-3.31-.37,0-.5-.08-.5-.24.12-.13.25-.22.5-.31,0-1,.28-1.53.65-1.87.34-.31.67-.37.98-.37.26,0,.5.1.58.2Z"/>
        <path class="cls-3" d="M63.9,128.22c-.03.25-.14.45-.29.57-.2.14-.69.3-1.32.3-2.05,0-3.12-1.18-3.12-2.93,0-1.84,1.4-3.01,3.18-3.01.83,0,1.5.28,1.65.45-.03.33-.25.5-.45.44-.26-.14-.72-.27-1.23-.27-1.22,0-2.25.78-2.25,2.34,0,1.36.87,2.36,2.44,2.36.55,0,1.09-.17,1.35-.27l.04.03Z"/>
        <path class="cls-3" d="M64.81,123.92c0-.54-.02-.82-.04-1,.18-.08.55-.13.7-.13.1,0,.13.04.13.59v4.37c0,.44.02.93.04,1.19-.16.04-.6.07-.71.07-.08,0-.12-.03-.12-.12v-4.97Z"/>
        <path class="cls-3" d="M69.83,128.21c0,.29-.21.57-.37.65-.15.08-.53.2-.89.2-1.28,0-1.97-.75-1.97-2.03,0-1.13.69-2.15,1.9-2.15,1.05,0,1.51.78,1.53,1.51,0,.1,0,.22-.03.29-.03.15-.47.27-.79.33-.25.04-1.15.05-1.8.03,0,.89.57,1.4,1.36,1.4.43,0,.87-.15,1.04-.25l.02.03ZM67.44,126.52c.63.02,1.44,0,1.62,0,.11,0,.18-.08.18-.19,0-.54-.27-.94-.83-.94-.45,0-.9.41-.96,1.13Z"/>
        <path class="cls-3" d="M74.06,128.48c.02.39-.21.58-.61.58s-.6-.27-.65-.56c-.24.26-.66.56-1.15.56-.63,0-1.07-.48-1.07-1.04,0-.97,1.24-1.23,1.73-1.36.16-.04.36-.07.49-.09v-.24c0-.41-.24-.82-.78-.82-.31,0-.64.15-.88.31-.27.13-.41-.06-.45-.34.28-.26.89-.61,1.51-.61.93,0,1.37.66,1.37,1.53,0,.39-.03,1.23-.02,1.79,0,.17.12.28.3.28.05,0,.14,0,.19-.02l.02.03ZM71.95,128.43c.37,0,.64-.24.78-.44.04-.06.06-.15.06-.31v-.64c-.74.11-1.43.36-1.43.86,0,.33.26.53.58.53Z"/>
        <path class="cls-3" d="M74.73,125.21c.08-.14.37-.34.53-.34.25,0,.43.32.43.9.29-.59.68-.9,1.11-.9.22,0,.41.12.46.19,0,.14-.05.38-.16.54-.06.08-.15.12-.26.08s-.21-.04-.3-.04c-.2,0-.5.19-.69.63-.06.15-.1.28-.1.48v2c0,.14-.03.2-.16.22-.24.03-.45.04-.66.04.02-.34.03-.87.03-1.67v-1.52c0-.25-.04-.45-.21-.57v-.04Z"/>
        <path class="cls-3" d="M80.75,128.21c0,.29-.21.57-.37.65-.15.08-.53.2-.89.2-1.28,0-1.97-.75-1.97-2.03,0-1.13.69-2.15,1.9-2.15,1.05,0,1.51.78,1.53,1.51,0,.1,0,.22-.03.29-.03.15-.47.27-.79.33-.25.04-1.15.05-1.8.03,0,.89.57,1.4,1.36,1.4.43,0,.87-.15,1.04-.25l.02.03ZM78.35,126.52c.63.02,1.44,0,1.62,0,.11,0,.18-.08.18-.19,0-.54-.27-.94-.83-.94-.45,0-.9.41-.96,1.13Z"/>
        <path class="cls-3" d="M84.55,123.8c0-.48-.02-.7-.04-.88.16-.06.55-.13.69-.13.1,0,.14.04.14.59v4.62c0,.42.14.51.42.55v.03c-.04.22-.24.47-.44.47-.43,0-.61-.24-.67-.51-.37.29-.94.51-1.29.51-.97,0-1.77-.71-1.77-1.98s.98-2.21,2.27-2.21c.33,0,.59.08.7.13v-1.2ZM84.55,125.56c-.13-.06-.39-.14-.72-.14-.7,0-1.41.5-1.41,1.56,0,.88.54,1.42,1.27,1.42.28,0,.63-.12.85-.28v-2.57Z"/>
        <path class="cls-3" d="M92.65,123.47c.17.53.64,2.21,1.25,4.41.83-2.52,1.31-3.97,1.51-4.63.07,0,.29.02.48.05.15.03.2.12.13.35-.54,1.6-1.25,3.56-1.77,4.95-.07.2-.11.29-.2.35-.07.05-.37.1-.55.1-.23-.84-.72-2.66-1.25-4.49-.28.94-.99,3.26-1.22,4.04-.07.22-.13.31-.25.36-.1.04-.33.09-.51.09-.57-1.79-1.18-3.93-1.86-5.64.17-.08.55-.17.7-.17.14,0,.19.09.34.57.26.86.7,2.22,1.21,4.03.25-.88.76-2.57,1.27-4.22,0-.08-.03-.19-.04-.25.19-.07.38-.13.58-.13.09,0,.14.08.19.22Z"/>
        <path class="cls-3" d="M99.75,128.48c.02.39-.21.58-.61.58s-.6-.27-.65-.56c-.24.26-.66.56-1.15.56-.63,0-1.07-.48-1.07-1.04,0-.97,1.24-1.23,1.73-1.36.16-.04.36-.07.49-.09v-.24c0-.41-.24-.82-.78-.82-.31,0-.64.15-.88.31-.27.13-.41-.06-.45-.34.28-.26.89-.61,1.51-.61.93,0,1.37.66,1.37,1.53,0,.39-.03,1.23-.02,1.79,0,.17.12.28.3.28.05,0,.14,0,.19-.02l.02.03ZM97.63,128.43c.37,0,.64-.24.78-.44.04-.06.06-.15.06-.31v-.64c-.74.11-1.43.36-1.43.86,0,.33.26.53.58.53Z"/>
        <path class="cls-3" d="M102.75,125.19c0,.19-.11.46-.34.43-.17-.09-.44-.17-.64-.17-.35,0-.6.2-.6.49,0,.25.16.4.36.51.23.13.57.28.83.43.41.24.6.55.6.94,0,.86-.76,1.24-1.5,1.24-.41,0-.77-.11-.98-.26-.09-.06-.16-.15-.16-.26,0-.16.07-.32.17-.4.28.2.68.35,1.03.35.44,0,.68-.21.68-.53,0-.21-.14-.37-.44-.54-.25-.13-.5-.25-.72-.36-.39-.21-.63-.53-.63-.99,0-.75.64-1.19,1.38-1.19.37,0,.73.11.95.32Z"/>
        <path class="cls-3" d="M106.05,128.28c.05.18,0,.41-.16.54-.19.15-.53.24-.86.24-.82,0-1.13-.51-1.13-1.2v-2.32c-.32,0-.45-.1-.45-.2.1-.19.68-.71.81-.83.12-.11.27-.2.49-.24-.03.29-.05.51-.05.71h1.44c-.09.47-.29.51-.45.53-.3.02-.35.03-1,.03-.04.91-.03,1.86,0,2.25.04.53.34.66.65.66.26,0,.53-.09.68-.19l.03.02Z"/>
        <path class="cls-3" d="M109.76,128.21c0,.29-.21.57-.37.65-.15.08-.53.2-.89.2-1.28,0-1.97-.75-1.97-2.03,0-1.13.69-2.15,1.9-2.15,1.05,0,1.51.78,1.53,1.51,0,.1,0,.22-.03.29-.03.15-.47.27-.79.33-.25.04-1.15.05-1.8.03,0,.89.57,1.4,1.36,1.4.43,0,.87-.15,1.04-.25l.02.03ZM107.36,126.52c.63.02,1.44,0,1.62,0,.11,0,.18-.08.18-.19,0-.54-.27-.94-.83-.94-.45,0-.9.41-.96,1.13Z"/>
      </g>
    </g>
  </g>
</svg>