<?xml version="1.0" encoding="UTF-8"?>
<svg id="_圖層_2" data-name="圖層_2" xmlns="http://www.w3.org/2000/svg" viewBox="0 0 159.73 140.61">
  <defs>
    <style>
      .cls-1 {
        fill: #f0891a;
      }

      .cls-2 {
        fill: #3e3a39;
      }

      .cls-3 {
        fill: #e73820;
      }

      .cls-4 {
        fill: none;
        stroke: #e73820;
        stroke-miterlimit: 10;
      }
    </style>
  </defs>
  <g id="_圖層_1-2" data-name="圖層_1">
    <g>
      <path class="cls-1" d="M74.08,78.62h4.22v-1.33h-4.22v1.33ZM89.29,73.64h11.32v-1.37h-11.32v1.37ZM59.1,69.17h11.32v-1.38h-11.32v1.38ZM94.94,69.38h-2.85c-1.14,0-2.28,0-3.42,0-.6,0-.95.39-.81.89.12.45.48.54.89.54,4.14,0,8.27,0,12.41,0,.1,0,.19,0,.28-.01.38-.09.62-.3.62-.72,0-.4-.25-.6-.61-.68-.14-.03-.28-.02-.43-.02-2.03,0-4.06,0-6.08,0M74.08,88.61h4.23v-8.47h-4.23v8.47ZM70.44,62.08h-11.32v4.23h11.32v-4.23ZM86.58,71.07c-.37-1.13-.26-2.05.56-2.57.62-.39.69-.85.64-1.45-.01-.17.04-.36-.01-.52-.07-.26-.14-.55-.32-.73-1.06-1.1-2.14-2.16-3.22-3.24-.62-.62-1.09-1.33-1.27-2.19-.08-.36-.22-.45-.56-.44-1.3.02-2.6,0-3.9.02-.23,0-.52.13-.69.29-1.1,1.07-2.18,2.17-3.27,3.25-.61.61-1.3,1.06-2.15,1.25-.36.08-.48.22-.47.59.03,1.28.02,2.57,0,3.85,0,.32.1.53.32.74,1.09,1.07,2.15,2.15,3.23,3.23.63.63,1.09,1.36,1.29,2.23.07.32.19.4.5.4,1.33-.01,2.67,0,4-.02.21,0,.46-.12.61-.26.95-.92,1.86-1.87,2.81-2.78.59-.57,1.23-1.08,1.9-1.66M59.11,70.62c-.01.13-.03.21-.02.29.2,1.47-.24,2.78-1,4.01-.14.23-.24.48-.36.72-.48.98-.77,2.02-.79,3.11-.03,3.06-.02,6.12-.01,9.19,0,.81.66,1.44,1.41,1.45.75,0,1.39-.62,1.43-1.43.02-.36,0-.73,0-1.1,0-.73-.1-.86-.81-1.04-.46-.11-.69-.45-.61-.87.08-.37.44-.61.87-.57,1.14.11,1.97,1.01,1.97,2.17,0,.9,0,1.81,0,2.71,0,.88.61,1.54,1.41,1.55.81.01,1.44-.66,1.45-1.56,0-.81,0-1.62,0-2.43,0-.69-.12-.83-.8-1-.46-.11-.7-.45-.62-.86.07-.38.43-.62.86-.58,1.14.1,1.98,1.01,1.98,2.16,0,.9,0,1.81,0,2.71,0,.88.6,1.54,1.4,1.56.8.02,1.44-.66,1.45-1.56,0-.84,0-1.68,0-2.52,0-.58-.17-.78-.74-.9-.5-.11-.75-.44-.67-.87.07-.41.46-.64.95-.57,1.15.17,1.89,1.03,1.9,2.19,0,.92-.02,1.84,0,2.76.03,1.06,1.01,1.73,1.95,1.36.58-.23.91-.77.91-1.53,0-4.11,0-8.22,0-12.33,0-.83.21-1.04,1.03-1.04.56,0,1.12,0,1.68,0,.04-.05.07-.1.11-.15-.32-.47-.59-1-.98-1.41-1.07-1.13-2.2-2.2-3.28-3.31-.22-.23-.45-.3-.75-.3-3.52,0-7.04,0-10.57,0h-.76ZM84.36,59.94c.12.64.44,1.12.86,1.54,1.2,1.2,2.4,2.41,3.6,3.6.31.3.46.62.44,1.05-.02.6,0,1.19,0,1.79h11.38c0-.8.06-1.57-.01-2.32-.19-1.9.22-3.62,1.22-5.24.62-1.01.92-2.17.93-3.35.04-3.08.03-6.15.01-9.23,0-.8-.68-1.43-1.43-1.42-.75,0-1.38.64-1.41,1.45-.01.35,0,.7,0,1.05,0,.77.09.88.83,1.07.43.12.66.43.59.84-.06.38-.42.63-.85.6-1.13-.08-1.99-1-2-2.15,0-.9,0-1.81,0-2.71,0-.91-.62-1.58-1.43-1.58-.81,0-1.42.67-1.43,1.58,0,.79,0,1.59,0,2.38,0,.72.1.85.82,1.04.44.11.67.42.6.83-.06.38-.41.64-.83.61-1.13-.07-2-1-2.01-2.14,0-.9,0-1.81,0-2.71,0-.91-.61-1.58-1.42-1.59-.81,0-1.43.66-1.44,1.57,0,.79,0,1.59,0,2.38,0,.74.1.87.81,1.04.46.11.7.45.61.87-.08.37-.44.61-.87.57-1.14-.11-1.97-1.01-1.98-2.17,0-.92.01-1.84,0-2.76-.02-1.05-.93-1.73-1.87-1.42-.64.22-.98.75-.98,1.57,0,4.12,0,8.25,0,12.37,0,.75-.24.98-1,.99-.57,0-1.14,0-1.73,0M92.24,43.49h1.14c.54.28,1.08.56,1.57.81.49-.26,1.03-.54,1.57-.81h1.14c.97.32,1.74.88,2.13,1.87.1-.05.17-.08.24-.12,2.02-.99,4.19.37,4.19,2.63,0,2.97.02,5.93-.01,8.9,0,.71-.05,1.45-.28,2.11-.47,1.32-1.09,2.59-1.64,3.88-.09.23-.17.48-.17.72-.02,1.39,0,2.79-.02,4.19,0,.29.09.44.34.59,1.32.77,1.48,2.66.23,3.51-.51.35-.63.71-.57,1.23.01.11.01.22,0,.33-.04.29.07.43.36.56,1.13.5,1.73,1.38,1.76,2.64.02.86-.36,1.55-.93,2.15.6.61.93,1.3.94,2.14,0,.86-.37,1.54-.94,2.14.77.77,1.09,1.67.88,2.71-.21,1.03-.87,1.71-1.81,2.13.05.11.08.16.11.22.99,2.03-.35,4.2-2.6,4.21-.87,0-1.75,0-2.62,0-.55,0-.88-.27-.89-.71,0-.44.33-.72.88-.72.87,0,1.75,0,2.62,0,.86-.01,1.53-.65,1.52-1.44-.01-.78-.66-1.39-1.5-1.41-.33,0-.67,0-1,0-.77,0-.87.08-1.07.83-.12.43-.44.66-.84.59-.38-.06-.63-.42-.6-.85.09-1.13,1-1.99,2.15-2,.9,0,1.81,0,2.71,0,.91,0,1.58-.63,1.57-1.43,0-.81-.67-1.41-1.59-1.42-.78,0-1.55,0-2.33,0-.78,0-.88.08-1.08.82-.11.44-.43.66-.83.6-.38-.06-.63-.41-.6-.84.08-1.13,1-2,2.14-2.01.9,0,1.81,0,2.71,0,.91,0,1.58-.62,1.58-1.43,0-.81-.67-1.42-1.58-1.43-.79,0-1.59,0-2.38,0-.73,0-.86.1-1.04.81-.11.44-.42.67-.83.61-.4-.06-.66-.43-.61-.88.11-1.14,1.02-1.96,2.18-1.97.92,0,1.84.01,2.76,0,1.06-.02,1.75-.98,1.4-1.92-.22-.6-.77-.93-1.56-.93-4.12,0-8.25,0-12.38,0-.73,0-.97-.23-.98-.96,0-.58,0-1.17,0-1.79-.65.15-1.13.45-1.55.88-1.2,1.2-2.41,2.4-3.6,3.61-.3.3-.63.45-1.05.44-.6-.02-1.19,0-1.8,0v11.38c.75,0,1.48.06,2.2-.01,1.97-.19,3.78.2,5.47,1.26.83.53,1.8.79,2.8.83,1.3.05,2.6.05,3.9.08.48,0,.79.28.81.69.02.43-.31.73-.81.73-1.06,0-2.13,0-3.19,0-1.12,0-2.21-.19-3.24-.63-.95-.4-1.85-.89-2.79-1.32-.19-.09-.42-.15-.63-.15-3.32,0-6.63,0-9.95-.01-.28,0-.41.09-.52.35-.48,1.14-1.49,1.78-2.73,1.77-.82,0-1.48-.38-2.06-.93-.6.59-1.29.93-2.13.94-.86,0-1.55-.36-2.15-.94-.76.77-1.66,1.09-2.7.88-1.04-.2-1.72-.87-2.15-1.81-1.83,1-3.48.12-4.1-1.07-.13-.25-.22-.52-.33-.78v-10.47c.08-.38.12-.79.26-1.15.54-1.31,1.11-2.61,1.67-3.92.08-.19.18-.38.18-.58.01-3.38,0-6.75,0-10.13,0-.12-.07-.31-.16-.34-1.04-.38-1.62-1.16-1.96-2.17v-1.14c.28-.54.56-1.08.81-1.57-.26-.5-.54-1.03-.81-1.57v-1.14c.28-.54.56-1.08.81-1.57-.26-.49-.53-1.03-.81-1.57v-1.14c.32-.97.87-1.75,1.87-2.13-.05-.11-.1-.2-.14-.28-.79-1.65,0-3.49,1.72-4.06.09-.03.17-.07.25-.11h3.71c.29.26.56.53.38.97-.17.44-.54.46-.94.46-.84-.01-1.68-.02-2.52,0-.83.02-1.48.65-1.48,1.43,0,.77.65,1.4,1.49,1.43.35.01.7,0,1.05,0,.72,0,.85-.1,1.03-.82.11-.44.42-.66.83-.6.38.06.64.41.61.84-.07,1.13-1,2-2.14,2.01-.9,0-1.81,0-2.71,0-.91,0-1.58.61-1.59,1.42,0,.81.66,1.43,1.57,1.43.79,0,1.59,0,2.38,0,.73,0,.86-.11,1.04-.81.11-.45.46-.69.87-.61.37.08.61.44.57.87-.11,1.15-1.01,1.97-2.17,1.97-.89,0-1.78,0-2.67,0-.92,0-1.58.6-1.59,1.41-.01.82.67,1.44,1.61,1.44.79,0,1.59,0,2.38,0,.69,0,.83-.12,1-.8.11-.46.45-.7.87-.61.38.07.61.43.58.86-.11,1.14-1.01,1.97-2.16,1.98-.92,0-1.84-.01-2.76,0-1.05.02-1.73.93-1.42,1.87.21.64.75.99,1.56.99,4.13,0,8.25,0,12.38,0,.75,0,.98.23.99,1,0,.57,0,1.14,0,1.73.64-.12,1.13-.44,1.55-.86,1.2-1.2,2.41-2.39,3.6-3.61.3-.31.62-.44,1.05-.44,2.32.01,4.63,0,6.95,0h.55v-11.38c-2.66,0-5.28-.08-7.89.03-1.98.09-3.78-.22-5.47-1.29-.83-.52-1.8-.79-2.8-.84-1.31-.05-2.63-.03-3.95-.1-.24-.01-.59-.24-.67-.45-.08-.21.1-.53.18-.8.02-.06.11-.1.16-.16h4.47c.38.08.79.12,1.15.26,1.31.54,2.61,1.11,3.92,1.67.19.08.38.18.58.18,3.38.01,6.76.01,10.13,0,.12,0,.3-.08.34-.16.38-1.04,1.16-1.62,2.17-1.96h1.14c.54.28,1.08.56,1.57.81.49-.26,1.03-.54,1.57-.81"/>
      <path class="cls-4" d="M137.61,140.11H22.12c-11.94,0-21.62-9.68-21.62-21.63V22.13C.5,10.18,10.18.5,22.12.5h115.5c11.94,0,21.62,9.68,21.62,21.63v96.35c0,11.94-9.68,21.63-21.62,21.63Z"/>
      <g>
        <path class="cls-3" d="M55.4,11.96c-.05,2.47-3.33,9.02-4.29,10.1-.29.32-.61.49-1.15.59-.5.07-.95.09-1.28.07l-.02-.07c1.64-2.03,3.69-6,4.59-9.04h-4.09c-1.21,0-1.35-.22-1.3-.56.05-.36.52-1.03.88-1.33.23.14.74.16,1.55.16h5.02l.07.07Z"/>
        <path class="cls-3" d="M61.75,11.76c0,1.21.05,8.86.05,10.32,0,.36-.14.43-.47.47-.61.05-1.51.07-1.82.07,0-.96.02-4.88.02-8.84-.49.16-1.87.54-2.5.63l-.05-.05.45-1.22c1.53-.45,3.42-1.13,4.18-1.46l.14.09Z"/>
        <path class="cls-3" d="M66.91,20.91c0,1.17-.86,2.5-1.71,3.1-.49.34-1.1.41-1.71.4.81-.97,1.28-2.2,1.28-3.38,0-.34-.05-.61-.11-.81.43-.2,1.03-.47,1.55-.47s.7.65.7,1.17Z"/>
        <path class="cls-3" d="M68.26,21.97c1.01-.16,2.38-.56,3.37-1.53,1.15-1.13,1.44-2.74,1.44-4.3,0-1.78-.54-3.13-1.67-3.13-.95,0-1.49.95-1.49,2.02,0,1.48.92,2.03,1.75,2.03.23,0,.65-.09.86-.18.02.34-.18,1.01-.43,1.22-.27.25-.81.4-1.48.4-1.71,0-2.88-1.24-2.88-3.11s1.4-3.71,3.85-3.71c2.63,0,3.78,2.21,3.78,4.57,0,1.84-.54,3.62-2.09,5.1-1.42,1.35-3.06,1.71-3.78,1.71-.34,0-.56-.04-.74-.16-.29-.22-.45-.52-.5-.86l.02-.05Z"/>
        <path class="cls-3" d="M83.74,17.11c0,3.73-1.46,5.62-3.92,5.62-1.91,0-3.8-1.28-3.8-5.47,0-2.57.99-5.58,4.01-5.58,3.26,0,3.71,3.53,3.71,5.44ZM78.27,17.11c0,3.42.94,4.29,1.69,4.29.65,0,1.55-.52,1.55-4.34,0-2.77-.63-4.05-1.62-4.05-1.04,0-1.62,1.64-1.62,4.11Z"/>
        <path class="cls-3" d="M91.9,12.32c-1.75.27-3.02.81-3.98,1.91-.9,1.04-1.31,2.52-1.31,3.94,0,2.23.9,3.22,1.87,3.22.9,0,1.46-.81,1.46-1.93,0-1.6-1.03-2-1.69-2-.38,0-.76.07-1.15.27,0-.31.18-.94.41-1.15.4-.34,1.15-.59,1.8-.59,2.02,0,2.77,1.62,2.77,3.01,0,2.25-1.6,3.73-3.83,3.73s-3.93-1.37-3.93-4.5c0-1.82.61-3.37,1.8-4.68,1.51-1.67,3.6-2.21,4.61-2.21.52,0,.95.2,1.21.95l-.04.04Z"/>
      </g>
      <path class="cls-3" d="M94.61,22.22l2.24-8.99h.92l-2.24,8.99h-.92ZM109.98,21.22c-.35.37-.61.71-.8,1-2.26-1.2-3.6-2.93-4-5.2-.4,2.24-1.76,4.01-4.08,5.32-.21-.35-.47-.68-.76-1,2.56-1.31,3.93-3.3,4.12-5.99.05-.64.08-1.44.08-2.4h1.2c-.03.08-.04.32-.04.72-.03.32-.04.56-.04.72.24,3.46,1.68,5.74,4.32,6.83h0Z"/>
      <g>
        <path class="cls-3" d="M56.14,28.63c-.03,1.4-1.89,5.12-2.43,5.74-.16.18-.35.28-.65.34-.29.04-.54.05-.73.04v-.04c.92-1.16,2.09-3.4,2.6-5.13h-2.32c-.69,0-.77-.12-.74-.32.03-.2.3-.58.5-.76.13.08.42.09.88.09h2.85l.04.04Z"/>
        <path class="cls-3" d="M59.76,28.52c0,.69.03,5.03.03,5.86,0,.2-.08.25-.27.27-.35.03-.86.04-1.03.04,0-.54,0-2.77,0-5.02-.28.09-1.06.31-1.42.36l-.03-.03.26-.7c.87-.26,1.94-.64,2.37-.83l.08.05Z"/>
        <path class="cls-3" d="M62.71,33.71c0,.67-.49,1.42-.97,1.76-.28.19-.62.24-.97.22.46-.55.73-1.25.73-1.92,0-.19-.03-.35-.06-.46.25-.11.58-.27.88-.27s.4.37.4.66Z"/>
        <path class="cls-3" d="M63.46,34.32c.57-.09,1.35-.32,1.91-.87.65-.64.82-1.55.82-2.44,0-1.01-.31-1.78-.95-1.78-.54,0-.85.54-.85,1.14,0,.84.52,1.16.99,1.16.13,0,.37-.05.49-.1,0,.19-.1.57-.25.7-.15.14-.46.22-.84.22-.97,0-1.64-.71-1.64-1.77s.8-2.11,2.19-2.11c1.49,0,2.15,1.26,2.15,2.6,0,1.04-.31,2.05-1.19,2.89-.81.77-1.74.97-2.15.97-.19,0-.32-.02-.42-.09-.16-.12-.26-.3-.29-.49v-.03Z"/>
        <path class="cls-3" d="M72.27,31.56c0,2.12-.83,3.19-2.23,3.19-1.08,0-2.16-.73-2.16-3.11,0-1.46.56-3.17,2.28-3.17,1.85,0,2.11,2,2.11,3.09ZM69.16,31.56c0,1.94.53,2.43.96,2.43.37,0,.88-.3.88-2.46,0-1.57-.36-2.3-.92-2.3-.59,0-.92.93-.92,2.33Z"/>
        <path class="cls-3" d="M76.91,28.84c-.99.15-1.72.46-2.26,1.08-.51.59-.75,1.43-.75,2.24,0,1.27.51,1.83,1.06,1.83.51,0,.83-.46.83-1.09,0-.91-.58-1.13-.96-1.13-.21,0-.43.04-.65.15,0-.17.1-.53.24-.65.22-.19.65-.34,1.02-.34,1.14,0,1.57.92,1.57,1.71,0,1.28-.91,2.12-2.18,2.12s-2.23-.78-2.23-2.56c0-1.03.35-1.91,1.02-2.66.86-.95,2.04-1.26,2.62-1.26.3,0,.54.11.68.54l-.02.02Z"/>
        <path class="cls-3" d="M80.88,36.46c0,.18-.02.25-.24.28-.36.04-.67.05-1.04.05.02-.4.03-.97.03-1.67v-4.02c0-.27-.05-.46-.18-.51v-.07c.12-.27.43-.52.78-.52s.51.32.57.59c.56-.39.99-.59,1.44-.59,1.06,0,1.83.87,1.83,2.16,0,1.57-1.13,2.59-2.46,2.59-.29,0-.55-.07-.73-.17v1.89ZM80.88,33.84c.14.06.38.11.58.11.64,0,1.32-.48,1.32-1.62,0-.79-.43-1.38-1.06-1.38-.34,0-.66.16-.84.29v2.6Z"/>
        <path class="cls-3" d="M88.37,33.61c0,.45-.36.87-.53.95-.15.07-.59.18-.95.18-1.48,0-2.31-.82-2.31-2.32,0-1.24.81-2.42,2.2-2.42,1.29,0,1.79.93,1.8,1.76,0,.14-.01.25-.03.34-.05.15-.44.31-.86.41-.26.05-1.32.06-1.87.04.05.9.7,1.28,1.39,1.28.49,0,.97-.15,1.15-.23l.02.02ZM85.83,31.84c.42.03,1.21.02,1.45,0,.07,0,.13-.1.13-.21,0-.5-.22-.91-.74-.91-.4,0-.81.36-.85,1.12Z"/>
        <path class="cls-3" d="M93.57,32.31c0,1.43-.93,2.43-2.35,2.43-1.32,0-2.26-.88-2.26-2.33s.99-2.41,2.36-2.41c1.48,0,2.25,1.04,2.25,2.31ZM90.26,32.28c0,1.17.49,1.71,1.07,1.71.62,0,.95-.62.95-1.56,0-.87-.31-1.68-1.06-1.68-.62,0-.96.64-.96,1.53Z"/>
        <path class="cls-3" d="M95.58,36.46c0,.18-.02.25-.24.28-.36.04-.67.05-1.04.05.02-.4.03-.97.03-1.67v-4.02c0-.27-.05-.46-.18-.51v-.07c.12-.27.43-.52.78-.52s.51.32.57.59c.56-.39.99-.59,1.44-.59,1.06,0,1.83.87,1.83,2.16,0,1.57-1.13,2.59-2.46,2.59-.29,0-.55-.07-.73-.17v1.89ZM95.58,33.84c.14.06.38.11.58.11.64,0,1.32-.48,1.32-1.62,0-.79-.43-1.38-1.06-1.38-.34,0-.66.16-.84.29v2.6Z"/>
        <path class="cls-3" d="M99.53,28.96c0-.6-.02-.88-.04-1.08.2-.09.87-.18,1.08-.18.15,0,.19.05.19.67v4.92c0,.5.02,1.05.04,1.35-.21.05-1,.08-1.13.08-.1,0-.14-.03-.14-.13v-5.61Z"/>
        <path class="cls-3" d="M105.29,33.61c0,.45-.36.87-.53.95-.15.07-.59.18-.95.18-1.48,0-2.31-.82-2.31-2.32,0-1.24.81-2.42,2.2-2.42,1.29,0,1.79.93,1.8,1.76,0,.14-.01.25-.03.34-.05.15-.44.31-.86.41-.26.05-1.32.06-1.87.04.05.9.7,1.28,1.39,1.28.49,0,.97-.15,1.15-.23l.02.02ZM102.75,31.84c.42.03,1.21.02,1.45,0,.07,0,.13-.1.13-.21,0-.5-.22-.91-.74-.91-.4,0-.81.36-.85,1.12Z"/>
      </g>
      <path class="cls-2" d="M37.22,104.38l-.46.46c-.36-.41-.86-.86-1.49-1.34l.46-.45c.59.45,1.1.89,1.49,1.33ZM37.21,105.77c-.36,1.1-.76,2.14-1.2,3.11l-.59-.26c.47-1.01.88-2.03,1.22-3.08l.57.23ZM37.4,102.07l-.46.46c-.34-.38-.8-.78-1.39-1.2l.46-.45c.55.4,1.01.79,1.39,1.19ZM37.93,109.03l-.48-.43c.57-.55.86-1.25.87-2.1v-1.77h4.25v3.53c0,.48-.27.72-.79.72h-1.04l-.14-.56c.36,0,.7.02,1.01.02.23,0,.34-.14.34-.41v-.46h-3.17c-.16.57-.45,1.05-.85,1.46ZM40.08,101.34v-.57h.64v.57h2.39v.54h-2.39v.59h2.05v.52h-2.05v.61h2.64v.54h-5.89v-.54h2.61v-.61h-1.96v-.52h1.96v-.59h-2.33v-.54h2.33ZM38.93,106.47c0,.22-.03.41-.04.6h3.06v-.65h-3.02v.05ZM41.95,105.25h-3.02v.67h3.02v-.67ZM45.37,104.11v-2.13h-1.11v-.61h2.87v.61h-1.1v2.13h.99v.62h-.99v2.04c.34-.12.67-.24.99-.39v.63c-.83.34-1.72.63-2.67.86l-.16-.62c.4-.07.79-.16,1.18-.27v-2.26h-.98v-.62h.98ZM51.97,101.13v4.16h-1.87v1.06h2.03v.61h-2.03v1.17h2.36v.62h-5.42v-.62h2.41v-1.17h-2.03v-.61h2.03v-1.06h-1.88v-4.16h4.4ZM49.45,102.93v-1.22h-1.26v1.22h1.26ZM49.45,103.5h-1.26v1.22h1.26v-1.22ZM50.09,102.93h1.25v-1.22h-1.25v1.22ZM51.35,103.5h-1.25v1.22h1.25v-1.22ZM55.14,104.25l-.46.46c-.33-.36-.79-.74-1.39-1.15l.47-.45c.54.38,1,.77,1.38,1.14ZM55.25,105.97c-.38,1.04-.81,2.03-1.28,2.94l-.6-.26c.5-.95.95-1.91,1.32-2.9l.56.22ZM55.29,102.03l-.46.47c-.33-.36-.79-.74-1.39-1.13l.47-.44c.54.36,1,.73,1.38,1.11ZM56.24,102.82h4.57c-.03.79-.05,1.49-.07,2.11h.77v.6h-.79c-.04.66-.06,1.19-.09,1.6h.74v.56h-.78c-.03.25-.05.41-.07.48-.09.29-.26.5-.51.65-.25.13-.61.19-1.1.19-.23,0-.49,0-.78,0l-.19-.59c.32.02.62.04.89.04.24,0,.46-.03.66-.07.2-.06.34-.2.43-.41.02-.05.04-.14.05-.29h-4.29c.14-.72.27-1.44.36-2.16h-.9v-.6h.96c.07-.69.12-1.4.14-2.1-.19.24-.39.47-.59.68l-.41-.5c.61-.59,1.11-1.35,1.49-2.3l.65.14c-.09.23-.19.44-.29.64h4.16v.6h-4.49c-.16.26-.32.5-.5.74ZM56.39,107.14h3.62c.03-.41.05-.94.09-1.6h-3.46c-.07.58-.15,1.12-.25,1.6ZM60.18,103.4h-3.37c-.03.54-.06,1.05-.11,1.53h3.42c.02-.47.04-.98.05-1.53ZM59.07,106.61l-.42.41c-.27-.31-.64-.64-1.11-.99l.41-.4c.45.32.82.65,1.13.97ZM59.16,104.43l-.41.41c-.27-.29-.65-.59-1.13-.9l.41-.4c.45.29.83.59,1.13.88ZM70.23,104.16h-6.59v1.34c-.03,1.46-.32,2.62-.86,3.5l-.48-.42c.45-.74.69-1.76.72-3.08v-1.94h7.21v.6ZM66.74,100.73v1.54h2.33v-1.21h.64v1.8h-6.6v-1.8h.64v1.21h2.35v-1.54h.64ZM69.83,104.93v.59h-2.38v1.09h2.83v.61h-2.83v1.84h-.65v-1.84h-2.78v-.61h2.78v-1.09h-2.37v-.59h5.39ZM73.53,102.6v-1.87h.66v1.87h2.54v-1.84h.66v1.84h1.65v.63h-1.65v2.17h2.09v.63h-8.03v-.63h2.09v-2.17h-1.64v-.63h1.64ZM74.67,106.78c-.76.85-1.68,1.59-2.78,2.22l-.45-.58c1.09-.59,2.01-1.3,2.75-2.09l.49.44ZM76.72,105.4v-2.17h-2.54v2.17h2.54ZM79.46,108.49l-.5.51c-.64-.68-1.51-1.41-2.63-2.19l.47-.45c1.06.71,1.94,1.42,2.66,2.12ZM81.86,101.95c-.14-.36-.3-.71-.49-1.04l.62-.17c.2.4.35.77.46,1.09l-.32.12h1.58v.6h-3.4v-.6h1.55ZM81.26,109.02h-.62v-3.17h2.75v3.04h-.62v-.41h-1.5v.54ZM83.36,103.28v.57h-2.69v-.57h2.69ZM83.36,104.52v.58h-2.69v-.58h2.69ZM82.76,106.43h-1.5v1.45h1.5v-1.45ZM86.51,100.79v2.95h2.06v.63h-2.06v4.65h-.64v-4.65h-2v-.63h2v-2.95h.64ZM95.41,100.8v1.71h1.82c0,2.96-.04,4.79-.13,5.49-.08.62-.45.94-1.12.94-.17,0-.47,0-.88-.03l-.15-.58c.36.02.68.04.95.04.34,0,.54-.21.59-.62.06-.5.1-2.06.12-4.65h-1.21v.43c-.02,2.48-.57,4.31-1.63,5.46l-.47-.41s.05-.06.08-.1c-1.17.14-2.5.26-3.99.36l-.08-.58c.67-.04,1.31-.08,1.91-.13v-.8h-1.62v-.54h1.62v-.62h-1.61v-2.75h1.61v-.58h-1.84v-.54h1.84v-.63c-.5.04-1.04.05-1.61.05l-.18-.52c1.53,0,2.8-.13,3.81-.37l.29.5c-.49.13-1.05.23-1.69.3v.68h1.79v.54h-1.79v.58h1.62v2.75h-1.62v.62h1.63v.54h-1.63v.75c.59-.05,1.13-.12,1.64-.19v.48c.86-1.08,1.31-2.69,1.32-4.85v-.43h-.89v-.59h.89v-1.71h.6ZM91.27,104.58v-.67h-1.06v.67h1.06ZM91.27,105.03h-1.06v.67h1.06v-.67ZM91.81,104.58h1.07v-.67h-1.07v.67ZM92.88,105.03h-1.07v.67h1.07v-.67ZM101.71,107.77c-.75.49-1.67.92-2.77,1.29l-.38-.49c1.08-.34,1.98-.73,2.72-1.18l.43.38ZM105.51,103.38v3.99h-6.08v-3.99h6.08ZM105.08,101.09v1.79h-5.25v-1.79h5.25ZM104.89,104.52v-.62h-4.83v.62h4.83ZM104.89,105.64v-.61h-4.83v.61h4.83ZM104.89,106.15h-4.83v.67h4.83v-.67ZM104.46,101.6h-4.01v.79h4.01v-.79ZM106.29,108.61l-.45.45c-.63-.41-1.49-.85-2.61-1.31l.4-.38c1.06.41,1.94.82,2.66,1.23ZM111.72,102.79c.5,2.45,1.81,4.32,3.91,5.61l-.42.57c-1.84-1.21-3.08-2.83-3.72-4.86-.54,1.96-1.82,3.58-3.82,4.87l-.4-.58c2.48-1.52,3.75-3.58,3.84-6.18,0-.61.02-1.09.02-1.43h.66c0,.77-.03,1.44-.06,2ZM118.29,101.26v-.5h.59v.5h1.44v1.01h.41v.54h-.41v1.01h-1.44v.47h1.57v1.47h-1.69c-.1.18-.19.34-.27.5h2v.41c-.27.44-.65.84-1.13,1.18.45.18.9.4,1.37.65l-.35.46c-.52-.29-1.04-.55-1.56-.77-.59.32-1.29.61-2.09.85l-.36-.47c.69-.18,1.3-.4,1.8-.64-.38-.14-.76-.27-1.13-.38.18-.27.35-.53.51-.79h-1.15v-.5h1.46c.09-.17.19-.33.28-.5h-1.4v-1.47h1.56v-.47h-1.43v-1.01h-.4v-.54h.4v-1.01h1.43ZM118.29,104.72h-1v.58h1v-.58ZM118.29,102.32v-.59h-.87v.59h.87ZM118.29,102.75h-.87v.6h.87v-.6ZM119.77,106.75h-1.58c-.13.2-.23.39-.34.55.3.08.6.18.91.31.42-.26.77-.55,1.02-.86ZM119.76,102.32v-.59h-.88v.59h.88ZM119.76,102.75h-.88v.6h.88v-.6ZM119.89,104.72h-1.01v.58h1.01v-.58ZM121.41,104.29c-.14.3-.29.57-.43.81l-.41-.5c.52-.96.88-2.26,1.07-3.9l.64.12c-.06.47-.14.92-.22,1.33h2.38v.62h-.61c-.04,1.62-.35,2.99-.92,4.09.43.65.99,1.21,1.68,1.67l-.39.51c-.67-.45-1.22-.98-1.64-1.59-.41.62-.91,1.15-1.5,1.58l-.35-.57c.61-.42,1.11-.95,1.49-1.59-.41-.76-.68-1.62-.8-2.58ZM121.43,104.25l.52-.16c.09.79.29,1.5.59,2.13.42-.95.66-2.11.69-3.45h-1.31c-.14.54-.31,1.04-.5,1.48Z"/>
      <g>
        <path class="cls-3" d="M28.83,114.37v-.04c.13-.03.63-.07.76-.07.06,0,.15.05.23.15.31.39,1.19,1.67,2.11,2.91.45.63.83,1.16,1.08,1.61-.05-.88-.04-1.4-.04-1.85v-2.52c0-.21.05-.25.17-.26.22-.02.43-.03.54-.03-.02.39-.03.92-.03,1.67v4.01c-.06.04-.41.14-.57.14-.06,0-.11-.03-.16-.08-.59-.79-1.43-1.94-2.23-3.09-.33-.49-.63-.95-.98-1.53.05,1.05.05,1.53.05,2v2.33c0,.22-.05.25-.19.27-.14.03-.35.04-.52.04.02-.36.03-.89.03-1.65v-3.69l-.23-.3Z"/>
        <path class="cls-3" d="M35.03,117.05c0-.56-.02-.83-.04-1.03.15-.04.53-.09.69-.09.1,0,.14.05.14.55v1.84c0,.93.49,1.06.89,1.06.43,0,.79-.27.94-.45v-2.64c0-.23.03-.27.15-.31.26-.03.47-.05.68-.05,0,.2-.03.84-.03,1.63v1.43c0,.44.12.53.37.57v.05c0,.18-.23.45-.43.45-.38,0-.6-.25-.65-.65-.29.3-.57.45-.76.53-.18.07-.37.12-.59.12-.93,0-1.36-.61-1.36-1.51v-1.51Z"/>
        <path class="cls-3" d="M40.63,119.76c0,.15-.04.2-.18.21-.22.04-.44.04-.64.04.02-.34.03-.87.03-1.67v-1.54c0-.29-.04-.49-.15-.56v-.04c.08-.13.36-.31.52-.31.3,0,.36.43.39.68.38-.34.89-.68,1.39-.68.61,0,.93.28,1.13.72.37-.35.91-.72,1.43-.72.96,0,1.31.74,1.31,1.6v1.33c0,.52,0,.91.03,1.13-.19.03-.45.07-.7.07-.09,0-.13-.05-.13-.15v-2.3c0-.69-.29-1.04-.83-1.04-.43,0-.75.27-.98.49v2.71c0,.18-.02.22-.18.24-.25.04-.45.04-.64.04.02-.34.03-.87.03-1.67v-.75c0-.69-.29-1.05-.82-1.05-.39,0-.75.28-.99.52v2.71Z"/>
        <path class="cls-3" d="M47.93,116.27c.34-.19.83-.4,1.22-.4.84,0,1.71.61,1.71,1.92,0,1.44-1.11,2.27-2.43,2.27-.44,0-.89-.1-1.13-.23-.11-.05-.15-.11-.15-.27v-4.64c0-.54-.02-.82-.04-1,.19-.06.55-.13.69-.13.11,0,.14.04.14.59v1.89ZM47.93,119.43c.17.05.39.08.58.08.75,0,1.5-.5,1.5-1.62,0-.86-.48-1.38-1.24-1.38-.23,0-.62.12-.84.24v2.68Z"/>
        <path class="cls-3" d="M54.81,119.21c0,.29-.21.57-.37.65-.15.08-.53.2-.89.2-1.28,0-1.97-.75-1.97-2.03,0-1.13.69-2.15,1.9-2.15,1.05,0,1.51.78,1.53,1.51,0,.1,0,.22-.03.29-.03.15-.47.27-.79.33-.25.04-1.15.05-1.8.03,0,.89.57,1.4,1.36,1.4.43,0,.87-.15,1.04-.25l.02.03ZM52.41,117.52c.63.02,1.44,0,1.62,0,.11,0,.18-.08.18-.19,0-.54-.27-.94-.83-.94-.45,0-.9.41-.96,1.13Z"/>
        <path class="cls-3" d="M55.67,116.21c.08-.14.37-.34.53-.34.25,0,.43.32.43.9.29-.59.68-.9,1.11-.9.22,0,.41.12.46.19,0,.14-.05.38-.16.54-.06.08-.15.12-.26.08s-.21-.04-.3-.04c-.2,0-.5.19-.69.63-.06.15-.1.28-.1.48v2c0,.14-.03.2-.16.22-.24.03-.45.04-.66.04.02-.34.03-.87.03-1.67v-1.52c0-.25-.04-.45-.21-.57v-.04Z"/>
        <path class="cls-3" d="M64.69,117.93c0,1.22-.78,2.13-2.01,2.13-1.33,0-2-.97-2-2.05,0-1.2.84-2.13,2.03-2.13,1.26,0,1.97.87,1.97,2.05ZM61.54,117.91c0,1.08.55,1.62,1.23,1.62.54,0,1.09-.45,1.09-1.53,0-.77-.35-1.58-1.18-1.58-.6,0-1.13.54-1.13,1.5Z"/>
        <path class="cls-3" d="M67.94,113.94c.02.18-.13.46-.33.45-.09-.04-.21-.05-.29-.05-.44,0-.82.39-.8,1.64.15,0,1.01,0,1.23-.02-.02.19-.14.37-.25.45-.12.09-.47.11-.99.11,0,.92.04,2.9.04,3.4-.18.05-.58.07-.71.07-.09,0-.13-.02-.13-.16.02-.97,0-2.04,0-3.31-.37,0-.5-.08-.5-.24.12-.13.25-.22.5-.31,0-1,.28-1.53.65-1.87.34-.31.67-.37.98-.37.26,0,.5.1.58.2Z"/>
        <path class="cls-3" d="M70.32,115.56c0-.44,0-.81-.04-1.23.25-.04.82-.09,1.36-.09,1.28,0,2.21.5,2.21,1.77,0,1.19-.98,1.77-1.72,1.77-.22,0-.39-.03-.5-.1-.11-.05-.23-.28-.22-.48.12.04.32.05.45.05.42,0,1.11-.22,1.11-1.22s-.78-1.24-1.33-1.24c-.18,0-.33,0-.49.03v4.02c0,.64.02.91.03,1.09-.14.05-.5.07-.7.07-.09,0-.16-.03-.16-.16v-4.29Z"/>
        <path class="cls-3" d="M77.56,119.21c0,.29-.21.57-.37.65-.15.08-.53.2-.89.2-1.28,0-1.97-.75-1.97-2.03,0-1.13.69-2.15,1.9-2.15,1.05,0,1.51.78,1.53,1.51,0,.1,0,.22-.03.29-.03.15-.47.27-.79.33-.25.04-1.15.05-1.8.03,0,.89.57,1.4,1.36,1.4.43,0,.87-.15,1.04-.25l.02.03ZM75.16,117.52c.63.02,1.44,0,1.62,0,.11,0,.18-.08.18-.19,0-.54-.27-.94-.83-.94-.45,0-.9.41-.96,1.13Z"/>
        <path class="cls-3" d="M82.4,117.93c0,1.22-.78,2.13-2.01,2.13-1.33,0-2-.97-2-2.05,0-1.2.84-2.13,2.03-2.13,1.26,0,1.97.87,1.97,2.05ZM79.24,117.91c0,1.08.55,1.62,1.23,1.62.54,0,1.09-.45,1.09-1.53,0-.77-.35-1.58-1.18-1.58-.6,0-1.13.54-1.13,1.5Z"/>
        <path class="cls-3" d="M84.21,121.63c0,.15-.02.21-.18.23-.22.02-.42.03-.64.03.02-.26.03-.79.03-1.59v-3.54c0-.29-.06-.47-.15-.52v-.05c.1-.15.35-.31.54-.31s.35.26.37.59c.54-.4,1-.59,1.4-.59.83,0,1.62.63,1.62,1.92,0,1.38-1.01,2.26-2.14,2.26-.34,0-.65-.1-.84-.22v1.79ZM84.21,119.31c.18.1.46.19.75.19.55,0,1.38-.39,1.38-1.6,0-.8-.45-1.35-1.1-1.35-.42,0-.86.27-1.04.43v2.33Z"/>
        <path class="cls-3" d="M88.21,114.92c0-.54-.02-.82-.04-1,.18-.08.55-.13.7-.13.1,0,.13.04.13.59v4.37c0,.44.02.93.04,1.19-.16.04-.6.07-.71.07-.08,0-.12-.03-.12-.12v-4.97Z"/>
        <path class="cls-3" d="M93.23,119.21c0,.29-.21.57-.37.65-.15.08-.53.2-.89.2-1.28,0-1.97-.75-1.97-2.03,0-1.13.69-2.15,1.9-2.15,1.05,0,1.51.78,1.53,1.51,0,.1,0,.22-.03.29-.03.15-.47.27-.79.33-.25.04-1.15.05-1.8.03,0,.89.57,1.4,1.36,1.4.43,0,.87-.15,1.04-.25l.02.03ZM90.83,117.52c.63.02,1.44,0,1.62,0,.11,0,.18-.08.18-.19,0-.54-.27-.94-.83-.94-.45,0-.9.41-.96,1.13Z"/>
        <path class="cls-3" d="M101.23,114.35c.11-.05.52-.1.68-.1.07,0,.12.04.14.25l.57,3.37c.15.95.28,1.62.37,2.06-.14.05-.51.08-.65.08-.12,0-.18-.05-.21-.19-.08-.5-.14-.92-.25-1.76l-.4-2.7c-.34.89-1.01,2.63-1.62,4.29-.05.14-.1.21-.25.25-.12.03-.28.05-.41.05-.28-.85-1.12-3.18-1.61-4.56-.19,1.29-.57,3.53-.72,4.47-.02.1-.06.15-.15.15-.15,0-.44,0-.59-.08.17-.92.62-3.3,1.01-5.35l-.05-.23c.18-.04.45-.1.73-.1.12.12.23.36.45.96l1.29,3.4c.6-1.45,1.29-3.17,1.68-4.09v-.16Z"/>
        <path class="cls-3" d="M107.75,117.93c0,1.22-.78,2.13-2.01,2.13-1.33,0-2-.97-2-2.05,0-1.2.84-2.13,2.03-2.13,1.26,0,1.97.87,1.97,2.05ZM104.59,117.91c0,1.08.55,1.62,1.23,1.62.54,0,1.09-.45,1.09-1.53,0-.77-.35-1.58-1.18-1.58-.6,0-1.13.54-1.13,1.5Z"/>
        <path class="cls-3" d="M109.56,116.27c.34-.19.83-.4,1.22-.4.84,0,1.71.61,1.71,1.92,0,1.44-1.11,2.27-2.43,2.27-.44,0-.89-.1-1.13-.23-.11-.05-.15-.11-.15-.27v-4.64c0-.54-.02-.82-.04-1,.19-.06.55-.13.69-.13.11,0,.14.04.14.59v1.89ZM109.56,119.43c.17.05.39.08.58.08.75,0,1.5-.5,1.5-1.62,0-.86-.48-1.38-1.24-1.38-.23,0-.62.12-.84.24v2.68Z"/>
        <path class="cls-3" d="M114.31,114.43c0,.25-.17.47-.45.47-.25,0-.44-.16-.44-.45,0-.33.26-.47.45-.47.27,0,.44.19.44.45ZM114.27,119.73c0,.16-.05.21-.2.23-.13.03-.35.04-.63.05,0-.36.03-.89.03-1.43v-1.53c0-.56-.02-.83-.04-1.03.16-.05.56-.09.7-.09.1,0,.14.05.14.55v3.25Z"/>
        <path class="cls-3" d="M115.56,114.92c0-.54-.02-.82-.04-1,.18-.08.55-.13.7-.13.1,0,.13.04.13.59v4.37c0,.44.02.93.04,1.19-.16.04-.6.07-.71.07-.08,0-.12-.03-.12-.12v-4.97Z"/>
        <path class="cls-3" d="M118.48,114.43c0,.25-.17.47-.45.47-.25,0-.44-.16-.44-.45,0-.33.26-.47.45-.47.27,0,.44.19.44.45ZM118.45,119.73c0,.16-.05.21-.2.23-.13.03-.35.04-.63.05,0-.36.03-.89.03-1.43v-1.53c0-.56-.02-.83-.04-1.03.16-.05.56-.09.7-.09.1,0,.14.05.14.55v3.25Z"/>
        <path class="cls-3" d="M119.23,119.73c.3-.44,1.56-2.25,2.09-3.2h-1.47c-.34,0-.55-.04-.54-.18.04-.21.18-.39.25-.44.12.05.28.07.78.07h1.95c-.02.2-.05.37-.14.54-.16.33-1.04,1.71-1.8,2.87.55.05,1.93.04,2.2,0-.04.22-.14.41-.25.49-.14.09-.39.11-1.19.11-1.03,0-1.52-.02-1.76-.07l-.13-.17Z"/>
        <path class="cls-3" d="M126.15,119.21c0,.29-.21.57-.37.65-.15.08-.53.2-.89.2-1.28,0-1.97-.75-1.97-2.03,0-1.13.69-2.15,1.9-2.15,1.05,0,1.51.78,1.53,1.51,0,.1,0,.22-.03.29-.03.15-.47.27-.79.33-.25.04-1.15.05-1.8.03,0,.89.57,1.4,1.36,1.4.43,0,.87-.15,1.04-.25l.02.03ZM123.76,117.52c.63.02,1.44,0,1.62,0,.11,0,.18-.08.18-.19,0-.54-.27-.94-.83-.94-.45,0-.9.41-.96,1.13Z"/>
        <path class="cls-3" d="M129.96,114.8c0-.48-.02-.7-.04-.88.16-.06.55-.13.69-.13.1,0,.14.04.14.59v4.62c0,.42.14.51.42.55v.03c-.04.22-.24.47-.44.47-.43,0-.61-.24-.67-.51-.37.29-.94.51-1.29.51-.97,0-1.77-.71-1.77-1.98s.98-2.21,2.27-2.21c.33,0,.59.08.7.13v-1.2ZM129.96,116.56c-.13-.06-.39-.14-.72-.14-.7,0-1.41.5-1.41,1.56,0,.88.54,1.42,1.27,1.42.28,0,.63-.12.85-.28v-2.57Z"/>
      </g>
      <g>
        <path class="cls-3" d="M46.7,122.94c.02.18-.13.46-.33.45-.09-.04-.21-.05-.29-.05-.44,0-.82.39-.8,1.64.15,0,1.01,0,1.23-.02-.02.19-.14.37-.25.45-.12.09-.47.11-.99.11,0,.92.04,2.9.04,3.4-.18.05-.58.07-.71.07-.09,0-.13-.02-.13-.16.02-.97,0-2.04,0-3.31-.37,0-.5-.08-.5-.24.12-.13.25-.22.5-.31,0-1,.28-1.53.65-1.87.34-.31.67-.37.98-.37.26,0,.5.1.58.2Z"/>
        <path class="cls-3" d="M50.55,126.93c0,1.22-.78,2.13-2.01,2.13-1.33,0-2-.97-2-2.05,0-1.2.84-2.13,2.03-2.13,1.26,0,1.97.87,1.97,2.05ZM47.39,126.91c0,1.08.55,1.62,1.23,1.62.54,0,1.09-.45,1.09-1.53,0-.77-.35-1.58-1.18-1.58-.6,0-1.13.54-1.13,1.5Z"/>
        <path class="cls-3" d="M51.36,125.21c.08-.14.37-.34.53-.34.25,0,.43.32.43.9.29-.59.68-.9,1.11-.9.22,0,.41.12.46.19,0,.14-.05.38-.16.54-.06.08-.15.12-.26.08s-.21-.04-.3-.04c-.2,0-.5.19-.69.63-.06.15-.1.28-.1.48v2c0,.14-.03.2-.16.22-.24.03-.45.04-.66.04.02-.34.03-.87.03-1.67v-1.52c0-.25-.04-.45-.21-.57v-.04Z"/>
        <path class="cls-3" d="M61.15,128.22c-.03.25-.14.45-.29.57-.2.14-.69.3-1.32.3-2.05,0-3.12-1.18-3.12-2.93,0-1.84,1.4-3.01,3.18-3.01.83,0,1.5.28,1.65.45-.03.33-.25.5-.45.44-.26-.14-.72-.27-1.23-.27-1.22,0-2.25.78-2.25,2.34,0,1.36.87,2.36,2.44,2.36.55,0,1.09-.17,1.35-.27l.04.03Z"/>
        <path class="cls-3" d="M65.73,126.93c0,1.22-.78,2.13-2.01,2.13-1.33,0-2-.97-2-2.05,0-1.2.84-2.13,2.03-2.13,1.26,0,1.97.87,1.97,2.05ZM62.57,126.91c0,1.08.55,1.62,1.23,1.62.54,0,1.09-.45,1.09-1.53,0-.77-.35-1.58-1.18-1.58-.6,0-1.13.54-1.13,1.5Z"/>
        <path class="cls-3" d="M69.86,128.48c.02.39-.21.58-.61.58s-.6-.27-.65-.56c-.24.26-.66.56-1.15.56-.63,0-1.07-.48-1.07-1.04,0-.97,1.24-1.23,1.73-1.36.16-.04.36-.07.49-.09v-.24c0-.41-.24-.82-.78-.82-.31,0-.64.15-.88.31-.27.13-.41-.06-.45-.34.28-.26.89-.61,1.51-.61.93,0,1.37.66,1.37,1.53,0,.39-.03,1.23-.02,1.79,0,.17.12.28.3.28.05,0,.14,0,.19-.02l.02.03ZM67.74,128.43c.37,0,.64-.24.78-.44.04-.06.06-.15.06-.31v-.64c-.74.11-1.43.36-1.43.86,0,.33.26.53.58.53Z"/>
        <path class="cls-3" d="M72.86,125.19c0,.19-.11.46-.34.43-.17-.09-.44-.17-.64-.17-.35,0-.6.2-.6.49,0,.25.16.4.36.51.23.13.57.28.83.43.41.24.6.55.6.94,0,.86-.76,1.24-1.5,1.24-.41,0-.77-.11-.98-.26-.09-.06-.16-.15-.16-.26,0-.16.07-.32.17-.4.28.2.68.35,1.03.35.44,0,.68-.21.68-.53,0-.21-.14-.37-.44-.54-.25-.13-.5-.25-.72-.36-.39-.21-.63-.53-.63-.99,0-.75.64-1.19,1.38-1.19.37,0,.73.11.95.32Z"/>
        <path class="cls-3" d="M76.17,128.28c.05.18,0,.41-.16.54-.19.15-.53.24-.86.24-.82,0-1.13-.51-1.13-1.2v-2.32c-.32,0-.45-.1-.45-.2.1-.19.68-.71.81-.83.12-.11.27-.2.49-.24-.03.29-.05.51-.05.71h1.44c-.09.47-.29.51-.45.53-.3.02-.35.03-1,.03-.04.91-.03,1.86,0,2.25.04.53.34.66.65.66.26,0,.53-.09.68-.19l.03.02Z"/>
        <path class="cls-3" d="M80.27,128.48c.02.39-.21.58-.61.58s-.6-.27-.65-.56c-.24.26-.66.56-1.15.56-.63,0-1.07-.48-1.07-1.04,0-.97,1.24-1.23,1.73-1.36.16-.04.36-.07.49-.09v-.24c0-.41-.24-.82-.78-.82-.31,0-.64.15-.88.31-.27.13-.41-.06-.45-.34.28-.26.89-.61,1.51-.61.93,0,1.37.66,1.37,1.53,0,.39-.03,1.23-.02,1.79,0,.17.12.28.3.28.05,0,.14,0,.19-.02l.02.03ZM78.16,128.43c.37,0,.64-.24.78-.44.04-.06.06-.15.06-.31v-.64c-.74.11-1.43.36-1.43.86,0,.33.26.53.58.53Z"/>
        <path class="cls-3" d="M81.13,123.92c0-.54-.02-.82-.04-1,.18-.08.55-.13.7-.13.1,0,.13.04.13.59v4.37c0,.44.02.93.04,1.19-.16.04-.6.07-.71.07-.08,0-.12-.03-.12-.12v-4.97Z"/>
        <path class="cls-3" d="M89.78,128.22c-.03.25-.14.45-.29.57-.2.14-.69.3-1.32.3-2.05,0-3.12-1.18-3.12-2.93,0-1.84,1.4-3.01,3.18-3.01.83,0,1.5.28,1.65.45-.03.33-.25.5-.45.44-.26-.14-.72-.27-1.23-.27-1.22,0-2.25.78-2.25,2.34,0,1.36.87,2.36,2.44,2.36.55,0,1.09-.17,1.35-.27l.04.03Z"/>
        <path class="cls-3" d="M90.69,123.92c0-.54-.02-.82-.04-1,.18-.08.55-.13.7-.13.1,0,.13.04.13.59v4.37c0,.44.02.93.04,1.19-.16.04-.6.07-.71.07-.08,0-.12-.03-.12-.12v-4.97Z"/>
        <path class="cls-3" d="M95.71,128.21c0,.29-.21.57-.37.65-.15.08-.53.2-.89.2-1.28,0-1.97-.75-1.97-2.03,0-1.13.69-2.15,1.9-2.15,1.05,0,1.51.78,1.53,1.51,0,.1,0,.22-.03.29-.03.15-.47.27-.79.33-.25.04-1.15.05-1.8.03,0,.89.57,1.4,1.36,1.4.43,0,.87-.15,1.04-.25l.02.03ZM93.32,126.52c.63.02,1.44,0,1.62,0,.11,0,.18-.08.18-.19,0-.54-.27-.94-.83-.94-.45,0-.9.41-.96,1.13Z"/>
        <path class="cls-3" d="M99.94,128.48c.02.39-.21.58-.61.58s-.6-.27-.65-.56c-.24.26-.66.56-1.15.56-.63,0-1.07-.48-1.07-1.04,0-.97,1.24-1.23,1.73-1.36.16-.04.36-.07.49-.09v-.24c0-.41-.24-.82-.78-.82-.31,0-.64.15-.88.31-.27.13-.41-.06-.45-.34.28-.26.89-.61,1.51-.61.93,0,1.37.66,1.37,1.53,0,.39-.03,1.23-.02,1.79,0,.17.12.28.3.28.05,0,.14,0,.19-.02l.02.03ZM97.83,128.43c.37,0,.64-.24.78-.44.04-.06.06-.15.06-.31v-.64c-.74.11-1.43.36-1.43.86,0,.33.26.53.58.53Z"/>
        <path class="cls-3" d="M103.49,126.56c0-.68-.31-1.04-.84-1.04-.46,0-.82.29-1.04.53v2.7c0,.18-.04.21-.19.23-.21.03-.42.04-.64.04.02-.34.03-.87.03-1.67v-1.53c0-.34-.04-.49-.15-.58v-.04c.07-.14.35-.32.53-.32.28,0,.36.46.38.68.38-.37.88-.68,1.38-.68,1.06,0,1.33.82,1.33,1.67v1.24c0,.53.02.92.04,1.14-.2.03-.45.07-.7.07-.11,0-.14-.05-.14-.14v-2.31Z"/>
        <path class="cls-3" d="M106.44,123.43c0,.25-.17.47-.45.47-.25,0-.44-.16-.44-.45,0-.33.26-.47.45-.47.27,0,.44.19.44.45ZM106.41,128.73c0,.16-.05.21-.2.23-.13.03-.35.04-.63.05,0-.36.03-.89.03-1.43v-1.53c0-.56-.02-.83-.04-1.03.16-.05.56-.09.7-.09.1,0,.14.05.14.55v3.25Z"/>
        <path class="cls-3" d="M110.4,126.56c0-.68-.31-1.04-.84-1.04-.46,0-.82.29-1.04.53v2.7c0,.18-.04.21-.19.23-.21.03-.42.04-.64.04.02-.34.03-.87.03-1.67v-1.53c0-.34-.04-.49-.15-.58v-.04c.07-.14.35-.32.53-.32.28,0,.36.46.38.68.38-.37.88-.68,1.38-.68,1.06,0,1.33.82,1.33,1.67v1.24c0,.53.02.92.04,1.14-.2.03-.45.07-.7.07-.11,0-.14-.05-.14-.14v-2.31Z"/>
        <path class="cls-3" d="M114.55,124.97c.27.06.54.13.75.13.24,0,.47-.03.61-.07.02.04.03.12.03.18,0,.26-.17.4-.5.43-.06,0-.19,0-.25,0,.11.23.15.44.15.63,0,.94-.72,1.4-1.52,1.4-.16,0-.27,0-.38-.04-.11.09-.26.23-.26.28,0,.15.14.25.54.28.43.03.78.04,1.12.07.73.07,1.05.49,1.05,1.04,0,.98-.98,1.62-2.09,1.62s-1.72-.57-1.72-1.2c0-.38.45-.74.86-.95-.3-.12-.54-.37-.56-.72,0-.04.02-.06.08-.1.18-.13.42-.29.55-.44-.44-.2-.74-.63-.74-1.18,0-.83.67-1.45,1.57-1.45.24,0,.49.04.71.09ZM114,130.36c.68,0,1.18-.32,1.18-.82,0-.28-.13-.53-.64-.6-.28-.04-.6-.05-.83-.05-.19,0-.35.03-.44.09-.24.13-.45.34-.45.61,0,.51.6.76,1.19.76ZM113.03,126.29c0,.55.34.9.81.9.52,0,.77-.43.77-.91s-.23-.93-.78-.93c-.44,0-.8.36-.8.94Z"/>
      </g>
    </g>
  </g>
</svg>