<?xml version="1.0" encoding="UTF-8"?>
<svg id="_圖層_2" data-name="圖層_2" xmlns="http://www.w3.org/2000/svg" xmlns:xlink="http://www.w3.org/1999/xlink" viewBox="0 0 67.03 74.24">
  <defs>
    <style>
      .cls-1 {
        fill: #de3d84;
      }

      .cls-2, .cls-3 {
        fill: #e75599;
      }

      .cls-4 {
        fill: #464599;
        opacity: .6;
      }

      .cls-5 {
        opacity: .1;
      }

      .cls-5, .cls-6 {
        fill: #fff;
      }

      .cls-6, .cls-7, .cls-8, .cls-3 {
        opacity: .5;
      }

      .cls-7 {
        fill: #b390c1;
      }

      .cls-9 {
        fill: #f1ad39;
      }

      .cls-8 {
        fill: url(#linear-gradient);
      }
    </style>
    <linearGradient id="linear-gradient" x1="-189.37" y1="49.76" x2="-183.88" y2="49.76" gradientTransform="translate(-175.59) rotate(-180) scale(1 -1)" gradientUnits="userSpaceOnUse">
      <stop offset="0" stop-color="#ca306d"/>
      <stop offset="1" stop-color="#de3d84"/>
    </linearGradient>
  </defs>
  <g id="_圖層_1-2" data-name="圖層_1">
    <g>
      <g>
        <polygon class="cls-9" points="55.18 9.68 55.18 17.42 67.03 10.58 67.03 2.85 55.18 9.68"/>
        <path class="cls-3" d="M65.35,23.17c0,3.12-1.9,6.75-4.24,8.1-2.34,1.35-4.24-.08-4.24-3.21s1.9-6.75,4.24-8.1c2.34-1.35,4.24.08,4.24,3.21Z"/>
        <path class="cls-3" d="M38.49,45l20.99-18.56s0-.04,0-.06c0-1.2.67-2.57,1.53-3.24v-9.04l.71-.41v9.09c.78-.18,1.35.41,1.35,1.53,0,1.32-.8,2.86-1.8,3.43-.73.42-1.36.2-1.64-.48l-21.11,18.67-.03-.92Z"/>
      </g>
      <g>
        <g>
          <path class="cls-1" d="M33.01,51.61c1.05-.04,1.66-.41,2.93.36.92.56,1.95,1.92,3.02,1.9,1.15-.03,2.34-1.47,3.11-1.85,1.81-.91,3.07-4.21,4.56-5.64.94-.91,1.54-.15,2.03-.5.34-.25.56-1.03.83-1.94.57-1.9-.27-2.66-1.19-2.39-2.14.61-1.86,1.68-2.73,1.94-1.46.44-2.31.93-2.82.32-1.22-1.46-2.05-2.27-3.69-2.7-1.37-.35-1.15-.56-2.87-.19-.69.15-1.66.61-2.33.8-1.62.46-2.68.55-3.06-.9-.26-1-1.75-1.4-1.85-2.28-.1-.9.27-.83.29-2.17.02-2.09-.67-2.46-1.46-3.13-.13-.11-.25-.26-.36-.41-.46.91-.85,1.87-1.13,2.88-.38,1.37-.6,2.81-.6,4.3,0,3.33,1.02,6.42,2.77,8.98.65.95,1.41,1.82,2.25,2.61.72.06,1.88.03,2.31.01Z"/>
          <path class="cls-2" d="M33.01,51.61c1.05-.04,1.66-.41,2.93.36.92.56,1.95,1.92,3.02,1.9,1.15-.03,2.34-1.47,3.11-1.85,1.81-.91,3.07-4.21,4.56-5.64.94-.91,1.54-.15,2.03-.5.34-.25.56-1.03.83-1.94.57-1.9-.27-2.66-1.19-2.39-2.14.61-1.86,1.68-2.73,1.94-1.46.44-2.31.93-2.82.32-1.22-1.46-2.05-2.27-3.69-2.7-1.37-.35-1.15-.56-2.87-.19-.69.15-1.66.61-2.33.8-1.62.46-2.68.55-3.06-.9-.26-1-1.75-1.4-1.85-2.28-.1-.9.27-.83.29-2.17.02-2.09-.67-2.46-1.46-3.13-.13-.11-.25-.26-.36-.41-.46.91-.85,1.87-1.13,2.88-.38,1.37-.6,2.81-.6,4.3,0,3.33,1.02,6.42,2.77,8.98.65.95,1.41,1.82,2.25,2.61.72.06,1.88.03,2.31.01Z"/>
        </g>
        <g>
          <path class="cls-1" d="M57.62,40.01c0-4.41-1.79-8.4-4.68-11.29-2.89-2.89-6.88-4.68-11.29-4.68-6.24,0-11.62,3.58-14.24,8.8.11.16.23.3.36.41.79.67,1.49,1.04,1.46,3.13-.01,1.34-.39,1.27-.29,2.17.1.88,1.59,1.28,1.85,2.28.38,1.45,1.44,1.36,3.06.9.67-.19,1.64-.66,2.33-.8,1.72-.37,1.5-.16,2.87.19,1.65.42,2.48,1.24,3.69,2.7.51.61,1.36.12,2.82-.32.87-.26.59-1.33,2.73-1.94.93-.26,1.76.5,1.19,2.39-.27.9-.49,1.69-.83,1.94-.49.35-1.09-.41-2.03.5-1.48,1.43-2.75,4.73-4.56,5.64-.77.39-1.96,1.83-3.11,1.85-1.08.02-2.1-1.34-3.02-1.9-1.27-.77-1.88-.4-2.93-.36-.43.02-1.6.05-2.31-.01,2.86,2.71,6.71,4.38,10.96,4.38,3.19,0,6.16-.94,8.65-2.56-.04-.03-.08-.05-.12-.09-.38-.39-.93-1.58-1.03-2.11-.12-.58.33-1.23.25-1.82-.06-.49-.47-.42-.87-.47-.21-.02-.28-.4-.33-.67-.07-.38,0-.9.54-1.32.86-.66,1.61-.51,2.55-.23.49.15.9.36,1.28.7.4.35.37,1.51.91,1.24s.83-.71,1.14-.72c.28-.01.58-.02.83.03.71-1.23,1.27-2.56,1.63-3.96.33-1.28.53-2.62.53-4Z"/>
          <path class="cls-1" d="M54.63,47.95c-.31.01-.59.44-1.14.72s-.51-.89-.91-1.24c-.38-.34-.79-.56-1.28-.7-.94-.28-1.69-.43-2.55.23-.55.42-.61.94-.54,1.32.05.27.13.65.33.67.4.04.8-.02.87.47.08.59-.37,1.24-.25,1.82.11.52.65,1.72,1.03,2.11.04.04.08.06.12.09,2.12-1.38,3.89-3.25,5.16-5.44-.25-.05-.55-.05-.83-.03Z"/>
          <path class="cls-2" d="M54.63,47.95c-.31.01-.59.44-1.14.72s-.51-.89-.91-1.24c-.38-.34-.79-.56-1.28-.7-.94-.28-1.69-.43-2.55.23-.55.42-.61.94-.54,1.32.05.27.13.65.33.67.4.04.8-.02.87.47.08.59-.37,1.24-.25,1.82.11.52.65,1.72,1.03,2.11.04.04.08.06.12.09,2.12-1.38,3.89-3.25,5.16-5.44-.25-.05-.55-.05-.83-.03Z"/>
        </g>
        <path class="cls-2" d="M49.96,33.72c.27-.48.04-1.24.22-1.63.29-.64.79-1.94.1-2.82-.78-.99-2.15-1.04-3.49-.48-1.55.65-.49,2.27-1.08,3.45-.28.56-1.53.5-2.25.54-.94.05-1.11.54-1.6,1.46-.47.88-1.88,1.49-1.34,2.54.2.4,1.11,1.05,1.67.92.88-.2,1.72-.41,2.11.61.31.81,1.01,1.91,2.29,1.67,1.17-.22,1.8-1.11,2.61-1.95.57-.59,1.4-1.06,1.36-1.7-.06-.81-1.05-1.82-.6-2.61Z"/>
        <g>
          <path class="cls-5" d="M49.3,44.04c-4.39,7.6-12.75,10.88-18.85,7.36-4.39-4.23-6.86-12.01-2.66-19.4,4.34-7.63,13.61-9.7,20.48-6.53,4.28,4.18,4.86,11.92,1.02,18.57Z"/>
          <path class="cls-5" d="M43.63,39.5c-2.82,4.89-8.29,7.02-12.21,4.76-3.92-2.26-4.81-8.06-1.98-12.95,2.82-4.89,8.29-7.02,12.21-4.76,3.92,2.26,4.81,8.06,1.98,12.95Z"/>
          <path class="cls-5" d="M39.47,35.06c-1.58,2.73-4.63,3.92-6.82,2.66-2.19-1.26-2.69-4.5-1.11-7.23,1.58-2.73,4.63-3.92,6.82-2.66,2.19,1.26,2.68,4.5,1.11,7.23Z"/>
        </g>
      </g>
      <g>
        <path class="cls-3" d="M35.61,13.57c0,3.67-2.23,7.94-4.99,9.53-2.75,1.59-4.99-.1-4.99-3.77s2.23-7.94,4.99-9.53c2.75-1.59,4.99.1,4.99,3.77Z"/>
        <path class="cls-6" d="M33.15,15.23c0,1.56-.95,3.36-2.11,4.04-1.17.67-2.11-.04-2.11-1.6s.95-3.36,2.11-4.04c1.17-.67,2.11.04,2.11,1.6Z"/>
      </g>
      <g>
        <polygon class="cls-7" points="2.7 65.91 2.7 74.24 15.45 66.87 15.45 58.54 2.7 65.91"/>
        <polygon class="cls-3" points="13.24 65.64 13.24 71.08 21.57 66.27 21.57 60.83 13.24 65.64"/>
      </g>
      <g>
        <g>
          <polygon class="cls-7" points="22.06 0 0 12.81 0 47.84 22.06 35.09 22.06 0"/>
          <polygon class="cls-4" points="20.36 3.05 9.9 9.12 9.9 19.49 20.36 13.45 20.36 3.05"/>
          <polygon class="cls-4" points="20.36 15.48 9.9 21.55 9.9 31.92 20.36 25.88 20.36 15.48"/>
          <polygon class="cls-4" points="20.36 28.61 9.9 34.68 9.9 39.38 20.36 33.34 20.36 28.61"/>
          <path class="cls-9" d="M6.93,14.41c-.04,1.56-1.03,3.21-2.21,3.69-1.18.47-2.1-.41-2.06-1.97.04-1.56,1.03-3.21,2.21-3.69,1.18-.47,2.1.41,2.06,1.97Z"/>
          <path class="cls-9" d="M6.93,22.43c-.04,1.56-1.03,3.21-2.21,3.69-1.18.47-2.1-.41-2.06-1.97.04-1.56,1.03-3.21,2.21-3.69,1.18-.47,2.1.41,2.06,1.97Z"/>
          <path class="cls-6" d="M5.79,22.88c-.02.73-.48,1.51-1.03,1.73s-.99-.19-.97-.92c.02-.73.48-1.51,1.03-1.73.55-.22.99.19.97.92Z"/>
          <path class="cls-9" d="M6.93,30.44c-.04,1.56-1.03,3.21-2.21,3.69-1.18.47-2.1-.41-2.06-1.97.04-1.56,1.03-3.21,2.21-3.69,1.18-.47,2.1.41,2.06,1.97Z"/>
          <path class="cls-9" d="M6.93,38.46c-.04,1.56-1.03,3.21-2.21,3.69-1.18.47-2.1-.41-2.06-1.97.04-1.56,1.03-3.21,2.21-3.69,1.18-.47,2.1.41,2.06,1.97Z"/>
        </g>
        <g>
          <path class="cls-8" d="M13.78,48.18c0,2.02-1.23,4.37-2.75,5.25-1.52.88-2.75-.05-2.75-2.08s1.23-4.37,2.75-5.25c1.52-.88,2.75.05,2.75,2.08Z"/>
          <path class="cls-4" d="M34.55,45.01c0,1.16-.7,2.5-1.57,3-.87.5-1.57-.03-1.57-1.19s.7-2.5,1.57-3c.87-.5,1.57.03,1.57,1.19Z"/>
          <path class="cls-7" d="M32.97,44.93c-.23.13-.44.39-.58.69l-20.2,3.76c.01-.11.04-.22.04-.32,0-.72-.36-1.1-.86-1.02v-6.78l-.71.41v6.78c-.49.49-.86,1.29-.86,2.01,0,.89.54,1.3,1.21.91.4-.23.74-.71.96-1.23l20.21-3.76s0,.02,0,.03c0,.57.35.83.78.59.43-.25.78-.91.78-1.48s-.35-.83-.78-.59Z"/>
        </g>
      </g>
    </g>
  </g>
</svg>