<?xml version="1.0" encoding="UTF-8"?>
<svg id="_圖層_2" data-name="圖層_2" xmlns="http://www.w3.org/2000/svg" xmlns:xlink="http://www.w3.org/1999/xlink" viewBox="0 0 88.17 64.19">
  <defs>
    <style>
      .cls-1 {
        fill: #de3d84;
      }

      .cls-2, .cls-3 {
        fill: #e75599;
      }

      .cls-4 {
        opacity: .2;
      }

      .cls-4, .cls-5, .cls-6, .cls-7 {
        fill: #f2f2f3;
      }

      .cls-5, .cls-8, .cls-3 {
        opacity: .5;
      }

      .cls-6, .cls-9 {
        opacity: .6;
      }

      .cls-10 {
        fill: url(#linear-gradient-2);
      }

      .cls-11 {
        fill: #313893;
      }

      .cls-12 {
        fill: url(#linear-gradient);
      }

      .cls-9 {
        fill: #464599;
      }

      .cls-13 {
        fill: #1a2784;
      }

      .cls-14 {
        fill: #1f2b62;
      }

      .cls-8 {
        fill: #b390c1;
      }

      .cls-15 {
        fill: #f5b5b1;
      }

      .cls-16 {
        fill: #f29b8a;
      }

      .cls-17 {
        fill: #f1ad39;
      }

      .cls-18 {
        fill: #dcc7e0;
      }

      .cls-19 {
        fill: #ee762a;
      }

      .cls-20 {
        fill: #ccaed2;
      }

      .cls-21 {
        fill: #f9f2f7;
      }

      .cls-22 {
        fill: #ae8bbe;
      }

      .cls-23 {
        fill: #f8cdc8;
      }
    </style>
    <linearGradient id="linear-gradient" x1="22.39" y1="47.11" x2="22.39" y2="41.58" gradientUnits="userSpaceOnUse">
      <stop offset="0" stop-color="#dd4387"/>
      <stop offset="1" stop-color="#e95792"/>
    </linearGradient>
    <linearGradient id="linear-gradient-2" x1="70.49" y1="36.9" x2="72.32" y2="36.9" gradientUnits="userSpaceOnUse">
      <stop offset="0" stop-color="#373491"/>
      <stop offset="1" stop-color="#2b2772"/>
    </linearGradient>
  </defs>
  <g id="_圖層_1-2" data-name="圖層_1">
    <g>
      <g>
        <g>
          <path class="cls-22" d="M44.29,23.35c11.17-.13,20.69,3.7,24.13,9.12.89-.61,1.77-1.23,2.61-1.9-4.9-5.17-14.88-8.64-26.37-8.51-10.12.12-19.02,3-24.25,7.3.21.85.48,1.67.81,2.48,3.87-4.89,12.73-8.37,23.08-8.49Z"/>
          <path class="cls-20" d="M44.29,22.77c11.45-.13,21.17,3.89,24.38,9.53.91-.63,1.82-1.27,2.67-1.98-4.78-5.35-14.95-8.98-26.68-8.84-10.19.12-19.14,3.04-24.36,7.39.19.89.44,1.75.75,2.59,3.78-4.99,12.75-8.57,23.24-8.68Z"/>
        </g>
        <g>
          <path class="cls-22" d="M44.92,20.64c11.15-.13,21.04,2.78,27.07,7.32.46-.4.92-.81,1.38-1.21-6.67-4.37-16.81-7.1-28.13-6.97-11.04.13-20.88,2.94-27.44,7.26.21.4.45.79.69,1.17,5.96-4.48,15.56-7.45,26.43-7.57Z"/>
          <path class="cls-20" d="M44.92,20.19c11.32-.13,21.35,2.86,27.35,7.53.47-.41.93-.82,1.4-1.22-6.66-4.48-16.93-7.3-28.43-7.17-11.13.13-21.05,2.99-27.62,7.38.21.42.43.82.68,1.21,5.94-4.56,15.63-7.6,26.62-7.72Z"/>
        </g>
        <g>
          <path class="cls-17" d="M63.93,32.53c-.24.98-.64,1.93-.68,2.96-.03.82-.22,1.43-.65,1.89-.17.18-.63,0-.81-.27-.27-.42.18-1.27-.36-1.38-.67-.13-1.04,0-1.28.88-.25.91.35,1.69.64,2.55.07.2.25.47-.14.52-.59.08-1.4-.29-1.63-.88-.14-.36-.73-.21-.93-.45-.28-.34-.27-.74-.59-.64-.25.08-.43.32-.66.46-.44.26-1.13,1.16-1.66,1.08-1.99-.29-2.99-.22-4.28.25-.39.14-.69-.11-.98-.06-.38.07-.57-.22-.84-.37-.07.19-.22.51-.05.73.13.18.45.16.73.16.33,0,.73.18,1.15.48.21.15.65.09.85.06.7-.11,1.09-.49,1.84-.18.79.32,1.37.77,1.35,1.72-.01.67.12,1.38.03,2.01-.26,1.77-.63,3.09-1.81,4.62-.24.3-.29.93-.54,1.24-.41.5-1.19.92-1.67,1.38-.42.4-.77,1.05-1.23,1.38-.83.59-.98,1.01-1.71.66-.41-.2-1.13-1.28-1.41-1.66-.39-.54-.66-1.15-.81-1.8-.08-.35-.09-.71-.12-1.06-.07-.77-.34-1.02-.93-1.44-.59-.42-.77-.78-1.17-1.39-.55-.83-1.31-.81-2.06-1.31-.35-.23-.56-.46-.66-.88-.05-.2.07-.96.07-1.13,0-.46-.12-.82-.11-1.26.04-1.32,1.97-2.54,3.03-3.01.77-.35,1.27-.12,1.94-.15.32-.02.84-.18,1.13.09.2.18.48.25.71.39.32.08.66.13,1.02.13.01,0,.02,0,.03,0-.2-.12-.4-.25-.6-.41-.58-.47-1.04-1.04-1.75-1.32-.73-.28-1.45-.2-2.21-.16-.8.05-1.55-.1-2.2-.27-.76-.19-1.04-.81-1.13-1.76-.03-.33.19-.82.21-1.19.04-.59-.39-1,.02-1.65.42-.65.88-1.46,1.57-1.84.6-.33,1.31-.43,1.93-.72.6-.28,1.13-.67,1.65-1.08.81-.65,1.57-1.38,2.47-1.92,2.04-1.23,4.5-.6,6.57-1.62,1.03-.51,2.16-2.21,3.42-2.25-2.81-2.81-6.47-4.76-10.56-5.44.39.36.71.76.93,1.22.41.88.07,1.32-.38,2.04-.44.71-.02,1.48-.69,2.03-.49.41-1.35.53-1.94.74-.76.27-1.52.56-2.28.82-.77.27-1.64.53-2.47.39-.9-.15-1.1-.57-1.48-1.29-.08-.14-.14-.96-.79-.99-.86-.04-1.5-.07-2.04.28-.72.48-.94,1.51-1.11,2.36-.22,1.08.31,2.41-.35,3.38-.39.57-1.09.79-1.75.87-1.29.15-2.53-.32-3.81-.33-1.03,0-1.79.48-1.99,1.28-.14.56.16,1.15.17,1.73.02.87-.05,1.6-.21,2.38-.06.3-.33.65-.57.47-.67-.53-1.18-1.14-1.57-1.81-.14.74-.24,1.5-.29,2.26.26.11.62.4.87.61.74.63.68,1.83,1.12,2.67.68,1.3,2.01,1.5,3.08,2.32.58.44,1.05,1.02,1.12,1.77.03.4-.08.68-.14,1.06-.19,1.14-.02,1.99.52,3.01.95,1.79,2.45,3.55,4.38,4.27.34.13.84.25,1.02.54.17.27-.8.65-1.04.79-.71.42-1.39.64-2.05.69,3.04,1.96,6.65,3.1,10.54,3.1,10.75,0,19.47-8.72,19.47-19.47,0-1.33-.13-2.63-.39-3.89ZM28.59,37.42c-.07-.17-.04-.33-.03-.5.02-.28-.04-.51-.13-.76-.08-.2-.13-.39,0-.61.2-.34.39.08.57.31.08.11.23.35.28.48.01.04.04.09.04.14.03.16-.02.31-.05.47-.06.34-.08.56.03.89.03.08.12.23.04.23-.34,0-.63-.33-.75-.63ZM30.12,39.63s-.02-.15-.21-.28c-.24-.17-.66-.36-.71-.68-.04-.21.11-.32.3-.4.12-.05.13.07.2.22.08.16.25.19.38.32.2.19.27.67.03.82ZM35.44,30.67c-.12.29-.2.5-.24.85-.03.22.02.41-.14.59-.23.25-.58.2-.83.02-.57-.4-.95-1.08-1.53-1.5-.23-.17-.56-.24-.48-.57.09-.36.61-.47.92-.46.4,0,.83.24,1.16-.01.27-.21.66-.32.88-.16.36.27.42.86.27,1.24ZM55.77,49.28c-.19.31-.2,1-.57,1.33-.37.32-.95.33-1.32.48-.51.21-.54-.53-.39-1.25.11-.54.92-.74,1.28-1.17.38-.45.66-.95.82-1.36.08-.22.16-.67.34-.47.64.71.32,1.68-.16,2.44Z"/>
          <path class="cls-19" d="M48.64,26.53c-.9.54-1.65,1.27-2.47,1.92-.51.41-1.05.8-1.65,1.08-.62.29-1.33.38-1.93.72-.68.38-1.15,1.19-1.57,1.84-.41.64.02,1.05-.02,1.65-.03.37-.24.86-.21,1.19.09.95.37,1.57,1.13,1.76.65.16,1.4.31,2.2.27.76-.04,1.48-.13,2.21.16.71.28,1.18.85,1.75,1.32.19.16.39.3.6.41,0,0-.01,0-.03,0-.36,0-.69-.05-1.02-.13-.23-.15-.51-.21-.71-.39-.29-.26-.81-.1-1.13-.09-.67.03-1.17-.19-1.94.15-1.06.47-2.99,1.69-3.03,3.01-.01.44.12.8.11,1.26,0,.17-.12.93-.07,1.13.1.41.31.65.66.88.75.49,1.51.48,2.06,1.31.4.6.58.97,1.17,1.39.59.42.86.67.93,1.44.03.36.04.71.12,1.06.14.65.42,1.26.81,1.8.28.38.99,1.47,1.41,1.66.73.35.88-.07,1.71-.66.46-.33.82-.98,1.23-1.38.48-.45,1.25-.88,1.67-1.38.25-.31.3-.93.54-1.24,1.18-1.52,1.55-2.85,1.81-4.62.09-.63-.04-1.34-.03-2.01.02-.95-.56-1.4-1.35-1.72-.76-.31-1.14.07-1.84.18-.2.03-.65.09-.85-.06-.41-.3-.81-.48-1.15-.48-.28,0-.6.02-.73-.16-.16-.22-.02-.54.05-.73.27.15.47.44.84.37.3-.06.59.2.98.06,1.29-.47,2.29-.54,4.28-.25.53.08,1.22-.82,1.66-1.08.23-.14.4-.38.66-.46.32-.1.3.3.59.64.2.24.79.09.93.45.23.58,1.04.96,1.63.88.39-.05.21-.32.14-.52-.29-.86-.89-1.63-.64-2.55.24-.88.61-1.01,1.28-.88.54.11.08.95.36,1.38.17.27.64.45.81.27.43-.47.62-1.08.65-1.89.04-1.03.44-1.98.68-2.96-.77-3.81-2.66-7.22-5.31-9.87-1.26.04-2.39,1.75-3.42,2.25-2.07,1.02-4.53.39-6.57,1.62Z"/>
          <path class="cls-19" d="M55.59,47.31c-.16.42-.44.92-.82,1.36-.36.43-1.17.63-1.28,1.17-.15.72-.12,1.46.39,1.25.37-.15.95-.17,1.32-.48.38-.33.38-1.02.57-1.33.48-.76.8-1.73.16-2.44-.18-.2-.25.25-.34.47Z"/>
          <path class="cls-19" d="M37.41,51.3c-.18-.29-.68-.41-1.02-.54-1.93-.71-3.43-2.47-4.38-4.27-.54-1.02-.71-1.87-.52-3.01.06-.38.17-.67.14-1.06-.07-.75-.54-1.32-1.12-1.77-1.07-.82-2.4-1.03-3.08-2.32-.44-.84-.38-2.04-1.12-2.67-.25-.21-.61-.5-.87-.61-.03.45-.05.91-.05,1.37,0,6.87,3.56,12.9,8.93,16.37.66-.05,1.34-.27,2.05-.69.24-.14,1.21-.52,1.04-.79Z"/>
          <path class="cls-19" d="M27.31,34.59c.24.19.51-.17.57-.47.17-.78.23-1.52.21-2.38-.01-.58-.31-1.17-.17-1.73.2-.81.96-1.29,1.99-1.28,1.28,0,2.52.48,3.81.33.65-.08,1.36-.3,1.75-.87.66-.96.13-2.3.35-3.38.17-.84.39-1.88,1.11-2.36.54-.36,1.18-.32,2.04-.28.64.03.71.85.79.99.39.71.59,1.13,1.48,1.29.83.14,1.7-.12,2.47-.39.76-.27,1.52-.55,2.28-.82.59-.21,1.44-.33,1.94-.74.66-.55.24-1.32.69-2.03.45-.72.8-1.16.38-2.04-.21-.45-.54-.86-.93-1.22-1.05-.17-2.12-.27-3.21-.27-9.51,0-17.42,6.82-19.12,15.84.39.67.91,1.28,1.57,1.81Z"/>
          <path class="cls-19" d="M29.3,37.81c-.11-.32-.09-.55-.03-.89.03-.16.07-.3.05-.47,0-.05-.03-.09-.04-.14-.04-.13-.19-.37-.28-.48-.18-.23-.38-.64-.57-.31-.13.22-.07.42,0,.61.1.26.16.49.13.76-.01.17-.04.34.03.5.11.29.4.63.75.63.08,0-.01-.15-.04-.23Z"/>
          <path class="cls-19" d="M29.7,38.49c-.07-.15-.08-.27-.2-.22-.19.08-.34.19-.3.4.06.31.47.51.71.68.19.13.16.31.21.28.24-.15.17-.63-.03-.82-.13-.13-.3-.16-.38-.32Z"/>
          <path class="cls-19" d="M34.29,29.59c-.33.26-.75.02-1.16.01-.31,0-.82.1-.92.46-.08.33.25.4.48.57.57.42.95,1.1,1.53,1.5.26.18.6.23.83-.02.17-.18.12-.37.14-.59.04-.35.13-.55.24-.85.15-.38.08-.98-.27-1.24-.22-.16-.61-.05-.88.16Z"/>
          <path class="cls-4" d="M54.24,41.34c-5.35,9.27-15.55,13.26-22.97,8.97-5.36-5.16-8.37-14.64-3.24-23.65,5.29-9.3,16.59-11.82,24.97-7.96,5.22,5.1,5.93,14.53,1.25,22.63Z"/>
          <path class="cls-4" d="M47.33,35.81c-3.44,5.96-10.11,8.56-14.88,5.8-4.78-2.76-5.86-9.83-2.42-15.79,3.44-5.96,10.11-8.56,14.88-5.8,4.78,2.76,5.86,9.83,2.42,15.79Z"/>
          <path class="cls-4" d="M42.26,30.4c-1.92,3.33-5.64,4.78-8.31,3.24-2.67-1.54-3.27-5.49-1.35-8.82,1.92-3.33,5.64-4.78,8.31-3.24,2.67,1.54,3.27,5.49,1.35,8.82Z"/>
        </g>
        <g>
          <path class="cls-22" d="M64.42,25.97c.15.9.24,1.82.3,2.74,3.15,2.26,5.03,5.07,5.07,8.14.09,7.61-11.17,13.91-25.16,14.07-13.99.16-25.41-5.88-25.5-13.5-.04-3.13,1.85-6.04,5.06-8.39.21-.88.47-1.75.78-2.6-5.89,2.99-9.56,7.26-9.51,11.96.11,8.83,13.35,15.84,29.58,15.66,16.23-.18,29.31-7.49,29.2-16.33-.06-4.7-3.84-8.89-9.82-11.75Z"/>
          <path class="cls-20" d="M64.3,25.33c.18.91.3,1.83.38,2.76,3.18,2.26,5.07,5.09,5.11,8.17.09,7.61-11.17,13.91-25.16,14.07-13.99.16-25.41-5.88-25.5-13.5-.04-3.19,1.92-6.15,5.24-8.52.24-.88.53-1.75.88-2.61-6.05,3-9.84,7.32-9.78,12.09.11,8.83,13.35,15.84,29.58,15.66,16.23-.18,29.31-7.49,29.2-16.33-.06-4.74-3.89-8.95-9.94-11.81Z"/>
        </g>
        <g>
          <path class="cls-22" d="M60.13,21.35c.11.4.21.81.3,1.21,10.45,2.9,17.61,8.78,17.69,15.65.12,9.92-14.55,18.12-32.77,18.33-18.22.21-33.09-7.66-33.21-17.58-.08-6.88,6.96-12.94,17.37-16.07.15-.37.3-.74.46-1.1-12.24,3.27-20.67,10.15-20.57,18.01.13,10.84,16.39,19.44,36.3,19.22,19.92-.23,35.96-9.2,35.83-20.04-.1-7.95-8.88-14.7-21.42-17.64Z"/>
          <path class="cls-20" d="M59.98,20.87c.12.4.24.81.34,1.22,10.51,2.89,17.72,8.79,17.81,15.68.12,9.92-14.55,18.12-32.77,18.33-18.22.21-33.09-7.66-33.21-17.58-.08-6.93,7.06-13.02,17.58-16.13.16-.37.32-.74.49-1.1-12.37,3.24-20.9,10.16-20.8,18.07.13,10.84,16.39,19.44,36.3,19.22,19.92-.23,35.96-9.2,35.83-20.04-.1-7.98-8.95-14.75-21.57-17.67Z"/>
        </g>
      </g>
      <g>
        <path class="cls-13" d="M19.35,44.22c-.38.95-.89,3.41-.86,3.71.06.64,1.14,1.28,1.32.78.22-.6.62-1.96.76-2.3.36-.93.79-2.56.86-2.87.06-1.06.59-2.84,1.28-3.56,0,0-.59-.31-1.04.1-.27.24-.87.91-1.17,1.51-.15.29-.85,1.9-1.14,2.64Z"/>
        <path class="cls-11" d="M13.87,60.4c-.46.45-.6.57-1.02.99-.25.24-.04.46.43.45.42-.02,1.36-.22,1.88-.41.37-.13,1.06-.51,1.41-.73.35-.22.42-.53.42-.53v-.74l-2.25.1s-.37.4-.86.88Z"/>
        <path class="cls-11" d="M17.83,62.75c-.46.45-.6.57-1.02.99-.25.24-.04.46.43.45.42-.02,1.36-.22,1.88-.41.37-.13,1.06-.51,1.41-.73.35-.22.42-.53.42-.53v-1.31l-2.25.66s-.37.4-.86.88Z"/>
        <path class="cls-13" d="M25.86,49.78l-4.5-1.73s-.73.71-2.09,1.53c-.79.48-2.97,1.76-3.67,2.25-.43.3-.62.96-.79,2.43-.28,2.44-.48,5.22-.48,5.22,0,0,.49.68,1.59.68.85,0,1.48-.27,1.48-.27l.17-5.61,3.68-2.13s-2.09,1.29-2.39,2.44c-.24.92-.32,1.63-.36,2.78-.08,2.48-.1,4.1-.1,4.1,0,0,.16.82,1.27.82.85,0,1.54-.69,1.54-.69l.22-5.68s3.18-2.27,4.01-3.22c.93-1.07.41-2.92.41-2.92Z"/>
        <g>
          <path class="cls-11" d="M22.15,40.21s-1.34,1.09-1.5,2.62c-.08.76.13,3.37.13,5.06-.65.44-2.49,1.52-2.49,1.52,0,0,1.49.46,2.07,1.48.6-.25,1.08-.63,1.08-.63,0,0-.06.17-.4.85.4.12,1.79-.2,3.08.36,1.29.56,2.18.31,2.18.31,0,0,.22-1.11.07-2.13-.14-.93-.49-1.96-.42-2.5.22-1.71.55-4.46.49-4.91-.1-.75-1.81-1.57-1.81-1.57,0,0-1.21-.94-2.47-.44Z"/>
          <path class="cls-13" d="M22.93,40.07s-.78,0-1.45,1.29c-.24.46-.4.71-.4.71l.4.39-.56.27s-.2,1.97-.04,2.78c.18.9,1.09,2.54,1.09,2.54,0,0,.59-1.84.85-2.3.26-.46,1.24-1.73,1.24-1.73l-.49-.74.8-.26s1.13-1.42,1.01-1.85c-.22-.8-.99-.96-.99-.96l-1.47-.14Z"/>
          <path class="cls-7" d="M22,41.53s-.32.97-.49,1.84c-.17.87.31,3.73.31,3.73,0,0,.43-2.79,1-3.6.68-.96,1.55-1.87,1.55-1.87,0,0-1.79-.33-2.37-.1Z"/>
          <path class="cls-12" d="M22.33,41.71l-.09.75s-.44.43-.54.95c-.09.52-.07,2.47-.07,2.47l.18,1.23.26-.84s.2-1.16.38-1.88c.02-.31.05-.57.08-.65.12-.35.14-1.08.14-1.08l.47-.56-.44-.52-.37.13Z"/>
          <g>
            <path class="cls-15" d="M22.63,40.16l-.08,1.18s.16.23.55.57c.43-.13,1.42-1.05,1.42-1.05l-.33-1.84-1.56,1.13Z"/>
            <path class="cls-23" d="M24.37,37.01c-.44-.57-1.72-1.04-2.56.19-.87,1.29-.05,3.4.72,3.28.43-.07,1.39-.46,1.82-1.15.48-.78.37-1.88.02-2.32Z"/>
          </g>
          <path class="cls-7" d="M22.6,40.49l.1,1.09-.78.32s-.08-1.16.68-1.41Z"/>
          <path class="cls-7" d="M24.4,40.21s-.26.4-.72.84c-.36.35-.98.52-.98.52l.29.88s1.08-.49,1.47-.92c0,0,.47-.81-.06-1.33Z"/>
          <path class="cls-13" d="M21.49,37.63c.18.28.45.61,1.17.65.58.03,1.04-.14,1.04-.14l-.05.78s.12,0,.21-.03c.08-.3.2-.36.35-.24.16.14.14.68.14.68,0,0,.62-.53.61-1.42,0-.56-.49-1.76-1.5-1.88-1.02-.13-1.74.41-1.99.95-.12.27-.06.53.02.66Z"/>
        </g>
        <g>
          <g>
            <path class="cls-22" d="M23.78,51.09h-.18l-4.06-2.34c-.21-.12-.59-.11-.84.03l-2.73,1.58s-.05.04-.07.06h-.13v.23h0c0,.07.04.15.14.2l4.09,2.36c.22.12.59.11.84-.03l2.73-1.58c.14-.08.2-.18.2-.28h0v-.23Z"/>
            <path class="cls-21" d="M20,53l-4.09-2.36c-.22-.12-.19-.34.06-.49l2.73-1.58c.25-.14.63-.16.84-.03l4.09,2.36c.22.12.19.34-.06.49l-2.73,1.58c-.25.14-.63.16-.84.03Z"/>
            <polygon class="cls-18" points="19.21 48.62 16.32 50.28 20.62 52.75 23.51 51.09 19.21 48.62"/>
            <polygon class="cls-21" points="18.96 48.59 18.74 48.72 23.04 51.18 23.26 51.06 18.96 48.59"/>
            <polygon class="cls-21" points="22.24 50.9 22.02 51.02 22.67 51.39 22.9 51.27 22.24 50.9"/>
            <polygon class="cls-21" points="21.53 50.48 21.31 50.61 21.76 50.87 21.99 50.75 21.53 50.48"/>
            <polygon class="cls-21" points="20.96 50.16 20.74 50.29 21.19 50.55 21.42 50.43 20.96 50.16"/>
            <polygon class="cls-21" points="20.39 49.83 20.17 49.96 20.63 50.23 20.86 50.1 20.39 49.83"/>
            <polygon class="cls-21" points="21.75 51.51 21.53 51.64 21.85 51.82 22.08 51.7 21.75 51.51"/>
            <polygon class="cls-21" points="21.29 51.24 21.06 51.37 21.39 51.55 21.61 51.43 21.29 51.24"/>
            <polygon class="cls-21" points="20.71 50.91 20.49 51.04 20.94 51.3 21.17 51.18 20.71 50.91"/>
            <polygon class="cls-21" points="21.38 51.73 21.16 51.86 21.48 52.04 21.71 51.92 21.38 51.73"/>
            <polygon class="cls-21" points="20.91 51.46 20.69 51.58 21.01 51.77 21.24 51.65 20.91 51.46"/>
            <polygon class="cls-21" points="20.98 51.94 20.75 52.07 21.08 52.25 21.3 52.13 20.98 51.94"/>
            <polygon class="cls-21" points="20.51 51.67 20.29 51.79 20.61 51.98 20.84 51.86 20.51 51.67"/>
            <polygon class="cls-21" points="20.33 51.13 20.11 51.26 20.57 51.52 20.8 51.4 20.33 51.13"/>
            <polygon class="cls-21" points="20.16 50.59 19.94 50.72 20.39 50.98 20.62 50.86 20.16 50.59"/>
            <polygon class="cls-21" points="19.59 50.26 19.37 50.39 19.83 50.65 20.06 50.53 19.59 50.26"/>
            <polygon class="cls-21" points="21.73 51.04 21.51 51.17 22.27 51.61 22.5 51.48 21.73 51.04"/>
            <polygon class="cls-21" points="21.13 50.69 20.91 50.82 21.36 51.08 21.59 50.96 21.13 50.69"/>
            <polygon class="cls-21" points="20.56 50.37 20.34 50.5 20.8 50.76 21.02 50.64 20.56 50.37"/>
            <polygon class="cls-21" points="19.99 50.05 19.77 50.17 20.23 50.44 20.46 50.31 19.99 50.05"/>
          </g>
          <path class="cls-23" d="M21.8,49.19s-.67.35-1.09.56-1.68,1.29-1.41,1.54c.27.25.93.54,1.11.5.18-.04.61-.48.68-.59.07-.1.88-.41,1.12-.77.24-.36-.4-1.25-.4-1.25Z"/>
          <g>
            <path class="cls-20" d="M20.71,52.56v-3.48c-.01-.12-.08-.23-.18-.29l-4.1-2.35c-.12-.07-.26-.05-.36.01h0l-.15.09h.07c-.04.06-.07.12-.07.19v3.48c.01.12.08.23.18.29l4.1,2.35s.06.01.09.02l.08.08.22-.15h0c.07-.06.12-.14.12-.25Z"/>
            <path class="cls-18" d="M20.53,49.18v3.48c.01.26-.27.42-.49.29l-4.1-2.35c-.1-.06-.17-.17-.17-.29v-3.48c-.01-.26.27-.42.49-.29l4.1,2.35c.1.06.17.17.17.29Z"/>
          </g>
          <polygon class="cls-7" points="17.07 51.52 16.1 50.96 16.1 50.54 17.07 51.1 17.07 51.52"/>
          <polygon class="cls-7" points="19.71 53.04 18.74 52.49 18.74 52.06 19.71 52.62 19.71 53.04"/>
          <path class="cls-7" d="M18.36,49.86c0,.2-.18.26-.4.13-.22-.13-.4-.4-.4-.6s.18-.26.4-.13c.22.13.4.4.4.6Z"/>
        </g>
        <path class="cls-13" d="M27.21,45.94c.26-1.82.25-3.39-.74-4.05-.72-.47-1.14,1.46-1.34,2.9-.05.35-.37,1.94-.45,2.31-.48.12-3.1,1.82-3.42,2.13.08.16.69.62.87,1.61,1.09-.24,2.8-1.3,3.94-1.88.84-.43,1.03-2.16,1.15-3.01Z"/>
      </g>
      <g>
        <path class="cls-14" d="M76.66,49.97s-1.2.33-2.1.87c-.9.54-1.33,1.12-1.95.79-.61-.33-.93-2.46-.93-2.46l5.3-.96s.34,1.35-.32,1.76Z"/>
        <path class="cls-23" d="M76.4,47.61s1.31,1.1,1.22,2.26c-.05.63.02.92-.08,1.7-.09.74-.02,3.45.03,4.42.02.49.83,1.08,1.21,1.35.37.27.21.64.33.81.24.34-.79.61-1.35.12-.56-.49-1.49-.86-1.53-1.66-.04-.9-.16-2.37-.48-3.69-.19-.79-.17-1.76-.16-2.49,0-.49-1.79-2.04-1.86-2.2-.17-.39,2.67-.64,2.67-.64Z"/>
        <path class="cls-23" d="M74.62,49.49c.31.31.64.94.5,1.61-.12.62-.22,1.1-.22,1.76,0,.75-.34,3.95-.3,4.93.03.72.26,1.42.29,1.85.02.23-.13.55-.12.78.03.42-.99.34-1.3.2-.31-.15-.28-2.24-.04-2.82-.01-.75-.21-2.01-.53-3.33-.32-1.32.09-3.1-.18-3.42-.55-.66-1.7-1.23-1.74-1.9-.05-.83.78-2.2,1.6-1.83.27.12,1,1.15,2.03,2.17Z"/>
        <path class="cls-13" d="M68.59,45.48s-.76,2.04-.06,3.3c.58,1.04,4.07,2.85,4.07,2.85,0,0,.26-1.34,1.12-1.88.73-.45,3.37-1.49,3.37-1.49,0,0-.22-.45-.94-1.02-.84-.66-3.5-2.35-3.5-2.35,0,0-1.62,2-4.06.59Z"/>
        <path class="cls-23" d="M74.86,43.92c.29-.14.6-.27.9-.38-.1-.28-.29-.75-.56-1.28-.27-.54-.69-1.22-.78-1.35-.26-.35-1.03-1.45-1.03-1.45l-1.14.85s1.4,1.65,1.58,1.89c.18.24.93,1.39,1.02,1.64,0,.01,0,.04,0,.07Z"/>
        <path class="cls-11" d="M78.78,57.35s.65.33.97.73c.32.4-.04.99-.9.86-.45-.07-1.06-.56-1.3-.74-.34-.25-.94-.54-1.21-.77-.27-.23-.1-.81-.1-.81,0,0,.1.35.42.59.36.27.84.55,1.05.62.53.19.91.32,1.11.07.2-.24-.04-.54-.04-.54Z"/>
        <path class="cls-11" d="M74.86,59.4s.06.57-.15.87c-.21.3-.75.32-1.05-.21-.29-.5-.32-1.19-.34-1.52-.02-.33.12-.74.12-.74,0,0-.37.2-.26.65.1.45-.03,1.12,0,1.46.05.81.26,1.41.85,1.67.47.21,1.16.06,1.15-.73-.01-.81-.3-1.45-.3-1.45Z"/>
        <path class="cls-1" d="M72.44,40.54s.22-.09.47-.33c.31-.28.48-.64.48-.64,0,0-.42-1.54-1.6-2.01-.58-.23-1.34.41-1.34.41l1.99,2.56Z"/>
        <path class="cls-7" d="M73.31,39.31l.17.32s-.39.76-.91.91c-.51.15-.25-.33-.25-.33,0,0,.32.13.99-.9Z"/>
        <path class="cls-2" d="M67.4,40.21c.1-.48,1.51-1.56,1.51-1.56,0,0,.85.61,1.15.82.29.2.77.73.81.78,0,0,0,0,0,0-.01-.09-.1-.82-.42-1.58-.1-.24,0-.96,0-.96,0,0,.11-.03.28-.07.26.26.79.97,1.07,1.26.27.28,1.31,1.14,1.07,2.1-.07.28-.16.53-.29.89-.15.4-.1,1.14-.06,1.54.05.46.54,1.66.54,1.66,0,0-1,1.28-2.14,1.29-1.33,0-2.32-.89-2.32-.89,0,0,.22-2.03.14-2.86,0,0-1.65-.82-1.33-2.42Z"/>
        <path class="cls-1" d="M70.91,38.44s.83.95.77,1.33c-.21.2-.7.6-.7.6l-.56-1.86.49-.07Z"/>
        <path class="cls-23" d="M72.61,46.01c-.79-.59-1.62-1.15-2.49-1.58-.29-.33-.4-.53-.58-1.03-.18-.5-.48-1.23-.48-1.23l-1.51.5s.59,1.36.86,1.8c.17.29.47.83.87,1.13.43.32.96.7,2.87,1.27.06-.35.46-.86.46-.86Z"/>
        <path class="cls-10" d="M71.95,38.09c.12.1.22.22.32.34.17-2.14-.14-3.07-.14-3.07l-1.24,2.14s-.04.03-.08.07c.42.04.85.26,1.14.52Z"/>
        <g>
          <path class="cls-16" d="M70.55,37.81s.03.82.2,1.25c.13.18.28.78.24,1.3-.28-.14-.74-.58-1.01-.81-.32-.28-1.16-.82-1.16-.82l.03-2.44,1.71,1.51Z"/>
          <path class="cls-23" d="M69.57,34.92c.54-.41,1.81-.54,2.28.78.49,1.38-.76,3.11-1.43,2.82-.37-.16-1.16-.75-1.38-1.48-.25-.82.11-1.8.53-2.12Z"/>
        </g>
        <path class="cls-1" d="M68.82,38.24s.52.32.98.8c.72.75,1.18,1.33,1.18,1.33,0,0-.23.16-1.08.23-.69-.66-1.28-1.07-1.52-1.52.01-.2.44-.85.44-.85Z"/>
        <path class="cls-1" d="M67.79,43.21c-.29-.37-.64-.74-.71-.96-.18-.6-.5-1.55.45-2.29.75-.58,1.47.83,1.62,1.35.16.57.12.98.12,1.39-.22.29-.96.72-1.49.5Z"/>
        <path class="cls-7" d="M69.31,42.55c0,.1.07.4.07.4,0,0-.28.3-.83.45-.36.1-.62.1-.62.1l-.22-.4s.44,0,.83-.14c.32-.1.77-.41.77-.41Z"/>
        <path class="cls-13" d="M71.96,34.95c-.9-1.55-1.98-.74-1.98-.74,0,0-.61-.37-1.26.46-.35.45-.77,2.16-.35,3.08.14.31.63,1,1.71,1.16-.18-.37-.08-1.3.17-1.69.47-.71.4-1.71.4-1.71,0,0,.9.08,1.31.95.17-.26.4-.82,0-1.52Z"/>
        <g>
          <path class="cls-22" d="M76.9,42.07s-.1-.02-.19.02l-1.96,1.13c-.22.09-.5.35-.63.57l-2.11,3.65c-.07.13-.08.21-.03.24h0s.21.12.21.12l.1-.2,1.84-1.07c.22-.09.5-.35.63-.57l2.11-3.65s0-.02.01-.03l.05.05.17-.15-.2-.12h0Z"/>
          <path class="cls-18" d="M76.91,42.21l-1.96,1.13c-.22.09-.5.35-.63.57l-2.11,3.65c-.13.22-.05.32.17.23l1.96-1.13c.22-.09.5-.35.63-.57l2.11-3.65c.13-.22.05-.32-.17-.23Z"/>
        </g>
        <path class="cls-23" d="M76.1,44.12c-.5.31-.91.91-.84,1.24.07.33.48.03.67-.27.19-.3.29-.61.17-.97Z"/>
        <path class="cls-23" d="M72.09,45.63s.38.17.57.03c.31-.22.52-.23.52-.23,0,0-.17.26.07.35.24.09.27.12.61.03.25-.07.46-.03.24.42-.16.33-.66.7-.91.77-.39.1-.79-.04-1.23-.18-.72-.23.14-1.19.14-1.19Z"/>
      </g>
      <g>
        <polygon class="cls-8" points="88.17 17.98 77.55 24.11 77.55 37.07 88.17 30.94 88.17 17.98"/>
        <polygon class="cls-17" points="83.8 32.71 78.38 35.84 78.38 29.94 83.8 26.81 83.8 32.71"/>
        <polygon class="cls-3" points="84.5 20.85 84.5 25.35 87.46 23.64 87.46 19.14 84.5 20.85"/>
        <polygon class="cls-9" points="84.5 26.73 84.5 32.18 87.46 30.47 87.46 25.02 84.5 26.73"/>
        <polygon class="cls-9" points="83.8 22.05 78.38 25.18 78.38 24.58 83.8 21.45 83.8 22.05"/>
        <polygon class="cls-9" points="83.8 23.28 78.38 26.42 78.38 25.82 83.8 22.69 83.8 23.28"/>
        <polygon class="cls-9" points="83.8 24.56 78.38 27.69 78.38 27.1 83.8 23.96 83.8 24.56"/>
        <polygon class="cls-9" points="83.8 25.8 78.38 28.93 78.38 28.33 83.8 25.2 83.8 25.8"/>
      </g>
      <g>
        <path class="cls-3" d="M21.08,20.87c0,1.92,1.16,4.14,2.6,4.97,1.44.83,2.6-.05,2.6-1.97s-1.16-4.14-2.6-4.97c-1.44-.83-2.6.05-2.6,1.97Z"/>
        <path class="cls-6" d="M22.36,21.73c0,.81.49,1.76,1.1,2.11.61.35,1.1-.02,1.1-.83s-.49-1.75-1.1-2.11c-.61-.35-1.1.02-1.1.83Z"/>
      </g>
      <g>
        <polygon class="cls-8" points="21.17 5.9 29.4 10.68 29.4 20.48 21.17 15.73 21.17 5.9"/>
        <polygon class="cls-9" points="21.52 6.58 28.98 10.91 28.98 11.53 21.52 7.22 21.52 6.58"/>
        <polygon class="cls-9" points="23.47 9.14 23.47 9.51 21.52 8.38 21.52 8.01 23.47 9.14"/>
        <polygon class="cls-9" points="28.83 19.31 28.83 19.67 26.88 18.55 26.88 18.17 28.83 19.31"/>
        <polygon class="cls-9" points="22.91 9.67 22.91 10.04 21.52 9.24 21.52 8.87 22.91 9.67"/>
        <path class="cls-9" d="M22.49,12.58c.05,1.96,1.29,4.03,2.77,4.63,1.48.6,2.64-.51,2.59-2.47-.05-1.96-1.29-4.03-2.77-4.63-1.48-.6-2.64.51-2.59,2.47Z"/>
        <path class="cls-5" d="M23.94,13.2c.02.83.55,1.71,1.18,1.96.63.25,1.12-.22,1.1-1.05-.02-.83-.55-1.71-1.18-1.96-.63-.25-1.12.22-1.1,1.05Z"/>
      </g>
      <g>
        <path class="cls-3" d="M6.25,39.39c0,1.11.67,2.39,1.5,2.87.83.48,1.5-.03,1.5-1.14s-.67-2.39-1.5-2.87c-.83-.48-1.5.03-1.5,1.14Z"/>
        <polygon class="cls-8" points="0 31.78 14.67 40.26 14.67 27.42 0 18.95 0 31.78"/>
        <polygon class="cls-6" points="3.36 32.55 .4 30.84 .4 31.42 3.36 33.13 3.36 32.55"/>
        <polygon class="cls-6" points="3.36 31.41 .4 29.7 .4 30.28 3.36 31.99 3.36 31.41"/>
        <polygon class="cls-6" points="3.36 30.21 .4 28.5 .4 29.08 3.36 30.79 3.36 30.21"/>
        <polygon class="cls-6" points="3.36 29.07 .4 27.36 .4 27.94 3.36 29.65 3.36 29.07"/>
        <polygon class="cls-6" points="3.36 27.87 .4 26.16 .4 26.74 3.36 28.45 3.36 27.87"/>
        <polygon class="cls-6" points="3.36 26.72 .4 25.01 .4 25.59 3.36 27.3 3.36 26.72"/>
        <polygon class="cls-6" points="3.36 25.53 .4 23.82 .4 24.4 3.36 26.11 3.36 25.53"/>
        <polygon class="cls-6" points="3.36 24.38 .4 22.67 .4 23.25 3.36 24.96 3.36 24.38"/>
        <polygon class="cls-9" points="3.36 21.67 .4 19.96 .4 21.51 3.36 23.22 3.36 21.67"/>
        <polygon class="cls-17" points="14.13 27.93 11.17 26.22 11.17 27.76 14.13 29.47 14.13 27.93"/>
        <polygon class="cls-6" points="12.99 29.43 12.99 30.98 14.13 31.64 14.13 30.09 12.99 29.43"/>
        <polygon class="cls-6" points="12.99 31.75 12.99 33.29 14.13 33.95 14.13 32.41 12.99 31.75"/>
        <polygon class="cls-6" points="12.99 34.06 12.99 35.61 14.13 36.27 14.13 34.72 12.99 34.06"/>
        <polygon class="cls-6" points="12.99 36.37 12.99 37.92 14.13 38.58 14.13 37.03 12.99 36.37"/>
        <polygon class="cls-17" points="9.81 25.43 6.85 23.72 6.85 27.17 9.81 28.88 9.81 25.43"/>
        <path class="cls-9" d="M8.33,25.74s0,0,0,0c-.23-.13-.42.02-.42.32,0,.08.01.16.03.24l-1.47,1-2.85-1.64v.29l2.86,1.65,1.55-1.06c.08.14.18.26.29.33.23.14.42,0,.42-.32s-.19-.67-.42-.81Z"/>
        <polygon class="cls-3" points="10.07 31.53 7.11 29.82 7.11 33.27 10.07 34.98 10.07 31.53"/>
        <path class="cls-6" d="M8.59,31.62s0,0-.01,0c-.08-.05-.16-.07-.24-.06l-1.48-2.74-.02-.03-3.23-1.88v.29l3.04,1.77,1.46,2.71c-.07.09-.12.22-.12.39,0,.43.26.93.59,1.12.32.19.59-.01.59-.44s-.26-.93-.59-1.12Z"/>
        <path class="cls-17" d="M8.33,26.07s0,0,0,0c-.1-.05-.17,0-.17.13h0c0,.13.08.28.17.33.1.06.17,0,.17-.13s-.08-.28-.17-.33Z"/>
        <path class="cls-6" d="M10.93,29.29s-.01,0-.02,0c-.47-.26-.85.03-.85.66h0c0,.63.39,1.37.86,1.65.48.27.86-.02.86-.65s-.39-1.37-.86-1.65Z"/>
        <path class="cls-9" d="M8.59,32.05s0,0,0,0c-.14-.08-.26,0-.26.2h0c0,.19.12.41.26.5s.26,0,.26-.2-.12-.41-.26-.5Z"/>
        <path class="cls-9" d="M10.93,29.76s0,0,0,0c-.28-.15-.5.02-.5.39h0c0,.38.23.81.51.98.28.16.51-.01.51-.39s-.23-.81-.51-.98Z"/>
        <path class="cls-9" d="M10.8,31.5v5.06l-4.37-2.58.02-2.13-2.83-1.41v.31l2.55,1.27-.02,2.12,4.93,2.91v-5.39s-.07-.03-.15-.07c-.06-.03-.13-.09-.13-.09Z"/>
        <path class="cls-3" d="M15.76,47.23l-7.44-6.58s0-.01,0-.02c0-.43-.24-.91-.54-1.15v-3.2l-.25-.14v3.22c-.28-.07-.48.15-.48.54,0,.47.28,1.01.64,1.22.26.15.48.07.58-.17l7.48,6.61v-.32Z"/>
      </g>
      <g>
        <path class="cls-3" d="M84.53,36.97c0,1.11-.67,2.39-1.5,2.87s-1.5-.03-1.5-1.14.67-2.39,1.5-2.87,1.5.03,1.5,1.14Z"/>
        <path class="cls-3" d="M76.55,43.35l5.91-5.22s0-.01,0-.02c0-.43.24-.91.54-1.15v-3.03l.25-.14v3.04c.28-.07.48.15.48.54,0,.47-.28,1.01-.64,1.22-.26.15-.48.07-.58-.17l-6.28,5.51.32-.57Z"/>
      </g>
      <g>
        <g>
          <polygon class="cls-8" points="9.55 0 18.71 5.32 18.71 22.99 9.55 17.7 9.55 0"/>
          <polygon class="cls-9" points="10.25 1.61 17.56 5.86 17.56 6.92 10.25 2.69 10.25 1.61"/>
          <polygon class="cls-3" points="13.83 5.8 17.56 7.97 17.56 8.37 13.83 6.22 13.83 5.8"/>
          <polygon class="cls-3" points="14.54 7.13 17.56 8.88 17.56 9.29 14.54 7.54 14.54 7.13"/>
          <polygon class="cls-3" points="14.54 8.03 17.56 9.78 17.56 10.19 14.54 8.45 14.54 8.03"/>
          <polygon class="cls-3" points="13.83 10.21 17.56 12.38 17.56 12.78 13.83 10.63 13.83 10.21"/>
          <polygon class="cls-3" points="14.54 11.54 17.56 13.29 17.56 13.69 14.54 11.95 14.54 11.54"/>
          <polygon class="cls-3" points="14.54 12.44 17.56 14.19 17.56 14.6 14.54 12.86 14.54 12.44"/>
          <polygon class="cls-3" points="13.83 14.61 17.56 16.78 17.56 17.19 13.83 15.03 13.83 14.61"/>
          <polygon class="cls-3" points="14.54 15.94 17.56 17.69 17.56 18.1 14.54 16.36 14.54 15.94"/>
          <polygon class="cls-3" points="14.54 16.84 17.56 18.59 17.56 19 14.54 17.26 14.54 16.84"/>
          <polygon class="cls-17" points="13.48 5.59 13.48 9.06 10.54 7.37 10.54 3.89 13.48 5.59"/>
          <polygon class="cls-17" points="13.48 9.91 13.48 13.38 10.54 11.68 10.54 8.21 13.48 9.91"/>
          <polygon class="cls-17" points="13.48 14.26 13.48 17.72 10.54 16.03 10.54 12.55 13.48 14.26"/>
          <polygon class="cls-17" points="13.48 18.57 13.48 19.25 10.54 17.55 10.54 16.87 13.48 18.57"/>
        </g>
        <g>
          <path class="cls-3" d="M16.48,25.92c0,.84.51,1.82,1.14,2.18s1.14-.02,1.14-.86-.51-1.82-1.14-2.18c-.63-.36-1.14.02-1.14.86Z"/>
          <path class="cls-3" d="M29.46,33.38c0,.47.29,1.01.64,1.22.35.2.64-.01.64-.48s-.29-1.01-.64-1.22c-.35-.2-.64.01-.64.48Z"/>
          <path class="cls-9" d="M30.1,33.3c-.13-.08-.24-.04-.3.08l-11.55-6.43c-.02-.43-.26-.91-.57-1.13v-3.42l-.25-.14v3.45c-.26-.04-.45.17-.45.55,0,.47.29,1.01.64,1.22.29.17.53.05.61-.26l11.55,6.43c.03.22.16.46.32.55.19.11.34,0,.34-.25s-.15-.54-.34-.64Z"/>
        </g>
      </g>
    </g>
  </g>
</svg>