<?xml version="1.0" encoding="UTF-8"?>
<svg id="_圖層_2" data-name="圖層_2" xmlns="http://www.w3.org/2000/svg" viewBox="0 0 36.98 74.74">
  <defs>
    <style>
      .cls-1 {
        fill: #18425a;
      }

      .cls-2 {
        fill: #285a75;
      }

      .cls-3 {
        fill: #ecc3b2;
      }

      .cls-4 {
        fill: #0b0808;
      }

      .cls-5 {
        fill: #6d5849;
      }

      .cls-6, .cls-7 {
        fill: #ea5b51;
      }

      .cls-8, .cls-9, .cls-10, .cls-11, .cls-12, .cls-7, .cls-13, .cls-14, .cls-15, .cls-16, .cls-17, .cls-18, .cls-19, .cls-20 {
        opacity: .4;
      }

      .cls-8, .cls-21 {
        fill: #f2f2f3;
      }

      .cls-9, .cls-22 {
        fill: #bbe2f0;
      }

      .cls-10, .cls-23 {
        fill: #3b9392;
      }

      .cls-24, .cls-15 {
        fill: #4285a1;
      }

      .cls-25 {
        fill: #bcbdbf;
      }

      .cls-26 {
        fill: #736656;
      }

      .cls-11, .cls-27 {
        fill: #f6c156;
      }

      .cls-12 {
        fill: #a0819c;
      }

      .cls-28 {
        fill: #89c5c4;
      }

      .cls-29 {
        fill: #5e4439;
      }

      .cls-30 {
        fill: #3d6568;
      }

      .cls-31, .cls-13 {
        fill: #f6e57c;
      }

      .cls-32 {
        fill: #f4eee8;
      }

      .cls-33 {
        fill: #dcb85f;
      }

      .cls-34 {
        fill: #a39b94;
      }

      .cls-35 {
        fill: #d8993b;
      }

      .cls-36 {
        fill: #e9b141;
      }

      .cls-37 {
        fill: #808285;
      }

      .cls-38 {
        opacity: .7;
      }

      .cls-14, .cls-39 {
        fill: #67bdd9;
      }

      .cls-40, .cls-16 {
        fill: #448aaf;
      }

      .cls-41 {
        fill: #e2e2e1;
      }

      .cls-42 {
        fill: #c8d476;
      }

      .cls-43 {
        fill: #a29585;
      }

      .cls-44 {
        fill: #6aaebc;
      }

      .cls-45 {
        fill: #e0dedc;
      }

      .cls-17 {
        fill: #efc6dd;
      }

      .cls-46 {
        fill: #295e79;
      }

      .cls-47 {
        fill: #b4afa6;
      }

      .cls-48 {
        fill: #5d99a7;
      }

      .cls-49 {
        fill: #851f20;
      }

      .cls-18 {
        fill: #ec696b;
      }

      .cls-50 {
        fill: #c4a294;
      }

      .cls-51 {
        fill: #040000;
        opacity: .3;
      }

      .cls-52 {
        fill: #d7d0c6;
      }

      .cls-19 {
        fill: #aaafc9;
      }

      .cls-53 {
        fill: #574943;
      }

      .cls-54 {
        fill: #211a1a;
      }

      .cls-55 {
        fill: #d1d1d1;
      }

      .cls-20 {
        fill: #c6a4ca;
      }

      .cls-56 {
        fill: #e5e0dc;
      }

      .cls-57 {
        fill: #7ccad9;
      }

      .cls-58 {
        fill: #362c29;
      }
    </style>
  </defs>
  <g id="_圖層_1-2" data-name="圖層_1">
    <g>
      <polygon class="cls-9" points="0 21.55 3.06 14.96 3.06 35.18 0 41.77 0 21.55"/>
      <g>
        <polygon class="cls-20" points=".43 26.35 2.62 21.63 2.62 24.89 .43 29.6 .43 26.35"/>
        <polygon class="cls-8" points=".43 22.06 2.62 17.35 2.62 20.6 .43 25.32 .43 22.06"/>
        <polygon class="cls-16" points=".43 30.65 2.62 25.94 2.62 34.64 .43 39.35 .43 30.65"/>
      </g>
    </g>
    <polygon class="cls-34" points="11.76 31.64 12.08 33.81 13.98 34.81 14.56 33.62 13.02 31.19 11.76 31.64"/>
    <polygon class="cls-3" points="12.15 31.61 7.97 35.78 6.78 35.78 3.94 36.64 3.56 37.9 6.88 38.83 9.33 38.1 14.21 34.44 14.31 32.62 13.5 31.61 12.15 31.61"/>
    <polygon class="cls-3" points="4.31 36.9 4.08 35.39 3.3 34.72 2.02 34.84 .82 36.04 .91 36.35 1.58 36.37 2.71 37.8 3.56 37.9 4.18 37.62 4.31 36.9"/>
    <polygon class="cls-50" points="7.97 35.78 8.52 36.45 8.97 37.51 8.81 36.36 7.97 35.78"/>
    <polygon class="cls-32" points="13.9 29.07 11.76 31.64 13.3 32.51 13.98 34.81 17.29 31.25 16.68 28.99 15.27 28.67 13.9 29.07"/>
    <polygon class="cls-39" points="16.84 69.07 11.89 70.57 10.62 70.89 10.62 71.08 10.74 71.84 12.56 71.84 15.04 70.82 16.73 70.75 17.89 70.03 17.89 69.84 16.84 69.07"/>
    <polygon class="cls-39" points="22.06 70.66 18.71 73.63 18.24 74.09 18.24 74.28 19.2 74.74 20.61 74.65 21.95 73.4 22.25 72.06 22.71 71.06 22.71 70.88 22.06 70.66"/>
    <polygon class="cls-32" points="14.49 68.04 13.15 69.14 10.85 70.12 10.62 70.89 10.74 71.65 12.56 71.65 15.04 70.63 16.73 70.57 17.89 69.84 17.6 67.92 14.49 68.04"/>
    <polygon class="cls-45" points="14.1 68.36 15.98 69.33 17.72 68.72 17.65 68.25 14.33 68.17 14.1 68.36"/>
    <polygon class="cls-21" points="19.89 69.96 19.44 71.39 18.34 73.37 18.24 74.09 19.2 74.56 20.61 74.46 21.95 73.21 22.25 71.87 22.71 70.88 22.47 69.67 19.89 69.96"/>
    <polygon class="cls-32" points="19.74 70.45 20.9 71.15 22.6 70.36 22.53 69.98 19.83 70.14 19.74 70.45"/>
    <polygon class="cls-32" points="13.24 44.85 13.42 57.24 13.98 59.82 14.23 68.13 16.01 68.91 18.05 68.1 18.3 61.16 17.68 57.79 18.71 48.53 17.19 45.31 13.24 44.85"/>
    <polygon class="cls-41" points="13.36 44.85 14.85 48.01 17.29 50.14 19.11 60.66 19.56 69.98 20.87 70.74 22.9 69.81 23.31 60.97 22.62 58.39 23 47.05 22.94 46.53 13.36 44.85"/>
    <polygon class="cls-32" points="13.36 45.55 15.3 47.15 19.39 48.01 21.8 47.32 22.94 46.53 22.87 46 13.29 44.53 13.36 45.55"/>
    <polygon class="cls-50" points="20.51 28.58 20.71 29.92 20.71 30.78 19.87 31.87 16.49 32.62 16.01 30.33 17.19 28.88 19.74 28.29 20.51 28.58"/>
    <polygon class="cls-21" points="24.05 32.74 20.71 29.92 19.56 31.47 16.77 32.08 16.63 30.15 15.33 30.04 14.56 30.61 13.36 32.98 13.02 37.9 13.02 44.67 15.42 46.56 19.32 47.32 21.59 46.87 23.1 45.85 23.07 38.35 24.05 32.74"/>
    <g>
      <g>
        <g>
          <g>
            <polygon class="cls-32" points="16.28 24.64 15.55 24.33 15.27 24.81 15.9 25.31 16.28 24.64"/>
            <polygon class="cls-21" points="16.63 24.62 16.09 24.64 15.55 24.33 16.63 23.71 17.17 24.02 16.63 24.62"/>
            <polygon class="cls-45" points="15.81 26.91 15.27 26.6 15.27 24.81 15.81 25.12 15.95 25.93 15.81 26.91"/>
            <polygon class="cls-49" points="17.44 24.18 17.17 24.02 16.09 24.64 15.81 25.12 15.81 26.91 16.09 27.07 17.17 26.45 17.44 25.97 17.44 24.18"/>
          </g>
          <g>
            <polygon class="cls-56" points="17.21 23.89 16.05 24.56 16.34 24.92 17.47 24.26 17.46 24.04 17.21 23.89"/>
            <polygon class="cls-47" points="16.18 25.69 15.97 27.16 15.72 27.01 15.72 25.13 16.04 25.21 16.18 25.69"/>
            <polygon class="cls-52" points="16.31 25.07 15.97 25.28 15.72 25.13 16.05 24.56 16.31 24.71 16.31 25.07"/>
            <polygon class="cls-34" points="17.46 24.04 16.31 24.71 15.97 25.28 15.97 27.16 16.31 27.35 17.46 26.68 17.79 26.11 17.79 24.23 17.46 24.04"/>
            <g>
              <polygon class="cls-56" points="17.29 26.39 16.47 26.86 16.25 26.73 17.07 26.26 17.29 26.39"/>
              <polygon class="cls-52" points="17.07 26.26 17.3 25.86 17.53 25.99 17.29 26.39 17.07 26.26"/>
              <polygon class="cls-47" points="17.3 25.86 17.3 24.52 17.53 24.66 17.53 25.99 17.3 25.86"/>
              <polygon class="cls-37" points="17.3 24.52 17.3 25.86 17.07 26.26 16.25 26.73 16.24 26.73 16.24 25.4 16.47 24.99 17.29 24.52 17.3 24.52"/>
            </g>
          </g>
        </g>
        <g>
          <polygon class="cls-47" points="16.68 23.25 16.14 23.6 16.14 23.51 16.5 23 16.65 22.86 17.17 22.56 16.68 23.25"/>
          <polygon class="cls-34" points="16.68 24.06 16.16 24.36 16.13 23.86 16.12 23.77 16.16 23.56 16.68 23.25 16.68 24.06"/>
          <polygon class="cls-52" points="16.16 24.36 16.1 24.33 16.1 23.5 16.61 22.77 16.65 22.86 16.16 23.56 16.16 24.36"/>
        </g>
      </g>
      <g>
        <polygon class="cls-55" points="15.42 25.32 14.85 25.83 14.85 27.42 15.42 27.29 15.8 26.63 15.8 25.54 15.42 25.32"/>
        <polygon class="cls-25" points="14.85 27.24 15.42 27.29 15.42 25.32 14.85 25.93 14.85 27.24"/>
        <polygon class="cls-21" points="14.44 25.88 14.58 26.09 14.93 26.17 15.42 25.32 14.44 25.88"/>
      </g>
    </g>
    <polygon class="cls-3" points="15.03 25.13 14.81 26.52 15.33 30.45 16.39 31.06 18.26 30.23 19.45 29.14 19.56 28.29 19.3 26.43 18.26 24.92 15.55 24.56 15.03 25.13"/>
    <polygon class="cls-26" points="17.39 22.9 16.14 23.28 16.4 23.41 15.5 24.02 14.75 25.39 15.06 25.26 15.5 26.14 15.5 25.55 16.49 26.64 16.31 25.96 17.31 26.56 18 26.73 18.6 27.45 18.86 28.15 20.36 27.85 20.96 26.52 20.89 24.82 20.15 23.64 20.41 23.57 19.74 23.34 19.4 22.81 19.26 23.25 17.39 22.9"/>
    <g>
      <g>
        <g>
          <polygon class="cls-56" points="20.2 25.62 19.04 26.29 19.33 26.64 20.46 25.99 20.45 25.76 20.2 25.62"/>
          <polygon class="cls-47" points="19.17 27.42 18.97 28.88 18.71 28.74 18.71 26.86 19.03 26.94 19.17 27.42"/>
          <polygon class="cls-52" points="19.3 26.79 18.97 27 18.71 26.86 19.04 26.29 19.3 26.43 19.3 26.79"/>
          <polygon class="cls-34" points="20.45 25.76 19.3 26.43 18.97 27 18.97 28.88 19.3 29.07 20.45 28.41 20.78 27.83 20.78 25.95 20.45 25.76"/>
        </g>
        <g>
          <polygon class="cls-32" points="20.06 26.82 19.33 26.52 19.06 26.99 19.69 27.5 20.06 26.82"/>
          <polygon class="cls-21" points="20.42 26.8 19.88 26.83 19.33 26.52 20.41 25.89 20.96 26.21 20.42 26.8"/>
          <polygon class="cls-45" points="19.6 29.1 19.06 28.78 19.06 26.99 19.6 27.31 19.74 28.12 19.6 29.1"/>
          <polygon class="cls-55" points="21.23 26.37 20.96 26.21 19.88 26.83 19.6 27.31 19.6 29.1 19.88 29.25 20.96 28.63 21.23 28.16 21.23 26.37"/>
        </g>
      </g>
      <g>
        <g>
          <polygon class="cls-45" points="16.53 22.76 17.18 22.38 18.06 22.3 17.47 22.76 16.76 22.81 16.53 22.76"/>
          <polygon class="cls-55" points="19.26 24.49 19.91 24.11 19.98 24 19.94 24 19.31 24.35 19.28 24.41 19.26 24.49"/>
          <polygon class="cls-45" points="19.98 24 19.34 24.38 18.39 23.28 19.1 22.9 19.98 24"/>
          <polygon class="cls-21" points="19.1 22.9 18.45 23.28 17.86 23.04 17.41 22.68 18.06 22.3 19.1 22.9"/>
          <polygon class="cls-32" points="18.45 23.28 17.41 22.68 16.53 22.76 16.6 22.95 17.45 22.88 18.41 23.43 19.26 24.49 19.34 24.38 18.45 23.28"/>
        </g>
        <g>
          <polygon class="cls-34" points="20.41 26.22 19.89 26.52 19.87 26.33 19.87 25.92 19.87 25.65 20.41 25.39 20.41 26.22"/>
          <polygon class="cls-47" points="20.41 25.39 19.89 25.69 19.82 25.57 19.44 24.6 19.38 24.37 19.9 24.07 20.41 25.39"/>
          <polygon class="cls-52" points="19.89 26.52 19.83 26.48 19.83 25.68 19.34 24.42 19.38 24.37 19.89 25.69 19.89 26.52"/>
        </g>
      </g>
    </g>
    <g>
      <g>
        <polygon class="cls-25" points="18.46 27.07 18.84 27.29 19.04 27.64 18.61 27.47 18.47 27.21 18.46 27.07"/>
        <polygon class="cls-21" points="17.47 27.77 16.98 27.35 18.46 27.07 17.47 27.77"/>
        <polygon class="cls-45" points="18.46 27.07 18.66 27.42 18.14 27.86 17.68 27.99 17.52 27.85 17.47 27.64 18.46 27.07"/>
        <polygon class="cls-55" points="18.66 27.42 17.68 27.99 17.57 28.86 17.68 29.49 18.66 28.92 19.04 28.26 19.04 27.64 18.66 27.42"/>
      </g>
      <g>
        <polygon class="cls-55" points="17.47 27.64 16.93 27.81 17.31 29.7 17.68 29.49 17.68 27.99 17.47 27.64"/>
        <polygon class="cls-21" points="17.47 27.64 17.12 27.96 16.01 27.53 14.07 26.09 14.44 25.88 17.47 27.64"/>
        <polygon class="cls-45" points="17.68 27.99 17.31 28.2 17.1 28.11 17.11 27.85 17.47 27.64 17.68 27.99"/>
        <polygon class="cls-32" points="17.11 27.85 14.07 26.09 13.87 26.21 13.87 27.72 14.07 28.07 17.11 29.82 17.31 29.7 17.31 28.2 17.11 27.85"/>
      </g>
      <g>
        <polygon class="cls-48" points="17.11 27.85 16.76 27.91 17.14 29.8 17.31 29.7 17.31 28.2 17.11 27.85"/>
        <polygon class="cls-22" points="17.11 27.85 16.95 28.05 15.84 27.63 13.9 26.19 14.07 26.09 17.11 27.85"/>
        <polygon class="cls-57" points="17.31 28.2 17.14 28.29 16.93 28.21 16.94 27.94 17.11 27.85 17.31 28.2"/>
        <polygon class="cls-32" points="16.94 27.94 13.9 26.19 13.7 26.31 13.7 27.81 13.9 28.16 16.94 29.92 17.14 29.8 17.14 28.29 16.94 27.94"/>
      </g>
      <g>
        <polygon class="cls-55" points="16.94 27.94 15.85 28.44 16.23 30.33 17.14 29.8 17.14 28.29 16.94 27.94"/>
        <polygon class="cls-21" points="16.94 27.94 16.04 28.58 14.93 28.16 12.99 26.72 13.9 26.19 16.94 27.94"/>
        <polygon class="cls-45" points="17.14 28.29 16.23 28.82 16.01 28.73 16.02 28.47 16.94 27.94 17.14 28.29"/>
        <polygon class="cls-32" points="16.02 28.47 12.99 26.72 12.79 26.84 12.79 28.34 12.99 28.69 16.02 30.45 16.23 30.33 16.23 28.82 16.02 28.47"/>
        <g>
          <g>
            <polygon class="cls-22" points="13.5 27.31 13.5 28.49 13.33 28.46 13.33 27.44 13.38 27.24 13.5 27.31"/>
            <polygon class="cls-21" points="13.38 28.43 13.5 28.49 13.5 28.69 13.22 28.52 13.28 28.43 13.38 28.43"/>
            <polygon class="cls-55" points="13.22 28.52 13.22 27.15 13.38 27.24 13.38 28.43 13.22 28.52"/>
          </g>
          <g>
            <polygon class="cls-22" points="13.98 27.59 13.98 28.77 13.81 28.74 13.81 27.72 13.87 27.52 13.98 27.59"/>
            <polygon class="cls-21" points="13.87 28.7 13.98 28.77 13.98 28.97 13.7 28.8 13.76 28.7 13.87 28.7"/>
            <polygon class="cls-55" points="13.7 28.8 13.7 27.42 13.87 27.52 13.87 28.7 13.7 28.8"/>
          </g>
        </g>
      </g>
    </g>
    <polygon class="cls-34" points="22.67 39.61 24.42 40.09 25.81 38.87 25.24 37.41 22.59 38.05 22.67 39.61"/>
    <polygon class="cls-3" points="25.61 38.83 26.2 41.69 26.71 41.72 28.42 41.48 29.37 42.18 29.21 42.66 30.15 43.31 30.7 43.34 30.84 43.82 29.96 44.55 27.77 44.85 26.64 43.94 25.5 44.85 23.91 44.12 22.85 39.47 23.8 37.78 25.61 38.83"/>
    <polygon class="cls-50" points="26.2 41.69 25.24 41.62 24.05 42.82 25.09 41.39 26.2 41.69"/>
    <polygon class="cls-50" points="26.64 43.94 25.58 43.06 25.81 43.61 26.64 43.94"/>
    <polygon class="cls-32" points="23 32.4 21.8 33.4 21.8 36.18 22.67 39.61 24.11 38.52 25.81 38.87 25.09 34.19 24.05 32.74 23 32.4"/>
    <g class="cls-38">
      <g>
        <g>
          <polygon class="cls-22" points="35.11 42.21 29.88 45.23 31.12 45.95 32.34 45.32 35.05 43.74 36.35 42.93 35.11 42.21"/>
          <polygon class="cls-21" points="31.13 45.45 31.13 44.95 31.01 44.69 36.02 41.8 35.9 42.22 35.9 42.68 36.02 42.95 31.01 45.85 31.13 45.45"/>
          <g>
            <polygon class="cls-36" points="30.54 45.17 30.35 45.51 30.77 45.78 30.99 45.88 31.13 45.51 30.92 45.34 30.54 45.17"/>
            <polygon class="cls-35" points="31.13 45.07 30.97 44.97 31.05 44.85 31.14 45.03 31.13 45.07"/>
            <polygon class="cls-27" points="30.54 44.71 30.54 45.17 31.11 45.5 31.14 45.24 31.11 45.04 30.54 44.71"/>
            <polygon class="cls-31" points="31.18 44.98 31.18 45.47 31.06 45.87 31.02 45.89 30.99 45.88 31.11 45.5 31.11 45.04 30.99 44.79 31.02 44.74 31.06 44.72 31.18 44.98"/>
          </g>
          <polygon class="cls-22" points="29.7 37.79 24.42 40.84 27.97 43.07 31.06 44.67 32.34 43.99 34.86 42.53 36.35 41.62 29.7 37.79"/>
          <polygon class="cls-57" points="31.06 44.67 30.9 45.04 30.69 45.31 27.6 43.69 24.05 41.48 24.42 40.84 31.06 44.67"/>
          <polygon class="cls-44" points="24.05 41.48 24.05 42.09 30.69 45.92 30.77 45.63 30.69 45.31 24.05 41.48"/>
          <polygon class="cls-48" points="30.69 45.31 30.69 45.92 31.06 46.13 36.35 43.08 36.35 42.93 31.12 45.95 30.82 45.78 30.82 45.3 31.12 44.8 36.35 41.78 36.35 41.62 31.06 44.67 30.69 45.31"/>
        </g>
        <g>
          <polygon class="cls-43" points="35.74 40.2 30.51 43.22 31.75 43.94 32.97 43.31 35.68 41.73 36.98 40.92 35.74 40.2"/>
          <polygon class="cls-21" points="31.76 43.44 31.76 42.94 31.64 42.68 36.65 39.79 36.53 40.21 36.53 40.67 36.65 40.94 31.64 43.83 31.76 43.44"/>
          <g>
            <polygon class="cls-36" points="31.17 43.16 30.98 43.5 31.4 43.77 31.62 43.87 31.77 43.5 31.55 43.33 31.17 43.16"/>
            <polygon class="cls-35" points="31.76 43.06 31.6 42.96 31.68 42.84 31.77 43.02 31.76 43.06"/>
            <polygon class="cls-27" points="31.17 42.7 31.17 43.16 31.74 43.49 31.77 43.23 31.74 43.02 31.17 42.7"/>
            <polygon class="cls-31" points="31.81 42.97 31.81 43.46 31.69 43.86 31.65 43.88 31.62 43.87 31.74 43.49 31.74 43.02 31.62 42.78 31.65 42.73 31.69 42.71 31.81 42.97"/>
          </g>
          <polygon class="cls-43" points="30.33 35.78 25.05 38.83 28.6 41.06 31.69 42.66 32.97 41.98 35.49 40.52 36.98 39.61 30.33 35.78"/>
          <polygon class="cls-26" points="31.69 42.66 31.53 43.03 31.32 43.31 28.23 41.68 24.68 39.47 25.05 38.83 31.69 42.66"/>
          <polygon class="cls-5" points="24.68 39.47 24.68 40.08 31.32 43.91 31.4 43.62 31.32 43.31 24.68 39.47"/>
          <polygon class="cls-29" points="31.32 43.31 31.32 43.91 31.69 44.12 36.98 41.07 36.98 40.92 31.75 43.94 31.45 43.77 31.45 43.29 31.75 42.79 36.98 39.77 36.98 39.61 31.69 42.66 31.32 43.31"/>
        </g>
        <g>
          <polygon class="cls-40" points="34.97 39.09 29.74 42.11 30.98 42.82 32.2 42.2 34.91 40.61 36.21 39.8 34.97 39.09"/>
          <polygon class="cls-21" points="30.99 42.32 30.99 41.83 30.87 41.57 35.89 38.67 35.76 39.09 35.76 39.55 35.89 39.83 30.87 42.72 30.99 42.32"/>
          <g>
            <polygon class="cls-36" points="30.41 42.04 30.21 42.38 30.63 42.66 30.86 42.75 31 42.38 30.78 42.22 30.41 42.04"/>
            <polygon class="cls-35" points="30.99 41.94 30.83 41.85 30.91 41.72 31 41.91 30.99 41.94"/>
            <polygon class="cls-27" points="30.41 41.58 30.41 42.04 30.97 42.37 31 42.11 30.97 41.91 30.41 41.58"/>
            <polygon class="cls-31" points="31.04 41.85 31.04 42.35 30.92 42.75 30.88 42.77 30.86 42.75 30.97 42.37 30.97 41.91 30.86 41.66 30.88 41.62 30.92 41.59 31.04 41.85"/>
          </g>
          <polygon class="cls-40" points="29.57 34.66 24.28 37.71 27.84 39.94 30.92 41.55 32.2 40.87 34.73 39.41 36.21 38.5 29.57 34.66"/>
          <polygon class="cls-46" points="30.92 41.55 30.77 41.91 30.55 42.19 27.46 40.57 23.91 38.35 24.28 37.71 30.92 41.55"/>
          <polygon class="cls-2" points="23.91 38.35 23.91 38.96 30.55 42.79 30.63 42.5 30.55 42.19 23.91 38.35"/>
          <polygon class="cls-1" points="30.55 42.19 30.55 42.79 30.92 43.01 36.21 39.96 36.21 39.8 30.98 42.82 30.69 42.65 30.69 42.18 30.98 41.67 36.21 38.65 36.21 38.5 30.92 41.55 30.55 42.19"/>
        </g>
      </g>
      <g>
        <polygon class="cls-51" points="32.42 39.2 34.67 37.9 29.88 35.13 25.09 37.9 29.88 40.66 32.14 39.36 32.22 39.41 32.39 39.41 32.51 39.34 32.51 39.25 32.42 39.2"/>
        <g>
          <polygon class="cls-53" points="29.11 37.16 27.79 36.41 27.64 37.98 27.7 38.1 27.64 38.16 27.64 38.38 28.95 39.14 29.21 37.3 29.11 37.16"/>
          <polygon class="cls-58" points="30.66 37.16 29.11 37.16 28.95 38.73 28.95 39.14 30.81 39.14 30.81 37.27 30.66 37.16"/>
          <polygon class="cls-54" points="31.97 36.41 30.66 37.16 30.81 38.73 30.81 39.14 32.12 38.38 32.12 38.16 32.08 38.1 32.12 37.98 31.97 36.41"/>
          <g>
            <polygon class="cls-27" points="28.95 38.73 27.64 37.98 27.64 38.16 28.95 38.92 29.06 38.83 28.95 38.73"/>
            <polygon class="cls-36" points="30.81 38.73 28.95 38.73 28.95 38.92 30.81 38.92 30.91 38.78 30.81 38.73"/>
            <polygon class="cls-35" points="30.81 38.73 30.81 38.92 32.12 38.16 32.12 37.98 30.81 38.73"/>
          </g>
        </g>
        <g>
          <polygon class="cls-58" points="29.88 38.63 25.09 35.87 25.09 35.75 30.03 38.39 29.88 38.63"/>
          <polygon class="cls-4" points="29.88 38.63 29.88 38.52 31.32 36.91 34.67 35.75 34.67 35.87 29.88 38.63"/>
          <polygon class="cls-53" points="29.88 38.52 25.09 35.75 29.88 32.98 34.67 35.75 29.88 38.52"/>
        </g>
        <g>
          <polygon class="cls-31" points="30.05 35.94 29.71 35.94 29.47 35.81 29.47 35.61 29.71 35.47 30.05 35.47 30.3 35.61 30.3 35.81 30.05 35.94"/>
          <polygon class="cls-27" points="29.71 35.94 29.47 35.81 29.47 35.85 29.71 35.99 29.73 35.97 29.71 35.94"/>
          <polygon class="cls-36" points="30.05 35.94 29.71 35.94 29.71 35.99 30.05 35.99 30.08 35.96 30.05 35.94"/>
          <polygon class="cls-35" points="30.3 35.81 30.05 35.94 30.05 35.99 30.3 35.85 30.3 35.81"/>
        </g>
        <g>
          <path class="cls-27" d="M32.33,37.13v-.02s-2.14-1.23-2.14-1.23c-.01,0-.03,0-.04,0,0,.01,0,.03,0,.03l2.12,1.23v.88s.01.03.03.03c.01,0,.03-.01.03-.03v-.9Z"/>
          <polygon class="cls-36" points="32.25 38.06 32.16 38.14 32.16 39.19 32.25 39.28 32.37 39.28 32.45 39.19 32.45 38.14 32.37 38.06 32.25 38.06"/>
          <polygon class="cls-27" points="32.27 37.93 32.21 37.99 32.21 38.06 32.27 38.12 32.35 38.12 32.4 38.06 32.4 37.99 32.35 37.93 32.27 37.93"/>
        </g>
      </g>
      <g>
        <g>
          <polygon class="cls-28" points="25.68 7.78 25.32 7.99 11.84 .21 12.2 0 25.68 7.78"/>
          <polygon class="cls-30" points="25.68 9.06 25.32 9.27 25.32 7.99 25.68 7.78 25.68 9.06"/>
          <polygon class="cls-55" points="25.68 21.08 25.32 21.29 25.32 9.27 25.68 9.06 25.68 21.08"/>
          <polygon class="cls-23" points="25.32 7.99 11.84 .21 11.84 1.49 25.32 9.27 25.32 7.99"/>
          <polygon class="cls-21" points="11.84 13.51 25.32 21.29 25.32 9.27 11.84 1.49 11.84 13.51"/>
          <polygon class="cls-6" points="11.84 5.83 25.32 13.62 25.32 13.56 11.84 5.78 11.84 5.83"/>
          <g>
            <polygon class="cls-55" points="24.42 9.89 12.74 3.15 12.62 3.22 12.62 3.37 12.74 3.58 24.42 10.33 24.54 10.26 24.54 10.1 24.42 9.89"/>
            <polygon class="cls-55" points="17.08 6.94 17.2 6.87 17.2 6.72 17.08 6.51 12.74 4 12.62 4.07 12.62 4.23 12.74 4.44 17.08 6.94"/>
            <polygon class="cls-55" points="12.74 4.86 12.62 4.93 12.62 5.08 12.74 5.3 21.45 10.33 21.58 10.26 21.58 10.1 21.45 9.89 12.74 4.86"/>
          </g>
          <polygon class="cls-27" points="16.06 11.75 12.8 9.86 12.8 7.07 16.06 8.96 16.06 11.75"/>
          <g>
            <polygon class="cls-55" points="17.06 10.39 23.5 14.11 23.5 13.77 17.06 10.05 17.06 10.39"/>
            <polygon class="cls-55" points="19.11 11.93 17.06 10.74 17.06 11.08 19.11 12.27 19.11 11.93"/>
            <polygon class="cls-55" points="17.06 13.89 23.5 17.61 23.5 17.27 17.06 13.55 17.06 13.89"/>
            <polygon class="cls-55" points="21.35 16.81 17.06 14.33 17.06 14.67 21.35 17.15 21.35 16.81"/>
          </g>
          <polygon class="cls-42" points="16.06 15.14 12.8 13.26 12.8 10.47 16.06 12.35 16.06 15.14"/>
        </g>
        <g>
          <polygon class="cls-28" points="33.99 16.3 33.63 16.51 22.05 9.82 22.41 9.61 33.99 16.3"/>
          <polygon class="cls-30" points="33.99 17.58 33.63 17.79 33.63 16.51 33.99 16.3 33.99 17.58"/>
          <polygon class="cls-55" points="33.99 28.58 33.63 28.79 33.63 17.79 33.99 17.58 33.99 28.58"/>
          <polygon class="cls-23" points="33.63 16.51 22.05 9.82 22.05 11.1 33.63 17.79 33.63 16.51"/>
          <polygon class="cls-21" points="22.05 22.11 33.63 28.79 33.63 17.79 22.05 11.1 22.05 22.11"/>
          <g>
            <g>
              <polygon class="cls-55" points="32.04 24.14 23.64 19.29 23.64 18.84 32.04 23.7 32.04 24.14"/>
              <polygon class="cls-55" points="32.04 25.04 23.64 20.19 23.64 19.74 32.04 24.6 32.04 25.04"/>
              <polygon class="cls-55" points="32.04 25.94 23.64 21.09 23.64 20.64 32.04 25.5 32.04 25.94"/>
              <polygon class="cls-55" points="32.04 26.84 23.64 21.99 23.64 21.54 32.04 26.4 32.04 26.84"/>
            </g>
            <g>
              <polygon class="cls-24" points="32.04 22.84 23.64 17.99 23.64 12.74 32.04 17.59 32.04 22.84"/>
              <g>
                <polygon class="cls-39" points="24.84 16.03 24.84 15.81 25.1 15.92 25.27 15.61 25.25 15.36 25.51 15.1 25.33 14.79 25.2 14.73 25.23 14.89 25.08 14.85 24.97 14.66 25.08 14.56 25.02 14.34 24.34 13.94 24.11 13.95 24.2 14.18 24.34 14.43 24.44 14.89 24.43 15.32 24.65 15.66 24.71 15.98 24.91 16.29 24.96 16.29 24.84 16.03"/>
                <polygon class="cls-39" points="25.33 16.53 25.04 16.29 24.92 16.41 24.92 16.88 25.11 17.14 25.19 18.04 25.17 18.3 25.27 18.41 25.35 18.14 25.56 18.12 25.79 17.44 25.79 17.26 25.66 17.11 25.33 16.53"/>
                <polygon class="cls-39" points="25.68 14.42 25.43 14.36 25.2 14.43 25.37 14.72 25.48 14.77 25.69 15.3 25.96 15.5 25.96 15.2 26.27 15.13 26.14 14.77 25.68 14.42"/>
                <polygon class="cls-39" points="27.81 17.68 27.32 17.17 26.92 17.21 26.72 17.45 26.87 17.9 27.18 18.08 27.31 18.6 27.26 18.79 27.47 19.39 27.77 19.67 28.03 19.44 27.97 19.03 28.14 18.86 28.22 18.41 28.02 18.21 27.81 17.68"/>
                <polygon class="cls-39" points="30.3 18.76 30.37 18.66 30.79 18.63 30.79 18.28 31.18 18.16 31.57 18.28 31.5 18 30.37 17.13 30.21 17.28 29.49 16.87 29.4 16.65 28.88 16.22 28.2 16.13 27.81 16.31 27.24 15.92 26.88 15.89 26.65 15.82 26.58 16.28 26.77 16.61 26.65 16.88 26.74 17.14 26.89 17.02 27.29 16.96 27.73 17.29 27.97 17.64 28.09 18.05 28.34 18.37 28.55 18.41 28.35 18.03 28.52 18.14 28.7 18.48 29.13 18.8 29.22 19.06 29.37 19.15 29.37 18.74 29.53 18.79 29.75 19.37 29.93 19.47 30.37 19.05 30.3 18.76"/>
                <polygon class="cls-39" points="30.28 20.08 29.99 20.4 30.19 20.84 30.49 20.98 30.68 21.42 30.98 21.68 31.23 21.14 30.8 20.37 30.28 20.08"/>
                <polygon class="cls-39" points="30.67 19.9 30.45 19.24 30.2 19.42 30.55 20.01 30.67 19.9"/>
                <polygon class="cls-39" points="30.2 19.57 30.07 19.67 30.26 19.88 30.36 19.83 30.2 19.57"/>
                <polygon class="cls-39" points="30.43 19.94 30.32 19.98 30.54 20.11 30.43 19.94"/>
                <polygon class="cls-39" points="30.15 19.89 30.21 20.04 30.28 19.99 30.22 19.88 30.15 19.89"/>
              </g>
            </g>
          </g>
        </g>
        <g>
          <polygon class="cls-28" points="36.54 25.84 36.18 26.05 27.35 20.96 27.71 20.75 36.54 25.84"/>
          <polygon class="cls-30" points="36.54 27.12 36.18 27.33 36.18 26.05 36.54 25.84 36.54 27.12"/>
          <polygon class="cls-55" points="36.54 35.34 36.18 35.55 36.18 27.33 36.54 27.12 36.54 35.34"/>
          <polygon class="cls-23" points="36.18 26.05 27.35 20.96 27.35 22.24 36.18 27.33 36.18 26.05"/>
          <polygon class="cls-21" points="27.35 30.45 36.18 35.55 36.18 27.33 27.35 22.24 27.35 30.45"/>
          <g>
            <polygon class="cls-55" points="28.02 28.98 35.48 33.28 35.48 32.89 28.02 28.59 28.02 28.98"/>
            <path class="cls-54" d="M34.25,27.33l.07-.04v-.11l-.07-.11-.09-.05-.07.04v.03l-3.2-1.85h0s-1.7,3.05-1.7,3.05l3.4,1.96h0s1.51.87,1.51.87v.03l.07.11.09.05.07-.04v-.11l-.07-.11-.03-.02v-3.72l.03.02ZM30.83,29.1l-1.46-.85,1.46-2.63v3.48ZM31.38,29.42l-.44-.25v-.52l.15.09.29.5v.19ZM31.45,29.47v-.22l-.33-.58-.18-.1v-2.87l1.46,4.32-.95-.55ZM34.18,31.01l-.03-.02-.07.04v.03l-1.52-.88-1.66-4.9,3.18,1.84v.03l.07.11.03.02v3.72Z"/>
            <polygon class="cls-55" points="32.99 32.35 28.02 29.49 28.02 29.88 32.99 32.74 32.99 32.35"/>
          </g>
        </g>
        <g>
          <polygon class="cls-28" points="14.21 9.43 13.89 9.61 1.84 2.66 2.16 2.47 14.21 9.43"/>
          <polygon class="cls-30" points="14.21 10.57 13.89 10.76 13.89 9.61 14.21 9.43 14.21 10.57"/>
          <polygon class="cls-55" points="14.21 23.46 13.89 23.65 13.89 10.76 14.21 10.57 14.21 23.46"/>
          <polygon class="cls-23" points="13.89 9.61 1.84 2.66 1.84 3.8 13.89 10.76 13.89 9.61"/>
          <polygon class="cls-21" points="1.84 16.69 13.89 23.65 13.89 10.76 1.84 3.8 1.84 16.69"/>
          <polygon class="cls-6" points="1.84 7.68 13.89 14.64 13.89 14.59 1.84 7.63 1.84 7.68"/>
          <g>
            <polygon class="cls-55" points="13.08 11.31 2.64 5.28 2.53 5.34 2.53 5.48 2.64 5.67 13.08 11.7 13.19 11.64 13.19 11.5 13.08 11.31"/>
            <polygon class="cls-55" points="6.52 8.68 6.63 8.61 6.63 8.48 6.52 8.29 2.65 6.05 2.54 6.11 2.54 6.25 2.65 6.44 6.52 8.68"/>
            <polygon class="cls-55" points="2.65 6.81 2.54 6.88 2.54 7.02 2.65 7.2 10.43 11.7 10.54 11.64 10.54 11.5 10.43 11.31 2.65 6.81"/>
          </g>
          <g>
            <path class="cls-24" d="M3.24,9.64l1.11.64v1.28l-1.11-.64v-1.28h0ZM3.1,9.4v1.61l1.39.81v-1.61l-1.39-.8h0Z"/>
            <path class="cls-24" d="M3.24,12.08l1.11.64v1.28l-1.11-.64v-1.28h0ZM3.1,11.84v1.61l1.39.8v-1.61l-1.39-.8h0Z"/>
            <path class="cls-24" d="M3.24,14.52l1.11.64v1.28l-1.11-.64v-1.28h0ZM3.1,14.27v1.61l1.39.8v-1.61l-1.39-.81h0Z"/>
            <path class="cls-33" d="M4.11,11.19l-.11-.06-.07-.28-.28-.16-.07.19-.11-.06.27-.69.11.06.27,1ZM3.9,10.71l-.1-.38-.1.27.2.12Z"/>
            <path class="cls-33" d="M4.04,13.5l-.1.06-.41-.23v-.84l.41.23.1.18v.21l-.07.04.07.12v.24ZM3.94,13v-.11l-.05-.08-.27-.15v.26l.24.14.08-.05ZM3.94,13.39v-.14l-.04-.08-.27-.15v.24l.27.15.05-.03Z"/>
            <path class="cls-33" d="M4.09,15.96l-.1.06-.39-.22-.11-.18v-.61l.11-.06.39.22.1.18-.07.04-.07-.13-.3-.18-.05.03v.51l.05.08.3.18.07-.04.07.12Z"/>
          </g>
          <g>
            <polygon class="cls-55" points="12.38 15.01 5.1 10.81 5.03 10.85 5.03 10.94 5.1 11.08 12.38 15.28 12.45 15.23 12.45 15.14 12.38 15.01"/>
            <polygon class="cls-55" points="10.35 14.64 10.43 14.6 10.43 14.5 10.35 14.37 5.1 11.34 5.03 11.38 5.03 11.48 5.1 11.61 10.35 14.64"/>
          </g>
          <g>
            <polygon class="cls-55" points="12.38 17.41 5.1 13.21 5.03 13.25 5.03 13.35 5.1 13.48 12.38 17.68 12.45 17.64 12.45 17.54 12.38 17.41"/>
            <polygon class="cls-55" points="7.81 15.57 7.88 15.53 7.88 15.43 7.81 15.3 5.1 13.74 5.03 13.79 5.03 13.88 5.1 14.01 7.81 15.57"/>
          </g>
          <g>
            <polygon class="cls-55" points="12.38 19.82 5.1 15.62 5.03 15.66 5.03 15.76 5.1 15.89 12.38 20.09 12.45 20.05 12.45 19.95 12.38 19.82"/>
            <polygon class="cls-55" points="12.38 20.63 12.45 20.58 12.45 20.48 12.38 20.35 5.1 16.15 5.03 16.2 5.03 16.29 5.1 16.43 12.38 20.63"/>
          </g>
        </g>
      </g>
    </g>
    <g>
      <polygon class="cls-9" points="0 41.77 3.06 48.36 11.41 53.18 22.83 54.95 34.24 53.18 34.24 32.97 22.83 34.73 11.41 32.97 3.06 28.14 0 21.55 0 41.77"/>
      <g>
        <polygon class="cls-13" points="2.57 28.71 .34 23.89 .34 31.36 2.57 36.19 2.57 28.71"/>
        <polygon class="cls-14" points="2.57 37.15 .34 32.33 .34 35.83 2.57 40.65 2.57 37.15"/>
        <polygon class="cls-10" points="2.57 41.62 .34 36.8 .34 41.28 2.57 46.11 2.57 41.62"/>
      </g>
      <polygon class="cls-17" points="3.68 47.66 10.84 51.79 10.84 33.75 3.68 29.62 3.68 47.66"/>
      <polygon class="cls-12" points="4.36 43.8 10.17 47.15 10.17 44.41 4.36 41.05 4.36 43.8"/>
      <polygon class="cls-12" points="4.36 47.27 10.17 50.62 10.17 47.88 4.36 44.53 4.36 47.27"/>
      <polygon class="cls-7" points="4.31 40.01 7.93 42.1 7.93 32.97 4.31 30.88 4.31 40.01"/>
      <g>
        <polygon class="cls-8" points="24.36 50.23 33.03 48.89 33.03 34.16 24.36 35.5 24.36 50.23"/>
        <polygon class="cls-18" points="24.36 53.62 33.03 52.28 33.03 49.77 24.36 51.11 24.36 53.62"/>
        <polygon class="cls-14" points="25.13 48.95 32.27 47.84 32.27 45.77 25.13 46.88 25.13 48.95"/>
      </g>
      <g>
        <polygon class="cls-19" points="12.11 34.07 12.11 37.9 22.13 39.45 22.13 35.62 12.11 34.07"/>
        <polygon class="cls-11" points="12.11 39.02 12.11 44.1 22.13 45.66 22.13 40.57 12.11 39.02"/>
        <polygon class="cls-8" points="12.11 44.95 12.11 49.95 22.13 51.5 22.13 46.5 12.11 44.95"/>
        <polygon class="cls-15" points="12.11 50.9 12.11 52.2 22.13 53.75 22.13 52.45 12.11 50.9"/>
      </g>
    </g>
  </g>
</svg>