<?xml version="1.0" encoding="UTF-8"?>
<svg xmlns="http://www.w3.org/2000/svg" viewBox="0 0 148.92 73.93">
  <defs>
    <style>
      .cls-1 {
        fill: #bd3d44;
      }

      .cls-2 {
        fill: #ef4e55;
      }

      .cls-3 {
        fill: #604a23;
      }

      .cls-4 {
        opacity: .4;
      }

      .cls-4, .cls-5, .cls-6 {
        mix-blend-mode: multiply;
      }

      .cls-7 {
        fill: #57b6d3;
      }

      .cls-8 {
        stroke-dasharray: 1.18 1.18;
      }

      .cls-8, .cls-9, .cls-10, .cls-11, .cls-12 {
        fill: none;
        stroke: #262320;
        stroke-linecap: round;
        stroke-linejoin: round;
        stroke-width: .21px;
      }

      .cls-5 {
        opacity: .3;
      }

      .cls-5, .cls-6 {
        fill: #262320;
      }

      .cls-6 {
        opacity: .5;
      }

      .cls-9 {
        stroke-dasharray: 1.16 1.16;
      }

      .cls-10 {
        stroke-dasharray: 1.21 1.21;
      }

      .cls-13 {
        fill: #84847f;
      }

      .cls-14 {
        fill: #78d5f9;
      }

      .cls-15 {
        isolation: isolate;
      }

      .cls-16 {
        fill: #ddddd0;
      }

      .cls-17 {
        fill: #35241d;
      }

      .cls-18 {
        fill: #9ebd44;
      }

      .cls-19 {
        fill: #fff;
      }

      .cls-20 {
        fill: #443317;
      }

      .cls-21 {
        fill: #e1c37d;
      }

      .cls-22 {
        fill: #4c3329;
      }

      .cls-23 {
        fill: #f6f6f2;
      }

      .cls-24 {
        fill: #a3a39f;
      }

      .cls-25 {
        fill: #835844;
      }

      .cls-26 {
        fill: #f5e4bb;
      }

      .cls-12 {
        stroke-dasharray: 1.21 1.21;
      }

      .cls-27 {
        fill: #6b685b;
      }

      .cls-28 {
        fill: #cbb08f;
      }

      .cls-29 {
        fill: #e5e5e3;
      }

      .cls-30 {
        fill: #caec58;
      }

      .cls-31 {
        fill: #b7934b;
      }
    </style>
  </defs>
  <g class="cls-15">
    <g id="_圖層_2" data-name="圖層_2">
      <g id="Layer_3">
        <g>
          <g>
            <g>
              <path class="cls-25" d="M37.42,18.38l-26.39,5.93s-1.79.5-2.77-1.17c-.99-1.67-1.19-1.68.05-3.78,1.24-2.1,8.64-13.14,8.64-13.14,0,0,.45-1.33,5.88-2.2C28.25,3.16,45.96.06,45.96.06c0,0,1.07-.42,1.96.96s1.75,2.84.34,4.62c-1.41,1.78-8.96,11.6-8.96,11.6,0,0-.46.82-1.89,1.14Z"/>
              <path class="cls-22" d="M10.11,24.38s-1.35-.38.64-2.93c1.99-2.55,8.41-11.88,8.41-11.88,0,0,.49-1.29,3.67-1.82,3.19-.53,23.77-4.02,23.77-4.02,0,0,1.53-.36,1.94.14.4.5-1.53,2.7-1.53,2.7l-9.29,11.75s-26.12,5.83-27.6,6.08Z"/>
              <path class="cls-17" d="M22.83,7.74c-3.19.53-3.67,1.82-3.67,1.82,0,0-6.42,9.33-8.41,11.88-1.99,2.55-.64,2.93-.64,2.93,1.16-.19,17.22-3.76,24.3-5.34l10.4-15.02c-5.08.86-19.36,3.28-21.97,3.72Z"/>
              <path class="cls-21" d="M8.82,23.9s-.05-.03-.05-.05c0-.02,0-.05.01-.13.03-.13.1-.32.22-.55.02-.03.06-.05.09-.03.03.02.05.06.03.09-.14.28-.19.44-.2.52-.01.05,0,.08,0,.08,0,.04-.01.07-.05.08,0,0-.02,0-.03,0ZM9.36,22.66s-.01,0-.02,0c-.03-.02-.04-.06-.02-.09.1-.18.22-.37.36-.58.02-.03.06-.04.09-.02.03.02.04.06.02.09-.13.21-.25.4-.35.58-.02.03-.05.04-.07.03ZM10.09,21.51s-.02,0-.02,0c-.03-.02-.04-.06-.02-.09v-.02c.11-.15.24-.33.38-.55.02-.03.06-.04.09-.02.03.02.04.06.02.09-.15.22-.27.4-.37.55v.02s-.06.03-.08.03ZM10.86,20.39s-.02,0-.02-.01c-.03-.02-.04-.06-.02-.09l.39-.56s.06-.04.09-.02c.03.02.04.06.02.09l-.39.56s-.04.03-.07.03ZM11.64,19.26s-.02,0-.02-.01c-.03-.02-.04-.06-.02-.09l.39-.56s.06-.04.09-.02c.03.02.04.06.02.09l-.39.56s-.04.03-.07.03ZM12.41,18.14s-.02,0-.02-.01c-.03-.02-.04-.06-.02-.09l.39-.56s.06-.04.09-.02c.03.02.04.06.02.09l-.39.56s-.04.03-.07.03ZM13.19,17.02s-.02,0-.02-.01c-.03-.02-.04-.06-.02-.09l.39-.56s.06-.04.09-.02c.03.02.04.06.02.09l-.39.56s-.04.03-.07.03ZM13.97,15.9s-.02,0-.02-.01c-.03-.02-.04-.06-.02-.09l.39-.56s.06-.04.09-.02c.03.02.04.06.02.09l-.39.56s-.04.03-.07.03ZM14.75,14.79s-.02,0-.02-.01c-.03-.02-.04-.06-.02-.09l.39-.56s.06-.04.09-.02c.03.02.04.06.02.09l-.39.56s-.04.03-.07.03ZM15.53,13.67s-.02,0-.02-.01c-.03-.02-.04-.06-.02-.09l.39-.56s.06-.04.09-.02c.03.02.04.06.02.09l-.39.56s-.04.03-.07.03ZM16.31,12.55s-.02,0-.02-.01c-.03-.02-.04-.06-.02-.09l.39-.56s.06-.04.09-.02c.03.02.04.06.02.09l-.39.56s-.04.03-.07.03ZM17.1,11.43s-.02,0-.02-.01c-.03-.02-.04-.06-.02-.09l.39-.56s.06-.04.09-.02c.03.02.04.06.02.09l-.39.56s-.04.03-.07.03ZM17.88,10.31s-.02,0-.02-.01c-.03-.02-.04-.06-.02-.09l.13-.19c.09-.13.15-.22.17-.24,0-.02.03-.07.06-.14.02-.03.06-.05.09-.03.03.02.05.06.03.09-.04.08-.06.13-.06.13h0s-.07.11-.18.27l-.13.19s-.04.03-.07.03ZM18.62,9.16s-.02,0-.03-.01c-.03-.02-.03-.07-.01-.1.14-.17.3-.34.48-.5.03-.02.07-.02.1,0,.02.03.02.07,0,.1-.17.15-.33.32-.46.48-.02.02-.04.03-.07.02ZM19.62,8.26s-.03-.01-.04-.03c-.02-.03-.01-.07.02-.09.19-.12.39-.24.59-.35.03-.02.07,0,.09.03.02.03,0,.07-.03.09-.2.1-.4.22-.58.34-.02.01-.03.01-.05.01ZM20.83,7.64s-.04-.02-.05-.04c-.01-.04,0-.07.04-.09.21-.08.43-.15.65-.22.04-.01.07.01.08.05.01.04-.01.07-.05.08-.22.06-.44.14-.64.21-.01,0-.03,0-.04,0ZM22.13,7.26s-.05-.03-.05-.05c0-.04.02-.07.05-.08.11-.02.21-.04.32-.06l.35-.06s.07.02.08.06c0,.04-.02.07-.06.08l-.35.06c-.11.02-.22.04-.32.06,0,0-.02,0-.03,0ZM23.48,7.03s-.05-.03-.05-.06c0-.04.02-.07.06-.08l.67-.11s.07.02.08.06c0,.04-.02.07-.06.08l-.67.11s-.02,0-.03,0ZM24.83,6.8s-.05-.03-.05-.06c0-.04.02-.07.06-.08l.67-.11s.07.02.08.06c0,.04-.02.07-.06.08l-.67.11s-.02,0-.03,0ZM26.17,6.57s-.05-.03-.05-.06c0-.04.02-.07.06-.08l.67-.11s.07.02.08.06c0,.04-.02.07-.06.08l-.67.11s-.02,0-.03,0ZM27.52,6.35s-.05-.03-.05-.06c0-.04.02-.07.06-.08l.67-.11s.07.02.08.06c0,.04-.02.07-.06.08l-.67.11s-.02,0-.03,0ZM28.86,6.12s-.05-.03-.05-.06c0-.04.02-.07.06-.08l.67-.11s.07.02.08.06c0,.04-.02.07-.06.08l-.67.11s-.02,0-.03,0ZM30.21,5.89s-.05-.03-.05-.06c0-.04.02-.07.06-.08l.67-.11s.07.02.08.06c0,.04-.02.07-.06.08l-.67.11s-.02,0-.03,0ZM31.55,5.67s-.05-.03-.05-.06c0-.04.02-.07.06-.08l.67-.11s.07.02.08.06c0,.04-.02.07-.06.08l-.67.11s-.02,0-.03,0ZM32.9,5.44s-.05-.03-.05-.05c0-.04.02-.07.05-.08l.67-.11s.07.02.08.06c0,.04-.02.07-.06.08l-.67.11s-.02,0-.03,0ZM34.24,5.22s-.05-.03-.05-.06c0-.04.02-.07.06-.08l.67-.11s.07.02.08.06-.02.07-.06.08l-.67.11s-.02,0-.03,0ZM35.58,4.99s-.05-.03-.05-.06c0-.04.02-.07.06-.08l.67-.11s.07.02.08.06c0,.04-.02.07-.06.08l-.67.11s-.02,0-.03,0ZM36.93,4.76s-.05-.03-.05-.06c0-.04.02-.07.06-.08l.67-.11s.07.02.08.06c0,.04-.02.07-.06.08l-.67.11s-.02,0-.03,0ZM38.27,4.54s-.05-.03-.05-.06c0-.04.02-.07.06-.08l.67-.11s.07.02.08.06c0,.04-.02.07-.06.08l-.67.11s-.02,0-.03,0ZM39.62,4.31s-.05-.03-.05-.06c0-.04.02-.07.06-.08l.67-.11s.07.02.08.06c0,.04-.02.07-.06.08l-.67.11s-.02,0-.03,0ZM40.96,4.09s-.05-.03-.05-.06c0-.04.02-.07.06-.08l.67-.11s.07.02.08.06c0,.04-.02.07-.06.08l-.67.11s-.02,0-.03,0ZM42.31,3.86s-.05-.03-.05-.06c0-.04.02-.07.06-.08l.67-.11s.07.02.08.06c0,.04-.02.07-.06.08l-.67.11s-.02,0-.03,0ZM43.65,3.64s-.05-.03-.05-.06c0-.04.02-.07.06-.08l.67-.11s.07.02.08.06-.02.07-.06.08l-.67.11s-.02,0-.03,0ZM45,3.41s-.05-.03-.05-.06c0-.04.02-.07.06-.08l.67-.11s.07.02.08.06c0,.04-.02.07-.06.08l-.67.11s-.02,0-.03,0ZM48.99,3.9s-.05-.03-.05-.06c-.01-.1-.05-.2-.09-.28-.02-.03,0-.07.03-.09.03-.02.07,0,.09.03.05.1.09.21.11.32,0,.04-.02.07-.06.08,0,0-.02,0-.02,0ZM46.35,3.19s-.05-.03-.05-.06c0-.04.02-.07.06-.08l.38-.06s.12-.02.3-.04c.04,0,.07.02.07.06,0,.04-.02.07-.06.07-.18.02-.29.04-.29.04l-.38.06s-.02,0-.03,0ZM47.71,3.06s-.06-.04-.05-.07c0-.04.03-.07.07-.06.26.01.5.06.69.13.04.01.05.05.04.09-.01.04-.05.05-.09.04-.18-.07-.4-.11-.65-.12,0,0,0,0-.01,0Z"/>
              <polygon class="cls-23" points="15.38 8.55 17.88 8.43 15.75 11.48 13.62 11.19 15.38 8.55"/>
              <path class="cls-2" d="M8.95,18.31s2.62-.36,2.08-3.2l-2.08,3.2Z"/>
            </g>
            <path class="cls-25" d="M9.78,23.9l-1.15,5.27s-.51,1.96,1.08,3.89c1.6,1.93,8.72,11.64,8.72,11.64,0,0,1.82,3.71,6.71,2.13,4.89-1.58,21.61-6.72,21.61-6.72,0,0,2.91-.74,3.37-2.75.46-2.01,1.33-5.05,1.33-5.05,0,0,.41-.76.32-1.45s-1.66-1.96-1.66-1.96l-11.38-11.02s-1.45-1.01-3.04-.66c-1.59.35-24.26,5.38-24.26,5.38,0,0-1.47.2-1.64,1.31Z"/>
            <path class="cls-14" d="M13.09,32.28c-.2.92-.98,1.52-1.74,1.36s-1.22-1.04-1.02-1.96c.2-.92.98-1.52,1.74-1.36s1.22,1.04,1.02,1.96Z"/>
            <polygon class="cls-2" points="11.73 32.99 14.9 33.34 14.85 36.64 12.1 36.23 11.73 32.99"/>
            <polygon class="cls-23" points="16.34 36.95 20.26 41.63 19.83 43.62 15.93 38.83 16.34 36.95"/>
            <path class="cls-17" d="M11.15,23.28l24.75-5.58s1.3-.45,2.61.72c1.31,1.17,12.14,11.54,12.14,11.54,0,0,1.64,1.56-.77,2.28s-24.74,7.17-24.74,7.17c0,0-2.18.62-4.1-1.74s-10.29-13.06-10.29-13.06c0,0-.82-1.05.4-1.33Z"/>
            <polygon class="cls-21" points="26.74 42.27 26.25 44.53 29.78 43.38 30.26 41.18 26.74 42.27"/>
            <polygon class="cls-21" points="32.81 40.5 32.47 42.03 34.86 41.25 35.19 39.77 32.81 40.5"/>
            <polygon class="cls-21" points="40.18 38.24 39.84 39.77 42.23 38.99 42.56 37.51 40.18 38.24"/>
            <polygon class="cls-21" points="44.58 36.31 44.08 38.57 47.62 37.42 48.11 35.19 44.58 36.31"/>
            <path class="cls-22" d="M22.96,40.93c-2.14-.47-3-2.06-3.01-2.08l-10.49-13.75s-.02-.07.01-.1c.03-.02.07-.02.1.01l10.5,13.76s.43.81,1.42,1.43c.91.57,2.51,1.09,4.95.37,4.72-1.4,24.57-7.49,24.77-7.55.04-.01.07,0,.09.05.01.04,0,.07-.05.08-.2.06-20.05,6.15-24.77,7.55-1.43.43-2.59.43-3.51.23Z"/>
            <g>
              <path class="cls-21" d="M9.83,24.86s-.03-.01-.04-.03l-.21-.27s-.02-.07.01-.1c.03-.02.07-.02.1.01l.21.27s.02.07-.01.1c-.02.01-.04.02-.06.01Z"/>
              <path class="cls-21" d="M22.86,40.34s0,0,0,0c-.22-.06-.44-.13-.65-.22-.03-.01-.05-.05-.04-.09.01-.03.06-.05.09-.04.2.09.42.16.64.21.04,0,.06.05.05.08,0,.04-.04.06-.08.05ZM23.53,40.47s-.06-.04-.05-.08c0-.04.04-.06.08-.06.22.03.44.04.67.05.04,0,.07.03.07.07,0,.04-.03.07-.07.07-.23,0-.47-.02-.69-.05,0,0,0,0,0,0ZM21.61,39.82s-.01,0-.02,0c-.2-.12-.39-.25-.56-.4-.03-.02-.03-.07,0-.1.02-.03.07-.03.1,0,.17.14.36.27.55.39.03.02.04.06.02.09-.02.03-.05.04-.07.03ZM24.89,40.49s-.05-.03-.05-.06c0-.04.02-.07.06-.07.22-.02.44-.05.67-.09.04,0,.07.02.08.05,0,.04-.02.07-.05.08-.23.04-.46.07-.68.09,0,0-.01,0-.02,0ZM26.23,40.25s-.04-.02-.05-.05c0-.04.01-.07.05-.08.11-.03.22-.06.33-.09l.33-.1s.07,0,.08.05c.01.04,0,.07-.05.08l-.33.1c-.11.03-.22.06-.33.09-.01,0-.02,0-.03,0ZM20.57,38.95s-.03,0-.04-.02c-.22-.25-.35-.45-.42-.56-.02-.03,0-.07.02-.09.03-.02.07,0,.09.02.06.1.19.3.4.54.02.03.02.07,0,.1-.02.01-.04.02-.06.02ZM27.54,39.87s-.04-.02-.05-.05c-.01-.04,0-.07.05-.08l.65-.2s.07.01.08.05c.01.04,0,.07-.05.08l-.65.2s-.02,0-.03,0ZM19.75,37.86s-.03-.01-.04-.03l-.41-.54s-.02-.07.01-.1c.03-.02.07-.02.1.01l.41.54s.02.07-.01.1c-.02.01-.04.02-.06.01ZM28.85,39.47s-.04-.02-.05-.05c-.01-.04,0-.07.05-.08l.65-.2s.07,0,.08.05c.01.04,0,.07-.05.08l-.65.2s-.02,0-.03,0ZM18.93,36.78s-.03-.01-.04-.03l-.41-.54s-.02-.07.01-.1c.03-.02.07-.02.1.01l.41.54s.02.07-.01.1c-.02.01-.04.02-.06.01ZM30.16,39.08s-.04-.02-.05-.05c-.01-.04,0-.07.05-.08l.65-.2s.07,0,.08.05c.01.04,0,.07-.05.08l-.65.2s-.02,0-.03,0ZM31.47,38.68s-.04-.02-.05-.05c-.01-.04,0-.07.05-.08l.65-.2s.07,0,.08.05c.01.04,0,.07-.05.08l-.65.2s-.02,0-.03,0ZM18.1,35.69s-.03-.01-.04-.03l-.41-.54s-.02-.07.01-.1c.03-.02.07-.02.1.01l.41.54s.02.07-.01.1c-.02.01-.04.02-.06.01ZM32.77,38.28s-.04-.02-.05-.05c-.01-.04,0-.07.05-.08l.65-.2s.07,0,.08.05c.01.04,0,.07-.05.08l-.65.2s-.02,0-.03,0ZM17.27,34.61s-.03-.01-.04-.03l-.41-.54s-.02-.07.01-.1c.03-.02.07-.02.1.01l.41.54s.02.07-.01.1c-.02.01-.04.02-.06.01ZM34.08,37.89s-.04-.02-.05-.05c-.01-.04,0-.07.05-.08l.65-.2s.07,0,.08.05c.01.04,0,.07-.05.08l-.65.2s-.02,0-.03,0ZM16.45,33.53s-.03-.01-.04-.03l-.41-.54s-.02-.07.01-.1c.03-.02.07-.02.1.01l.41.54s.02.07-.01.1c-.02.01-.04.02-.06.01ZM35.38,37.49s-.04-.02-.05-.05c-.01-.04,0-.07.05-.08l.65-.2s.07,0,.09.05c.01.04,0,.07-.05.08l-.65.2s-.02,0-.03,0ZM36.69,37.09s-.04-.02-.05-.05c-.01-.04,0-.07.05-.09l.65-.2s.07,0,.08.05c.01.04,0,.07-.05.08l-.65.2s-.02,0-.03,0ZM15.62,32.44s-.03-.01-.04-.03l-.41-.54s-.02-.07.01-.1c.03-.02.07-.02.1.01l.41.54s.02.07-.01.1c-.02.01-.04.02-.06.01ZM37.99,36.69s-.04-.02-.05-.05c-.01-.04,0-.07.05-.08l.65-.2s.07,0,.08.05c.01.04,0,.07-.05.08l-.65.2s-.02,0-.03,0ZM14.79,31.36s-.03-.01-.04-.03l-.41-.54s-.02-.07.01-.1c.03-.02.07-.02.1.01l.41.54s.02.07-.01.1c-.02.01-.04.02-.06.01ZM39.3,36.29s-.04-.02-.05-.05c-.01-.04,0-.07.05-.08l.65-.2s.07,0,.08.05c.01.04,0,.07-.05.08l-.65.2s-.02,0-.03,0ZM13.96,30.28s-.03-.01-.04-.03l-.41-.54s-.02-.07.01-.1c.03-.02.07-.02.1.01l.41.54s.02.07-.01.1c-.02.01-.04.02-.06.01ZM40.6,35.9s-.04-.02-.05-.05c-.01-.04,0-.07.05-.08l.65-.2s.07,0,.08.05,0,.07-.05.08l-.65.2s-.02,0-.03,0ZM41.91,35.5s-.04-.02-.05-.05c-.01-.04,0-.07.05-.08l.65-.2s.07,0,.09.05c.01.04,0,.07-.05.08l-.65.2s-.02,0-.03,0ZM13.14,29.19s-.03-.01-.04-.03l-.41-.54s-.02-.07.01-.1c.03-.02.07-.02.1.01l.41.54s.02.07-.01.1c-.02.01-.04.02-.06.01ZM43.21,35.1s-.04-.02-.05-.05c-.01-.04,0-.07.05-.08l.65-.2s.07,0,.08.05c.01.04,0,.07-.05.08l-.65.2s-.02,0-.03,0ZM12.31,28.11s-.03-.01-.04-.03l-.41-.54s-.02-.07.01-.1c.03-.02.07-.02.1.01l.41.54s.02.07-.01.1c-.02.01-.04.02-.06.01ZM44.52,34.7s-.04-.02-.05-.05c-.01-.04,0-.07.05-.08l.65-.2s.07,0,.08.05c.01.04,0,.07-.05.08l-.65.2s-.02,0-.03,0ZM11.48,27.03s-.03-.01-.04-.03l-.41-.54s-.02-.07.01-.1c.03-.02.07-.02.1.01l.41.54s.02.07-.01.1c-.02.01-.04.02-.06.01ZM45.82,34.3s-.04-.02-.05-.05c-.01-.04,0-.07.05-.08l.65-.2s.07,0,.08.05c.01.04,0,.07-.05.08l-.65.2s-.02,0-.03,0ZM10.66,25.94s-.03-.01-.04-.03l-.41-.54s-.02-.07.01-.1c.03-.02.07-.02.1.01l.41.54s.02.07-.01.1c-.02.01-.04.02-.06.01ZM47.13,33.9s-.04-.02-.05-.05c-.01-.04,0-.07.05-.09l.65-.2s.07,0,.09.05c.01.04,0,.07-.05.08l-.65.2s-.02,0-.03,0ZM48.44,33.5s-.04-.02-.05-.05c-.01-.04,0-.07.05-.08l.65-.2s.07,0,.09.05c.01.04,0,.07-.05.08l-.65.2s-.02,0-.03,0ZM49.74,33.1s-.04-.02-.05-.05c-.01-.04,0-.07.05-.08l.65-.2s.07,0,.09.05c.01.04,0,.07-.05.08l-.65.2s-.02,0-.03,0Z"/>
              <path class="cls-21" d="M51.01,32.71s-.04-.02-.05-.05c-.01-.04,0-.07.05-.08l.32-.1s.07,0,.09.04c.01.04,0,.07-.05.09l-.32.1s-.02,0-.03,0Z"/>
            </g>
            <path class="cls-17" d="M33.32,41.17s.44-.54,1.14-.33c0,0-.36,1.95,1.04,1.89s5.41-.97,5.38-3.72c0,0,.49-.73.95-.43,0,0,.06,3.1-2.52,4.14-2.58,1.03-4.5,2.05-5.69.58,0,0-.56-.53-.29-2.13Z"/>
            <polygon class="cls-31" points="26.55 44.43 26.95 42.57 30.19 41.53 30.26 41.18 26.74 42.27 26.25 44.53 26.55 44.43"/>
            <polygon class="cls-31" points="44.08 38.57 44.58 36.31 48.11 35.19 48.01 35.6 44.82 36.6 44.44 38.45 44.08 38.57"/>
            <polygon class="cls-31" points="32.47 42.03 32.81 40.5 35.19 39.77 35.15 39.95 32.92 40.7 32.65 41.97 32.47 42.03"/>
            <polygon class="cls-31" points="39.84 39.77 40.09 39.69 40.38 38.37 42.52 37.69 42.56 37.51 40.18 38.24 39.84 39.77"/>
            <polygon class="cls-21" points="29.38 3.35 29.93 4.8 38.01 3.42 37.4 1.91 29.38 3.35"/>
            <polygon class="cls-31" points="29.38 3.35 29.93 4.8 38.01 3.42 37.93 3.23 30.07 4.63 29.58 3.31 29.38 3.35"/>
            <rect class="cls-3" x="33.59" y="2.68" width=".27" height="1.09" transform="translate(-.03 6.17) rotate(-10.44)"/>
            <rect class="cls-20" x="33.6" y="2.74" width=".22" height="1.04" transform="translate(-.06 5.85) rotate(-9.91)"/>
          </g>
          <g>
            <polygon class="cls-6" points="49.29 58.18 128.76 73.93 148.92 57.58 79.78 48.48 49.29 58.18"/>
            <polygon class="cls-6" points="49.29 58.18 29.59 45.41 27.02 38.87 30.09 37.98 49.29 58.18"/>
            <polygon class="cls-23" points="22.92 33.22 49.29 58.18 79.78 48.48 55.48 24.86 22.92 33.22"/>
            <polygon class="cls-16" points="49.29 58.18 103.18 62.82 125.07 48.64 79.78 48.48 49.29 58.18"/>
            <polygon class="cls-23" points="103.18 62.82 128.76 73.93 148.92 57.58 125.07 48.64 103.18 62.82"/>
            <polygon class="cls-16" points="22.92 33.22 15.54 30.72 42.85 22.51 55.48 24.86 22.92 33.22"/>
            <polygon class="cls-23" points="15.54 30.72 20.12 19.63 46.54 14.2 42.85 22.51 15.54 30.72"/>
            <polygon class="cls-27" points="20.12 19.63 13.09 27.62 15.54 30.72 20.12 19.63"/>
            <polygon class="cls-30" points="21.23 19.4 17.06 30.26 41.57 22.9 45.37 14.43 21.23 19.4"/>
            <path class="cls-14" d="M23.85,22.8c.54-.64,1.16-1.22,1.69-1.87s.99-1.4,1.11-2.23c.01-.1.03-.25.03-.43l-1.81.37c.22.67.17,1.43-.2,2.03-.14.23-.34.45-.61.52-.22.05-.44,0-.66-.05-.52-.13-1.07-.28-1.46-.65-.29-.28-.46-.67-.69-1-.01-.02-.03-.04-.04-.06l-.41,1.07c.28.12.55.31.77.52.58.54,1.03,1.31.91,2.09-.07.4-.28.77-.48,1.13-.87,1.58-1.49,3.3-1.82,5.08l1.52-.46c-.09-.62-.02-1.28.11-1.9.33-1.53,1.03-2.97,2.03-4.17Z"/>
            <polygon class="cls-18" points="17.06 30.26 25 32.69 53.86 25.28 41.57 22.9 17.06 30.26"/>
            <polygon class="cls-30" points="25 32.69 51.48 57.48 78.28 48.96 53.86 25.28 25 32.69"/>
            <path class="cls-14" d="M32.54,30.75s4.32,6.56,12.81,2.01c8.49-4.55,16.18-.05,16.18-.05l1,.97s-5.42-2.22-7.26-1.25c-1.84.97,1.28,3.61,3.34,3.18,2.07-.43,6.4.48,6.4.48l1.29,1.25s-4.04-.61-6.99-.09c-2.95.52-5.81-1.25-6.66-3.92,0,0-1.59-1.88-4.78.29-3.19,2.16-7.28,3.08-12.72,1.29,0,0-2.54-.96-3.39-2.59,0,0-.52-.86-2.24-.79l3.03-.78Z"/>
            <path class="cls-14" d="M53.05,56.47c1.61-.56,3.28-1.17,4.47-2.39,1.19-1.22,1.74-3.26.76-4.66-.72-1.04-2.06-1.46-3.32-1.53-1.26-.07-2.52.14-3.78.07-1.76-.11-3.49-.8-4.84-1.94-1.03-.87-1.85-1.99-2.96-2.76-1.79-1.23-4.7-1.4-6.52-.08-.13.1-.25.2-.35.3l14.59,13.67s.07-.02.1-.03c.61-.21,1.22-.43,1.83-.64Z"/>
            <polygon class="cls-18" points="51.48 57.48 104.92 61.7 124.06 49.29 78.28 48.96 51.48 57.48"/>
            <polygon class="cls-30" points="104.92 61.7 127.74 71.54 145.78 57.76 124.06 49.29 104.92 61.7"/>
            <g class="cls-4">
              <g>
                <path class="cls-11" d="M33.24,17.46c.18.11.33.24.45.38"/>
                <path class="cls-8" d="M34.15,18.92c.15,1.22-.56,2.74-1.53,3.66-1.16,1.08-2.65,2.04-3.35,3.38"/>
                <path class="cls-11" d="M29.04,26.5c-.06.19-.11.38-.14.58l.57-.16"/>
                <path class="cls-12" d="M30.64,26.59c2.08-.59,4.15-1.17,6.23-1.76.98-.28,2-.56,3-.36,1,.19,1.95,1.02,1.93,2.03-.03,1.09-1.07,1.83-1.76,2.68-1.68,2.08-1.24,5.32.41,7.43,1.65,2.11,4.23,3.28,6.8,4.04,5.38,1.61,11.1,1.79,16.54,3.23,2.15.57,4.58,1.71,4.93,3.91.25,1.55-.66,2.96-1.81,4.1"/>
                <path class="cls-11" d="M66.45,52.32c-.15.13-.3.26-.45.39.08.19.17.36.28.53"/>
                <path class="cls-10" d="M67.06,54.15c.86.78,2.01,1.3,3.11,1.71,10.49,3.98,22.46,3.91,32.91-.19,4.04-1.58,8.51-3.76,12.52-2.56"/>
                <path class="cls-11" d="M116.17,53.32c.18.07.37.15.55.24-.03.2-.05.39-.06.59"/>
                <path class="cls-9" d="M116.63,55.3c.17,4.49,3.31,8.77,7.55,10.42,2.25.88,4.82,1.08,7.06.17,2.24-.9,4.04-3.01,4.23-5.41.18-2.4-1.5-4.92-3.87-5.35-1.98-.36-4.11,1.03-4.66,2.9"/>
                <path class="cls-11" d="M126.82,58.61c-.02.19-.02.39,0,.59"/>
              </g>
            </g>
            <path class="cls-28" d="M77.59,52.38c.26.78.98,1.35,1.76,1.62.78.27,1.63.27,2.45.2.79-.06,1.62-.18,2.37.07.38.13.73.34,1.08.52,1.92,1,4.2,1.18,6.34.85,2.14-.32,4.19-1.12,6.17-1.98,1.73-.75,3.45-1.57,5.28-2.02,2.2-.54,4.49-.52,6.76-.5,1.06,0,2.12.02,3.15.25.59.13,1.17.33,1.77.36,1.2.06,2.34-.56,3.22-1.37.38-.35.72-.73,1.05-1.12l-40.71-.29-.42.13c-.05.34-.11.68-.18,1.01-.17.75-.33,1.54-.09,2.27Z"/>
            <path class="cls-26" d="M80.13,52.51c1.97,1.7,5.3-.75,7.54.58.32.19.6.45.92.64,1.61.95,3.6-.13,5.25-1.01,2.37-1.28,4.97-2.2,7.66-2.4,2.8-.21,5.61.36,8.42.38,2.11.01,4.34-.37,6.09-1.46l-36.48-.26c-.05.12-.09.24-.12.36-.32,1.1-.15,2.43.72,3.18Z"/>
            <g>
              <path class="cls-1" d="M59.97,36.37l1.95.89s5.65-2.89,7.22-8.5c0,0,2.13-6.01-4.83-7.35,0,0,3.83,2.21,2.85,5.67-.97,3.46-6.89,8.39-6.89,8.39l-.31.91Z"/>
              <path class="cls-1" d="M63.25,23.21s-3.11,1.56-1.63,4.81l-2.26-.57.36-3.18,1.07-1.73,1.03-.14s1.23-.07,1.43.81Z"/>
              <path class="cls-2" d="M64.32,21.41c-1.05-.39-4.95-1.31-6.65,3.43-1.7,4.75,2.31,11.53,2.31,11.53,0,0,5.73-2.83,7.81-7.75,2.09-4.91-2.43-6.83-3.47-7.22ZM61.83,28.12c-1.19-.4-1.78-1.82-1.32-3.16.45-1.34,1.78-2.11,2.97-1.71,1.19.4,1.78,1.81,1.32,3.16-.45,1.34-1.78,2.11-2.97,1.71Z"/>
            </g>
            <g>
              <path class="cls-1" d="M120.34,60.26l1.95.89s5.65-2.89,7.22-8.5c0,0,2.13-6.01-4.83-7.35,0,0,3.83,2.21,2.85,5.67-.97,3.46-6.89,8.39-6.89,8.39l-.31.91Z"/>
              <path class="cls-1" d="M123.61,47.09s-3.11,1.56-1.63,4.81l-2.26-.57.36-3.18,1.07-1.73,1.03-.14s1.23-.07,1.43.81Z"/>
              <path class="cls-2" d="M124.68,45.29c-1.05-.39-4.95-1.31-6.65,3.43-1.7,4.75,2.31,11.53,2.31,11.53,0,0,5.73-2.83,7.81-7.75,2.09-4.91-2.43-6.83-3.47-7.22ZM122.19,52c-1.18-.4-1.78-1.82-1.32-3.16.45-1.34,1.78-2.11,2.97-1.71,1.19.4,1.78,1.82,1.32,3.16-.45,1.34-1.78,2.11-2.97,1.71Z"/>
            </g>
            <path class="cls-7" d="M20.19,29.33s3.32,2.75,9.33,2.2l3.03-.78s-6.41.98-10.83-1.88l-1.52.46Z"/>
            <g>
              <polygon class="cls-13" points="81.67 35.74 82.32 32.98 83.67 33.27 81.67 35.74"/>
              <polygon class="cls-24" points="94.88 33.28 82.62 33.39 81.67 35.74 94.88 33.28"/>
              <polygon class="cls-29" points="94.88 33.28 80.47 30.43 82.62 33.39 94.88 33.28"/>
              <polygon class="cls-23" points="82.62 33.39 94.88 33.28 88.03 36.66 82.62 33.39"/>
            </g>
            <g>
              <path class="cls-19" d="M80.42,35.94s-.08-.04-.09-.09c-.02-.06.02-.13.08-.15.11-.03.22-.06.32-.09.06-.02.13.02.15.08.02.06-.02.13-.08.15-.11.03-.22.06-.33.09-.02,0-.04,0-.06,0Z"/>
              <g>
                <path class="cls-19" d="M49.89,27.47c-.03-.06-.11-.08-.16-.04-.06.03-.08.11-.04.16.11.19.25.38.4.57.02.02.04.04.07.04.03,0,.07,0,.1-.02.05-.04.06-.12.02-.17-.15-.18-.28-.36-.38-.54Z"/>
                <path class="cls-19" d="M50.43,26.77s.09,0,.12-.04c.04-.05.04-.13-.02-.17-.17-.14-.34-.29-.51-.44-.05-.04-.13-.04-.17,0-.04.05-.04.12,0,.17.17.15.34.3.52.45.02.01.03.02.05.03Z"/>
                <path class="cls-19" d="M49.5,26.25c0-.07-.06-.12-.12-.12-.07,0-.12.06-.12.12,0,.23.05.46.13.7.01.04.05.07.09.08.02,0,.04,0,.06,0,.06-.02.1-.09.08-.15-.07-.22-.11-.43-.12-.63Z"/>
                <path class="cls-19" d="M49.42,25.85s.08,0,.11-.03c.04-.04.04-.09.02-.13.02-.01.04-.03.05-.06.07-.2.19-.38.33-.54.04-.05.04-.12,0-.17-.05-.04-.12-.04-.17,0-.16.18-.29.37-.37.59-.09-.09-.17-.18-.26-.26l-.08-.08s-.12-.05-.17,0c-.05.04-.05.12,0,.17l.08.09c.13.14.26.27.4.41.02.02.04.03.06.03Z"/>
                <path class="cls-19" d="M54.62,31.13c-.21-.09-.41-.19-.61-.29-.06-.03-.13,0-.16.05-.03.06,0,.13.05.16.2.1.41.2.62.3,0,0,.02,0,.02,0,.05.01.11-.02.13-.07.03-.06,0-.13-.06-.16Z"/>
                <path class="cls-19" d="M45.81,20.83c-.04-.05-.11-.07-.17-.03-.05.04-.07.11-.03.17l.38.56s.04.04.07.05c.03,0,.06,0,.09-.02.05-.04.07-.11.03-.17l-.38-.56Z"/>
                <path class="cls-19" d="M47.35,23.07c-.04-.05-.11-.07-.17-.03-.05.04-.07.11-.03.17.13.18.27.37.41.55.02.02.04.04.07.04.03,0,.07,0,.1-.02.05-.04.06-.12.02-.17-.14-.18-.27-.36-.4-.54Z"/>
                <path class="cls-19" d="M48.17,24.14c-.04-.05-.12-.06-.17-.02-.05.04-.06.12-.02.17.14.18.29.35.44.53.02.02.04.03.07.04.04,0,.07,0,.1-.03.05-.04.06-.12.01-.17-.15-.17-.29-.34-.43-.52Z"/>
                <path class="cls-19" d="M46.57,21.95c-.04-.05-.11-.07-.17-.03-.05.04-.07.11-.03.17.13.19.26.37.39.56.02.03.04.04.07.05.03,0,.07,0,.09-.02.05-.04.07-.11.03-.17-.13-.19-.26-.37-.39-.56Z"/>
                <path class="cls-19" d="M53.41,30.52c-.2-.11-.39-.22-.58-.34-.06-.03-.13-.02-.17.04-.03.06-.02.13.04.17.19.12.39.23.59.35.01,0,.02,0,.03.01.05.01.1-.01.13-.06.03-.06.01-.13-.05-.16Z"/>
                <path class="cls-19" d="M51.2,28.98c-.17-.15-.33-.31-.48-.47-.05-.05-.12-.05-.17,0-.05.05-.05.12,0,.17.16.16.32.32.5.48.02.01.03.02.05.03.04,0,.09,0,.12-.04.04-.05.04-.13,0-.17Z"/>
                <path class="cls-19" d="M55.05,23.86c-.23,0-.46-.01-.68-.01-.07,0-.12.05-.12.12,0,.06.04.11.09.12,0,0,.02,0,.02,0,.23,0,.45,0,.68.01.07,0,.12-.05.12-.12,0-.07-.05-.12-.12-.12Z"/>
                <path class="cls-19" d="M53.69,23.85c-.23,0-.46,0-.68.01-.07,0-.12.06-.12.12,0,.06.04.1.09.11,0,0,.02,0,.03,0,.23,0,.45-.01.68-.01.07,0,.12-.05.12-.12,0-.07-.05-.12-.12-.12Z"/>
                <path class="cls-19" d="M53.91,28.79c-.2-.1-.4-.21-.6-.32-.06-.03-.13-.01-.16.05-.03.06-.01.13.05.16.2.11.4.22.6.33,0,0,.02,0,.03.01.05.01.11-.01.13-.06.03-.06,0-.13-.05-.16Z"/>
                <path class="cls-19" d="M52.31,23.9c-.24.02-.47.06-.68.11-.06.01-.11.08-.09.14,0,.05.05.08.09.09.02,0,.03,0,.05,0,.21-.04.43-.08.66-.1.07,0,.11-.07.11-.13,0-.07-.07-.11-.13-.11Z"/>
                <path class="cls-19" d="M51.6,27.38c-.18-.13-.37-.26-.54-.4-.05-.04-.13-.03-.17.02-.04.05-.03.13.02.17.18.14.36.27.55.41.01,0,.03.02.04.02.05,0,.09,0,.12-.05.04-.05.03-.13-.03-.17Z"/>
                <path class="cls-19" d="M52.73,28.12c-.19-.12-.38-.24-.57-.36-.06-.04-.13-.02-.17.03-.04.06-.02.13.03.17.19.13.38.25.58.37.01,0,.02.01.04.01.05.01.1,0,.13-.05.03-.06.02-.13-.04-.16Z"/>
                <path class="cls-19" d="M52.26,29.81c-.19-.13-.37-.26-.54-.4-.05-.04-.13-.03-.17.02-.04.05-.03.13.02.17.18.14.36.27.55.41.01,0,.03.02.04.02.05,0,.1,0,.12-.05.04-.05.02-.13-.03-.17Z"/>
                <path class="cls-19" d="M45.03,19.7c-.04-.05-.11-.07-.17-.03-.05.04-.07.11-.03.17.13.19.26.37.39.56.02.03.04.04.07.05.03,0,.07,0,.09-.02.05-.04.07-.11.03-.17-.13-.19-.26-.37-.39-.56Z"/>
                <path class="cls-19" d="M29.03,14.78c-.2.11-.4.23-.59.35-.06.04-.07.11-.04.17.02.03.05.05.08.05.03,0,.06,0,.09-.02.19-.12.38-.24.58-.34.06-.03.08-.1.05-.16-.03-.06-.1-.08-.16-.05Z"/>
                <path class="cls-19" d="M31.59,13.77c-.22.06-.44.12-.66.19-.06.02-.1.09-.08.15.01.04.05.07.09.08.02,0,.04,0,.06,0,.21-.07.43-.13.65-.19.06-.02.1-.08.09-.15-.02-.06-.08-.1-.15-.09Z"/>
                <path class="cls-19" d="M30.28,14.19c-.21.08-.43.18-.63.27-.06.03-.09.1-.06.16.02.04.05.06.08.07.02,0,.05,0,.08,0,.2-.09.41-.18.62-.27.06-.02.09-.09.07-.16-.02-.06-.09-.09-.16-.07Z"/>
                <path class="cls-19" d="M32.94,13.5c-.23.03-.46.07-.68.11-.06.01-.11.08-.09.14,0,.05.05.08.09.09.02,0,.03,0,.05,0,.22-.04.44-.08.66-.11.07,0,.11-.07.1-.14,0-.07-.07-.11-.14-.1Z"/>
                <path class="cls-19" d="M50.35,24.71s.06,0,.09-.01c.18-.1.38-.2.6-.27.06-.02.1-.09.07-.15-.02-.06-.09-.1-.15-.07-.24.08-.45.18-.64.29-.06.03-.08.11-.04.16.02.03.05.05.08.06Z"/>
                <path class="cls-19" d="M72.32,29.35c.17.16.31.33.42.5.02.03.05.05.08.05.03,0,.06,0,.09-.02.06-.04.07-.11.04-.17-.12-.18-.27-.37-.46-.54-.05-.05-.12-.04-.17,0-.05.05-.04.12,0,.17Z"/>
                <path class="cls-19" d="M69.89,27.9c.2.1.4.21.6.32.01,0,.02,0,.03.01.05.01.11-.01.13-.06.03-.06,0-.13-.05-.16-.2-.11-.4-.21-.6-.32-.06-.03-.13,0-.16.05-.03.06,0,.13.05.16Z"/>
                <path class="cls-19" d="M34.31,13.39c-.23,0-.46.02-.69.03-.07,0-.12.06-.11.13,0,.05.04.1.09.11.01,0,.02,0,.03,0,.22-.02.45-.03.67-.03.07,0,.12-.06.12-.12,0-.07-.06-.12-.12-.12Z"/>
                <path class="cls-19" d="M44.23,18.6c-.04-.05-.12-.06-.17-.02-.05.04-.06.12-.02.17.14.18.27.36.41.54.02.02.04.04.07.05.03,0,.07,0,.1-.02.05-.04.07-.11.03-.17-.13-.18-.27-.37-.41-.55Z"/>
                <path class="cls-19" d="M42.42,16.54s-.12-.04-.17,0c-.05.05-.04.12,0,.17.16.15.32.31.47.48.02.02.04.03.06.03.04,0,.08,0,.11-.03.05-.05.05-.12,0-.17-.16-.17-.32-.33-.48-.49Z"/>
                <path class="cls-19" d="M35.68,13.44c-.23-.02-.46-.04-.69-.04-.07,0-.12.05-.12.12,0,.06.04.11.09.12,0,0,.01,0,.02,0,.22,0,.45.02.67.04.07,0,.12-.04.13-.11,0-.07-.04-.12-.11-.13Z"/>
                <path class="cls-19" d="M43.36,17.54s-.12-.06-.17-.01c-.05.04-.06.12-.01.17.15.17.29.34.43.52.02.02.04.04.07.04.03,0,.07,0,.1-.02.05-.04.06-.12.02-.17-.14-.18-.29-.35-.44-.52Z"/>
                <path class="cls-19" d="M40.83,15.24c-.19-.13-.39-.25-.58-.36-.06-.03-.13-.01-.16.04-.03.06-.01.13.04.16.19.11.39.23.57.36.01,0,.03.01.04.02.05.01.1,0,.13-.05.04-.06.02-.13-.03-.17Z"/>
                <path class="cls-19" d="M41.92,16.08c-.17-.15-.35-.3-.53-.44-.05-.04-.13-.03-.17.02-.04.05-.03.13.02.17.18.14.35.28.52.43.02.01.03.02.05.03.04,0,.09,0,.12-.04.04-.05.04-.13-.01-.17Z"/>
                <path class="cls-19" d="M39.64,14.55c-.2-.1-.41-.2-.63-.28-.06-.03-.13,0-.16.06-.03.06,0,.13.06.16.21.09.41.18.61.28,0,0,.02,0,.03,0,.05.01.11-.01.13-.06.03-.06,0-.13-.05-.16Z"/>
                <path class="cls-19" d="M37.04,13.65h0c-.22-.05-.45-.09-.68-.12-.07-.01-.13.03-.14.1,0,.06.03.12.09.14,0,0,0,0,0,0,.22.03.45.08.66.12.06.01.13-.03.14-.09.01-.06-.03-.13-.09-.14Z"/>
                <path class="cls-19" d="M38.37,14.02c-.22-.07-.44-.14-.66-.2-.07-.02-.13.02-.15.08-.02.06.02.13.08.15.22.06.43.13.64.2,0,0,0,0,.01,0,.06.01.12-.02.14-.08.02-.06-.01-.13-.07-.15Z"/>
                <path class="cls-19" d="M69.01,35.04c-.22-.04-.45-.08-.67-.12-.07-.01-.13.03-.14.1-.01.06.03.12.09.14,0,0,0,0,0,0,.22.04.45.08.67.12.07.01.13-.03.14-.1.01-.07-.03-.13-.1-.14Z"/>
                <path class="cls-19" d="M70.35,32.03s.03,0,.04,0c.23-.03.45-.07.68-.11.07-.01.11-.07.1-.14s-.08-.11-.14-.1c-.22.04-.44.08-.67.11-.07,0-.11.07-.1.14,0,.05.05.09.09.1Z"/>
                <path class="cls-19" d="M69.69,31.88c-.22.02-.45.04-.67.06-.07,0-.12.06-.11.13,0,.05.04.1.09.11.01,0,.02,0,.03,0,.23-.02.46-.04.68-.06.07,0,.11-.07.11-.13,0-.07-.07-.11-.13-.11Z"/>
                <path class="cls-19" d="M70.35,35.27l-.67-.12c-.07-.01-.13.03-.14.1-.01.06.03.12.09.14,0,0,0,0,0,0l.67.12c.07.01.13-.03.14-.1.01-.07-.03-.13-.1-.14Z"/>
                <path class="cls-19" d="M71.94,28.74c-.08-.05-.16-.1-.23-.15-.12-.07-.24-.14-.36-.21-.06-.03-.13-.01-.16.05-.03.06-.01.13.05.16.12.07.24.14.36.2.07.04.15.09.22.14.01,0,.03.01.04.02.05.01.1,0,.13-.05.04-.06.02-.13-.03-.17Z"/>
                <path class="cls-19" d="M68.34,31.97c-.23,0-.45.01-.68.01-.07,0-.12.05-.12.12,0,.06.04.1.09.12,0,0,.02,0,.03,0,.23,0,.46,0,.68-.01.07,0,.12-.06.12-.12,0-.07-.06-.12-.12-.12Z"/>
                <path class="cls-19" d="M71.75,31.78l.07-.02c.18-.04.4-.1.6-.19.06-.03.09-.1.06-.16-.03-.06-.1-.09-.16-.06-.18.08-.39.13-.56.17l-.07.02c-.06.01-.1.08-.09.14.01.05.05.08.09.09.02,0,.03,0,.05,0Z"/>
                <path class="cls-19" d="M66.28,32.19s.01,0,.02,0c.23.01.46.02.68.03.07,0,.12-.05.12-.12,0-.07-.05-.12-.12-.12-.23,0-.45-.01-.68-.03-.07,0-.12.05-.13.11,0,.06.04.11.09.12Z"/>
                <path class="cls-19" d="M66.47,34.57c-.22-.04-.44-.09-.67-.13-.06-.01-.13.03-.14.09-.01.06.03.13.09.14,0,0,0,0,0,0,.22.04.45.09.67.13.07.01.13-.03.14-.09.01-.06-.03-.12-.09-.14Z"/>
                <path class="cls-19" d="M67.67,34.79c-.22-.04-.45-.08-.67-.13-.07-.01-.13.03-.14.1-.01.06.03.13.09.14,0,0,0,0,0,0,.22.04.45.08.67.13.07.01.13-.03.14-.1.01-.07-.03-.13-.1-.14Z"/>
                <path class="cls-19" d="M73.03,35.73c-.22-.04-.45-.07-.67-.11-.07-.01-.13.03-.14.1-.01.06.03.12.09.14,0,0,0,0,0,0,.22.04.45.07.67.11.07.01.13-.03.14-.1.01-.07-.04-.13-.1-.14Z"/>
                <path class="cls-19" d="M55.13,29.37c-.21-.09-.41-.19-.61-.28-.06-.03-.13,0-.16.06-.03.06,0,.13.06.16.21.1.41.19.62.29,0,0,.02,0,.02,0,.05.01.11-.02.14-.07.03-.06,0-.13-.06-.16Z"/>
                <path class="cls-19" d="M75.73,36.05c-.22-.02-.45-.04-.67-.06-.07,0-.12.04-.13.11,0,.06.04.12.09.13,0,0,0,0,.01,0,.23.02.45.04.68.06.07,0,.12-.04.13-.11,0-.07-.04-.12-.11-.13Z"/>
                <path class="cls-19" d="M77.08,36.11c-.22,0-.45,0-.68-.01-.07,0-.12.05-.12.11,0,.06.04.11.09.12,0,0,.01,0,.02,0,.23,0,.46.01.68.02.07,0,.12-.05.12-.12,0-.07-.05-.12-.12-.12Z"/>
                <path class="cls-19" d="M79.9,35.96c-.01-.06-.08-.11-.14-.09-.22.04-.44.08-.66.11-.07,0-.11.07-.1.14,0,.05.05.09.09.1.01,0,.03,0,.04,0,.23-.03.46-.07.68-.12.06-.01.11-.08.09-.14Z"/>
                <path class="cls-19" d="M65.64,31.91c-.23-.02-.45-.04-.68-.06-.07,0-.12.04-.13.11,0,.06.03.12.09.13,0,0,0,0,.01,0,.23.02.45.04.68.06.07,0,.12-.04.13-.11s-.04-.12-.11-.13Z"/>
                <path class="cls-19" d="M74.38,35.92c-.22-.03-.45-.06-.67-.09-.07,0-.13.04-.14.1,0,.06.03.12.09.13,0,0,0,0,0,0,.23.03.45.06.68.09.07,0,.13-.04.13-.1,0-.07-.04-.12-.1-.13Z"/>
                <path class="cls-19" d="M73.07,30.3c-.07,0-.11.06-.11.13,0,.09,0,.17-.01.25-.02.1-.07.2-.14.31l.1.07.11.05c.08-.12.14-.25.17-.38.02-.1.03-.21.02-.33,0-.07-.06-.11-.13-.11Z"/>
                <path class="cls-19" d="M71.69,35.51l-.67-.12c-.07-.01-.13.03-.14.1-.01.06.03.12.09.14,0,0,0,0,0,0l.67.12c.07.01.13-.03.14-.1.01-.07-.04-.13-.1-.14Z"/>
                <path class="cls-19" d="M78.43,36.05c-.22.02-.45.03-.67.04-.07,0-.12.06-.12.12,0,.06.04.1.09.11,0,0,.02,0,.03,0,.23,0,.46-.02.68-.04.07,0,.11-.06.11-.13,0-.07-.06-.11-.13-.11Z"/>
                <path class="cls-19" d="M64.29,31.77c-.22-.03-.45-.06-.67-.09-.07,0-.13.04-.14.1,0,.06.03.12.09.13,0,0,0,0,0,0,.23.03.45.06.68.09.07,0,.13-.04.13-.1,0-.07-.04-.13-.1-.13Z"/>
                <path class="cls-19" d="M57.78,24.05c-.23-.02-.45-.05-.68-.07-.07,0-.12.04-.13.11,0,.06.04.12.09.13,0,0,0,0,.02,0,.23.02.45.04.68.07.07,0,.13-.04.13-.11,0-.07-.04-.12-.11-.13Z"/>
                <path class="cls-19" d="M57.66,30.34c-.22-.07-.43-.14-.64-.22-.06-.02-.13.01-.15.07-.02.06.01.13.07.15.21.08.43.15.65.22,0,0,0,0,.01,0,.06.01.12-.02.14-.08.02-.06-.01-.13-.08-.15Z"/>
                <path class="cls-19" d="M58.14,32.49c-.22-.07-.43-.14-.64-.21-.06-.02-.13.01-.15.08-.02.06.01.13.07.15.22.07.43.14.65.21,0,0,0,0,.01,0,.06.01.12-.02.14-.08.02-.06-.01-.13-.08-.15Z"/>
                <path class="cls-19" d="M56.38,29.89c-.21-.08-.42-.16-.63-.25-.06-.03-.13,0-.16.07-.03.06,0,.13.07.16.21.09.42.17.64.25,0,0,.01,0,.02,0,.06.01.12-.02.14-.07.02-.06,0-.13-.07-.15Z"/>
                <path class="cls-19" d="M58.96,30.73c-.22-.06-.44-.12-.65-.19-.06-.02-.13.02-.15.08-.02.06.02.13.08.15.22.07.44.13.66.19,0,0,0,0,0,0,.06.01.12-.02.14-.09.02-.06-.02-.13-.08-.15Z"/>
                <path class="cls-19" d="M56.42,23.93c-.23-.02-.45-.03-.68-.04-.07,0-.12.05-.13.11,0,.06.04.11.09.12,0,0,.01,0,.02,0,.23.01.45.02.68.04.07,0,.12-.05.13-.11,0-.07-.04-.12-.11-.13Z"/>
                <path class="cls-19" d="M55.87,31.65c-.21-.08-.42-.17-.63-.26-.06-.03-.13,0-.16.06-.03.06,0,.13.06.16.21.09.42.18.63.26,0,0,.01,0,.02,0,.06.01.12-.02.14-.07.02-.06,0-.13-.07-.16Z"/>
                <path class="cls-19" d="M57.14,32.13c-.21-.08-.43-.15-.64-.23-.06-.02-.13,0-.15.07-.02.06,0,.13.07.15.21.08.43.16.64.23,0,0,.01,0,.01,0,.06.01.12-.02.14-.08.02-.06-.01-.13-.07-.15Z"/>
                <path class="cls-19" d="M60.28,31.06c-.22-.05-.44-.1-.66-.16-.06-.02-.13.02-.15.09-.02.06.02.13.09.15.22.06.44.11.66.16,0,0,0,0,0,0,.06.01.13-.03.14-.09.02-.06-.03-.13-.09-.14Z"/>
                <path class="cls-19" d="M63.26,25.11c-.22-.06-.44-.12-.66-.17-.06-.02-.13.02-.15.09-.02.06.02.13.09.15.22.05.44.11.66.17,0,0,0,0,0,0,.06.01.12-.02.14-.09.02-.06-.02-.13-.08-.15Z"/>
                <path class="cls-19" d="M62.94,31.58c-.13-.02-.26-.04-.39-.06l-.28-.05c-.07-.01-.13.03-.14.1-.01.06.03.12.09.14,0,0,0,0,0,0l.28.05c.13.02.26.04.39.06.07.01.13-.03.14-.1.01-.07-.03-.13-.1-.14Z"/>
                <path class="cls-19" d="M64.69,25.49c-.22-.07-.44-.13-.65-.2-.06-.02-.13.02-.15.08-.02.06.02.13.08.15.22.06.43.13.65.19,0,0,0,0,0,0,.06.01.12-.02.14-.08.02-.06-.02-.13-.08-.15Z"/>
                <path class="cls-19" d="M61.6,31.35c-.22-.04-.44-.09-.66-.14-.06-.01-.13.03-.14.09-.01.06.03.13.09.14h0c.22.05.45.09.67.14.06.01.13-.03.14-.1.01-.06-.03-.13-.1-.14Z"/>
                <path class="cls-19" d="M61.82,24.73s-.09-.02-.14-.03c-.03.06-.08.14-.12.22.07.01.14.03.2.04,0,0,0,0,0,0,.06.01.13-.03.14-.09.01-.06-.03-.13-.09-.14Z"/>
              </g>
              <path class="cls-19" d="M27.63,15.95s-.05-.02-.07-.04c-.04-.05-.03-.13.02-.17.09-.07.18-.14.27-.21.05-.04.13-.03.17.02.04.05.03.13-.02.17-.09.07-.18.14-.27.21-.03.02-.07.03-.1.02Z"/>
            </g>
            <g>
              <path class="cls-24" d="M7.54,40.65c-.11.24-1.27,2.81-1.27,2.81l-5.77-1.85,7.04-.96Z"/>
              <polygon class="cls-23" points=".2 37.92 7.54 40.65 .5 41.61 .2 37.92"/>
              <polygon class="cls-29" points="7.54 40.65 12.5 44.35 .5 41.61 7.54 40.65"/>
            </g>
            <g>
              <rect class="cls-19" x="9.38" y="40.67" width=".34" height=".24" transform="translate(-.85 .21) rotate(-1.19)"/>
              <path class="cls-19" d="M10.4,40.89v-.24s.67-.02.67-.02v.24s-.67.02-.67.02ZM11.75,40.85v-.24c.22,0,.44-.02.67-.02v.24c-.22,0-.44.02-.67.02ZM13.1,40.79v-.24c.21-.01.44-.02.66-.04v.24c-.21.01-.44.03-.66.04ZM14.45,40.71l-.02-.24c.22-.02.45-.03.67-.05l.02.24c-.22.02-.45.04-.68.05ZM15.8,40.6l-.02-.24c.22-.02.45-.05.67-.07l.03.24c-.22.03-.45.05-.67.07ZM17.15,40.44l-.03-.24c.22-.03.44-.06.67-.1l.04.24c-.22.04-.45.07-.67.1ZM18.49,40.23l-.04-.24c.22-.04.44-.08.66-.13l.05.24c-.22.05-.44.09-.67.13ZM19.82,39.96l-.05-.23c.22-.05.44-.1.65-.16l.06.23c-.22.06-.44.11-.66.16ZM21.13,39.62l-.07-.23c.21-.06.43-.13.64-.2l.07.23c-.22.07-.43.14-.65.2ZM22.42,39.2l-.08-.23c.21-.08.42-.16.63-.24l.09.22c-.21.08-.42.17-.63.24ZM23.68,38.69l-.1-.22c.2-.09.41-.19.61-.29l.11.21c-.2.1-.41.2-.61.29ZM24.9,38.08l-.12-.21c.2-.11.39-.22.58-.33l.12.21c-.19.12-.39.23-.59.34ZM26.06,37.38l-.13-.2c.19-.12.37-.25.55-.38l.14.2c-.18.13-.37.26-.56.39ZM27.17,36.59l-.15-.19c.18-.14.35-.28.52-.43l.16.18c-.17.15-.35.29-.53.43ZM28.2,35.7l-.17-.17c.16-.15.32-.31.47-.47l.17.17c-.15.16-.32.32-.48.48ZM29.14,34.71l-.18-.16c.15-.17.29-.35.42-.52l.19.15c-.14.18-.28.35-.43.53ZM26.94,33.79l.05-.24c.22.04.44.08.66.11l-.03.24c-.23-.03-.45-.07-.67-.11ZM26.27,33.63c-.16-.05-.32-.1-.48-.15-.06-.02-.11-.04-.17-.06l.09-.22c.05.02.11.04.16.06.16.05.31.1.47.15l-.07.23ZM28.29,33.97v-.24c.24.01.46.02.68.02v.24c-.22,0-.45,0-.68-.02ZM24.99,33.13c-.21-.11-.4-.23-.59-.35l.13-.2c.18.12.37.23.57.34l-.11.21ZM29.66,33.95l-.02-.24c.22-.02.44-.05.66-.08l.04.24c-.22.03-.45.06-.68.08ZM23.85,32.36c-.18-.15-.35-.32-.49-.48l.18-.16c.14.16.3.31.47.46l-.16.18ZM29.97,33.63l-.2-.14c.13-.19.25-.37.36-.56l.21.12c-.11.19-.24.38-.37.57ZM31.01,33.74l-.05-.23c.22-.05.43-.11.64-.17l.07.23c-.22.07-.44.13-.66.18ZM22.94,31.32c-.13-.2-.23-.42-.31-.63l.23-.08c.07.2.17.39.29.58l-.2.13ZM32.32,33.34l-.09-.22c.19-.08.39-.16.57-.25l.04-.02.1.22h-.03c-.2.11-.4.19-.6.27ZM30.67,32.46l-.21-.11c.1-.2.2-.4.29-.6l.22.1c-.09.21-.19.41-.3.62ZM33.55,32.75l-.12-.21c.19-.11.38-.23.56-.35l.14.2c-.19.13-.38.25-.58.36ZM22.47,30.01c-.02-.23-.02-.47.02-.7l.24.04c-.04.21-.04.43-.02.64l-.24.02ZM34.68,31.98l-.15-.19c.17-.14.34-.28.51-.43l.16.18c-.17.15-.34.3-.52.44ZM31.22,31.21l-.23-.08c.06-.16.11-.32.16-.48.02-.05.03-.1.05-.15l.23.07c-.02.05-.03.11-.05.16-.05.17-.11.33-.17.49ZM22.92,28.74l-.22-.1c.1-.21.22-.41.37-.6l.19.15c-.14.17-.25.36-.34.55ZM35.69,31.06l-.17-.17c.15-.16.3-.33.44-.5l.19.15c-.14.18-.3.35-.45.51ZM31.34,29.85c.04-.23.05-.45.04-.65h.24c0,.21,0,.44-.05.69l-.24-.04ZM23.72,27.72l-.16-.18c.17-.15.36-.28.56-.41l.12.21c-.19.12-.37.25-.53.38ZM36.55,30l-.2-.14c.13-.18.25-.37.37-.56l.21.12c-.12.19-.24.39-.37.57ZM31.29,28.57c-.05-.17-.13-.33-.23-.48-.02-.03-.04-.05-.06-.08l.19-.15s.05.06.07.09c.11.16.2.34.26.54l-.23.07ZM24.84,27.04l-.09-.22c.1-.04.21-.09.32-.12.11-.04.22-.07.33-.11l.07.23c-.11.03-.21.07-.32.1-.1.04-.2.08-.3.12ZM26.1,26.67l-.04-.24c.22-.04.45-.07.68-.08l.02.24c-.22.01-.44.04-.66.08ZM30.53,27.58c-.12-.09-.26-.17-.41-.26-.05-.03-.1-.05-.15-.08l.11-.21c.05.03.1.05.16.08.17.09.31.18.44.27l-.14.19ZM37.26,28.83l-.21-.11c.1-.2.19-.4.28-.6l.22.09c-.09.21-.18.42-.29.62ZM27.42,26.58v-.24c.24,0,.47.03.69.06l-.04.24c-.22-.03-.44-.05-.66-.06ZM29.36,26.97c-.2-.08-.42-.14-.63-.2l.06-.23c.22.06.44.13.66.21l-.08.22ZM37.79,27.57l-.23-.08c.07-.21.13-.43.18-.64l.23.06c-.05.22-.12.44-.19.66ZM37.87,26.2c.03-.22.06-.44.07-.66h.24c-.01.24-.04.47-.07.7l-.24-.04ZM37.94,24.88c-.01-.22-.03-.44-.07-.66l.24-.04c.04.22.06.45.07.68h-.24ZM37.72,23.58c-.06-.2-.13-.4-.21-.59v-.03s.21-.1.21-.1v.03c.1.2.18.41.24.62l-.23.07ZM37.19,22.38c-.11-.18-.24-.37-.38-.54l.19-.15c.14.18.28.37.4.56l-.2.13ZM36.37,21.34c-.15-.15-.31-.3-.49-.45l.15-.18c.18.15.35.31.5.47l-.17.17ZM35.36,20.48c-.17-.12-.36-.25-.56-.37l.13-.2c.2.12.39.25.57.38l-.14.2ZM34.22,19.78c-.19-.1-.39-.2-.6-.3l.1-.22c.21.1.41.2.61.31l-.11.21ZM24.47,17.56l.05-.23c.2.04.41.08.65.1l-.03.24c-.25-.03-.47-.06-.68-.11ZM23.8,17.36c-.22-.09-.43-.2-.62-.33l.13-.2c.18.12.37.22.57.3l-.09.22ZM25.83,17.72v-.24c.16,0,.3.01.45.02h.24s-.01.25-.01.25h-.24c-.15-.02-.29-.02-.44-.03ZM33.01,19.21c-.21-.09-.41-.17-.62-.25l.09-.22c.21.08.42.17.63.25l-.09.22ZM27.17,17.79l.02-.24c.23.02.45.04.68.06l-.03.24c-.22-.03-.44-.05-.67-.06ZM31.76,18.73c-.21-.07-.42-.14-.64-.2l.07-.23c.22.07.43.13.65.21l-.08.23ZM28.5,17.94l.04-.24c.22.03.45.07.67.11l-.04.24c-.22-.04-.44-.08-.66-.11ZM30.48,18.34c-.22-.06-.43-.11-.65-.16l.05-.23c.22.05.44.1.66.16l-.06.23ZM22.65,16.58c-.17-.18-.3-.38-.39-.59l.22-.1c.08.19.2.36.35.53l-.18.16ZM22.09,15.29c-.01-.18,0-.36.04-.54.01-.06.03-.11.04-.17l.23.07s-.03.1-.04.15c-.03.16-.05.32-.04.48h-.24ZM22.68,14.08l-.2-.13c.12-.19.27-.37.45-.54l.17.17c-.16.16-.3.33-.42.5ZM23.6,13.17l-.14-.2c.19-.13.39-.25.6-.35l.1.22c-.2.1-.39.21-.57.33ZM24.78,12.6l-.07-.23c.22-.07.45-.12.67-.16l.04.24c-.21.03-.43.08-.64.15ZM26.07,12.4v-.24c.25,0,.48.04.7.09l-.06.23c-.2-.05-.41-.08-.64-.08Z"/>
              <path class="cls-19" d="M27.58,12.95c-.08-.07-.16-.14-.25-.2l.13-.2c.1.07.2.14.28.22l-.16.18Z"/>
            </g>
            <path class="cls-5" d="M64.12,44.26c-.45,1.16-2.99,1.25-5.67.2-2.68-1.05-4.48-2.84-4.03-3.99.45-1.16,2.99-1.25,5.67-.2s4.48,2.84,4.03,3.99Z"/>
            <path class="cls-5" d="M124.37,65.4c-.17.78-1.94,1.05-3.95.61-2.01-.44-3.51-1.43-3.34-2.2.17-.78,1.94-1.05,3.95-.61,2.01.44,3.51,1.43,3.34,2.2Z"/>
            <polygon class="cls-6" points="0 46.25 .65 43.79 9.85 47.1 0 46.25"/>
            <polygon class="cls-5" points="77.09 49.34 81.62 51.2 88.56 48.51 79.78 48.48 78.63 47.36 75.18 47.48 77.09 49.34"/>
          </g>
        </g>
      </g>
    </g>
  </g>
</svg>