<?xml version="1.0" encoding="UTF-8"?>
<svg id="_圖層_2" data-name="圖層_2" xmlns="http://www.w3.org/2000/svg" viewBox="0 0 149.98 213.18">
  <defs>
    <style>
      .cls-1 {
        fill: #237cae;
      }
    </style>
  </defs>
  <g id="_視覺" data-name="視覺">
    <g>
      <path class="cls-1" d="M112.11,112.39c-.78-.23-1.57-.46-2.27-.86s-1.34-.98-1.64-1.74c1.3.19,2.51.51,3.75.96,1.81-.49,3.7.18,5.52.64,2.24.57,4.54.85,6.75,1.52s4.38,1.8,5.72,3.68c.94,1.32,1.42,2.99,2.73,3.94.47-.58.94-1.17,1.51-1.65.57-.48,1.26-.84,2.01-.91.74-.07,1.54.2,1.99.79.35.45.32,1.15.56,1.67.2.43.44.84.71,1.23-.5-.27-1.03-.52-1.56-.73-.52-.21-1.07.64-1.02,1.2-.07-.07-.14-.14-.21-.21.12.49.15,1,.08,1.5-.07-.08-.15-.15-.22-.23.03.47-.05.94-.25,1.36-.05-.08-.1-.17-.15-.25-.43,1.38-.99,2.72-1.67,4.01-.2.38-.31.88-.56,1.23-.05-.16-.11-.33-.16-.49-.33.58-.78,1.09-1.31,1.48l-.02-.49c-.45.56-1.19.76-1.89.91-.7.16-1.31.35-1.78.88-.57.65-.87,1.5-1,2.36-.13.85-.11,1.72-.12,2.59,0,.39-.03.8-.17,1.17-.14.37-.43.7-.81.8-.38.1-.91-.06-1.01-.44-.44.18-1.01-.02-1.23-.44.02,0,0,.03.01.04-.27.28-.75.25-1.08.05-.33-.21-.61-.53-.82-.86-.28.14-.61.15-.9.04s-.57-.33-.68-.62c-.39.1-.82.12-1.19-.04-.37-.16-.65-.53-.65-.93-.3.06-.63-.04-.84-.26s-.37-.56-.3-.85c-.26-.08-.38-.4-.33-.67.05-.27.22-.49.4-.7,1.04-1.19,2.35-2.12,3.74-2.87,1.39-.75,2.96-1.35,4.44-1.92-.45.08-.84-.16-1.13-.52-.17.15-.45.08-.6-.09-.15-.17-.19-.41-.19-.63,0-.2,0-.38.05-.57-.3-.01-.54.33-.83.26-.17-.04-.29-.22-.3-.39s0-.38.06-.55c-.13.14-.35.16-.52.08s-.29-.24-.35-.42-.08-.33-.1-.52c-.3.03-.61-.08-.82-.29s-.3-.65-.26-.94c-.68-.01-1.3-.39-1.87-.76-.05-.03-.1-.07-.12-.13-.01-.04,0-.08,0-.13.04-.17.18-.32.22-.49-.85.01-1.71-.38-2.25-1.04.19-.1.31-.29.44-.46-.62.06-1.27-.18-1.71-.63.2-.1.4-.29.54-.46-.41.06-.83-.03-1.22-.19-.38-.16-.74-.38-1.09-.61.19-.07.44-.16.59-.29-.84-.13-1.64-.54-2.24-1.15.17-.05.31-.15.48-.2-.82-.33-1.56-.84-2.16-1.48.16-.06.32-.13.47-.19-.8-.17-1.54-.59-2.09-1.2.21-.05.45-.16.65-.21-1.06-.26-2.03-.89-2.69-1.76,1.66-.1,3.3-.12,4.95.1Z"/>
      <path class="cls-1" d="M6.5,192.58c-.2-.5-.39-1.01-.47-1.55-.08-.54-.03-1.11.25-1.57.43.77.75,1.53,1.02,2.37.97.74,1.39,1.96,1.87,3.08.07-.2.16-.39.26-.57.06.08.13.16.19.24-.05-.49.07-1,.32-1.42.07.11.17.23.24.34-.04-.66.16-1.33.54-1.87.35.94.66,1.88.82,2.88,0-.49-.01-.99.09-1.47.1-.48.33-.95.71-1.26.12.79.15,1.54.11,2.34.61.96.56,2.17.61,3.3.05,1.17.24,2.33.3,3.49.27-.08.54-.11.81-.08.49.05.98.33,1.2.77.17.34.06.79.15,1.16.08.31.18.61.31.89-.29-.24-.61-.47-.92-.67-.32-.2-.78.28-.82.65l-.11-.17c.02.34-.03.68-.14.99-.04-.06-.08-.12-.11-.18-.04.31-.16.61-.34.86-.02-.06-.04-.12-.07-.19-.46.85-1,1.65-1.61,2.41-.18.22-.31.54-.52.73-.01-.11-.03-.23-.04-.34-.29.34-.65.61-1.04.8.02-.11.03-.22.05-.32-.36.31-.88.34-1.35.35-.47.01-.9.06-1.28.35-.46.35-.76.87-.96,1.41-.19.54-.29,1.11-.41,1.68-.06.26-.12.52-.26.74-.14.22-.37.4-.63.42-.26.02-.58-.16-.6-.42-.31.06-.66-.14-.75-.45.01,0,0,.02,0,.03-.22.15-.52.07-.72-.11-.19-.18-.33-.42-.42-.67-.2.05-.42.02-.59-.09-.17-.11-.33-.29-.36-.49-.27.02-.55-.03-.77-.18-.22-.15-.36-.43-.3-.69-.2,0-.4-.11-.51-.28-.11-.17-.17-.41-.08-.6-.16-.09-.2-.31-.13-.48.07-.17.21-.29.35-.4.83-.65,1.81-1.09,2.82-1.4.32-.1.65-.18.99-.26.1-.02.21-.04.31-.07-.24-.08-.48-.17-.72-.27-.13-.2-.15-.44-.09-.69-.15-.03-.23-.21-.2-.35.03-.15.14-.27.26-.36.1-.08.2-.16.32-.2-.11-.16-.39-.15-.48-.33-.05-.11,0-.24.08-.32s.2-.15.31-.19c-.12-.01-.23-.12-.25-.24-.03-.12.01-.25.07-.36s.15-.18.23-.26c-.14-.14-.21-.35-.18-.55.03-.2.22-.42.39-.52-.27-.36-.32-.84-.36-1.3,0-.04,0-.08.02-.12.02-.02.04-.04.07-.05.1-.05.24-.04.35-.08-.35-.45-.49-1.06-.37-1.61.13.06.28.04.42.04-.29-.3-.42-.74-.36-1.16.14.06.31.09.46.1-.2-.19-.32-.45-.4-.72-.07-.27-.1-.54-.12-.82.11.07.26.17.4.19-.27-.5-.38-1.08-.31-1.65.1.07.21.1.3.17-.16-.56-.2-1.17-.1-1.74.1.06.2.11.29.17-.24-.49-.32-1.06-.22-1.59.11.09.27.17.38.26-.29-.67-.36-1.43-.17-2.14.73.84,1.41,1.69,1.96,2.65Z"/>
      <path class="cls-1" d="M37.41,92.76c.02-.09.04-.18.06-.27-.46.17-.91.34-1.37.51,1.21-2.53,3.02-4.77,5.24-6.49-.48-.03-.96-.05-1.44-.08.82.05,2.72-1.78,3.36-2.27.9-.7,1.74-1.45,2.56-2.24.05-.1.1-.2.15-.3-.33,0-.67,0-1-.01.73-1.34,1.75-2.52,2.96-3.44-.5-.14-1.01-.29-1.51-.43,1.57-.99,3.06-2.09,4.48-3.29-.69-.69-1.24-1.5-1.54-2.43.43.1.86.2,1.29.3-1.18-1.45-1.95-3.22-2.2-5.07.38.23.77.45,1.15.68-1-2.04-1.32-4.4-.88-6.63.49.5.98,1,1.47,1.5-.87-1.73-.99-3.83-.33-5.65.41.35.81.7,1.22,1.05-.38-2.17-.1-4.46.8-6.47.46.46.91.93,1.37,1.39-.22-2.56.46-4.82,2.29-7.15.45.7.9,1.4,1.34,2.1-.1-1.97.33-3.97,1.24-5.73.44.82.89,1.64,1.33,2.46.25-1.75.86-3.45,1.79-4.96.12-.19.31-.41.53-.35.14.04.22.19.29.32.38.77.77,1.53,1.15,2.3-.31-2,.42-4.14,1.88-5.54.85,1.67,1.31,3.53,1.35,5.41.12,6.11-3.14,11.81-4.72,17.71-1.2,4.49-1.67,9.36-1.13,14.03.69.08,1.38.06,2.06-.07,1.31-.26,2.5-.92,3.76-1.38,1.25-.46,2.68-.72,3.9-.18,1.22.54,2.04,2.11,1.38,3.27,1.45-.05,2.95-.66,3.9-1.75.29.56.39,1.22.28,1.85,1.39-.72,2.78-1.44,4.17-2.15-.07.6-.14,1.2-.22,1.79,1.35-.62,2.69-1.24,4.04-1.86-.07.63-.15,1.27-.22,1.9,1.03-.38,2.06-.75,3.09-1.13-.07.89-.39,1.75-.92,2.47,1.43-.57,2.86-1.14,4.29-1.71-.68,2.74-2.38,5.2-4.69,6.81,1.82-.75,3.94-1.25,5.76-2-.87,2.9-4.06,4.56-7.09,4.79-3.02.24-6.01-.61-9.01-1.04-3.54-.52-7.17-.48-10.7.13-1.11,1.08-2.3,1.43-3.74,1.98s-2.94,1.24-3.79,2.54c.59,1.25.46,3.21-.31,4.35-.3.44-.71.84-1.23.98-.52.14-1.14-.04-1.4-.5-.29.99-1.16,2.02-2.08,2.47-.25.12-.53.21-.79.15-.27-.06-.5-.34-.42-.6-.37,1.22-1.49,2.6-2.62,3.21-.28.15-.59.28-.91.26-.32-.02-.65-.21-.74-.52-.44.78-.94,1.74-1.58,2.36-.64.62-1.52,1.05-2.41.95.15-2.06.62-4.1,1.4-6.02-1.43,1.58-3.23,3.02-5.17,3.91-.4.18-.97.31-1.2-.07-.18-.3,0-.68.18-.97.71-1.15,1.42-2.31,2.13-3.46-1.43,1.43-3.04,2.61-4.78,3.65-.05-2.02,1.06-3.86,2.49-5.34Z"/>
      <path class="cls-1" d="M111.77,58.3c.15-2.06.62-4.1,1.4-6.02-1.43,1.58-3.23,3.02-5.17,3.91-.4.18-.97.31-1.2-.07-.18-.3,0-.68.18-.97.71-1.15,1.42-2.31,2.14-3.46-1.43,1.43-3.04,2.61-4.78,3.65-.06-2.44,1.57-4.61,3.4-6.22s3.97-2.91,5.53-4.79c1.01-1.23,1.74-2.66,2.63-3.98.89-1.32,2.02-2.56,3.5-3.14-2.17-.36-4.31-.99-6.36-1.8.84-.33,1.68-.67,2.52-1-1.33-.11-2.63-.52-3.77-1.21.55-.26,1.2-.32,1.79-.17-1.53-1.16-2.75-2.74-3.5-4.51.63.4,1.27.81,1.9,1.21-.73-1.84-1.45-3.68-2.18-5.51,1.04.63,2.08,1.26,3.12,1.89-.75-2.02-1.51-4.04-2.26-6.07,1,.87,2,1.75,3,2.62-.81-2.08-1.31-4.28-1.49-6.51.93,1.12,1.86,2.24,2.79,3.36-.47-3.03-.59-6.12-.36-9.18.56,2.05,1.6,3.96,3.01,5.55-.3-3.1-.14-6.24.46-9.29.59,1.82,1.43,3.56,2.49,5.14-.47-2.83-.22-5.78.74-8.48.63,1.64,1.27,3.27,1.9,4.91.16-2.43.55-4.84,1.17-7.18.16,1.9.55,3.78,1.14,5.59.15-2.26.48-4.57,1.51-6.58,1.56,4.84,1.6,10.03,1.35,15.11-.05,1-.11,2.01-.17,3.02.28-.91.6-1.8.98-2.67.28,1.43.56,2.86.84,4.29,1.05-2.88,2.42-5.65,4.09-8.23-.49,2.07-.5,4.24-.03,6.31,1.22-2.86,2.87-5.54,4.86-7.93-.36,1.88-.46,3.8-.29,5.71.94-2.71,2.58-5.18,4.72-7.09-.23,1.74-.46,3.48-.69,5.22,1.3-2.05,2.8-3.98,4.48-5.74-.77,1.74-1.33,3.58-1.68,5.45,1.21-1.91,2.62-3.77,4.49-5.05-.95,4.99-3.41,9.57-6.06,13.9-1.41,2.31-2.92,4.62-4.32,6.97.04.02.09.03.13.04.02.01.05.03.07.04.02-.03.05-.05.07-.08.75.18,1.38.81,1.56,1.57.17.76-.12,1.6-.72,2.09.19.65.55,1.36.74,2.01-.59-.25-1.19-.5-1.78-.75-.88-.37-1.63.88-2.21,1.65-.58.77-.95,1.66-1.42,2.5-1.89,3.37-5.46,5.71-9.28,6.25-.18.19-.35.39-.5.61.59,1.25.46,3.21-.31,4.35-.3.44-.71.84-1.23.98s-1.14-.04-1.4-.5c-.29.99-1.16,2.02-2.08,2.47-.25.12-.53.21-.79.15-.27-.06-.5-.34-.42-.6-.37,1.22-1.49,2.6-2.62,3.21-.28.15-.59.28-.91.26-.32-.02-.65-.21-.74-.52-.44.78-.94,1.74-1.58,2.36-.64.62-1.52,1.05-2.41.95Z"/>
      <path class="cls-1" d="M59.41,151.37c4.03,1.15,7.64,3.35,11.3,5.43-.35-.39-.63-.83-.83-1.31.32.13.8.2,1.14.2-.73-.49-1.32-1.21-1.65-2.03.5.08,1.11.2,1.61.27-.99-.55-1.68-1.61-1.79-2.74.59.26,1.24.6,1.82.86-.7-.64-1.19-1.49-1.32-2.42,4.34,2.6,7.57,6.66,11.38,9.99,1.22,1.06,2.54,2.13,3.13,3.63.67,1.74.2,3.67-.05,5.52-.13.94-.2,1.89-.21,2.84.57-.22,1.12-.53,1.69-.77.75-.32,1.61-.52,2.37-.23.02,0,.03.01.04.02.01-.02.03-.03.04-.05.46.08.87.45.99.9s-.02.98-.37,1.29c.14.39.38.81.51,1.2-.37-.13-.74-.27-1.11-.4-.55-.2-.96.59-1.29,1.07-.33.48-.53,1.04-.79,1.56-1.05,2.11-3.14,3.65-5.44,4.09-.1.12-.2.25-.28.39.4.74.38,1.93-.05,2.65-.17.28-.41.53-.71.63-.31.1-.69.01-.87-.26-.14.61-.64,1.27-1.19,1.57-.15.08-.31.15-.48.12s-.31-.19-.28-.35c-.19.75-.83,1.63-1.49,2.03-.17.1-.35.19-.55.19-.19,0-.4-.11-.46-.29-.24.49-.52,1.09-.89,1.49-.37.4-.89.69-1.44.65.02-1.26.25-2.51.66-3.7-.82,1.01-1.87,1.94-3.02,2.54-.24.13-.58.22-.73,0-.12-.17-.02-.41.08-.6.4-.72.79-1.45,1.19-2.17-.82.91-1.77,1.69-2.79,2.37-.11-1.48.81-2.85,1.87-3.89,1.07-1.04,2.32-1.89,3.21-3.09.58-.78.97-1.67,1.47-2.5.24-.39.51-.77.82-1.1-1.03-1.21-1.75-2.7-2.13-4.23-.61-.27-1.04-1.05-.99-1.71-.47-.25-.78-.89-.65-1.41-.6-.31-.86-.9-.69-1.55-.8-.44-1.26-1.31-.97-2.18-1.98-1.49-3.86-3.11-5.62-4.85.26.01.45,0,.71,0-.66-.63-1.32-1.26-1.98-1.89.32,0,.69.06,1.01.06-.79-.35-1.49-.9-2.02-1.59.38.04.92,0,1.28-.11-.93-.32-1.77-.92-2.36-1.71.56-.06,1.25-.1,1.81-.17-1.23-.31-2.28-1.25-2.72-2.44.71.11,1.5.29,2.21.4-.94-.48-1.71-1.26-2.12-2.23Z"/>
    </g>
  </g>
</svg>