<?xml version="1.0" encoding="UTF-8"?>
<svg id="_圖層_2" data-name="圖層_2" xmlns="http://www.w3.org/2000/svg" viewBox="0 0 75.03 69.64">
  <defs>
    <style>
      .cls-1 {
        fill: #fff;
      }
    </style>
  </defs>
  <g id="_視覺" data-name="視覺">
    <path class="cls-1" d="M0,2.12C.41.87,1.2.03,2.56,0c.58-.01,1.2.18,1.74.43,11.66,5.36,23.31,10.75,34.97,16.13,11.26,5.2,22.51,10.39,33.77,15.58.72.33,1.37.73,1.73,1.49.59,1.27.21,2.64-.96,3.4-.28.18-.59.34-.9.48-22.89,10.57-45.77,21.13-68.66,31.69C2.23,70.13.87,69.58,0,67.48,0,67.09,0,66.7,0,66.31c.27-.45.51-.93.82-1.36,7.38-9.86,14.77-19.72,22.18-29.56.34-.45.35-.73,0-1.18-6.28-8.34-12.55-16.69-18.8-25.05C2.77,7.23,1.4,5.25,0,3.29c0-.39,0-.78,0-1.17Z"/>
  </g>
</svg>