<?xml version="1.0" encoding="UTF-8"?>
<svg id="_圖層_2" data-name="圖層 2" xmlns="http://www.w3.org/2000/svg" xmlns:xlink="http://www.w3.org/1999/xlink" viewBox="0 0 361.68 390.3">
  <defs>
    <style>
      .cls-1 {
        fill: url(#_未命名漸層_41-3);
      }

      .cls-2 {
        fill: #fff;
      }

      .cls-3 {
        fill: url(#_未命名漸層_41-5);
      }

      .cls-4 {
        fill: url(#_未命名漸層_41-4);
      }

      .cls-5 {
        fill: url(#_未命名漸層_41);
      }

      .cls-6 {
        fill: url(#_未命名漸層_41-2);
      }

      .cls-7 {
        fill: url(#_未命名漸層_41-6);
      }
    </style>
    <linearGradient id="_未命名漸層_41" data-name="未命名漸層 41" x1="137.9" y1="-44.26" x2="217.17" y2="349.1" gradientUnits="userSpaceOnUse">
      <stop offset="0" stop-color="#569535"/>
      <stop offset=".71" stop-color="#f3961a"/>
      <stop offset=".99" stop-color="#f7c478"/>
    </linearGradient>
    <linearGradient id="_未命名漸層_41-2" data-name="未命名漸層 41" x1="185.44" y1="-53.84" x2="264.71" y2="339.52" xlink:href="#_未命名漸層_41"/>
    <linearGradient id="_未命名漸層_41-3" data-name="未命名漸層 41" x1="57.18" y1="-27.99" x2="136.45" y2="365.36" xlink:href="#_未命名漸層_41"/>
    <linearGradient id="_未命名漸層_41-4" data-name="未命名漸層 41" x1="120.09" y1="-40.67" x2="199.36" y2="352.69" xlink:href="#_未命名漸層_41"/>
    <linearGradient id="_未命名漸層_41-5" data-name="未命名漸層 41" x1="98.47" y1="-36.31" x2="177.74" y2="357.04" xlink:href="#_未命名漸層_41"/>
    <linearGradient id="_未命名漸層_41-6" data-name="未命名漸層 41" x1="149.93" y1="-46.68" x2="229.19" y2="346.68" xlink:href="#_未命名漸層_41"/>
  </defs>
  <g id="_視覺" data-name="視覺">
    <g>
      <g>
        <path class="cls-2" d="M3.16,263.59h4.46v-2.52h.95v2.52h4.46v5.22h-.9v-.62h-3.56v4.22h-.95v-4.22h-3.56v.62h-.9v-5.22ZM4.06,264.44v2.89h3.56v-2.89h-3.56ZM12.13,264.44h-3.56v2.89h3.56v-2.89Z"/>
        <path class="cls-2" d="M17.97,264.01h9.4v.71h-1.38v1.33h2.09v.76h-2.09v1.33h1.47v.76h-4.37v1.19h5.08v.71h-5.08v1.57h-.85v-1.57h-5.08v-.71h5.08v-1.19h-4.37v-.76h1.47v-1.33h-2.09v-.76h2.09v-1.33h-1.38v-.71ZM17.36,262.12h2.8v-.9h.85v.9h3.32v-.9h.85v.9h2.8v.71h-2.8v.85h-.85v-.85h-3.32v.85h-.85v-.85h-2.8v-.71ZM20.2,264.73v1.33h2.04v-1.33h-2.04ZM20.2,266.81v1.33h2.04v-1.33h-2.04ZM23.1,264.73v1.33h2.04v-1.33h-2.04ZM23.1,266.81v1.33h2.04v-1.33h-2.04Z"/>
        <path class="cls-2" d="M32.69,261.59h9.21v3.7h-3.46c.06.76.16,1.44.29,2.04h4.08v.85h-3.89c.35,1.08.78,1.93,1.28,2.56.38.35.7.52.95.52.22,0,.4-.14.52-.43,0-.06.03-.17.09-.33.09-.54.17-1.04.24-1.52.13.06.32.14.57.24.13.03.22.06.29.09-.09.7-.22,1.27-.38,1.71-.22.82-.63,1.23-1.23,1.23s-1.16-.3-1.66-.9c-.7-.82-1.22-1.88-1.57-3.18h-4.41v2.94c.25-.09.65-.22,1.19-.38.73-.29,1.27-.49,1.61-.62v.9c-.76.22-1.63.54-2.61.95-.32.16-.62.3-.9.43l-.52-.81c.22-.22.33-.46.33-.71v-9.3ZM33.6,262.45v2.04h7.4v-2.04h-7.4ZM37.82,267.34c-.13-.6-.24-1.28-.33-2.04h-3.89v2.04h4.22Z"/>
        <path class="cls-2" d="M46.75,261.59h10.11v10.73h-.81v-.52h-8.5v.52h-.81v-10.73ZM47.56,262.35v8.69h8.5v-8.69h-8.5ZM47.98,269.47c.09,0,.25-.02.47-.05,1.58-.19,2.75-.35,3.51-.47,0,.29.02.52.05.71-.82.09-2.01.27-3.56.52-.13.03-.22.05-.29.05l-.19-.76ZM51.5,270.33c.57-.54,1.04-1.04,1.42-1.52-.32-.95-.52-2.36-.62-4.22h-4.22v-.71h4.18v-1.19h.81v1.19h1.28c-.22-.32-.47-.62-.76-.9l.57-.43c.28.32.57.65.85,1l-.52.33h1.09v.71h-2.52c.09,1.58.22,2.71.38,3.37.51-.85.9-1.77,1.19-2.75l.76.29c-.44,1.3-1,2.42-1.66,3.37.16.29.3.54.43.76.16.19.28.28.38.28.16,0,.25-.14.28-.43.06-.41.11-.95.14-1.61.09.03.22.06.38.09.19.06.32.11.38.14-.03.32-.08.71-.14,1.19-.03.19-.05.33-.05.43-.13.73-.43,1.09-.9,1.09-.44,0-.81-.22-1.09-.67-.03-.06-.08-.16-.14-.28-.09-.1-.16-.17-.19-.24-.32.44-.7.85-1.14,1.23-.06-.06-.16-.16-.28-.28-.13-.1-.22-.17-.29-.24ZM48.55,265.34h2.94v2.94h-2.94v-2.94ZM49.27,266.06v1.57h1.47v-1.57h-1.47Z"/>
        <path class="cls-2" d="M64.32,263.78c-.7.63-1.54,1.14-2.51,1.52v-1c1.45-.67,2.39-1.5,2.8-2.52h.71v9.63h-1v-7.64Z"/>
        <path class="cls-2" d="M74.15,263.78c-.7.63-1.54,1.14-2.51,1.52v-1c1.45-.67,2.39-1.5,2.8-2.52h.71v9.63h-1v-7.64Z"/>
        <path class="cls-2" d="M86.79,268.81c-.09,1.74-1.14,2.66-3.13,2.75-1.77,0-2.85-.84-3.23-2.51l1.09-.29c.19,1.3.87,1.95,2.04,1.95,1.42,0,2.14-.66,2.14-1.99-.1-1.14-.82-1.74-2.18-1.8h-.85v-.85h.47c1.36-.03,2.07-.63,2.14-1.8-.06-1.01-.6-1.53-1.61-1.57-1.08.03-1.72.63-1.95,1.8l-1.04-.33c.38-1.55,1.36-2.34,2.94-2.37,1.8.06,2.74.89,2.8,2.47-.03,1.04-.57,1.76-1.61,2.14,1.27.38,1.93,1.19,1.99,2.42Z"/>
        <path class="cls-2" d="M90.26,265.15c1.17-1.11,2.07-2.48,2.71-4.13l.95.24c-.06.13-.14.32-.24.57-.13.25-.22.44-.29.57h7.64v.85h-4.08v1.99h3.89v.85h-3.89v2.42h4.6v.85h-4.6v2.99h-.9v-2.99h-5.88v-.85h1.85v-3.27h4.03v-1.99h-3.18c-.54.92-1.17,1.76-1.9,2.51-.03-.03-.16-.14-.38-.33-.19-.16-.3-.25-.33-.28ZM92.92,266.1v2.42h3.13v-2.42h-3.13Z"/>
      </g>
      <g>
        <path class="cls-2" d="M10.51,370.11l-1.6-3.91H3.08l-1.54,3.91H0l5.19-12.81h1.54l5.32,12.81h-1.54ZM3.59,364.98h4.8l-2.11-5.45c-.04-.21-.13-.51-.26-.9-.13.38-.24.68-.32.9l-2.11,5.45Z"/>
        <path class="cls-2" d="M22.05,364.08v5.96h-1.35v-5.77c-.04-1.71-.77-2.58-2.18-2.63-1.67.21-2.58,1.11-2.75,2.69v5.7l-1.35.06v-9.35h1.35v1.41c.73-1.07,1.75-1.62,3.08-1.67,2.13,0,3.2,1.2,3.2,3.59Z"/>
        <path class="cls-2" d="M33.28,364.08v5.96h-1.35v-5.77c-.04-1.71-.77-2.58-2.18-2.63-1.67.21-2.58,1.11-2.75,2.69v5.7l-1.35.06v-9.35h1.35v1.41c.73-1.07,1.75-1.62,3.08-1.67,2.13,0,3.2,1.2,3.2,3.59Z"/>
        <path class="cls-2" d="M43.09,360.75h1.34v9.29h-1.34v-1.28c-.68.98-1.71,1.49-3.08,1.54-2.18.04-3.25-1.11-3.2-3.46v-6.09h1.35v5.96c.04,1.67.77,2.52,2.18,2.56,1.67-.17,2.58-1.05,2.75-2.63v-5.89Z"/>
        <path class="cls-2" d="M49.13,363.64l-1.35-.38c.47-1.92,1.86-2.84,4.17-2.76,2.52-.04,3.74,1.15,3.65,3.59v3.78c-.04,1.03.13,1.75.51,2.18h-1.35c-.3-.34-.45-.77-.45-1.28-.77,1.02-1.99,1.54-3.65,1.54-1.96-.09-3.01-.9-3.14-2.43.04-1.79,1.17-2.8,3.4-3.01,1.79-.17,2.88-.41,3.27-.71.13-1.71-.64-2.52-2.31-2.43-1.62-.08-2.54.56-2.75,1.92ZM54.19,366.46v-1.22c-.17.34-1.09.58-2.75.71-1.71.21-2.54.81-2.5,1.79.04.94.75,1.41,2.11,1.41,1.92-.13,2.97-1.02,3.14-2.69Z"/>
        <path class="cls-2" d="M59.2,357.29h1.35v12.75h-1.35v-12.75Z"/>
        <path class="cls-2" d="M81.46,370.11h-1.99l-4.42-5.77h-3.4v5.77h-1.47v-12.81h5.96c2.73.13,4.19,1.28,4.36,3.46,0,2.22-1.28,3.42-3.84,3.59l4.8,5.77ZM71.65,358.57v4.49h4.17c2.09-.04,3.14-.83,3.14-2.37-.04-1.37-1.09-2.07-3.14-2.11h-4.17Z"/>
        <path class="cls-2" d="M90.7,367.16l1.41.38c-.51,1.88-1.88,2.8-4.1,2.75-2.86-.13-4.34-1.71-4.42-4.74.13-3.2,1.58-4.87,4.36-5,2.73.09,4.14,1.75,4.23,5v.32h-7.11c.08,2.09,1.05,3.2,2.88,3.33,1.45,0,2.37-.68,2.75-2.05ZM85.12,364.73h5.57c-.09-1.88-1-2.86-2.75-2.95-1.75.17-2.69,1.15-2.82,2.95Z"/>
        <path class="cls-2" d="M96.6,373.31h-1.35v-12.56h1.35v1.41c.73-1.07,1.64-1.6,2.75-1.6,2.52.13,3.84,1.79,3.97,5-.04,3.03-1.26,4.59-3.65,4.68-1.5.04-2.52-.47-3.08-1.54v4.61ZM96.6,364.53v1.47c.04,2.14.94,3.23,2.69,3.27,1.75-.04,2.65-1.28,2.69-3.72-.04-2.48-1-3.76-2.88-3.84-1.54.17-2.37,1.11-2.5,2.82Z"/>
        <path class="cls-2" d="M110.14,370.3c-2.78-.17-4.23-1.73-4.36-4.68.09-3.29,1.58-4.98,4.49-5.06,2.69.13,4.1,1.75,4.23,4.87-.04,3.2-1.5,4.83-4.36,4.87ZM110.2,361.65c-1.96.04-2.97,1.35-3.01,3.91.04,2.39,1.05,3.63,3.01,3.72,1.84-.09,2.78-1.35,2.82-3.78-.13-2.39-1.07-3.67-2.82-3.84Z"/>
        <path class="cls-2" d="M120.97,361.91c-.51,0-1,.3-1.47.9-.38.47-.58,1.22-.58,2.24v5.06h-1.35v-9.35h1.35v1.67h.06c.43-1.2,1.15-1.82,2.18-1.86.51-.04,1.03.11,1.54.45l-.58,1.28c-.38-.26-.77-.38-1.15-.38Z"/>
        <path class="cls-2" d="M128.42,369.28l.26.7c-.43.17-.9.26-1.41.26-1.32.04-1.96-.64-1.92-2.05v-6.28h-1.28v-1.15h1.28v-2.5l1.35-.7v3.2h1.73v1.15h-1.73v6.28c-.04.81.3,1.2,1.02,1.15.26,0,.49-.02.71-.06Z"/>
        <path class="cls-2" d="M140.75,370.3c-2.78-.17-4.23-1.73-4.36-4.68.09-3.29,1.58-4.98,4.49-5.06,2.69.13,4.1,1.75,4.23,4.87-.04,3.2-1.5,4.83-4.36,4.87ZM140.81,361.65c-1.96.04-2.97,1.35-3.01,3.91.04,2.39,1.05,3.63,3.01,3.72,1.84-.09,2.78-1.35,2.82-3.78-.13-2.39-1.07-3.67-2.82-3.84Z"/>
        <path class="cls-2" d="M155.82,364.08v5.96h-1.35v-5.77c-.04-1.71-.77-2.58-2.18-2.63-1.67.21-2.58,1.11-2.75,2.69v5.7l-1.35.06v-9.35h1.35v1.41c.73-1.07,1.75-1.62,3.08-1.67,2.13,0,3.2,1.2,3.2,3.59Z"/>
        <path class="cls-2" d="M174.68,357.29v1.22h-4.36v11.6h-1.47v-11.6h-4.36v-1.22h10.19Z"/>
        <path class="cls-2" d="M181.16,370.3c-2.78-.17-4.23-1.73-4.36-4.68.09-3.29,1.58-4.98,4.49-5.06,2.69.13,4.1,1.75,4.23,4.87-.04,3.2-1.5,4.83-4.36,4.87ZM181.22,361.65c-1.96.04-2.97,1.35-3.01,3.91.04,2.39,1.05,3.63,3.01,3.72,1.84-.09,2.78-1.35,2.82-3.78-.13-2.39-1.07-3.67-2.82-3.84Z"/>
        <path class="cls-2" d="M194.82,360.75h1.34v9.29h-1.34v-1.28c-.68.98-1.71,1.49-3.08,1.54-2.18.04-3.25-1.11-3.2-3.46v-6.09h1.35v5.96c.04,1.67.77,2.52,2.18,2.56,1.67-.17,2.58-1.05,2.75-2.63v-5.89Z"/>
        <path class="cls-2" d="M203.1,361.91c-.51,0-1,.3-1.47.9-.38.47-.58,1.22-.58,2.24v5.06h-1.35v-9.35h1.35v1.67h.06c.43-1.2,1.15-1.82,2.18-1.86.51-.04,1.03.11,1.54.45l-.58,1.28c-.38-.26-.77-.38-1.15-.38Z"/>
        <path class="cls-2" d="M207.21,357.29h1.34v1.73h-1.34v-1.73ZM207.21,360.75h1.34v9.35h-1.34v-9.35Z"/>
        <path class="cls-2" d="M215.36,361.71c-1.24.04-1.92.51-2.05,1.41-.04.81.81,1.37,2.56,1.67,2.31.38,3.44,1.32,3.4,2.82-.04,1.75-1.3,2.65-3.78,2.69-2.14.04-3.46-.88-3.97-2.75l1.35-.38c.34,1.45,1.22,2.16,2.63,2.11,1.54-.04,2.33-.58,2.37-1.6.04-.85-.75-1.43-2.37-1.73-2.48-.3-3.67-1.24-3.59-2.82.17-1.67,1.3-2.54,3.4-2.63,2.01.04,3.2.88,3.59,2.5l-1.41.38c-.26-1.11-.96-1.67-2.11-1.67Z"/>
        <path class="cls-2" d="M235.17,363.96v6.09h-1.34v-5.77c.04-1.79-.6-2.67-1.92-2.63-1.45.13-2.24,1.03-2.37,2.69v5.7h-1.35v-5.77c.04-1.79-.58-2.67-1.86-2.63-1.45.13-2.26.98-2.43,2.56v5.83h-1.35v-9.29h1.35v1.41c.68-1.11,1.54-1.67,2.56-1.67,1.58,0,2.54.66,2.88,1.99.68-1.32,1.6-1.99,2.75-1.99,2.09-.04,3.12,1.11,3.08,3.46Z"/>
        <path class="cls-2" d="M243.78,369.98v-.83c.81-1.71,2.16-3.25,4.04-4.61,1.92-1.41,2.86-2.69,2.82-3.84-.04-1.54-.92-2.33-2.63-2.37-1.32.09-2.22.92-2.69,2.5l-1.28-.64c.73-2.09,2.13-3.12,4.23-3.08,2.39.09,3.67,1.22,3.84,3.4.13,1.67-.94,3.27-3.2,4.81-1.75,1.28-2.91,2.48-3.46,3.59h6.73v1.09h-8.39Z"/>
        <path class="cls-2" d="M259.24,370.3c-2.86-.04-4.29-2.22-4.29-6.54.04-4.31,1.45-6.53,4.23-6.66,2.78.09,4.19,2.31,4.23,6.66-.04,4.27-1.43,6.45-4.16,6.54ZM259.11,358.25c-1.75.13-2.65,1.97-2.69,5.51,0,3.67.92,5.49,2.75,5.45,1.84.04,2.75-1.77,2.75-5.45s-.94-5.55-2.82-5.51Z"/>
        <path class="cls-2" d="M265.98,369.98v-.83c.81-1.71,2.16-3.25,4.04-4.61,1.92-1.41,2.86-2.69,2.82-3.84-.04-1.54-.92-2.33-2.63-2.37-1.32.09-2.22.92-2.69,2.5l-1.28-.64c.73-2.09,2.13-3.12,4.23-3.08,2.39.09,3.67,1.22,3.84,3.4.13,1.67-.94,3.27-3.2,4.81-1.75,1.28-2.91,2.48-3.46,3.59h6.73v1.09h-8.39Z"/>
        <path class="cls-2" d="M285.59,366.97h-1.79v3.14h-1.28v-3.14h-5.89v-.77l6.15-9.1h1.02v8.71h1.79v1.15ZM278.16,365.82h4.36v-6.6s-.04.13-.13.26c-.04.13-.09.24-.13.32-.68.9-2.05,2.91-4.1,6.02Z"/>
        <path class="cls-2" d="M304.01,357.29v1.22h-4.36v11.6h-1.47v-11.6h-4.36v-1.22h10.19Z"/>
        <path class="cls-2" d="M307.86,363.64l-1.35-.38c.47-1.92,1.86-2.84,4.17-2.76,2.52-.04,3.74,1.15,3.65,3.59v3.78c-.04,1.03.13,1.75.51,2.18h-1.35c-.3-.34-.45-.77-.45-1.28-.77,1.02-1.99,1.54-3.65,1.54-1.96-.09-3.01-.9-3.14-2.43.04-1.79,1.17-2.8,3.4-3.01,1.79-.17,2.88-.41,3.27-.71.13-1.71-.64-2.52-2.31-2.43-1.62-.08-2.54.56-2.75,1.92ZM312.93,366.46v-1.22c-.17.34-1.09.58-2.75.71-1.71.21-2.54.81-2.5,1.79.04.94.75,1.41,2.11,1.41,1.92-.13,2.97-1.02,3.14-2.69Z"/>
        <path class="cls-2" d="M318,357.29h1.34v1.73h-1.34v-1.73ZM318,360.75h1.34v9.35h-1.34v-9.35Z"/>
        <path class="cls-2" d="M331.53,370.04h-1.47l-1.73-7.05c0-.17-.04-.51-.13-1.03,0,.09-.02.26-.06.51-.04.26-.09.43-.13.51l-1.79,7.05h-1.54l-2.88-9.29h1.41l2.05,7.43c.04.13.08.3.13.51.04.13.06.21.06.26h.06c0-.21.02-.41.06-.58.04-.08.06-.15.06-.19l1.86-7.43h1.41l1.79,7.43c.04.09.06.21.06.38.04.17.06.3.06.38h.06c0-.17.04-.43.13-.77l2.11-7.43h1.47l-3.08,9.29Z"/>
        <path class="cls-2" d="M338.14,363.64l-1.35-.38c.47-1.92,1.86-2.84,4.17-2.76,2.52-.04,3.74,1.15,3.65,3.59v3.78c-.04,1.03.13,1.75.51,2.18h-1.35c-.3-.34-.45-.77-.45-1.28-.77,1.02-1.99,1.54-3.65,1.54-1.96-.09-3.01-.9-3.14-2.43.04-1.79,1.17-2.8,3.4-3.01,1.79-.17,2.88-.41,3.27-.71.13-1.71-.64-2.52-2.31-2.43-1.62-.08-2.54.56-2.75,1.92ZM343.2,366.46v-1.22c-.17.34-1.09.58-2.75.71-1.71.21-2.54.81-2.5,1.79.04.94.75,1.41,2.11,1.41,1.92-.13,2.97-1.02,3.14-2.69Z"/>
        <path class="cls-2" d="M355.84,364.08v5.96h-1.35v-5.77c-.04-1.71-.77-2.58-2.18-2.63-1.67.21-2.58,1.11-2.75,2.69v5.7l-1.35.06v-9.35h1.35v1.41c.73-1.07,1.75-1.62,3.08-1.67,2.13,0,3.2,1.2,3.2,3.59Z"/>
        <path class="cls-2" d="M360.08,373.12l-.58-.51c.77-.56,1.17-1.41,1.22-2.56h-1.03v-1.86h1.99v1.6c0,1.45-.53,2.56-1.6,3.33Z"/>
        <path class="cls-2" d="M12.69,387.1h-1.99l-4.42-5.77h-3.4v5.77h-1.47v-12.81h5.96c2.73.13,4.19,1.28,4.36,3.46,0,2.22-1.28,3.42-3.84,3.59l4.8,5.77ZM2.88,375.56v4.49h4.17c2.09-.04,3.14-.83,3.14-2.37-.04-1.37-1.09-2.07-3.14-2.11H2.88Z"/>
        <path class="cls-2" d="M21.93,384.15l1.41.38c-.51,1.88-1.88,2.8-4.1,2.75-2.86-.13-4.34-1.71-4.42-4.74.13-3.2,1.58-4.87,4.36-5,2.73.09,4.14,1.75,4.23,5v.32h-7.11c.08,2.09,1.05,3.2,2.88,3.33,1.45,0,2.37-.68,2.75-2.05ZM16.35,381.72h5.57c-.09-1.88-1-2.86-2.75-2.95-1.75.17-2.69,1.15-2.82,2.95Z"/>
        <path class="cls-2" d="M27.83,390.3h-1.35v-12.56h1.35v1.41c.73-1.07,1.64-1.6,2.75-1.6,2.52.13,3.84,1.79,3.97,5-.04,3.03-1.26,4.59-3.65,4.68-1.5.04-2.52-.47-3.08-1.54v4.61ZM27.83,381.52v1.47c.04,2.14.94,3.23,2.69,3.27,1.75-.04,2.65-1.28,2.69-3.72-.04-2.48-1-3.76-2.88-3.84-1.54.17-2.37,1.11-2.5,2.82Z"/>
        <path class="cls-2" d="M43.8,377.74h1.34v9.29h-1.34v-1.28c-.68.98-1.71,1.49-3.08,1.54-2.18.04-3.25-1.11-3.2-3.46v-6.09h1.35v5.96c.04,1.67.77,2.52,2.18,2.56,1.67-.17,2.58-1.05,2.75-2.63v-5.89Z"/>
        <path class="cls-2" d="M50.09,387.03h-1.41v-12.75h1.41v4.87c.68-1.02,1.58-1.56,2.69-1.6,2.52.13,3.84,1.79,3.97,5-.04,3.03-1.24,4.59-3.59,4.68-1.58.04-2.61-.47-3.08-1.54v1.35ZM50.09,381.52v1.47c.04,2.14.92,3.23,2.63,3.27,1.75-.04,2.65-1.28,2.69-3.72-.04-2.52-1-3.8-2.88-3.84-1.5.13-2.31,1.07-2.43,2.82Z"/>
        <path class="cls-2" d="M59.78,374.28h1.35v12.75h-1.35v-12.75Z"/>
        <path class="cls-2" d="M64.79,374.28h1.34v1.73h-1.34v-1.73ZM64.79,377.74h1.34v9.35h-1.34v-9.35Z"/>
        <path class="cls-2" d="M73.45,378.7c-1.84,0-2.75,1.26-2.75,3.78s.92,3.72,2.75,3.72c1.49,0,2.31-.81,2.43-2.43l1.41.32c-.34,2.22-1.64,3.29-3.91,3.2-2.73-.09-4.12-1.69-4.16-4.8.08-3.16,1.45-4.81,4.1-4.93,2.05.04,3.33.96,3.84,2.75l-1.35.45c-.38-1.28-1.17-1.96-2.37-2.05Z"/>
        <path class="cls-2" d="M89.49,387.29c-2.78-.17-4.23-1.73-4.36-4.68.09-3.29,1.58-4.98,4.49-5.06,2.69.13,4.1,1.75,4.23,4.87-.04,3.2-1.5,4.83-4.36,4.87ZM89.55,378.64c-1.96.04-2.97,1.35-3.01,3.91.04,2.39,1.05,3.63,3.01,3.72,1.84-.09,2.78-1.35,2.82-3.78-.13-2.39-1.07-3.67-2.82-3.84Z"/>
        <path class="cls-2" d="M98.67,376.53l-.06,1.22h1.92v1.15h-1.92v8.14h-1.35v-8.14h-1.47v-1.15h1.47v-1.15c-.04-1.71.68-2.54,2.18-2.5.64,0,1.26.11,1.86.32l-.26,1.03c-.38-.13-.79-.19-1.22-.19-.81-.04-1.2.38-1.15,1.28Z"/>
        <path class="cls-2" d="M118.43,382.68l1.67.38c-.81,2.78-2.67,4.19-5.57,4.23-3.67-.21-5.62-2.33-5.83-6.34.17-4.36,2.16-6.64,5.96-6.86,2.43.09,4.16,1.33,5.19,3.72l-1.6.38c-.77-1.84-2.01-2.78-3.72-2.82-2.61.26-4.04,2.07-4.29,5.45.17,3.29,1.58,5.06,4.23,5.32,2.09-.08,3.42-1.24,3.97-3.46Z"/>
        <path class="cls-2" d="M130.8,381.07v5.96h-1.41v-5.77c0-1.75-.71-2.63-2.11-2.63-1.67.21-2.56,1.11-2.69,2.69v5.77h-1.41v-12.81h1.41v4.87c.73-1.07,1.73-1.62,3.01-1.67,2.18-.04,3.25,1.15,3.2,3.59Z"/>
        <path class="cls-2" d="M134.34,374.28h1.34v1.73h-1.34v-1.73ZM134.34,377.74h1.34v9.35h-1.34v-9.35Z"/>
        <path class="cls-2" d="M146.85,381.07v5.96h-1.35v-5.77c-.04-1.71-.77-2.58-2.18-2.63-1.67.21-2.58,1.11-2.75,2.69v5.7l-1.35.06v-9.35h1.35v1.41c.73-1.07,1.75-1.62,3.08-1.67,2.13,0,3.2,1.2,3.2,3.59Z"/>
        <path class="cls-2" d="M151.6,380.63l-1.35-.38c.47-1.92,1.86-2.84,4.17-2.76,2.52-.04,3.74,1.15,3.65,3.59v3.78c-.04,1.03.13,1.75.51,2.18h-1.35c-.3-.34-.45-.77-.45-1.28-.77,1.02-1.99,1.54-3.65,1.54-1.96-.09-3.01-.9-3.14-2.43.04-1.79,1.17-2.8,3.4-3.01,1.79-.17,2.88-.41,3.27-.71.13-1.71-.64-2.52-2.31-2.43-1.62-.08-2.54.56-2.75,1.92ZM156.66,383.44v-1.22c-.17.34-1.09.58-2.75.71-1.71.21-2.54.81-2.5,1.79.04.94.75,1.41,2.11,1.41,1.92-.13,2.97-1.02,3.14-2.69Z"/>
      </g>
      <g>
        <path class="cls-5" d="M184.72,96.07c.19-1.66.29-3.33.29-4.97v-42.91c0-3.31-.51-6.49-1.52-9.45-1.01-2.96-2.54-5.75-4.55-8.3l-.07-.09c-2.13-2.55-4.75-4.53-7.8-5.87-2.99-1.32-6.43-1.99-10.21-1.99h-1.55c-1.68.16-3.32.48-4.87.97-1.42.45-2.85,1-4.26,1.65l-.21.1-.2.12c-1.3.78-2.54,1.63-3.69,2.53-1.16.9-2.27,1.88-3.32,2.93l-.16.16-.14.18c-1.11,1.39-2.06,2.9-2.83,4.51-.79,1.65-1.34,3.31-1.63,4.92-.25,1.39-.45,2.87-.57,4.37-.11,1.36-.18,2.75-.19,4.15v44.82c0,.51.06,1.01.17,1.47.01,1.26.11,2.54.3,3.8.19,1.28.48,2.57.85,3.85.32,1.49.86,2.93,1.6,4.26.71,1.28,1.58,2.51,2.58,3.66.96,1.09,2,2.1,3.08,2.98,1.15.94,2.45,1.77,3.86,2.47,1.37.69,2.8,1.25,4.26,1.66,1.24.35,2.47.61,3.67.76.53.17,1.06.26,1.6.26h1.64c1.77,0,3.52-.17,5.21-.51,1.7-.34,3.39-.86,5-1.53,1.73-.72,3.34-1.67,4.79-2.83,1.38-1.1,2.64-2.36,3.75-3.74l.12-.15c1.05-1.44,1.95-2.92,2.68-4.38.82-1.63,1.38-3.43,1.68-5.33.24-1.46.45-2.98.63-4.5ZM176.88,91.1c0,1.32-.08,2.68-.24,4.03-.16,1.4-.36,2.79-.58,4.13v.04c-.17,1.08-.48,2.07-.92,2.95-.52,1.04-1.17,2.1-1.93,3.16-.72.89-1.54,1.7-2.43,2.41-.85.68-1.8,1.24-2.83,1.67-1.13.47-2.29.83-3.47,1.06-1.17.23-2.38.35-3.61.35h-.93l-.15-.08-.76-.08c-.9-.09-1.86-.28-2.83-.56-.97-.28-1.92-.65-2.85-1.11-.88-.44-1.67-.94-2.36-1.51-.74-.6-1.44-1.28-2.1-2.03-.62-.7-1.15-1.45-1.58-2.24-.37-.66-.63-1.37-.78-2.11l-.04-.19-.05-.18c-.29-.96-.51-1.94-.65-2.9-.14-.95-.21-1.91-.21-2.86,0-.51-.06-1-.17-1.47v-44.22c0-1.28.05-2.57.16-3.82.1-1.24.26-2.45.47-3.59.16-.91.49-1.87.96-2.86.47-.98,1.04-1.91,1.71-2.76.76-.75,1.57-1.45,2.41-2.1.84-.65,1.74-1.27,2.68-1.85,1.05-.47,2.11-.87,3.15-1.2.92-.29,1.9-.49,2.93-.59h1.03c2.64,0,4.97.44,6.92,1.3,1.9.84,3.47,2.02,4.81,3.6,1.42,1.81,2.5,3.78,3.2,5.84.72,2.11,1.08,4.4,1.08,6.82v42.91Z"/>
        <path class="cls-6" d="M257.06,164.03l-42.1,66.12h42.1v-66.12ZM248.93,222.02h-19.15l19.15-30.08v30.08Z"/>
        <path class="cls-1" d="M106.07,81.91v-11.89c-.27.36-.55.72-.84,1.07l-15.87,16.39-32.23,28.8h52.66c-.41-1.21-.75-2.45-1.04-3.7-.33-1.46-.64-2.94-.91-4.43h-29.41l16.56-14.8,11.08-11.43Z"/>
        <path class="cls-4" d="M280.07,222.02v-87.04h-25.64l-60.7,92.84v5.09h8.13v-2.67l56.97-87.13h13.11v87.04h13.5v13.67h-13.5v19.04h-14.88v-21.82h-67.89,0s-26.38.01-26.38.01l25.06-22.39c7.68-6.62,18.88-23.3,18.88-40.77,0,0-.01,0-.02,0-.14-6.12-1.29-11.82-3.41-16.96-2.29-5.52-5.75-10.49-10.29-14.79-4.51-4.38-9.57-7.72-15.05-9.92-5.48-2.2-11.55-3.32-18.04-3.32-.27,0-.54,0-.8,0v.05c-1.74-.11-3.46-.31-5.14-.61-2.63-.47-5.24-1.2-7.77-2.14l-.14-.05-.15-.04c-2.39-.7-4.65-1.73-6.73-3.07-2.2-1.41-4.32-3.08-6.32-4.98l-.06-.06c-2.26-2.05-4.12-4.22-5.53-6.44-1.37-2.14-2.35-4.46-2.94-6.9-.65-2.7-1.15-5.51-1.47-8.34-.33-2.83-.49-5.82-.49-8.88v-46.46s-.01,0-.02,0c-.14-6.12-1.29-11.82-3.41-16.96-2.29-5.52-5.75-10.49-10.29-14.79-4.51-4.38-9.57-7.72-15.05-9.92-5.48-2.2-11.55-3.32-18.04-3.32s-12.03,1.16-17.42,3.44c-5.38,2.28-10.34,5.73-14.74,10.25-4.38,4.5-7.72,9.47-9.92,14.77-2.22,5.32-3.34,11.09-3.34,17.14v8.68l31.15.47v-6.36c-.1-2.51.18-4.84.84-6.91.66-2.06,1.71-4.02,3.13-5.81,1.32-1.68,2.88-2.9,4.76-3.73,1.95-.86,4.28-1.3,6.92-1.3,2.09,0,4.01.36,5.69,1.06,1.72.73,3.22,1.74,4.59,3.11,1.34,1.34,2.31,2.83,2.97,4.56.68,1.78,1.03,3.76,1.03,5.9,0,2.43-.34,4.68-1,6.67-.66,1.98-1.66,3.84-2.99,5.54-1.54,1.97-3.17,3.89-4.86,5.68-1.67,1.77-3.43,3.43-5.24,4.92l-45.61,42.38v27.64h90.84v-3.21c-.3-.28-.59-.57-.88-.86-1.38-1.32-2.66-2.67-3.84-4.06H39.66v-15.97l42.74-39.72c2.05-1.69,4.03-3.56,5.9-5.55,1.86-1.98,3.66-4.09,5.35-6.26,1.89-2.43,3.33-5.11,4.28-7.96.94-2.83,1.42-5.94,1.42-9.25,0-3.13-.53-6.1-1.57-8.81-1.06-2.77-2.68-5.25-4.82-7.39-2.09-2.09-4.51-3.72-7.18-4.85-2.69-1.13-5.66-1.7-8.84-1.7-3.78,0-7.22.67-10.21,1.99-3.08,1.36-5.73,3.43-7.86,6.13-2.03,2.56-3.54,5.38-4.49,8.38-.74,2.34-1.16,4.85-1.24,7.49l-14.88-.22v-.67c0-4.97.91-9.69,2.72-14.01,1.81-4.35,4.59-8.46,8.25-12.23,3.64-3.74,7.7-6.58,12.08-8.43,4.38-1.85,9.17-2.79,14.25-2.79,5.44,0,10.49.92,15.01,2.74,4.5,1.81,8.69,4.58,12.44,8.23l.04.04c3.71,3.51,6.53,7.55,8.38,12.01,1.8,4.34,2.74,9.24,2.8,14.56h0v45.75c0,3.37.18,6.67.55,9.81.36,3.16.92,6.29,1.64,9.3.79,3.31,2.13,6.47,3.98,9.37,1.79,2.82,4.11,5.53,6.89,8.07,2.36,2.23,4.88,4.22,7.49,5.89,2.69,1.73,5.62,3.07,8.7,3.99,2.94,1.09,5.98,1.93,9.05,2.48,1.67.3,3.36.51,5.06.65l-.02.1c.27-.02.55-.03.83-.04.55.04,1.1.07,1.66.09v-.12c5.39.02,10.39.93,14.87,2.73,4.5,1.81,8.69,4.58,12.44,8.23l.04.04c3.71,3.51,6.53,7.55,8.38,12.01,1.8,4.34,2.74,9.24,2.8,14.56h0c0,13.33-9.11,28.37-14.91,32.87l-42.2,37.71h56s12.28,0,12.28,0h0s39.16-.01,39.16-.01v21.82h31.14v-19.04h13.5v-29.93h-13.5Z"/>
        <path class="cls-3" d="M193.73,262.86h-69.71v-15.96l42.74-39.72c2.05-1.69,4.03-3.56,5.9-5.55,1.86-1.98,3.66-4.09,5.35-6.26,1.89-2.43,3.33-5.11,4.28-7.96.94-2.83,1.42-5.94,1.42-9.25,0-3.13-.53-6.1-1.57-8.81-1.06-2.77-2.68-5.25-4.82-7.39-2.09-2.09-4.51-3.72-7.18-4.85-2.69-1.13-5.66-1.7-8.84-1.7-3.78,0-7.22.67-10.21,1.99-3.08,1.36-5.73,3.43-7.86,6.13-2.03,2.56-3.54,5.38-4.49,8.38-.74,2.34-1.16,4.85-1.24,7.49l-14.88-.22v-.67c0-4.97.91-9.69,2.72-14.01,1.81-4.35,4.59-8.46,8.25-12.23,2.69-2.77,5.62-5.04,8.74-6.79-3.78-1.14-7.23-2.82-9.04-3.77-1.93,1.46-3.77,3.09-5.53,4.9-4.38,4.5-7.72,9.47-9.92,14.77-2.22,5.32-3.34,11.09-3.34,17.14v8.68l31.15.47v-6.36c-.1-2.51.18-4.84.84-6.91.66-2.06,1.71-4.02,3.13-5.81,1.32-1.68,2.88-2.9,4.76-3.73,1.95-.86,4.28-1.3,6.92-1.3,2.09,0,4.01.36,5.69,1.06,1.72.73,3.22,1.74,4.59,3.11,1.34,1.34,2.31,2.83,2.97,4.56.68,1.78,1.03,3.76,1.03,5.9,0,2.43-.34,4.68-1,6.67-.66,1.98-1.66,3.84-2.99,5.54-1.54,1.97-3.17,3.89-4.86,5.68-1.67,1.77-3.43,3.43-5.24,4.92l-45.61,42.38v27.64h85.97v-15.17h-8.13v7.04Z"/>
        <path class="cls-7" d="M131.24,20.74c1.63-1.83,3.45-3.49,5.4-4.93,1.94-1.43,4.07-2.68,6.33-3.71,2.45-1.06,4.89-1.92,7.27-2.55,2.3-.61,4.72-1.03,7.17-1.25h.35c.41,0,.82-.06,1.24-.17h3.51c2.5.11,4.98.43,7.36.95,2.4.52,4.8,1.27,7.11,2.21l.05.02c2.39.94,4.63,2.07,6.64,3.36,2,1.28,3.9,2.82,5.64,4.56l.07.07c2.02,1.92,3.71,4.01,5.01,6.22,1.32,2.24,2.35,4.6,3.06,7.03l.03.1c.85,2.65,1.46,5.36,1.83,8.05.38,2.76.57,5.57.57,8.36v43.09c0,2.82-.16,5.56-.49,8.15-.32,2.57-.81,5.13-1.46,7.61-.6,2.31-1.5,4.56-2.66,6.69-1.17,2.14-2.65,4.21-4.4,6.17-1.65,1.85-3.47,3.52-5.43,4.97-1.64,1.21-3.46,2.29-5.42,3.22,2.59,1.1,5.62,2.55,8.7,4.41.53-.35,1.05-.71,1.55-1.08,2.41-1.78,4.66-3.84,6.67-6.1,2.16-2.41,4-5,5.47-7.68,1.48-2.71,2.63-5.58,3.4-8.54.74-2.83,1.29-5.74,1.66-8.65.36-2.92.55-6,.55-9.16v-45.88h-.06c-.09-2.23-.28-4.47-.59-6.67-.43-3.14-1.15-6.3-2.13-9.38-.9-3.06-2.19-6.03-3.85-8.84-1.68-2.84-3.82-5.51-6.37-7.94-2.14-2.14-4.48-4.03-6.96-5.62-2.46-1.57-5.16-2.94-8.04-4.07-2.74-1.12-5.58-2-8.43-2.62-2.86-.62-5.83-1-8.83-1.13h-5.47s-.36.18-.36.18h-.05c-2.99.25-5.93.76-8.75,1.51-2.78.74-5.62,1.74-8.45,2.97l-.06.03c-2.79,1.27-5.42,2.81-7.82,4.58-2.42,1.78-4.66,3.84-6.69,6.11l-.07.08c-.78.92-1.51,1.87-2.21,2.84,1.36,2.11,2.97,5,4.25,8.44,1.16-2.08,2.55-4.1,4.15-6Z"/>
      </g>
      <path class="cls-2" d="M66.75,294.33l1.02.51-5.86,38.48c.68.51,1.61,1.45,2.8,2.8,1.19,1.19,2.04,2.04,2.55,2.55-.34,1.7-1.02,3.65-2.04,5.86-1.87-2.72-4.59-7.65-8.16-14.78-.51-.85-.85-1.53-1.02-2.04l.25-.25c1.19,1.02,2.29,2.13,3.31,3.31l7.14-36.44ZM56.55,300.19c2.55,2.21,4.59,4.33,6.12,6.37-.51,1.53-1.19,3.06-2.04,4.59-1.53-3.23-2.97-6.88-4.33-10.96h.25ZM57.83,285.41c2.38,1.53,5.01,3.66,7.9,6.37-.34,1.36-1.02,2.97-2.04,4.84-1.53-2.21-3.57-5.86-6.12-10.96l.25-.25ZM70.82,308.6v3.06c.17,3.4-1.36,5.61-4.59,6.63v-1.53c1.53-.51,2.21-1.61,2.04-3.31v-4.84h2.55ZM80.76,282.86c.51.34,1.36,1.02,2.55,2.04,1.02.68,1.78,1.19,2.29,1.53.51-.34-.09.68-1.78,3.06h5.61v2.04h-11.72c-.17.68-.85,2.13-2.04,4.33-.51.85-.85,1.45-1.02,1.78.34.34.76.76,1.27,1.27.68.85,1.44,1.87,2.29,3.06h3.57v1.27h2.8v-1.27h3.57v14.78c1.02-1.02,1.53-2.29,1.53-3.82v-4.33h2.55v4.08c0,2.38-1.36,4.17-4.08,5.35v-1.02h-3.57v-3.06h-2.8v3.31h-3.57v-14.27c-.17,1.19-.68,2.47-1.53,3.82-.34-.68-.68-1.53-1.02-2.55-.17-.51-.34-.85-.51-1.02-2.21,2.04-4.5,3.57-6.88,4.59.68-2.21.51-3.82-.51-4.84h1.27c2.21-2.72,3.82-5.86,4.84-9.43-1.87,1.87-3.74,3.15-5.61,3.82.51-1.7.25-3.23-.76-4.59.51.17,1.02.25,1.53.25,1.36-2.72,1.95-5.94,1.78-9.68h4.08c-1.36,3.91-3.06,7.14-5.1,9.68,2.21,0,3.73-.34,4.59-1.02v-3.31h4.59c-.34,0-.51.25-.51.76h4.33c-.17-.68-.51-1.7-1.02-3.06-.34-1.7-.68-2.89-1.02-3.57ZM90.45,317.78h4.33v10.96h-4.33v-.76h-16.31v3.82h17.58v-1.53h4.59v8.66c.17,3.73-2.8,6.2-8.92,7.39-.51-.51-1.36-.76-2.55-.76l-3.57.51-.25-.76c7.3-1.02,10.87-2.97,10.7-5.86v-5.35h-17.58v2.04h-4.33v-12.23h4.33v2.04h16.31v-4.33h-22.43v-2.04h22.43v-1.78ZM74.14,298.41c-.51.85-1.36,1.96-2.55,3.31-.68.68-1.19,1.19-1.53,1.53,1.02.17,2.72-.08,5.1-.76-.17-.51-.34-1.19-.51-2.04-.17-.85-.34-1.53-.51-2.04ZM72.61,307.84c.68,2.04,1.27,4.5,1.78,7.39-.34.68-.94,1.45-1.78,2.29-.17-2.38-.25-5.61-.25-9.68h.25ZM75.16,307.33c.34.68.93,2.21,1.78,4.59.34,1.02.59,1.7.76,2.04-.17.51-.68,1.27-1.53,2.29-.17.34-.34.6-.51.76-.51-3.06-.76-6.28-.76-9.68h.25ZM77.45,298.15h11.21v2.04h-11.21v-2.04ZM88.66,295.86h-10.96v-2.04h10.96v2.04ZM84.59,305.29h-2.8v6.63h2.8v-6.63ZM91.47,283.37h4.08c-1.19,4.25-2.97,7.65-5.35,10.19,1.02,0,2.21-.25,3.57-.76.17-.17.34-.25.51-.25l.25-3.82h4.33c-.68,2.04-1.87,4.84-3.57,8.41,2.04,2.04,3.82,4.08,5.35,6.12-.51,1.7-1.11,3.23-1.78,4.59-.51-.68-1.11-1.78-1.78-3.31-.34-.68-.6-1.19-.76-1.53-1.87,2.04-4.17,3.57-6.88,4.59.51-1.53.25-2.97-.76-4.33h.76l.76.25c1.87-3.06,3.14-6.12,3.82-9.17-1.53,1.36-3.06,2.46-4.59,3.31.51-2.04.17-3.48-1.02-4.33h1.27c.85-2.04,1.44-5.35,1.78-9.94ZM94.78,297.9c-.17.34-.51.94-1.02,1.78-.51.85-1.36,2.13-2.55,3.82,2.04-.34,3.57-.93,4.59-1.78,0-.17-.09-.42-.25-.76-.34-1.02-.6-2.04-.76-3.06ZM93.5,307.33h.51c.17.68.34,1.62.51,2.8.51,1.87.85,3.4,1.02,4.59l-.25.51c-.51.85-1.11,1.45-1.78,1.78v-9.68ZM95.8,306.82h.26c.17.17.34.51.51,1.02,1.19,2.89,2.04,4.93,2.55,6.12-.34.68-1.02,1.53-2.04,2.55-.17-1.02-.34-2.55-.51-4.59-.34-2.38-.6-4.08-.76-5.1Z"/>
      <path class="cls-2" d="M138.5,340.33h-16.06v5.86h-4.59v-20.64c-.17.34-.51.76-1.02,1.27-.51.51-.85.94-1.02,1.27h-2.04c3.91-4.24,5.77-9.6,5.61-16.06h6.12c-.51,2.38-1.02,3.99-1.53,4.84h5.35c-1.36-2.38-2.21-4.24-2.55-5.61l.25-.25c1.53.51,3.31,1.45,5.35,2.8-.51,1.36-1.11,2.38-1.78,3.06h7.65v2.55h-6.63v4.33h5.35v2.55h-5.35v4.84h5.61v2.55h-5.61v4.08h6.88v2.55ZM128.3,282.73h4.08v4.84h6.37v2.55h-6.37v3.57h-4.08v-3.57h-3.06v3.57h-4.33v-3.57h-6.63v-2.55h6.63v-4.84h4.33v4.84h3.06v-4.84ZM121.42,294.71h4.08v15.8h-4.08v-2.55h-2.29v2.55h-4.08v-15.55h4.08v2.04h2.29v-2.29ZM121.42,299.04h-2.29v6.63h2.29v-6.63ZM122.44,319.43v4.33h4.84v-4.33h-4.84ZM122.44,326.31v4.84h4.84v-4.84h-4.84ZM127.28,333.7h-4.84v4.08h4.84v-4.08ZM133.91,294.71h4.08v15.55h-4.08v-2.29h-2.29v2.29h-3.82v-15.55h3.82v2.29h2.29v-2.29ZM133.91,299.04h-2.29v6.63h2.29v-6.63ZM150.73,283.24h4.59v39.76h-2.8v15.29c0,.85.34,1.27,1.02,1.27.51,0,.76-.43.76-1.27l1.02-11.47h.76v9.17h.76v6.37c0,1.7-1.02,2.55-3.06,2.55h-2.8c-1.87.17-2.72-.76-2.55-2.8v-19.37h2.29v-2.55h-5.61v2.55h1.27v3.57c1.02,7.65-2.8,14.35-11.47,20.13h-2.8c6.96-4.08,10.11-10.11,9.43-18.09v-5.1h-1.02v-39.76h4.59v2.04h5.61v-2.29ZM150.73,288.09h-5.61v8.16h4.08v2.55h-4.08v7.9h4.08v2.55h-4.08v8.41h5.61v-29.56Z"/>
      <path class="cls-2" d="M183.61,309.49h-12.23v-2.55h18.09v-23.45h5.1v23.45h1.78l10.7-20.39,2.55,1.53-10.7,18.86h15.29v2.55h-14.78v29.56c0,.68.42,1.02,1.27,1.02h6.63c1.36-.17,2.12-.76,2.29-1.78l2.55-11.98h.76l-.76,10.19h2.04v3.31c0,3.57-1.53,5.35-4.59,5.35h-10.19c-3.4,0-5.1-1.62-5.1-4.84v-30.84h-5.61v8.66c.34,9.52-5.27,18.69-16.82,27.52h-1.53c8.66-7.65,13.08-16.65,13.25-27.01v-9.17ZM185.91,297.01c-.68,1.87-1.87,3.99-3.57,6.37-2.55-4.08-4.84-9.34-6.88-15.8l.25-.25c4.42,3.23,7.81,6.46,10.19,9.68Z"/>
      <path class="cls-2" d="M238.03,292.42c-2.38,3.91-5.1,7.65-8.16,11.21h-2.04c4.75-5.61,7.3-12.4,7.65-20.39h6.63c-.68,2.21-1.53,4.33-2.55,6.37h29.56v2.8h-14.27v13.25h11.21v2.8h-11.21v16.06h16.31v3.06h-16.31v18.35h-5.61v-18.35h-21.92v-3.06h7.65v-21.92h5.61v3.06h8.66v-13.25h-11.21ZM249.25,308.47h-8.66v16.06h8.66v-16.06Z"/>
      <path class="cls-2" d="M293.22,283.5h5.1v7.9h6.12v2.8h-6.12v7.65h6.63v2.8h-19.62v-2.8h7.9v-7.65h-7.14v-2.8h7.14v-7.9ZM300.1,304.91l2.8,1.02-3.82,10.45h5.35v2.55h-6.12v7.9h6.63v2.8h-6.63v16.06h-5.1v-16.06h-7.65v-2.8h7.65v-7.65h-7.39v-2.8h4.84c-.85-3.06-1.62-6.71-2.29-10.96l.25-.25c1.19,1.19,3.14,3.66,5.86,7.39-.51,1.02-1.45,2.29-2.8,3.82h4.84l3.57-11.47ZM305.71,284.26h5.1v2.8h7.65v-2.8h5.35v13c.68,2.55-1.87,5.18-7.65,7.9-.34-.51-.85-.68-1.53-.51l-2.8.76-.25-.76c4.75-1.53,7.05-3.48,6.88-5.86v-8.92h-7.65v21.15h9.17v-3.06h5.61c-.17,11.05-1.7,19.28-4.59,24.72,1.36,1.53,3.4,2.89,6.12,4.08-1.87,1.36-2.29,4.24-1.27,8.66-3.57-2.72-6.12-5.44-7.65-8.16-.34.34-.85.93-1.53,1.78-2.55,3.23-4.25,5.35-5.1,6.37h-1.02v.25h-4.84v-61.42ZM312.84,313.83h-2.04v30.33c2.55-3.4,4.42-6.71,5.61-9.94-2.21-5.1-3.4-11.89-3.57-20.39ZM319.72,313.83h-5.86c.51,5.44,1.95,10.7,4.33,15.8,1.19-6.12,1.7-11.38,1.53-15.8Z"/>
      <g>
        <path class="cls-2" d="M26.95,290.75h.93c5.88,4.78,10.84,9.74,14.87,14.88-1.86,2.57-4.18,4.68-6.97,6.34-1.24-2.38-2.64-4.96-4.18-7.71-7.43,4.41-17.66,7.35-30.66,8.82,1.23-2.02.93-4.04-.93-6.06h3.72c7.43-4.22,10.84-12.12,10.22-23.69h8.36c.93,10.84-3.88,18.73-14.4,23.69,8.36-.18,16.1-1.56,23.23-4.13-1.55-3.67-2.95-7.71-4.18-12.12Z"/>
        <path class="cls-2" d="M33.11,316.31v1.53H9.64v-1.53H3.62v29.56h6.02v-4.59h23.47v4.59h6.02v-29.56h-6.02ZM33.11,338.99H9.64v-18.6h23.47v18.6Z"/>
      </g>
    </g>
  </g>
</svg>