<?xml version="1.0" encoding="UTF-8"?>
<svg id="_圖層_2" data-name="圖層 2" xmlns="http://www.w3.org/2000/svg" xmlns:xlink="http://www.w3.org/1999/xlink" viewBox="0 0 290.55 272.37">
  <defs>
    <style>
      .cls-1 {
        fill: url(#_未命名漸層_41-3);
      }

      .cls-2 {
        fill: #fff;
      }

      .cls-3 {
        fill: url(#_未命名漸層_41-5);
      }

      .cls-4 {
        fill: url(#_未命名漸層_41-4);
      }

      .cls-5 {
        fill: url(#_未命名漸層_41);
      }

      .cls-6 {
        fill: url(#_未命名漸層_41-2);
      }

      .cls-7 {
        fill: url(#_未命名漸層_41-6);
      }
    </style>
    <linearGradient id="_未命名漸層_41" data-name="未命名漸層 41" x1="134.89" y1="-44.26" x2="214.15" y2="349.1" gradientUnits="userSpaceOnUse">
      <stop offset="0" stop-color="#569535"/>
      <stop offset=".71" stop-color="#f3961a"/>
      <stop offset=".99" stop-color="#f7c478"/>
    </linearGradient>
    <linearGradient id="_未命名漸層_41-2" data-name="未命名漸層 41" x1="182.43" y1="-53.84" x2="261.69" y2="339.52" xlink:href="#_未命名漸層_41"/>
    <linearGradient id="_未命名漸層_41-3" data-name="未命名漸層 41" x1="54.17" y1="-27.99" x2="133.44" y2="365.36" xlink:href="#_未命名漸層_41"/>
    <linearGradient id="_未命名漸層_41-4" data-name="未命名漸層 41" x1="117.07" y1="-40.67" x2="196.34" y2="352.69" xlink:href="#_未命名漸層_41"/>
    <linearGradient id="_未命名漸層_41-5" data-name="未命名漸層 41" x1="95.46" y1="-36.31" x2="174.73" y2="357.04" xlink:href="#_未命名漸層_41"/>
    <linearGradient id="_未命名漸層_41-6" data-name="未命名漸層 41" x1="146.91" y1="-46.68" x2="226.18" y2="346.68" xlink:href="#_未命名漸層_41"/>
  </defs>
  <g id="_視覺" data-name="視覺">
    <g>
      <g>
        <path class="cls-2" d="M4.22,263.16v-1.99h1.71v1.99h4.22v6.36h-1.71v-.81h-2.52v3.56h-1.71v-3.56H1.66v.81H0v-6.36h4.22ZM1.66,264.73v2.42h2.56v-2.42H1.66ZM8.45,267.15v-2.42h-2.52v2.42h2.52Z"/>
        <path class="cls-2" d="M14.25,270.99v-1.23h4.65v-.71h-4.03v-1.19h1.23v-.76h-1.85v-1.28h1.85v-.81h-1.14v-1.19h9.4v1.19h-1.14v.81h1.9v1.28h-1.9v.76h1.28v1.19h-4.08v.71h4.65v1.23h-4.65v1.14h-1.52v-1.14h-4.65ZM20.94,261.21h1.47v.76h2.47v1.23h-2.47v.47h-1.47v-.47h-2.56v.47h-1.47v-.47h-2.47v-1.23h2.47v-.76h1.47v.76h2.56v-.76ZM17.52,265.01v.81h1.38v-.81h-1.38ZM17.52,267.1v.76h1.38v-.76h-1.38ZM20.42,265.01v.81h1.38v-.81h-1.38ZM20.42,267.1v.76h1.38v-.76h-1.38Z"/>
        <path class="cls-2" d="M31.25,268.33v1.9c.28-.09.73-.25,1.33-.47.54-.19.96-.33,1.28-.43-.03.41-.05.97-.05,1.66-.85.22-1.65.47-2.37.76-.54.22-.98.43-1.33.62l-.9-1.33c.29-.29.43-.71.43-1.28v-8.12h9.44v3.99h-3.32c.03.47.09.9.19,1.28h3.75v1.42h-3.46c.19.7.41,1.23.66,1.61.25.35.49.52.71.52s.4-.13.52-.38c.1-.32.17-.76.24-1.33.19.13.49.29.9.47.28.16.49.27.62.33-.1.57-.27,1.12-.52,1.66-.35.66-.85,1-1.52,1s-1.23-.24-1.71-.71c-.66-.63-1.19-1.69-1.57-3.18h-3.32ZM37.46,263.02h-6.22v1.19h6.22v-1.19ZM31.25,265.63v1.28h3.04c-.06-.22-.13-.62-.19-1.19v-.1h-2.85Z"/>
        <path class="cls-2" d="M45.16,272.23h-1.47v-10.58h10.2v10.54h-1.42v-.43h-7.31v.47ZM45.45,264.87v-1.14h3.56v-.9h-3.84v7.78h3.89c-.13-.13-.35-.3-.66-.52-.09-.1-.17-.16-.24-.19.03,0,.05-.02.05-.05-.41.06-1,.14-1.76.24-.35.03-.6.06-.76.09l-.33-1.09c.16-.03.41-.06.76-.09.51-.03,1.38-.11,2.61-.24v.62c.29-.29.55-.6.81-.95-.28-.85-.44-2.04-.47-3.56h-3.61ZM45.63,268.33v-3.04h2.9v3.04h-2.9ZM47.49,267.34v-1.04h-.81v1.04h.81ZM51.57,263.73h.62v1.14h-1.9c0,.38.03.89.09,1.52.03.22.05.38.05.47.28-.54.54-1.12.76-1.76l.9.29c-.38,1.14-.81,2.13-1.28,2.99.09.19.19.35.28.47.09.09.17.13.24.09.03-.03.08-.13.14-.28.03-.19.06-.43.09-.71.03-.19.05-.32.05-.38.09,0,.22.03.38.09.16.03.27.06.33.09-.06.85-.13,1.42-.19,1.71-.13.73-.41,1.11-.85,1.14-.41-.06-.84-.4-1.28-1-.25.38-.52.71-.81,1h3.27v-7.78h-.9c.06.06.14.17.24.33.13.13.22.22.29.29l-.52.29ZM50.52,263.11l.47-.29h-.76v.9h.76c-.09-.13-.25-.33-.47-.62Z"/>
        <path class="cls-2" d="M61.12,261.59h1.19v10.01h-1.57v-7.21c-.6.44-1.44.89-2.52,1.33v-1.52c1.58-.67,2.55-1.53,2.9-2.61Z"/>
        <path class="cls-2" d="M70.95,261.59h1.19v10.01h-1.57v-7.21c-.6.44-1.44.89-2.52,1.33v-1.52c1.58-.67,2.55-1.53,2.9-2.61Z"/>
        <path class="cls-2" d="M77.46,269.09l1.61-.38c.13,1.11.71,1.68,1.76,1.71,1.3.03,1.93-.55,1.9-1.76-.09-.95-.73-1.44-1.9-1.47h-1.19v-1.38h.81c1.2,0,1.83-.51,1.9-1.52-.03-.82-.51-1.25-1.42-1.28-.92.06-1.47.59-1.66,1.57l-1.61-.38c.44-1.71,1.52-2.58,3.23-2.61,2.02.03,3.07.95,3.13,2.75,0,.95-.52,1.63-1.57,2.04,1.26.51,1.91,1.3,1.95,2.37-.13,1.9-1.28,2.89-3.46,2.99-1.96-.03-3.12-.92-3.46-2.66Z"/>
        <path class="cls-2" d="M94.98,265.3h3.18v1.42h-3.18v1.76h3.94v1.42h-3.94v2.33h-1.71v-2.33h-5.32v-1.42h1.57v-2.75l-.43.43c-.09.09-.16.16-.19.19-.13-.19-.33-.47-.62-.85-.19-.25-.33-.44-.43-.57,1.14-.95,2.02-2.21,2.66-3.8l1.76.28c-.03.1-.09.25-.19.47-.09.19-.17.35-.24.47h6.74v1.42h-3.61v1.52ZM89.9,265.3h3.37v-1.52h-2.23c-.32.54-.7,1.04-1.14,1.52ZM91.14,266.72v1.76h2.14v-1.76h-2.14Z"/>
      </g>
      <g>
        <path class="cls-5" d="M181.71,96.07c.19-1.66.29-3.33.29-4.97v-42.91c0-3.31-.51-6.49-1.52-9.45-1.01-2.96-2.54-5.75-4.55-8.3l-.07-.09c-2.13-2.55-4.75-4.53-7.8-5.87-2.99-1.32-6.43-1.99-10.21-1.99h-1.55c-1.68.16-3.32.48-4.87.97-1.42.45-2.85,1-4.26,1.65l-.21.1-.2.12c-1.3.78-2.54,1.63-3.69,2.53-1.16.9-2.27,1.88-3.32,2.93l-.16.16-.14.18c-1.11,1.39-2.06,2.9-2.83,4.51-.79,1.65-1.34,3.31-1.63,4.92-.25,1.39-.45,2.87-.57,4.37-.11,1.36-.18,2.75-.19,4.15v44.82c0,.51.06,1.01.17,1.47.01,1.26.11,2.54.3,3.8.19,1.28.48,2.57.85,3.85.32,1.49.86,2.93,1.6,4.26.71,1.28,1.58,2.51,2.58,3.66.96,1.09,2,2.1,3.08,2.98,1.15.94,2.45,1.77,3.86,2.47,1.37.69,2.8,1.25,4.26,1.66,1.24.35,2.47.61,3.67.76.53.17,1.06.26,1.6.26h1.64c1.77,0,3.52-.17,5.21-.51,1.7-.34,3.39-.86,5-1.53,1.73-.72,3.34-1.67,4.79-2.83,1.38-1.1,2.64-2.36,3.75-3.74l.12-.15c1.05-1.44,1.95-2.92,2.68-4.38.82-1.63,1.38-3.43,1.68-5.33.24-1.46.45-2.98.63-4.5ZM173.87,91.1c0,1.32-.08,2.68-.24,4.03-.16,1.4-.36,2.79-.58,4.13v.04c-.17,1.08-.48,2.07-.92,2.95-.52,1.04-1.17,2.1-1.93,3.16-.72.89-1.54,1.7-2.43,2.41-.85.68-1.8,1.24-2.83,1.67-1.13.47-2.29.83-3.47,1.06-1.17.23-2.38.35-3.61.35h-.93l-.15-.08-.76-.08c-.9-.09-1.86-.28-2.83-.56-.97-.28-1.92-.65-2.85-1.11-.88-.44-1.67-.94-2.36-1.51-.74-.6-1.44-1.28-2.1-2.03-.62-.7-1.15-1.45-1.58-2.24-.37-.66-.63-1.37-.78-2.11l-.04-.19-.05-.18c-.29-.96-.51-1.94-.65-2.9-.14-.95-.21-1.91-.21-2.86,0-.51-.06-1-.17-1.47v-44.22c0-1.28.05-2.57.16-3.82.1-1.24.26-2.45.47-3.59.16-.91.49-1.87.96-2.86.47-.98,1.04-1.91,1.71-2.76.76-.75,1.57-1.45,2.41-2.1.84-.65,1.74-1.27,2.68-1.85,1.05-.47,2.11-.87,3.15-1.2.92-.29,1.9-.49,2.93-.59h1.03c2.64,0,4.97.44,6.92,1.3,1.9.84,3.47,2.02,4.81,3.6,1.42,1.81,2.5,3.78,3.2,5.84.72,2.11,1.08,4.4,1.08,6.82v42.91Z"/>
        <path class="cls-6" d="M254.04,164.03l-42.1,66.12h42.1v-66.12ZM245.91,222.02h-19.15l19.15-30.08v30.08Z"/>
        <path class="cls-1" d="M103.05,81.91v-11.89c-.27.36-.55.72-.84,1.07l-15.87,16.39-32.23,28.8h52.66c-.41-1.21-.75-2.45-1.04-3.7-.33-1.46-.64-2.94-.91-4.43h-29.41l16.56-14.8,11.08-11.43Z"/>
        <path class="cls-4" d="M277.06,222.02v-87.04h-25.64l-60.7,92.84v5.09h8.13v-2.67l56.97-87.13h13.11v87.04h13.5v13.67h-13.5v19.04h-14.88v-21.82h-67.89,0s-26.38.01-26.38.01l25.06-22.39c7.68-6.62,18.88-23.3,18.88-40.77,0,0-.01,0-.02,0-.14-6.12-1.29-11.82-3.41-16.96-2.29-5.52-5.75-10.49-10.29-14.79-4.51-4.38-9.57-7.72-15.05-9.92-5.48-2.2-11.55-3.32-18.04-3.32-.27,0-.54,0-.8,0v.05c-1.74-.11-3.46-.31-5.14-.61-2.63-.47-5.24-1.2-7.77-2.14l-.14-.05-.15-.04c-2.39-.7-4.65-1.73-6.73-3.07-2.2-1.41-4.32-3.08-6.32-4.98l-.06-.06c-2.26-2.05-4.12-4.22-5.53-6.44-1.37-2.14-2.35-4.46-2.94-6.9-.65-2.7-1.15-5.51-1.47-8.34-.33-2.83-.49-5.82-.49-8.88v-46.46s-.01,0-.02,0c-.14-6.12-1.29-11.82-3.41-16.96-2.29-5.52-5.75-10.49-10.29-14.79-4.51-4.38-9.57-7.72-15.05-9.92-5.48-2.2-11.55-3.32-18.04-3.32s-12.03,1.16-17.42,3.44c-5.38,2.28-10.34,5.73-14.74,10.25-4.38,4.5-7.72,9.47-9.92,14.77-2.22,5.32-3.34,11.09-3.34,17.14v8.68l31.15.47v-6.36c-.1-2.51.18-4.84.84-6.91.66-2.06,1.71-4.02,3.13-5.81,1.32-1.68,2.88-2.9,4.76-3.73,1.95-.86,4.28-1.3,6.92-1.3,2.09,0,4.01.36,5.69,1.06,1.72.73,3.22,1.74,4.59,3.11,1.34,1.34,2.31,2.83,2.97,4.56.68,1.78,1.03,3.76,1.03,5.9,0,2.43-.34,4.68-1,6.67-.66,1.98-1.66,3.84-2.99,5.54-1.54,1.97-3.17,3.89-4.86,5.68-1.67,1.77-3.43,3.43-5.24,4.92l-45.61,42.38v27.64h90.84v-3.21c-.3-.28-.59-.57-.88-.86-1.38-1.32-2.66-2.67-3.84-4.06H36.64v-15.97l42.74-39.72c2.05-1.69,4.03-3.56,5.9-5.55,1.86-1.98,3.66-4.09,5.35-6.26,1.89-2.43,3.33-5.11,4.28-7.96.94-2.83,1.42-5.94,1.42-9.25,0-3.13-.53-6.1-1.57-8.81-1.06-2.77-2.68-5.25-4.82-7.39-2.09-2.09-4.51-3.72-7.18-4.85-2.69-1.13-5.66-1.7-8.84-1.7-3.78,0-7.22.67-10.21,1.99-3.08,1.36-5.73,3.43-7.86,6.13-2.03,2.56-3.54,5.38-4.49,8.38-.74,2.34-1.16,4.85-1.24,7.49l-14.88-.22v-.67c0-4.97.91-9.69,2.72-14.01,1.81-4.35,4.59-8.46,8.25-12.23,3.64-3.74,7.7-6.58,12.08-8.43,4.38-1.85,9.17-2.79,14.25-2.79,5.44,0,10.49.92,15.01,2.74,4.5,1.81,8.69,4.58,12.44,8.23l.04.04c3.71,3.51,6.53,7.55,8.38,12.01,1.8,4.34,2.74,9.24,2.8,14.56h0v45.75c0,3.37.18,6.67.55,9.81.36,3.16.92,6.29,1.64,9.3.79,3.31,2.13,6.47,3.98,9.37,1.79,2.82,4.11,5.53,6.89,8.07,2.36,2.23,4.88,4.22,7.49,5.89,2.69,1.73,5.62,3.07,8.7,3.99,2.94,1.09,5.98,1.93,9.05,2.48,1.67.3,3.36.51,5.06.65l-.02.1c.27-.02.55-.03.83-.04.55.04,1.1.07,1.66.09v-.12c5.39.02,10.39.93,14.87,2.73,4.5,1.81,8.69,4.58,12.44,8.23l.04.04c3.71,3.51,6.53,7.55,8.38,12.01,1.8,4.34,2.74,9.24,2.8,14.56h0c0,13.33-9.11,28.37-14.91,32.87l-42.2,37.71h56s12.28,0,12.28,0h0s39.16-.01,39.16-.01v21.82h31.14v-19.04h13.5v-29.93h-13.5Z"/>
        <path class="cls-3" d="M190.71,262.86h-69.71v-15.96l42.74-39.72c2.05-1.69,4.03-3.56,5.9-5.55,1.86-1.98,3.66-4.09,5.35-6.26,1.89-2.43,3.33-5.11,4.28-7.96.94-2.83,1.42-5.94,1.42-9.25,0-3.13-.53-6.1-1.57-8.81-1.06-2.77-2.68-5.25-4.82-7.39-2.09-2.09-4.51-3.72-7.18-4.85-2.69-1.13-5.66-1.7-8.84-1.7-3.78,0-7.22.67-10.21,1.99-3.08,1.36-5.73,3.43-7.86,6.13-2.03,2.56-3.54,5.38-4.49,8.38-.74,2.34-1.16,4.85-1.24,7.49l-14.88-.22v-.67c0-4.97.91-9.69,2.72-14.01,1.81-4.35,4.59-8.46,8.25-12.23,2.69-2.77,5.62-5.04,8.74-6.79-3.78-1.14-7.23-2.82-9.04-3.77-1.93,1.46-3.77,3.09-5.53,4.9-4.38,4.5-7.72,9.47-9.92,14.77-2.22,5.32-3.34,11.09-3.34,17.14v8.68l31.15.47v-6.36c-.1-2.51.18-4.84.84-6.91.66-2.06,1.71-4.02,3.13-5.81,1.32-1.68,2.88-2.9,4.76-3.73,1.95-.86,4.28-1.3,6.92-1.3,2.09,0,4.01.36,5.69,1.06,1.72.73,3.22,1.74,4.59,3.11,1.34,1.34,2.31,2.83,2.97,4.56.68,1.78,1.03,3.76,1.03,5.9,0,2.43-.34,4.68-1,6.67-.66,1.98-1.66,3.84-2.99,5.54-1.54,1.97-3.17,3.89-4.86,5.68-1.67,1.77-3.43,3.43-5.24,4.92l-45.61,42.38v27.64h85.97v-15.17h-8.13v7.04Z"/>
        <path class="cls-7" d="M128.23,20.74c1.63-1.83,3.45-3.49,5.4-4.93,1.94-1.43,4.07-2.68,6.33-3.71,2.45-1.06,4.89-1.92,7.27-2.55,2.3-.61,4.72-1.03,7.17-1.25h.35c.41,0,.82-.06,1.24-.17h3.51c2.5.11,4.98.43,7.36.95,2.4.52,4.8,1.27,7.11,2.21l.05.02c2.39.94,4.63,2.07,6.64,3.36,2,1.28,3.9,2.82,5.64,4.56l.07.07c2.02,1.92,3.71,4.01,5.01,6.22,1.32,2.24,2.35,4.6,3.06,7.03l.03.1c.85,2.65,1.46,5.36,1.83,8.05.38,2.76.57,5.57.57,8.36v43.09c0,2.82-.16,5.56-.49,8.15-.32,2.57-.81,5.13-1.46,7.61-.6,2.31-1.5,4.56-2.66,6.69-1.17,2.14-2.65,4.21-4.4,6.17-1.65,1.85-3.47,3.52-5.43,4.97-1.64,1.21-3.46,2.29-5.42,3.22,2.59,1.1,5.62,2.55,8.7,4.41.53-.35,1.05-.71,1.55-1.08,2.41-1.78,4.66-3.84,6.67-6.1,2.16-2.41,4-5,5.47-7.68,1.48-2.71,2.63-5.58,3.4-8.54.74-2.83,1.29-5.74,1.66-8.65.36-2.92.55-6,.55-9.16v-45.88h-.06c-.09-2.23-.28-4.47-.59-6.67-.43-3.14-1.15-6.3-2.13-9.38-.9-3.06-2.19-6.03-3.85-8.84-1.68-2.84-3.82-5.51-6.37-7.94-2.14-2.14-4.48-4.03-6.96-5.62-2.46-1.57-5.16-2.94-8.04-4.07-2.74-1.12-5.58-2-8.43-2.62-2.86-.62-5.83-1-8.83-1.13h-5.47s-.36.18-.36.18h-.05c-2.99.25-5.93.76-8.75,1.51-2.78.74-5.62,1.74-8.45,2.97l-.06.03c-2.79,1.27-5.42,2.81-7.82,4.58-2.42,1.78-4.66,3.84-6.69,6.11l-.07.08c-.78.92-1.51,1.87-2.21,2.84,1.36,2.11,2.97,5,4.25,8.44,1.16-2.08,2.55-4.1,4.15-6Z"/>
      </g>
    </g>
  </g>
</svg>