<?xml version="1.0" encoding="UTF-8"?>
<svg id="_圖層_2" data-name="圖層 2" xmlns="http://www.w3.org/2000/svg" viewBox="0 0 327.72 32.9">
  <defs>
    <style>
      .cls-1 {
        fill: #fff;
      }
    </style>
  </defs>
  <g id="_視覺" data-name="視覺">
    <g>
      <path class="cls-1" d="M10.22,12.14h-1.49l-1.22-3.22H2.64l-1.15,3.22H0L4.41.66h1.39l4.42,11.48ZM7.07,7.71l-1.8-4.89c-.06-.16-.12-.42-.18-.77h-.03c-.05.33-.11.58-.18.77l-1.79,4.89h3.98Z"/>
      <path class="cls-1" d="M19.77,12.14h-1.31v-4.68c0-1.74-.64-2.61-1.91-2.61-.66,0-1.2.25-1.63.74s-.64,1.12-.64,1.87v4.68h-1.31V3.94h1.31v1.36h.03c.62-1.04,1.52-1.55,2.69-1.55.9,0,1.58.29,2.06.87.48.58.71,1.42.71,2.51v5.01Z"/>
      <path class="cls-1" d="M30.28,12.14h-1.31v-4.68c0-1.74-.64-2.61-1.91-2.61-.66,0-1.2.25-1.63.74s-.64,1.12-.64,1.87v4.68h-1.31V3.94h1.31v1.36h.03c.62-1.04,1.52-1.55,2.69-1.55.9,0,1.58.29,2.06.87.48.58.71,1.42.71,2.51v5.01Z"/>
      <path class="cls-1" d="M40.62,12.14h-1.31v-1.3h-.03c-.54.99-1.39,1.49-2.53,1.49-1.95,0-2.93-1.16-2.93-3.49V3.94h1.31v4.69c0,1.73.66,2.59,1.99,2.59.64,0,1.17-.24,1.58-.71s.62-1.09.62-1.85V3.94h1.31v8.2Z"/>
      <path class="cls-1" d="M50.37,12.14h-1.31v-1.28h-.03c-.57.98-1.41,1.47-2.52,1.47-.82,0-1.46-.22-1.92-.65-.46-.43-.69-1.01-.69-1.72,0-1.53.9-2.42,2.71-2.67l2.46-.34c0-1.39-.56-2.09-1.69-2.09-.99,0-1.88.34-2.67,1.01v-1.35c.81-.51,1.74-.77,2.79-.77,1.93,0,2.89,1.02,2.89,3.06v5.33ZM49.06,7.99l-1.98.27c-.61.08-1.07.24-1.38.45-.31.22-.46.6-.46,1.15,0,.4.14.73.43.98.29.25.67.38,1.14.38.65,0,1.19-.23,1.61-.68.42-.46.64-1.03.64-1.73v-.82Z"/>
      <path class="cls-1" d="M55.39,12.14h-1.31V0h1.31v12.14Z"/>
      <path class="cls-1" d="M73.41,12.14h-1.6l-1.92-3.22c-.18-.3-.35-.55-.51-.76-.17-.21-.33-.38-.51-.52-.17-.13-.36-.23-.56-.29s-.43-.09-.68-.09h-1.11v4.88h-1.34V.66h3.43c.5,0,.96.06,1.39.19.42.12.79.32,1.1.57.31.26.56.58.73.96.18.38.26.83.26,1.34,0,.4-.06.77-.18,1.1-.12.33-.29.63-.51.89s-.49.48-.8.67c-.31.18-.66.33-1.05.43v.03c.19.09.36.18.5.29.14.11.28.24.4.39s.25.32.38.51c.12.19.27.41.42.66l2.15,3.45ZM66.52,1.87v4.16h1.83c.34,0,.65-.05.93-.15.29-.1.53-.25.74-.44s.37-.42.49-.7c.12-.28.18-.58.18-.92,0-.61-.2-1.09-.6-1.44-.4-.34-.97-.52-1.73-.52h-1.84Z"/>
      <path class="cls-1" d="M82.15,8.37h-5.79c.02.91.27,1.62.74,2.11.47.5,1.12.75,1.94.75.92,0,1.77-.3,2.55-.91v1.23c-.72.52-1.67.79-2.86.79s-2.07-.37-2.73-1.12c-.66-.75-.99-1.79-.99-3.14,0-1.28.36-2.32,1.08-3.12.72-.8,1.62-1.21,2.7-1.21s1.9.35,2.49,1.04c.59.69.88,1.66.88,2.89v.69ZM80.81,7.26c0-.76-.19-1.35-.55-1.77s-.86-.63-1.5-.63-1.14.22-1.58.67-.7,1.02-.8,1.74h4.43Z"/>
      <path class="cls-1" d="M86.71,10.96h-.03v4.96h-1.31V3.94h1.31v1.44h.03c.65-1.09,1.59-1.63,2.83-1.63,1.06,0,1.88.37,2.47,1.1s.89,1.72.89,2.95c0,1.37-.33,2.47-1,3.3-.67.82-1.58,1.24-2.74,1.24-1.06,0-1.88-.46-2.46-1.38ZM86.68,7.65v1.15c0,.68.22,1.25.66,1.73s1,.71,1.68.71c.79,0,1.42-.3,1.87-.91s.68-1.46.68-2.54c0-.91-.21-1.63-.63-2.15-.42-.52-.99-.78-1.71-.78-.76,0-1.38.27-1.84.8-.46.53-.7,1.2-.7,2Z"/>
      <path class="cls-1" d="M99.67,12.33c-1.21,0-2.18-.38-2.9-1.15-.72-.77-1.08-1.78-1.08-3.05,0-1.38.38-2.45,1.13-3.23.75-.77,1.77-1.16,3.05-1.16s2.18.38,2.86,1.13c.69.75,1.03,1.8,1.03,3.13s-.37,2.36-1.11,3.14c-.74.79-1.73,1.18-2.98,1.18ZM99.76,4.85c-.84,0-1.51.29-2,.86s-.74,1.37-.74,2.37.25,1.74.75,2.3c.5.56,1.16.84,1.99.84s1.5-.27,1.96-.83c.46-.55.68-1.33.68-2.35s-.23-1.82-.68-2.37c-.46-.55-1.11-.83-1.96-.83Z"/>
      <path class="cls-1" d="M111.36,5.27c-.23-.18-.56-.26-.99-.26-.56,0-1.03.26-1.41.79-.38.53-.56,1.25-.56,2.16v4.18h-1.31V3.94h1.31v1.69h.03c.19-.58.47-1.03.86-1.35.38-.32.81-.48,1.29-.48.34,0,.6.04.79.11v1.36Z"/>
      <path class="cls-1" d="M117.82,12.06c-.31.17-.72.26-1.23.26-1.44,0-2.15-.8-2.15-2.4v-4.85h-1.41v-1.12h1.41V1.94l1.31-.42v2.43h2.07v1.12h-2.07v4.62c0,.55.09.94.28,1.18s.5.35.93.35c.33,0,.62-.09.86-.27v1.12Z"/>
      <path class="cls-1" d="M129.95,12.33c-1.21,0-2.18-.38-2.9-1.15-.72-.77-1.08-1.78-1.08-3.05,0-1.38.38-2.45,1.13-3.23.75-.77,1.77-1.16,3.05-1.16s2.18.38,2.86,1.13c.69.75,1.03,1.8,1.03,3.13s-.37,2.36-1.11,3.14c-.74.79-1.73,1.18-2.98,1.18ZM130.05,4.85c-.84,0-1.51.29-2,.86s-.74,1.37-.74,2.37.25,1.74.75,2.3c.5.56,1.16.84,1.99.84s1.5-.27,1.96-.83c.46-.55.68-1.33.68-2.35s-.23-1.82-.68-2.37c-.46-.55-1.11-.83-1.96-.83Z"/>
      <path class="cls-1" d="M144.17,12.14h-1.31v-4.68c0-1.74-.64-2.61-1.91-2.61-.66,0-1.2.25-1.63.74s-.64,1.12-.64,1.87v4.68h-1.31V3.94h1.31v1.36h.03c.62-1.04,1.52-1.55,2.69-1.55.9,0,1.58.29,2.06.87.48.58.71,1.42.71,2.51v5.01Z"/>
      <path class="cls-1" d="M160.57,1.87h-3.32v10.27h-1.35V1.87h-3.31V.66h7.97v1.22Z"/>
      <path class="cls-1" d="M165.25,12.33c-1.21,0-2.18-.38-2.9-1.15-.72-.77-1.08-1.78-1.08-3.05,0-1.38.38-2.45,1.13-3.23.75-.77,1.77-1.16,3.05-1.16s2.18.38,2.86,1.13c.69.75,1.03,1.8,1.03,3.13s-.37,2.36-1.11,3.14c-.74.79-1.73,1.18-2.98,1.18ZM165.34,4.85c-.84,0-1.51.29-2,.86s-.74,1.37-.74,2.37.25,1.74.75,2.3c.5.56,1.16.84,1.99.84s1.5-.27,1.96-.83c.46-.55.68-1.33.68-2.35s-.23-1.82-.68-2.37c-.46-.55-1.11-.83-1.96-.83Z"/>
      <path class="cls-1" d="M179.29,12.14h-1.31v-1.3h-.03c-.54.99-1.39,1.49-2.53,1.49-1.95,0-2.93-1.16-2.93-3.49V3.94h1.31v4.69c0,1.73.66,2.59,1.99,2.59.64,0,1.17-.24,1.58-.71s.62-1.09.62-1.85V3.94h1.31v8.2Z"/>
      <path class="cls-1" d="M187.45,5.27c-.23-.18-.56-.26-.99-.26-.56,0-1.03.26-1.41.79-.38.53-.56,1.25-.56,2.16v4.18h-1.31V3.94h1.31v1.69h.03c.19-.58.47-1.03.86-1.35.38-.32.81-.48,1.29-.48.34,0,.6.04.79.11v1.36Z"/>
      <path class="cls-1" d="M190.78,1.86c-.23,0-.43-.08-.6-.24-.17-.16-.25-.36-.25-.61s.08-.45.25-.61c.17-.16.37-.24.6-.24s.44.08.61.24c.17.16.25.37.25.61s-.08.44-.25.6c-.17.17-.37.25-.61.25ZM191.42,12.14h-1.31V3.94h1.31v8.2Z"/>
      <path class="cls-1" d="M194.81,11.84v-1.41c.71.53,1.5.79,2.36.79,1.15,0,1.73-.38,1.73-1.15,0-.22-.05-.4-.15-.56s-.23-.29-.4-.4-.37-.22-.59-.32c-.23-.09-.47-.19-.73-.29-.36-.14-.68-.29-.96-.44-.28-.15-.5-.31-.69-.5s-.32-.39-.42-.63c-.09-.24-.14-.51-.14-.83,0-.38.09-.72.26-1.02.18-.3.41-.54.71-.74.29-.2.63-.35,1-.45.38-.1.76-.15,1.17-.15.71,0,1.35.12,1.91.37v1.33c-.6-.39-1.3-.59-2.08-.59-.25,0-.47.03-.67.08-.2.06-.37.13-.51.24s-.25.22-.33.36c-.08.14-.12.3-.12.47,0,.21.04.39.12.54.08.14.19.27.34.38s.33.21.54.3.46.19.73.3c.36.14.69.28.98.43.29.15.53.31.74.5.2.18.36.4.47.64.11.24.16.53.16.86,0,.41-.09.76-.27,1.06-.18.3-.42.55-.72.75-.3.2-.64.34-1.03.44-.39.1-.8.14-1.23.14-.84,0-1.58-.16-2.19-.49Z"/>
      <path class="cls-1" d="M215.14,12.14h-1.31v-4.71c0-.91-.14-1.56-.42-1.97-.28-.41-.75-.61-1.41-.61-.56,0-1.04.26-1.43.77-.39.51-.59,1.13-.59,1.84v4.68h-1.31v-4.87c0-1.61-.62-2.42-1.87-2.42-.58,0-1.05.24-1.43.72-.37.48-.56,1.11-.56,1.89v4.68h-1.31V3.94h1.31v1.3h.03c.58-.99,1.43-1.49,2.55-1.49.56,0,1.05.16,1.47.47.42.31.7.72.86,1.23.61-1.13,1.52-1.7,2.72-1.7,1.8,0,2.71,1.11,2.71,3.34v5.05Z"/>
      <path class="cls-1" d="M229.43,3.67c0-.35-.05-.66-.16-.92-.11-.26-.26-.48-.45-.65s-.41-.3-.67-.39c-.26-.08-.53-.13-.83-.13-.26,0-.51.04-.75.1-.25.07-.48.17-.72.29s-.46.27-.67.44c-.22.17-.42.36-.6.57v-1.41c.37-.36.78-.63,1.24-.82.46-.19,1.01-.28,1.67-.28.47,0,.91.07,1.31.2.4.14.75.33,1.04.6.29.26.52.58.69.97.17.38.25.82.25,1.32,0,.45-.05.86-.16,1.23-.1.37-.26.71-.47,1.04-.21.33-.48.64-.8.94s-.7.6-1.13.91c-.54.38-.98.71-1.33.99s-.63.53-.83.76c-.21.24-.35.48-.43.71-.08.24-.12.51-.12.82h5.72v1.18h-7.09v-.57c0-.49.05-.92.16-1.3.11-.37.28-.73.53-1.07.25-.34.57-.67.96-1.01.4-.34.89-.71,1.46-1.14.42-.3.76-.58,1.04-.86s.51-.54.68-.82.29-.55.36-.83c.07-.28.11-.58.11-.89Z"/>
      <path class="cls-1" d="M241.49,6.35c0,.96-.09,1.81-.26,2.55-.17.74-.42,1.37-.75,1.88-.33.51-.73.9-1.21,1.16s-1.02.4-1.63.4c-.58,0-1.09-.13-1.54-.38-.45-.25-.83-.62-1.14-1.11-.31-.49-.54-1.08-.71-1.79-.16-.71-.24-1.52-.24-2.43,0-1,.08-1.89.25-2.66.17-.77.42-1.41.74-1.93.33-.52.73-.91,1.21-1.18.48-.26,1.04-.4,1.66-.4,2.41,0,3.61,1.96,3.61,5.89ZM240.14,6.48c0-3.27-.78-4.9-2.33-4.9-1.64,0-2.46,1.66-2.46,4.99,0,3.1.8,4.65,2.41,4.65s2.38-1.58,2.38-4.74Z"/>
      <path class="cls-1" d="M249.57,3.67c0-.35-.05-.66-.16-.92-.11-.26-.26-.48-.45-.65s-.41-.3-.67-.39c-.26-.08-.53-.13-.83-.13-.26,0-.51.04-.75.1-.25.07-.48.17-.72.29s-.46.27-.67.44c-.22.17-.42.36-.6.57v-1.41c.37-.36.78-.63,1.24-.82.46-.19,1.01-.28,1.67-.28.47,0,.91.07,1.31.2.4.14.75.33,1.04.6.29.26.52.58.69.97.17.38.25.82.25,1.32,0,.45-.05.86-.16,1.23-.1.37-.26.71-.47,1.04-.21.33-.48.64-.8.94s-.7.6-1.13.91c-.54.38-.98.71-1.33.99s-.63.53-.83.76c-.21.24-.35.48-.43.71-.08.24-.12.51-.12.82h5.72v1.18h-7.09v-.57c0-.49.05-.92.16-1.3.11-.37.28-.73.53-1.07.25-.34.57-.67.96-1.01.4-.34.89-.71,1.46-1.14.42-.3.76-.58,1.04-.86s.51-.54.68-.82.29-.55.36-.83c.07-.28.11-.58.11-.89Z"/>
      <path class="cls-1" d="M260.27.66v7.58h1.47v1.2h-1.47v2.7h-1.3v-2.7h-5.4v-1.14c.5-.57,1.01-1.17,1.52-1.81.51-.64,1-1.3,1.47-1.96.47-.66.9-1.32,1.3-1.98.4-.66.73-1.29,1.01-1.89h1.4ZM255.06,8.24h3.92V2.62c-.4.7-.78,1.32-1.14,1.87-.36.55-.7,1.05-1.02,1.5s-.63.85-.92,1.22c-.29.36-.57.71-.83,1.03Z"/>
      <path class="cls-1" d="M277.55,1.87h-3.32v10.27h-1.35V1.87h-3.31V.66h7.97v1.22Z"/>
      <path class="cls-1" d="M284.44,12.14h-1.31v-1.28h-.03c-.57.98-1.41,1.47-2.52,1.47-.82,0-1.46-.22-1.92-.65-.46-.43-.69-1.01-.69-1.72,0-1.53.9-2.42,2.71-2.67l2.46-.34c0-1.39-.56-2.09-1.69-2.09-.99,0-1.88.34-2.67,1.01v-1.35c.81-.51,1.74-.77,2.79-.77,1.93,0,2.89,1.02,2.89,3.06v5.33ZM283.13,7.99l-1.98.27c-.61.08-1.07.24-1.38.45-.31.22-.46.6-.46,1.15,0,.4.14.73.43.98.29.25.67.38,1.14.38.65,0,1.19-.23,1.61-.68.42-.46.64-1.03.64-1.73v-.82Z"/>
      <path class="cls-1" d="M288.82,1.86c-.23,0-.43-.08-.6-.24-.17-.16-.25-.36-.25-.61s.08-.45.25-.61c.17-.16.37-.24.6-.24s.44.08.61.24c.17.16.25.37.25.61s-.08.44-.25.6c-.17.17-.37.25-.61.25ZM289.46,12.14h-1.31V3.94h1.31v8.2Z"/>
      <path class="cls-1" d="M303.68,3.94l-2.46,8.2h-1.36l-1.69-5.87c-.06-.22-.11-.48-.13-.76h-.03c-.02.19-.07.44-.17.74l-1.83,5.89h-1.31l-2.48-8.2h1.38l1.7,6.17c.05.19.09.43.11.74h.06c.02-.23.06-.49.14-.75l1.89-6.15h1.2l1.7,6.18c.05.2.09.44.12.74h.06c.01-.21.06-.45.14-.74l1.67-6.18h1.3Z"/>
      <path class="cls-1" d="M312.3,12.14h-1.31v-1.28h-.03c-.57.98-1.41,1.47-2.52,1.47-.82,0-1.46-.22-1.92-.65-.46-.43-.69-1.01-.69-1.72,0-1.53.9-2.42,2.71-2.67l2.46-.34c0-1.39-.56-2.09-1.69-2.09-.99,0-1.88.34-2.67,1.01v-1.35c.81-.51,1.74-.77,2.79-.77,1.93,0,2.89,1.02,2.89,3.06v5.33ZM310.99,7.99l-1.98.27c-.61.08-1.07.24-1.38.45-.31.22-.46.6-.46,1.15,0,.4.14.73.43.98.29.25.67.38,1.14.38.65,0,1.19-.23,1.61-.68.42-.46.64-1.03.64-1.73v-.82Z"/>
      <path class="cls-1" d="M322.81,12.14h-1.31v-4.68c0-1.74-.64-2.61-1.91-2.61-.66,0-1.2.25-1.63.74s-.64,1.12-.64,1.87v4.68h-1.31V3.94h1.31v1.36h.03c.62-1.04,1.52-1.55,2.69-1.55.9,0,1.58.29,2.06.87.48.58.71,1.42.71,2.51v5.01Z"/>
      <path class="cls-1" d="M327.72,10.31l-1.28,3.94h-.94l.94-3.94h1.28Z"/>
      <path class="cls-1" d="M9.56,29.13h-1.6l-1.92-3.22c-.18-.3-.35-.55-.51-.76-.17-.21-.33-.38-.51-.52-.17-.13-.36-.23-.56-.29s-.43-.09-.68-.09h-1.11v4.88h-1.34v-11.48h3.43c.5,0,.96.06,1.39.19.42.12.79.32,1.1.57.31.26.56.58.73.96.18.38.26.83.26,1.34,0,.4-.06.77-.18,1.1-.12.33-.29.63-.51.89s-.49.48-.8.67c-.31.18-.66.33-1.05.43v.03c.19.09.36.18.5.29.14.11.28.24.4.39s.25.32.38.51c.12.19.27.41.42.66l2.15,3.45ZM2.67,18.86v4.16h1.83c.34,0,.65-.05.93-.15.29-.1.53-.25.74-.44s.37-.42.49-.7c.12-.28.18-.58.18-.92,0-.61-.2-1.09-.6-1.44-.4-.34-.97-.52-1.73-.52h-1.84Z"/>
      <path class="cls-1" d="M18.31,25.36h-5.79c.02.91.27,1.62.74,2.11.47.5,1.12.75,1.94.75.92,0,1.77-.3,2.55-.91v1.23c-.72.52-1.67.79-2.86.79s-2.07-.37-2.73-1.12c-.66-.75-.99-1.79-.99-3.14,0-1.28.36-2.32,1.08-3.12.72-.8,1.62-1.21,2.7-1.21s1.9.35,2.49,1.04c.59.69.88,1.66.88,2.89v.69ZM16.96,24.25c0-.76-.19-1.35-.55-1.77s-.86-.63-1.5-.63-1.14.22-1.58.67-.7,1.02-.8,1.74h4.43Z"/>
      <path class="cls-1" d="M22.87,27.94h-.03v4.96h-1.31v-11.97h1.31v1.44h.03c.65-1.09,1.59-1.63,2.83-1.63,1.06,0,1.88.37,2.47,1.1s.89,1.72.89,2.95c0,1.37-.33,2.47-1,3.3-.67.82-1.58,1.24-2.74,1.24-1.06,0-1.88-.46-2.46-1.38ZM22.83,24.64v1.15c0,.68.22,1.25.66,1.73s1,.71,1.68.71c.79,0,1.42-.3,1.87-.91s.68-1.46.68-2.54c0-.91-.21-1.63-.63-2.15-.42-.52-.99-.78-1.71-.78-.76,0-1.38.27-1.84.8-.46.53-.7,1.2-.7,2Z"/>
      <path class="cls-1" d="M39.03,29.13h-1.31v-1.3h-.03c-.54.99-1.39,1.49-2.53,1.49-1.95,0-2.93-1.16-2.93-3.49v-4.9h1.31v4.69c0,1.73.66,2.59,1.99,2.59.64,0,1.17-.24,1.58-.71s.62-1.09.62-1.85v-4.73h1.31v8.2Z"/>
      <path class="cls-1" d="M44.25,27.94h-.03v1.19h-1.31v-12.14h1.31v5.38h.03c.65-1.09,1.59-1.63,2.83-1.63,1.05,0,1.88.37,2.47,1.1s.89,1.72.89,2.95c0,1.37-.33,2.47-1,3.3-.67.82-1.58,1.24-2.74,1.24-1.08,0-1.9-.46-2.46-1.38ZM44.22,24.64v1.15c0,.68.22,1.25.66,1.73s1,.71,1.68.71c.79,0,1.42-.3,1.87-.91s.68-1.46.68-2.54c0-.91-.21-1.63-.63-2.15-.42-.52-.99-.78-1.71-.78-.76,0-1.38.27-1.84.8-.46.53-.7,1.2-.7,2Z"/>
      <path class="cls-1" d="M55.09,29.13h-1.31v-12.14h1.31v12.14Z"/>
      <path class="cls-1" d="M59.65,18.85c-.23,0-.43-.08-.6-.24-.17-.16-.25-.36-.25-.61s.08-.45.25-.61c.17-.16.37-.24.6-.24s.44.08.61.24c.17.16.25.37.25.61s-.08.44-.25.6c-.17.17-.37.25-.61.25ZM60.29,29.13h-1.31v-8.2h1.31v8.2Z"/>
      <path class="cls-1" d="M69.77,28.75c-.63.38-1.38.57-2.24.57-1.17,0-2.11-.38-2.83-1.14-.72-.76-1.08-1.75-1.08-2.96,0-1.35.39-2.44,1.16-3.26.77-.82,1.81-1.23,3.1-1.23.72,0,1.36.13,1.91.4v1.34c-.61-.43-1.26-.64-1.95-.64-.84,0-1.53.3-2.06.9-.54.6-.8,1.39-.8,2.37s.25,1.72.76,2.27c.5.56,1.18.83,2.03.83.71,0,1.39-.24,2.02-.71v1.25Z"/>
      <path class="cls-1" d="M82.14,29.32c-1.21,0-2.18-.38-2.9-1.15-.72-.77-1.08-1.78-1.08-3.05,0-1.38.38-2.45,1.13-3.23.75-.77,1.77-1.16,3.05-1.16s2.18.38,2.86,1.13c.69.75,1.03,1.8,1.03,3.13s-.37,2.36-1.11,3.14c-.74.79-1.73,1.18-2.98,1.18ZM82.24,21.84c-.84,0-1.51.29-2,.86s-.74,1.37-.74,2.37.25,1.74.75,2.3c.5.56,1.16.84,1.99.84s1.5-.27,1.96-.83c.46-.55.68-1.33.68-2.35s-.23-1.82-.68-2.37c-.46-.55-1.11-.83-1.96-.83Z"/>
      <path class="cls-1" d="M93.61,18.14c-.26-.14-.55-.22-.87-.22-.92,0-1.38.58-1.38,1.74v1.26h1.92v1.12h-1.92v7.08h-1.31v-7.08h-1.4v-1.12h1.4v-1.33c0-.86.25-1.54.74-2.04.5-.5,1.12-.75,1.86-.75.4,0,.72.05.95.14v1.18Z"/>
      <path class="cls-1" d="M109.63,28.65c-.85.45-1.91.67-3.17.67-1.63,0-2.94-.53-3.92-1.58s-1.47-2.43-1.47-4.14c0-1.84.55-3.32,1.66-4.45,1.11-1.13,2.51-1.7,4.21-1.7,1.09,0,1.99.16,2.71.47v1.43c-.82-.46-1.73-.69-2.72-.69-1.32,0-2.39.44-3.21,1.32s-1.23,2.06-1.23,3.53.38,2.51,1.15,3.34c.77.83,1.77,1.25,3.02,1.25,1.15,0,2.15-.26,3-.77v1.31Z"/>
      <path class="cls-1" d="M119.83,29.13h-1.31v-4.72c0-1.71-.64-2.56-1.91-2.56-.64,0-1.18.25-1.62.74-.44.49-.66,1.13-.66,1.9v4.64h-1.31v-12.14h1.31v5.3h.03c.63-1.04,1.53-1.55,2.69-1.55,1.85,0,2.77,1.11,2.77,3.34v5.05Z"/>
      <path class="cls-1" d="M124.21,18.85c-.23,0-.43-.08-.6-.24-.17-.16-.25-.36-.25-.61s.08-.45.25-.61c.17-.16.37-.24.6-.24s.44.08.61.24c.17.16.25.37.25.61s-.08.44-.25.6c-.17.17-.37.25-.61.25ZM124.85,29.13h-1.31v-8.2h1.31v8.2Z"/>
      <path class="cls-1" d="M135.55,29.13h-1.31v-4.68c0-1.74-.64-2.61-1.91-2.61-.66,0-1.2.25-1.63.74s-.64,1.12-.64,1.87v4.68h-1.31v-8.2h1.31v1.36h.03c.62-1.04,1.52-1.55,2.69-1.55.9,0,1.58.29,2.06.87.48.58.71,1.42.71,2.51v5.01Z"/>
      <path class="cls-1" d="M145.12,29.13h-1.31v-1.28h-.03c-.57.98-1.41,1.47-2.52,1.47-.82,0-1.46-.22-1.92-.65-.46-.43-.69-1.01-.69-1.72,0-1.53.9-2.42,2.71-2.67l2.46-.34c0-1.39-.56-2.09-1.69-2.09-.99,0-1.88.34-2.67,1.01v-1.35c.81-.51,1.74-.77,2.79-.77,1.93,0,2.89,1.02,2.89,3.06v5.33ZM143.81,24.98l-1.98.27c-.61.08-1.07.24-1.38.45-.31.22-.46.6-.46,1.15,0,.4.14.73.43.98.29.25.67.38,1.14.38.65,0,1.19-.23,1.61-.68.42-.46.64-1.03.64-1.73v-.82Z"/>
    </g>
  </g>
</svg>