<?xml version="1.0" encoding="UTF-8"?>
<svg id="_圖層_2" data-name="圖層 2" xmlns="http://www.w3.org/2000/svg" viewBox="0 0 327.11 63.71">
  <defs>
    <style>
      .cls-1 {
        fill: #fff;
      }
    </style>
  </defs>
  <g id="_視覺" data-name="視覺">
    <g>
      <path class="cls-1" d="M66.75,11.6l1.02.51-5.86,38.48c.68.51,1.61,1.45,2.8,2.8,1.19,1.19,2.04,2.04,2.55,2.55-.34,1.7-1.02,3.65-2.04,5.86-1.87-2.72-4.59-7.65-8.16-14.78-.51-.85-.85-1.53-1.02-2.04l.25-.25c1.19,1.02,2.29,2.13,3.31,3.31l7.14-36.44ZM56.55,17.46c2.55,2.21,4.59,4.33,6.12,6.37-.51,1.53-1.19,3.06-2.04,4.59-1.53-3.23-2.97-6.88-4.33-10.96h.25ZM57.83,2.68c2.38,1.53,5.01,3.66,7.9,6.37-.34,1.36-1.02,2.97-2.04,4.84-1.53-2.21-3.57-5.86-6.12-10.96l.25-.25ZM70.82,25.87v3.06c.17,3.4-1.36,5.61-4.59,6.63v-1.53c1.53-.51,2.21-1.61,2.04-3.31v-4.84h2.55ZM80.76.13c.51.34,1.36,1.02,2.55,2.04,1.02.68,1.78,1.19,2.29,1.53.51-.34-.09.68-1.78,3.06h5.61v2.04h-11.72c-.17.68-.85,2.13-2.04,4.33-.51.85-.85,1.45-1.02,1.78.34.34.76.76,1.27,1.27.68.85,1.44,1.87,2.29,3.06h3.57v1.27h2.8v-1.27h3.57v14.78c1.02-1.02,1.53-2.29,1.53-3.82v-4.33h2.55v4.08c0,2.38-1.36,4.17-4.08,5.35v-1.02h-3.57v-3.06h-2.8v3.31h-3.57v-14.27c-.17,1.19-.68,2.47-1.53,3.82-.34-.68-.68-1.53-1.02-2.55-.17-.51-.34-.85-.51-1.02-2.21,2.04-4.5,3.57-6.88,4.59.68-2.21.51-3.82-.51-4.84h1.27c2.21-2.72,3.82-5.86,4.84-9.43-1.87,1.87-3.74,3.15-5.61,3.82.51-1.7.25-3.23-.76-4.59.51.17,1.02.25,1.53.25,1.36-2.72,1.95-5.94,1.78-9.68h4.08c-1.36,3.91-3.06,7.14-5.1,9.68,2.21,0,3.73-.34,4.59-1.02v-3.31h4.59c-.34,0-.51.25-.51.76h4.33c-.17-.68-.51-1.7-1.02-3.06-.34-1.7-.68-2.89-1.02-3.57ZM90.45,35.04h4.33v10.96h-4.33v-.76h-16.31v3.82h17.58v-1.53h4.59v8.66c.17,3.73-2.8,6.2-8.92,7.39-.51-.51-1.36-.76-2.55-.76l-3.57.51-.25-.76c7.3-1.02,10.87-2.97,10.7-5.86v-5.35h-17.58v2.04h-4.33v-12.23h4.33v2.04h16.31v-4.33h-22.43v-2.04h22.43v-1.78ZM74.14,15.67c-.51.85-1.36,1.96-2.55,3.31-.68.68-1.19,1.19-1.53,1.53,1.02.17,2.72-.08,5.1-.76-.17-.51-.34-1.19-.51-2.04-.17-.85-.34-1.53-.51-2.04ZM72.61,25.1c.68,2.04,1.27,4.5,1.78,7.39-.34.68-.94,1.45-1.78,2.29-.17-2.38-.25-5.61-.25-9.68h.25ZM75.16,24.59c.34.68.93,2.21,1.78,4.59.34,1.02.59,1.7.76,2.04-.17.51-.68,1.27-1.53,2.29-.17.34-.34.6-.51.76-.51-3.06-.76-6.28-.76-9.68h.25ZM77.45,15.42h11.21v2.04h-11.21v-2.04ZM88.66,13.12h-10.96v-2.04h10.96v2.04ZM84.59,22.55h-2.8v6.63h2.8v-6.63ZM91.47.64h4.08c-1.19,4.25-2.97,7.65-5.35,10.19,1.02,0,2.21-.25,3.57-.76.17-.17.34-.25.51-.25l.25-3.82h4.33c-.68,2.04-1.87,4.84-3.57,8.41,2.04,2.04,3.82,4.08,5.35,6.12-.51,1.7-1.11,3.23-1.78,4.59-.51-.68-1.11-1.78-1.78-3.31-.34-.68-.6-1.19-.76-1.53-1.87,2.04-4.17,3.57-6.88,4.59.51-1.53.25-2.97-.76-4.33h.76l.76.25c1.87-3.06,3.14-6.12,3.82-9.17-1.53,1.36-3.06,2.46-4.59,3.31.51-2.04.17-3.48-1.02-4.33h1.27c.85-2.04,1.44-5.35,1.78-9.94ZM94.78,15.16c-.17.34-.51.94-1.02,1.78-.51.85-1.36,2.13-2.55,3.82,2.04-.34,3.57-.93,4.59-1.78,0-.17-.09-.42-.25-.76-.34-1.02-.6-2.04-.76-3.06ZM93.5,24.59h.51c.17.68.34,1.62.51,2.8.51,1.87.85,3.4,1.02,4.59l-.25.51c-.51.85-1.11,1.45-1.78,1.78v-9.68ZM95.8,24.08h.26c.17.17.34.51.51,1.02,1.19,2.89,2.04,4.93,2.55,6.12-.34.68-1.02,1.53-2.04,2.55-.17-1.02-.34-2.55-.51-4.59-.34-2.38-.6-4.08-.76-5.1Z"/>
      <path class="cls-1" d="M138.5,57.6h-16.06v5.86h-4.59v-20.64c-.17.34-.51.76-1.02,1.27-.51.51-.85.94-1.02,1.27h-2.04c3.91-4.24,5.77-9.6,5.61-16.06h6.12c-.51,2.38-1.02,3.99-1.53,4.84h5.35c-1.36-2.38-2.21-4.24-2.55-5.61l.25-.25c1.53.51,3.31,1.45,5.35,2.8-.51,1.36-1.11,2.38-1.78,3.06h7.65v2.55h-6.63v4.33h5.35v2.55h-5.35v4.84h5.61v2.55h-5.61v4.08h6.88v2.55ZM128.3,0h4.08v4.84h6.37v2.55h-6.37v3.57h-4.08v-3.57h-3.06v3.57h-4.33v-3.57h-6.63v-2.55h6.63V0h4.33v4.84h3.06V0ZM121.42,11.98h4.08v15.8h-4.08v-2.55h-2.29v2.55h-4.08v-15.55h4.08v2.04h2.29v-2.29ZM121.42,16.31h-2.29v6.63h2.29v-6.63ZM122.44,36.7v4.33h4.84v-4.33h-4.84ZM122.44,43.58v4.84h4.84v-4.84h-4.84ZM127.28,50.97h-4.84v4.08h4.84v-4.08ZM133.91,11.98h4.08v15.55h-4.08v-2.29h-2.29v2.29h-3.82v-15.55h3.82v2.29h2.29v-2.29ZM133.91,16.31h-2.29v6.63h2.29v-6.63ZM150.73.51h4.59v39.76h-2.8v15.29c0,.85.34,1.27,1.02,1.27.51,0,.76-.43.76-1.27l1.02-11.47h.76v9.17h.76v6.37c0,1.7-1.02,2.55-3.06,2.55h-2.8c-1.87.17-2.72-.76-2.55-2.8v-19.37h2.29v-2.55h-5.61v2.55h1.27v3.57c1.02,7.65-2.8,14.35-11.47,20.13h-2.8c6.96-4.08,10.11-10.11,9.43-18.09v-5.1h-1.02V.76h4.59v2.04h5.61V.51ZM150.73,5.35h-5.61v8.16h4.08v2.55h-4.08v7.9h4.08v2.55h-4.08v8.41h5.61V5.35Z"/>
      <path class="cls-1" d="M183.61,26.76h-12.23v-2.55h18.09V.76h5.1v23.45h1.78l10.7-20.39,2.55,1.53-10.7,18.86h15.29v2.55h-14.78v29.56c0,.68.42,1.02,1.27,1.02h6.63c1.36-.17,2.12-.76,2.29-1.78l2.55-11.98h.76l-.76,10.19h2.04v3.31c0,3.57-1.53,5.35-4.59,5.35h-10.19c-3.4,0-5.1-1.62-5.1-4.84v-30.84h-5.61v8.66c.34,9.52-5.27,18.69-16.82,27.52h-1.53c8.66-7.65,13.08-16.65,13.25-27.01v-9.17ZM185.91,14.27c-.68,1.87-1.87,3.99-3.57,6.37-2.55-4.08-4.84-9.34-6.88-15.8l.25-.25c4.42,3.23,7.81,6.46,10.19,9.68Z"/>
      <path class="cls-1" d="M238.03,9.68c-2.38,3.91-5.1,7.65-8.16,11.21h-2.04c4.75-5.61,7.3-12.4,7.65-20.39h6.63c-.68,2.21-1.53,4.33-2.55,6.37h29.56v2.8h-14.27v13.25h11.21v2.8h-11.21v16.06h16.31v3.06h-16.31v18.35h-5.61v-18.35h-21.92v-3.06h7.65v-21.92h5.61v3.06h8.66v-13.25h-11.21ZM249.25,25.74h-8.66v16.06h8.66v-16.06Z"/>
      <path class="cls-1" d="M293.22.76h5.1v7.9h6.12v2.8h-6.12v7.65h6.63v2.8h-19.62v-2.8h7.9v-7.65h-7.14v-2.8h7.14V.76ZM300.1,22.17l2.8,1.02-3.82,10.45h5.35v2.55h-6.12v7.9h6.63v2.8h-6.63v16.06h-5.1v-16.06h-7.65v-2.8h7.65v-7.65h-7.39v-2.8h4.84c-.85-3.06-1.62-6.71-2.29-10.96l.25-.25c1.19,1.19,3.14,3.66,5.86,7.39-.51,1.02-1.45,2.29-2.8,3.82h4.84l3.57-11.47ZM305.71,1.53h5.1v2.8h7.65V1.53h5.35v13c.68,2.55-1.87,5.18-7.65,7.9-.34-.51-.85-.68-1.53-.51l-2.8.76-.25-.76c4.75-1.53,7.05-3.48,6.88-5.86V7.14h-7.65v21.15h9.17v-3.06h5.61c-.17,11.05-1.7,19.28-4.59,24.72,1.36,1.53,3.4,2.89,6.12,4.08-1.87,1.36-2.29,4.24-1.27,8.66-3.57-2.72-6.12-5.44-7.65-8.16-.34.34-.85.93-1.53,1.78-2.55,3.23-4.25,5.35-5.1,6.37h-1.02v.25h-4.84V1.53ZM312.84,31.09h-2.04v30.33c2.55-3.4,4.42-6.71,5.61-9.94-2.21-5.1-3.4-11.89-3.57-20.39ZM319.72,31.09h-5.86c.51,5.44,1.95,10.7,4.33,15.8,1.19-6.12,1.7-11.38,1.53-15.8Z"/>
      <g>
        <path class="cls-1" d="M26.95,8.01h.93c5.88,4.78,10.84,9.74,14.87,14.88-1.86,2.57-4.18,4.68-6.97,6.34-1.24-2.38-2.64-4.96-4.18-7.71-7.43,4.41-17.66,7.35-30.66,8.82,1.23-2.02.93-4.04-.93-6.06h3.72C11.15,20.04,14.56,12.14,13.94.57h8.36c.93,10.84-3.88,18.73-14.4,23.69,8.36-.18,16.1-1.56,23.23-4.13-1.55-3.67-2.95-7.71-4.18-12.12Z"/>
        <path class="cls-1" d="M33.11,33.58v1.53H9.64v-1.53H3.62v29.56h6.02v-4.59h23.47v4.59h6.02v-29.56h-6.02ZM33.11,56.26H9.64v-18.6h23.47v18.6Z"/>
      </g>
    </g>
  </g>
</svg>