<?xml version="1.0" encoding="UTF-8"?>
<svg id="_圖層_2" xmlns="http://www.w3.org/2000/svg" version="1.1" viewBox="0 0 620.9 64.9">
  <!-- Generator: Adobe Illustrator 29.8.2, SVG Export Plug-In . SVG Version: 2.1.1 Build 3)  -->
  <defs>
    <style>
      .st0 {
        fill: #fff;
      }
    </style>
  </defs>
  <g id="Layer_1">
    <g>
      <g>
        <g>
          <path class="st0" d="M372.1,36c-5.3,0-7.4-3-8-4.4,1.8-3.3,1.6-6.4,1.6-7.1-.2-1.6-1.6-2.3-2.6-2.3h-3.4c2-2.5,4.3-5,5.6-8.4.9-2.6-.7-4.1-2.7-4.1h-8.9v3.5h5.7c-.4,2.6-2.1,5.7-4.4,9-.7.9-.6,2.9,1.6,2.9h4.3c0,6.5-4.4,10.2-8.1,12v2.5c4.3-1.2,7.2-3.1,9.1-5l.3.3c3.2,4.8,9.6,4.8,12.1,4.8h27.6v-3.7h-29.8Z"/>
          <path class="st0" d="M359.3,7.9h3.8c-1-4.9-2.6-6.5-2.6-6.5h-6.2c3.5,2.9,4.9,6.5,4.9,6.5h.1Z"/>
          <path class="st0" d="M373.8,28.4h8.6v5.7h5.4v-5.7h8.5v5.7h5.4V13.2c0-3.1-1.5-3.5-4.1-3.5h-3.2l5.1-3.9c1.4-1.3.8-3.8-1.7-3.8h-28.9v3.7h25.2l-5.2,4h-9.1l-1.2-2.7h-4.8l1.2,2.7h-3.3c-2.1,0-3.6.5-3.6,3.5v20.9h5.5v-5.7s.2,0,.2,0ZM387.8,13.2h8.5v4h-8.5v-4ZM387.8,20.7h8.5v4.2h-8.5v-4.2ZM373.8,13.2h8.6v4h-8.6v-4ZM373.8,20.7h8.6v4.2h-8.6v-4.2Z"/>
        </g>
        <path class="st0" d="M481.1,31h-6.6v-3.3h6.6v3.3ZM481.1,25h-6.6v-3.4h6.6v3.4ZM474.4,33.7h6.6v3.3h-6.6v-3.3ZM476.2,7.2h-6.2c-2.7,0-3,1.9-3,2.7v6.3h12v-6.3c0-.8-.3-2.7-2.9-2.7,0,0,.1,0,.1,0ZM471.2,13.5v-3.6h3.8v3.6h-3.8ZM493.6,9.9c0-.8.1-2.7-2.9-2.7h-6.3c-3,0-2.9,1.9-2.9,2.7v6.3h12v-6.3h.1,0ZM489.5,9.9v3.6h-3.8v-3.6h3.8ZM490,2.2h3.9v2.6h-3.9v1.6h-4.9v-1.6h-9.5v1.6h-4.9v-1.6h-3.9v-2.6h3.9V.4h4.9v1.8h9.5V.4h4.9v1.8ZM512.6,33.9v1.8c0,1.4-.8,1.3-.8,1.3h-.3s-1,0-1-1.2v-8h3.5V4.2c0-2.2-1.3-3.2-3.7-3.2h-11.8c-2.4,0-3.5.6-3.5,3.2v23.6h3.3c-.3,7-3.7,10.2-3.7,10.2v1.8c6.8-3,8.5-9.3,9-12h1.4v9.3s0,2.6,3,2.6h5s2.1-.2,2.1-2.6v-3.2s-2.5,0-2.5,0ZM500.5,4.1h8v4.7h-8s0-4.7,0-4.7ZM500.5,12h8v4.8h-8s0-4.8,0-4.8ZM500.5,19.8h8v4.8h-8v-4.8ZM486.6,33.7h7v-2.7h-7v-3.3h7v-2.7h-7v-3.4h7v-2.6h-7.1l1.7-2.1h-5.7l-1.6,2.1h-6.7c.7-1.2,1.1-2,1.1-2h-5.6c-2.3,7.3-5.8,9.8-5.8,9.8v3.3c1.8-.8,3.5-2.2,5-3.7v13.3h24.7v-2.7h-7s0-3.3,0-3.3Z"/>
        <g>
          <path class="st0" d="M432.1,22.4h-15.9c-2.6,0-3.7,1.2-3.7,3.4v13.9h23.9v-13.9c0-2.8-1.9-3.4-4.4-3.4,0,0,.1,0,.1,0ZM430.6,36.1h-12.4v-10.3h12.4v10.3Z"/>
          <path class="st0" d="M435.3,5.8h2.7v-3.4h-10.4V.4h-6.5v2h-10.5v3.4h19.1c0,1.7,0,6.7-2.6,10.8h-5.2c-1.9-3.5-2.7-7.9-2.7-7.9h-5.3c.6,2.7,2.8,6.3,3.9,7.9h-8.4v3.4h29.9v-3.4h-8c1-1.6,3-5.2,4.1-10.8h-.1Z"/>
          <path class="st0" d="M452.7,15.3c2.4-3.3,4-7.7,4.6-10.7.4-1.7-.7-3.3-3.3-3.3h-13.4v38.3h5.5V4.8h5.9c-.7,6.4-3.9,11.8-3.9,11.8,0,0,5.3,4.8,5.2,11.9,0,3.9-2.3,5.2-4,5.2h-2.2v3.2h2.3c6.6,0,8.5-3.7,8.5-7.5,0-9.4-5.4-14-5.4-14h.2q0-.1,0-.1Z"/>
        </g>
        <g>
          <path class="st0" d="M538,15.4v-1.4c-6.6-4.1-8.1-10.7-8.1-10.7h-6.1c3.5,11.2,14.2,12.2,14.2,12.2h0q0-.1,0-.1Z"/>
          <path class="st0" d="M564.2,28.3v4.6c0,2-.5,3.8-4.4,3.8h-5.7s-2.8,0-2.8-2.6v-12.6h15.7v-4h-19.7V.5h-6.1v17h-20.4v4h14.6c-1.9,12.8-14.3,16-14.3,16v2.2c17.2-2.7,20.6-15.2,21.1-18.2h3.2v11.6c0,1.9.3,6.5,5.8,6.5h10.9c.4,0,5,0,5-6v-5.3h-3.1.2Z"/>
          <path class="st0" d="M565.6,3.2h-6.1s-1.5,6.6-8.1,10.7v1.4s10.7-.9,14.2-12.2h0q0,0,0,.1Z"/>
        </g>
        <path class="st0" d="M337.4,17.1c4.4,3.6,9.3,4.4,9.3,4.4v-2c-7-3.5-8.5-10.7-9-12.8h7.3v-3.9h-19.5V.7h-6.2v2.1h-19.5v3.9h7.3c-.5,2-2,9.2-9,12.8v2s4.9-.9,9.3-4.4c2.5,6.2,6.3,10.7,10.4,14-4.8,3.3-11,5.6-18.9,6v2.5h0s12.1.9,23.4-5.2c11.3,6.1,23.4,5.2,23.4,5.2h0v-2.5c-8-.4-14.2-2.8-18.9-6,4.1-3.3,7.9-7.8,10.4-14h.2ZM322.4,27.3c-6.5-6.3-9.2-14-9.8-17.2.4-1,.8-2.1,1-3.4h17.5c.2,1.2.6,2.3,1,3.4-.6,3.2-3.3,10.8-9.8,17.2h.1,0Z"/>
        <path class="st0" d="M616.8,1.1h-39.3c-3.1,0-3.9.9-3.9,2.9v6.6h20.9v2.2h-18.5v3.4h18.5v2.2h-20.9v3.4h5.5c-.8,1.5-2.4,3.7-5.5,5.4v1.4s1.2,0,2.9-.5v11.4h42.6v-12.4c0-2-.9-2.9-3.9-2.9h-31.1c.7-.7,1.4-1.5,2.1-2.4h34.7v-3.4h-8.5v-2.2h6.1v-3.4h-18.5v-2.2h20.9v-6.6c0-2-.9-2.9-3.9-2.9h-.2,0ZM581.9,36.2v-2.4h31.7v2.4h-31.7ZM613.5,30.4h-31.7v-2.6h31.7v2.6ZM606.8,16.3v2.2h-7v-2.2h7ZM601.4,4.5v2.7h-8.5v-2.7h8.5ZM579,4.5h8.5v2.7h-8.5v-2.7ZM606.8,7.2v-2.7h8.5v2.7h-8.5Z"/>
      </g>
      <g>
        <path class="st0" d="M546.2,64.9c.8-1.5,1.4-3.8,1.7-6.2h3.3c-.7,2.5-1.9,4.8-2.9,6.2h-2.2.1Z"/>
        <g>
          <g>
            <path class="st0" d="M303.7,49.3h-4.8v-2.3h12.6v2.3h-4.8v12.9h-3v-12.9h0Z"/>
            <path class="st0" d="M322.7,56.6c0,4-3.1,5.8-6.2,5.8s-6-2.1-6-5.7,2.6-5.8,6.2-5.8,6,2.3,6,5.6h0ZM313.6,56.7c0,2.1,1.2,3.7,3,3.7s2.9-1.5,2.9-3.8-.8-3.7-2.9-3.7-3,1.9-3,3.7h0Z"/>
            <path class="st0" d="M335.8,58.9v3.3h-2.7v-1.6h-.2c-.5.8-1.7,1.9-3.9,1.9s-4.2-1.2-4.2-4.8v-6.4h3v6c0,1.8.6,3,2.3,3s2-.8,2.3-1.5c.1-.2.2-.5.2-.9v-6.6h3v7.7h.2q0,0,0-.1Z"/>
            <path class="st0" d="M338.8,54.8v-3.5h2.6v2.1h.2c.6-1.5,2-2.3,3.3-2.3s.5,0,.7,0v2.6h-.9c-1.4,0-2.5.8-2.7,2.1v6.5h-3v-7.4s-.2,0-.2,0Z"/>
            <path class="st0" d="M350.7,48.2c0,.8-.7,1.5-1.7,1.5s-1.7-.7-1.7-1.5.7-1.5,1.7-1.5,1.7.7,1.7,1.5ZM347.4,62.2v-11h3v11h-3Z"/>
            <path class="st0" d="M353.4,59.6c.7.4,2,.8,3.1.8s1.9-.5,1.9-1.2-.5-1.1-2-1.6c-2.4-.7-3.3-1.9-3.3-3.2,0-1.9,1.8-3.4,4.6-3.4s2.5.3,3.2.7l-.6,1.9c-.5-.3-1.5-.6-2.6-.6s-1.7.5-1.7,1.2.6,1,2.1,1.5c2.2.7,3.2,1.7,3.2,3.3s-1.7,3.4-4.9,3.4-2.8-.3-3.7-.8l.6-2h.1,0Z"/>
            <path class="st0" d="M363.6,54.5v-3.3h2.6v1.6h.2c.6-.9,1.7-1.9,3.7-1.9s2.8.8,3.3,2h0c.4-.6.9-1.1,1.5-1.4.7-.4,1.5-.7,2.5-.7,2,0,4,1.2,4,4.8v6.5h-3v-6.1c0-1.8-.7-2.9-2.2-2.9s-1.8.7-2.1,1.5c0,.2-.1.6-.1.9v6.6h-3v-6.4c0-1.5-.7-2.6-2.1-2.6s-1.9.8-2.2,1.6c0,.3-.1.6-.1.9v6.5h-3v-7.7h0q0,0,0,.1Z"/>
          </g>
          <g>
            <path class="st0" d="M393,57.9l-1.4,4.3h-3.1l5.4-15.2h3.9l5.4,15.2h-3.3l-1.5-4.3h-5.4ZM397.8,55.8l-1.3-3.7c-.3-.9-.6-2-.8-2.8h0c-.2.9-.5,1.9-.8,2.8l-1.3,3.7h4.3-.1Z"/>
            <path class="st0" d="M415.8,46.2v16h-2.7v-1.7h-.2c-.7,1.2-2.2,2-3.9,2-2.9,0-5.2-2.2-5.2-5.6s2.5-5.9,5.4-5.9,2.8.6,3.4,1.4h0v-6.2h3.2ZM412.8,55.8v-.7c-.3-1.1-1.2-1.9-2.6-1.9s-3,1.6-3,3.6,1.1,3.5,3,3.5,2.3-.8,2.6-2c0,0,0-2.5,0-2.5Z"/>
            <path class="st0" d="M418.9,54.5v-3.3h2.6v1.6h.2c.6-.9,1.7-1.9,3.7-1.9s2.8.8,3.3,2h0c.4-.6.9-1.1,1.5-1.4.7-.4,1.5-.7,2.5-.7,2,0,4,1.2,4,4.8v6.5h-3v-6.1c0-1.8-.7-2.9-2.2-2.9s-1.8.7-2.1,1.5c0,.2-.1.6-.1.9v6.6h-3v-6.4c0-1.5-.7-2.6-2.1-2.6s-1.9.8-2.2,1.6c0,.3-.1.6-.1.9v6.5h-3v-7.7h0q0,0,0,.1Z"/>
            <path class="st0" d="M442.9,48.2c0,.8-.7,1.5-1.7,1.5s-1.7-.7-1.7-1.5.7-1.5,1.7-1.5,1.7.7,1.7,1.5ZM439.6,62.2v-11h3v11h-3Z"/>
            <path class="st0" d="M445.7,54.5v-3.3h2.7v1.6h.2c.5-.9,1.9-1.9,3.9-1.9s4.3,1.2,4.3,4.7v6.5h-3v-6.2c0-1.6-.6-2.8-2.3-2.8s-2.1.8-2.4,1.6c0,.2-.1.6-.1.9v6.5h-3v-7.7h-.3q0,0,0,.1Z"/>
            <path class="st0" d="M462.9,48.2c0,.8-.7,1.5-1.7,1.5s-1.7-.7-1.7-1.5.7-1.5,1.7-1.5,1.7.7,1.7,1.5ZM459.6,62.2v-11h3v11h-3Z"/>
            <path class="st0" d="M465.6,59.6c.7.4,2,.8,3.1.8s1.9-.5,1.9-1.2-.5-1.1-2-1.6c-2.4-.7-3.3-1.9-3.3-3.2,0-1.9,1.8-3.4,4.6-3.4s2.5.3,3.2.7l-.6,1.9c-.5-.3-1.5-.6-2.6-.6s-1.7.5-1.7,1.2.6,1,2.1,1.5c2.2.7,3.2,1.7,3.2,3.3s-1.7,3.4-4.9,3.4-2.8-.3-3.7-.8l.6-2h.1,0Z"/>
            <path class="st0" d="M479.3,48.4v2.8h2.9v2.1h-2.9v4.8c0,1.4.4,2,1.6,2s.8,0,1.2,0v2.1c-.4.2-1.2.3-2.2.3s-2.1-.3-2.6-.9c-.7-.6-1-1.6-1-3.1v-5.2h-1.7v-2.1h1.7v-2l3-.8h0Z"/>
            <path class="st0" d="M484.3,54.8v-3.5h2.6v2.1h.2c.6-1.5,2-2.3,3.3-2.3s.5,0,.7,0v2.6h-.9c-1.4,0-2.5.8-2.7,2.1v6.5h-3v-7.4s-.2,0-.2,0Z"/>
            <path class="st0" d="M502,59.6c0,1,0,2,.2,2.6h-2.8l-.2-1.2h0c-.7.9-2,1.5-3.6,1.5-2.4,0-3.8-1.6-3.8-3.3,0-2.7,2.7-4.2,7.2-4.1v-.2c0-.7-.3-1.9-2.5-1.9s-2.4.3-3.2.8l-.6-1.8c.9-.5,2.5-1,4.4-1,3.9,0,5,2.2,5,4.6v3.9s-.1,0-.1.1ZM499,56.8c-2.2,0-4.2.4-4.2,2.1s.8,1.6,1.7,1.6,2.1-.7,2.4-1.5v-2.1h.1Z"/>
            <path class="st0" d="M508.3,48.4v2.8h2.9v2.1h-2.9v4.8c0,1.4.4,2,1.6,2s.8,0,1.2,0v2.1c-.4.2-1.2.3-2.2.3s-2.1-.3-2.6-.9c-.7-.6-1-1.6-1-3.1v-5.2h-1.7v-2.1h1.7v-2l3-.8h0Z"/>
            <path class="st0" d="M516.5,48.2c0,.8-.7,1.5-1.7,1.5s-1.7-.7-1.7-1.5.7-1.5,1.7-1.5,1.7.7,1.7,1.5ZM513.3,62.2v-11h3v11h-3Z"/>
            <path class="st0" d="M530.8,56.6c0,4-3.1,5.8-6.2,5.8s-6-2.1-6-5.7,2.6-5.8,6.2-5.8,6,2.3,6,5.6h0ZM521.7,56.7c0,2.1,1.2,3.7,3,3.7s2.9-1.5,2.9-3.8-.8-3.7-2.9-3.7-3,1.9-3,3.7h0Z"/>
            <path class="st0" d="M533.1,54.5v-3.3h2.7v1.6h.2c.5-.9,1.9-1.9,3.9-1.9s4.3,1.2,4.3,4.7v6.5h-3v-6.2c0-1.6-.6-2.8-2.3-2.8s-2.1.8-2.4,1.6c0,.2,0,.6,0,.9v6.5h-3v-7.7h-.3q0,0,0,.1Z"/>
          </g>
          <g>
            <path class="st0" d="M572.1,56c0-2-.2-4.3-.2-6.4h0c-.5,1.8-1.2,3.9-2,5.8l-2.5,6.6h-2.3l-2.2-6.5c-.6-1.9-1.2-4-1.7-5.9h0c0,2-.2,4.4-.3,6.5l-.4,6.1h-2.8l1.1-15.2h4l2.2,6.1c.6,1.8,1.1,3.6,1.5,5.3h0c.4-1.6,1-3.5,1.7-5.3l2.3-6.1h4l1,15.2h-3l-.3-6.2s0,0,0,0Z"/>
            <path class="st0" d="M593,54.4c0,5.1-3.4,8-8,8s-7.7-3.3-7.7-7.7,3.2-8,8-8,7.7,3.4,7.7,7.7ZM580.6,54.6c0,3.1,1.7,5.6,4.6,5.6s4.6-2.5,4.6-5.7-1.6-5.6-4.6-5.6-4.6,2.5-4.6,5.7Z"/>
            <path class="st0" d="M598,49.3h-4.8v-2.3h12.6v2.3h-4.8v12.9h-3s0-12.9,0-12.9Z"/>
            <path class="st0" d="M618.8,61.8c-.7.3-2.3.7-4.3.7-5.3,0-8.5-3-8.5-7.7s3.8-8,8.9-8,3.4.4,4,.7l-.6,2.2c-.8-.3-1.9-.6-3.3-.6-3.4,0-5.8,1.9-5.8,5.6s2.1,5.5,5.8,5.5,2.5-.2,3.3-.5l.5,2.2h0q0,0,0-.1Z"/>
          </g>
        </g>
      </g>
    </g>
    <g>
      <g>
        <rect class="st0" x="83" y=".6" width="11.1" height="36.8"/>
        <path class="st0" d="M70.6,15.2c-1.3-3.1-2.5-6.1-3.2-7.6C64.9,2.7,61.7.1,56.5.1s-8.4,2.6-10.9,7.5c-.8,1.5-2,4.5-3.2,7.6-2.5,6-4.5,9.7-8.3,10.7v12.1c10.3-1.6,14.8-8.3,18.2-17.8.6-1.6,1.2-3.4,1.6-4.5.8-2.1,1.3-3.3,2.6-3.3s1.8,1.2,2.6,3.3c.4,1.1,1.1,2.9,1.6,4.5,3.4,9.5,7.9,16.1,18.2,17.8v-12.1c-3.8-1-5.7-4.6-8.3-10.7Z"/>
        <polygon class="st0" points="37.6 10.9 37.6 .6 0 .6 0 10.9 13.3 10.9 13.3 37.4 24.3 37.4 24.3 10.9 37.6 10.9"/>
        <path class="st0" d="M249.7.6v25c0,.7-.3,1.1-.7,1.1s-.9-.7-1.7-2.3c-2-4.4-4.2-9.2-6.4-13.5-3-5.7-5.6-10.8-12.7-10.8s-10.7,4.8-10.7,12.8v24.4h11.1V12.3c0-.7.3-1.1.7-1.1s.9.7,1.7,2.3c2,4.4,4.2,9.2,6.4,13.5,3,5.7,5.6,10.8,12.7,10.8s10.7-4.8,10.7-12.8V.6h-11.1Z"/>
        <path class="st0" d="M154.5,22.5c0,1.8-.3,3.3-1.7,3.3s-2.7-3.1-5.1-9.4c-1.7-4.4-3-7.4-3.7-8.9-2.2-4.9-6-7.5-11.1-7.5s-8.9,2.6-11.1,7.5c-.7,1.6-2,4.5-3.7,8.9-2.5,6.4-3.5,9.4-5.1,9.4s-1.7-1.5-1.7-3.3V.6h-11.1v23.9c0,8.6,4.7,13.4,11.9,13.4s11.7-5.7,15.2-15c1.3-3.6,2.2-5.7,2.8-7.3.8-2,1.6-3.3,2.8-3.3s2,1.3,2.8,3.3c.6,1.5,1.5,3.7,2.8,7.3,3.5,9.3,6.9,15,15.2,15s11.9-4.8,11.9-13.4V.6h-11.1v21.9h0Z"/>
        <path class="st0" d="M205.1,15.2c-1.3-3.1-2.5-6.1-3.2-7.6-2.5-4.9-5.7-7.5-10.9-7.5s-8.4,2.6-10.9,7.5c-.8,1.5-2,4.5-3.2,7.6-2.5,6-4.5,9.7-8.3,10.7v12.1c10.3-1.6,14.8-8.3,18.2-17.8.6-1.6,1.2-3.4,1.6-4.5.8-2.1,1.3-3.3,2.6-3.3s1.8,1.2,2.6,3.3c.4,1.1,1.1,2.9,1.6,4.5,3.4,9.5,7.9,16.1,18.2,17.8v-12.1c-3.8-1-5.7-4.6-8.3-10.7h0Z"/>
      </g>
      <g>
        <path class="st0" d="M55.9,52.4l2,6.1v.4c0,0,.2-.4.2-.4l1.5-4.9c.3-1.1,1-1.5,1.7-1.5s1.4.3,1.7,1.5l1.4,4.8v.5c0,0,.3-.5.3-.5l2-6.1h2.2l-2.8,8.3c-.4,1.2-.9,1.3-1.6,1.3s-1.3-.4-1.6-1.3l-1.6-5.3v-.4c0,0-.2.3-.2.3l-1.6,5.3c-.3,1-.9,1.3-1.5,1.3s-1.3-.5-1.6-1.4l-2.8-8.2h2.3s0,.2,0,.2Z"/>
        <path class="st0" d="M75.5,53.6l3.4,8.2h-2.4l-.8-1.9h-4.3l-.8,1.9h-2.3l3.4-8.1c.4-.9.9-1.5,1.9-1.5s1.4.6,1.8,1.5c0,0,0,0,.1,0ZM75.1,58.2l-1.5-3.7-1.5,3.7h3Z"/>
        <path class="st0" d="M81.5,60.4l-3.1-8h2.3l2.8,7.2,2.8-7.2h2.3l-3.2,8c-.4,1-.9,1.6-1.9,1.6s-1.5-.6-1.9-1.6h-.1Z"/>
        <path class="st0" d="M98.4,52.4v1.8h-6.4v1.9h5.2v1.8h-5.2v2.1h6.4v1.8h-6.8c-1.2,0-1.8-.5-1.8-1.6v-7.8h8.6Z"/>
        <path class="st0" d="M106.5,59.2c0-.4-.2-.7-.9-.9l-2.8-.6c-2.1-.4-3-1.2-3-2.8s1.2-2.5,3.3-2.5h4.9v1.8h-5.1c-.7,0-.9.3-.9.7s.3.7,1.3.9l2.8.6c1.4.3,2.6,1,2.6,2.6s-1.2,2.7-3.3,2.7h-5.4v-1.8h5.4c.7,0,1.1-.3,1.1-.8h0Z"/>
        <path class="st0" d="M114.1,57.1c0-3.5,2.9-4.9,5.3-4.9s5.3,1.5,5.3,4.9-2.7,4.9-5.3,4.9-5.3-1.5-5.3-4.9ZM122.4,57.1c0-2.1-1.5-3.1-3-3.1s-3,.9-3,3.1,1.5,3.1,3,3.1,3-.9,3-3.1Z"/>
        <path class="st0" d="M135.2,52.4v1.9h-6.4v1.9h5.2v1.9h-5.2v3.8h-2.2v-7.8c0-1.1.6-1.6,1.8-1.6h6.8q0,0,0-.1Z"/>
        <path class="st0" d="M142.1,52.4l2,6.1v.4c.1,0,.2-.4.2-.4l1.5-4.9c.3-1.1,1-1.5,1.7-1.5s1.4.3,1.7,1.5l1.4,4.8v.5c.1,0,.3-.5.3-.5l2-6.1h2.2l-2.8,8.3c-.4,1.2-.9,1.3-1.6,1.3s-1.3-.4-1.6-1.3l-1.6-5.3v-.4c-.1,0-.2.3-.2.3l-1.6,5.3c-.3,1-.9,1.3-1.5,1.3s-1.3-.5-1.6-1.4l-2.8-8.2h2.3v.2h0Z"/>
        <path class="st0" d="M155.7,57.1c0-3.5,2.9-4.9,5.3-4.9s5.3,1.5,5.3,4.9-2.7,4.9-5.3,4.9-5.3-1.5-5.3-4.9ZM164,57.1c0-2.1-1.5-3.1-3-3.1s-3,.9-3,3.1,1.5,3.1,3,3.1,3-.9,3-3.1Z"/>
        <path class="st0" d="M174.4,60.9l-4.4-5.9v6.8h-2.1v-8.1c0-1,.7-1.5,1.5-1.5s1.4.4,2.1,1.3l4.4,5.9v-7h2.1v7.9c0,1.1-.5,1.8-1.6,1.8s-1.3-.2-2-1.1h0Z"/>
        <path class="st0" d="M182.1,52.4h2.7c2.8,0,5.3,1.2,5.3,4.6s-2.5,4.8-5.3,4.8h-4.5v-7.8c0-1.1.6-1.6,1.8-1.6ZM187.8,57c0-2.1-1.5-2.8-3-2.8h-2.3v5.8h2.3c1.5,0,3-.7,3-3Z"/>
        <path class="st0" d="M200.5,52.4v1.8h-6.4v1.9h5.2v1.8h-5.2v2.1h6.4v1.8h-6.8c-1.2,0-1.8-.5-1.8-1.6v-7.8h8.6Z"/>
        <path class="st0" d="M208.7,61.8l-3.9-3.5-.3-.2v3.7h-2.2v-7.7c0-1.2.6-1.7,1.8-1.7h3.4c2.1,0,3.9.9,3.9,3s-1.6,2.9-3.5,3l4,3.5h-3.2q0,0,0,0ZM209.1,55.4c0-.8-.8-1.2-1.9-1.2h-2.7v2.5h2.7c1.1,0,1.9-.4,1.9-1.3Z"/>
      </g>
    </g>
  </g>
</svg>