<?xml version="1.0" encoding="UTF-8"?>
<svg id="_圖層_2" xmlns="http://www.w3.org/2000/svg" version="1.1" viewBox="0 0 237.2 80">
  <!-- Generator: Adobe Illustrator 29.8.2, SVG Export Plug-In . SVG Version: 2.1.1 Build 3)  -->
  <defs>
    <style>
      .st0 {
        fill: #fff;
      }
    </style>
  </defs>
  <g id="_視覺">
    <g>
      <rect class="st0" x="75.5" y="24.2" width="10.1" height="33.5"/>
      <path class="st0" d="M64.2,37.4c-1.2-2.8-2.2-5.6-2.9-7-2.3-4.5-5.2-6.8-9.9-6.8s-7.6,2.4-9.9,6.8c-.7,1.4-1.8,4.1-2.9,7-2.3,5.5-4.1,8.8-7.5,9.7v11c9.3-1.5,13.5-7.5,16.5-16.2.5-1.4,1.1-3.1,1.5-4.1.7-1.9,1.2-3,2.3-3s1.6,1.1,2.3,3c.4,1,1,2.6,1.5,4.1,3.1,8.6,7.2,14.7,16.6,16.2v-11c-3.4-.9-5.2-4.2-7.5-9.7"/>
      <polygon class="st0" points="34.2 33.5 34.2 24.2 0 24.2 0 33.5 12.1 33.5 12.1 57.6 22.1 57.6 22.1 33.5 34.2 33.5"/>
      <path class="st0" d="M227.2,24.2v22.8c0,.7-.2,1-.6,1s-.9-.7-1.5-2.1c-1.8-4-3.8-8.4-5.8-12.3-2.7-5.2-5.1-9.8-11.6-9.8s-9.7,4.4-9.7,11.7v22.2h10.1v-22.8c0-.7.2-1,.6-1s.9.7,1.5,2.1c1.8,4,3.8,8.4,5.8,12.3,2.7,5.2,5.1,9.8,11.6,9.8s9.7-4.4,9.7-11.7v-22.2s-10.1,0-10.1,0Z"/>
      <path class="st0" d="M140.5,44.1c0,1.7-.3,3.1-1.6,3.1s-2.4-2.8-4.7-8.6c-1.6-4-2.7-6.7-3.4-8.1-2-4.4-5.4-6.8-10.1-6.8s-8.1,2.4-10.1,6.8c-.7,1.4-1.8,4.1-3.3,8.1-2.2,5.8-3.2,8.6-4.7,8.6s-1.6-1.4-1.6-3.1v-19.9h-10.1v21.7c0,7.8,4.3,12.2,10.8,12.2s10.7-5.2,13.9-13.6c1.2-3.2,2-5.2,2.5-6.6.7-1.8,1.4-3,2.5-3s1.8,1.2,2.5,3c.6,1.4,1.3,3.3,2.5,6.6,3.2,8.4,6.2,13.6,13.9,13.6s10.8-4.4,10.8-12.2v-21.7h-10.1v19.9h0Z"/>
      <path class="st0" d="M186.6,37.4c-1.2-2.8-2.2-5.6-2.9-7-2.3-4.5-5.2-6.8-9.9-6.8s-7.6,2.4-9.9,6.8c-.7,1.4-1.8,4.1-2.9,7-2.3,5.5-4.1,8.8-7.5,9.7v11c9.3-1.5,13.5-7.5,16.6-16.2.5-1.4,1.1-3.1,1.5-4.1.7-1.9,1.2-3,2.3-3s1.6,1.1,2.3,3c.4,1,1,2.6,1.5,4.1,3.1,8.6,7.2,14.7,16.6,16.2v-11c-3.4-.9-5.2-4.2-7.5-9.7"/>
      <path class="st0" d="M50.8,71.2l1.8,5.6v.4c.1,0,.2-.4.2-.4l1.3-4.4c.3-1.1.9-1.3,1.6-1.3s1.2.3,1.5,1.3l1.3,4.4v.4c.1,0,.2-.4.2-.4l1.8-5.6h2l-2.5,7.6c-.3,1.1-.8,1.2-1.4,1.2s-1.2-.3-1.4-1.2l-1.5-4.8v-.3c0,0-.2.3-.2.3l-1.5,4.8c-.3.9-.8,1.2-1.4,1.2s-1.2-.4-1.5-1.3l-2.5-7.5h2.1,0Z"/>
      <path class="st0" d="M68.7,72.4l3.1,7.4h-2.2l-.7-1.8h-3.9l-.7,1.8h-2.1l3.1-7.4c.3-.8.8-1.4,1.7-1.4s1.3.5,1.6,1.3M68.3,76.5l-1.3-3.3-1.3,3.3s2.7,0,2.7,0Z"/>
      <path class="st0" d="M74.2,78.5l-2.9-7.3h2.1l2.5,6.6,2.5-6.6h2.1l-2.9,7.3c-.4.9-.8,1.4-1.7,1.4s-1.4-.5-1.8-1.4"/>
      <path class="st0" d="M89.5,71.2v1.7h-5.8v1.7h4.7v1.6h-4.7v1.9h5.8v1.7h-6.2c-1.1,0-1.6-.5-1.6-1.5v-7.1h7.8Z"/>
      <path class="st0" d="M96.8,77.4c0-.3-.2-.7-.8-.8l-2.6-.5c-1.9-.4-2.7-1.1-2.7-2.6s1.1-2.3,3-2.3h4.4v1.7h-4.6c-.6,0-.8.3-.8.7s.2.7,1.2.8l2.6.5c1.2.2,2.4.9,2.4,2.4s-1.1,2.5-3,2.5h-4.9v-1.7h4.9c.6,0,1-.3,1-.7"/>
      <path class="st0" d="M103.8,75.5c0-3.2,2.6-4.5,4.8-4.5s4.8,1.3,4.8,4.5-2.5,4.5-4.8,4.5-4.8-1.3-4.8-4.5M111.4,75.5c0-1.9-1.4-2.8-2.8-2.8s-2.8.9-2.8,2.8,1.4,2.8,2.8,2.8,2.8-.8,2.8-2.8"/>
      <path class="st0" d="M122.9,71.2v1.7h-5.8v1.7h4.7v1.7h-4.7v3.4h-2v-7.1c0-1,.6-1.5,1.6-1.5,0,0,6.2,0,6.2,0Z"/>
      <path class="st0" d="M129.3,71.2l1.8,5.6v.4c.1,0,.2-.4.2-.4l1.3-4.4c.3-1.1.9-1.3,1.6-1.3s1.2.3,1.5,1.3l1.3,4.4v.4c.1,0,.2-.4.2-.4l1.8-5.6h2l-2.5,7.6c-.4,1.1-.8,1.2-1.4,1.2s-1.2-.3-1.4-1.2l-1.5-4.8v-.3c-.1,0-.2.3-.2.3l-1.5,4.8c-.3.9-.8,1.2-1.4,1.2s-1.2-.4-1.5-1.3l-2.5-7.5h2.1,0Z"/>
      <path class="st0" d="M141.6,75.5c0-3.2,2.6-4.5,4.8-4.5s4.8,1.3,4.8,4.5-2.5,4.5-4.8,4.5-4.8-1.3-4.8-4.5M149.2,75.5c0-1.9-1.4-2.8-2.8-2.8s-2.8.9-2.8,2.8,1.4,2.8,2.8,2.8,2.8-.8,2.8-2.8"/>
      <path class="st0" d="M158.7,79l-4-5.4v6.2s-1.9,0-1.9,0v-7.3c0-.9.6-1.4,1.3-1.4s1.3.4,1.9,1.2l4.1,5.3v-6.3s1.9,0,1.9,0v7.2c0,1-.5,1.6-1.5,1.6s-1.2-.2-1.8-1"/>
      <path class="st0" d="M165.6,71.2h2.4c2.5,0,4.8,1.1,4.8,4.2s-2.3,4.4-4.8,4.4h-4.1v-7.1c0-1,.5-1.5,1.6-1.5M170.9,75.4c0-1.9-1.4-2.5-2.8-2.5h-2.1v5.2h2.1c1.4,0,2.8-.7,2.8-2.7"/>
      <path class="st0" d="M182.4,71.2v1.7h-5.9v1.7h4.7v1.6h-4.7v1.9h5.9v1.7h-6.2c-1.1,0-1.6-.5-1.6-1.5v-7.1h7.8Z"/>
      <path class="st0" d="M189.8,79.8l-3.5-3.2-.2-.2v3.4h-2v-7c0-1.1.6-1.5,1.6-1.5h3.1c1.9,0,3.5.8,3.5,2.7s-1.5,2.6-3.2,2.7l3.6,3.2h0s-2.9,0-2.9,0h0ZM190.2,74c0-.8-.7-1.1-1.7-1.1h-2.4v2.2h2.4c1,0,1.7-.3,1.7-1.2"/>
    </g>
  </g>
</svg>