<?xml version="1.0" encoding="UTF-8"?>
<svg id="_圖層_2" data-name="圖層_2" xmlns="http://www.w3.org/2000/svg" viewBox="0 0 18.94 30.28">
  <defs>
    <style>
      .cls-1 {
        fill: #fff;
      }
    </style>
  </defs>
  <g id="_視覺" data-name="視覺">
    <g>
      <path class="cls-1" d="M9.47,21.04c-2.93,0-5.3-2.38-5.3-5.3V5.3C4.16,2.38,6.54,0,9.47,0s5.3,2.38,5.3,5.3v10.46c0,2.9-2.38,5.27-5.3,5.27ZM9.47,2.21c-1.71,0-3.09,1.39-3.09,3.09v10.43c0,1.71,1.39,3.09,3.09,3.09s3.09-1.37,3.09-3.06V5.3c0-1.71-1.39-3.09-3.09-3.09Z"/>
      <rect class="cls-1" x="8.36" y="24.2" width="2.21" height="4.97"/>
      <path class="cls-1" d="M12.38,30.28h-5.82c-.61,0-1.11-.49-1.11-1.11s.49-1.11,1.11-1.11h5.82c.61,0,1.11.49,1.11,1.11s-.49,1.11-1.11,1.11Z"/>
      <path class="cls-1" d="M9.47,25.35C4.25,25.35,0,21.1,0,15.88v-.88c0-.61.49-1.11,1.11-1.11s1.11.49,1.11,1.11v.88c0,4,3.26,7.26,7.26,7.26s7.26-3.26,7.26-7.26v-.88c0-.61.49-1.11,1.11-1.11s1.11.49,1.11,1.11v.88c0,5.22-4.25,9.47-9.47,9.47Z"/>
    </g>
  </g>
</svg>