<?xml version="1.0" encoding="UTF-8"?>
<svg id="_圖層_2" data-name="圖層_2" xmlns="http://www.w3.org/2000/svg" viewBox="0 0 368.41 73.7">
  <defs>
    <style>
      .cls-1 {
        fill: #fff;
      }
    </style>
  </defs>
  <g id="_視覺" data-name="視覺">
    <g id="_視覺-2" data-name="_視覺">
      <g>
        <g>
          <g>
            <path class="cls-1" d="M84.46,40.67c-6.01,0-8.43-3.45-9.13-4.98,2-3.77,1.86-7.27,1.82-8.15-.23-1.86-1.86-2.66-2.93-2.66h-3.87c2.28-2.8,4.98-5.73,6.43-9.64,1.07-2.93-.79-4.66-3.12-4.66h-10.16v4.01h6.52c-.42,2.98-2.33,6.57-4.98,10.3-.75,1.07-.65,3.35,1.86,3.35h4.94c-.09,7.41-5.08,11.69-9.27,13.74v2.84c4.94-1.4,8.2-3.49,10.39-5.78l.28.37c3.68,5.5,10.99,5.5,13.84,5.5h31.49v-4.24h-34.1Z"/>
            <path class="cls-1" d="M69.88,8.57h4.38c-1.21-5.54-2.93-7.36-2.93-7.36h-7.03c3.96,3.31,5.64,7.36,5.64,7.36h-.05Z"/>
            <path class="cls-1" d="M86.37,32.05h9.83v6.48h6.2v-6.48h9.74v6.48h6.2V14.67c0-3.49-1.68-4.05-4.71-4.05h-3.68l5.78-4.47c1.63-1.44.93-4.33-2-4.33h-32.98v4.24h28.84l-5.96,4.61h-10.34l-1.35-3.03h-5.5l1.44,3.03h-3.73c-2.42,0-4.1.56-4.1,4.05v23.85h6.29v-6.48l.05-.05ZM102.4,14.67h9.74v4.52h-9.74s0-4.52,0-4.52ZM102.4,23.2h9.74v4.75h-9.74v-4.75ZM86.37,14.72h9.83v4.52h-9.83v-4.52ZM86.37,23.2h9.83v4.75h-9.83v-4.75Z"/>
          </g>
          <path class="cls-1" d="M208.89,34.99h-7.59v-3.77h7.59v3.77ZM208.89,28.18h-7.59v-3.87h7.59v3.87ZM201.35,38.06h7.59v3.77h-7.59v-3.77ZM203.35,7.78h-7.03c-3.03,0-3.4,2.19-3.4,3.12v7.17h0l13.74.05v-7.22c0-.93-.33-3.12-3.31-3.12ZM197.62,15.05v-4.15h4.29v4.15h-4.29ZM223.24,10.95c0-.93.14-3.12-3.31-3.12h-7.13c-3.4,0-3.31,2.19-3.31,3.12v7.17h0l13.74.05s0-7.22,0-7.22ZM218.54,10.95v4.15h-4.29v-4.15h4.29ZM219.1,2.14h4.47v3.03h-4.47v1.77h-5.59v-1.77h-10.85v1.77h-5.59v-1.77h-4.47v-3.03h4.47V.09h5.59v2.05h10.85V.09h5.59s0,2.05,0,2.05ZM244.86,38.29v2.05c0,1.63-.93,1.54-.93,1.54h-.37s-1.12,0-1.12-1.4v-9.18h4.05V4.29c0-2.52-1.49-3.63-4.19-3.63h-13.51c-2.75,0-4.01.7-4.01,3.63v26.97h3.77c-.37,8.01-4.19,11.65-4.19,11.65v2c7.78-3.35,9.74-10.58,10.2-13.65h1.63v10.67s-.05,2.98,3.45,2.98h5.64s2.47-.23,2.47-3.03v-3.63h-2.84l-.05.05ZM231.07,4.24h9.13v5.4h-9.13v-5.4ZM231.07,13.28h9.13v5.45h-9.13v-5.45ZM231.07,22.27h9.13v5.45h-9.13v-5.45ZM215.18,38.06h8.01v-3.07h-8.01v-3.77h8.01v-3.03h-8.01v-3.87h8.01v-3.03h-8.06l1.91-2.38h-6.48l-1.82,2.38h-7.59c.79-1.4,1.21-2.33,1.21-2.33h-6.43c-2.66,8.29-6.66,11.13-6.66,11.13v3.73c2.1-.93,4.01-2.47,5.73-4.24v15.23h28.18v-3.03h-8.01v-3.77.05Z"/>
          <g>
            <path class="cls-1" d="M152.94,25.2h-18.12c-2.93,0-4.24,1.3-4.24,3.91v15.84h27.35v-15.84c0-3.17-2.19-3.91-4.98-3.91ZM151.31,40.81h-14.21v-11.74h14.21v11.74Z"/>
            <path class="cls-1" d="M156.62,6.2h3.07v-3.87h-11.88V0h-7.45v2.33h-12.02v3.87h21.76c-.05,1.91-.09,7.64-2.98,12.39h-5.92c-2.24-4.01-3.07-9.04-3.07-9.04h-6.06c.75,3.12,3.21,7.22,4.38,9.04h-9.64v3.87h34.19v-3.87h-9.18c1.16-1.82,3.45-5.92,4.71-12.39h.09Z"/>
            <path class="cls-1" d="M176.47,17.05c2.75-3.73,4.52-8.8,5.31-12.25.42-1.96-.79-3.77-3.82-3.77h-15.23v43.7h6.29V4.98h6.8c-.84,7.36-4.47,13.46-4.47,13.46,0,0,6.1,5.45,5.96,13.56-.09,4.52-2.66,5.96-4.57,5.96h-2.47v3.63h2.66c7.59,0,9.74-4.19,9.74-8.53.09-10.76-6.2-15.98-6.2-15.98v-.05Z"/>
          </g>
          <g>
            <path class="cls-1" d="M273.88,17.14v-1.63c-7.59-4.71-9.27-12.25-9.27-12.25h-6.99c4.01,12.81,16.21,13.88,16.21,13.88h.05Z"/>
            <path class="cls-1" d="M303.84,31.91v5.22c0,2.28-.61,4.38-4.98,4.38h-6.57s-3.17.09-3.17-2.98v-14.4h17.89v-4.52h-22.45V.14h-6.94v19.47h-23.25v4.52h16.63c-2.14,14.63-16.31,18.26-16.31,18.26v2.56c19.66-3.12,23.48-17.33,24.13-20.82h3.68v13.28c0,2.19.37,7.45,6.62,7.45h12.44c.47,0,5.73-.14,5.73-6.85v-6.1h-3.54.09Z"/>
            <path class="cls-1" d="M305.42,3.31h-6.99s-1.68,7.55-9.27,12.25v1.63s12.25-1.07,16.21-13.88h.05Z"/>
          </g>
          <path class="cls-1" d="M44.77,19.15c4.98,4.05,10.62,5.08,10.62,5.08v-2.28c-8.06-4.05-9.74-12.25-10.3-14.58h8.29V2.89h-22.22V.51h-7.03v2.38H2v4.47h8.29c-.56,2.33-2.24,10.53-10.3,14.58v2.28s5.64-.98,10.62-5.08c2.84,7.08,7.13,12.21,11.83,15.93-5.45,3.73-12.53,6.43-21.62,6.89v2.89h.09s13.79,1.07,26.74-5.96c12.95,6.99,26.74,5.96,26.74,5.96h.09v-2.89c-9.08-.47-16.17-3.21-21.62-6.89,4.71-3.73,8.99-8.85,11.83-15.93h.05ZM27.72,30.79c-7.41-7.22-10.48-15.93-11.13-19.61.47-1.16.89-2.47,1.16-3.87h20.03c.28,1.4.65,2.66,1.16,3.87-.65,3.68-3.73,12.35-11.13,19.61h-.09Z"/>
          <path class="cls-1" d="M363.89.84h-44.91c-3.49,0-4.47.98-4.47,3.31v7.59h23.85v2.56h-21.15v3.91h21.15v2.52h-23.85v3.91h6.29c-.89,1.72-2.7,4.19-6.29,6.1v1.63s1.35-.05,3.31-.56v13h48.59v-14.21c0-2.33-1.02-3.31-4.47-3.31h-35.5c.84-.79,1.63-1.68,2.33-2.7h39.65v-3.91h-9.69v-2.52h6.99v-3.91h-21.15v-2.56h23.85v-7.5c0-2.33-1.02-3.31-4.47-3.31l-.05-.05ZM323.96,40.95v-2.7h36.15v2.7h-36.15ZM360.16,34.33h-36.15v-3.03h36.15v3.03ZM352.47,18.22v2.52h-7.97v-2.52s7.97,0,7.97,0ZM346.28,4.8v3.03h-9.69v-3.03h9.69ZM320.7,4.8h9.69v3.03h-9.69v-3.03ZM352.47,7.83v-3.03h9.69v3.03h-9.69Z"/>
        </g>
        <g>
          <path class="cls-1" d="M283.25,73.7c.89-1.68,1.68-4.29,1.96-7.13h3.82c-.79,2.8-2.14,5.45-3.31,7.13h-2.47Z"/>
          <g>
            <g>
              <path class="cls-1" d="M6.38,55.95H.93v-2.66h14.4v2.66h-5.5v14.67h-3.49v-14.67h.05Z"/>
              <path class="cls-1" d="M28.09,64.24c0,4.61-3.59,6.66-7.08,6.66-3.87,0-6.89-2.42-6.89-6.48s2.98-6.62,7.13-6.62,6.85,2.61,6.85,6.43ZM17.7,64.38c0,2.42,1.35,4.24,3.4,4.24s3.35-1.77,3.35-4.29c0-1.96-.98-4.24-3.35-4.24s-3.45,2.19-3.45,4.29h.05Z"/>
              <path class="cls-1" d="M43,66.85c0,1.49.05,2.75.09,3.77h-3.03l-.19-1.86h-.09c-.61.89-1.96,2.14-4.43,2.14s-4.8-1.35-4.8-5.45v-7.36h3.49v6.8c0,2.1.75,3.4,2.56,3.4,1.4,0,2.33-.89,2.66-1.68.14-.28.19-.61.19-.98v-7.55h3.49v8.76h.05Z"/>
              <path class="cls-1" d="M46.49,62.15c0-1.68,0-2.93-.09-4.05h2.98l.14,2.38h.09c.7-1.77,2.28-2.66,3.77-2.66.33,0,.56,0,.84.09v2.93c-.33-.05-.61-.09-1.02-.09-1.63,0-2.8.93-3.12,2.38-.05.28-.09.61-.09.93v6.52h-3.49v-8.48.05Z"/>
              <path class="cls-1" d="M59.96,54.6c0,.93-.75,1.68-2,1.68s-1.91-.79-1.91-1.68c0-.98.79-1.72,1.96-1.72s1.91.75,1.96,1.72ZM56.28,70.63v-12.53h3.49v12.53h-3.49Z"/>
              <path class="cls-1" d="M63.08,67.69c.75.42,2.28.93,3.49.93,1.54,0,2.19-.61,2.19-1.4s-.56-1.26-2.28-1.82c-2.7-.84-3.77-2.14-3.77-3.63,0-2.19,2-3.91,5.22-3.91,1.54,0,2.84.33,3.68.75l-.7,2.19c-.56-.33-1.68-.7-2.93-.7s-1.91.56-1.91,1.35.65,1.16,2.42,1.77c2.52.79,3.63,1.96,3.68,3.82,0,2.28-1.96,3.91-5.59,3.91-1.68,0-3.17-.37-4.19-.89l.7-2.33v-.05Z"/>
              <path class="cls-1" d="M74.72,61.82c0-1.44-.05-2.66-.09-3.73h2.98l.19,1.86h.09c.65-.98,1.91-2.14,4.24-2.14,1.82,0,3.21.93,3.82,2.33h.05c.47-.7,1.02-1.21,1.68-1.58.79-.47,1.68-.75,2.84-.75,2.28,0,4.57,1.4,4.57,5.4v7.36h-3.4v-6.94c0-2.1-.79-3.31-2.47-3.31-1.21,0-2.05.79-2.42,1.68-.09.28-.19.7-.19,1.07v7.5h-3.4v-7.27c0-1.77-.75-2.98-2.38-2.98-1.3,0-2.19.93-2.52,1.77-.09.33-.19.7-.19,1.07v7.41h-3.4v-8.8.05Z"/>
            </g>
            <g>
              <path class="cls-1" d="M108.31,65.69l-1.63,4.89h-3.59l6.1-17.33h4.43l6.2,17.33h-3.77l-1.72-4.89h-6.01ZM113.76,63.31l-1.49-4.29c-.37-1.07-.7-2.24-.98-3.26h-.05c-.28,1.02-.61,2.19-.89,3.26l-1.49,4.29h4.89Z"/>
              <path class="cls-1" d="M134.4,52.36v14.72c0,1.3.05,2.66.09,3.54h-3.07l-.19-2h-.05c-.84,1.4-2.47,2.28-4.47,2.28-3.31,0-5.92-2.56-5.92-6.38,0-4.19,2.84-6.71,6.15-6.71,1.91,0,3.26.7,3.87,1.63h.05v-7.08h3.54ZM130.91,63.31c0-.28,0-.61-.09-.84-.33-1.21-1.4-2.19-2.98-2.19-2.24,0-3.49,1.82-3.49,4.1s1.26,4.01,3.45,4.01c1.4,0,2.66-.89,2.98-2.24.09-.28.09-.61.09-.93v-1.86l.05-.05Z"/>
              <path class="cls-1" d="M137.85,61.82c0-1.44-.05-2.66-.09-3.73h2.98l.19,1.86h.09c.65-.98,1.91-2.14,4.24-2.14,1.82,0,3.21.93,3.82,2.33h.05c.47-.7,1.02-1.21,1.68-1.58.79-.47,1.68-.75,2.84-.75,2.28,0,4.57,1.4,4.57,5.4v7.36h-3.4v-6.94c0-2.1-.79-3.31-2.47-3.31-1.21,0-2.05.79-2.42,1.68-.09.28-.19.7-.19,1.07v7.5h-3.4v-7.27c0-1.77-.75-2.98-2.38-2.98-1.3,0-2.19.93-2.52,1.77-.09.33-.19.7-.19,1.07v7.41h-3.4v-8.8.05Z"/>
              <path class="cls-1" d="M165.24,54.6c0,.93-.75,1.68-2,1.68s-1.91-.79-1.91-1.68c0-.98.79-1.72,1.96-1.72s1.91.75,1.96,1.72ZM161.56,70.63v-12.53h3.49v12.53h-3.49Z"/>
              <path class="cls-1" d="M168.5,61.82c0-1.44-.05-2.66-.09-3.73h3.03l.19,1.86h.09c.61-.98,2.14-2.14,4.43-2.14,2.42,0,4.89,1.4,4.89,5.36v7.45h-3.49v-7.08c0-1.82-.75-3.17-2.61-3.17-1.4,0-2.33.89-2.7,1.86-.09.28-.19.65-.19,1.02v7.36h-3.49v-8.8h-.05Z"/>
              <path class="cls-1" d="M188.12,54.6c0,.93-.75,1.68-2,1.68s-1.91-.79-1.91-1.68c0-.98.79-1.72,1.96-1.72s1.91.75,1.96,1.72ZM184.44,70.63v-12.53h3.49v12.53h-3.49Z"/>
              <path class="cls-1" d="M191.24,67.69c.75.42,2.28.93,3.49.93,1.54,0,2.19-.61,2.19-1.4s-.56-1.26-2.28-1.82c-2.7-.84-3.77-2.14-3.77-3.63,0-2.19,2-3.91,5.22-3.91,1.54,0,2.84.33,3.68.75l-.7,2.19c-.56-.33-1.68-.7-2.93-.7s-1.91.56-1.91,1.35.65,1.16,2.42,1.77c2.52.79,3.63,1.96,3.68,3.82,0,2.28-1.96,3.91-5.59,3.91-1.68,0-3.17-.37-4.19-.89l.7-2.33v-.05Z"/>
              <path class="cls-1" d="M206.89,54.88v3.21h3.31v2.38h-3.31v5.54c0,1.54.47,2.33,1.77,2.33.61,0,.98,0,1.35-.14v2.38c-.47.19-1.4.33-2.47.33-1.3,0-2.33-.37-2.98-1.02-.75-.7-1.12-1.86-1.12-3.54v-5.87h-1.96v-2.38h1.96v-2.33l3.4-.89h.05Z"/>
              <path class="cls-1" d="M212.53,62.15c0-1.68,0-2.93-.09-4.05h2.98l.14,2.38h.09c.7-1.77,2.28-2.66,3.77-2.66.33,0,.56,0,.84.09v2.93c-.33-.05-.61-.09-1.02-.09-1.63,0-2.8.93-3.12,2.38-.05.28-.09.61-.09.93v6.52h-3.49v-8.48.05Z"/>
              <path class="cls-1" d="M232.75,67.6c0,1.12.05,2.24.23,3.03h-3.12l-.23-1.4h-.09c-.84.98-2.28,1.68-4.05,1.68-2.8,0-4.33-1.82-4.33-3.73,0-3.12,3.07-4.75,8.2-4.75v-.19c0-.84-.37-2.19-2.8-2.19-1.35,0-2.8.37-3.73.93l-.7-2.05c1.02-.56,2.8-1.12,4.98-1.12,4.43,0,5.68,2.56,5.68,5.31v4.52l-.05-.05ZM229.39,64.52c-2.47,0-4.8.42-4.8,2.33,0,1.21.89,1.82,2,1.82,1.4,0,2.42-.84,2.75-1.72.09-.23.09-.47.09-.7v-1.72h-.05Z"/>
              <path class="cls-1" d="M239.97,54.88v3.21h3.31v2.38h-3.31v5.54c0,1.54.47,2.33,1.77,2.33.61,0,.98,0,1.35-.14v2.38c-.47.19-1.4.33-2.47.33-1.3,0-2.33-.37-2.98-1.02-.75-.7-1.12-1.86-1.12-3.54v-5.87h-1.96v-2.38h1.96v-2.33l3.4-.89h.05Z"/>
              <path class="cls-1" d="M249.33,54.6c0,.93-.75,1.68-2,1.68s-1.91-.79-1.91-1.68c0-.98.79-1.72,1.96-1.72s1.91.75,1.96,1.72ZM245.65,70.63v-12.53h3.49v12.53h-3.49Z"/>
              <path class="cls-1" d="M265.68,64.24c0,4.61-3.59,6.66-7.08,6.66-3.87,0-6.89-2.42-6.89-6.48s2.98-6.62,7.13-6.62,6.85,2.61,6.85,6.43ZM255.34,64.38c0,2.42,1.35,4.24,3.4,4.24s3.35-1.77,3.35-4.29c0-1.96-.98-4.24-3.35-4.24s-3.45,2.19-3.45,4.29h.05Z"/>
              <path class="cls-1" d="M268.29,61.82c0-1.44-.05-2.66-.09-3.73h3.03l.19,1.86h.09c.61-.98,2.14-2.14,4.43-2.14,2.42,0,4.89,1.4,4.89,5.36v7.45h-3.49v-7.08c0-1.82-.75-3.17-2.61-3.17-1.4,0-2.33.89-2.7,1.86-.09.28-.19.65-.19,1.02v7.36h-3.49v-8.8h-.05Z"/>
            </g>
            <g>
              <path class="cls-1" d="M312.83,63.54c-.09-2.24-.23-4.94-.23-7.27h-.09c-.61,2.1-1.4,4.47-2.28,6.62l-2.8,7.5h-2.66l-2.56-7.41c-.75-2.19-1.4-4.57-1.91-6.76h-.05c-.09,2.28-.19,5.03-.33,7.36l-.42,6.99h-3.26l1.26-17.33h4.57l2.47,6.99c.7,2.05,1.26,4.1,1.77,6.01h.09c.51-1.86,1.16-4.01,1.91-6.06l2.61-6.94h4.52l1.12,17.33h-3.4l-.37-7.08.05.05Z"/>
              <path class="cls-1" d="M336.77,61.77c0,5.82-3.87,9.13-9.13,9.13s-8.8-3.77-8.8-8.8c0-5.36,3.73-9.08,9.08-9.08s8.8,3.82,8.8,8.8l.05-.05ZM322.52,62.01c0,3.54,1.96,6.34,5.31,6.34s5.26-2.84,5.26-6.48c0-3.26-1.77-6.34-5.26-6.34s-5.31,2.89-5.31,6.48Z"/>
              <path class="cls-1" d="M342.36,55.95h-5.45v-2.66h14.4v2.66h-5.5v14.67h-3.49v-14.67h.05Z"/>
              <path class="cls-1" d="M366.17,70.11c-.84.37-2.61.79-4.94.79-6.06,0-9.74-3.45-9.74-8.76,0-5.73,4.38-9.18,10.2-9.18,2.28,0,3.91.42,4.61.79l-.75,2.52c-.89-.37-2.19-.65-3.73-.65-3.87,0-6.66,2.24-6.66,6.38,0,3.82,2.42,6.24,6.66,6.24,1.4,0,2.84-.28,3.77-.61l.56,2.52v-.05Z"/>
            </g>
          </g>
        </g>
      </g>
    </g>
  </g>
</svg>