<?xml version="1.0" encoding="UTF-8"?>
<svg xmlns="http://www.w3.org/2000/svg" version="1.1" viewBox="0 0 20 30">
  <defs>
    <style>
      .cls-1 {
        fill: #fff;
      }
    </style>
  </defs>
  <!-- Generator: Adobe Illustrator 28.6.0, SVG Export Plug-In . SVG Version: 1.2.0 Build 709)  -->
  <g>
    <g id="_圖層_2">
      <g id="_視覺">
        <path class="cls-1" d="M8,15c-1.9-1.9-3.8-3.8-5.6-5.6-.6-.6-1.2-1.1-1.6-1.8-1.1-1.8-1.1-3.6,0-5.3C1.9.6,3.6-.2,5.6,0c1.2.1,2.2.6,3,1.5,3.3,3.3,6.6,6.6,9.9,9.9,2,2.1,2.1,5.1,0,7.1-3.3,3.3-6.6,6.7-9.9,10-1.4,1.4-3.1,1.8-5,1.3-1.8-.6-3-1.8-3.4-3.7-.4-1.7,0-3.2,1.2-4.4,2.1-2.1,4.2-4.2,6.3-6.3,0,0,.2-.2.4-.3M11.5,15c-.2.1-.3.2-.4.3-2.6,2.6-5.1,5.1-7.7,7.7s-.3.3-.5.5c-.9,1.2-.5,2.9.8,3.6,1.1.6,2.2.4,3.1-.6,3.2-3.2,6.4-6.4,9.6-9.7s.2-.3.3-.4c.7-.9.7-2.2,0-3.1-.1-.2-.3-.3-.4-.5-3.2-3.2-6.4-6.4-9.6-9.6-1.2-1.2-3-1.2-3.9.2-.8,1-.6,2.4.4,3.3,2.6,2.6,5.2,5.2,7.7,7.8.1.1.2.2.4.3"/>
      </g>
    </g>
  </g>
</svg>