<?xml version="1.0" encoding="UTF-8"?>
<svg id="_圖層_2" data-name="圖層_2" xmlns="http://www.w3.org/2000/svg" viewBox="0 0 46.72 37.78">
  <defs>
    <style>
      .cls-1 {
        fill: #a5c1dc;
      }
    </style>
  </defs>
  <g id="_視覺" data-name="視覺">
    <path class="cls-1" d="M0,36.6V6.3c.35-.89,1.01-1.27,1.96-1.2.59.04,1.19,0,1.78,0,.36,0,.72,0,1.1,0,0-1.1,0-2.13,0-3.17,0-1.12.54-1.73,1.65-1.83,2.45-.22,4.89-.15,7.3.35,3.22.67,6.11,1.97,8.48,4.31.37.37.72.77,1.1,1.17.11-.12.21-.21.29-.32,1.92-2.25,4.35-3.71,7.13-4.61,1.76-.57,3.56-.91,5.4-.98,1.45-.05,2.92.03,4.37.14.84.07,1.32.74,1.32,1.59,0,.65,0,1.31,0,1.96,0,.45,0,.9,0,1.33.1.02.12.04.15.04,1,0,2.01,0,3.01,0,1.05,0,1.67.64,1.67,1.68,0,9.76,0,19.52,0,29.29,0,.2,0,.4-.06.58-.28.94-1.15,1.31-2.24.99-4.12-1.21-8.31-1.9-12.62-1.7-2.63.12-5.18.59-7.6,1.64-.55.24-1.07.26-1.62.01-2.75-1.21-5.67-1.67-8.65-1.71-3.91-.04-7.74.59-11.48,1.71-1.29.39-1.84.17-2.44-1ZM8.02,27.4c5.05-.05,9.76.87,13.75,4.29.01-.16.02-.23.02-.3,0-7.28,0-14.57,0-21.85,0-.17-.06-.36-.15-.51-1.07-1.73-2.53-3.06-4.33-4.01-2.86-1.5-5.94-1.93-9.13-1.84-.06,0-.11.04-.17.06v24.15ZM38.7,27.39V3.21c-1.73-.11-3.43.03-5.09.37-3.09.63-5.8,1.94-7.82,4.45-.54.68-.87,1.36-.87,2.3.04,6.92.02,13.83.02,20.75v.63c4.02-3.44,8.73-4.36,13.76-4.31ZM41.89,8.28v.6c0,5.86,0,11.71,0,17.57,0,.88,0,1.76,0,2.65-.01.96-.7,1.62-1.67,1.59-.27,0-.55-.02-.82-.04-3.18-.23-6.27.14-9.22,1.42-.58.25-1.12.59-1.68.89.02.04.03.08.05.12,5.06-.71,10.04-.22,15,1.02V8.28h-1.65ZM3.18,34.1c4.97-1.26,9.95-1.73,15.02-1.08-.02-.07-.06-.09-.1-.11-1.74-1.11-3.67-1.73-5.69-2.05-1.87-.3-3.75-.4-5.63-.17-1.21.15-1.97-.7-1.96-1.86.03-6.66.02-13.32.02-19.98v-.56h-1.65v25.82Z"/>
  </g>
</svg>