<?xml version="1.0" encoding="UTF-8"?>
<svg id="_圖層_2" data-name="圖層_2" xmlns="http://www.w3.org/2000/svg" viewBox="0 0 33.18 35.39">
  <defs>
    <style>
      .cls-1 {
        fill: #a5c1dc;
      }
    </style>
  </defs>
  <g id="_視覺" data-name="視覺">
    <g>
      <path class="cls-1" d="M15.76,26.16c.21.24.51.38.83.38s.62-.14.83-.38l7.74-8.85c.29-.33.35-.79.17-1.19s-.57-.65-1.01-.65h-4.42V1.11c0-.61-.5-1.11-1.11-1.11h-4.42c-.61,0-1.11.5-1.11,1.11v14.38h-4.42c-.43,0-.83.25-1.01.65-.18.4-.11.86.17,1.19l7.74,8.85Z"/>
      <path class="cls-1" d="M28.76,24.33v6.64H4.42v-6.64H0v8.85c0,1.22.99,2.21,2.21,2.21h28.76c1.22,0,2.21-.99,2.21-2.21v-8.85h-4.42Z"/>
    </g>
  </g>
</svg>