<?xml version="1.0" encoding="UTF-8"?>
<svg id="_圖層_2" xmlns="http://www.w3.org/2000/svg" version="1.1" viewBox="0 0 324.9 77.2">
  <!-- Generator: Adobe Illustrator 29.8.2, SVG Export Plug-In . SVG Version: 2.1.1 Build 3)  -->
  <defs>
    <style>
      .st0 {
        fill: #ff5629;
      }
    </style>
  </defs>
  <g id="_視覺">
    <g>
      <rect class="st0" x="103.4" y=".8" width="13.8" height="45.8"/>
      <path class="st0" d="M87.9,18.9c-1.6-3.9-3.1-7.6-4-9.5C80.7,3.3,76.7,0,70.3,0s-10.4,3.3-13.6,9.4c-1,1.9-2.4,5.6-4,9.5-3.1,7.5-5.6,12-10.3,13.3v15c12.8-2,18.4-10.3,22.7-22.1.7-2,1.5-4.2,2-5.6,1-2.6,1.7-4.1,3.2-4.1s2.2,1.5,3.2,4.1c.5,1.3,1.3,3.6,2,5.6,4.2,11.8,9.9,20.1,22.7,22.1v-15c-4.7-1.2-7.2-5.8-10.3-13.3"/>
      <polygon class="st0" points="46.9 13.6 46.9 .8 0 .8 0 13.6 16.5 13.6 16.5 46.6 30.3 46.6 30.3 13.6 46.9 13.6"/>
      <path class="st0" d="M311.1.8v31.1c0,.9-.4,1.3-.8,1.3s-1.2-.9-2.1-2.9c-2.5-5.4-5.2-11.5-8-16.8-3.7-7.1-7-13.4-15.9-13.4s-13.3,6-13.3,16v30.5h13.8V15.4c0-.9.4-1.3.8-1.3s1.2.9,2.1,2.8c2.5,5.4,5.2,11.5,8,16.8,3.7,7.1,7,13.4,15.9,13.4s13.3-6,13.3-16V.8h-13.8Z"/>
      <path class="st0" d="M192.4,28c0,2.3-.4,4.2-2.2,4.2s-3.3-3.8-6.4-11.8c-2.2-5.5-3.7-9.2-4.6-11.1-2.7-6-7.4-9.3-13.8-9.3s-11.1,3.3-13.8,9.3c-.9,1.9-2.4,5.6-4.6,11.1-3.1,7.9-4.4,11.8-6.4,11.8s-2.2-1.9-2.2-4.2V.8h-13.8v29.8c0,10.7,5.9,16.7,14.8,16.7s14.6-7.1,19-18.6c1.7-4.4,2.7-7.2,3.5-9,1-2.4,1.9-4.1,3.5-4.1s2.5,1.7,3.5,4.1c.8,1.9,1.8,4.6,3.5,9,4.4,11.5,8.6,18.6,19,18.6s14.8-6,14.8-16.7V.8h-13.8v27.3h0Z"/>
      <path class="st0" d="M255.5,18.9c-1.6-3.9-3.1-7.6-4-9.5C248.4,3.3,244.3,0,237.9,0s-10.4,3.3-13.6,9.4c-1,1.9-2.4,5.6-4,9.5-3.1,7.5-5.6,12-10.3,13.3v15c12.8-2,18.4-10.3,22.7-22.1.7-2,1.5-4.2,2-5.6,1-2.6,1.7-4.1,3.2-4.1s2.2,1.5,3.2,4.1c.5,1.3,1.3,3.6,2,5.6,4.2,11.8,9.9,20.1,22.7,22.1v-15c-4.7-1.2-7.2-5.8-10.3-13.3"/>
      <path class="st0" d="M69.6,65.2l2.5,7.7.2.5v-.5c.1,0,1.9-6.1,1.9-6.1.4-1.4,1.3-1.8,2.2-1.8s1.7.4,2.1,1.8l1.8,6,.2.6.2-.6,2.5-7.6h2.8l-3.4,10.3c-.5,1.4-1.1,1.7-2,1.7s-1.6-.5-2-1.7l-2.1-6.6v-.4c-.1,0-.3.4-.3.4l-2,6.6c-.4,1.3-1.1,1.6-1.9,1.6s-1.7-.6-2-1.7l-3.4-10.2h2.9Z"/>
      <path class="st0" d="M94.1,66.8l4.2,10.2h-3l-.9-2.4h-5.3l-1,2.4h-2.9l4.3-10.1c.5-1.1,1.1-1.9,2.3-1.9s1.8.7,2.2,1.8M93.6,72.4l-1.8-4.6-1.8,4.6s3.7,0,3.6,0Z"/>
      <path class="st0" d="M101.6,75.2l-3.9-10h2.9l3.4,9,3.5-9h2.8l-4,10c-.5,1.2-1.1,2-2.4,2s-1.9-.7-2.4-2"/>
      <path class="st0" d="M122.6,65.2v2.3h-8v2.3h6.5v2.2h-6.5v2.6h8v2.3h-8.5c-1.5,0-2.2-.7-2.2-2v-9.7h10.7Z"/>
      <path class="st0" d="M132.6,73.7c0-.5-.2-.9-1.1-1.1l-3.5-.7c-2.6-.6-3.8-1.5-3.8-3.5s1.5-3.2,4.1-3.2h6.1v2.3h-6.3c-.8,0-1.2.4-1.2.9s.3.9,1.6,1.2l3.6.7c1.7.3,3.3,1.2,3.3,3.3s-1.5,3.4-4.1,3.4h-6.7v-2.3h6.8c.9,0,1.3-.4,1.3-1"/>
      <path class="st0" d="M142.1,71.1c0-4.3,3.6-6.1,6.6-6.1s6.6,1.8,6.6,6.1-3.4,6.1-6.6,6.1-6.6-1.8-6.6-6.1M152.5,71.1c0-2.6-1.9-3.8-3.8-3.8s-3.8,1.2-3.8,3.8,1.9,3.8,3.8,3.8,3.8-1.2,3.8-3.8"/>
      <path class="st0" d="M168.4,65.2v2.3h-8v2.4h6.5v2.3h-6.5v4.7h-2.7v-9.7c0-1.4.8-2.1,2.2-2.1,0,0,8.5,0,8.5,0Z"/>
      <path class="st0" d="M177.1,65.2l2.5,7.7v.5c.1,0,.3-.5.3-.5l1.8-6.1c.4-1.4,1.3-1.8,2.1-1.8s1.7.4,2.1,1.8l1.8,6v.6c.1,0,.3-.6.3-.6l2.5-7.6h2.8l-3.4,10.3c-.5,1.4-1.1,1.7-2,1.7s-1.6-.5-2-1.7l-2.1-6.6v-.4c-.1,0-.3.4-.3.4l-2,6.6c-.4,1.3-1.1,1.6-1.9,1.6s-1.6-.6-2-1.7l-3.4-10.2h2.9Z"/>
      <path class="st0" d="M194,71.1c0-4.3,3.6-6.1,6.6-6.1s6.6,1.8,6.6,6.1-3.4,6.1-6.6,6.1-6.6-1.8-6.6-6.1M204.3,71.1c0-2.6-1.9-3.8-3.8-3.8s-3.8,1.2-3.8,3.8,1.9,3.8,3.8,3.8,3.8-1.2,3.8-3.8"/>
      <path class="st0" d="M217.3,75.8l-5.5-7.4v.6s0,7.9,0,7.9h-2.6v-10.1c0-1.3.8-1.9,1.8-1.9s1.8.5,2.6,1.6l5.5,7.3v-.6s0-8.1,0-8.1h2.6v9.8c0,1.4-.6,2.2-2.1,2.2s-1.6-.3-2.4-1.4"/>
      <path class="st0" d="M226.8,65.2h3.4c3.5,0,6.6,1.5,6.6,5.8s-3.1,6-6.6,6h-5.6v-9.7c0-1.4.7-2.1,2.2-2.1M234,71c0-2.6-1.9-3.5-3.8-3.5h-2.9v7.2h2.9c1.9,0,3.8-.9,3.8-3.7"/>
      <path class="st0" d="M249.7,65.2v2.3h-8v2.3h6.5v2.2h-6.5v2.6h8v2.3h-8.5c-1.5,0-2.2-.7-2.2-2v-9.7h10.7Z"/>
      <path class="st0" d="M259.9,76.9l-4.8-4.4-.3-.3v4.7h-2.7v-9.6c0-1.4.8-2.1,2.2-2.1h4.2c2.6,0,4.8,1.1,4.8,3.7s-2,3.6-4.4,3.7l4.9,4.3h0c0,0-3.9,0-3.9,0h0ZM260.4,69c0-1.1-1-1.5-2.3-1.5h-3.3v3.1h3.3c1.4,0,2.3-.5,2.3-1.6"/>
    </g>
  </g>
</svg>