<?xml version="1.0" encoding="UTF-8"?>
<svg id="_圖層_2" data-name="圖層_2" xmlns="http://www.w3.org/2000/svg" viewBox="0 0 324.85 77.22">
  <defs>
    <style>
      .cls-1 {
        fill: #fff;
      }
    </style>
  </defs>
  <g id="_視覺" data-name="視覺">
    <g>
      <rect class="cls-1" x="103.39" y=".77" width="13.77" height="45.82"/>
      <path class="cls-1" d="M87.89,18.91c-1.6-3.89-3.06-7.65-4.03-9.53-3.13-6.12-7.16-9.39-13.56-9.39s-10.43,3.27-13.56,9.39c-.97,1.88-2.43,5.63-4.03,9.53-3.13,7.51-5.56,12.03-10.29,13.28v15.02c12.79-2.02,18.43-10.29,22.67-22.11.7-1.95,1.53-4.24,2.02-5.56.97-2.57,1.67-4.1,3.2-4.1s2.22,1.53,3.2,4.1c.49,1.32,1.32,3.62,2.02,5.56,4.24,11.82,9.87,20.09,22.67,22.11v-15.02c-4.73-1.25-7.16-5.77-10.29-13.28"/>
      <polygon class="cls-1" points="46.86 13.56 46.86 .76 0 .76 0 13.56 16.55 13.56 16.55 46.59 30.32 46.59 30.32 13.56 46.86 13.56"/>
      <path class="cls-1" d="M311.08.76v31.15c0,.9-.35,1.32-.83,1.32-.63,0-1.18-.9-2.09-2.85-2.5-5.42-5.21-11.47-8-16.83-3.69-7.09-6.95-13.42-15.85-13.42s-13.28,5.98-13.28,15.99v30.45h13.77V15.44c0-.9.35-1.32.83-1.32.63,0,1.18.9,2.09,2.85,2.5,5.42,5.21,11.47,8,16.83,3.68,7.09,6.95,13.42,15.85,13.42s13.28-5.98,13.28-15.99V.76h-13.77Z"/>
      <path class="cls-1" d="M192.39,28.02c0,2.29-.42,4.17-2.16,4.17-2.02,0-3.34-3.82-6.4-11.75-2.16-5.49-3.69-9.18-4.59-11.13C176.54,3.27,171.81,0,165.41,0s-11.12,3.27-13.84,9.32c-.9,1.95-2.43,5.63-4.59,11.13-3.06,7.93-4.38,11.75-6.4,11.75-1.74,0-2.16-1.88-2.16-4.17V.76h-13.77v29.76c0,10.71,5.91,16.69,14.81,16.69,10.43,0,14.6-7.09,18.98-18.63,1.67-4.45,2.71-7.16,3.48-9.04.97-2.43,1.95-4.1,3.48-4.1s2.5,1.67,3.48,4.1c.77,1.88,1.81,4.59,3.48,9.04,4.38,11.54,8.55,18.63,18.98,18.63,8.9,0,14.81-5.98,14.81-16.69V.76h-13.77v27.26Z"/>
      <path class="cls-1" d="M255.53,18.91c-1.6-3.89-3.06-7.65-4.03-9.53-3.13-6.12-7.16-9.39-13.56-9.39s-10.43,3.27-13.56,9.39c-.97,1.88-2.43,5.63-4.03,9.53-3.13,7.51-5.56,12.03-10.29,13.28v15.02c12.79-2.02,18.43-10.29,22.67-22.11.7-1.95,1.53-4.24,2.02-5.56.97-2.57,1.67-4.1,3.2-4.1s2.22,1.53,3.2,4.1c.49,1.32,1.32,3.62,2.02,5.56,4.24,11.82,9.87,20.09,22.67,22.11v-15.02c-4.73-1.25-7.16-5.77-10.29-13.28"/>
      <path class="cls-1" d="M69.61,65.21l2.51,7.65.15.53.14-.49,1.81-6.07c.43-1.43,1.28-1.81,2.15-1.81s1.69.37,2.11,1.81l1.79,6.02.15.56.17-.56,2.47-7.64h2.78l-3.44,10.35c-.48,1.45-1.13,1.65-1.98,1.65s-1.6-.48-1.98-1.67l-2.05-6.6-.14-.44-.12.43-2.01,6.61c-.39,1.28-1.09,1.62-1.89,1.62-.92,0-1.65-.61-2.03-1.72l-3.44-10.23h2.85Z"/>
      <path class="cls-1" d="M94.07,66.77l4.24,10.18h-2.97l-.95-2.42h-5.32l-.97,2.42h-2.88l4.28-10.14c.46-1.11,1.11-1.86,2.32-1.86,1.13,0,1.77.7,2.25,1.82M93.56,72.44l-1.81-4.55-1.84,4.55h3.65Z"/>
      <path class="cls-1" d="M101.58,75.2l-3.92-9.99h2.9l3.44,8.98,3.48-8.98h2.83l-3.96,9.99c-.49,1.24-1.14,1.98-2.37,1.98s-1.91-.73-2.4-1.98"/>
      <path class="cls-1" d="M122.55,65.21v2.28h-8.01v2.35h6.46v2.25h-6.46v2.56h8.01v2.28h-8.52c-1.48,0-2.22-.67-2.22-2.01v-9.72h10.74Z"/>
      <path class="cls-1" d="M132.6,73.65c0-.48-.24-.89-1.13-1.07l-3.49-.72c-2.63-.55-3.75-1.5-3.75-3.5,0-1.86,1.48-3.15,4.11-3.15h6.09v2.28h-6.31c-.85,0-1.16.43-1.16.9s.34.9,1.59,1.16l3.55.72c1.69.34,3.29,1.19,3.29,3.26s-1.53,3.41-4.14,3.41h-6.73v-2.28h6.79c.87,0,1.31-.36,1.31-1.01"/>
      <path class="cls-1" d="M142.12,71.08c0-4.33,3.58-6.14,6.61-6.14,3.24,0,6.63,1.81,6.63,6.14s-3.39,6.14-6.63,6.14c-3.03,0-6.61-1.81-6.61-6.14M152.5,71.08c0-2.64-1.88-3.82-3.77-3.82s-3.78,1.18-3.78,3.82,1.93,3.82,3.78,3.82,3.77-1.16,3.77-3.82"/>
      <path class="cls-1" d="M168.35,65.21v2.35h-8.01v2.39h6.46v2.32h-6.46v4.67h-2.73v-9.68c0-1.36.75-2.05,2.23-2.05h8.51Z"/>
      <path class="cls-1" d="M177.06,65.21l2.51,7.65.15.53.14-.49,1.81-6.07c.43-1.43,1.28-1.81,2.15-1.81s1.69.37,2.11,1.81l1.79,6.02.15.56.17-.56,2.47-7.64h2.78l-3.44,10.35c-.48,1.45-1.13,1.65-1.98,1.65s-1.6-.48-1.98-1.67l-2.05-6.6-.14-.44-.12.43-2.01,6.61c-.39,1.28-1.09,1.62-1.89,1.62-.92,0-1.65-.61-2.03-1.72l-3.44-10.23h2.85Z"/>
      <path class="cls-1" d="M193.96,71.08c0-4.33,3.58-6.14,6.61-6.14,3.24,0,6.63,1.81,6.63,6.14s-3.39,6.14-6.63,6.14c-3.03,0-6.61-1.81-6.61-6.14M204.34,71.08c0-2.64-1.88-3.82-3.77-3.82s-3.78,1.18-3.78,3.82,1.93,3.82,3.78,3.82,3.77-1.16,3.77-3.82"/>
      <path class="cls-1" d="M217.27,75.82l-5.46-7.36.02.6v7.89h-2.59v-10.06c0-1.28.84-1.93,1.81-1.93,1.18,0,1.77.53,2.59,1.6l5.54,7.3-.02-.56v-8.08h2.59v9.79c0,1.36-.65,2.22-2.05,2.22-.92,0-1.64-.31-2.44-1.4"/>
      <path class="cls-1" d="M226.82,65.21h3.36c3.48,0,6.61,1.47,6.61,5.78s-3.14,5.98-6.61,5.97l-5.57-.02v-9.68c0-1.36.73-2.05,2.22-2.05M233.96,70.98c0-2.64-1.86-3.48-3.78-3.48h-2.85v7.18h2.85c1.93,0,3.78-.89,3.78-3.7"/>
      <path class="cls-1" d="M249.73,65.21v2.28h-8.01v2.35h6.46v2.25h-6.46v2.56h8.01v2.28h-8.52c-1.48,0-2.22-.67-2.22-2.01v-9.72h10.74Z"/>
      <path class="cls-1" d="M259.91,76.94l-4.82-4.36-.32-.29v4.65h-2.69v-9.63c0-1.45.77-2.1,2.2-2.1h4.23c2.61.02,4.81,1.11,4.81,3.68,0,2.44-2.05,3.61-4.42,3.68l4.94,4.31v.05h-3.92ZM260.41,68.98c0-1.06-.97-1.48-2.34-1.48h-3.31v3.09h3.32c1.35,0,2.32-.48,2.32-1.6"/>
    </g>
  </g>
</svg>