<?xml version="1.0" encoding="UTF-8"?>
<svg id="_圖層_2" data-name="圖層_2" xmlns="http://www.w3.org/2000/svg" viewBox="0 0 24.09 24.95">
  <defs>
    <style>
      .cls-1 {
        fill: #fff;
      }
    </style>
  </defs>
  <g id="_視覺" data-name="視覺">
    <path class="cls-1" d="M23.72,22.73l-5.94-6.17c1.53-1.82,2.36-4.1,2.36-6.48C20.15,4.52,15.63,0,10.07,0S0,4.52,0,10.07s4.52,10.08,10.07,10.08c2.09,0,4.08-.63,5.77-1.82l5.98,6.22c.25.26.59.4.95.4.34,0,.66-.13.91-.37.52-.5.54-1.33.04-1.86h0ZM10.07,2.63c4.11,0,7.45,3.34,7.45,7.45s-3.34,7.45-7.45,7.45-7.45-3.34-7.45-7.45,3.34-7.45,7.45-7.45h0Z"/>
  </g>
</svg>