<svg width="30" height="9" viewBox="0 0 30 9" fill="none" xmlns="http://www.w3.org/2000/svg">
<path d="M21.2996 7.60004L19.1996 1.79999C19.1996 1.69999 19.0996 1.6 19.0996 1.5C19.0996 1.4 19.0996 1.39999 19.0996 1.29999C19.0996 1.19999 19.1996 1.20004 19.1996 1.10004C19.1996 1.10004 19.2997 1 19.3997 1C19.4997 1 19.4996 1 19.5996 1C19.6996 1 19.7997 1.00004 19.8997 1.10004C19.9997 1.20004 20.0996 1.30002 20.0996 1.40002L21.7996 6.40002L23.4996 1.40002C23.4996 1.30002 23.5996 1.20004 23.6996 1.10004C23.7996 1.00004 23.8996 1 23.9996 1H24.0996C24.1996 1 24.2997 1.00004 24.3997 1.10004C24.4997 1.20004 24.5996 1.30002 24.5996 1.40002L26.2996 6.40002L28.0996 1.40002C28.0996 1.30002 28.1996 1.20004 28.2996 1.10004C28.3996 1.00004 28.4996 1 28.5996 1C28.6996 1 28.8996 1.00004 28.9996 1.10004C29.0996 1.20004 29.1996 1.30002 29.1996 1.40002C29.1996 1.50002 29.1996 1.60001 29.0996 1.70001L26.9996 7.5C26.9996 7.6 26.8996 7.69999 26.7996 7.79999C26.6996 7.89999 26.5997 7.90002 26.3997 7.90002C26.2997 7.90002 26.0996 7.89999 25.9996 7.79999C25.8996 7.69999 25.7996 7.6 25.7996 7.5L24.0996 2.5L22.3997 7.5C22.3997 7.6 22.2996 7.69999 22.1996 7.79999C22.0996 7.89999 21.9996 7.90002 21.7996 7.90002C21.6996 7.90002 21.4997 7.79999 21.3997 7.79999C21.3997 7.89999 21.2996 7.80004 21.2996 7.60004Z" fill="#606060"/>
<path d="M2.60016 1.5C2.50016 1.4 2.50021 1.30001 2.40021 1.20001C2.30021 1.10001 2.20016 1 2.10016 1C2.00016 1 1.8002 0.900024 1.7002 0.900024C1.6002 0.900024 1.40017 0.9 1.30017 1C1.20017 1.1 1.10018 1.10001 1.00018 1.20001C0.900183 1.30001 0.800171 1.4 0.800171 1.5C0.800171 1.6 0.700195 1.80002 0.700195 1.90002C0.700195 2.00002 0.700171 2.19999 0.800171 2.29999L3.00018 7C3.30018 7.7 3.70021 8.10004 4.40021 8.10004C5.10021 8.10004 5.40017 7.7 5.80017 7C5.80017 7 7.7002 2.89999 7.7002 2.79999C7.7002 2.69999 7.80017 2.70001 7.80017 2.70001C7.80017 2.70001 7.90018 2.70001 8.00018 2.70001H8.10016C8.10016 2.70001 8.2002 2.69999 8.2002 2.79999C8.2002 2.79999 8.20017 2.90002 8.30017 2.90002V3V7.10004C8.30017 7.20004 8.30017 7.4 8.30017 7.5C8.30017 7.6 8.40018 7.80002 8.50018 7.90002C8.60018 8.00002 8.70017 8.10001 8.80017 8.20001C8.90017 8.30001 9.10019 8.29999 9.2002 8.29999C9.3002 8.29999 9.50016 8.30001 9.60016 8.20001C9.70016 8.10001 9.90021 8.10002 9.90021 7.90002C10.0002 7.80002 10.1002 7.7 10.1002 7.5C10.1002 7.4 10.2002 7.20004 10.1002 7.10004V3.79999C10.1002 3.69999 10.1002 3.50002 10.2002 3.40002C10.3002 3.30002 10.3002 3.1 10.4002 3C10.5002 2.9 10.6002 2.79999 10.8002 2.79999C11.0002 2.79999 11.1002 2.70001 11.2002 2.70001C11.3002 2.70001 11.5002 2.69999 11.6002 2.79999C11.7002 2.89999 11.8002 2.9 11.9002 3C12.0002 3.1 12.1002 3.19999 12.1002 3.29999C12.1002 3.39999 12.2002 3.60001 12.2002 3.70001V7C12.2002 7.1 12.2002 7.30002 12.2002 7.40002C12.2002 7.50002 12.3002 7.69999 12.4002 7.79999C12.5002 7.89999 12.6002 8.00004 12.7002 8.10004C12.8002 8.20004 13.0002 8.20001 13.1002 8.20001C13.2002 8.20001 13.4002 8.20004 13.5002 8.10004C13.6002 8.00004 13.7002 7.99999 13.8002 7.79999C13.9002 7.69999 14.0002 7.60002 14.0002 7.40002C14.0002 7.30002 14.1002 7.1 14.0002 7V3.70001C14.0002 3.60001 14.0002 3.39999 14.1002 3.29999C14.2002 3.19999 14.2002 3.00002 14.3002 2.90002C14.4002 2.80002 14.5002 2.70001 14.7002 2.70001C14.8002 2.70001 15.0002 2.60004 15.1002 2.60004C15.2002 2.60004 15.4002 2.60001 15.5002 2.70001C15.6002 2.80001 15.7002 2.80002 15.8002 2.90002C15.9002 3.00002 16.0002 3.10001 16.0002 3.20001C16.0002 3.30001 16.1002 3.50004 16.1002 3.60004V6.90002C16.1002 7.00002 16.1002 7.19999 16.1002 7.29999C16.1002 7.39999 16.2002 7.60001 16.3002 7.70001C16.4002 7.80001 16.5002 7.9 16.6002 8C16.7002 8.1 16.9002 8.10004 17.0002 8.10004C17.1002 8.10004 17.3002 8.1 17.4002 8C17.5002 7.9 17.7002 7.90001 17.7002 7.70001C17.7002 7.50001 17.9002 7.49999 17.9002 7.29999C17.9002 7.19999 18.0002 7.00002 17.9002 6.90002V3.20001C17.9002 2.90001 17.8002 2.59999 17.7002 2.29999C17.6002 1.99999 17.4002 1.7 17.2002 1.5C17.0002 1.3 16.7002 1.1 16.4002 1C16.1002 0.9 15.8002 0.799988 15.5002 0.799988C14.7002 0.799988 13.9002 1.10001 13.3002 1.70001C13.1002 1.40001 12.7002 1.1 12.4002 1C12.0002 0.8 11.6002 0.799988 11.2002 0.799988C10.4002 0.899988 9.70016 1.20001 9.10016 1.70001C8.90016 1.40001 8.60017 1.2 8.30017 1C8.00017 0.8 7.60017 0.800012 7.30017 0.700012C6.80017 0.700012 6.30021 0.800037 5.90021 1.10004C5.50021 1.40004 5.20018 1.80001 5.00018 2.20001L3.60016 5.5L2.60016 1.5Z" fill="#606060"/>
</svg>
