<svg width="21" height="17" viewBox="0 0 21 17" fill="none" xmlns="http://www.w3.org/2000/svg">
<path fill-rule="evenodd" clip-rule="evenodd" d="M18.3004 0.600037H2.70038C1.70038 0.600037 0.900391 1.40002 0.900391 2.40002V14.5C0.900391 15.5 1.70038 16.3 2.70038 16.3H18.3004C19.3004 16.3 20.1003 15.5 20.1003 14.5V2.40002C20.1003 1.40002 19.3004 0.600037 18.3004 0.600037ZM3.70038 5.40002C3.20038 5.40002 2.70038 5.00002 2.70038 4.40002C2.70038 3.80002 3.10038 3.40002 3.70038 3.40002C4.30038 3.40002 4.70038 3.80002 4.70038 4.40002C4.70038 5.00002 4.20038 5.40002 3.70038 5.40002ZM9.80035 13.3C9.80035 14.1 9.10035 14.8 8.30035 14.8C7.50035 14.8 6.80035 14.1 6.80035 13.3V3.70001C6.80035 2.90001 7.50035 2.20001 8.30035 2.20001C9.10035 2.20001 9.80035 2.90001 9.80035 3.70001V13.3ZM14.2004 13.3C14.2004 14.1 13.5004 14.8 12.7004 14.8C11.9004 14.8 11.2004 14.1 11.2004 13.3V3.70001C11.2004 2.90001 11.9004 2.20001 12.7004 2.20001C13.5004 2.20001 14.2004 2.90001 14.2004 3.70001V13.3ZM18.5004 13.3C18.5004 14.1 17.8004 14.8 17.0004 14.8C16.2004 14.8 15.5004 14.1 15.5004 13.3V3.70001C15.5004 2.90001 16.2004 2.20001 17.0004 2.20001C17.8004 2.20001 18.5004 2.90001 18.5004 3.70001V13.3Z" fill="#606060"/>
</svg>
