<svg width="27" height="10" viewBox="0 0 27 10" fill="none" xmlns="http://www.w3.org/2000/svg">
<path d="M5.49982 5.79999C5.49982 6.89999 5.29979 7.40004 5.09979 7.60004C4.79979 7.90004 4.39983 8 3.69983 8C3.29983 8 2.99983 7.89999 2.69983 7.79999C2.49983 7.69999 2.29983 7.50001 2.19983 7.20001C2.09983 6.90001 1.99982 6.39999 1.99982 5.79999V0.900024H0.299805V5.79999C0.299805 6.69999 0.399792 7.40002 0.599792 7.90002C0.799792 8.40002 1.19983 8.90001 1.69983 9.20001C2.19983 9.50001 2.89983 9.60004 3.69983 9.60004C4.49983 9.60004 5.19983 9.40004 5.69983 9.10004C6.19983 8.80004 6.5998 8.29999 6.7998 7.79999C6.9998 7.29999 7.09979 6.59999 7.09979 5.79999V0.900024H5.49982V5.79999Z" fill="#606060"/>
<path d="M13.4998 6.40002L9.89984 1H8.2998V9.5H9.89984V4.10004L13.4998 9.5H15.0998V1H13.4998V6.40002Z" fill="#606060"/>
<path d="M18.1003 0.900024H16.4004V9.40002H18.1003V0.900024Z" fill="#606060"/>
<path d="M23.3997 5L26.3997 1H24.4996L22.7996 3.20001C22.6996 3.40001 22.5997 3.50001 22.3997 3.70001C22.2997 3.50001 22.1996 3.40004 21.9996 3.10004L20.4996 0.900024H18.4996L21.3997 5L18.0996 9.40002H20.1996L22.2996 6.5C22.2996 6.5 22.3997 6.39999 22.3997 6.29999C22.3997 6.29999 22.3996 6.40002 22.4996 6.40002L24.5996 9.29999H26.6996L23.3997 5Z" fill="#606060"/>
</svg>
