<svg width="22" height="19" viewBox="0 0 22 19" fill="none" xmlns="http://www.w3.org/2000/svg">
<path d="M15.7 2.20001L13.2 4.70001L12.9 5C12.3 4.7 11.7 4.60004 11 4.60004C10.2 4.60004 9.40001 4.80001 8.70001 5.20001C7.90001 4.90001 7.09999 4.79999 6.29999 4.79999C5.29999 4.79999 4.4 5.00002 3.5 5.40002C3.8 4.80002 4.19998 4.30001 4.59998 3.70001C6.29998 1.80001 8.6 0.799988 11 0.799988C12.6 0.799988 14.3 1.30001 15.7 2.20001Z" fill="#606060"/>
<path d="M22 12.2C22 14.3 20.9 16.2 19.3 17.3C19 17.5 18.6 17.7 18.3 17.9C17.9 18.1 17.5 18.2 17.2 18.3C16.8 18.4 16.4 18.4 16 18.4H12.5V14.6H16C17.3 14.6 18.4 13.6 18.4 12.2C18.4 10.9 17.3 9.79999 16 9.79999V9.29999C16 8.39999 15.8 7.59999 15.3 6.79999C15 6.29999 14.7 5.90004 14.2 5.60004L16.8 3C17.2 3.4 17.6 3.80001 17.9 4.20001C18.6 5.10001 19.1 6.10001 19.4 7.20001C21 8.20001 22 10.2 22 12.2Z" fill="#606060"/>
<path d="M10.9996 14.5V18.3H6.19965C5.59965 18.3 5.09961 18.2 4.59961 18.1C4.49961 18.1 4.39962 18 4.29962 18C4.09962 17.9 3.99962 17.9 3.79962 17.8C3.69962 17.8 3.69961 17.7 3.59961 17.7L6.09961 15.2L6.79962 14.5H10.9996Z" fill="#606060"/>
<path d="M8.89984 6.60004C8.49984 6.40004 8.1998 6.30001 7.7998 6.20001C7.6998 6.20001 7.59979 6.20001 7.59979 6.20001C7.19979 6.10001 6.79982 6.10004 6.49982 6.10004C5.29982 6.10004 4.09979 6.50004 3.09979 7.10004C2.29979 7.60004 1.59979 8.40001 1.09979 9.20001C0.599792 10.1 0.299805 11.1 0.299805 12.2C0.299805 13.6 0.799829 15 1.69983 16C1.99983 16.4 2.39983 16.7 2.69983 17L5.39984 14.2C4.89984 14 4.5998 13.6 4.2998 13.2C3.8998 12.6 3.89983 11.8 4.19983 11C4.29983 10.8 4.39979 10.6 4.59979 10.4C4.89979 10 5.2998 9.80001 5.7998 9.70001C6.1998 9.60001 6.69979 9.60001 7.09979 9.70001C7.19979 9.70001 7.2998 9.79999 7.2998 9.79999C7.7998 9.99999 8.19982 10.5 8.49982 11L11.2998 8.29999C10.5998 7.59999 9.79984 7.00004 8.89984 6.60004ZM3.19983 7H3.2998C3.1998 7 3.09982 7 2.99982 7C3.09982 7 3.09983 7 3.19983 7Z" fill="#606060"/>
</svg>
