<?xml version="1.0" encoding="UTF-8"?>
<svg id="_圖層_2" data-name="圖層 2" xmlns="http://www.w3.org/2000/svg" viewBox="0 0 84 84">
  <defs>
    <style>
      .cls-1 {
        stroke: #302ff0;
        stroke-linecap: round;
        stroke-linejoin: round;
        stroke-width: 3px;
      }

      .cls-1, .cls-2 {
        fill: none;
      }
    </style>
  </defs>
  <g id="_圖層_2-2" data-name="圖層 2">
    <g>
      <rect class="cls-2" width="84" height="84"/>
      <path class="cls-1" d="m52.95,41.47h16.57m-6.31-25.81v8.51c0,1.17-.44,2.49-1.32,3.37-.88.88-2.05,1.32-3.37,1.32h-5.57m10.27-13.2c2.49,0,4.4-1.91,4.4-4.4s-1.91-4.4-4.4-4.4-4.4,1.91-4.4,4.4,1.91,4.4,4.4,4.4Zm-10.27,38.13h5.57c1.17,0,2.49.44,3.37,1.32s1.32,2.05,1.32,3.37v8.51m0,.15c2.49,0,4.4,1.91,4.4,4.4s-1.91,4.4-4.4,4.4-4.4-1.91-4.4-4.4,1.91-4.4,4.4-4.4Zm15.11-25.81c0,2.43-1.97,4.4-4.4,4.4s-4.4-1.97-4.4-4.4,1.97-4.4,4.4-4.4,4.4,1.97,4.4,4.4Zm-34.91,13.79c-5.28.29-10.56-2.64-13.05-7.77-3.23-6.75-.44-15.11,6.45-18.33,2.2-1.03,4.4-1.47,6.6-1.32V11.26c-2.93-.15-5.87.15-8.65.88l-2.2-4.55c-.88-1.61-2.64-2.2-4.25-1.47l-4.84,2.35c-1.61.88-2.2,2.64-1.47,4.25l2.2,4.55c-3.23,2.49-5.72,5.43-7.77,8.8l-4.69-1.61c-1.61-.59-3.52.44-4.11,2.05l-1.61,5.13c-.59,1.61.44,3.52,2.05,4.11l4.69,1.61c-.59,3.96-.44,7.77.59,11.73l-4.25,2.05c-1.61.88-2.2,2.64-1.47,4.25l2.2,4.99c.88,1.47,2.64,2.05,4.25,1.47l4.55-2.2c2.49,3.23,5.43,5.72,8.8,7.77l-1.61,4.69c-.59,1.61.44,3.52,2.05,4.11l5.13,1.91c1.61.59,3.52-.44,4.11-2.05l1.61-4.69c1.47.29,3.08.29,4.55.29v-16.57h.15Z"/>
    </g>
  </g>
</svg>