<?xml version="1.0" encoding="UTF-8"?>
<svg id="_圖層_2" data-name="圖層 2" xmlns="http://www.w3.org/2000/svg" viewBox="0 0 84 84">
  <defs>
    <style>
      .cls-1 {
        stroke: #302ff0;
        stroke-linecap: round;
        stroke-linejoin: round;
        stroke-width: 3px;
      }

      .cls-1, .cls-2 {
        fill: none;
      }
    </style>
  </defs>
  <g id="_圖層_2-2" data-name="圖層 2">
    <g>
      <rect class="cls-2" width="84" height="84"/>
      <path class="cls-1" d="m11.21,34.76v29.76l30.8,16.09M11.21,34.76l30.8,16.09m-30.8-16.09l11.73-6.22m19.07,52.07l30.8-16.09v-29.76m-30.8,45.85v-29.76m0,0l30.8-16.09m0,0l-11.73-6.22m-13.2,19.07v-2.29c0-2.91,1.85-5.44,4.01-7.4,2.94-2.68,4.79-6.55,4.79-10.85,0-8.1-6.57-14.67-14.67-14.67s-14.67,6.57-14.67,14.67c0,4.3,1.85,8.16,4.79,10.85,2.15,1.96,4.01,4.49,4.01,7.4v2.29m-1.47-17.6l2.93-2.93,2.93,2.93,2.93-2.93,2.93,2.93,2.93-2.93m-7.33-19.8V2.88m-14.67,9.53l-2.93-3.67m32.27,3.67l2.93-3.67"/>
    </g>
  </g>
</svg>