<?xml version="1.0" encoding="UTF-8"?>
<svg id="_圖層_2" data-name="圖層 2" xmlns="http://www.w3.org/2000/svg" viewBox="0 0 84 84">
  <defs>
    <style>
      .cls-1 {
        stroke: #302ff0;
        stroke-linecap: round;
        stroke-linejoin: round;
        stroke-width: 3px;
      }

      .cls-1, .cls-2 {
        fill: none;
      }
    </style>
  </defs>
  <g id="_圖層_2-2" data-name="圖層 2">
    <g>
      <rect class="cls-2" width="84" height="84"/>
      <path class="cls-1" d="m5.02,61.09V18.95c0-3.76,3.04-6.81,6.81-6.81h60.38c3.76,0,6.81,3.04,6.81,6.81v42.28m-27.8,0c0,2.17-1.74,3.91-3.91,3.91h-10.57c-2.17,0-3.91-1.74-3.91-3.91H2.41v2.32c0,4.34,3.62,7.96,7.96,7.96h63.27c4.49,0,7.96-3.62,7.96-7.96v-2.32h-30.41Zm-13.59-30.02v11.73l10.27-5.9-10.27-5.83Zm3.77,19.27c-7.78,0-14.04-6.25-14.04-14.04s6.25-14.04,14.04-14.04,14.04,6.25,14.04,14.04-6.39,14.04-14.04,14.04Z"/>
    </g>
  </g>
</svg>