<?xml version="1.0" encoding="utf-8"?>
<!-- Generator: Adobe Illustrator 25.2.3, SVG Export Plug-In . SVG Version: 6.00 Build 0)  -->
<svg version="1.1" id="Capa_1" xmlns="http://www.w3.org/2000/svg" xmlns:xlink="http://www.w3.org/1999/xlink" x="0px" y="0px"
	 viewBox="0 0 600 600" style="enable-background:new 0 0 600 600;" xml:space="preserve">
<style type="text/css">
	.st0{fill:#FC1A40;}
	.st1{fill:#C60034;}
	.st2{fill:#FE9923;}
	.st3{fill:#FE8821;}
	.st4{fill:#FF3E75;}
	.st5{fill:#FCBF29;}
</style>
<g>
	<path class="st0" d="M373.2,301.7l-22.3-8.1c-0.7-0.3-1.5-0.4-2.3-0.4H205.6c-3.9,0-6.9,3-6.9,6.9v96.9c0,11.4,9.2,20.7,20.7,20.7
		h137.7c11.4,0,20.7-9.2,20.7-20.7v-88.7C377.8,305.2,376,302.6,373.2,301.7z"/>
	<path class="st1" d="M377.8,308.1v88.7c0,11.4-9.2,20.7-20.7,20.7h-68.9V293.1h60.3c0.8,0,1.7,0.1,2.3,0.4l22.3,8.1
		C376,302.6,377.8,305.2,377.8,308.1z"/>
	<path class="st2" d="M375.3,227.4c-2.3-9.5-9.4-16.9-18.9-20c-9.4-2.9-19.4-0.8-26.7,5.8l-16,14l-3.2-21.1
		c-1.5-9.6-7.7-17.8-16.9-21.6c-1.8-0.7-3.6-1.2-5.4-1.5c-7.6-1.5-15.4,0.1-21.8,4.8c-8.4,6.1-12.7,16.2-11.3,26.4
		c1.5,10.2,8.4,18.9,18.2,22.3l14.9,5.4l18.3,6.7c0.1,0,0.1,0,0.1,0l31.8,11.7c3.2,1.1,6.5,1.7,9.6,1.7c6.7,0,13.4-2.5,18.6-7.2
		C374.5,248,377.8,237.4,375.3,227.4z"/>
	<path class="st3" d="M366.8,254.9c-5.2,4.7-11.8,7.2-18.6,7.2c-3.2,0-6.5-0.6-9.6-1.7l-31.8-11.7c0,0,0,0-0.1,0l-18.3-6.7V183
		c1.8,0.3,3.6,0.8,5.4,1.5c9.2,3.9,15.4,12,16.9,21.6l3.2,21.1l16-14c7.3-6.6,17.4-8.7,26.7-5.8c9.5,3,16.5,10.5,18.9,20
		C377.8,237.4,374.5,248,366.8,254.9z"/>
	<path class="st4" d="M401.3,289.9l-9.4,25.9c-1.1,2.8-3.7,4.4-6.5,4.4c-0.8,0-1.7-0.1-2.3-0.4l-71.2-25.9l-6.5-21.3l-17.2,3.9
		l-15.1,3.4L201.9,254c-3.6-1.4-5.4-5.4-4.1-8.8l9.5-25.9c1.8-5.2,5.6-9.4,10.6-11.7c5-2.3,10.6-2.6,15.8-0.7l54.5,19.8l3.7,1.4
		c0,0,14.9,27,15.3,27c0.3,0,6.2-3.3,12-6.5c5.8-3.2,11.6-6.5,11.6-6.5l58.1,21.2c5.2,1.9,9.4,5.8,11.7,10.7
		C403,279.1,403.2,284.7,401.3,289.9z"/>
	<path class="st0" d="M401.3,289.9l-9.4,25.9c-1.1,2.8-3.7,4.4-6.5,4.4c-0.8,0-1.7-0.1-2.3-0.4l-71.2-25.9l-6.5-21.3l-17.2,3.9
		v-49.7l3.7,1.4c0,0,14.9,27,15.3,27c0.3,0,6.2-3.3,12-6.5c5.8-3.2,11.6-6.5,11.6-6.5l58.1,21.2c5.2,1.9,9.4,5.8,11.7,10.7
		C403,279.1,403.2,284.7,401.3,289.9z"/>
	<g>
		<path class="st5" d="M267.6,293.1v124.4h41.3V293.1H267.6z"/>
		<path class="st5" d="M292,228.1l-3.7,10.2l-15.1,41.6l15.1,5.5l17.2,6.2l6.5,2.3l18.9-51.8L292,228.1z"/>
	</g>
	<g>
		<rect x="288.3" y="293.1" class="st2" width="20.7" height="124.4"/>
		<polygon class="st2" points="330.8,242.2 311.9,293.9 305.5,291.6 288.3,285.4 288.3,238.3 292,228.1 		"/>
	</g>
</g>
</svg>
