<svg id="圖層_1" data-name="圖層 1" xmlns="http://www.w3.org/2000/svg" viewBox="0 0 200 120"><defs><style>.cls-1{fill:#e50012;}</style></defs><path class="cls-1" d="M83.46,26.41a9.18,9.18,0,0,0-5.85-2,9.56,9.56,0,1,0,0,19.12A9.3,9.3,0,0,0,85,40.23V35a11.34,11.34,0,0,1-4.56,4.45,7.05,7.05,0,0,1-2.78.59,6,6,0,0,1-6-6,6,6,0,0,1,10.29-4.25c1.14,1.1,2.91,3.41,3.76,4.32A12,12,0,1,0,85,18.82v7.12c1.66-4.52,4.65-8.13,9.34-8.13A8.19,8.19,0,1,1,89,32.25c-1.76-1.39-3.71-4.3-5.54-5.84"/><path class="cls-1" d="M5.55,46.21H31.8v7.31s-1.35-2.88-4.19-2.89H15.46V63.25H28.63v6.68S28.21,67.8,25,67.8H15.46V85c0,2.54,2.75,4,2.75,4H5.72a4.92,4.92,0,0,0,2.62-4V50.7C8.35,47.82,5.55,46.21,5.55,46.21Z"/><path class="cls-1" d="M71.53,46.23H84.89s-3,1.41-3,3.73V90.17c0,13.6-13.63,15.82-14.34,15.78,1.16-.74,6.82-5.57,6.84-15.78V50C74.41,47.78,71.53,46.23,71.53,46.23Z"/><path class="cls-1" d="M86.77,46.22h13.39s-3,1.43-3,3.79V85c0,2.51,3,4.07,3,4.07H86.77s3-1.55,3-4.07V50C89.74,47.65,86.77,46.22,86.77,46.22Z"/><path class="cls-1" d="M102.84,46.22h29.48L129.82,54s-.75-3.27-3.6-3.27H120.1V85c0,2.17,2.88,4,2.88,4H109.86s2.85-1.7,2.84-4V50.73h-7.38c-2.09,0-5.09,3.93-5.09,3.93Z"/><path class="cls-1" d="M181.55,46.22h12.9s-2.76,1.46-2.76,3.78V76c0,10.55-8.76,13.8-14.82,13.8S161.41,86.47,161.42,76V50c0-2.32-2.84-3.78-2.84-3.78h13.28s-3,1.42-3,3.78V76c0,5.53,3.67,9.16,8,9.16s7.58-3.77,7.59-9.16V50C184.46,47.68,181.55,46.22,181.55,46.22Z"/><path class="cls-1" d="M56.07,46.22H69.21s-2.79,1.52-2.79,3.83c0,0,0,25.89,0,25.89,0,10.6-9.15,13.93-15.28,13.93S35.67,86.49,35.67,75.94V50.05c0-2.32-2.68-3.83-2.68-3.83H46.26s-3.07,1.51-3.07,3.83V75.94c0,5.49,3.65,9.27,8,9.29s7.75-3.86,7.75-9.29l0-25.89C58.9,47.73,56.07,46.22,56.07,46.22Z"/><path class="cls-1" d="M154.63,53.08s-1.86-3.26-7.25-3.28-8.31,2.82-8.32,6.49c0,4.15,3.11,5.72,7.94,8,4.6,2.21,11.51,5.26,11.49,12.93,0,6.88-6.12,12.63-17.06,12.63a43.81,43.81,0,0,1-8-1.11l-2.5-8.24c2.31,2.25,6.42,4.67,10.65,4.67s9.59-2.7,9.59-7c0-8.38-19.5-7-19.5-21,0-4.82,3.37-11.81,15-11.81a36.77,36.77,0,0,1,8,1.11Z"/></svg>