<svg id="圖層_1" data-name="圖層 1" xmlns="http://www.w3.org/2000/svg" viewBox="0 0 200 125"><defs><style>.cls-1{fill:#e50012;}.cls-2{fill:#231815;}</style></defs><path class="cls-1" d="M83.46,19.41a9.18,9.18,0,0,0-5.85-2,9.56,9.56,0,1,0,0,19.12A9.3,9.3,0,0,0,85,33.23V28a11.34,11.34,0,0,1-4.56,4.45,7.05,7.05,0,0,1-2.78.59,6,6,0,0,1-6-6,6,6,0,0,1,10.29-4.25c1.14,1.1,2.91,3.41,3.76,4.32A12,12,0,1,0,85,11.82v7.12c1.66-4.52,4.65-8.13,9.34-8.13A8.19,8.19,0,1,1,89,25.25c-1.76-1.39-3.71-4.3-5.54-5.84"/><path class="cls-1" d="M5.55,39.21H31.8v7.31s-1.35-2.88-4.19-2.89H15.46V56.25H28.63v6.68S28.21,60.8,25,60.8H15.46V78c0,2.54,2.75,4,2.75,4H5.72a4.92,4.92,0,0,0,2.62-4V43.7C8.35,40.82,5.55,39.21,5.55,39.21Z"/><path class="cls-1" d="M71.53,39.23H84.89s-3,1.41-3,3.73V83.17C81.9,96.77,68.27,99,67.56,99c1.16-.74,6.82-5.57,6.84-15.78V43C74.41,40.78,71.53,39.23,71.53,39.23Z"/><path class="cls-1" d="M86.77,39.22h13.39s-3,1.43-3,3.79V78c0,2.51,3,4.07,3,4.07H86.77s3-1.55,3-4.07V43C89.74,40.65,86.77,39.22,86.77,39.22Z"/><path class="cls-1" d="M102.84,39.22h29.48L129.82,47s-.75-3.27-3.6-3.27H120.1V78c0,2.17,2.88,4,2.88,4H109.86s2.85-1.7,2.84-4V43.73h-7.38c-2.09,0-5.09,3.93-5.09,3.93Z"/><path class="cls-1" d="M181.55,39.22h12.9s-2.76,1.46-2.76,3.78V69c0,10.55-8.76,13.8-14.82,13.8S161.41,79.47,161.42,69V43c0-2.32-2.84-3.78-2.84-3.78h13.28s-3,1.42-3,3.78V69c0,5.53,3.67,9.16,8,9.16s7.58-3.77,7.59-9.16V43C184.46,40.68,181.55,39.22,181.55,39.22Z"/><path class="cls-1" d="M56.07,39.22H69.21s-2.79,1.52-2.79,3.83c0,0,0,25.89,0,25.89,0,10.6-9.15,13.93-15.28,13.93S35.67,79.49,35.67,68.94V43.05c0-2.32-2.68-3.83-2.68-3.83H46.26s-3.07,1.51-3.07,3.83V68.94c0,5.49,3.65,9.27,8,9.29s7.75-3.86,7.75-9.29l0-25.89C58.9,40.73,56.07,39.22,56.07,39.22Z"/><path class="cls-1" d="M154.63,46.08s-1.86-3.26-7.25-3.28-8.31,2.82-8.32,6.49c0,4.15,3.11,5.72,7.94,8,4.6,2.21,11.51,5.26,11.49,12.93,0,6.88-6.12,12.63-17.06,12.63a43.81,43.81,0,0,1-8-1.11l-2.5-8.24c2.31,2.25,6.42,4.67,10.65,4.67s9.59-2.7,9.59-7c0-8.38-19.5-7-19.5-21,0-4.82,3.37-11.81,15-11.81a36.77,36.77,0,0,1,8,1.11Z"/><path class="cls-2" d="M5.62,117.09v-1a4.31,4.31,0,0,0,2.12.49c1.4,0,2.11-.46,2.11-1.39a1.21,1.21,0,0,0-.36-.89,3.1,3.1,0,0,0-.64-.49c-.21-.11-.48-.25-.81-.4a5.71,5.71,0,0,1-1.67-1.13,2.23,2.23,0,0,1-.6-1.57,2,2,0,0,1,.93-1.78,3.63,3.63,0,0,1,2-.49,6.79,6.79,0,0,1,1.84.29v1a4.29,4.29,0,0,0-1.77-.37,2.27,2.27,0,0,0-1.2.28,1,1,0,0,0-.49,1,1.25,1.25,0,0,0,.34.9,6.82,6.82,0,0,0,1.48.92,10.11,10.11,0,0,1,1.2.67,2.55,2.55,0,0,1,.83.93,2.32,2.32,0,0,1,.23,1.07c0,1.63-1.11,2.45-3.32,2.45A5.75,5.75,0,0,1,5.62,117.09Z"/><path class="cls-2" d="M13.16,117.21V104.29h1.47v4.55a5.89,5.89,0,0,1,2.16-.45,2.54,2.54,0,0,1,2.62,1.34,6.25,6.25,0,0,1,.26,2.21v5.27H18.21v-5.49A4.32,4.32,0,0,0,18,110a1.32,1.32,0,0,0-1.3-.68,5,5,0,0,0-2,.52v7.41Z"/><path class="cls-2" d="M26.76,111.79v-.45a2.64,2.64,0,0,0-.27-1.31,1.79,1.79,0,0,0-1.7-.72,6.49,6.49,0,0,0-2.39.48v-1a8.58,8.58,0,0,1,2.54-.37,3.43,3.43,0,0,1,2.76.91,2.77,2.77,0,0,1,.5,1.47c0,.24,0,.6,0,1.07V117a12.17,12.17,0,0,1-3.19.41,5.15,5.15,0,0,1-2.49-.5,2,2,0,0,1-1-1.92,2.57,2.57,0,0,1,1.13-2.32,7.23,7.23,0,0,1,2.86-.79Zm0,.83a14.53,14.53,0,0,0-2,.31,1.9,1.9,0,0,0-1.66,1.95,1.5,1.5,0,0,0,.49,1.24,2.72,2.72,0,0,0,1.71.44,5.48,5.48,0,0,0,1.49-.2Z"/><path class="cls-2" d="M32.35,116.85v4.47H30.88V108.73a13.32,13.32,0,0,1,3-.34,3.28,3.28,0,0,1,3,1.34,6,6,0,0,1,.73,3.17,5.66,5.66,0,0,1-.92,3.36,3,3,0,0,1-2.56,1.19,2.9,2.9,0,0,1-1.21-.23A4.08,4.08,0,0,1,32.35,116.85Zm0-1a2.27,2.27,0,0,0,1.63.73,1.75,1.75,0,0,0,1.66-1.13,6,6,0,0,0,.48-2.55,4.94,4.94,0,0,0-.65-2.82,2.08,2.08,0,0,0-1.85-.78,8.61,8.61,0,0,0-1.27.1Z"/><path class="cls-2" d="M40.5,105.49a.85.85,0,0,1,.67.29.91.91,0,0,1-.06,1.27.91.91,0,0,1-.62.23.88.88,0,0,1-.66-.29.92.92,0,0,1-.22-.62.87.87,0,0,1,.89-.88Zm-.71,11.72v-8.58h1.46v8.58Z"/><path class="cls-2" d="M44,117.21v-8.48a21.18,21.18,0,0,1,3.44-.34q2.25,0,2.82,1.35a6.5,6.5,0,0,1,.26,2.2v5.27H49.08V112a5.15,5.15,0,0,0-.26-2,1.5,1.5,0,0,0-1.49-.71,8.89,8.89,0,0,0-1.83.19v7.74Z"/><path class="cls-2" d="M57.87,116.45a3.34,3.34,0,0,1-.55.51,3.15,3.15,0,0,1-3.59-.15c-.77-.64-1.16-1.81-1.16-3.5a6.2,6.2,0,0,1,.84-3.36,3.53,3.53,0,0,1,3.21-1.56,11.24,11.24,0,0,1,2.71.34v6.81a19,19,0,0,1-.16,2.88,3.19,3.19,0,0,1-1.58,2.48,5.9,5.9,0,0,1-2.75.55,9.26,9.26,0,0,1-1.1-.07v-.88a10.23,10.23,0,0,0,1.09.06,4,4,0,0,0,1.8-.31,2.21,2.21,0,0,0,1.1-1.66,8.57,8.57,0,0,0,.14-1.68Zm0-7.09a7.62,7.62,0,0,0-1.11-.08,2.44,2.44,0,0,0-1.44.37,2.91,2.91,0,0,0-1,1.52,7.27,7.27,0,0,0-.3,2.2,4.45,4.45,0,0,0,.57,2.55,1.39,1.39,0,0,0,1.19.64,1.9,1.9,0,0,0,1.15-.39,2.08,2.08,0,0,0,.76-1,3.11,3.11,0,0,0,.13-1Z"/><path class="cls-2" d="M66,106.32H67.5v2.31h2.31v.93H67.5v4.55a2.82,2.82,0,0,0,.39,1.76,1.2,1.2,0,0,0,.81.38,4.44,4.44,0,0,0,.63,0h.48v.93H69a6.32,6.32,0,0,1-1.48-.14,1.82,1.82,0,0,1-1.37-1.46A8.46,8.46,0,0,1,66,113.9Z"/><path class="cls-2" d="M74.71,108.39a3.19,3.19,0,0,1,2.74,1.22,6.8,6.8,0,0,1,0,6.62,3.16,3.16,0,0,1-2.73,1.22c-2.42,0-3.62-1.53-3.62-4.59a5.38,5.38,0,0,1,.86-3.25A3.21,3.21,0,0,1,74.71,108.39Zm0,.89A1.71,1.71,0,0,0,73,110.4a6.48,6.48,0,0,0-.39,2.47,6.8,6.8,0,0,0,.39,2.57,1.87,1.87,0,0,0,3.43,0,6.68,6.68,0,0,0,.39-2.53,6.43,6.43,0,0,0-.39-2.51A1.71,1.71,0,0,0,74.71,109.28Z"/><path class="cls-2" d="M80.41,117.21v-8.48a19.82,19.82,0,0,1,3.17-.34,3.89,3.89,0,0,1,2.29.55,7.42,7.42,0,0,1,2.76-.55c1.38,0,2.25.45,2.62,1.36a6.54,6.54,0,0,1,.25,2.19v5.27H90V112a6,6,0,0,0-.23-2,1.34,1.34,0,0,0-1.37-.72,4.15,4.15,0,0,0-1.74.4v7.53H85.22V112a5.34,5.34,0,0,0-.24-2,1.38,1.38,0,0,0-1.4-.72,7.91,7.91,0,0,0-1.7.19v7.74Z"/><path class="cls-2" d="M97.14,108.39a3.2,3.2,0,0,1,2.74,1.22,6.8,6.8,0,0,1,0,6.62,3.16,3.16,0,0,1-2.74,1.22q-3.61,0-3.62-4.59a5.38,5.38,0,0,1,.87-3.25A3.19,3.19,0,0,1,97.14,108.39Zm0,.89a1.72,1.72,0,0,0-1.73,1.12,6.48,6.48,0,0,0-.39,2.47,6.8,6.8,0,0,0,.39,2.57,1.72,1.72,0,0,0,1.73,1.12,1.7,1.7,0,0,0,1.71-1.12,6.68,6.68,0,0,0,.39-2.53,6.43,6.43,0,0,0-.39-2.51A1.71,1.71,0,0,0,97.14,109.28Z"/><path class="cls-2" d="M102.84,117.21v-8.45a19.1,19.1,0,0,1,3.71-.37v.92a16.75,16.75,0,0,0-2.25.16v7.74Z"/><path class="cls-2" d="M108.16,117.21v-8.45a19.18,19.18,0,0,1,3.71-.37v.92a16.71,16.71,0,0,0-2.24.16v7.74Z"/><path class="cls-2" d="M116.47,108.39a3.19,3.19,0,0,1,2.74,1.22,6.73,6.73,0,0,1,0,6.62,3.16,3.16,0,0,1-2.73,1.22q-3.62,0-3.62-4.59a5.45,5.45,0,0,1,.86-3.25A3.21,3.21,0,0,1,116.47,108.39Zm0,.89a1.72,1.72,0,0,0-1.72,1.12,6.48,6.48,0,0,0-.39,2.47,6.8,6.8,0,0,0,.39,2.57,1.72,1.72,0,0,0,1.72,1.12,1.7,1.7,0,0,0,1.71-1.12,6.47,6.47,0,0,0,.4-2.53,6.22,6.22,0,0,0-.4-2.51A1.71,1.71,0,0,0,116.47,109.28Z"/><path class="cls-2" d="M123.44,117.21,121,108.63h1.48l1.82,7,1.6-7h1.46l1.68,7,1.82-7h1.19l-2.42,8.58h-1.45l-1.29-5.55c-.09-.4-.2-1-.32-1.75q-.15.93-.33,1.74L125,117.21Z"/><path class="cls-2" d="M138.82,117.21l-2.43-8.58h1.48l1.82,7,1.6-7h1.46l1.68,7,1.81-7h1.2L145,117.21h-1.45l-1.29-5.55c-.09-.4-.2-1-.33-1.75-.09.62-.2,1.2-.32,1.74l-1.29,5.56Z"/><path class="cls-2" d="M149.78,105.49a.9.9,0,0,1,.6,1.56.89.89,0,0,1-.61.23.85.85,0,0,1-.66-.29.89.89,0,0,1-.23-.62.91.91,0,0,1,.29-.66A.88.88,0,0,1,149.78,105.49Zm-.72,11.72v-8.58h1.47v8.58Z"/><path class="cls-2" d="M153.27,106.32h1.46v2.31H157v.93h-2.31v4.55a2.82,2.82,0,0,0,.39,1.76,1.2,1.2,0,0,0,.81.38,4.44,4.44,0,0,0,.63,0H157v.93h-.79a6.32,6.32,0,0,1-1.48-.14,1.81,1.81,0,0,1-1.37-1.46,8.46,8.46,0,0,1-.13-1.71Z"/><path class="cls-2" d="M158.82,117.21V104.29h1.47v4.55a5.89,5.89,0,0,1,2.16-.45,2.54,2.54,0,0,1,2.62,1.34,6.19,6.19,0,0,1,.27,2.21v5.27h-1.47v-5.49a4.32,4.32,0,0,0-.26-1.76,1.32,1.32,0,0,0-1.3-.68,5,5,0,0,0-2,.52v7.41Z"/><path class="cls-2" d="M174,117.35l-3.15-8.72h1.49l2.33,6.85,2.06-6.85H178l-4.27,12.69h-1.3Z"/><path class="cls-2" d="M182.49,108.39a3.2,3.2,0,0,1,2.74,1.22,6.8,6.8,0,0,1,0,6.62,3.16,3.16,0,0,1-2.73,1.22q-3.63,0-3.63-4.59a5.38,5.38,0,0,1,.87-3.25A3.18,3.18,0,0,1,182.49,108.39Zm0,.89a1.72,1.72,0,0,0-1.73,1.12,6.48,6.48,0,0,0-.39,2.47,6.8,6.8,0,0,0,.39,2.57,1.72,1.72,0,0,0,1.73,1.12,1.7,1.7,0,0,0,1.71-1.12,6.68,6.68,0,0,0,.39-2.53,6.43,6.43,0,0,0-.39-2.51A1.71,1.71,0,0,0,182.49,109.28Z"/><path class="cls-2" d="M188.11,108.63h1.47v5.29a4.9,4.9,0,0,0,.26,2,1.13,1.13,0,0,0,.61.55,2.67,2.67,0,0,0,1,.13,5.46,5.46,0,0,0,1.51-.22v-7.71h1.47v8.44a13.76,13.76,0,0,1-3.07.38,4,4,0,0,1-2.17-.46,2.11,2.11,0,0,1-.95-1.61,9.56,9.56,0,0,1-.08-1.35Z"/></svg>