<svg id="圖層_1" data-name="圖層 1" xmlns="http://www.w3.org/2000/svg" viewBox="0 0 170 120"><defs><style>.cls-1{fill:#0071c5;}</style></defs><path class="cls-1" d="M81.16,99.66c-30.36,2.8-62-1.61-66.44-25.33C12.55,62.63,17.89,50.22,25,42.51V38.4C12.22,49.56,5.32,63.7,9.3,80.39,14.37,101.8,41.52,113.92,83,109.9c16.41-1.59,37.87-6.87,52.81-15.07V83.19C122.23,91.26,99.83,97.93,81.16,99.66Zm80-61.54C153.94,3,85.67.73,41.66,27.51v3C85.62,7.88,148,8,153.65,40.4c1.91,10.72-4.12,21.88-14.91,28.31v8.4C151.71,72.35,165,57,161.15,38.12Z"/><path class="cls-1" d="M133.33,33h-8V68.45c0,4.16,2,7.77,8,8.35Z"/><path class="cls-1" d="M38.53,45.94h-8V69.11c0,4.17,2,7.78,8,8.34Z"/><rect class="cls-1" x="30.56" y="34.08" width="7.95" height="7.55"/><path class="cls-1" d="M86.21,77.09c-6.44,0-9.17-4.48-9.17-8.89V37.44h7.9v8.5h5.94v6.38H84.94V67.71c0,1.8.85,2.8,2.72,2.8h3.22v6.58H86.21"/><path class="cls-1" d="M100.73,64c0,4,2.53,7,7,7A8.91,8.91,0,0,0,115,68l4.88,4.65a15.6,15.6,0,0,1-12.19,5c-7.55,0-14.79-4.12-14.79-16.13,0-10.28,6.32-16.08,14.61-16.08s13.28,6.79,13.28,15.72V64h-20m6.42-12a6.06,6.06,0,0,0-5.66,3.27,8.23,8.23,0,0,0-.76,3.39H112.9C112.74,55.21,111.21,51.94,107.15,51.94Z"/><path class="cls-1" d="M60,52.32c2.31,0,3.28,1.14,3.28,3V77.14h7.89V55.27c0-4.43-2.36-9.32-9.29-9.32H45.54v31.2h7.9V52.32Z"/><path class="cls-1" d="M141.9,39.33a3.17,3.17,0,0,1,0-6.33,3.17,3.17,0,1,1,0,6.33Zm0-5.8a2.63,2.63,0,1,0,2.64,2.64A2.66,2.66,0,0,0,141.9,33.53Zm1.4,4.53h-.59a.12.12,0,0,1-.12-.08l-.8-1.36a.34.34,0,0,0-.12-.06h-.36v1.36a.14.14,0,0,1-.14.14h-.53a.14.14,0,0,1-.13-.14V34.5c0-.2.06-.29.24-.31s.69,0,1,0c1,0,1.57.29,1.57,1.21v.07a1,1,0,0,1-.72,1l.84,1.42a.3.3,0,0,1,0,.1S143.4,38.06,143.3,38.06Zm-.77-2.71c0-.38-.23-.5-.74-.5h-.51v1.08l.51,0c.51,0,.74-.17.74-.53Z"/></svg>