<?xml version="1.0" encoding="UTF-8"?>
<svg id="_圖層_2" data-name="圖層 2" xmlns="http://www.w3.org/2000/svg" viewBox="0 0 380.29 58.66">
  <defs>
    <style>
      .cls-1 {
        fill: #fff;
      }
    </style>
  </defs>
  <g id="_圖層_3" data-name="圖層 3">
    <g id="Artwork_14" data-name="Artwork 14">
      <path class="cls-1" d="m359.6,47.45c-5.65,0-12.07-1.24-16.08-2.36-.14.66-2.1,9.62-2.21,10.15,5.1,2.15,11.84,3.42,18.09,3.42,17.56,0,20.9-5.72,20.9-16.27,0-9.31-.73-12.65-15.05-15.2-8.66-1.55-9.55-2.1-9.55-5.85,0-3.33,1.6-3.91,6.16-3.91s9.98.59,15.46,1.71c.09-.66,1.49-10.25,1.56-10.82-4.99-1.34-12.47-2.07-17.11-2.07-14.15,0-19.91,4.23-19.91,14.6,0,8.73.97,14.19,14.46,16.37,9.32,1.49,10.13,2.33,10.13,5.88s-1.53,4.37-6.85,4.37M219.26,7.21h-13.85v50.47h13.85V7.21Zm-109.03,51.46c6.75,0,13.99-.97,20.42-2.69v-24.83h-12.47v15.29l-.31.04c-2.7.34-5.13.5-7.64.5-5,0-7.23-1.95-7.23-6.35v-16.44c0-4.3,2.1-6.06,7.23-6.06,4.84,0,12.21.72,17.71,1.34.07-.66,1.22-10.9,1.31-11.5-6.52-1.16-12.74-1.72-19.01-1.72-14.18,0-21.1,5.12-21.1,15.68v20.95c0,10.63,6.91,15.79,21.1,15.79M78.69,7.21h-13.85v50.47h13.85V7.21Zm95.13,50.94h13.08V11.62h14.08V0h-41.27v11.62h14.1v46.53ZM1.23,35.25c.84.17,8.84,1.23,8.84,1.23l1.02,6.15h10.93v-11.59H1.23c-.57,0-1.23.39-1.23,2.04s.37,2.01,1.23,2.17m9.86,22.9h24.33c14.32,0,19.65-7.33,19.65-15.09V15.1c0-7.84-5.33-15.1-19.65-15.1H1.23C.66,0,0,.39,0,2.06s.37,2,1.23,2.17c.84.15,8.84,1.23,8.84,1.23l1.02,6.15h22.77c6.54,0,8.12,2.54,8.12,7.09v20.77c0,4.54-1.58,7.07-8.12,7.07H1.23c-.57,0-1.23.4-1.23,2.05s.37,2.01,1.23,2.17c.84.16,8.84,1.24,8.84,1.24l1.02,6.14Zm-1.02-37.17l1.02,6.15h10.93v-11.6H1.23c-.57,0-1.23.38-1.23,2.04s.37,2.01,1.23,2.16c.84.17,8.84,1.25,8.84,1.25m263.74,11.95s.94,24.1.97,24.76h13.34c-.04-.73-2.57-49.79-2.62-50.47h-13.49c-.19.44-12.94,30.49-12.94,30.49,0,0-12.75-30.05-12.94-30.49h-13.49c-.04.68-2.58,49.74-2.63,50.47h13.37c.03-.66.96-24.64.96-24.64l.69-.14s7.88,18.08,8.06,18.48h11.95c.17-.4,8.07-18.57,8.07-18.57l.68.12Zm59.95,13.86h-22.45v-9.27h20.66v-10.9h-20.66v-8.48h22.45V7.21h-36.29v50.47h36.29v-10.9ZM154.63,7.21h-13.86v50.47h13.86V7.21Z"/>
    </g>
  </g>
</svg>