<?xml version="1.0" encoding="UTF-8"?>
<svg id="_圖層_2" data-name="圖層 2" xmlns="http://www.w3.org/2000/svg" xmlns:xlink="http://www.w3.org/1999/xlink" viewBox="0 0 896 896">
  <defs>
    <style>
      .cls-1 {
        fill: none;
      }

      .cls-2 {
        fill: url(#_未命名漸層_20);
      }
    </style>
    <linearGradient id="_未命名漸層_20" data-name="未命名漸層 20" x1="624.87" y1="3362.19" x2="776.39" y2="3300.56" gradientTransform="translate(-59.53 3477.43) rotate(-1.04) scale(1 -1)" gradientUnits="userSpaceOnUse">
      <stop offset=".19" stop-color="#fff"/>
      <stop offset="1" stop-color="#ccd8ef" stop-opacity="0"/>
    </linearGradient>
  </defs>
  <g id="_圖層_3" data-name="圖層 3">
    <g>
      <rect class="cls-1" width="896" height="896"/>
      <path class="cls-2" d="m189.88,82.8c-3.13,2.21-3.81,6.56-1.55,9.66,2.26,3.1,6.6,3.77,9.73,1.56,56.05-39.54,128.94-65.56,187.18-76.01,44.06-7.9,84.09-8.62,126.24-4.02,52.97,5.78,104.28,21.95,151,47.56,44.94,24.64,84.79,57.56,117.45,97-.16-1.29-.69-2.54-1.6-3.6C706.8,72.03,606.9,18.63,498.04,5.28c-108.86-13.35-218.71,14.35-308.16,77.52Z"/>
    </g>
  </g>
</svg>