<?xml version="1.0" encoding="UTF-8"?>
<svg id="_圖層_2" data-name="圖層 2" xmlns="http://www.w3.org/2000/svg" xmlns:xlink="http://www.w3.org/1999/xlink" viewBox="0 0 896 896">
  <defs>
    <style>
      .cls-1 {
        fill: none;
      }

      .cls-2 {
        fill: url(#_未命名漸層_28);
      }
    </style>
    <linearGradient id="_未命名漸層_28" data-name="未命名漸層 28" x1="121.52" y1="4755.9" x2="101.62" y2="4920.25" gradientTransform="translate(0 5342) scale(1 -1)" gradientUnits="userSpaceOnUse">
      <stop offset=".19" stop-color="#fff"/>
      <stop offset="1" stop-color="#ccd8ef" stop-opacity="0"/>
    </linearGradient>
  </defs>
  <g id="_圖層_3" data-name="圖層 3">
    <g>
      <rect class="cls-1" width="896" height="896"/>
      <path class="cls-2" d="m247.04,849.21c3.42,1.73,7.58.28,9.25-3.17,1.67-3.45.22-7.6-3.2-9.32-61.24-30.91-112.9-77.1-154.31-129.85-26.71-34.03-47.81-69.88-63.55-109.27-19.77-49.48-29.6-102.37-28.93-155.65.64-51.25,10.99-101.89,30.47-149.25-1.06.74-1.92,1.8-2.43,3.1-39.6,102.1-39.83,215.38-.48,317.76,39.35,102.38,115.38,186.35,213.17,235.65Z"/>
    </g>
  </g>
</svg>