<?xml version="1.0" encoding="UTF-8"?>
<svg id="_圖層_2" data-name="圖層 2" xmlns="http://www.w3.org/2000/svg" xmlns:xlink="http://www.w3.org/1999/xlink" viewBox="0 0 896 896">
  <defs>
    <style>
      .cls-1 {
        fill: none;
      }

      .cls-2 {
        fill: url(#_未命名漸層_20);
      }
    </style>
    <linearGradient id="_未命名漸層_20" data-name="未命名漸層 20" x1="683.85" y1="4632.63" x2="567" y2="4537.61" gradientTransform="translate(0 5342) scale(1 -1)" gradientUnits="userSpaceOnUse">
      <stop offset=".19" stop-color="#fff"/>
      <stop offset="1" stop-color="#ccd8ef" stop-opacity="0"/>
    </linearGradient>
  </defs>
  <g id="_圖層_3" data-name="圖層 3">
    <g>
      <rect class="cls-1" width="896" height="896"/>
      <path class="cls-2" d="m895.35,431.1c-.15-3.83-3.42-6.77-7.25-6.57-3.83.21-6.76,3.48-6.62,7.31,2.55,68.55-12.55,135.04-38.17,198.12-16.69,41.09-38.93,75.39-65.79,108.2-33.75,41.23-75.29,75.41-122.25,100.59-45.17,24.22-94.5,39.65-145.38,45.5,1.16.57,2.5.81,3.89.62,108.52-14.71,207.79-69.29,278.37-153.23,70.59-83.94,107.32-191.1,103.19-300.54Z"/>
    </g>
  </g>
</svg>