<?xml version="1.0" encoding="UTF-8"?>
<svg id="_圖層_2" data-name="圖層 2" xmlns="http://www.w3.org/2000/svg" xmlns:xlink="http://www.w3.org/1999/xlink" viewBox="0 0 1420 1358.15">
  <defs>
    <style>
      .cls-1 {
        fill: #fff;
      }

      .cls-2 {
        fill: url(#linear-gradient-2);
      }

      .cls-2, .cls-3 {
        isolation: isolate;
      }

      .cls-4 {
        fill: url(#_未命名漸層_20-2);
      }

      .cls-5 {
        fill: url(#_未命名漸層_30);
      }

      .cls-6 {
        fill: none;
      }

      .cls-7 {
        fill: url(#_未命名漸層_28);
      }

      .cls-8 {
        fill: url(#_未命名漸層_43);
      }

      .cls-9 {
        fill: url(#_未命名漸層_20);
      }

      .cls-3 {
        fill: url(#_未命名漸層_37);
      }

      .cls-10 {
        fill: url(#_未命名漸層_9);
      }

      .cls-11 {
        fill: url(#linear-gradient);
      }
    </style>
    <linearGradient id="_未命名漸層_43" data-name="未命名漸層 43" x1="1076.14" y1="-2509.69" x2="669.39" y2="-1966.78" gradientTransform="translate(-1476.29 1422.42) rotate(-88.9) scale(1 -1)" gradientUnits="userSpaceOnUse">
      <stop offset="0" stop-color="#21cfde" stop-opacity="0"/>
      <stop offset=".12" stop-color="#20cbdd" stop-opacity=".02"/>
      <stop offset=".25" stop-color="#1ec0dd" stop-opacity=".09"/>
      <stop offset=".4" stop-color="#1cafdb" stop-opacity=".21"/>
      <stop offset=".56" stop-color="#1996da" stop-opacity=".36"/>
      <stop offset=".72" stop-color="#1477d8" stop-opacity=".57"/>
      <stop offset=".89" stop-color="#0f51d5" stop-opacity=".81"/>
      <stop offset="1" stop-color="#0b34d4"/>
    </linearGradient>
    <linearGradient id="linear-gradient" x1="934.16" y1="-2065.13" x2="1484.07" y2="-1829.32" gradientTransform="translate(-1024.05 2378.29) rotate(-101.73) scale(1 -1)" gradientUnits="userSpaceOnUse">
      <stop offset="0" stop-color="#32449a" stop-opacity="0"/>
      <stop offset=".16" stop-color="#31449a" stop-opacity=".02"/>
      <stop offset=".3" stop-color="#2e479c" stop-opacity=".08"/>
      <stop offset=".45" stop-color="#294ba0" stop-opacity=".18"/>
      <stop offset=".59" stop-color="#2251a4" stop-opacity=".32"/>
      <stop offset=".72" stop-color="#1859ab" stop-opacity=".5"/>
      <stop offset=".86" stop-color="#0d63b2" stop-opacity=".72"/>
      <stop offset=".99" stop-color="#006ebb" stop-opacity=".98"/>
      <stop offset="1" stop-color="#006fbc"/>
    </linearGradient>
    <linearGradient id="_未命名漸層_30" data-name="未命名漸層 30" x1="-708.37" y1="1139.26" x2="-123.65" y2="1266.21" gradientTransform="translate(851.05 2211.92) rotate(20.34) scale(1 -1)" gradientUnits="userSpaceOnUse">
      <stop offset="0" stop-color="#21cfde" stop-opacity="0"/>
      <stop offset=".35" stop-color="#21cfde" stop-opacity="0"/>
      <stop offset=".49" stop-color="#21cfde" stop-opacity=".04"/>
      <stop offset=".6" stop-color="#21cfde" stop-opacity=".1"/>
      <stop offset=".68" stop-color="#21cfde" stop-opacity=".17"/>
      <stop offset=".75" stop-color="#21cfde" stop-opacity=".28"/>
      <stop offset=".82" stop-color="#21cfde" stop-opacity=".4"/>
      <stop offset=".88" stop-color="#21cfde" stop-opacity=".55"/>
      <stop offset=".93" stop-color="#21cfde" stop-opacity=".72"/>
      <stop offset=".98" stop-color="#21cfde" stop-opacity=".91"/>
      <stop offset="1" stop-color="#21cfde"/>
    </linearGradient>
    <linearGradient id="linear-gradient-2" x1="1957.73" y1="595.28" x2="2430.17" y2="235.37" gradientTransform="translate(-472.57 2343.94) rotate(-49.8) scale(1 -1)" gradientUnits="userSpaceOnUse">
      <stop offset="0" stop-color="#0072be" stop-opacity="0"/>
      <stop offset=".41" stop-color="#0071bd" stop-opacity=".01"/>
      <stop offset=".56" stop-color="#006fbc" stop-opacity=".05"/>
      <stop offset=".66" stop-color="#006cba" stop-opacity=".13"/>
      <stop offset=".75" stop-color="#0068b6" stop-opacity=".24"/>
      <stop offset=".82" stop-color="#0062b2" stop-opacity=".37"/>
      <stop offset=".88" stop-color="#005bad" stop-opacity=".54"/>
      <stop offset=".94" stop-color="#0053a6" stop-opacity=".74"/>
      <stop offset=".99" stop-color="#004a9f" stop-opacity=".97"/>
      <stop offset="1" stop-color="#00499f"/>
    </linearGradient>
    <linearGradient id="_未命名漸層_37" data-name="未命名漸層 37" x1="-1652.6" y1="1095.41" x2="-1180.16" y2="735.5" gradientTransform="translate(1088.43 2201.72) rotate(36.49) scale(1 -1)" gradientUnits="userSpaceOnUse">
      <stop offset=".2" stop-color="#0b34d4" stop-opacity="0"/>
      <stop offset=".29" stop-color="#0b34d4" stop-opacity=".02"/>
      <stop offset=".4" stop-color="#0b34d4" stop-opacity=".09"/>
      <stop offset=".52" stop-color="#0b34d4" stop-opacity=".19"/>
      <stop offset=".64" stop-color="#0b34d4" stop-opacity=".34"/>
      <stop offset=".76" stop-color="#0b34d4" stop-opacity=".53"/>
      <stop offset=".89" stop-color="#0b34d4" stop-opacity=".77"/>
      <stop offset="1" stop-color="#0b34d4"/>
    </linearGradient>
    <linearGradient id="_未命名漸層_9" data-name="未命名漸層 9" x1="835.36" y1="889.52" x2="610.22" y2="738.94" gradientTransform="translate(0 1402) scale(1 -1)" gradientUnits="userSpaceOnUse">
      <stop offset="0" stop-color="#21cfde"/>
      <stop offset="0" stop-color="#20cedd"/>
      <stop offset=".18" stop-color="#1a9fda"/>
      <stop offset=".35" stop-color="#1478d8"/>
      <stop offset=".52" stop-color="#105ad6"/>
      <stop offset=".69" stop-color="#0d45d5"/>
      <stop offset=".85" stop-color="#0b38d4"/>
      <stop offset="1" stop-color="#0b34d4"/>
    </linearGradient>
    <linearGradient id="_未命名漸層_28" data-name="未命名漸層 28" x1="663.01" y1="824.99" x2="643.11" y2="989.35" gradientTransform="translate(0 1402) scale(1 -1)" gradientUnits="userSpaceOnUse">
      <stop offset=".19" stop-color="#fff"/>
      <stop offset="1" stop-color="#ccd8ef" stop-opacity="0"/>
    </linearGradient>
    <linearGradient id="_未命名漸層_20" data-name="未命名漸層 20" x1="675.85" y1="700.63" x2="559" y2="605.61" gradientTransform="translate(0 1402) scale(1 -1)" gradientUnits="userSpaceOnUse">
      <stop offset=".19" stop-color="#fff"/>
      <stop offset="1" stop-color="#ccd8ef" stop-opacity="0"/>
    </linearGradient>
    <linearGradient id="_未命名漸層_20-2" data-name="未命名漸層 20" x1="869.17" y1="849.04" x2="1020.69" y2="787.41" gradientTransform="translate(-78.03 1438.73) rotate(-1.04) scale(1 -1)" xlink:href="#_未命名漸層_20"/>
  </defs>
  <g id="_圖層_1-2" data-name="圖層 1">
    <g>
      <circle class="cls-6" cx="714.83" cy="605.7" r="251.04"/>
      <g>
        <circle class="cls-8" cx="984.54" cy="444.2" r="435.46"/>
        <g>
          <circle class="cls-11" cx="719.37" cy="916.91" r="441.14"/>
          <circle class="cls-5" cx="719.37" cy="916.91" r="441.14" transform="translate(-437.65 777.23) rotate(-45)"/>
          <path class="cls-2" d="m316.58,18.11c233.7-68.86,478.97,64.77,547.83,298.47,68.86,233.7-64.77,478.97-298.47,547.83-233.7,68.86-478.97-64.77-547.83-298.47C-50.75,332.24,82.88,86.97,316.58,18.11Z"/>
          <path class="cls-3" d="m855.45,289.45c83.84,228.75-33.63,482.16-262.39,566-228.75,83.84-482.16-33.64-566-262.39C-56.78,364.31,60.7,110.9,289.45,27.06c228.75-83.84,482.16,33.63,566,262.39Z"/>
          <path class="cls-10" d="m713.94,787.85c-90.64-70.92-146.78-171.65-163.61-278.9,102.89-42.66,220.47-45.83,327.82-4.4-9.03,62-31.47,123.06-68.22,178.84-26.93,40.88-59.5,75.81-96,104.46Z"/>
          <path class="cls-1" d="m726.97,638.54c0,2.12,1.71,3.83,3.83,3.83h6.4c2.12,0,3.83-1.72,3.83-3.83v-73.25c0-2.12-1.72-3.83-3.83-3.83h-1.92c-.46,0-.93.08-1.36.25l-18.54,7.04c-1.49.56-2.47,1.99-2.47,3.58v1.16c0,2.25,1.93,4.02,4.18,3.82l5.71-.52c2.24-.2,4.18,1.56,4.18,3.82v57.93Z"/>
          <path class="cls-1" d="m753.79,638.54c0,2.12,1.72,3.83,3.83,3.83h44.44c2.12,0,3.83-1.72,3.83-3.83v-3.47c0-2.12-1.72-3.83-3.83-3.83h-31.09c-.13,0-.24-.11-.24-.24,0-.07.03-.13.08-.18l11.68-10.94c13.83-12.87,21.79-22.14,21.79-35.82,0-14.72-9.57-23.42-26.63-23.42-8.51,0-14.98,1.61-20.25,3.97-1.31.59-2.11,1.92-2.11,3.35v2.18c0,2.84,3,4.72,5.7,3.86,3.62-1.14,7.74-1.89,12.28-1.89,10.38,0,16.14,4.06,16.14,13.68,0,10.32-6.57,18.2-17.52,28.98l-16.96,16.73c-.73.72-1.14,1.7-1.14,2.73v4.3Z"/>
          <path class="cls-1" d="m698.18,562.95c-3.62-2-8.1-.46-9.96,3.37l-26.67,57.67c-.62,1.25-1.18,2.1-2.58,2.1s-1.96-.85-2.58-2.1l-26.7-57.67c-1.86-3.83-6.33-5.34-9.96-3.37-3.62,2-5.06,6.71-3.17,10.51l26.08,53.39,2.97,6.06c2.58,5.31,7.7,8.61,13.38,8.61,5.65,0,10.77-3.31,13.39-8.61l2.97-6.06,26.08-53.39c1.76-3.8.36-8.52-3.26-10.51Z"/>
          <path class="cls-7" d="m788.53,840.11c3.42,1.73,7.58.28,9.25-3.17,1.67-3.45.22-7.6-3.2-9.32-61.24-30.91-112.9-77.1-154.31-129.85-26.71-34.03-47.81-69.88-63.55-109.27-19.77-49.48-29.6-102.37-28.93-155.65.64-51.25,10.99-101.89,30.47-149.25-1.06.74-1.92,1.8-2.43,3.1-39.6,102.1-39.83,215.38-.48,317.76,39.35,102.38,115.38,186.35,213.17,235.65Z"/>
          <path class="cls-9" d="m887.35,423.1c-.15-3.83-3.42-6.77-7.25-6.57-3.83.21-6.76,3.48-6.62,7.31,2.55,68.55-12.55,135.04-38.17,198.12-16.69,41.09-38.93,75.39-65.79,108.2-33.75,41.23-75.29,75.41-122.25,100.59-45.17,24.22-94.5,39.65-145.38,45.5,1.16.57,2.5.81,3.89.62,108.52-14.71,207.79-69.29,278.37-153.23,70.59-83.94,107.32-191.1,103.19-300.54Z"/>
          <path class="cls-4" d="m461.25,552.4c-3.13,2.21-3.81,6.56-1.55,9.66,2.26,3.1,6.6,3.77,9.73,1.56,56.05-39.54,128.94-65.56,187.18-76.01,44.06-7.9,84.09-8.62,126.24-4.02,52.97,5.78,104.28,21.95,151,47.56,44.94,24.64,84.79,57.56,117.45,97-.16-1.29-.69-2.54-1.6-3.6-71.54-82.91-171.44-136.32-280.31-149.67-108.86-13.35-218.71,14.35-308.16,77.52Z"/>
        </g>
      </g>
    </g>
  </g>
</svg>