<?xml version="1.0" encoding="UTF-8"?>
<svg id="_圖層_2" data-name="圖層 2" xmlns="http://www.w3.org/2000/svg" xmlns:xlink="http://www.w3.org/1999/xlink" viewBox="0 0 933 933">
  <defs>
    <style>
      .cls-1 {
        fill: #fff;
      }

      .cls-2 {
        clip-path: url(#clippath-2);
      }

      .cls-3 {
        clip-path: url(#clippath-1);
      }

      .cls-4 {
        clip-path: url(#clippath-4);
      }

      .cls-5 {
        clip-path: url(#clippath);
      }

      .cls-6 {
        fill: none;
      }

      .cls-7 {
        clip-path: url(#clippath-3);
      }
    </style>
    <clipPath id="clippath">
      <rect class="cls-6" width="933" height="933"/>
    </clipPath>
    <clipPath id="clippath-1">
      <rect class="cls-6" x="-133.5" y="-84.5" width="1200" height="1200"/>
    </clipPath>
    <clipPath id="clippath-2">
      <rect class="cls-6" x="-133.5" y="-88.5" width="1200" height="1200"/>
    </clipPath>
    <clipPath id="clippath-3">
      <rect class="cls-6" x="-133.5" y="-84.5" width="1200" height="1200" transform="translate(-213.19 661.75) rotate(-60)"/>
    </clipPath>
    <clipPath id="clippath-4">
      <rect class="cls-6" x="-133.5" y="-84.5" width="1200" height="1200" transform="translate(-195.25 302.31) rotate(-30)"/>
    </clipPath>
  </defs>
  <g id="_圖層_2-2" data-name="圖層 2">
    <g class="cls-5">
      <g class="cls-3">
        <g>
          <g class="cls-2">
            <g>
              <path class="cls-1" d="m629.83,456.55c-77.2-42.24-163.79-44.73-177-44.51s-18.88.97-18.94,5.78,7.89,4.86,17.69,4.36,101.09-1.14,175.58,40.32c91.53,50.94,132.83,124.65,132.83,124.65,0,0-38.27-80.31-130.16-130.59Z"/>
              <path d="m629.83,456.55c-77.2-42.24-163.79-44.73-177-44.51s-18.88.97-18.94,5.78,7.89,4.86,17.69,4.36,101.09-1.14,175.58,40.32c91.53,50.94,132.83,124.65,132.83,124.65,0,0-38.27-80.31-130.16-130.59Z"/>
            </g>
          </g>
          <g class="cls-7">
            <g>
              <path class="cls-1" d="m432.43,684.42c75.18-45.73,120.63-119.49,127.05-131.03s8.6-16.84,4.47-19.29-8.15,4.4-12.62,13.14c-4.47,8.74-49.56,88.11-122.71,131.9-89.89,53.8-174.36,52.71-174.36,52.71,0,0,88.68,7.01,178.18-47.43Z"/>
              <path d="m432.43,684.42c75.18-45.73,120.63-119.49,127.05-131.03s8.6-16.84,4.47-19.29-8.15,4.4-12.62,13.14c-4.47,8.74-49.56,88.11-122.71,131.9-89.89,53.8-174.36,52.71-174.36,52.71,0,0,88.68,7.01,178.18-47.43Z"/>
            </g>
          </g>
          <g class="cls-4">
            <g>
              <path class="cls-1" d="m337.25,401.53c2.01,87.98,43.16,164.21,49.95,175.54s10.28,15.87,14.47,13.51.27-9.26-5.07-17.5c-5.34-8.24-51.53-86.98-52.87-172.22-1.65-104.74,41.53-177.36,41.53-177.36,0,0-50.41,73.3-48.02,178.02Z"/>
              <path d="m337.25,401.53c2.01,87.98,43.16,164.21,49.95,175.54s10.28,15.87,14.47,13.51.27-9.26-5.07-17.5c-5.34-8.24-51.53-86.98-52.87-172.22-1.65-104.74,41.53-177.36,41.53-177.36,0,0-50.41,73.3-48.02,178.02Z"/>
            </g>
          </g>
        </g>
      </g>
    </g>
  </g>
</svg>