<?xml version="1.0" encoding="utf-8"?>
<!-- Generator: Adobe Illustrator 27.2.0, SVG Export Plug-In . SVG Version: 6.00 Build 0)  -->
<svg version="1.1" id="_圖層_2" xmlns="http://www.w3.org/2000/svg" xmlns:xlink="http://www.w3.org/1999/xlink" x="0px" y="0px"
	 viewBox="0 0 1420 1358.2" style="enable-background:new 0 0 1420 1358.2;" xml:space="preserve">
<style type="text/css">
	.st0{fill:url(#SVGID_1_);}
	.st1{fill:#FFFFFF;}
</style>
<g id="_圖層_1-2">
	<g>
		<g>
			<g>
				
					<linearGradient id="SVGID_1_" gradientUnits="userSpaceOnUse" x1="835.3588" y1="190.4782" x2="610.2188" y2="341.0582" gradientTransform="matrix(1 0 0 1 0 322)">
					<stop  offset="0" style="stop-color:#21CFDE"/>
					<stop  offset="0" style="stop-color:#20CEDD"/>
					<stop  offset="0.18" style="stop-color:#1A9FDA"/>
					<stop  offset="0.35" style="stop-color:#1478D8"/>
					<stop  offset="0.52" style="stop-color:#105AD6"/>
					<stop  offset="0.69" style="stop-color:#0D45D5"/>
					<stop  offset="0.85" style="stop-color:#0B38D4"/>
					<stop  offset="1" style="stop-color:#0B34D4"/>
				</linearGradient>
				<path class="st0" d="M713.9,787.8c-90.6-70.9-146.8-171.7-163.6-278.9c102.9-42.7,220.5-45.8,327.8-4.4
					c-9,62-31.5,123.1-68.2,178.8C783,724.3,750.4,759.2,713.9,787.8L713.9,787.8z"/>
				<path class="st1" d="M727,638.5c0,2.1,1.7,3.8,3.8,3.8h6.4c2.1,0,3.8-1.7,3.8-3.8v-73.2c0-2.1-1.7-3.8-3.8-3.8h-1.9
					c-0.5,0-0.9,0.1-1.4,0.2l-18.5,7c-1.5,0.6-2.5,2-2.5,3.6v1.2c0,2.2,1.9,4,4.2,3.8l5.7-0.5c2.2-0.2,4.2,1.6,4.2,3.8L727,638.5
					L727,638.5z"/>
				<path class="st1" d="M753.8,638.5c0,2.1,1.7,3.8,3.8,3.8h44.4c2.1,0,3.8-1.7,3.8-3.8v-3.5c0-2.1-1.7-3.8-3.8-3.8H771
					c-0.1,0-0.2-0.1-0.2-0.2c0-0.1,0-0.1,0.1-0.2l11.7-10.9c13.8-12.9,21.8-22.1,21.8-35.8c0-14.7-9.6-23.4-26.6-23.4
					c-8.5,0-15,1.6-20.2,4c-1.3,0.6-2.1,1.9-2.1,3.3v2.2c0,2.8,3,4.7,5.7,3.9c3.6-1.1,7.7-1.9,12.3-1.9c10.4,0,16.1,4.1,16.1,13.7
					c0,10.3-6.6,18.2-17.5,29l-17,16.7c-0.7,0.7-1.1,1.7-1.1,2.7V638.5L753.8,638.5z"/>
				<path class="st1" d="M698.2,563c-3.6-2-8.1-0.5-10,3.4L661.5,624c-0.6,1.2-1.2,2.1-2.6,2.1s-2-0.8-2.6-2.1l-26.7-57.7
					c-1.9-3.8-6.3-5.3-10-3.4c-3.6,2-5.1,6.7-3.2,10.5l26.1,53.4l3,6.1c2.6,5.3,7.7,8.6,13.4,8.6c5.7,0,10.8-3.3,13.4-8.6l3-6.1
					l26.1-53.4C703.2,569.7,701.8,564.9,698.2,563L698.2,563z"/>
			</g>
		</g>
	</g>
</g>
</svg>
