<?xml version="1.0" encoding="utf-8"?>
<!-- Generator: Adobe Illustrator 26.3.1, SVG Export Plug-In . SVG Version: 6.00 Build 0)  -->
<svg version="1.1" id="圖層_1" xmlns="http://www.w3.org/2000/svg" xmlns:xlink="http://www.w3.org/1999/xlink" x="0px" y="0px"
	 viewBox="0 0 160 160" style="enable-background:new 0 0 160 160;" xml:space="preserve">
<style type="text/css">
	.st0{fill:#F2F2F2;}
	.st1{fill:#EFECE8;}
	.st2{fill:#BCBEC0;}
	.st3{fill:#7A6D64;}
</style>
<rect class="st0" width="160" height="160"/>
<path class="st1" d="M80,36.5C56,36.5,36.5,56,36.5,80c0,10.1,3.5,19.9,10,27.8C49.4,95.9,58.4,86.5,70,83c-8.3-5.5-10.5-16.7-5-25
	s16.7-10.5,25-5s10.5,16.7,5,25c-1.3,2-3,3.7-5,5c11.7,3.5,20.6,12.9,23.5,24.8c15.3-18.5,12.8-45.9-5.7-61.3
	C100,40,90.2,36.5,80,36.5z"/>
<path class="st2" d="M90,83c8.3-5.5,10.5-16.7,5-25s-16.7-10.5-25-5s-10.5,16.7-5,25c1.3,2,3,3.7,5,5c-11.6,3.5-20.6,12.9-23.5,24.8
	l0,0c0.5,0.6,1,1.1,1.5,1.7l0.4,0.4c0.4,0.4,0.8,0.8,1.2,1.2l0.5,0.5c0.4,0.4,0.8,0.7,1.1,1l0.6,0.5l1.2,0.9l0.6,0.5
	c0.4,0.3,0.8,0.6,1.2,0.9l0.6,0.4l1.3,0.8l0.6,0.4c0.5,0.3,1,0.6,1.5,0.9l0.4,0.2c0.7,0.4,1.3,0.7,2,1h0c0.7,0.3,1.3,0.6,2,0.9
	l0.6,0.2c0.5,0.2,1,0.4,1.5,0.6l0.8,0.3c0.4,0.2,0.9,0.3,1.4,0.4l0.9,0.2l1.3,0.4l0.9,0.2c0.5,0.1,0.9,0.2,1.4,0.3l0.9,0.2
	c0.5,0.1,1,0.1,1.4,0.2l0.9,0.1l1.6,0.1l0.8,0.1c0.8,0,1.6,0.1,2.4,0.1s1.6,0,2.4-0.1c0.3,0,0.5,0,0.8-0.1c0.5,0,1.1-0.1,1.6-0.1
	l0.9-0.1c0.5-0.1,0.9-0.1,1.4-0.2l0.9-0.2l1.4-0.3c0.3-0.1,0.6-0.1,0.9-0.2s0.9-0.2,1.3-0.4l0.9-0.2c0.5-0.1,0.9-0.3,1.4-0.4
	l0.8-0.3l1.5-0.6l0.6-0.2c0.7-0.3,1.3-0.6,2-0.9h0.1c0.7-0.3,1.3-0.7,2-1l0.4-0.2c0.5-0.3,1-0.6,1.5-0.9l0.6-0.4
	c0.4-0.3,0.9-0.6,1.3-0.9l0.6-0.4c0.4-0.3,0.8-0.6,1.2-0.9l0.6-0.5c0.4-0.3,0.8-0.6,1.2-0.9l0.6-0.5c0.4-0.3,0.8-0.7,1.1-1l0.5-0.5
	c0.4-0.4,0.8-0.8,1.2-1.2l0.4-0.4c0.5-0.6,1-1.1,1.5-1.7l0,0C110.5,96,101.6,86.6,90,83z"/>
<path class="st3" d="M80,35c-24.9,0-45,20.2-45,45c0,10.4,3.6,20.5,10.3,28.6c0,0,0,0.1,0,0.1c4.6,5.5,10.4,9.9,17,12.7l0.2,0.1
	c0.5,0.2,1.1,0.4,1.6,0.6l0.6,0.2l1.4,0.5l0.9,0.3l1.2,0.4l1.1,0.3l1.1,0.3l1.3,0.2c0.3,0.1,0.7,0.1,1,0.2s1,0.1,1.4,0.2l0.9,0.1
	l1.6,0.1c0.2,0,0.5,0,0.8,0.1c0.8,0,1.6,0.1,2.4,0.1s1.6,0,2.4-0.1l0.8-0.1c0.5,0,1.1-0.1,1.6-0.1c0.3,0,0.6-0.1,0.9-0.1l1.4-0.2
	l1-0.2l1.3-0.2l1.1-0.3l1.1-0.3l1.2-0.4l0.9-0.3l1.4-0.5l0.6-0.2l1.6-0.6l0.2-0.1c6.6-2.8,12.4-7.2,17-12.7v-0.1
	c15.8-19.2,13.1-47.5-6.1-63.3C100.5,38.7,90.4,35,80,35z M89,81.8c-0.6,0.4-1.2,0.7-1.8,1l-0.2,0.1c-4.4,2-9.4,2-13.8,0l-0.2-0.1
	c-0.6-0.3-1.2-0.6-1.8-1c-7.6-5-9.8-15.2-4.8-22.8c5-7.6,15.2-9.8,22.8-4.8s9.8,15.2,4.8,22.8C92.6,78.9,91,80.6,89,81.8L89,81.8z
	 M70.5,85l0.4,0.2c0.4,0.2,0.9,0.5,1.4,0.7s0.7,0.3,1.1,0.4l0.2,0.1c4.2,1.5,8.8,1.5,13,0l0.2-0.1c0.4-0.1,0.7-0.3,1.1-0.4
	s0.9-0.4,1.4-0.7l0.4-0.2c0.2-0.1,0.4-0.2,0.7-0.4c10.6,3.5,18.7,12,21.7,22.7c-3.8,4.4-8.4,8-13.6,10.5h-0.1
	c-0.5,0.3-1.1,0.5-1.6,0.7l-0.4,0.2c-0.5,0.2-1,0.4-1.5,0.6l-0.6,0.2l-1.3,0.4l-0.8,0.3l-1.2,0.3l-1,0.2l-1.1,0.2l-1.2,0.2l-1,0.2
	c-0.4,0.1-0.9,0.1-1.3,0.2l-0.8,0.1c-0.5,0.1-1,0.1-1.5,0.1l-0.7,0.1c-0.7,0-1.5,0.1-2.2,0.1s-1.5,0-2.2-0.1l-0.7-0.1
	c-0.5,0-1-0.1-1.5-0.1l-0.8-0.1c-0.4-0.1-0.9-0.1-1.3-0.2l-1-0.2l-1.2-0.2l-1.1-0.2l-1-0.2l-1.1-0.3l-0.8-0.2l-1.3-0.4l-0.6-0.2
	c-0.5-0.2-1-0.4-1.5-0.6l-0.4-0.2c-0.5-0.2-1.1-0.5-1.6-0.7h-0.1c-5.2-2.5-9.8-6.1-13.6-10.5c2.9-10.7,11.1-19.3,21.7-22.7
	C70,84.8,70.2,84.9,70.5,85z M114.1,104.5c-3.4-10.1-11.2-18.2-21.1-22c8-7.2,8.7-19.5,1.5-27.5S75,46.2,67,53.4s-8.7,19.5-1.5,27.5
	c0.5,0.5,1,1.1,1.5,1.5c-9.9,3.9-17.6,11.9-21.1,22c-13.5-18.8-9.3-45.1,9.6-58.6s45.1-9.3,58.6,9.6
	C124.7,70.1,124.7,89.8,114.1,104.5L114.1,104.5z"/>
</svg>
