<?xml version="1.0" encoding="UTF-8"?>
<svg id="_圖層_2" data-name="圖層 2" xmlns="http://www.w3.org/2000/svg" viewBox="0 0 66 64">
  <defs>
    <style>
      .cls-1, .cls-2 {
        fill: none;
      }

      .cls-2 {
        stroke: #16a939;
        stroke-linecap: round;
        stroke-linejoin: round;
        stroke-width: 2px;
      }
    </style>
  </defs>
  <g id="_圖層_2-2" data-name="圖層 2">
    <g>
      <path class="cls-2" d="m32.82,46.38c-2.22,0-4.09-1.75-4.09-4.09s1.87-3.97,4.09-3.97,4.09,1.75,4.09,4.09-1.75,3.97-4.09,3.97Zm10.52-3.97c0-.82-.12-1.64-.23-2.34l2.22-1.87-2.57-4.56-2.69,1.05c-1.17-1.05-2.57-1.87-4.09-2.34l-.47-2.92h-5.14l-.47,2.92c-1.52.47-2.92,1.29-4.09,2.34l-2.8-1.05-2.57,4.44,2.22,1.87c-.23.82-.23,1.52-.23,2.34s.12,1.64.23,2.34l-2.22,1.87,2.57,4.44,2.69-1.05c1.17,1.05,2.57,1.87,4.09,2.34l.47,2.92h5.14l.47-2.92c1.52-.47,2.92-1.29,4.09-2.34l2.69,1.05,2.57-4.44-2.22-1.87c.35-.58.35-1.4.35-2.22Zm9.35-.12h4.32c1.64-.23,3.16-.82,4.56-1.87,3.16-2.57,4.32-7.01,2.69-10.75-.23-.58-.59-1.17-.94-1.64-.35-.47-.93-.93-1.17-1.28-.82-.82-2.22-1.52-3.39-1.87-.7-.23-1.4-.35-2.1-.47-.23,0-.7,0-.93-.12-.23-.12-.12-.35-.12-.58.12-1.4.12-2.92-.12-4.32-.12-.7-.35-1.4-.58-2.1-.12-.35-.23-.7-.35-1.05-.12-.23-.23-.47-.23-.7-.7-1.05-1.29-2.1-2.1-3.04-3.51-3.86-8.88-5.14-13.67-3.39-1.99.7-3.74,1.99-5.14,3.51-.7.82-1.28,1.64-1.75,2.57-.23.47-.47,1.05-.7,1.64-.23.35-.23.47-.58.12-1.75-1.64-3.51-3.04-5.84-3.39-2.22-.35-4.68,0-6.66.93-1.87.93-3.39,2.45-4.44,4.21-.7,1.17-1.17,2.34-1.4,3.51-.12.35-.12.82-.23,1.17,0,.23,0,.58-.12.7-.23.12-.58,0-.7,0h-1.17c-4.56.23-8.41,3.74-8.76,8.3-.47,4.91,3.51,9.23,8.18,9.7h3.97"/>
      <rect class="cls-1" x="1" width="64" height="64"/>
    </g>
  </g>
</svg>