<?xml version="1.0" encoding="UTF-8"?>
<svg id="_圖層_2" data-name="圖層 2" xmlns="http://www.w3.org/2000/svg" viewBox="0 0 64 64">
  <defs>
    <style>
      .cls-1, .cls-2 {
        fill: none;
      }

      .cls-2 {
        stroke: #16a939;
        stroke-linecap: round;
        stroke-linejoin: round;
        stroke-width: 2px;
      }
    </style>
  </defs>
  <g id="_圖層_2-2" data-name="圖層 2">
    <g>
      <path class="cls-2" d="m57,62H7c-2.72,0-4.94-2.22-4.94-4.94V6.94c0-2.72,2.22-4.94,4.94-4.94h50c2.72,0,4.94,2.22,4.94,4.94v50c.12,2.84-2.1,5.06-4.94,5.06ZM16.01,25.95v26.05m31.98-26.05v26.05m-15.93-16.05v16.05m0-16.05c2.18,0,3.95-1.77,3.95-3.95s-1.77-3.95-3.95-3.95-3.95,1.77-3.95,3.95,1.77,3.95,3.95,3.95Zm-16.05-17.9c2.18,0,3.95,1.77,3.95,3.95s-1.77,3.95-3.95,3.95m0-7.9c-2.18,0-3.95,1.77-3.95,3.95s1.77,3.95,3.95,3.95m0-13.95v6.05m31.98,0c2.18,0,3.95,1.77,3.95,3.95s-1.77,3.95-3.95,3.95m0-7.9c-2.18,0-3.95,1.77-3.95,3.95s1.77,3.95,3.95,3.95m0-13.95v6.05m-15.93-6.05v15.93"/>
      <rect class="cls-1" width="64" height="64"/>
    </g>
  </g>
</svg>