<?xml version="1.0" encoding="UTF-8"?>
<svg id="_圖層_2" data-name="圖層 2" xmlns="http://www.w3.org/2000/svg" viewBox="0 0 64 64">
  <defs>
    <style>
      .cls-1, .cls-2 {
        fill: none;
      }

      .cls-2 {
        stroke: #16a939;
        stroke-linecap: round;
        stroke-linejoin: round;
        stroke-width: 2px;
      }
    </style>
  </defs>
  <g id="_圖層_2-2" data-name="圖層 2">
    <g>
      <path class="cls-2" d="m43.96,23.59c-11.07,3.43-14.28,5.76-14.28,5.76-.89.66-1.44,1.66-1.44,2.77-.11,1.11.33,2.21,1,3.1.55.55,1.11,1,1.88,1.33,1.44.55,3.1.33,4.32-.66-.11,0,2.99-2.66,8.52-12.29Zm18.04,8.41c0,16.57-13.43,30-30,30S2,48.57,2,32,15.43,2,32,2s30,13.43,30,30Zm-52.36-.22c0-11.96,9.74-21.7,21.7-21.7,4.1,0,7.86,1.11,11.07,3.1"/>
      <rect class="cls-1" width="64" height="64"/>
    </g>
  </g>
</svg>