<?xml version="1.0" encoding="UTF-8"?>
<svg id="_圖層_2" data-name="圖層 2" xmlns="http://www.w3.org/2000/svg" viewBox="0 0 64 64">
  <defs>
    <style>
      .cls-1, .cls-2 {
        fill: none;
      }

      .cls-2 {
        stroke: #16a939;
        stroke-linecap: round;
        stroke-linejoin: round;
        stroke-width: 2px;
      }
    </style>
  </defs>
  <g id="_圖層_2-2" data-name="圖層 2">
    <g>
      <path class="cls-2" d="m43.34,44.86c0-2.89,2.35-5.25,5.24-5.25h7.38v10.5h-7.38c-2.89,0-5.24-2.36-5.24-5.25ZM31.36,2v9.54m-7.7-5.25v7.82m13.8,17.14h-15.19m15.19,0h3.32m-3.32,0c1.39-1.39,2.25-3.43,2.25-5.57,0-.11,0-.21,0-.32m-14.11,5.57c-1.18-1.39-1.93-3.22-1.93-5.25,0-4.39,3.64-8.04,8.02-8.04s7.84,3.47,8.02,7.71m-16.68,0h-10.16c-2.67,0-4.82,2.14-4.82,4.82v27c0,2.68,2.14,4.82,4.82,4.82h38.3c2.67,0,4.81-2.14,4.81-4.82v-27c0-2.68-2.14-4.82-4.81-4.82h-11.45m-.64-19.07v7.82m10.27,30.75h.32"/>
      <rect class="cls-1" width="64" height="64"/>
    </g>
  </g>
</svg>