<?xml version="1.0" encoding="UTF-8"?>
<svg id="_圖層_2" data-name="圖層 2" xmlns="http://www.w3.org/2000/svg" xmlns:xlink="http://www.w3.org/1999/xlink" viewBox="0 0 444.6 103.15">
  <defs>
    <style>
      .cls-1 {
        filter: url(#drop-shadow-2);
      }

      .cls-2 {
        filter: url(#drop-shadow-1);
      }

      .cls-3 {
        fill: #fff;
      }

      .cls-3, .cls-4 {
        stroke-width: 0px;
      }

      .cls-4 {
        fill: #f4e891;
      }
    </style>
    <filter id="drop-shadow-1" filterUnits="userSpaceOnUse">
      <feOffset dx="2" dy="2"/>
      <feGaussianBlur result="blur" stdDeviation="0"/>
      <feFlood flood-color="#000" flood-opacity=".25"/>
      <feComposite in2="blur" operator="in"/>
      <feComposite in="SourceGraphic"/>
    </filter>
    <filter id="drop-shadow-2" filterUnits="userSpaceOnUse">
      <feOffset dx="2" dy="2"/>
      <feGaussianBlur result="blur-2" stdDeviation="0"/>
      <feFlood flood-color="#000" flood-opacity=".25"/>
      <feComposite in2="blur-2" operator="in"/>
      <feComposite in="SourceGraphic"/>
    </filter>
  </defs>
  <g id="_圖層_1-2" data-name="圖層 1">
    <g>
      <g class="cls-2">
        <path class="cls-4" d="m30.27,44.53H3.35v-6.12c1.93-1.84,3.76-3.59,5.48-5.27,1.72-1.68,3.4-3.43,5.04-5.24,3.32-3.65,5.59-6.58,6.8-8.77s1.82-4.47,1.82-6.81c0-1.21-.19-2.27-.57-3.19-.38-.92-.9-1.68-1.57-2.29-.68-.59-1.47-1.03-2.37-1.32s-1.88-.44-2.96-.44-2.08.13-3.15.4-2.08.59-3.06.98c-.82.33-1.61.73-2.37,1.2s-1.38.87-1.85,1.2h-.32V2.64c1.21-.6,2.9-1.2,5.05-1.77,2.16-.58,4.2-.86,6.14-.86,4.06,0,7.25,1.08,9.55,3.24,2.3,2.16,3.46,5.08,3.46,8.77,0,1.7-.2,3.27-.6,4.72-.4,1.45-.95,2.78-1.66,4.01-.72,1.27-1.59,2.53-2.61,3.78-1.02,1.25-2.09,2.48-3.22,3.69-1.84,1.99-3.88,4.06-6.14,6.21-2.26,2.15-4.06,3.85-5.41,5.1h21.45v5.01Z"/>
        <path class="cls-4" d="m63.23,22.71c0,7.83-1.14,13.58-3.41,17.24s-5.79,5.49-10.53,5.49-8.33-1.86-10.58-5.6c-2.25-3.73-3.37-9.42-3.37-17.08s1.14-13.63,3.41-17.27C41.03,1.85,44.54.03,49.28.03s8.33,1.89,10.58,5.65c2.25,3.77,3.37,9.44,3.37,17.02Zm-7.5,13.3c.57-1.45.97-3.27,1.2-5.48.23-2.21.35-4.81.35-7.82s-.12-5.59-.35-7.79c-.23-2.21-.64-4.04-1.23-5.51-.59-1.48-1.39-2.61-2.42-3.38-1.03-.77-2.36-1.16-4-1.16s-2.95.39-4,1.16c-1.04.77-1.87,1.92-2.48,3.44-.59,1.48-.99,3.36-1.2,5.62-.21,2.27-.32,4.82-.32,7.68,0,3.05.09,5.6.28,7.65s.59,3.89,1.22,5.51c.57,1.5,1.37,2.66,2.42,3.47,1.04.81,2.41,1.22,4.09,1.22s2.95-.39,4-1.16c1.04-.77,1.86-1.92,2.45-3.44Z"/>
        <path class="cls-4" d="m95.78,44.53h-26.92v-6.12c1.93-1.84,3.76-3.59,5.48-5.27,1.72-1.68,3.4-3.43,5.04-5.24,3.32-3.65,5.59-6.58,6.8-8.77s1.82-4.47,1.82-6.81c0-1.21-.19-2.27-.57-3.19-.38-.92-.9-1.68-1.57-2.29-.68-.59-1.47-1.03-2.37-1.32s-1.88-.44-2.96-.44-2.08.13-3.15.4-2.08.59-3.06.98c-.82.33-1.61.73-2.37,1.2s-1.38.87-1.85,1.2h-.32V2.64c1.21-.6,2.9-1.2,5.05-1.77,2.16-.58,4.2-.86,6.14-.86,4.06,0,7.25,1.08,9.55,3.24,2.3,2.16,3.46,5.08,3.46,8.77,0,1.7-.2,3.27-.6,4.72-.4,1.45-.95,2.78-1.66,4.01-.72,1.27-1.59,2.53-2.61,3.78-1.02,1.25-2.09,2.48-3.22,3.69-1.84,1.99-3.88,4.06-6.14,6.21-2.26,2.15-4.06,3.85-5.41,5.1h21.45v5.01Z"/>
        <path class="cls-4" d="m113.38,5.07c-1.05,0-2.11.13-3.16.38-1.05.25-2.09.59-3.11,1-.94.39-1.75.8-2.45,1.23-.69.43-1.31.83-1.86,1.2h-.35V2.7c1.27-.68,2.99-1.3,5.17-1.86s4.25-.83,6.23-.83,3.7.2,5.17.6c1.47.4,2.81,1.02,4,1.86,1.29.94,2.26,2.07,2.92,3.4.65,1.33.98,2.88.98,4.66,0,2.4-.79,4.51-2.37,6.33s-3.48,2.97-5.68,3.46v.41c.92.18,1.9.48,2.94.91,1.04.43,2.02,1.06,2.92,1.9.9.84,1.63,1.92,2.2,3.24s.85,2.93.85,4.82-.34,3.78-1.01,5.43c-.67,1.65-1.63,3.11-2.86,4.38-1.27,1.33-2.8,2.33-4.6,3.02s-3.84,1.03-6.12,1.03-4.36-.26-6.5-.79-3.96-1.16-5.42-1.9v-6.18h.41c1.23.9,2.88,1.76,4.95,2.58s4.14,1.23,6.21,1.23c1.19,0,2.39-.19,3.59-.57s2.2-1,3-1.86c.78-.86,1.38-1.81,1.79-2.84.41-1.04.62-2.34.62-3.93s-.23-2.88-.69-3.9c-.46-1.02-1.1-1.82-1.92-2.4s-1.79-.99-2.92-1.22c-1.12-.22-2.34-.34-3.65-.34h-2.49v-4.86h1.93c2.64,0,4.78-.62,6.43-1.88,1.65-1.25,2.48-3.07,2.48-5.45,0-1.09-.21-2.04-.64-2.83s-.98-1.42-1.64-1.89c-.74-.51-1.56-.86-2.46-1.05-.9-.19-1.86-.29-2.87-.29Z"/>
      </g>
      <g class="cls-1">
        <path class="cls-3" d="m43.25,86.6v4.45h-9.65c3.3,2.85,6.1,5.7,8.4,8.5l-3.5,3.6c-.9-1.2-1.85-2.4-2.9-3.6-10,1.2-20.4,2.05-31.1,2.45l-1.3-4.2c1.25-.2,2.35-.65,3.35-1.3,1.2-1,2.9-2.85,5.1-5.45H0v-4.45h43.25Zm-2.05-28.7v4.3h-17.05v1.9h19v11h-5.1v-6.9h-13.9v10.2h-5.1v-10.2H5.15v6.9H.05v-11h19v-1.9H1.95v-4.3h39.25Zm-1.9,22.3v4.4H3.9v-4.4h35.4Zm-22.2-2.75c-1.95.7-5.3,1.25-10.05,1.75l-1-3.35c4.65-.3,7.95-.85,9.95-1.55l1.1,3.15Zm-.1-6.85l-1.25,3.05c-3-.5-6.1-.9-9.35-1.2l1.65-3.1c3.1.3,6.1.7,8.95,1.25Zm-5.05,26.7c7.9-.5,14.5-1,19.9-1.55-1.1-1.05-2.25-2.05-3.4-3.05l1.7-1.65h-12.5c-1.65,2.2-3.55,4.3-5.7,6.25Zm25.2-21.35l-1.4,3.35c-3.2-.9-6.45-1.55-9.85-2.05l1.55-2.9c3.35.35,6.6.9,9.7,1.6Zm-11-5.55c3.3-.3,6.3-.85,8.95-1.7l1.3,3.45c-2.7.65-5.9,1.15-9.55,1.5l-.7-3.25Z"/>
        <path class="cls-3" d="m64.5,95.65c-4.6,1.6-9.55,3-14.8,4.15l-1.35-5.1c2.9-.45,5.75-1.05,8.55-1.75.9-7,1.6-14.35,2.05-22.15l4.65.65c-.55,7.3-1.35,14.05-2.35,20.25l3.25-1.05v5Zm-10.05-31.4c-.6-2.3-1.3-4.4-2.05-6.35l5.2-.85c.6,2.1,1.2,4.5,1.8,7.2h5.35v4.9h-16.2v-4.9h5.9Zm1.55,26.35l-4.15,1c-.6-6.6-1.4-12.9-2.3-19l4.3-1.4c.8,5.6,1.5,12.1,2.15,19.4Zm38.15-17.65v4.8h-12.5c-.3,1.2-.6,2.35-1,3.45h12.5v16.95c0,2.9-1.25,4.35-3.75,4.35h-2.25l-1.25-4.6,2,.15c.4,0,.65-.3.65-.85v-11.4h-3.05v15.8h-4.3v-15.8h-2.65v15.85h-4.3v-15.85h-2.9v16.7h-4.7v-21.3h8.9c.4-1.15.7-2.3.95-3.45h-10.8v-4.8h28.45Zm-6.9-14.45h4.95v11.6h-24.9v-11.6h5v7.05h4.85v-9h5.1v9h5v-7.05Z"/>
        <path class="cls-3" d="m131.35,64.3c-.2.65-.4,1.3-.6,1.9,3.6,3.2,8,5.05,13.25,5.65l-2.1,4.35c-1.3-.2-2.5-.5-3.6-.8v20.4h-8.45c4.85.8,9.5,1.85,13.9,3.15l-1.7,4.15c-5.3-1.85-10.9-3.25-16.7-4.25l1.55-3.05h-11.25l2,2.65c-3.7,1.9-9,3.45-15.9,4.65l-2.35-4.05c5.95-.9,10.6-1.95,14-3.25h-8.45v-20.95h12.2l-1.9-3c6.6-1.15,10.5-3.95,11.7-8.45l4.4.9Zm-17.3,3.6v4.45h-14.55v-4.45h14.55Zm-1.05-9v4.4h-12.5v-4.4h12.5Zm20.2,21.95v-2.1h-23.15v2.1h23.15Zm0,5.35v-2h-23.15v2h23.15Zm0,3.3h-23.15v2.2h23.15v-2.2Zm-16.7-20.95l-2.85-3.75c3.5-2.35,5.85-5.25,7.1-8.75l4.8.6c-.3.8-.55,1.5-.85,2.2h17.35v3.6c-1.3,2.65-2.75,4.85-4.3,6.6l-3.5-2.85c.85-.9,1.65-1.9,2.4-3.05h-14.5c-1.55,2-3.45,3.8-5.65,5.4Zm20.25,6.3c-3-1.2-5.7-2.9-8-5.2-1.95,2.4-4.65,4.1-8.15,5.2h16.15Z"/>
        <path class="cls-3" d="m155.75,81.5c-1,5.2-2.15,9.8-3.55,13.75l-3.8-1.35c1.4-3.5,2.6-8,3.6-13.4l3.75,1Zm.1-10.55l-4,1.1c-.7-3.5-1.6-6.9-2.65-10.1l4.3-1.4c.85,3,1.65,6.5,2.35,10.4Zm1.05,2.55v-17.1h5.1v17.1h6.5v5.05h-6.5v24h-5.1v-24h-7.05v-5.05h7.05Zm12-12.85c-.3,4.15-.95,7.85-2,11.05l-3.85-1.25c.8-3,1.3-6.5,1.5-10.4l4.35.6Zm.6,31.35l-3.9,1c-.6-4.05-1.35-7.9-2.25-11.6l3.35-1.1c1.05,3.4,2,7.3,2.8,11.7Zm20.55-35.45v27.85l4.05-.6.85,5-4.9.75v13.1h-5.05v-12.35l-14.35,2.15-.75-5,15.1-2.3v-28.6h5.05Zm-7.6,22.85l-3.5,3.4c-1.9-2.45-4.7-5.1-8.3-7.9l3.4-3.2c3.3,2.6,6.1,5.15,8.4,7.7Zm1.45-12.2l-3.45,3.4c-2-2.3-4.85-4.75-8.5-7.4l3.35-3.25c3.4,2.45,6.3,4.85,8.6,7.25Z"/>
        <path class="cls-3" d="m213.65,58.3c-1.1,3.55-2.55,6.95-4.35,10.25v34.25h-5.3v-26.15c-1.3,1.7-2.75,3.35-4.25,4.95l-1.75-5.6c4.8-5.65,8.4-12.35,10.7-20.05l4.95,2.35Zm9.8,30.9c-2.75,4-6.1,7.5-10.05,10.5l-3.2-4.15c3.85-2.7,7.05-5.9,9.65-9.5l3.6,3.15Zm16.4-30.75v16.9h-9.65v3.95h13.8v5.1h-13.8v18.35h-5.2v-18.35h-13.3v-5.1h13.3v-3.95h-9.55v-16.9h24.4Zm-5.15,5h-14.1v6.9h14.1v-6.9Zm10.45,32.3l-3.5,3.85c-3.15-3.9-6.45-7.25-9.85-10.15l3.2-3.55c3.7,3.05,7.1,6.35,10.15,9.85Z"/>
        <path class="cls-3" d="m259.6,62.3h4.75v4.6h-15.45v-4.6h5.75c-.6-1.6-1.25-3.15-1.95-4.65l4.95-1.35c.85,2.2,1.5,4.2,1.95,6Zm3.9,37.35h-8.75v2.3h-4.7v-17.65h13.45v15.35Zm-.55-29.75v4.3h-12.35v-4.3h12.35Zm0,6.95v4.3h-12.35v-4.3h12.35Zm-4.05,18.5v-6.85h-4.15v6.85h4.15Zm14-36.7v-2.3h4.6v8.3l3.6-.55v-7.75h4.6v2.3h7.85v4.1h-7.85v2.45h-3.75c.25.6.5,1.2.75,1.85h10.65v3.4h-9.9v1.95h7.95v3h-7.95v1.9h7.95v2.95h-7.95v2h10.25v3.35h-25.85v-9.75c-.9,1.1-1.75,2.15-2.65,3.05l-2.8-3.3c2.65-2.6,4.95-6.3,6.85-11.05l4.3.95-.65,1.55h5.3c-.3-.65-.6-1.25-.95-1.85h-4.35v-2.45h-7.75v-4.1h7.75Zm-6.35,32.25v-3.65h24.9v3.45c-1.35,2.15-3.4,4.1-6.15,5.8,2.95.9,6.2,1.65,9.75,2.25l-2.75,4.05c-4.7-.95-8.75-2.2-12.25-3.75-3.9,1.55-8.6,2.85-14.2,3.85l-1.8-4.35c4.1-.6,7.7-1.35,10.8-2.25-2.5-1.6-4.65-3.4-6.35-5.4h-1.95Zm12.5-20.45h-6.9v1.95h6.9v-1.95Zm0,4.95h-6.9v1.9h6.9v-1.9Zm0,4.85h-6.9v2h6.9v-2Zm6.8,10.65h-11.7c1.7,1.3,3.65,2.5,5.85,3.55,2.4-1.05,4.35-2.25,5.85-3.55Z"/>
        <path class="cls-3" d="m318.4,69c.3-2.6.5-5.25.55-8.05v-4.5h5.3v3.3c0,3.25-.2,6.35-.55,9.25h20.05v5.1h-18.85c3.6,10.45,10.25,18.5,20,24.2l-3.3,4.3c-9.4-5.8-16.05-13.85-19.85-24.15-3.4,11.15-10.1,19.35-20.1,24.6l-3.35-4.4c10.1-4.9,16.5-13.1,19.2-24.55h-18.05v-5.1h18.95Z"/>
        <path class="cls-3" d="m354.65,62.25c-.6-1.55-1.25-3.1-1.95-4.6l4.95-1.35c.85,2.2,1.5,4.15,1.95,5.95h4.75v4.7h-15.45v-4.7h5.75Zm8.95,37.45h-8.8v2.25h-4.8v-17.7h13.6v15.45Zm-.65-29.85v4.4h-12.35v-4.4h12.35Zm0,6.95v4.4h-12.35v-4.4h12.35Zm-4.1,18.5v-6.75h-4.05v6.75h4.05Zm34.4,2.1c0,3.3-1.55,5-4.65,5h-4.75l-1.2-4.75c1.6.15,3.05.25,4.45.25.8,0,1.2-.75,1.2-2.25v-16.4h-17.2v4.35c-.05,7.9-1.1,14.35-3.2,19.3l-4-3.6c1.5-4.05,2.3-9.2,2.35-15.4v-25.95h27v39.45Zm-15.8-30.65v-4.1h-6.35v4.1h6.35Zm0,8.2v-3.8h-6.35v3.8h6.35Zm8.8,7.1v13.4h-13.3v-13.4h13.3Zm-4.25,4.15h-4.8v5.1h4.8v-5.1Zm6.3-19.45v-4.1h-6.25v4.1h6.25Zm0,8.2v-3.8h-6.25v3.8h6.25Z"/>
        <path class="cls-3" d="m419.15,74.9v-9.3c-3.9,4.4-9.85,8.1-17.85,11.05l-2.85-4.6c7.1-1.9,12.5-4.15,16.25-6.85h-13.75v-4.8h18.2v-4.05h5.1v4.05h18.2v4.8h-18.2v.85c7.5,1.9,14.25,3.95,20.35,6.2l-3.4,3.8c-5.55-2.4-11.2-4.55-16.95-6.4v5.25h12.9v19.15h-30.9v-19.15h12.9Zm24.15,21.75v4.75h-43.35v-4.75h43.35Zm-11.25-14.3v-2.85h-20.7v2.85h20.7Zm0,4.4h-20.7v2.7h20.7v-2.7Z"/>
      </g>
    </g>
  </g>
</svg>