<?xml version="1.0" encoding="utf-8"?>
<!-- Generator: Adobe Illustrator 26.3.1, SVG Export Plug-In . SVG Version: 6.00 Build 0)  -->
<svg version="1.1" id="圖層_1" xmlns="http://www.w3.org/2000/svg" xmlns:xlink="http://www.w3.org/1999/xlink" x="0px" y="0px"
	 viewBox="0 0 160 160" style="enable-background:new 0 0 160 160;" xml:space="preserve">
<style type="text/css">
	.st0{fill:#F2F2F2;}
	.st1{fill:#EFECE8;}
	.st2{fill:#BCBEC0;}
</style>
<rect class="st0" width="160" height="160"/>
<g>
	<path class="st1" d="M80.2,0C36,0,0.2,35.8,0.2,80c0,18.6,6.4,36.6,18.4,51.1c5.3-21.9,21.9-39.2,43.2-45.6
		c-15.3-10.1-19.3-30.7-9.2-46s30.7-19.3,46-9.2s19.3,30.7,9.2,46c-2.4,3.7-5.5,6.8-9.2,9.2c21.5,6.4,37.9,23.7,43.2,45.6
		c28.1-34,23.5-84.4-10.5-112.7C116.9,6.4,98.9,0,80.2,0z"/>
	<path class="st2" d="M98.6,85.5c15.3-10.1,19.3-30.7,9.2-46s-30.7-19.3-46-9.2s-19.3,30.7-9.2,46c2.4,3.7,5.5,6.8,9.2,9.2
		c-21.3,6.4-37.9,23.7-43.2,45.6l0,0c0.9,1.1,1.8,2,2.8,3.1l0.7,0.7c0.7,0.7,1.5,1.5,2.2,2.2l0.9,0.9c0.7,0.7,1.5,1.3,2,1.8l1.1,0.9
		l2.2,1.7l1.1,0.9c0.7,0.6,1.5,1.1,2.2,1.7l1.1,0.7l2.4,1.5l1.1,0.7c0.9,0.6,1.8,1.1,2.8,1.7l0.7,0.4c1.3,0.7,2.4,1.3,3.7,1.8l0,0
		c1.3,0.6,2.4,1.1,3.7,1.7l1.1,0.4c0.9,0.4,1.8,0.7,2.8,1.1l1.5,0.6c0.7,0.4,1.7,0.6,2.6,0.7l1.7,0.4l2.4,0.7l1.7,0.4
		c0.9,0.2,1.7,0.4,2.6,0.6l1.7,0.4c0.9,0.2,1.8,0.2,2.6,0.4l1.7,0.2l2.9,0.2l1.5,0.2c1.5,0,2.9,0.2,4.4,0.2c1.5,0,2.9,0,4.4-0.2
		c0.6,0,0.9,0,1.5-0.2c0.9,0,2-0.2,2.9-0.2l1.7-0.2c0.9-0.2,1.7-0.2,2.6-0.4l1.7-0.4l2.6-0.6c0.6-0.2,1.1-0.2,1.7-0.4
		s1.7-0.4,2.4-0.7l1.7-0.4c0.9-0.2,1.7-0.6,2.6-0.7l1.5-0.6l2.8-1.1l1.1-0.4c1.3-0.6,2.4-1.1,3.7-1.7h0.2c1.3-0.6,2.4-1.3,3.7-1.8
		l0.7-0.4c0.9-0.6,1.8-1.1,2.8-1.7l1.1-0.7c0.7-0.6,1.7-1.1,2.4-1.7l1.1-0.7c0.7-0.6,1.5-1.1,2.2-1.7l1.1-0.9
		c0.7-0.6,1.5-1.1,2.2-1.7l1.1-0.9c0.7-0.6,1.5-1.3,2-1.8l0.9-0.9c0.7-0.7,1.5-1.5,2.2-2.2l0.7-0.7c0.9-1.1,1.8-2,2.8-3.1l0,0
		C136.2,109.4,119.9,92.1,98.6,85.5z"/>
</g>
</svg>
