<?xml version="1.0" encoding="UTF-8"?>
<svg id="_圖層_2" data-name="圖層 2" xmlns="http://www.w3.org/2000/svg" viewBox="0 0 318.14 119.06">
  <defs>
    <style>
      .cls-1 {
        fill: #00b336;
      }

      .cls-2 {
        fill: #fff;
      }
    </style>
  </defs>
  <g id="_圖層_3" data-name="圖層 3">
    <g>
      <path class="cls-1" d="m0,11.71C0,5.24,5.24,0,11.71,0h294.72c6.47,0,11.71,5.24,11.71,11.71v95.64c0,6.47-5.24,11.71-11.71,11.71H11.71c-6.47,0-11.71-5.24-11.71-11.71V11.71Z"/>
      <path class="cls-2" d="m73.13,36.11c-2.18-1.2-4.88-.27-6,2.02l-16.08,34.58c-.37.75-.71,1.26-1.55,1.26s-1.18-.51-1.55-1.26l-16.1-34.58c-1.12-2.3-3.82-3.2-6-2.02-2.18,1.2-3.05,4.03-1.91,6.3l15.73,32.01,1.79,3.63c1.55,3.18,4.64,5.16,8.07,5.16s6.49-1.98,8.07-5.16l1.79-3.63,15.72-32.01c1.06-2.28.22-5.11-1.97-6.3Z"/>
      <path class="cls-2" d="m286.67,35.6c-3.03-.02-5.69,1.89-6.95,4.48-4.09,8.33-16.12,33.09-16.16,33.16-.1.16-.33.73-.86.73-.49,0-.77-.55-.87-.75-4-8.23-11.85-24.45-15.98-32.85-1.59-3.24-4.25-4.79-7.12-4.79-4.43,0-8.01,3.73-8.01,8.82v34.03c0,2.06,1.18,3.99,3.01,4.59,2.97.96,5.51-1.61,5.51-4.67l-.63-33.18c0-.33.41-.47.57-.18l16.41,33.16c1.51,3.18,4.17,5.07,7.1,5.07s5.57-1.9,7.1-5.07l16.43-33.14c.16-.31.59-.2.59.18l-.63,33.36c0,2.63,1.97,4.77,4.39,4.67,2.34-.08,4.13-2.32,4.13-4.89v-33.93c0-5.12-3.6-8.78-8.05-8.8Z"/>
      <path class="cls-2" d="m225.26,76.31l-18.09-35.62c-1.58-3.16-4.65-5.14-8.05-5.14-2.13,0-4.13.77-5.73,2.12-.94.81-1.75,1.83-2.34,3l-18.01,35.44s-.04.08-.06.12l-.02.06c-.83,1.65-.63,3.59.35,5.01.02.04.06.08.08.12s.06.08.1.12c.31.41.71.79,1.18,1.06,1.52.92,3.33.79,4.68-.16.02-.02.04-.02.06-.04.1-.08.2-.14.28-.22.08-.06.16-.14.22-.22.04-.04.06-.06.1-.1.32-.33.61-.71.83-1.16l.67-1.41,3.76-7.87c.1-.2.3-.33.51-.33h16.63c2.23,0,4.04-1.9,4.04-4.24s-1.81-4.24-4.04-4.24h-12.42c-.28,0-.43-.27-.33-.53l.93-1.96,6.79-13.67.02-.06s.02-.06.04-.08c.12-.24.47-1.2,1.14-1.39.36-.12.75-.1,1-.02.69.22,1.01,1.06,1.3,1.67l16.49,34.17c.81,1.57,2.34,2.47,3.94,2.47.51,0,1.02-.1,1.51-.28.04-.02.06-.02.1-.04.12-.06.24-.12.35-.18.04-.02.1-.04.14-.06.02-.02.04-.04.08-.04.04-.02.08-.04.1-.06.06-.04.1-.08.16-.1.04-.04.08-.06.12-.1.06-.06.14-.1.2-.16.08-.06.14-.12.22-.2.02-.02.04-.04.06-.06,1.46-1.37,1.89-3.69.93-5.64Z"/>
      <path class="cls-2" d="m85.27,64.57h30.45c.57,0,5.29-.39,5.29-5.69,0-13.1-10.14-23.74-22.59-23.74s-22.59,10.64-22.59,23.74c0,.29.02,1.12.02,1.26-.02,14.94,9.6,22.99,22.36,23.74.61.04,1.2.06,1.79.06,4.9,0,9.03-1.28,13.52-4.1.45-.28,2.26-1.47,4.09-3.85,1.46-1.89,1.59-4.69,0-6.15-2.28-2.1-4.64-.96-6.75.8-3.31,2.81-5.85,4.99-12.44,4.99-6.2,0-12.06-3.53-13.46-10.58-.06-.24.08-.47.31-.47Zm-.35-8.76c.85-6.85,5.57-12.94,13.46-12.94s12.87,5.95,13.66,12.94c.02.26-.14.49-.37.49h-26.35c-.26,0-.41-.24-.39-.49Z"/>
      <path class="cls-2" d="m135.36,64.57h30.45c.57,0,5.29-.39,5.29-5.69,0-13.1-10.14-23.74-22.59-23.74s-22.59,10.64-22.59,23.74c0,.29.02,1.12.02,1.26-.02,14.94,9.6,22.99,22.36,23.74.61.04,1.2.06,1.79.06,4.9,0,9.03-1.28,13.52-4.1.45-.28,2.26-1.47,4.09-3.85,1.46-1.89,1.59-4.69,0-6.15-2.28-2.1-4.64-.96-6.75.8-3.31,2.81-5.85,4.99-12.44,4.99-6.2,0-12.06-3.53-13.46-10.58-.08-.24.08-.47.32-.47Zm-.35-8.76c.85-6.85,5.57-12.94,13.46-12.94s12.87,5.95,13.66,12.94c.02.26-.14.49-.37.49h-26.35c-.26,0-.43-.24-.39-.49Z"/>
    </g>
  </g>
</svg>